<svg version="1.1" baseProfile="full" xmlns="http://www.w3.org/2000/svg" width="808.8666666666667" height="80">
	<g>
		<line x1="10" y1="40.0" x2="798.8666666666667" y2="40.0" style="stroke:rgb(70,70,70); stroke-width:3 "/>
		<g>
			<title> (SCLAV_2920)
Putative serine-threonine protein kinase</title>
			<polygon class=" (SCLAV_2920)
Putative serine-threonine protein kinase" points="66,25 40,25 40,10 10,40 40,70 40,55 66,55" fill="rgb(255,255,255)" fill-opacity="1.0" stroke="rgb(0,0,0)" stroke-width="2"  />
			<g>
				<title>Pkinase (PF00069)
"Protein kinase domain"</title>
				<rect class="PF00069" x="40" y="28" stroke-linejoin="round" width="24" height="24" fill="rgb(93,191,206)" stroke="rgb(74,152,164)" stroke-width="1" opacity="0.75" />
			</g>
		</g>
		<g>
			<title>cvm9 (SCLAV_2921)
DNA-binding protein</title>
			<polygon class="cvm9 (SCLAV_2921)
DNA-binding protein" points="68,40 86,10 86,70" fill="rgb(255,255,255)" fill-opacity="1.0" stroke="rgb(0,0,0)" stroke-width="2"  />
		</g>
		<g>
			<title>cvm6 (SCLAV_2922)
Putative pyridoxal phosphate-dependent aminotransferase</title>
			<polygon class="cvm6 (SCLAV_2922)
Putative pyridoxal phosphate-dependent aminotransferase" points="143,25 128,25 128,10 98,40 128,70 128,55 143,55" fill="rgb(255,255,255)" fill-opacity="1.0" stroke="rgb(0,0,0)" stroke-width="2"  />
			<g>
				<title>Aminotran_3 (PF00202)
"Aminotransferase class-III"</title>
				<polygon class="PF00202" points="102,40 114,28 140,28 140,52 114,52" stroke-linejoin="round" width="41" height="24" fill="rgb(182,63,213)" stroke="rgb(145,50,170)" stroke-width="1" opacity="0.75" />
			</g>
		</g>
		<g>
			<title>cvm5 (SCLAV_2923)
Flavin-dependent oxidoreductase, F420-dependent methylene-tetrahydromethanopterin reductase</title>
			<polygon class="cvm5 (SCLAV_2923)
Flavin-dependent oxidoreductase, F420-dependent methylene-tetrahydromethanopterin reductase" points="153,25 162,25 162,10 192,40 162,70 162,55 153,55" fill="rgb(255,255,255)" fill-opacity="1.0" stroke="rgb(0,0,0)" stroke-width="2"  />
			<g>
				<title>Bac_luciferase (PF00296)
"Luciferase-like monooxygenase"</title>
				<polygon class="PF00296" points="153,28 176,28 188,40 188,40 176,52 153,52" stroke-linejoin="round" width="35" height="24" fill="rgb(50,200,104)" stroke="rgb(40,160,83)" stroke-width="1" opacity="0.75" />
			</g>
		</g>
		<g>
			<title>cvm4 (SCLAV_2924)
Alpha/beta hydrolase</title>
			<polygon class="cvm4 (SCLAV_2924)
Alpha/beta hydrolase" points="194,25 196,25 196,10 226,40 196,70 196,55 194,55" fill="rgb(255,255,255)" fill-opacity="1.0" stroke="rgb(0,0,0)" stroke-width="2"  />
			<g>
				<title>Abhydrolase_1 (PF00561)
"alpha/beta hydrolase fold"</title>
				<polygon class="PF00561" points="197,28 210,28 212,30 212,50 210,52 197,52" stroke-linejoin="round" width="15" height="24" fill="rgb(99,159,215)" stroke="rgb(79,127,172)" stroke-width="1" opacity="0.75" />
			</g>
		</g>
		<g>
			<title>cas1 (SCLAV_2925)
Clavaminate synthase 1</title>
			<polygon class="cas1 (SCLAV_2925)
Clavaminate synthase 1" points="274,25 272,25 272,10 242,40 272,70 272,55 274,55" fill="rgb(255,255,255)" fill-opacity="1.0" stroke="rgb(0,0,0)" stroke-width="2"  />
			<g>
				<title>TauD (PF02668)
"Taurine catabolism dioxygenase TauD, TfdA family"</title>
				<polygon class="PF02668" points="246,40 258,28 269,28 269,52 258,52" stroke-linejoin="round" width="25" height="24" fill="rgb(72,206,196)" stroke="rgb(57,164,156)" stroke-width="1" opacity="0.75" />
			</g>
		</g>
		<g>
			<title>cvm1 (SCLAV_2926)
Aldo/keto reductase</title>
			<polygon class="cvm1 (SCLAV_2926)
Aldo/keto reductase" points="294,25 298,25 298,10 328,40 298,70 298,55 294,55" fill="rgb(255,255,255)" fill-opacity="1.0" stroke="rgb(0,0,0)" stroke-width="2"  />
			<g>
				<title>Aldo_ket_red (PF00248)
"Aldo/keto reductase family"</title>
				<polygon class="PF00248" points="297,28 312,28 324,40 312,52 297,52" stroke-linejoin="round" width="29" height="24" fill="rgb(96,196,138)" stroke="rgb(76,156,110)" stroke-width="1" opacity="0.75" />
			</g>
		</g>
		<g>
			<title>cvm2 (SCLAV_2927)
Hypothetical protein</title>
			<polygon class="cvm2 (SCLAV_2927)
Hypothetical protein" points="343,10 358,40 343,70" fill="rgb(255,255,255)" fill-opacity="1.0" stroke="rgb(0,0,0)" stroke-width="2"  />
			<g>
				<title>SnoaL_2 (PF12680)
"SnoaL-like domain"</title>
				<polygon class="PF12680" points="344,28 348,28 354,40 348,52 344,52" stroke-linejoin="round" width="11" height="24" fill="rgb(180,149,73)" stroke="rgb(144,119,58)" stroke-width="1" opacity="0.75" />
			</g>
		</g>
		<g>
			<title>cvm3 (SCLAV_2928)
Flavin reductase-like protein</title>
			<polygon class="cvm3 (SCLAV_2928)
Flavin reductase-like protein" points="358,10 375,40 358,70" fill="rgb(255,255,255)" fill-opacity="1.0" stroke="rgb(0,0,0)" stroke-width="2"  />
			<g>
				<title>Flavin_Reduct (PF01613)
"Flavin reductase like domain"</title>
				<polygon class="PF01613" points="360,28 364,28 371,40 364,52 360,52" stroke-linejoin="round" width="14" height="24" fill="rgb(223,100,227)" stroke="rgb(178,80,181)" stroke-width="1" opacity="0.75" />
			</g>
		</g>
		<g>
			<title>cvm7 (SCLAV_2929)
DnrI/RedD/AfsR-family transcriptional regulator</title>
			<polygon class="cvm7 (SCLAV_2929)
DnrI/RedD/AfsR-family transcriptional regulator" points="491,25 410,25 410,10 380,40 410,70 410,55 491,55" fill="rgb(255,255,255)" fill-opacity="1.0" stroke="rgb(0,0,0)" stroke-width="2"  />
			<g>
				<title>AAA_16 (PF13191)
"AAA ATPase domain"</title>
				<rect class="PF13191" x="439" y="28" stroke-linejoin="round" width="15" height="24" fill="rgb(88,106,197)" stroke="rgb(70,84,157)" stroke-width="1" opacity="0.75" />
			</g>
			<g>
				<title>BTAD (PF03704)
"Bacterial transcriptional activator domain"</title>
				<rect class="PF03704" x="466" y="28" stroke-linejoin="round" width="14" height="24" fill="rgb(174,224,58)" stroke="rgb(139,179,46)" stroke-width="1" opacity="0.75" />
			</g>
			<g>
				<title>Trans_reg_C (PF00486)
"Transcriptional regulatory protein, C terminal"</title>
				<rect class="PF00486" x="481" y="28" stroke-linejoin="round" width="7" height="24" fill="rgb(69,185,116)" stroke="rgb(55,148,92)" stroke-width="1" opacity="0.75" />
			</g>
		</g>
		<g>
			<title>cvm11 (SCLAV_2930)
Putative translocator</title>
			<polygon class="cvm11 (SCLAV_2930)
Putative translocator" points="504,40 525,10 525,70" fill="rgb(255,255,255)" fill-opacity="1.0" stroke="rgb(0,0,0)" stroke-width="2"  />
			<g>
				<title>LysE (PF01810)
"LysE type translocator"</title>
				<polygon class="PF01810" points="508,40 517,28 524,28 524,52 517,52" stroke-linejoin="round" width="20" height="24" fill="rgb(178,96,213)" stroke="rgb(142,76,170)" stroke-width="1" opacity="0.75" />
			</g>
		</g>
		<g>
			<title>cvm12 (SCLAV_2931)
Putative transcriptional regulatory protein</title>
			<polygon class="cvm12 (SCLAV_2931)
Putative transcriptional regulatory protein" points="536,25 550,25 550,10 580,40 550,70 550,55 536,55" fill="rgb(255,255,255)" fill-opacity="1.0" stroke="rgb(0,0,0)" stroke-width="2"  />
			<g>
				<title>GntR (PF00392)
"Bacterial regulatory proteins, gntR family"</title>
				<rect class="PF00392" x="536" y="28" stroke-linejoin="round" width="6" height="24" fill="rgb(215,102,113)" stroke="rgb(172,81,90)" stroke-width="1" opacity="0.75" />
			</g>
			<g>
				<title>Aminotran_1_2 (PF00155)
"Aminotransferase class I and II"</title>
				<polygon class="PF00155" points="547,28 564,28 576,40 564,52 547,52" stroke-linejoin="round" width="31" height="24" fill="rgb(207,146,55)" stroke="rgb(165,116,43)" stroke-width="1" opacity="0.75" />
			</g>
		</g>
		<g>
			<title>cvm13 (SCLAV_2932)
Beta-aspartyl-peptidase</title>
			<polygon class="cvm13 (SCLAV_2932)
Beta-aspartyl-peptidase" points="585,25 594,25 594,10 624,40 594,70 594,55 585,55" fill="rgb(255,255,255)" fill-opacity="1.0" stroke="rgb(0,0,0)" stroke-width="2"  />
			<g>
				<title>Asparaginase_2 (PF01112)
"Asparaginase"</title>
				<polygon class="PF01112" points="592,28 607,28 619,40 607,52 592,52" stroke-linejoin="round" width="31" height="24" fill="rgb(48,101,181)" stroke="rgb(38,80,144)" stroke-width="1" opacity="0.75" />
			</g>
		</g>
		<g>
			<title>cvmH (SCLAV_2933)
LanU-like protein</title>
			<polygon class="cvmH (SCLAV_2933)
LanU-like protein" points="662,25 663,25 663,10 693,40 663,70 663,55 662,55" fill="rgb(255,255,255)" fill-opacity="1.0" stroke="rgb(0,0,0)" stroke-width="2"  />
			<g>
				<title>Abhydrolase_6 (PF12697)
"Alpha/beta hydrolase family"</title>
				<polygon class="PF12697" points="665,28 677,28 688,39 688,41 677,52 665,52" stroke-linejoin="round" width="23" height="24" fill="rgb(87,73,196)" stroke="rgb(69,58,156)" stroke-width="1" opacity="0.75" />
			</g>
		</g>
		<g>
			<title>cvmP (SCLAV_2934)
putative protein-arginine deiminase</title>
			<polygon class="cvmP (SCLAV_2934)
putative protein-arginine deiminase" points="766,25 728,25 728,10 698,40 728,70 728,55 766,55" fill="rgb(255,255,255)" fill-opacity="1.0" stroke="rgb(0,0,0)" stroke-width="2"  />
			<g>
				<title>PAD (PF03068)
"Protein-arginine deiminase (PAD)"</title>
				<polygon class="PF03068" points="702,40 714,28 740,28 740,52 714,52" stroke-linejoin="round" width="42" height="24" fill="rgb(210,94,188)" stroke="rgb(168,75,150)" stroke-width="1" opacity="0.75" />
			</g>
		</g>
		<g>
			<title>cvmG (SCLAV_2935)
Hypothetical protein</title>
			<polygon class="cvmG (SCLAV_2935)
Hypothetical protein" points="774,10 798,40 774,70" fill="rgb(255,255,255)" fill-opacity="1.0" stroke="rgb(0,0,0)" stroke-width="2"  />
			<g>
				<title>DUF6344 (PF19871)
"Family of unknown function (DUF6344)"</title>
				<polygon class="PF19871" points="792,38 794,40 792,42" stroke-linejoin="round" width="3" height="24" fill="rgb(101,114,203)" stroke="rgb(80,91,162)" stroke-width="1" opacity="0.75" />
			</g>
		</g>
	</g>
</svg>
