<svg version="1.1" baseProfile="full" xmlns="http://www.w3.org/2000/svg" width="1300.3333333333333" height="80">
	<g>
		<line x1="10" y1="40.0" x2="1290.3333333333333" y2="40.0" style="stroke:rgb(70,70,70); stroke-width:3 "/>
		<g>
			<title>aviX1
putative GTP binding protein</title>
			<polygon class="aviX1
putative GTP binding protein" points="10,25 16,25 16,10 46,40 16,70 16,55 10,55" fill="rgb(255,255,255)" fill-opacity="1.0" stroke="rgb(0,0,0)" stroke-width="2"  />
			<g>
				<title>MMR_HSR1 (PF01926)
"50S ribosome-binding GTPase"</title>
				<rect class="PF01926" x="10" y="28" stroke-linejoin="round" width="13" height="24" fill="rgb(71,137,226)" stroke="rgb(56,109,180)" stroke-width="1" opacity="0.75" />
			</g>
			<g>
				<title>YchF-GTPase_C (PF06071)
"Protein of unknown function (DUF933)"</title>
				<polygon class="PF06071" points="37,35 42,40 37,45" stroke-linejoin="round" width="8" height="24" fill="rgb(164,213,82)" stroke="rgb(131,170,65)" stroke-width="1" opacity="0.75" />
			</g>
		</g>
		<g>
			<title>aviX2
AviX2</title>
			<polygon class="aviX2
AviX2" points="52,10 61,40 52,70" fill="rgb(255,255,255)" fill-opacity="1.0" stroke="rgb(0,0,0)" stroke-width="2"  />
			<g>
				<title>PhdYeFM_antitox (PF02604)
"Antitoxin Phd_YefM, type II toxin-antitoxin system"</title>
				<polygon class="PF02604" points="52,28 54,28 58,40 58,40 54,52 52,52" stroke-linejoin="round" width="6" height="24" fill="rgb(146,57,202)" stroke="rgb(116,45,161)" stroke-width="1" opacity="0.75" />
			</g>
		</g>
		<g>
			<title>aviX3
AviX3</title>
			<polygon class="aviX3
AviX3" points="61,10 69,40 61,70" fill="rgb(255,255,255)" fill-opacity="1.0" stroke="rgb(0,0,0)" stroke-width="2"  />
			<g>
				<title>YoeB_toxin (PF06769)
"YoeB-like toxin of bacterial type II toxin-antitoxin system"</title>
				<polygon class="PF06769" points="61,28 62,28 66,40 62,52 61,52" stroke-linejoin="round" width="7" height="24" fill="rgb(73,164,212)" stroke="rgb(58,131,169)" stroke-width="1" opacity="0.75" />
			</g>
		</g>
		<g>
			<title>aviX4
AviX4</title>
			<polygon class="aviX4
AviX4" points="77,40 99,10 99,70" fill="rgb(255,255,255)" fill-opacity="1.0" stroke="rgb(0,0,0)" stroke-width="2"  />
			<g>
				<title>DUF6000 (PF19463)
"Family of unknown function (DUF6000)"</title>
				<polygon class="PF19463" points="81,40 90,28 90,28 90,52 90,52" stroke-linejoin="round" width="11" height="24" fill="rgb(203,115,67)" stroke="rgb(162,92,53)" stroke-width="1" opacity="0.75" />
			</g>
		</g>
		<g>
			<title>aviX5
AviX5</title>
			<polygon class="aviX5
AviX5" points="100,40 118,10 118,70" fill="rgb(255,255,255)" fill-opacity="1.0" stroke="rgb(0,0,0)" stroke-width="2"  />
		</g>
		<g>
			<title>aviRb
rRNA methyltransferase</title>
			<polygon class="aviRb
rRNA methyltransferase" points="121,10 149,40 121,70" fill="rgb(255,255,255)" fill-opacity="1.0" stroke="rgb(0,0,0)" stroke-width="2"  />
			<g>
				<title>SpoU_methylase (PF00588)
"SpoU rRNA Methylase family"</title>
				<polygon class="PF00588" points="133,28 133,28 145,40 133,52 133,52" stroke-linejoin="round" width="14" height="24" fill="rgb(181,85,155)" stroke="rgb(144,67,124)" stroke-width="1" opacity="0.75" />
			</g>
		</g>
		<g>
			<title>aviX6
AviX6</title>
			<polygon class="aviX6
AviX6" points="150,10 161,40 150,70" fill="rgb(255,255,255)" fill-opacity="1.0" stroke="rgb(0,0,0)" stroke-width="2"  />
		</g>
		<g>
			<title>aviX7
AviX7</title>
			<polygon class="aviX7
AviX7" points="162,10 166,40 162,70" fill="rgb(255,255,255)" fill-opacity="1.0" stroke="rgb(0,0,0)" stroke-width="2"  />
		</g>
		<g>
			<title>aviX8
AviX8</title>
			<polygon class="aviX8
AviX8" points="173,10 184,40 173,70" fill="rgb(255,255,255)" fill-opacity="1.0" stroke="rgb(0,0,0)" stroke-width="2"  />
		</g>
		<g>
			<title>aviRa
rRNA methyltransferase AviRa</title>
			<polygon class="aviRa
rRNA methyltransferase AviRa" points="188,40 213,10 213,70" fill="rgb(255,255,255)" fill-opacity="1.0" stroke="rgb(0,0,0)" stroke-width="2"  />
			<g>
				<title>AviRa (PF11599)
"RRNA methyltransferase AviRa"</title>
				<polygon class="PF11599" points="192,40 202,28 212,28 212,52 202,52" stroke-linejoin="round" width="23" height="24" fill="rgb(186,72,123)" stroke="rgb(148,57,98)" stroke-width="1" opacity="0.75" />
			</g>
		</g>
		<g>
			<title>aviQ1
putative UDP-glucose 4-epimerase</title>
			<polygon class="aviQ1
putative UDP-glucose 4-epimerase" points="221,25 223,25 223,10 253,40 223,70 223,55 221,55" fill="rgb(255,255,255)" fill-opacity="1.0" stroke="rgb(0,0,0)" stroke-width="2"  />
			<g>
				<title>Epimerase (PF01370)
"NAD dependent epimerase/dehydratase family"</title>
				<polygon class="PF01370" points="222,28 237,28 244,35 244,45 237,52 222,52" stroke-linejoin="round" width="22" height="24" fill="rgb(215,89,157)" stroke="rgb(172,71,125)" stroke-width="1" opacity="0.75" />
			</g>
		</g>
		<g>
			<title>aviGT2
putative glycosyltransferase</title>
			<polygon class="aviGT2
putative glycosyltransferase" points="257,40 281,10 281,70" fill="rgb(255,255,255)" fill-opacity="1.0" stroke="rgb(0,0,0)" stroke-width="2"  />
			<g>
				<title>Glyco_tranf_2_3 (PF13641)
"Glycosyltransferase like family 2"</title>
				<polygon class="PF13641" points="261,40 271,28 280,28 280,52 271,52 261,40" stroke-linejoin="round" width="19" height="24" fill="rgb(220,84,201)" stroke="rgb(176,67,160)" stroke-width="1" opacity="0.75" />
			</g>
		</g>
		<g>
			<title>aviX9
AviX9</title>
			<polygon class="aviX9
AviX9" points="289,25 294,25 294,10 324,40 294,70 294,55 289,55" fill="rgb(255,255,255)" fill-opacity="1.0" stroke="rgb(0,0,0)" stroke-width="2"  />
			<g>
				<title>SsfX3_N (PF21181)
"SsfX3, N-terminal domain"</title>
				<rect class="PF21181" x="290" y="28" stroke-linejoin="round" width="12" height="24" fill="rgb(108,187,78)" stroke="rgb(86,149,62)" stroke-width="1" opacity="0.75" />
			</g>
			<g>
				<title>Lipase_GDSL_2 (PF13472)
"GDSL-like Lipase/Acylhydrolase family"</title>
				<polygon class="PF13472" points="305,28 308,28 320,40 308,52 305,52" stroke-linejoin="round" width="17" height="24" fill="rgb(211,100,148)" stroke="rgb(168,80,118)" stroke-width="1" opacity="0.75" />
			</g>
		</g>
		<g>
			<title>aviC1
putative two-component regulator</title>
			<polygon class="aviC1
putative two-component regulator" points="325,40 345,10 345,70" fill="rgb(255,255,255)" fill-opacity="1.0" stroke="rgb(0,0,0)" stroke-width="2"  />
			<g>
				<title>GerE (PF00196)
"Bacterial regulatory proteins, luxR family"</title>
				<polygon class="PF00196" points="329,40 332,36 332,44" stroke-linejoin="round" width="5" height="24" fill="rgb(225,67,110)" stroke="rgb(180,53,88)" stroke-width="1" opacity="0.75" />
			</g>
		</g>
		<g>
			<title>aviC2
putative response regulator</title>
			<polygon class="aviC2
putative response regulator" points="355,40 374,10 374,70" fill="rgb(255,255,255)" fill-opacity="1.0" stroke="rgb(0,0,0)" stroke-width="2"  />
			<g>
				<title>GerE (PF00196)
"Bacterial regulatory proteins, luxR family"</title>
				<polygon class="PF00196" points="359,40 362,35 362,45" stroke-linejoin="round" width="5" height="24" fill="rgb(225,67,110)" stroke="rgb(180,53,88)" stroke-width="1" opacity="0.75" />
			</g>
		</g>
		<g>
			<title>aviX10
AviX10</title>
			<polygon class="aviX10
AviX10" points="379,10 392,40 379,70" fill="rgb(255,255,255)" fill-opacity="1.0" stroke="rgb(0,0,0)" stroke-width="2"  />
			<g>
				<title>Cupin_1 (PF00190)
"Cupin"</title>
				<polygon class="PF00190" points="382,28 383,28 389,40 383,52 382,52" stroke-linejoin="round" width="8" height="24" fill="rgb(131,228,100)" stroke="rgb(104,182,80)" stroke-width="1" opacity="0.75" />
			</g>
		</g>
		<g>
			<title>aviX11
AviX11</title>
			<polygon class="aviX11
AviX11" points="393,10 416,40 393,70" fill="rgb(255,255,255)" fill-opacity="1.0" stroke="rgb(0,0,0)" stroke-width="2"  />
		</g>
		<g>
			<title>aviG1
methyltransferase</title>
			<polygon class="aviG1
methyltransferase" points="416,25 426,25 426,10 456,40 426,70 426,55 416,55" fill="rgb(255,255,255)" fill-opacity="1.0" stroke="rgb(0,0,0)" stroke-width="2"  />
			<g>
				<title>Methyltransf_13 (PF08421)
"Putative zinc binding domain"</title>
				<rect class="PF08421" x="417" y="28" stroke-linejoin="round" width="6" height="24" fill="rgb(65,65,206)" stroke="rgb(52,52,164)" stroke-width="1" opacity="0.75" />
			</g>
			<g>
				<title>Methyltransf_23 (PF13489)
"Methyltransferase domain"</title>
				<rect class="PF13489" x="424" y="28" stroke-linejoin="round" width="16" height="24" fill="rgb(62,214,70)" stroke="rgb(49,171,56)" stroke-width="1" opacity="0.75" />
			</g>
			<g>
				<title>Methyltransf_14 (PF08484)
"C-methyltransferase C-terminal domain"</title>
				<polygon class="PF08484" points="440,28 440,28 452,40 440,52 440,52" stroke-linejoin="round" width="15" height="24" fill="rgb(131,189,66)" stroke="rgb(104,151,52)" stroke-width="1" opacity="0.75" />
			</g>
		</g>
		<g>
			<title>aviJ
putative transporter</title>
			<polygon class="aviJ
putative transporter" points="457,25 474,25 474,10 504,40 474,70 474,55 457,55" fill="rgb(255,255,255)" fill-opacity="1.0" stroke="rgb(0,0,0)" stroke-width="2"  />
			<g>
				<title>Na_H_Exchanger (PF00999)
"Sodium/hydrogen exchanger family"</title>
				<polygon class="PF00999" points="463,28 488,28 500,40 488,52 463,52" stroke-linejoin="round" width="39" height="24" fill="rgb(95,122,202)" stroke="rgb(76,97,161)" stroke-width="1" opacity="0.75" />
			</g>
		</g>
		<g>
			<title>aviN
AviN</title>
			<polygon class="aviN
AviN" points="510,25 514,25 514,10 544,40 514,70 514,55 510,55" fill="rgb(255,255,255)" fill-opacity="1.0" stroke="rgb(0,0,0)" stroke-width="2"  />
		</g>
		<g>
			<title>aviM
polyketide synthase</title>
			<polygon class="aviM
polyketide synthase" points="544,25 643,25 643,10 673,40 643,70 643,55 544,55" fill="rgb(255,255,255)" fill-opacity="1.0" stroke="rgb(0,0,0)" stroke-width="2"  />
			<g>
				<title>ketoacyl-synt (PF00109)
"Beta-ketoacyl synthase, N-terminal domain"</title>
				<rect class="PF00109" x="546" y="28" stroke-linejoin="round" width="26" height="24" fill="rgb(74,179,82)" stroke="rgb(59,143,65)" stroke-width="1" opacity="0.75" />
			</g>
			<g>
				<title>Ketoacyl-synt_C (PF02801)
"Beta-ketoacyl synthase, C-terminal domain"</title>
				<rect class="PF02801" x="573" y="28" stroke-linejoin="round" width="11" height="24" fill="rgb(212,79,72)" stroke="rgb(169,63,57)" stroke-width="1" opacity="0.75" />
			</g>
			<g>
				<title>KAsynt_C_assoc (PF16197)
"Ketoacyl-synthetase C-terminal extension"</title>
				<rect class="PF16197" x="585" y="28" stroke-linejoin="round" width="11" height="24" fill="rgb(200,86,70)" stroke="rgb(160,68,56)" stroke-width="1" opacity="0.75" />
			</g>
			<g>
				<title>Acyl_transf_1 (PF00698)
"Acyl transferase domain"</title>
				<rect class="PF00698" x="599" y="28" stroke-linejoin="round" width="31" height="24" fill="rgb(132,93,193)" stroke="rgb(105,74,154)" stroke-width="1" opacity="0.75" />
			</g>
			<g>
				<title>PKS_DH_N (PF21089)
"Polyketide synthase dehydratase domain"</title>
				<rect class="PF21089" x="635" y="28" stroke-linejoin="round" width="9" height="24" fill="rgb(67,151,200)" stroke="rgb(53,120,160)" stroke-width="1" opacity="0.75" />
			</g>
			<g>
				<title>PP-binding (PF00550)
"Phosphopantetheine attachment site"</title>
				<polygon class="PF00550" points="665,36 669,40 665,44" stroke-linejoin="round" width="6" height="24" fill="rgb(181,58,166)" stroke="rgb(144,46,132)" stroke-width="1" opacity="0.75" />
			</g>
		</g>
		<g>
			<title>aviD
putative dTDP glucose synthetase</title>
			<polygon class="aviD
putative dTDP glucose synthetase" points="680,25 685,25 685,10 715,40 685,70 685,55 680,55" fill="rgb(255,255,255)" fill-opacity="1.0" stroke="rgb(0,0,0)" stroke-width="2"  />
			<g>
				<title>NTP_transferase (PF00483)
"Nucleotidyl transferase"</title>
				<polygon class="PF00483" points="680,28 699,28 703,32 703,48 699,52 680,52" stroke-linejoin="round" width="23" height="24" fill="rgb(211,145,90)" stroke="rgb(168,116,72)" stroke-width="1" opacity="0.75" />
			</g>
		</g>
		<g>
			<title>aviE1
putative dTDP-glucose 4,6-dehydratase</title>
			<polygon class="aviE1
putative dTDP-glucose 4,6-dehydratase" points="717,25 722,25 722,10 752,40 722,70 722,55 717,55" fill="rgb(255,255,255)" fill-opacity="1.0" stroke="rgb(0,0,0)" stroke-width="2"  />
			<g>
				<title>GDP_Man_Dehyd (PF16363)
"GDP-mannose 4,6 dehydratase"</title>
				<polygon class="PF16363" points="718,28 736,28 747,39 747,41 736,52 718,52" stroke-linejoin="round" width="29" height="24" fill="rgb(50,144,195)" stroke="rgb(40,115,156)" stroke-width="1" opacity="0.75" />
			</g>
		</g>
		<g>
			<title>aviQ2
putative NDP-glucose 4-epimerase</title>
			<polygon class="aviQ2
putative NDP-glucose 4-epimerase" points="754,25 758,25 758,10 788,40 758,70 758,55 754,55" fill="rgb(255,255,255)" fill-opacity="1.0" stroke="rgb(0,0,0)" stroke-width="2"  />
			<g>
				<title>Epimerase (PF01370)
"NAD dependent epimerase/dehydratase family"</title>
				<polygon class="PF01370" points="754,28 772,28 777,33 777,47 772,52 754,52" stroke-linejoin="round" width="23" height="24" fill="rgb(215,89,157)" stroke="rgb(172,71,125)" stroke-width="1" opacity="0.75" />
			</g>
		</g>
		<g>
			<title>aviG5
putative methyltransferase</title>
			<polygon class="aviG5
putative methyltransferase" points="790,10 810,40 790,70" fill="rgb(255,255,255)" fill-opacity="1.0" stroke="rgb(0,0,0)" stroke-width="2"  />
			<g>
				<title>Methyltransf_31 (PF13847)
"Methyltransferase domain"</title>
				<polygon class="PF13847" points="795,28 798,28 804,37 804,43 798,52 795,52" stroke-linejoin="round" width="9" height="24" fill="rgb(215,176,97)" stroke="rgb(172,140,77)" stroke-width="1" opacity="0.75" />
			</g>
		</g>
		<g>
			<title>aviO1
putative oxygenase</title>
			<polygon class="aviO1
putative oxygenase" points="815,10 837,40 815,70" fill="rgb(255,255,255)" fill-opacity="1.0" stroke="rgb(0,0,0)" stroke-width="2"  />
			<g>
				<title>PhyH (PF05721)
"Phytanoyl-CoA dioxygenase (PhyH)"</title>
				<polygon class="PF05721" points="816,28 824,28 833,40 824,52 816,52" stroke-linejoin="round" width="19" height="24" fill="rgb(186,53,95)" stroke="rgb(148,42,76)" stroke-width="1" opacity="0.75" />
			</g>
		</g>
		<g>
			<title>aviGT1
putative glycosyltransferase</title>
			<polygon class="aviGT1
putative glycosyltransferase" points="840,25 853,25 853,10 883,40 853,70 853,55 840,55" fill="rgb(255,255,255)" fill-opacity="1.0" stroke="rgb(0,0,0)" stroke-width="2"  />
			<g>
				<title>EryCIII-like_N (PF21036)
"Erythromycin biosynthesis protein CIII-like, N-terminal domain"</title>
				<rect class="PF21036" x="850" y="28" stroke-linejoin="round" width="13" height="24" fill="rgb(205,88,112)" stroke="rgb(164,70,89)" stroke-width="1" opacity="0.75" />
			</g>
			<g>
				<title>EryCIII-like_C (PF06722)
"Erythromycin biosynthesis protein CIII-like, C-terminal domain"</title>
				<polygon class="PF06722" points="866,28 866,28 878,40 866,52 866,52" stroke-linejoin="round" width="14" height="24" fill="rgb(48,103,191)" stroke="rgb(38,82,152)" stroke-width="1" opacity="0.75" />
			</g>
		</g>
		<g>
			<title>aviE2
putative NDP-glucose 4,6-dehydratase</title>
			<polygon class="aviE2
putative NDP-glucose 4,6-dehydratase" points="882,25 885,25 885,10 915,40 885,70 885,55 882,55" fill="rgb(255,255,255)" fill-opacity="1.0" stroke="rgb(0,0,0)" stroke-width="2"  />
			<g>
				<title>Epimerase (PF01370)
"NAD dependent epimerase/dehydratase family"</title>
				<polygon class="PF01370" points="883,28 899,28 906,35 906,45 899,52 883,52" stroke-linejoin="round" width="23" height="24" fill="rgb(215,89,157)" stroke="rgb(172,71,125)" stroke-width="1" opacity="0.75" />
			</g>
		</g>
		<g>
			<title>aviG2
putative methyltransferase</title>
			<polygon class="aviG2
putative methyltransferase" points="916,10 940,40 916,70" fill="rgb(255,255,255)" fill-opacity="1.0" stroke="rgb(0,0,0)" stroke-width="2"  />
			<g>
				<title>Methyltransf_11 (PF08241)
"Methyltransferase domain"</title>
				<polygon class="PF08241" points="922,28 926,28 931,34 931,46 926,52 922,52" stroke-linejoin="round" width="9" height="24" fill="rgb(201,85,64)" stroke="rgb(160,68,51)" stroke-width="1" opacity="0.75" />
			</g>
		</g>
		<g>
			<title>aviZ1
putative oxidoreductase</title>
			<polygon class="aviZ1
putative oxidoreductase" points="940,25 943,25 943,10 973,40 943,70 943,55 940,55" fill="rgb(255,255,255)" fill-opacity="1.0" stroke="rgb(0,0,0)" stroke-width="2"  />
			<g>
				<title>Aldo_ket_red (PF00248)
"Aldo/keto reductase family"</title>
				<polygon class="PF00248" points="941,28 956,28 968,40 956,52 941,52" stroke-linejoin="round" width="29" height="24" fill="rgb(96,196,138)" stroke="rgb(76,156,110)" stroke-width="1" opacity="0.75" />
			</g>
		</g>
		<g>
			<title>aviG6
putative methyltransferase</title>
			<polygon class="aviG6
putative methyltransferase" points="974,10 998,40 974,70" fill="rgb(255,255,255)" fill-opacity="1.0" stroke="rgb(0,0,0)" stroke-width="2"  />
			<g>
				<title>Methyltransf_21 (PF05050)
"Methyltransferase FkbM domain"</title>
				<polygon class="PF05050" points="977,28 984,28 993,39 993,41 984,52 977,52" stroke-linejoin="round" width="16" height="24" fill="rgb(141,93,211)" stroke="rgb(112,74,168)" stroke-width="1" opacity="0.75" />
			</g>
		</g>
		<g>
			<title>aviO3
putative oxygenase</title>
			<polygon class="aviO3
putative oxygenase" points="998,25 999,25 999,10 1029,40 999,70 999,55 998,55" fill="rgb(255,255,255)" fill-opacity="1.0" stroke="rgb(0,0,0)" stroke-width="2"  />
			<g>
				<title>PhyH (PF05721)
"Phytanoyl-CoA dioxygenase (PhyH)"</title>
				<polygon class="PF05721" points="1001,28 1013,28 1021,36 1021,44 1013,52 1001,52" stroke-linejoin="round" width="20" height="24" fill="rgb(186,53,95)" stroke="rgb(148,42,76)" stroke-width="1" opacity="0.75" />
			</g>
		</g>
		<g>
			<title>aviG3
AviG3</title>
			<polygon class="aviG3
AviG3" points="1029,10 1056,40 1029,70" fill="rgb(255,255,255)" fill-opacity="1.0" stroke="rgb(0,0,0)" stroke-width="2"  />
			<g>
				<title>Methyltransf_23 (PF13489)
"Methyltransferase domain"</title>
				<polygon class="PF13489" points="1033,28 1041,28 1047,34 1047,46 1041,52 1033,52" stroke-linejoin="round" width="14" height="24" fill="rgb(62,214,70)" stroke="rgb(49,171,56)" stroke-width="1" opacity="0.75" />
			</g>
		</g>
		<g>
			<title>aviX12
AviX12</title>
			<polygon class="aviX12
AviX12" points="1057,25 1066,25 1066,10 1096,40 1066,70 1066,55 1057,55" fill="rgb(255,255,255)" fill-opacity="1.0" stroke="rgb(0,0,0)" stroke-width="2"  />
			<g>
				<title>Radical_SAM (PF04055)
"Radical SAM superfamily"</title>
				<polygon class="PF04055" points="1072,28 1080,28 1087,35 1087,45 1080,52 1072,52" stroke-linejoin="round" width="15" height="24" fill="rgb(223,193,78)" stroke="rgb(178,154,62)" stroke-width="1" opacity="0.75" />
			</g>
		</g>
		<g>
			<title>aviABC1
putative ATP binding protein</title>
			<polygon class="aviABC1
putative ATP binding protein" points="1096,25 1098,25 1098,10 1128,40 1098,70 1098,55 1096,55" fill="rgb(255,255,255)" fill-opacity="1.0" stroke="rgb(0,0,0)" stroke-width="2"  />
			<g>
				<title>ABC_tran (PF00005)
"ABC transporter"</title>
				<rect class="PF00005" x="1098" y="28" stroke-linejoin="round" width="14" height="24" fill="rgb(46,186,108)" stroke="rgb(36,148,86)" stroke-width="1" opacity="0.75" />
			</g>
		</g>
		<g>
			<title>aviABC2
putative transmembrane protein</title>
			<polygon class="aviABC2
putative transmembrane protein" points="1128,10 1154,40 1128,70" fill="rgb(255,255,255)" fill-opacity="1.0" stroke="rgb(0,0,0)" stroke-width="2"  />
			<g>
				<title>ABC2_membrane (PF01061)
"ABC-2 type transporter"</title>
				<polygon class="PF01061" points="1129,28 1139,28 1149,39 1149,41 1139,52 1129,52" stroke-linejoin="round" width="20" height="24" fill="rgb(91,137,194)" stroke="rgb(72,109,155)" stroke-width="1" opacity="0.75" />
			</g>
		</g>
		<g>
			<title>aviB1
putative pyruvate dehydrogenase</title>
			<polygon class="aviB1
putative pyruvate dehydrogenase" points="1155,25 1158,25 1158,10 1188,40 1158,70 1158,55 1155,55" fill="rgb(255,255,255)" fill-opacity="1.0" stroke="rgb(0,0,0)" stroke-width="2"  />
			<g>
				<title>E1_dh (PF00676)
"Dehydrogenase E1 component"</title>
				<polygon class="PF00676" points="1157,28 1172,28 1184,40 1172,52 1157,52" stroke-linejoin="round" width="29" height="24" fill="rgb(211,79,152)" stroke="rgb(168,63,121)" stroke-width="1" opacity="0.75" />
			</g>
		</g>
		<g>
			<title>aviB2
putative pyruvate dehydrogenase</title>
			<polygon class="aviB2
putative pyruvate dehydrogenase" points="1188,25 1190,25 1190,10 1220,40 1190,70 1190,55 1188,55" fill="rgb(255,255,255)" fill-opacity="1.0" stroke="rgb(0,0,0)" stroke-width="2"  />
			<g>
				<title>Transket_pyr (PF02779)
"Transketolase, pyrimidine binding domain"</title>
				<polygon class="PF02779" points="1188,28 1203,28 1205,30 1205,50 1203,52 1188,52" stroke-linejoin="round" width="17" height="24" fill="rgb(60,183,85)" stroke="rgb(48,146,67)" stroke-width="1" opacity="0.75" />
			</g>
			<g>
				<title>Transketolase_C (PF02780)
"Transketolase, C-terminal domain"</title>
				<polygon class="PF02780" points="1207,32 1215,40 1207,48" stroke-linejoin="round" width="12" height="24" fill="rgb(212,91,198)" stroke="rgb(169,72,158)" stroke-width="1" opacity="0.75" />
			</g>
		</g>
		<g>
			<title>aviGT3
putative glycosyltransferase</title>
			<polygon class="aviGT3
putative glycosyltransferase" points="1222,25 1225,25 1225,10 1255,40 1225,70 1225,55 1222,55" fill="rgb(255,255,255)" fill-opacity="1.0" stroke="rgb(0,0,0)" stroke-width="2"  />
			<g>
				<title>Glycos_transf_2 (PF00535)
"Glycosyl transferase family 2"</title>
				<rect class="PF00535" x="1223" y="28" stroke-linejoin="round" width="15" height="24" fill="rgb(197,62,212)" stroke="rgb(157,49,169)" stroke-width="1" opacity="0.75" />
			</g>
		</g>
		<g>
			<title>aviGT4
putative glycosyltransferase</title>
			<polygon class="aviGT4
putative glycosyltransferase" points="1256,25 1260,25 1260,10 1290,40 1260,70 1260,55 1256,55" fill="rgb(255,255,255)" fill-opacity="1.0" stroke="rgb(0,0,0)" stroke-width="2"  />
			<g>
				<title>Glycos_transf_1 (PF00534)
"Glycosyl transferases group 1"</title>
				<polygon class="PF00534" points="1271,28 1274,28 1285,39 1285,41 1274,52 1271,52" stroke-linejoin="round" width="14" height="24" fill="rgb(66,178,218)" stroke="rgb(52,142,174)" stroke-width="1" opacity="0.75" />
			</g>
		</g>
	</g>
</svg>
