<svg version="1.1" baseProfile="full" xmlns="http://www.w3.org/2000/svg" width="418.3333333333333" height="80">
	<g>
		<line x1="10" y1="40.0" x2="408.3333333333333" y2="40.0" style="stroke:rgb(70,70,70); stroke-width:3 "/>
		<g>
			<title>rfbB
RfbB</title>
			<polygon class="rfbB
RfbB" points="18,10 47,40 18,70" fill="rgb(255,255,255)" fill-opacity="1.0" stroke="rgb(0,0,0)" stroke-width="2"  />
			<g>
				<title>GDP_Man_Dehyd (PF16363)
"GDP-mannose 4,6 dehydratase"</title>
				<polygon class="PF16363" points="18,28 31,28 43,40 31,52 18,52" stroke-linejoin="round" width="26" height="24" fill="rgb(50,144,195)" stroke="rgb(40,115,156)" stroke-width="1" opacity="0.75" />
			</g>
		</g>
		<g>
			<title>rfbA
RfbA</title>
			<polygon class="rfbA
RfbA" points="48,10 77,40 48,70" fill="rgb(255,255,255)" fill-opacity="1.0" stroke="rgb(0,0,0)" stroke-width="2"  />
			<g>
				<title>NTP_transferase (PF00483)
"Nucleotidyl transferase"</title>
				<polygon class="PF00483" points="48,28 60,28 71,39 71,41 60,52 48,52" stroke-linejoin="round" width="23" height="24" fill="rgb(211,145,90)" stroke="rgb(168,116,72)" stroke-width="1" opacity="0.75" />
			</g>
		</g>
		<g>
			<title>wbtA
WbtA</title>
			<polygon class="wbtA
WbtA" points="77,10 90,40 77,70" fill="rgb(255,255,255)" fill-opacity="1.0" stroke="rgb(0,0,0)" stroke-width="2"  />
			<g>
				<title>FdtA (PF05523)
"WxcM-like, C-terminal"</title>
				<polygon class="PF05523" points="77,28 81,28 87,40 81,52 77,52" stroke-linejoin="round" width="13" height="24" fill="rgb(125,179,58)" stroke="rgb(100,143,46)" stroke-width="1" opacity="0.75" />
			</g>
		</g>
		<g>
			<title>wbtB
WbtB</title>
			<polygon class="wbtB
WbtB" points="90,10 107,40 90,70" fill="rgb(255,255,255)" fill-opacity="1.0" stroke="rgb(0,0,0)" stroke-width="2"  />
			<g>
				<title>Acetyltransf_3 (PF13302)
"Acetyltransferase (GNAT) domain"</title>
				<polygon class="PF13302" points="91,28 97,28 104,40 104,40 97,52 91,52" stroke-linejoin="round" width="13" height="24" fill="rgb(79,214,103)" stroke="rgb(63,171,82)" stroke-width="1" opacity="0.75" />
			</g>
		</g>
		<g>
			<title>wbtC
WbtC</title>
			<polygon class="wbtC
WbtC" points="108,25 114,25 114,10 144,40 114,70 114,55 108,55" fill="rgb(255,255,255)" fill-opacity="1.0" stroke="rgb(0,0,0)" stroke-width="2"  />
			<g>
				<title>DegT_DnrJ_EryC1 (PF01041)
"DegT/DnrJ/EryC1/StrS aminotransferase family"</title>
				<polygon class="PF01041" points="109,28 128,28 140,40 128,52 109,52" stroke-linejoin="round" width="35" height="24" fill="rgb(228,110,183)" stroke="rgb(182,88,146)" stroke-width="1" opacity="0.75" />
			</g>
		</g>
		<g>
			<title>wzx
Wzx</title>
			<polygon class="wzx
Wzx" points="145,25 157,25 157,10 187,40 157,70 157,55 145,55" fill="rgb(255,255,255)" fill-opacity="1.0" stroke="rgb(0,0,0)" stroke-width="2"  />
		</g>
		<g>
			<title>wbtD
WbtD</title>
			<polygon class="wbtD
WbtD" points="187,25 189,25 189,10 219,40 189,70 189,55 187,55" fill="rgb(255,255,255)" fill-opacity="1.0" stroke="rgb(0,0,0)" stroke-width="2"  />
			<g>
				<title>Glycos_transf_2 (PF00535)
"Glycosyl transferase family 2"</title>
				<rect class="PF00535" x="187" y="28" stroke-linejoin="round" width="16" height="24" fill="rgb(197,62,212)" stroke="rgb(157,49,169)" stroke-width="1" opacity="0.75" />
			</g>
		</g>
		<g>
			<title>wbtE
WbtE</title>
			<polygon class="wbtE
WbtE" points="220,10 249,40 220,70" fill="rgb(255,255,255)" fill-opacity="1.0" stroke="rgb(0,0,0)" stroke-width="2"  />
			<g>
				<title>Glycos_transf_2 (PF00535)
"Glycosyl transferase family 2"</title>
				<polygon class="PF00535" points="220,28 233,28 234,29 234,51 233,52 220,52" stroke-linejoin="round" width="14" height="24" fill="rgb(197,62,212)" stroke="rgb(157,49,169)" stroke-width="1" opacity="0.75" />
			</g>
		</g>
		<g>
			<title>wzy
Wzy</title>
			<polygon class="wzy
Wzy" points="250,25 258,25 258,10 288,40 258,70 258,55 250,55" fill="rgb(255,255,255)" fill-opacity="1.0" stroke="rgb(0,0,0)" stroke-width="2"  />
			<g>
				<title>EpsG (PF14897)
"EpsG family"</title>
				<polygon class="PF14897" points="252,28 272,28 284,40 272,52 252,52" stroke-linejoin="round" width="34" height="24" fill="rgb(63,219,142)" stroke="rgb(50,175,113)" stroke-width="1" opacity="0.75" />
			</g>
		</g>
		<g>
			<title>wbtF
WbtF</title>
			<polygon class="wbtF
WbtF" points="288,25 294,25 294,10 324,40 294,70 294,55 288,55" fill="rgb(255,255,255)" fill-opacity="1.0" stroke="rgb(0,0,0)" stroke-width="2"  />
			<g>
				<title>Glyco_transf_4 (PF13439)
"Glycosyltransferase Family 4"</title>
				<rect class="PF13439" x="289" y="28" stroke-linejoin="round" width="15" height="24" fill="rgb(67,194,123)" stroke="rgb(53,155,98)" stroke-width="1" opacity="0.75" />
			</g>
			<g>
				<title>Glycos_transf_1 (PF00534)
"Glycosyl transferases group 1"</title>
				<polygon class="PF00534" points="305,28 308,28 320,40 308,52 305,52" stroke-linejoin="round" width="16" height="24" fill="rgb(66,178,218)" stroke="rgb(52,142,174)" stroke-width="1" opacity="0.75" />
			</g>
		</g>
		<g>
			<title>rfpB
RfpB</title>
			<polygon class="rfpB
RfpB" points="330,25 337,25 337,10 367,40 337,70 337,55 330,55" fill="rgb(255,255,255)" fill-opacity="1.0" stroke="rgb(0,0,0)" stroke-width="2"  />
			<g>
				<title>Glyco_trans_4_2 (PF13477)
"Glycosyl transferase 4-like"</title>
				<rect class="PF13477" x="330" y="28" stroke-linejoin="round" width="15" height="24" fill="rgb(79,149,194)" stroke="rgb(63,119,155)" stroke-width="1" opacity="0.75" />
			</g>
			<g>
				<title>Glycos_transf_1 (PF00534)
"Glycosyl transferases group 1"</title>
				<polygon class="PF00534" points="349,28 351,28 363,40 351,52 349,52" stroke-linejoin="round" width="16" height="24" fill="rgb(66,178,218)" stroke="rgb(52,142,174)" stroke-width="1" opacity="0.75" />
			</g>
		</g>
		<g>
			<title>galE
GalE</title>
			<polygon class="galE
GalE" points="370,25 374,25 374,10 404,40 374,70 374,55 370,55" fill="rgb(255,255,255)" fill-opacity="1.0" stroke="rgb(0,0,0)" stroke-width="2"  />
			<g>
				<title>Epimerase (PF01370)
"NAD dependent epimerase/dehydratase family"</title>
				<polygon class="PF01370" points="370,28 388,28 395,35 395,45 388,52 370,52" stroke-linejoin="round" width="25" height="24" fill="rgb(215,89,157)" stroke="rgb(172,71,125)" stroke-width="1" opacity="0.75" />
			</g>
		</g>
	</g>
</svg>
