<svg version="1.1" baseProfile="full" xmlns="http://www.w3.org/2000/svg" width="1261.8666666666666" height="80">
	<g>
		<line x1="10" y1="40.0" x2="1251.8666666666666" y2="40.0" style="stroke:rgb(70,70,70); stroke-width:3 "/>
		<g>
			<title>vldT
VldT</title>
			<polygon class="vldT
VldT" points="47,10 61,40 47,70" fill="rgb(255,255,255)" fill-opacity="1.0" stroke="rgb(0,0,0)" stroke-width="2"  />
		</g>
		<g>
			<title>vldU
probable membrane protein</title>
			<polygon class="vldU
probable membrane protein" points="82,40 107,10 107,70" fill="rgb(255,255,255)" fill-opacity="1.0" stroke="rgb(0,0,0)" stroke-width="2"  />
			<g>
				<title>DUF2182 (PF09948)
"Predicted metal-binding integral membrane protein (DUF2182)"</title>
				<polygon class="PF09948" points="86,40 96,28 102,28 102,52 96,52" stroke-linejoin="round" width="18" height="24" fill="rgb(183,96,75)" stroke="rgb(146,76,60)" stroke-width="1" opacity="0.75" />
			</g>
		</g>
		<g>
			<title>vldV
VldV</title>
			<polygon class="vldV
VldV" points="107,40 127,10 127,70" fill="rgb(255,255,255)" fill-opacity="1.0" stroke="rgb(0,0,0)" stroke-width="2"  />
			<g>
				<title>DUF1326 (PF07040)
"Protein of unknown function (DUF1326)"</title>
				<polygon class="PF07040" points="111,40 119,28 126,28 126,52 119,52" stroke-linejoin="round" width="18" height="24" fill="rgb(123,212,98)" stroke="rgb(98,169,78)" stroke-width="1" opacity="0.75" />
			</g>
		</g>
		<g>
			<title>vldW
putative oxidoreductase</title>
			<polygon class="vldW
putative oxidoreductase" points="202,25 196,25 196,10 166,40 196,70 196,55 202,55" fill="rgb(255,255,255)" fill-opacity="1.0" stroke="rgb(0,0,0)" stroke-width="2"  />
			<g>
				<title>2OG-FeII_Oxy (PF03171)
"2OG-Fe(II) oxygenase superfamily"</title>
				<polygon class="PF03171" points="174,36 182,28 184,28 184,52 182,52 174,44" stroke-linejoin="round" width="10" height="24" fill="rgb(182,163,77)" stroke="rgb(145,130,61)" stroke-width="1" opacity="0.75" />
			</g>
			<g>
				<title>DIOX_N (PF14226)
"non-haem dioxygenase in morphine synthesis N-terminal"</title>
				<rect class="PF14226" x="189" y="28" stroke-linejoin="round" width="12" height="24" fill="rgb(193,95,155)" stroke="rgb(154,76,124)" stroke-width="1" opacity="0.75" />
			</g>
		</g>
		<g>
			<title>vldX
putative metalloisomerase</title>
			<polygon class="vldX
putative metalloisomerase" points="252,25 247,25 247,10 217,40 247,70 247,55 252,55" fill="rgb(255,255,255)" fill-opacity="1.0" stroke="rgb(0,0,0)" stroke-width="2"  />
			<g>
				<title>Glyoxalase (PF00903)
"Glyoxalase/Bleomycin resistance protein/Dioxygenase superfamily"</title>
				<polygon class="PF00903" points="223,38 233,28 237,28 237,52 233,52 223,42" stroke-linejoin="round" width="14" height="24" fill="rgb(139,76,222)" stroke="rgb(111,60,177)" stroke-width="1" opacity="0.75" />
			</g>
		</g>
		<g>
			<title>vldC
putative sugar kinase</title>
			<polygon class="vldC
putative sugar kinase" points="323,25 318,25 318,10 288,40 318,70 318,55 323,55" fill="rgb(255,255,255)" fill-opacity="1.0" stroke="rgb(0,0,0)" stroke-width="2"  />
			<g>
				<title>ROK (PF00480)
"ROK family"</title>
				<polygon class="PF00480" points="293,39 304,28 321,28 321,52 304,52 293,41" stroke-linejoin="round" width="28" height="24" fill="rgb(93,146,186)" stroke="rgb(74,116,148)" stroke-width="1" opacity="0.75" />
			</g>
		</g>
		<g>
			<title>vldB
putative nucleotidyltransferase</title>
			<polygon class="vldB
putative nucleotidyltransferase" points="360,25 353,25 353,10 323,40 353,70 353,55 360,55" fill="rgb(255,255,255)" fill-opacity="1.0" stroke="rgb(0,0,0)" stroke-width="2"  />
			<g>
				<title>NTP_transferase (PF00483)
"Nucleotidyl transferase"</title>
				<polygon class="PF00483" points="333,34 339,28 359,28 359,52 339,52 333,46" stroke-linejoin="round" width="26" height="24" fill="rgb(211,145,90)" stroke="rgb(168,116,72)" stroke-width="1" opacity="0.75" />
			</g>
		</g>
		<g>
			<title>vldA
2-epi-5-epi-valiolone synthase</title>
			<polygon class="vldA
2-epi-5-epi-valiolone synthase" points="401,25 390,25 390,10 360,40 390,70 390,55 401,55" fill="rgb(255,255,255)" fill-opacity="1.0" stroke="rgb(0,0,0)" stroke-width="2"  />
			<g>
				<title>DHQ_synthase (PF01761)
"3-dehydroquinate synthase"</title>
				<polygon class="PF01761" points="365,39 376,28 391,28 391,52 376,52 365,41" stroke-linejoin="round" width="26" height="24" fill="rgb(71,149,225)" stroke="rgb(56,119,180)" stroke-width="1" opacity="0.75" />
			</g>
		</g>
		<g>
			<title>vldD
VldD</title>
			<polygon class="vldD
VldD" points="453,10 482,40 453,70" fill="rgb(255,255,255)" fill-opacity="1.0" stroke="rgb(0,0,0)" stroke-width="2"  />
			<g>
				<title>RmlD_sub_bind (PF04321)
"RmlD substrate binding domain"</title>
				<polygon class="PF04321" points="453,28 466,28 478,40 466,52 453,52" stroke-linejoin="round" width="28" height="24" fill="rgb(71,77,207)" stroke="rgb(56,61,165)" stroke-width="1" opacity="0.75" />
			</g>
		</g>
		<g>
			<title>vldE
putative glycosyltransferase</title>
			<polygon class="vldE
putative glycosyltransferase" points="485,25 504,25 504,10 534,40 504,70 504,55 485,55" fill="rgb(255,255,255)" fill-opacity="1.0" stroke="rgb(0,0,0)" stroke-width="2"  />
			<g>
				<title>Glyco_transf_20 (PF00982)
"Glycosyltransferase family 20"</title>
				<polygon class="PF00982" points="485,28 518,28 530,40 518,52 485,52" stroke-linejoin="round" width="46" height="24" fill="rgb(191,87,76)" stroke="rgb(152,69,60)" stroke-width="1" opacity="0.75" />
			</g>
		</g>
		<g>
			<title>vldF
putative aminotransferase</title>
			<polygon class="vldF
putative aminotransferase" points="535,25 548,25 548,10 578,40 548,70 548,55 535,55" fill="rgb(255,255,255)" fill-opacity="1.0" stroke="rgb(0,0,0)" stroke-width="2"  />
			<g>
				<title>Aminotran_3 (PF00202)
"Aminotransferase class-III"</title>
				<polygon class="PF00202" points="537,28 562,28 574,40 562,52 537,52" stroke-linejoin="round" width="40" height="24" fill="rgb(182,63,213)" stroke="rgb(145,50,170)" stroke-width="1" opacity="0.75" />
			</g>
		</g>
		<g>
			<title>vldG
putative dehydrogenase</title>
			<polygon class="vldG
putative dehydrogenase" points="578,25 581,25 581,10 611,40 581,70 581,55 578,55" fill="rgb(255,255,255)" fill-opacity="1.0" stroke="rgb(0,0,0)" stroke-width="2"  />
			<g>
				<title>ADH_N (PF08240)
"Alcohol dehydrogenase GroES-like domain"</title>
				<rect class="PF08240" x="580" y="28" stroke-linejoin="round" width="7" height="24" fill="rgb(217,198,105)" stroke="rgb(173,158,84)" stroke-width="1" opacity="0.75" />
			</g>
			<g>
				<title>Shikimate_DH (PF01488)
"Shikimate / quinate 5-dehydrogenase"</title>
				<polygon class="PF01488" points="591,28 594,28 600,34 600,46 594,52 591,52" stroke-linejoin="round" width="9" height="24" fill="rgb(140,196,67)" stroke="rgb(112,156,53)" stroke-width="1" opacity="0.75" />
			</g>
		</g>
		<g>
			<title>vldH
VldH</title>
			<polygon class="vldH
VldH" points="617,10 638,40 617,70" fill="rgb(255,255,255)" fill-opacity="1.0" stroke="rgb(0,0,0)" stroke-width="2"  />
			<g>
				<title>HAD_2 (PF13419)
"Haloacid dehalogenase-like hydrolase"</title>
				<polygon class="PF13419" points="617,28 626,28 634,39 634,41 626,52 617,52" stroke-linejoin="round" width="17" height="24" fill="rgb(212,89,181)" stroke="rgb(169,71,144)" stroke-width="1" opacity="0.75" />
			</g>
		</g>
		<g>
			<title>vldI
glucoamylase</title>
			<polygon class="vldI
glucoamylase" points="727,25 696,25 696,10 666,40 696,70 696,55 727,55" fill="rgb(255,255,255)" fill-opacity="1.0" stroke="rgb(0,0,0)" stroke-width="2"  />
			<g>
				<title>Glyco_hydro_15 (PF00723)
"Glycosyl hydrolases family 15"</title>
				<polygon class="PF00723" points="670,40 682,28 704,28 704,52 682,52" stroke-linejoin="round" width="37" height="24" fill="rgb(198,97,207)" stroke="rgb(158,77,165)" stroke-width="1" opacity="0.75" />
			</g>
			<g>
				<title>TREH_N (PF19291)
"Trehalase-like, N-terminal"</title>
				<rect class="PF19291" x="708" y="28" stroke-linejoin="round" width="18" height="24" fill="rgb(186,223,64)" stroke="rgb(148,178,51)" stroke-width="1" opacity="0.75" />
			</g>
		</g>
		<g>
			<title>vldJ
putative transport protein</title>
			<polygon class="vldJ
putative transport protein" points="803,25 794,25 794,10 764,40 794,70 794,55 803,55" fill="rgb(255,255,255)" fill-opacity="1.0" stroke="rgb(0,0,0)" stroke-width="2"  />
			<g>
				<title>MFS_1 (PF07690)
"Major Facilitator Superfamily"</title>
				<polygon class="PF07690" points="771,37 780,28 801,28 801,52 780,52 771,43" stroke-linejoin="round" width="30" height="24" fill="rgb(228,207,98)" stroke="rgb(182,165,78)" stroke-width="1" opacity="0.75" />
			</g>
		</g>
		<g>
			<title>vldK
putative glycosyltransferase</title>
			<polygon class="vldK
putative glycosyltransferase" points="853,25 838,25 838,10 808,40 838,70 838,55 853,55" fill="rgb(255,255,255)" fill-opacity="1.0" stroke="rgb(0,0,0)" stroke-width="2"  />
			<g>
				<title>Glyco_transf_7C (PF02709)
"N-terminal domain of galactosyltransferase"</title>
				<rect class="PF02709" x="825" y="28" stroke-linejoin="round" width="7" height="24" fill="rgb(77,206,220)" stroke="rgb(61,164,176)" stroke-width="1" opacity="0.75" />
			</g>
			<g>
				<title>Glycos_transf_2 (PF00535)
"Glycosyl transferase family 2"</title>
				<rect class="PF00535" x="832" y="28" stroke-linejoin="round" width="16" height="24" fill="rgb(197,62,212)" stroke="rgb(157,49,169)" stroke-width="1" opacity="0.75" />
			</g>
		</g>
		<g>
			<title>vldL
VldL</title>
			<polygon class="vldL
VldL" points="907,40 935,10 935,70" fill="rgb(255,255,255)" fill-opacity="1.0" stroke="rgb(0,0,0)" stroke-width="2"  />
			<g>
				<title>JmjC_2 (PF08007)
"JmjC domain"</title>
				<polygon class="PF08007" points="915,36 922,28 928,28 928,52 922,52 915,44" stroke-linejoin="round" width="13" height="24" fill="rgb(189,92,112)" stroke="rgb(151,73,89)" stroke-width="1" opacity="0.75" />
			</g>
		</g>
		<g>
			<title>vldM
putative oxidoreductase</title>
			<polygon class="vldM
putative oxidoreductase" points="972,25 966,25 966,10 936,40 966,70 966,55 972,55" fill="rgb(255,255,255)" fill-opacity="1.0" stroke="rgb(0,0,0)" stroke-width="2"  />
			<g>
				<title>Aldo_ket_red (PF00248)
"Aldo/keto reductase family"</title>
				<polygon class="PF00248" points="940,40 952,28 969,28 969,52 952,52" stroke-linejoin="round" width="30" height="24" fill="rgb(96,196,138)" stroke="rgb(76,156,110)" stroke-width="1" opacity="0.75" />
			</g>
		</g>
		<g>
			<title>vldN
putative dehydrogenase</title>
			<polygon class="vldN
putative dehydrogenase" points="973,40 998,10 998,70" fill="rgb(255,255,255)" fill-opacity="1.0" stroke="rgb(0,0,0)" stroke-width="2"  />
			<g>
				<title>adh_short (PF00106)
"short chain dehydrogenase"</title>
				<polygon class="PF00106" points="979,38 987,28 997,28 997,52 987,52 979,42" stroke-linejoin="round" width="18" height="24" fill="rgb(128,81,196)" stroke="rgb(102,64,156)" stroke-width="1" opacity="0.75" />
			</g>
		</g>
		<g>
			<title>vldO
putative O-methyltransferase</title>
			<polygon class="vldO
putative O-methyltransferase" points="998,40 1019,10 1019,70" fill="rgb(255,255,255)" fill-opacity="1.0" stroke="rgb(0,0,0)" stroke-width="2"  />
			<g>
				<title>Methyltransf_3 (PF01596)
"O-methyltransferase"</title>
				<polygon class="PF01596" points="1002,40 1011,28 1017,28 1017,52 1011,52" stroke-linejoin="round" width="19" height="24" fill="rgb(91,224,120)" stroke="rgb(72,179,96)" stroke-width="1" opacity="0.75" />
			</g>
		</g>
		<g>
			<title>vldP
putative oligopeptidase</title>
			<polygon class="vldP
putative oligopeptidase" points="1080,25 1049,25 1049,10 1019,40 1049,70 1049,55 1080,55" fill="rgb(255,255,255)" fill-opacity="1.0" stroke="rgb(0,0,0)" stroke-width="2"  />
			<g>
				<title>Peptidase_M3 (PF01432)
"Peptidase family M3"</title>
				<polygon class="PF01432" points="1029,34 1035,28 1062,28 1062,52 1035,52 1029,46" stroke-linejoin="round" width="33" height="24" fill="rgb(223,110,205)" stroke="rgb(178,88,164)" stroke-width="1" opacity="0.75" />
			</g>
		</g>
		<g>
			<title>vldR
putative arginase-related hydrolase</title>
			<polygon class="vldR
putative arginase-related hydrolase" points="1241,25 1239,25 1239,10 1209,40 1239,70 1239,55 1241,55" fill="rgb(255,255,255)" fill-opacity="1.0" stroke="rgb(0,0,0)" stroke-width="2"  />
			<g>
				<title>Arginase (PF00491)
"Arginase family"</title>
				<polygon class="PF00491" points="1213,40 1225,28 1238,28 1238,52 1225,52" stroke-linejoin="round" width="28" height="24" fill="rgb(192,133,57)" stroke="rgb(153,106,45)" stroke-width="1" opacity="0.75" />
			</g>
		</g>
	</g>
</svg>
