<svg version="1.1" baseProfile="full" xmlns="http://www.w3.org/2000/svg" width="441.23333333333335" height="80">
	<g>
		<line x1="10" y1="40.0" x2="431.23333333333335" y2="40.0" style="stroke:rgb(70,70,70); stroke-width:3 "/>
		<g>
			<title>
putative ADA-like regulatory protein</title>
			<polygon class="
putative ADA-like regulatory protein" points="10,40 22,10 22,70" fill="rgb(255,255,255)" fill-opacity="1.0" stroke="rgb(0,0,0)" stroke-width="2"  />
			<g>
				<title>HTH_18 (PF12833)
"Helix-turn-helix domain"</title>
				<polygon class="PF12833" points="13,40 16,33 16,47" stroke-linejoin="round" width="6" height="24" fill="rgb(96,195,114)" stroke="rgb(76,156,91)" stroke-width="1" opacity="0.75" />
			</g>
			<g>
				<title>Ada_Zn_binding (PF02805)
"Metal binding domain of Ada"</title>
				<rect class="PF02805" x="20" y="28" stroke-linejoin="round" width="2" height="24" fill="rgb(177,60,184)" stroke="rgb(141,48,147)" stroke-width="1" opacity="0.75" />
			</g>
		</g>
		<g>
			<title>
unknown</title>
			<polygon class="
unknown" points="30,40 58,10 58,70" fill="rgb(255,255,255)" fill-opacity="1.0" stroke="rgb(0,0,0)" stroke-width="2"  />
			<g>
				<title>MTHFR (PF02219)
"Methylenetetrahydrofolate reductase"</title>
				<polygon class="PF02219" points="34,40 45,28 56,28 56,52 45,52" stroke-linejoin="round" width="25" height="24" fill="rgb(85,139,203)" stroke="rgb(68,111,162)" stroke-width="1" opacity="0.75" />
			</g>
		</g>
		<g>
			<title>
putative acetoacetate decarboxylase</title>
			<polygon class="
putative acetoacetate decarboxylase" points="104,10 128,40 104,70" fill="rgb(255,255,255)" fill-opacity="1.0" stroke="rgb(0,0,0)" stroke-width="2"  />
			<g>
				<title>ADC (PF06314)
"Acetoacetate decarboxylase (ADC)"</title>
				<polygon class="PF06314" points="104,28 115,28 124,40 115,52 104,52" stroke-linejoin="round" width="23" height="24" fill="rgb(203,195,54)" stroke="rgb(162,155,43)" stroke-width="1" opacity="0.75" />
			</g>
		</g>
		<g>
			<title>
unknown</title>
			<polygon class="
unknown" points="139,40 157,10 157,70" fill="rgb(255,255,255)" fill-opacity="1.0" stroke="rgb(0,0,0)" stroke-width="2"  />
			<g>
				<title>Macro (PF01661)
"Macro domain"</title>
				<polygon class="PF01661" points="143,40 150,28 154,28 154,52 150,52 143,40" stroke-linejoin="round" width="11" height="24" fill="rgb(85,184,164)" stroke="rgb(68,147,131)" stroke-width="1" opacity="0.75" />
			</g>
		</g>
		<g>
			<title>
putative dehydrogenase</title>
			<polygon class="
putative dehydrogenase" points="205,25 188,25 188,10 158,40 188,70 188,55 205,55" fill="rgb(255,255,255)" fill-opacity="1.0" stroke="rgb(0,0,0)" stroke-width="2"  />
			<g>
				<title>NAD_binding_8 (PF13450)
"NAD(P)-binding Rossmann-like domain"</title>
				<rect class="PF13450" x="197" y="28" stroke-linejoin="round" width="6" height="24" fill="rgb(218,105,93)" stroke="rgb(174,84,74)" stroke-width="1" opacity="0.75" />
			</g>
		</g>
		<g>
			<title>
putative inositol monophosphatase</title>
			<polygon class="
putative inositol monophosphatase" points="209,40 237,10 237,70" fill="rgb(255,255,255)" fill-opacity="1.0" stroke="rgb(0,0,0)" stroke-width="2"  />
			<g>
				<title>Inositol_P (PF00459)
"Inositol monophosphatase family"</title>
				<polygon class="PF00459" points="213,40 224,28 235,28 235,52 224,52" stroke-linejoin="round" width="26" height="24" fill="rgb(213,222,107)" stroke="rgb(170,177,85)" stroke-width="1" opacity="0.75" />
			</g>
		</g>
		<g>
			<title>
putative gamma-glutamyl transferase</title>
			<polygon class="
putative gamma-glutamyl transferase" points="308,25 276,25 276,10 246,40 276,70 276,55 308,55" fill="rgb(255,255,255)" fill-opacity="1.0" stroke="rgb(0,0,0)" stroke-width="2"  />
			<g>
				<title>G_glu_transpept (PF01019)
"Gamma-glutamyltranspeptidase"</title>
				<polygon class="PF01019" points="250,40 262,28 304,28 304,52 262,52" stroke-linejoin="round" width="58" height="24" fill="rgb(198,115,67)" stroke="rgb(158,92,53)" stroke-width="1" opacity="0.75" />
			</g>
		</g>
		<g>
			<title>snogM
SnogM</title>
			<polygon class="snogM
SnogM" points="319,10 346,40 319,70" fill="rgb(255,255,255)" fill-opacity="1.0" stroke="rgb(0,0,0)" stroke-width="2"  />
			<g>
				<title>Methyltransf_11 (PF08241)
"Methyltransferase domain"</title>
				<polygon class="PF08241" points="325,28 331,28 334,31 334,49 331,52 325,52" stroke-linejoin="round" width="9" height="24" fill="rgb(201,85,64)" stroke="rgb(160,68,51)" stroke-width="1" opacity="0.75" />
			</g>
		</g>
		<g>
			<title>snogL
SnogL</title>
			<polygon class="snogL
SnogL" points="350,10 377,40 350,70" fill="rgb(255,255,255)" fill-opacity="1.0" stroke="rgb(0,0,0)" stroke-width="2"  />
			<g>
				<title>TylF (PF05711)
"Macrocin-O-methyltransferase (TylF)"</title>
				<polygon class="PF05711" points="350,28 361,28 373,40 361,52 350,52" stroke-linejoin="round" width="26" height="24" fill="rgb(217,188,104)" stroke="rgb(173,150,83)" stroke-width="1" opacity="0.75" />
			</g>
		</g>
		<g>
			<title>snoN
SnoN</title>
			<polygon class="snoN
SnoN" points="420,40 430,10 430,70" fill="rgb(255,255,255)" fill-opacity="1.0" stroke="rgb(0,0,0)" stroke-width="2"  />
			<g>
				<title>PhyH (PF05721)
"Phytanoyl-CoA dioxygenase (PhyH)"</title>
				<polygon class="PF05721" points="426,31 427,28 429,28 429,52 427,52 426,49" stroke-linejoin="round" width="3" height="24" fill="rgb(186,53,95)" stroke="rgb(148,42,76)" stroke-width="1" opacity="0.75" />
			</g>
		</g>
	</g>
</svg>
