<svg version="1.1" baseProfile="full" xmlns="http://www.w3.org/2000/svg" width="830.0" height="80">
	<g>
		<line x1="10" y1="40.0" x2="820.0" y2="40.0" style="stroke:rgb(70,70,70); stroke-width:3 "/>
		<g>
			<title> (Sare_2326)
ATP-dependent transcriptional regulator, MalT-like, LuxR family</title>
			<polygon class=" (Sare_2326)
ATP-dependent transcriptional regulator, MalT-like, LuxR family" points="10,25 78,25 78,10 108,40 78,70 78,55 10,55" fill="rgb(255,255,255)" fill-opacity="1.0" stroke="rgb(0,0,0)" stroke-width="2"  />
			<g>
				<title>AAA_16 (PF13191)
"AAA ATPase domain"</title>
				<rect class="PF13191" x="13" y="28" stroke-linejoin="round" width="14" height="24" fill="rgb(88,106,197)" stroke="rgb(70,84,157)" stroke-width="1" opacity="0.75" />
			</g>
			<g>
				<title>GerE (PF00196)
"Bacterial regulatory proteins, luxR family"</title>
				<polygon class="PF00196" points="101,38 103,40 101,42" stroke-linejoin="round" width="5" height="24" fill="rgb(225,67,110)" stroke="rgb(180,53,88)" stroke-width="1" opacity="0.75" />
			</g>
		</g>
		<g>
			<title> (Sare_2327)
Cytochrome P450-like protein</title>
			<polygon class=" (Sare_2327)
Cytochrome P450-like protein" points="158,25 148,25 148,10 118,40 148,70 148,55 158,55" fill="rgb(255,255,255)" fill-opacity="1.0" stroke="rgb(0,0,0)" stroke-width="2"  />
			<g>
				<title>p450 (PF00067)
"Cytochrome P450"</title>
				<polygon class="PF00067" points="122,40 130,32 130,48" stroke-linejoin="round" width="11" height="24" fill="rgb(195,210,54)" stroke="rgb(155,168,43)" stroke-width="1" opacity="0.75" />
			</g>
		</g>
		<g>
			<title> (Sare_2328)
glycosyltransferase, MGT family</title>
			<polygon class=" (Sare_2328)
glycosyltransferase, MGT family" points="202,25 189,25 189,10 159,40 189,70 189,55 202,55" fill="rgb(255,255,255)" fill-opacity="1.0" stroke="rgb(0,0,0)" stroke-width="2"  />
			<g>
				<title>EryCIII-like_C (PF06722)
"Erythromycin biosynthesis protein CIII-like, C-terminal domain"</title>
				<polygon class="PF06722" points="163,40 174,29 174,51" stroke-linejoin="round" width="14" height="24" fill="rgb(48,103,191)" stroke="rgb(38,82,152)" stroke-width="1" opacity="0.75" />
			</g>
		</g>
		<g>
			<title> (Sare_2329)
amine oxidase</title>
			<polygon class=" (Sare_2329)
amine oxidase" points="212,25 232,25 232,10 262,40 232,70 232,55 212,55" fill="rgb(255,255,255)" fill-opacity="1.0" stroke="rgb(0,0,0)" stroke-width="2"  />
			<g>
				<title>Amino_oxidase (PF01593)
"Flavin containing amine oxidoreductase"</title>
				<polygon class="PF01593" points="214,28 246,28 258,40 246,52 214,52" stroke-linejoin="round" width="45" height="24" fill="rgb(95,189,207)" stroke="rgb(76,151,165)" stroke-width="1" opacity="0.75" />
			</g>
		</g>
		<g>
			<title> (Sare_2330)
VioB - polyketide synthase</title>
			<polygon class=" (Sare_2330)
VioB - polyketide synthase" points="262,25 339,25 339,10 369,40 339,70 339,55 262,55" fill="rgb(255,255,255)" fill-opacity="1.0" stroke="rgb(0,0,0)" stroke-width="2"  />
			<g>
				<title>Ferritin-like (PF12902)
"Ferritin-like"</title>
				<rect class="PF12902" x="328" y="28" stroke-linejoin="round" width="23" height="24" fill="rgb(183,62,62)" stroke="rgb(146,49,49)" stroke-width="1" opacity="0.75" />
			</g>
		</g>
		<g>
			<title> (Sare_2331)
cytochrome P450</title>
			<polygon class=" (Sare_2331)
cytochrome P450" points="371,25 382,25 382,10 412,40 382,70 382,55 371,55" fill="rgb(255,255,255)" fill-opacity="1.0" stroke="rgb(0,0,0)" stroke-width="2"  />
			<g>
				<title>p450 (PF00067)
"Cytochrome P450"</title>
				<polygon class="PF00067" points="389,28 396,28 398,30 398,50 396,52 389,52" stroke-linejoin="round" width="9" height="24" fill="rgb(195,210,54)" stroke="rgb(155,168,43)" stroke-width="1" opacity="0.75" />
			</g>
			<g>
				<title>p450 (PF00067)
"Cytochrome P450"</title>
				<polygon class="PF00067" points="399,31 408,40 408,40 399,49" stroke-linejoin="round" width="9" height="24" fill="rgb(195,210,54)" stroke="rgb(155,168,43)" stroke-width="1" opacity="0.75" />
			</g>
		</g>
		<g>
			<title> (Sare_2332)
Methyltransferase type 11</title>
			<polygon class=" (Sare_2332)
Methyltransferase type 11" points="413,10 441,40 413,70" fill="rgb(255,255,255)" fill-opacity="1.0" stroke="rgb(0,0,0)" stroke-width="2"  />
			<g>
				<title>Methyltransf_11 (PF08241)
"Methyltransferase domain"</title>
				<polygon class="PF08241" points="420,28 425,28 429,32 429,48 425,52 420,52" stroke-linejoin="round" width="9" height="24" fill="rgb(201,85,64)" stroke="rgb(160,68,51)" stroke-width="1" opacity="0.75" />
			</g>
		</g>
		<g>
			<title> (Sare_2333)
monooxygenase FAD-binding</title>
			<polygon class=" (Sare_2333)
monooxygenase FAD-binding" points="444,25 467,25 467,10 497,40 467,70 467,55 444,55" fill="rgb(255,255,255)" fill-opacity="1.0" stroke="rgb(0,0,0)" stroke-width="2"  />
			<g>
				<title>FAD_binding_3 (PF01494)
"FAD binding domain"</title>
				<rect class="PF01494" x="444" y="28" stroke-linejoin="round" width="35" height="24" fill="rgb(215,66,156)" stroke="rgb(172,52,124)" stroke-width="1" opacity="0.75" />
			</g>
			<g>
				<title>Rng_hyd_C (PF21274)
"Aromatic-ring hydroxylase, C-terminal"</title>
				<polygon class="PF21274" points="487,34 493,40 487,46" stroke-linejoin="round" width="9" height="24" fill="rgb(153,227,106)" stroke="rgb(122,181,84)" stroke-width="1" opacity="0.75" />
			</g>
		</g>
		<g>
			<title> (Sare_2334)
hypothetical protein</title>
			<polygon class=" (Sare_2334)
hypothetical protein" points="498,10 503,40 498,70" fill="rgb(255,255,255)" fill-opacity="1.0" stroke="rgb(0,0,0)" stroke-width="2"  />
		</g>
		<g>
			<title> (Sare_2335)
glucose-1-phosphate thymidylyltransferase</title>
			<polygon class=" (Sare_2335)
glucose-1-phosphate thymidylyltransferase" points="503,25 503,25 503,10 533,40 503,70 503,55 503,55" fill="rgb(255,255,255)" fill-opacity="1.0" stroke="rgb(0,0,0)" stroke-width="2"  />
			<g>
				<title>NTP_transferase (PF00483)
"Nucleotidyl transferase"</title>
				<polygon class="PF00483" points="503,28 517,28 526,37 526,43 517,52 503,52" stroke-linejoin="round" width="23" height="24" fill="rgb(211,145,90)" stroke="rgb(168,116,72)" stroke-width="1" opacity="0.75" />
			</g>
		</g>
		<g>
			<title> (Sare_2336)
dTDP-glucose 4,6-dehydratase</title>
			<polygon class=" (Sare_2336)
dTDP-glucose 4,6-dehydratase" points="534,25 539,25 539,10 569,40 539,70 539,55 534,55" fill="rgb(255,255,255)" fill-opacity="1.0" stroke="rgb(0,0,0)" stroke-width="2"  />
			<g>
				<title>GDP_Man_Dehyd (PF16363)
"GDP-mannose 4,6 dehydratase"</title>
				<polygon class="PF16363" points="534,28 553,28 564,39 564,41 553,52 534,52" stroke-linejoin="round" width="30" height="24" fill="rgb(50,144,195)" stroke="rgb(40,115,156)" stroke-width="1" opacity="0.75" />
			</g>
		</g>
		<g>
			<title> (Sare_2337)
DegT/DnrJ/EryC1/StrS aminotransferase</title>
			<polygon class=" (Sare_2337)
DegT/DnrJ/EryC1/StrS aminotransferase" points="569,25 576,25 576,10 606,40 576,70 576,55 569,55" fill="rgb(255,255,255)" fill-opacity="1.0" stroke="rgb(0,0,0)" stroke-width="2"  />
			<g>
				<title>DegT_DnrJ_EryC1 (PF01041)
"DegT/DnrJ/EryC1/StrS aminotransferase family"</title>
				<polygon class="PF01041" points="570,28 590,28 602,40 590,52 570,52" stroke-linejoin="round" width="35" height="24" fill="rgb(228,110,183)" stroke="rgb(182,88,146)" stroke-width="1" opacity="0.75" />
			</g>
		</g>
		<g>
			<title> (Sare_2338)
dTDP-4-dehydrorhamnose 3,5-epimerase</title>
			<polygon class=" (Sare_2338)
dTDP-4-dehydrorhamnose 3,5-epimerase" points="611,10 631,40 611,70" fill="rgb(255,255,255)" fill-opacity="1.0" stroke="rgb(0,0,0)" stroke-width="2"  />
			<g>
				<title>dTDP_sugar_isom (PF00908)
"dTDP-4-dehydrorhamnose 3,5-epimerase"</title>
				<polygon class="PF00908" points="611,28 619,28 627,40 619,52 611,52" stroke-linejoin="round" width="17" height="24" fill="rgb(135,62,227)" stroke="rgb(108,49,181)" stroke-width="1" opacity="0.75" />
			</g>
		</g>
		<g>
			<title> (Sare_2339)
NAD-dependent epimerase/dehydratase</title>
			<polygon class=" (Sare_2339)
NAD-dependent epimerase/dehydratase" points="630,25 633,25 633,10 663,40 633,70 633,55 630,55" fill="rgb(255,255,255)" fill-opacity="1.0" stroke="rgb(0,0,0)" stroke-width="2"  />
			<g>
				<title>Epimerase (PF01370)
"NAD dependent epimerase/dehydratase family"</title>
				<polygon class="PF01370" points="630,28 647,28 654,35 654,45 647,52 630,52" stroke-linejoin="round" width="24" height="24" fill="rgb(215,89,157)" stroke="rgb(172,71,125)" stroke-width="1" opacity="0.75" />
			</g>
		</g>
		<g>
			<title> (Sare_2340)
NDP-hexose 23-dehydratase</title>
			<polygon class=" (Sare_2340)
NDP-hexose 23-dehydratase" points="666,25 682,25 682,10 712,40 682,70 682,55 666,55" fill="rgb(255,255,255)" fill-opacity="1.0" stroke="rgb(0,0,0)" stroke-width="2"  />
			<g>
				<title>Hexose_dehydrat (PF03559)
"NDP-hexose 2,3-dehydratase"</title>
				<rect class="PF03559" x="669" y="28" stroke-linejoin="round" width="20" height="24" fill="rgb(56,139,184)" stroke="rgb(44,111,147)" stroke-width="1" opacity="0.75" />
			</g>
			<g>
				<title>Hexose_dehydrat (PF03559)
"NDP-hexose 2,3-dehydratase"</title>
				<polygon class="PF03559" points="691,28 696,28 708,40 696,52 691,52" stroke-linejoin="round" width="20" height="24" fill="rgb(56,139,184)" stroke="rgb(44,111,147)" stroke-width="1" opacity="0.75" />
			</g>
		</g>
		<g>
			<title> (Sare_2341)
glutamate decarboxylase</title>
			<polygon class=" (Sare_2341)
glutamate decarboxylase" points="721,25 737,25 737,10 767,40 737,70 737,55 721,55" fill="rgb(255,255,255)" fill-opacity="1.0" stroke="rgb(0,0,0)" stroke-width="2"  />
			<g>
				<title>Pyridoxal_deC (PF00282)
"Pyridoxal-dependent decarboxylase conserved domain"</title>
				<polygon class="PF00282" points="724,28 751,28 758,35 758,45 751,52 724,52" stroke-linejoin="round" width="34" height="24" fill="rgb(63,107,182)" stroke="rgb(50,85,145)" stroke-width="1" opacity="0.75" />
			</g>
		</g>
		<g>
			<title> (Sare_2342)
amino acid permease-associated region</title>
			<polygon class=" (Sare_2342)
amino acid permease-associated region" points="769,25 789,25 789,10 819,40 789,70 789,55 769,55" fill="rgb(255,255,255)" fill-opacity="1.0" stroke="rgb(0,0,0)" stroke-width="2"  />
			<g>
				<title>AA_permease_2 (PF13520)
"Amino acid permease"</title>
				<polygon class="PF13520" points="770,28 803,28 814,39 814,41 803,52 770,52" stroke-linejoin="round" width="44" height="24" fill="rgb(131,80,228)" stroke="rgb(104,64,182)" stroke-width="1" opacity="0.75" />
			</g>
		</g>
	</g>
</svg>
