<svg version="1.1" baseProfile="full" xmlns="http://www.w3.org/2000/svg" width="854.8333333333334" height="80">
	<g>
		<line x1="10" y1="40.0" x2="844.8333333333334" y2="40.0" style="stroke:rgb(70,70,70); stroke-width:3 "/>
		<g>
			<title> (Strop_3055)
Methyltransferase type 11</title>
			<polygon class=" (Strop_3055)
Methyltransferase type 11" points="10,10 38,40 10,70" fill="rgb(255,255,255)" fill-opacity="1.0" stroke="rgb(0,0,0)" stroke-width="2"  />
			<g>
				<title>Methyltransf_31 (PF13847)
"Methyltransferase domain"</title>
				<polygon class="PF13847" points="14,28 22,28 27,33 27,47 22,52 14,52" stroke-linejoin="round" width="13" height="24" fill="rgb(215,176,97)" stroke="rgb(172,140,77)" stroke-width="1" opacity="0.75" />
			</g>
		</g>
		<g>
			<title> (Strop_3056)
thioester reductase domain</title>
			<polygon class=" (Strop_3056)
thioester reductase domain" points="42,25 249,25 249,10 279,40 249,70 249,55 42,55" fill="rgb(255,255,255)" fill-opacity="1.0" stroke="rgb(0,0,0)" stroke-width="2"  />
			<g>
				<title>AMP-binding (PF00501)
"AMP-binding enzyme"</title>
				<rect class="PF00501" x="43" y="28" stroke-linejoin="round" width="36" height="24" fill="rgb(189,78,204)" stroke="rgb(151,62,163)" stroke-width="1" opacity="0.75" />
			</g>
			<g>
				<title>AMP-binding_C (PF13193)
"AMP-binding enzyme C-terminal domain"</title>
				<rect class="PF13193" x="84" y="28" stroke-linejoin="round" width="7" height="24" fill="rgb(195,82,106)" stroke="rgb(156,65,84)" stroke-width="1" opacity="0.75" />
			</g>
			<g>
				<title>PP-binding (PF00550)
"Phosphopantetheine attachment site"</title>
				<rect class="PF00550" x="97" y="28" stroke-linejoin="round" width="6" height="24" fill="rgb(181,58,166)" stroke="rgb(144,46,132)" stroke-width="1" opacity="0.75" />
			</g>
			<g>
				<title>ketoacyl-synt (PF00109)
"Beta-ketoacyl synthase, N-terminal domain"</title>
				<rect class="PF00109" x="106" y="28" stroke-linejoin="round" width="25" height="24" fill="rgb(74,179,82)" stroke="rgb(59,143,65)" stroke-width="1" opacity="0.75" />
			</g>
			<g>
				<title>Ketoacyl-synt_C (PF02801)
"Beta-ketoacyl synthase, C-terminal domain"</title>
				<rect class="PF02801" x="132" y="28" stroke-linejoin="round" width="11" height="24" fill="rgb(212,79,72)" stroke="rgb(169,63,57)" stroke-width="1" opacity="0.75" />
			</g>
			<g>
				<title>KAsynt_C_assoc (PF16197)
"Ketoacyl-synthetase C-terminal extension"</title>
				<rect class="PF16197" x="144" y="28" stroke-linejoin="round" width="11" height="24" fill="rgb(200,86,70)" stroke="rgb(160,68,56)" stroke-width="1" opacity="0.75" />
			</g>
			<g>
				<title>Acyl_transf_1 (PF00698)
"Acyl transferase domain"</title>
				<rect class="PF00698" x="159" y="28" stroke-linejoin="round" width="31" height="24" fill="rgb(132,93,193)" stroke="rgb(105,74,154)" stroke-width="1" opacity="0.75" />
			</g>
			<g>
				<title>PP-binding (PF00550)
"Phosphopantetheine attachment site"</title>
				<rect class="PF00550" x="201" y="28" stroke-linejoin="round" width="6" height="24" fill="rgb(181,58,166)" stroke="rgb(144,46,132)" stroke-width="1" opacity="0.75" />
			</g>
			<g>
				<title>NAD_binding_4 (PF07993)
"Male sterility protein"</title>
				<rect class="PF07993" x="212" y="28" stroke-linejoin="round" width="23" height="24" fill="rgb(210,94,130)" stroke="rgb(168,75,103)" stroke-width="1" opacity="0.75" />
			</g>
			<g>
				<title>Acetyltransf_7 (PF13508)
"Acetyltransferase (GNAT) domain"</title>
				<rect class="PF13508" x="254" y="28" stroke-linejoin="round" width="8" height="24" fill="rgb(224,67,82)" stroke="rgb(179,53,65)" stroke-width="1" opacity="0.75" />
			</g>
		</g>
		<g>
			<title> (Strop_3057)
asparagine synthase (glutamine-hydrolysing)</title>
			<polygon class=" (Strop_3057)
asparagine synthase (glutamine-hydrolysing)" points="349,25 314,25 314,10 284,40 314,70 314,55 349,55" fill="rgb(255,255,255)" fill-opacity="1.0" stroke="rgb(0,0,0)" stroke-width="2"  />
			<g>
				<title>Asn_synthase (PF00733)
"Asparagine synthase"</title>
				<polygon class="PF00733" points="288,40 300,28 324,28 324,52 300,52" stroke-linejoin="round" width="37" height="24" fill="rgb(200,91,135)" stroke="rgb(160,72,108)" stroke-width="1" opacity="0.75" />
			</g>
			<g>
				<title>GATase_7 (PF13537)
"Glutamine amidotransferase domain"</title>
				<rect class="PF13537" x="331" y="28" stroke-linejoin="round" width="12" height="24" fill="rgb(102,71,204)" stroke="rgb(81,56,163)" stroke-width="1" opacity="0.75" />
			</g>
		</g>
		<g>
			<title> (Strop_3058)
Xaa-Pro aminopeptidase</title>
			<polygon class=" (Strop_3058)
Xaa-Pro aminopeptidase" points="353,25 372,25 372,10 402,40 372,70 372,55 353,55" fill="rgb(255,255,255)" fill-opacity="1.0" stroke="rgb(0,0,0)" stroke-width="2"  />
			<g>
				<title>AMP_N (PF05195)
"Aminopeptidase P, N-terminal domain"</title>
				<rect class="PF05195" x="357" y="28" stroke-linejoin="round" width="12" height="24" fill="rgb(145,193,75)" stroke="rgb(116,154,60)" stroke-width="1" opacity="0.75" />
			</g>
			<g>
				<title>Peptidase_M24 (PF00557)
"Metallopeptidase family M24"</title>
				<polygon class="PF00557" points="375,28 386,28 398,40 398,40 386,52 375,52" stroke-linejoin="round" width="23" height="24" fill="rgb(51,195,145)" stroke="rgb(40,156,116)" stroke-width="1" opacity="0.75" />
			</g>
		</g>
		<g>
			<title> (Strop_3059)
hypothetical protein</title>
			<polygon class=" (Strop_3059)
hypothetical protein" points="412,25 434,25 434,10 464,40 434,70 434,55 412,55" fill="rgb(255,255,255)" fill-opacity="1.0" stroke="rgb(0,0,0)" stroke-width="2"  />
		</g>
		<g>
			<title> (Strop_3060)
hypothetical protein</title>
			<polygon class=" (Strop_3060)
hypothetical protein" points="476,25 513,25 513,10 543,40 513,70 513,55 476,55" fill="rgb(255,255,255)" fill-opacity="1.0" stroke="rgb(0,0,0)" stroke-width="2"  />
		</g>
		<g>
			<title> (Strop_3061)
alpha-1,6-glucosidase, pullulanase-type</title>
			<polygon class=" (Strop_3061)
alpha-1,6-glucosidase, pullulanase-type" points="639,25 575,25 575,10 545,40 575,70 575,55 639,55" fill="rgb(255,255,255)" fill-opacity="1.0" stroke="rgb(0,0,0)" stroke-width="2"  />
			<g>
				<title>Pullul_strch_C (PF11852)
"Alpha-1,6-glucosidases, pullulanase-type, C-terminal"</title>
				<polygon class="PF11852" points="549,40 561,28 561,28 561,52 561,52" stroke-linejoin="round" width="16" height="24" fill="rgb(203,229,107)" stroke="rgb(162,183,85)" stroke-width="1" opacity="0.75" />
			</g>
			<g>
				<title>CBM_48 (PF02922)
"Carbohydrate-binding module 48 (Isoamylase N-terminal domain)"</title>
				<rect class="PF02922" x="611" y="28" stroke-linejoin="round" width="8" height="24" fill="rgb(97,219,161)" stroke="rgb(77,175,128)" stroke-width="1" opacity="0.75" />
			</g>
			<g>
				<title>Pullulanase_N2 (PF17967)
"Pullulanase N2 domain"</title>
				<rect class="PF17967" x="620" y="28" stroke-linejoin="round" width="11" height="24" fill="rgb(51,204,158)" stroke="rgb(40,163,126)" stroke-width="1" opacity="0.75" />
			</g>
		</g>
		<g>
			<title> (Strop_3062)
aconitase</title>
			<polygon class=" (Strop_3062)
aconitase" points="650,25 714,25 714,10 744,40 714,70 714,55 650,55" fill="rgb(255,255,255)" fill-opacity="1.0" stroke="rgb(0,0,0)" stroke-width="2"  />
			<g>
				<title>Aconitase (PF00330)
"Aconitase family (aconitate hydratase)"</title>
				<rect class="PF00330" x="655" y="28" stroke-linejoin="round" width="55" height="24" fill="rgb(59,203,146)" stroke="rgb(47,162,116)" stroke-width="1" opacity="0.75" />
			</g>
			<g>
				<title>Aconitase_C (PF00694)
"Aconitase C-terminal domain"</title>
				<polygon class="PF00694" points="723,28 728,28 737,37 737,43 728,52 723,52" stroke-linejoin="round" width="14" height="24" fill="rgb(93,206,89)" stroke="rgb(74,164,71)" stroke-width="1" opacity="0.75" />
			</g>
		</g>
		<g>
			<title> (Strop_3063)
hypothetical protein</title>
			<polygon class=" (Strop_3063)
hypothetical protein" points="748,10 757,40 748,70" fill="rgb(255,255,255)" fill-opacity="1.0" stroke="rgb(0,0,0)" stroke-width="2"  />
			<g>
				<title>DUF2630 (PF10944)
"Protein of unknown function (DUF2630)"</title>
				<polygon class="PF10944" points="749,28 750,28 754,40 750,52 749,52" stroke-linejoin="round" width="8" height="24" fill="rgb(140,71,196)" stroke="rgb(111,56,156)" stroke-width="1" opacity="0.75" />
			</g>
		</g>
		<g>
			<title> (Strop_3064)
protein of unknown function RIO1</title>
			<polygon class=" (Strop_3064)
protein of unknown function RIO1" points="791,25 791,25 791,10 761,40 791,70 791,55 791,55" fill="rgb(255,255,255)" fill-opacity="1.0" stroke="rgb(0,0,0)" stroke-width="2"  />
			<g>
				<title>RIO1 (PF01163)
"RIO1 family"</title>
				<polygon class="PF01163" points="765,40 777,28 780,28 780,52 777,52" stroke-linejoin="round" width="18" height="24" fill="rgb(183,216,84)" stroke="rgb(146,172,67)" stroke-width="1" opacity="0.75" />
			</g>
		</g>
		<g>
			<title> (Strop_3065)
HAD-superfamily hydrolase, subfamily IA, variant 1</title>
			<polygon class=" (Strop_3065)
HAD-superfamily hydrolase, subfamily IA, variant 1" points="797,40 818,10 818,70" fill="rgb(255,255,255)" fill-opacity="1.0" stroke="rgb(0,0,0)" stroke-width="2"  />
			<g>
				<title>Hydrolase (PF00702)
"haloacid dehalogenase-like hydrolase"</title>
				<polygon class="PF00702" points="801,40 810,28 817,28 817,52 810,52" stroke-linejoin="round" width="17" height="24" fill="rgb(133,222,86)" stroke="rgb(106,177,68)" stroke-width="1" opacity="0.75" />
			</g>
		</g>
		<g>
			<title> (Strop_3066)
transcriptional regulator, TetR family</title>
			<polygon class=" (Strop_3066)
transcriptional regulator, TetR family" points="825,10 844,40 825,70" fill="rgb(255,255,255)" fill-opacity="1.0" stroke="rgb(0,0,0)" stroke-width="2"  />
			<g>
				<title>TetR_N (PF00440)
"Bacterial regulatory proteins, tetR family"</title>
				<rect class="PF00440" x="826" y="28" stroke-linejoin="round" width="4" height="24" fill="rgb(148,50,185)" stroke="rgb(118,40,148)" stroke-width="1" opacity="0.75" />
			</g>
		</g>
	</g>
</svg>
