<svg version="1.1" baseProfile="full" xmlns="http://www.w3.org/2000/svg" width="923.3333333333334" height="160">
	<g>
		<line x1="10" y1="40.0" x2="913.3333333333334" y2="40.0" style="stroke:rgb(70,70,70); stroke-width:3 "/>
		<g>
			<title>ssuE
Asparagine synthase</title>
			<polygon class="ssuE
Asparagine synthase" points="73,25 42,25 42,10 12,40 42,70 42,55 73,55" fill="rgb(255,255,255)" fill-opacity="1.0" stroke="rgb(0,0,0)" stroke-width="2"  />
			<g>
				<title>Asn_synthase (PF00733)
"Asparagine synthase"</title>
				<polygon class="PF00733" points="16,40 28,28 49,28 49,52 28,52" stroke-linejoin="round" width="36" height="24" fill="rgb(200,91,135)" stroke="rgb(160,72,108)" stroke-width="1" opacity="0.75" />
			</g>
			<g>
				<title>GATase_7 (PF13537)
"Glutamine amidotransferase domain"</title>
				<rect class="PF13537" x="56" y="28" stroke-linejoin="round" width="12" height="24" fill="rgb(102,71,204)" stroke="rgb(81,56,163)" stroke-width="1" opacity="0.75" />
			</g>
		</g>
		<g>
			<title>ssuG
Ferredoxin</title>
			<polygon class="ssuG
Ferredoxin" points="75,40 81,10 81,70" fill="rgb(255,255,255)" fill-opacity="1.0" stroke="rgb(0,0,0)" stroke-width="2"  />
			<g>
				<title>Fer4_13 (PF13370)
"4Fe-4S single cluster domain of Ferredoxin I"</title>
				<polygon class="PF13370" points="78,40 80,30 80,50" stroke-linejoin="round" width="5" height="24" fill="rgb(72,194,54)" stroke="rgb(57,155,43)" stroke-width="1" opacity="0.75" />
			</g>
		</g>
		<g>
			<title>ssuD2
cytochrome P450</title>
			<polygon class="ssuD2
cytochrome P450" points="123,25 113,25 113,10 83,40 113,70 113,55 123,55" fill="rgb(255,255,255)" fill-opacity="1.0" stroke="rgb(0,0,0)" stroke-width="2"  />
			<g>
				<title>p450 (PF00067)
"Cytochrome P450"</title>
				<polygon class="PF00067" points="87,40 99,28 105,28 105,52 99,52" stroke-linejoin="round" width="21" height="24" fill="rgb(195,210,54)" stroke="rgb(155,168,43)" stroke-width="1" opacity="0.75" />
			</g>
		</g>
		<g>
			<title>ssuF3
3-oxoacyl-ACP synthase III (FabH)</title>
			<polygon class="ssuF3
3-oxoacyl-ACP synthase III (FabH)" points="157,25 155,25 155,10 125,40 155,70 155,55 157,55" fill="rgb(255,255,255)" fill-opacity="1.0" stroke="rgb(0,0,0)" stroke-width="2"  />
			<g>
				<title>ACP_syn_III_C (PF08541)
"3-Oxoacyl-[acyl-carrier-protein (ACP)] synthase III C terminal"</title>
				<polygon class="PF08541" points="129,40 133,36 133,44" stroke-linejoin="round" width="8" height="24" fill="rgb(223,111,121)" stroke="rgb(178,88,96)" stroke-width="1" opacity="0.75" />
			</g>
			<g>
				<title>ACP_syn_III (PF08545)
"3-Oxoacyl-[acyl-carrier-protein (ACP)] synthase III"</title>
				<polygon class="PF08545" points="139,30 141,28 147,28 147,52 141,52 139,50" stroke-linejoin="round" width="8" height="24" fill="rgb(93,213,73)" stroke="rgb(74,170,58)" stroke-width="1" opacity="0.75" />
			</g>
		</g>
		<g>
			<title>ssuT
Thioesterase</title>
			<polygon class="ssuT
Thioesterase" points="159,40 184,10 184,70" fill="rgb(255,255,255)" fill-opacity="1.0" stroke="rgb(0,0,0)" stroke-width="2"  />
			<g>
				<title>Thioesterase (PF00975)
"Thioesterase domain"</title>
				<polygon class="PF00975" points="163,40 173,28 181,28 181,52 173,52" stroke-linejoin="round" width="22" height="24" fill="rgb(69,76,223)" stroke="rgb(55,60,178)" stroke-width="1" opacity="0.75" />
			</g>
		</g>
		<g>
			<title>ssuH
Crotonyl-CoA reductase</title>
			<polygon class="ssuH
Crotonyl-CoA reductase" points="193,25 207,25 207,10 237,40 207,70 207,55 193,55" fill="rgb(255,255,255)" fill-opacity="1.0" stroke="rgb(0,0,0)" stroke-width="2"  />
			<g>
				<title>ADH_N (PF08240)
"Alcohol dehydrogenase GroES-like domain"</title>
				<rect class="PF08240" x="199" y="28" stroke-linejoin="round" width="12" height="24" fill="rgb(217,198,105)" stroke="rgb(173,158,84)" stroke-width="1" opacity="0.75" />
			</g>
			<g>
				<title>ADH_zinc_N (PF00107)
"Zinc-binding dehydrogenase"</title>
				<polygon class="PF00107" points="216,28 221,28 230,37 230,43 221,52 216,52" stroke-linejoin="round" width="14" height="24" fill="rgb(79,114,198)" stroke="rgb(63,91,158)" stroke-width="1" opacity="0.75" />
			</g>
		</g>
		<g>
			<title>ssuI
3-hydroxybutyryl-CoA dehydrogenase</title>
			<polygon class="ssuI
3-hydroxybutyryl-CoA dehydrogenase" points="239,25 267,25 267,10 297,40 267,70 267,55 239,55" fill="rgb(255,255,255)" fill-opacity="1.0" stroke="rgb(0,0,0)" stroke-width="2"  />
			<g>
				<title>3HCDH_N (PF02737)
"3-hydroxyacyl-CoA dehydrogenase, NAD binding domain"</title>
				<rect class="PF02737" x="239" y="28" stroke-linejoin="round" width="16" height="24" fill="rgb(207,58,199)" stroke="rgb(165,46,159)" stroke-width="1" opacity="0.75" />
			</g>
			<g>
				<title>3HCDH (PF00725)
"3-hydroxyacyl-CoA dehydrogenase, C-terminal domain"</title>
				<rect class="PF00725" x="256" y="28" stroke-linejoin="round" width="9" height="24" fill="rgb(176,205,94)" stroke="rgb(140,164,75)" stroke-width="1" opacity="0.75" />
			</g>
			<g>
				<title>3HCDH_N (PF02737)
"3-hydroxyacyl-CoA dehydrogenase, NAD binding domain"</title>
				<polygon class="PF02737" points="268,28 281,28 285,32 285,48 281,52 268,52" stroke-linejoin="round" width="17" height="24" fill="rgb(207,58,199)" stroke="rgb(165,46,159)" stroke-width="1" opacity="0.75" />
			</g>
			<g>
				<title>3HCDH (PF00725)
"3-hydroxyacyl-CoA dehydrogenase, C-terminal domain"</title>
				<polygon class="PF00725" points="286,33 293,40 286,47" stroke-linejoin="round" width="9" height="24" fill="rgb(176,205,94)" stroke="rgb(140,164,75)" stroke-width="1" opacity="0.75" />
			</g>
		</g>
		<g>
			<title>ssuR
LuxR family transcriptional regulator</title>
			<polygon class="ssuR
LuxR family transcriptional regulator" points="382,25 327,25 327,10 297,40 327,70 327,55 382,55" fill="rgb(255,255,255)" fill-opacity="1.0" stroke="rgb(0,0,0)" stroke-width="2"  />
			<g>
				<title>GerE (PF00196)
"Bacterial regulatory proteins, luxR family"</title>
				<polygon class="PF00196" points="301,40 303,38 303,42" stroke-linejoin="round" width="5" height="24" fill="rgb(225,67,110)" stroke="rgb(180,53,88)" stroke-width="1" opacity="0.75" />
			</g>
			<g>
				<title>AAA_16 (PF13191)
"AAA ATPase domain"</title>
				<rect class="PF13191" x="367" y="28" stroke-linejoin="round" width="14" height="24" fill="rgb(88,106,197)" stroke="rgb(70,84,157)" stroke-width="1" opacity="0.75" />
			</g>
		</g>
		<g>
			<title>ssuF1
3-oxoacyl-ACP synthase (FabF)</title>
			<polygon class="ssuF1
3-oxoacyl-ACP synthase (FabF)" points="400,25 408,25 408,10 438,40 408,70 408,55 400,55" fill="rgb(255,255,255)" fill-opacity="1.0" stroke="rgb(0,0,0)" stroke-width="2"  />
			<g>
				<title>ketoacyl-synt (PF00109)
"Beta-ketoacyl synthase, N-terminal domain"</title>
				<rect class="PF00109" x="400" y="28" stroke-linejoin="round" width="22" height="24" fill="rgb(74,179,82)" stroke="rgb(59,143,65)" stroke-width="1" opacity="0.75" />
			</g>
			<g>
				<title>Ketoacyl-synt_C (PF02801)
"Beta-ketoacyl synthase, C-terminal domain"</title>
				<polygon class="PF02801" points="423,29 434,40 434,40 423,51" stroke-linejoin="round" width="11" height="24" fill="rgb(212,79,72)" stroke="rgb(169,63,57)" stroke-width="1" opacity="0.75" />
			</g>
		</g>
		<g>
			<title>ssuD1
cytochrome P450</title>
			<polygon class="ssuD1
cytochrome P450" points="441,25 453,25 453,10 483,40 453,70 453,55 441,55" fill="rgb(255,255,255)" fill-opacity="1.0" stroke="rgb(0,0,0)" stroke-width="2"  />
			<g>
				<title>p450 (PF00067)
"Cytochrome P450"</title>
				<polygon class="PF00067" points="460,28 467,28 479,40 467,52 460,52" stroke-linejoin="round" width="20" height="24" fill="rgb(195,210,54)" stroke="rgb(155,168,43)" stroke-width="1" opacity="0.75" />
			</g>
		</g>
		<g>
			<title>ssuA
Polyketide synthase</title>
			<polygon class="ssuA
Polyketide synthase" points="485,25 524,25 524,10 554,40 524,70 524,55 485,55" fill="rgb(255,255,255)" fill-opacity="1.0" stroke="rgb(0,0,0)" stroke-width="2"  />
			<g>
				<title>ketoacyl-synt (PF00109)
"Beta-ketoacyl synthase, N-terminal domain"</title>
				<rect class="PF00109" x="485" y="28" stroke-linejoin="round" width="23" height="24" fill="rgb(74,179,82)" stroke="rgb(59,143,65)" stroke-width="1" opacity="0.75" />
			</g>
			<g>
				<title>Ketoacyl-synt_C (PF02801)
"Beta-ketoacyl synthase, C-terminal domain"</title>
				<rect class="PF02801" x="509" y="28" stroke-linejoin="round" width="11" height="24" fill="rgb(212,79,72)" stroke="rgb(169,63,57)" stroke-width="1" opacity="0.75" />
			</g>
			<g>
				<title>KAsynt_C_assoc (PF16197)
"Ketoacyl-synthetase C-terminal extension"</title>
				<rect class="PF16197" x="521" y="28" stroke-linejoin="round" width="11" height="24" fill="rgb(200,86,70)" stroke="rgb(160,68,56)" stroke-width="1" opacity="0.75" />
			</g>
			<g>
				<title>PP-binding (PF00550)
"Phosphopantetheine attachment site"</title>
				<polygon class="PF00550" points="546,37 549,40 546,43" stroke-linejoin="round" width="6" height="24" fill="rgb(181,58,166)" stroke="rgb(144,46,132)" stroke-width="1" opacity="0.75" />
			</g>
		</g>
		<g>
			<title>ssuB
Polyketide synthase/Nonribosomal peptide synthase</title>
			<polygon class="ssuB
Polyketide synthase/Nonribosomal peptide synthase" points="554,25 750,25 750,10 780,40 750,70 750,55 554,55" fill="rgb(255,255,255)" fill-opacity="1.0" stroke="rgb(0,0,0)" stroke-width="2"  />
			<g>
				<title>ketoacyl-synt (PF00109)
"Beta-ketoacyl synthase, N-terminal domain"</title>
				<rect class="PF00109" x="554" y="28" stroke-linejoin="round" width="24" height="24" fill="rgb(74,179,82)" stroke="rgb(59,143,65)" stroke-width="1" opacity="0.75" />
			</g>
			<g>
				<title>Ketoacyl-synt_C (PF02801)
"Beta-ketoacyl synthase, C-terminal domain"</title>
				<rect class="PF02801" x="580" y="28" stroke-linejoin="round" width="11" height="24" fill="rgb(212,79,72)" stroke="rgb(169,63,57)" stroke-width="1" opacity="0.75" />
			</g>
			<g>
				<title>KAsynt_C_assoc (PF16197)
"Ketoacyl-synthetase C-terminal extension"</title>
				<rect class="PF16197" x="592" y="28" stroke-linejoin="round" width="11" height="24" fill="rgb(200,86,70)" stroke="rgb(160,68,56)" stroke-width="1" opacity="0.75" />
			</g>
			<g>
				<title>Acyl_transf_1 (PF00698)
"Acyl transferase domain"</title>
				<rect class="PF00698" x="607" y="28" stroke-linejoin="round" width="31" height="24" fill="rgb(132,93,193)" stroke="rgb(105,74,154)" stroke-width="1" opacity="0.75" />
			</g>
			<g>
				<title>PKS_DH_N (PF21089)
"Polyketide synthase dehydratase domain"</title>
				<rect class="PF21089" x="644" y="28" stroke-linejoin="round" width="10" height="24" fill="rgb(67,151,200)" stroke="rgb(53,120,160)" stroke-width="1" opacity="0.75" />
			</g>
			<g>
				<title>PS-DH (PF14765)
"Polyketide synthase dehydratase N-terminal domain"</title>
				<rect class="PF14765" x="657" y="28" stroke-linejoin="round" width="15" height="24" fill="rgb(189,61,178)" stroke="rgb(151,48,142)" stroke-width="1" opacity="0.75" />
			</g>
			<g>
				<title>KR (PF08659)
"KR domain"</title>
				<rect class="PF08659" x="692" y="28" stroke-linejoin="round" width="17" height="24" fill="rgb(203,145,81)" stroke="rgb(162,116,64)" stroke-width="1" opacity="0.75" />
			</g>
			<g>
				<title>PP-binding (PF00550)
"Phosphopantetheine attachment site"</title>
				<rect class="PF00550" x="724" y="28" stroke-linejoin="round" width="6" height="24" fill="rgb(181,58,166)" stroke="rgb(144,46,132)" stroke-width="1" opacity="0.75" />
			</g>
			<g>
				<title>Condensation (PF00668)
"Condensation domain"</title>
				<polygon class="PF00668" points="737,28 764,28 776,40 764,52 737,52" stroke-linejoin="round" width="43" height="24" fill="rgb(172,217,60)" stroke="rgb(137,173,47)" stroke-width="1" opacity="0.75" />
			</g>
		</g>
		<g>
			<title>ssuC
Nonribosomal peptide synthase</title>
			<polygon class="ssuC
Nonribosomal peptide synthase" points="780,25 839,25 839,10 869,40 839,70 839,55 780,55" fill="rgb(255,255,255)" fill-opacity="1.0" stroke="rgb(0,0,0)" stroke-width="2"  />
			<g>
				<title>AMP-binding (PF00501)
"AMP-binding enzyme"</title>
				<rect class="PF00501" x="784" y="28" stroke-linejoin="round" width="35" height="24" fill="rgb(189,78,204)" stroke="rgb(151,62,163)" stroke-width="1" opacity="0.75" />
			</g>
			<g>
				<title>AMP-binding_C (PF13193)
"AMP-binding enzyme C-terminal domain"</title>
				<rect class="PF13193" x="825" y="28" stroke-linejoin="round" width="7" height="24" fill="rgb(195,82,106)" stroke="rgb(156,65,84)" stroke-width="1" opacity="0.75" />
			</g>
			<g>
				<title>PP-binding (PF00550)
"Phosphopantetheine attachment site"</title>
				<rect class="PF00550" x="836" y="28" stroke-linejoin="round" width="6" height="24" fill="rgb(181,58,166)" stroke="rgb(144,46,132)" stroke-width="1" opacity="0.75" />
			</g>
			<g>
				<title>Thioesterase (PF00975)
"Thioesterase domain"</title>
				<polygon class="PF00975" points="844,28 853,28 865,40 853,52 844,52" stroke-linejoin="round" width="24" height="24" fill="rgb(69,76,223)" stroke="rgb(55,60,178)" stroke-width="1" opacity="0.75" />
			</g>
		</g>
		<g>
			<title>ssuF2
3-oxoacyl-ACP synthase (FabF)</title>
			<polygon class="ssuF2
3-oxoacyl-ACP synthase (FabF)" points="911,25 901,25 901,10 871,40 901,70 901,55 911,55" fill="rgb(255,255,255)" fill-opacity="1.0" stroke="rgb(0,0,0)" stroke-width="2"  />
			<g>
				<title>Ketoacyl-synt_C (PF02801)
"Beta-ketoacyl synthase, C-terminal domain"</title>
				<polygon class="PF02801" points="875,40 886,29 886,51 875,40" stroke-linejoin="round" width="11" height="24" fill="rgb(212,79,72)" stroke="rgb(169,63,57)" stroke-width="1" opacity="0.75" />
			</g>
			<g>
				<title>ketoacyl-synt (PF00109)
"Beta-ketoacyl synthase, N-terminal domain"</title>
				<polygon class="PF00109" points="887,28 887,28 911,28 911,52 887,52 887,52" stroke-linejoin="round" width="24" height="24" fill="rgb(74,179,82)" stroke="rgb(59,143,65)" stroke-width="1" opacity="0.75" />
			</g>
		</g>
	</g>
	<g>
		<line x1="10" y1="120.0" x2="121.83333333333333" y2="120.0" style="stroke:rgb(70,70,70); stroke-width:3 "/>
		<g>
			<title>ssuJ
tRNA-specific 2-thiouridylase</title>
			<polygon class="ssuJ
tRNA-specific 2-thiouridylase" points="48,105 41,105 41,90 11,120 41,150 41,135 48,135" fill="rgb(255,255,255)" fill-opacity="1.0" stroke="rgb(0,0,0)" stroke-width="2"  />
		</g>
		<g>
			<title>ssuK
N-acetylmuramoyl-L-alanine amidase</title>
			<polygon class="ssuK
N-acetylmuramoyl-L-alanine amidase" points="51,90 73,120 51,150" fill="rgb(255,255,255)" fill-opacity="1.0" stroke="rgb(0,0,0)" stroke-width="2"  />
		</g>
		<g>
			<title>ssuS
NifS-like cysteine desulfurase</title>
			<polygon class="ssuS
NifS-like cysteine desulfurase" points="120,105 111,105 111,90 81,120 111,150 111,135 120,135" fill="rgb(255,255,255)" fill-opacity="1.0" stroke="rgb(0,0,0)" stroke-width="2"  />
		</g>
	</g>
</svg>
