<svg version="1.1" baseProfile="full" xmlns="http://www.w3.org/2000/svg" width="2036.8" height="80">
	<g>
		<line x1="10" y1="40.0" x2="2026.8" y2="40.0" style="stroke:rgb(70,70,70); stroke-width:3 "/>
		<g>
			<title>gFH322
putative multicopper oxidase</title>
			<polygon class="gFH322
putative multicopper oxidase" points="111,25 62,25 62,10 32,40 62,70 62,55 111,55" fill="rgb(255,255,255)" fill-opacity="1.0" stroke="rgb(0,0,0)" stroke-width="2"  />
			<g>
				<title>Cu-oxidase_2 (PF07731)
"Multicopper oxidase"</title>
				<rect class="PF07731" x="51" y="28" stroke-linejoin="round" width="14" height="24" fill="rgb(188,215,88)" stroke="rgb(150,172,70)" stroke-width="1" opacity="0.75" />
			</g>
			<g>
				<title>Cu-oxidase (PF00394)
"Multicopper oxidase"</title>
				<rect class="PF00394" x="73" y="28" stroke-linejoin="round" width="17" height="24" fill="rgb(181,80,92)" stroke="rgb(144,64,73)" stroke-width="1" opacity="0.75" />
			</g>
			<g>
				<title>Cu-oxidase_3 (PF07732)
"Multicopper oxidase"</title>
				<rect class="PF07732" x="93" y="28" stroke-linejoin="round" width="11" height="24" fill="rgb(174,103,224)" stroke="rgb(139,82,179)" stroke-width="1" opacity="0.75" />
			</g>
		</g>
		<g>
			<title>gFH333
putative multicopper oxidase</title>
			<polygon class="gFH333
putative multicopper oxidase" points="144,25 177,25 177,10 207,40 177,70 177,55 144,55" fill="rgb(255,255,255)" fill-opacity="1.0" stroke="rgb(0,0,0)" stroke-width="2"  />
			<g>
				<title>Cu-oxidase_3 (PF07732)
"Multicopper oxidase"</title>
				<rect class="PF07732" x="146" y="28" stroke-linejoin="round" width="11" height="24" fill="rgb(174,103,224)" stroke="rgb(139,82,179)" stroke-width="1" opacity="0.75" />
			</g>
			<g>
				<title>Cu-oxidase (PF00394)
"Multicopper oxidase"</title>
				<rect class="PF00394" x="161" y="28" stroke-linejoin="round" width="18" height="24" fill="rgb(181,80,92)" stroke="rgb(144,64,73)" stroke-width="1" opacity="0.75" />
			</g>
			<g>
				<title>Cu-oxidase_2 (PF07731)
"Multicopper oxidase"</title>
				<polygon class="PF07731" points="185,28 191,28 199,36 199,44 191,52 185,52" stroke-linejoin="round" width="14" height="24" fill="rgb(188,215,88)" stroke="rgb(150,172,70)" stroke-width="1" opacity="0.75" />
			</g>
		</g>
		<g>
			<title>fsdR
putative fungal transcription factor</title>
			<polygon class="fsdR
putative fungal transcription factor" points="328,25 305,25 305,10 275,40 305,70 305,55 328,55" fill="rgb(255,255,255)" fill-opacity="1.0" stroke="rgb(0,0,0)" stroke-width="2"  />
			<g>
				<title>Fungal_trans (PF04082)
"Fungal specific transcription factor domain"</title>
				<rect class="PF04082" x="299" y="28" stroke-linejoin="round" width="23" height="24" fill="rgb(214,73,227)" stroke="rgb(171,58,181)" stroke-width="1" opacity="0.75" />
			</g>
		</g>
		<g>
			<title>gFH335
hypothetical protein</title>
			<polygon class="gFH335
hypothetical protein" points="442,25 401,25 401,10 371,40 401,70 401,55 442,55" fill="rgb(255,255,255)" fill-opacity="1.0" stroke="rgb(0,0,0)" stroke-width="2"  />
			<g>
				<title>AtuA (PF07287)
"Acyclic terpene utilisation family protein AtuA"</title>
				<rect class="PF07287" x="402" y="28" stroke-linejoin="round" width="37" height="24" fill="rgb(193,84,126)" stroke="rgb(154,67,100)" stroke-width="1" opacity="0.75" />
			</g>
		</g>
		<g>
			<title>gFH336
putative CoA-transferase-like protein</title>
			<polygon class="gFH336
putative CoA-transferase-like protein" points="461,25 486,25 486,10 516,40 486,70 486,55 461,55" fill="rgb(255,255,255)" fill-opacity="1.0" stroke="rgb(0,0,0)" stroke-width="2"  />
			<g>
				<title>CoA_transf_3 (PF02515)
"CoA-transferase family III"</title>
				<polygon class="PF02515" points="485,28 500,28 509,37 509,43 500,52 485,52" stroke-linejoin="round" width="24" height="24" fill="rgb(194,75,118)" stroke="rgb(155,60,94)" stroke-width="1" opacity="0.75" />
			</g>
		</g>
		<g>
			<title>gFH337
putative nucleoside phosphorylase-like protein</title>
			<polygon class="gFH337
putative nucleoside phosphorylase-like protein" points="582,25 553,25 553,10 523,40 553,70 553,55 582,55" fill="rgb(255,255,255)" fill-opacity="1.0" stroke="rgb(0,0,0)" stroke-width="2"  />
			<g>
				<title>PNP_UDP_1 (PF01048)
"Phosphorylase superfamily"</title>
				<rect class="PF01048" x="550" y="28" stroke-linejoin="round" width="28" height="24" fill="rgb(81,138,182)" stroke="rgb(64,110,145)" stroke-width="1" opacity="0.75" />
			</g>
		</g>
		<g>
			<title>gFH339
putative monooxygenase</title>
			<polygon class="gFH339
putative monooxygenase" points="739,25 695,25 695,10 665,40 695,70 695,55 739,55" fill="rgb(255,255,255)" fill-opacity="1.0" stroke="rgb(0,0,0)" stroke-width="2"  />
			<g>
				<title>FAD_binding_3 (PF01494)
"FAD binding domain"</title>
				<rect class="PF01494" x="704" y="28" stroke-linejoin="round" width="34" height="24" fill="rgb(215,66,156)" stroke="rgb(172,52,124)" stroke-width="1" opacity="0.75" />
			</g>
		</g>
		<g>
			<title>gFH340
putative metal-dependent hydrolase</title>
			<polygon class="gFH340
putative metal-dependent hydrolase" points="718,25 774,25 774,10 804,40 774,70 774,55 718,55" fill="rgb(255,255,255)" fill-opacity="1.0" stroke="rgb(0,0,0)" stroke-width="2"  />
		</g>
		<g>
			<title>fsdK
putative dimethylallyltransferase</title>
			<polygon class="fsdK
putative dimethylallyltransferase" points="879,25 862,25 862,10 832,40 862,70 862,55 879,55" fill="rgb(255,255,255)" fill-opacity="1.0" stroke="rgb(0,0,0)" stroke-width="2"  />
			<g>
				<title>Trp_DMAT (PF11991)
"Tryptophan dimethylallyltransferase"</title>
				<polygon class="PF11991" points="839,37 848,28 876,28 876,52 848,52 839,43" stroke-linejoin="round" width="37" height="24" fill="rgb(65,157,207)" stroke="rgb(51,125,165)" stroke-width="1" opacity="0.75" />
			</g>
		</g>
		<g>
			<title>fsdD
putative methyltransferase</title>
			<polygon class="fsdD
putative methyltransferase" points="922,25 920,25 920,10 890,40 920,70 920,55 922,55" fill="rgb(255,255,255)" fill-opacity="1.0" stroke="rgb(0,0,0)" stroke-width="2"  />
		</g>
		<g>
			<title>fsdH
putative cytochrome p450</title>
			<polygon class="fsdH
putative cytochrome p450" points="950,25 992,25 992,10 1022,40 992,70 992,55 950,55" fill="rgb(255,255,255)" fill-opacity="1.0" stroke="rgb(0,0,0)" stroke-width="2"  />
			<g>
				<title>p450 (PF00067)
"Cytochrome P450"</title>
				<rect class="PF00067" x="956" y="28" stroke-linejoin="round" width="45" height="24" fill="rgb(195,210,54)" stroke="rgb(155,168,43)" stroke-width="1" opacity="0.75" />
			</g>
		</g>
		<g>
			<title>fsdG
putative MFS transporter</title>
			<polygon class="fsdG
putative MFS transporter" points="1036,25 1060,25 1060,10 1090,40 1060,70 1060,55 1036,55" fill="rgb(255,255,255)" fill-opacity="1.0" stroke="rgb(0,0,0)" stroke-width="2"  />
			<g>
				<title>MFS_1 (PF07690)
"Major Facilitator Superfamily"</title>
				<polygon class="PF07690" points="1042,28 1074,28 1081,35 1081,45 1074,52 1042,52" stroke-linejoin="round" width="39" height="24" fill="rgb(228,207,98)" stroke="rgb(182,165,78)" stroke-width="1" opacity="0.75" />
			</g>
		</g>
		<g>
			<title>fsdS
fusaridione A synthetase</title>
			<polygon class="fsdS
fusaridione A synthetase" points="1128,25 1500,25 1500,10 1530,40 1500,70 1500,55 1128,55" fill="rgb(255,255,255)" fill-opacity="1.0" stroke="rgb(0,0,0)" stroke-width="2"  />
			<g>
				<title>ketoacyl-synt (PF00109)
"Beta-ketoacyl synthase, N-terminal domain"</title>
				<rect class="PF00109" x="1128" y="28" stroke-linejoin="round" width="25" height="24" fill="rgb(74,179,82)" stroke="rgb(59,143,65)" stroke-width="1" opacity="0.75" />
			</g>
			<g>
				<title>Ketoacyl-synt_C (PF02801)
"Beta-ketoacyl synthase, C-terminal domain"</title>
				<rect class="PF02801" x="1154" y="28" stroke-linejoin="round" width="12" height="24" fill="rgb(212,79,72)" stroke="rgb(169,63,57)" stroke-width="1" opacity="0.75" />
			</g>
			<g>
				<title>KAsynt_C_assoc (PF16197)
"Ketoacyl-synthetase C-terminal extension"</title>
				<rect class="PF16197" x="1167" y="28" stroke-linejoin="round" width="11" height="24" fill="rgb(200,86,70)" stroke="rgb(160,68,56)" stroke-width="1" opacity="0.75" />
			</g>
			<g>
				<title>Acyl_transf_1 (PF00698)
"Acyl transferase domain"</title>
				<rect class="PF00698" x="1183" y="28" stroke-linejoin="round" width="33" height="24" fill="rgb(132,93,193)" stroke="rgb(105,74,154)" stroke-width="1" opacity="0.75" />
			</g>
			<g>
				<title>PKS_DH_N (PF21089)
"Polyketide synthase dehydratase domain"</title>
				<rect class="PF21089" x="1222" y="28" stroke-linejoin="round" width="10" height="24" fill="rgb(67,151,200)" stroke="rgb(53,120,160)" stroke-width="1" opacity="0.75" />
			</g>
			<g>
				<title>PS-DH (PF14765)
"Polyketide synthase dehydratase N-terminal domain"</title>
				<rect class="PF14765" x="1236" y="28" stroke-linejoin="round" width="16" height="24" fill="rgb(189,61,178)" stroke="rgb(151,48,142)" stroke-width="1" opacity="0.75" />
			</g>
			<g>
				<title>Methyltransf_12 (PF08242)
"Methyltransferase domain"</title>
				<rect class="PF08242" x="1270" y="28" stroke-linejoin="round" width="10" height="24" fill="rgb(78,210,205)" stroke="rgb(62,168,164)" stroke-width="1" opacity="0.75" />
			</g>
			<g>
				<title>KR (PF08659)
"KR domain"</title>
				<rect class="PF08659" x="1339" y="28" stroke-linejoin="round" width="17" height="24" fill="rgb(203,145,81)" stroke="rgb(162,116,64)" stroke-width="1" opacity="0.75" />
			</g>
			<g>
				<title>PP-binding (PF00550)
"Phosphopantetheine attachment site"</title>
				<rect class="PF00550" x="1368" y="28" stroke-linejoin="round" width="6" height="24" fill="rgb(181,58,166)" stroke="rgb(144,46,132)" stroke-width="1" opacity="0.75" />
			</g>
			<g>
				<title>Condensation (PF00668)
"Condensation domain"</title>
				<rect class="PF00668" x="1385" y="28" stroke-linejoin="round" width="43" height="24" fill="rgb(172,217,60)" stroke="rgb(137,173,47)" stroke-width="1" opacity="0.75" />
			</g>
			<g>
				<title>AMP-binding (PF00501)
"AMP-binding enzyme"</title>
				<rect class="PF00501" x="1432" y="28" stroke-linejoin="round" width="35" height="24" fill="rgb(189,78,204)" stroke="rgb(151,62,163)" stroke-width="1" opacity="0.75" />
			</g>
			<g>
				<title>PP-binding (PF00550)
"Phosphopantetheine attachment site"</title>
				<rect class="PF00550" x="1485" y="28" stroke-linejoin="round" width="6" height="24" fill="rgb(181,58,166)" stroke="rgb(144,46,132)" stroke-width="1" opacity="0.75" />
			</g>
			<g>
				<title>NAD_binding_4 (PF07993)
"Male sterility protein"</title>
				<polygon class="PF07993" points="1497,28 1514,28 1520,34 1520,46 1514,52 1497,52" stroke-linejoin="round" width="23" height="24" fill="rgb(210,94,130)" stroke="rgb(168,75,103)" stroke-width="1" opacity="0.75" />
			</g>
		</g>
		<g>
			<title>gFH438
hypothetical protein</title>
			<polygon class="gFH438
hypothetical protein" points="1641,25 1669,25 1669,10 1699,40 1669,70 1669,55 1641,55" fill="rgb(255,255,255)" fill-opacity="1.0" stroke="rgb(0,0,0)" stroke-width="2"  />
		</g>
		<g>
			<title>fsdC
putative enoylreductase-like protein</title>
			<polygon class="fsdC
putative enoylreductase-like protein" points="1739,25 1731,25 1731,10 1701,40 1731,70 1731,55 1739,55" fill="rgb(255,255,255)" fill-opacity="1.0" stroke="rgb(0,0,0)" stroke-width="2"  />
			<g>
				<title>ADH_zinc_N (PF00107)
"Zinc-binding dehydrogenase"</title>
				<polygon class="PF00107" points="1714,31 1717,28 1721,28 1721,52 1717,52 1714,49" stroke-linejoin="round" width="7" height="24" fill="rgb(79,114,198)" stroke="rgb(63,91,158)" stroke-width="1" opacity="0.75" />
			</g>
		</g>
		<g>
			<title>gFH350
putative ankyrin-repeat containing protein</title>
			<polygon class="gFH350
putative ankyrin-repeat containing protein" points="2007,25 1778,25 1778,10 1748,40 1778,70 1778,55 2007,55" fill="rgb(255,255,255)" fill-opacity="1.0" stroke="rgb(0,0,0)" stroke-width="2"  />
			<g>
				<title>Ank_2 (PF12796)
"Ankyrin repeats (3 copies)"</title>
				<rect class="PF12796" x="1791" y="28" stroke-linejoin="round" width="10" height="24" fill="rgb(78,175,190)" stroke="rgb(62,140,152)" stroke-width="1" opacity="0.75" />
			</g>
			<g>
				<title>Ank_4 (PF13637)
"Ankyrin repeats (many copies)"</title>
				<rect class="PF13637" x="1810" y="28" stroke-linejoin="round" width="5" height="24" fill="rgb(213,72,120)" stroke="rgb(170,57,95)" stroke-width="1" opacity="0.75" />
			</g>
			<g>
				<title>Ank_2 (PF12796)
"Ankyrin repeats (3 copies)"</title>
				<rect class="PF12796" x="1888" y="28" stroke-linejoin="round" width="9" height="24" fill="rgb(78,175,190)" stroke="rgb(62,140,152)" stroke-width="1" opacity="0.75" />
			</g>
			<g>
				<title>Ank_2 (PF12796)
"Ankyrin repeats (3 copies)"</title>
				<rect class="PF12796" x="1914" y="28" stroke-linejoin="round" width="9" height="24" fill="rgb(78,175,190)" stroke="rgb(62,140,152)" stroke-width="1" opacity="0.75" />
			</g>
		</g>
	</g>
</svg>
