<svg version="1.1" baseProfile="full" xmlns="http://www.w3.org/2000/svg" width="2985.7" height="80">
	<g>
		<line x1="10" y1="40.0" x2="2975.7" y2="40.0" style="stroke:rgb(70,70,70); stroke-width:3 "/>
		<g>
			<title>CYP702A2 (AT4G15300)
cytochrome P450, family 702, subfamily A, polypeptide 2</title>
			<polygon class="CYP702A2 (AT4G15300)
cytochrome P450, family 702, subfamily A, polypeptide 2" points="77,25 40,25 40,10 10,40 40,70 40,55 77,55" fill="rgb(255,255,255)" fill-opacity="1.0" stroke="rgb(0,0,0)" stroke-width="2"  />
			<g>
				<title>p450 (PF00067)
"Cytochrome P450"</title>
				<rect class="PF00067" x="30" y="28" stroke-linejoin="round" width="44" height="24" fill="rgb(195,210,54)" stroke="rgb(155,168,43)" stroke-width="1" opacity="0.75" />
			</g>
		</g>
		<g>
			<title>CYP702A3 (AT4G15310)
cytochrome P450, family 702, subfamily A, polypeptide 3</title>
			<polygon class="CYP702A3 (AT4G15310)
cytochrome P450, family 702, subfamily A, polypeptide 3" points="209,25 289,25 289,10 319,40 289,70 289,55 209,55" fill="rgb(255,255,255)" fill-opacity="1.0" stroke="rgb(0,0,0)" stroke-width="2"  />
			<g>
				<title>p450 (PF00067)
"Cytochrome P450"</title>
				<rect class="PF00067" x="212" y="28" stroke-linejoin="round" width="43" height="24" fill="rgb(195,210,54)" stroke="rgb(155,168,43)" stroke-width="1" opacity="0.75" />
			</g>
		</g>
		<g>
			<title>CSLB06 (AT4G15320)
cellulose synthase-like protein B6</title>
			<polygon class="CSLB06 (AT4G15320)
cellulose synthase-like protein B6" points="585,25 437,25 437,10 407,40 437,70 437,55 585,55" fill="rgb(255,255,255)" fill-opacity="1.0" stroke="rgb(0,0,0)" stroke-width="2"  />
			<g>
				<title>Cellulose_synt (PF03552)
"Cellulose synthase"</title>
				<rect class="PF03552" x="516" y="28" stroke-linejoin="round" width="22" height="24" fill="rgb(162,190,57)" stroke="rgb(129,152,45)" stroke-width="1" opacity="0.75" />
			</g>
			<g>
				<title>Cellulose_synt (PF03552)
"Cellulose synthase"</title>
				<rect class="PF03552" x="549" y="28" stroke-linejoin="round" width="26" height="24" fill="rgb(162,190,57)" stroke="rgb(129,152,45)" stroke-width="1" opacity="0.75" />
			</g>
		</g>
		<g>
			<title>CYP705A1 (AT4G15330)
cytochrome P450, family 705, subfamily A, polypeptide 1</title>
			<polygon class="CYP705A1 (AT4G15330)
cytochrome P450, family 705, subfamily A, polypeptide 1" points="756,25 733,25 733,10 703,40 733,70 733,55 756,55" fill="rgb(255,255,255)" fill-opacity="1.0" stroke="rgb(0,0,0)" stroke-width="2"  />
			<g>
				<title>p450 (PF00067)
"Cytochrome P450"</title>
				<polygon class="PF00067" points="707,40 719,28 752,28 752,52 719,52 707,40" stroke-linejoin="round" width="45" height="24" fill="rgb(195,210,54)" stroke="rgb(155,168,43)" stroke-width="1" opacity="0.75" />
			</g>
		</g>
		<g>
			<title>PEN1 (AT4G15340)
pentacyclic triterpene synthase 1</title>
			<polygon class="PEN1 (AT4G15340)
pentacyclic triterpene synthase 1" points="1005,25 838,25 838,10 808,40 838,70 838,55 1005,55" fill="rgb(255,255,255)" fill-opacity="1.0" stroke="rgb(0,0,0)" stroke-width="2"  />
			<g>
				<title>SQHop_cyclase_C (PF13243)
"Squalene-hopene cyclase C-terminal domain"</title>
				<rect class="PF13243" x="929" y="28" stroke-linejoin="round" width="34" height="24" fill="rgb(112,106,216)" stroke="rgb(89,84,172)" stroke-width="1" opacity="0.75" />
			</g>
			<g>
				<title>SQHop_cyclase_N (PF13249)
"Squalene-hopene cyclase N-terminal domain"</title>
				<rect class="PF13249" x="964" y="28" stroke-linejoin="round" width="31" height="24" fill="rgb(66,176,179)" stroke="rgb(52,140,143)" stroke-width="1" opacity="0.75" />
			</g>
		</g>
		<g>
			<title>CYP705A2 (AT4G15350)
cytochrome P450, family 705, subfamily A, polypeptide 2</title>
			<polygon class="CYP705A2 (AT4G15350)
cytochrome P450, family 705, subfamily A, polypeptide 2" points="1084,25 1107,25 1107,10 1137,40 1107,70 1107,55 1084,55" fill="rgb(255,255,255)" fill-opacity="1.0" stroke="rgb(0,0,0)" stroke-width="2"  />
			<g>
				<title>p450 (PF00067)
"Cytochrome P450"</title>
				<polygon class="PF00067" points="1087,28 1121,28 1133,40 1133,40 1121,52 1087,52" stroke-linejoin="round" width="46" height="24" fill="rgb(195,210,54)" stroke="rgb(155,168,43)" stroke-width="1" opacity="0.75" />
			</g>
		</g>
		<g>
			<title>CYP705A3 (AT4G15360)
cytochrome P450, family 705, subfamily A, polypeptide 3</title>
			<polygon class="CYP705A3 (AT4G15360)
cytochrome P450, family 705, subfamily A, polypeptide 3" points="1325,25 1350,25 1350,10 1380,40 1350,70 1350,55 1325,55" fill="rgb(255,255,255)" fill-opacity="1.0" stroke="rgb(0,0,0)" stroke-width="2"  />
			<g>
				<title>p450 (PF00067)
"Cytochrome P450"</title>
				<polygon class="PF00067" points="1329,28 1364,28 1374,38 1374,42 1364,52 1329,52" stroke-linejoin="round" width="45" height="24" fill="rgb(195,210,54)" stroke="rgb(155,168,43)" stroke-width="1" opacity="0.75" />
			</g>
		</g>
		<g>
			<title>BARS1 (AT4G15370)
baruol synthase 1</title>
			<polygon class="BARS1 (AT4G15370)
baruol synthase 1" points="1641,25 1475,25 1475,10 1445,40 1475,70 1475,55 1641,55" fill="rgb(255,255,255)" fill-opacity="1.0" stroke="rgb(0,0,0)" stroke-width="2"  />
			<g>
				<title>SQHop_cyclase_C (PF13243)
"Squalene-hopene cyclase C-terminal domain"</title>
				<rect class="PF13243" x="1566" y="28" stroke-linejoin="round" width="33" height="24" fill="rgb(112,106,216)" stroke="rgb(89,84,172)" stroke-width="1" opacity="0.75" />
			</g>
			<g>
				<title>SQHop_cyclase_N (PF13249)
"Squalene-hopene cyclase N-terminal domain"</title>
				<rect class="PF13249" x="1600" y="28" stroke-linejoin="round" width="31" height="24" fill="rgb(66,176,179)" stroke="rgb(52,140,143)" stroke-width="1" opacity="0.75" />
			</g>
		</g>
		<g>
			<title>CYP705A4 (AT4G15380)
cytochrome P450, family 705, subfamily A, polypeptide 4</title>
			<polygon class="CYP705A4 (AT4G15380)
cytochrome P450, family 705, subfamily A, polypeptide 4" points="1944,25 1968,25 1968,10 1998,40 1968,70 1968,55 1944,55" fill="rgb(255,255,255)" fill-opacity="1.0" stroke="rgb(0,0,0)" stroke-width="2"  />
			<g>
				<title>p450 (PF00067)
"Cytochrome P450"</title>
				<polygon class="PF00067" points="1948,28 1982,28 1993,39 1993,41 1982,52 1948,52" stroke-linejoin="round" width="45" height="24" fill="rgb(195,210,54)" stroke="rgb(155,168,43)" stroke-width="1" opacity="0.75" />
			</g>
		</g>
		<g>
			<title> (AT4G15390)
HXXXD-type acyl-transferase family protein</title>
			<polygon class=" (AT4G15390)
HXXXD-type acyl-transferase family protein" points="2127,25 2113,25 2113,10 2083,40 2113,70 2113,55 2127,55" fill="rgb(255,255,255)" fill-opacity="1.0" stroke="rgb(0,0,0)" stroke-width="2"  />
			<g>
				<title>Transferase (PF02458)
"Transferase family"</title>
				<polygon class="PF02458" points="2087,40 2099,28 2126,28 2126,52 2099,52" stroke-linejoin="round" width="42" height="24" fill="rgb(183,146,88)" stroke="rgb(146,116,70)" stroke-width="1" opacity="0.75" />
			</g>
		</g>
		<g>
			<title>CYP702A5 (AT4G1539_1)
AT4G1539_1</title>
			<polygon class="CYP702A5 (AT4G1539_1)
AT4G1539_1" points="2457,25 2512,25 2512,10 2542,40 2512,70 2512,55 2457,55" fill="rgb(255,255,255)" fill-opacity="1.0" stroke="rgb(0,0,0)" stroke-width="2"  />
		</g>
		<g>
			<title>CYP702A5 (AT4G1539_2)
AT4G1539_2</title>
			<polygon class="CYP702A5 (AT4G1539_2)
AT4G1539_2" points="2457,25 2512,25 2512,10 2542,40 2512,70 2512,55 2457,55" fill="rgb(255,255,255)" fill-opacity="1.0" stroke="rgb(0,0,0)" stroke-width="2"  />
		</g>
		<g>
			<title>CYP702A5 (AT4G15393)
cytochrome P450, family 702, subfamily A, polypeptide 5</title>
			<polygon class="CYP702A5 (AT4G15393)
cytochrome P450, family 702, subfamily A, polypeptide 5" points="2457,25 2522,25 2522,10 2552,40 2522,70 2522,55 2457,55" fill="rgb(255,255,255)" fill-opacity="1.0" stroke="rgb(0,0,0)" stroke-width="2"  />
			<g>
				<title>p450 (PF00067)
"Cytochrome P450"</title>
				<rect class="PF00067" x="2460" y="28" stroke-linejoin="round" width="42" height="24" fill="rgb(195,210,54)" stroke="rgb(155,168,43)" stroke-width="1" opacity="0.75" />
			</g>
		</g>
		<g>
			<title>CYP702A6 (AT4G15396)
cytochrome P450, family 702, subfamily A, polypeptide 6</title>
			<polygon class="CYP702A6 (AT4G15396)
cytochrome P450, family 702, subfamily A, polypeptide 6" points="2571,25 2635,25 2635,10 2665,40 2635,70 2635,55 2571,55" fill="rgb(255,255,255)" fill-opacity="1.0" stroke="rgb(0,0,0)" stroke-width="2"  />
			<g>
				<title>p450 (PF00067)
"Cytochrome P450"</title>
				<rect class="PF00067" x="2574" y="28" stroke-linejoin="round" width="42" height="24" fill="rgb(195,210,54)" stroke="rgb(155,168,43)" stroke-width="1" opacity="0.75" />
			</g>
		</g>
		<g>
			<title> (AT4G15400)
HXXXD-type acyl-transferase-like protein</title>
			<polygon class=" (AT4G15400)
HXXXD-type acyl-transferase-like protein" points="2766,25 2753,25 2753,10 2723,40 2753,70 2753,55 2766,55" fill="rgb(255,255,255)" fill-opacity="1.0" stroke="rgb(0,0,0)" stroke-width="2"  />
			<g>
				<title>Transferase (PF02458)
"Transferase family"</title>
				<polygon class="PF02458" points="2727,40 2739,28 2766,28 2766,52 2739,52" stroke-linejoin="round" width="42" height="24" fill="rgb(183,146,88)" stroke="rgb(146,116,70)" stroke-width="1" opacity="0.75" />
			</g>
		</g>
		<g>
			<title>PUX5 (AT4G15410)
serine/threonine protein phosphatase 2A regulatory subunit B prime gamma</title>
			<polygon class="PUX5 (AT4G15410)
serine/threonine protein phosphatase 2A regulatory subunit B prime gamma" points="2814,25 2841,25 2841,10 2871,40 2841,70 2841,55 2814,55" fill="rgb(255,255,255)" fill-opacity="1.0" stroke="rgb(0,0,0)" stroke-width="2"  />
			<g>
				<title>UBA_4 (PF14555)
"UBA-like domain"</title>
				<rect class="PF14555" x="2814" y="28" stroke-linejoin="round" width="4" height="24" fill="rgb(212,223,94)" stroke="rgb(169,178,75)" stroke-width="1" opacity="0.75" />
			</g>
			<g>
				<title>SEP (PF08059)
"SEP domain"</title>
				<rect class="PF08059" x="2837" y="28" stroke-linejoin="round" width="7" height="24" fill="rgb(210,194,93)" stroke="rgb(168,155,74)" stroke-width="1" opacity="0.75" />
			</g>
			<g>
				<title>UBX (PF00789)
"UBX domain"</title>
				<rect class="PF00789" x="2848" y="28" stroke-linejoin="round" width="7" height="24" fill="rgb(215,78,123)" stroke="rgb(172,62,98)" stroke-width="1" opacity="0.75" />
			</g>
		</g>
		<g>
			<title>ATB__GAMMA (AT4G15415)
protein phosphatase 2A B'gamma</title>
			<polygon class="ATB__GAMMA (AT4G15415)
protein phosphatase 2A B'gamma" points="2909,25 2933,25 2933,10 2963,40 2933,70 2933,55 2909,55" fill="rgb(255,255,255)" fill-opacity="1.0" stroke="rgb(0,0,0)" stroke-width="2"  />
		</g>
		<g>
			<title>ATB__GAMMA (AT4G1541_1)
AT4G1541_1</title>
			<polygon class="ATB__GAMMA (AT4G1541_1)
AT4G1541_1" points="2909,25 2933,25 2933,10 2963,40 2933,70 2933,55 2909,55" fill="rgb(255,255,255)" fill-opacity="1.0" stroke="rgb(0,0,0)" stroke-width="2"  />
			<g>
				<title>B56 (PF01603)
"Protein phosphatase 2A regulatory B subunit (B56 family)"</title>
				<polygon class="PF01603" points="2917,28 2947,28 2958,39 2958,41 2947,52 2917,52" stroke-linejoin="round" width="41" height="24" fill="rgb(191,149,90)" stroke="rgb(152,119,72)" stroke-width="1" opacity="0.75" />
			</g>
		</g>
	</g>
</svg>
