<svg version="1.1" baseProfile="full" xmlns="http://www.w3.org/2000/svg" width="475.43333333333334" height="80">
	<g>
		<line x1="10" y1="40.0" x2="465.43333333333334" y2="40.0" style="stroke:rgb(70,70,70); stroke-width:3 "/>
		<g>
			<title>galF
UDP-glucose pyrophosphorylase</title>
			<polygon class="galF
UDP-glucose pyrophosphorylase" points="10,10 39,40 10,70" fill="rgb(255,255,255)" fill-opacity="1.0" stroke="rgb(0,0,0)" stroke-width="2"  />
			<g>
				<title>NTP_transferase (PF00483)
"Nucleotidyl transferase"</title>
				<polygon class="PF00483" points="10,28 23,28 35,40 23,52 10,52" stroke-linejoin="round" width="27" height="24" fill="rgb(211,145,90)" stroke="rgb(168,116,72)" stroke-width="1" opacity="0.75" />
			</g>
		</g>
		<g>
			<title>galE
UDP-glucose C4-epimerase</title>
			<polygon class="galE
UDP-glucose C4-epimerase" points="50,25 54,25 54,10 84,40 54,70 54,55 50,55" fill="rgb(255,255,255)" fill-opacity="1.0" stroke="rgb(0,0,0)" stroke-width="2"  />
			<g>
				<title>GDP_Man_Dehyd (PF16363)
"GDP-mannose 4,6 dehydratase"</title>
				<polygon class="PF16363" points="50,28 67,28 79,40 67,52 50,52" stroke-linejoin="round" width="32" height="24" fill="rgb(50,144,195)" stroke="rgb(40,115,156)" stroke-width="1" opacity="0.75" />
			</g>
		</g>
		<g>
			<title>wbiN
putative glycosyltransferase</title>
			<polygon class="wbiN
putative glycosyltransferase" points="84,25 87,25 87,10 117,40 87,70 87,55 84,55" fill="rgb(255,255,255)" fill-opacity="1.0" stroke="rgb(0,0,0)" stroke-width="2"  />
			<g>
				<title>Glyco_transf_4 (PF13439)
"Glycosyltransferase Family 4"</title>
				<rect class="PF13439" x="85" y="28" stroke-linejoin="round" width="15" height="24" fill="rgb(67,194,123)" stroke="rgb(53,155,98)" stroke-width="1" opacity="0.75" />
			</g>
			<g>
				<title>Glycos_transf_1 (PF00534)
"Glycosyl transferases group 1"</title>
				<polygon class="PF00534" points="100,28 101,28 113,40 101,52 100,52" stroke-linejoin="round" width="15" height="24" fill="rgb(66,178,218)" stroke="rgb(52,142,174)" stroke-width="1" opacity="0.75" />
			</g>
		</g>
		<g>
			<title>gmd
GDP-mannose 4,6-dehydratase</title>
			<polygon class="gmd
GDP-mannose 4,6-dehydratase" points="119,25 126,25 126,10 156,40 126,70 126,55 119,55" fill="rgb(255,255,255)" fill-opacity="1.0" stroke="rgb(0,0,0)" stroke-width="2"  />
			<g>
				<title>GDP_Man_Dehyd (PF16363)
"GDP-mannose 4,6 dehydratase"</title>
				<polygon class="PF16363" points="119,28 140,28 152,40 140,52 119,52" stroke-linejoin="round" width="34" height="24" fill="rgb(50,144,195)" stroke="rgb(40,115,156)" stroke-width="1" opacity="0.75" />
			</g>
		</g>
		<g>
			<title>fcl
GDP-fucose synthetase</title>
			<polygon class="fcl
GDP-fucose synthetase" points="156,10 184,40 156,70" fill="rgb(255,255,255)" fill-opacity="1.0" stroke="rgb(0,0,0)" stroke-width="2"  />
			<g>
				<title>Epimerase (PF01370)
"NAD dependent epimerase/dehydratase family"</title>
				<polygon class="PF01370" points="156,28 168,28 180,40 180,40 168,52 156,52" stroke-linejoin="round" width="24" height="24" fill="rgb(215,89,157)" stroke="rgb(172,71,125)" stroke-width="1" opacity="0.75" />
			</g>
		</g>
		<g>
			<title>gmm
GDP-mannose mannosyl hydrolase</title>
			<polygon class="gmm
GDP-mannose mannosyl hydrolase" points="189,10 205,40 189,70" fill="rgb(255,255,255)" fill-opacity="1.0" stroke="rgb(0,0,0)" stroke-width="2"  />
			<g>
				<title>NUDIX (PF00293)
"NUDIX domain"</title>
				<polygon class="PF00293" points="190,28 195,28 202,40 195,52 190,52" stroke-linejoin="round" width="13" height="24" fill="rgb(185,54,57)" stroke="rgb(148,43,45)" stroke-width="1" opacity="0.75" />
			</g>
		</g>
		<g>
			<title>manC
GDP-mannose pyrophosphorylase</title>
			<polygon class="manC
GDP-mannose pyrophosphorylase" points="205,25 223,25 223,10 253,40 223,70 223,55 205,55" fill="rgb(255,255,255)" fill-opacity="1.0" stroke="rgb(0,0,0)" stroke-width="2"  />
			<g>
				<title>NTP_transferase (PF00483)
"Nucleotidyl transferase"</title>
				<rect class="PF00483" x="205" y="28" stroke-linejoin="round" width="29" height="24" fill="rgb(211,145,90)" stroke="rgb(168,116,72)" stroke-width="1" opacity="0.75" />
			</g>
			<g>
				<title>MannoseP_isomer (PF01050)
"Mannose-6-phosphate isomerase"</title>
				<polygon class="PF01050" points="237,28 237,28 249,40 237,52 237,52" stroke-linejoin="round" width="15" height="24" fill="rgb(153,227,90)" stroke="rgb(122,181,72)" stroke-width="1" opacity="0.75" />
			</g>
		</g>
		<g>
			<title>manB
phosphomannomutase</title>
			<polygon class="manB
phosphomannomutase" points="254,25 269,25 269,10 299,40 269,70 269,55 254,55" fill="rgb(255,255,255)" fill-opacity="1.0" stroke="rgb(0,0,0)" stroke-width="2"  />
			<g>
				<title>PGM_PMM_I (PF02878)
"Phosphoglucomutase/phosphomannomutase, alpha/beta/alpha domain I"</title>
				<rect class="PF02878" x="254" y="28" stroke-linejoin="round" width="13" height="24" fill="rgb(107,71,202)" stroke="rgb(85,56,161)" stroke-width="1" opacity="0.75" />
			</g>
			<g>
				<title>PGM_PMM_II (PF02879)
"Phosphoglucomutase/phosphomannomutase, alpha/beta/alpha domain II"</title>
				<rect class="PF02879" x="269" y="28" stroke-linejoin="round" width="10" height="24" fill="rgb(150,212,95)" stroke="rgb(120,169,76)" stroke-width="1" opacity="0.75" />
			</g>
			<g>
				<title>PGM_PMM_III (PF02880)
"Phosphoglucomutase/phosphomannomutase, alpha/beta/alpha domain III"</title>
				<polygon class="PF02880" points="280,28 283,28 291,36 291,44 283,52 280,52" stroke-linejoin="round" width="11" height="24" fill="rgb(90,192,181)" stroke="rgb(72,153,144)" stroke-width="1" opacity="0.75" />
			</g>
			<g>
				<title>PGM_PMM_IV (PF00408)
"Phosphoglucomutase/phosphomannomutase, C-terminal domain"</title>
				<polygon class="PF00408" points="291,36 295,40 291,44" stroke-linejoin="round" width="7" height="24" fill="rgb(179,205,74)" stroke="rgb(143,164,59)" stroke-width="1" opacity="0.75" />
			</g>
		</g>
		<g>
			<title>wzx
O-antigen flippase</title>
			<polygon class="wzx
O-antigen flippase" points="300,25 312,25 312,10 342,40 312,70 312,55 300,55" fill="rgb(255,255,255)" fill-opacity="1.0" stroke="rgb(0,0,0)" stroke-width="2"  />
		</g>
		<g>
			<title>wbiO
putative O-acetyltransferase</title>
			<polygon class="wbiO
putative O-acetyltransferase" points="351,10 364,40 351,70" fill="rgb(255,255,255)" fill-opacity="1.0" stroke="rgb(0,0,0)" stroke-width="2"  />
			<g>
				<title>Hexapep (PF00132)
"Bacterial transferase hexapeptide (six repeats)"</title>
				<polygon class="PF00132" points="355,28 355,28 358,34 358,46 355,52 355,52" stroke-linejoin="round" width="3" height="24" fill="rgb(125,98,224)" stroke="rgb(100,78,179)" stroke-width="1" opacity="0.75" />
			</g>
		</g>
		<g>
			<title>wzy
O-antigen polymerase</title>
			<polygon class="wzy
O-antigen polymerase" points="364,25 372,25 372,10 402,40 372,70 372,55 364,55" fill="rgb(255,255,255)" fill-opacity="1.0" stroke="rgb(0,0,0)" stroke-width="2"  />
		</g>
		<g>
			<title>wbiP
putative glycosyltransferase</title>
			<polygon class="wbiP
putative glycosyltransferase" points="403,10 427,40 403,70" fill="rgb(255,255,255)" fill-opacity="1.0" stroke="rgb(0,0,0)" stroke-width="2"  />
			<g>
				<title>Glycos_transf_2 (PF00535)
"Glycosyl transferase family 2"</title>
				<polygon class="PF00535" points="403,28 414,28 419,35 419,45 414,52 403,52" stroke-linejoin="round" width="16" height="24" fill="rgb(197,62,212)" stroke="rgb(157,49,169)" stroke-width="1" opacity="0.75" />
			</g>
		</g>
		<g>
			<title>wbiQ
putative fucosyltransferase</title>
			<polygon class="wbiQ
putative fucosyltransferase" points="428,25 428,25 428,10 458,40 428,70 428,55 428,55" fill="rgb(255,255,255)" fill-opacity="1.0" stroke="rgb(0,0,0)" stroke-width="2"  />
			<g>
				<title>Glyco_transf_11 (PF01531)
"Glycosyl transferase family 11"</title>
				<polygon class="PF01531" points="428,28 441,28 453,40 441,52 428,52" stroke-linejoin="round" width="29" height="24" fill="rgb(66,77,182)" stroke="rgb(52,61,145)" stroke-width="1" opacity="0.75" />
			</g>
		</g>
	</g>
</svg>
