<svg version="1.1" baseProfile="full" xmlns="http://www.w3.org/2000/svg" width="871.8" height="80">
	<g>
		<line x1="10" y1="40.0" x2="861.8" y2="40.0" style="stroke:rgb(70,70,70); stroke-width:3 "/>
		<g>
			<title>epaA
EpaA</title>
			<polygon class="epaA
EpaA" points="14,25 14,25 14,10 44,40 14,70 14,55 14,55" fill="rgb(255,255,255)" fill-opacity="1.0" stroke="rgb(0,0,0)" stroke-width="2"  />
			<g>
				<title>PTase_Orf2 (PF11468)
"Aromatic prenyltransferase Orf2"</title>
				<polygon class="PF11468" points="14,28 28,28 40,40 28,52 14,52" stroke-linejoin="round" width="29" height="24" fill="rgb(75,65,211)" stroke="rgb(59,51,168)" stroke-width="1" opacity="0.75" />
			</g>
		</g>
		<g>
			<title>epaB
EpaB</title>
			<polygon class="epaB
EpaB" points="50,25 54,25 54,10 84,40 54,70 54,55 50,55" fill="rgb(255,255,255)" fill-opacity="1.0" stroke="rgb(0,0,0)" stroke-width="2"  />
			<g>
				<title>GHMP_kinases_N (PF00288)
"GHMP kinases N terminal domain"</title>
				<rect class="PF00288" x="61" y="28" stroke-linejoin="round" width="6" height="24" fill="rgb(76,147,218)" stroke="rgb(60,117,174)" stroke-width="1" opacity="0.75" />
			</g>
			<g>
				<title>GHMP_kinases_C (PF08544)
"GHMP kinases C terminal"</title>
				<polygon class="PF08544" points="74,34 80,40 74,46" stroke-linejoin="round" width="8" height="24" fill="rgb(191,105,222)" stroke="rgb(152,84,177)" stroke-width="1" opacity="0.75" />
			</g>
		</g>
		<g>
			<title>epaC
EpaC</title>
			<polygon class="epaC
EpaC" points="84,25 89,25 89,10 119,40 89,70 89,55 84,55" fill="rgb(255,255,255)" fill-opacity="1.0" stroke="rgb(0,0,0)" stroke-width="2"  />
			<g>
				<title>GHMP_kinases_N (PF00288)
"GHMP kinases N terminal domain"</title>
				<rect class="PF00288" x="95" y="28" stroke-linejoin="round" width="5" height="24" fill="rgb(76,147,218)" stroke="rgb(60,117,174)" stroke-width="1" opacity="0.75" />
			</g>
			<g>
				<title>MDD_C (PF18376)
"Mevalonate 5-diphosphate decarboxylase C-terminal domain"</title>
				<polygon class="PF18376" points="104,29 115,40 104,51" stroke-linejoin="round" width="13" height="24" fill="rgb(56,180,89)" stroke="rgb(44,144,71)" stroke-width="1" opacity="0.75" />
			</g>
		</g>
		<g>
			<title>epaD
EpaD</title>
			<polygon class="epaD
EpaD" points="119,25 130,25 130,10 160,40 130,70 130,55 119,55" fill="rgb(255,255,255)" fill-opacity="1.0" stroke="rgb(0,0,0)" stroke-width="2"  />
			<g>
				<title>GHMP_kinases_N (PF00288)
"GHMP kinases N terminal domain"</title>
				<rect class="PF00288" x="130" y="28" stroke-linejoin="round" width="7" height="24" fill="rgb(76,147,218)" stroke="rgb(60,117,174)" stroke-width="1" opacity="0.75" />
			</g>
			<g>
				<title>GHMP_kinases_C (PF08544)
"GHMP kinases C terminal"</title>
				<polygon class="PF08544" points="146,30 154,38 154,42 146,50" stroke-linejoin="round" width="8" height="24" fill="rgb(191,105,222)" stroke="rgb(152,84,177)" stroke-width="1" opacity="0.75" />
			</g>
		</g>
		<g>
			<title>epaE
EpaE</title>
			<polygon class="epaE
EpaE" points="161,25 167,25 167,10 197,40 167,70 167,55 161,55" fill="rgb(255,255,255)" fill-opacity="1.0" stroke="rgb(0,0,0)" stroke-width="2"  />
			<g>
				<title>FMN_dh (PF01070)
"FMN-dependent dehydrogenase"</title>
				<polygon class="PF01070" points="172,28 180,28 192,40 180,52 172,52" stroke-linejoin="round" width="21" height="24" fill="rgb(219,60,209)" stroke="rgb(175,47,167)" stroke-width="1" opacity="0.75" />
			</g>
		</g>
		<g>
			<title>epaF
EpaF</title>
			<polygon class="epaF
EpaF" points="197,25 202,25 202,10 232,40 202,70 202,55 197,55" fill="rgb(255,255,255)" fill-opacity="1.0" stroke="rgb(0,0,0)" stroke-width="2"  />
			<g>
				<title>HMG-CoA_red (PF00368)
"Hydroxymethylglutaryl-coenzyme A reductase"</title>
				<polygon class="PF00368" points="197,28 216,28 228,40 216,52 197,52" stroke-linejoin="round" width="33" height="24" fill="rgb(211,175,87)" stroke="rgb(168,140,69)" stroke-width="1" opacity="0.75" />
			</g>
		</g>
		<g>
			<title>epaG
EpaG</title>
			<polygon class="epaG
EpaG" points="232,25 241,25 241,10 271,40 241,70 241,55 232,55" fill="rgb(255,255,255)" fill-opacity="1.0" stroke="rgb(0,0,0)" stroke-width="2"  />
			<g>
				<title>HMG_CoA_synt_N (PF01154)
"Hydroxymethylglutaryl-coenzyme A synthase N terminal"</title>
				<rect class="PF01154" x="232" y="28" stroke-linejoin="round" width="16" height="24" fill="rgb(192,53,137)" stroke="rgb(153,42,109)" stroke-width="1" opacity="0.75" />
			</g>
			<g>
				<title>HMG_CoA_synt_C (PF08540)
"Hydroxymethylglutaryl-coenzyme A synthase C terminal"</title>
				<polygon class="PF08540" points="258,32 266,40 266,40 258,48" stroke-linejoin="round" width="8" height="24" fill="rgb(72,187,147)" stroke="rgb(57,149,117)" stroke-width="1" opacity="0.75" />
			</g>
		</g>
		<g>
			<title>epaH
EpaH</title>
			<polygon class="epaH
EpaH" points="277,40 282,10 282,70" fill="rgb(255,255,255)" fill-opacity="1.0" stroke="rgb(0,0,0)" stroke-width="2"  />
		</g>
		<g>
			<title>epaI
EpaI</title>
			<polygon class="epaI
EpaI" points="283,40 303,10 303,70" fill="rgb(255,255,255)" fill-opacity="1.0" stroke="rgb(0,0,0)" stroke-width="2"  />
		</g>
		<g>
			<title>epaJ
EpaJ</title>
			<polygon class="epaJ
EpaJ" points="306,40 322,10 322,70" fill="rgb(255,255,255)" fill-opacity="1.0" stroke="rgb(0,0,0)" stroke-width="2"  />
			<g>
				<title>PHZA_PHZB (PF03284)
"Phenazine biosynthesis protein A/B"</title>
				<polygon class="PF03284" points="309,40 315,28 321,28 321,52 315,52" stroke-linejoin="round" width="15" height="24" fill="rgb(97,186,70)" stroke="rgb(77,148,56)" stroke-width="1" opacity="0.75" />
			</g>
		</g>
		<g>
			<title>epaK
EpaK</title>
			<polygon class="epaK
EpaK" points="324,40 347,10 347,70" fill="rgb(255,255,255)" fill-opacity="1.0" stroke="rgb(0,0,0)" stroke-width="2"  />
			<g>
				<title>PNP_phzG_C (PF10590)
"Pyridoxine 5'-phosphate oxidase C-terminal dimerisation region"</title>
				<polygon class="PF10590" points="328,40 328,40 328,40" stroke-linejoin="round" width="4" height="24" fill="rgb(58,189,132)" stroke="rgb(46,151,105)" stroke-width="1" opacity="0.75" />
			</g>
			<g>
				<title>Putative_PNPOx (PF01243)
"Pyridoxamine 5'-phosphate oxidase"</title>
				<polygon class="PF01243" points="333,34 337,28 341,28 341,52 337,52 333,46" stroke-linejoin="round" width="8" height="24" fill="rgb(187,127,57)" stroke="rgb(149,101,45)" stroke-width="1" opacity="0.75" />
			</g>
		</g>
		<g>
			<title>epaL
EpaL</title>
			<polygon class="epaL
EpaL" points="347,40 374,10 374,70" fill="rgb(255,255,255)" fill-opacity="1.0" stroke="rgb(0,0,0)" stroke-width="2"  />
			<g>
				<title>PhzC-PhzF (PF02567)
"Phenazine biosynthesis-like protein"</title>
				<polygon class="PF02567" points="351,40 362,28 373,28 373,52 362,52" stroke-linejoin="round" width="26" height="24" fill="rgb(81,190,161)" stroke="rgb(64,152,128)" stroke-width="1" opacity="0.75" />
			</g>
		</g>
		<g>
			<title>epaM
EpaM</title>
			<polygon class="epaM
EpaM" points="447,25 410,25 410,10 380,40 410,70 410,55 447,55" fill="rgb(255,255,255)" fill-opacity="1.0" stroke="rgb(0,0,0)" stroke-width="2"  />
			<g>
				<title>GATase (PF00117)
"Glutamine amidotransferase class-I"</title>
				<polygon class="PF00117" points="384,40 396,28 399,28 399,52 396,52" stroke-linejoin="round" width="18" height="24" fill="rgb(54,118,198)" stroke="rgb(43,94,158)" stroke-width="1" opacity="0.75" />
			</g>
			<g>
				<title>Chorismate_bind (PF00425)
"chorismate binding enzyme"</title>
				<rect class="PF00425" x="405" y="28" stroke-linejoin="round" width="26" height="24" fill="rgb(126,181,77)" stroke="rgb(100,144,61)" stroke-width="1" opacity="0.75" />
			</g>
		</g>
		<g>
			<title>epaN
EpaN</title>
			<polygon class="epaN
EpaN" points="447,40 467,10 467,70" fill="rgb(255,255,255)" fill-opacity="1.0" stroke="rgb(0,0,0)" stroke-width="2"  />
			<g>
				<title>Isochorismatase (PF00857)
"Isochorismatase family"</title>
				<polygon class="PF00857" points="451,40 459,28 464,28 464,52 459,52" stroke-linejoin="round" width="17" height="24" fill="rgb(82,216,163)" stroke="rgb(65,172,130)" stroke-width="1" opacity="0.75" />
			</g>
		</g>
		<g>
			<title>epaO
EpaO</title>
			<polygon class="epaO
EpaO" points="510,25 501,25 501,10 471,40 501,70 501,55 510,55" fill="rgb(255,255,255)" fill-opacity="1.0" stroke="rgb(0,0,0)" stroke-width="2"  />
			<g>
				<title>DAHP_synth_2 (PF01474)
"Class-II DAHP synthetase family"</title>
				<polygon class="PF01474" points="475,40 487,28 493,28 493,52 487,52" stroke-linejoin="round" width="22" height="24" fill="rgb(57,77,225)" stroke="rgb(45,61,180)" stroke-width="1" opacity="0.75" />
			</g>
			<g>
				<title>DAHP_synth_2 (PF01474)
"Class-II DAHP synthetase family"</title>
				<rect class="PF01474" x="493" y="28" stroke-linejoin="round" width="16" height="24" fill="rgb(57,77,225)" stroke="rgb(45,61,180)" stroke-width="1" opacity="0.75" />
			</g>
		</g>
		<g>
			<title>epaP
EpaP</title>
			<polygon class="epaP
EpaP" points="512,40 528,10 528,70" fill="rgb(255,255,255)" fill-opacity="1.0" stroke="rgb(0,0,0)" stroke-width="2"  />
			<g>
				<title>PHZA_PHZB (PF03284)
"Phenazine biosynthesis protein A/B"</title>
				<polygon class="PF03284" points="515,40 522,28 528,28 528,52 522,52" stroke-linejoin="round" width="16" height="24" fill="rgb(97,186,70)" stroke="rgb(77,148,56)" stroke-width="1" opacity="0.75" />
			</g>
		</g>
		<g>
			<title>epaQ
EpaQ</title>
			<polygon class="epaQ
EpaQ" points="581,25 569,25 569,10 539,40 569,70 569,55 581,55" fill="rgb(255,255,255)" fill-opacity="1.0" stroke="rgb(0,0,0)" stroke-width="2"  />
			<g>
				<title>Reductase_C (PF14759)
"Reductase C-terminal"</title>
				<polygon class="PF14759" points="543,40 548,35 548,45" stroke-linejoin="round" width="8" height="24" fill="rgb(81,138,223)" stroke="rgb(64,110,178)" stroke-width="1" opacity="0.75" />
			</g>
			<g>
				<title>Pyr_redox_2 (PF07992)
"Pyridine nucleotide-disulphide oxidoreductase"</title>
				<polygon class="PF07992" points="550,33 555,28 579,28 579,52 555,52 550,47" stroke-linejoin="round" width="29" height="24" fill="rgb(187,87,99)" stroke="rgb(149,69,79)" stroke-width="1" opacity="0.75" />
			</g>
		</g>
		<g>
			<title>epaR
EpaR</title>
			<polygon class="epaR
EpaR" points="581,40 591,10 591,70" fill="rgb(255,255,255)" fill-opacity="1.0" stroke="rgb(0,0,0)" stroke-width="2"  />
			<g>
				<title>Fer2 (PF00111)
"2Fe-2S iron-sulfur cluster binding domain"</title>
				<polygon class="PF00111" points="584,40 588,28 590,28 590,52 588,52" stroke-linejoin="round" width="8" height="24" fill="rgb(149,66,181)" stroke="rgb(119,52,144)" stroke-width="1" opacity="0.75" />
			</g>
		</g>
		<g>
			<title>epaS
EpaS</title>
			<polygon class="epaS
EpaS" points="630,25 630,25 630,10 600,40 630,70 630,55 630,55" fill="rgb(255,255,255)" fill-opacity="1.0" stroke="rgb(0,0,0)" stroke-width="2"  />
			<g>
				<title>LysR_substrate (PF03466)
"LysR substrate binding domain"</title>
				<polygon class="PF03466" points="604,40 616,28 621,28 621,52 616,52" stroke-linejoin="round" width="20" height="24" fill="rgb(214,62,213)" stroke="rgb(171,49,170)" stroke-width="1" opacity="0.75" />
			</g>
			<g>
				<title>HTH_1 (PF00126)
"Bacterial regulatory helix-turn-helix protein, lysR family"</title>
				<rect class="PF00126" x="624" y="28" stroke-linejoin="round" width="5" height="24" fill="rgb(72,163,212)" stroke="rgb(57,130,169)" stroke-width="1" opacity="0.75" />
			</g>
		</g>
		<g>
			<title>epaT
EpaT</title>
			<polygon class="epaT
EpaT" points="639,25 652,25 652,10 682,40 652,70 652,55 639,55" fill="rgb(255,255,255)" fill-opacity="1.0" stroke="rgb(0,0,0)" stroke-width="2"  />
			<g>
				<title>Cyt_bd_oxida_I (PF01654)
"Cytochrome bd terminal oxidase subunit I"</title>
				<polygon class="PF01654" points="639,28 665,28 666,29 666,51 665,52 639,52" stroke-linejoin="round" width="27" height="24" fill="rgb(76,90,199)" stroke="rgb(60,72,159)" stroke-width="1" opacity="0.75" />
			</g>
		</g>
		<g>
			<title>epaU
EpaU</title>
			<polygon class="epaU
EpaU" points="685,25 691,25 691,10 721,40 691,70 691,55 685,55" fill="rgb(255,255,255)" fill-opacity="1.0" stroke="rgb(0,0,0)" stroke-width="2"  />
			<g>
				<title>Cyt_bd_oxida_II (PF02322)
"Cytochrome bd terminal oxidase subunit II"</title>
				<polygon class="PF02322" points="685,28 704,28 716,40 704,52 685,52" stroke-linejoin="round" width="34" height="24" fill="rgb(85,202,171)" stroke="rgb(68,161,136)" stroke-width="1" opacity="0.75" />
			</g>
		</g>
		<g>
			<title>
hypothetical protein</title>
			<polygon class="
hypothetical protein" points="723,25 752,25 752,10 782,40 752,70 752,55 723,55" fill="rgb(255,255,255)" fill-opacity="1.0" stroke="rgb(0,0,0)" stroke-width="2"  />
			<g>
				<title>ABC_membrane (PF00664)
"ABC transporter transmembrane region"</title>
				<rect class="PF00664" x="724" y="28" stroke-linejoin="round" width="26" height="24" fill="rgb(62,71,183)" stroke="rgb(49,56,146)" stroke-width="1" opacity="0.75" />
			</g>
			<g>
				<title>ABC_tran (PF00005)
"ABC transporter"</title>
				<polygon class="PF00005" points="761,28 766,28 775,37 775,43 766,52 761,52" stroke-linejoin="round" width="14" height="24" fill="rgb(46,186,108)" stroke="rgb(36,148,86)" stroke-width="1" opacity="0.75" />
			</g>
		</g>
		<g>
			<title>
hypothetical protein</title>
			<polygon class="
hypothetical protein" points="786,25 813,25 813,10 843,40 813,70 813,55 786,55" fill="rgb(255,255,255)" fill-opacity="1.0" stroke="rgb(0,0,0)" stroke-width="2"  />
			<g>
				<title>ABC_membrane (PF00664)
"ABC transporter transmembrane region"</title>
				<rect class="PF00664" x="789" y="28" stroke-linejoin="round" width="26" height="24" fill="rgb(62,71,183)" stroke="rgb(49,56,146)" stroke-width="1" opacity="0.75" />
			</g>
			<g>
				<title>ABC_tran (PF00005)
"ABC transporter"</title>
				<polygon class="PF00005" points="822,28 826,28 836,38 836,42 826,52 822,52" stroke-linejoin="round" width="14" height="24" fill="rgb(46,186,108)" stroke="rgb(36,148,86)" stroke-width="1" opacity="0.75" />
			</g>
		</g>
	</g>
</svg>
