<svg version="1.1" baseProfile="full" xmlns="http://www.w3.org/2000/svg" width="576.8666666666667" height="80">
	<g>
		<line x1="10" y1="40.0" x2="566.8666666666667" y2="40.0" style="stroke:rgb(70,70,70); stroke-width:3 "/>
		<g>
			<title>
putative transcriptional regulatory protein</title>
			<polygon class="
putative transcriptional regulatory protein" points="50,25 40,25 40,10 10,40 40,70 40,55 50,55" fill="rgb(255,255,255)" fill-opacity="1.0" stroke="rgb(0,0,0)" stroke-width="2"  />
			<g>
				<title>GAF (PF01590)
"GAF domain"</title>
				<polygon class="PF01590" points="26,28 26,28 40,28 40,52 26,52 26,52" stroke-linejoin="round" width="14" height="24" fill="rgb(91,61,214)" stroke="rgb(72,48,171)" stroke-width="1" opacity="0.75" />
			</g>
		</g>
		<g>
			<title>nspT
putative LuxR-family transcriptional regulator</title>
			<polygon class="nspT
putative LuxR-family transcriptional regulator" points="93,25 85,25 85,10 55,40 85,70 85,55 93,55" fill="rgb(255,255,255)" fill-opacity="1.0" stroke="rgb(0,0,0)" stroke-width="2"  />
			<g>
				<title>GerE (PF00196)
"Bacterial regulatory proteins, luxR family"</title>
				<polygon class="PF00196" points="59,40 61,38 61,42" stroke-linejoin="round" width="5" height="24" fill="rgb(225,67,110)" stroke="rgb(180,53,88)" stroke-width="1" opacity="0.75" />
			</g>
		</g>
		<g>
			<title>nspA
putative FAD-dependent oxygenase</title>
			<polygon class="nspA
putative FAD-dependent oxygenase" points="101,25 118,25 118,10 148,40 118,70 118,55 101,55" fill="rgb(255,255,255)" fill-opacity="1.0" stroke="rgb(0,0,0)" stroke-width="2"  />
			<g>
				<title>FAD_binding_4 (PF01565)
"FAD binding domain"</title>
				<rect class="PF01565" x="106" y="28" stroke-linejoin="round" width="13" height="24" fill="rgb(194,197,94)" stroke="rgb(155,157,75)" stroke-width="1" opacity="0.75" />
			</g>
			<g>
				<title>BBE (PF08031)
"Berberine and berberine like"</title>
				<polygon class="PF08031" points="142,38 144,40 142,42" stroke-linejoin="round" width="4" height="24" fill="rgb(56,179,213)" stroke="rgb(44,143,170)" stroke-width="1" opacity="0.75" />
			</g>
		</g>
		<g>
			<title>nspS
putative NADP oxidoreductase</title>
			<polygon class="nspS
putative NADP oxidoreductase" points="149,10 170,40 149,70" fill="rgb(255,255,255)" fill-opacity="1.0" stroke="rgb(0,0,0)" stroke-width="2"  />
			<g>
				<title>F420_oxidored (PF03807)
"NADP oxidoreductase coenzyme F420-dependent"</title>
				<rect class="PF03807" x="149" y="28" stroke-linejoin="round" width="9" height="24" fill="rgb(209,134,62)" stroke="rgb(167,107,49)" stroke-width="1" opacity="0.75" />
			</g>
		</g>
		<g>
			<title>
putative major facilitator family transporter</title>
			<polygon class="
putative major facilitator family transporter" points="171,25 181,25 181,10 211,40 181,70 181,55 171,55" fill="rgb(255,255,255)" fill-opacity="1.0" stroke="rgb(0,0,0)" stroke-width="2"  />
			<g>
				<title>MFS_1 (PF07690)
"Major Facilitator Superfamily"</title>
				<rect class="PF07690" x="171" y="28" stroke-linejoin="round" width="21" height="24" fill="rgb(228,207,98)" stroke="rgb(182,165,78)" stroke-width="1" opacity="0.75" />
			</g>
		</g>
		<g>
			<title>nspR
putative SARP-family transcriptional activator</title>
			<polygon class="nspR
putative SARP-family transcriptional activator" points="217,25 219,25 219,10 249,40 219,70 219,55 217,55" fill="rgb(255,255,255)" fill-opacity="1.0" stroke="rgb(0,0,0)" stroke-width="2"  />
			<g>
				<title>Trans_reg_C (PF00486)
"Transcriptional regulatory protein, C terminal"</title>
				<rect class="PF00486" x="219" y="28" stroke-linejoin="round" width="7" height="24" fill="rgb(69,185,116)" stroke="rgb(55,148,92)" stroke-width="1" opacity="0.75" />
			</g>
			<g>
				<title>BTAD (PF03704)
"Bacterial transcriptional activator domain"</title>
				<polygon class="PF03704" points="227,28 233,28 241,36 241,44 233,52 227,52" stroke-linejoin="round" width="14" height="24" fill="rgb(174,224,58)" stroke="rgb(139,179,46)" stroke-width="1" opacity="0.75" />
			</g>
		</g>
		<g>
			<title>nspJ
putative aspartokinase</title>
			<polygon class="nspJ
putative aspartokinase" points="257,25 269,25 269,10 299,40 269,70 269,55 257,55" fill="rgb(255,255,255)" fill-opacity="1.0" stroke="rgb(0,0,0)" stroke-width="2"  />
			<g>
				<title>AA_kinase (PF00696)
"Amino acid kinase family"</title>
				<rect class="PF00696" x="258" y="28" stroke-linejoin="round" width="22" height="24" fill="rgb(72,198,168)" stroke="rgb(57,158,134)" stroke-width="1" opacity="0.75" />
			</g>
		</g>
		<g>
			<title>nspI
DhnA-type aldolase</title>
			<polygon class="nspI
DhnA-type aldolase" points="300,10 328,40 300,70" fill="rgb(255,255,255)" fill-opacity="1.0" stroke="rgb(0,0,0)" stroke-width="2"  />
			<g>
				<title>DeoC (PF01791)
"DeoC/LacD family aldolase"</title>
				<polygon class="PF01791" points="302,28 312,28 323,39 323,41 312,52 302,52" stroke-linejoin="round" width="21" height="24" fill="rgb(154,53,201)" stroke="rgb(123,42,160)" stroke-width="1" opacity="0.75" />
			</g>
		</g>
		<g>
			<title>nspH
3,4-AHBA synthase</title>
			<polygon class="nspH
3,4-AHBA synthase" points="329,25 335,25 335,10 365,40 335,70 335,55 329,55" fill="rgb(255,255,255)" fill-opacity="1.0" stroke="rgb(0,0,0)" stroke-width="2"  />
			<g>
				<title>DHQS (PF01959)
"3-dehydroquinate synthase II"</title>
				<polygon class="PF01959" points="329,28 349,28 361,40 349,52 329,52" stroke-linejoin="round" width="36" height="24" fill="rgb(72,159,184)" stroke="rgb(57,127,147)" stroke-width="1" opacity="0.75" />
			</g>
		</g>
		<g>
			<title>nspE
copper chaperon</title>
			<polygon class="nspE
copper chaperon" points="371,10 383,40 371,70" fill="rgb(255,255,255)" fill-opacity="1.0" stroke="rgb(0,0,0)" stroke-width="2"  />
			<g>
				<title>MelC1 (PF06236)
"Tyrosinase co-factor MelC1"</title>
				<polygon class="PF06236" points="372,28 375,28 380,40 375,52 372,52" stroke-linejoin="round" width="10" height="24" fill="rgb(213,63,121)" stroke="rgb(170,50,96)" stroke-width="1" opacity="0.75" />
			</g>
		</g>
		<g>
			<title>nspF
o-aminophenol oxidase</title>
			<polygon class="nspF
o-aminophenol oxidase" points="385,25 385,25 385,10 415,40 385,70 385,55 385,55" fill="rgb(255,255,255)" fill-opacity="1.0" stroke="rgb(0,0,0)" stroke-width="2"  />
			<g>
				<title>Tyrosinase (PF00264)
"Common central domain of tyrosinase"</title>
				<polygon class="PF00264" points="387,28 399,28 410,39 410,41 399,52 387,52" stroke-linejoin="round" width="23" height="24" fill="rgb(95,226,202)" stroke="rgb(76,180,161)" stroke-width="1" opacity="0.75" />
			</g>
		</g>
		<g>
			<title>nspN
amidotransferase</title>
			<polygon class="nspN
amidotransferase" points="416,25 448,25 448,10 478,40 448,70 448,55 416,55" fill="rgb(255,255,255)" fill-opacity="1.0" stroke="rgb(0,0,0)" stroke-width="2"  />
			<g>
				<title>GATase_7 (PF13537)
"Glutamine amidotransferase domain"</title>
				<rect class="PF13537" x="420" y="28" stroke-linejoin="round" width="12" height="24" fill="rgb(102,71,204)" stroke="rgb(81,56,163)" stroke-width="1" opacity="0.75" />
			</g>
			<g>
				<title>Asn_synthase (PF00733)
"Asparagine synthase"</title>
				<polygon class="PF00733" points="440,28 461,28 473,40 461,52 440,52" stroke-linejoin="round" width="36" height="24" fill="rgb(200,91,135)" stroke="rgb(160,72,108)" stroke-width="1" opacity="0.75" />
			</g>
		</g>
		<g>
			<title>
putative carboxylesterase</title>
			<polygon class="
putative carboxylesterase" points="479,25 502,25 502,10 532,40 502,70 502,55 479,55" fill="rgb(255,255,255)" fill-opacity="1.0" stroke="rgb(0,0,0)" stroke-width="2"  />
			<g>
				<title>COesterase (PF00135)
"Carboxylesterase family"</title>
				<polygon class="PF00135" points="482,28 516,28 528,40 516,52 482,52" stroke-linejoin="round" width="49" height="24" fill="rgb(79,58,200)" stroke="rgb(63,46,160)" stroke-width="1" opacity="0.75" />
			</g>
		</g>
		<g>
			<title>
putative LacI-family transcriptional regulator</title>
			<polygon class="
putative LacI-family transcriptional regulator" points="566,25 563,25 563,10 533,40 563,70 563,55 566,55" fill="rgb(255,255,255)" fill-opacity="1.0" stroke="rgb(0,0,0)" stroke-width="2"  />
			<g>
				<title>Peripla_BP_3 (PF13377)
"Periplasmic binding protein-like domain"</title>
				<polygon class="PF13377" points="537,40 549,28 549,28 549,52 549,52" stroke-linejoin="round" width="15" height="24" fill="rgb(220,188,82)" stroke="rgb(176,150,65)" stroke-width="1" opacity="0.75" />
			</g>
			<g>
				<title>LacI (PF00356)
"Bacterial regulatory proteins, lacI family"</title>
				<rect class="PF00356" x="561" y="28" stroke-linejoin="round" width="4" height="24" fill="rgb(84,207,204)" stroke="rgb(67,165,163)" stroke-width="1" opacity="0.75" />
			</g>
		</g>
	</g>
</svg>
