<svg version="1.1" baseProfile="full" xmlns="http://www.w3.org/2000/svg" width="1306.2333333333333" height="80">
	<g>
		<line x1="10" y1="40.0" x2="1296.2333333333333" y2="40.0" style="stroke:rgb(70,70,70); stroke-width:3 "/>
		<g>
			<title>sio1
Sio1</title>
			<polygon class="sio1
Sio1" points="58,25 49,25 49,10 19,40 49,70 49,55 58,55" fill="rgb(255,255,255)" fill-opacity="1.0" stroke="rgb(0,0,0)" stroke-width="2"  />
		</g>
		<g>
			<title>sio2
Sio2</title>
			<polygon class="sio2
Sio2" points="74,25 83,25 83,10 113,40 83,70 83,55 74,55" fill="rgb(255,255,255)" fill-opacity="1.0" stroke="rgb(0,0,0)" stroke-width="2"  />
			<g>
				<title>Esterase (PF00756)
"Putative esterase"</title>
				<polygon class="PF00756" points="85,28 97,28 109,40 97,52 85,52" stroke-linejoin="round" width="26" height="24" fill="rgb(225,102,85)" stroke="rgb(180,81,67)" stroke-width="1" opacity="0.75" />
			</g>
		</g>
		<g>
			<title>sio3
Sio3</title>
			<polygon class="sio3
Sio3" points="115,25 166,25 166,10 196,40 166,70 166,55 115,55" fill="rgb(255,255,255)" fill-opacity="1.0" stroke="rgb(0,0,0)" stroke-width="2"  />
			<g>
				<title>NACHT (PF05729)
"NACHT domain"</title>
				<rect class="PF05729" x="134" y="28" stroke-linejoin="round" width="16" height="24" fill="rgb(203,131,71)" stroke="rgb(162,104,56)" stroke-width="1" opacity="0.75" />
			</g>
		</g>
		<g>
			<title>sio4
Sio4</title>
			<polygon class="sio4
Sio4" points="204,10 230,40 204,70" fill="rgb(255,255,255)" fill-opacity="1.0" stroke="rgb(0,0,0)" stroke-width="2"  />
			<g>
				<title>ABC_tran (PF00005)
"ABC transporter"</title>
				<polygon class="PF00005" points="208,28 216,28 222,36 222,44 216,52 208,52" stroke-linejoin="round" width="14" height="24" fill="rgb(46,186,108)" stroke="rgb(36,148,86)" stroke-width="1" opacity="0.75" />
			</g>
		</g>
		<g>
			<title>sio5
Sio5</title>
			<polygon class="sio5
Sio5" points="233,25 289,25 289,10 319,40 289,70 289,55 233,55" fill="rgb(255,255,255)" fill-opacity="1.0" stroke="rgb(0,0,0)" stroke-width="2"  />
			<g>
				<title>MacB_PCD (PF12704)
"MacB-like periplasmic core domain"</title>
				<rect class="PF12704" x="234" y="28" stroke-linejoin="round" width="23" height="24" fill="rgb(117,61,225)" stroke="rgb(93,48,180)" stroke-width="1" opacity="0.75" />
			</g>
			<g>
				<title>FtsX (PF02687)
"FtsX-like permease family"</title>
				<rect class="PF02687" x="261" y="28" stroke-linejoin="round" width="12" height="24" fill="rgb(136,199,60)" stroke="rgb(108,159,48)" stroke-width="1" opacity="0.75" />
			</g>
			<g>
				<title>MacB_PCD (PF12704)
"MacB-like periplasmic core domain"</title>
				<rect class="PF12704" x="283" y="28" stroke-linejoin="round" width="20" height="24" fill="rgb(117,61,225)" stroke="rgb(93,48,180)" stroke-width="1" opacity="0.75" />
			</g>
			<g>
				<title>FtsX (PF02687)
"FtsX-like permease family"</title>
				<polygon class="PF02687" points="307,32 315,40 307,48" stroke-linejoin="round" width="11" height="24" fill="rgb(136,199,60)" stroke="rgb(108,159,48)" stroke-width="1" opacity="0.75" />
			</g>
		</g>
		<g>
			<title>sio6
Sio6</title>
			<polygon class="sio6
Sio6" points="327,25 327,25 327,10 357,40 327,70 327,55 327,55" fill="rgb(255,255,255)" fill-opacity="1.0" stroke="rgb(0,0,0)" stroke-width="2"  />
			<g>
				<title>SQS_PSY (PF00494)
"Squalene/phytoene synthase"</title>
				<polygon class="PF00494" points="329,28 341,28 353,40 341,52 329,52" stroke-linejoin="round" width="25" height="24" fill="rgb(149,199,81)" stroke="rgb(119,159,64)" stroke-width="1" opacity="0.75" />
			</g>
		</g>
		<g>
			<title>sioA
SioA</title>
			<polygon class="sioA
SioA" points="394,25 389,25 389,10 359,40 389,70 389,55 394,55" fill="rgb(255,255,255)" fill-opacity="1.0" stroke="rgb(0,0,0)" stroke-width="2"  />
			<g>
				<title>Aminotran_1_2 (PF00155)
"Aminotransferase class I and II"</title>
				<polygon class="PF00155" points="363,40 375,28 392,28 392,52 375,52" stroke-linejoin="round" width="32" height="24" fill="rgb(207,146,55)" stroke="rgb(165,116,43)" stroke-width="1" opacity="0.75" />
			</g>
		</g>
		<g>
			<title>sioB
SioB</title>
			<polygon class="sioB
SioB" points="396,40 423,10 423,70" fill="rgb(255,255,255)" fill-opacity="1.0" stroke="rgb(0,0,0)" stroke-width="2"  />
			<g>
				<title>Hydrolase_4 (PF12146)
"Serine aminopeptidase, S33"</title>
				<polygon class="PF12146" points="400,40 411,28 420,28 420,52 411,52" stroke-linejoin="round" width="22" height="24" fill="rgb(190,94,85)" stroke="rgb(152,75,67)" stroke-width="1" opacity="0.75" />
			</g>
		</g>
		<g>
			<title>sioC
SioC</title>
			<polygon class="sioC
SioC" points="488,25 456,25 456,10 426,40 456,70 456,55 488,55" fill="rgb(255,255,255)" fill-opacity="1.0" stroke="rgb(0,0,0)" stroke-width="2"  />
			<g>
				<title>Asn_synthase (PF00733)
"Asparagine synthase"</title>
				<polygon class="PF00733" points="430,40 442,28 463,28 463,52 442,52" stroke-linejoin="round" width="37" height="24" fill="rgb(200,91,135)" stroke="rgb(160,72,108)" stroke-width="1" opacity="0.75" />
			</g>
			<g>
				<title>GATase_7 (PF13537)
"Glutamine amidotransferase domain"</title>
				<rect class="PF13537" x="471" y="28" stroke-linejoin="round" width="12" height="24" fill="rgb(102,71,204)" stroke="rgb(81,56,163)" stroke-width="1" opacity="0.75" />
			</g>
		</g>
		<g>
			<title>sioD
SioD</title>
			<polygon class="sioD
SioD" points="489,40 502,10 502,70" fill="rgb(255,255,255)" fill-opacity="1.0" stroke="rgb(0,0,0)" stroke-width="2"  />
			<g>
				<title>SnoaL (PF07366)
"SnoaL-like polyketide cyclase"</title>
				<polygon class="PF07366" points="492,40 497,28 501,28 501,52 497,52" stroke-linejoin="round" width="12" height="24" fill="rgb(102,157,212)" stroke="rgb(81,125,169)" stroke-width="1" opacity="0.75" />
			</g>
		</g>
		<g>
			<title>sioE
SioE</title>
			<polygon class="sioE
SioE" points="545,25 534,25 534,10 504,40 534,70 534,55 545,55" fill="rgb(255,255,255)" fill-opacity="1.0" stroke="rgb(0,0,0)" stroke-width="2"  />
			<g>
				<title>Acyl-CoA_dh_2 (PF08028)
"Acyl-CoA dehydrogenase, C-terminal domain"</title>
				<polygon class="PF08028" points="508,40 519,29 519,51" stroke-linejoin="round" width="12" height="24" fill="rgb(61,169,203)" stroke="rgb(48,135,162)" stroke-width="1" opacity="0.75" />
			</g>
			<g>
				<title>Acyl-CoA_dh_N (PF02771)
"Acyl-CoA dehydrogenase, N-terminal domain"</title>
				<rect class="PF02771" x="533" y="28" stroke-linejoin="round" width="11" height="24" fill="rgb(104,198,213)" stroke="rgb(83,158,170)" stroke-width="1" opacity="0.75" />
			</g>
		</g>
		<g>
			<title>sioF
SioF</title>
			<polygon class="sioF
SioF" points="546,40 575,10 575,70" fill="rgb(255,255,255)" fill-opacity="1.0" stroke="rgb(0,0,0)" stroke-width="2"  />
			<g>
				<title>LCM (PF04072)
"Leucine carboxyl methyltransferase"</title>
				<polygon class="PF04072" points="556,34 562,28 573,28 573,52 562,52 556,46" stroke-linejoin="round" width="17" height="24" fill="rgb(154,184,47)" stroke="rgb(123,147,37)" stroke-width="1" opacity="0.75" />
			</g>
		</g>
		<g>
			<title>sioG
SioG</title>
			<polygon class="sioG
SioG" points="576,40 594,10 594,70" fill="rgb(255,255,255)" fill-opacity="1.0" stroke="rgb(0,0,0)" stroke-width="2"  />
			<g>
				<title>DUF2867 (PF11066)
"Protein of unknown function (DUF2867)"</title>
				<polygon class="PF11066" points="580,40 587,28 591,28 591,52 587,52" stroke-linejoin="round" width="13" height="24" fill="rgb(125,208,83)" stroke="rgb(99,166,66)" stroke-width="1" opacity="0.75" />
			</g>
		</g>
		<g>
			<title>sioH
SioH</title>
			<polygon class="sioH
SioH" points="606,10 612,40 606,70" fill="rgb(255,255,255)" fill-opacity="1.0" stroke="rgb(0,0,0)" stroke-width="2"  />
		</g>
		<g>
			<title>sioI
SioI</title>
			<polygon class="sioI
SioI" points="635,10 661,40 635,70" fill="rgb(255,255,255)" fill-opacity="1.0" stroke="rgb(0,0,0)" stroke-width="2"  />
			<g>
				<title>Abhydrolase_6 (PF12697)
"Alpha/beta hydrolase family"</title>
				<polygon class="PF12697" points="635,28 647,28 655,38 655,42 647,52 635,52" stroke-linejoin="round" width="20" height="24" fill="rgb(87,73,196)" stroke="rgb(69,58,156)" stroke-width="1" opacity="0.75" />
			</g>
		</g>
		<g>
			<title>sioJ
SioJ</title>
			<polygon class="sioJ
SioJ" points="661,25 719,25 719,10 749,40 719,70 719,55 661,55" fill="rgb(255,255,255)" fill-opacity="1.0" stroke="rgb(0,0,0)" stroke-width="2"  />
			<g>
				<title>Lant_dehydr_N (PF04738)
"Lantibiotic dehydratase, N terminus"</title>
				<polygon class="PF04738" points="675,28 733,28 739,34 739,46 733,52 675,52" stroke-linejoin="round" width="64" height="24" fill="rgb(191,60,69)" stroke="rgb(152,48,55)" stroke-width="1" opacity="0.75" />
			</g>
		</g>
		<g>
			<title>sioK
SioK</title>
			<polygon class="sioK
SioK" points="749,25 752,25 752,10 782,40 752,70 752,55 749,55" fill="rgb(255,255,255)" fill-opacity="1.0" stroke="rgb(0,0,0)" stroke-width="2"  />
			<g>
				<title>Lant_dehydr_C (PF14028)
"Lantibiotic biosynthesis dehydratase C-term"</title>
				<polygon class="PF14028" points="749,28 766,28 778,40 766,52 749,52" stroke-linejoin="round" width="30" height="24" fill="rgb(195,82,58)" stroke="rgb(156,65,46)" stroke-width="1" opacity="0.75" />
			</g>
		</g>
		<g>
			<title>sioL
SioL</title>
			<polygon class="sioL
SioL" points="783,25 790,25 790,10 820,40 790,70 790,55 783,55" fill="rgb(255,255,255)" fill-opacity="1.0" stroke="rgb(0,0,0)" stroke-width="2"  />
			<g>
				<title>Lant_dehydr_C (PF14028)
"Lantibiotic biosynthesis dehydratase C-term"</title>
				<polygon class="PF14028" points="784,28 803,28 815,40 803,52 784,52" stroke-linejoin="round" width="33" height="24" fill="rgb(195,82,58)" stroke="rgb(156,65,46)" stroke-width="1" opacity="0.75" />
			</g>
		</g>
		<g>
			<title>sioM
SioM</title>
			<polygon class="sioM
SioM" points="820,25 845,25 845,10 875,40 845,70 845,55 820,55" fill="rgb(255,255,255)" fill-opacity="1.0" stroke="rgb(0,0,0)" stroke-width="2"  />
			<g>
				<title>Nitroreductase (PF00881)
"Nitroreductase family"</title>
				<rect class="PF00881" x="829" y="28" stroke-linejoin="round" width="17" height="24" fill="rgb(106,62,184)" stroke="rgb(84,49,147)" stroke-width="1" opacity="0.75" />
			</g>
		</g>
		<g>
			<title>sioN
SioN</title>
			<polygon class="sioN
SioN" points="875,25 902,25 902,10 932,40 902,70 902,55 875,55" fill="rgb(255,255,255)" fill-opacity="1.0" stroke="rgb(0,0,0)" stroke-width="2"  />
		</g>
		<g>
			<title>sioO
SioO</title>
			<polygon class="sioO
SioO" points="932,25 966,25 966,10 996,40 966,70 966,55 932,55" fill="rgb(255,255,255)" fill-opacity="1.0" stroke="rgb(0,0,0)" stroke-width="2"  />
			<g>
				<title>YcaO (PF02624)
"YcaO cyclodehydratase, ATP-ad Mg2+-binding"</title>
				<polygon class="PF02624" points="958,28 980,28 992,40 992,40 980,52 958,52" stroke-linejoin="round" width="34" height="24" fill="rgb(69,185,74)" stroke="rgb(55,148,59)" stroke-width="1" opacity="0.75" />
			</g>
		</g>
		<g>
			<title>sioP
SioP</title>
			<polygon class="sioP
SioP" points="996,25 1011,25 1011,10 1041,40 1011,70 1011,55 996,55" fill="rgb(255,255,255)" fill-opacity="1.0" stroke="rgb(0,0,0)" stroke-width="2"  />
		</g>
		<g>
			<title>sioQ
SioQ</title>
			<polygon class="sioQ
SioQ" points="1040,25 1053,25 1053,10 1083,40 1053,70 1053,55 1040,55" fill="rgb(255,255,255)" fill-opacity="1.0" stroke="rgb(0,0,0)" stroke-width="2"  />
			<g>
				<title>AMP-binding (PF00501)
"AMP-binding enzyme"</title>
				<polygon class="PF00501" points="1045,28 1067,28 1070,31 1070,49 1067,52 1045,52" stroke-linejoin="round" width="25" height="24" fill="rgb(189,78,204)" stroke="rgb(151,62,163)" stroke-width="1" opacity="0.75" />
			</g>
		</g>
		<g>
			<title>sioR
SioR</title>
			<polygon class="sioR
SioR" points="1083,25 1094,25 1094,10 1124,40 1094,70 1094,55 1083,55" fill="rgb(255,255,255)" fill-opacity="1.0" stroke="rgb(0,0,0)" stroke-width="2"  />
			<g>
				<title>p450 (PF00067)
"Cytochrome P450"</title>
				<polygon class="PF00067" points="1103,28 1107,28 1112,33 1112,47 1107,52 1103,52" stroke-linejoin="round" width="9" height="24" fill="rgb(195,210,54)" stroke="rgb(155,168,43)" stroke-width="1" opacity="0.75" />
			</g>
		</g>
		<g>
			<title>sioS
SioS</title>
			<polygon class="sioS
SioS" points="1123,25 1179,25 1179,10 1209,40 1179,70 1179,55 1123,55" fill="rgb(255,255,255)" fill-opacity="1.0" stroke="rgb(0,0,0)" stroke-width="2"  />
			<g>
				<title>Lant_dehydr_N (PF04738)
"Lantibiotic dehydratase, N terminus"</title>
				<polygon class="PF04738" points="1178,28 1193,28 1200,35 1200,45 1193,52 1178,52" stroke-linejoin="round" width="22" height="24" fill="rgb(191,60,69)" stroke="rgb(152,48,55)" stroke-width="1" opacity="0.75" />
			</g>
		</g>
		<g>
			<title>sioT
SioT</title>
			<polygon class="sioT
SioT" points="1210,25 1239,25 1239,10 1269,40 1239,70 1239,55 1210,55" fill="rgb(255,255,255)" fill-opacity="1.0" stroke="rgb(0,0,0)" stroke-width="2"  />
			<g>
				<title>B12-binding (PF02310)
"B12 binding domain"</title>
				<rect class="PF02310" x="1211" y="28" stroke-linejoin="round" width="12" height="24" fill="rgb(64,214,216)" stroke="rgb(51,171,172)" stroke-width="1" opacity="0.75" />
			</g>
			<g>
				<title>Radical_SAM (PF04055)
"Radical SAM superfamily"</title>
				<rect class="PF04055" x="1233" y="28" stroke-linejoin="round" width="17" height="24" fill="rgb(223,193,78)" stroke="rgb(178,154,62)" stroke-width="1" opacity="0.75" />
			</g>
		</g>
		<g>
			<title>sioU
SioU</title>
			<polygon class="sioU
SioU" points="1270,10 1295,40 1270,70" fill="rgb(255,255,255)" fill-opacity="1.0" stroke="rgb(0,0,0)" stroke-width="2"  />
			<g>
				<title>adh_short (PF00106)
"short chain dehydrogenase"</title>
				<polygon class="PF00106" points="1271,28 1281,28 1290,39 1290,41 1281,52 1271,52" stroke-linejoin="round" width="19" height="24" fill="rgb(128,81,196)" stroke="rgb(102,64,156)" stroke-width="1" opacity="0.75" />
			</g>
		</g>
	</g>
</svg>
