<svg version="1.1" baseProfile="full" xmlns="http://www.w3.org/2000/svg" width="1258.9333333333334" height="80">
	<g>
		<line x1="10" y1="40.0" x2="1248.9333333333334" y2="40.0" style="stroke:rgb(70,70,70); stroke-width:3 "/>
		<g>
			<title>AFT9-1
Aft9-1</title>
			<polygon class="AFT9-1
Aft9-1" points="725,25 453,25 453,10 423,40 453,70 453,55 725,55" fill="rgb(255,255,255)" fill-opacity="1.0" stroke="rgb(0,0,0)" stroke-width="2"  />
			<g>
				<title>Carn_acyltransf (PF00755)
"Choline/Carnitine o-acyltransferase"</title>
				<polygon class="PF00755" points="427,40 439,28 482,28 482,52 439,52" stroke-linejoin="round" width="56" height="24" fill="rgb(104,116,222)" stroke="rgb(83,92,177)" stroke-width="1" opacity="0.75" />
			</g>
			<g>
				<title>KR (PF08659)
"KR domain"</title>
				<rect class="PF08659" x="506" y="28" stroke-linejoin="round" width="18" height="24" fill="rgb(203,145,81)" stroke="rgb(162,116,64)" stroke-width="1" opacity="0.75" />
			</g>
			<g>
				<title>Methyltransf_12 (PF08242)
"Methyltransferase domain"</title>
				<rect class="PF08242" x="586" y="28" stroke-linejoin="round" width="10" height="24" fill="rgb(78,210,205)" stroke="rgb(62,168,164)" stroke-width="1" opacity="0.75" />
			</g>
			<g>
				<title>PS-DH (PF14765)
"Polyketide synthase dehydratase N-terminal domain"</title>
				<rect class="PF14765" x="613" y="28" stroke-linejoin="round" width="16" height="24" fill="rgb(189,61,178)" stroke="rgb(151,48,142)" stroke-width="1" opacity="0.75" />
			</g>
			<g>
				<title>PKS_DH_N (PF21089)
"Polyketide synthase dehydratase domain"</title>
				<rect class="PF21089" x="635" y="28" stroke-linejoin="round" width="7" height="24" fill="rgb(67,151,200)" stroke="rgb(53,120,160)" stroke-width="1" opacity="0.75" />
			</g>
			<g>
				<title>Acyl_transf_1 (PF00698)
"Acyl transferase domain"</title>
				<rect class="PF00698" x="648" y="28" stroke-linejoin="round" width="33" height="24" fill="rgb(132,93,193)" stroke="rgb(105,74,154)" stroke-width="1" opacity="0.75" />
			</g>
			<g>
				<title>KAsynt_C_assoc (PF16197)
"Ketoacyl-synthetase C-terminal extension"</title>
				<rect class="PF16197" x="685" y="28" stroke-linejoin="round" width="11" height="24" fill="rgb(200,86,70)" stroke="rgb(160,68,56)" stroke-width="1" opacity="0.75" />
			</g>
			<g>
				<title>Ketoacyl-synt_C (PF02801)
"Beta-ketoacyl synthase, C-terminal domain"</title>
				<rect class="PF02801" x="696" y="28" stroke-linejoin="round" width="11" height="24" fill="rgb(212,79,72)" stroke="rgb(169,63,57)" stroke-width="1" opacity="0.75" />
			</g>
			<g>
				<title>ketoacyl-synt (PF00109)
"Beta-ketoacyl synthase, N-terminal domain"</title>
				<rect class="PF00109" x="708" y="28" stroke-linejoin="round" width="16" height="24" fill="rgb(74,179,82)" stroke="rgb(59,143,65)" stroke-width="1" opacity="0.75" />
			</g>
		</g>
		<g>
			<title>AFT10-1
Aft10-1</title>
			<polygon class="AFT10-1
Aft10-1" points="760,25 791,25 791,10 821,40 791,70 791,55 760,55" fill="rgb(255,255,255)" fill-opacity="1.0" stroke="rgb(0,0,0)" stroke-width="2"  />
			<g>
				<title>Acyl-CoA_dh_N (PF02771)
"Acyl-CoA dehydrogenase, N-terminal domain"</title>
				<rect class="PF02771" x="762" y="28" stroke-linejoin="round" width="5" height="24" fill="rgb(104,198,213)" stroke="rgb(83,158,170)" stroke-width="1" opacity="0.75" />
			</g>
			<g>
				<title>Acyl-CoA_dh_N (PF02771)
"Acyl-CoA dehydrogenase, N-terminal domain"</title>
				<rect class="PF02771" x="768" y="28" stroke-linejoin="round" width="7" height="24" fill="rgb(104,198,213)" stroke="rgb(83,158,170)" stroke-width="1" opacity="0.75" />
			</g>
			<g>
				<title>Acyl-CoA_dh_M (PF02770)
"Acyl-CoA dehydrogenase, middle domain"</title>
				<rect class="PF02770" x="775" y="28" stroke-linejoin="round" width="9" height="24" fill="rgb(58,129,192)" stroke="rgb(46,103,153)" stroke-width="1" opacity="0.75" />
			</g>
			<g>
				<title>Acyl-CoA_dh_1 (PF00441)
"Acyl-CoA dehydrogenase, C-terminal domain"</title>
				<rect class="PF00441" x="786" y="28" stroke-linejoin="round" width="15" height="24" fill="rgb(96,175,206)" stroke="rgb(76,139,164)" stroke-width="1" opacity="0.75" />
			</g>
		</g>
		<g>
			<title>AFT11-1
Aft11-1</title>
			<polygon class="AFT11-1
Aft11-1" points="894,25 866,25 866,10 836,40 866,70 866,55 894,55" fill="rgb(255,255,255)" fill-opacity="1.0" stroke="rgb(0,0,0)" stroke-width="2"  />
			<g>
				<title>p450 (PF00067)
"Cytochrome P450"</title>
				<polygon class="PF00067" points="846,34 852,28 891,28 891,52 852,52 846,46" stroke-linejoin="round" width="45" height="24" fill="rgb(195,210,54)" stroke="rgb(155,168,43)" stroke-width="1" opacity="0.75" />
			</g>
		</g>
		<g>
			<title>AFT12-1
Aft12-1</title>
			<polygon class="AFT12-1
Aft12-1" points="915,10 944,40 915,70" fill="rgb(255,255,255)" fill-opacity="1.0" stroke="rgb(0,0,0)" stroke-width="2"  />
			<g>
				<title>ApbA (PF02558)
"Ketopantoate reductase PanE/ApbA"</title>
				<polygon class="PF02558" points="916,28 928,28 931,31 931,49 928,52 916,52" stroke-linejoin="round" width="15" height="24" fill="rgb(66,179,95)" stroke="rgb(52,143,75)" stroke-width="1" opacity="0.75" />
			</g>
			<g>
				<title>ApbA_C (PF08546)
"Ketopantoate reductase PanE/ApbA C terminal"</title>
				<polygon class="PF08546" points="934,34 940,40 934,46" stroke-linejoin="round" width="10" height="24" fill="rgb(101,213,147)" stroke="rgb(80,170,117)" stroke-width="1" opacity="0.75" />
			</g>
		</g>
		<g>
			<title>AFTR-2
AftR-2</title>
			<polygon class="AFTR-2
AftR-2" points="1079,25 1093,25 1093,10 1123,40 1093,70 1093,55 1079,55" fill="rgb(255,255,255)" fill-opacity="1.0" stroke="rgb(0,0,0)" stroke-width="2"  />
			<g>
				<title>Zn_clus (PF00172)
"Fungal Zn(2)-Cys(6) binuclear cluster domain"</title>
				<rect class="PF00172" x="1080" y="28" stroke-linejoin="round" width="3" height="24" fill="rgb(58,207,82)" stroke="rgb(46,165,65)" stroke-width="1" opacity="0.75" />
			</g>
		</g>
		<g>
			<title>AFT3-2
Aft3-2</title>
			<polygon class="AFT3-2
Aft3-2" points="1200,25 1205,25 1205,10 1235,40 1205,70 1205,55 1200,55" fill="rgb(255,255,255)" fill-opacity="1.0" stroke="rgb(0,0,0)" stroke-width="2"  />
			<g>
				<title>ECH_1 (PF00378)
"Enoyl-CoA hydratase/isomerase"</title>
				<polygon class="PF00378" points="1202,28 1219,28 1227,36 1227,44 1219,52 1202,52" stroke-linejoin="round" width="25" height="24" fill="rgb(201,73,190)" stroke="rgb(160,58,152)" stroke-width="1" opacity="0.75" />
			</g>
		</g>
	</g>
</svg>
