<svg version="1.1" baseProfile="full" xmlns="http://www.w3.org/2000/svg" width="793.9333333333333" height="80">
	<g>
		<line x1="10" y1="40.0" x2="783.9333333333333" y2="40.0" style="stroke:rgb(70,70,70); stroke-width:3 "/>
		<g>
			<title>novE
NovE</title>
			<polygon class="novE
NovE" points="10,10 31,40 10,70" fill="rgb(255,255,255)" fill-opacity="1.0" stroke="rgb(0,0,0)" stroke-width="2"  />
		</g>
		<g>
			<title>novF
NovF</title>
			<polygon class="novF
NovF" points="34,25 40,25 40,10 70,40 40,70 40,55 34,55" fill="rgb(255,255,255)" fill-opacity="1.0" stroke="rgb(0,0,0)" stroke-width="2"  />
			<g>
				<title>PDH_N (PF02153)
"Prephenate dehydrogenase, nucleotide-binding domain"</title>
				<rect class="PF02153" x="35" y="28" stroke-linejoin="round" width="14" height="24" fill="rgb(204,207,87)" stroke="rgb(163,165,69)" stroke-width="1" opacity="0.75" />
			</g>
		</g>
		<g>
			<title>novG
NovG</title>
			<polygon class="novG
NovG" points="74,25 75,25 75,10 105,40 75,70 75,55 74,55" fill="rgb(255,255,255)" fill-opacity="1.0" stroke="rgb(0,0,0)" stroke-width="2"  />
		</g>
		<g>
			<title>novH
NovH</title>
			<polygon class="novH
NovH" points="112,25 142,25 142,10 172,40 142,70 142,55 112,55" fill="rgb(255,255,255)" fill-opacity="1.0" stroke="rgb(0,0,0)" stroke-width="2"  />
			<g>
				<title>AMP-binding (PF00501)
"AMP-binding enzyme"</title>
				<rect class="PF00501" x="114" y="28" stroke-linejoin="round" width="34" height="24" fill="rgb(189,78,204)" stroke="rgb(151,62,163)" stroke-width="1" opacity="0.75" />
			</g>
			<g>
				<title>AMP-binding_C (PF13193)
"AMP-binding enzyme C-terminal domain"</title>
				<polygon class="PF13193" points="155,28 155,28 162,35 162,45 155,52 155,52" stroke-linejoin="round" width="7" height="24" fill="rgb(195,82,106)" stroke="rgb(156,65,84)" stroke-width="1" opacity="0.75" />
			</g>
			<g>
				<title>PP-binding (PF00550)
"Phosphopantetheine attachment site"</title>
				<polygon class="PF00550" points="165,38 167,40 165,42" stroke-linejoin="round" width="6" height="24" fill="rgb(181,58,166)" stroke="rgb(144,46,132)" stroke-width="1" opacity="0.75" />
			</g>
		</g>
		<g>
			<title>novI
NovI</title>
			<polygon class="novI
NovI" points="172,25 182,25 182,10 212,40 182,70 182,55 172,55" fill="rgb(255,255,255)" fill-opacity="1.0" stroke="rgb(0,0,0)" stroke-width="2"  />
			<g>
				<title>p450 (PF00067)
"Cytochrome P450"</title>
				<polygon class="PF00067" points="200,32 208,40 200,48" stroke-linejoin="round" width="9" height="24" fill="rgb(195,210,54)" stroke="rgb(155,168,43)" stroke-width="1" opacity="0.75" />
			</g>
		</g>
		<g>
			<title>novJ
NovJ</title>
			<polygon class="novJ
NovJ" points="214,10 240,40 214,70" fill="rgb(255,255,255)" fill-opacity="1.0" stroke="rgb(0,0,0)" stroke-width="2"  />
			<g>
				<title>adh_short_C2 (PF13561)
"Enoyl-(Acyl carrier protein) reductase"</title>
				<polygon class="PF13561" points="216,28 226,28 236,40 226,52 216,52" stroke-linejoin="round" width="23" height="24" fill="rgb(79,221,209)" stroke="rgb(63,176,167)" stroke-width="1" opacity="0.75" />
			</g>
		</g>
		<g>
			<title>novK
NovK</title>
			<polygon class="novK
NovK" points="240,10 264,40 240,70" fill="rgb(255,255,255)" fill-opacity="1.0" stroke="rgb(0,0,0)" stroke-width="2"  />
			<g>
				<title>adh_short (PF00106)
"short chain dehydrogenase"</title>
				<polygon class="PF00106" points="240,28 251,28 259,39 259,41 251,52 240,52" stroke-linejoin="round" width="19" height="24" fill="rgb(128,81,196)" stroke="rgb(102,64,156)" stroke-width="1" opacity="0.75" />
			</g>
		</g>
		<g>
			<title>novL
NovL</title>
			<polygon class="novL
NovL" points="265,25 287,25 287,10 317,40 287,70 287,55 265,55" fill="rgb(255,255,255)" fill-opacity="1.0" stroke="rgb(0,0,0)" stroke-width="2"  />
			<g>
				<title>AMP-binding (PF00501)
"AMP-binding enzyme"</title>
				<polygon class="PF00501" points="266,28 301,28 302,29 302,51 301,52 266,52" stroke-linejoin="round" width="36" height="24" fill="rgb(189,78,204)" stroke="rgb(151,62,163)" stroke-width="1" opacity="0.75" />
			</g>
			<g>
				<title>AMP-binding_C (PF13193)
"AMP-binding enzyme C-terminal domain"</title>
				<polygon class="PF13193" points="307,34 313,40 307,46" stroke-linejoin="round" width="7" height="24" fill="rgb(195,82,106)" stroke="rgb(156,65,84)" stroke-width="1" opacity="0.75" />
			</g>
		</g>
		<g>
			<title>novM
NovM</title>
			<polygon class="novM
NovM" points="318,25 326,25 326,10 356,40 326,70 326,55 318,55" fill="rgb(255,255,255)" fill-opacity="1.0" stroke="rgb(0,0,0)" stroke-width="2"  />
			<g>
				<title>EryCIII-like_N (PF21036)
"Erythromycin biosynthesis protein CIII-like, N-terminal domain"</title>
				<rect class="PF21036" x="320" y="28" stroke-linejoin="round" width="19" height="24" fill="rgb(205,88,112)" stroke="rgb(164,70,89)" stroke-width="1" opacity="0.75" />
			</g>
			<g>
				<title>EryCIII-like_C (PF06722)
"Erythromycin biosynthesis protein CIII-like, C-terminal domain"</title>
				<polygon class="PF06722" points="340,29 351,40 340,51" stroke-linejoin="round" width="14" height="24" fill="rgb(48,103,191)" stroke="rgb(38,82,152)" stroke-width="1" opacity="0.75" />
			</g>
		</g>
		<g>
			<title>novN
NovN</title>
			<polygon class="novN
NovN" points="357,25 394,25 394,10 424,40 394,70 394,55 357,55" fill="rgb(255,255,255)" fill-opacity="1.0" stroke="rgb(0,0,0)" stroke-width="2"  />
			<g>
				<title>Carbam_trans_N (PF02543)
"Carbamoyltransferase N-terminus"</title>
				<rect class="PF02543" x="359" y="28" stroke-linejoin="round" width="32" height="24" fill="rgb(97,95,191)" stroke="rgb(77,76,152)" stroke-width="1" opacity="0.75" />
			</g>
			<g>
				<title>Carbam_trans_C (PF16861)
"Carbamoyltransferase C-terminus"</title>
				<polygon class="PF16861" points="396,28 408,28 413,33 413,47 408,52 396,52" stroke-linejoin="round" width="17" height="24" fill="rgb(158,73,206)" stroke="rgb(126,58,164)" stroke-width="1" opacity="0.75" />
			</g>
		</g>
		<g>
			<title>novO
NovO</title>
			<polygon class="novO
NovO" points="432,10 455,40 432,70" fill="rgb(255,255,255)" fill-opacity="1.0" stroke="rgb(0,0,0)" stroke-width="2"  />
			<g>
				<title>Methyltransf_25 (PF13649)
"Methyltransferase domain"</title>
				<polygon class="PF13649" points="436,28 442,28 445,32 445,48 442,52 436,52" stroke-linejoin="round" width="9" height="24" fill="rgb(224,103,106)" stroke="rgb(179,82,84)" stroke-width="1" opacity="0.75" />
			</g>
		</g>
		<g>
			<title>novP
NovP</title>
			<polygon class="novP
NovP" points="457,10 483,40 457,70" fill="rgb(255,255,255)" fill-opacity="1.0" stroke="rgb(0,0,0)" stroke-width="2"  />
			<g>
				<title>TylF (PF05711)
"Macrocin-O-methyltransferase (TylF)"</title>
				<polygon class="PF05711" points="458,28 469,28 479,40 469,52 458,52" stroke-linejoin="round" width="24" height="24" fill="rgb(217,188,104)" stroke="rgb(173,150,83)" stroke-width="1" opacity="0.75" />
			</g>
		</g>
		<g>
			<title>novQ
NovQ</title>
			<polygon class="novQ
NovQ" points="484,25 486,25 486,10 516,40 486,70 486,55 484,55" fill="rgb(255,255,255)" fill-opacity="1.0" stroke="rgb(0,0,0)" stroke-width="2"  />
			<g>
				<title>PTase_Orf2 (PF11468)
"Aromatic prenyltransferase Orf2"</title>
				<polygon class="PF11468" points="485,28 500,28 512,40 500,52 485,52" stroke-linejoin="round" width="28" height="24" fill="rgb(75,65,211)" stroke="rgb(59,51,168)" stroke-width="1" opacity="0.75" />
			</g>
		</g>
		<g>
			<title>novR
NovR</title>
			<polygon class="novR
NovR" points="516,10 543,40 516,70" fill="rgb(255,255,255)" fill-opacity="1.0" stroke="rgb(0,0,0)" stroke-width="2"  />
			<g>
				<title>Aldolase_II (PF00596)
"Class II Aldolase and Adducin N-terminal domain"</title>
				<polygon class="PF00596" points="519,28 527,28 537,38 537,42 527,52 519,52" stroke-linejoin="round" width="18" height="24" fill="rgb(151,55,189)" stroke="rgb(120,44,151)" stroke-width="1" opacity="0.75" />
			</g>
		</g>
		<g>
			<title>novS
NovS</title>
			<polygon class="novS
NovS" points="543,10 571,40 543,70" fill="rgb(255,255,255)" fill-opacity="1.0" stroke="rgb(0,0,0)" stroke-width="2"  />
			<g>
				<title>RmlD_sub_bind (PF04321)
"RmlD substrate binding domain"</title>
				<polygon class="PF04321" points="543,28 555,28 567,40 555,52 543,52" stroke-linejoin="round" width="28" height="24" fill="rgb(71,77,207)" stroke="rgb(56,61,165)" stroke-width="1" opacity="0.75" />
			</g>
		</g>
		<g>
			<title>novT
NovT</title>
			<polygon class="novT
NovT" points="573,25 576,25 576,10 606,40 576,70 576,55 573,55" fill="rgb(255,255,255)" fill-opacity="1.0" stroke="rgb(0,0,0)" stroke-width="2"  />
			<g>
				<title>GDP_Man_Dehyd (PF16363)
"GDP-mannose 4,6 dehydratase"</title>
				<polygon class="PF16363" points="573,28 590,28 602,40 590,52 573,52" stroke-linejoin="round" width="30" height="24" fill="rgb(50,144,195)" stroke="rgb(40,115,156)" stroke-width="1" opacity="0.75" />
			</g>
		</g>
		<g>
			<title>novU
NovU</title>
			<polygon class="novU
NovU" points="609,25 621,25 621,10 651,40 621,70 621,55 609,55" fill="rgb(255,255,255)" fill-opacity="1.0" stroke="rgb(0,0,0)" stroke-width="2"  />
			<g>
				<title>Methyltransf_13 (PF08421)
"Putative zinc binding domain"</title>
				<rect class="PF08421" x="610" y="28" stroke-linejoin="round" width="6" height="24" fill="rgb(65,65,206)" stroke="rgb(52,52,164)" stroke-width="1" opacity="0.75" />
			</g>
			<g>
				<title>Methyltransf_23 (PF13489)
"Methyltransferase domain"</title>
				<rect class="PF13489" x="617" y="28" stroke-linejoin="round" width="16" height="24" fill="rgb(62,214,70)" stroke="rgb(49,171,56)" stroke-width="1" opacity="0.75" />
			</g>
			<g>
				<title>Methyltransf_14 (PF08484)
"C-methyltransferase C-terminal domain"</title>
				<polygon class="PF08484" points="634,28 634,28 646,40 634,52 634,52" stroke-linejoin="round" width="15" height="24" fill="rgb(131,189,66)" stroke="rgb(104,151,52)" stroke-width="1" opacity="0.75" />
			</g>
		</g>
		<g>
			<title>novV
NovV</title>
			<polygon class="novV
NovV" points="653,10 682,40 653,70" fill="rgb(255,255,255)" fill-opacity="1.0" stroke="rgb(0,0,0)" stroke-width="2"  />
			<g>
				<title>NTP_transferase (PF00483)
"Nucleotidyl transferase"</title>
				<polygon class="PF00483" points="653,28 666,28 676,38 676,42 666,52 653,52" stroke-linejoin="round" width="23" height="24" fill="rgb(211,145,90)" stroke="rgb(168,116,72)" stroke-width="1" opacity="0.75" />
			</g>
		</g>
		<g>
			<title>novW
NovW</title>
			<polygon class="novW
NovW" points="682,10 702,40 682,70" fill="rgb(255,255,255)" fill-opacity="1.0" stroke="rgb(0,0,0)" stroke-width="2"  />
			<g>
				<title>dTDP_sugar_isom (PF00908)
"dTDP-4-dehydrorhamnose 3,5-epimerase"</title>
				<polygon class="PF00908" points="682,28 690,28 699,40 699,40 690,52 682,52" stroke-linejoin="round" width="17" height="24" fill="rgb(135,62,227)" stroke="rgb(108,49,181)" stroke-width="1" opacity="0.75" />
			</g>
		</g>
		<g>
			<title>gyrB_R
GyrB_R</title>
			<polygon class="gyrB_R
GyrB_R" points="716,25 753,25 753,10 783,40 753,70 753,55 716,55" fill="rgb(255,255,255)" fill-opacity="1.0" stroke="rgb(0,0,0)" stroke-width="2"  />
			<g>
				<title>HATPase_c (PF02518)
"Histidine kinase-, DNA gyrase B-, and HSP90-like ATPase"</title>
				<rect class="PF02518" x="721" y="28" stroke-linejoin="round" width="14" height="24" fill="rgb(94,146,210)" stroke="rgb(75,116,168)" stroke-width="1" opacity="0.75" />
			</g>
			<g>
				<title>DNA_gyraseB (PF00204)
"DNA gyrase B"</title>
				<rect class="PF00204" x="741" y="28" stroke-linejoin="round" width="17" height="24" fill="rgb(63,225,222)" stroke="rgb(50,180,177)" stroke-width="1" opacity="0.75" />
			</g>
			<g>
				<title>Toprim (PF01751)
"Toprim domain"</title>
				<polygon class="PF01751" points="761,28 767,28 772,33 772,47 767,52 761,52" stroke-linejoin="round" width="11" height="24" fill="rgb(87,223,138)" stroke="rgb(69,178,110)" stroke-width="1" opacity="0.75" />
			</g>
			<g>
				<title>DNA_gyraseB_C (PF00986)
"DNA gyrase B subunit, carboxyl terminus"</title>
				<polygon class="PF00986" points="776,37 779,40 776,43" stroke-linejoin="round" width="6" height="24" fill="rgb(195,126,50)" stroke="rgb(156,100,40)" stroke-width="1" opacity="0.75" />
			</g>
		</g>
	</g>
</svg>
