<svg version="1.1" baseProfile="full" xmlns="http://www.w3.org/2000/svg" width="1244.7333333333333" height="80">
	<g>
		<line x1="10" y1="40.0" x2="1234.7333333333333" y2="40.0" style="stroke:rgb(70,70,70); stroke-width:3 "/>
		<g>
			<title>msnO1
ketoreductase</title>
			<polygon class="msnO1
ketoreductase" points="344,40 368,10 368,70" fill="rgb(255,255,255)" fill-opacity="1.0" stroke="rgb(0,0,0)" stroke-width="2"  />
			<g>
				<title>adh_short_C2 (PF13561)
"Enoyl-(Acyl carrier protein) reductase"</title>
				<polygon class="PF13561" points="348,40 358,28 367,28 367,52 358,52" stroke-linejoin="round" width="23" height="24" fill="rgb(79,221,209)" stroke="rgb(63,176,167)" stroke-width="1" opacity="0.75" />
			</g>
		</g>
		<g>
			<title>msnO2
luciferase-like monooxygenase</title>
			<polygon class="msnO2
luciferase-like monooxygenase" points="410,25 405,25 405,10 375,40 405,70 405,55 410,55" fill="rgb(255,255,255)" fill-opacity="1.0" stroke="rgb(0,0,0)" stroke-width="2"  />
			<g>
				<title>Bac_luciferase (PF00296)
"Luciferase-like monooxygenase"</title>
				<polygon class="PF00296" points="379,40 391,28 409,28 409,52 391,52" stroke-linejoin="round" width="31" height="24" fill="rgb(50,200,104)" stroke="rgb(40,160,83)" stroke-width="1" opacity="0.75" />
			</g>
		</g>
		<g>
			<title>msnO3
flavin reductase</title>
			<polygon class="msnO3
flavin reductase" points="410,40 427,10 427,70" fill="rgb(255,255,255)" fill-opacity="1.0" stroke="rgb(0,0,0)" stroke-width="2"  />
			<g>
				<title>Flavin_Reduct (PF01613)
"Flavin reductase like domain"</title>
				<polygon class="PF01613" points="413,40 420,28 424,28 424,52 420,52" stroke-linejoin="round" width="14" height="24" fill="rgb(223,100,227)" stroke="rgb(178,80,181)" stroke-width="1" opacity="0.75" />
			</g>
		</g>
		<g>
			<title>msnH5
hypothetical protein</title>
			<polygon class="msnH5
hypothetical protein" points="464,25 458,25 458,10 428,40 458,70 458,55 464,55" fill="rgb(255,255,255)" fill-opacity="1.0" stroke="rgb(0,0,0)" stroke-width="2"  />
			<g>
				<title>APH (PF01636)
"Phosphotransferase enzyme family"</title>
				<polygon class="PF01636" points="435,37 444,28 460,28 460,52 444,52 435,43" stroke-linejoin="round" width="25" height="24" fill="rgb(113,205,78)" stroke="rgb(90,164,62)" stroke-width="1" opacity="0.75" />
			</g>
		</g>
		<g>
			<title>msnK2
ketosynthase</title>
			<polygon class="msnK2
ketosynthase" points="507,25 497,25 497,10 467,40 497,70 497,55 507,55" fill="rgb(255,255,255)" fill-opacity="1.0" stroke="rgb(0,0,0)" stroke-width="2"  />
			<g>
				<title>Ketoacyl-synt_C (PF02801)
"Beta-ketoacyl synthase, C-terminal domain"</title>
				<polygon class="PF02801" points="471,40 482,29 482,51 471,40" stroke-linejoin="round" width="11" height="24" fill="rgb(212,79,72)" stroke="rgb(169,63,57)" stroke-width="1" opacity="0.75" />
			</g>
			<g>
				<title>ketoacyl-synt (PF00109)
"Beta-ketoacyl synthase, N-terminal domain"</title>
				<polygon class="PF00109" points="483,28 483,28 506,28 506,52 483,52 483,52" stroke-linejoin="round" width="23" height="24" fill="rgb(74,179,82)" stroke="rgb(59,143,65)" stroke-width="1" opacity="0.75" />
			</g>
		</g>
		<g>
			<title>msnK1
ketosynthase</title>
			<polygon class="msnK1
ketosynthase" points="552,25 540,25 540,10 510,40 540,70 540,55 552,55" fill="rgb(255,255,255)" fill-opacity="1.0" stroke="rgb(0,0,0)" stroke-width="2"  />
			<g>
				<title>Ketoacyl-synt_C (PF02801)
"Beta-ketoacyl synthase, C-terminal domain"</title>
				<polygon class="PF02801" points="514,40 525,29 525,51 514,40" stroke-linejoin="round" width="11" height="24" fill="rgb(212,79,72)" stroke="rgb(169,63,57)" stroke-width="1" opacity="0.75" />
			</g>
			<g>
				<title>ketoacyl-synt (PF00109)
"Beta-ketoacyl synthase, N-terminal domain"</title>
				<rect class="PF00109" x="527" y="28" stroke-linejoin="round" width="25" height="24" fill="rgb(74,179,82)" stroke="rgb(59,143,65)" stroke-width="1" opacity="0.75" />
			</g>
		</g>
		<g>
			<title>msnH6
hypothetical protein</title>
			<polygon class="msnH6
hypothetical protein" points="555,40 583,10 583,70" fill="rgb(255,255,255)" fill-opacity="1.0" stroke="rgb(0,0,0)" stroke-width="2"  />
			<g>
				<title>NAD_binding_10 (PF13460)
"NAD(P)H-binding"</title>
				<polygon class="PF13460" points="565,34 570,28 582,28 582,52 570,52 565,46" stroke-linejoin="round" width="17" height="24" fill="rgb(131,53,182)" stroke="rgb(104,42,145)" stroke-width="1" opacity="0.75" />
			</g>
		</g>
		<g>
			<title>msnO4
luciferase-like monooxygenase</title>
			<polygon class="msnO4
luciferase-like monooxygenase" points="619,25 613,25 613,10 583,40 613,70 613,55 619,55" fill="rgb(255,255,255)" fill-opacity="1.0" stroke="rgb(0,0,0)" stroke-width="2"  />
			<g>
				<title>Bac_luciferase (PF00296)
"Luciferase-like monooxygenase"</title>
				<polygon class="PF00296" points="587,40 599,28 618,28 618,52 599,52" stroke-linejoin="round" width="32" height="24" fill="rgb(50,200,104)" stroke="rgb(40,160,83)" stroke-width="1" opacity="0.75" />
			</g>
		</g>
		<g>
			<title>msnO5
monooxygenase</title>
			<polygon class="msnO5
monooxygenase" points="620,40 630,10 630,70" fill="rgb(255,255,255)" fill-opacity="1.0" stroke="rgb(0,0,0)" stroke-width="2"  />
			<g>
				<title>ABM (PF03992)
"Antibiotic biosynthesis monooxygenase"</title>
				<polygon class="PF03992" points="623,40 627,28 629,28 629,52 627,52" stroke-linejoin="round" width="7" height="24" fill="rgb(211,55,142)" stroke="rgb(168,44,113)" stroke-width="1" opacity="0.75" />
			</g>
		</g>
		<g>
			<title>msnC1
putative bifunctional cyclase/dehydratase</title>
			<polygon class="msnC1
putative bifunctional cyclase/dehydratase" points="672,25 661,25 661,10 631,40 661,70 661,55 672,55" fill="rgb(255,255,255)" fill-opacity="1.0" stroke="rgb(0,0,0)" stroke-width="2"  />
			<g>
				<title>SnoaL_4 (PF13577)
"SnoaL-like domain"</title>
				<polygon class="PF13577" points="635,40 643,32 643,48" stroke-linejoin="round" width="12" height="24" fill="rgb(58,198,190)" stroke="rgb(46,158,152)" stroke-width="1" opacity="0.75" />
			</g>
			<g>
				<title>Polyketide_cyc2 (PF10604)
"Polyketide cyclase / dehydrase and lipid transport"</title>
				<rect class="PF10604" x="657" y="28" stroke-linejoin="round" width="14" height="24" fill="rgb(170,214,69)" stroke="rgb(136,171,55)" stroke-width="1" opacity="0.75" />
			</g>
		</g>
		<g>
			<title>msnO6
monooxygenase</title>
			<polygon class="msnO6
monooxygenase" points="672,40 682,10 682,70" fill="rgb(255,255,255)" fill-opacity="1.0" stroke="rgb(0,0,0)" stroke-width="2"  />
			<g>
				<title>ABM (PF03992)
"Antibiotic biosynthesis monooxygenase"</title>
				<polygon class="PF03992" points="675,40 679,28 682,28 682,52 679,52 675,40" stroke-linejoin="round" width="7" height="24" fill="rgb(211,55,142)" stroke="rgb(168,44,113)" stroke-width="1" opacity="0.75" />
			</g>
		</g>
		<g>
			<title>msnO7
monooxygenase</title>
			<polygon class="msnO7
monooxygenase" points="690,10 700,40 690,70" fill="rgb(255,255,255)" fill-opacity="1.0" stroke="rgb(0,0,0)" stroke-width="2"  />
			<g>
				<title>ABM (PF03992)
"Antibiotic biosynthesis monooxygenase"</title>
				<polygon class="PF03992" points="691,28 692,28 697,40 692,52 691,52" stroke-linejoin="round" width="7" height="24" fill="rgb(211,55,142)" stroke="rgb(168,44,113)" stroke-width="1" opacity="0.75" />
			</g>
		</g>
		<g>
			<title>msnC2
putative cyclase</title>
			<polygon class="msnC2
putative cyclase" points="700,25 700,25 700,10 730,40 700,70 700,55 700,55" fill="rgb(255,255,255)" fill-opacity="1.0" stroke="rgb(0,0,0)" stroke-width="2"  />
			<g>
				<title>Lactamase_B (PF00753)
"Metallo-beta-lactamase superfamily"</title>
				<polygon class="PF00753" points="702,28 714,28 720,34 720,46 714,52 702,52" stroke-linejoin="round" width="18" height="24" fill="rgb(70,201,123)" stroke="rgb(56,160,98)" stroke-width="1" opacity="0.75" />
			</g>
		</g>
		<g>
			<title>msnO8
luciferase-like monooxygenase</title>
			<polygon class="msnO8
luciferase-like monooxygenase" points="732,25 735,25 735,10 765,40 735,70 735,55 732,55" fill="rgb(255,255,255)" fill-opacity="1.0" stroke="rgb(0,0,0)" stroke-width="2"  />
			<g>
				<title>Bac_luciferase (PF00296)
"Luciferase-like monooxygenase"</title>
				<polygon class="PF00296" points="732,28 749,28 761,40 749,52 732,52" stroke-linejoin="round" width="30" height="24" fill="rgb(50,200,104)" stroke="rgb(40,160,83)" stroke-width="1" opacity="0.75" />
			</g>
		</g>
		<g>
			<title>msnO9
putative NADPH:quinone oxidoreductase</title>
			<polygon class="msnO9
putative NADPH:quinone oxidoreductase" points="767,25 769,25 769,10 799,40 769,70 769,55 767,55" fill="rgb(255,255,255)" fill-opacity="1.0" stroke="rgb(0,0,0)" stroke-width="2"  />
			<g>
				<title>ADH_N (PF08240)
"Alcohol dehydrogenase GroES-like domain"</title>
				<rect class="PF08240" x="769" y="28" stroke-linejoin="round" width="7" height="24" fill="rgb(217,198,105)" stroke="rgb(173,158,84)" stroke-width="1" opacity="0.75" />
			</g>
			<g>
				<title>ADH_zinc_N (PF00107)
"Zinc-binding dehydrogenase"</title>
				<polygon class="PF00107" points="782,28 783,28 795,40 795,40 783,52 782,52" stroke-linejoin="round" width="13" height="24" fill="rgb(79,114,198)" stroke="rgb(63,91,158)" stroke-width="1" opacity="0.75" />
			</g>
		</g>
		<g>
			<title>msnO10
ketoreductase</title>
			<polygon class="msnO10
ketoreductase" points="802,10 828,40 802,70" fill="rgb(255,255,255)" fill-opacity="1.0" stroke="rgb(0,0,0)" stroke-width="2"  />
			<g>
				<title>adh_short (PF00106)
"short chain dehydrogenase"</title>
				<polygon class="PF00106" points="802,28 814,28 820,36 820,44 814,52 802,52" stroke-linejoin="round" width="18" height="24" fill="rgb(128,81,196)" stroke="rgb(102,64,156)" stroke-width="1" opacity="0.75" />
			</g>
		</g>
		<g>
			<title>msnK3
acyl carrier protein</title>
			<polygon class="msnK3
acyl carrier protein" points="829,10 838,40 829,70" fill="rgb(255,255,255)" fill-opacity="1.0" stroke="rgb(0,0,0)" stroke-width="2"  />
			<g>
				<title>PP-binding (PF00550)
"Phosphopantetheine attachment site"</title>
				<polygon class="PF00550" points="829,28 831,28 835,40 831,52 829,52" stroke-linejoin="round" width="7" height="24" fill="rgb(181,58,166)" stroke="rgb(144,46,132)" stroke-width="1" opacity="0.75" />
			</g>
		</g>
		<g>
			<title>msnO11
ketoreductase</title>
			<polygon class="msnO11
ketoreductase" points="839,10 865,40 839,70" fill="rgb(255,255,255)" fill-opacity="1.0" stroke="rgb(0,0,0)" stroke-width="2"  />
			<g>
				<title>adh_short (PF00106)
"short chain dehydrogenase"</title>
				<polygon class="PF00106" points="839,28 851,28 858,37 858,43 851,52 839,52" stroke-linejoin="round" width="19" height="24" fill="rgb(128,81,196)" stroke="rgb(102,64,156)" stroke-width="1" opacity="0.75" />
			</g>
		</g>
		<g>
			<title>msnC3
putative bifunctional cyclase/dehydratase</title>
			<polygon class="msnC3
putative bifunctional cyclase/dehydratase" points="867,25 868,25 868,10 898,40 868,70 868,55 867,55" fill="rgb(255,255,255)" fill-opacity="1.0" stroke="rgb(0,0,0)" stroke-width="2"  />
			<g>
				<title>Polyketide_cyc2 (PF10604)
"Polyketide cyclase / dehydrase and lipid transport"</title>
				<rect class="PF10604" x="867" y="28" stroke-linejoin="round" width="14" height="24" fill="rgb(170,214,69)" stroke="rgb(136,171,55)" stroke-width="1" opacity="0.75" />
			</g>
			<g>
				<title>Polyketide_cyc2 (PF10604)
"Polyketide cyclase / dehydrase and lipid transport"</title>
				<polygon class="PF10604" points="882,28 882,28 894,40 882,52 882,52" stroke-linejoin="round" width="14" height="24" fill="rgb(170,214,69)" stroke="rgb(136,171,55)" stroke-width="1" opacity="0.75" />
			</g>
		</g>
		<g>
			<title>msnR1
SARP regulatory protein</title>
			<polygon class="msnR1
SARP regulatory protein" points="911,10 939,40 911,70" fill="rgb(255,255,255)" fill-opacity="1.0" stroke="rgb(0,0,0)" stroke-width="2"  />
			<g>
				<title>Trans_reg_C (PF00486)
"Transcriptional regulatory protein, C terminal"</title>
				<rect class="PF00486" x="912" y="28" stroke-linejoin="round" width="6" height="24" fill="rgb(69,185,116)" stroke="rgb(55,148,92)" stroke-width="1" opacity="0.75" />
			</g>
			<g>
				<title>BTAD (PF03704)
"Bacterial transcriptional activator domain"</title>
				<polygon class="PF03704" points="922,28 923,28 935,40 923,52 922,52" stroke-linejoin="round" width="14" height="24" fill="rgb(174,224,58)" stroke="rgb(139,179,46)" stroke-width="1" opacity="0.75" />
			</g>
		</g>
		<g>
			<title>msnH7
hypothetical protein</title>
			<polygon class="msnH7
hypothetical protein" points="941,25 941,25 941,10 971,40 941,70 941,55 941,55" fill="rgb(255,255,255)" fill-opacity="1.0" stroke="rgb(0,0,0)" stroke-width="2"  />
			<g>
				<title>Abhydrolase_1 (PF00561)
"alpha/beta hydrolase fold"</title>
				<polygon class="PF00561" points="944,28 955,28 957,30 957,50 955,52 944,52" stroke-linejoin="round" width="13" height="24" fill="rgb(99,159,215)" stroke="rgb(79,127,172)" stroke-width="1" opacity="0.75" />
			</g>
		</g>
		<g>
			<title>msnH8
hypothetical protein</title>
			<polygon class="msnH8
hypothetical protein" points="971,10 982,40 971,70" fill="rgb(255,255,255)" fill-opacity="1.0" stroke="rgb(0,0,0)" stroke-width="2"  />
			<g>
				<title>MFS_3 (PF05977)
"Transmembrane secretion effector"</title>
				<polygon class="PF05977" points="972,28 974,28 978,40 974,52 972,52" stroke-linejoin="round" width="9" height="24" fill="rgb(75,61,221)" stroke="rgb(60,48,176)" stroke-width="1" opacity="0.75" />
			</g>
		</g>
		<g>
			<title>msnR2
regulatory protein</title>
			<polygon class="msnR2
regulatory protein" points="1081,25 1017,25 1017,10 987,40 1017,70 1017,55 1081,55" fill="rgb(255,255,255)" fill-opacity="1.0" stroke="rgb(0,0,0)" stroke-width="2"  />
			<g>
				<title>GerE (PF00196)
"Bacterial regulatory proteins, luxR family"</title>
				<polygon class="PF00196" points="991,40 993,38 993,42" stroke-linejoin="round" width="5" height="24" fill="rgb(225,67,110)" stroke="rgb(180,53,88)" stroke-width="1" opacity="0.75" />
			</g>
			<g>
				<title>AAA_16 (PF13191)
"AAA ATPase domain"</title>
				<rect class="PF13191" x="1065" y="28" stroke-linejoin="round" width="15" height="24" fill="rgb(88,106,197)" stroke="rgb(70,84,157)" stroke-width="1" opacity="0.75" />
			</g>
		</g>
		<g>
			<title>msnM1
adenosylhomocysteinase</title>
			<polygon class="msnM1
adenosylhomocysteinase" points="1146,25 1128,25 1128,10 1098,40 1128,70 1128,55 1146,55" fill="rgb(255,255,255)" fill-opacity="1.0" stroke="rgb(0,0,0)" stroke-width="2"  />
			<g>
				<title>AdoHcyase (PF05221)
"S-adenosyl-L-homocysteine hydrolase"</title>
				<polygon class="PF05221" points="1102,40 1114,28 1145,28 1145,52 1114,52" stroke-linejoin="round" width="47" height="24" fill="rgb(185,78,202)" stroke="rgb(148,62,161)" stroke-width="1" opacity="0.75" />
			</g>
		</g>
		<g>
			<title>msnM2
N5,N10-methylene etrahydrofolate reductase</title>
			<polygon class="msnM2
N5,N10-methylene etrahydrofolate reductase" points="1176,25 1176,25 1176,10 1146,40 1176,70 1176,55 1176,55" fill="rgb(255,255,255)" fill-opacity="1.0" stroke="rgb(0,0,0)" stroke-width="2"  />
			<g>
				<title>MTHFR (PF02219)
"Methylenetetrahydrofolate reductase"</title>
				<polygon class="PF02219" points="1150,40 1162,28 1175,28 1175,52 1162,52" stroke-linejoin="round" width="28" height="24" fill="rgb(85,139,203)" stroke="rgb(68,111,162)" stroke-width="1" opacity="0.75" />
			</g>
		</g>
		<g>
			<title>msnM3
methionine synthase</title>
			<polygon class="msnM3
methionine synthase" points="1234,25 1206,25 1206,10 1176,40 1206,70 1206,55 1234,55" fill="rgb(255,255,255)" fill-opacity="1.0" stroke="rgb(0,0,0)" stroke-width="2"  />
			<g>
				<title>Met_synt_B12 (PF02965)
"Vitamin B12 dependent methionine synthase, activation domain"</title>
				<polygon class="PF02965" points="1180,40 1192,28 1197,28 1197,52 1192,52" stroke-linejoin="round" width="21" height="24" fill="rgb(107,217,214)" stroke="rgb(85,173,171)" stroke-width="1" opacity="0.75" />
			</g>
			<g>
				<title>B12-binding (PF02310)
"B12 binding domain"</title>
				<rect class="PF02310" x="1208" y="28" stroke-linejoin="round" width="12" height="24" fill="rgb(64,214,216)" stroke="rgb(51,171,172)" stroke-width="1" opacity="0.75" />
			</g>
			<g>
				<title>B12-binding_2 (PF02607)
"B12 binding domain"</title>
				<rect class="PF02607" x="1221" y="28" stroke-linejoin="round" width="7" height="24" fill="rgb(87,196,76)" stroke="rgb(69,156,60)" stroke-width="1" opacity="0.75" />
			</g>
		</g>
	</g>
</svg>
