<svg version="1.1" baseProfile="full" xmlns="http://www.w3.org/2000/svg" width="1215.4666666666667" height="80">
	<g>
		<line x1="10" y1="40.0" x2="1205.4666666666667" y2="40.0" style="stroke:rgb(70,70,70); stroke-width:3 "/>
		<g>
			<title>
hypothetical protein</title>
			<polygon class="
hypothetical protein" points="19,10 25,40 19,70" fill="rgb(255,255,255)" fill-opacity="1.0" stroke="rgb(0,0,0)" stroke-width="2"  />
		</g>
		<g>
			<title>
CAAX amino terminal protease</title>
			<polygon class="
CAAX amino terminal protease" points="32,40 48,10 48,70" fill="rgb(255,255,255)" fill-opacity="1.0" stroke="rgb(0,0,0)" stroke-width="2"  />
			<g>
				<title>Rce1-like (PF02517)
"Type II CAAX prenyl endopeptidase Rce1-like"</title>
				<polygon class="PF02517" points="35,40 41,28 42,28 42,52 41,52" stroke-linejoin="round" width="10" height="24" fill="rgb(221,193,76)" stroke="rgb(176,154,60)" stroke-width="1" opacity="0.75" />
			</g>
		</g>
		<g>
			<title>
pXO-14-like conserved protein</title>
			<polygon class="
pXO-14-like conserved protein" points="69,25 82,25 82,10 112,40 82,70 82,55 69,55" fill="rgb(255,255,255)" fill-opacity="1.0" stroke="rgb(0,0,0)" stroke-width="2"  />
			<g>
				<title>HTH_3 (PF01381)
"Helix-turn-helix"</title>
				<polygon class="PF01381" points="107,39 108,40 107,41" stroke-linejoin="round" width="3" height="24" fill="rgb(168,185,81)" stroke="rgb(134,148,64)" stroke-width="1" opacity="0.75" />
			</g>
		</g>
		<g>
			<title>cesH
CesH</title>
			<polygon class="cesH
CesH" points="121,10 148,40 121,70" fill="rgb(255,255,255)" fill-opacity="1.0" stroke="rgb(0,0,0)" stroke-width="2"  />
			<g>
				<title>Abhydrolase_6 (PF12697)
"Alpha/beta hydrolase family"</title>
				<polygon class="PF12697" points="123,28 132,28 143,40 132,52 123,52" stroke-linejoin="round" width="22" height="24" fill="rgb(87,73,196)" stroke="rgb(69,58,156)" stroke-width="1" opacity="0.75" />
			</g>
		</g>
		<g>
			<title>cesP
CesP</title>
			<polygon class="cesP
CesP" points="181,10 206,40 181,70" fill="rgb(255,255,255)" fill-opacity="1.0" stroke="rgb(0,0,0)" stroke-width="2"  />
			<g>
				<title>ACPS (PF01648)
"4'-phosphopantetheinyl transferase superfamily"</title>
				<polygon class="PF01648" points="191,28 192,28 201,39 201,41 192,52 191,52" stroke-linejoin="round" width="10" height="24" fill="rgb(58,190,78)" stroke="rgb(46,152,62)" stroke-width="1" opacity="0.75" />
			</g>
		</g>
		<g>
			<title>cesT
CesT</title>
			<polygon class="cesT
CesT" points="215,10 238,40 215,70" fill="rgb(255,255,255)" fill-opacity="1.0" stroke="rgb(0,0,0)" stroke-width="2"  />
			<g>
				<title>Thioesterase (PF00975)
"Thioesterase domain"</title>
				<polygon class="PF00975" points="215,28 225,28 234,40 225,52 215,52" stroke-linejoin="round" width="22" height="24" fill="rgb(69,76,223)" stroke="rgb(55,60,178)" stroke-width="1" opacity="0.75" />
			</g>
		</g>
		<g>
			<title>cesA
CesA</title>
			<polygon class="cesA
CesA" points="238,25 547,25 547,10 577,40 547,70 547,55 238,55" fill="rgb(255,255,255)" fill-opacity="1.0" stroke="rgb(0,0,0)" stroke-width="2"  />
			<g>
				<title>AMP-binding (PF00501)
"AMP-binding enzyme"</title>
				<rect class="PF00501" x="250" y="28" stroke-linejoin="round" width="40" height="24" fill="rgb(189,78,204)" stroke="rgb(151,62,163)" stroke-width="1" opacity="0.75" />
			</g>
			<g>
				<title>Beta-ketacyl_N (PF21394)
"Beta-ketoacyl synthase-like, N-terminal"</title>
				<rect class="PF21394" x="308" y="28" stroke-linejoin="round" width="17" height="24" fill="rgb(199,58,86)" stroke="rgb(159,46,68)" stroke-width="1" opacity="0.75" />
			</g>
			<g>
				<title>KR (PF08659)
"KR domain"</title>
				<rect class="PF08659" x="330" y="28" stroke-linejoin="round" width="18" height="24" fill="rgb(203,145,81)" stroke="rgb(162,116,64)" stroke-width="1" opacity="0.75" />
			</g>
			<g>
				<title>PP-binding (PF00550)
"Phosphopantetheine attachment site"</title>
				<rect class="PF00550" x="362" y="28" stroke-linejoin="round" width="6" height="24" fill="rgb(181,58,166)" stroke="rgb(144,46,132)" stroke-width="1" opacity="0.75" />
			</g>
			<g>
				<title>Condensation (PF00668)
"Condensation domain"</title>
				<rect class="PF00668" x="371" y="28" stroke-linejoin="round" width="44" height="24" fill="rgb(172,217,60)" stroke="rgb(137,173,47)" stroke-width="1" opacity="0.75" />
			</g>
			<g>
				<title>AMP-binding (PF00501)
"AMP-binding enzyme"</title>
				<rect class="PF00501" x="417" y="28" stroke-linejoin="round" width="35" height="24" fill="rgb(189,78,204)" stroke="rgb(151,62,163)" stroke-width="1" opacity="0.75" />
			</g>
			<g>
				<title>AMP-binding_C (PF13193)
"AMP-binding enzyme C-terminal domain"</title>
				<rect class="PF13193" x="458" y="28" stroke-linejoin="round" width="7" height="24" fill="rgb(195,82,106)" stroke="rgb(156,65,84)" stroke-width="1" opacity="0.75" />
			</g>
			<g>
				<title>PP-binding (PF00550)
"Phosphopantetheine attachment site"</title>
				<rect class="PF00550" x="468" y="28" stroke-linejoin="round" width="6" height="24" fill="rgb(181,58,166)" stroke="rgb(144,46,132)" stroke-width="1" opacity="0.75" />
			</g>
			<g>
				<title>Condensation (PF00668)
"Condensation domain"</title>
				<rect class="PF00668" x="476" y="28" stroke-linejoin="round" width="44" height="24" fill="rgb(172,217,60)" stroke="rgb(137,173,47)" stroke-width="1" opacity="0.75" />
			</g>
			<g>
				<title>Condensation (PF00668)
"Condensation domain"</title>
				<polygon class="PF00668" points="522,28 560,28 566,34 566,46 560,52 522,52" stroke-linejoin="round" width="44" height="24" fill="rgb(172,217,60)" stroke="rgb(137,173,47)" stroke-width="1" opacity="0.75" />
			</g>
		</g>
		<g>
			<title>cesB
CesB</title>
			<polygon class="cesB
CesB" points="577,25 815,25 815,10 845,40 815,70 815,55 577,55" fill="rgb(255,255,255)" fill-opacity="1.0" stroke="rgb(0,0,0)" stroke-width="2"  />
			<g>
				<title>AMP-binding (PF00501)
"AMP-binding enzyme"</title>
				<rect class="PF00501" x="596" y="28" stroke-linejoin="round" width="40" height="24" fill="rgb(189,78,204)" stroke="rgb(151,62,163)" stroke-width="1" opacity="0.75" />
			</g>
			<g>
				<title>KR (PF08659)
"KR domain"</title>
				<rect class="PF08659" x="673" y="28" stroke-linejoin="round" width="19" height="24" fill="rgb(203,145,81)" stroke="rgb(162,116,64)" stroke-width="1" opacity="0.75" />
			</g>
			<g>
				<title>PP-binding (PF00550)
"Phosphopantetheine attachment site"</title>
				<rect class="PF00550" x="705" y="28" stroke-linejoin="round" width="6" height="24" fill="rgb(181,58,166)" stroke="rgb(144,46,132)" stroke-width="1" opacity="0.75" />
			</g>
			<g>
				<title>Condensation (PF00668)
"Condensation domain"</title>
				<rect class="PF00668" x="714" y="28" stroke-linejoin="round" width="44" height="24" fill="rgb(172,217,60)" stroke="rgb(137,173,47)" stroke-width="1" opacity="0.75" />
			</g>
			<g>
				<title>AMP-binding (PF00501)
"AMP-binding enzyme"</title>
				<rect class="PF00501" x="760" y="28" stroke-linejoin="round" width="34" height="24" fill="rgb(189,78,204)" stroke="rgb(151,62,163)" stroke-width="1" opacity="0.75" />
			</g>
			<g>
				<title>AMP-binding_C (PF13193)
"AMP-binding enzyme C-terminal domain"</title>
				<rect class="PF13193" x="800" y="28" stroke-linejoin="round" width="7" height="24" fill="rgb(195,82,106)" stroke="rgb(156,65,84)" stroke-width="1" opacity="0.75" />
			</g>
			<g>
				<title>PP-binding (PF00550)
"Phosphopantetheine attachment site"</title>
				<rect class="PF00550" x="810" y="28" stroke-linejoin="round" width="6" height="24" fill="rgb(181,58,166)" stroke="rgb(144,46,132)" stroke-width="1" opacity="0.75" />
			</g>
			<g>
				<title>Thioesterase (PF00975)
"Thioesterase domain"</title>
				<polygon class="PF00975" points="819,28 828,28 840,40 828,52 819,52" stroke-linejoin="round" width="25" height="24" fill="rgb(69,76,223)" stroke="rgb(55,60,178)" stroke-width="1" opacity="0.75" />
			</g>
		</g>
		<g>
			<title>cesC
CesC</title>
			<polygon class="cesC
CesC" points="851,10 880,40 851,70" fill="rgb(255,255,255)" fill-opacity="1.0" stroke="rgb(0,0,0)" stroke-width="2"  />
			<g>
				<title>ABC_tran (PF00005)
"ABC transporter"</title>
				<polygon class="PF00005" points="852,28 864,28 865,29 865,51 864,52 852,52" stroke-linejoin="round" width="13" height="24" fill="rgb(46,186,108)" stroke="rgb(36,148,86)" stroke-width="1" opacity="0.75" />
			</g>
		</g>
		<g>
			<title>cesD
CesD</title>
			<polygon class="cesD
CesD" points="881,10 907,40 881,70" fill="rgb(255,255,255)" fill-opacity="1.0" stroke="rgb(0,0,0)" stroke-width="2"  />
			<g>
				<title>ABC2_membrane_2 (PF12679)
"ABC-2 family transporter protein"</title>
				<polygon class="PF12679" points="881,28 892,28 903,40 892,52 881,52" stroke-linejoin="round" width="26" height="24" fill="rgb(192,171,72)" stroke="rgb(153,136,57)" stroke-width="1" opacity="0.75" />
			</g>
		</g>
		<g>
			<title>
pXO-11-like hypothetical protein</title>
			<polygon class="
pXO-11-like hypothetical protein" points="940,10 953,40 940,70" fill="rgb(255,255,255)" fill-opacity="1.0" stroke="rgb(0,0,0)" stroke-width="2"  />
			<g>
				<title>DUF6018 (PF19482)
"Family of unknown function (DUF6018)"</title>
				<polygon class="PF19482" points="941,28 944,28 950,40 944,52 941,52" stroke-linejoin="round" width="11" height="24" fill="rgb(72,216,54)" stroke="rgb(57,172,43)" stroke-width="1" opacity="0.75" />
			</g>
		</g>
		<g>
			<title>
reverse transcriptase</title>
			<polygon class="
reverse transcriptase" points="988,25 1022,25 1022,10 1052,40 1022,70 1022,55 988,55" fill="rgb(255,255,255)" fill-opacity="1.0" stroke="rgb(0,0,0)" stroke-width="2"  />
			<g>
				<title>RVT_1 (PF00078)
"Reverse transcriptase (RNA-dependent DNA polymerase)"</title>
				<rect class="PF00078" x="998" y="28" stroke-linejoin="round" width="24" height="24" fill="rgb(157,69,228)" stroke="rgb(125,55,182)" stroke-width="1" opacity="0.75" />
			</g>
		</g>
		<g>
			<title>
pXO1-10-like hypothetical protein</title>
			<polygon class="
pXO1-10-like hypothetical protein" points="1061,25 1064,25 1064,10 1094,40 1064,70 1064,55 1061,55" fill="rgb(255,255,255)" fill-opacity="1.0" stroke="rgb(0,0,0)" stroke-width="2"  />
			<g>
				<title>DUF6094 (PF19587)
"Uncharacterised methyltransferase family (DUF6094)"</title>
				<polygon class="PF19587" points="1061,28 1078,28 1080,30 1080,50 1078,52 1061,52" stroke-linejoin="round" width="19" height="24" fill="rgb(50,77,197)" stroke="rgb(40,61,157)" stroke-width="1" opacity="0.75" />
			</g>
		</g>
		<g>
			<title>
pXO1-8-like hypothetical protein</title>
			<polygon class="
pXO1-8-like hypothetical protein" points="1105,25 1174,25 1174,10 1204,40 1174,70 1174,55 1105,55" fill="rgb(255,255,255)" fill-opacity="1.0" stroke="rgb(0,0,0)" stroke-width="2"  />
		</g>
	</g>
</svg>
