<svg version="1.1" baseProfile="full" xmlns="http://www.w3.org/2000/svg" width="1758.8" height="80">
	<g>
		<line x1="10" y1="40.0" x2="1748.8" y2="40.0" style="stroke:rgb(70,70,70); stroke-width:3 "/>
		<g>
			<title>pokSAMS
PokSAMS</title>
			<polygon class="pokSAMS
PokSAMS" points="10,10 21,40 10,70" fill="rgb(255,255,255)" fill-opacity="1.0" stroke="rgb(0,0,0)" stroke-width="2"  />
			<g>
				<title>S-AdoMet_synt_C (PF02773)
"S-adenosylmethionine synthetase, C-terminal domain"</title>
				<polygon class="PF02773" points="10,28 13,28 18,40 13,52 10,52" stroke-linejoin="round" width="10" height="24" fill="rgb(143,191,71)" stroke="rgb(114,152,56)" stroke-width="1" opacity="0.75" />
			</g>
		</g>
		<g>
			<title>pokR3
PokR3</title>
			<polygon class="pokR3
PokR3" points="23,25 25,25 25,10 55,40 25,70 25,55 23,55" fill="rgb(255,255,255)" fill-opacity="1.0" stroke="rgb(0,0,0)" stroke-width="2"  />
			<g>
				<title>PfkB (PF00294)
"pfkB family carbohydrate kinase"</title>
				<polygon class="PF00294" points="23,28 39,28 51,40 39,52 23,52" stroke-linejoin="round" width="29" height="24" fill="rgb(94,207,198)" stroke="rgb(75,165,158)" stroke-width="1" opacity="0.75" />
			</g>
		</g>
		<g>
			<title>pokS8
PokS8</title>
			<polygon class="pokS8
PokS8" points="55,25 66,25 66,10 96,40 66,70 66,55 55,55" fill="rgb(255,255,255)" fill-opacity="1.0" stroke="rgb(0,0,0)" stroke-width="2"  />
			<g>
				<title>Methyltransf_13 (PF08421)
"Putative zinc binding domain"</title>
				<rect class="PF08421" x="55" y="28" stroke-linejoin="round" width="6" height="24" fill="rgb(65,65,206)" stroke="rgb(52,52,164)" stroke-width="1" opacity="0.75" />
			</g>
			<g>
				<title>Methyltransf_23 (PF13489)
"Methyltransferase domain"</title>
				<rect class="PF13489" x="62" y="28" stroke-linejoin="round" width="16" height="24" fill="rgb(62,214,70)" stroke="rgb(49,171,56)" stroke-width="1" opacity="0.75" />
			</g>
			<g>
				<title>Methyltransf_14 (PF08484)
"C-methyltransferase C-terminal domain"</title>
				<polygon class="PF08484" points="80,28 80,28 92,40 80,52 80,52" stroke-linejoin="round" width="15" height="24" fill="rgb(131,189,66)" stroke="rgb(104,151,52)" stroke-width="1" opacity="0.75" />
			</g>
		</g>
		<g>
			<title>pokR1
PokR1</title>
			<polygon class="pokR1
PokR1" points="99,25 175,25 175,10 205,40 175,70 175,55 99,55" fill="rgb(255,255,255)" fill-opacity="1.0" stroke="rgb(0,0,0)" stroke-width="2"  />
			<g>
				<title>BTAD (PF03704)
"Bacterial transcriptional activator domain"</title>
				<rect class="PF03704" x="108" y="28" stroke-linejoin="round" width="14" height="24" fill="rgb(174,224,58)" stroke="rgb(139,179,46)" stroke-width="1" opacity="0.75" />
			</g>
			<g>
				<title>AAA_22 (PF13401)
"AAA domain"</title>
				<rect class="PF13401" x="126" y="28" stroke-linejoin="round" width="13" height="24" fill="rgb(217,86,82)" stroke="rgb(173,68,65)" stroke-width="1" opacity="0.75" />
			</g>
		</g>
		<g>
			<title>pokGT2
PokGT2</title>
			<polygon class="pokGT2
PokGT2" points="245,25 237,25 237,10 207,40 237,70 237,55 245,55" fill="rgb(255,255,255)" fill-opacity="1.0" stroke="rgb(0,0,0)" stroke-width="2"  />
			<g>
				<title>EryCIII-like_C (PF06722)
"Erythromycin biosynthesis protein CIII-like, C-terminal domain"</title>
				<polygon class="PF06722" points="211,40 221,30 221,50" stroke-linejoin="round" width="14" height="24" fill="rgb(48,103,191)" stroke="rgb(38,82,152)" stroke-width="1" opacity="0.75" />
			</g>
			<g>
				<title>EryCIII-like_N (PF21036)
"Erythromycin biosynthesis protein CIII-like, N-terminal domain"</title>
				<polygon class="PF21036" points="223,28 223,28 236,28 236,52 223,52 223,52" stroke-linejoin="round" width="13" height="24" fill="rgb(205,88,112)" stroke="rgb(164,70,89)" stroke-width="1" opacity="0.75" />
			</g>
		</g>
		<g>
			<title>pokABC2
PokABC2</title>
			<polygon class="pokABC2
PokABC2" points="246,40 273,10 273,70" fill="rgb(255,255,255)" fill-opacity="1.0" stroke="rgb(0,0,0)" stroke-width="2"  />
			<g>
				<title>ABC2_membrane (PF01061)
"ABC-2 type transporter"</title>
				<polygon class="PF01061" points="250,40 261,28 270,28 270,52 261,52" stroke-linejoin="round" width="21" height="24" fill="rgb(91,137,194)" stroke="rgb(72,109,155)" stroke-width="1" opacity="0.75" />
			</g>
		</g>
		<g>
			<title>pokABC1
PokABC1</title>
			<polygon class="pokABC1
PokABC1" points="304,25 303,25 303,10 273,40 303,70 303,55 304,55" fill="rgb(255,255,255)" fill-opacity="1.0" stroke="rgb(0,0,0)" stroke-width="2"  />
			<g>
				<title>DUF4162 (PF13732)
"Domain of unknown function (DUF4162)"</title>
				<polygon class="PF13732" points="277,40 281,36 281,44" stroke-linejoin="round" width="8" height="24" fill="rgb(62,115,222)" stroke="rgb(49,91,177)" stroke-width="1" opacity="0.75" />
			</g>
			<g>
				<title>ABC_tran (PF00005)
"ABC transporter"</title>
				<polygon class="PF00005" points="287,30 289,28 301,28 301,52 289,52 287,50" stroke-linejoin="round" width="14" height="24" fill="rgb(46,186,108)" stroke="rgb(36,148,86)" stroke-width="1" opacity="0.75" />
			</g>
		</g>
		<g>
			<title>pokGT1
PokGT1</title>
			<polygon class="pokGT1
PokGT1" points="312,25 321,25 321,10 351,40 321,70 321,55 312,55" fill="rgb(255,255,255)" fill-opacity="1.0" stroke="rgb(0,0,0)" stroke-width="2"  />
			<g>
				<title>EryCIII-like_N (PF21036)
"Erythromycin biosynthesis protein CIII-like, N-terminal domain"</title>
				<rect class="PF21036" x="314" y="28" stroke-linejoin="round" width="21" height="24" fill="rgb(205,88,112)" stroke="rgb(164,70,89)" stroke-width="1" opacity="0.75" />
			</g>
			<g>
				<title>EryCIII-like_C (PF06722)
"Erythromycin biosynthesis protein CIII-like, C-terminal domain"</title>
				<polygon class="PF06722" points="337,30 347,40 337,50" stroke-linejoin="round" width="14" height="24" fill="rgb(48,103,191)" stroke="rgb(38,82,152)" stroke-width="1" opacity="0.75" />
			</g>
		</g>
		<g>
			<title>pokS6
PokS6</title>
			<polygon class="pokS6
PokS6" points="352,25 356,25 356,10 386,40 356,70 356,55 352,55" fill="rgb(255,255,255)" fill-opacity="1.0" stroke="rgb(0,0,0)" stroke-width="2"  />
			<g>
				<title>Epimerase (PF01370)
"NAD dependent epimerase/dehydratase family"</title>
				<polygon class="PF01370" points="355,28 370,28 377,35 377,45 370,52 355,52" stroke-linejoin="round" width="22" height="24" fill="rgb(215,89,157)" stroke="rgb(172,71,125)" stroke-width="1" opacity="0.75" />
			</g>
		</g>
		<g>
			<title>pokS5
PokS5</title>
			<polygon class="pokS5
PokS5" points="386,25 399,25 399,10 429,40 399,70 399,55 386,55" fill="rgb(255,255,255)" fill-opacity="1.0" stroke="rgb(0,0,0)" stroke-width="2"  />
			<g>
				<title>DegT_DnrJ_EryC1 (PF01041)
"DegT/DnrJ/EryC1/StrS aminotransferase family"</title>
				<polygon class="PF01041" points="389,28 413,28 425,40 413,52 389,52" stroke-linejoin="round" width="38" height="24" fill="rgb(228,110,183)" stroke="rgb(182,88,146)" stroke-width="1" opacity="0.75" />
			</g>
		</g>
		<g>
			<title>pokU2
PokU2</title>
			<polygon class="pokU2
PokU2" points="470,25 462,25 462,10 432,40 462,70 462,55 470,55" fill="rgb(255,255,255)" fill-opacity="1.0" stroke="rgb(0,0,0)" stroke-width="2"  />
			<g>
				<title>Acyl-CoA_dh_2 (PF08028)
"Acyl-CoA dehydrogenase, C-terminal domain"</title>
				<polygon class="PF08028" points="436,40 445,31 445,49" stroke-linejoin="round" width="12" height="24" fill="rgb(61,169,203)" stroke="rgb(48,135,162)" stroke-width="1" opacity="0.75" />
			</g>
		</g>
		<g>
			<title>pokU1
PokU2</title>
			<polygon class="pokU1
PokU2" points="470,40 487,10 487,70" fill="rgb(255,255,255)" fill-opacity="1.0" stroke="rgb(0,0,0)" stroke-width="2"  />
			<g>
				<title>Flavin_Reduct (PF01613)
"Flavin reductase like domain"</title>
				<polygon class="PF01613" points="473,40 480,28 485,28 485,52 480,52" stroke-linejoin="round" width="14" height="24" fill="rgb(223,100,227)" stroke="rgb(178,80,181)" stroke-width="1" opacity="0.75" />
			</g>
		</g>
		<g>
			<title>pokS4
PokS4</title>
			<polygon class="pokS4
PokS4" points="521,25 518,25 518,10 488,40 518,70 518,55 521,55" fill="rgb(255,255,255)" fill-opacity="1.0" stroke="rgb(0,0,0)" stroke-width="2"  />
			<g>
				<title>GFO_IDH_MocA_C (PF02894)
"Oxidoreductase family, C-terminal alpha/beta domain"</title>
				<polygon class="PF02894" points="499,33 504,28 506,28 506,52 504,52 499,47" stroke-linejoin="round" width="7" height="24" fill="rgb(89,185,176)" stroke="rgb(71,148,140)" stroke-width="1" opacity="0.75" />
			</g>
			<g>
				<title>GFO_IDH_MocA (PF01408)
"Oxidoreductase family, NAD-binding Rossmann fold"</title>
				<rect class="PF01408" x="508" y="28" stroke-linejoin="round" width="11" height="24" fill="rgb(53,193,178)" stroke="rgb(42,154,142)" stroke-width="1" opacity="0.75" />
			</g>
		</g>
		<g>
			<title>pokS3
PokS3</title>
			<polygon class="pokS3
PokS3" points="568,25 551,25 551,10 521,40 551,70 551,55 568,55" fill="rgb(255,255,255)" fill-opacity="1.0" stroke="rgb(0,0,0)" stroke-width="2"  />
			<g>
				<title>Hexose_dehydrat (PF03559)
"NDP-hexose 2,3-dehydratase"</title>
				<polygon class="PF03559" points="525,40 537,28 541,28 541,52 537,52" stroke-linejoin="round" width="20" height="24" fill="rgb(56,139,184)" stroke="rgb(44,111,147)" stroke-width="1" opacity="0.75" />
			</g>
			<g>
				<title>Hexose_dehydrat (PF03559)
"NDP-hexose 2,3-dehydratase"</title>
				<rect class="PF03559" x="545" y="28" stroke-linejoin="round" width="20" height="24" fill="rgb(56,139,184)" stroke="rgb(44,111,147)" stroke-width="1" opacity="0.75" />
			</g>
		</g>
		<g>
			<title>pokM3
PokM3</title>
			<polygon class="pokM3
PokM3" points="623,25 598,25 598,10 568,40 598,70 598,55 623,55" fill="rgb(255,255,255)" fill-opacity="1.0" stroke="rgb(0,0,0)" stroke-width="2"  />
			<g>
				<title>AMP-binding_C (PF13193)
"AMP-binding enzyme C-terminal domain"</title>
				<polygon class="PF13193" points="572,40 577,35 577,45" stroke-linejoin="round" width="7" height="24" fill="rgb(195,82,106)" stroke="rgb(156,65,84)" stroke-width="1" opacity="0.75" />
			</g>
			<g>
				<title>AMP-binding (PF00501)
"AMP-binding enzyme"</title>
				<polygon class="PF00501" points="582,30 584,28 619,28 619,52 584,52 582,50" stroke-linejoin="round" width="37" height="24" fill="rgb(189,78,204)" stroke="rgb(151,62,163)" stroke-width="1" opacity="0.75" />
			</g>
		</g>
		<g>
			<title>pokM1
PokM1</title>
			<polygon class="pokM1
PokM1" points="798,25 654,25 654,10 624,40 654,70 654,55 798,55" fill="rgb(255,255,255)" fill-opacity="1.0" stroke="rgb(0,0,0)" stroke-width="2"  />
			<g>
				<title>PP-binding (PF00550)
"Phosphopantetheine attachment site"</title>
				<polygon class="PF00550" points="628,40 631,37 631,43" stroke-linejoin="round" width="6" height="24" fill="rgb(181,58,166)" stroke="rgb(144,46,132)" stroke-width="1" opacity="0.75" />
			</g>
			<g>
				<title>KR (PF08659)
"KR domain"</title>
				<rect class="PF08659" x="641" y="28" stroke-linejoin="round" width="19" height="24" fill="rgb(203,145,81)" stroke="rgb(162,116,64)" stroke-width="1" opacity="0.75" />
			</g>
			<g>
				<title>PKS_DH_N (PF21089)
"Polyketide synthase dehydratase domain"</title>
				<rect class="PF21089" x="698" y="28" stroke-linejoin="round" width="9" height="24" fill="rgb(67,151,200)" stroke="rgb(53,120,160)" stroke-width="1" opacity="0.75" />
			</g>
			<g>
				<title>Acyl_transf_1 (PF00698)
"Acyl transferase domain"</title>
				<rect class="PF00698" x="712" y="28" stroke-linejoin="round" width="31" height="24" fill="rgb(132,93,193)" stroke="rgb(105,74,154)" stroke-width="1" opacity="0.75" />
			</g>
			<g>
				<title>KAsynt_C_assoc (PF16197)
"Ketoacyl-synthetase C-terminal extension"</title>
				<rect class="PF16197" x="747" y="28" stroke-linejoin="round" width="12" height="24" fill="rgb(200,86,70)" stroke="rgb(160,68,56)" stroke-width="1" opacity="0.75" />
			</g>
			<g>
				<title>Ketoacyl-synt_C (PF02801)
"Beta-ketoacyl synthase, C-terminal domain"</title>
				<rect class="PF02801" x="759" y="28" stroke-linejoin="round" width="11" height="24" fill="rgb(212,79,72)" stroke="rgb(169,63,57)" stroke-width="1" opacity="0.75" />
			</g>
			<g>
				<title>ketoacyl-synt (PF00109)
"Beta-ketoacyl synthase, N-terminal domain"</title>
				<rect class="PF00109" x="772" y="28" stroke-linejoin="round" width="25" height="24" fill="rgb(74,179,82)" stroke="rgb(59,143,65)" stroke-width="1" opacity="0.75" />
			</g>
		</g>
		<g>
			<title>pokM2
PokM2</title>
			<polygon class="pokM2
PokM2" points="831,25 827,25 827,10 797,40 827,70 827,55 831,55" fill="rgb(255,255,255)" fill-opacity="1.0" stroke="rgb(0,0,0)" stroke-width="2"  />
			<g>
				<title>ACP_syn_III_C (PF08541)
"3-Oxoacyl-[acyl-carrier-protein (ACP)] synthase III C terminal"</title>
				<polygon class="PF08541" points="801,40 806,35 806,45" stroke-linejoin="round" width="9" height="24" fill="rgb(223,111,121)" stroke="rgb(178,88,96)" stroke-width="1" opacity="0.75" />
			</g>
			<g>
				<title>ACP_syn_III (PF08545)
"3-Oxoacyl-[acyl-carrier-protein (ACP)] synthase III"</title>
				<polygon class="PF08545" points="812,29 813,28 819,28 819,52 813,52 812,51" stroke-linejoin="round" width="7" height="24" fill="rgb(93,213,73)" stroke="rgb(74,170,58)" stroke-width="1" opacity="0.75" />
			</g>
		</g>
		<g>
			<title>pokMT1
PokMT1</title>
			<polygon class="pokMT1
PokMT1" points="867,25 863,25 863,10 833,40 863,70 863,55 867,55" fill="rgb(255,255,255)" fill-opacity="1.0" stroke="rgb(0,0,0)" stroke-width="2"  />
			<g>
				<title>Methyltransf_2 (PF00891)
"O-methyltransferase domain"</title>
				<polygon class="PF00891" points="837,40 849,28 856,28 856,52 849,52" stroke-linejoin="round" width="21" height="24" fill="rgb(91,124,224)" stroke="rgb(72,99,179)" stroke-width="1" opacity="0.75" />
			</g>
			<g>
				<title>Dimerisation2 (PF16864)
"Dimerisation domain"</title>
				<rect class="PF16864" x="858" y="28" stroke-linejoin="round" width="8" height="24" fill="rgb(212,101,199)" stroke="rgb(169,80,159)" stroke-width="1" opacity="0.75" />
			</g>
		</g>
		<g>
			<title>pokP1
PokP1</title>
			<polygon class="pokP1
PokP1" points="875,25 887,25 887,10 917,40 887,70 887,55 875,55" fill="rgb(255,255,255)" fill-opacity="1.0" stroke="rgb(0,0,0)" stroke-width="2"  />
			<g>
				<title>ketoacyl-synt (PF00109)
"Beta-ketoacyl synthase, N-terminal domain"</title>
				<rect class="PF00109" x="875" y="28" stroke-linejoin="round" width="25" height="24" fill="rgb(74,179,82)" stroke="rgb(59,143,65)" stroke-width="1" opacity="0.75" />
			</g>
			<g>
				<title>Ketoacyl-synt_C (PF02801)
"Beta-ketoacyl synthase, C-terminal domain"</title>
				<polygon class="PF02801" points="901,28 901,28 912,39 912,41 901,52 901,52" stroke-linejoin="round" width="11" height="24" fill="rgb(212,79,72)" stroke="rgb(169,63,57)" stroke-width="1" opacity="0.75" />
			</g>
		</g>
		<g>
			<title>pokP2
PokP2</title>
			<polygon class="pokP2
PokP2" points="917,25 927,25 927,10 957,40 927,70 927,55 917,55" fill="rgb(255,255,255)" fill-opacity="1.0" stroke="rgb(0,0,0)" stroke-width="2"  />
			<g>
				<title>ketoacyl-synt (PF00109)
"Beta-ketoacyl synthase, N-terminal domain"</title>
				<rect class="PF00109" x="917" y="28" stroke-linejoin="round" width="24" height="24" fill="rgb(74,179,82)" stroke="rgb(59,143,65)" stroke-width="1" opacity="0.75" />
			</g>
			<g>
				<title>Ketoacyl-synt_C (PF02801)
"Beta-ketoacyl synthase, C-terminal domain"</title>
				<polygon class="PF02801" points="942,29 953,40 953,40 942,51" stroke-linejoin="round" width="11" height="24" fill="rgb(212,79,72)" stroke="rgb(169,63,57)" stroke-width="1" opacity="0.75" />
			</g>
		</g>
		<g>
			<title>pokP3
PokP3</title>
			<polygon class="pokP3
PokP3" points="960,10 968,40 960,70" fill="rgb(255,255,255)" fill-opacity="1.0" stroke="rgb(0,0,0)" stroke-width="2"  />
			<g>
				<title>PP-binding (PF00550)
"Phosphopantetheine attachment site"</title>
				<polygon class="PF00550" points="961,28 961,28 965,40 961,52 961,52" stroke-linejoin="round" width="6" height="24" fill="rgb(181,58,166)" stroke="rgb(144,46,132)" stroke-width="1" opacity="0.75" />
			</g>
		</g>
		<g>
			<title>pokAC1
PokAC1</title>
			<polygon class="pokAC1
PokAC1" points="968,25 996,25 996,10 1026,40 996,70 996,55 968,55" fill="rgb(255,255,255)" fill-opacity="1.0" stroke="rgb(0,0,0)" stroke-width="2"  />
			<g>
				<title>zf-ACC (PF17848)
"Acetyl-CoA carboxylase zinc finger domain"</title>
				<rect class="PF17848" x="969" y="28" stroke-linejoin="round" width="2" height="24" fill="rgb(77,99,220)" stroke="rgb(61,79,176)" stroke-width="1" opacity="0.75" />
			</g>
			<g>
				<title>Carboxyl_trans (PF01039)
"Carboxyl transferase domain"</title>
				<polygon class="PF01039" points="974,28 1009,28 1020,39 1020,41 1009,52 974,52" stroke-linejoin="round" width="46" height="24" fill="rgb(185,80,158)" stroke="rgb(148,64,126)" stroke-width="1" opacity="0.75" />
			</g>
		</g>
		<g>
			<title>pokAC3
PokAC3</title>
			<polygon class="pokAC3
PokAC3" points="1026,10 1043,40 1026,70" fill="rgb(255,255,255)" fill-opacity="1.0" stroke="rgb(0,0,0)" stroke-width="2"  />
			<g>
				<title>Biotin_lipoyl (PF00364)
"Biotin-requiring enzyme"</title>
				<polygon class="PF00364" points="1035,31 1040,40 1035,49" stroke-linejoin="round" width="7" height="24" fill="rgb(99,229,97)" stroke="rgb(79,183,77)" stroke-width="1" opacity="0.75" />
			</g>
		</g>
		<g>
			<title>pokAC2
PokAC2</title>
			<polygon class="pokAC2
PokAC2" points="1044,25 1061,25 1061,10 1091,40 1061,70 1061,55 1044,55" fill="rgb(255,255,255)" fill-opacity="1.0" stroke="rgb(0,0,0)" stroke-width="2"  />
			<g>
				<title>Biotin_carb_N (PF00289)
"Biotin carboxylase, N-terminal domain"</title>
				<rect class="PF00289" x="1044" y="28" stroke-linejoin="round" width="10" height="24" fill="rgb(226,88,113)" stroke="rgb(180,70,90)" stroke-width="1" opacity="0.75" />
			</g>
			<g>
				<title>CPSase_L_D2 (PF02786)
"Carbamoyl-phosphate synthase L chain, ATP binding domain"</title>
				<polygon class="PF02786" points="1055,28 1074,28 1075,29 1075,51 1074,52 1055,52" stroke-linejoin="round" width="20" height="24" fill="rgb(215,220,78)" stroke="rgb(172,176,62)" stroke-width="1" opacity="0.75" />
			</g>
			<g>
				<title>Biotin_carb_C (PF02785)
"Biotin carboxylase C-terminal domain"</title>
				<polygon class="PF02785" points="1077,31 1086,40 1077,49" stroke-linejoin="round" width="10" height="24" fill="rgb(209,64,211)" stroke="rgb(167,51,168)" stroke-width="1" opacity="0.75" />
			</g>
		</g>
		<g>
			<title>pokS1
PokS1</title>
			<polygon class="pokS1
PokS1" points="1092,25 1097,25 1097,10 1127,40 1097,70 1097,55 1092,55" fill="rgb(255,255,255)" fill-opacity="1.0" stroke="rgb(0,0,0)" stroke-width="2"  />
			<g>
				<title>NTP_transferase (PF00483)
"Nucleotidyl transferase"</title>
				<polygon class="PF00483" points="1092,28 1111,28 1115,32 1115,48 1111,52 1092,52" stroke-linejoin="round" width="23" height="24" fill="rgb(211,145,90)" stroke="rgb(168,116,72)" stroke-width="1" opacity="0.75" />
			</g>
		</g>
		<g>
			<title>pokS2
PokS2</title>
			<polygon class="pokS2
PokS2" points="1127,25 1130,25 1130,10 1160,40 1130,70 1130,55 1127,55" fill="rgb(255,255,255)" fill-opacity="1.0" stroke="rgb(0,0,0)" stroke-width="2"  />
			<g>
				<title>GDP_Man_Dehyd (PF16363)
"GDP-mannose 4,6 dehydratase"</title>
				<polygon class="PF16363" points="1127,28 1143,28 1155,40 1143,52 1127,52" stroke-linejoin="round" width="29" height="24" fill="rgb(50,144,195)" stroke="rgb(40,115,156)" stroke-width="1" opacity="0.75" />
			</g>
		</g>
		<g>
			<title>pokR2
PokR2</title>
			<polygon class="pokR2
PokR2" points="1167,10 1194,40 1167,70" fill="rgb(255,255,255)" fill-opacity="1.0" stroke="rgb(0,0,0)" stroke-width="2"  />
			<g>
				<title>Trans_reg_C (PF00486)
"Transcriptional regulatory protein, C terminal"</title>
				<rect class="PF00486" x="1168" y="28" stroke-linejoin="round" width="8" height="24" fill="rgb(69,185,116)" stroke="rgb(55,148,92)" stroke-width="1" opacity="0.75" />
			</g>
			<g>
				<title>BTAD (PF03704)
"Bacterial transcriptional activator domain"</title>
				<polygon class="PF03704" points="1177,28 1178,28 1190,40 1178,52 1177,52" stroke-linejoin="round" width="14" height="24" fill="rgb(174,224,58)" stroke="rgb(139,179,46)" stroke-width="1" opacity="0.75" />
			</g>
		</g>
		<g>
			<title>pokMT2
PokMT2</title>
			<polygon class="pokMT2
PokMT2" points="1233,25 1229,25 1229,10 1199,40 1229,70 1229,55 1233,55" fill="rgb(255,255,255)" fill-opacity="1.0" stroke="rgb(0,0,0)" stroke-width="2"  />
			<g>
				<title>Methyltransf_2 (PF00891)
"O-methyltransferase domain"</title>
				<polygon class="PF00891" points="1203,40 1215,28 1221,28 1221,52 1215,52" stroke-linejoin="round" width="20" height="24" fill="rgb(91,124,224)" stroke="rgb(72,99,179)" stroke-width="1" opacity="0.75" />
			</g>
		</g>
		<g>
			<title>pokT1
PokT1</title>
			<polygon class="pokT1
PokT1" points="1248,10 1274,40 1248,70" fill="rgb(255,255,255)" fill-opacity="1.0" stroke="rgb(0,0,0)" stroke-width="2"  />
			<g>
				<title>adh_short_C2 (PF13561)
"Enoyl-(Acyl carrier protein) reductase"</title>
				<polygon class="PF13561" points="1250,28 1260,28 1270,40 1260,52 1250,52" stroke-linejoin="round" width="23" height="24" fill="rgb(79,221,209)" stroke="rgb(63,176,167)" stroke-width="1" opacity="0.75" />
			</g>
		</g>
		<g>
			<title>pokO1
PokO1</title>
			<polygon class="pokO1
PokO1" points="1274,25 1285,25 1285,10 1315,40 1285,70 1285,55 1274,55" fill="rgb(255,255,255)" fill-opacity="1.0" stroke="rgb(0,0,0)" stroke-width="2"  />
			<g>
				<title>FAD_binding_3 (PF01494)
"FAD binding domain"</title>
				<polygon class="PF01494" points="1274,28 1298,28 1308,38 1308,42 1298,52 1274,52" stroke-linejoin="round" width="34" height="24" fill="rgb(215,66,156)" stroke="rgb(172,52,124)" stroke-width="1" opacity="0.75" />
			</g>
		</g>
		<g>
			<title>pokC2
PokC2</title>
			<polygon class="pokC2
PokC2" points="1316,10 1342,40 1316,70" fill="rgb(255,255,255)" fill-opacity="1.0" stroke="rgb(0,0,0)" stroke-width="2"  />
			<g>
				<title>Cyclase (PF04199)
"Putative cyclase"</title>
				<polygon class="PF04199" points="1316,28 1328,28 1334,36 1334,44 1328,52 1316,52" stroke-linejoin="round" width="18" height="24" fill="rgb(145,90,187)" stroke="rgb(115,72,149)" stroke-width="1" opacity="0.75" />
			</g>
		</g>
		<g>
			<title>pokMT3
PokMT3</title>
			<polygon class="pokMT3
PokMT3" points="1342,25 1349,25 1349,10 1379,40 1349,70 1349,55 1342,55" fill="rgb(255,255,255)" fill-opacity="1.0" stroke="rgb(0,0,0)" stroke-width="2"  />
			<g>
				<title>Methyltransf_2 (PF00891)
"O-methyltransferase domain"</title>
				<polygon class="PF00891" points="1356,28 1362,28 1374,40 1362,52 1356,52" stroke-linejoin="round" width="20" height="24" fill="rgb(91,124,224)" stroke="rgb(72,99,179)" stroke-width="1" opacity="0.75" />
			</g>
		</g>
		<g>
			<title>pokC1
PokC1</title>
			<polygon class="pokC1
PokC1" points="1383,10 1398,40 1383,70" fill="rgb(255,255,255)" fill-opacity="1.0" stroke="rgb(0,0,0)" stroke-width="2"  />
			<g>
				<title>SnoaL_4 (PF13577)
"SnoaL-like domain"</title>
				<polygon class="PF13577" points="1384,28 1388,28 1394,40 1388,52 1384,52" stroke-linejoin="round" width="12" height="24" fill="rgb(58,198,190)" stroke="rgb(46,158,152)" stroke-width="1" opacity="0.75" />
			</g>
		</g>
		<g>
			<title>pokO3
PokO3</title>
			<polygon class="pokO3
PokO3" points="1401,40 1412,10 1412,70" fill="rgb(255,255,255)" fill-opacity="1.0" stroke="rgb(0,0,0)" stroke-width="2"  />
			<g>
				<title>ABM (PF03992)
"Antibiotic biosynthesis monooxygenase"</title>
				<polygon class="PF03992" points="1404,40 1408,28 1410,28 1410,52 1408,52" stroke-linejoin="round" width="7" height="24" fill="rgb(211,55,142)" stroke="rgb(168,44,113)" stroke-width="1" opacity="0.75" />
			</g>
		</g>
		<g>
			<title>pokL
PokL</title>
			<polygon class="pokL
PokL" points="1461,25 1442,25 1442,10 1412,40 1442,70 1442,55 1461,55" fill="rgb(255,255,255)" fill-opacity="1.0" stroke="rgb(0,0,0)" stroke-width="2"  />
			<g>
				<title>AMP-binding_C (PF13193)
"AMP-binding enzyme C-terminal domain"</title>
				<polygon class="PF13193" points="1416,40 1420,36 1420,44" stroke-linejoin="round" width="7" height="24" fill="rgb(195,82,106)" stroke="rgb(156,65,84)" stroke-width="1" opacity="0.75" />
			</g>
			<g>
				<title>AMP-binding (PF00501)
"AMP-binding enzyme"</title>
				<polygon class="PF00501" points="1426,30 1428,28 1459,28 1459,52 1428,52 1426,50" stroke-linejoin="round" width="33" height="24" fill="rgb(189,78,204)" stroke="rgb(151,62,163)" stroke-width="1" opacity="0.75" />
			</g>
		</g>
		<g>
			<title>pokC3
PokC3</title>
			<polygon class="pokC3
PokC3" points="1492,25 1491,25 1491,10 1461,40 1491,70 1491,55 1492,55" fill="rgb(255,255,255)" fill-opacity="1.0" stroke="rgb(0,0,0)" stroke-width="2"  />
			<g>
				<title>Polyketide_cyc2 (PF10604)
"Polyketide cyclase / dehydrase and lipid transport"</title>
				<rect class="PF10604" x="1478" y="28" stroke-linejoin="round" width="13" height="24" fill="rgb(170,214,69)" stroke="rgb(136,171,55)" stroke-width="1" opacity="0.75" />
			</g>
		</g>
		<g>
			<title>pokT2
PokT2</title>
			<polygon class="pokT2
PokT2" points="1494,40 1519,10 1519,70" fill="rgb(255,255,255)" fill-opacity="1.0" stroke="rgb(0,0,0)" stroke-width="2"  />
			<g>
				<title>adh_short_C2 (PF13561)
"Enoyl-(Acyl carrier protein) reductase"</title>
				<polygon class="PF13561" points="1498,40 1508,28 1517,28 1517,52 1508,52" stroke-linejoin="round" width="23" height="24" fill="rgb(79,221,209)" stroke="rgb(63,176,167)" stroke-width="1" opacity="0.75" />
			</g>
		</g>
		<g>
			<title>pokO2
PokO2</title>
			<polygon class="pokO2
PokO2" points="1574,25 1550,25 1550,10 1520,40 1550,70 1550,55 1574,55" fill="rgb(255,255,255)" fill-opacity="1.0" stroke="rgb(0,0,0)" stroke-width="2"  />
			<g>
				<title>FAD_binding_3 (PF01494)
"FAD binding domain"</title>
				<rect class="PF01494" x="1539" y="28" stroke-linejoin="round" width="33" height="24" fill="rgb(215,66,156)" stroke="rgb(172,52,124)" stroke-width="1" opacity="0.75" />
			</g>
		</g>
		<g>
			<title>pokO4
PokO4</title>
			<polygon class="pokO4
PokO4" points="1586,25 1606,25 1606,10 1636,40 1606,70 1606,55 1586,55" fill="rgb(255,255,255)" fill-opacity="1.0" stroke="rgb(0,0,0)" stroke-width="2"  />
			<g>
				<title>FAD_binding_3 (PF01494)
"FAD binding domain"</title>
				<rect class="PF01494" x="1586" y="28" stroke-linejoin="round" width="33" height="24" fill="rgb(215,66,156)" stroke="rgb(172,52,124)" stroke-width="1" opacity="0.75" />
			</g>
			<g>
				<title>Rng_hyd_C (PF21274)
"Aromatic-ring hydroxylase, C-terminal"</title>
				<polygon class="PF21274" points="1625,33 1632,40 1625,47" stroke-linejoin="round" width="9" height="24" fill="rgb(153,227,106)" stroke="rgb(122,181,84)" stroke-width="1" opacity="0.75" />
			</g>
		</g>
		<g>
			<title>pokS7
PokS7</title>
			<polygon class="pokS7
PokS7" points="1637,10 1657,40 1637,70" fill="rgb(255,255,255)" fill-opacity="1.0" stroke="rgb(0,0,0)" stroke-width="2"  />
			<g>
				<title>dTDP_sugar_isom (PF00908)
"dTDP-4-dehydrorhamnose 3,5-epimerase"</title>
				<polygon class="PF00908" points="1637,28 1645,28 1653,40 1645,52 1637,52" stroke-linejoin="round" width="17" height="24" fill="rgb(135,62,227)" stroke="rgb(108,49,181)" stroke-width="1" opacity="0.75" />
			</g>
		</g>
		<g>
			<title>pokS9
PokS9</title>
			<polygon class="pokS9
PokS9" points="1657,25 1659,25 1659,10 1689,40 1659,70 1659,55 1657,55" fill="rgb(255,255,255)" fill-opacity="1.0" stroke="rgb(0,0,0)" stroke-width="2"  />
			<g>
				<title>Epimerase (PF01370)
"NAD dependent epimerase/dehydratase family"</title>
				<polygon class="PF01370" points="1658,28 1672,28 1680,36 1680,44 1672,52 1658,52" stroke-linejoin="round" width="22" height="24" fill="rgb(215,89,157)" stroke="rgb(172,71,125)" stroke-width="1" opacity="0.75" />
			</g>
		</g>
		<g>
			<title>pokU3
PokU3</title>
			<polygon class="pokU3
PokU3" points="1697,25 1699,25 1699,10 1729,40 1699,70 1699,55 1697,55" fill="rgb(255,255,255)" fill-opacity="1.0" stroke="rgb(0,0,0)" stroke-width="2"  />
			<g>
				<title>Acyl-CoA_dh_N (PF02771)
"Acyl-CoA dehydrogenase, N-terminal domain"</title>
				<rect class="PF02771" x="1697" y="28" stroke-linejoin="round" width="11" height="24" fill="rgb(104,198,213)" stroke="rgb(83,158,170)" stroke-width="1" opacity="0.75" />
			</g>
			<g>
				<title>Acyl-CoA_dh_M (PF02770)
"Acyl-CoA dehydrogenase, middle domain"</title>
				<polygon class="PF02770" points="1709,28 1713,28 1718,33 1718,47 1713,52 1709,52" stroke-linejoin="round" width="9" height="24" fill="rgb(58,129,192)" stroke="rgb(46,103,153)" stroke-width="1" opacity="0.75" />
			</g>
			<g>
				<title>Acyl-CoA_dh_1 (PF00441)
"Acyl-CoA dehydrogenase, C-terminal domain"</title>
				<polygon class="PF00441" points="1719,34 1725,40 1719,46" stroke-linejoin="round" width="9" height="24" fill="rgb(96,175,206)" stroke="rgb(76,139,164)" stroke-width="1" opacity="0.75" />
			</g>
		</g>
		<g>
			<title>pokX1
PokX1</title>
			<polygon class="pokX1
PokX1" points="1739,10 1748,40 1739,70" fill="rgb(255,255,255)" fill-opacity="1.0" stroke="rgb(0,0,0)" stroke-width="2"  />
			<g>
				<title>MPAB_Lcp_cat (PF09995)
"ER-bound oxygenase mpaB/B'/Rubber oxygenase, catalytic domain"</title>
				<polygon class="PF09995" points="1740,28 1741,28 1745,40 1741,52 1740,52" stroke-linejoin="round" width="7" height="24" fill="rgb(200,204,53)" stroke="rgb(160,163,42)" stroke-width="1" opacity="0.75" />
			</g>
		</g>
	</g>
</svg>
