<svg version="1.1" baseProfile="full" xmlns="http://www.w3.org/2000/svg" width="918.4333333333333" height="80">
	<g>
		<line x1="10" y1="40.0" x2="908.4333333333333" y2="40.0" style="stroke:rgb(70,70,70); stroke-width:3 "/>
		<g>
			<title>mip
putative macrophage infectivity potentiator</title>
			<polygon class="mip
putative macrophage infectivity potentiator" points="10,40 27,10 27,70" fill="rgb(255,255,255)" fill-opacity="1.0" stroke="rgb(0,0,0)" stroke-width="2"  />
			<g>
				<title>FKBP_C (PF00254)
"FKBP-type peptidyl-prolyl cis-trans isomerase"</title>
				<polygon class="PF00254" points="13,40 13,40 13,40" stroke-linejoin="round" width="3" height="24" fill="rgb(178,176,45)" stroke="rgb(142,140,36)" stroke-width="1" opacity="0.75" />
			</g>
			<g>
				<title>FKBP_N (PF01346)
"Domain amino terminal to FKBP-type peptidyl-prolyl isomerase"</title>
				<polygon class="PF01346" points="14,38 20,28 23,28 23,52 20,52 14,42" stroke-linejoin="round" width="9" height="24" fill="rgb(73,178,108)" stroke="rgb(58,142,86)" stroke-width="1" opacity="0.75" />
			</g>
		</g>
		<g>
			<title>wzc
protein tyrosine kinase</title>
			<polygon class="wzc
protein tyrosine kinase" points="105,25 63,25 63,10 33,40 63,70 63,55 105,55" fill="rgb(255,255,255)" fill-opacity="1.0" stroke="rgb(0,0,0)" stroke-width="2"  />
			<g>
				<title>AAA_31 (PF13614)
"AAA domain"</title>
				<polygon class="PF13614" points="37,40 49,28 52,28 52,52 49,52" stroke-linejoin="round" width="16" height="24" fill="rgb(103,181,56)" stroke="rgb(82,144,44)" stroke-width="1" opacity="0.75" />
			</g>
			<g>
				<title>GNVR (PF13807)
"G-rich domain on putative tyrosine kinase"</title>
				<rect class="PF13807" x="59" y="28" stroke-linejoin="round" width="8" height="24" fill="rgb(214,163,91)" stroke="rgb(171,130,72)" stroke-width="1" opacity="0.75" />
			</g>
			<g>
				<title>Wzz (PF02706)
"Chain length determinant protein"</title>
				<rect class="PF02706" x="95" y="28" stroke-linejoin="round" width="9" height="24" fill="rgb(216,77,57)" stroke="rgb(172,61,45)" stroke-width="1" opacity="0.75" />
			</g>
		</g>
		<g>
			<title>wzb
putative protein tyrosine phosphatase</title>
			<polygon class="wzb
putative protein tyrosine phosphatase" points="107,40 121,10 121,70" fill="rgb(255,255,255)" fill-opacity="1.0" stroke="rgb(0,0,0)" stroke-width="2"  />
			<g>
				<title>LMWPc (PF01451)
"Low molecular weight phosphotyrosine protein phosphatase"</title>
				<polygon class="PF01451" points="110,40 116,28 120,28 120,52 116,52" stroke-linejoin="round" width="13" height="24" fill="rgb(105,179,85)" stroke="rgb(84,143,68)" stroke-width="1" opacity="0.75" />
			</g>
		</g>
		<g>
			<title>wza
putative outer membrane protein</title>
			<polygon class="wza
putative outer membrane protein" points="157,25 151,25 151,10 121,40 151,70 151,55 157,55" fill="rgb(255,255,255)" fill-opacity="1.0" stroke="rgb(0,0,0)" stroke-width="2"  />
			<g>
				<title>Poly_export (PF02563)
"Polysaccharide biosynthesis/export protein"</title>
				<rect class="PF02563" x="141" y="28" stroke-linejoin="round" width="9" height="24" fill="rgb(219,92,156)" stroke="rgb(175,73,124)" stroke-width="1" opacity="0.75" />
			</g>
		</g>
		<g>
			<title>weeA
putative UDP-N-acetylglucosamine 2-epimerase</title>
			<polygon class="weeA
putative UDP-N-acetylglucosamine 2-epimerase" points="178,25 185,25 185,10 215,40 185,70 185,55 178,55" fill="rgb(255,255,255)" fill-opacity="1.0" stroke="rgb(0,0,0)" stroke-width="2"  />
			<g>
				<title>Epimerase_2 (PF02350)
"UDP-N-acetylglucosamine 2-epimerase"</title>
				<polygon class="PF02350" points="180,28 199,28 211,40 199,52 180,52" stroke-linejoin="round" width="34" height="24" fill="rgb(227,99,124)" stroke="rgb(181,79,99)" stroke-width="1" opacity="0.75" />
			</g>
		</g>
		<g>
			<title>weeB
putative NDP-N-acetyl-D-galactosaminuronic acid dehydrogenase</title>
			<polygon class="weeB
putative NDP-N-acetyl-D-galactosaminuronic acid dehydrogenase" points="217,25 228,25 228,10 258,40 228,70 228,55 217,55" fill="rgb(255,255,255)" fill-opacity="1.0" stroke="rgb(0,0,0)" stroke-width="2"  />
			<g>
				<title>UDPG_MGDP_dh_N (PF03721)
"UDP-glucose/GDP-mannose dehydrogenase family, NAD binding domain"</title>
				<rect class="PF03721" x="217" y="28" stroke-linejoin="round" width="18" height="24" fill="rgb(63,215,56)" stroke="rgb(50,172,44)" stroke-width="1" opacity="0.75" />
			</g>
			<g>
				<title>UDPG_MGDP_dh (PF00984)
"UDP-glucose/GDP-mannose dehydrogenase family, central domain"</title>
				<polygon class="PF00984" points="237,28 242,28 245,31 245,49 242,52 237,52" stroke-linejoin="round" width="8" height="24" fill="rgb(171,213,56)" stroke="rgb(136,170,44)" stroke-width="1" opacity="0.75" />
			</g>
			<g>
				<title>UDPG_MGDP_dh_C (PF03720)
"UDP-glucose/GDP-mannose dehydrogenase family, UDP binding domain"</title>
				<polygon class="PF03720" points="249,35 254,40 249,45" stroke-linejoin="round" width="9" height="24" fill="rgb(78,165,180)" stroke="rgb(62,132,144)" stroke-width="1" opacity="0.75" />
			</g>
		</g>
		<g>
			<title>weeC
putative galactoside acetyltransferase</title>
			<polygon class="weeC
putative galactoside acetyltransferase" points="259,10 277,40 259,70" fill="rgb(255,255,255)" fill-opacity="1.0" stroke="rgb(0,0,0)" stroke-width="2"  />
		</g>
		<g>
			<title>wzx
putative emulsan repeating unit flippase</title>
			<polygon class="wzx
putative emulsan repeating unit flippase" points="277,25 287,25 287,10 317,40 287,70 287,55 277,55" fill="rgb(255,255,255)" fill-opacity="1.0" stroke="rgb(0,0,0)" stroke-width="2"  />
		</g>
		<g>
			<title>wzy
putative emulsan repeating unit polymerase</title>
			<polygon class="wzy
putative emulsan repeating unit polymerase" points="318,25 331,25 331,10 361,40 331,70 331,55 318,55" fill="rgb(255,255,255)" fill-opacity="1.0" stroke="rgb(0,0,0)" stroke-width="2"  />
			<g>
				<title>O-ag_pol_Wzy (PF14296)
"O-antigen polysaccharide polymerase Wzy"</title>
				<polygon class="PF14296" points="318,28 345,28 357,40 345,52 318,52" stroke-linejoin="round" width="42" height="24" fill="rgb(204,93,196)" stroke="rgb(163,74,156)" stroke-width="1" opacity="0.75" />
			</g>
		</g>
		<g>
			<title>weeD
putative glycosyl transferase</title>
			<polygon class="weeD
putative glycosyl transferase" points="361,25 363,25 363,10 393,40 363,70 363,55 361,55" fill="rgb(255,255,255)" fill-opacity="1.0" stroke="rgb(0,0,0)" stroke-width="2"  />
		</g>
		<g>
			<title>weeE
unknown</title>
			<polygon class="weeE
unknown" points="393,25 434,25 434,10 464,40 434,70 434,55 393,55" fill="rgb(255,255,255)" fill-opacity="1.0" stroke="rgb(0,0,0)" stroke-width="2"  />
			<g>
				<title>ADH_zinc_N (PF00107)
"Zinc-binding dehydrogenase"</title>
				<rect class="PF00107" x="410" y="28" stroke-linejoin="round" width="12" height="24" fill="rgb(79,114,198)" stroke="rgb(63,91,158)" stroke-width="1" opacity="0.75" />
			</g>
			<g>
				<title>GFO_IDH_MocA (PF01408)
"Oxidoreductase family, NAD-binding Rossmann fold"</title>
				<rect class="PF01408" x="432" y="28" stroke-linejoin="round" width="12" height="24" fill="rgb(53,193,178)" stroke="rgb(42,154,142)" stroke-width="1" opacity="0.75" />
			</g>
			<g>
				<title>GFO_IDH_MocA_C (PF02894)
"Oxidoreductase family, C-terminal alpha/beta domain"</title>
				<polygon class="PF02894" points="445,28 448,28 455,35 455,45 448,52 445,52" stroke-linejoin="round" width="10" height="24" fill="rgb(89,185,176)" stroke="rgb(71,148,140)" stroke-width="1" opacity="0.75" />
			</g>
		</g>
		<g>
			<title>weeF</title>
			<polygon class="weeF" points="464,25 494,25 494,10 524,40 494,70 494,55 464,55" fill="rgb(255,255,255)" fill-opacity="1.0" stroke="rgb(0,0,0)" stroke-width="2"  />
			<g>
				<title>Hepar_II_III_N (PF16889)
"Heparinase II/III N-terminus"</title>
				<rect class="PF16889" x="471" y="28" stroke-linejoin="round" width="26" height="24" fill="rgb(107,87,195)" stroke="rgb(85,69,156)" stroke-width="1" opacity="0.75" />
			</g>
			<g>
				<title>Hepar_II_III (PF07940)
"Heparinase II/III-like protein"</title>
				<polygon class="PF07940" points="502,28 508,28 520,40 508,52 502,52" stroke-linejoin="round" width="21" height="24" fill="rgb(197,98,110)" stroke="rgb(157,78,88)" stroke-width="1" opacity="0.75" />
			</g>
		</g>
		<g>
			<title>weeG
putative glycosyltransferase</title>
			<polygon class="weeG
putative glycosyltransferase" points="525,25 535,25 535,10 565,40 535,70 535,55 525,55" fill="rgb(255,255,255)" fill-opacity="1.0" stroke="rgb(0,0,0)" stroke-width="2"  />
			<g>
				<title>Glyco_trans_4_4 (PF13579)
"Glycosyl transferase 4-like domain"</title>
				<rect class="PF13579" x="526" y="28" stroke-linejoin="round" width="18" height="24" fill="rgb(109,95,198)" stroke="rgb(87,76,158)" stroke-width="1" opacity="0.75" />
			</g>
			<g>
				<title>Glycos_transf_1 (PF00534)
"Glycosyl transferases group 1"</title>
				<polygon class="PF00534" points="545,28 549,28 561,40 549,52 545,52" stroke-linejoin="round" width="17" height="24" fill="rgb(66,178,218)" stroke="rgb(52,142,174)" stroke-width="1" opacity="0.75" />
			</g>
		</g>
		<g>
			<title>weeH
putative UDP-galactose phosphate transferase</title>
			<polygon class="weeH
putative UDP-galactose phosphate transferase" points="565,10 585,40 565,70" fill="rgb(255,255,255)" fill-opacity="1.0" stroke="rgb(0,0,0)" stroke-width="2"  />
			<g>
				<title>Bac_transf (PF02397)
"Bacterial sugar transferase"</title>
				<polygon class="PF02397" points="565,28 573,28 581,40 573,52 565,52" stroke-linejoin="round" width="17" height="24" fill="rgb(100,199,213)" stroke="rgb(80,159,170)" stroke-width="1" opacity="0.75" />
			</g>
		</g>
		<g>
			<title>weeI
putative acetyltransferase</title>
			<polygon class="weeI
putative acetyltransferase" points="585,10 606,40 585,70" fill="rgb(255,255,255)" fill-opacity="1.0" stroke="rgb(0,0,0)" stroke-width="2"  />
			<g>
				<title>PglD_N (PF17836)
"PglD N-terminal domain"</title>
				<rect class="PF17836" x="585" y="28" stroke-linejoin="round" width="7" height="24" fill="rgb(63,194,81)" stroke="rgb(50,155,64)" stroke-width="1" opacity="0.75" />
			</g>
		</g>
		<g>
			<title>weeJ
putative amino-transferase</title>
			<polygon class="weeJ
putative amino-transferase" points="608,25 617,25 617,10 647,40 617,70 617,55 608,55" fill="rgb(255,255,255)" fill-opacity="1.0" stroke="rgb(0,0,0)" stroke-width="2"  />
			<g>
				<title>DegT_DnrJ_EryC1 (PF01041)
"DegT/DnrJ/EryC1/StrS aminotransferase family"</title>
				<polygon class="PF01041" points="609,28 630,28 642,40 630,52 609,52" stroke-linejoin="round" width="37" height="24" fill="rgb(228,110,183)" stroke="rgb(182,88,146)" stroke-width="1" opacity="0.75" />
			</g>
		</g>
		<g>
			<title>weeK
putative dTDP-glucose-4,6-dehydratase</title>
			<polygon class="weeK
putative dTDP-glucose-4,6-dehydratase" points="652,25 684,25 684,10 714,40 684,70 684,55 652,55" fill="rgb(255,255,255)" fill-opacity="1.0" stroke="rgb(0,0,0)" stroke-width="2"  />
			<g>
				<title>CoA_binding_3 (PF13727)
"CoA-binding domain"</title>
				<rect class="PF13727" x="658" y="28" stroke-linejoin="round" width="17" height="24" fill="rgb(115,219,79)" stroke="rgb(92,175,63)" stroke-width="1" opacity="0.75" />
			</g>
			<g>
				<title>Polysacc_synt_2 (PF02719)
"Polysaccharide biosynthesis protein"</title>
				<polygon class="PF02719" points="680,28 698,28 709,39 709,41 698,52 680,52" stroke-linejoin="round" width="29" height="24" fill="rgb(177,81,206)" stroke="rgb(141,64,164)" stroke-width="1" opacity="0.75" />
			</g>
		</g>
		<g>
			<title>galU
putative UTP-glucose-1-phosphate uridylyltransferase</title>
			<polygon class="galU
putative UTP-glucose-1-phosphate uridylyltransferase" points="715,10 744,40 715,70" fill="rgb(255,255,255)" fill-opacity="1.0" stroke="rgb(0,0,0)" stroke-width="2"  />
			<g>
				<title>NTP_transferase (PF00483)
"Nucleotidyl transferase"</title>
				<polygon class="PF00483" points="715,28 728,28 740,40 728,52 715,52" stroke-linejoin="round" width="26" height="24" fill="rgb(211,145,90)" stroke="rgb(168,116,72)" stroke-width="1" opacity="0.75" />
			</g>
		</g>
		<g>
			<title>ugd
putative UDP-glucose dehydrogenase</title>
			<polygon class="ugd
putative UDP-glucose dehydrogenase" points="745,25 756,25 756,10 786,40 756,70 756,55 745,55" fill="rgb(255,255,255)" fill-opacity="1.0" stroke="rgb(0,0,0)" stroke-width="2"  />
			<g>
				<title>UDPG_MGDP_dh (PF00984)
"UDP-glucose/GDP-mannose dehydrogenase family, central domain"</title>
				<polygon class="PF00984" points="763,28 770,28 772,30 772,50 770,52 763,52" stroke-linejoin="round" width="9" height="24" fill="rgb(171,213,56)" stroke="rgb(136,170,44)" stroke-width="1" opacity="0.75" />
			</g>
			<g>
				<title>UDPG_MGDP_dh_C (PF03720)
"UDP-glucose/GDP-mannose dehydrogenase family, UDP binding domain"</title>
				<polygon class="PF03720" points="774,32 782,40 774,48" stroke-linejoin="round" width="10" height="24" fill="rgb(78,165,180)" stroke="rgb(62,132,144)" stroke-width="1" opacity="0.75" />
			</g>
		</g>
		<g>
			<title>pgi
putative phosphoglucose isomerase</title>
			<polygon class="pgi
putative phosphoglucose isomerase" points="786,25 811,25 811,10 841,40 811,70 811,55 786,55" fill="rgb(255,255,255)" fill-opacity="1.0" stroke="rgb(0,0,0)" stroke-width="2"  />
			<g>
				<title>PGI (PF00342)
"Phosphoglucose isomerase"</title>
				<polygon class="PF00342" points="791,28 825,28 837,40 825,52 791,52" stroke-linejoin="round" width="49" height="24" fill="rgb(151,196,88)" stroke="rgb(120,156,70)" stroke-width="1" opacity="0.75" />
			</g>
		</g>
		<g>
			<title>galE
putative UDP-glucose 4-epimerase</title>
			<polygon class="galE
putative UDP-glucose 4-epimerase" points="842,25 845,25 845,10 875,40 845,70 845,55 842,55" fill="rgb(255,255,255)" fill-opacity="1.0" stroke="rgb(0,0,0)" stroke-width="2"  />
			<g>
				<title>Epimerase (PF01370)
"NAD dependent epimerase/dehydratase family"</title>
				<polygon class="PF01370" points="842,28 859,28 867,36 867,44 859,52 842,52" stroke-linejoin="round" width="25" height="24" fill="rgb(215,89,157)" stroke="rgb(172,71,125)" stroke-width="1" opacity="0.75" />
			</g>
		</g>
		<g>
			<title>pgm
putative phosphoglucomutase</title>
			<polygon class="pgm
putative phosphoglucomutase" points="907,25 907,25 907,10 877,40 907,70 907,55 907,55" fill="rgb(255,255,255)" fill-opacity="1.0" stroke="rgb(0,0,0)" stroke-width="2"  />
			<g>
				<title>PGM_PMM_IV (PF00408)
"Phosphoglucomutase/phosphomannomutase, C-terminal domain"</title>
				<polygon class="PF00408" points="881,40 884,37 884,43" stroke-linejoin="round" width="7" height="24" fill="rgb(179,205,74)" stroke="rgb(143,164,59)" stroke-width="1" opacity="0.75" />
			</g>
			<g>
				<title>PGM_PMM_III (PF02880)
"Phosphoglucomutase/phosphomannomutase, alpha/beta/alpha domain III"</title>
				<polygon class="PF02880" points="885,36 893,28 896,28 896,52 893,52 885,44" stroke-linejoin="round" width="11" height="24" fill="rgb(90,192,181)" stroke="rgb(72,153,144)" stroke-width="1" opacity="0.75" />
			</g>
			<g>
				<title>PGM_PMM_II (PF02879)
"Phosphoglucomutase/phosphomannomutase, alpha/beta/alpha domain II"</title>
				<rect class="PF02879" x="897" y="28" stroke-linejoin="round" width="10" height="24" fill="rgb(150,212,95)" stroke="rgb(120,169,76)" stroke-width="1" opacity="0.75" />
			</g>
		</g>
	</g>
</svg>
