<svg version="1.1" baseProfile="full" xmlns="http://www.w3.org/2000/svg" width="1137.7" height="80">
	<g>
		<line x1="10" y1="40.0" x2="1127.7" y2="40.0" style="stroke:rgb(70,70,70); stroke-width:3 "/>
		<g>
			<title> (SSCG_00149)
hypothetical protein</title>
			<polygon class=" (SSCG_00149)
hypothetical protein" points="10,10 17,40 10,70" fill="rgb(255,255,255)" fill-opacity="1.0" stroke="rgb(0,0,0)" stroke-width="2"  />
		</g>
		<g>
			<title> (SSCG_00150)
conserved hypothetical protein</title>
			<polygon class=" (SSCG_00150)
conserved hypothetical protein" points="26,25 53,25 53,10 83,40 53,70 53,55 26,55" fill="rgb(255,255,255)" fill-opacity="1.0" stroke="rgb(0,0,0)" stroke-width="2"  />
			<g>
				<title>TPP_enzyme_N (PF02776)
"Thiamine pyrophosphate enzyme, N-terminal TPP binding domain"</title>
				<rect class="PF02776" x="27" y="28" stroke-linejoin="round" width="11" height="24" fill="rgb(208,64,165)" stroke="rgb(166,51,132)" stroke-width="1" opacity="0.75" />
			</g>
			<g>
				<title>TPP_enzyme_M (PF00205)
"Thiamine pyrophosphate enzyme, central domain"</title>
				<rect class="PF00205" x="46" y="28" stroke-linejoin="round" width="14" height="24" fill="rgb(70,122,184)" stroke="rgb(56,97,147)" stroke-width="1" opacity="0.75" />
			</g>
			<g>
				<title>TPP_enzyme_C (PF02775)
"Thiamine pyrophosphate enzyme, C-terminal TPP binding domain"</title>
				<polygon class="PF02775" points="66,28 67,28 79,40 67,52 66,52" stroke-linejoin="round" width="14" height="24" fill="rgb(212,69,87)" stroke="rgb(169,55,69)" stroke-width="1" opacity="0.75" />
			</g>
		</g>
		<g>
			<title> (SSCG_00151)
conserved hypothetical protein</title>
			<polygon class=" (SSCG_00151)
conserved hypothetical protein" points="84,25 105,25 105,10 135,40 105,70 105,55 84,55" fill="rgb(255,255,255)" fill-opacity="1.0" stroke="rgb(0,0,0)" stroke-width="2"  />
			<g>
				<title>GATase_7 (PF13537)
"Glutamine amidotransferase domain"</title>
				<rect class="PF13537" x="90" y="28" stroke-linejoin="round" width="9" height="24" fill="rgb(102,71,204)" stroke="rgb(81,56,163)" stroke-width="1" opacity="0.75" />
			</g>
			<g>
				<title>Asn_synthase (PF00733)
"Asparagine synthase"</title>
				<polygon class="PF00733" points="106,28 119,28 122,31 122,49 119,52 106,52" stroke-linejoin="round" width="16" height="24" fill="rgb(200,91,135)" stroke="rgb(160,72,108)" stroke-width="1" opacity="0.75" />
			</g>
			<g>
				<title>Asn_synthase (PF00733)
"Asparagine synthase"</title>
				<polygon class="PF00733" points="122,31 131,40 122,49" stroke-linejoin="round" width="10" height="24" fill="rgb(200,91,135)" stroke="rgb(160,72,108)" stroke-width="1" opacity="0.75" />
			</g>
		</g>
		<g>
			<title> (SSCG_00152)
proclavaminate amidinohydrolase</title>
			<polygon class=" (SSCG_00152)
proclavaminate amidinohydrolase" points="141,25 142,25 142,10 172,40 142,70 142,55 141,55" fill="rgb(255,255,255)" fill-opacity="1.0" stroke="rgb(0,0,0)" stroke-width="2"  />
			<g>
				<title>Arginase (PF00491)
"Arginase family"</title>
				<polygon class="PF00491" points="144,28 156,28 168,40 156,52 144,52" stroke-linejoin="round" width="27" height="24" fill="rgb(192,133,57)" stroke="rgb(153,106,45)" stroke-width="1" opacity="0.75" />
			</g>
		</g>
		<g>
			<title> (SSCG_00153)
clavaminate synthase</title>
			<polygon class=" (SSCG_00153)
clavaminate synthase" points="173,25 175,25 175,10 205,40 175,70 175,55 173,55" fill="rgb(255,255,255)" fill-opacity="1.0" stroke="rgb(0,0,0)" stroke-width="2"  />
			<g>
				<title>TauD (PF02668)
"Taurine catabolism dioxygenase TauD, TfdA family"</title>
				<polygon class="PF02668" points="176,28 189,28 201,40 189,52 176,52" stroke-linejoin="round" width="26" height="24" fill="rgb(72,206,196)" stroke="rgb(57,164,156)" stroke-width="1" opacity="0.75" />
			</g>
		</g>
		<g>
			<title> (SSCG_00154)
glutamate N-acetyltransferase 2</title>
			<polygon class=" (SSCG_00154)
glutamate N-acetyltransferase 2" points="216,25 225,25 225,10 255,40 225,70 225,55 216,55" fill="rgb(255,255,255)" fill-opacity="1.0" stroke="rgb(0,0,0)" stroke-width="2"  />
			<g>
				<title>ArgJ (PF01960)
"ArgJ family"</title>
				<polygon class="PF01960" points="217,28 239,28 251,40 239,52 217,52" stroke-linejoin="round" width="38" height="24" fill="rgb(61,150,195)" stroke="rgb(48,120,156)" stroke-width="1" opacity="0.75" />
			</g>
		</g>
		<g>
			<title> (SSCG_00155)
conserved hypothetical protein</title>
			<polygon class=" (SSCG_00155)
conserved hypothetical protein" points="260,25 285,25 285,10 315,40 285,70 285,55 260,55" fill="rgb(255,255,255)" fill-opacity="1.0" stroke="rgb(0,0,0)" stroke-width="2"  />
			<g>
				<title>SBP_bac_5 (PF00496)
"Bacterial extracellular solute-binding proteins, family 5 Middle"</title>
				<polygon class="PF00496" points="267,28 299,28 306,35 306,45 299,52 267,52" stroke-linejoin="round" width="39" height="24" fill="rgb(178,74,116)" stroke="rgb(142,59,92)" stroke-width="1" opacity="0.75" />
			</g>
		</g>
		<g>
			<title> (SSCG_00156)
conserved hypothetical protein</title>
			<polygon class=" (SSCG_00156)
conserved hypothetical protein" points="386,25 372,25 372,10 342,40 372,70 372,55 386,55" fill="rgb(255,255,255)" fill-opacity="1.0" stroke="rgb(0,0,0)" stroke-width="2"  />
			<g>
				<title>HTH_1 (PF00126)
"Bacterial regulatory helix-turn-helix protein, lysR family"</title>
				<polygon class="PF00126" points="346,40 351,35 351,45 346,40" stroke-linejoin="round" width="5" height="24" fill="rgb(72,163,212)" stroke="rgb(57,130,169)" stroke-width="1" opacity="0.75" />
			</g>
			<g>
				<title>LysR_substrate (PF03466)
"LysR substrate binding domain"</title>
				<polygon class="PF03466" points="357,29 358,28 375,28 375,52 358,52 357,51" stroke-linejoin="round" width="18" height="24" fill="rgb(214,62,213)" stroke="rgb(171,49,170)" stroke-width="1" opacity="0.75" />
			</g>
		</g>
		<g>
			<title> (SSCG_00157)
conserved hypothetical protein</title>
			<polygon class=" (SSCG_00157)
conserved hypothetical protein" points="396,40 420,10 420,70" fill="rgb(255,255,255)" fill-opacity="1.0" stroke="rgb(0,0,0)" stroke-width="2"  />
			<g>
				<title>adh_short (PF00106)
"short chain dehydrogenase"</title>
				<polygon class="PF00106" points="400,40 410,28 419,28 419,52 410,52 400,40" stroke-linejoin="round" width="19" height="24" fill="rgb(128,81,196)" stroke="rgb(102,64,156)" stroke-width="1" opacity="0.75" />
			</g>
		</g>
		<g>
			<title> (SSCG_00158)
cytochrome P450-SU2</title>
			<polygon class=" (SSCG_00158)
cytochrome P450-SU2" points="434,25 444,25 444,10 474,40 444,70 444,55 434,55" fill="rgb(255,255,255)" fill-opacity="1.0" stroke="rgb(0,0,0)" stroke-width="2"  />
			<g>
				<title>p450 (PF00067)
"Cytochrome P450"</title>
				<polygon class="PF00067" points="437,28 458,28 470,40 458,52 437,52" stroke-linejoin="round" width="34" height="24" fill="rgb(195,210,54)" stroke="rgb(155,168,43)" stroke-width="1" opacity="0.75" />
			</g>
		</g>
		<g>
			<title> (SSCG_00159)
ferredoxin</title>
			<polygon class=" (SSCG_00159)
ferredoxin" points="476,10 482,40 476,70" fill="rgb(255,255,255)" fill-opacity="1.0" stroke="rgb(0,0,0)" stroke-width="2"  />
			<g>
				<title>Fer4_13 (PF13370)
"4Fe-4S single cluster domain of Ferredoxin I"</title>
				<polygon class="PF13370" points="476,28 476,28 479,40 476,52 476,52" stroke-linejoin="round" width="5" height="24" fill="rgb(72,194,54)" stroke="rgb(57,155,43)" stroke-width="1" opacity="0.75" />
			</g>
		</g>
		<g>
			<title> (SSCG_00160)
beta-lactamase</title>
			<polygon class=" (SSCG_00160)
beta-lactamase" points="490,25 505,25 505,10 535,40 505,70 505,55 490,55" fill="rgb(255,255,255)" fill-opacity="1.0" stroke="rgb(0,0,0)" stroke-width="2"  />
			<g>
				<title>ORF_12_N (PF18042)
"ORF 12 gene product N-terminal"</title>
				<rect class="PF18042" x="492" y="28" stroke-linejoin="round" width="9" height="24" fill="rgb(169,93,196)" stroke="rgb(135,74,156)" stroke-width="1" opacity="0.75" />
			</g>
			<g>
				<title>Beta-lactamase2 (PF13354)
"Beta-lactamase enzyme family"</title>
				<polygon class="PF13354" points="504,28 519,28 524,33 524,47 519,52 504,52" stroke-linejoin="round" width="20" height="24" fill="rgb(210,90,135)" stroke="rgb(168,72,108)" stroke-width="1" opacity="0.75" />
			</g>
		</g>
		<g>
			<title> (SSCG_00161)
conserved hypothetical protein</title>
			<polygon class=" (SSCG_00161)
conserved hypothetical protein" points="536,25 540,25 540,10 570,40 540,70 540,55 536,55" fill="rgb(255,255,255)" fill-opacity="1.0" stroke="rgb(0,0,0)" stroke-width="2"  />
			<g>
				<title>EamA (PF00892)
"EamA-like transporter family"</title>
				<rect class="PF00892" x="536" y="28" stroke-linejoin="round" width="12" height="24" fill="rgb(202,125,98)" stroke="rgb(161,100,78)" stroke-width="1" opacity="0.75" />
			</g>
			<g>
				<title>EamA (PF00892)
"EamA-like transporter family"</title>
				<polygon class="PF00892" points="549,28 553,28 563,38 563,42 553,52 549,52" stroke-linejoin="round" width="14" height="24" fill="rgb(202,125,98)" stroke="rgb(161,100,78)" stroke-width="1" opacity="0.75" />
			</g>
		</g>
		<g>
			<title> (SSCG_00162)
conserved hypothetical protein</title>
			<polygon class=" (SSCG_00162)
conserved hypothetical protein" points="602,25 598,25 598,10 568,40 598,70 598,55 602,55" fill="rgb(255,255,255)" fill-opacity="1.0" stroke="rgb(0,0,0)" stroke-width="2"  />
			<g>
				<title>Acetyltransf_1 (PF00583)
"Acetyltransferase (GNAT) family"</title>
				<polygon class="PF00583" points="572,40 580,32 580,48" stroke-linejoin="round" width="11" height="24" fill="rgb(91,221,217)" stroke="rgb(72,176,173)" stroke-width="1" opacity="0.75" />
			</g>
			<g>
				<title>Acetyltransf_1 (PF00583)
"Acetyltransferase (GNAT) family"</title>
				<rect class="PF00583" x="588" y="28" stroke-linejoin="round" width="10" height="24" fill="rgb(91,221,217)" stroke="rgb(72,176,173)" stroke-width="1" opacity="0.75" />
			</g>
		</g>
		<g>
			<title> (SSCG_00163)
dipeptide-binding lipoprotein</title>
			<polygon class=" (SSCG_00163)
dipeptide-binding lipoprotein" points="659,25 645,25 645,10 615,40 645,70 645,55 659,55" fill="rgb(255,255,255)" fill-opacity="1.0" stroke="rgb(0,0,0)" stroke-width="2"  />
			<g>
				<title>SBP_bac_5 (PF00496)
"Bacterial extracellular solute-binding proteins, family 5 Middle"</title>
				<polygon class="PF00496" points="623,36 631,28 658,28 658,52 631,52 623,44" stroke-linejoin="round" width="35" height="24" fill="rgb(178,74,116)" stroke="rgb(142,59,92)" stroke-width="1" opacity="0.75" />
			</g>
		</g>
		<g>
			<title> (SSCG_00164)
conserved hypothetical protein</title>
			<polygon class=" (SSCG_00164)
conserved hypothetical protein" points="711,25 701,25 701,10 671,40 701,70 701,55 711,55" fill="rgb(255,255,255)" fill-opacity="1.0" stroke="rgb(0,0,0)" stroke-width="2"  />
			<g>
				<title>FemAB_like (PF04339)
"Peptidogalycan biosysnthesis/recognition"</title>
				<polygon class="PF04339" points="675,40 687,28 696,28 696,52 687,52" stroke-linejoin="round" width="24" height="24" fill="rgb(88,178,88)" stroke="rgb(70,142,70)" stroke-width="1" opacity="0.75" />
			</g>
		</g>
		<g>
			<title> (SSCG_00165)
conserved hypothetical protein</title>
			<polygon class=" (SSCG_00165)
conserved hypothetical protein" points="758,25 742,25 742,10 712,40 742,70 742,55 758,55" fill="rgb(255,255,255)" fill-opacity="1.0" stroke="rgb(0,0,0)" stroke-width="2"  />
			<g>
				<title>LAL_C2 (PF18603)
"L-amino acid ligase C-terminal domain 2"</title>
				<polygon class="PF18603" points="716,40 720,36 720,44" stroke-linejoin="round" width="7" height="24" fill="rgb(135,203,91)" stroke="rgb(107,162,72)" stroke-width="1" opacity="0.75" />
			</g>
			<g>
				<title>ATP-grasp_4 (PF13535)
"ATP-grasp domain"</title>
				<polygon class="PF13535" points="724,32 728,28 739,28 739,52 728,52 724,48" stroke-linejoin="round" width="15" height="24" fill="rgb(82,135,191)" stroke="rgb(65,107,152)" stroke-width="1" opacity="0.75" />
			</g>
			<g>
				<title>ATPgrasp_N (PF18130)
"ATP-grasp N-terminal domain"</title>
				<rect class="PF18130" x="744" y="28" stroke-linejoin="round" width="8" height="24" fill="rgb(185,142,81)" stroke="rgb(148,113,64)" stroke-width="1" opacity="0.75" />
			</g>
		</g>
		<g>
			<title> (SSCG_00166)
penicillin-binding protein PBP</title>
			<polygon class=" (SSCG_00166)
penicillin-binding protein PBP" points="813,25 794,25 794,10 764,40 794,70 794,55 813,55" fill="rgb(255,255,255)" fill-opacity="1.0" stroke="rgb(0,0,0)" stroke-width="2"  />
			<g>
				<title>Transpeptidase (PF00905)
"Penicillin binding protein transpeptidase domain"</title>
				<polygon class="PF00905" points="768,40 780,28 797,28 797,52 780,52" stroke-linejoin="round" width="33" height="24" fill="rgb(76,221,178)" stroke="rgb(60,176,142)" stroke-width="1" opacity="0.75" />
			</g>
		</g>
		<g>
			<title> (SSCG_00167)
penicillin-binding protein</title>
			<polygon class=" (SSCG_00167)
penicillin-binding protein" points="829,25 875,25 875,10 905,40 875,70 875,55 829,55" fill="rgb(255,255,255)" fill-opacity="1.0" stroke="rgb(0,0,0)" stroke-width="2"  />
			<g>
				<title>PBP_dimer (PF03717)
"Penicillin-binding Protein dimerisation domain"</title>
				<rect class="PF03717" x="839" y="28" stroke-linejoin="round" width="18" height="24" fill="rgb(173,102,208)" stroke="rgb(138,81,166)" stroke-width="1" opacity="0.75" />
			</g>
			<g>
				<title>Transpeptidase (PF00905)
"Penicillin binding protein transpeptidase domain"</title>
				<polygon class="PF00905" points="863,28 889,28 899,38 899,42 889,52 863,52" stroke-linejoin="round" width="36" height="24" fill="rgb(76,221,178)" stroke="rgb(60,176,142)" stroke-width="1" opacity="0.75" />
			</g>
		</g>
		<g>
			<title> (SSCG_00168)
cytochrome P450 hydroxylase</title>
			<polygon class=" (SSCG_00168)
cytochrome P450 hydroxylase" points="912,25 921,25 921,10 951,40 921,70 921,55 912,55" fill="rgb(255,255,255)" fill-opacity="1.0" stroke="rgb(0,0,0)" stroke-width="2"  />
			<g>
				<title>p450 (PF00067)
"Cytochrome P450"</title>
				<polygon class="PF00067" points="926,28 935,28 947,40 935,52 926,52" stroke-linejoin="round" width="23" height="24" fill="rgb(195,210,54)" stroke="rgb(155,168,43)" stroke-width="1" opacity="0.75" />
			</g>
		</g>
		<g>
			<title> (SSCG_00169)
RNA polymerase sigma factor SigL</title>
			<polygon class=" (SSCG_00169)
RNA polymerase sigma factor SigL" points="978,10 998,40 978,70" fill="rgb(255,255,255)" fill-opacity="1.0" stroke="rgb(0,0,0)" stroke-width="2"  />
			<g>
				<title>Sigma70_r2 (PF04542)
"Sigma-70 region 2"</title>
				<polygon class="PF04542" points="982,28 986,28 989,32 989,48 986,52 982,52" stroke-linejoin="round" width="7" height="24" fill="rgb(66,209,150)" stroke="rgb(52,167,120)" stroke-width="1" opacity="0.75" />
			</g>
			<g>
				<title>Sigma70_r4 (PF04545)
"Sigma-70, region 4"</title>
				<polygon class="PF04545" points="992,37 994,40 992,43" stroke-linejoin="round" width="4" height="24" fill="rgb(85,205,89)" stroke="rgb(68,164,71)" stroke-width="1" opacity="0.75" />
			</g>
		</g>
		<g>
			<title> (SSCG_00170)
histidine kinase</title>
			<polygon class=" (SSCG_00170)
histidine kinase" points="1049,25 1028,25 1028,10 998,40 1028,70 1028,55 1049,55" fill="rgb(255,255,255)" fill-opacity="1.0" stroke="rgb(0,0,0)" stroke-width="2"  />
			<g>
				<title>HATPase_c (PF02518)
"Histidine kinase-, DNA gyrase B-, and HSP90-like ATPase"</title>
				<polygon class="PF02518" points="1003,39 1014,28 1016,28 1016,52 1014,52 1003,41" stroke-linejoin="round" width="13" height="24" fill="rgb(94,146,210)" stroke="rgb(75,116,168)" stroke-width="1" opacity="0.75" />
			</g>
			<g>
				<title>HisKA (PF00512)
"His Kinase A (phospho-acceptor) domain"</title>
				<rect class="PF00512" x="1021" y="28" stroke-linejoin="round" width="6" height="24" fill="rgb(57,81,199)" stroke="rgb(45,64,159)" stroke-width="1" opacity="0.75" />
			</g>
		</g>
		<g>
			<title> (SSCG_00171)
two-component system response regulator</title>
			<polygon class=" (SSCG_00171)
two-component system response regulator" points="1055,40 1082,10 1082,70" fill="rgb(255,255,255)" fill-opacity="1.0" stroke="rgb(0,0,0)" stroke-width="2"  />
			<g>
				<title>Trans_reg_C (PF00486)
"Transcriptional regulatory protein, C terminal"</title>
				<polygon class="PF00486" points="1059,40 1062,37 1062,43" stroke-linejoin="round" width="7" height="24" fill="rgb(69,185,116)" stroke="rgb(55,148,92)" stroke-width="1" opacity="0.75" />
			</g>
			<g>
				<title>Response_reg (PF00072)
"Response regulator receiver domain"</title>
				<polygon class="PF00072" points="1066,32 1070,28 1077,28 1077,52 1070,52 1066,48" stroke-linejoin="round" width="11" height="24" fill="rgb(59,131,198)" stroke="rgb(47,104,158)" stroke-width="1" opacity="0.75" />
			</g>
		</g>
		<g>
			<title> (SSCG_00172)
transcriptional regulator</title>
			<polygon class=" (SSCG_00172)
transcriptional regulator" points="1110,40 1127,10 1127,70" fill="rgb(255,255,255)" fill-opacity="1.0" stroke="rgb(0,0,0)" stroke-width="2"  />
			<g>
				<title>Sigma70_r4 (PF04545)
"Sigma-70, region 4"</title>
				<polygon class="PF04545" points="1113,40 1116,35 1116,45" stroke-linejoin="round" width="4" height="24" fill="rgb(85,205,89)" stroke="rgb(68,164,71)" stroke-width="1" opacity="0.75" />
			</g>
			<g>
				<title>Sigma70_r2 (PF04542)
"Sigma-70 region 2"</title>
				<polygon class="PF04542" points="1119,30 1120,28 1125,28 1125,52 1120,52 1119,50" stroke-linejoin="round" width="6" height="24" fill="rgb(66,209,150)" stroke="rgb(52,167,120)" stroke-width="1" opacity="0.75" />
			</g>
		</g>
	</g>
</svg>
