<svg version="1.1" baseProfile="full" xmlns="http://www.w3.org/2000/svg" width="905.0666666666667" height="80">
	<g>
		<line x1="10" y1="40.0" x2="895.0666666666667" y2="40.0" style="stroke:rgb(70,70,70); stroke-width:3 "/>
		<g>
			<title> (AN7907.2)
hypothetical protein</title>
			<polygon class=" (AN7907.2)
hypothetical protein" points="10,40 28,10 28,70" fill="rgb(255,255,255)" fill-opacity="1.0" stroke="rgb(0,0,0)" stroke-width="2"  />
			<g>
				<title>Glyoxalase (PF00903)
"Glyoxalase/Bleomycin resistance protein/Dioxygenase superfamily"</title>
				<polygon class="PF00903" points="14,40 21,28 27,28 27,52 21,52" stroke-linejoin="round" width="14" height="24" fill="rgb(139,76,222)" stroke="rgb(111,60,177)" stroke-width="1" opacity="0.75" />
			</g>
		</g>
		<g>
			<title> (AN7908.2)
hypothetical protein</title>
			<polygon class=" (AN7908.2)
hypothetical protein" points="171,25 169,25 169,10 139,40 169,70 169,55 171,55" fill="rgb(255,255,255)" fill-opacity="1.0" stroke="rgb(0,0,0)" stroke-width="2"  />
			<g>
				<title>Glyco_hydro_62 (PF03664)
"Glycosyl hydrolase family 62"</title>
				<polygon class="PF03664" points="143,40 155,28 169,28 169,52 155,52" stroke-linejoin="round" width="27" height="24" fill="rgb(68,179,69)" stroke="rgb(54,143,55)" stroke-width="1" opacity="0.75" />
			</g>
		</g>
		<g>
			<title> (AN7909.2)
hypothetical protein</title>
			<polygon class=" (AN7909.2)
hypothetical protein" points="408,25 222,25 222,10 192,40 222,70 222,55 408,55" fill="rgb(255,255,255)" fill-opacity="1.0" stroke="rgb(0,0,0)" stroke-width="2"  />
			<g>
				<title>Thioesterase (PF00975)
"Thioesterase domain"</title>
				<polygon class="PF00975" points="199,37 208,28 224,28 224,52 208,52 199,43" stroke-linejoin="round" width="25" height="24" fill="rgb(69,76,223)" stroke="rgb(55,60,178)" stroke-width="1" opacity="0.75" />
			</g>
			<g>
				<title>PP-binding (PF00550)
"Phosphopantetheine attachment site"</title>
				<rect class="PF00550" x="227" y="28" stroke-linejoin="round" width="6" height="24" fill="rgb(181,58,166)" stroke="rgb(144,46,132)" stroke-width="1" opacity="0.75" />
			</g>
			<g>
				<title>PP-binding (PF00550)
"Phosphopantetheine attachment site"</title>
				<rect class="PF00550" x="237" y="28" stroke-linejoin="round" width="6" height="24" fill="rgb(181,58,166)" stroke="rgb(144,46,132)" stroke-width="1" opacity="0.75" />
			</g>
			<g>
				<title>PS-DH (PF14765)
"Polyketide synthase dehydratase N-terminal domain"</title>
				<rect class="PF14765" x="250" y="28" stroke-linejoin="round" width="15" height="24" fill="rgb(189,61,178)" stroke="rgb(151,48,142)" stroke-width="1" opacity="0.75" />
			</g>
			<g>
				<title>Acyl_transf_1 (PF00698)
"Acyl transferase domain"</title>
				<rect class="PF00698" x="287" y="28" stroke-linejoin="round" width="33" height="24" fill="rgb(132,93,193)" stroke="rgb(105,74,154)" stroke-width="1" opacity="0.75" />
			</g>
			<g>
				<title>Ketoacyl-synt_C (PF02801)
"Beta-ketoacyl synthase, C-terminal domain"</title>
				<rect class="PF02801" x="335" y="28" stroke-linejoin="round" width="11" height="24" fill="rgb(212,79,72)" stroke="rgb(169,63,57)" stroke-width="1" opacity="0.75" />
			</g>
			<g>
				<title>ketoacyl-synt (PF00109)
"Beta-ketoacyl synthase, N-terminal domain"</title>
				<rect class="PF00109" x="348" y="28" stroke-linejoin="round" width="25" height="24" fill="rgb(74,179,82)" stroke="rgb(59,143,65)" stroke-width="1" opacity="0.75" />
			</g>
			<g>
				<title>SAT (PF16073)
"Starter unit:ACP transacylase in aflatoxin biosynthesis"</title>
				<rect class="PF16073" x="384" y="28" stroke-linejoin="round" width="23" height="24" fill="rgb(77,185,114)" stroke="rgb(61,148,91)" stroke-width="1" opacity="0.75" />
			</g>
		</g>
		<g>
			<title> (AN7910.2)
hypothetical protein</title>
			<polygon class=" (AN7910.2)
hypothetical protein" points="436,10 459,40 436,70" fill="rgb(255,255,255)" fill-opacity="1.0" stroke="rgb(0,0,0)" stroke-width="2"  />
			<g>
				<title>SnoaL_4 (PF13577)
"SnoaL-like domain"</title>
				<polygon class="PF13577" points="436,28 446,28 448,31 448,49 446,52 436,52" stroke-linejoin="round" width="12" height="24" fill="rgb(58,198,190)" stroke="rgb(46,158,152)" stroke-width="1" opacity="0.75" />
			</g>
		</g>
		<g>
			<title> (AN7911.2)
hypothetical protein</title>
			<polygon class=" (AN7911.2)
hypothetical protein" points="498,25 493,25 493,10 463,40 493,70 493,55 498,55" fill="rgb(255,255,255)" fill-opacity="1.0" stroke="rgb(0,0,0)" stroke-width="2"  />
			<g>
				<title>Amidohydro_2 (PF04909)
"Amidohydrolase"</title>
				<polygon class="PF04909" points="467,40 479,28 492,28 492,52 479,52" stroke-linejoin="round" width="27" height="24" fill="rgb(144,74,196)" stroke="rgb(115,59,156)" stroke-width="1" opacity="0.75" />
			</g>
		</g>
		<g>
			<title> (AN7912.2)
hypothetical protein</title>
			<polygon class=" (AN7912.2)
hypothetical protein" points="511,25 520,25 520,10 550,40 520,70 520,55 511,55" fill="rgb(255,255,255)" fill-opacity="1.0" stroke="rgb(0,0,0)" stroke-width="2"  />
			<g>
				<title>Tyrosinase (PF00264)
"Common central domain of tyrosinase"</title>
				<polygon class="PF00264" points="520,28 533,28 543,38 543,42 533,52 520,52" stroke-linejoin="round" width="23" height="24" fill="rgb(95,226,202)" stroke="rgb(76,180,161)" stroke-width="1" opacity="0.75" />
			</g>
		</g>
		<g>
			<title> (AN7913.2)
hypothetical protein</title>
			<polygon class=" (AN7913.2)
hypothetical protein" points="617,25 597,25 597,10 567,40 597,70 597,55 617,55" fill="rgb(255,255,255)" fill-opacity="1.0" stroke="rgb(0,0,0)" stroke-width="2"  />
			<g>
				<title>OrsD (PF12013)
"Orsellinic acid/F9775 biosynthesis cluster protein D"</title>
				<rect class="PF12013" x="606" y="28" stroke-linejoin="round" width="10" height="24" fill="rgb(226,135,102)" stroke="rgb(180,108,81)" stroke-width="1" opacity="0.75" />
			</g>
		</g>
		<g>
			<title> (AN7914.2)
hypothetical protein</title>
			<polygon class=" (AN7914.2)
hypothetical protein" points="636,25 642,25 642,10 672,40 642,70 642,55 636,55" fill="rgb(255,255,255)" fill-opacity="1.0" stroke="rgb(0,0,0)" stroke-width="2"  />
			<g>
				<title>ADH_N (PF08240)
"Alcohol dehydrogenase GroES-like domain"</title>
				<rect class="PF08240" x="638" y="28" stroke-linejoin="round" width="6" height="24" fill="rgb(217,198,105)" stroke="rgb(173,158,84)" stroke-width="1" opacity="0.75" />
			</g>
			<g>
				<title>ADH_zinc_N (PF00107)
"Zinc-binding dehydrogenase"</title>
				<polygon class="PF00107" points="654,28 656,28 665,37 665,43 656,52 654,52" stroke-linejoin="round" width="11" height="24" fill="rgb(79,114,198)" stroke="rgb(63,91,158)" stroke-width="1" opacity="0.75" />
			</g>
		</g>
		<g>
			<title> (AN7915.2)
hypothetical protein</title>
			<polygon class=" (AN7915.2)
hypothetical protein" points="789,25 710,25 710,10 680,40 710,70 710,55 789,55" fill="rgb(255,255,255)" fill-opacity="1.0" stroke="rgb(0,0,0)" stroke-width="2"  />
			<g>
				<title>Fn3-like (PF14310)
"Fibronectin type III-like domain"</title>
				<rect class="PF14310" x="709" y="28" stroke-linejoin="round" width="6" height="24" fill="rgb(188,104,48)" stroke="rgb(150,83,38)" stroke-width="1" opacity="0.75" />
			</g>
			<g>
				<title>Glyco_hydro_3_C (PF01915)
"Glycosyl hydrolase family 3 C-terminal domain"</title>
				<rect class="PF01915" x="721" y="28" stroke-linejoin="round" width="26" height="24" fill="rgb(88,191,167)" stroke="rgb(70,152,133)" stroke-width="1" opacity="0.75" />
			</g>
			<g>
				<title>Glyco_hydro_3 (PF00933)
"Glycosyl hydrolase family 3 N terminal domain"</title>
				<rect class="PF00933" x="752" y="28" stroke-linejoin="round" width="12" height="24" fill="rgb(167,74,199)" stroke="rgb(133,59,159)" stroke-width="1" opacity="0.75" />
			</g>
			<g>
				<title>Glyco_hydro_3 (PF00933)
"Glycosyl hydrolase family 3 N terminal domain"</title>
				<rect class="PF00933" x="769" y="28" stroke-linejoin="round" width="14" height="24" fill="rgb(167,74,199)" stroke="rgb(133,59,159)" stroke-width="1" opacity="0.75" />
			</g>
		</g>
		<g>
			<title> (AN7916.2)
hypothetical protein</title>
			<polygon class=" (AN7916.2)
hypothetical protein" points="894,25 861,25 861,10 831,40 861,70 861,55 894,55" fill="rgb(255,255,255)" fill-opacity="1.0" stroke="rgb(0,0,0)" stroke-width="2"  />
			<g>
				<title>AA_permease (PF00324)
"Amino acid permease"</title>
				<polygon class="PF00324" points="844,31 847,28 890,28 890,52 847,52 844,49" stroke-linejoin="round" width="46" height="24" fill="rgb(108,63,226)" stroke="rgb(86,50,180)" stroke-width="1" opacity="0.75" />
			</g>
		</g>
	</g>
</svg>
