<svg version="1.1" baseProfile="full" xmlns="http://www.w3.org/2000/svg" width="13397.6" height="80">
	<g>
		<line x1="10" y1="40.0" x2="13387.6" y2="40.0" style="stroke:rgb(70,70,70); stroke-width:3 "/>
		<g>
			<title>PSCXE2</title>
			<polygon class="PSCXE2" points="3627,25 3628,25 3628,10 3658,40 3628,70 3628,55 3627,55" fill="rgb(255,255,255)" fill-opacity="1.0" stroke="rgb(0,0,0)" stroke-width="2"  />
			<g>
				<title>Abhydrolase_3 (PF07859)
"alpha/beta hydrolase fold"</title>
				<polygon class="PF07859" points="3633,28 3642,28 3654,40 3642,52 3633,52" stroke-linejoin="round" width="22" height="24" fill="rgb(216,68,121)" stroke="rgb(172,54,96)" stroke-width="1" opacity="0.75" />
			</g>
		</g>
		<g>
			<title>PSSDR1</title>
			<polygon class="PSSDR1" points="4651,25 4611,25 4611,10 4581,40 4611,70 4611,55 4651,55" fill="rgb(255,255,255)" fill-opacity="1.0" stroke="rgb(0,0,0)" stroke-width="2"  />
			<g>
				<title>Epimerase (PF01370)
"NAD dependent epimerase/dehydratase family"</title>
				<rect class="PF01370" x="4624" y="28" stroke-linejoin="round" width="24" height="24" fill="rgb(215,89,157)" stroke="rgb(172,71,125)" stroke-width="1" opacity="0.75" />
			</g>
		</g>
		<g>
			<title>PSCXE1</title>
			<polygon class="PSCXE1" points="5334,25 5335,25 5335,10 5365,40 5335,70 5335,55 5334,55" fill="rgb(255,255,255)" fill-opacity="1.0" stroke="rgb(0,0,0)" stroke-width="2"  />
			<g>
				<title>Abhydrolase_3 (PF07859)
"alpha/beta hydrolase fold"</title>
				<polygon class="PF07859" points="5340,28 5349,28 5361,40 5349,52 5340,52" stroke-linejoin="round" width="22" height="24" fill="rgb(216,68,121)" stroke="rgb(172,54,96)" stroke-width="1" opacity="0.75" />
			</g>
		</g>
		<g>
			<title>CYP82X1</title>
			<polygon class="CYP82X1" points="6164,25 6135,25 6135,10 6105,40 6135,70 6135,55 6164,55" fill="rgb(255,255,255)" fill-opacity="1.0" stroke="rgb(0,0,0)" stroke-width="2"  />
			<g>
				<title>p450 (PF00067)
"Cytochrome P450"</title>
				<polygon class="PF00067" points="6110,39 6121,28 6159,28 6159,52 6121,52 6110,41" stroke-linejoin="round" width="49" height="24" fill="rgb(195,210,54)" stroke="rgb(155,168,43)" stroke-width="1" opacity="0.75" />
			</g>
		</g>
		<g>
			<title>CYP82X2</title>
			<polygon class="CYP82X2" points="6357,25 6390,25 6390,10 6420,40 6390,70 6390,55 6357,55" fill="rgb(255,255,255)" fill-opacity="1.0" stroke="rgb(0,0,0)" stroke-width="2"  />
			<g>
				<title>p450 (PF00067)
"Cytochrome P450"</title>
				<polygon class="PF00067" points="6362,28 6403,28 6411,36 6411,44 6403,52 6362,52" stroke-linejoin="round" width="49" height="24" fill="rgb(195,210,54)" stroke="rgb(155,168,43)" stroke-width="1" opacity="0.75" />
			</g>
		</g>
		<g>
			<title>PSAT1</title>
			<polygon class="PSAT1" points="6850,25 6867,25 6867,10 6897,40 6867,70 6867,55 6850,55" fill="rgb(255,255,255)" fill-opacity="1.0" stroke="rgb(0,0,0)" stroke-width="2"  />
			<g>
				<title>Transferase (PF02458)
"Transferase family"</title>
				<polygon class="PF02458" points="6850,28 6880,28 6892,40 6880,52 6850,52" stroke-linejoin="round" width="46" height="24" fill="rgb(183,146,88)" stroke="rgb(146,116,70)" stroke-width="1" opacity="0.75" />
			</g>
		</g>
		<g>
			<title>CYP82Y1</title>
			<polygon class="CYP82Y1" points="7930,25 7961,25 7961,10 7991,40 7961,70 7961,55 7930,55" fill="rgb(255,255,255)" fill-opacity="1.0" stroke="rgb(0,0,0)" stroke-width="2"  />
			<g>
				<title>p450 (PF00067)
"Cytochrome P450"</title>
				<polygon class="PF00067" points="7935,28 7975,28 7984,37 7984,43 7975,52 7935,52" stroke-linejoin="round" width="49" height="24" fill="rgb(195,210,54)" stroke="rgb(155,168,43)" stroke-width="1" opacity="0.75" />
			</g>
		</g>
		<g>
			<title>PSMT3</title>
			<polygon class="PSMT3" points="9758,25 9766,25 9766,10 9796,40 9766,70 9766,55 9758,55" fill="rgb(255,255,255)" fill-opacity="1.0" stroke="rgb(0,0,0)" stroke-width="2"  />
			<g>
				<title>Dimerisation (PF08100)
"Dimerisation domain"</title>
				<rect class="PF08100" x="9760" y="28" stroke-linejoin="round" width="4" height="24" fill="rgb(62,180,116)" stroke="rgb(49,144,92)" stroke-width="1" opacity="0.75" />
			</g>
			<g>
				<title>Methyltransf_2 (PF00891)
"O-methyltransferase domain"</title>
				<polygon class="PF00891" points="9769,28 9780,28 9788,36 9788,44 9780,52 9769,52" stroke-linejoin="round" width="19" height="24" fill="rgb(91,124,224)" stroke="rgb(72,99,179)" stroke-width="1" opacity="0.75" />
			</g>
		</g>
		<g>
			<title>CYP719A21</title>
			<polygon class="CYP719A21" points="11818,25 11800,25 11800,10 11770,40 11800,70 11800,55 11818,55" fill="rgb(255,255,255)" fill-opacity="1.0" stroke="rgb(0,0,0)" stroke-width="2"  />
			<g>
				<title>p450 (PF00067)
"Cytochrome P450"</title>
				<polygon class="PF00067" points="11774,40 11786,28 11814,28 11814,52 11786,52" stroke-linejoin="round" width="44" height="24" fill="rgb(195,210,54)" stroke="rgb(155,168,43)" stroke-width="1" opacity="0.75" />
			</g>
		</g>
		<g>
			<title>PSMT1</title>
			<polygon class="PSMT1" points="11880,25 11918,25 11918,10 11948,40 11918,70 11918,55 11880,55" fill="rgb(255,255,255)" fill-opacity="1.0" stroke="rgb(0,0,0)" stroke-width="2"  />
			<g>
				<title>Dimerisation (PF08100)
"Dimerisation domain"</title>
				<rect class="PF08100" x="11885" y="28" stroke-linejoin="round" width="5" height="24" fill="rgb(62,180,116)" stroke="rgb(49,144,92)" stroke-width="1" opacity="0.75" />
			</g>
			<g>
				<title>Methyltransf_2 (PF00891)
"O-methyltransferase domain"</title>
				<rect class="PF00891" x="11896" y="28" stroke-linejoin="round" width="10" height="24" fill="rgb(91,124,224)" stroke="rgb(72,99,179)" stroke-width="1" opacity="0.75" />
			</g>
			<g>
				<title>Methyltransf_2 (PF00891)
"O-methyltransferase domain"</title>
				<rect class="PF00891" x="11907" y="28" stroke-linejoin="round" width="8" height="24" fill="rgb(91,124,224)" stroke="rgb(72,99,179)" stroke-width="1" opacity="0.75" />
			</g>
		</g>
	</g>
</svg>
