<svg version="1.1" baseProfile="full" xmlns="http://www.w3.org/2000/svg" width="1017.0333333333333" height="240">
	<g>
		<line x1="10" y1="40.0" x2="1007.0333333333333" y2="40.0" style="stroke:rgb(70,70,70); stroke-width:3 "/>
		<g>
			<title> (ANIA_00153)
putative Myb-like transcription factor (Eurofung)</title>
			<polygon class=" (ANIA_00153)
putative Myb-like transcription factor (Eurofung)" points="101,25 40,25 40,10 10,40 40,70 40,55 101,55" fill="rgb(255,255,255)" fill-opacity="1.0" stroke="rgb(0,0,0)" stroke-width="2"  />
			<g>
				<title>TRF (PF08558)
"Telomere repeat binding factor (TRF)"</title>
				<rect class="PF08558" x="58" y="28" stroke-linejoin="round" width="23" height="24" fill="rgb(144,179,80)" stroke="rgb(115,143,63)" stroke-width="1" opacity="0.75" />
			</g>
		</g>
		<g>
			<title> (ANIA_10023)
conserved hypothetical protein</title>
			<polygon class=" (ANIA_10023)
conserved hypothetical protein" points="161,25 147,25 147,10 117,40 147,70 147,55 161,55" fill="rgb(255,255,255)" fill-opacity="1.0" stroke="rgb(0,0,0)" stroke-width="2"  />
			<g>
				<title>Questin_oxidase (PF14027)
"Questin oxidase-like"</title>
				<polygon class="PF14027" points="123,38 133,28 156,28 156,52 133,52 123,42" stroke-linejoin="round" width="33" height="24" fill="rgb(195,73,96)" stroke="rgb(156,58,76)" stroke-width="1" opacity="0.75" />
			</g>
		</g>
		<g>
			<title> (ANIA_10044)
toxin biosynthesis protein, putative (AFU_orthologue; AFUA_4G14520)</title>
			<polygon class=" (ANIA_10044)
toxin biosynthesis protein, putative (AFU_orthologue; AFUA_4G14520)" points="174,40 200,10 200,70" fill="rgb(255,255,255)" fill-opacity="1.0" stroke="rgb(0,0,0)" stroke-width="2"  />
			<g>
				<title>NAD_binding_10 (PF13460)
"NAD(P)H-binding"</title>
				<polygon class="PF13460" points="179,39 189,28 199,28 199,52 189,52 179,41" stroke-linejoin="round" width="20" height="24" fill="rgb(131,53,182)" stroke="rgb(104,42,145)" stroke-width="1" opacity="0.75" />
			</g>
		</g>
		<g>
			<title> (ANIA_10038)
hypothetical protein</title>
			<polygon class=" (ANIA_10038)
hypothetical protein" points="213,10 239,40 213,70" fill="rgb(255,255,255)" fill-opacity="1.0" stroke="rgb(0,0,0)" stroke-width="2"  />
			<g>
				<title>GST_N (PF02798)
"Glutathione S-transferase, N-terminal domain"</title>
				<rect class="PF02798" x="213" y="28" stroke-linejoin="round" width="6" height="24" fill="rgb(100,68,184)" stroke="rgb(79,54,147)" stroke-width="1" opacity="0.75" />
			</g>
			<g>
				<title>GST_C (PF00043)
"Glutathione S-transferase, C-terminal domain"</title>
				<polygon class="PF00043" points="222,28 224,28 231,35 231,45 224,52 222,52" stroke-linejoin="round" width="9" height="24" fill="rgb(111,184,77)" stroke="rgb(88,147,61)" stroke-width="1" opacity="0.75" />
			</g>
		</g>
		<g>
			<title> (ANIA_10035)
conserved hypothetical protein</title>
			<polygon class=" (ANIA_10035)
conserved hypothetical protein" points="305,25 274,25 274,10 244,40 274,70 274,55 305,55" fill="rgb(255,255,255)" fill-opacity="1.0" stroke="rgb(0,0,0)" stroke-width="2"  />
			<g>
				<title>AMP-binding (PF00501)
"AMP-binding enzyme"</title>
				<polygon class="PF00501" points="260,28 260,28 298,28 298,52 260,52 260,52" stroke-linejoin="round" width="38" height="24" fill="rgb(189,78,204)" stroke="rgb(151,62,163)" stroke-width="1" opacity="0.75" />
			</g>
		</g>
		<g>
			<title> (ANIA_10022)
conserved hypothetical protein</title>
			<polygon class=" (ANIA_10022)
conserved hypothetical protein" points="371,25 349,25 349,10 319,40 349,70 349,55 371,55" fill="rgb(255,255,255)" fill-opacity="1.0" stroke="rgb(0,0,0)" stroke-width="2"  />
			<g>
				<title>Anthrone_oxy (PF08592)
"Anthrone oxygenase"</title>
				<polygon class="PF08592" points="334,29 335,28 347,28 347,52 335,52 334,51" stroke-linejoin="round" width="13" height="24" fill="rgb(94,203,219)" stroke="rgb(75,162,175)" stroke-width="1" opacity="0.75" />
			</g>
			<g>
				<title>EthD (PF07110)
"EthD domain"</title>
				<rect class="PF07110" x="358" y="28" stroke-linejoin="round" width="10" height="24" fill="rgb(72,84,203)" stroke="rgb(57,67,162)" stroke-width="1" opacity="0.75" />
			</g>
		</g>
		<g>
			<title> (ANIA_00150)
hypothetical protein similar to polyketide synthase (Broad)</title>
			<polygon class=" (ANIA_00150)
hypothetical protein similar to polyketide synthase (Broad)" points="567,25 412,25 412,10 382,40 412,70 412,55 567,55" fill="rgb(255,255,255)" fill-opacity="1.0" stroke="rgb(0,0,0)" stroke-width="2"  />
			<g>
				<title>PP-binding (PF00550)
"Phosphopantetheine attachment site"</title>
				<polygon class="PF00550" points="387,39 393,33 393,47 387,41" stroke-linejoin="round" width="6" height="24" fill="rgb(181,58,166)" stroke="rgb(144,46,132)" stroke-width="1" opacity="0.75" />
			</g>
			<g>
				<title>PS-DH (PF14765)
"Polyketide synthase dehydratase N-terminal domain"</title>
				<rect class="PF14765" x="402" y="28" stroke-linejoin="round" width="15" height="24" fill="rgb(189,61,178)" stroke="rgb(151,48,142)" stroke-width="1" opacity="0.75" />
			</g>
			<g>
				<title>Acyl_transf_1 (PF00698)
"Acyl transferase domain"</title>
				<rect class="PF00698" x="440" y="28" stroke-linejoin="round" width="32" height="24" fill="rgb(132,93,193)" stroke="rgb(105,74,154)" stroke-width="1" opacity="0.75" />
			</g>
			<g>
				<title>Ketoacyl-synt_C (PF02801)
"Beta-ketoacyl synthase, C-terminal domain"</title>
				<rect class="PF02801" x="487" y="28" stroke-linejoin="round" width="12" height="24" fill="rgb(212,79,72)" stroke="rgb(169,63,57)" stroke-width="1" opacity="0.75" />
			</g>
			<g>
				<title>ketoacyl-synt (PF00109)
"Beta-ketoacyl synthase, N-terminal domain"</title>
				<rect class="PF00109" x="500" y="28" stroke-linejoin="round" width="25" height="24" fill="rgb(74,179,82)" stroke="rgb(59,143,65)" stroke-width="1" opacity="0.75" />
			</g>
			<g>
				<title>SAT (PF16073)
"Starter unit:ACP transacylase in aflatoxin biosynthesis"</title>
				<rect class="PF16073" x="539" y="28" stroke-linejoin="round" width="25" height="24" fill="rgb(77,185,114)" stroke="rgb(61,148,91)" stroke-width="1" opacity="0.75" />
			</g>
		</g>
		<g>
			<title> (ANIA_00149)
metallo-beta-lactamase domain protein, putative (AFU_orthologue; AFUA_4G14570)</title>
			<polygon class=" (ANIA_00149)
metallo-beta-lactamase domain protein, putative (AFU_orthologue; AFUA_4G14570)" points="583,25 586,25 586,10 616,40 586,70 586,55 583,55" fill="rgb(255,255,255)" fill-opacity="1.0" stroke="rgb(0,0,0)" stroke-width="2"  />
			<g>
				<title>Lactamase_B (PF00753)
"Metallo-beta-lactamase superfamily"</title>
				<rect class="PF00753" x="588" y="28" stroke-linejoin="round" width="7" height="24" fill="rgb(70,201,123)" stroke="rgb(56,160,98)" stroke-width="1" opacity="0.75" />
			</g>
		</g>
		<g>
			<title> (ANIA_00148)
Putative Zn(II)2Cys6 transcription factor (Eurofung)</title>
			<polygon class=" (ANIA_00148)
Putative Zn(II)2Cys6 transcription factor (Eurofung)" points="666,25 679,25 679,10 709,40 679,70 679,55 666,55" fill="rgb(255,255,255)" fill-opacity="1.0" stroke="rgb(0,0,0)" stroke-width="2"  />
			<g>
				<title>Zn_clus (PF00172)
"Fungal Zn(2)-Cys(6) binuclear cluster domain"</title>
				<rect class="PF00172" x="668" y="28" stroke-linejoin="round" width="3" height="24" fill="rgb(58,207,82)" stroke="rgb(46,165,65)" stroke-width="1" opacity="0.75" />
			</g>
			<g>
				<title>AflR (PF08493)
"Aflatoxin regulatory protein"</title>
				<polygon class="PF08493" points="689,28 693,28 698,33 698,47 693,52 689,52" stroke-linejoin="round" width="9" height="24" fill="rgb(82,57,195)" stroke="rgb(65,45,156)" stroke-width="1" opacity="0.75" />
			</g>
		</g>
		<g>
			<title> (ANIA_00147)
conserved hypothetical protein</title>
			<polygon class=" (ANIA_00147)
conserved hypothetical protein" points="727,25 751,25 751,10 781,40 751,70 751,55 727,55" fill="rgb(255,255,255)" fill-opacity="1.0" stroke="rgb(0,0,0)" stroke-width="2"  />
			<g>
				<title>FAD_binding_3 (PF01494)
"FAD binding domain"</title>
				<rect class="PF01494" x="732" y="28" stroke-linejoin="round" width="18" height="24" fill="rgb(215,66,156)" stroke="rgb(172,52,124)" stroke-width="1" opacity="0.75" />
			</g>
		</g>
		<g>
			<title> (ANIA_00146)
oxidoreductase, putative (Eurofung)</title>
			<polygon class=" (ANIA_00146)
oxidoreductase, putative (Eurofung)" points="803,10 831,40 803,70" fill="rgb(255,255,255)" fill-opacity="1.0" stroke="rgb(0,0,0)" stroke-width="2"  />
			<g>
				<title>adh_short_C2 (PF13561)
"Enoyl-(Acyl carrier protein) reductase"</title>
				<polygon class="PF13561" points="805,28 815,28 827,40 815,52 805,52" stroke-linejoin="round" width="24" height="24" fill="rgb(79,221,209)" stroke="rgb(63,176,167)" stroke-width="1" opacity="0.75" />
			</g>
		</g>
		<g>
			<title> (ANIA_10049)
conidial pigment biosynthesis scytalone dehydratase (Eurofung)</title>
			<polygon class=" (ANIA_10049)
conidial pigment biosynthesis scytalone dehydratase (Eurofung)" points="841,10 864,40 841,70" fill="rgb(255,255,255)" fill-opacity="1.0" stroke="rgb(0,0,0)" stroke-width="2"  />
			<g>
				<title>Scytalone_dh (PF02982)
"Scytalone dehydratase"</title>
				<polygon class="PF02982" points="843,28 851,28 858,38 858,42 851,52 843,52" stroke-linejoin="round" width="15" height="24" fill="rgb(102,199,80)" stroke="rgb(81,159,64)" stroke-width="1" opacity="0.75" />
			</g>
		</g>
		<g>
			<title> (ANIA_10021)
toxin biosynthesis regulatory protein AflJ, putative (AFU_orthologue; AFUA_4G14550)</title>
			<polygon class=" (ANIA_10021)
toxin biosynthesis regulatory protein AflJ, putative (AFU_orthologue; AFUA_4G14550)" points="875,25 895,25 895,10 925,40 895,70 895,55 875,55" fill="rgb(255,255,255)" fill-opacity="1.0" stroke="rgb(0,0,0)" stroke-width="2"  />
		</g>
		<g>
			<title> (ANIA_10039)
conserved hypothetical protein</title>
			<polygon class=" (ANIA_10039)
conserved hypothetical protein" points="948,25 975,25 975,10 1005,40 975,70 975,55 948,55" fill="rgb(255,255,255)" fill-opacity="1.0" stroke="rgb(0,0,0)" stroke-width="2"  />
			<g>
				<title>His_Phos_2 (PF00328)
"Histidine phosphatase superfamily (branch 2)"</title>
				<rect class="PF00328" x="952" y="28" stroke-linejoin="round" width="32" height="24" fill="rgb(199,139,56)" stroke="rgb(159,111,44)" stroke-width="1" opacity="0.75" />
			</g>
		</g>
	</g>
	<g>
		<line x1="10" y1="120.0" x2="56.43333333333333" y2="120.0" style="stroke:rgb(70,70,70); stroke-width:3 "/>
		<g>
			<title> (ANIA_06784)
DMATS type aromatic prenyltransferase, putative (JCVI)</title>
			<polygon class=" (ANIA_06784)
DMATS type aromatic prenyltransferase, putative (JCVI)" points="56,105 40,105 40,90 10,120 40,150 40,135 56,135" fill="rgb(255,255,255)" fill-opacity="1.0" stroke="rgb(0,0,0)" stroke-width="2"  />
		</g>
	</g>
	<g>
		<line x1="10" y1="200.0" x2="82.53333333333333" y2="200.0" style="stroke:rgb(70,70,70); stroke-width:3 "/>
		<g>
			<title> (ANIA_07998)
conserved hypothetical protein</title>
			<polygon class=" (ANIA_07998)
conserved hypothetical protein" points="10,185 52,185 52,170 82,200 52,230 52,215 10,215" fill="rgb(255,255,255)" fill-opacity="1.0" stroke="rgb(0,0,0)" stroke-width="2"  />
		</g>
	</g>
</svg>
