<svg version="1.1" baseProfile="full" xmlns="http://www.w3.org/2000/svg" width="896.2333333333333" height="80">
	<g>
		<line x1="10" y1="40.0" x2="886.2333333333333" y2="40.0" style="stroke:rgb(70,70,70); stroke-width:3 "/>
		<g>
			<title>pbtR
PbtR</title>
			<polygon class="pbtR
PbtR" points="13,10 36,40 13,70" fill="rgb(255,255,255)" fill-opacity="1.0" stroke="rgb(0,0,0)" stroke-width="2"  />
			<g>
				<title>TetR_N (PF00440)
"Bacterial regulatory proteins, tetR family"</title>
				<rect class="PF00440" x="14" y="28" stroke-linejoin="round" width="4" height="24" fill="rgb(148,50,185)" stroke="rgb(118,40,148)" stroke-width="1" opacity="0.75" />
			</g>
		</g>
		<g>
			<title>pbtG1
PbtG1</title>
			<polygon class="pbtG1
PbtG1" points="38,25 68,25 68,10 98,40 68,70 68,55 38,55" fill="rgb(255,255,255)" fill-opacity="1.0" stroke="rgb(0,0,0)" stroke-width="2"  />
			<g>
				<title>YcaO (PF02624)
"YcaO cyclodehydratase, ATP-ad Mg2+-binding"</title>
				<polygon class="PF02624" points="60,28 82,28 93,39 93,41 82,52 60,52" stroke-linejoin="round" width="33" height="24" fill="rgb(69,185,74)" stroke="rgb(55,148,59)" stroke-width="1" opacity="0.75" />
			</g>
		</g>
		<g>
			<title>pbtB1
PbtB1</title>
			<polygon class="pbtB1
PbtB1" points="99,25 148,25 148,10 178,40 148,70 148,55 99,55" fill="rgb(255,255,255)" fill-opacity="1.0" stroke="rgb(0,0,0)" stroke-width="2"  />
			<g>
				<title>Lant_dehydr_N (PF04738)
"Lantibiotic dehydratase, N terminus"</title>
				<rect class="PF04738" x="111" y="28" stroke-linejoin="round" width="29" height="24" fill="rgb(191,60,69)" stroke="rgb(152,48,55)" stroke-width="1" opacity="0.75" />
			</g>
			<g>
				<title>Lant_dehydr_N (PF04738)
"Lantibiotic dehydratase, N terminus"</title>
				<polygon class="PF04738" points="156,28 162,28 171,37 171,43 162,52 156,52" stroke-linejoin="round" width="15" height="24" fill="rgb(191,60,69)" stroke="rgb(152,48,55)" stroke-width="1" opacity="0.75" />
			</g>
		</g>
		<g>
			<title>pbtO
PbtO</title>
			<polygon class="pbtO
PbtO" points="178,25 182,25 182,10 212,40 182,70 182,55 178,55" fill="rgb(255,255,255)" fill-opacity="1.0" stroke="rgb(0,0,0)" stroke-width="2"  />
			<g>
				<title>p450 (PF00067)
"Cytochrome P450"</title>
				<polygon class="PF00067" points="200,32 208,40 200,48" stroke-linejoin="round" width="9" height="24" fill="rgb(195,210,54)" stroke="rgb(155,168,43)" stroke-width="1" opacity="0.75" />
			</g>
		</g>
		<g>
			<title>pbtX
PbtX</title>
			<polygon class="pbtX
PbtX" points="217,10 238,40 217,70" fill="rgb(255,255,255)" fill-opacity="1.0" stroke="rgb(0,0,0)" stroke-width="2"  />
		</g>
		<g>
			<title>pbtM1
PbtM1</title>
			<polygon class="pbtM1
PbtM1" points="240,25 247,25 247,10 277,40 247,70 247,55 240,55" fill="rgb(255,255,255)" fill-opacity="1.0" stroke="rgb(0,0,0)" stroke-width="2"  />
			<g>
				<title>MTS (PF05175)
"Methyltransferase small domain"</title>
				<polygon class="PF05175" points="252,28 261,28 265,32 265,48 261,52 252,52" stroke-linejoin="round" width="13" height="24" fill="rgb(70,94,185)" stroke="rgb(56,75,148)" stroke-width="1" opacity="0.75" />
			</g>
		</g>
		<g>
			<title>pbtM2
PbtM2</title>
			<polygon class="pbtM2
PbtM2" points="280,25 289,25 289,10 319,40 289,70 289,55 280,55" fill="rgb(255,255,255)" fill-opacity="1.0" stroke="rgb(0,0,0)" stroke-width="2"  />
			<g>
				<title>Radical_SAM (PF04055)
"Radical SAM superfamily"</title>
				<rect class="PF04055" x="280" y="28" stroke-linejoin="round" width="18" height="24" fill="rgb(223,193,78)" stroke="rgb(178,154,62)" stroke-width="1" opacity="0.75" />
			</g>
		</g>
		<g>
			<title>pbtA
PbtA</title>
			<polygon class="pbtA
PbtA" points="323,10 328,40 323,70" fill="rgb(255,255,255)" fill-opacity="1.0" stroke="rgb(0,0,0)" stroke-width="2"  />
			<g>
				<title>Thiopep_pre (PF19409)
"Thiopeptide-type bacteriocin precursor"</title>
				<polygon class="PF19409" points="325,38 325,40 325,42" stroke-linejoin="round" width="2" height="24" fill="rgb(183,46,49)" stroke="rgb(146,36,39)" stroke-width="1" opacity="0.75" />
			</g>
		</g>
		<g>
			<title>pbtB
PbtB</title>
			<polygon class="pbtB
PbtB" points="331,25 384,25 384,10 414,40 384,70 384,55 331,55" fill="rgb(255,255,255)" fill-opacity="1.0" stroke="rgb(0,0,0)" stroke-width="2"  />
			<g>
				<title>Lant_dehydr_N (PF04738)
"Lantibiotic dehydratase, N terminus"</title>
				<rect class="PF04738" x="344" y="28" stroke-linejoin="round" width="32" height="24" fill="rgb(191,60,69)" stroke="rgb(152,48,55)" stroke-width="1" opacity="0.75" />
			</g>
		</g>
		<g>
			<title>pbtC
PbtC</title>
			<polygon class="pbtC
PbtC" points="414,25 414,25 414,10 444,40 414,70 414,55 414,55" fill="rgb(255,255,255)" fill-opacity="1.0" stroke="rgb(0,0,0)" stroke-width="2"  />
			<g>
				<title>Lant_dehydr_C (PF14028)
"Lantibiotic biosynthesis dehydratase C-term"</title>
				<polygon class="PF14028" points="414,28 428,28 440,40 428,52 414,52" stroke-linejoin="round" width="27" height="24" fill="rgb(195,82,58)" stroke="rgb(156,65,46)" stroke-width="1" opacity="0.75" />
			</g>
		</g>
		<g>
			<title>pbtD
PbtD</title>
			<polygon class="pbtD
PbtD" points="443,25 446,25 446,10 476,40 446,70 446,55 443,55" fill="rgb(255,255,255)" fill-opacity="1.0" stroke="rgb(0,0,0)" stroke-width="2"  />
			<g>
				<title>Lant_dehydr_C (PF14028)
"Lantibiotic biosynthesis dehydratase C-term"</title>
				<polygon class="PF14028" points="443,28 460,28 472,40 460,52 443,52" stroke-linejoin="round" width="31" height="24" fill="rgb(195,82,58)" stroke="rgb(156,65,46)" stroke-width="1" opacity="0.75" />
			</g>
		</g>
		<g>
			<title>pbtE
PbtE</title>
			<polygon class="pbtE
PbtE" points="477,25 492,25 492,10 522,40 492,70 492,55 477,55" fill="rgb(255,255,255)" fill-opacity="1.0" stroke="rgb(0,0,0)" stroke-width="2"  />
			<g>
				<title>Nitroreductase (PF00881)
"Nitroreductase family"</title>
				<polygon class="PF00881" points="502,28 506,28 518,40 506,52 502,52" stroke-linejoin="round" width="17" height="24" fill="rgb(106,62,184)" stroke="rgb(84,49,147)" stroke-width="1" opacity="0.75" />
			</g>
		</g>
		<g>
			<title>pbtF
PbtF</title>
			<polygon class="pbtF
PbtF" points="522,25 551,25 551,10 581,40 551,70 551,55 522,55" fill="rgb(255,255,255)" fill-opacity="1.0" stroke="rgb(0,0,0)" stroke-width="2"  />
		</g>
		<g>
			<title>pbtG
PbtG</title>
			<polygon class="pbtG
PbtG" points="582,25 609,25 609,10 639,40 609,70 609,55 582,55" fill="rgb(255,255,255)" fill-opacity="1.0" stroke="rgb(0,0,0)" stroke-width="2"  />
			<g>
				<title>YcaO (PF02624)
"YcaO cyclodehydratase, ATP-ad Mg2+-binding"</title>
				<polygon class="PF02624" points="602,28 623,28 635,40 623,52 602,52" stroke-linejoin="round" width="34" height="24" fill="rgb(69,185,74)" stroke="rgb(55,148,59)" stroke-width="1" opacity="0.75" />
			</g>
		</g>
		<g>
			<title>pbtH
PbtH</title>
			<polygon class="pbtH
PbtH" points="640,10 652,40 640,70" fill="rgb(255,255,255)" fill-opacity="1.0" stroke="rgb(0,0,0)" stroke-width="2"  />
		</g>
		<g>
			<title>pbtM3
PbtM3</title>
			<polygon class="pbtM3
PbtM3" points="654,25 662,25 662,10 692,40 662,70 662,55 654,55" fill="rgb(255,255,255)" fill-opacity="1.0" stroke="rgb(0,0,0)" stroke-width="2"  />
			<g>
				<title>Radical_SAM (PF04055)
"Radical SAM superfamily"</title>
				<rect class="PF04055" x="654" y="28" stroke-linejoin="round" width="18" height="24" fill="rgb(223,193,78)" stroke="rgb(178,154,62)" stroke-width="1" opacity="0.75" />
			</g>
		</g>
		<g>
			<title>pbtM4
PbtM4</title>
			<polygon class="pbtM4
PbtM4" points="693,25 696,25 696,10 726,40 696,70 696,55 693,55" fill="rgb(255,255,255)" fill-opacity="1.0" stroke="rgb(0,0,0)" stroke-width="2"  />
			<g>
				<title>Methyltransf_2 (PF00891)
"O-methyltransferase domain"</title>
				<polygon class="PF00891" points="703,28 710,28 722,40 710,52 703,52" stroke-linejoin="round" width="20" height="24" fill="rgb(91,124,224)" stroke="rgb(72,99,179)" stroke-width="1" opacity="0.75" />
			</g>
		</g>
		<g>
			<title>rpsL
S12P</title>
			<polygon class="rpsL
S12P" points="744,10 756,40 744,70" fill="rgb(255,255,255)" fill-opacity="1.0" stroke="rgb(0,0,0)" stroke-width="2"  />
			<g>
				<title>Ribosom_S12_S23 (PF00164)
"Ribosomal protein S12/S23"</title>
				<polygon class="PF00164" points="745,28 747,28 753,40 747,52 745,52" stroke-linejoin="round" width="11" height="24" fill="rgb(85,219,139)" stroke="rgb(68,175,111)" stroke-width="1" opacity="0.75" />
			</g>
		</g>
		<g>
			<title>rpsG
S7P</title>
			<polygon class="rpsG
S7P" points="756,10 771,40 756,70" fill="rgb(255,255,255)" fill-opacity="1.0" stroke="rgb(0,0,0)" stroke-width="2"  />
			<g>
				<title>Ribosomal_S7 (PF00177)
"Ribosomal protein S7p/S5e"</title>
				<polygon class="PF00177" points="756,28 761,28 768,40 761,52 756,52" stroke-linejoin="round" width="14" height="24" fill="rgb(97,226,191)" stroke="rgb(77,180,152)" stroke-width="1" opacity="0.75" />
			</g>
		</g>
		<g>
			<title>fusA
EF G</title>
			<polygon class="fusA
EF G" points="773,25 812,25 812,10 842,40 812,70 812,55 773,55" fill="rgb(255,255,255)" fill-opacity="1.0" stroke="rgb(0,0,0)" stroke-width="2"  />
			<g>
				<title>GTP_EFTU (PF00009)
"Elongation factor Tu GTP binding domain"</title>
				<rect class="PF00009" x="773" y="28" stroke-linejoin="round" width="27" height="24" fill="rgb(205,198,101)" stroke="rgb(164,158,80)" stroke-width="1" opacity="0.75" />
			</g>
			<g>
				<title>GTP_EFTU_D2 (PF03144)
"Elongation factor Tu domain 2"</title>
				<rect class="PF03144" x="805" y="28" stroke-linejoin="round" width="6" height="24" fill="rgb(199,166,57)" stroke="rgb(159,132,45)" stroke-width="1" opacity="0.75" />
			</g>
			<g>
				<title>EFG_III (PF14492)
"Elongation Factor G, domain III"</title>
				<rect class="PF14492" x="813" y="28" stroke-linejoin="round" width="7" height="24" fill="rgb(147,101,214)" stroke="rgb(117,80,171)" stroke-width="1" opacity="0.75" />
			</g>
			<g>
				<title>EFG_IV (PF03764)
"Elongation factor G, domain IV"</title>
				<polygon class="PF03764" points="821,28 826,28 833,35 833,45 826,52 821,52" stroke-linejoin="round" width="12" height="24" fill="rgb(138,62,178)" stroke="rgb(110,49,142)" stroke-width="1" opacity="0.75" />
			</g>
			<g>
				<title>EFG_C (PF00679)
"Elongation factor G C-terminus"</title>
				<polygon class="PF00679" points="833,35 838,40 833,45" stroke-linejoin="round" width="8" height="24" fill="rgb(184,92,170)" stroke="rgb(147,73,136)" stroke-width="1" opacity="0.75" />
			</g>
		</g>
		<g>
			<title>tuf
EF Tu</title>
			<polygon class="tuf
EF Tu" points="846,25 855,25 855,10 885,40 855,70 855,55 846,55" fill="rgb(255,255,255)" fill-opacity="1.0" stroke="rgb(0,0,0)" stroke-width="2"  />
			<g>
				<title>GTP_EFTU (PF00009)
"Elongation factor Tu GTP binding domain"</title>
				<rect class="PF00009" x="847" y="28" stroke-linejoin="round" width="19" height="24" fill="rgb(205,198,101)" stroke="rgb(164,158,80)" stroke-width="1" opacity="0.75" />
			</g>
			<g>
				<title>GTP_EFTU_D2 (PF03144)
"Elongation factor Tu domain 2"</title>
				<polygon class="PF03144" points="868,28 869,28 875,34 875,46 869,52 868,52" stroke-linejoin="round" width="7" height="24" fill="rgb(199,166,57)" stroke="rgb(159,132,45)" stroke-width="1" opacity="0.75" />
			</g>
			<g>
				<title>GTP_EFTU_D3 (PF03143)
"Elongation factor Tu C-terminal domain"</title>
				<polygon class="PF03143" points="876,35 881,40 876,45" stroke-linejoin="round" width="9" height="24" fill="rgb(219,124,56)" stroke="rgb(175,99,44)" stroke-width="1" opacity="0.75" />
			</g>
		</g>
	</g>
</svg>
