<svg version="1.1" baseProfile="full" xmlns="http://www.w3.org/2000/svg" width="2010.8333333333333" height="80">
	<g>
		<line x1="10" y1="40.0" x2="2000.8333333333333" y2="40.0" style="stroke:rgb(70,70,70); stroke-width:3 "/>
		<g>
			<title>stcA
putative polyketide synthase</title>
			<polygon class="stcA
putative polyketide synthase" points="295,25 103,25 103,10 73,40 103,70 103,55 295,55" fill="rgb(255,255,255)" fill-opacity="1.0" stroke="rgb(0,0,0)" stroke-width="2"  />
			<g>
				<title>Thioesterase (PF00975)
"Thioesterase domain"</title>
				<polygon class="PF00975" points="88,29 89,28 99,28 99,52 89,52 88,51" stroke-linejoin="round" width="11" height="24" fill="rgb(69,76,223)" stroke="rgb(55,60,178)" stroke-width="1" opacity="0.75" />
			</g>
			<g>
				<title>PP-binding (PF00550)
"Phosphopantetheine attachment site"</title>
				<rect class="PF00550" x="105" y="28" stroke-linejoin="round" width="6" height="24" fill="rgb(181,58,166)" stroke="rgb(144,46,132)" stroke-width="1" opacity="0.75" />
			</g>
			<g>
				<title>PP-binding (PF00550)
"Phosphopantetheine attachment site"</title>
				<rect class="PF00550" x="117" y="28" stroke-linejoin="round" width="6" height="24" fill="rgb(181,58,166)" stroke="rgb(144,46,132)" stroke-width="1" opacity="0.75" />
			</g>
			<g>
				<title>PS-DH (PF14765)
"Polyketide synthase dehydratase N-terminal domain"</title>
				<rect class="PF14765" x="134" y="28" stroke-linejoin="round" width="13" height="24" fill="rgb(189,61,178)" stroke="rgb(151,48,142)" stroke-width="1" opacity="0.75" />
			</g>
			<g>
				<title>Acyl_transf_1 (PF00698)
"Acyl transferase domain"</title>
				<rect class="PF00698" x="175" y="28" stroke-linejoin="round" width="31" height="24" fill="rgb(132,93,193)" stroke="rgb(105,74,154)" stroke-width="1" opacity="0.75" />
			</g>
			<g>
				<title>Ketoacyl-synt_C (PF02801)
"Beta-ketoacyl synthase, C-terminal domain"</title>
				<rect class="PF02801" x="219" y="28" stroke-linejoin="round" width="12" height="24" fill="rgb(212,79,72)" stroke="rgb(169,63,57)" stroke-width="1" opacity="0.75" />
			</g>
			<g>
				<title>ketoacyl-synt (PF00109)
"Beta-ketoacyl synthase, N-terminal domain"</title>
				<rect class="PF00109" x="232" y="28" stroke-linejoin="round" width="24" height="24" fill="rgb(74,179,82)" stroke="rgb(59,143,65)" stroke-width="1" opacity="0.75" />
			</g>
			<g>
				<title>SAT (PF16073)
"Starter unit:ACP transacylase in aflatoxin biosynthesis"</title>
				<rect class="PF16073" x="270" y="28" stroke-linejoin="round" width="24" height="24" fill="rgb(77,185,114)" stroke="rgb(61,148,91)" stroke-width="1" opacity="0.75" />
			</g>
		</g>
		<g>
			<title>stcB
putative p450 monooxygenase</title>
			<polygon class="stcB
putative p450 monooxygenase" points="310,25 332,25 332,10 362,40 332,70 332,55 310,55" fill="rgb(255,255,255)" fill-opacity="1.0" stroke="rgb(0,0,0)" stroke-width="2"  />
			<g>
				<title>p450 (PF00067)
"Cytochrome P450"</title>
				<rect class="PF00067" x="313" y="28" stroke-linejoin="round" width="19" height="24" fill="rgb(195,210,54)" stroke="rgb(155,168,43)" stroke-width="1" opacity="0.75" />
			</g>
			<g>
				<title>p450 (PF00067)
"Cytochrome P450"</title>
				<polygon class="PF00067" points="331,28 345,28 349,32 349,48 345,52 331,52" stroke-linejoin="round" width="18" height="24" fill="rgb(195,210,54)" stroke="rgb(155,168,43)" stroke-width="1" opacity="0.75" />
			</g>
		</g>
		<g>
			<title>stcC
putative peroxidase</title>
			<polygon class="stcC
putative peroxidase" points="420,25 419,25 419,10 389,40 419,70 419,55 420,55" fill="rgb(255,255,255)" fill-opacity="1.0" stroke="rgb(0,0,0)" stroke-width="2"  />
			<g>
				<title>Peroxidase_2 (PF01328)
"Peroxidase, family 2"</title>
				<polygon class="PF01328" points="396,37 405,28 416,28 416,52 405,52 396,43" stroke-linejoin="round" width="20" height="24" fill="rgb(149,93,218)" stroke="rgb(119,74,174)" stroke-width="1" opacity="0.75" />
			</g>
		</g>
		<g>
			<title>stcE
putative ketoreductase</title>
			<polygon class="stcE
putative ketoreductase" points="482,25 484,25 484,10 514,40 484,70 484,55 482,55" fill="rgb(255,255,255)" fill-opacity="1.0" stroke="rgb(0,0,0)" stroke-width="2"  />
			<g>
				<title>adh_short (PF00106)
"short chain dehydrogenase"</title>
				<polygon class="PF00106" points="484,28 498,28 502,32 502,48 498,52 484,52" stroke-linejoin="round" width="18" height="24" fill="rgb(128,81,196)" stroke="rgb(102,64,156)" stroke-width="1" opacity="0.75" />
			</g>
		</g>
		<g>
			<title>aflR
pathway specific transcription factor</title>
			<polygon class="aflR
pathway specific transcription factor" points="568,25 555,25 555,10 525,40 555,70 555,55 568,55" fill="rgb(255,255,255)" fill-opacity="1.0" stroke="rgb(0,0,0)" stroke-width="2"  />
			<g>
				<title>AflR (PF08493)
"Aflatoxin regulatory protein"</title>
				<polygon class="PF08493" points="537,32 541,28 546,28 546,52 541,52 537,48" stroke-linejoin="round" width="9" height="24" fill="rgb(82,57,195)" stroke="rgb(65,45,156)" stroke-width="1" opacity="0.75" />
			</g>
			<g>
				<title>Zn_clus (PF00172)
"Fungal Zn(2)-Cys(6) binuclear cluster domain"</title>
				<rect class="PF00172" x="562" y="28" stroke-linejoin="round" width="3" height="24" fill="rgb(58,207,82)" stroke="rgb(46,165,65)" stroke-width="1" opacity="0.75" />
			</g>
		</g>
		<g>
			<title>stcF
putative p450 monooxygenase</title>
			<polygon class="stcF
putative p450 monooxygenase" points="713,25 690,25 690,10 660,40 690,70 690,55 713,55" fill="rgb(255,255,255)" fill-opacity="1.0" stroke="rgb(0,0,0)" stroke-width="2"  />
			<g>
				<title>p450 (PF00067)
"Cytochrome P450"</title>
				<polygon class="PF00067" points="666,38 676,28 710,28 710,52 676,52 666,42" stroke-linejoin="round" width="44" height="24" fill="rgb(195,210,54)" stroke="rgb(155,168,43)" stroke-width="1" opacity="0.75" />
			</g>
		</g>
		<g>
			<title>stcI
putative lipase/esterase</title>
			<polygon class="stcI
putative lipase/esterase" points="780,10 808,40 780,70" fill="rgb(255,255,255)" fill-opacity="1.0" stroke="rgb(0,0,0)" stroke-width="2"  />
			<g>
				<title>Abhydrolase_3 (PF07859)
"alpha/beta hydrolase fold"</title>
				<polygon class="PF07859" points="785,28 792,28 804,40 792,52 785,52" stroke-linejoin="round" width="21" height="24" fill="rgb(216,68,121)" stroke="rgb(172,54,96)" stroke-width="1" opacity="0.75" />
			</g>
		</g>
		<g>
			<title>stcJ
putative fatty acid synthase alpha</title>
			<polygon class="stcJ
putative fatty acid synthase alpha" points="1004,25 877,25 877,10 847,40 877,70 877,55 1004,55" fill="rgb(255,255,255)" fill-opacity="1.0" stroke="rgb(0,0,0)" stroke-width="2"  />
			<g>
				<title>ACPS (PF01648)
"4'-phosphopantetheinyl transferase superfamily"</title>
				<polygon class="PF01648" points="851,40 861,30 861,50" stroke-linejoin="round" width="11" height="24" fill="rgb(58,190,78)" stroke="rgb(46,152,62)" stroke-width="1" opacity="0.75" />
			</g>
			<g>
				<title>Ketoacyl-synt_C (PF02801)
"Beta-ketoacyl synthase, C-terminal domain"</title>
				<rect class="PF02801" x="876" y="28" stroke-linejoin="round" width="12" height="24" fill="rgb(212,79,72)" stroke="rgb(169,63,57)" stroke-width="1" opacity="0.75" />
			</g>
			<g>
				<title>ketoacyl-synt (PF00109)
"Beta-ketoacyl synthase, N-terminal domain"</title>
				<rect class="PF00109" x="890" y="28" stroke-linejoin="round" width="23" height="24" fill="rgb(74,179,82)" stroke="rgb(59,143,65)" stroke-width="1" opacity="0.75" />
			</g>
			<g>
				<title>adh_short (PF00106)
"short chain dehydrogenase"</title>
				<rect class="PF00106" x="938" y="28" stroke-linejoin="round" width="20" height="24" fill="rgb(128,81,196)" stroke="rgb(102,64,156)" stroke-width="1" opacity="0.75" />
			</g>
			<g>
				<title>FAS_I_H (PF18314)
"Fatty acid synthase type I helical domain"</title>
				<rect class="PF18314" x="962" y="28" stroke-linejoin="round" width="17" height="24" fill="rgb(186,161,78)" stroke="rgb(148,128,62)" stroke-width="1" opacity="0.75" />
			</g>
			<g>
				<title>Fas_alpha_ACP (PF18325)
"Fatty acid synthase subunit alpha Acyl carrier domain"</title>
				<rect class="PF18325" x="982" y="28" stroke-linejoin="round" width="15" height="24" fill="rgb(90,76,202)" stroke="rgb(71,60,161)" stroke-width="1" opacity="0.75" />
			</g>
		</g>
		<g>
			<title>stcK
putative fatty acid synthase beta subunit</title>
			<polygon class="stcK
putative fatty acid synthase beta subunit" points="1021,25 1188,25 1188,10 1218,40 1188,70 1188,55 1021,55" fill="rgb(255,255,255)" fill-opacity="1.0" stroke="rgb(0,0,0)" stroke-width="2"  />
			<g>
				<title>SAT (PF16073)
"Starter unit:ACP transacylase in aflatoxin biosynthesis"</title>
				<rect class="PF16073" x="1022" y="28" stroke-linejoin="round" width="25" height="24" fill="rgb(77,185,114)" stroke="rgb(61,148,91)" stroke-width="1" opacity="0.75" />
			</g>
			<g>
				<title>Fas1-AflB-like_hel (PF08354)
"Fatty acid synthase subunit beta/Fas1-like, helical"</title>
				<rect class="PF08354" x="1080" y="28" stroke-linejoin="round" width="35" height="24" fill="rgb(200,86,126)" stroke="rgb(160,68,100)" stroke-width="1" opacity="0.75" />
			</g>
			<g>
				<title>FAS_meander (PF17951)
"Fatty acid synthase meander beta sheet domain"</title>
				<rect class="PF17951" x="1120" y="28" stroke-linejoin="round" width="14" height="24" fill="rgb(177,192,60)" stroke="rgb(141,153,48)" stroke-width="1" opacity="0.75" />
			</g>
			<g>
				<title>MaoC_dehydrat_N (PF13452)
"N-terminal half of MaoC dehydratase"</title>
				<rect class="PF13452" x="1135" y="28" stroke-linejoin="round" width="12" height="24" fill="rgb(80,58,182)" stroke="rgb(64,46,145)" stroke-width="1" opacity="0.75" />
			</g>
			<g>
				<title>MaoC_dehydratas (PF01575)
"MaoC like domain"</title>
				<rect class="PF01575" x="1160" y="28" stroke-linejoin="round" width="13" height="24" fill="rgb(86,84,223)" stroke="rgb(68,67,178)" stroke-width="1" opacity="0.75" />
			</g>
			<g>
				<title>Acyl_transf_1 (PF00698)
"Acyl transferase domain"</title>
				<polygon class="PF00698" points="1175,28 1202,28 1210,36 1210,44 1202,52 1175,52" stroke-linejoin="round" width="35" height="24" fill="rgb(132,93,193)" stroke="rgb(105,74,154)" stroke-width="1" opacity="0.75" />
			</g>
		</g>
		<g>
			<title>stcL
putative p450 monooxygenase</title>
			<polygon class="stcL
putative p450 monooxygenase" points="1275,25 1253,25 1253,10 1223,40 1253,70 1253,55 1275,55" fill="rgb(255,255,255)" fill-opacity="1.0" stroke="rgb(0,0,0)" stroke-width="2"  />
			<g>
				<title>p450 (PF00067)
"Cytochrome P450"</title>
				<polygon class="PF00067" points="1227,40 1239,28 1271,28 1271,52 1239,52" stroke-linejoin="round" width="45" height="24" fill="rgb(195,210,54)" stroke="rgb(155,168,43)" stroke-width="1" opacity="0.75" />
			</g>
		</g>
		<g>
			<title>stcO</title>
			<polygon class="stcO" points="1374,40 1403,10 1403,70" fill="rgb(255,255,255)" fill-opacity="1.0" stroke="rgb(0,0,0)" stroke-width="2"  />
			<g>
				<title>NAD_binding_10 (PF13460)
"NAD(P)H-binding"</title>
				<polygon class="PF13460" points="1381,37 1390,28 1402,28 1402,52 1390,52 1381,43" stroke-linejoin="round" width="21" height="24" fill="rgb(131,53,182)" stroke="rgb(104,42,145)" stroke-width="1" opacity="0.75" />
			</g>
		</g>
		<g>
			<title>stcQ</title>
			<polygon class="stcQ" points="1457,40 1484,10 1484,70" fill="rgb(255,255,255)" fill-opacity="1.0" stroke="rgb(0,0,0)" stroke-width="2"  />
			<g>
				<title>NAD_binding_10 (PF13460)
"NAD(P)H-binding"</title>
				<polygon class="PF13460" points="1463,38 1472,28 1483,28 1483,52 1472,52 1463,42" stroke-linejoin="round" width="20" height="24" fill="rgb(131,53,182)" stroke="rgb(104,42,145)" stroke-width="1" opacity="0.75" />
			</g>
		</g>
		<g>
			<title>stcS
putative p450 monooxygenase</title>
			<polygon class="stcS
putative p450 monooxygenase" points="1601,25 1581,25 1581,10 1551,40 1581,70 1581,55 1601,55" fill="rgb(255,255,255)" fill-opacity="1.0" stroke="rgb(0,0,0)" stroke-width="2"  />
			<g>
				<title>p450 (PF00067)
"Cytochrome P450"</title>
				<polygon class="PF00067" points="1555,40 1567,28 1580,28 1580,52 1567,52" stroke-linejoin="round" width="26" height="24" fill="rgb(195,210,54)" stroke="rgb(155,168,43)" stroke-width="1" opacity="0.75" />
			</g>
			<g>
				<title>p450 (PF00067)
"Cytochrome P450"</title>
				<rect class="PF00067" x="1585" y="28" stroke-linejoin="round" width="15" height="24" fill="rgb(195,210,54)" stroke="rgb(155,168,43)" stroke-width="1" opacity="0.75" />
			</g>
		</g>
		<g>
			<title>stcT
putative translation elongation factor 1 gamma</title>
			<polygon class="stcT
putative translation elongation factor 1 gamma" points="1629,10 1652,40 1629,70" fill="rgb(255,255,255)" fill-opacity="1.0" stroke="rgb(0,0,0)" stroke-width="2"  />
			<g>
				<title>GST_N (PF02798)
"Glutathione S-transferase, N-terminal domain"</title>
				<rect class="PF02798" x="1629" y="28" stroke-linejoin="round" width="7" height="24" fill="rgb(100,68,184)" stroke="rgb(79,54,147)" stroke-width="1" opacity="0.75" />
			</g>
			<g>
				<title>GST_C (PF00043)
"Glutathione S-transferase, C-terminal domain"</title>
				<polygon class="PF00043" points="1638,28 1639,28 1648,39 1648,41 1639,52 1638,52" stroke-linejoin="round" width="10" height="24" fill="rgb(111,184,77)" stroke="rgb(88,147,61)" stroke-width="1" opacity="0.75" />
			</g>
		</g>
		<g>
			<title>stcU
putative ketoreductase</title>
			<polygon class="stcU
putative ketoreductase" points="1659,40 1688,10 1688,70" fill="rgb(255,255,255)" fill-opacity="1.0" stroke="rgb(0,0,0)" stroke-width="2"  />
			<g>
				<title>adh_short_C2 (PF13561)
"Enoyl-(Acyl carrier protein) reductase"</title>
				<polygon class="PF13561" points="1663,40 1675,28 1686,28 1686,52 1675,52" stroke-linejoin="round" width="24" height="24" fill="rgb(79,221,209)" stroke="rgb(63,176,167)" stroke-width="1" opacity="0.75" />
			</g>
		</g>
		<g>
			<title>stcV
putative dehydrogenase</title>
			<polygon class="stcV
putative dehydrogenase" points="1735,25 1723,25 1723,10 1693,40 1723,70 1723,55 1735,55" fill="rgb(255,255,255)" fill-opacity="1.0" stroke="rgb(0,0,0)" stroke-width="2"  />
			<g>
				<title>Aldo_ket_red (PF00248)
"Aldo/keto reductase family"</title>
				<polygon class="PF00248" points="1702,35 1709,28 1732,28 1732,52 1709,52 1702,45" stroke-linejoin="round" width="30" height="24" fill="rgb(96,196,138)" stroke="rgb(76,156,110)" stroke-width="1" opacity="0.75" />
			</g>
		</g>
		<g>
			<title>stcW
putative FAD-containing monooxygenase</title>
			<polygon class="stcW
putative FAD-containing monooxygenase" points="1745,25 1769,25 1769,10 1799,40 1769,70 1769,55 1745,55" fill="rgb(255,255,255)" fill-opacity="1.0" stroke="rgb(0,0,0)" stroke-width="2"  />
			<g>
				<title>FMO-like (PF00743)
"Flavin-binding monooxygenase-like"</title>
				<rect class="PF00743" x="1745" y="28" stroke-linejoin="round" width="25" height="24" fill="rgb(187,193,82)" stroke="rgb(149,154,65)" stroke-width="1" opacity="0.75" />
			</g>
		</g>
	</g>
</svg>
