<svg version="1.1" baseProfile="full" xmlns="http://www.w3.org/2000/svg" width="665.9666666666667" height="80">
	<g>
		<line x1="10" y1="40.0" x2="655.9666666666667" y2="40.0" style="stroke:rgb(70,70,70); stroke-width:3 "/>
		<g>
			<title>easH
putative dioxygenase</title>
			<polygon class="easH
putative dioxygenase" points="10,10 28,40 10,70" fill="rgb(255,255,255)" fill-opacity="1.0" stroke="rgb(0,0,0)" stroke-width="2"  />
			<g>
				<title>PhyH (PF05721)
"Phytanoyl-CoA dioxygenase (PhyH)"</title>
				<polygon class="PF05721" points="10,28 17,28 20,32 20,48 17,52 10,52" stroke-linejoin="round" width="10" height="24" fill="rgb(186,53,95)" stroke="rgb(148,42,76)" stroke-width="1" opacity="0.75" />
			</g>
		</g>
		<g>
			<title>easA
putative oxidoreductase</title>
			<polygon class="easA
putative oxidoreductase" points="81,25 73,25 73,10 43,40 73,70 73,55 81,55" fill="rgb(255,255,255)" fill-opacity="1.0" stroke="rgb(0,0,0)" stroke-width="2"  />
			<g>
				<title>Oxidored_FMN (PF00724)
"NADH:flavin oxidoreductase / NADH oxidase family"</title>
				<polygon class="PF00724" points="47,40 59,28 79,28 79,52 59,52" stroke-linejoin="round" width="33" height="24" fill="rgb(77,132,194)" stroke="rgb(61,105,155)" stroke-width="1" opacity="0.75" />
			</g>
		</g>
		<g>
			<title>easG
conserved protein EasG</title>
			<polygon class="easG
conserved protein EasG" points="127,25 132,25 132,10 162,40 132,70 132,55 127,55" fill="rgb(255,255,255)" fill-opacity="1.0" stroke="rgb(0,0,0)" stroke-width="2"  />
			<g>
				<title>NmrA (PF05368)
"NmrA-like family"</title>
				<polygon class="PF05368" points="137,28 146,28 150,32 150,48 146,52 137,52" stroke-linejoin="round" width="13" height="24" fill="rgb(102,214,88)" stroke="rgb(81,171,70)" stroke-width="1" opacity="0.75" />
			</g>
		</g>
		<g>
			<title>easF
conserved protein EasF</title>
			<polygon class="easF
conserved protein EasF" points="199,25 193,25 193,10 163,40 193,70 193,55 199,55" fill="rgb(255,255,255)" fill-opacity="1.0" stroke="rgb(0,0,0)" stroke-width="2"  />
			<g>
				<title>Methyltransf_33 (PF10017)
"Histidine-specific methyltransferase, SAM-dependent"</title>
				<polygon class="PF10017" points="167,40 179,28 197,28 197,52 179,52" stroke-linejoin="round" width="32" height="24" fill="rgb(77,219,196)" stroke="rgb(61,175,156)" stroke-width="1" opacity="0.75" />
			</g>
		</g>
		<g>
			<title>easE
putative oxidoreductase</title>
			<polygon class="easE
putative oxidoreductase" points="281,25 246,25 246,10 216,40 246,70 246,55 281,55" fill="rgb(255,255,255)" fill-opacity="1.0" stroke="rgb(0,0,0)" stroke-width="2"  />
			<g>
				<title>BBE (PF08031)
"Berberine and berberine like"</title>
				<polygon class="PF08031" points="223,37 227,33 227,47 223,43" stroke-linejoin="round" width="4" height="24" fill="rgb(56,179,213)" stroke="rgb(44,143,170)" stroke-width="1" opacity="0.75" />
			</g>
			<g>
				<title>FAD_binding_4 (PF01565)
"FAD binding domain"</title>
				<rect class="PF01565" x="253" y="28" stroke-linejoin="round" width="14" height="24" fill="rgb(194,197,94)" stroke="rgb(155,157,75)" stroke-width="1" opacity="0.75" />
			</g>
		</g>
		<g>
			<title>lpsB
lysergyl peptide synthetase LpsB</title>
			<polygon class="lpsB
lysergyl peptide synthetase LpsB" points="323,25 430,25 430,10 460,40 430,70 430,55 323,55" fill="rgb(255,255,255)" fill-opacity="1.0" stroke="rgb(0,0,0)" stroke-width="2"  />
			<g>
				<title>Condensation (PF00668)
"Condensation domain"</title>
				<rect class="PF00668" x="325" y="28" stroke-linejoin="round" width="23" height="24" fill="rgb(172,217,60)" stroke="rgb(137,173,47)" stroke-width="1" opacity="0.75" />
			</g>
			<g>
				<title>AMP-binding (PF00501)
"AMP-binding enzyme"</title>
				<rect class="PF00501" x="351" y="28" stroke-linejoin="round" width="34" height="24" fill="rgb(189,78,204)" stroke="rgb(151,62,163)" stroke-width="1" opacity="0.75" />
			</g>
			<g>
				<title>PP-binding (PF00550)
"Phosphopantetheine attachment site"</title>
				<rect class="PF00550" x="406" y="28" stroke-linejoin="round" width="6" height="24" fill="rgb(181,58,166)" stroke="rgb(144,46,132)" stroke-width="1" opacity="0.75" />
			</g>
			<g>
				<title>Condensation (PF00668)
"Condensation domain"</title>
				<polygon class="PF00668" points="417,28 444,28 456,40 444,52 417,52" stroke-linejoin="round" width="40" height="24" fill="rgb(172,217,60)" stroke="rgb(137,173,47)" stroke-width="1" opacity="0.75" />
			</g>
		</g>
	</g>
</svg>
