<svg version="1.1" baseProfile="full" xmlns="http://www.w3.org/2000/svg" width="170.53333333333333" height="80">
	<g>
		<line x1="10" y1="40.0" x2="160.53333333333333" y2="40.0" style="stroke:rgb(70,70,70); stroke-width:3 "/>
		<g>
			<title> (BTJ_873)
hypothetical protein</title>
			<polygon class=" (BTJ_873)
hypothetical protein" points="10,10 14,40 10,70" fill="rgb(255,255,255)" fill-opacity="1.0" stroke="rgb(0,0,0)" stroke-width="2"  />
		</g>
		<g>
			<title> (BTJ_874)
transglutaminase-like superfamily protein</title>
			<polygon class=" (BTJ_874)
transglutaminase-like superfamily protein" points="17,10 41,40 17,70" fill="rgb(255,255,255)" fill-opacity="1.0" stroke="rgb(0,0,0)" stroke-width="2"  />
			<g>
				<title>Transglut_core3 (PF13471)
"Transglutaminase-like superfamily"</title>
				<polygon class="PF13471" points="28,28 28,28 37,40 28,52 28,52" stroke-linejoin="round" width="11" height="24" fill="rgb(88,181,169)" stroke="rgb(70,144,135)" stroke-width="1" opacity="0.75" />
			</g>
		</g>
		<g>
			<title> (BTJ_875)
asparagine synthase family protein</title>
			<polygon class=" (BTJ_875)
asparagine synthase family protein" points="44,25 67,25 67,10 97,40 67,70 67,55 44,55" fill="rgb(255,255,255)" fill-opacity="1.0" stroke="rgb(0,0,0)" stroke-width="2"  />
			<g>
				<title>Asn_synthase (PF00733)
"Asparagine synthase"</title>
				<polygon class="PF00733" points="59,28 81,28 93,40 81,52 59,52" stroke-linejoin="round" width="35" height="24" fill="rgb(200,91,135)" stroke="rgb(160,72,108)" stroke-width="1" opacity="0.75" />
			</g>
		</g>
		<g>
			<title> (BTJ_876)
ABC transporter family protein</title>
			<polygon class=" (BTJ_876)
ABC transporter family protein" points="101,25 130,25 130,10 160,40 130,70 130,55 101,55" fill="rgb(255,255,255)" fill-opacity="1.0" stroke="rgb(0,0,0)" stroke-width="2"  />
			<g>
				<title>ABC_tran (PF00005)
"ABC transporter"</title>
				<polygon class="PF00005" points="137,28 143,28 151,36 151,44 143,52 137,52" stroke-linejoin="round" width="14" height="24" fill="rgb(46,186,108)" stroke="rgb(36,148,86)" stroke-width="1" opacity="0.75" />
			</g>
		</g>
	</g>
</svg>
