<svg version="1.1" baseProfile="full" xmlns="http://www.w3.org/2000/svg" width="1141.9" height="80">
	<g>
		<line x1="10" y1="40.0" x2="1131.9" y2="40.0" style="stroke:rgb(70,70,70); stroke-width:3 "/>
		<g>
			<title>
NUDIX hydrolase</title>
			<polygon class="
NUDIX hydrolase" points="52,25 52,25 52,10 22,40 52,70 52,55 52,55" fill="rgb(255,255,255)" fill-opacity="1.0" stroke="rgb(0,0,0)" stroke-width="2"  />
		</g>
		<g>
			<title>
endoribonuclease</title>
			<polygon class="
endoribonuclease" points="63,40 78,10 78,70" fill="rgb(255,255,255)" fill-opacity="1.0" stroke="rgb(0,0,0)" stroke-width="2"  />
			<g>
				<title>YjgF_endoribonc (PF14588)
"YjgF/chorismate_mutase-like, putative endoribonuclease"</title>
				<polygon class="PF14588" points="66,40 72,28 77,28 77,52 72,52" stroke-linejoin="round" width="14" height="24" fill="rgb(202,80,137)" stroke="rgb(161,64,109)" stroke-width="1" opacity="0.75" />
			</g>
		</g>
		<g>
			<title>
hypothetical protein</title>
			<polygon class="
hypothetical protein" points="78,40 83,10 83,70" fill="rgb(255,255,255)" fill-opacity="1.0" stroke="rgb(0,0,0)" stroke-width="2"  />
			<g>
				<title>DUF4177 (PF13783)
"Domain of unknown function (DUF4177)"</title>
				<polygon class="PF13783" points="81,40 82,34 82,46" stroke-linejoin="round" width="4" height="24" fill="rgb(83,182,47)" stroke="rgb(66,145,37)" stroke-width="1" opacity="0.75" />
			</g>
		</g>
		<g>
			<title>
arsenical pump-driving ATPase</title>
			<polygon class="
arsenical pump-driving ATPase" points="86,25 88,25 88,10 118,40 88,70 88,55 86,55" fill="rgb(255,255,255)" fill-opacity="1.0" stroke="rgb(0,0,0)" stroke-width="2"  />
			<g>
				<title>ArsA_ATPase (PF02374)
"Anion-transporting ATPase"</title>
				<polygon class="PF02374" points="86,28 102,28 104,30 104,50 102,52 86,52" stroke-linejoin="round" width="18" height="24" fill="rgb(193,89,126)" stroke="rgb(154,71,100)" stroke-width="1" opacity="0.75" />
			</g>
		</g>
		<g>
			<title>
arsenical pump-driving ATPase</title>
			<polygon class="
arsenical pump-driving ATPase" points="119,25 132,25 132,10 162,40 132,70 132,55 119,55" fill="rgb(255,255,255)" fill-opacity="1.0" stroke="rgb(0,0,0)" stroke-width="2"  />
			<g>
				<title>ArsA_ATPase (PF02374)
"Anion-transporting ATPase"</title>
				<polygon class="PF02374" points="122,28 146,28 151,33 151,47 146,52 122,52" stroke-linejoin="round" width="29" height="24" fill="rgb(193,89,126)" stroke="rgb(154,71,100)" stroke-width="1" opacity="0.75" />
			</g>
		</g>
		<g>
			<title>
whiB-type transcription regulator</title>
			<polygon class="
whiB-type transcription regulator" points="168,40 176,10 176,70" fill="rgb(255,255,255)" fill-opacity="1.0" stroke="rgb(0,0,0)" stroke-width="2"  />
			<g>
				<title>Whib (PF02467)
"Transcription factor WhiB"</title>
				<polygon class="PF02467" points="173,33 174,28 175,28 175,52 174,52 173,47" stroke-linejoin="round" width="2" height="24" fill="rgb(169,77,227)" stroke="rgb(135,61,181)" stroke-width="1" opacity="0.75" />
			</g>
		</g>
		<g>
			<title>
transpeptidase</title>
			<polygon class="
transpeptidase" points="193,25 239,25 239,10 269,40 239,70 239,55 193,55" fill="rgb(255,255,255)" fill-opacity="1.0" stroke="rgb(0,0,0)" stroke-width="2"  />
			<g>
				<title>Transgly (PF00912)
"Transglycosylase"</title>
				<rect class="PF00912" x="200" y="28" stroke-linejoin="round" width="18" height="24" fill="rgb(191,154,91)" stroke="rgb(152,123,72)" stroke-width="1" opacity="0.75" />
			</g>
			<g>
				<title>Transpeptidase (PF00905)
"Penicillin binding protein transpeptidase domain"</title>
				<polygon class="PF00905" points="229,28 253,28 258,33 258,47 253,52 229,52" stroke-linejoin="round" width="29" height="24" fill="rgb(76,221,178)" stroke="rgb(60,176,142)" stroke-width="1" opacity="0.75" />
			</g>
		</g>
		<g>
			<title>
gatB/yqey domain-containing protein</title>
			<polygon class="
gatB/yqey domain-containing protein" points="272,40 287,10 287,70" fill="rgb(255,255,255)" fill-opacity="1.0" stroke="rgb(0,0,0)" stroke-width="2"  />
			<g>
				<title>YqeY (PF09424)
"Yqey-like protein"</title>
				<polygon class="PF09424" points="275,40 281,28 286,28 286,52 281,52" stroke-linejoin="round" width="14" height="24" fill="rgb(202,75,166)" stroke="rgb(161,60,132)" stroke-width="1" opacity="0.75" />
			</g>
		</g>
		<g>
			<title>
putative secreted protein</title>
			<polygon class="
putative secreted protein" points="290,25 291,25 291,10 321,40 291,70 291,55 290,55" fill="rgb(255,255,255)" fill-opacity="1.0" stroke="rgb(0,0,0)" stroke-width="2"  />
			<g>
				<title>Metallophos (PF00149)
"Calcineurin-like phosphoesterase"</title>
				<polygon class="PF00149" points="295,28 305,28 314,37 314,43 305,52 295,52" stroke-linejoin="round" width="19" height="24" fill="rgb(179,92,74)" stroke="rgb(143,73,59)" stroke-width="1" opacity="0.75" />
			</g>
		</g>
		<g>
			<title>
asparagine synthetase</title>
			<polygon class="
asparagine synthetase" points="340,25 382,25 382,10 412,40 382,70 382,55 340,55" fill="rgb(255,255,255)" fill-opacity="1.0" stroke="rgb(0,0,0)" stroke-width="2"  />
			<g>
				<title>GATase_7 (PF13537)
"Glutamine amidotransferase domain"</title>
				<rect class="PF13537" x="345" y="28" stroke-linejoin="round" width="11" height="24" fill="rgb(102,71,204)" stroke="rgb(81,56,163)" stroke-width="1" opacity="0.75" />
			</g>
			<g>
				<title>Asn_synthase (PF00733)
"Asparagine synthase"</title>
				<polygon class="PF00733" points="364,28 396,28 399,31 399,49 396,52 364,52" stroke-linejoin="round" width="35" height="24" fill="rgb(200,91,135)" stroke="rgb(160,72,108)" stroke-width="1" opacity="0.75" />
			</g>
		</g>
		<g>
			<title>
methyltransferase type 11</title>
			<polygon class="
methyltransferase type 11" points="414,10 437,40 414,70" fill="rgb(255,255,255)" fill-opacity="1.0" stroke="rgb(0,0,0)" stroke-width="2"  />
			<g>
				<title>Methyltransf_25 (PF13649)
"Methyltransferase domain"</title>
				<polygon class="PF13649" points="418,28 424,28 427,32 427,48 424,52 418,52" stroke-linejoin="round" width="9" height="24" fill="rgb(224,103,106)" stroke="rgb(179,82,84)" stroke-width="1" opacity="0.75" />
			</g>
		</g>
		<g>
			<title>
PEP mutase</title>
			<polygon class="
PEP mutase" points="437,10 465,40 437,70" fill="rgb(255,255,255)" fill-opacity="1.0" stroke="rgb(0,0,0)" stroke-width="2"  />
			<g>
				<title>PEP_mutase (PF13714)
"Phosphoenolpyruvate phosphomutase"</title>
				<polygon class="PF13714" points="437,28 449,28 461,40 461,40 449,52 437,52" stroke-linejoin="round" width="24" height="24" fill="rgb(75,181,147)" stroke="rgb(59,144,117)" stroke-width="1" opacity="0.75" />
			</g>
		</g>
		<g>
			<title>
phosphonopyruvate decarboxylase</title>
			<polygon class="
phosphonopyruvate decarboxylase" points="465,25 472,25 472,10 502,40 472,70 472,55 465,55" fill="rgb(255,255,255)" fill-opacity="1.0" stroke="rgb(0,0,0)" stroke-width="2"  />
			<g>
				<title>TPP_enzyme_C (PF02775)
"Thiamine pyrophosphate enzyme, C-terminal TPP binding domain"</title>
				<polygon class="PF02775" points="485,28 486,28 498,40 498,40 486,52 485,52" stroke-linejoin="round" width="13" height="24" fill="rgb(212,69,87)" stroke="rgb(169,55,69)" stroke-width="1" opacity="0.75" />
			</g>
		</g>
		<g>
			<title>
metallophosphoesterase</title>
			<polygon class="
metallophosphoesterase" points="503,10 528,40 503,70" fill="rgb(255,255,255)" fill-opacity="1.0" stroke="rgb(0,0,0)" stroke-width="2"  />
			<g>
				<title>Metallophos (PF00149)
"Calcineurin-like phosphoesterase"</title>
				<polygon class="PF00149" points="503,28 514,28 521,36 521,44 514,52 503,52" stroke-linejoin="round" width="18" height="24" fill="rgb(179,92,74)" stroke="rgb(143,73,59)" stroke-width="1" opacity="0.75" />
			</g>
		</g>
		<g>
			<title>
methylcrotonyl-CoA carboxylase alpha subunit</title>
			<polygon class="
methylcrotonyl-CoA carboxylase alpha subunit" points="531,25 547,25 547,10 577,40 547,70 547,55 531,55" fill="rgb(255,255,255)" fill-opacity="1.0" stroke="rgb(0,0,0)" stroke-width="2"  />
			<g>
				<title>Biotin_carb_N (PF00289)
"Biotin carboxylase, N-terminal domain"</title>
				<rect class="PF00289" x="531" y="28" stroke-linejoin="round" width="10" height="24" fill="rgb(226,88,113)" stroke="rgb(180,70,90)" stroke-width="1" opacity="0.75" />
			</g>
			<g>
				<title>CPSase_L_D2 (PF02786)
"Carbamoyl-phosphate synthase L chain, ATP binding domain"</title>
				<rect class="PF02786" x="542" y="28" stroke-linejoin="round" width="17" height="24" fill="rgb(215,220,78)" stroke="rgb(172,176,62)" stroke-width="1" opacity="0.75" />
			</g>
		</g>
		<g>
			<title>
2-ketoglutarate dependent dioxygenase</title>
			<polygon class="
2-ketoglutarate dependent dioxygenase" points="578,25 579,25 579,10 609,40 579,70 579,55 578,55" fill="rgb(255,255,255)" fill-opacity="1.0" stroke="rgb(0,0,0)" stroke-width="2"  />
			<g>
				<title>TauD (PF02668)
"Taurine catabolism dioxygenase TauD, TfdA family"</title>
				<polygon class="PF02668" points="579,28 593,28 605,40 605,40 593,52 579,52" stroke-linejoin="round" width="26" height="24" fill="rgb(72,206,196)" stroke="rgb(57,164,156)" stroke-width="1" opacity="0.75" />
			</g>
		</g>
		<g>
			<title>
methyltransferase small</title>
			<polygon class="
methyltransferase small" points="610,25 615,25 615,10 645,40 615,70 615,55 610,55" fill="rgb(255,255,255)" fill-opacity="1.0" stroke="rgb(0,0,0)" stroke-width="2"  />
			<g>
				<title>MTS (PF05175)
"Methyltransferase small domain"</title>
				<polygon class="PF05175" points="621,28 628,28 634,34 634,46 628,52 621,52" stroke-linejoin="round" width="13" height="24" fill="rgb(70,94,185)" stroke="rgb(56,75,148)" stroke-width="1" opacity="0.75" />
			</g>
		</g>
		<g>
			<title>
hypothetical protein</title>
			<polygon class="
hypothetical protein" points="647,25 659,25 659,10 689,40 659,70 659,55 647,55" fill="rgb(255,255,255)" fill-opacity="1.0" stroke="rgb(0,0,0)" stroke-width="2"  />
			<g>
				<title>Acetyltransf_6 (PF13480)
"Acetyltransferase (GNAT) domain"</title>
				<polygon class="PF13480" points="669,28 673,28 683,38 683,42 673,52 669,52" stroke-linejoin="round" width="14" height="24" fill="rgb(201,102,90)" stroke="rgb(160,81,72)" stroke-width="1" opacity="0.75" />
			</g>
		</g>
		<g>
			<title>
major facilitator superfamily MFS_1</title>
			<polygon class="
major facilitator superfamily MFS_1" points="731,25 720,25 720,10 690,40 720,70 720,55 731,55" fill="rgb(255,255,255)" fill-opacity="1.0" stroke="rgb(0,0,0)" stroke-width="2"  />
			<g>
				<title>MFS_1 (PF07690)
"Major Facilitator Superfamily"</title>
				<polygon class="PF07690" points="695,39 706,28 729,28 729,52 706,52 695,41" stroke-linejoin="round" width="34" height="24" fill="rgb(228,207,98)" stroke="rgb(182,165,78)" stroke-width="1" opacity="0.75" />
			</g>
		</g>
		<g>
			<title>
thymidylate kinase-like protein</title>
			<polygon class="
thymidylate kinase-like protein" points="732,40 755,10 755,70" fill="rgb(255,255,255)" fill-opacity="1.0" stroke="rgb(0,0,0)" stroke-width="2"  />
		</g>
		<g>
			<title>
3-carboxy-ciscis-muconate cycloisomerase</title>
			<polygon class="
3-carboxy-ciscis-muconate cycloisomerase" points="805,25 786,25 786,10 756,40 786,70 786,55 805,55" fill="rgb(255,255,255)" fill-opacity="1.0" stroke="rgb(0,0,0)" stroke-width="2"  />
			<g>
				<title>ADSL_C (PF10397)
"Adenylosuccinate lyase C-terminus"</title>
				<polygon class="PF10397" points="760,40 765,35 765,45" stroke-linejoin="round" width="8" height="24" fill="rgb(95,182,229)" stroke="rgb(76,145,183)" stroke-width="1" opacity="0.75" />
			</g>
			<g>
				<title>Lyase_1 (PF00206)
"Lyase"</title>
				<polygon class="PF00206" points="771,29 772,28 783,28 783,52 772,52 771,51" stroke-linejoin="round" width="12" height="24" fill="rgb(125,214,85)" stroke="rgb(99,171,68)" stroke-width="1" opacity="0.75" />
			</g>
			<g>
				<title>Lyase_1 (PF00206)
"Lyase"</title>
				<rect class="PF00206" x="783" y="28" stroke-linejoin="round" width="20" height="24" fill="rgb(125,214,85)" stroke="rgb(99,171,68)" stroke-width="1" opacity="0.75" />
			</g>
		</g>
		<g>
			<title>
hypothetical protein</title>
			<polygon class="
hypothetical protein" points="871,25 836,25 836,10 806,40 836,70 836,55 871,55" fill="rgb(255,255,255)" fill-opacity="1.0" stroke="rgb(0,0,0)" stroke-width="2"  />
			<g>
				<title>NAD_binding_9 (PF13454)
"FAD-NAD(P)-binding"</title>
				<rect class="PF13454" x="851" y="28" stroke-linejoin="round" width="18" height="24" fill="rgb(79,94,179)" stroke="rgb(63,75,143)" stroke-width="1" opacity="0.75" />
			</g>
		</g>
		<g>
			<title>
glutamine synthetase family protein</title>
			<polygon class="
glutamine synthetase family protein" points="922,25 900,25 900,10 870,40 900,70 900,55 922,55" fill="rgb(255,255,255)" fill-opacity="1.0" stroke="rgb(0,0,0)" stroke-width="2"  />
			<g>
				<title>Gln-synt_C (PF00120)
"Glutamine synthetase, catalytic domain"</title>
				<polygon class="PF00120" points="874,40 886,28 906,28 906,52 886,52" stroke-linejoin="round" width="34" height="24" fill="rgb(185,153,76)" stroke="rgb(148,122,60)" stroke-width="1" opacity="0.75" />
			</g>
		</g>
		<g>
			<title>
amidase</title>
			<polygon class="
amidase" points="972,25 952,25 952,10 922,40 952,70 952,55 972,55" fill="rgb(255,255,255)" fill-opacity="1.0" stroke="rgb(0,0,0)" stroke-width="2"  />
			<g>
				<title>Amidase (PF01425)
"Amidase"</title>
				<polygon class="PF01425" points="926,40 938,28 967,28 967,52 938,52" stroke-linejoin="round" width="42" height="24" fill="rgb(194,63,150)" stroke="rgb(155,50,119)" stroke-width="1" opacity="0.75" />
			</g>
		</g>
		<g>
			<title>
hypothetical protein</title>
			<polygon class="
hypothetical protein" points="1029,25 1002,25 1002,10 972,40 1002,70 1002,55 1029,55" fill="rgb(255,255,255)" fill-opacity="1.0" stroke="rgb(0,0,0)" stroke-width="2"  />
		</g>
		<g>
			<title>
GCN5-related N-acetyltransferase</title>
			<polygon class="
GCN5-related N-acetyltransferase" points="1032,40 1045,10 1045,70" fill="rgb(255,255,255)" fill-opacity="1.0" stroke="rgb(0,0,0)" stroke-width="2"  />
			<g>
				<title>Acetyltransf_10 (PF13673)
"Acetyltransferase (GNAT) domain"</title>
				<polygon class="PF13673" points="1035,40 1040,28 1042,28 1042,52 1040,52" stroke-linejoin="round" width="10" height="24" fill="rgb(80,212,184)" stroke="rgb(64,169,147)" stroke-width="1" opacity="0.75" />
			</g>
		</g>
		<g>
			<title>
adenylosuccinate lyase</title>
			<polygon class="
adenylosuccinate lyase" points="1088,25 1075,25 1075,10 1045,40 1075,70 1075,55 1088,55" fill="rgb(255,255,255)" fill-opacity="1.0" stroke="rgb(0,0,0)" stroke-width="2"  />
			<g>
				<title>ADSL_C (PF10397)
"Adenylosuccinate lyase C-terminus"</title>
				<polygon class="PF10397" points="1049,40 1053,36 1053,44" stroke-linejoin="round" width="7" height="24" fill="rgb(95,182,229)" stroke="rgb(76,145,183)" stroke-width="1" opacity="0.75" />
			</g>
			<g>
				<title>Lyase_1 (PF00206)
"Lyase"</title>
				<polygon class="PF00206" points="1060,29 1061,28 1088,28 1088,52 1061,52 1060,51" stroke-linejoin="round" width="28" height="24" fill="rgb(125,214,85)" stroke="rgb(99,171,68)" stroke-width="1" opacity="0.75" />
			</g>
		</g>
		<g>
			<title>
transcriptional regulator</title>
			<polygon class="
transcriptional regulator" points="1128,25 1124,25 1124,10 1094,40 1124,70 1124,55 1128,55" fill="rgb(255,255,255)" fill-opacity="1.0" stroke="rgb(0,0,0)" stroke-width="2"  />
		</g>
	</g>
</svg>
