<svg version="1.1" baseProfile="full" xmlns="http://www.w3.org/2000/svg" width="387.6333333333333" height="80">
	<g>
		<line x1="10" y1="40.0" x2="377.6333333333333" y2="40.0" style="stroke:rgb(70,70,70); stroke-width:3 "/>
		<g>
			<title>
NADH dehydrogenase subunit N</title>
			<polygon class="
NADH dehydrogenase subunit N" points="10,10 21,40 10,70" fill="rgb(255,255,255)" fill-opacity="1.0" stroke="rgb(0,0,0)" stroke-width="2"  />
			<g>
				<title>Proton_antipo_M (PF00361)
"Proton-conducting membrane transporter"</title>
				<polygon class="PF00361" points="10,28 13,28 15,32 15,48 13,52 10,52" stroke-linejoin="round" width="5" height="24" fill="rgb(70,63,195)" stroke="rgb(55,50,156)" stroke-width="1" opacity="0.75" />
			</g>
		</g>
		<g>
			<title>
putative chemotaxis signal trancription protein</title>
			<polygon class="
putative chemotaxis signal trancription protein" points="57,25 54,25 54,10 24,40 54,70 54,55 57,55" fill="rgb(255,255,255)" fill-opacity="1.0" stroke="rgb(0,0,0)" stroke-width="2"  />
			<g>
				<title>Response_reg (PF00072)
"Response regulator receiver domain"</title>
				<polygon class="PF00072" points="28,40 38,30 38,50" stroke-linejoin="round" width="12" height="24" fill="rgb(59,131,198)" stroke="rgb(47,104,158)" stroke-width="1" opacity="0.75" />
			</g>
			<g>
				<title>CheW (PF01584)
"CheW-like domain"</title>
				<rect class="PF01584" x="41" y="28" stroke-linejoin="round" width="14" height="24" fill="rgb(84,217,190)" stroke="rgb(67,173,152)" stroke-width="1" opacity="0.75" />
			</g>
		</g>
		<g>
			<title>
ribonuclease Z</title>
			<polygon class="
ribonuclease Z" points="90,25 90,25 90,10 60,40 90,70 90,55 90,55" fill="rgb(255,255,255)" fill-opacity="1.0" stroke="rgb(0,0,0)" stroke-width="2"  />
			<g>
				<title>Lactamase_B_2 (PF12706)
"Beta-lactamase superfamily domain"</title>
				<polygon class="PF12706" points="64,40 70,34 70,46" stroke-linejoin="round" width="7" height="24" fill="rgb(229,69,211)" stroke="rgb(183,55,168)" stroke-width="1" opacity="0.75" />
			</g>
			<g>
				<title>Lactamase_B_2 (PF12706)
"Beta-lactamase superfamily domain"</title>
				<polygon class="PF12706" points="73,31 76,28 86,28 86,52 76,52 73,49" stroke-linejoin="round" width="13" height="24" fill="rgb(229,69,211)" stroke="rgb(183,55,168)" stroke-width="1" opacity="0.75" />
			</g>
		</g>
		<g>
			<title>
GCN-related N-acetyltransferase</title>
			<polygon class="
GCN-related N-acetyltransferase" points="93,10 108,40 93,70" fill="rgb(255,255,255)" fill-opacity="1.0" stroke="rgb(0,0,0)" stroke-width="2"  />
			<g>
				<title>Acetyltransf_10 (PF13673)
"Acetyltransferase (GNAT) domain"</title>
				<polygon class="PF13673" points="94,28 98,28 105,40 98,52 94,52" stroke-linejoin="round" width="14" height="24" fill="rgb(80,212,184)" stroke="rgb(64,169,147)" stroke-width="1" opacity="0.75" />
			</g>
		</g>
		<g>
			<title>elaB
ElaB</title>
			<polygon class="elaB
ElaB" points="110,10 120,40 110,70" fill="rgb(255,255,255)" fill-opacity="1.0" stroke="rgb(0,0,0)" stroke-width="2"  />
			<g>
				<title>DUF883 (PF05957)
"DUF883 N-terminal domain"</title>
				<polygon class="PF05957" points="110,28 112,28 115,35 115,45 112,52 110,52" stroke-linejoin="round" width="5" height="24" fill="rgb(57,105,192)" stroke="rgb(45,83,153)" stroke-width="1" opacity="0.75" />
			</g>
			<g>
				<title>DUF883_C (PF19029)
"DUF883 C-terminal glycine zipper region"</title>
				<polygon class="PF19029" points="117,40 117,40 117,40" stroke-linejoin="round" width="2" height="24" fill="rgb(214,175,89)" stroke="rgb(171,139,71)" stroke-width="1" opacity="0.75" />
			</g>
		</g>
		<g>
			<title>menF
MenF</title>
			<polygon class="menF
MenF" points="123,25 136,25 136,10 166,40 136,70 136,55 123,55" fill="rgb(255,255,255)" fill-opacity="1.0" stroke="rgb(0,0,0)" stroke-width="2"  />
			<g>
				<title>Chorismate_bind (PF00425)
"chorismate binding enzyme"</title>
				<polygon class="PF00425" points="139,28 149,28 161,40 149,52 139,52" stroke-linejoin="round" width="25" height="24" fill="rgb(126,181,77)" stroke="rgb(100,144,61)" stroke-width="1" opacity="0.75" />
			</g>
		</g>
		<g>
			<title>menD
MenD</title>
			<polygon class="menD
MenD" points="169,25 194,25 194,10 224,40 194,70 194,55 169,55" fill="rgb(255,255,255)" fill-opacity="1.0" stroke="rgb(0,0,0)" stroke-width="2"  />
			<g>
				<title>TPP_enzyme_N (PF02776)
"Thiamine pyrophosphate enzyme, N-terminal TPP binding domain"</title>
				<rect class="PF02776" x="169" y="28" stroke-linejoin="round" width="11" height="24" fill="rgb(208,64,165)" stroke="rgb(166,51,132)" stroke-width="1" opacity="0.75" />
			</g>
			<g>
				<title>TPP_enzyme_M_2 (PF16582)
"Middle domain of thiamine pyrophosphate"</title>
				<rect class="PF16582" x="187" y="28" stroke-linejoin="round" width="20" height="24" fill="rgb(216,184,68)" stroke="rgb(172,147,54)" stroke-width="1" opacity="0.75" />
			</g>
			<g>
				<title>TPP_enzyme_C (PF02775)
"Thiamine pyrophosphate enzyme, C-terminal TPP binding domain"</title>
				<polygon class="PF02775" points="209,29 220,40 209,51" stroke-linejoin="round" width="13" height="24" fill="rgb(212,69,87)" stroke="rgb(169,55,69)" stroke-width="1" opacity="0.75" />
			</g>
		</g>
		<g>
			<title>yfbB
YfbB</title>
			<polygon class="yfbB
YfbB" points="225,10 250,40 225,70" fill="rgb(255,255,255)" fill-opacity="1.0" stroke="rgb(0,0,0)" stroke-width="2"  />
			<g>
				<title>Abhydrolase_1 (PF00561)
"alpha/beta hydrolase fold"</title>
				<polygon class="PF00561" points="226,28 237,28 246,40 237,52 226,52" stroke-linejoin="round" width="22" height="24" fill="rgb(99,159,215)" stroke="rgb(79,127,172)" stroke-width="1" opacity="0.75" />
			</g>
		</g>
		<g>
			<title>menB
MenB</title>
			<polygon class="menB
MenB" points="251,10 279,40 251,70" fill="rgb(255,255,255)" fill-opacity="1.0" stroke="rgb(0,0,0)" stroke-width="2"  />
			<g>
				<title>ECH_1 (PF00378)
"Enoyl-CoA hydratase/isomerase"</title>
				<polygon class="PF00378" points="253,28 263,28 275,40 263,52 253,52" stroke-linejoin="round" width="25" height="24" fill="rgb(201,73,190)" stroke="rgb(160,58,152)" stroke-width="1" opacity="0.75" />
			</g>
		</g>
		<g>
			<title>menC
MenC</title>
			<polygon class="menC
MenC" points="279,25 281,25 281,10 311,40 281,70 281,55 279,55" fill="rgb(255,255,255)" fill-opacity="1.0" stroke="rgb(0,0,0)" stroke-width="2"  />
			<g>
				<title>MenC_N (PF21508)
"MenC, N-terminal domain"</title>
				<rect class="PF21508" x="279" y="28" stroke-linejoin="round" width="9" height="24" fill="rgb(70,134,215)" stroke="rgb(56,107,172)" stroke-width="1" opacity="0.75" />
			</g>
			<g>
				<title>MR_MLE_C (PF13378)
"Enolase C-terminal domain-like"</title>
				<polygon class="PF13378" points="290,28 294,28 306,40 294,52 290,52" stroke-linejoin="round" width="18" height="24" fill="rgb(152,69,199)" stroke="rgb(121,55,159)" stroke-width="1" opacity="0.75" />
			</g>
		</g>
		<g>
			<title>menE
MenE</title>
			<polygon class="menE
MenE" points="311,25 326,25 326,10 356,40 326,70 326,55 311,55" fill="rgb(255,255,255)" fill-opacity="1.0" stroke="rgb(0,0,0)" stroke-width="2"  />
			<g>
				<title>AMP-binding (PF00501)
"AMP-binding enzyme"</title>
				<polygon class="PF00501" points="311,28 340,28 341,29 341,51 340,52 311,52" stroke-linejoin="round" width="30" height="24" fill="rgb(189,78,204)" stroke="rgb(151,62,163)" stroke-width="1" opacity="0.75" />
			</g>
			<g>
				<title>AMP-binding_C (PF13193)
"AMP-binding enzyme C-terminal domain"</title>
				<polygon class="PF13193" points="347,35 352,40 347,45" stroke-linejoin="round" width="7" height="24" fill="rgb(195,82,106)" stroke="rgb(156,65,84)" stroke-width="1" opacity="0.75" />
			</g>
		</g>
		<g>
			<title>tctA
TctA</title>
			<polygon class="tctA
TctA" points="357,40 377,10 377,70" fill="rgb(255,255,255)" fill-opacity="1.0" stroke="rgb(0,0,0)" stroke-width="2"  />
			<g>
				<title>TctA (PF01970)
"Tripartite tricarboxylate transporter TctA family"</title>
				<polygon class="PF01970" points="363,37 369,28 376,28 376,52 369,52 363,43" stroke-linejoin="round" width="13" height="24" fill="rgb(186,87,141)" stroke="rgb(148,69,112)" stroke-width="1" opacity="0.75" />
			</g>
		</g>
	</g>
</svg>
