<svg version="1.1" baseProfile="full" xmlns="http://www.w3.org/2000/svg" width="999.8333333333334" height="80">
	<g>
		<line x1="10" y1="40.0" x2="989.8333333333334" y2="40.0" style="stroke:rgb(70,70,70); stroke-width:3 "/>
		<g>
			<title>aur1N
putative acetyl-CoA carboxylase alpha subunit</title>
			<polygon class="aur1N
putative acetyl-CoA carboxylase alpha subunit" points="10,25 32,25 32,10 62,40 32,70 32,55 10,55" fill="rgb(255,255,255)" fill-opacity="1.0" stroke="rgb(0,0,0)" stroke-width="2"  />
			<g>
				<title>Carboxyl_trans (PF01039)
"Carboxyl transferase domain"</title>
				<polygon class="PF01039" points="13,28 45,28 57,40 45,52 13,52" stroke-linejoin="round" width="48" height="24" fill="rgb(185,80,158)" stroke="rgb(148,64,126)" stroke-width="1" opacity="0.75" />
			</g>
		</g>
		<g>
			<title>aur1X2
hypothetical protein</title>
			<polygon class="aur1X2
hypothetical protein" points="63,10 70,40 63,70" fill="rgb(255,255,255)" fill-opacity="1.0" stroke="rgb(0,0,0)" stroke-width="2"  />
			<g>
				<title>ACC_epsilon (PF13822)
"Acyl-CoA carboxylase epsilon subunit"</title>
				<polygon class="PF13822" points="63,28 64,28 67,40 64,52 63,52" stroke-linejoin="round" width="6" height="24" fill="rgb(200,100,124)" stroke="rgb(160,80,99)" stroke-width="1" opacity="0.75" />
			</g>
		</g>
		<g>
			<title>aur1T
putative dNDP-glucose 4,6-dehydratase</title>
			<polygon class="aur1T
putative dNDP-glucose 4,6-dehydratase" points="74,25 77,25 77,10 107,40 77,70 77,55 74,55" fill="rgb(255,255,255)" fill-opacity="1.0" stroke="rgb(0,0,0)" stroke-width="2"  />
			<g>
				<title>GDP_Man_Dehyd (PF16363)
"GDP-mannose 4,6 dehydratase"</title>
				<polygon class="PF16363" points="74,28 91,28 103,40 91,52 74,52" stroke-linejoin="round" width="30" height="24" fill="rgb(50,144,195)" stroke="rgb(40,115,156)" stroke-width="1" opacity="0.75" />
			</g>
		</g>
		<g>
			<title>aur1Q
putative NDP-hexose 3,4-dehydratase</title>
			<polygon class="aur1Q
putative NDP-hexose 3,4-dehydratase" points="108,25 121,25 121,10 151,40 121,70 121,55 108,55" fill="rgb(255,255,255)" fill-opacity="1.0" stroke="rgb(0,0,0)" stroke-width="2"  />
			<g>
				<title>DegT_DnrJ_EryC1 (PF01041)
"DegT/DnrJ/EryC1/StrS aminotransferase family"</title>
				<polygon class="PF01041" points="111,28 135,28 147,40 135,52 111,52" stroke-linejoin="round" width="38" height="24" fill="rgb(228,110,183)" stroke="rgb(182,88,146)" stroke-width="1" opacity="0.75" />
			</g>
		</g>
		<g>
			<title>aur1S
putative NDP-hexose 2,3-dehydratase</title>
			<polygon class="aur1S
putative NDP-hexose 2,3-dehydratase" points="151,25 167,25 167,10 197,40 167,70 167,55 151,55" fill="rgb(255,255,255)" fill-opacity="1.0" stroke="rgb(0,0,0)" stroke-width="2"  />
			<g>
				<title>Hexose_dehydrat (PF03559)
"NDP-hexose 2,3-dehydratase"</title>
				<rect class="PF03559" x="154" y="28" stroke-linejoin="round" width="20" height="24" fill="rgb(56,139,184)" stroke="rgb(44,111,147)" stroke-width="1" opacity="0.75" />
			</g>
			<g>
				<title>Hexose_dehydrat (PF03559)
"NDP-hexose 2,3-dehydratase"</title>
				<polygon class="PF03559" points="176,28 181,28 193,40 181,52 176,52" stroke-linejoin="round" width="20" height="24" fill="rgb(56,139,184)" stroke="rgb(44,111,147)" stroke-width="1" opacity="0.75" />
			</g>
		</g>
		<g>
			<title>aur1V
putative NDP-hexose 3-ketoreductase</title>
			<polygon class="aur1V
putative NDP-hexose 3-ketoreductase" points="198,25 200,25 200,10 230,40 200,70 200,55 198,55" fill="rgb(255,255,255)" fill-opacity="1.0" stroke="rgb(0,0,0)" stroke-width="2"  />
			<g>
				<title>GFO_IDH_MocA (PF01408)
"Oxidoreductase family, NAD-binding Rossmann fold"</title>
				<rect class="PF01408" x="198" y="28" stroke-linejoin="round" width="11" height="24" fill="rgb(53,193,178)" stroke="rgb(42,154,142)" stroke-width="1" opacity="0.75" />
			</g>
		</g>
		<g>
			<title>aur1X
hypothetical protein</title>
			<polygon class="aur1X
hypothetical protein" points="233,10 249,40 233,70" fill="rgb(255,255,255)" fill-opacity="1.0" stroke="rgb(0,0,0)" stroke-width="2"  />
			<g>
				<title>SnoaL_4 (PF13577)
"SnoaL-like domain"</title>
				<polygon class="PF13577" points="234,28 239,28 246,40 239,52 234,52" stroke-linejoin="round" width="13" height="24" fill="rgb(58,198,190)" stroke="rgb(46,158,152)" stroke-width="1" opacity="0.75" />
			</g>
		</g>
		<g>
			<title>aur1W
hypothetical protein</title>
			<polygon class="aur1W
hypothetical protein" points="249,10 255,40 249,70" fill="rgb(255,255,255)" fill-opacity="1.0" stroke="rgb(0,0,0)" stroke-width="2"  />
		</g>
		<g>
			<title>aur1U
putative acetyltransferase</title>
			<polygon class="aur1U
putative acetyltransferase" points="257,25 257,25 257,10 287,40 257,70 257,55 257,55" fill="rgb(255,255,255)" fill-opacity="1.0" stroke="rgb(0,0,0)" stroke-width="2"  />
			<g>
				<title>Abhydrolase_1 (PF00561)
"alpha/beta hydrolase fold"</title>
				<rect class="PF00561" x="260" y="28" stroke-linejoin="round" width="10" height="24" fill="rgb(99,159,215)" stroke="rgb(79,127,172)" stroke-width="1" opacity="0.75" />
			</g>
		</g>
		<g>
			<title>sa1
putative N-(5'-phosphoribosyl) anthranilate isomerase</title>
			<polygon class="sa1
putative N-(5'-phosphoribosyl) anthranilate isomerase" points="293,10 316,40 293,70" fill="rgb(255,255,255)" fill-opacity="1.0" stroke="rgb(0,0,0)" stroke-width="2"  />
			<g>
				<title>PRAI (PF00697)
"N-(5'phosphoribosyl)anthranilate (PRA) isomerase"</title>
				<polygon class="PF00697" points="293,28 303,28 312,40 303,52 293,52" stroke-linejoin="round" width="21" height="24" fill="rgb(181,59,183)" stroke="rgb(144,47,146)" stroke-width="1" opacity="0.75" />
			</g>
		</g>
		<g>
			<title>sa2
putative uracyl phosphoribosyltransferase</title>
			<polygon class="sa2
putative uracyl phosphoribosyltransferase" points="319,10 341,40 319,70" fill="rgb(255,255,255)" fill-opacity="1.0" stroke="rgb(0,0,0)" stroke-width="2"  />
			<g>
				<title>UPRTase (PF14681)
"Uracil phosphoribosyltransferase"</title>
				<polygon class="PF14681" points="320,28 328,28 337,40 328,52 320,52" stroke-linejoin="round" width="20" height="24" fill="rgb(62,118,212)" stroke="rgb(49,94,169)" stroke-width="1" opacity="0.75" />
			</g>
		</g>
		<g>
			<title>sa3
putative drug/metabolite transporter</title>
			<polygon class="sa3
putative drug/metabolite transporter" points="341,25 341,25 341,10 371,40 341,70 341,55 341,55" fill="rgb(255,255,255)" fill-opacity="1.0" stroke="rgb(0,0,0)" stroke-width="2"  />
			<g>
				<title>EamA (PF00892)
"EamA-like transporter family"</title>
				<rect class="PF00892" x="342" y="28" stroke-linejoin="round" width="12" height="24" fill="rgb(202,125,98)" stroke="rgb(161,100,78)" stroke-width="1" opacity="0.75" />
			</g>
			<g>
				<title>EamA (PF00892)
"EamA-like transporter family"</title>
				<polygon class="PF00892" points="355,28 355,28 367,40 355,52 355,52" stroke-linejoin="round" width="13" height="24" fill="rgb(202,125,98)" stroke="rgb(161,100,78)" stroke-width="1" opacity="0.75" />
			</g>
		</g>
		<g>
			<title>sa4
conserved hypothetical protein</title>
			<polygon class="sa4
conserved hypothetical protein" points="378,10 385,40 378,70" fill="rgb(255,255,255)" fill-opacity="1.0" stroke="rgb(0,0,0)" stroke-width="2"  />
			<g>
				<title>Tautomerase (PF01361)
"Tautomerase enzyme"</title>
				<polygon class="PF01361" points="378,28 379,28 382,40 379,52 378,52" stroke-linejoin="round" width="5" height="24" fill="rgb(47,46,182)" stroke="rgb(37,36,145)" stroke-width="1" opacity="0.75" />
			</g>
		</g>
		<g>
			<title>sa5
putative indigoidine synthase IndA</title>
			<polygon class="sa5
putative indigoidine synthase IndA" points="386,25 387,25 387,10 417,40 387,70 387,55 386,55" fill="rgb(255,255,255)" fill-opacity="1.0" stroke="rgb(0,0,0)" stroke-width="2"  />
			<g>
				<title>Indigoidine_A (PF04227)
"Indigoidine synthase A like protein"</title>
				<polygon class="PF04227" points="387,28 401,28 413,40 401,52 387,52" stroke-linejoin="round" width="28" height="24" fill="rgb(55,110,187)" stroke="rgb(44,88,149)" stroke-width="1" opacity="0.75" />
			</g>
		</g>
		<g>
			<title>sa6
putative oxidoreductase</title>
			<polygon class="sa6
putative oxidoreductase" points="420,25 426,25 426,10 456,40 426,70 426,55 420,55" fill="rgb(255,255,255)" fill-opacity="1.0" stroke="rgb(0,0,0)" stroke-width="2"  />
			<g>
				<title>Oxidored_FMN (PF00724)
"NADH:flavin oxidoreductase / NADH oxidase family"</title>
				<polygon class="PF00724" points="420,28 439,28 451,40 439,52 420,52" stroke-linejoin="round" width="32" height="24" fill="rgb(77,132,194)" stroke="rgb(61,105,155)" stroke-width="1" opacity="0.75" />
			</g>
		</g>
		<g>
			<title>sa7
putative ribose-phosphate pyrophosphokinase</title>
			<polygon class="sa7
putative ribose-phosphate pyrophosphokinase" points="456,25 458,25 458,10 488,40 458,70 458,55 456,55" fill="rgb(255,255,255)" fill-opacity="1.0" stroke="rgb(0,0,0)" stroke-width="2"  />
			<g>
				<title>Pribosyltran_N (PF13793)
"N-terminal domain of ribose phosphate pyrophosphokinase"</title>
				<rect class="PF13793" x="456" y="28" stroke-linejoin="round" width="11" height="24" fill="rgb(113,87,228)" stroke="rgb(90,69,182)" stroke-width="1" opacity="0.75" />
			</g>
			<g>
				<title>Pribosyl_synth (PF14572)
"Phosphoribosyl synthetase-associated domain"</title>
				<polygon class="PF14572" points="476,33 483,40 476,47" stroke-linejoin="round" width="11" height="24" fill="rgb(194,199,84)" stroke="rgb(155,159,67)" stroke-width="1" opacity="0.75" />
			</g>
		</g>
		<g>
			<title>sa8
putative indigoidine synthase IndC</title>
			<polygon class="sa8
putative indigoidine synthase IndC" points="498,25 596,25 596,10 626,40 596,70 596,55 498,55" fill="rgb(255,255,255)" fill-opacity="1.0" stroke="rgb(0,0,0)" stroke-width="2"  />
			<g>
				<title>AMP-binding (PF00501)
"AMP-binding enzyme"</title>
				<rect class="PF00501" x="500" y="28" stroke-linejoin="round" width="35" height="24" fill="rgb(189,78,204)" stroke="rgb(151,62,163)" stroke-width="1" opacity="0.75" />
			</g>
			<g>
				<title>PP-binding (PF00550)
"Phosphopantetheine attachment site"</title>
				<rect class="PF00550" x="592" y="28" stroke-linejoin="round" width="6" height="24" fill="rgb(181,58,166)" stroke="rgb(144,46,132)" stroke-width="1" opacity="0.75" />
			</g>
			<g>
				<title>Thioesterase (PF00975)
"Thioesterase domain"</title>
				<polygon class="PF00975" points="601,28 610,28 620,38 620,42 610,52 601,52" stroke-linejoin="round" width="19" height="24" fill="rgb(69,76,223)" stroke="rgb(55,60,178)" stroke-width="1" opacity="0.75" />
			</g>
		</g>
		<g>
			<title>sa9
SARP-family transcriptional regulator</title>
			<polygon class="sa9
SARP-family transcriptional regulator" points="635,10 662,40 635,70" fill="rgb(255,255,255)" fill-opacity="1.0" stroke="rgb(0,0,0)" stroke-width="2"  />
			<g>
				<title>Trans_reg_C (PF00486)
"Transcriptional regulatory protein, C terminal"</title>
				<rect class="PF00486" x="636" y="28" stroke-linejoin="round" width="7" height="24" fill="rgb(69,185,116)" stroke="rgb(55,148,92)" stroke-width="1" opacity="0.75" />
			</g>
			<g>
				<title>BTAD (PF03704)
"Bacterial transcriptional activator domain"</title>
				<polygon class="PF03704" points="645,28 647,28 658,40 647,52 645,52" stroke-linejoin="round" width="14" height="24" fill="rgb(174,224,58)" stroke="rgb(139,179,46)" stroke-width="1" opacity="0.75" />
			</g>
		</g>
		<g>
			<title>sa10
putative 3-hydroxyacyl-CoA dehydrogenase</title>
			<polygon class="sa10
putative 3-hydroxyacyl-CoA dehydrogenase" points="697,25 696,25 696,10 666,40 696,70 696,55 697,55" fill="rgb(255,255,255)" fill-opacity="1.0" stroke="rgb(0,0,0)" stroke-width="2"  />
			<g>
				<title>3HCDH (PF00725)
"3-hydroxyacyl-CoA dehydrogenase, C-terminal domain"</title>
				<polygon class="PF00725" points="670,40 678,32 678,48 670,40" stroke-linejoin="round" width="8" height="24" fill="rgb(176,205,94)" stroke="rgb(140,164,75)" stroke-width="1" opacity="0.75" />
			</g>
			<g>
				<title>3HCDH_N (PF02737)
"3-hydroxyacyl-CoA dehydrogenase, NAD binding domain"</title>
				<polygon class="PF02737" points="679,31 682,28 696,28 696,52 682,52 679,49" stroke-linejoin="round" width="17" height="24" fill="rgb(207,58,199)" stroke="rgb(165,46,159)" stroke-width="1" opacity="0.75" />
			</g>
		</g>
		<g>
			<title>sa11
putative oxidoreductase</title>
			<polygon class="sa11
putative oxidoreductase" points="732,25 727,25 727,10 697,40 727,70 727,55 732,55" fill="rgb(255,255,255)" fill-opacity="1.0" stroke="rgb(0,0,0)" stroke-width="2"  />
			<g>
				<title>Bac_luciferase (PF00296)
"Luciferase-like monooxygenase"</title>
				<polygon class="PF00296" points="701,40 713,28 731,28 731,52 713,52" stroke-linejoin="round" width="31" height="24" fill="rgb(50,200,104)" stroke="rgb(40,160,83)" stroke-width="1" opacity="0.75" />
			</g>
		</g>
		<g>
			<title>sa12
putative cyclase</title>
			<polygon class="sa12
putative cyclase" points="733,40 748,10 748,70" fill="rgb(255,255,255)" fill-opacity="1.0" stroke="rgb(0,0,0)" stroke-width="2"  />
			<g>
				<title>SnoaL_4 (PF13577)
"SnoaL-like domain"</title>
				<polygon class="PF13577" points="736,40 742,28 746,28 746,52 742,52" stroke-linejoin="round" width="12" height="24" fill="rgb(58,198,190)" stroke="rgb(46,158,152)" stroke-width="1" opacity="0.75" />
			</g>
		</g>
		<g>
			<title>sa13
putative oxygenase</title>
			<polygon class="sa13
putative oxygenase" points="789,25 781,25 781,10 751,40 781,70 781,55 789,55" fill="rgb(255,255,255)" fill-opacity="1.0" stroke="rgb(0,0,0)" stroke-width="2"  />
			<g>
				<title>Acyl-CoA_dh_2 (PF08028)
"Acyl-CoA dehydrogenase, C-terminal domain"</title>
				<polygon class="PF08028" points="755,40 765,30 765,50" stroke-linejoin="round" width="12" height="24" fill="rgb(61,169,203)" stroke="rgb(48,135,162)" stroke-width="1" opacity="0.75" />
			</g>
		</g>
		<g>
			<title>sa14
putative NDP-glucose phosphate nucleotidyltransferase</title>
			<polygon class="sa14
putative NDP-glucose phosphate nucleotidyltransferase" points="798,25 798,25 798,10 828,40 798,70 798,55 798,55" fill="rgb(255,255,255)" fill-opacity="1.0" stroke="rgb(0,0,0)" stroke-width="2"  />
			<g>
				<title>NTP_transferase (PF00483)
"Nucleotidyl transferase"</title>
				<polygon class="PF00483" points="798,28 812,28 821,37 821,43 812,52 798,52" stroke-linejoin="round" width="23" height="24" fill="rgb(211,145,90)" stroke="rgb(168,116,72)" stroke-width="1" opacity="0.75" />
			</g>
		</g>
		<g>
			<title>sa15
putative reductase</title>
			<polygon class="sa15
putative reductase" points="832,40 851,10 851,70" fill="rgb(255,255,255)" fill-opacity="1.0" stroke="rgb(0,0,0)" stroke-width="2"  />
			<g>
				<title>FMN_red (PF03358)
"NADPH-dependent FMN reductase"</title>
				<polygon class="PF03358" points="836,40 844,28 850,28 850,52 844,52 836,40" stroke-linejoin="round" width="14" height="24" fill="rgb(161,216,66)" stroke="rgb(128,172,52)" stroke-width="1" opacity="0.75" />
			</g>
		</g>
		<g>
			<title>sa16
putative cyclase</title>
			<polygon class="sa16
putative cyclase" points="855,40 869,10 869,70" fill="rgb(255,255,255)" fill-opacity="1.0" stroke="rgb(0,0,0)" stroke-width="2"  />
			<g>
				<title>SnoaL_4 (PF13577)
"SnoaL-like domain"</title>
				<polygon class="PF13577" points="858,40 864,28 867,28 867,52 864,52" stroke-linejoin="round" width="12" height="24" fill="rgb(58,198,190)" stroke="rgb(46,158,152)" stroke-width="1" opacity="0.75" />
			</g>
		</g>
		<g>
			<title>sa17
putative regulatory protein</title>
			<polygon class="sa17
putative regulatory protein" points="876,10 893,40 876,70" fill="rgb(255,255,255)" fill-opacity="1.0" stroke="rgb(0,0,0)" stroke-width="2"  />
		</g>
		<g>
			<title>sa18
putative membrane protein</title>
			<polygon class="sa18
putative membrane protein" points="897,10 915,40 897,70" fill="rgb(255,255,255)" fill-opacity="1.0" stroke="rgb(0,0,0)" stroke-width="2"  />
			<g>
				<title>Anthrone_oxy (PF08592)
"Anthrone oxygenase"</title>
				<polygon class="PF08592" points="903,28 904,28 912,40 904,52 903,52" stroke-linejoin="round" width="10" height="24" fill="rgb(94,203,219)" stroke="rgb(75,162,175)" stroke-width="1" opacity="0.75" />
			</g>
		</g>
		<g>
			<title>sa19
putative integral membrane protein</title>
			<polygon class="sa19
putative integral membrane protein" points="916,40 932,10 932,70" fill="rgb(255,255,255)" fill-opacity="1.0" stroke="rgb(0,0,0)" stroke-width="2"  />
			<g>
				<title>Anthrone_oxy (PF08592)
"Anthrone oxygenase"</title>
				<polygon class="PF08592" points="919,40 926,28 926,28 926,52 926,52" stroke-linejoin="round" width="9" height="24" fill="rgb(94,203,219)" stroke="rgb(75,162,175)" stroke-width="1" opacity="0.75" />
			</g>
		</g>
		<g>
			<title>gdhA
glutamate dehydrogenase</title>
			<polygon class="gdhA
glutamate dehydrogenase" points="941,25 956,25 956,10 986,40 956,70 956,55 941,55" fill="rgb(255,255,255)" fill-opacity="1.0" stroke="rgb(0,0,0)" stroke-width="2"  />
			<g>
				<title>ELFV_dehydrog_N (PF02812)
"Glu/Leu/Phe/Val dehydrogenase, dimerisation domain"</title>
				<rect class="PF02812" x="946" y="28" stroke-linejoin="round" width="12" height="24" fill="rgb(75,155,200)" stroke="rgb(60,123,160)" stroke-width="1" opacity="0.75" />
			</g>
			<g>
				<title>ELFV_dehydrog (PF00208)
"Glutamate/Leucine/Phenylalanine/Valine dehydrogenase"</title>
				<polygon class="PF00208" points="961,28 969,28 981,40 969,52 961,52" stroke-linejoin="round" width="24" height="24" fill="rgb(57,170,205)" stroke="rgb(45,135,164)" stroke-width="1" opacity="0.75" />
			</g>
		</g>
	</g>
</svg>
