<svg version="1.1" baseProfile="full" xmlns="http://www.w3.org/2000/svg" width="1401.0" height="80">
	<g>
		<line x1="10" y1="40.0" x2="1391.0" y2="40.0" style="stroke:rgb(70,70,70); stroke-width:3 "/>
		<g>
			<title>prlZ
PrlZ</title>
			<polygon class="prlZ
PrlZ" points="33,10 60,40 33,70" fill="rgb(255,255,255)" fill-opacity="1.0" stroke="rgb(0,0,0)" stroke-width="2"  />
			<g>
				<title>TetR_N (PF00440)
"Bacterial regulatory proteins, tetR family"</title>
				<rect class="PF00440" x="40" y="28" stroke-linejoin="round" width="4" height="24" fill="rgb(148,50,185)" stroke="rgb(118,40,148)" stroke-width="1" opacity="0.75" />
			</g>
			<g>
				<title>TetR_C_1 (PF02909)
"Tetracyclin repressor-like, C-terminal domain"</title>
				<polygon class="PF02909" points="45,28 56,40 45,52" stroke-linejoin="round" width="14" height="24" fill="rgb(95,107,214)" stroke="rgb(76,85,171)" stroke-width="1" opacity="0.75" />
			</g>
		</g>
		<g>
			<title>prlY2
PrlY2</title>
			<polygon class="prlY2
PrlY2" points="60,40 88,10 88,70" fill="rgb(255,255,255)" fill-opacity="1.0" stroke="rgb(0,0,0)" stroke-width="2"  />
			<g>
				<title>BTAD (PF03704)
"Bacterial transcriptional activator domain"</title>
				<polygon class="PF03704" points="64,40 75,28 78,28 78,52 75,52 64,40" stroke-linejoin="round" width="14" height="24" fill="rgb(174,224,58)" stroke="rgb(139,179,46)" stroke-width="1" opacity="0.75" />
			</g>
			<g>
				<title>Trans_reg_C (PF00486)
"Transcriptional regulatory protein, C terminal"</title>
				<rect class="PF00486" x="79" y="28" stroke-linejoin="round" width="8" height="24" fill="rgb(69,185,116)" stroke="rgb(55,148,92)" stroke-width="1" opacity="0.75" />
			</g>
		</g>
		<g>
			<title>prlY1
PrlY1</title>
			<polygon class="prlY1
PrlY1" points="84,10 92,40 84,70" fill="rgb(255,255,255)" fill-opacity="1.0" stroke="rgb(0,0,0)" stroke-width="2"  />
		</g>
		<g>
			<title>prlX
PrlX</title>
			<polygon class="prlX
PrlX" points="94,40 121,10 121,70" fill="rgb(255,255,255)" fill-opacity="1.0" stroke="rgb(0,0,0)" stroke-width="2"  />
			<g>
				<title>AP_endonuc_2 (PF01261)
"Xylose isomerase-like TIM barrel"</title>
				<polygon class="PF01261" points="98,40 109,28 119,28 119,52 109,52" stroke-linejoin="round" width="24" height="24" fill="rgb(208,156,85)" stroke="rgb(166,124,68)" stroke-width="1" opacity="0.75" />
			</g>
		</g>
		<g>
			<title>prlW
PrlW</title>
			<polygon class="prlW
PrlW" points="122,40 149,10 149,70" fill="rgb(255,255,255)" fill-opacity="1.0" stroke="rgb(0,0,0)" stroke-width="2"  />
			<g>
				<title>adh_short (PF00106)
"short chain dehydrogenase"</title>
				<polygon class="PF00106" points="130,36 137,28 148,28 148,52 137,52 130,44" stroke-linejoin="round" width="18" height="24" fill="rgb(128,81,196)" stroke="rgb(102,64,156)" stroke-width="1" opacity="0.75" />
			</g>
		</g>
		<g>
			<title>prlV
PrlV</title>
			<polygon class="prlV
PrlV" points="193,25 179,25 179,10 149,40 179,70 179,55 193,55" fill="rgb(255,255,255)" fill-opacity="1.0" stroke="rgb(0,0,0)" stroke-width="2"  />
			<g>
				<title>ADH_N (PF08240)
"Alcohol dehydrogenase GroES-like domain"</title>
				<rect class="PF08240" x="180" y="28" stroke-linejoin="round" width="6" height="24" fill="rgb(217,198,105)" stroke="rgb(173,158,84)" stroke-width="1" opacity="0.75" />
			</g>
		</g>
		<g>
			<title>prlU
PrlU</title>
			<polygon class="prlU
PrlU" points="193,40 221,10 221,70" fill="rgb(255,255,255)" fill-opacity="1.0" stroke="rgb(0,0,0)" stroke-width="2"  />
			<g>
				<title>ROK (PF00480)
"ROK family"</title>
				<polygon class="PF00480" points="197,40 208,28 220,28 220,52 208,52" stroke-linejoin="round" width="27" height="24" fill="rgb(93,146,186)" stroke="rgb(74,116,148)" stroke-width="1" opacity="0.75" />
			</g>
		</g>
		<g>
			<title>prlA
PrlA</title>
			<polygon class="prlA
PrlA" points="235,25 246,25 246,10 276,40 246,70 246,55 235,55" fill="rgb(255,255,255)" fill-opacity="1.0" stroke="rgb(0,0,0)" stroke-width="2"  />
			<g>
				<title>DHQ_synthase (PF01761)
"3-dehydroquinate synthase"</title>
				<polygon class="PF01761" points="244,28 259,28 270,39 270,41 259,52 244,52" stroke-linejoin="round" width="26" height="24" fill="rgb(71,149,225)" stroke="rgb(56,119,180)" stroke-width="1" opacity="0.75" />
			</g>
		</g>
		<g>
			<title>prlB
PrlB</title>
			<polygon class="prlB
PrlB" points="282,10 300,40 282,70" fill="rgb(255,255,255)" fill-opacity="1.0" stroke="rgb(0,0,0)" stroke-width="2"  />
			<g>
				<title>NUDIX (PF00293)
"NUDIX domain"</title>
				<polygon class="PF00293" points="285,28 289,28 297,40 289,52 285,52" stroke-linejoin="round" width="13" height="24" fill="rgb(185,54,57)" stroke="rgb(148,43,45)" stroke-width="1" opacity="0.75" />
			</g>
		</g>
		<g>
			<title>prlC
PrlC</title>
			<polygon class="prlC
PrlC" points="303,40 324,10 324,70" fill="rgb(255,255,255)" fill-opacity="1.0" stroke="rgb(0,0,0)" stroke-width="2"  />
			<g>
				<title>GerE (PF00196)
"Bacterial regulatory proteins, luxR family"</title>
				<polygon class="PF00196" points="307,40 310,36 310,44" stroke-linejoin="round" width="5" height="24" fill="rgb(225,67,110)" stroke="rgb(180,53,88)" stroke-width="1" opacity="0.75" />
			</g>
			<g>
				<title>Response_reg (PF00072)
"Response regulator receiver domain"</title>
				<polygon class="PF00072" points="312,33 316,28 323,28 323,52 316,52 312,47" stroke-linejoin="round" width="11" height="24" fill="rgb(59,131,198)" stroke="rgb(47,104,158)" stroke-width="1" opacity="0.75" />
			</g>
		</g>
		<g>
			<title>prlD
PrlD</title>
			<polygon class="prlD
PrlD" points="342,25 358,25 358,10 388,40 358,70 358,55 342,55" fill="rgb(255,255,255)" fill-opacity="1.0" stroke="rgb(0,0,0)" stroke-width="2"  />
			<g>
				<title>MFS_1 (PF07690)
"Major Facilitator Superfamily"</title>
				<polygon class="PF07690" points="342,28 372,28 381,37 381,43 372,52 342,52" stroke-linejoin="round" width="39" height="24" fill="rgb(228,207,98)" stroke="rgb(182,165,78)" stroke-width="1" opacity="0.75" />
			</g>
		</g>
		<g>
			<title>prlE
PrlE</title>
			<polygon class="prlE
PrlE" points="413,10 426,40 413,70" fill="rgb(255,255,255)" fill-opacity="1.0" stroke="rgb(0,0,0)" stroke-width="2"  />
		</g>
		<g>
			<title>prlF
PrlF</title>
			<polygon class="prlF
PrlF" points="430,10 457,40 430,70" fill="rgb(255,255,255)" fill-opacity="1.0" stroke="rgb(0,0,0)" stroke-width="2"  />
			<g>
				<title>Methyltransf_11 (PF08241)
"Methyltransferase domain"</title>
				<polygon class="PF08241" points="436,28 442,28 445,31 445,49 442,52 436,52" stroke-linejoin="round" width="9" height="24" fill="rgb(201,85,64)" stroke="rgb(160,68,51)" stroke-width="1" opacity="0.75" />
			</g>
		</g>
		<g>
			<title>prlG
PrlG</title>
			<polygon class="prlG
PrlG" points="495,25 489,25 489,10 459,40 489,70 489,55 495,55" fill="rgb(255,255,255)" fill-opacity="1.0" stroke="rgb(0,0,0)" stroke-width="2"  />
			<g>
				<title>GalP_UDP_tr_C (PF02744)
"Galactose-1-phosphate uridyl transferase, C-terminal domain"</title>
				<polygon class="PF02744" points="463,40 474,29 474,51" stroke-linejoin="round" width="15" height="24" fill="rgb(92,225,158)" stroke="rgb(73,180,126)" stroke-width="1" opacity="0.75" />
			</g>
			<g>
				<title>GalP_UDP_transf (PF01087)
"Galactose-1-phosphate uridyl transferase, N-terminal domain"</title>
				<polygon class="PF01087" points="475,28 475,28 492,28 492,52 475,52 475,52" stroke-linejoin="round" width="17" height="24" fill="rgb(142,55,204)" stroke="rgb(113,44,163)" stroke-width="1" opacity="0.75" />
			</g>
		</g>
		<g>
			<title>prlH
PrlH</title>
			<polygon class="prlH
PrlH" points="540,25 526,25 526,10 496,40 526,70 526,55 540,55" fill="rgb(255,255,255)" fill-opacity="1.0" stroke="rgb(0,0,0)" stroke-width="2"  />
			<g>
				<title>EryCIII-like_C (PF06722)
"Erythromycin biosynthesis protein CIII-like, C-terminal domain"</title>
				<polygon class="PF06722" points="500,40 511,29 511,51" stroke-linejoin="round" width="14" height="24" fill="rgb(48,103,191)" stroke="rgb(38,82,152)" stroke-width="1" opacity="0.75" />
			</g>
		</g>
		<g>
			<title>prlI
PrlI</title>
			<polygon class="prlI
PrlI" points="547,25 559,25 559,10 589,40 559,70 559,55 547,55" fill="rgb(255,255,255)" fill-opacity="1.0" stroke="rgb(0,0,0)" stroke-width="2"  />
			<g>
				<title>Na_H_Exchanger (PF00999)
"Sodium/hydrogen exchanger family"</title>
				<polygon class="PF00999" points="547,28 573,28 585,40 573,52 547,52" stroke-linejoin="round" width="39" height="24" fill="rgb(95,122,202)" stroke="rgb(76,97,161)" stroke-width="1" opacity="0.75" />
			</g>
		</g>
		<g>
			<title>prlJ
PrlJ</title>
			<polygon class="prlJ
PrlJ" points="590,25 598,25 598,10 628,40 598,70 598,55 590,55" fill="rgb(255,255,255)" fill-opacity="1.0" stroke="rgb(0,0,0)" stroke-width="2"  />
			<g>
				<title>Acyl-CoA_dh_N (PF02771)
"Acyl-CoA dehydrogenase, N-terminal domain"</title>
				<rect class="PF02771" x="591" y="28" stroke-linejoin="round" width="10" height="24" fill="rgb(104,198,213)" stroke="rgb(83,158,170)" stroke-width="1" opacity="0.75" />
			</g>
			<g>
				<title>Acyl-CoA_dh_M (PF02770)
"Acyl-CoA dehydrogenase, middle domain"</title>
				<rect class="PF02770" x="602" y="28" stroke-linejoin="round" width="9" height="24" fill="rgb(58,129,192)" stroke="rgb(46,103,153)" stroke-width="1" opacity="0.75" />
			</g>
			<g>
				<title>Acyl-CoA_dh_1 (PF00441)
"Acyl-CoA dehydrogenase, C-terminal domain"</title>
				<polygon class="PF00441" points="613,30 623,40 613,50" stroke-linejoin="round" width="14" height="24" fill="rgb(96,175,206)" stroke="rgb(76,139,164)" stroke-width="1" opacity="0.75" />
			</g>
		</g>
		<g>
			<title>prlK
PrlK</title>
			<polygon class="prlK
PrlK" points="630,25 647,25 647,10 677,40 647,70 647,55 630,55" fill="rgb(255,255,255)" fill-opacity="1.0" stroke="rgb(0,0,0)" stroke-width="2"  />
			<g>
				<title>AMP-binding (PF00501)
"AMP-binding enzyme"</title>
				<polygon class="PF00501" points="630,28 661,28 663,30 663,50 661,52 630,52" stroke-linejoin="round" width="33" height="24" fill="rgb(189,78,204)" stroke="rgb(151,62,163)" stroke-width="1" opacity="0.75" />
			</g>
			<g>
				<title>AMP-binding_C (PF13193)
"AMP-binding enzyme C-terminal domain"</title>
				<polygon class="PF13193" points="668,35 673,40 668,45" stroke-linejoin="round" width="7" height="24" fill="rgb(195,82,106)" stroke="rgb(156,65,84)" stroke-width="1" opacity="0.75" />
			</g>
		</g>
		<g>
			<title>prlL
PrlL</title>
			<polygon class="prlL
PrlL" points="677,10 696,40 677,70" fill="rgb(255,255,255)" fill-opacity="1.0" stroke="rgb(0,0,0)" stroke-width="2"  />
			<g>
				<title>Flavin_Reduct (PF01613)
"Flavin reductase like domain"</title>
				<polygon class="PF01613" points="681,28 685,28 693,40 685,52 681,52" stroke-linejoin="round" width="14" height="24" fill="rgb(223,100,227)" stroke="rgb(178,80,181)" stroke-width="1" opacity="0.75" />
			</g>
		</g>
		<g>
			<title>prlM
PrlM</title>
			<polygon class="prlM
PrlM" points="753,25 729,25 729,10 699,40 729,70 729,55 753,55" fill="rgb(255,255,255)" fill-opacity="1.0" stroke="rgb(0,0,0)" stroke-width="2"  />
		</g>
		<g>
			<title>prlN
PrlN</title>
			<polygon class="prlN
PrlN" points="809,25 784,25 784,10 754,40 784,70 784,55 809,55" fill="rgb(255,255,255)" fill-opacity="1.0" stroke="rgb(0,0,0)" stroke-width="2"  />
			<g>
				<title>FAD_binding_3 (PF01494)
"FAD binding domain"</title>
				<rect class="PF01494" x="771" y="28" stroke-linejoin="round" width="37" height="24" fill="rgb(215,66,156)" stroke="rgb(172,52,124)" stroke-width="1" opacity="0.75" />
			</g>
		</g>
		<g>
			<title>prlO
PrlO</title>
			<polygon class="prlO
PrlO" points="865,25 841,25 841,10 811,40 841,70 841,55 865,55" fill="rgb(255,255,255)" fill-opacity="1.0" stroke="rgb(0,0,0)" stroke-width="2"  />
			<g>
				<title>FAD_binding_3 (PF01494)
"FAD binding domain"</title>
				<rect class="PF01494" x="840" y="28" stroke-linejoin="round" width="24" height="24" fill="rgb(215,66,156)" stroke="rgb(172,52,124)" stroke-width="1" opacity="0.75" />
			</g>
		</g>
		<g>
			<title>prlP
PrlP</title>
			<polygon class="prlP
PrlP" points="1038,25 896,25 896,10 866,40 896,70 896,55 1038,55" fill="rgb(255,255,255)" fill-opacity="1.0" stroke="rgb(0,0,0)" stroke-width="2"  />
			<g>
				<title>PP-binding (PF00550)
"Phosphopantetheine attachment site"</title>
				<polygon class="PF00550" points="870,40 874,36 874,44" stroke-linejoin="round" width="5" height="24" fill="rgb(181,58,166)" stroke="rgb(144,46,132)" stroke-width="1" opacity="0.75" />
			</g>
			<g>
				<title>KR (PF08659)
"KR domain"</title>
				<rect class="PF08659" x="884" y="28" stroke-linejoin="round" width="19" height="24" fill="rgb(203,145,81)" stroke="rgb(162,116,64)" stroke-width="1" opacity="0.75" />
			</g>
			<g>
				<title>Acyl_transf_1 (PF00698)
"Acyl transferase domain"</title>
				<rect class="PF00698" x="950" y="28" stroke-linejoin="round" width="31" height="24" fill="rgb(132,93,193)" stroke="rgb(105,74,154)" stroke-width="1" opacity="0.75" />
			</g>
			<g>
				<title>KAsynt_C_assoc (PF16197)
"Ketoacyl-synthetase C-terminal extension"</title>
				<rect class="PF16197" x="985" y="28" stroke-linejoin="round" width="11" height="24" fill="rgb(200,86,70)" stroke="rgb(160,68,56)" stroke-width="1" opacity="0.75" />
			</g>
			<g>
				<title>Ketoacyl-synt_C (PF02801)
"Beta-ketoacyl synthase, C-terminal domain"</title>
				<rect class="PF02801" x="997" y="28" stroke-linejoin="round" width="11" height="24" fill="rgb(212,79,72)" stroke="rgb(169,63,57)" stroke-width="1" opacity="0.75" />
			</g>
			<g>
				<title>ketoacyl-synt (PF00109)
"Beta-ketoacyl synthase, N-terminal domain"</title>
				<rect class="PF00109" x="1010" y="28" stroke-linejoin="round" width="25" height="24" fill="rgb(74,179,82)" stroke="rgb(59,143,65)" stroke-width="1" opacity="0.75" />
			</g>
		</g>
		<g>
			<title>prlQ
PrlQ</title>
			<polygon class="prlQ
PrlQ" points="1238,25 1143,25 1143,10 1113,40 1143,70 1143,55 1238,55" fill="rgb(255,255,255)" fill-opacity="1.0" stroke="rgb(0,0,0)" stroke-width="2"  />
			<g>
				<title>ketoacyl-synt (PF00109)
"Beta-ketoacyl synthase, N-terminal domain"</title>
				<polygon class="PF00109" points="1117,40 1129,28 1132,28 1132,52 1129,52" stroke-linejoin="round" width="19" height="24" fill="rgb(74,179,82)" stroke="rgb(59,143,65)" stroke-width="1" opacity="0.75" />
			</g>
			<g>
				<title>PP-binding (PF00550)
"Phosphopantetheine attachment site"</title>
				<rect class="PF00550" x="1138" y="28" stroke-linejoin="round" width="6" height="24" fill="rgb(181,58,166)" stroke="rgb(144,46,132)" stroke-width="1" opacity="0.75" />
			</g>
			<g>
				<title>Acyl_transf_1 (PF00698)
"Acyl transferase domain"</title>
				<rect class="PF00698" x="1153" y="28" stroke-linejoin="round" width="31" height="24" fill="rgb(132,93,193)" stroke="rgb(105,74,154)" stroke-width="1" opacity="0.75" />
			</g>
			<g>
				<title>KAsynt_C_assoc (PF16197)
"Ketoacyl-synthetase C-terminal extension"</title>
				<rect class="PF16197" x="1188" y="28" stroke-linejoin="round" width="11" height="24" fill="rgb(200,86,70)" stroke="rgb(160,68,56)" stroke-width="1" opacity="0.75" />
			</g>
			<g>
				<title>Ketoacyl-synt_C (PF02801)
"Beta-ketoacyl synthase, C-terminal domain"</title>
				<rect class="PF02801" x="1200" y="28" stroke-linejoin="round" width="11" height="24" fill="rgb(212,79,72)" stroke="rgb(169,63,57)" stroke-width="1" opacity="0.75" />
			</g>
			<g>
				<title>ketoacyl-synt (PF00109)
"Beta-ketoacyl synthase, N-terminal domain"</title>
				<rect class="PF00109" x="1212" y="28" stroke-linejoin="round" width="25" height="24" fill="rgb(74,179,82)" stroke="rgb(59,143,65)" stroke-width="1" opacity="0.75" />
			</g>
		</g>
		<g>
			<title>prlR
PrlR</title>
			<polygon class="prlR
PrlR" points="1261,10 1268,40 1261,70" fill="rgb(255,255,255)" fill-opacity="1.0" stroke="rgb(0,0,0)" stroke-width="2"  />
		</g>
		<g>
			<title>prlS
PrlS</title>
			<polygon class="prlS
PrlS" points="1271,10 1281,40 1271,70" fill="rgb(255,255,255)" fill-opacity="1.0" stroke="rgb(0,0,0)" stroke-width="2"  />
		</g>
		<g>
			<title>prlT
PrlT</title>
			<polygon class="prlT
PrlT" points="1289,25 1297,25 1297,10 1327,40 1297,70 1297,55 1289,55" fill="rgb(255,255,255)" fill-opacity="1.0" stroke="rgb(0,0,0)" stroke-width="2"  />
			<g>
				<title>Trp_halogenase (PF04820)
"Tryptophan halogenase"</title>
				<polygon class="PF04820" points="1289,28 1311,28 1323,40 1323,40 1311,52 1289,52" stroke-linejoin="round" width="34" height="24" fill="rgb(175,201,66)" stroke="rgb(139,160,52)" stroke-width="1" opacity="0.75" />
			</g>
		</g>
	</g>
</svg>
