<svg version="1.1" baseProfile="full" xmlns="http://www.w3.org/2000/svg" width="1199.7333333333333" height="80">
	<g>
		<line x1="10" y1="40.0" x2="1189.7333333333333" y2="40.0" style="stroke:rgb(70,70,70); stroke-width:3 "/>
		<g>
			<title> (ETU_000001)
acetyl-CoA carboxylase biotin carboxylase subunit</title>
			<polygon class=" (ETU_000001)
acetyl-CoA carboxylase biotin carboxylase subunit" points="48,25 40,25 40,10 10,40 40,70 40,55 48,55" fill="rgb(255,255,255)" fill-opacity="1.0" stroke="rgb(0,0,0)" stroke-width="2"  />
			<g>
				<title>Biotin_carb_C (PF02785)
"Biotin carboxylase C-terminal domain"</title>
				<polygon class="PF02785" points="14,40 15,39 15,41" stroke-linejoin="round" width="5" height="24" fill="rgb(209,64,211)" stroke="rgb(167,51,168)" stroke-width="1" opacity="0.75" />
			</g>
			<g>
				<title>CPSase_L_D2 (PF02786)
"Carbamoyl-phosphate synthase L chain, ATP binding domain"</title>
				<polygon class="PF02786" points="16,38 26,28 36,28 36,52 26,52 16,42" stroke-linejoin="round" width="20" height="24" fill="rgb(215,220,78)" stroke="rgb(172,176,62)" stroke-width="1" opacity="0.75" />
			</g>
			<g>
				<title>Biotin_carb_N (PF00289)
"Biotin carboxylase, N-terminal domain"</title>
				<rect class="PF00289" x="37" y="28" stroke-linejoin="round" width="10" height="24" fill="rgb(226,88,113)" stroke="rgb(180,70,90)" stroke-width="1" opacity="0.75" />
			</g>
		</g>
		<g>
			<title> (ETU_000002)
acetyl-CoA carboxylase biotin carboxyl carrier protein subunit</title>
			<polygon class=" (ETU_000002)
acetyl-CoA carboxylase biotin carboxyl carrier protein subunit" points="50,40 65,10 65,70" fill="rgb(255,255,255)" fill-opacity="1.0" stroke="rgb(0,0,0)" stroke-width="2"  />
			<g>
				<title>Biotin_lipoyl (PF00364)
"Biotin-requiring enzyme"</title>
				<polygon class="PF00364" points="53,40 57,32 57,48" stroke-linejoin="round" width="7" height="24" fill="rgb(99,229,97)" stroke="rgb(79,183,77)" stroke-width="1" opacity="0.75" />
			</g>
		</g>
		<g>
			<title> (ETU_000003)
Mg-dependent DNase</title>
			<polygon class=" (ETU_000003)
Mg-dependent DNase" points="79,40 105,10 105,70" fill="rgb(255,255,255)" fill-opacity="1.0" stroke="rgb(0,0,0)" stroke-width="2"  />
			<g>
				<title>TatD_DNase (PF01026)
"TatD related DNase"</title>
				<polygon class="PF01026" points="83,40 94,28 104,28 104,52 94,52" stroke-linejoin="round" width="25" height="24" fill="rgb(148,47,188)" stroke="rgb(118,37,150)" stroke-width="1" opacity="0.75" />
			</g>
		</g>
		<g>
			<title> (ETU_000004)
DNA polymerase III delta prime subunit</title>
			<polygon class=" (ETU_000004)
DNA polymerase III delta prime subunit" points="138,25 138,25 138,10 108,40 138,70 138,55 138,55" fill="rgb(255,255,255)" fill-opacity="1.0" stroke="rgb(0,0,0)" stroke-width="2"  />
			<g>
				<title>DNA_pol3_delta2 (PF13177)
"DNA polymerase III, delta subunit"</title>
				<polygon class="PF13177" points="123,29 124,28 137,28 137,52 124,52 123,51" stroke-linejoin="round" width="14" height="24" fill="rgb(223,63,152)" stroke="rgb(178,50,121)" stroke-width="1" opacity="0.75" />
			</g>
		</g>
		<g>
			<title> (ETU_000005)
hypothetical 29 kDa protein</title>
			<polygon class=" (ETU_000005)
hypothetical 29 kDa protein" points="152,10 178,40 152,70" fill="rgb(255,255,255)" fill-opacity="1.0" stroke="rgb(0,0,0)" stroke-width="2"  />
		</g>
		<g>
			<title> (ETU_000006)
SAM-dependent methyltransferase</title>
			<polygon class=" (ETU_000006)
SAM-dependent methyltransferase" points="181,25 187,25 187,10 217,40 187,70 187,55 181,55" fill="rgb(255,255,255)" fill-opacity="1.0" stroke="rgb(0,0,0)" stroke-width="2"  />
			<g>
				<title>Methyltransf_2 (PF00891)
"O-methyltransferase domain"</title>
				<polygon class="PF00891" points="194,28 200,28 212,40 200,52 194,52" stroke-linejoin="round" width="21" height="24" fill="rgb(91,124,224)" stroke="rgb(72,99,179)" stroke-width="1" opacity="0.75" />
			</g>
		</g>
		<g>
			<title> (ETU_000007)
non-ribosomal peptide synthase module</title>
			<polygon class=" (ETU_000007)
non-ribosomal peptide synthase module" points="218,25 252,25 252,10 282,40 252,70 252,55 218,55" fill="rgb(255,255,255)" fill-opacity="1.0" stroke="rgb(0,0,0)" stroke-width="2"  />
			<g>
				<title>Condensation (PF00668)
"Condensation domain"</title>
				<rect class="PF00668" x="219" y="28" stroke-linejoin="round" width="43" height="24" fill="rgb(172,217,60)" stroke="rgb(137,173,47)" stroke-width="1" opacity="0.75" />
			</g>
			<g>
				<title>PP-binding (PF00550)
"Phosphopantetheine attachment site"</title>
				<polygon class="PF00550" points="272,34 278,40 278,40 272,46" stroke-linejoin="round" width="6" height="24" fill="rgb(181,58,166)" stroke="rgb(144,46,132)" stroke-width="1" opacity="0.75" />
			</g>
		</g>
		<g>
			<title> (ETU_000008)
non-ribosomal peptide synthase module</title>
			<polygon class=" (ETU_000008)
non-ribosomal peptide synthase module" points="287,25 401,25 401,10 431,40 401,70 401,55 287,55" fill="rgb(255,255,255)" fill-opacity="1.0" stroke="rgb(0,0,0)" stroke-width="2"  />
			<g>
				<title>Condensation (PF00668)
"Condensation domain"</title>
				<rect class="PF00668" x="287" y="28" stroke-linejoin="round" width="42" height="24" fill="rgb(172,217,60)" stroke="rgb(137,173,47)" stroke-width="1" opacity="0.75" />
			</g>
			<g>
				<title>AMP-binding (PF00501)
"AMP-binding enzyme"</title>
				<rect class="PF00501" x="332" y="28" stroke-linejoin="round" width="34" height="24" fill="rgb(189,78,204)" stroke="rgb(151,62,163)" stroke-width="1" opacity="0.75" />
			</g>
			<g>
				<title>AMP-binding_C (PF13193)
"AMP-binding enzyme C-terminal domain"</title>
				<rect class="PF13193" x="372" y="28" stroke-linejoin="round" width="7" height="24" fill="rgb(195,82,106)" stroke="rgb(156,65,84)" stroke-width="1" opacity="0.75" />
			</g>
			<g>
				<title>PP-binding (PF00550)
"Phosphopantetheine attachment site"</title>
				<rect class="PF00550" x="383" y="28" stroke-linejoin="round" width="6" height="24" fill="rgb(181,58,166)" stroke="rgb(144,46,132)" stroke-width="1" opacity="0.75" />
			</g>
			<g>
				<title>NAD_binding_4 (PF07993)
"Male sterility protein"</title>
				<polygon class="PF07993" points="394,28 415,28 417,30 417,50 415,52 394,52" stroke-linejoin="round" width="23" height="24" fill="rgb(210,94,130)" stroke="rgb(168,75,103)" stroke-width="1" opacity="0.75" />
			</g>
		</g>
		<g>
			<title> (ETU_000009)
non-ribosomal peptide synthase dimodule</title>
			<polygon class=" (ETU_000009)
non-ribosomal peptide synthase dimodule" points="434,25 583,25 583,10 613,40 583,70 583,55 434,55" fill="rgb(255,255,255)" fill-opacity="1.0" stroke="rgb(0,0,0)" stroke-width="2"  />
			<g>
				<title>AMP-binding (PF00501)
"AMP-binding enzyme"</title>
				<rect class="PF00501" x="436" y="28" stroke-linejoin="round" width="40" height="24" fill="rgb(189,78,204)" stroke="rgb(151,62,163)" stroke-width="1" opacity="0.75" />
			</g>
			<g>
				<title>Condensation (PF00668)
"Condensation domain"</title>
				<rect class="PF00668" x="505" y="28" stroke-linejoin="round" width="43" height="24" fill="rgb(172,217,60)" stroke="rgb(137,173,47)" stroke-width="1" opacity="0.75" />
			</g>
			<g>
				<title>AMP-binding (PF00501)
"AMP-binding enzyme"</title>
				<rect class="PF00501" x="551" y="28" stroke-linejoin="round" width="36" height="24" fill="rgb(189,78,204)" stroke="rgb(151,62,163)" stroke-width="1" opacity="0.75" />
			</g>
			<g>
				<title>AMP-binding_C (PF13193)
"AMP-binding enzyme C-terminal domain"</title>
				<polygon class="PF13193" points="593,28 596,28 600,32 600,48 596,52 593,52" stroke-linejoin="round" width="7" height="24" fill="rgb(195,82,106)" stroke="rgb(156,65,84)" stroke-width="1" opacity="0.75" />
			</g>
			<g>
				<title>PP-binding (PF00550)
"Phosphopantetheine attachment site"</title>
				<polygon class="PF00550" points="604,36 608,40 604,44" stroke-linejoin="round" width="6" height="24" fill="rgb(181,58,166)" stroke="rgb(144,46,132)" stroke-width="1" opacity="0.75" />
			</g>
		</g>
		<g>
			<title> (ETU_000010)
pyruvate dehydrogenase E1 component</title>
			<polygon class=" (ETU_000010)
pyruvate dehydrogenase E1 component" points="613,25 649,25 649,10 679,40 649,70 649,55 613,55" fill="rgb(255,255,255)" fill-opacity="1.0" stroke="rgb(0,0,0)" stroke-width="2"  />
			<g>
				<title>E1_dh (PF00676)
"Dehydrogenase E1 component"</title>
				<rect class="PF00676" x="615" y="28" stroke-linejoin="round" width="28" height="24" fill="rgb(211,79,152)" stroke="rgb(168,63,121)" stroke-width="1" opacity="0.75" />
			</g>
			<g>
				<title>Transket_pyr (PF02779)
"Transketolase, pyrimidine binding domain"</title>
				<rect class="PF02779" x="645" y="28" stroke-linejoin="round" width="17" height="24" fill="rgb(60,183,85)" stroke="rgb(48,146,67)" stroke-width="1" opacity="0.75" />
			</g>
			<g>
				<title>Transketolase_C (PF02780)
"Transketolase, C-terminal domain"</title>
				<polygon class="PF02780" points="666,31 675,40 666,49" stroke-linejoin="round" width="11" height="24" fill="rgb(212,91,198)" stroke="rgb(169,72,158)" stroke-width="1" opacity="0.75" />
			</g>
		</g>
		<g>
			<title> (ETU_000011)
pyruvate dehydrogenase E2 component</title>
			<polygon class=" (ETU_000011)
pyruvate dehydrogenase E2 component" points="679,25 685,25 685,10 715,40 685,70 685,55 679,55" fill="rgb(255,255,255)" fill-opacity="1.0" stroke="rgb(0,0,0)" stroke-width="2"  />
			<g>
				<title>Biotin_lipoyl (PF00364)
"Biotin-requiring enzyme"</title>
				<rect class="PF00364" x="679" y="28" stroke-linejoin="round" width="6" height="24" fill="rgb(99,229,97)" stroke="rgb(79,183,77)" stroke-width="1" opacity="0.75" />
			</g>
			<g>
				<title>2-oxoacid_dh (PF00198)
"2-oxoacid dehydrogenases acyltransferase (catalytic domain)"</title>
				<polygon class="PF00198" points="694,28 699,28 711,40 699,52 694,52" stroke-linejoin="round" width="20" height="24" fill="rgb(52,198,97)" stroke="rgb(41,158,77)" stroke-width="1" opacity="0.75" />
			</g>
		</g>
		<g>
			<title> (ETU_000012)
FAD-binding monooxygenase</title>
			<polygon class=" (ETU_000012)
FAD-binding monooxygenase" points="718,25 737,25 737,10 767,40 737,70 737,55 718,55" fill="rgb(255,255,255)" fill-opacity="1.0" stroke="rgb(0,0,0)" stroke-width="2"  />
			<g>
				<title>FAD_binding_3 (PF01494)
"FAD binding domain"</title>
				<rect class="PF01494" x="718" y="28" stroke-linejoin="round" width="33" height="24" fill="rgb(215,66,156)" stroke="rgb(172,52,124)" stroke-width="1" opacity="0.75" />
			</g>
		</g>
		<g>
			<title> (ETU_000013)
O-methyltransferase family 3</title>
			<polygon class=" (ETU_000013)
O-methyltransferase family 3" points="767,40 789,10 789,70" fill="rgb(255,255,255)" fill-opacity="1.0" stroke="rgb(0,0,0)" stroke-width="2"  />
			<g>
				<title>Methyltransf_3 (PF01596)
"O-methyltransferase"</title>
				<polygon class="PF01596" points="771,40 780,28 787,28 787,52 780,52" stroke-linejoin="round" width="20" height="24" fill="rgb(91,224,120)" stroke="rgb(72,179,96)" stroke-width="1" opacity="0.75" />
			</g>
		</g>
		<g>
			<title> (ETU_000014)
catechol hydroxylase</title>
			<polygon class=" (ETU_000014)
catechol hydroxylase" points="789,40 805,10 805,70" fill="rgb(255,255,255)" fill-opacity="1.0" stroke="rgb(0,0,0)" stroke-width="2"  />
		</g>
		<g>
			<title> (ETU_000015)
transcriptional regulator MerR family</title>
			<polygon class=" (ETU_000015)
transcriptional regulator MerR family" points="812,40 823,10 823,70" fill="rgb(255,255,255)" fill-opacity="1.0" stroke="rgb(0,0,0)" stroke-width="2"  />
		</g>
		<g>
			<title> (ETU_000016)
penicillin acylase</title>
			<polygon class=" (ETU_000016)
penicillin acylase" points="898,25 854,25 854,10 824,40 854,70 854,55 898,55" fill="rgb(255,255,255)" fill-opacity="1.0" stroke="rgb(0,0,0)" stroke-width="2"  />
			<g>
				<title>Penicil_amidase (PF01804)
"Penicillin amidase"</title>
				<polygon class="PF01804" points="828,40 840,28 897,28 897,52 840,52" stroke-linejoin="round" width="73" height="24" fill="rgb(161,213,85)" stroke="rgb(128,170,68)" stroke-width="1" opacity="0.75" />
			</g>
		</g>
		<g>
			<title> (ETU_000017)
aspartyl glutamyl-tRNA Asn Gln amidotransferase subunit B</title>
			<polygon class=" (ETU_000017)
aspartyl glutamyl-tRNA Asn Gln amidotransferase subunit B" points="954,25 936,25 936,10 906,40 936,70 936,55 954,55" fill="rgb(255,255,255)" fill-opacity="1.0" stroke="rgb(0,0,0)" stroke-width="2"  />
			<g>
				<title>GatB_Yqey (PF02637)
"GatB domain"</title>
				<polygon class="PF02637" points="910,40 921,29 921,51" stroke-linejoin="round" width="15" height="24" fill="rgb(58,137,183)" stroke="rgb(46,109,146)" stroke-width="1" opacity="0.75" />
			</g>
			<g>
				<title>GatB_N (PF02934)
"GatB/GatE catalytic domain"</title>
				<rect class="PF02934" x="925" y="28" stroke-linejoin="round" width="28" height="24" fill="rgb(82,211,83)" stroke="rgb(65,168,66)" stroke-width="1" opacity="0.75" />
			</g>
		</g>
		<g>
			<title> (ETU_000018)
aspartyl glutamyl-tRNA Asn Gln amidotransferase subunit A</title>
			<polygon class=" (ETU_000018)
aspartyl glutamyl-tRNA Asn Gln amidotransferase subunit A" points="994,25 985,25 985,10 955,40 985,70 985,55 994,55" fill="rgb(255,255,255)" fill-opacity="1.0" stroke="rgb(0,0,0)" stroke-width="2"  />
			<g>
				<title>Amidase (PF01425)
"Amidase"</title>
				<polygon class="PF01425" points="959,40 971,28 994,28 994,52 971,52" stroke-linejoin="round" width="37" height="24" fill="rgb(194,63,150)" stroke="rgb(155,50,119)" stroke-width="1" opacity="0.75" />
			</g>
		</g>
		<g>
			<title> (ETU_000019)
aspartyl glutamyl-tRNA Asn Gln amidotransferase subunit C</title>
			<polygon class=" (ETU_000019)
aspartyl glutamyl-tRNA Asn Gln amidotransferase subunit C" points="1005,40 1015,10 1015,70" fill="rgb(255,255,255)" fill-opacity="1.0" stroke="rgb(0,0,0)" stroke-width="2"  />
			<g>
				<title>GatC (PF02686)
"Glu-tRNAGln amidotransferase C subunit"</title>
				<polygon class="PF02686" points="1008,40 1012,28 1012,28 1012,52 1012,52" stroke-linejoin="round" width="7" height="24" fill="rgb(182,133,80)" stroke="rgb(145,106,64)" stroke-width="1" opacity="0.75" />
			</g>
		</g>
		<g>
			<title> (ETU_000020)
peptidase U62</title>
			<polygon class=" (ETU_000020)
peptidase U62" points="1022,25 1040,25 1040,10 1070,40 1040,70 1040,55 1022,55" fill="rgb(255,255,255)" fill-opacity="1.0" stroke="rgb(0,0,0)" stroke-width="2"  />
			<g>
				<title>PmbA_TldD_1st (PF01523)
"PmbA/TldA metallopeptidase domain 1"</title>
				<rect class="PF01523" x="1025" y="28" stroke-linejoin="round" width="6" height="24" fill="rgb(197,66,147)" stroke="rgb(157,52,117)" stroke-width="1" opacity="0.75" />
			</g>
			<g>
				<title>PmbA_TldD_2nd (PF19290)
"PmbA/TldA metallopeptidase central domain"</title>
				<rect class="PF19290" x="1034" y="28" stroke-linejoin="round" width="11" height="24" fill="rgb(192,59,83)" stroke="rgb(153,47,66)" stroke-width="1" opacity="0.75" />
			</g>
			<g>
				<title>PmbA_TldD_3rd (PF19289)
"PmbA/TldA metallopeptidase C-terminal domain"</title>
				<polygon class="PF19289" points="1046,28 1053,28 1065,40 1053,52 1046,52" stroke-linejoin="round" width="23" height="24" fill="rgb(192,83,50)" stroke="rgb(153,66,40)" stroke-width="1" opacity="0.75" />
			</g>
		</g>
		<g>
			<title> (ETU_000021)
shikimate kinase I</title>
			<polygon class=" (ETU_000021)
shikimate kinase I" points="1075,10 1092,40 1075,70" fill="rgb(255,255,255)" fill-opacity="1.0" stroke="rgb(0,0,0)" stroke-width="2"  />
			<g>
				<title>SKI (PF01202)
"Shikimate kinase"</title>
				<polygon class="PF01202" points="1076,28 1082,28 1089,40 1082,52 1076,52" stroke-linejoin="round" width="15" height="24" fill="rgb(85,205,211)" stroke="rgb(68,164,168)" stroke-width="1" opacity="0.75" />
			</g>
		</g>
		<g>
			<title> (ETU_000022)
DnaK suppressor protein</title>
			<polygon class=" (ETU_000022)
DnaK suppressor protein" points="1100,40 1113,10 1113,70" fill="rgb(255,255,255)" fill-opacity="1.0" stroke="rgb(0,0,0)" stroke-width="2"  />
			<g>
				<title>zf-dskA_traR (PF01258)
"Prokaryotic dksA/traR C4-type zinc finger"</title>
				<polygon class="PF01258" points="1103,40 1103,40 1103,40" stroke-linejoin="round" width="3" height="24" fill="rgb(168,224,72)" stroke="rgb(134,179,57)" stroke-width="1" opacity="0.75" />
			</g>
			<g>
				<title>DksA_CC (PF21157)
"DnaK suppressor protein DksA, coiled-coil domain"</title>
				<polygon class="PF21157" points="1104,38 1108,28 1110,28 1110,52 1108,52 1104,42" stroke-linejoin="round" width="6" height="24" fill="rgb(194,150,93)" stroke="rgb(155,120,74)" stroke-width="1" opacity="0.75" />
			</g>
		</g>
		<g>
			<title> (ETU_000023)
putative drug_metabolite transporter superfamily protein</title>
			<polygon class=" (ETU_000023)
putative drug_metabolite transporter superfamily protein" points="1147,25 1147,25 1147,10 1117,40 1147,70 1147,55 1147,55" fill="rgb(255,255,255)" fill-opacity="1.0" stroke="rgb(0,0,0)" stroke-width="2"  />
			<g>
				<title>EamA (PF00892)
"EamA-like transporter family"</title>
				<polygon class="PF00892" points="1121,40 1130,31 1130,49" stroke-linejoin="round" width="13" height="24" fill="rgb(202,125,98)" stroke="rgb(161,100,78)" stroke-width="1" opacity="0.75" />
			</g>
			<g>
				<title>EamA (PF00892)
"EamA-like transporter family"</title>
				<polygon class="PF00892" points="1131,30 1133,28 1144,28 1144,52 1133,52 1131,50" stroke-linejoin="round" width="13" height="24" fill="rgb(202,125,98)" stroke="rgb(161,100,78)" stroke-width="1" opacity="0.75" />
			</g>
		</g>
		<g>
			<title>polA (ETU_000024)
DNA polymerase I</title>
			<polygon class="polA (ETU_000024)
DNA polymerase I" points="1157,10 1177,40 1157,70" fill="rgb(255,255,255)" fill-opacity="1.0" stroke="rgb(0,0,0)" stroke-width="2"  />
			<g>
				<title>5_3_exonuc_N (PF02739)
"5'-3' exonuclease, N-terminal resolvase-like domain"</title>
				<polygon class="PF02739" points="1157,28 1165,28 1169,33 1169,47 1165,52 1157,52" stroke-linejoin="round" width="12" height="24" fill="rgb(146,77,181)" stroke="rgb(116,61,144)" stroke-width="1" opacity="0.75" />
			</g>
		</g>
		<g>
			<title> (ETU_000025)
hypothetical protein</title>
			<polygon class=" (ETU_000025)
hypothetical protein" points="1178,10 1189,40 1178,70" fill="rgb(255,255,255)" fill-opacity="1.0" stroke="rgb(0,0,0)" stroke-width="2"  />
			<g>
				<title>DUF2797 (PF10977)
"Protein of unknown function (DUF2797)"</title>
				<polygon class="PF10977" points="1181,28 1181,28 1186,40 1181,52 1181,52" stroke-linejoin="round" width="7" height="24" fill="rgb(167,93,223)" stroke="rgb(133,74,178)" stroke-width="1" opacity="0.75" />
			</g>
		</g>
	</g>
</svg>
