<svg version="1.1" baseProfile="full" xmlns="http://www.w3.org/2000/svg" width="1011.9333333333333" height="80">
	<g>
		<line x1="10" y1="40.0" x2="1001.9333333333333" y2="40.0" style="stroke:rgb(70,70,70); stroke-width:3 "/>
		<g>
			<title>
putative oxidoreductase</title>
			<polygon class="
putative oxidoreductase" points="15,25 18,25 18,10 48,40 18,70 18,55 15,55" fill="rgb(255,255,255)" fill-opacity="1.0" stroke="rgb(0,0,0)" stroke-width="2"  />
			<g>
				<title>GFO_IDH_MocA (PF01408)
"Oxidoreductase family, NAD-binding Rossmann fold"</title>
				<rect class="PF01408" x="15" y="28" stroke-linejoin="round" width="11" height="24" fill="rgb(53,193,178)" stroke="rgb(42,154,142)" stroke-width="1" opacity="0.75" />
			</g>
			<g>
				<title>GFO_IDH_MocA_C (PF02894)
"Oxidoreductase family, C-terminal alpha/beta domain"</title>
				<polygon class="PF02894" points="28,28 32,28 34,30 34,50 32,52 28,52" stroke-linejoin="round" width="6" height="24" fill="rgb(89,185,176)" stroke="rgb(71,148,140)" stroke-width="1" opacity="0.75" />
			</g>
		</g>
		<g>
			<title>nucU
NucU</title>
			<polygon class="nucU
NucU" points="48,25 65,25 65,10 95,40 65,70 65,55 48,55" fill="rgb(255,255,255)" fill-opacity="1.0" stroke="rgb(0,0,0)" stroke-width="2"  />
			<g>
				<title>Na_H_Exchanger (PF00999)
"Sodium/hydrogen exchanger family"</title>
				<polygon class="PF00999" points="49,28 79,28 91,40 91,40 79,52 49,52" stroke-linejoin="round" width="42" height="24" fill="rgb(95,122,202)" stroke="rgb(76,97,161)" stroke-width="1" opacity="0.75" />
			</g>
		</g>
		<g>
			<title>
hypothetical protein</title>
			<polygon class="
hypothetical protein" points="95,10 122,40 95,70" fill="rgb(255,255,255)" fill-opacity="1.0" stroke="rgb(0,0,0)" stroke-width="2"  />
		</g>
		<g>
			<title>
putative phosphoglycerate mutase</title>
			<polygon class="
putative phosphoglycerate mutase" points="125,10 144,40 125,70" fill="rgb(255,255,255)" fill-opacity="1.0" stroke="rgb(0,0,0)" stroke-width="2"  />
			<g>
				<title>His_Phos_1 (PF00300)
"Histidine phosphatase superfamily (branch 1)"</title>
				<polygon class="PF00300" points="125,28 133,28 140,40 133,52 125,52" stroke-linejoin="round" width="18" height="24" fill="rgb(221,146,58)" stroke="rgb(176,116,46)" stroke-width="1" opacity="0.75" />
			</g>
		</g>
		<g>
			<title>
putative transcriptional regulatory protein</title>
			<polygon class="
putative transcriptional regulatory protein" points="156,25 231,25 231,10 261,40 231,70 231,55 156,55" fill="rgb(255,255,255)" fill-opacity="1.0" stroke="rgb(0,0,0)" stroke-width="2"  />
			<g>
				<title>Trans_reg_C (PF00486)
"Transcriptional regulatory protein, C terminal"</title>
				<rect class="PF00486" x="158" y="28" stroke-linejoin="round" width="7" height="24" fill="rgb(69,185,116)" stroke="rgb(55,148,92)" stroke-width="1" opacity="0.75" />
			</g>
			<g>
				<title>BTAD (PF03704)
"Bacterial transcriptional activator domain"</title>
				<rect class="PF03704" x="166" y="28" stroke-linejoin="round" width="14" height="24" fill="rgb(174,224,58)" stroke="rgb(139,179,46)" stroke-width="1" opacity="0.75" />
			</g>
			<g>
				<title>NB-ARC (PF00931)
"NB-ARC domain"</title>
				<rect class="PF00931" x="196" y="28" stroke-linejoin="round" width="14" height="24" fill="rgb(199,170,84)" stroke="rgb(159,136,67)" stroke-width="1" opacity="0.75" />
			</g>
			<g>
				<title>TPR_12 (PF13424)
"Tetratricopeptide repeat"</title>
				<rect class="PF13424" x="236" y="28" stroke-linejoin="round" width="6" height="24" fill="rgb(55,182,155)" stroke="rgb(44,145,124)" stroke-width="1" opacity="0.75" />
			</g>
		</g>
		<g>
			<title>
putative aminoglycoside phosphotransferase</title>
			<polygon class="
putative aminoglycoside phosphotransferase" points="274,40 287,10 287,70" fill="rgb(255,255,255)" fill-opacity="1.0" stroke="rgb(0,0,0)" stroke-width="2"  />
		</g>
		<g>
			<title>nucR
NucR</title>
			<polygon class="nucR
NucR" points="342,25 326,25 326,10 296,40 326,70 326,55 342,55" fill="rgb(255,255,255)" fill-opacity="1.0" stroke="rgb(0,0,0)" stroke-width="2"  />
			<g>
				<title>MFS_1 (PF07690)
"Major Facilitator Superfamily"</title>
				<polygon class="PF07690" points="300,40 312,28 312,28 312,52 312,52" stroke-linejoin="round" width="16" height="24" fill="rgb(228,207,98)" stroke="rgb(182,165,78)" stroke-width="1" opacity="0.75" />
			</g>
			<g>
				<title>Sugar_tr (PF00083)
"Sugar (and other) transporter"</title>
				<rect class="PF00083" x="317" y="28" stroke-linejoin="round" width="21" height="24" fill="rgb(186,204,56)" stroke="rgb(148,163,44)" stroke-width="1" opacity="0.75" />
			</g>
		</g>
		<g>
			<title>nucM
NucM</title>
			<polygon class="nucM
NucM" points="351,10 365,40 351,70" fill="rgb(255,255,255)" fill-opacity="1.0" stroke="rgb(0,0,0)" stroke-width="2"  />
			<g>
				<title>DUF6027 (PF19492)
"Family of unknown function (DUF6027)"</title>
				<polygon class="PF19492" points="351,28 355,28 361,40 355,52 351,52" stroke-linejoin="round" width="13" height="24" fill="rgb(206,94,54)" stroke="rgb(164,75,43)" stroke-width="1" opacity="0.75" />
			</g>
		</g>
		<g>
			<title>nucG
NucG</title>
			<polygon class="nucG
NucG" points="369,25 386,25 386,10 416,40 386,70 386,55 369,55" fill="rgb(255,255,255)" fill-opacity="1.0" stroke="rgb(0,0,0)" stroke-width="2"  />
			<g>
				<title>Sulfatase (PF00884)
"Sulfatase"</title>
				<rect class="PF00884" x="369" y="28" stroke-linejoin="round" width="10" height="24" fill="rgb(52,102,183)" stroke="rgb(41,81,146)" stroke-width="1" opacity="0.75" />
			</g>
			<g>
				<title>Sulfatase (PF00884)
"Sulfatase"</title>
				<polygon class="PF00884" points="393,28 400,28 401,29 401,51 400,52 393,52" stroke-linejoin="round" width="8" height="24" fill="rgb(52,102,183)" stroke="rgb(41,81,146)" stroke-width="1" opacity="0.75" />
			</g>
		</g>
		<g>
			<title>nucN
NucN</title>
			<polygon class="nucN
NucN" points="416,25 419,25 419,10 449,40 419,70 419,55 416,55" fill="rgb(255,255,255)" fill-opacity="1.0" stroke="rgb(0,0,0)" stroke-width="2"  />
			<g>
				<title>ADI (PF02274)
"Arginine deiminase"</title>
				<polygon class="PF02274" points="425,28 433,28 440,35 440,45 433,52 425,52" stroke-linejoin="round" width="15" height="24" fill="rgb(123,77,200)" stroke="rgb(98,61,160)" stroke-width="1" opacity="0.75" />
			</g>
		</g>
		<g>
			<title>nucI
NucI</title>
			<polygon class="nucI
NucI" points="494,25 485,25 485,10 455,40 485,70 485,55 494,55" fill="rgb(255,255,255)" fill-opacity="1.0" stroke="rgb(0,0,0)" stroke-width="2"  />
			<g>
				<title>Sulfatase (PF00884)
"Sulfatase"</title>
				<polygon class="PF00884" points="465,34 471,28 493,28 493,52 471,52 465,46" stroke-linejoin="round" width="28" height="24" fill="rgb(52,102,183)" stroke="rgb(41,81,146)" stroke-width="1" opacity="0.75" />
			</g>
		</g>
		<g>
			<title>
putative StrR-like transcriptional regulator</title>
			<polygon class="
putative StrR-like transcriptional regulator" points="498,25 502,25 502,10 532,40 502,70 502,55 498,55" fill="rgb(255,255,255)" fill-opacity="1.0" stroke="rgb(0,0,0)" stroke-width="2"  />
		</g>
		<g>
			<title>nucJ
NucJ</title>
			<polygon class="nucJ
NucJ" points="534,25 560,25 560,10 590,40 560,70 560,55 534,55" fill="rgb(255,255,255)" fill-opacity="1.0" stroke="rgb(0,0,0)" stroke-width="2"  />
			<g>
				<title>B12-binding (PF02310)
"B12 binding domain"</title>
				<rect class="PF02310" x="540" y="28" stroke-linejoin="round" width="11" height="24" fill="rgb(64,214,216)" stroke="rgb(51,171,172)" stroke-width="1" opacity="0.75" />
			</g>
			<g>
				<title>Radical_SAM (PF04055)
"Radical SAM superfamily"</title>
				<rect class="PF04055" x="557" y="28" stroke-linejoin="round" width="15" height="24" fill="rgb(223,193,78)" stroke="rgb(178,154,62)" stroke-width="1" opacity="0.75" />
			</g>
		</g>
		<g>
			<title>nucK
NucK</title>
			<polygon class="nucK
NucK" points="590,25 596,25 596,10 626,40 596,70 596,55 590,55" fill="rgb(255,255,255)" fill-opacity="1.0" stroke="rgb(0,0,0)" stroke-width="2"  />
			<g>
				<title>Sulfotransfer_3 (PF13469)
"Sulfotransferase family"</title>
				<polygon class="PF13469" points="590,28 609,28 611,30 611,50 609,52 590,52" stroke-linejoin="round" width="21" height="24" fill="rgb(92,158,202)" stroke="rgb(73,126,161)" stroke-width="1" opacity="0.75" />
			</g>
		</g>
		<g>
			<title>nucL
NucL</title>
			<polygon class="nucL
NucL" points="635,10 660,40 635,70" fill="rgb(255,255,255)" fill-opacity="1.0" stroke="rgb(0,0,0)" stroke-width="2"  />
			<g>
				<title>Methyltransf_11 (PF08241)
"Methyltransferase domain"</title>
				<polygon class="PF08241" points="639,28 646,28 647,29 647,51 646,52 639,52" stroke-linejoin="round" width="8" height="24" fill="rgb(201,85,64)" stroke="rgb(160,68,51)" stroke-width="1" opacity="0.75" />
			</g>
		</g>
		<g>
			<title>nucQ
NucQ</title>
			<polygon class="nucQ
NucQ" points="661,10 676,40 661,70" fill="rgb(255,255,255)" fill-opacity="1.0" stroke="rgb(0,0,0)" stroke-width="2"  />
			<g>
				<title>Rubrerythrin (PF02915)
"Rubrerythrin"</title>
				<polygon class="PF02915" points="662,28 667,28 673,40 667,52 662,52" stroke-linejoin="round" width="12" height="24" fill="rgb(226,211,86)" stroke="rgb(180,168,68)" stroke-width="1" opacity="0.75" />
			</g>
		</g>
		<g>
			<title>nucP
NucP</title>
			<polygon class="nucP
NucP" points="676,25 712,25 712,10 742,40 712,70 712,55 676,55" fill="rgb(255,255,255)" fill-opacity="1.0" stroke="rgb(0,0,0)" stroke-width="2"  />
			<g>
				<title>HATPase_c (PF02518)
"Histidine kinase-, DNA gyrase B-, and HSP90-like ATPase"</title>
				<rect class="PF02518" x="680" y="28" stroke-linejoin="round" width="14" height="24" fill="rgb(94,146,210)" stroke="rgb(75,116,168)" stroke-width="1" opacity="0.75" />
			</g>
			<g>
				<title>DNA_gyraseB (PF00204)
"DNA gyrase B"</title>
				<rect class="PF00204" x="699" y="28" stroke-linejoin="round" width="17" height="24" fill="rgb(63,225,222)" stroke="rgb(50,180,177)" stroke-width="1" opacity="0.75" />
			</g>
			<g>
				<title>Methyltransf_11 (PF08241)
"Methyltransferase domain"</title>
				<polygon class="PF08241" points="721,28 725,28 729,32 729,48 725,52 721,52" stroke-linejoin="round" width="8" height="24" fill="rgb(201,85,64)" stroke="rgb(160,68,51)" stroke-width="1" opacity="0.75" />
			</g>
		</g>
		<g>
			<title>nucO
NucO</title>
			<polygon class="nucO
NucO" points="742,25 758,25 758,10 788,40 758,70 758,55 742,55" fill="rgb(255,255,255)" fill-opacity="1.0" stroke="rgb(0,0,0)" stroke-width="2"  />
		</g>
		<g>
			<title>nucV
NucV</title>
			<polygon class="nucV
NucV" points="789,10 808,40 789,70" fill="rgb(255,255,255)" fill-opacity="1.0" stroke="rgb(0,0,0)" stroke-width="2"  />
			<g>
				<title>Pribosyltran (PF00156)
"Phosphoribosyl transferase domain"</title>
				<polygon class="PF00156" points="795,28 797,28 804,40 797,52 795,52" stroke-linejoin="round" width="12" height="24" fill="rgb(60,186,99)" stroke="rgb(48,148,79)" stroke-width="1" opacity="0.75" />
			</g>
		</g>
		<g>
			<title>
putative histidine kinase</title>
			<polygon class="
putative histidine kinase" points="810,40 830,10 830,70" fill="rgb(255,255,255)" fill-opacity="1.0" stroke="rgb(0,0,0)" stroke-width="2"  />
			<g>
				<title>GerE (PF00196)
"Bacterial regulatory proteins, luxR family"</title>
				<polygon class="PF00196" points="814,40 815,39 815,41" stroke-linejoin="round" width="5" height="24" fill="rgb(225,67,110)" stroke="rgb(180,53,88)" stroke-width="1" opacity="0.75" />
			</g>
		</g>
		<g>
			<title>
putative nucleoside phosphorylase</title>
			<polygon class="
putative nucleoside phosphorylase" points="837,10 864,40 837,70" fill="rgb(255,255,255)" fill-opacity="1.0" stroke="rgb(0,0,0)" stroke-width="2"  />
			<g>
				<title>PNP_UDP_1 (PF01048)
"Phosphorylase superfamily"</title>
				<polygon class="PF01048" points="837,28 848,28 860,40 848,52 837,52" stroke-linejoin="round" width="24" height="24" fill="rgb(81,138,182)" stroke="rgb(64,110,145)" stroke-width="1" opacity="0.75" />
			</g>
		</g>
		<g>
			<title>
putative lycopene cyclase</title>
			<polygon class="
putative lycopene cyclase" points="868,25 927,25 927,10 957,40 927,70 927,55 868,55" fill="rgb(255,255,255)" fill-opacity="1.0" stroke="rgb(0,0,0)" stroke-width="2"  />
			<g>
				<title>NAD_binding_9 (PF13454)
"FAD-NAD(P)-binding"</title>
				<rect class="PF13454" x="868" y="28" stroke-linejoin="round" width="15" height="24" fill="rgb(79,94,179)" stroke="rgb(63,75,143)" stroke-width="1" opacity="0.75" />
			</g>
		</g>
		<g>
			<title>
putative glycosyltransferase</title>
			<polygon class="
putative glycosyltransferase" points="990,25 990,25 990,10 960,40 990,70 990,55 990,55" fill="rgb(255,255,255)" fill-opacity="1.0" stroke="rgb(0,0,0)" stroke-width="2"  />
			<g>
				<title>Glycos_transf_2 (PF00535)
"Glycosyl transferase family 2"</title>
				<polygon class="PF00535" points="974,30 976,28 989,28 989,52 976,52 974,50" stroke-linejoin="round" width="15" height="24" fill="rgb(197,62,212)" stroke="rgb(157,49,169)" stroke-width="1" opacity="0.75" />
			</g>
		</g>
	</g>
</svg>
