<svg version="1.1" baseProfile="full" xmlns="http://www.w3.org/2000/svg" width="1520.0333333333333" height="80">
	<g>
		<line x1="10" y1="40.0" x2="1510.0333333333333" y2="40.0" style="stroke:rgb(70,70,70); stroke-width:3 "/>
		<g>
			<title>
alpha-L-arabinofuranosidase</title>
			<polygon class="
alpha-L-arabinofuranosidase" points="37,40 54,10 54,70" fill="rgb(255,255,255)" fill-opacity="1.0" stroke="rgb(0,0,0)" stroke-width="2"  />
			<g>
				<title>Ricin_B_lectin (PF00652)
"Ricin-type beta-trefoil lectin domain"</title>
				<polygon class="PF00652" points="40,40 47,28 50,28 50,52 47,52" stroke-linejoin="round" width="13" height="24" fill="rgb(189,49,138)" stroke="rgb(151,39,110)" stroke-width="1" opacity="0.75" />
			</g>
		</g>
		<g>
			<title>
hypothetical protein</title>
			<polygon class="
hypothetical protein" points="151,25 90,25 90,10 60,40 90,70 90,55 151,55" fill="rgb(255,255,255)" fill-opacity="1.0" stroke="rgb(0,0,0)" stroke-width="2"  />
		</g>
		<g>
			<title>
5-methyltetrahydropteroyltriglutamate-- homocysteine methyltransferase</title>
			<polygon class="
5-methyltetrahydropteroyltriglutamate-- homocysteine methyltransferase" points="170,25 175,25 175,10 205,40 175,70 175,55 170,55" fill="rgb(255,255,255)" fill-opacity="1.0" stroke="rgb(0,0,0)" stroke-width="2"  />
			<g>
				<title>Meth_synt_2 (PF01717)
"Cobalamin-independent synthase, Catalytic domain"</title>
				<polygon class="PF01717" points="170,28 189,28 201,40 189,52 170,52" stroke-linejoin="round" width="33" height="24" fill="rgb(228,106,167)" stroke="rgb(182,84,133)" stroke-width="1" opacity="0.75" />
			</g>
		</g>
		<g>
			<title>ucmF
hypothetical protein</title>
			<polygon class="ucmF
hypothetical protein" points="211,40 232,10 232,70" fill="rgb(255,255,255)" fill-opacity="1.0" stroke="rgb(0,0,0)" stroke-width="2"  />
			<g>
				<title>DUF6073 (PF19550)
"Family of unknown function (DUF6073)"</title>
				<polygon class="PF19550" points="215,40 224,28 232,28 232,52 224,52" stroke-linejoin="round" width="21" height="24" fill="rgb(195,156,84)" stroke="rgb(156,124,67)" stroke-width="1" opacity="0.75" />
			</g>
		</g>
		<g>
			<title>ucmD
PBS lyase HEAT-like repeat protein</title>
			<polygon class="ucmD
PBS lyase HEAT-like repeat protein" points="278,25 264,25 264,10 234,40 264,70 264,55 278,55" fill="rgb(255,255,255)" fill-opacity="1.0" stroke="rgb(0,0,0)" stroke-width="2"  />
			<g>
				<title>HEAT_2 (PF13646)
"HEAT repeats"</title>
				<rect class="PF13646" x="261" y="28" stroke-linejoin="round" width="8" height="24" fill="rgb(158,190,58)" stroke="rgb(126,152,46)" stroke-width="1" opacity="0.75" />
			</g>
		</g>
		<g>
			<title>ucmC
ketone reductase</title>
			<polygon class="ucmC
ketone reductase" points="323,25 311,25 311,10 281,40 311,70 311,55 323,55" fill="rgb(255,255,255)" fill-opacity="1.0" stroke="rgb(0,0,0)" stroke-width="2"  />
			<g>
				<title>KR (PF08659)
"KR domain"</title>
				<polygon class="PF08659" points="288,37 297,28 305,28 305,52 297,52 288,43" stroke-linejoin="round" width="17" height="24" fill="rgb(203,145,81)" stroke="rgb(162,116,64)" stroke-width="1" opacity="0.75" />
			</g>
		</g>
		<g>
			<title>ucmR3
hypothetical protein</title>
			<polygon class="ucmR3
hypothetical protein" points="367,25 354,25 354,10 324,40 354,70 354,55 367,55" fill="rgb(255,255,255)" fill-opacity="1.0" stroke="rgb(0,0,0)" stroke-width="2"  />
			<g>
				<title>ABC1 (PF03109)
"ABC1 atypical kinase-like domain"</title>
				<polygon class="PF03109" points="333,35 340,28 357,28 357,52 340,52 333,45" stroke-linejoin="round" width="24" height="24" fill="rgb(175,203,80)" stroke="rgb(140,162,64)" stroke-width="1" opacity="0.75" />
			</g>
		</g>
		<g>
			<title>ucmT2
MFS transporter</title>
			<polygon class="ucmT2
MFS transporter" points="432,25 408,25 408,10 378,40 408,70 408,55 432,55" fill="rgb(255,255,255)" fill-opacity="1.0" stroke="rgb(0,0,0)" stroke-width="2"  />
			<g>
				<title>Sugar_tr (PF00083)
"Sugar (and other) transporter"</title>
				<rect class="PF00083" x="402" y="28" stroke-linejoin="round" width="16" height="24" fill="rgb(186,204,56)" stroke="rgb(148,163,44)" stroke-width="1" opacity="0.75" />
			</g>
		</g>
		<g>
			<title>ucmE10
type II thioesterase</title>
			<polygon class="ucmE10
type II thioesterase" points="433,40 447,10 447,70" fill="rgb(255,255,255)" fill-opacity="1.0" stroke="rgb(0,0,0)" stroke-width="2"  />
			<g>
				<title>4HBT_2 (PF13279)
"Thioesterase-like superfamily"</title>
				<polygon class="PF13279" points="436,40 442,28 445,28 445,52 442,52" stroke-linejoin="round" width="12" height="24" fill="rgb(108,104,213)" stroke="rgb(86,83,170)" stroke-width="1" opacity="0.75" />
			</g>
		</g>
		<g>
			<title>ucmE
enediyne polyketide synthase</title>
			<polygon class="ucmE
enediyne polyketide synthase" points="643,25 478,25 478,10 448,40 478,70 478,55 643,55" fill="rgb(255,255,255)" fill-opacity="1.0" stroke="rgb(0,0,0)" stroke-width="2"  />
			<g>
				<title>PS-DH (PF14765)
"Polyketide synthase dehydratase N-terminal domain"</title>
				<rect class="PF14765" x="468" y="28" stroke-linejoin="round" width="13" height="24" fill="rgb(189,61,178)" stroke="rgb(151,48,142)" stroke-width="1" opacity="0.75" />
			</g>
			<g>
				<title>PKS_DH_N (PF21089)
"Polyketide synthase dehydratase domain"</title>
				<rect class="PF21089" x="487" y="28" stroke-linejoin="round" width="9" height="24" fill="rgb(67,151,200)" stroke="rgb(53,120,160)" stroke-width="1" opacity="0.75" />
			</g>
			<g>
				<title>KR (PF08659)
"KR domain"</title>
				<rect class="PF08659" x="504" y="28" stroke-linejoin="round" width="17" height="24" fill="rgb(203,145,81)" stroke="rgb(162,116,64)" stroke-width="1" opacity="0.75" />
			</g>
			<g>
				<title>Acyl_transf_1 (PF00698)
"Acyl transferase domain"</title>
				<rect class="PF00698" x="558" y="28" stroke-linejoin="round" width="25" height="24" fill="rgb(132,93,193)" stroke="rgb(105,74,154)" stroke-width="1" opacity="0.75" />
			</g>
			<g>
				<title>Ketoacyl-synt_C (PF02801)
"Beta-ketoacyl synthase, C-terminal domain"</title>
				<rect class="PF02801" x="601" y="28" stroke-linejoin="round" width="11" height="24" fill="rgb(212,79,72)" stroke="rgb(169,63,57)" stroke-width="1" opacity="0.75" />
			</g>
			<g>
				<title>ketoacyl-synt (PF00109)
"Beta-ketoacyl synthase, N-terminal domain"</title>
				<rect class="PF00109" x="614" y="28" stroke-linejoin="round" width="28" height="24" fill="rgb(74,179,82)" stroke="rgb(59,143,65)" stroke-width="1" opacity="0.75" />
			</g>
		</g>
		<g>
			<title>ucmE5
hypothetical protein</title>
			<polygon class="ucmE5
hypothetical protein" points="676,25 673,25 673,10 643,40 673,70 673,55 676,55" fill="rgb(255,255,255)" fill-opacity="1.0" stroke="rgb(0,0,0)" stroke-width="2"  />
		</g>
		<g>
			<title>ucmE4
hypothetical protein</title>
			<polygon class="ucmE4
hypothetical protein" points="741,25 706,25 706,10 676,40 706,70 706,55 741,55" fill="rgb(255,255,255)" fill-opacity="1.0" stroke="rgb(0,0,0)" stroke-width="2"  />
			<g>
				<title>UnbV_ASPIC (PF07593)
"ASPIC and UnbV"</title>
				<polygon class="PF07593" points="680,40 683,37 683,43" stroke-linejoin="round" width="6" height="24" fill="rgb(208,157,76)" stroke="rgb(166,125,60)" stroke-width="1" opacity="0.75" />
			</g>
			<g>
				<title>FG-GAP (PF01839)
"FG-GAP repeat"</title>
				<rect class="PF01839" x="716" y="28" stroke-linejoin="round" width="3" height="24" fill="rgb(151,58,226)" stroke="rgb(120,46,180)" stroke-width="1" opacity="0.75" />
			</g>
		</g>
		<g>
			<title>ucmE3
hypothetical protein</title>
			<polygon class="ucmE3
hypothetical protein" points="773,25 771,25 771,10 741,40 771,70 771,55 773,55" fill="rgb(255,255,255)" fill-opacity="1.0" stroke="rgb(0,0,0)" stroke-width="2"  />
			<g>
				<title>DUF1702 (PF08012)
"Protein of unknown function (DUF1702)"</title>
				<polygon class="PF08012" points="745,40 757,28 772,28 772,52 757,52" stroke-linejoin="round" width="31" height="24" fill="rgb(115,74,184)" stroke="rgb(92,59,147)" stroke-width="1" opacity="0.75" />
			</g>
		</g>
		<g>
			<title>ucmS3
glyoxalase/bleomycin resistance protein/dioxygenase</title>
			<polygon class="ucmS3
glyoxalase/bleomycin resistance protein/dioxygenase" points="792,10 804,40 792,70" fill="rgb(255,255,255)" fill-opacity="1.0" stroke="rgb(0,0,0)" stroke-width="2"  />
			<g>
				<title>Glyoxalase (PF00903)
"Glyoxalase/Bleomycin resistance protein/Dioxygenase superfamily"</title>
				<polygon class="PF00903" points="792,28 796,28 801,40 796,52 792,52" stroke-linejoin="round" width="11" height="24" fill="rgb(139,76,222)" stroke="rgb(111,60,177)" stroke-width="1" opacity="0.75" />
			</g>
		</g>
		<g>
			<title>ucmR4
Arac family transcriptional regulator</title>
			<polygon class="ucmR4
Arac family transcriptional regulator" points="817,10 834,40 817,70" fill="rgb(255,255,255)" fill-opacity="1.0" stroke="rgb(0,0,0)" stroke-width="2"  />
			<g>
				<title>HTH_18 (PF12833)
"Helix-turn-helix domain"</title>
				<polygon class="PF12833" points="820,28 824,28 827,33 827,47 824,52 820,52" stroke-linejoin="round" width="7" height="24" fill="rgb(96,195,114)" stroke="rgb(76,156,91)" stroke-width="1" opacity="0.75" />
			</g>
		</g>
		<g>
			<title>ucmS2
glyoxalase/bleomycin resistance protein/dioxygenase</title>
			<polygon class="ucmS2
glyoxalase/bleomycin resistance protein/dioxygenase" points="836,10 849,40 836,70" fill="rgb(255,255,255)" fill-opacity="1.0" stroke="rgb(0,0,0)" stroke-width="2"  />
			<g>
				<title>Glyoxalase (PF00903)
"Glyoxalase/Bleomycin resistance protein/Dioxygenase superfamily"</title>
				<polygon class="PF00903" points="836,28 840,28 846,40 840,52 836,52" stroke-linejoin="round" width="12" height="24" fill="rgb(139,76,222)" stroke="rgb(111,60,177)" stroke-width="1" opacity="0.75" />
			</g>
		</g>
		<g>
			<title>ucmT1
tetracenomycin c resistance and export protein</title>
			<polygon class="ucmT1
tetracenomycin c resistance and export protein" points="850,25 875,25 875,10 905,40 875,70 875,55 850,55" fill="rgb(255,255,255)" fill-opacity="1.0" stroke="rgb(0,0,0)" stroke-width="2"  />
			<g>
				<title>MFS_1 (PF07690)
"Major Facilitator Superfamily"</title>
				<polygon class="PF07690" points="854,28 889,28 893,32 893,48 889,52 854,52" stroke-linejoin="round" width="39" height="24" fill="rgb(228,207,98)" stroke="rgb(182,165,78)" stroke-width="1" opacity="0.75" />
			</g>
		</g>
		<g>
			<title>ucmS1
glyoxalase/bleomycin resistance protein/dioxygenase</title>
			<polygon class="ucmS1
glyoxalase/bleomycin resistance protein/dioxygenase" points="909,10 921,40 909,70" fill="rgb(255,255,255)" fill-opacity="1.0" stroke="rgb(0,0,0)" stroke-width="2"  />
			<g>
				<title>Glyoxalase (PF00903)
"Glyoxalase/Bleomycin resistance protein/Dioxygenase superfamily"</title>
				<polygon class="PF00903" points="909,28 913,28 918,40 913,52 909,52" stroke-linejoin="round" width="11" height="24" fill="rgb(139,76,222)" stroke="rgb(111,60,177)" stroke-width="1" opacity="0.75" />
			</g>
		</g>
		<g>
			<title>ucmR2
hypothetical protein</title>
			<polygon class="ucmR2
hypothetical protein" points="968,25 954,25 954,10 924,40 954,70 954,55 968,55" fill="rgb(255,255,255)" fill-opacity="1.0" stroke="rgb(0,0,0)" stroke-width="2"  />
			<g>
				<title>ABC1 (PF03109)
"ABC1 atypical kinase-like domain"</title>
				<polygon class="PF03109" points="933,35 940,28 957,28 957,52 940,52 933,45" stroke-linejoin="round" width="24" height="24" fill="rgb(175,203,80)" stroke="rgb(140,162,64)" stroke-width="1" opacity="0.75" />
			</g>
		</g>
		<g>
			<title>ucmP
FAD-dependent oxidoreductase</title>
			<polygon class="ucmP
FAD-dependent oxidoreductase" points="1008,25 1000,25 1000,10 970,40 1000,70 1000,55 1008,55" fill="rgb(255,255,255)" fill-opacity="1.0" stroke="rgb(0,0,0)" stroke-width="2"  />
			<g>
				<title>FAD_binding_3 (PF01494)
"FAD binding domain"</title>
				<polygon class="PF01494" points="974,40 986,28 1007,28 1007,52 986,52 974,40" stroke-linejoin="round" width="33" height="24" fill="rgb(215,66,156)" stroke="rgb(172,52,124)" stroke-width="1" opacity="0.75" />
			</g>
		</g>
		<g>
			<title>ucmO
putative hydroxylase</title>
			<polygon class="ucmO
putative hydroxylase" points="1008,40 1025,10 1025,70" fill="rgb(255,255,255)" fill-opacity="1.0" stroke="rgb(0,0,0)" stroke-width="2"  />
			<g>
				<title>SnoaL (PF07366)
"SnoaL-like polyketide cyclase"</title>
				<polygon class="PF07366" points="1011,40 1018,28 1023,28 1023,52 1018,52 1011,40" stroke-linejoin="round" width="12" height="24" fill="rgb(102,157,212)" stroke="rgb(81,125,169)" stroke-width="1" opacity="0.75" />
			</g>
		</g>
		<g>
			<title>ucmN
putative hydroxylase</title>
			<polygon class="ucmN
putative hydroxylase" points="1027,40 1042,10 1042,70" fill="rgb(255,255,255)" fill-opacity="1.0" stroke="rgb(0,0,0)" stroke-width="2"  />
			<g>
				<title>SnoaL (PF07366)
"SnoaL-like polyketide cyclase"</title>
				<polygon class="PF07366" points="1030,40 1036,28 1040,28 1040,52 1036,52" stroke-linejoin="round" width="12" height="24" fill="rgb(102,157,212)" stroke="rgb(81,125,169)" stroke-width="1" opacity="0.75" />
			</g>
		</g>
		<g>
			<title>ucmM
rieske (2Fe-2S) iron-sulfur domain protein</title>
			<polygon class="ucmM
rieske (2Fe-2S) iron-sulfur domain protein" points="1050,25 1054,25 1054,10 1084,40 1054,70 1054,55 1050,55" fill="rgb(255,255,255)" fill-opacity="1.0" stroke="rgb(0,0,0)" stroke-width="2"  />
			<g>
				<title>Rieske (PF00355)
"Rieske [2Fe-2S] domain"</title>
				<rect class="PF00355" x="1053" y="28" stroke-linejoin="round" width="8" height="24" fill="rgb(60,75,194)" stroke="rgb(48,60,155)" stroke-width="1" opacity="0.75" />
			</g>
		</g>
		<g>
			<title>ucmK2
hydrolase</title>
			<polygon class="ucmK2
hydrolase" points="1134,25 1116,25 1116,10 1086,40 1116,70 1116,55 1134,55" fill="rgb(255,255,255)" fill-opacity="1.0" stroke="rgb(0,0,0)" stroke-width="2"  />
			<g>
				<title>Abhydrolase_1 (PF00561)
"alpha/beta hydrolase fold"</title>
				<polygon class="PF00561" points="1090,40 1102,28 1124,28 1124,52 1102,52" stroke-linejoin="round" width="35" height="24" fill="rgb(99,159,215)" stroke="rgb(79,127,172)" stroke-width="1" opacity="0.75" />
			</g>
		</g>
		<g>
			<title>ucmK1
hydrolase</title>
			<polygon class="ucmK1
hydrolase" points="1184,25 1164,25 1164,10 1134,40 1164,70 1164,55 1184,55" fill="rgb(255,255,255)" fill-opacity="1.0" stroke="rgb(0,0,0)" stroke-width="2"  />
			<g>
				<title>Abhydrolase_1 (PF00561)
"alpha/beta hydrolase fold"</title>
				<polygon class="PF00561" points="1139,39 1150,28 1175,28 1175,52 1150,52 1139,41" stroke-linejoin="round" width="36" height="24" fill="rgb(99,159,215)" stroke="rgb(79,127,172)" stroke-width="1" opacity="0.75" />
			</g>
		</g>
		<g>
			<title>ucmJ
SAM-dependent methyltransferase</title>
			<polygon class="ucmJ
SAM-dependent methyltransferase" points="1221,25 1216,25 1216,10 1186,40 1216,70 1216,55 1221,55" fill="rgb(255,255,255)" fill-opacity="1.0" stroke="rgb(0,0,0)" stroke-width="2"  />
			<g>
				<title>Methyltransf_31 (PF13847)
"Methyltransferase domain"</title>
				<polygon class="PF13847" points="1191,39 1202,28 1204,28 1204,52 1202,52 1191,41" stroke-linejoin="round" width="13" height="24" fill="rgb(215,176,97)" stroke="rgb(172,140,77)" stroke-width="1" opacity="0.75" />
			</g>
			<g>
				<title>HTH_65 (PF21320)
"Rv2258c-like winged HTH domain"</title>
				<rect class="PF21320" x="1211" y="28" stroke-linejoin="round" width="7" height="24" fill="rgb(106,181,85)" stroke="rgb(84,144,67)" stroke-width="1" opacity="0.75" />
			</g>
		</g>
		<g>
			<title>ucmR1
hypothetical protein</title>
			<polygon class="ucmR1
hypothetical protein" points="1229,10 1252,40 1229,70" fill="rgb(255,255,255)" fill-opacity="1.0" stroke="rgb(0,0,0)" stroke-width="2"  />
			<g>
				<title>HxlR (PF01638)
"HxlR-like helix-turn-helix"</title>
				<rect class="PF01638" x="1230" y="28" stroke-linejoin="round" width="9" height="24" fill="rgb(211,96,80)" stroke="rgb(168,76,64)" stroke-width="1" opacity="0.75" />
			</g>
		</g>
		<g>
			<title>ucmI
oxidoreductase</title>
			<polygon class="ucmI
oxidoreductase" points="1256,10 1282,40 1256,70" fill="rgb(255,255,255)" fill-opacity="1.0" stroke="rgb(0,0,0)" stroke-width="2"  />
			<g>
				<title>adh_short (PF00106)
"short chain dehydrogenase"</title>
				<polygon class="PF00106" points="1257,28 1268,28 1276,38 1276,42 1268,52 1257,52" stroke-linejoin="round" width="19" height="24" fill="rgb(128,81,196)" stroke="rgb(102,64,156)" stroke-width="1" opacity="0.75" />
			</g>
		</g>
		<g>
			<title>ucmG
hypothetical protein</title>
			<polygon class="ucmG
hypothetical protein" points="1363,25 1320,25 1320,10 1290,40 1320,70 1320,55 1363,55" fill="rgb(255,255,255)" fill-opacity="1.0" stroke="rgb(0,0,0)" stroke-width="2"  />
			<g>
				<title>Methyltransf_23 (PF13489)
"Methyltransferase domain"</title>
				<polygon class="PF13489" points="1294,40 1306,28 1310,28 1310,52 1306,52" stroke-linejoin="round" width="19" height="24" fill="rgb(62,214,70)" stroke="rgb(49,171,56)" stroke-width="1" opacity="0.75" />
			</g>
			<g>
				<title>HTH_65 (PF21320)
"Rv2258c-like winged HTH domain"</title>
				<rect class="PF21320" x="1316" y="28" stroke-linejoin="round" width="7" height="24" fill="rgb(106,181,85)" stroke="rgb(84,144,67)" stroke-width="1" opacity="0.75" />
			</g>
			<g>
				<title>AHSA1 (PF08327)
"Activator of Hsp90 ATPase homolog 1-like protein"</title>
				<rect class="PF08327" x="1345" y="28" stroke-linejoin="round" width="12" height="24" fill="rgb(90,94,197)" stroke="rgb(72,75,157)" stroke-width="1" opacity="0.75" />
			</g>
		</g>
		<g>
			<title>ucmB
enediyne self-sacrifice resistance protein</title>
			<polygon class="ucmB
enediyne self-sacrifice resistance protein" points="1375,10 1404,40 1375,70" fill="rgb(255,255,255)" fill-opacity="1.0" stroke="rgb(0,0,0)" stroke-width="2"  />
			<g>
				<title>AHSA1 (PF08327)
"Activator of Hsp90 ATPase homolog 1-like protein"</title>
				<polygon class="PF08327" points="1377,28 1388,28 1389,29 1389,51 1388,52 1377,52" stroke-linejoin="round" width="12" height="24" fill="rgb(90,94,197)" stroke="rgb(72,75,157)" stroke-width="1" opacity="0.75" />
			</g>
		</g>
		<g>
			<title>ucmR7
Arac family transcriptional regulator</title>
			<polygon class="ucmR7
Arac family transcriptional regulator" points="1406,10 1434,40 1406,70" fill="rgb(255,255,255)" fill-opacity="1.0" stroke="rgb(0,0,0)" stroke-width="2"  />
			<g>
				<title>HTH_18 (PF12833)
"Helix-turn-helix domain"</title>
				<rect class="PF12833" x="1411" y="28" stroke-linejoin="round" width="7" height="24" fill="rgb(96,195,114)" stroke="rgb(76,156,91)" stroke-width="1" opacity="0.75" />
			</g>
		</g>
		<g>
			<title>
pyridoxamine 5'-phosphate oxidase</title>
			<polygon class="
pyridoxamine 5'-phosphate oxidase" points="1460,10 1477,40 1460,70" fill="rgb(255,255,255)" fill-opacity="1.0" stroke="rgb(0,0,0)" stroke-width="2"  />
			<g>
				<title>Putative_PNPOx (PF01243)
"Pyridoxamine 5'-phosphate oxidase"</title>
				<polygon class="PF01243" points="1463,28 1466,28 1471,36 1471,44 1466,52 1463,52" stroke-linejoin="round" width="8" height="24" fill="rgb(187,127,57)" stroke="rgb(149,101,45)" stroke-width="1" opacity="0.75" />
			</g>
		</g>
	</g>
</svg>
