<svg version="1.1" baseProfile="full" xmlns="http://www.w3.org/2000/svg" width="579.7333333333333" height="80">
	<g>
		<line x1="10" y1="40.0" x2="569.7333333333333" y2="40.0" style="stroke:rgb(70,70,70); stroke-width:3 "/>
		<g>
			<title>
unknown</title>
			<polygon class="
unknown" points="13,25 16,25 16,10 46,40 16,70 16,55 13,55" fill="rgb(255,255,255)" fill-opacity="1.0" stroke="rgb(0,0,0)" stroke-width="2"  />
		</g>
		<g>
			<title>upaY
UpaY</title>
			<polygon class="upaY
UpaY" points="90,10 107,40 90,70" fill="rgb(255,255,255)" fill-opacity="1.0" stroke="rgb(0,0,0)" stroke-width="2"  />
			<g>
				<title>NusG (PF02357)
"Transcription termination factor nusG"</title>
				<polygon class="PF02357" points="90,28 96,28 99,32 99,48 96,52 90,52" stroke-linejoin="round" width="9" height="24" fill="rgb(170,85,186)" stroke="rgb(136,68,148)" stroke-width="1" opacity="0.75" />
			</g>
		</g>
		<g>
			<title>upaZ
UpaZ</title>
			<polygon class="upaZ
UpaZ" points="108,10 123,40 108,70" fill="rgb(255,255,255)" fill-opacity="1.0" stroke="rgb(0,0,0)" stroke-width="2"  />
			<g>
				<title>UpxZ (PF06603)
"UpxZ family of transcription anti-terminator antagonists"</title>
				<polygon class="PF06603" points="108,28 113,28 118,36 118,44 113,52 108,52" stroke-linejoin="round" width="10" height="24" fill="rgb(199,81,142)" stroke="rgb(159,64,113)" stroke-width="1" opacity="0.75" />
			</g>
		</g>
		<g>
			<title>wzx
putative flippase</title>
			<polygon class="wzx
putative flippase" points="126,25 144,25 144,10 174,40 144,70 144,55 126,55" fill="rgb(255,255,255)" fill-opacity="1.0" stroke="rgb(0,0,0)" stroke-width="2"  />
			<g>
				<title>Polysacc_synt (PF01943)
"Polysaccharide biosynthesis protein"</title>
				<rect class="PF01943" x="126" y="28" stroke-linejoin="round" width="27" height="24" fill="rgb(87,191,113)" stroke="rgb(69,152,90)" stroke-width="1" opacity="0.75" />
			</g>
			<g>
				<title>Polysacc_synt_C (PF14667)
"Polysaccharide biosynthesis C-terminal domain"</title>
				<polygon class="PF14667" points="158,28 158,28 170,40 158,52 158,52" stroke-linejoin="round" width="13" height="24" fill="rgb(183,62,83)" stroke="rgb(146,49,66)" stroke-width="1" opacity="0.75" />
			</g>
		</g>
		<g>
			<title>wcfM
putative galactopyranose mutase</title>
			<polygon class="wcfM
putative galactopyranose mutase" points="174,25 180,25 180,10 210,40 180,70 180,55 174,55" fill="rgb(255,255,255)" fill-opacity="1.0" stroke="rgb(0,0,0)" stroke-width="2"  />
			<g>
				<title>NAD_binding_8 (PF13450)
"NAD(P)-binding Rossmann-like domain"</title>
				<rect class="PF13450" x="174" y="28" stroke-linejoin="round" width="6" height="24" fill="rgb(218,105,93)" stroke="rgb(174,84,74)" stroke-width="1" opacity="0.75" />
			</g>
			<g>
				<title>GLF (PF03275)
"UDP-galactopyranose mutase"</title>
				<polygon class="PF03275" points="188,28 194,28 206,40 194,52 188,52" stroke-linejoin="round" width="20" height="24" fill="rgb(110,188,78)" stroke="rgb(88,150,62)" stroke-width="1" opacity="0.75" />
			</g>
		</g>
		<g>
			<title>wcfN
putative glycosyltransferase</title>
			<polygon class="wcfN
putative glycosyltransferase" points="211,10 240,40 211,70" fill="rgb(255,255,255)" fill-opacity="1.0" stroke="rgb(0,0,0)" stroke-width="2"  />
			<g>
				<title>Glycos_transf_2 (PF00535)
"Glycosyl transferase family 2"</title>
				<polygon class="PF00535" points="211,28 224,28 227,31 227,49 224,52 211,52" stroke-linejoin="round" width="16" height="24" fill="rgb(197,62,212)" stroke="rgb(157,49,169)" stroke-width="1" opacity="0.75" />
			</g>
		</g>
		<g>
			<title>wzy
putative polymerase</title>
			<polygon class="wzy
putative polymerase" points="240,25 253,25 253,10 283,40 253,70 253,55 240,55" fill="rgb(255,255,255)" fill-opacity="1.0" stroke="rgb(0,0,0)" stroke-width="2"  />
			<g>
				<title>DUF6032 (PF19497)
"Family of unknown function (DUF6032)"</title>
				<polygon class="PF19497" points="240,28 267,28 279,40 267,52 240,52" stroke-linejoin="round" width="43" height="24" fill="rgb(65,183,196)" stroke="rgb(52,146,156)" stroke-width="1" opacity="0.75" />
			</g>
		</g>
		<g>
			<title>wcfO
putative glycosyltransferase</title>
			<polygon class="wcfO
putative glycosyltransferase" points="284,25 288,25 288,10 318,40 288,70 288,55 284,55" fill="rgb(255,255,255)" fill-opacity="1.0" stroke="rgb(0,0,0)" stroke-width="2"  />
			<g>
				<title>PS_pyruv_trans (PF04230)
"Polysaccharide pyruvyl transferase"</title>
				<polygon class="PF04230" points="285,28 302,28 311,37 311,43 302,52 285,52" stroke-linejoin="round" width="26" height="24" fill="rgb(190,122,54)" stroke="rgb(152,97,43)" stroke-width="1" opacity="0.75" />
			</g>
		</g>
		<g>
			<title>wcfP
putative glycosyltransferase</title>
			<polygon class="wcfP
putative glycosyltransferase" points="319,25 326,25 326,10 356,40 326,70 326,55 319,55" fill="rgb(255,255,255)" fill-opacity="1.0" stroke="rgb(0,0,0)" stroke-width="2"  />
			<g>
				<title>Glyco_trans_1_4 (PF13692)
"Glycosyl transferases group 1"</title>
				<polygon class="PF13692" points="339,28 340,28 352,40 352,40 340,52 339,52" stroke-linejoin="round" width="13" height="24" fill="rgb(154,183,67)" stroke="rgb(123,146,53)" stroke-width="1" opacity="0.75" />
			</g>
		</g>
		<g>
			<title>wcfQ
putative glycosyltransferase</title>
			<polygon class="wcfQ
putative glycosyltransferase" points="356,10 382,40 356,70" fill="rgb(255,255,255)" fill-opacity="1.0" stroke="rgb(0,0,0)" stroke-width="2"  />
			<g>
				<title>Glycos_transf_2 (PF00535)
"Glycosyl transferase family 2"</title>
				<polygon class="PF00535" points="356,28 367,28 372,33 372,47 367,52 356,52" stroke-linejoin="round" width="16" height="24" fill="rgb(197,62,212)" stroke="rgb(157,49,169)" stroke-width="1" opacity="0.75" />
			</g>
		</g>
		<g>
			<title>wcfR
putative amino sugar synthetase</title>
			<polygon class="wcfR
putative amino sugar synthetase" points="384,25 394,25 394,10 424,40 394,70 394,55 384,55" fill="rgb(255,255,255)" fill-opacity="1.0" stroke="rgb(0,0,0)" stroke-width="2"  />
			<g>
				<title>DegT_DnrJ_EryC1 (PF01041)
"DegT/DnrJ/EryC1/StrS aminotransferase family"</title>
				<rect class="PF01041" x="384" y="28" stroke-linejoin="round" width="14" height="24" fill="rgb(228,110,183)" stroke="rgb(182,88,146)" stroke-width="1" opacity="0.75" />
			</g>
			<g>
				<title>DegT_DnrJ_EryC1 (PF01041)
"DegT/DnrJ/EryC1/StrS aminotransferase family"</title>
				<polygon class="PF01041" points="399,28 408,28 420,40 408,52 399,52" stroke-linejoin="round" width="24" height="24" fill="rgb(228,110,183)" stroke="rgb(182,88,146)" stroke-width="1" opacity="0.75" />
			</g>
		</g>
		<g>
			<title>wcfS
putative undecaprenyl-phosphate galactose phosphotransferase</title>
			<polygon class="wcfS
putative undecaprenyl-phosphate galactose phosphotransferase" points="426,10 445,40 426,70" fill="rgb(255,255,255)" fill-opacity="1.0" stroke="rgb(0,0,0)" stroke-width="2"  />
			<g>
				<title>Bac_transf (PF02397)
"Bacterial sugar transferase"</title>
				<polygon class="PF02397" points="426,28 434,28 442,40 434,52 426,52" stroke-linejoin="round" width="19" height="24" fill="rgb(100,199,213)" stroke="rgb(80,159,170)" stroke-width="1" opacity="0.75" />
			</g>
		</g>
		<g>
			<title>pdiA
putative protein disulfide isomerase</title>
			<polygon class="pdiA
putative protein disulfide isomerase" points="458,10 477,40 458,70" fill="rgb(255,255,255)" fill-opacity="1.0" stroke="rgb(0,0,0)" stroke-width="2"  />
			<g>
				<title>Redoxin (PF08534)
"Redoxin"</title>
				<polygon class="PF08534" points="463,28 466,28 474,40 466,52 463,52" stroke-linejoin="round" width="13" height="24" fill="rgb(219,80,114)" stroke="rgb(175,64,91)" stroke-width="1" opacity="0.75" />
			</g>
		</g>
		<g>
			<title>trnA
putative transporter</title>
			<polygon class="trnA
putative transporter" points="480,25 512,25 512,10 542,40 512,70 512,55 480,55" fill="rgb(255,255,255)" fill-opacity="1.0" stroke="rgb(0,0,0)" stroke-width="2"  />
			<g>
				<title>CitMHS (PF03600)
"Citrate transporter"</title>
				<polygon class="PF03600" points="481,28 525,28 536,39 536,41 525,52 481,52" stroke-linejoin="round" width="55" height="24" fill="rgb(82,186,185)" stroke="rgb(65,148,147)" stroke-width="1" opacity="0.75" />
			</g>
		</g>
		<g>
			<title>mtfA
putative methyltransferase</title>
			<polygon class="mtfA
putative methyltransferase" points="543,40 568,10 568,70" fill="rgb(255,255,255)" fill-opacity="1.0" stroke="rgb(0,0,0)" stroke-width="2"  />
			<g>
				<title>Methyltransf_11 (PF08241)
"Methyltransferase domain"</title>
				<polygon class="PF08241" points="551,35 557,28 560,28 560,52 557,52 551,45" stroke-linejoin="round" width="9" height="24" fill="rgb(201,85,64)" stroke="rgb(160,68,51)" stroke-width="1" opacity="0.75" />
			</g>
		</g>
	</g>
</svg>
