<svg version="1.1" baseProfile="full" xmlns="http://www.w3.org/2000/svg" width="296.3333333333333" height="80">
	<g>
		<line x1="10" y1="40.0" x2="286.3333333333333" y2="40.0" style="stroke:rgb(70,70,70); stroke-width:3 "/>
		<g>
			<title>sagA (SPy_0738)
streptolysin S associated protein</title>
			<polygon class="sagA (SPy_0738)
streptolysin S associated protein" points="10,10 15,40 10,70" fill="rgb(255,255,255)" fill-opacity="1.0" stroke="rgb(0,0,0)" stroke-width="2"  />
		</g>
		<g>
			<title>sagB (SPy_0739)
streptolysin S associated ORF</title>
			<polygon class="sagB (SPy_0739)
streptolysin S associated ORF" points="22,25 23,25 23,10 53,40 23,70 23,55 22,55" fill="rgb(255,255,255)" fill-opacity="1.0" stroke="rgb(0,0,0)" stroke-width="2"  />
			<g>
				<title>Nitroreductase (PF00881)
"Nitroreductase family"</title>
				<polygon class="PF00881" points="34,28 37,28 49,40 37,52 34,52" stroke-linejoin="round" width="18" height="24" fill="rgb(106,62,184)" stroke="rgb(84,49,147)" stroke-width="1" opacity="0.75" />
			</g>
		</g>
		<g>
			<title>sagC (SPy_0740)
streptolysin S associated ORF</title>
			<polygon class="sagC (SPy_0740)
streptolysin S associated ORF" points="54,25 59,25 59,10 89,40 59,70 59,55 54,55" fill="rgb(255,255,255)" fill-opacity="1.0" stroke="rgb(0,0,0)" stroke-width="2"  />
		</g>
		<g>
			<title> (SPy_0741)
hypothetical protein</title>
			<polygon class=" (SPy_0741)
hypothetical protein" points="90,25 105,25 105,10 135,40 105,70 105,55 90,55" fill="rgb(255,255,255)" fill-opacity="1.0" stroke="rgb(0,0,0)" stroke-width="2"  />
			<g>
				<title>YcaO (PF02624)
"YcaO cyclodehydratase, ATP-ad Mg2+-binding"</title>
				<polygon class="PF02624" points="96,28 119,28 131,40 131,40 119,52 96,52" stroke-linejoin="round" width="35" height="24" fill="rgb(69,185,74)" stroke="rgb(55,148,59)" stroke-width="1" opacity="0.75" />
			</g>
		</g>
		<g>
			<title> (SPy_0742)
hypothetical protein</title>
			<polygon class=" (SPy_0742)
hypothetical protein" points="134,10 156,40 134,70" fill="rgb(255,255,255)" fill-opacity="1.0" stroke="rgb(0,0,0)" stroke-width="2"  />
			<g>
				<title>Rce1-like (PF02517)
"Type II CAAX prenyl endopeptidase Rce1-like"</title>
				<polygon class="PF02517" points="145,30 152,40 145,50" stroke-linejoin="round" width="9" height="24" fill="rgb(221,193,76)" stroke="rgb(176,154,60)" stroke-width="1" opacity="0.75" />
			</g>
		</g>
		<g>
			<title> (SPy_0743)
hypothetical protein</title>
			<polygon class=" (SPy_0743)
hypothetical protein" points="156,10 178,40 156,70" fill="rgb(255,255,255)" fill-opacity="1.0" stroke="rgb(0,0,0)" stroke-width="2"  />
			<g>
				<title>DUF5968 (PF19393)
"Family of unknown function (DUF5968)"</title>
				<polygon class="PF19393" points="164,28 166,28 175,40 166,52 164,52" stroke-linejoin="round" width="14" height="24" fill="rgb(203,80,78)" stroke="rgb(162,64,62)" stroke-width="1" opacity="0.75" />
			</g>
		</g>
		<g>
			<title> (SPy_0744)
putative ABC transporter (ATP-binding protein)</title>
			<polygon class=" (SPy_0744)
putative ABC transporter (ATP-binding protein)" points="180,25 180,25 180,10 210,40 180,70 180,55 180,55" fill="rgb(255,255,255)" fill-opacity="1.0" stroke="rgb(0,0,0)" stroke-width="2"  />
			<g>
				<title>ABC_tran (PF00005)
"ABC transporter"</title>
				<polygon class="PF00005" points="182,28 194,28 196,30 196,50 194,52 182,52" stroke-linejoin="round" width="14" height="24" fill="rgb(46,186,108)" stroke="rgb(36,148,86)" stroke-width="1" opacity="0.75" />
			</g>
		</g>
		<g>
			<title>sagH (SPy_0745)
ABC transporter (ATP-binding protein) - streptolysin S associated ORF</title>
			<polygon class="sagH (SPy_0745)
ABC transporter (ATP-binding protein) - streptolysin S associated ORF" points="211,25 218,25 218,10 248,40 218,70 218,55 211,55" fill="rgb(255,255,255)" fill-opacity="1.0" stroke="rgb(0,0,0)" stroke-width="2"  />
			<g>
				<title>ABC2_membrane_3 (PF12698)
"ABC-2 family transporter protein"</title>
				<polygon class="PF12698" points="212,28 232,28 244,40 232,52 212,52" stroke-linejoin="round" width="34" height="24" fill="rgb(81,194,105)" stroke="rgb(64,155,83)" stroke-width="1" opacity="0.75" />
			</g>
		</g>
		<g>
			<title> (SPy_0746)
putative ABC transporter (ATP-binding protein)</title>
			<polygon class=" (SPy_0746)
putative ABC transporter (ATP-binding protein)" points="249,25 256,25 256,10 286,40 256,70 256,55 249,55" fill="rgb(255,255,255)" fill-opacity="1.0" stroke="rgb(0,0,0)" stroke-width="2"  />
			<g>
				<title>ABC2_membrane_3 (PF12698)
"ABC-2 family transporter protein"</title>
				<polygon class="PF12698" points="250,28 270,28 282,40 270,52 250,52" stroke-linejoin="round" width="34" height="24" fill="rgb(81,194,105)" stroke="rgb(64,155,83)" stroke-width="1" opacity="0.75" />
			</g>
		</g>
	</g>
</svg>
