<svg version="1.1" baseProfile="full" xmlns="http://www.w3.org/2000/svg" width="265.26666666666665" height="80">
	<g>
		<line x1="10" y1="40.0" x2="255.26666666666668" y2="40.0" style="stroke:rgb(70,70,70); stroke-width:3 "/>
		<g>
			<title>sbo
subtilosin A</title>
			<polygon class="sbo
subtilosin A" points="22,10 26,40 22,70" fill="rgb(255,255,255)" fill-opacity="1.0" stroke="rgb(0,0,0)" stroke-width="2"  />
			<g>
				<title>Subtilosin_A (PF11420)
"Bacteriocin subtilosin A"</title>
				<polygon class="PF11420" points="22,31 23,40 22,49" stroke-linejoin="round" width="3" height="24" fill="rgb(191,137,72)" stroke="rgb(152,109,57)" stroke-width="1" opacity="0.75" />
			</g>
		</g>
		<g>
			<title>ywiA
ywiA protein</title>
			<polygon class="ywiA
ywiA protein" points="31,25 45,25 45,10 75,40 45,70 45,55 31,55" fill="rgb(255,255,255)" fill-opacity="1.0" stroke="rgb(0,0,0)" stroke-width="2"  />
			<g>
				<title>PqqD (PF05402)
"Coenzyme PQQ synthesis protein D (PqqD)"</title>
				<rect class="PF05402" x="34" y="28" stroke-linejoin="round" width="6" height="24" fill="rgb(205,87,187)" stroke="rgb(164,69,149)" stroke-width="1" opacity="0.75" />
			</g>
			<g>
				<title>Radical_SAM (PF04055)
"Radical SAM superfamily"</title>
				<rect class="PF04055" x="43" y="28" stroke-linejoin="round" width="15" height="24" fill="rgb(223,193,78)" stroke="rgb(178,154,62)" stroke-width="1" opacity="0.75" />
			</g>
			<g>
				<title>SPASM (PF13186)
"Iron-sulfur cluster-binding domain"</title>
				<polygon class="PF13186" points="65,34 71,40 65,46" stroke-linejoin="round" width="7" height="24" fill="rgb(70,195,165)" stroke="rgb(56,156,132)" stroke-width="1" opacity="0.75" />
			</g>
		</g>
		<g>
			<title>ywhR
ywhR protein</title>
			<polygon class="ywhR
ywhR protein" points="76,10 81,40 76,70" fill="rgb(255,255,255)" fill-opacity="1.0" stroke="rgb(0,0,0)" stroke-width="2"  />
		</g>
		<g>
			<title>ywhQ
ywhQ protein</title>
			<polygon class="ywhQ
ywhQ protein" points="81,10 105,40 81,70" fill="rgb(255,255,255)" fill-opacity="1.0" stroke="rgb(0,0,0)" stroke-width="2"  />
			<g>
				<title>ABC_tran (PF00005)
"ABC transporter"</title>
				<polygon class="PF00005" points="83,28 91,28 97,35 97,45 91,52 83,52" stroke-linejoin="round" width="14" height="24" fill="rgb(46,186,108)" stroke="rgb(36,148,86)" stroke-width="1" opacity="0.75" />
			</g>
		</g>
		<g>
			<title>ywhP
ywhP protein</title>
			<polygon class="ywhP
ywhP protein" points="104,25 119,25 119,10 149,40 119,70 119,55 104,55" fill="rgb(255,255,255)" fill-opacity="1.0" stroke="rgb(0,0,0)" stroke-width="2"  />
		</g>
		<g>
			<title>ywhO
ywhO protein</title>
			<polygon class="ywhO
ywhO protein" points="149,25 157,25 157,10 187,40 157,70 157,55 149,55" fill="rgb(255,255,255)" fill-opacity="1.0" stroke="rgb(0,0,0)" stroke-width="2"  />
			<g>
				<title>Peptidase_M16_C (PF05193)
"Peptidase M16 inactive domain"</title>
				<polygon class="PF05193" points="168,28 171,28 181,38 181,42 171,52 168,52" stroke-linejoin="round" width="13" height="24" fill="rgb(77,149,192)" stroke="rgb(61,119,153)" stroke-width="1" opacity="0.75" />
			</g>
		</g>
		<g>
			<title>ywhN
ywhN protein</title>
			<polygon class="ywhN
ywhN protein" points="187,25 199,25 199,10 229,40 199,70 199,55 187,55" fill="rgb(255,255,255)" fill-opacity="1.0" stroke="rgb(0,0,0)" stroke-width="2"  />
			<g>
				<title>Peptidase_M16 (PF00675)
"Insulinase (Peptidase family M16)"</title>
				<rect class="PF00675" x="190" y="28" stroke-linejoin="round" width="13" height="24" fill="rgb(81,198,161)" stroke="rgb(64,158,128)" stroke-width="1" opacity="0.75" />
			</g>
		</g>
		<g>
			<title>ywhM
ywhM protein</title>
			<polygon class="ywhM
ywhM protein" points="230,10 253,40 230,70" fill="rgb(255,255,255)" fill-opacity="1.0" stroke="rgb(0,0,0)" stroke-width="2"  />
		</g>
	</g>
</svg>
