<svg version="1.1" baseProfile="full" xmlns="http://www.w3.org/2000/svg" width="1405.8666666666666" height="80">
	<g>
		<line x1="10" y1="40.0" x2="1395.8666666666666" y2="40.0" style="stroke:rgb(70,70,70); stroke-width:3 "/>
		<g>
			<title>
putative sugar ABC transporter</title>
			<polygon class="
putative sugar ABC transporter" points="10,25 31,25 31,10 61,40 31,70 31,55 10,55" fill="rgb(255,255,255)" fill-opacity="1.0" stroke="rgb(0,0,0)" stroke-width="2"  />
			<g>
				<title>ABC_tran (PF00005)
"ABC transporter"</title>
				<rect class="PF00005" x="11" y="28" stroke-linejoin="round" width="15" height="24" fill="rgb(46,186,108)" stroke="rgb(36,148,86)" stroke-width="1" opacity="0.75" />
			</g>
			<g>
				<title>ABC_tran (PF00005)
"ABC transporter"</title>
				<polygon class="PF00005" points="38,28 45,28 53,36 53,44 45,52 38,52" stroke-linejoin="round" width="15" height="24" fill="rgb(46,186,108)" stroke="rgb(36,148,86)" stroke-width="1" opacity="0.75" />
			</g>
		</g>
		<g>
			<title>
putative sugar ABC transporter</title>
			<polygon class="
putative sugar ABC transporter" points="62,25 73,25 73,10 103,40 73,70 73,55 62,55" fill="rgb(255,255,255)" fill-opacity="1.0" stroke="rgb(0,0,0)" stroke-width="2"  />
			<g>
				<title>BPD_transp_2 (PF02653)
"Branched-chain amino acid transport system / permease component"</title>
				<rect class="PF02653" x="68" y="28" stroke-linejoin="round" width="15" height="24" fill="rgb(185,158,55)" stroke="rgb(148,126,44)" stroke-width="1" opacity="0.75" />
			</g>
			<g>
				<title>BPD_transp_2 (PF02653)
"Branched-chain amino acid transport system / permease component"</title>
				<polygon class="PF02653" points="84,28 87,28 99,40 87,52 84,52" stroke-linejoin="round" width="17" height="24" fill="rgb(185,158,55)" stroke="rgb(148,126,44)" stroke-width="1" opacity="0.75" />
			</g>
		</g>
		<g>
			<title>
putative O-methyltransferase</title>
			<polygon class="
putative O-methyltransferase" points="142,25 140,25 140,10 110,40 140,70 140,55 142,55" fill="rgb(255,255,255)" fill-opacity="1.0" stroke="rgb(0,0,0)" stroke-width="2"  />
			<g>
				<title>Methyltransf_2 (PF00891)
"O-methyltransferase domain"</title>
				<polygon class="PF00891" points="114,40 126,28 133,28 133,52 126,52" stroke-linejoin="round" width="21" height="24" fill="rgb(91,124,224)" stroke="rgb(72,99,179)" stroke-width="1" opacity="0.75" />
			</g>
		</g>
		<g>
			<title>
putative NH3-dependent NAD(+) synthase</title>
			<polygon class="
putative NH3-dependent NAD(+) synthase" points="154,10 181,40 154,70" fill="rgb(255,255,255)" fill-opacity="1.0" stroke="rgb(0,0,0)" stroke-width="2"  />
			<g>
				<title>NAD_synthase (PF02540)
"NAD synthase"</title>
				<polygon class="PF02540" points="156,28 166,28 177,40 166,52 156,52" stroke-linejoin="round" width="24" height="24" fill="rgb(120,96,221)" stroke="rgb(96,76,176)" stroke-width="1" opacity="0.75" />
			</g>
		</g>
		<g>
			<title>
hypothetical protein</title>
			<polygon class="
hypothetical protein" points="184,40 198,10 198,70" fill="rgb(255,255,255)" fill-opacity="1.0" stroke="rgb(0,0,0)" stroke-width="2"  />
			<g>
				<title>SnoaL_3 (PF13474)
"SnoaL-like domain"</title>
				<polygon class="PF13474" points="187,40 193,28 197,28 197,52 193,52" stroke-linejoin="round" width="12" height="24" fill="rgb(201,90,227)" stroke="rgb(160,72,181)" stroke-width="1" opacity="0.75" />
			</g>
		</g>
		<g>
			<title>
hypothetical protein</title>
			<polygon class="
hypothetical protein" points="202,40 226,10 226,70" fill="rgb(255,255,255)" fill-opacity="1.0" stroke="rgb(0,0,0)" stroke-width="2"  />
			<g>
				<title>Methyltransf_25 (PF13649)
"Methyltransferase domain"</title>
				<polygon class="PF13649" points="211,34 216,28 220,28 220,52 216,52 211,46" stroke-linejoin="round" width="9" height="24" fill="rgb(224,103,106)" stroke="rgb(179,82,84)" stroke-width="1" opacity="0.75" />
			</g>
		</g>
		<g>
			<title>kaoA
possible kanamycin regulatory protein</title>
			<polygon class="kaoA
possible kanamycin regulatory protein" points="315,25 262,25 262,10 232,40 262,70 262,55 315,55" fill="rgb(255,255,255)" fill-opacity="1.0" stroke="rgb(0,0,0)" stroke-width="2"  />
			<g>
				<title>HATPase_c_2 (PF13581)
"Histidine kinase-like ATPase domain"</title>
				<polygon class="PF13581" points="236,40 243,33 243,47" stroke-linejoin="round" width="11" height="24" fill="rgb(91,200,53)" stroke="rgb(72,160,42)" stroke-width="1" opacity="0.75" />
			</g>
			<g>
				<title>SpoIIE (PF07228)
"Stage II sporulation protein E (SpoIIE)"</title>
				<polygon class="PF07228" points="245,31 248,28 263,28 263,52 248,52 245,49" stroke-linejoin="round" width="18" height="24" fill="rgb(205,53,111)" stroke="rgb(164,42,88)" stroke-width="1" opacity="0.75" />
			</g>
			<g>
				<title>GAF (PF01590)
"GAF domain"</title>
				<rect class="PF01590" x="269" y="28" stroke-linejoin="round" width="16" height="24" fill="rgb(91,61,214)" stroke="rgb(72,48,171)" stroke-width="1" opacity="0.75" />
			</g>
			<g>
				<title>PAS (PF00989)
"PAS fold"</title>
				<rect class="PF00989" x="308" y="28" stroke-linejoin="round" width="5" height="24" fill="rgb(188,139,74)" stroke="rgb(150,111,59)" stroke-width="1" opacity="0.75" />
			</g>
		</g>
		<g>
			<title>kanZ
putative kanamycin efflux protein</title>
			<polygon class="kanZ
putative kanamycin efflux protein" points="401,25 350,25 350,10 320,40 350,70 350,55 401,55" fill="rgb(255,255,255)" fill-opacity="1.0" stroke="rgb(0,0,0)" stroke-width="2"  />
			<g>
				<title>CarboxypepD_reg (PF13620)
"Carboxypeptidase regulatory-like domain"</title>
				<polygon class="PF13620" points="324,40 327,37 327,43" stroke-linejoin="round" width="7" height="24" fill="rgb(107,193,75)" stroke="rgb(85,154,60)" stroke-width="1" opacity="0.75" />
			</g>
			<g>
				<title>CarboxypepD_reg (PF13620)
"Carboxypeptidase regulatory-like domain"</title>
				<polygon class="PF13620" points="328,36 336,28 336,28 336,52 336,52 328,44" stroke-linejoin="round" width="8" height="24" fill="rgb(107,193,75)" stroke="rgb(85,154,60)" stroke-width="1" opacity="0.75" />
			</g>
			<g>
				<title>CarboxypepD_reg (PF13620)
"Carboxypeptidase regulatory-like domain"</title>
				<rect class="PF13620" x="337" y="28" stroke-linejoin="round" width="7" height="24" fill="rgb(107,193,75)" stroke="rgb(85,154,60)" stroke-width="1" opacity="0.75" />
			</g>
			<g>
				<title>MFS_1 (PF07690)
"Major Facilitator Superfamily"</title>
				<rect class="PF07690" x="356" y="28" stroke-linejoin="round" width="39" height="24" fill="rgb(228,207,98)" stroke="rgb(182,165,78)" stroke-width="1" opacity="0.75" />
			</g>
		</g>
		<g>
			<title>kanY
KanY</title>
			<polygon class="kanY
KanY" points="408,40 422,10 422,70" fill="rgb(255,255,255)" fill-opacity="1.0" stroke="rgb(0,0,0)" stroke-width="2"  />
			<g>
				<title>Polyketide_cyc2 (PF10604)
"Polyketide cyclase / dehydrase and lipid transport"</title>
				<polygon class="PF10604" points="411,40 417,28 422,28 422,52 417,52" stroke-linejoin="round" width="14" height="24" fill="rgb(170,214,69)" stroke="rgb(136,171,55)" stroke-width="1" opacity="0.75" />
			</g>
		</g>
		<g>
			<title>kanX
putative integral membrane kanamycin efflux protein</title>
			<polygon class="kanX
putative integral membrane kanamycin efflux protein" points="469,25 457,25 457,10 427,40 457,70 457,55 469,55" fill="rgb(255,255,255)" fill-opacity="1.0" stroke="rgb(0,0,0)" stroke-width="2"  />
			<g>
				<title>CitMHS (PF03600)
"Citrate transporter"</title>
				<polygon class="PF03600" points="431,40 443,28 467,28 467,52 443,52 431,40" stroke-linejoin="round" width="36" height="24" fill="rgb(82,186,185)" stroke="rgb(65,148,147)" stroke-width="1" opacity="0.75" />
			</g>
		</g>
		<g>
			<title>kanW
possible kanamycin biosynthetic protein</title>
			<polygon class="kanW
possible kanamycin biosynthetic protein" points="471,40 477,10 477,70" fill="rgb(255,255,255)" fill-opacity="1.0" stroke="rgb(0,0,0)" stroke-width="2"  />
			<g>
				<title>MT0933_antitox (PF14013)
"MT0933-like antitoxin protein"</title>
				<polygon class="PF14013" points="474,40 476,31 476,49" stroke-linejoin="round" width="4" height="24" fill="rgb(130,226,70)" stroke="rgb(104,180,56)" stroke-width="1" opacity="0.75" />
			</g>
		</g>
		<g>
			<title>kanA
kanamycin 6'-acetyltransferase</title>
			<polygon class="kanA
kanamycin 6'-acetyltransferase" points="478,10 495,40 478,70" fill="rgb(255,255,255)" fill-opacity="1.0" stroke="rgb(0,0,0)" stroke-width="2"  />
			<g>
				<title>Acetyltransf_1 (PF00583)
"Acetyltransferase (GNAT) family"</title>
				<polygon class="PF00583" points="481,28 485,28 492,40 492,40 485,52 481,52" stroke-linejoin="round" width="11" height="24" fill="rgb(91,221,217)" stroke="rgb(72,176,173)" stroke-width="1" opacity="0.75" />
			</g>
		</g>
		<g>
			<title>kanG
KanG</title>
			<polygon class="kanG
KanG" points="535,25 528,25 528,10 498,40 528,70 528,55 535,55" fill="rgb(255,255,255)" fill-opacity="1.0" stroke="rgb(0,0,0)" stroke-width="2"  />
			<g>
				<title>DUF6545 (PF20182)
"Family of unknown function (DUF6545)"</title>
				<polygon class="PF20182" points="502,40 514,28 514,28 514,52 514,52" stroke-linejoin="round" width="14" height="24" fill="rgb(91,148,209)" stroke="rgb(72,118,167)" stroke-width="1" opacity="0.75" />
			</g>
		</g>
		<g>
			<title>kanH
KanH</title>
			<polygon class="kanH
KanH" points="537,40 556,10 556,70" fill="rgb(255,255,255)" fill-opacity="1.0" stroke="rgb(0,0,0)" stroke-width="2"  />
		</g>
		<g>
			<title>kanI
KanI</title>
			<polygon class="kanI
KanI" points="559,40 575,10 575,70" fill="rgb(255,255,255)" fill-opacity="1.0" stroke="rgb(0,0,0)" stroke-width="2"  />
		</g>
		<g>
			<title>kanR
putative regulator of gene expression</title>
			<polygon class="kanR
putative regulator of gene expression" points="589,25 596,25 596,10 626,40 596,70 596,55 589,55" fill="rgb(255,255,255)" fill-opacity="1.0" stroke="rgb(0,0,0)" stroke-width="2"  />
		</g>
		<g>
			<title>kanE
3-amino-2,3-dideoxy-scyllo-inositol 1-dehydrogenase</title>
			<polygon class="kanE
3-amino-2,3-dideoxy-scyllo-inositol 1-dehydrogenase" points="629,25 633,25 633,10 663,40 633,70 633,55 629,55" fill="rgb(255,255,255)" fill-opacity="1.0" stroke="rgb(0,0,0)" stroke-width="2"  />
			<g>
				<title>ADH_N (PF08240)
"Alcohol dehydrogenase GroES-like domain"</title>
				<rect class="PF08240" x="631" y="28" stroke-linejoin="round" width="10" height="24" fill="rgb(217,198,105)" stroke="rgb(173,158,84)" stroke-width="1" opacity="0.75" />
			</g>
			<g>
				<title>ADH_zinc_N (PF00107)
"Zinc-binding dehydrogenase"</title>
				<polygon class="PF00107" points="646,28 647,28 658,39 658,41 647,52 646,52" stroke-linejoin="round" width="12" height="24" fill="rgb(79,114,198)" stroke="rgb(63,91,158)" stroke-width="1" opacity="0.75" />
			</g>
		</g>
		<g>
			<title>kanT
putative kanamycin export protein</title>
			<polygon class="kanT
putative kanamycin export protein" points="667,25 678,25 678,10 708,40 678,70 678,55 667,55" fill="rgb(255,255,255)" fill-opacity="1.0" stroke="rgb(0,0,0)" stroke-width="2"  />
			<g>
				<title>MFS_1 (PF07690)
"Major Facilitator Superfamily"</title>
				<polygon class="PF07690" points="668,28 692,28 701,37 701,43 692,52 668,52" stroke-linejoin="round" width="33" height="24" fill="rgb(228,207,98)" stroke="rgb(182,165,78)" stroke-width="1" opacity="0.75" />
			</g>
		</g>
		<g>
			<title>kanB
pyridoxalphosphate-dependent aminotransferase class III</title>
			<polygon class="kanB
pyridoxalphosphate-dependent aminotransferase class III" points="708,25 717,25 717,10 747,40 717,70 717,55 708,55" fill="rgb(255,255,255)" fill-opacity="1.0" stroke="rgb(0,0,0)" stroke-width="2"  />
			<g>
				<title>Aminotran_3 (PF00202)
"Aminotransferase class-III"</title>
				<polygon class="PF00202" points="710,28 731,28 743,40 731,52 710,52" stroke-linejoin="round" width="36" height="24" fill="rgb(182,63,213)" stroke="rgb(145,50,170)" stroke-width="1" opacity="0.75" />
			</g>
		</g>
		<g>
			<title>kanQ
oxidoreductase; putative kanamycin 6'-dehydrogenase</title>
			<polygon class="kanQ
oxidoreductase; putative kanamycin 6'-dehydrogenase" points="748,25 768,25 768,10 798,40 768,70 768,55 748,55" fill="rgb(255,255,255)" fill-opacity="1.0" stroke="rgb(0,0,0)" stroke-width="2"  />
			<g>
				<title>NAD_binding_8 (PF13450)
"NAD(P)-binding Rossmann-like domain"</title>
				<rect class="PF13450" x="749" y="28" stroke-linejoin="round" width="4" height="24" fill="rgb(218,105,93)" stroke="rgb(174,84,74)" stroke-width="1" opacity="0.75" />
			</g>
			<g>
				<title>GMC_oxred_C (PF05199)
"GMC oxidoreductase"</title>
				<polygon class="PF05199" points="786,32 794,40 786,48" stroke-linejoin="round" width="12" height="24" fill="rgb(206,67,222)" stroke="rgb(164,53,177)" stroke-width="1" opacity="0.75" />
			</g>
		</g>
		<g>
			<title>kanS1
L-glutamine:2-deoxy-ketocyclitol aminotransferase</title>
			<polygon class="kanS1
L-glutamine:2-deoxy-ketocyclitol aminotransferase" points="803,25 815,25 815,10 845,40 815,70 815,55 803,55" fill="rgb(255,255,255)" fill-opacity="1.0" stroke="rgb(0,0,0)" stroke-width="2"  />
			<g>
				<title>DegT_DnrJ_EryC1 (PF01041)
"DegT/DnrJ/EryC1/StrS aminotransferase family"</title>
				<polygon class="PF01041" points="805,28 829,28 841,40 829,52 805,52" stroke-linejoin="round" width="37" height="24" fill="rgb(228,110,183)" stroke="rgb(182,88,146)" stroke-width="1" opacity="0.75" />
			</g>
		</g>
		<g>
			<title>kanC
2-deoxy scyllo-inosose synthase</title>
			<polygon class="kanC
2-deoxy scyllo-inosose synthase" points="847,25 856,25 856,10 886,40 856,70 856,55 847,55" fill="rgb(255,255,255)" fill-opacity="1.0" stroke="rgb(0,0,0)" stroke-width="2"  />
			<g>
				<title>DHQ_synthase (PF01761)
"3-dehydroquinate synthase"</title>
				<polygon class="PF01761" points="853,28 869,28 878,37 878,43 869,52 853,52" stroke-linejoin="round" width="25" height="24" fill="rgb(71,149,225)" stroke="rgb(56,119,180)" stroke-width="1" opacity="0.75" />
			</g>
		</g>
		<g>
			<title>kanD2
oxidoreductase</title>
			<polygon class="kanD2
oxidoreductase" points="886,25 893,25 893,10 923,40 893,70 893,55 886,55" fill="rgb(255,255,255)" fill-opacity="1.0" stroke="rgb(0,0,0)" stroke-width="2"  />
			<g>
				<title>GFO_IDH_MocA (PF01408)
"Oxidoreductase family, NAD-binding Rossmann fold"</title>
				<rect class="PF01408" x="886" y="28" stroke-linejoin="round" width="11" height="24" fill="rgb(53,193,178)" stroke="rgb(42,154,142)" stroke-width="1" opacity="0.75" />
			</g>
			<g>
				<title>GFO_IDH_MocA_C (PF02894)
"Oxidoreductase family, C-terminal alpha/beta domain"</title>
				<polygon class="PF02894" points="899,28 906,28 918,40 906,52 899,52" stroke-linejoin="round" width="21" height="24" fill="rgb(89,185,176)" stroke="rgb(71,148,140)" stroke-width="1" opacity="0.75" />
			</g>
		</g>
		<g>
			<title>kanM2
putative paromamine 6-glucosyltransferase</title>
			<polygon class="kanM2
putative paromamine 6-glucosyltransferase" points="931,25 939,25 939,10 969,40 939,70 939,55 931,55" fill="rgb(255,255,255)" fill-opacity="1.0" stroke="rgb(0,0,0)" stroke-width="2"  />
			<g>
				<title>Glyco_trans_4_4 (PF13579)
"Glycosyl transferase 4-like domain"</title>
				<rect class="PF13579" x="931" y="28" stroke-linejoin="round" width="18" height="24" fill="rgb(109,95,198)" stroke="rgb(87,76,158)" stroke-width="1" opacity="0.75" />
			</g>
			<g>
				<title>Glycos_transf_1 (PF00534)
"Glycosyl transferases group 1"</title>
				<polygon class="PF00534" points="950,28 953,28 965,40 953,52 950,52" stroke-linejoin="round" width="16" height="24" fill="rgb(66,178,218)" stroke="rgb(52,142,174)" stroke-width="1" opacity="0.75" />
			</g>
		</g>
		<g>
			<title>kanN
KanN</title>
			<polygon class="kanN
KanN" points="970,10 995,40 970,70" fill="rgb(255,255,255)" fill-opacity="1.0" stroke="rgb(0,0,0)" stroke-width="2"  />
			<g>
				<title>PIG-L (PF02585)
"GlcNAc-PI de-N-acetylase"</title>
				<polygon class="PF02585" points="970,28 981,28 984,32 984,48 981,52 970,52" stroke-linejoin="round" width="14" height="24" fill="rgb(208,183,97)" stroke="rgb(166,146,77)" stroke-width="1" opacity="0.75" />
			</g>
		</g>
		<g>
			<title>kanS2
putative pyridoxalphosphate-dependent aminotransferase class IV</title>
			<polygon class="kanS2
putative pyridoxalphosphate-dependent aminotransferase class IV" points="995,25 1007,25 1007,10 1037,40 1007,70 1007,55 995,55" fill="rgb(255,255,255)" fill-opacity="1.0" stroke="rgb(0,0,0)" stroke-width="2"  />
			<g>
				<title>DegT_DnrJ_EryC1 (PF01041)
"DegT/DnrJ/EryC1/StrS aminotransferase family"</title>
				<polygon class="PF01041" points="997,28 1020,28 1032,40 1020,52 997,52" stroke-linejoin="round" width="36" height="24" fill="rgb(228,110,183)" stroke="rgb(182,88,146)" stroke-width="1" opacity="0.75" />
			</g>
		</g>
		<g>
			<title>kanJ
putative kanamycin biosynthetic protein</title>
			<polygon class="kanJ
putative kanamycin biosynthetic protein" points="1042,10 1070,40 1042,70" fill="rgb(255,255,255)" fill-opacity="1.0" stroke="rgb(0,0,0)" stroke-width="2"  />
			<g>
				<title>PhyH (PF05721)
"Phytanoyl-CoA dioxygenase (PhyH)"</title>
				<polygon class="PF05721" points="1045,28 1054,28 1064,38 1064,42 1054,52 1045,52" stroke-linejoin="round" width="19" height="24" fill="rgb(186,53,95)" stroke="rgb(148,42,76)" stroke-width="1" opacity="0.75" />
			</g>
		</g>
		<g>
			<title>kanK
putative (NDP-)sugar oxidoreductase</title>
			<polygon class="kanK
putative (NDP-)sugar oxidoreductase" points="1075,25 1076,25 1076,10 1106,40 1076,70 1076,55 1075,55" fill="rgb(255,255,255)" fill-opacity="1.0" stroke="rgb(0,0,0)" stroke-width="2"  />
			<g>
				<title>Epimerase (PF01370)
"NAD dependent epimerase/dehydratase family"</title>
				<polygon class="PF01370" points="1075,28 1090,28 1094,32 1094,48 1090,52 1075,52" stroke-linejoin="round" width="19" height="24" fill="rgb(215,89,157)" stroke="rgb(172,71,125)" stroke-width="1" opacity="0.75" />
			</g>
		</g>
		<g>
			<title>kmr
16S rRNA methyltransferasease</title>
			<polygon class="kmr
16S rRNA methyltransferasease" points="1111,10 1138,40 1111,70" fill="rgb(255,255,255)" fill-opacity="1.0" stroke="rgb(0,0,0)" stroke-width="2"  />
			<g>
				<title>FmrO (PF07091)
"Ribosomal RNA methyltransferase (FmrO)"</title>
				<polygon class="PF07091" points="1113,28 1123,28 1134,40 1123,52 1113,52" stroke-linejoin="round" width="25" height="24" fill="rgb(207,99,96)" stroke="rgb(165,79,76)" stroke-width="1" opacity="0.75" />
			</g>
		</g>
		<g>
			<title>kanM1
putative 2-deoxystreptamine 4-(N-acetyl-)glucosaminyltransferase</title>
			<polygon class="kanM1
putative 2-deoxystreptamine 4-(N-acetyl-)glucosaminyltransferase" points="1142,25 1153,25 1153,10 1183,40 1153,70 1153,55 1142,55" fill="rgb(255,255,255)" fill-opacity="1.0" stroke="rgb(0,0,0)" stroke-width="2"  />
			<g>
				<title>Glyco_trans_4_4 (PF13579)
"Glycosyl transferase 4-like domain"</title>
				<rect class="PF13579" x="1144" y="28" stroke-linejoin="round" width="17" height="24" fill="rgb(109,95,198)" stroke="rgb(87,76,158)" stroke-width="1" opacity="0.75" />
			</g>
			<g>
				<title>Glycos_transf_1 (PF00534)
"Glycosyl transferases group 1"</title>
				<polygon class="PF00534" points="1163,28 1167,28 1179,40 1179,40 1167,52 1163,52" stroke-linejoin="round" width="16" height="24" fill="rgb(66,178,218)" stroke="rgb(52,142,174)" stroke-width="1" opacity="0.75" />
			</g>
		</g>
		<g>
			<title>kanL
putative kanamycin biosynthetic protein</title>
			<polygon class="kanL
putative kanamycin biosynthetic protein" points="1185,25 1188,25 1188,10 1218,40 1188,70 1188,55 1185,55" fill="rgb(255,255,255)" fill-opacity="1.0" stroke="rgb(0,0,0)" stroke-width="2"  />
			<g>
				<title>RsgA_GTPase (PF03193)
"RsgA GTPase"</title>
				<polygon class="PF03193" points="1194,28 1202,28 1210,36 1210,44 1202,52 1194,52" stroke-linejoin="round" width="16" height="24" fill="rgb(65,221,59)" stroke="rgb(51,176,47)" stroke-width="1" opacity="0.75" />
			</g>
		</g>
		<g>
			<title>kanO
putative kanamycin biosynthetic protein</title>
			<polygon class="kanO
putative kanamycin biosynthetic protein" points="1220,10 1233,40 1220,70" fill="rgb(255,255,255)" fill-opacity="1.0" stroke="rgb(0,0,0)" stroke-width="2"  />
			<g>
				<title>Ribonuc_L-PSP (PF01042)
"Endoribonuclease L-PSP"</title>
				<polygon class="PF01042" points="1220,28 1224,28 1230,40 1224,52 1220,52" stroke-linejoin="round" width="12" height="24" fill="rgb(184,70,155)" stroke="rgb(147,56,124)" stroke-width="1" opacity="0.75" />
			</g>
		</g>
		<g>
			<title>kanP
putative kanamycin biosynthetic protein</title>
			<polygon class="kanP
putative kanamycin biosynthetic protein" points="1234,40 1256,10 1256,70" fill="rgb(255,255,255)" fill-opacity="1.0" stroke="rgb(0,0,0)" stroke-width="2"  />
		</g>
		<g>
			<title>kanD3
putative dehydrogenase</title>
			<polygon class="kanD3
putative dehydrogenase" points="1265,25 1294,25 1294,10 1324,40 1294,70 1294,55 1265,55" fill="rgb(255,255,255)" fill-opacity="1.0" stroke="rgb(0,0,0)" stroke-width="2"  />
			<g>
				<title>3HCDH_N (PF02737)
"3-hydroxyacyl-CoA dehydrogenase, NAD binding domain"</title>
				<rect class="PF02737" x="1265" y="28" stroke-linejoin="round" width="17" height="24" fill="rgb(207,58,199)" stroke="rgb(165,46,159)" stroke-width="1" opacity="0.75" />
			</g>
			<g>
				<title>3HCDH (PF00725)
"3-hydroxyacyl-CoA dehydrogenase, C-terminal domain"</title>
				<rect class="PF00725" x="1283" y="28" stroke-linejoin="round" width="9" height="24" fill="rgb(176,205,94)" stroke="rgb(140,164,75)" stroke-width="1" opacity="0.75" />
			</g>
			<g>
				<title>3HCDH_N (PF02737)
"3-hydroxyacyl-CoA dehydrogenase, NAD binding domain"</title>
				<polygon class="PF02737" points="1296,28 1308,28 1313,33 1313,47 1308,52 1296,52" stroke-linejoin="round" width="17" height="24" fill="rgb(207,58,199)" stroke="rgb(165,46,159)" stroke-width="1" opacity="0.75" />
			</g>
			<g>
				<title>3HCDH (PF00725)
"3-hydroxyacyl-CoA dehydrogenase, C-terminal domain"</title>
				<polygon class="PF00725" points="1314,34 1320,40 1314,46" stroke-linejoin="round" width="9" height="24" fill="rgb(176,205,94)" stroke="rgb(140,164,75)" stroke-width="1" opacity="0.75" />
			</g>
		</g>
		<g>
			<title>kanU
putative regulatory protein</title>
			<polygon class="kanU
putative regulatory protein" points="1328,10 1355,40 1328,70" fill="rgb(255,255,255)" fill-opacity="1.0" stroke="rgb(0,0,0)" stroke-width="2"  />
			<g>
				<title>TetR_N (PF00440)
"Bacterial regulatory proteins, tetR family"</title>
				<rect class="PF00440" x="1331" y="28" stroke-linejoin="round" width="4" height="24" fill="rgb(148,50,185)" stroke="rgb(118,40,148)" stroke-width="1" opacity="0.75" />
			</g>
		</g>
		<g>
			<title>
putative crotony-CoA reductase</title>
			<polygon class="
putative crotony-CoA reductase" points="1368,10 1395,40 1368,70" fill="rgb(255,255,255)" fill-opacity="1.0" stroke="rgb(0,0,0)" stroke-width="2"  />
			<g>
				<title>ADH_N (PF08240)
"Alcohol dehydrogenase GroES-like domain"</title>
				<polygon class="PF08240" points="1374,28 1379,28 1386,35 1386,45 1379,52 1374,52" stroke-linejoin="round" width="12" height="24" fill="rgb(217,198,105)" stroke="rgb(173,158,84)" stroke-width="1" opacity="0.75" />
			</g>
		</g>
	</g>
</svg>
