<svg version="1.1" baseProfile="full" xmlns="http://www.w3.org/2000/svg" width="2848.9333333333334" height="80">
	<g>
		<line x1="10" y1="40.0" x2="2838.9333333333334" y2="40.0" style="stroke:rgb(70,70,70); stroke-width:3 "/>
		<g>
			<title>
metabolite MFS transporter</title>
			<polygon class="
metabolite MFS transporter" points="65,25 46,25 46,10 16,40 46,70 46,55 65,55" fill="rgb(255,255,255)" fill-opacity="1.0" stroke="rgb(0,0,0)" stroke-width="2"  />
			<g>
				<title>Sugar_tr (PF00083)
"Sugar (and other) transporter"</title>
				<rect class="PF00083" x="36" y="28" stroke-linejoin="round" width="22" height="24" fill="rgb(186,204,56)" stroke="rgb(148,163,44)" stroke-width="1" opacity="0.75" />
			</g>
		</g>
		<g>
			<title>
putative regulatory protein</title>
			<polygon class="
putative regulatory protein" points="124,25 106,25 106,10 76,40 106,70 106,55 124,55" fill="rgb(255,255,255)" fill-opacity="1.0" stroke="rgb(0,0,0)" stroke-width="2"  />
			<g>
				<title>Sigma54_activat (PF00158)
"Sigma-54 interaction domain"</title>
				<polygon class="PF00158" points="90,30 92,28 106,28 106,52 92,52 90,50" stroke-linejoin="round" width="16" height="24" fill="rgb(214,75,92)" stroke="rgb(171,60,73)" stroke-width="1" opacity="0.75" />
			</g>
			<g>
				<title>Response_reg (PF00072)
"Response regulator receiver domain"</title>
				<rect class="PF00072" x="113" y="28" stroke-linejoin="round" width="10" height="24" fill="rgb(59,131,198)" stroke="rgb(47,104,158)" stroke-width="1" opacity="0.75" />
			</g>
		</g>
		<g>
			<title>
hypothetical protein</title>
			<polygon class="
hypothetical protein" points="129,25 164,25 164,10 194,40 164,70 164,55 129,55" fill="rgb(255,255,255)" fill-opacity="1.0" stroke="rgb(0,0,0)" stroke-width="2"  />
		</g>
		<g>
			<title>
hypothetical protein</title>
			<polygon class="
hypothetical protein" points="251,25 230,25 230,10 200,40 230,70 230,55 251,55" fill="rgb(255,255,255)" fill-opacity="1.0" stroke="rgb(0,0,0)" stroke-width="2"  />
		</g>
		<g>
			<title>
putative regulatory protein</title>
			<polygon class="
putative regulatory protein" points="307,25 292,25 292,10 262,40 292,70 292,55 307,55" fill="rgb(255,255,255)" fill-opacity="1.0" stroke="rgb(0,0,0)" stroke-width="2"  />
			<g>
				<title>Sigma54_activat (PF00158)
"Sigma-54 interaction domain"</title>
				<polygon class="PF00158" points="276,30 278,28 292,28 292,52 278,52 276,50" stroke-linejoin="round" width="16" height="24" fill="rgb(214,75,92)" stroke="rgb(171,60,73)" stroke-width="1" opacity="0.75" />
			</g>
			<g>
				<title>Response_reg (PF00072)
"Response regulator receiver domain"</title>
				<rect class="PF00072" x="296" y="28" stroke-linejoin="round" width="10" height="24" fill="rgb(59,131,198)" stroke="rgb(47,104,158)" stroke-width="1" opacity="0.75" />
			</g>
		</g>
		<g>
			<title>
putative sensory box histidine kinase</title>
			<polygon class="
putative sensory box histidine kinase" points="407,25 337,25 337,10 307,40 337,70 337,55 407,55" fill="rgb(255,255,255)" fill-opacity="1.0" stroke="rgb(0,0,0)" stroke-width="2"  />
			<g>
				<title>HATPase_c (PF02518)
"Histidine kinase-, DNA gyrase B-, and HSP90-like ATPase"</title>
				<polygon class="PF02518" points="311,40 318,33 318,47" stroke-linejoin="round" width="10" height="24" fill="rgb(94,146,210)" stroke="rgb(75,116,168)" stroke-width="1" opacity="0.75" />
			</g>
			<g>
				<title>HisKA (PF00512)
"His Kinase A (phospho-acceptor) domain"</title>
				<rect class="PF00512" x="324" y="28" stroke-linejoin="round" width="6" height="24" fill="rgb(57,81,199)" stroke="rgb(45,64,159)" stroke-width="1" opacity="0.75" />
			</g>
			<g>
				<title>PAS_4 (PF08448)
"PAS fold"</title>
				<rect class="PF08448" x="331" y="28" stroke-linejoin="round" width="11" height="24" fill="rgb(133,67,228)" stroke="rgb(106,53,182)" stroke-width="1" opacity="0.75" />
			</g>
		</g>
		<g>
			<title>
putative macrolide kinase</title>
			<polygon class="
putative macrolide kinase" points="455,25 453,25 453,10 423,40 453,70 453,55 455,55" fill="rgb(255,255,255)" fill-opacity="1.0" stroke="rgb(0,0,0)" stroke-width="2"  />
			<g>
				<title>APH (PF01636)
"Phosphotransferase enzyme family"</title>
				<polygon class="PF01636" points="427,40 439,28 451,28 451,52 439,52 427,40" stroke-linejoin="round" width="24" height="24" fill="rgb(113,205,78)" stroke="rgb(90,164,62)" stroke-width="1" opacity="0.75" />
			</g>
		</g>
		<g>
			<title>
putative Ser/Thr protein kinase</title>
			<polygon class="
putative Ser/Thr protein kinase" points="455,25 468,25 468,10 498,40 468,70 468,55 455,55" fill="rgb(255,255,255)" fill-opacity="1.0" stroke="rgb(0,0,0)" stroke-width="2"  />
			<g>
				<title>Pkinase (PF00069)
"Protein kinase domain"</title>
				<polygon class="PF00069" points="468,28 481,28 493,40 481,52 468,52" stroke-linejoin="round" width="26" height="24" fill="rgb(93,191,206)" stroke="rgb(74,152,164)" stroke-width="1" opacity="0.75" />
			</g>
		</g>
		<g>
			<title>dszA
DszA</title>
			<polygon class="dszA
DszA" points="534,25 1105,25 1105,10 1135,40 1105,70 1105,55 534,55" fill="rgb(255,255,255)" fill-opacity="1.0" stroke="rgb(0,0,0)" stroke-width="2"  />
			<g>
				<title>ketoacyl-synt (PF00109)
"Beta-ketoacyl synthase, N-terminal domain"</title>
				<rect class="PF00109" x="534" y="28" stroke-linejoin="round" width="24" height="24" fill="rgb(74,179,82)" stroke="rgb(59,143,65)" stroke-width="1" opacity="0.75" />
			</g>
			<g>
				<title>Ketoacyl-synt_C (PF02801)
"Beta-ketoacyl synthase, C-terminal domain"</title>
				<rect class="PF02801" x="560" y="28" stroke-linejoin="round" width="11" height="24" fill="rgb(212,79,72)" stroke="rgb(169,63,57)" stroke-width="1" opacity="0.75" />
			</g>
			<g>
				<title>KAsynt_C_assoc (PF16197)
"Ketoacyl-synthetase C-terminal extension"</title>
				<rect class="PF16197" x="572" y="28" stroke-linejoin="round" width="7" height="24" fill="rgb(200,86,70)" stroke="rgb(160,68,56)" stroke-width="1" opacity="0.75" />
			</g>
			<g>
				<title>PKS_DH_N (PF21089)
"Polyketide synthase dehydratase domain"</title>
				<rect class="PF21089" x="634" y="28" stroke-linejoin="round" width="7" height="24" fill="rgb(67,151,200)" stroke="rgb(53,120,160)" stroke-width="1" opacity="0.75" />
			</g>
			<g>
				<title>PS-DH (PF14765)
"Polyketide synthase dehydratase N-terminal domain"</title>
				<rect class="PF14765" x="643" y="28" stroke-linejoin="round" width="15" height="24" fill="rgb(189,61,178)" stroke="rgb(151,48,142)" stroke-width="1" opacity="0.75" />
			</g>
			<g>
				<title>KR (PF08659)
"KR domain"</title>
				<rect class="PF08659" x="686" y="28" stroke-linejoin="round" width="18" height="24" fill="rgb(203,145,81)" stroke="rgb(162,116,64)" stroke-width="1" opacity="0.75" />
			</g>
			<g>
				<title>PP-binding (PF00550)
"Phosphopantetheine attachment site"</title>
				<rect class="PF00550" x="716" y="28" stroke-linejoin="round" width="6" height="24" fill="rgb(181,58,166)" stroke="rgb(144,46,132)" stroke-width="1" opacity="0.75" />
			</g>
			<g>
				<title>ketoacyl-synt (PF00109)
"Beta-ketoacyl synthase, N-terminal domain"</title>
				<rect class="PF00109" x="731" y="28" stroke-linejoin="round" width="24" height="24" fill="rgb(74,179,82)" stroke="rgb(59,143,65)" stroke-width="1" opacity="0.75" />
			</g>
			<g>
				<title>Ketoacyl-synt_C (PF02801)
"Beta-ketoacyl synthase, C-terminal domain"</title>
				<rect class="PF02801" x="756" y="28" stroke-linejoin="round" width="11" height="24" fill="rgb(212,79,72)" stroke="rgb(169,63,57)" stroke-width="1" opacity="0.75" />
			</g>
			<g>
				<title>KAsynt_C_assoc (PF16197)
"Ketoacyl-synthetase C-terminal extension"</title>
				<rect class="PF16197" x="768" y="28" stroke-linejoin="round" width="11" height="24" fill="rgb(200,86,70)" stroke="rgb(160,68,56)" stroke-width="1" opacity="0.75" />
			</g>
			<g>
				<title>KR (PF08659)
"KR domain"</title>
				<rect class="PF08659" x="819" y="28" stroke-linejoin="round" width="17" height="24" fill="rgb(203,145,81)" stroke="rgb(162,116,64)" stroke-width="1" opacity="0.75" />
			</g>
			<g>
				<title>Methyltransf_12 (PF08242)
"Methyltransferase domain"</title>
				<rect class="PF08242" x="864" y="28" stroke-linejoin="round" width="10" height="24" fill="rgb(78,210,205)" stroke="rgb(62,168,164)" stroke-width="1" opacity="0.75" />
			</g>
			<g>
				<title>PP-binding (PF00550)
"Phosphopantetheine attachment site"</title>
				<rect class="PF00550" x="888" y="28" stroke-linejoin="round" width="6" height="24" fill="rgb(181,58,166)" stroke="rgb(144,46,132)" stroke-width="1" opacity="0.75" />
			</g>
			<g>
				<title>PP-binding (PF00550)
"Phosphopantetheine attachment site"</title>
				<rect class="PF00550" x="901" y="28" stroke-linejoin="round" width="6" height="24" fill="rgb(181,58,166)" stroke="rgb(144,46,132)" stroke-width="1" opacity="0.75" />
			</g>
			<g>
				<title>ketoacyl-synt (PF00109)
"Beta-ketoacyl synthase, N-terminal domain"</title>
				<rect class="PF00109" x="911" y="28" stroke-linejoin="round" width="24" height="24" fill="rgb(74,179,82)" stroke="rgb(59,143,65)" stroke-width="1" opacity="0.75" />
			</g>
			<g>
				<title>Ketoacyl-synt_C (PF02801)
"Beta-ketoacyl synthase, C-terminal domain"</title>
				<rect class="PF02801" x="937" y="28" stroke-linejoin="round" width="11" height="24" fill="rgb(212,79,72)" stroke="rgb(169,63,57)" stroke-width="1" opacity="0.75" />
			</g>
			<g>
				<title>KAsynt_C_assoc (PF16197)
"Ketoacyl-synthetase C-terminal extension"</title>
				<rect class="PF16197" x="949" y="28" stroke-linejoin="round" width="11" height="24" fill="rgb(200,86,70)" stroke="rgb(160,68,56)" stroke-width="1" opacity="0.75" />
			</g>
			<g>
				<title>Beta-ketacyl_N (PF21394)
"Beta-ketoacyl synthase-like, N-terminal"</title>
				<rect class="PF21394" x="978" y="28" stroke-linejoin="round" width="16" height="24" fill="rgb(199,58,86)" stroke="rgb(159,46,68)" stroke-width="1" opacity="0.75" />
			</g>
			<g>
				<title>KR (PF08659)
"KR domain"</title>
				<rect class="PF08659" x="998" y="28" stroke-linejoin="round" width="18" height="24" fill="rgb(203,145,81)" stroke="rgb(162,116,64)" stroke-width="1" opacity="0.75" />
			</g>
			<g>
				<title>PP-binding (PF00550)
"Phosphopantetheine attachment site"</title>
				<rect class="PF00550" x="1026" y="28" stroke-linejoin="round" width="6" height="24" fill="rgb(181,58,166)" stroke="rgb(144,46,132)" stroke-width="1" opacity="0.75" />
			</g>
			<g>
				<title>ketoacyl-synt (PF00109)
"Beta-ketoacyl synthase, N-terminal domain"</title>
				<rect class="PF00109" x="1039" y="28" stroke-linejoin="round" width="24" height="24" fill="rgb(74,179,82)" stroke="rgb(59,143,65)" stroke-width="1" opacity="0.75" />
			</g>
			<g>
				<title>Ketoacyl-synt_C (PF02801)
"Beta-ketoacyl synthase, C-terminal domain"</title>
				<rect class="PF02801" x="1065" y="28" stroke-linejoin="round" width="12" height="24" fill="rgb(212,79,72)" stroke="rgb(169,63,57)" stroke-width="1" opacity="0.75" />
			</g>
			<g>
				<title>KAsynt_C_assoc (PF16197)
"Ketoacyl-synthetase C-terminal extension"</title>
				<rect class="PF16197" x="1077" y="28" stroke-linejoin="round" width="11" height="24" fill="rgb(200,86,70)" stroke="rgb(160,68,56)" stroke-width="1" opacity="0.75" />
			</g>
			<g>
				<title>PKS_DH_N (PF21089)
"Polyketide synthase dehydratase domain"</title>
				<rect class="PF21089" x="1104" y="28" stroke-linejoin="round" width="9" height="24" fill="rgb(67,151,200)" stroke="rgb(53,120,160)" stroke-width="1" opacity="0.75" />
			</g>
			<g>
				<title>PS-DH (PF14765)
"Polyketide synthase dehydratase N-terminal domain"</title>
				<polygon class="PF14765" points="1116,28 1118,28 1130,40 1118,52 1116,52" stroke-linejoin="round" width="16" height="24" fill="rgb(189,61,178)" stroke="rgb(151,48,142)" stroke-width="1" opacity="0.75" />
			</g>
		</g>
		<g>
			<title>dszB
DszB</title>
			<polygon class="dszB
DszB" points="1136,25 1731,25 1731,10 1761,40 1731,70 1731,55 1136,55" fill="rgb(255,255,255)" fill-opacity="1.0" stroke="rgb(0,0,0)" stroke-width="2"  />
			<g>
				<title>Beta-ketacyl_N (PF21394)
"Beta-ketoacyl synthase-like, N-terminal"</title>
				<rect class="PF21394" x="1137" y="28" stroke-linejoin="round" width="17" height="24" fill="rgb(199,58,86)" stroke="rgb(159,46,68)" stroke-width="1" opacity="0.75" />
			</g>
			<g>
				<title>KR (PF08659)
"KR domain"</title>
				<rect class="PF08659" x="1159" y="28" stroke-linejoin="round" width="18" height="24" fill="rgb(203,145,81)" stroke="rgb(162,116,64)" stroke-width="1" opacity="0.75" />
			</g>
			<g>
				<title>PP-binding (PF00550)
"Phosphopantetheine attachment site"</title>
				<rect class="PF00550" x="1191" y="28" stroke-linejoin="round" width="6" height="24" fill="rgb(181,58,166)" stroke="rgb(144,46,132)" stroke-width="1" opacity="0.75" />
			</g>
			<g>
				<title>ketoacyl-synt (PF00109)
"Beta-ketoacyl synthase, N-terminal domain"</title>
				<rect class="PF00109" x="1203" y="28" stroke-linejoin="round" width="26" height="24" fill="rgb(74,179,82)" stroke="rgb(59,143,65)" stroke-width="1" opacity="0.75" />
			</g>
			<g>
				<title>Ketoacyl-synt_C (PF02801)
"Beta-ketoacyl synthase, C-terminal domain"</title>
				<rect class="PF02801" x="1230" y="28" stroke-linejoin="round" width="11" height="24" fill="rgb(212,79,72)" stroke="rgb(169,63,57)" stroke-width="1" opacity="0.75" />
			</g>
			<g>
				<title>KAsynt_C_assoc (PF16197)
"Ketoacyl-synthetase C-terminal extension"</title>
				<rect class="PF16197" x="1242" y="28" stroke-linejoin="round" width="11" height="24" fill="rgb(200,86,70)" stroke="rgb(160,68,56)" stroke-width="1" opacity="0.75" />
			</g>
			<g>
				<title>PKS_DH_N (PF21089)
"Polyketide synthase dehydratase domain"</title>
				<rect class="PF21089" x="1266" y="28" stroke-linejoin="round" width="9" height="24" fill="rgb(67,151,200)" stroke="rgb(53,120,160)" stroke-width="1" opacity="0.75" />
			</g>
			<g>
				<title>PS-DH (PF14765)
"Polyketide synthase dehydratase N-terminal domain"</title>
				<rect class="PF14765" x="1278" y="28" stroke-linejoin="round" width="16" height="24" fill="rgb(189,61,178)" stroke="rgb(151,48,142)" stroke-width="1" opacity="0.75" />
			</g>
			<g>
				<title>Beta-ketacyl_N (PF21394)
"Beta-ketoacyl synthase-like, N-terminal"</title>
				<rect class="PF21394" x="1298" y="28" stroke-linejoin="round" width="16" height="24" fill="rgb(199,58,86)" stroke="rgb(159,46,68)" stroke-width="1" opacity="0.75" />
			</g>
			<g>
				<title>KR (PF08659)
"KR domain"</title>
				<rect class="PF08659" x="1319" y="28" stroke-linejoin="round" width="18" height="24" fill="rgb(203,145,81)" stroke="rgb(162,116,64)" stroke-width="1" opacity="0.75" />
			</g>
			<g>
				<title>PP-binding (PF00550)
"Phosphopantetheine attachment site"</title>
				<rect class="PF00550" x="1347" y="28" stroke-linejoin="round" width="6" height="24" fill="rgb(181,58,166)" stroke="rgb(144,46,132)" stroke-width="1" opacity="0.75" />
			</g>
			<g>
				<title>ketoacyl-synt (PF00109)
"Beta-ketoacyl synthase, N-terminal domain"</title>
				<rect class="PF00109" x="1361" y="28" stroke-linejoin="round" width="24" height="24" fill="rgb(74,179,82)" stroke="rgb(59,143,65)" stroke-width="1" opacity="0.75" />
			</g>
			<g>
				<title>Ketoacyl-synt_C (PF02801)
"Beta-ketoacyl synthase, C-terminal domain"</title>
				<rect class="PF02801" x="1387" y="28" stroke-linejoin="round" width="11" height="24" fill="rgb(212,79,72)" stroke="rgb(169,63,57)" stroke-width="1" opacity="0.75" />
			</g>
			<g>
				<title>KAsynt_C_assoc (PF16197)
"Ketoacyl-synthetase C-terminal extension"</title>
				<rect class="PF16197" x="1399" y="28" stroke-linejoin="round" width="9" height="24" fill="rgb(200,86,70)" stroke="rgb(160,68,56)" stroke-width="1" opacity="0.75" />
			</g>
			<g>
				<title>PP-binding (PF00550)
"Phosphopantetheine attachment site"</title>
				<rect class="PF00550" x="1411" y="28" stroke-linejoin="round" width="6" height="24" fill="rgb(181,58,166)" stroke="rgb(144,46,132)" stroke-width="1" opacity="0.75" />
			</g>
			<g>
				<title>PKS_DH_N (PF21089)
"Polyketide synthase dehydratase domain"</title>
				<rect class="PF21089" x="1433" y="28" stroke-linejoin="round" width="9" height="24" fill="rgb(67,151,200)" stroke="rgb(53,120,160)" stroke-width="1" opacity="0.75" />
			</g>
			<g>
				<title>PS-DH (PF14765)
"Polyketide synthase dehydratase N-terminal domain"</title>
				<rect class="PF14765" x="1445" y="28" stroke-linejoin="round" width="15" height="24" fill="rgb(189,61,178)" stroke="rgb(151,48,142)" stroke-width="1" opacity="0.75" />
			</g>
			<g>
				<title>Beta-ketacyl_N (PF21394)
"Beta-ketoacyl synthase-like, N-terminal"</title>
				<rect class="PF21394" x="1464" y="28" stroke-linejoin="round" width="16" height="24" fill="rgb(199,58,86)" stroke="rgb(159,46,68)" stroke-width="1" opacity="0.75" />
			</g>
			<g>
				<title>KR (PF08659)
"KR domain"</title>
				<rect class="PF08659" x="1485" y="28" stroke-linejoin="round" width="18" height="24" fill="rgb(203,145,81)" stroke="rgb(162,116,64)" stroke-width="1" opacity="0.75" />
			</g>
			<g>
				<title>PP-binding (PF00550)
"Phosphopantetheine attachment site"</title>
				<rect class="PF00550" x="1511" y="28" stroke-linejoin="round" width="6" height="24" fill="rgb(181,58,166)" stroke="rgb(144,46,132)" stroke-width="1" opacity="0.75" />
			</g>
			<g>
				<title>ketoacyl-synt (PF00109)
"Beta-ketoacyl synthase, N-terminal domain"</title>
				<rect class="PF00109" x="1523" y="28" stroke-linejoin="round" width="24" height="24" fill="rgb(74,179,82)" stroke="rgb(59,143,65)" stroke-width="1" opacity="0.75" />
			</g>
			<g>
				<title>Ketoacyl-synt_C (PF02801)
"Beta-ketoacyl synthase, C-terminal domain"</title>
				<rect class="PF02801" x="1549" y="28" stroke-linejoin="round" width="11" height="24" fill="rgb(212,79,72)" stroke="rgb(169,63,57)" stroke-width="1" opacity="0.75" />
			</g>
			<g>
				<title>KAsynt_C_assoc (PF16197)
"Ketoacyl-synthetase C-terminal extension"</title>
				<rect class="PF16197" x="1561" y="28" stroke-linejoin="round" width="12" height="24" fill="rgb(200,86,70)" stroke="rgb(160,68,56)" stroke-width="1" opacity="0.75" />
			</g>
			<g>
				<title>PKS_DH_N (PF21089)
"Polyketide synthase dehydratase domain"</title>
				<rect class="PF21089" x="1587" y="28" stroke-linejoin="round" width="9" height="24" fill="rgb(67,151,200)" stroke="rgb(53,120,160)" stroke-width="1" opacity="0.75" />
			</g>
			<g>
				<title>PS-DH (PF14765)
"Polyketide synthase dehydratase N-terminal domain"</title>
				<rect class="PF14765" x="1598" y="28" stroke-linejoin="round" width="16" height="24" fill="rgb(189,61,178)" stroke="rgb(151,48,142)" stroke-width="1" opacity="0.75" />
			</g>
			<g>
				<title>KR (PF08659)
"KR domain"</title>
				<rect class="PF08659" x="1640" y="28" stroke-linejoin="round" width="18" height="24" fill="rgb(203,145,81)" stroke="rgb(162,116,64)" stroke-width="1" opacity="0.75" />
			</g>
			<g>
				<title>PP-binding (PF00550)
"Phosphopantetheine attachment site"</title>
				<rect class="PF00550" x="1669" y="28" stroke-linejoin="round" width="6" height="24" fill="rgb(181,58,166)" stroke="rgb(144,46,132)" stroke-width="1" opacity="0.75" />
			</g>
			<g>
				<title>ketoacyl-synt (PF00109)
"Beta-ketoacyl synthase, N-terminal domain"</title>
				<rect class="PF00109" x="1685" y="28" stroke-linejoin="round" width="24" height="24" fill="rgb(74,179,82)" stroke="rgb(59,143,65)" stroke-width="1" opacity="0.75" />
			</g>
			<g>
				<title>Ketoacyl-synt_C (PF02801)
"Beta-ketoacyl synthase, C-terminal domain"</title>
				<rect class="PF02801" x="1711" y="28" stroke-linejoin="round" width="11" height="24" fill="rgb(212,79,72)" stroke="rgb(169,63,57)" stroke-width="1" opacity="0.75" />
			</g>
			<g>
				<title>PP-binding (PF00550)
"Phosphopantetheine attachment site"</title>
				<polygon class="PF00550" points="1748,31 1754,37 1754,43 1748,49" stroke-linejoin="round" width="6" height="24" fill="rgb(181,58,166)" stroke="rgb(144,46,132)" stroke-width="1" opacity="0.75" />
			</g>
		</g>
		<g>
			<title>dszC
DszC</title>
			<polygon class="dszC
DszC" points="1761,25 2110,25 2110,10 2140,40 2110,70 2110,55 1761,55" fill="rgb(255,255,255)" fill-opacity="1.0" stroke="rgb(0,0,0)" stroke-width="2"  />
			<g>
				<title>Condensation (PF00668)
"Condensation domain"</title>
				<rect class="PF00668" x="1767" y="28" stroke-linejoin="round" width="43" height="24" fill="rgb(172,217,60)" stroke="rgb(137,173,47)" stroke-width="1" opacity="0.75" />
			</g>
			<g>
				<title>Condensation (PF00668)
"Condensation domain"</title>
				<rect class="PF00668" x="1814" y="28" stroke-linejoin="round" width="42" height="24" fill="rgb(172,217,60)" stroke="rgb(137,173,47)" stroke-width="1" opacity="0.75" />
			</g>
			<g>
				<title>AMP-binding (PF00501)
"AMP-binding enzyme"</title>
				<rect class="PF00501" x="1860" y="28" stroke-linejoin="round" width="34" height="24" fill="rgb(189,78,204)" stroke="rgb(151,62,163)" stroke-width="1" opacity="0.75" />
			</g>
			<g>
				<title>AMP-binding_C (PF13193)
"AMP-binding enzyme C-terminal domain"</title>
				<rect class="PF13193" x="1900" y="28" stroke-linejoin="round" width="7" height="24" fill="rgb(195,82,106)" stroke="rgb(156,65,84)" stroke-width="1" opacity="0.75" />
			</g>
			<g>
				<title>PP-binding (PF00550)
"Phosphopantetheine attachment site"</title>
				<rect class="PF00550" x="1913" y="28" stroke-linejoin="round" width="6" height="24" fill="rgb(181,58,166)" stroke="rgb(144,46,132)" stroke-width="1" opacity="0.75" />
			</g>
			<g>
				<title>Nitroreductase (PF00881)
"Nitroreductase family"</title>
				<rect class="PF00881" x="1927" y="28" stroke-linejoin="round" width="17" height="24" fill="rgb(106,62,184)" stroke="rgb(84,49,147)" stroke-width="1" opacity="0.75" />
			</g>
			<g>
				<title>ketoacyl-synt (PF00109)
"Beta-ketoacyl synthase, N-terminal domain"</title>
				<rect class="PF00109" x="1949" y="28" stroke-linejoin="round" width="24" height="24" fill="rgb(74,179,82)" stroke="rgb(59,143,65)" stroke-width="1" opacity="0.75" />
			</g>
			<g>
				<title>Ketoacyl-synt_C (PF02801)
"Beta-ketoacyl synthase, C-terminal domain"</title>
				<rect class="PF02801" x="1975" y="28" stroke-linejoin="round" width="11" height="24" fill="rgb(212,79,72)" stroke="rgb(169,63,57)" stroke-width="1" opacity="0.75" />
			</g>
			<g>
				<title>PP-binding (PF00550)
"Phosphopantetheine attachment site"</title>
				<rect class="PF00550" x="2015" y="28" stroke-linejoin="round" width="6" height="24" fill="rgb(181,58,166)" stroke="rgb(144,46,132)" stroke-width="1" opacity="0.75" />
			</g>
			<g>
				<title>ketoacyl-synt (PF00109)
"Beta-ketoacyl synthase, N-terminal domain"</title>
				<rect class="PF00109" x="2028" y="28" stroke-linejoin="round" width="24" height="24" fill="rgb(74,179,82)" stroke="rgb(59,143,65)" stroke-width="1" opacity="0.75" />
			</g>
			<g>
				<title>Ketoacyl-synt_C (PF02801)
"Beta-ketoacyl synthase, C-terminal domain"</title>
				<rect class="PF02801" x="2053" y="28" stroke-linejoin="round" width="11" height="24" fill="rgb(212,79,72)" stroke="rgb(169,63,57)" stroke-width="1" opacity="0.75" />
			</g>
			<g>
				<title>PP-binding (PF00550)
"Phosphopantetheine attachment site"</title>
				<rect class="PF00550" x="2095" y="28" stroke-linejoin="round" width="6" height="24" fill="rgb(181,58,166)" stroke="rgb(144,46,132)" stroke-width="1" opacity="0.75" />
			</g>
			<g>
				<title>Thioesterase (PF00975)
"Thioesterase domain"</title>
				<polygon class="PF00975" points="2113,28 2124,28 2136,40 2124,52 2113,52" stroke-linejoin="round" width="27" height="24" fill="rgb(69,76,223)" stroke="rgb(55,60,178)" stroke-width="1" opacity="0.75" />
			</g>
		</g>
		<g>
			<title>
hypothetical protein</title>
			<polygon class="
hypothetical protein" points="2154,10 2181,40 2154,70" fill="rgb(255,255,255)" fill-opacity="1.0" stroke="rgb(0,0,0)" stroke-width="2"  />
			<g>
				<title>Coq4 (PF05019)
"Coenzyme Q (ubiquinone) biosynthesis protein Coq4"</title>
				<polygon class="PF05019" points="2159,28 2165,28 2177,40 2165,52 2159,52" stroke-linejoin="round" width="19" height="24" fill="rgb(65,196,81)" stroke="rgb(52,156,64)" stroke-width="1" opacity="0.75" />
			</g>
		</g>
		<g>
			<title>dszD
DszD</title>
			<polygon class="dszD
DszD" points="2187,25 2241,25 2241,10 2271,40 2241,70 2241,55 2187,55" fill="rgb(255,255,255)" fill-opacity="1.0" stroke="rgb(0,0,0)" stroke-width="2"  />
			<g>
				<title>Acyl_transf_1 (PF00698)
"Acyl transferase domain"</title>
				<rect class="PF00698" x="2187" y="28" stroke-linejoin="round" width="28" height="24" fill="rgb(132,93,193)" stroke="rgb(105,74,154)" stroke-width="1" opacity="0.75" />
			</g>
			<g>
				<title>FabD_helical_ins (PF21607)
"[Acyl-carrier-protein] S-malonyltransferase, inserted helical domain"</title>
				<polygon class="PF21607" points="2258,32 2265,39 2265,41 2258,48" stroke-linejoin="round" width="7" height="24" fill="rgb(93,224,227)" stroke="rgb(74,179,181)" stroke-width="1" opacity="0.75" />
			</g>
		</g>
		<g>
			<title>
hypothetical protein</title>
			<polygon class="
hypothetical protein" points="2274,40 2296,10 2296,70" fill="rgb(255,255,255)" fill-opacity="1.0" stroke="rgb(0,0,0)" stroke-width="2"  />
			<g>
				<title>DNA_alkylation (PF08713)
"DNA alkylation repair enzyme"</title>
				<polygon class="PF08713" points="2278,40 2287,28 2295,28 2295,52 2287,52" stroke-linejoin="round" width="19" height="24" fill="rgb(227,96,165)" stroke="rgb(181,76,131)" stroke-width="1" opacity="0.75" />
			</g>
		</g>
		<g>
			<title>
probable solute-binding lipoprotein</title>
			<polygon class="
probable solute-binding lipoprotein" points="2389,25 2401,25 2401,10 2431,40 2401,70 2401,55 2389,55" fill="rgb(255,255,255)" fill-opacity="1.0" stroke="rgb(0,0,0)" stroke-width="2"  />
			<g>
				<title>SBP_bac_1 (PF01547)
"Bacterial extracellular solute-binding protein"</title>
				<polygon class="PF01547" points="2393,28 2415,28 2423,36 2423,44 2415,52 2393,52" stroke-linejoin="round" width="30" height="24" fill="rgb(207,102,197)" stroke="rgb(165,81,157)" stroke-width="1" opacity="0.75" />
			</g>
		</g>
		<g>
			<title>
ABC permease subunit</title>
			<polygon class="
ABC permease subunit" points="2432,25 2432,25 2432,10 2462,40 2432,70 2432,55 2432,55" fill="rgb(255,255,255)" fill-opacity="1.0" stroke="rgb(0,0,0)" stroke-width="2"  />
			<g>
				<title>BPD_transp_1 (PF00528)
"Binding-protein-dependent transport system inner membrane component"</title>
				<polygon class="PF00528" points="2440,28 2446,28 2458,40 2446,52 2440,52" stroke-linejoin="round" width="21" height="24" fill="rgb(167,188,50)" stroke="rgb(133,150,40)" stroke-width="1" opacity="0.75" />
			</g>
		</g>
		<g>
			<title>
ABC permease subunit</title>
			<polygon class="
ABC permease subunit" points="2466,10 2491,40 2466,70" fill="rgb(255,255,255)" fill-opacity="1.0" stroke="rgb(0,0,0)" stroke-width="2"  />
			<g>
				<title>BPD_transp_1 (PF00528)
"Binding-protein-dependent transport system inner membrane component"</title>
				<polygon class="PF00528" points="2472,28 2477,28 2487,40 2477,52 2472,52" stroke-linejoin="round" width="18" height="24" fill="rgb(167,188,50)" stroke="rgb(133,150,40)" stroke-width="1" opacity="0.75" />
			</g>
		</g>
		<g>
			<title>
glycosyl hydrolase</title>
			<polygon class="
glycosyl hydrolase" points="2492,25 2540,25 2540,10 2570,40 2540,70 2540,55 2492,55" fill="rgb(255,255,255)" fill-opacity="1.0" stroke="rgb(0,0,0)" stroke-width="2"  />
			<g>
				<title>Gal_mutarotas_2 (PF13802)
"Glycosyl hydrolase 31 N-terminal galactose mutarotase-like domain"</title>
				<rect class="PF13802" x="2497" y="28" stroke-linejoin="round" width="16" height="24" fill="rgb(180,63,143)" stroke="rgb(144,50,114)" stroke-width="1" opacity="0.75" />
			</g>
			<g>
				<title>Glyco_hydro_31_2nd (PF01055)
"Glycosyl hydrolases family 31 TIM-barrel domain"</title>
				<rect class="PF01055" x="2517" y="28" stroke-linejoin="round" width="31" height="24" fill="rgb(66,71,183)" stroke="rgb(52,56,146)" stroke-width="1" opacity="0.75" />
			</g>
			<g>
				<title>Glyco_hydro_31_3rd (PF21365)
"Glycosyl hydrolase family 31 C-terminal domain"</title>
				<polygon class="PF21365" points="2550,28 2554,28 2558,32 2558,48 2554,52 2550,52" stroke-linejoin="round" width="8" height="24" fill="rgb(189,162,51)" stroke="rgb(151,129,40)" stroke-width="1" opacity="0.75" />
			</g>
		</g>
		<g>
			<title>
glycosyl hydrolase</title>
			<polygon class="
glycosyl hydrolase" points="2572,25 2649,25 2649,10 2679,40 2649,70 2649,55 2572,55" fill="rgb(255,255,255)" fill-opacity="1.0" stroke="rgb(0,0,0)" stroke-width="2"  />
			<g>
				<title>Glyco_hydro_3 (PF00933)
"Glycosyl hydrolase family 3 N terminal domain"</title>
				<rect class="PF00933" x="2587" y="28" stroke-linejoin="round" width="27" height="24" fill="rgb(167,74,199)" stroke="rgb(133,59,159)" stroke-width="1" opacity="0.75" />
			</g>
			<g>
				<title>Glyco_hydro_3_C (PF01915)
"Glycosyl hydrolase family 3 C-terminal domain"</title>
				<rect class="PF01915" x="2618" y="28" stroke-linejoin="round" width="35" height="24" fill="rgb(88,191,167)" stroke="rgb(70,152,133)" stroke-width="1" opacity="0.75" />
			</g>
			<g>
				<title>Fn3-like (PF14310)
"Fibronectin type III-like domain"</title>
				<polygon class="PF14310" points="2657,28 2662,28 2664,30 2664,50 2662,52 2657,52" stroke-linejoin="round" width="7" height="24" fill="rgb(188,104,48)" stroke="rgb(150,83,38)" stroke-width="1" opacity="0.75" />
			</g>
			<g>
				<title>CBM_6 (PF03422)
"Carbohydrate binding module (family 6)"</title>
				<polygon class="PF03422" points="2667,33 2674,40 2667,47" stroke-linejoin="round" width="11" height="24" fill="rgb(89,182,156)" stroke="rgb(71,145,124)" stroke-width="1" opacity="0.75" />
			</g>
		</g>
		<g>
			<title>
serine-threonine protein kinase</title>
			<polygon class="
serine-threonine protein kinase" points="2689,25 2768,25 2768,10 2798,40 2768,70 2768,55 2689,55" fill="rgb(255,255,255)" fill-opacity="1.0" stroke="rgb(0,0,0)" stroke-width="2"  />
			<g>
				<title>Pkinase (PF00069)
"Protein kinase domain"</title>
				<rect class="PF00069" x="2692" y="28" stroke-linejoin="round" width="23" height="24" fill="rgb(93,191,206)" stroke="rgb(74,152,164)" stroke-width="1" opacity="0.75" />
			</g>
		</g>
		<g>
			<title>
hypothetical protein</title>
			<polygon class="
hypothetical protein" points="2798,40 2819,10 2819,70" fill="rgb(255,255,255)" fill-opacity="1.0" stroke="rgb(0,0,0)" stroke-width="2"  />
		</g>
	</g>
</svg>
