<svg version="1.1" baseProfile="full" xmlns="http://www.w3.org/2000/svg" width="771.1" height="80">
	<g>
		<line x1="10" y1="40.0" x2="761.1" y2="40.0" style="stroke:rgb(70,70,70); stroke-width:3 "/>
		<g>
			<title>lzrX1a
monooxygenase</title>
			<polygon class="lzrX1a
monooxygenase" points="10,40 23,10 23,70" fill="rgb(255,255,255)" fill-opacity="1.0" stroke="rgb(0,0,0)" stroke-width="2"  />
		</g>
		<g>
			<title>lzrX1b
monooxygenase</title>
			<polygon class="lzrX1b
monooxygenase" points="61,25 50,25 50,10 20,40 50,70 50,55 61,55" fill="rgb(255,255,255)" fill-opacity="1.0" stroke="rgb(0,0,0)" stroke-width="2"  />
			<g>
				<title>FAD_binding_3 (PF01494)
"FAD binding domain"</title>
				<polygon class="PF01494" points="26,38 36,28 60,28 60,52 36,52 26,42" stroke-linejoin="round" width="34" height="24" fill="rgb(215,66,156)" stroke="rgb(172,52,124)" stroke-width="1" opacity="0.75" />
			</g>
		</g>
		<g>
			<title>lzrM1
N-methyltransferase</title>
			<polygon class="lzrM1
N-methyltransferase" points="67,10 90,40 67,70" fill="rgb(255,255,255)" fill-opacity="1.0" stroke="rgb(0,0,0)" stroke-width="2"  />
			<g>
				<title>Methyltransf_11 (PF08241)
"Methyltransferase domain"</title>
				<polygon class="PF08241" points="71,28 77,28 80,32 80,48 77,52 71,52" stroke-linejoin="round" width="9" height="24" fill="rgb(201,85,64)" stroke="rgb(160,68,51)" stroke-width="1" opacity="0.75" />
			</g>
		</g>
		<g>
			<title>lzrP
RebP-like cytochrome p450</title>
			<polygon class="lzrP
RebP-like cytochrome p450" points="129,25 120,25 120,10 90,40 120,70 120,55 129,55" fill="rgb(255,255,255)" fill-opacity="1.0" stroke="rgb(0,0,0)" stroke-width="2"  />
			<g>
				<title>p450 (PF00067)
"Cytochrome P450"</title>
				<polygon class="PF00067" points="94,40 106,28 111,28 111,52 106,52" stroke-linejoin="round" width="19" height="24" fill="rgb(195,210,54)" stroke="rgb(155,168,43)" stroke-width="1" opacity="0.75" />
			</g>
		</g>
		<g>
			<title>lzrC
RebC-like monooxygenase</title>
			<polygon class="lzrC
RebC-like monooxygenase" points="184,25 159,25 159,10 129,40 159,70 159,55 184,55" fill="rgb(255,255,255)" fill-opacity="1.0" stroke="rgb(0,0,0)" stroke-width="2"  />
			<g>
				<title>Rng_hyd_C (PF21274)
"Aromatic-ring hydroxylase, C-terminal"</title>
				<polygon class="PF21274" points="133,40 138,35 138,45" stroke-linejoin="round" width="9" height="24" fill="rgb(153,227,106)" stroke="rgb(122,181,84)" stroke-width="1" opacity="0.75" />
			</g>
			<g>
				<title>FAD_binding_3 (PF01494)
"FAD binding domain"</title>
				<rect class="PF01494" x="146" y="28" stroke-linejoin="round" width="35" height="24" fill="rgb(215,66,156)" stroke="rgb(172,52,124)" stroke-width="1" opacity="0.75" />
			</g>
		</g>
		<g>
			<title>lzrY1
putative alpha/beta hydrolase</title>
			<polygon class="lzrY1
putative alpha/beta hydrolase" points="191,10 216,40 191,70" fill="rgb(255,255,255)" fill-opacity="1.0" stroke="rgb(0,0,0)" stroke-width="2"  />
			<g>
				<title>Hydrolase_4 (PF12146)
"Serine aminopeptidase, S33"</title>
				<polygon class="PF12146" points="194,28 202,28 209,36 209,44 202,52 194,52" stroke-linejoin="round" width="15" height="24" fill="rgb(190,94,85)" stroke="rgb(152,75,67)" stroke-width="1" opacity="0.75" />
			</g>
		</g>
		<g>
			<title>lzrY2
putative alpha/beta hydrolase</title>
			<polygon class="lzrY2
putative alpha/beta hydrolase" points="215,10 222,40 215,70" fill="rgb(255,255,255)" fill-opacity="1.0" stroke="rgb(0,0,0)" stroke-width="2"  />
		</g>
		<g>
			<title>lzrF
putative flavin reductase</title>
			<polygon class="lzrF
putative flavin reductase" points="225,40 241,10 241,70" fill="rgb(255,255,255)" fill-opacity="1.0" stroke="rgb(0,0,0)" stroke-width="2"  />
			<g>
				<title>Flavin_Reduct (PF01613)
"Flavin reductase like domain"</title>
				<polygon class="PF01613" points="228,40 234,28 239,28 239,52 234,52" stroke-linejoin="round" width="14" height="24" fill="rgb(223,100,227)" stroke="rgb(178,80,181)" stroke-width="1" opacity="0.75" />
			</g>
		</g>
		<g>
			<title>lzrT1
putative cation/H+ antiporter</title>
			<polygon class="lzrT1
putative cation/H+ antiporter" points="241,40 257,10 257,70" fill="rgb(255,255,255)" fill-opacity="1.0" stroke="rgb(0,0,0)" stroke-width="2"  />
			<g>
				<title>Na_H_Exchanger (PF00999)
"Sodium/hydrogen exchanger family"</title>
				<polygon class="PF00999" points="244,40 251,28 256,28 256,52 251,52" stroke-linejoin="round" width="15" height="24" fill="rgb(95,122,202)" stroke="rgb(76,97,161)" stroke-width="1" opacity="0.75" />
			</g>
		</g>
		<g>
			<title>lzrT2
putative cation/H+ antiporter</title>
			<polygon class="lzrT2
putative cation/H+ antiporter" points="256,40 281,10 281,70" fill="rgb(255,255,255)" fill-opacity="1.0" stroke="rgb(0,0,0)" stroke-width="2"  />
			<g>
				<title>Na_H_Exchanger (PF00999)
"Sodium/hydrogen exchanger family"</title>
				<polygon class="PF00999" points="260,40 270,28 280,28 280,52 270,52" stroke-linejoin="round" width="22" height="24" fill="rgb(95,122,202)" stroke="rgb(76,97,161)" stroke-width="1" opacity="0.75" />
			</g>
		</g>
		<g>
			<title>lzrH1
tryptophan-5 halogenase</title>
			<polygon class="lzrH1
tryptophan-5 halogenase" points="333,25 312,25 312,10 282,40 312,70 312,55 333,55" fill="rgb(255,255,255)" fill-opacity="1.0" stroke="rgb(0,0,0)" stroke-width="2"  />
			<g>
				<title>Trp_halogenase (PF04820)
"Tryptophan halogenase"</title>
				<polygon class="PF04820" points="286,40 298,28 332,28 332,52 298,52" stroke-linejoin="round" width="47" height="24" fill="rgb(175,201,66)" stroke="rgb(139,160,52)" stroke-width="1" opacity="0.75" />
			</g>
		</g>
		<g>
			<title>lzrM3
O-methyltransferase</title>
			<polygon class="lzrM3
O-methyltransferase" points="368,25 365,25 365,10 335,40 365,70 365,55 368,55" fill="rgb(255,255,255)" fill-opacity="1.0" stroke="rgb(0,0,0)" stroke-width="2"  />
			<g>
				<title>Methyltransf_2 (PF00891)
"O-methyltransferase domain"</title>
				<polygon class="PF00891" points="339,40 351,28 357,28 357,52 351,52" stroke-linejoin="round" width="20" height="24" fill="rgb(91,124,224)" stroke="rgb(72,99,179)" stroke-width="1" opacity="0.75" />
			</g>
			<g>
				<title>Dimerisation2 (PF16864)
"Dimerisation domain"</title>
				<rect class="PF16864" x="360" y="28" stroke-linejoin="round" width="7" height="24" fill="rgb(212,101,199)" stroke="rgb(169,80,159)" stroke-width="1" opacity="0.75" />
			</g>
		</g>
		<g>
			<title>lzrX2
monooxygenase</title>
			<polygon class="lzrX2
monooxygenase" points="409,25 398,25 398,10 368,40 398,70 398,55 409,55" fill="rgb(255,255,255)" fill-opacity="1.0" stroke="rgb(0,0,0)" stroke-width="2"  />
			<g>
				<title>FAD_binding_3 (PF01494)
"FAD binding domain"</title>
				<polygon class="PF01494" points="374,38 384,28 408,28 408,52 384,52 374,42" stroke-linejoin="round" width="34" height="24" fill="rgb(215,66,156)" stroke="rgb(172,52,124)" stroke-width="1" opacity="0.75" />
			</g>
		</g>
		<g>
			<title>lzrH2
tryptophan-6 halogenase</title>
			<polygon class="lzrH2
tryptophan-6 halogenase" points="463,25 440,25 440,10 410,40 440,70 440,55 463,55" fill="rgb(255,255,255)" fill-opacity="1.0" stroke="rgb(0,0,0)" stroke-width="2"  />
			<g>
				<title>Trp_halogenase (PF04820)
"Tryptophan halogenase"</title>
				<polygon class="PF04820" points="414,40 426,28 461,28 461,52 426,52" stroke-linejoin="round" width="48" height="24" fill="rgb(175,201,66)" stroke="rgb(139,160,52)" stroke-width="1" opacity="0.75" />
			</g>
		</g>
		<g>
			<title>lzrO
RebO-like L-amino acid oxidase</title>
			<polygon class="lzrO
RebO-like L-amino acid oxidase" points="470,25 487,25 487,10 517,40 487,70 487,55 470,55" fill="rgb(255,255,255)" fill-opacity="1.0" stroke="rgb(0,0,0)" stroke-width="2"  />
			<g>
				<title>Amino_oxidase (PF01593)
"Flavin containing amine oxidoreductase"</title>
				<polygon class="PF01593" points="471,28 501,28 513,40 501,52 471,52" stroke-linejoin="round" width="45" height="24" fill="rgb(95,189,207)" stroke="rgb(76,151,165)" stroke-width="1" opacity="0.75" />
			</g>
		</g>
		<g>
			<title>lzrD
RebD-like chromopyrrolic acid synthase</title>
			<polygon class="lzrD
RebD-like chromopyrrolic acid synthase" points="517,25 584,25 584,10 614,40 584,70 584,55 517,55" fill="rgb(255,255,255)" fill-opacity="1.0" stroke="rgb(0,0,0)" stroke-width="2"  />
			<g>
				<title>Ferritin-like (PF12902)
"Ferritin-like"</title>
				<rect class="PF12902" x="573" y="28" stroke-linejoin="round" width="24" height="24" fill="rgb(183,62,62)" stroke="rgb(146,49,49)" stroke-width="1" opacity="0.75" />
			</g>
		</g>
		<g>
			<title>lzrG
cytochrome p450</title>
			<polygon class="lzrG
cytochrome p450" points="651,25 645,25 645,10 615,40 645,70 645,55 651,55" fill="rgb(255,255,255)" fill-opacity="1.0" stroke="rgb(0,0,0)" stroke-width="2"  />
			<g>
				<title>p450 (PF00067)
"Cytochrome P450"</title>
				<polygon class="PF00067" points="619,40 631,28 638,28 638,52 631,52" stroke-linejoin="round" width="23" height="24" fill="rgb(195,210,54)" stroke="rgb(155,168,43)" stroke-width="1" opacity="0.75" />
			</g>
		</g>
		<g>
			<title>lzrR
LuxR-type transcriptional regulator</title>
			<polygon class="lzrR
LuxR-type transcriptional regulator" points="760,25 696,25 696,10 666,40 696,70 696,55 760,55" fill="rgb(255,255,255)" fill-opacity="1.0" stroke="rgb(0,0,0)" stroke-width="2"  />
			<g>
				<title>GerE (PF00196)
"Bacterial regulatory proteins, luxR family"</title>
				<polygon class="PF00196" points="670,40 671,39 671,41" stroke-linejoin="round" width="5" height="24" fill="rgb(225,67,110)" stroke="rgb(180,53,88)" stroke-width="1" opacity="0.75" />
			</g>
			<g>
				<title>AAA_16 (PF13191)
"AAA ATPase domain"</title>
				<rect class="PF13191" x="744" y="28" stroke-linejoin="round" width="13" height="24" fill="rgb(88,106,197)" stroke="rgb(70,84,157)" stroke-width="1" opacity="0.75" />
			</g>
		</g>
	</g>
</svg>
