<svg version="1.1" baseProfile="full" xmlns="http://www.w3.org/2000/svg" width="233.63333333333333" height="80">
	<g>
		<line x1="10" y1="40.0" x2="223.63333333333333" y2="40.0" style="stroke:rgb(70,70,70); stroke-width:3 "/>
		<g>
			<title> (AFLA_041370)
isoflavone reductase family protein</title>
			<polygon class=" (AFLA_041370)
isoflavone reductase family protein" points="10,25 11,25 11,10 41,40 11,70 11,55 10,55" fill="rgb(255,255,255)" fill-opacity="1.0" stroke="rgb(0,0,0)" stroke-width="2"  />
			<g>
				<title>NmrA (PF05368)
"NmrA-like family"</title>
				<polygon class="PF05368" points="10,28 25,28 35,38 35,42 25,52 10,52" stroke-linejoin="round" width="25" height="24" fill="rgb(102,214,88)" stroke="rgb(81,171,70)" stroke-width="1" opacity="0.75" />
			</g>
		</g>
		<g>
			<title> (AFLA_041380)
MFS multidrug transporter, putative</title>
			<polygon class=" (AFLA_041380)
MFS multidrug transporter, putative" points="98,25 77,25 77,10 47,40 77,70 77,55 98,55" fill="rgb(255,255,255)" fill-opacity="1.0" stroke="rgb(0,0,0)" stroke-width="2"  />
		</g>
		<g>
			<title> (AFLA_041390)
conserved hypothetical protein</title>
			<polygon class=" (AFLA_041390)
conserved hypothetical protein" points="156,25 148,25 148,10 118,40 148,70 148,55 156,55" fill="rgb(255,255,255)" fill-opacity="1.0" stroke="rgb(0,0,0)" stroke-width="2"  />
			<g>
				<title>UstYa (PF11807)
"Mycotoxin biosynthesis protein UstYa"</title>
				<polygon class="PF11807" points="128,34 134,28 150,28 150,52 134,52 128,46" stroke-linejoin="round" width="22" height="24" fill="rgb(189,100,68)" stroke="rgb(151,80,54)" stroke-width="1" opacity="0.75" />
			</g>
		</g>
		<g>
			<title> (AFLA_041400)
hypothetical protein</title>
			<polygon class=" (AFLA_041400)
hypothetical protein" points="195,10 222,40 195,70" fill="rgb(255,255,255)" fill-opacity="1.0" stroke="rgb(0,0,0)" stroke-width="2"  />
		</g>
	</g>
</svg>
