<svg version="1.1" baseProfile="full" xmlns="http://www.w3.org/2000/svg" width="2107.2" height="80">
	<g>
		<line x1="10" y1="40.0" x2="2097.2" y2="40.0" style="stroke:rgb(70,70,70); stroke-width:3 "/>
		<g>
			<title>
NDP-hexose-4-ketoreductase</title>
			<polygon class="
NDP-hexose-4-ketoreductase" points="10,10 36,40 10,70" fill="rgb(255,255,255)" fill-opacity="1.0" stroke="rgb(0,0,0)" stroke-width="2"  />
			<g>
				<title>Epimerase (PF01370)
"NAD dependent epimerase/dehydratase family"</title>
				<polygon class="PF01370" points="10,28 21,28 28,35 28,45 21,52 10,52" stroke-linejoin="round" width="18" height="24" fill="rgb(215,89,157)" stroke="rgb(172,71,125)" stroke-width="1" opacity="0.75" />
			</g>
		</g>
		<g>
			<title>
aminotransferase</title>
			<polygon class="
aminotransferase" points="45,25 67,25 67,10 97,40 67,70 67,55 45,55" fill="rgb(255,255,255)" fill-opacity="1.0" stroke="rgb(0,0,0)" stroke-width="2"  />
			<g>
				<title>Lyase_aromatic (PF00221)
"Aromatic amino acid lyase"</title>
				<polygon class="PF00221" points="46,28 81,28 92,39 92,41 81,52 46,52" stroke-linejoin="round" width="46" height="24" fill="rgb(198,213,89)" stroke="rgb(158,170,71)" stroke-width="1" opacity="0.75" />
			</g>
		</g>
		<g>
			<title>
unknown</title>
			<polygon class="
unknown" points="100,10 122,40 100,70" fill="rgb(255,255,255)" fill-opacity="1.0" stroke="rgb(0,0,0)" stroke-width="2"  />
		</g>
		<g>
			<title>
unknown</title>
			<polygon class="
unknown" points="123,25 127,25 127,10 157,40 127,70 127,55 123,55" fill="rgb(255,255,255)" fill-opacity="1.0" stroke="rgb(0,0,0)" stroke-width="2"  />
			<g>
				<title>CMD (PF02627)
"Carboxymuconolactone decarboxylase family"</title>
				<rect class="PF02627" x="128" y="28" stroke-linejoin="round" width="6" height="24" fill="rgb(218,62,137)" stroke="rgb(174,49,109)" stroke-width="1" opacity="0.75" />
			</g>
		</g>
		<g>
			<title>
O-methyltransferase</title>
			<polygon class="
O-methyltransferase" points="162,25 165,25 165,10 195,40 165,70 165,55 162,55" fill="rgb(255,255,255)" fill-opacity="1.0" stroke="rgb(0,0,0)" stroke-width="2"  />
			<g>
				<title>Methyltransf_2 (PF00891)
"O-methyltransferase domain"</title>
				<polygon class="PF00891" points="173,28 179,28 191,40 179,52 173,52" stroke-linejoin="round" width="20" height="24" fill="rgb(91,124,224)" stroke="rgb(72,99,179)" stroke-width="1" opacity="0.75" />
			</g>
		</g>
		<g>
			<title>
unknown</title>
			<polygon class="
unknown" points="199,10 213,40 199,70" fill="rgb(255,255,255)" fill-opacity="1.0" stroke="rgb(0,0,0)" stroke-width="2"  />
			<g>
				<title>DUF4440 (PF14534)
"Domain of unknown function (DUF4440)"</title>
				<polygon class="PF14534" points="201,28 204,28 210,40 204,52 201,52" stroke-linejoin="round" width="11" height="24" fill="rgb(114,76,182)" stroke="rgb(91,60,145)" stroke-width="1" opacity="0.75" />
			</g>
		</g>
		<g>
			<title>
iterative type I polyketide synthase</title>
			<polygon class="
iterative type I polyketide synthase" points="406,25 261,25 261,10 231,40 261,70 261,55 406,55" fill="rgb(255,255,255)" fill-opacity="1.0" stroke="rgb(0,0,0)" stroke-width="2"  />
			<g>
				<title>PP-binding (PF00550)
"Phosphopantetheine attachment site"</title>
				<polygon class="PF00550" points="235,40 239,36 239,44" stroke-linejoin="round" width="6" height="24" fill="rgb(181,58,166)" stroke="rgb(144,46,132)" stroke-width="1" opacity="0.75" />
			</g>
			<g>
				<title>KR (PF08659)
"KR domain"</title>
				<rect class="PF08659" x="249" y="28" stroke-linejoin="round" width="19" height="24" fill="rgb(203,145,81)" stroke="rgb(162,116,64)" stroke-width="1" opacity="0.75" />
			</g>
			<g>
				<title>PS-DH (PF14765)
"Polyketide synthase dehydratase N-terminal domain"</title>
				<rect class="PF14765" x="290" y="28" stroke-linejoin="round" width="15" height="24" fill="rgb(189,61,178)" stroke="rgb(151,48,142)" stroke-width="1" opacity="0.75" />
			</g>
			<g>
				<title>PKS_DH_N (PF21089)
"Polyketide synthase dehydratase domain"</title>
				<rect class="PF21089" x="308" y="28" stroke-linejoin="round" width="9" height="24" fill="rgb(67,151,200)" stroke="rgb(53,120,160)" stroke-width="1" opacity="0.75" />
			</g>
			<g>
				<title>Acyl_transf_1 (PF00698)
"Acyl transferase domain"</title>
				<rect class="PF00698" x="322" y="28" stroke-linejoin="round" width="31" height="24" fill="rgb(132,93,193)" stroke="rgb(105,74,154)" stroke-width="1" opacity="0.75" />
			</g>
			<g>
				<title>KAsynt_C_assoc (PF16197)
"Ketoacyl-synthetase C-terminal extension"</title>
				<rect class="PF16197" x="357" y="28" stroke-linejoin="round" width="11" height="24" fill="rgb(200,86,70)" stroke="rgb(160,68,56)" stroke-width="1" opacity="0.75" />
			</g>
			<g>
				<title>Ketoacyl-synt_C (PF02801)
"Beta-ketoacyl synthase, C-terminal domain"</title>
				<rect class="PF02801" x="369" y="28" stroke-linejoin="round" width="11" height="24" fill="rgb(212,79,72)" stroke="rgb(169,63,57)" stroke-width="1" opacity="0.75" />
			</g>
			<g>
				<title>ketoacyl-synt (PF00109)
"Beta-ketoacyl synthase, N-terminal domain"</title>
				<rect class="PF00109" x="382" y="28" stroke-linejoin="round" width="24" height="24" fill="rgb(74,179,82)" stroke="rgb(59,143,65)" stroke-width="1" opacity="0.75" />
			</g>
		</g>
		<g>
			<title>
adenylate ligase</title>
			<polygon class="
adenylate ligase" points="422,25 447,25 447,10 477,40 447,70 447,55 422,55" fill="rgb(255,255,255)" fill-opacity="1.0" stroke="rgb(0,0,0)" stroke-width="2"  />
			<g>
				<title>AMP-binding (PF00501)
"AMP-binding enzyme"</title>
				<polygon class="PF00501" points="425,28 461,28 462,29 462,51 461,52 425,52" stroke-linejoin="round" width="37" height="24" fill="rgb(189,78,204)" stroke="rgb(151,62,163)" stroke-width="1" opacity="0.75" />
			</g>
			<g>
				<title>AMP-binding_C (PF13193)
"AMP-binding enzyme C-terminal domain"</title>
				<polygon class="PF13193" points="468,35 473,40 468,45" stroke-linejoin="round" width="7" height="24" fill="rgb(195,82,106)" stroke="rgb(156,65,84)" stroke-width="1" opacity="0.75" />
			</g>
		</g>
		<g>
			<title>
membrane protein</title>
			<polygon class="
membrane protein" points="552,25 510,25 510,10 480,40 510,70 510,55 552,55" fill="rgb(255,255,255)" fill-opacity="1.0" stroke="rgb(0,0,0)" stroke-width="2"  />
			<g>
				<title>PMT_2 (PF13231)
"Dolichyl-phosphate-mannose-protein mannosyltransferase"</title>
				<rect class="PF13231" x="528" y="28" stroke-linejoin="round" width="16" height="24" fill="rgb(110,225,63)" stroke="rgb(88,180,50)" stroke-width="1" opacity="0.75" />
			</g>
		</g>
		<g>
			<title>
NDP-hexose synthetase</title>
			<polygon class="
NDP-hexose synthetase" points="555,40 578,10 578,70" fill="rgb(255,255,255)" fill-opacity="1.0" stroke="rgb(0,0,0)" stroke-width="2"  />
			<g>
				<title>NTP_transferase (PF00483)
"Nucleotidyl transferase"</title>
				<polygon class="PF00483" points="559,40 568,28 578,28 578,52 568,52" stroke-linejoin="round" width="22" height="24" fill="rgb(211,145,90)" stroke="rgb(168,116,72)" stroke-width="1" opacity="0.75" />
			</g>
		</g>
		<g>
			<title>
NDP-hexose-4,6-dehydratase</title>
			<polygon class="
NDP-hexose-4,6-dehydratase" points="613,25 610,25 610,10 580,40 610,70 610,55 613,55" fill="rgb(255,255,255)" fill-opacity="1.0" stroke="rgb(0,0,0)" stroke-width="2"  />
			<g>
				<title>GDP_Man_Dehyd (PF16363)
"GDP-mannose 4,6 dehydratase"</title>
				<polygon class="PF16363" points="584,40 596,28 612,28 612,52 596,52" stroke-linejoin="round" width="30" height="24" fill="rgb(50,144,195)" stroke="rgb(40,115,156)" stroke-width="1" opacity="0.75" />
			</g>
		</g>
		<g>
			<title>
N-methyltransferase</title>
			<polygon class="
N-methyltransferase" points="618,40 642,10 642,70" fill="rgb(255,255,255)" fill-opacity="1.0" stroke="rgb(0,0,0)" stroke-width="2"  />
			<g>
				<title>Methyltransf_11 (PF08241)
"Methyltransferase domain"</title>
				<polygon class="PF08241" points="628,32 632,28 637,28 637,52 632,52 628,48" stroke-linejoin="round" width="9" height="24" fill="rgb(201,85,64)" stroke="rgb(160,68,51)" stroke-width="1" opacity="0.75" />
			</g>
		</g>
		<g>
			<title>
glycosyltransferase</title>
			<polygon class="
glycosyltransferase" points="649,25 659,25 659,10 689,40 659,70 659,55 649,55" fill="rgb(255,255,255)" fill-opacity="1.0" stroke="rgb(0,0,0)" stroke-width="2"  />
			<g>
				<title>Glycos_transf_2 (PF00535)
"Glycosyl transferase family 2"</title>
				<rect class="PF00535" x="650" y="28" stroke-linejoin="round" width="16" height="24" fill="rgb(197,62,212)" stroke="rgb(157,49,169)" stroke-width="1" opacity="0.75" />
			</g>
			<g>
				<title>GtrA (PF04138)
"GtrA-like protein"</title>
				<polygon class="PF04138" points="676,31 685,40 676,49" stroke-linejoin="round" width="11" height="24" fill="rgb(52,94,204)" stroke="rgb(41,75,163)" stroke-width="1" opacity="0.75" />
			</g>
		</g>
		<g>
			<title>
unknown</title>
			<polygon class="
unknown" points="689,10 718,40 689,70" fill="rgb(255,255,255)" fill-opacity="1.0" stroke="rgb(0,0,0)" stroke-width="2"  />
			<g>
				<title>YdjC (PF04794)
"YdjC-like protein"</title>
				<polygon class="PF04794" points="689,28 702,28 714,40 702,52 689,52" stroke-linejoin="round" width="26" height="24" fill="rgb(56,210,118)" stroke="rgb(44,168,94)" stroke-width="1" opacity="0.75" />
			</g>
		</g>
		<g>
			<title>
neocarzinostatin apoprotein</title>
			<polygon class="
neocarzinostatin apoprotein" points="722,40 736,10 736,70" fill="rgb(255,255,255)" fill-opacity="1.0" stroke="rgb(0,0,0)" stroke-width="2"  />
			<g>
				<title>Neocarzinostat (PF00960)
"Neocarzinostatin family"</title>
				<polygon class="PF00960" points="725,40 731,28 732,28 732,52 731,52" stroke-linejoin="round" width="10" height="24" fill="rgb(78,205,62)" stroke="rgb(62,164,49)" stroke-width="1" opacity="0.75" />
			</g>
		</g>
		<g>
			<title>
epoxide hydrolase</title>
			<polygon class="
epoxide hydrolase" points="765,25 773,25 773,10 803,40 773,70 773,55 765,55" fill="rgb(255,255,255)" fill-opacity="1.0" stroke="rgb(0,0,0)" stroke-width="2"  />
			<g>
				<title>EHN (PF06441)
"Epoxide hydrolase N terminus"</title>
				<rect class="PF06441" x="765" y="28" stroke-linejoin="round" width="10" height="24" fill="rgb(213,148,83)" stroke="rgb(170,118,66)" stroke-width="1" opacity="0.75" />
			</g>
		</g>
		<g>
			<title>
esterase/hydrolase</title>
			<polygon class="
esterase/hydrolase" points="820,40 845,10 845,70" fill="rgb(255,255,255)" fill-opacity="1.0" stroke="rgb(0,0,0)" stroke-width="2"  />
			<g>
				<title>Abhydrolase_6 (PF12697)
"Alpha/beta hydrolase family"</title>
				<polygon class="PF12697" points="824,40 834,28 843,28 843,52 834,52" stroke-linejoin="round" width="23" height="24" fill="rgb(87,73,196)" stroke="rgb(69,58,156)" stroke-width="1" opacity="0.75" />
			</g>
		</g>
		<g>
			<title>
cytochrome P-450</title>
			<polygon class="
cytochrome P-450" points="894,25 883,25 883,10 853,40 883,70 883,55 894,55" fill="rgb(255,255,255)" fill-opacity="1.0" stroke="rgb(0,0,0)" stroke-width="2"  />
			<g>
				<title>p450 (PF00067)
"Cytochrome P450"</title>
				<polygon class="PF00067" points="857,40 867,30 867,50" stroke-linejoin="round" width="12" height="24" fill="rgb(195,210,54)" stroke="rgb(155,168,43)" stroke-width="1" opacity="0.75" />
			</g>
		</g>
		<g>
			<title>
hydroxylase</title>
			<polygon class="
hydroxylase" points="904,40 916,10 916,70" fill="rgb(255,255,255)" fill-opacity="1.0" stroke="rgb(0,0,0)" stroke-width="2"  />
			<g>
				<title>Glyoxalase (PF00903)
"Glyoxalase/Bleomycin resistance protein/Dioxygenase superfamily"</title>
				<polygon class="PF00903" points="907,40 912,28 914,28 914,52 912,52" stroke-linejoin="round" width="10" height="24" fill="rgb(139,76,222)" stroke="rgb(111,60,177)" stroke-width="1" opacity="0.75" />
			</g>
		</g>
		<g>
			<title>
transmembrane transporter</title>
			<polygon class="
transmembrane transporter" points="969,25 950,25 950,10 920,40 950,70 950,55 969,55" fill="rgb(255,255,255)" fill-opacity="1.0" stroke="rgb(0,0,0)" stroke-width="2"  />
			<g>
				<title>MFS_1 (PF07690)
"Major Facilitator Superfamily"</title>
				<polygon class="PF07690" points="927,37 936,28 966,28 966,52 936,52 927,43" stroke-linejoin="round" width="39" height="24" fill="rgb(228,207,98)" stroke="rgb(182,165,78)" stroke-width="1" opacity="0.75" />
			</g>
		</g>
		<g>
			<title>
transcriptional regulator</title>
			<polygon class="
transcriptional regulator" points="988,10 1008,40 988,70" fill="rgb(255,255,255)" fill-opacity="1.0" stroke="rgb(0,0,0)" stroke-width="2"  />
			<g>
				<title>TetR_N (PF00440)
"Bacterial regulatory proteins, tetR family"</title>
				<rect class="PF00440" x="989" y="28" stroke-linejoin="round" width="4" height="24" fill="rgb(148,50,185)" stroke="rgb(118,40,148)" stroke-width="1" opacity="0.75" />
			</g>
			<g>
				<title>TetR_C_33 (PF13305)
"Tetracyclin repressor-like, C-terminal domain"</title>
				<polygon class="PF13305" points="997,29 1004,40 997,51" stroke-linejoin="round" width="10" height="24" fill="rgb(186,82,57)" stroke="rgb(148,65,45)" stroke-width="1" opacity="0.75" />
			</g>
		</g>
		<g>
			<title>
oxidase</title>
			<polygon class="
oxidase" points="1019,25 1034,25 1034,10 1064,40 1034,70 1034,55 1019,55" fill="rgb(255,255,255)" fill-opacity="1.0" stroke="rgb(0,0,0)" stroke-width="2"  />
			<g>
				<title>FAD_binding_4 (PF01565)
"FAD binding domain"</title>
				<rect class="PF01565" x="1025" y="28" stroke-linejoin="round" width="13" height="24" fill="rgb(194,197,94)" stroke="rgb(155,157,75)" stroke-width="1" opacity="0.75" />
			</g>
			<g>
				<title>Cytokin-bind (PF09265)
"Cytokinin dehydrogenase 1, FAD and cytokinin binding"</title>
				<polygon class="PF09265" points="1045,28 1048,28 1060,40 1048,52 1045,52" stroke-linejoin="round" width="18" height="24" fill="rgb(119,193,57)" stroke="rgb(95,154,45)" stroke-width="1" opacity="0.75" />
			</g>
		</g>
		<g>
			<title>
epoxide hydrolase</title>
			<polygon class="
epoxide hydrolase" points="1109,25 1101,25 1101,10 1071,40 1101,70 1101,55 1109,55" fill="rgb(255,255,255)" fill-opacity="1.0" stroke="rgb(0,0,0)" stroke-width="2"  />
			<g>
				<title>EHN (PF06441)
"Epoxide hydrolase N terminus"</title>
				<rect class="PF06441" x="1099" y="28" stroke-linejoin="round" width="10" height="24" fill="rgb(213,148,83)" stroke="rgb(170,118,66)" stroke-width="1" opacity="0.75" />
			</g>
		</g>
		<g>
			<title>
hydroxylase</title>
			<polygon class="
hydroxylase" points="1118,25 1132,25 1132,10 1162,40 1132,70 1132,55 1118,55" fill="rgb(255,255,255)" fill-opacity="1.0" stroke="rgb(0,0,0)" stroke-width="2"  />
		</g>
		<g>
			<title>
unknown</title>
			<polygon class="
unknown" points="1165,40 1191,10 1191,70" fill="rgb(255,255,255)" fill-opacity="1.0" stroke="rgb(0,0,0)" stroke-width="2"  />
			<g>
				<title>Wyosine_form (PF08608)
"Wyosine base formation"</title>
				<polygon class="PF08608" points="1169,40 1173,36 1173,44" stroke-linejoin="round" width="5" height="24" fill="rgb(170,212,78)" stroke="rgb(135,169,62)" stroke-width="1" opacity="0.75" />
			</g>
			<g>
				<title>MDMPI_N (PF11716)
"Mycothiol maleylpyruvate isomerase N-terminal domain"</title>
				<polygon class="PF11716" points="1177,31 1180,28 1190,28 1190,52 1180,52 1177,49" stroke-linejoin="round" width="13" height="24" fill="rgb(220,88,208)" stroke="rgb(176,70,166)" stroke-width="1" opacity="0.75" />
			</g>
		</g>
		<g>
			<title>
oxidoreductase</title>
			<polygon class="
oxidoreductase" points="1252,25 1227,25 1227,10 1197,40 1227,70 1227,55 1252,55" fill="rgb(255,255,255)" fill-opacity="1.0" stroke="rgb(0,0,0)" stroke-width="2"  />
			<g>
				<title>GMC_oxred_C (PF05199)
"GMC oxidoreductase"</title>
				<polygon class="PF05199" points="1201,40 1211,30 1211,50 1201,40" stroke-linejoin="round" width="10" height="24" fill="rgb(206,67,222)" stroke="rgb(164,53,177)" stroke-width="1" opacity="0.75" />
			</g>
			<g>
				<title>GMC_oxred_N (PF00732)
"GMC oxidoreductase"</title>
				<rect class="PF00732" x="1224" y="28" stroke-linejoin="round" width="26" height="24" fill="rgb(102,94,198)" stroke="rgb(81,75,158)" stroke-width="1" opacity="0.75" />
			</g>
		</g>
		<g>
			<title>
unknown</title>
			<polygon class="
unknown" points="1252,40 1272,10 1272,70" fill="rgb(255,255,255)" fill-opacity="1.0" stroke="rgb(0,0,0)" stroke-width="2"  />
			<g>
				<title>DUF5987 (PF19449)
"Family of unknown function (DUF5987)"</title>
				<polygon class="PF19449" points="1256,40 1264,28 1269,28 1269,52 1264,52" stroke-linejoin="round" width="17" height="24" fill="rgb(171,187,51)" stroke="rgb(136,149,40)" stroke-width="1" opacity="0.75" />
			</g>
		</g>
		<g>
			<title>
transcriptional regulator</title>
			<polygon class="
transcriptional regulator" points="1281,25 1286,25 1286,10 1316,40 1286,70 1286,55 1281,55" fill="rgb(255,255,255)" fill-opacity="1.0" stroke="rgb(0,0,0)" stroke-width="2"  />
		</g>
		<g>
			<title>
transcriptional regulator</title>
			<polygon class="
transcriptional regulator" points="1318,10 1344,40 1318,70" fill="rgb(255,255,255)" fill-opacity="1.0" stroke="rgb(0,0,0)" stroke-width="2"  />
			<g>
				<title>HTH_18 (PF12833)
"Helix-turn-helix domain"</title>
				<rect class="PF12833" x="1321" y="28" stroke-linejoin="round" width="7" height="24" fill="rgb(96,195,114)" stroke="rgb(76,156,91)" stroke-width="1" opacity="0.75" />
			</g>
		</g>
		<g>
			<title>
cytochrome P-450</title>
			<polygon class="
cytochrome P-450" points="1391,25 1376,25 1376,10 1346,40 1376,70 1376,55 1391,55" fill="rgb(255,255,255)" fill-opacity="1.0" stroke="rgb(0,0,0)" stroke-width="2"  />
			<g>
				<title>p450 (PF00067)
"Cytochrome P450"</title>
				<polygon class="PF00067" points="1350,40 1362,28 1388,28 1388,52 1362,52" stroke-linejoin="round" width="42" height="24" fill="rgb(195,210,54)" stroke="rgb(155,168,43)" stroke-width="1" opacity="0.75" />
			</g>
		</g>
		<g>
			<title>
monooxygenase</title>
			<polygon class="
monooxygenase" points="1391,40 1409,10 1409,70" fill="rgb(255,255,255)" fill-opacity="1.0" stroke="rgb(0,0,0)" stroke-width="2"  />
			<g>
				<title>Flavin_Reduct (PF01613)
"Flavin reductase like domain"</title>
				<polygon class="PF01613" points="1395,40 1402,28 1405,28 1405,52 1402,52" stroke-linejoin="round" width="14" height="24" fill="rgb(223,100,227)" stroke="rgb(178,80,181)" stroke-width="1" opacity="0.75" />
			</g>
		</g>
		<g>
			<title>
thioesterase</title>
			<polygon class="
thioesterase" points="1409,40 1424,10 1424,70" fill="rgb(255,255,255)" fill-opacity="1.0" stroke="rgb(0,0,0)" stroke-width="2"  />
			<g>
				<title>4HBT_2 (PF13279)
"Thioesterase-like superfamily"</title>
				<polygon class="PF13279" points="1412,40 1418,28 1422,28 1422,52 1418,52" stroke-linejoin="round" width="12" height="24" fill="rgb(108,104,213)" stroke="rgb(86,83,170)" stroke-width="1" opacity="0.75" />
			</g>
		</g>
		<g>
			<title>
warhead-forming iterative polyketide synthase</title>
			<polygon class="
warhead-forming iterative polyketide synthase" points="1621,25 1454,25 1454,10 1424,40 1454,70 1454,55 1621,55" fill="rgb(255,255,255)" fill-opacity="1.0" stroke="rgb(0,0,0)" stroke-width="2"  />
			<g>
				<title>PS-DH (PF14765)
"Polyketide synthase dehydratase N-terminal domain"</title>
				<rect class="PF14765" x="1445" y="28" stroke-linejoin="round" width="15" height="24" fill="rgb(189,61,178)" stroke="rgb(151,48,142)" stroke-width="1" opacity="0.75" />
			</g>
			<g>
				<title>PKS_DH_N (PF21089)
"Polyketide synthase dehydratase domain"</title>
				<rect class="PF21089" x="1463" y="28" stroke-linejoin="round" width="9" height="24" fill="rgb(67,151,200)" stroke="rgb(53,120,160)" stroke-width="1" opacity="0.75" />
			</g>
			<g>
				<title>KR (PF08659)
"KR domain"</title>
				<rect class="PF08659" x="1479" y="28" stroke-linejoin="round" width="18" height="24" fill="rgb(203,145,81)" stroke="rgb(162,116,64)" stroke-width="1" opacity="0.75" />
			</g>
			<g>
				<title>Acyl_transf_1 (PF00698)
"Acyl transferase domain"</title>
				<rect class="PF00698" x="1536" y="28" stroke-linejoin="round" width="30" height="24" fill="rgb(132,93,193)" stroke="rgb(105,74,154)" stroke-width="1" opacity="0.75" />
			</g>
			<g>
				<title>Ketoacyl-synt_C (PF02801)
"Beta-ketoacyl synthase, C-terminal domain"</title>
				<rect class="PF02801" x="1580" y="28" stroke-linejoin="round" width="11" height="24" fill="rgb(212,79,72)" stroke="rgb(169,63,57)" stroke-width="1" opacity="0.75" />
			</g>
			<g>
				<title>ketoacyl-synt (PF00109)
"Beta-ketoacyl synthase, N-terminal domain"</title>
				<rect class="PF00109" x="1592" y="28" stroke-linejoin="round" width="28" height="24" fill="rgb(74,179,82)" stroke="rgb(59,143,65)" stroke-width="1" opacity="0.75" />
			</g>
		</g>
		<g>
			<title>
putative transporter</title>
			<polygon class="
putative transporter" points="1658,25 1652,25 1652,10 1622,40 1652,70 1652,55 1658,55" fill="rgb(255,255,255)" fill-opacity="1.0" stroke="rgb(0,0,0)" stroke-width="2"  />
		</g>
		<g>
			<title>
unknown</title>
			<polygon class="
unknown" points="1721,25 1688,25 1688,10 1658,40 1688,70 1688,55 1721,55" fill="rgb(255,255,255)" fill-opacity="1.0" stroke="rgb(0,0,0)" stroke-width="2"  />
			<g>
				<title>UnbV_ASPIC (PF07593)
"ASPIC and UnbV"</title>
				<polygon class="PF07593" points="1662,40 1665,37 1665,43" stroke-linejoin="round" width="6" height="24" fill="rgb(208,157,76)" stroke="rgb(166,125,60)" stroke-width="1" opacity="0.75" />
			</g>
			<g>
				<title>FG-GAP_3 (PF13517)
"FG-GAP-like repeat"</title>
				<rect class="PF13517" x="1685" y="28" stroke-linejoin="round" width="7" height="24" fill="rgb(193,139,80)" stroke="rgb(154,111,64)" stroke-width="1" opacity="0.75" />
			</g>
			<g>
				<title>FG-GAP_3 (PF13517)
"FG-GAP-like repeat"</title>
				<rect class="PF13517" x="1699" y="28" stroke-linejoin="round" width="7" height="24" fill="rgb(193,139,80)" stroke="rgb(154,111,64)" stroke-width="1" opacity="0.75" />
			</g>
		</g>
		<g>
			<title>
unknown</title>
			<polygon class="
unknown" points="1754,25 1752,25 1752,10 1722,40 1752,70 1752,55 1754,55" fill="rgb(255,255,255)" fill-opacity="1.0" stroke="rgb(0,0,0)" stroke-width="2"  />
			<g>
				<title>DUF1702 (PF08012)
"Protein of unknown function (DUF1702)"</title>
				<polygon class="PF08012" points="1726,40 1738,28 1754,28 1754,52 1738,52" stroke-linejoin="round" width="31" height="24" fill="rgb(115,74,184)" stroke="rgb(92,59,147)" stroke-width="1" opacity="0.75" />
			</g>
		</g>
		<g>
			<title>
unknown</title>
			<polygon class="
unknown" points="1790,25 1788,25 1788,10 1758,40 1788,70 1788,55 1790,55" fill="rgb(255,255,255)" fill-opacity="1.0" stroke="rgb(0,0,0)" stroke-width="2"  />
			<g>
				<title>DUF1702 (PF08012)
"Protein of unknown function (DUF1702)"</title>
				<polygon class="PF08012" points="1762,40 1774,28 1789,28 1789,52 1774,52" stroke-linejoin="round" width="31" height="24" fill="rgb(115,74,184)" stroke="rgb(92,59,147)" stroke-width="1" opacity="0.75" />
			</g>
		</g>
		<g>
			<title>
unknown</title>
			<polygon class="
unknown" points="1794,40 1808,10 1808,70" fill="rgb(255,255,255)" fill-opacity="1.0" stroke="rgb(0,0,0)" stroke-width="2"  />
			<g>
				<title>HxlR (PF01638)
"HxlR-like helix-turn-helix"</title>
				<polygon class="PF01638" points="1798,38 1803,28 1806,28 1806,52 1803,52 1798,42" stroke-linejoin="round" width="8" height="24" fill="rgb(211,96,80)" stroke="rgb(168,76,64)" stroke-width="1" opacity="0.75" />
			</g>
		</g>
		<g>
			<title>
transposase</title>
			<polygon class="
transposase" points="1818,25 1828,25 1828,10 1858,40 1828,70 1828,55 1818,55" fill="rgb(255,255,255)" fill-opacity="1.0" stroke="rgb(0,0,0)" stroke-width="2"  />
			<g>
				<title>OrfB_IS605 (PF01385)
"Probable transposase"</title>
				<polygon class="PF01385" points="1835,28 1841,28 1847,34 1847,46 1841,52 1835,52" stroke-linejoin="round" width="12" height="24" fill="rgb(72,105,193)" stroke="rgb(57,83,154)" stroke-width="1" opacity="0.75" />
			</g>
			<g>
				<title>OrfB_Zn_ribbon (PF07282)
"Putative transposase DNA-binding domain"</title>
				<polygon class="PF07282" points="1848,35 1853,40 1848,45" stroke-linejoin="round" width="6" height="24" fill="rgb(87,151,203)" stroke="rgb(69,120,162)" stroke-width="1" opacity="0.75" />
			</g>
		</g>
		<g>
			<title>
transcriptional regulator</title>
			<polygon class="
transcriptional regulator" points="1901,25 1892,25 1892,10 1862,40 1892,70 1892,55 1901,55" fill="rgb(255,255,255)" fill-opacity="1.0" stroke="rgb(0,0,0)" stroke-width="2"  />
			<g>
				<title>DDE_5 (PF13546)
"DDE superfamily endonuclease"</title>
				<polygon class="PF13546" points="1871,35 1878,28 1898,28 1898,52 1878,52 1871,45" stroke-linejoin="round" width="27" height="24" fill="rgb(114,214,85)" stroke="rgb(91,171,68)" stroke-width="1" opacity="0.75" />
			</g>
		</g>
		<g>
			<title>
transcriptional regulator</title>
			<polygon class="
transcriptional regulator" points="1912,10 1932,40 1912,70" fill="rgb(255,255,255)" fill-opacity="1.0" stroke="rgb(0,0,0)" stroke-width="2"  />
			<g>
				<title>TetR_N (PF00440)
"Bacterial regulatory proteins, tetR family"</title>
				<rect class="PF00440" x="1913" y="28" stroke-linejoin="round" width="4" height="24" fill="rgb(148,50,185)" stroke="rgb(118,40,148)" stroke-width="1" opacity="0.75" />
			</g>
		</g>
		<g>
			<title>
NDP-hexose-2,3-dehydratase</title>
			<polygon class="
NDP-hexose-2,3-dehydratase" points="1966,25 1964,25 1964,10 1934,40 1964,70 1964,55 1966,55" fill="rgb(255,255,255)" fill-opacity="1.0" stroke="rgb(0,0,0)" stroke-width="2"  />
			<g>
				<title>Epimerase (PF01370)
"NAD dependent epimerase/dehydratase family"</title>
				<polygon class="PF01370" points="1944,34 1950,28 1966,28 1966,52 1950,52 1944,46" stroke-linejoin="round" width="22" height="24" fill="rgb(215,89,157)" stroke="rgb(172,71,125)" stroke-width="1" opacity="0.75" />
			</g>
		</g>
		<g>
			<title>
butyrolactone receptor</title>
			<polygon class="
butyrolactone receptor" points="1967,40 1987,10 1987,70" fill="rgb(255,255,255)" fill-opacity="1.0" stroke="rgb(0,0,0)" stroke-width="2"  />
			<g>
				<title>TetR_N (PF00440)
"Bacterial regulatory proteins, tetR family"</title>
				<rect class="PF00440" x="1981" y="28" stroke-linejoin="round" width="4" height="24" fill="rgb(148,50,185)" stroke="rgb(118,40,148)" stroke-width="1" opacity="0.75" />
			</g>
		</g>
		<g>
			<title>
transcriptional regulator</title>
			<polygon class="
transcriptional regulator" points="1991,25 1992,25 1992,10 2022,40 1992,70 1992,55 1991,55" fill="rgb(255,255,255)" fill-opacity="1.0" stroke="rgb(0,0,0)" stroke-width="2"  />
			<g>
				<title>AfsA (PF03756)
"A-factor biosynthesis hotdog domain"</title>
				<rect class="PF03756" x="1993" y="28" stroke-linejoin="round" width="13" height="24" fill="rgb(125,65,225)" stroke="rgb(100,52,180)" stroke-width="1" opacity="0.75" />
			</g>
			<g>
				<title>AfsA (PF03756)
"A-factor biosynthesis hotdog domain"</title>
				<polygon class="PF03756" points="2010,32 2018,40 2010,48" stroke-linejoin="round" width="11" height="24" fill="rgb(125,65,225)" stroke="rgb(100,52,180)" stroke-width="1" opacity="0.75" />
			</g>
		</g>
		<g>
			<title>
unknown</title>
			<polygon class="
unknown" points="2034,40 2060,10 2060,70" fill="rgb(255,255,255)" fill-opacity="1.0" stroke="rgb(0,0,0)" stroke-width="2"  />
			<g>
				<title>DUF6008 (PF19471)
"Family of unknown function (DUF6008)"</title>
				<polygon class="PF19471" points="2038,40 2049,28 2060,28 2060,52 2049,52" stroke-linejoin="round" width="25" height="24" fill="rgb(55,63,216)" stroke="rgb(44,50,172)" stroke-width="1" opacity="0.75" />
			</g>
		</g>
		<g>
			<title>
unknown</title>
			<polygon class="
unknown" points="2096,25 2094,25 2094,10 2064,40 2094,70 2094,55 2096,55" fill="rgb(255,255,255)" fill-opacity="1.0" stroke="rgb(0,0,0)" stroke-width="2"  />
		</g>
	</g>
</svg>
