<svg version="1.1" baseProfile="full" xmlns="http://www.w3.org/2000/svg" width="637.9666666666667" height="80">
	<g>
		<line x1="10" y1="40.0" x2="627.9666666666667" y2="40.0" style="stroke:rgb(70,70,70); stroke-width:3 "/>
		<g>
			<title> (VF_0841)
dehydrogenase</title>
			<polygon class=" (VF_0841)
dehydrogenase" points="51,25 40,25 40,10 10,40 40,70 40,55 51,55" fill="rgb(255,255,255)" fill-opacity="1.0" stroke="rgb(0,0,0)" stroke-width="2"  />
			<g>
				<title>Trp_halogenase (PF04820)
"Tryptophan halogenase"</title>
				<polygon class="PF04820" points="14,40 26,28 42,28 42,52 26,52 14,40" stroke-linejoin="round" width="28" height="24" fill="rgb(175,201,66)" stroke="rgb(139,160,52)" stroke-width="1" opacity="0.75" />
			</g>
		</g>
		<g>
			<title> (VF_0842)
putative O-methyltransferase</title>
			<polygon class=" (VF_0842)
putative O-methyltransferase" points="89,25 84,25 84,10 54,40 84,70 84,55 89,55" fill="rgb(255,255,255)" fill-opacity="1.0" stroke="rgb(0,0,0)" stroke-width="2"  />
			<g>
				<title>Methyltransf_2 (PF00891)
"O-methyltransferase domain"</title>
				<polygon class="PF00891" points="58,40 70,28 74,28 74,52 70,52" stroke-linejoin="round" width="18" height="24" fill="rgb(91,124,224)" stroke="rgb(72,99,179)" stroke-width="1" opacity="0.75" />
			</g>
			<g>
				<title>Dimerisation2-like_dom (PF21212)
"Dimerisation2-like domain"</title>
				<rect class="PF21212" x="80" y="28" stroke-linejoin="round" width="7" height="24" fill="rgb(166,75,179)" stroke="rgb(132,60,143)" stroke-width="1" opacity="0.75" />
			</g>
		</g>
		<g>
			<title> (VF_0843)
lipoprotein, putative</title>
			<polygon class=" (VF_0843)
lipoprotein, putative" points="93,40 112,10 112,70" fill="rgb(255,255,255)" fill-opacity="1.0" stroke="rgb(0,0,0)" stroke-width="2"  />
		</g>
		<g>
			<title> (VF_0844)
hypothetical protein</title>
			<polygon class=" (VF_0844)
hypothetical protein" points="116,10 140,40 116,70" fill="rgb(255,255,255)" fill-opacity="1.0" stroke="rgb(0,0,0)" stroke-width="2"  />
			<g>
				<title>Ketoacyl-synt_2 (PF13723)
"Beta-ketoacyl synthase, N-terminal domain"</title>
				<polygon class="PF13723" points="118,28 127,28 136,40 127,52 118,52" stroke-linejoin="round" width="21" height="24" fill="rgb(206,180,54)" stroke="rgb(164,144,43)" stroke-width="1" opacity="0.75" />
			</g>
		</g>
		<g>
			<title> (VF_0845)
1-acyl-sn-glycerol-3-phosphate acyltransferase</title>
			<polygon class=" (VF_0845)
1-acyl-sn-glycerol-3-phosphate acyltransferase" points="141,10 167,40 141,70" fill="rgb(255,255,255)" fill-opacity="1.0" stroke="rgb(0,0,0)" stroke-width="2"  />
			<g>
				<title>Acyltransferase (PF01553)
"Acyltransferase"</title>
				<polygon class="PF01553" points="148,28 152,28 160,36 160,44 152,52 148,52" stroke-linejoin="round" width="12" height="24" fill="rgb(182,192,61)" stroke="rgb(145,153,48)" stroke-width="1" opacity="0.75" />
			</g>
		</g>
		<g>
			<title> (VF_0846)
acyl carrier protein</title>
			<polygon class=" (VF_0846)
acyl carrier protein" points="166,10 175,40 166,70" fill="rgb(255,255,255)" fill-opacity="1.0" stroke="rgb(0,0,0)" stroke-width="2"  />
		</g>
		<g>
			<title> (VF_0847)
acyl carrier protein</title>
			<polygon class=" (VF_0847)
acyl carrier protein" points="177,10 185,40 177,70" fill="rgb(255,255,255)" fill-opacity="1.0" stroke="rgb(0,0,0)" stroke-width="2"  />
			<g>
				<title>PP-binding (PF00550)
"Phosphopantetheine attachment site"</title>
				<polygon class="PF00550" points="178,28 178,28 182,40 178,52 178,52" stroke-linejoin="round" width="6" height="24" fill="rgb(181,58,166)" stroke="rgb(144,46,132)" stroke-width="1" opacity="0.75" />
			</g>
		</g>
		<g>
			<title> (VF_0848)
DNA gyrase subunit B</title>
			<polygon class=" (VF_0848)
DNA gyrase subunit B" points="185,10 203,40 185,70" fill="rgb(255,255,255)" fill-opacity="1.0" stroke="rgb(0,0,0)" stroke-width="2"  />
		</g>
		<g>
			<title> (VF_0849)
AMP-(fatty)acid ligase</title>
			<polygon class=" (VF_0849)
AMP-(fatty)acid ligase" points="203,25 219,25 219,10 249,40 219,70 219,55 203,55" fill="rgb(255,255,255)" fill-opacity="1.0" stroke="rgb(0,0,0)" stroke-width="2"  />
			<g>
				<title>AMP-binding (PF00501)
"AMP-binding enzyme"</title>
				<rect class="PF00501" x="205" y="28" stroke-linejoin="round" width="28" height="24" fill="rgb(189,78,204)" stroke="rgb(151,62,163)" stroke-width="1" opacity="0.75" />
			</g>
			<g>
				<title>AMP-binding_C (PF13193)
"AMP-binding enzyme C-terminal domain"</title>
				<polygon class="PF13193" points="239,34 245,40 239,46" stroke-linejoin="round" width="8" height="24" fill="rgb(195,82,106)" stroke="rgb(156,65,84)" stroke-width="1" opacity="0.75" />
			</g>
		</g>
		<g>
			<title> (VF_0850)
AMP-(fatty)acid ligase</title>
			<polygon class=" (VF_0850)
AMP-(fatty)acid ligase" points="250,10 262,40 250,70" fill="rgb(255,255,255)" fill-opacity="1.0" stroke="rgb(0,0,0)" stroke-width="2"  />
		</g>
		<g>
			<title> (VF_0851)
predicted acyltransferase</title>
			<polygon class=" (VF_0851)
predicted acyltransferase" points="262,25 288,25 288,10 318,40 288,70 288,55 262,55" fill="rgb(255,255,255)" fill-opacity="1.0" stroke="rgb(0,0,0)" stroke-width="2"  />
			<g>
				<title>Glycos_transf_2 (PF00535)
"Glycosyl transferase family 2"</title>
				<rect class="PF00535" x="262" y="28" stroke-linejoin="round" width="16" height="24" fill="rgb(197,62,212)" stroke="rgb(157,49,169)" stroke-width="1" opacity="0.75" />
			</g>
			<g>
				<title>Lip_A_acyltrans (PF03279)
"Bacterial lipid A biosynthesis acyltransferase"</title>
				<polygon class="PF03279" points="294,28 302,28 314,40 302,52 294,52" stroke-linejoin="round" width="22" height="24" fill="rgb(214,204,82)" stroke="rgb(171,163,65)" stroke-width="1" opacity="0.75" />
			</g>
		</g>
		<g>
			<title> (VF_0852)
phenylalanine and histidine ammonia-lyase</title>
			<polygon class=" (VF_0852)
phenylalanine and histidine ammonia-lyase" points="318,25 339,25 339,10 369,40 339,70 339,55 318,55" fill="rgb(255,255,255)" fill-opacity="1.0" stroke="rgb(0,0,0)" stroke-width="2"  />
			<g>
				<title>Lyase_aromatic (PF00221)
"Aromatic amino acid lyase"</title>
				<polygon class="PF00221" points="319,28 352,28 364,40 352,52 319,52" stroke-linejoin="round" width="46" height="24" fill="rgb(198,213,89)" stroke="rgb(158,170,71)" stroke-width="1" opacity="0.75" />
			</g>
		</g>
		<g>
			<title> (VF_0853)
esterase</title>
			<polygon class=" (VF_0853)
esterase" points="370,10 384,40 370,70" fill="rgb(255,255,255)" fill-opacity="1.0" stroke="rgb(0,0,0)" stroke-width="2"  />
			<g>
				<title>4HBT_2 (PF13279)
"Thioesterase-like superfamily"</title>
				<polygon class="PF13279" points="372,28 375,28 381,40 375,52 372,52" stroke-linejoin="round" width="11" height="24" fill="rgb(108,104,213)" stroke="rgb(86,83,170)" stroke-width="1" opacity="0.75" />
			</g>
		</g>
		<g>
			<title> (VF_0854)
hypothetical protein</title>
			<polygon class=" (VF_0854)
hypothetical protein" points="385,10 405,40 385,70" fill="rgb(255,255,255)" fill-opacity="1.0" stroke="rgb(0,0,0)" stroke-width="2"  />
			<g>
				<title>LolA_3 (PF19574)
"Outer membrane lipoprotein carrier protein LolA-like"</title>
				<polygon class="PF19574" points="387,28 393,28 402,40 393,52 387,52" stroke-linejoin="round" width="18" height="24" fill="rgb(100,149,210)" stroke="rgb(80,119,168)" stroke-width="1" opacity="0.75" />
			</g>
		</g>
		<g>
			<title> (VF_0855)
transporter</title>
			<polygon class=" (VF_0855)
transporter" points="423,25 456,25 456,10 486,40 456,70 456,55 423,55" fill="rgb(255,255,255)" fill-opacity="1.0" stroke="rgb(0,0,0)" stroke-width="2"  />
			<g>
				<title>MMPL (PF03176)
"MMPL family"</title>
				<rect class="PF03176" x="426" y="28" stroke-linejoin="round" width="24" height="24" fill="rgb(62,125,229)" stroke="rgb(49,99,183)" stroke-width="1" opacity="0.75" />
			</g>
			<g>
				<title>MMPL (PF03176)
"MMPL family"</title>
				<polygon class="PF03176" points="469,28 469,28 481,40 469,52 469,52" stroke-linejoin="round" width="14" height="24" fill="rgb(62,125,229)" stroke="rgb(49,99,183)" stroke-width="1" opacity="0.75" />
			</g>
		</g>
		<g>
			<title> (VF_0856)
phospho-N-acetylmuramoyl-pentapeptide- transferase</title>
			<polygon class=" (VF_0856)
phospho-N-acetylmuramoyl-pentapeptide- transferase" points="486,10 506,40 486,70" fill="rgb(255,255,255)" fill-opacity="1.0" stroke="rgb(0,0,0)" stroke-width="2"  />
			<g>
				<title>DUF3261 (PF11659)
"Protein of unknown function (DUF3261)"</title>
				<polygon class="PF11659" points="491,28 495,28 503,40 495,52 491,52" stroke-linejoin="round" width="14" height="24" fill="rgb(89,187,194)" stroke="rgb(71,149,155)" stroke-width="1" opacity="0.75" />
			</g>
		</g>
		<g>
			<title> (VF_0857)
3-oxoacyl-(acyl carrier protein) synthase</title>
			<polygon class=" (VF_0857)
3-oxoacyl-(acyl carrier protein) synthase" points="507,25 516,25 516,10 546,40 516,70 516,55 507,55" fill="rgb(255,255,255)" fill-opacity="1.0" stroke="rgb(0,0,0)" stroke-width="2"  />
			<g>
				<title>ketoacyl-synt (PF00109)
"Beta-ketoacyl synthase, N-terminal domain"</title>
				<rect class="PF00109" x="513" y="28" stroke-linejoin="round" width="16" height="24" fill="rgb(74,179,82)" stroke="rgb(59,143,65)" stroke-width="1" opacity="0.75" />
			</g>
			<g>
				<title>Ketoacyl-synt_C (PF02801)
"Beta-ketoacyl synthase, C-terminal domain"</title>
				<polygon class="PF02801" points="531,29 541,39 541,41 531,51" stroke-linejoin="round" width="10" height="24" fill="rgb(212,79,72)" stroke="rgb(169,63,57)" stroke-width="1" opacity="0.75" />
			</g>
		</g>
		<g>
			<title> (VF_0858)
predicted 3-hydroxylacyl-(acyl carrier protein) dehydratase</title>
			<polygon class=" (VF_0858)
predicted 3-hydroxylacyl-(acyl carrier protein) dehydratase" points="546,10 561,40 546,70" fill="rgb(255,255,255)" fill-opacity="1.0" stroke="rgb(0,0,0)" stroke-width="2"  />
		</g>
		<g>
			<title> (VF_0859)
3-oxoacyl-(acyl-carrier-protein) reductase, putative</title>
			<polygon class=" (VF_0859)
3-oxoacyl-(acyl-carrier-protein) reductase, putative" points="562,10 586,40 562,70" fill="rgb(255,255,255)" fill-opacity="1.0" stroke="rgb(0,0,0)" stroke-width="2"  />
			<g>
				<title>adh_short_C2 (PF13561)
"Enoyl-(Acyl carrier protein) reductase"</title>
				<polygon class="PF13561" points="562,28 573,28 582,40 573,52 562,52" stroke-linejoin="round" width="23" height="24" fill="rgb(79,221,209)" stroke="rgb(63,176,167)" stroke-width="1" opacity="0.75" />
			</g>
		</g>
		<g>
			<title> (VF_0860)
3-oxoacyl-(acyl carrier protein) synthase</title>
			<polygon class=" (VF_0860)
3-oxoacyl-(acyl carrier protein) synthase" points="586,25 597,25 597,10 627,40 597,70 597,55 586,55" fill="rgb(255,255,255)" fill-opacity="1.0" stroke="rgb(0,0,0)" stroke-width="2"  />
			<g>
				<title>ketoacyl-synt (PF00109)
"Beta-ketoacyl synthase, N-terminal domain"</title>
				<rect class="PF00109" x="586" y="28" stroke-linejoin="round" width="24" height="24" fill="rgb(74,179,82)" stroke="rgb(59,143,65)" stroke-width="1" opacity="0.75" />
			</g>
			<g>
				<title>Ketoacyl-synt_C (PF02801)
"Beta-ketoacyl synthase, C-terminal domain"</title>
				<polygon class="PF02801" points="611,29 622,40 622,40 611,51" stroke-linejoin="round" width="11" height="24" fill="rgb(212,79,72)" stroke="rgb(169,63,57)" stroke-width="1" opacity="0.75" />
			</g>
		</g>
	</g>
</svg>
