<svg version="1.1" baseProfile="full" xmlns="http://www.w3.org/2000/svg" width="494.8" height="80">
	<g>
		<line x1="10" y1="40.0" x2="484.8" y2="40.0" style="stroke:rgb(70,70,70); stroke-width:3 "/>
		<g>
			<title>ltc74
serine/threonine protein kinase</title>
			<polygon class="ltc74
serine/threonine protein kinase" points="10,25 65,25 65,10 95,40 65,70 65,55 10,55" fill="rgb(255,255,255)" fill-opacity="1.0" stroke="rgb(0,0,0)" stroke-width="2"  />
			<g>
				<title>Pkinase (PF00069)
"Protein kinase domain"</title>
				<rect class="PF00069" x="31" y="28" stroke-linejoin="round" width="26" height="24" fill="rgb(93,191,206)" stroke="rgb(74,152,164)" stroke-width="1" opacity="0.75" />
			</g>
			<g>
				<title>LANC_like (PF05147)
"Lanthionine synthetase C-like protein"</title>
				<polygon class="PF05147" points="63,28 79,28 90,39 90,41 79,52 63,52" stroke-linejoin="round" width="27" height="24" fill="rgb(91,189,96)" stroke="rgb(72,151,76)" stroke-width="1" opacity="0.75" />
			</g>
		</g>
		<g>
			<title>lazA
lactazole precursor peptide</title>
			<polygon class="lazA
lactazole precursor peptide" points="109,10 114,40 109,70" fill="rgb(255,255,255)" fill-opacity="1.0" stroke="rgb(0,0,0)" stroke-width="2"  />
			<g>
				<title>Thiopep_pre (PF19409)
"Thiopeptide-type bacteriocin precursor"</title>
				<polygon class="PF19409" points="111,37 111,40 111,43" stroke-linejoin="round" width="3" height="24" fill="rgb(183,46,49)" stroke="rgb(146,36,39)" stroke-width="1" opacity="0.75" />
			</g>
		</g>
		<g>
			<title>lazB
lantibiotic-type dehydratase</title>
			<polygon class="lazB
lantibiotic-type dehydratase" points="122,25 180,25 180,10 210,40 180,70 180,55 122,55" fill="rgb(255,255,255)" fill-opacity="1.0" stroke="rgb(0,0,0)" stroke-width="2"  />
			<g>
				<title>Lant_dehydr_N (PF04738)
"Lantibiotic dehydratase, N terminus"</title>
				<rect class="PF04738" x="137" y="28" stroke-linejoin="round" width="51" height="24" fill="rgb(191,60,69)" stroke="rgb(152,48,55)" stroke-width="1" opacity="0.75" />
			</g>
			<g>
				<title>Lant_dehydr_N (PF04738)
"Lantibiotic dehydratase, N terminus"</title>
				<polygon class="PF04738" points="192,28 193,28 199,34 199,46 193,52 192,52" stroke-linejoin="round" width="7" height="24" fill="rgb(191,60,69)" stroke="rgb(152,48,55)" stroke-width="1" opacity="0.75" />
			</g>
		</g>
		<g>
			<title>lazC
lantibiotic-type dehydratase</title>
			<polygon class="lazC
lantibiotic-type dehydratase" points="210,25 220,25 220,10 250,40 220,70 220,55 210,55" fill="rgb(255,255,255)" fill-opacity="1.0" stroke="rgb(0,0,0)" stroke-width="2"  />
			<g>
				<title>Lant_dehydr_C (PF14028)
"Lantibiotic biosynthesis dehydratase C-term"</title>
				<polygon class="PF14028" points="211,28 234,28 246,40 246,40 234,52 211,52" stroke-linejoin="round" width="35" height="24" fill="rgb(195,82,58)" stroke="rgb(156,65,46)" stroke-width="1" opacity="0.75" />
			</g>
		</g>
		<g>
			<title>lazD
hypothetical protein</title>
			<polygon class="lazD
hypothetical protein" points="250,25 276,25 276,10 306,40 276,70 276,55 250,55" fill="rgb(255,255,255)" fill-opacity="1.0" stroke="rgb(0,0,0)" stroke-width="2"  />
		</g>
		<g>
			<title>lazE
cyclodehydratase</title>
			<polygon class="lazE
cyclodehydratase" points="307,25 345,25 345,10 375,40 345,70 345,55 307,55" fill="rgb(255,255,255)" fill-opacity="1.0" stroke="rgb(0,0,0)" stroke-width="2"  />
			<g>
				<title>YcaO (PF02624)
"YcaO cyclodehydratase, ATP-ad Mg2+-binding"</title>
				<polygon class="PF02624" points="336,28 359,28 371,40 371,40 359,52 336,52" stroke-linejoin="round" width="35" height="24" fill="rgb(69,185,74)" stroke="rgb(55,148,59)" stroke-width="1" opacity="0.75" />
			</g>
		</g>
		<g>
			<title>lazF
dehydrogenase</title>
			<polygon class="lazF
dehydrogenase" points="378,25 403,25 403,10 433,40 403,70 403,55 378,55" fill="rgb(255,255,255)" fill-opacity="1.0" stroke="rgb(0,0,0)" stroke-width="2"  />
			<g>
				<title>Lant_dehydr_C (PF14028)
"Lantibiotic biosynthesis dehydratase C-term"</title>
				<rect class="PF14028" x="379" y="28" stroke-linejoin="round" width="28" height="24" fill="rgb(195,82,58)" stroke="rgb(156,65,46)" stroke-width="1" opacity="0.75" />
			</g>
			<g>
				<title>Nitroreductase (PF00881)
"Nitroreductase family"</title>
				<polygon class="PF00881" points="414,28 417,28 429,40 417,52 414,52" stroke-linejoin="round" width="18" height="24" fill="rgb(106,62,184)" stroke="rgb(84,49,147)" stroke-width="1" opacity="0.75" />
			</g>
		</g>
		<g>
			<title>ltc66
peptidase</title>
			<polygon class="ltc66
peptidase" points="442,40 453,10 453,70" fill="rgb(255,255,255)" fill-opacity="1.0" stroke="rgb(0,0,0)" stroke-width="2"  />
		</g>
		<g>
			<title>ltc65
creatininase</title>
			<polygon class="ltc65
creatininase" points="457,40 484,10 484,70" fill="rgb(255,255,255)" fill-opacity="1.0" stroke="rgb(0,0,0)" stroke-width="2"  />
			<g>
				<title>Creatininase (PF02633)
"Creatinine amidohydrolase"</title>
				<polygon class="PF02633" points="461,40 472,28 482,28 482,52 472,52" stroke-linejoin="round" width="25" height="24" fill="rgb(220,82,191)" stroke="rgb(176,65,152)" stroke-width="1" opacity="0.75" />
			</g>
		</g>
	</g>
</svg>
