<svg version="1.1" baseProfile="full" xmlns="http://www.w3.org/2000/svg" width="507.23333333333335" height="80">
	<g>
		<line x1="10" y1="40.0" x2="497.23333333333335" y2="40.0" style="stroke:rgb(70,70,70); stroke-width:3 "/>
		<g>
			<title>toyA
ToyA</title>
			<polygon class="toyA
ToyA" points="48,25 114,25 114,10 144,40 114,70 114,55 48,55" fill="rgb(255,255,255)" fill-opacity="1.0" stroke="rgb(0,0,0)" stroke-width="2"  />
			<g>
				<title>AAA_16 (PF13191)
"AAA ATPase domain"</title>
				<rect class="PF13191" x="50" y="28" stroke-linejoin="round" width="16" height="24" fill="rgb(88,106,197)" stroke="rgb(70,84,157)" stroke-width="1" opacity="0.75" />
			</g>
			<g>
				<title>GerE (PF00196)
"Bacterial regulatory proteins, luxR family"</title>
				<polygon class="PF00196" points="136,37 139,40 136,43" stroke-linejoin="round" width="5" height="24" fill="rgb(225,67,110)" stroke="rgb(180,53,88)" stroke-width="1" opacity="0.75" />
			</g>
		</g>
		<g>
			<title>toyB
ToyB</title>
			<polygon class="toyB
ToyB" points="153,10 166,40 153,70" fill="rgb(255,255,255)" fill-opacity="1.0" stroke="rgb(0,0,0)" stroke-width="2"  />
			<g>
				<title>PTPS (PF01242)
"6-pyruvoyl tetrahydropterin synthase"</title>
				<polygon class="PF01242" points="154,28 157,28 162,40 157,52 154,52" stroke-linejoin="round" width="11" height="24" fill="rgb(60,110,179)" stroke="rgb(47,88,143)" stroke-width="1" opacity="0.75" />
			</g>
		</g>
		<g>
			<title>toyD
ToyD</title>
			<polygon class="toyD
ToyD" points="192,10 212,40 192,70" fill="rgb(255,255,255)" fill-opacity="1.0" stroke="rgb(0,0,0)" stroke-width="2"  />
			<g>
				<title>GTP_cyclohydroI (PF01227)
"GTP cyclohydrolase I"</title>
				<polygon class="PF01227" points="194,28 200,28 208,40 200,52 194,52" stroke-linejoin="round" width="17" height="24" fill="rgb(213,170,87)" stroke="rgb(170,136,69)" stroke-width="1" opacity="0.75" />
			</g>
		</g>
		<g>
			<title>toyE
ToyE</title>
			<polygon class="toyE
ToyE" points="215,25 223,25 223,10 253,40 223,70 223,55 215,55" fill="rgb(255,255,255)" fill-opacity="1.0" stroke="rgb(0,0,0)" stroke-width="2"  />
			<g>
				<title>IMPDH (PF00478)
"IMP dehydrogenase / GMP reductase domain"</title>
				<polygon class="PF00478" points="216,28 237,28 249,40 237,52 216,52" stroke-linejoin="round" width="35" height="24" fill="rgb(176,64,180)" stroke="rgb(140,51,144)" stroke-width="1" opacity="0.75" />
			</g>
		</g>
		<g>
			<title>toyF
ToyF</title>
			<polygon class="toyF
ToyF" points="253,25 268,25 268,10 298,40 268,70 268,55 253,55" fill="rgb(255,255,255)" fill-opacity="1.0" stroke="rgb(0,0,0)" stroke-width="2"  />
			<g>
				<title>Lyase_1 (PF00206)
"Lyase"</title>
				<polygon class="PF00206" points="253,28 281,28 282,29 282,51 281,52 253,52" stroke-linejoin="round" width="29" height="24" fill="rgb(125,214,85)" stroke="rgb(99,171,68)" stroke-width="1" opacity="0.75" />
			</g>
			<g>
				<title>ADSL_C (PF10397)
"Adenylosuccinate lyase C-terminus"</title>
				<polygon class="PF10397" points="289,36 293,40 289,44" stroke-linejoin="round" width="7" height="24" fill="rgb(95,182,229)" stroke="rgb(76,145,183)" stroke-width="1" opacity="0.75" />
			</g>
		</g>
		<g>
			<title>toyG
ToyG</title>
			<polygon class="toyG
ToyG" points="299,25 304,25 304,10 334,40 304,70 304,55 299,55" fill="rgb(255,255,255)" fill-opacity="1.0" stroke="rgb(0,0,0)" stroke-width="2"  />
			<g>
				<title>Adenylsucc_synt (PF00709)
"Adenylosuccinate synthetase"</title>
				<rect class="PF00709" x="299" y="28" stroke-linejoin="round" width="14" height="24" fill="rgb(176,210,71)" stroke="rgb(140,168,56)" stroke-width="1" opacity="0.75" />
			</g>
			<g>
				<title>Adenylsucc_synt (PF00709)
"Adenylosuccinate synthetase"</title>
				<polygon class="PF00709" points="313,28 317,28 327,38 327,42 317,52 313,52" stroke-linejoin="round" width="14" height="24" fill="rgb(176,210,71)" stroke="rgb(140,168,56)" stroke-width="1" opacity="0.75" />
			</g>
		</g>
		<g>
			<title>toyH
ToyH</title>
			<polygon class="toyH
ToyH" points="334,10 351,40 334,70" fill="rgb(255,255,255)" fill-opacity="1.0" stroke="rgb(0,0,0)" stroke-width="2"  />
			<g>
				<title>Pribosyltran (PF00156)
"Phosphoribosyl transferase domain"</title>
				<polygon class="PF00156" points="335,28 341,28 348,40 341,52 335,52" stroke-linejoin="round" width="14" height="24" fill="rgb(60,186,99)" stroke="rgb(48,148,79)" stroke-width="1" opacity="0.75" />
			</g>
		</g>
		<g>
			<title>toyI
ToyI</title>
			<polygon class="toyI
ToyI" points="351,10 375,40 351,70" fill="rgb(255,255,255)" fill-opacity="1.0" stroke="rgb(0,0,0)" stroke-width="2"  />
			<g>
				<title>Hydrolase (PF00702)
"haloacid dehalogenase-like hydrolase"</title>
				<polygon class="PF00702" points="353,28 362,28 370,39 370,41 362,52 353,52" stroke-linejoin="round" width="17" height="24" fill="rgb(133,222,86)" stroke="rgb(106,177,68)" stroke-width="1" opacity="0.75" />
			</g>
		</g>
		<g>
			<title>toyJ
ToyJ</title>
			<polygon class="toyJ
ToyJ" points="379,40 398,10 398,70" fill="rgb(255,255,255)" fill-opacity="1.0" stroke="rgb(0,0,0)" stroke-width="2"  />
			<g>
				<title>NHase_alpha (PF02979)
"Nitrile hydratase, alpha chain"</title>
				<polygon class="PF02979" points="383,40 391,28 397,28 397,52 391,52" stroke-linejoin="round" width="18" height="24" fill="rgb(187,166,47)" stroke="rgb(149,132,37)" stroke-width="1" opacity="0.75" />
			</g>
		</g>
		<g>
			<title>toyK
ToyK</title>
			<polygon class="toyK
ToyK" points="399,40 409,10 409,70" fill="rgb(255,255,255)" fill-opacity="1.0" stroke="rgb(0,0,0)" stroke-width="2"  />
			<g>
				<title>NHase_beta_C (PF02211)
"Nitrile hydratase beta subunit, C-terminal"</title>
				<polygon class="PF02211" points="402,40 406,28 408,28 408,52 406,52" stroke-linejoin="round" width="8" height="24" fill="rgb(55,217,122)" stroke="rgb(44,173,97)" stroke-width="1" opacity="0.75" />
			</g>
		</g>
		<g>
			<title>toyL
ToyL</title>
			<polygon class="toyL
ToyL" points="409,40 418,10 418,70" fill="rgb(255,255,255)" fill-opacity="1.0" stroke="rgb(0,0,0)" stroke-width="2"  />
			<g>
				<title>NHase_beta_N (PF21006)
"Nitrile hydratase beta subunit, N-terminal"</title>
				<polygon class="PF21006" points="412,40 416,28 418,28 418,52 416,52" stroke-linejoin="round" width="9" height="24" fill="rgb(223,85,170)" stroke="rgb(178,67,136)" stroke-width="1" opacity="0.75" />
			</g>
		</g>
		<g>
			<title>toyM
ToyM</title>
			<polygon class="toyM
ToyM" points="418,40 441,10 441,70" fill="rgb(255,255,255)" fill-opacity="1.0" stroke="rgb(0,0,0)" stroke-width="2"  />
			<g>
				<title>QueC (PF06508)
"Queuosine biosynthesis protein QueC"</title>
				<polygon class="PF06508" points="422,40 432,28 439,28 439,52 432,52" stroke-linejoin="round" width="20" height="24" fill="rgb(186,127,52)" stroke="rgb(148,101,41)" stroke-width="1" opacity="0.75" />
			</g>
		</g>
	</g>
</svg>
