<svg version="1.1" baseProfile="full" xmlns="http://www.w3.org/2000/svg" width="483.3666666666667" height="80">
	<g>
		<line x1="10" y1="40.0" x2="473.3666666666667" y2="40.0" style="stroke:rgb(70,70,70); stroke-width:3 "/>
		<g>
			<title>
Orf11</title>
			<polygon class="
Orf11" points="10,10 14,40 10,70" fill="rgb(255,255,255)" fill-opacity="1.0" stroke="rgb(0,0,0)" stroke-width="2"  />
		</g>
		<g>
			<title>
Orf12</title>
			<polygon class="
Orf12" points="22,25 37,25 37,10 67,40 37,70 37,55 22,55" fill="rgb(255,255,255)" fill-opacity="1.0" stroke="rgb(0,0,0)" stroke-width="2"  />
			<g>
				<title>ORF_12_N (PF18042)
"ORF 12 gene product N-terminal"</title>
				<rect class="PF18042" x="24" y="28" stroke-linejoin="round" width="9" height="24" fill="rgb(169,93,196)" stroke="rgb(135,74,156)" stroke-width="1" opacity="0.75" />
			</g>
			<g>
				<title>Beta-lactamase2 (PF13354)
"Beta-lactamase enzyme family"</title>
				<polygon class="PF13354" points="36,28 51,28 56,33 56,47 51,52 36,52" stroke-linejoin="round" width="20" height="24" fill="rgb(210,90,135)" stroke="rgb(168,72,108)" stroke-width="1" opacity="0.75" />
			</g>
		</g>
		<g>
			<title>
Orf13</title>
			<polygon class="
Orf13" points="67,25 71,25 71,10 101,40 71,70 71,55 67,55" fill="rgb(255,255,255)" fill-opacity="1.0" stroke="rgb(0,0,0)" stroke-width="2"  />
			<g>
				<title>EamA (PF00892)
"EamA-like transporter family"</title>
				<rect class="PF00892" x="67" y="28" stroke-linejoin="round" width="12" height="24" fill="rgb(202,125,98)" stroke="rgb(161,100,78)" stroke-width="1" opacity="0.75" />
			</g>
			<g>
				<title>EamA (PF00892)
"EamA-like transporter family"</title>
				<polygon class="PF00892" points="80,28 84,28 94,38 94,42 84,52 80,52" stroke-linejoin="round" width="14" height="24" fill="rgb(202,125,98)" stroke="rgb(161,100,78)" stroke-width="1" opacity="0.75" />
			</g>
		</g>
		<g>
			<title>
Orf14</title>
			<polygon class="
Orf14" points="134,25 130,25 130,10 100,40 130,70 130,55 134,55" fill="rgb(255,255,255)" fill-opacity="1.0" stroke="rgb(0,0,0)" stroke-width="2"  />
			<g>
				<title>Acetyltransf_1 (PF00583)
"Acetyltransferase (GNAT) family"</title>
				<polygon class="PF00583" points="104,40 112,32 112,48" stroke-linejoin="round" width="11" height="24" fill="rgb(91,221,217)" stroke="rgb(72,176,173)" stroke-width="1" opacity="0.75" />
			</g>
			<g>
				<title>Acetyltransf_1 (PF00583)
"Acetyltransferase (GNAT) family"</title>
				<rect class="PF00583" x="120" y="28" stroke-linejoin="round" width="10" height="24" fill="rgb(91,221,217)" stroke="rgb(72,176,173)" stroke-width="1" opacity="0.75" />
			</g>
		</g>
		<g>
			<title>
Orf15</title>
			<polygon class="
Orf15" points="193,25 167,25 167,10 137,40 167,70 167,55 193,55" fill="rgb(255,255,255)" fill-opacity="1.0" stroke="rgb(0,0,0)" stroke-width="2"  />
			<g>
				<title>SBP_bac_5 (PF00496)
"Bacterial extracellular solute-binding proteins, family 5 Middle"</title>
				<polygon class="PF00496" points="145,36 153,28 184,28 184,52 153,52 145,44" stroke-linejoin="round" width="39" height="24" fill="rgb(178,74,116)" stroke="rgb(142,59,92)" stroke-width="1" opacity="0.75" />
			</g>
		</g>
		<g>
			<title>
Orf16</title>
			<polygon class="
Orf16" points="233,25 223,25 223,10 193,40 223,70 223,55 233,55" fill="rgb(255,255,255)" fill-opacity="1.0" stroke="rgb(0,0,0)" stroke-width="2"  />
			<g>
				<title>FemAB_like (PF04339)
"Peptidogalycan biosysnthesis/recognition"</title>
				<polygon class="PF04339" points="197,40 209,28 218,28 218,52 209,52" stroke-linejoin="round" width="24" height="24" fill="rgb(88,178,88)" stroke="rgb(70,142,70)" stroke-width="1" opacity="0.75" />
			</g>
		</g>
		<g>
			<title>
Orf17</title>
			<polygon class="
Orf17" points="276,25 263,25 263,10 233,40 263,70 263,55 276,55" fill="rgb(255,255,255)" fill-opacity="1.0" stroke="rgb(0,0,0)" stroke-width="2"  />
			<g>
				<title>LAL_C2 (PF18603)
"L-amino acid ligase C-terminal domain 2"</title>
				<polygon class="PF18603" points="237,40 241,36 241,44" stroke-linejoin="round" width="7" height="24" fill="rgb(135,203,91)" stroke="rgb(107,162,72)" stroke-width="1" opacity="0.75" />
			</g>
			<g>
				<title>ATP-grasp_4 (PF13535)
"ATP-grasp domain"</title>
				<polygon class="PF13535" points="245,32 249,28 260,28 260,52 249,52 245,48" stroke-linejoin="round" width="15" height="24" fill="rgb(82,135,191)" stroke="rgb(65,107,152)" stroke-width="1" opacity="0.75" />
			</g>
			<g>
				<title>ATPgrasp_N (PF18130)
"ATP-grasp N-terminal domain"</title>
				<rect class="PF18130" x="265" y="28" stroke-linejoin="round" width="8" height="24" fill="rgb(185,142,81)" stroke="rgb(148,113,64)" stroke-width="1" opacity="0.75" />
			</g>
		</g>
		<g>
			<title>
Orf18</title>
			<polygon class="
Orf18" points="335,25 316,25 316,10 286,40 316,70 316,55 335,55" fill="rgb(255,255,255)" fill-opacity="1.0" stroke="rgb(0,0,0)" stroke-width="2"  />
			<g>
				<title>Transpeptidase (PF00905)
"Penicillin binding protein transpeptidase domain"</title>
				<polygon class="PF00905" points="290,40 302,28 319,28 319,52 302,52" stroke-linejoin="round" width="33" height="24" fill="rgb(76,221,178)" stroke="rgb(60,176,142)" stroke-width="1" opacity="0.75" />
			</g>
		</g>
		<g>
			<title>
Orf19</title>
			<polygon class="
Orf19" points="356,25 397,25 397,10 427,40 397,70 397,55 356,55" fill="rgb(255,255,255)" fill-opacity="1.0" stroke="rgb(0,0,0)" stroke-width="2"  />
			<g>
				<title>PBP_dimer (PF03717)
"Penicillin-binding Protein dimerisation domain"</title>
				<rect class="PF03717" x="361" y="28" stroke-linejoin="round" width="18" height="24" fill="rgb(173,102,208)" stroke="rgb(138,81,166)" stroke-width="1" opacity="0.75" />
			</g>
			<g>
				<title>Transpeptidase (PF00905)
"Penicillin binding protein transpeptidase domain"</title>
				<polygon class="PF00905" points="385,28 411,28 421,38 421,42 411,52 385,52" stroke-linejoin="round" width="36" height="24" fill="rgb(76,221,178)" stroke="rgb(60,176,142)" stroke-width="1" opacity="0.75" />
			</g>
		</g>
		<g>
			<title>
Orf20</title>
			<polygon class="
Orf20" points="434,25 442,25 442,10 472,40 442,70 442,55 434,55" fill="rgb(255,255,255)" fill-opacity="1.0" stroke="rgb(0,0,0)" stroke-width="2"  />
			<g>
				<title>p450 (PF00067)
"Cytochrome P450"</title>
				<polygon class="PF00067" points="448,28 456,28 468,40 456,52 448,52" stroke-linejoin="round" width="23" height="24" fill="rgb(195,210,54)" stroke="rgb(155,168,43)" stroke-width="1" opacity="0.75" />
			</g>
		</g>
	</g>
</svg>
