<svg version="1.1" baseProfile="full" xmlns="http://www.w3.org/2000/svg" width="809.5666666666667" height="80">
	<g>
		<line x1="10" y1="40.0" x2="799.5666666666667" y2="40.0" style="stroke:rgb(70,70,70); stroke-width:3 "/>
		<g>
			<title> (Sare_3281)
Methyltransferase type 11</title>
			<polygon class=" (Sare_3281)
Methyltransferase type 11" points="10,10 38,40 10,70" fill="rgb(255,255,255)" fill-opacity="1.0" stroke="rgb(0,0,0)" stroke-width="2"  />
			<g>
				<title>Methyltransf_31 (PF13847)
"Methyltransferase domain"</title>
				<polygon class="PF13847" points="14,28 22,28 27,33 27,47 22,52 14,52" stroke-linejoin="round" width="13" height="24" fill="rgb(215,176,97)" stroke="rgb(172,140,77)" stroke-width="1" opacity="0.75" />
			</g>
		</g>
		<g>
			<title> (Sare_3282)
thioester reductase domain</title>
			<polygon class=" (Sare_3282)
thioester reductase domain" points="40,25 247,25 247,10 277,40 247,70 247,55 40,55" fill="rgb(255,255,255)" fill-opacity="1.0" stroke="rgb(0,0,0)" stroke-width="2"  />
			<g>
				<title>AMP-binding (PF00501)
"AMP-binding enzyme"</title>
				<rect class="PF00501" x="41" y="28" stroke-linejoin="round" width="36" height="24" fill="rgb(189,78,204)" stroke="rgb(151,62,163)" stroke-width="1" opacity="0.75" />
			</g>
			<g>
				<title>AMP-binding_C (PF13193)
"AMP-binding enzyme C-terminal domain"</title>
				<rect class="PF13193" x="82" y="28" stroke-linejoin="round" width="7" height="24" fill="rgb(195,82,106)" stroke="rgb(156,65,84)" stroke-width="1" opacity="0.75" />
			</g>
			<g>
				<title>PP-binding (PF00550)
"Phosphopantetheine attachment site"</title>
				<rect class="PF00550" x="95" y="28" stroke-linejoin="round" width="6" height="24" fill="rgb(181,58,166)" stroke="rgb(144,46,132)" stroke-width="1" opacity="0.75" />
			</g>
			<g>
				<title>ketoacyl-synt (PF00109)
"Beta-ketoacyl synthase, N-terminal domain"</title>
				<rect class="PF00109" x="104" y="28" stroke-linejoin="round" width="25" height="24" fill="rgb(74,179,82)" stroke="rgb(59,143,65)" stroke-width="1" opacity="0.75" />
			</g>
			<g>
				<title>Ketoacyl-synt_C (PF02801)
"Beta-ketoacyl synthase, C-terminal domain"</title>
				<rect class="PF02801" x="130" y="28" stroke-linejoin="round" width="11" height="24" fill="rgb(212,79,72)" stroke="rgb(169,63,57)" stroke-width="1" opacity="0.75" />
			</g>
			<g>
				<title>KAsynt_C_assoc (PF16197)
"Ketoacyl-synthetase C-terminal extension"</title>
				<rect class="PF16197" x="142" y="28" stroke-linejoin="round" width="11" height="24" fill="rgb(200,86,70)" stroke="rgb(160,68,56)" stroke-width="1" opacity="0.75" />
			</g>
			<g>
				<title>Acyl_transf_1 (PF00698)
"Acyl transferase domain"</title>
				<rect class="PF00698" x="158" y="28" stroke-linejoin="round" width="31" height="24" fill="rgb(132,93,193)" stroke="rgb(105,74,154)" stroke-width="1" opacity="0.75" />
			</g>
			<g>
				<title>PP-binding (PF00550)
"Phosphopantetheine attachment site"</title>
				<rect class="PF00550" x="199" y="28" stroke-linejoin="round" width="6" height="24" fill="rgb(181,58,166)" stroke="rgb(144,46,132)" stroke-width="1" opacity="0.75" />
			</g>
			<g>
				<title>NAD_binding_4 (PF07993)
"Male sterility protein"</title>
				<rect class="PF07993" x="210" y="28" stroke-linejoin="round" width="23" height="24" fill="rgb(210,94,130)" stroke="rgb(168,75,103)" stroke-width="1" opacity="0.75" />
			</g>
			<g>
				<title>Acetyltransf_7 (PF13508)
"Acetyltransferase (GNAT) domain"</title>
				<rect class="PF13508" x="252" y="28" stroke-linejoin="round" width="8" height="24" fill="rgb(224,67,82)" stroke="rgb(179,53,65)" stroke-width="1" opacity="0.75" />
			</g>
		</g>
		<g>
			<title> (Sare_3283)
asparagine synthase (glutamine-hydrolyzing)</title>
			<polygon class=" (Sare_3283)
asparagine synthase (glutamine-hydrolyzing)" points="348,25 313,25 313,10 283,40 313,70 313,55 348,55" fill="rgb(255,255,255)" fill-opacity="1.0" stroke="rgb(0,0,0)" stroke-width="2"  />
			<g>
				<title>Asn_synthase (PF00733)
"Asparagine synthase"</title>
				<polygon class="PF00733" points="287,40 299,28 323,28 323,52 299,52" stroke-linejoin="round" width="37" height="24" fill="rgb(200,91,135)" stroke="rgb(160,72,108)" stroke-width="1" opacity="0.75" />
			</g>
			<g>
				<title>GATase_7 (PF13537)
"Glutamine amidotransferase domain"</title>
				<rect class="PF13537" x="330" y="28" stroke-linejoin="round" width="12" height="24" fill="rgb(102,71,204)" stroke="rgb(81,56,163)" stroke-width="1" opacity="0.75" />
			</g>
		</g>
		<g>
			<title> (Sare_3284)
Xaa-Pro aminopeptidase</title>
			<polygon class=" (Sare_3284)
Xaa-Pro aminopeptidase" points="353,25 372,25 372,10 402,40 372,70 372,55 353,55" fill="rgb(255,255,255)" fill-opacity="1.0" stroke="rgb(0,0,0)" stroke-width="2"  />
			<g>
				<title>AMP_N (PF05195)
"Aminopeptidase P, N-terminal domain"</title>
				<rect class="PF05195" x="357" y="28" stroke-linejoin="round" width="12" height="24" fill="rgb(145,193,75)" stroke="rgb(116,154,60)" stroke-width="1" opacity="0.75" />
			</g>
			<g>
				<title>Peptidase_M24 (PF00557)
"Metallopeptidase family M24"</title>
				<polygon class="PF00557" points="375,28 386,28 398,40 398,40 386,52 375,52" stroke-linejoin="round" width="23" height="24" fill="rgb(51,195,145)" stroke="rgb(40,156,116)" stroke-width="1" opacity="0.75" />
			</g>
		</g>
		<g>
			<title> (Sare_3285)
conserved hypothetical protein</title>
			<polygon class=" (Sare_3285)
conserved hypothetical protein" points="411,25 434,25 434,10 464,40 434,70 434,55 411,55" fill="rgb(255,255,255)" fill-opacity="1.0" stroke="rgb(0,0,0)" stroke-width="2"  />
		</g>
		<g>
			<title> (Sare_3286)
hypothetical protein</title>
			<polygon class=" (Sare_3286)
hypothetical protein" points="476,25 530,25 530,10 560,40 530,70 530,55 476,55" fill="rgb(255,255,255)" fill-opacity="1.0" stroke="rgb(0,0,0)" stroke-width="2"  />
		</g>
		<g>
			<title> (Sare_3287)
conserved hypothetical protein</title>
			<polygon class=" (Sare_3287)
conserved hypothetical protein" points="566,40 585,10 585,70" fill="rgb(255,255,255)" fill-opacity="1.0" stroke="rgb(0,0,0)" stroke-width="2"  />
			<g>
				<title>DsbB (PF02600)
"Disulfide bond formation protein DsbB"</title>
				<polygon class="PF02600" points="575,32 578,28 584,28 584,52 578,52 575,48" stroke-linejoin="round" width="9" height="24" fill="rgb(128,96,208)" stroke="rgb(102,76,166)" stroke-width="1" opacity="0.75" />
			</g>
		</g>
		<g>
			<title> (Sare_3288)
hypothetical protein</title>
			<polygon class=" (Sare_3288)
hypothetical protein" points="587,40 592,10 592,70" fill="rgb(255,255,255)" fill-opacity="1.0" stroke="rgb(0,0,0)" stroke-width="2"  />
			<g>
				<title>DUF5993 (PF19455)
"Family of unknown function (DUF5993)"</title>
				<polygon class="PF19455" points="590,40 592,28 592,28 592,52 592,52" stroke-linejoin="round" width="5" height="24" fill="rgb(214,72,210)" stroke="rgb(171,57,168)" stroke-width="1" opacity="0.75" />
			</g>
		</g>
		<g>
			<title> (Sare_3289)
aconitate hydratase 1</title>
			<polygon class=" (Sare_3289)
aconitate hydratase 1" points="602,25 666,25 666,10 696,40 666,70 666,55 602,55" fill="rgb(255,255,255)" fill-opacity="1.0" stroke="rgb(0,0,0)" stroke-width="2"  />
			<g>
				<title>Aconitase (PF00330)
"Aconitase family (aconitate hydratase)"</title>
				<rect class="PF00330" x="607" y="28" stroke-linejoin="round" width="55" height="24" fill="rgb(59,203,146)" stroke="rgb(47,162,116)" stroke-width="1" opacity="0.75" />
			</g>
			<g>
				<title>Aconitase_C (PF00694)
"Aconitase C-terminal domain"</title>
				<polygon class="PF00694" points="675,28 680,28 689,37 689,43 680,52 675,52" stroke-linejoin="round" width="14" height="24" fill="rgb(93,206,89)" stroke="rgb(74,164,71)" stroke-width="1" opacity="0.75" />
			</g>
		</g>
		<g>
			<title> (Sare_3290)
conserved hypothetical protein</title>
			<polygon class=" (Sare_3290)
conserved hypothetical protein" points="703,10 711,40 703,70" fill="rgb(255,255,255)" fill-opacity="1.0" stroke="rgb(0,0,0)" stroke-width="2"  />
			<g>
				<title>DUF2630 (PF10944)
"Protein of unknown function (DUF2630)"</title>
				<polygon class="PF10944" points="703,28 704,28 708,40 704,52 703,52" stroke-linejoin="round" width="8" height="24" fill="rgb(140,71,196)" stroke="rgb(111,56,156)" stroke-width="1" opacity="0.75" />
			</g>
		</g>
		<g>
			<title> (Sare_3291)
protein of unknown function RIO1</title>
			<polygon class=" (Sare_3291)
protein of unknown function RIO1" points="746,25 746,25 746,10 716,40 746,70 746,55 746,55" fill="rgb(255,255,255)" fill-opacity="1.0" stroke="rgb(0,0,0)" stroke-width="2"  />
			<g>
				<title>RIO1 (PF01163)
"RIO1 family"</title>
				<polygon class="PF01163" points="720,40 732,28 735,28 735,52 732,52" stroke-linejoin="round" width="18" height="24" fill="rgb(183,216,84)" stroke="rgb(146,172,67)" stroke-width="1" opacity="0.75" />
			</g>
		</g>
		<g>
			<title> (Sare_3292)
HAD-superfamily hydrolase, subfamily IA, variant 1</title>
			<polygon class=" (Sare_3292)
HAD-superfamily hydrolase, subfamily IA, variant 1" points="752,40 773,10 773,70" fill="rgb(255,255,255)" fill-opacity="1.0" stroke="rgb(0,0,0)" stroke-width="2"  />
			<g>
				<title>Hydrolase (PF00702)
"haloacid dehalogenase-like hydrolase"</title>
				<polygon class="PF00702" points="756,40 765,28 772,28 772,52 765,52" stroke-linejoin="round" width="17" height="24" fill="rgb(133,222,86)" stroke="rgb(106,177,68)" stroke-width="1" opacity="0.75" />
			</g>
		</g>
		<g>
			<title> (Sare_3293)
transcriptional regulator, TetR family</title>
			<polygon class=" (Sare_3293)
transcriptional regulator, TetR family" points="780,10 799,40 780,70" fill="rgb(255,255,255)" fill-opacity="1.0" stroke="rgb(0,0,0)" stroke-width="2"  />
			<g>
				<title>TetR_N (PF00440)
"Bacterial regulatory proteins, tetR family"</title>
				<rect class="PF00440" x="781" y="28" stroke-linejoin="round" width="4" height="24" fill="rgb(148,50,185)" stroke="rgb(118,40,148)" stroke-width="1" opacity="0.75" />
			</g>
		</g>
	</g>
</svg>
