<svg version="1.1" baseProfile="full" xmlns="http://www.w3.org/2000/svg" width="1111.9666666666667" height="80">
	<g>
		<line x1="10" y1="40.0" x2="1101.9666666666667" y2="40.0" style="stroke:rgb(70,70,70); stroke-width:3 "/>
		<g>
			<title> (ATEG_00135)
conserved hypothetical protein</title>
			<polygon class=" (ATEG_00135)
conserved hypothetical protein" points="67,25 40,25 40,10 10,40 40,70 40,55 67,55" fill="rgb(255,255,255)" fill-opacity="1.0" stroke="rgb(0,0,0)" stroke-width="2"  />
			<g>
				<title>MFS_1 (PF07690)
"Major Facilitator Superfamily"</title>
				<polygon class="PF07690" points="15,39 26,28 35,28 35,52 26,52 15,41" stroke-linejoin="round" width="20" height="24" fill="rgb(228,207,98)" stroke="rgb(182,165,78)" stroke-width="1" opacity="0.75" />
			</g>
			<g>
				<title>MFS_1 (PF07690)
"Major Facilitator Superfamily"</title>
				<rect class="PF07690" x="36" y="28" stroke-linejoin="round" width="25" height="24" fill="rgb(228,207,98)" stroke="rgb(182,165,78)" stroke-width="1" opacity="0.75" />
			</g>
		</g>
		<g>
			<title> (ATEG_00136)
predicted protein</title>
			<polygon class=" (ATEG_00136)
predicted protein" points="92,40 113,10 113,70" fill="rgb(255,255,255)" fill-opacity="1.0" stroke="rgb(0,0,0)" stroke-width="2"  />
			<g>
				<title>Glyoxalase (PF00903)
"Glyoxalase/Bleomycin resistance protein/Dioxygenase superfamily"</title>
				<polygon class="PF00903" points="96,40 105,28 109,28 109,52 105,52" stroke-linejoin="round" width="14" height="24" fill="rgb(139,76,222)" stroke="rgb(111,60,177)" stroke-width="1" opacity="0.75" />
			</g>
		</g>
		<g>
			<title> (ATEG_00137)
conserved hypothetical protein</title>
			<polygon class=" (ATEG_00137)
conserved hypothetical protein" points="131,25 135,25 135,10 165,40 135,70 135,55 131,55" fill="rgb(255,255,255)" fill-opacity="1.0" stroke="rgb(0,0,0)" stroke-width="2"  />
			<g>
				<title>Epimerase (PF01370)
"NAD dependent epimerase/dehydratase family"</title>
				<polygon class="PF01370" points="132,28 148,28 157,37 157,43 148,52 132,52" stroke-linejoin="round" width="25" height="24" fill="rgb(215,89,157)" stroke="rgb(172,71,125)" stroke-width="1" opacity="0.75" />
			</g>
		</g>
		<g>
			<title> (ATEG_00138)
conserved hypothetical protein</title>
			<polygon class=" (ATEG_00138)
conserved hypothetical protein" points="233,25 260,25 260,10 290,40 260,70 260,55 233,55" fill="rgb(255,255,255)" fill-opacity="1.0" stroke="rgb(0,0,0)" stroke-width="2"  />
			<g>
				<title>MFS_1 (PF07690)
"Major Facilitator Superfamily"</title>
				<polygon class="PF07690" points="238,28 274,28 279,33 279,47 274,52 238,52" stroke-linejoin="round" width="41" height="24" fill="rgb(228,207,98)" stroke="rgb(182,165,78)" stroke-width="1" opacity="0.75" />
			</g>
		</g>
		<g>
			<title> (ATEG_00139)
predicted protein</title>
			<polygon class=" (ATEG_00139)
predicted protein" points="395,25 340,25 340,10 310,40 340,70 340,55 395,55" fill="rgb(255,255,255)" fill-opacity="1.0" stroke="rgb(0,0,0)" stroke-width="2"  />
			<g>
				<title>Zn_clus (PF00172)
"Fungal Zn(2)-Cys(6) binuclear cluster domain"</title>
				<rect class="PF00172" x="386" y="28" stroke-linejoin="round" width="3" height="24" fill="rgb(58,207,82)" stroke="rgb(46,165,65)" stroke-width="1" opacity="0.75" />
			</g>
		</g>
		<g>
			<title> (ATEG_00140)
predicted protein</title>
			<polygon class=" (ATEG_00140)
predicted protein" points="461,25 445,25 445,10 415,40 445,70 445,55 461,55" fill="rgb(255,255,255)" fill-opacity="1.0" stroke="rgb(0,0,0)" stroke-width="2"  />
			<g>
				<title>Kelch_6 (PF13964)
"Kelch motif"</title>
				<rect class="PF13964" x="437" y="28" stroke-linejoin="round" width="5" height="24" fill="rgb(108,209,70)" stroke="rgb(86,167,56)" stroke-width="1" opacity="0.75" />
			</g>
			<g>
				<title>Kelch_6 (PF13964)
"Kelch motif"</title>
				<rect class="PF13964" x="442" y="28" stroke-linejoin="round" width="5" height="24" fill="rgb(108,209,70)" stroke="rgb(86,167,56)" stroke-width="1" opacity="0.75" />
			</g>
		</g>
		<g>
			<title> (ATEG_00141)
predicted protein</title>
			<polygon class=" (ATEG_00141)
predicted protein" points="482,25 520,25 520,10 550,40 520,70 520,55 482,55" fill="rgb(255,255,255)" fill-opacity="1.0" stroke="rgb(0,0,0)" stroke-width="2"  />
			<g>
				<title>Cu-oxidase_3 (PF07732)
"Multicopper oxidase"</title>
				<rect class="PF07732" x="482" y="28" stroke-linejoin="round" width="6" height="24" fill="rgb(174,103,224)" stroke="rgb(139,82,179)" stroke-width="1" opacity="0.75" />
			</g>
			<g>
				<title>Cu-oxidase (PF00394)
"Multicopper oxidase"</title>
				<rect class="PF00394" x="489" y="28" stroke-linejoin="round" width="16" height="24" fill="rgb(181,80,92)" stroke="rgb(144,64,73)" stroke-width="1" opacity="0.75" />
			</g>
			<g>
				<title>Cu-oxidase_2 (PF07731)
"Multicopper oxidase"</title>
				<rect class="PF07731" x="515" y="28" stroke-linejoin="round" width="11" height="24" fill="rgb(188,215,88)" stroke="rgb(150,172,70)" stroke-width="1" opacity="0.75" />
			</g>
			<g>
				<title>Cu-oxidase_2 (PF07731)
"Multicopper oxidase"</title>
				<rect class="PF07731" x="526" y="28" stroke-linejoin="round" width="4" height="24" fill="rgb(188,215,88)" stroke="rgb(150,172,70)" stroke-width="1" opacity="0.75" />
			</g>
		</g>
		<g>
			<title> (ATEG_00142)
conserved hypothetical protein</title>
			<polygon class=" (ATEG_00142)
conserved hypothetical protein" points="581,25 619,25 619,10 649,40 619,70 619,55 581,55" fill="rgb(255,255,255)" fill-opacity="1.0" stroke="rgb(0,0,0)" stroke-width="2"  />
			<g>
				<title>FAD_binding_3 (PF01494)
"FAD binding domain"</title>
				<rect class="PF01494" x="581" y="28" stroke-linejoin="round" width="35" height="24" fill="rgb(215,66,156)" stroke="rgb(172,52,124)" stroke-width="1" opacity="0.75" />
			</g>
			<g>
				<title>Phe_hydrox_dim (PF07976)
"Phenol hydroxylase, C-terminal dimerisation domain"</title>
				<polygon class="PF07976" points="620,28 633,28 636,31 636,49 633,52 620,52" stroke-linejoin="round" width="16" height="24" fill="rgb(100,193,69)" stroke="rgb(79,154,55)" stroke-width="1" opacity="0.75" />
			</g>
		</g>
		<g>
			<title> (ATEG_00143)
predicted protein</title>
			<polygon class=" (ATEG_00143)
predicted protein" points="689,25 697,25 697,10 727,40 697,70 697,55 689,55" fill="rgb(255,255,255)" fill-opacity="1.0" stroke="rgb(0,0,0)" stroke-width="2"  />
			<g>
				<title>FAD_binding_3 (PF01494)
"FAD binding domain"</title>
				<polygon class="PF01494" points="689,28 711,28 718,35 718,45 711,52 689,52" stroke-linejoin="round" width="29" height="24" fill="rgb(215,66,156)" stroke="rgb(172,52,124)" stroke-width="1" opacity="0.75" />
			</g>
		</g>
		<g>
			<title> (ATEG_00144)
predicted protein</title>
			<polygon class=" (ATEG_00144)
predicted protein" points="857,25 789,25 789,10 759,40 789,70 789,55 857,55" fill="rgb(255,255,255)" fill-opacity="1.0" stroke="rgb(0,0,0)" stroke-width="2"  />
			<g>
				<title>KR (PF08659)
"KR domain"</title>
				<polygon class="PF08659" points="763,40 772,31 772,49 763,40" stroke-linejoin="round" width="9" height="24" fill="rgb(203,145,81)" stroke="rgb(162,116,64)" stroke-width="1" opacity="0.75" />
			</g>
			<g>
				<title>PS-DH (PF14765)
"Polyketide synthase dehydratase N-terminal domain"</title>
				<rect class="PF14765" x="828" y="28" stroke-linejoin="round" width="13" height="24" fill="rgb(189,61,178)" stroke="rgb(151,48,142)" stroke-width="1" opacity="0.75" />
			</g>
			<g>
				<title>PKS_DH_N (PF21089)
"Polyketide synthase dehydratase domain"</title>
				<rect class="PF21089" x="845" y="28" stroke-linejoin="round" width="10" height="24" fill="rgb(67,151,200)" stroke="rgb(53,120,160)" stroke-width="1" opacity="0.75" />
			</g>
		</g>
		<g>
			<title> (ATEG_00145)
hypothetical protein</title>
			<polygon class=" (ATEG_00145)
hypothetical protein" points="884,25 1071,25 1071,10 1101,40 1071,70 1071,55 884,55" fill="rgb(255,255,255)" fill-opacity="1.0" stroke="rgb(0,0,0)" stroke-width="2"  />
			<g>
				<title>SAT (PF16073)
"Starter unit:ACP transacylase in aflatoxin biosynthesis"</title>
				<rect class="PF16073" x="884" y="28" stroke-linejoin="round" width="8" height="24" fill="rgb(77,185,114)" stroke="rgb(61,148,91)" stroke-width="1" opacity="0.75" />
			</g>
			<g>
				<title>SAT (PF16073)
"Starter unit:ACP transacylase in aflatoxin biosynthesis"</title>
				<rect class="PF16073" x="892" y="28" stroke-linejoin="round" width="10" height="24" fill="rgb(77,185,114)" stroke="rgb(61,148,91)" stroke-width="1" opacity="0.75" />
			</g>
			<g>
				<title>ketoacyl-synt (PF00109)
"Beta-ketoacyl synthase, N-terminal domain"</title>
				<rect class="PF00109" x="915" y="28" stroke-linejoin="round" width="25" height="24" fill="rgb(74,179,82)" stroke="rgb(59,143,65)" stroke-width="1" opacity="0.75" />
			</g>
			<g>
				<title>Ketoacyl-synt_C (PF02801)
"Beta-ketoacyl synthase, C-terminal domain"</title>
				<rect class="PF02801" x="941" y="28" stroke-linejoin="round" width="12" height="24" fill="rgb(212,79,72)" stroke="rgb(169,63,57)" stroke-width="1" opacity="0.75" />
			</g>
			<g>
				<title>Acyl_transf_1 (PF00698)
"Acyl transferase domain"</title>
				<rect class="PF00698" x="968" y="28" stroke-linejoin="round" width="31" height="24" fill="rgb(132,93,193)" stroke="rgb(105,74,154)" stroke-width="1" opacity="0.75" />
			</g>
			<g>
				<title>PS-DH (PF14765)
"Polyketide synthase dehydratase N-terminal domain"</title>
				<rect class="PF14765" x="1022" y="28" stroke-linejoin="round" width="15" height="24" fill="rgb(189,61,178)" stroke="rgb(151,48,142)" stroke-width="1" opacity="0.75" />
			</g>
			<g>
				<title>PP-binding (PF00550)
"Phosphopantetheine attachment site"</title>
				<rect class="PF00550" x="1042" y="28" stroke-linejoin="round" width="6" height="24" fill="rgb(181,58,166)" stroke="rgb(144,46,132)" stroke-width="1" opacity="0.75" />
			</g>
			<g>
				<title>PP-binding (PF00550)
"Phosphopantetheine attachment site"</title>
				<rect class="PF00550" x="1054" y="28" stroke-linejoin="round" width="6" height="24" fill="rgb(181,58,166)" stroke="rgb(144,46,132)" stroke-width="1" opacity="0.75" />
			</g>
			<g>
				<title>Thioesterase (PF00975)
"Thioesterase domain"</title>
				<polygon class="PF00975" points="1067,28 1085,28 1091,34 1091,46 1085,52 1067,52" stroke-linejoin="round" width="24" height="24" fill="rgb(69,76,223)" stroke="rgb(55,60,178)" stroke-width="1" opacity="0.75" />
			</g>
		</g>
	</g>
</svg>
