<svg version="1.1" baseProfile="full" xmlns="http://www.w3.org/2000/svg" width="1393.6" height="80">
	<g>
		<line x1="10" y1="40.0" x2="1383.6" y2="40.0" style="stroke:rgb(70,70,70); stroke-width:3 "/>
		<g>
			<title>
Ptm01</title>
			<polygon class="
Ptm01" points="13,40 38,10 38,70" fill="rgb(255,255,255)" fill-opacity="1.0" stroke="rgb(0,0,0)" stroke-width="2"  />
			<g>
				<title>adh_short_C2 (PF13561)
"Enoyl-(Acyl carrier protein) reductase"</title>
				<polygon class="PF13561" points="17,40 27,28 36,28 36,52 27,52" stroke-linejoin="round" width="23" height="24" fill="rgb(79,221,209)" stroke="rgb(63,176,167)" stroke-width="1" opacity="0.75" />
			</g>
		</g>
		<g>
			<title>
PtmU1</title>
			<polygon class="
PtmU1" points="38,40 56,10 56,70" fill="rgb(255,255,255)" fill-opacity="1.0" stroke="rgb(0,0,0)" stroke-width="2"  />
			<g>
				<title>SnoaL_4 (PF13577)
"SnoaL-like domain"</title>
				<polygon class="PF13577" points="43,38 49,28 54,28 54,52 49,52 43,42" stroke-linejoin="round" width="11" height="24" fill="rgb(58,198,190)" stroke="rgb(46,158,152)" stroke-width="1" opacity="0.75" />
			</g>
		</g>
		<g>
			<title>
PtmA1</title>
			<polygon class="
PtmA1" points="59,25 72,25 72,10 102,40 72,70 72,55 59,55" fill="rgb(255,255,255)" fill-opacity="1.0" stroke="rgb(0,0,0)" stroke-width="2"  />
		</g>
		<g>
			<title>
PtmU2</title>
			<polygon class="
PtmU2" points="103,10 126,40 103,70" fill="rgb(255,255,255)" fill-opacity="1.0" stroke="rgb(0,0,0)" stroke-width="2"  />
		</g>
		<g>
			<title>
PtmR2</title>
			<polygon class="
PtmR2" points="128,40 141,10 141,70" fill="rgb(255,255,255)" fill-opacity="1.0" stroke="rgb(0,0,0)" stroke-width="2"  />
			<g>
				<title>OB_aCoA_assoc (PF01796)
"DUF35 OB-fold domain, acyl-CoA-associated"</title>
				<polygon class="PF01796" points="131,40 135,31 135,49" stroke-linejoin="round" width="6" height="24" fill="rgb(82,212,228)" stroke="rgb(65,169,182)" stroke-width="1" opacity="0.75" />
			</g>
			<g>
				<title>DUF35_N (PF12172)
"Rubredoxin-like zinc ribbon domain (DUF35_N)"</title>
				<polygon class="PF12172" points="136,29 136,28 139,28 139,52 136,52 136,51" stroke-linejoin="round" width="3" height="24" fill="rgb(161,46,181)" stroke="rgb(128,36,144)" stroke-width="1" opacity="0.75" />
			</g>
		</g>
		<g>
			<title>
PtmD</title>
			<polygon class="
PtmD" points="179,25 171,25 171,10 141,40 171,70 171,55 179,55" fill="rgb(255,255,255)" fill-opacity="1.0" stroke="rgb(0,0,0)" stroke-width="2"  />
		</g>
		<g>
			<title>
PtmM4</title>
			<polygon class="
PtmM4" points="232,25 210,25 210,10 180,40 210,70 210,55 232,55" fill="rgb(255,255,255)" fill-opacity="1.0" stroke="rgb(0,0,0)" stroke-width="2"  />
			<g>
				<title>AMP-binding_C (PF13193)
"AMP-binding enzyme C-terminal domain"</title>
				<polygon class="PF13193" points="184,40 189,35 189,45" stroke-linejoin="round" width="7" height="24" fill="rgb(195,82,106)" stroke="rgb(156,65,84)" stroke-width="1" opacity="0.75" />
			</g>
			<g>
				<title>AMP-binding (PF00501)
"AMP-binding enzyme"</title>
				<polygon class="PF00501" points="195,29 196,28 231,28 231,52 196,52 195,51" stroke-linejoin="round" width="36" height="24" fill="rgb(189,78,204)" stroke="rgb(151,62,163)" stroke-width="1" opacity="0.75" />
			</g>
		</g>
		<g>
			<title>
PtmU3</title>
			<polygon class="
PtmU3" points="269,25 263,25 263,10 233,40 263,70 263,55 269,55" fill="rgb(255,255,255)" fill-opacity="1.0" stroke="rgb(0,0,0)" stroke-width="2"  />
			<g>
				<title>Amidohydro_2 (PF04909)
"Amidohydrolase"</title>
				<polygon class="PF04909" points="237,40 249,28 263,28 263,52 249,52" stroke-linejoin="round" width="30" height="24" fill="rgb(144,74,196)" stroke="rgb(115,59,156)" stroke-width="1" opacity="0.75" />
			</g>
		</g>
		<g>
			<title>
PtmH</title>
			<polygon class="
PtmH" points="272,40 300,10 300,70" fill="rgb(255,255,255)" fill-opacity="1.0" stroke="rgb(0,0,0)" stroke-width="2"  />
			<g>
				<title>MaoC_dehydratas (PF01575)
"MaoC like domain"</title>
				<polygon class="PF01575" points="276,40 284,32 284,48" stroke-linejoin="round" width="11" height="24" fill="rgb(86,84,223)" stroke="rgb(68,67,178)" stroke-width="1" opacity="0.75" />
			</g>
		</g>
		<g>
			<title>
PtmT1</title>
			<polygon class="
PtmT1" points="333,25 333,25 333,10 303,40 333,70 333,55 333,55" fill="rgb(255,255,255)" fill-opacity="1.0" stroke="rgb(0,0,0)" stroke-width="2"  />
			<g>
				<title>UbiA (PF01040)
"UbiA prenyltransferase family"</title>
				<polygon class="PF01040" points="307,40 319,28 330,28 330,52 319,52" stroke-linejoin="round" width="25" height="24" fill="rgb(172,202,98)" stroke="rgb(137,161,78)" stroke-width="1" opacity="0.75" />
			</g>
		</g>
		<g>
			<title>
PtmO2</title>
			<polygon class="
PtmO2" points="377,25 363,25 363,10 333,40 363,70 363,55 377,55" fill="rgb(255,255,255)" fill-opacity="1.0" stroke="rgb(0,0,0)" stroke-width="2"  />
			<g>
				<title>p450 (PF00067)
"Cytochrome P450"</title>
				<polygon class="PF00067" points="337,40 349,28 373,28 373,52 349,52" stroke-linejoin="round" width="39" height="24" fill="rgb(195,210,54)" stroke="rgb(155,168,43)" stroke-width="1" opacity="0.75" />
			</g>
		</g>
		<g>
			<title>
PtmT2</title>
			<polygon class="
PtmT2" points="431,25 408,25 408,10 378,40 408,70 408,55 431,55" fill="rgb(255,255,255)" fill-opacity="1.0" stroke="rgb(0,0,0)" stroke-width="2"  />
			<g>
				<title>SQHop_cyclase_C (PF13243)
"Squalene-hopene cyclase C-terminal domain"</title>
				<polygon class="PF13243" points="382,40 394,28 396,28 396,52 394,52" stroke-linejoin="round" width="15" height="24" fill="rgb(112,106,216)" stroke="rgb(89,84,172)" stroke-width="1" opacity="0.75" />
			</g>
			<g>
				<title>Prenyltrans (PF00432)
"Prenyltransferase and squalene oxidase repeat"</title>
				<rect class="PF00432" x="422" y="28" stroke-linejoin="round" width="3" height="24" fill="rgb(159,208,89)" stroke="rgb(127,166,71)" stroke-width="1" opacity="0.75" />
			</g>
		</g>
		<g>
			<title>
PtmO3</title>
			<polygon class="
PtmO3" points="436,10 464,40 436,70" fill="rgb(255,255,255)" fill-opacity="1.0" stroke="rgb(0,0,0)" stroke-width="2"  />
			<g>
				<title>TauD (PF02668)
"Taurine catabolism dioxygenase TauD, TfdA family"</title>
				<polygon class="PF02668" points="436,28 448,28 460,40 448,52 436,52" stroke-linejoin="round" width="25" height="24" fill="rgb(72,206,196)" stroke="rgb(57,164,156)" stroke-width="1" opacity="0.75" />
			</g>
		</g>
		<g>
			<title>
PtmO4</title>
			<polygon class="
PtmO4" points="464,25 472,25 472,10 502,40 472,70 472,55 464,55" fill="rgb(255,255,255)" fill-opacity="1.0" stroke="rgb(0,0,0)" stroke-width="2"  />
			<g>
				<title>Acyl-CoA_dh_N (PF02771)
"Acyl-CoA dehydrogenase, N-terminal domain"</title>
				<rect class="PF02771" x="464" y="28" stroke-linejoin="round" width="11" height="24" fill="rgb(104,198,213)" stroke="rgb(83,158,170)" stroke-width="1" opacity="0.75" />
			</g>
			<g>
				<title>Acyl-CoA_dh_M (PF02770)
"Acyl-CoA dehydrogenase, middle domain"</title>
				<rect class="PF02770" x="476" y="28" stroke-linejoin="round" width="9" height="24" fill="rgb(58,129,192)" stroke="rgb(46,103,153)" stroke-width="1" opacity="0.75" />
			</g>
			<g>
				<title>Acyl-CoA_dh_1 (PF00441)
"Acyl-CoA dehydrogenase, C-terminal domain"</title>
				<polygon class="PF00441" points="486,28 486,28 498,40 486,52 486,52" stroke-linejoin="round" width="14" height="24" fill="rgb(96,175,206)" stroke="rgb(76,139,164)" stroke-width="1" opacity="0.75" />
			</g>
		</g>
		<g>
			<title>
PtmT3</title>
			<polygon class="
PtmT3" points="503,25 504,25 504,10 534,40 504,70 504,55 503,55" fill="rgb(255,255,255)" fill-opacity="1.0" stroke="rgb(0,0,0)" stroke-width="2"  />
			<g>
				<title>Terpene_syn_C_2 (PF19086)
"Terpene synthase family 2, C-terminal metal binding"</title>
				<polygon class="PF19086" points="509,28 517,28 528,39 528,41 517,52 509,52" stroke-linejoin="round" width="19" height="24" fill="rgb(201,180,53)" stroke="rgb(160,144,42)" stroke-width="1" opacity="0.75" />
			</g>
		</g>
		<g>
			<title>
PtmO5</title>
			<polygon class="
PtmO5" points="535,25 548,25 548,10 578,40 548,70 548,55 535,55" fill="rgb(255,255,255)" fill-opacity="1.0" stroke="rgb(0,0,0)" stroke-width="2"  />
			<g>
				<title>p450 (PF00067)
"Cytochrome P450"</title>
				<polygon class="PF00067" points="557,28 561,28 573,40 561,52 557,52" stroke-linejoin="round" width="18" height="24" fill="rgb(195,210,54)" stroke="rgb(155,168,43)" stroke-width="1" opacity="0.75" />
			</g>
		</g>
		<g>
			<title>
PtmR3</title>
			<polygon class="
PtmR3" points="578,25 583,25 583,10 613,40 583,70 583,55 578,55" fill="rgb(255,255,255)" fill-opacity="1.0" stroke="rgb(0,0,0)" stroke-width="2"  />
			<g>
				<title>APH (PF01636)
"Phosphotransferase enzyme family"</title>
				<polygon class="PF01636" points="584,28 597,28 607,38 607,42 597,52 584,52" stroke-linejoin="round" width="23" height="24" fill="rgb(113,205,78)" stroke="rgb(90,164,62)" stroke-width="1" opacity="0.75" />
			</g>
		</g>
		<g>
			<title>
PtmO6</title>
			<polygon class="
PtmO6" points="617,10 645,40 617,70" fill="rgb(255,255,255)" fill-opacity="1.0" stroke="rgb(0,0,0)" stroke-width="2"  />
			<g>
				<title>TauD (PF02668)
"Taurine catabolism dioxygenase TauD, TfdA family"</title>
				<polygon class="PF02668" points="617,28 629,28 640,40 629,52 617,52" stroke-linejoin="round" width="25" height="24" fill="rgb(72,206,196)" stroke="rgb(57,164,156)" stroke-width="1" opacity="0.75" />
			</g>
		</g>
		<g>
			<title>
PtmT4</title>
			<polygon class="
PtmT4" points="647,25 651,25 651,10 681,40 651,70 651,55 647,55" fill="rgb(255,255,255)" fill-opacity="1.0" stroke="rgb(0,0,0)" stroke-width="2"  />
			<g>
				<title>polyprenyl_synt (PF00348)
"Polyprenyl synthetase"</title>
				<polygon class="PF00348" points="652,28 665,28 676,39 676,41 665,52 652,52" stroke-linejoin="round" width="24" height="24" fill="rgb(216,200,102)" stroke="rgb(172,160,81)" stroke-width="1" opacity="0.75" />
			</g>
		</g>
		<g>
			<title>
PtmM1</title>
			<polygon class="
PtmM1" points="681,25 695,25 695,10 725,40 695,70 695,55 681,55" fill="rgb(255,255,255)" fill-opacity="1.0" stroke="rgb(0,0,0)" stroke-width="2"  />
			<g>
				<title>LYTB (PF02401)
"LytB protein"</title>
				<polygon class="PF02401" points="693,28 709,28 720,39 720,41 709,52 693,52" stroke-linejoin="round" width="27" height="24" fill="rgb(72,198,172)" stroke="rgb(57,158,137)" stroke-width="1" opacity="0.75" />
			</g>
		</g>
		<g>
			<title>
PtmM2</title>
			<polygon class="
PtmM2" points="727,25 733,25 733,10 763,40 733,70 733,55 727,55" fill="rgb(255,255,255)" fill-opacity="1.0" stroke="rgb(0,0,0)" stroke-width="2"  />
			<g>
				<title>GcpE (PF04551)
"GcpE protein"</title>
				<polygon class="PF04551" points="728,28 747,28 759,40 747,52 728,52" stroke-linejoin="round" width="34" height="24" fill="rgb(196,196,83)" stroke="rgb(156,156,66)" stroke-width="1" opacity="0.75" />
			</g>
		</g>
		<g>
			<title>
PtmM3</title>
			<polygon class="
PtmM3" points="763,25 791,25 791,10 821,40 791,70 791,55 763,55" fill="rgb(255,255,255)" fill-opacity="1.0" stroke="rgb(0,0,0)" stroke-width="2"  />
			<g>
				<title>DXP_synthase_N (PF13292)
"1-deoxy-D-xylulose-5-phosphate synthase"</title>
				<rect class="PF13292" x="763" y="28" stroke-linejoin="round" width="19" height="24" fill="rgb(91,140,186)" stroke="rgb(72,112,148)" stroke-width="1" opacity="0.75" />
			</g>
			<g>
				<title>Transket_pyr (PF02779)
"Transketolase, pyrimidine binding domain"</title>
				<polygon class="PF02779" points="790,28 805,28 806,29 806,51 805,52 790,52" stroke-linejoin="round" width="16" height="24" fill="rgb(60,183,85)" stroke="rgb(48,146,67)" stroke-width="1" opacity="0.75" />
			</g>
			<g>
				<title>Transketolase_C (PF02780)
"Transketolase, C-terminal domain"</title>
				<polygon class="PF02780" points="808,31 817,40 808,49" stroke-linejoin="round" width="12" height="24" fill="rgb(212,91,198)" stroke="rgb(169,72,158)" stroke-width="1" opacity="0.75" />
			</g>
		</g>
		<g>
			<title>
PtmB1</title>
			<polygon class="
PtmB1" points="824,10 851,40 824,70" fill="rgb(255,255,255)" fill-opacity="1.0" stroke="rgb(0,0,0)" stroke-width="2"  />
			<g>
				<title>DeoC (PF01791)
"DeoC/LacD family aldolase"</title>
				<polygon class="PF01791" points="826,28 836,28 847,40 847,40 836,52 826,52" stroke-linejoin="round" width="21" height="24" fill="rgb(154,53,201)" stroke="rgb(123,42,160)" stroke-width="1" opacity="0.75" />
			</g>
		</g>
		<g>
			<title>
PtmB2</title>
			<polygon class="
PtmB2" points="854,25 860,25 860,10 890,40 860,70 860,55 854,55" fill="rgb(255,255,255)" fill-opacity="1.0" stroke="rgb(0,0,0)" stroke-width="2"  />
			<g>
				<title>DHQS (PF01959)
"3-dehydroquinate synthase II"</title>
				<polygon class="PF01959" points="854,28 874,28 886,40 874,52 854,52" stroke-linejoin="round" width="36" height="24" fill="rgb(72,159,184)" stroke="rgb(57,127,147)" stroke-width="1" opacity="0.75" />
			</g>
		</g>
		<g>
			<title>
PtmB3</title>
			<polygon class="
PtmB3" points="891,25 900,25 900,10 930,40 900,70 900,55 891,55" fill="rgb(255,255,255)" fill-opacity="1.0" stroke="rgb(0,0,0)" stroke-width="2"  />
			<g>
				<title>FAD_binding_3 (PF01494)
"FAD binding domain"</title>
				<polygon class="PF01494" points="891,28 914,28 925,39 925,41 914,52 891,52" stroke-linejoin="round" width="34" height="24" fill="rgb(215,66,156)" stroke="rgb(172,52,124)" stroke-width="1" opacity="0.75" />
			</g>
		</g>
		<g>
			<title>
PtmC</title>
			<polygon class="
PtmC" points="932,10 961,40 932,70" fill="rgb(255,255,255)" fill-opacity="1.0" stroke="rgb(0,0,0)" stroke-width="2"  />
			<g>
				<title>Acetyltransf_2 (PF00797)
"N-acetyltransferase"</title>
				<polygon class="PF00797" points="934,28 945,28 956,39 956,41 945,52 934,52" stroke-linejoin="round" width="22" height="24" fill="rgb(83,223,184)" stroke="rgb(66,178,147)" stroke-width="1" opacity="0.75" />
			</g>
		</g>
		<g>
			<title>
PtmP1</title>
			<polygon class="
PtmP1" points="1011,25 994,25 994,10 964,40 994,70 994,55 1011,55" fill="rgb(255,255,255)" fill-opacity="1.0" stroke="rgb(0,0,0)" stroke-width="2"  />
			<g>
				<title>OB_aCoA_assoc (PF01796)
"DUF35 OB-fold domain, acyl-CoA-associated"</title>
				<polygon class="PF01796" points="968,40 972,36 972,44" stroke-linejoin="round" width="6" height="24" fill="rgb(82,212,228)" stroke="rgb(65,169,182)" stroke-width="1" opacity="0.75" />
			</g>
			<g>
				<title>DUF35_N (PF12172)
"Rubredoxin-like zinc ribbon domain (DUF35_N)"</title>
				<polygon class="PF12172" points="972,36 974,34 974,46 972,44" stroke-linejoin="round" width="2" height="24" fill="rgb(161,46,181)" stroke="rgb(128,36,144)" stroke-width="1" opacity="0.75" />
			</g>
		</g>
		<g>
			<title>
PtmP2</title>
			<polygon class="
PtmP2" points="1014,25 1025,25 1025,10 1055,40 1025,70 1025,55 1014,55" fill="rgb(255,255,255)" fill-opacity="1.0" stroke="rgb(0,0,0)" stroke-width="2"  />
			<g>
				<title>Thiolase_N (PF00108)
"Thiolase, N-terminal domain"</title>
				<rect class="PF00108" x="1015" y="28" stroke-linejoin="round" width="21" height="24" fill="rgb(208,68,98)" stroke="rgb(166,54,78)" stroke-width="1" opacity="0.75" />
			</g>
			<g>
				<title>Thiolase_C (PF02803)
"Thiolase, C-terminal domain"</title>
				<polygon class="PF02803" points="1037,28 1039,28 1051,40 1051,40 1039,52 1037,52" stroke-linejoin="round" width="14" height="24" fill="rgb(110,126,225)" stroke="rgb(88,100,180)" stroke-width="1" opacity="0.75" />
			</g>
		</g>
		<g>
			<title>
PtmO7</title>
			<polygon class="
PtmO7" points="1056,25 1056,25 1056,10 1086,40 1056,70 1056,55 1056,55" fill="rgb(255,255,255)" fill-opacity="1.0" stroke="rgb(0,0,0)" stroke-width="2"  />
			<g>
				<title>adh_short (PF00106)
"short chain dehydrogenase"</title>
				<polygon class="PF00106" points="1056,28 1069,28 1076,35 1076,45 1069,52 1056,52" stroke-linejoin="round" width="20" height="24" fill="rgb(128,81,196)" stroke="rgb(102,64,156)" stroke-width="1" opacity="0.75" />
			</g>
		</g>
		<g>
			<title>
PtmR1</title>
			<polygon class="
PtmR1" points="1088,40 1111,10 1111,70" fill="rgb(255,255,255)" fill-opacity="1.0" stroke="rgb(0,0,0)" stroke-width="2"  />
			<g>
				<title>FCD (PF07729)
"FCD domain"</title>
				<polygon class="PF07729" points="1092,40 1101,29 1101,51" stroke-linejoin="round" width="12" height="24" fill="rgb(57,62,208)" stroke="rgb(45,49,166)" stroke-width="1" opacity="0.75" />
			</g>
			<g>
				<title>GntR (PF00392)
"Bacterial regulatory proteins, gntR family"</title>
				<rect class="PF00392" x="1104" y="28" stroke-linejoin="round" width="6" height="24" fill="rgb(215,102,113)" stroke="rgb(172,81,90)" stroke-width="1" opacity="0.75" />
			</g>
		</g>
		<g>
			<title>
PtmO8</title>
			<polygon class="
PtmO8" points="1121,10 1148,40 1121,70" fill="rgb(255,255,255)" fill-opacity="1.0" stroke="rgb(0,0,0)" stroke-width="2"  />
			<g>
				<title>adh_short_C2 (PF13561)
"Enoyl-(Acyl carrier protein) reductase"</title>
				<polygon class="PF13561" points="1123,28 1133,28 1144,40 1133,52 1123,52" stroke-linejoin="round" width="23" height="24" fill="rgb(79,221,209)" stroke="rgb(63,176,167)" stroke-width="1" opacity="0.75" />
			</g>
		</g>
		<g>
			<title>
PtmU4</title>
			<polygon class="
PtmU4" points="1149,25 1178,25 1178,10 1208,40 1178,70 1178,55 1149,55" fill="rgb(255,255,255)" fill-opacity="1.0" stroke="rgb(0,0,0)" stroke-width="2"  />
			<g>
				<title>CoA_transf_3 (PF02515)
"CoA-transferase family III"</title>
				<rect class="PF02515" x="1153" y="28" stroke-linejoin="round" width="21" height="24" fill="rgb(194,75,118)" stroke="rgb(155,60,94)" stroke-width="1" opacity="0.75" />
			</g>
			<g>
				<title>CoA_transf_3 (PF02515)
"CoA-transferase family III"</title>
				<polygon class="PF02515" points="1176,28 1192,28 1204,40 1192,52 1176,52" stroke-linejoin="round" width="29" height="24" fill="rgb(194,75,118)" stroke="rgb(155,60,94)" stroke-width="1" opacity="0.75" />
			</g>
		</g>
		<g>
			<title>
PtmA3</title>
			<polygon class="
PtmA3" points="1210,25 1232,25 1232,10 1262,40 1232,70 1232,55 1210,55" fill="rgb(255,255,255)" fill-opacity="1.0" stroke="rgb(0,0,0)" stroke-width="2"  />
			<g>
				<title>AMP-binding (PF00501)
"AMP-binding enzyme"</title>
				<polygon class="PF00501" points="1211,28 1246,28 1248,30 1248,50 1246,52 1211,52" stroke-linejoin="round" width="37" height="24" fill="rgb(189,78,204)" stroke="rgb(151,62,163)" stroke-width="1" opacity="0.75" />
			</g>
			<g>
				<title>AMP-binding_C (PF13193)
"AMP-binding enzyme C-terminal domain"</title>
				<polygon class="PF13193" points="1253,35 1258,40 1253,45" stroke-linejoin="round" width="7" height="24" fill="rgb(195,82,106)" stroke="rgb(156,65,84)" stroke-width="1" opacity="0.75" />
			</g>
		</g>
		<g>
			<title>
PtmP3</title>
			<polygon class="
PtmP3" points="1268,25 1278,25 1278,10 1308,40 1278,70 1278,55 1268,55" fill="rgb(255,255,255)" fill-opacity="1.0" stroke="rgb(0,0,0)" stroke-width="2"  />
			<g>
				<title>ketoacyl-synt (PF00109)
"Beta-ketoacyl synthase, N-terminal domain"</title>
				<rect class="PF00109" x="1268" y="28" stroke-linejoin="round" width="24" height="24" fill="rgb(74,179,82)" stroke="rgb(59,143,65)" stroke-width="1" opacity="0.75" />
			</g>
			<g>
				<title>Ketoacyl-synt_C (PF02801)
"Beta-ketoacyl synthase, C-terminal domain"</title>
				<polygon class="PF02801" points="1293,29 1304,40 1304,40 1293,51" stroke-linejoin="round" width="11" height="24" fill="rgb(212,79,72)" stroke="rgb(169,63,57)" stroke-width="1" opacity="0.75" />
			</g>
		</g>
		<g>
			<title>
PtmP4</title>
			<polygon class="
PtmP4" points="1313,25 1337,25 1337,10 1367,40 1337,70 1337,55 1313,55" fill="rgb(255,255,255)" fill-opacity="1.0" stroke="rgb(0,0,0)" stroke-width="2"  />
			<g>
				<title>MFS_1 (PF07690)
"Major Facilitator Superfamily"</title>
				<polygon class="PF07690" points="1318,28 1350,28 1357,35 1357,45 1350,52 1318,52" stroke-linejoin="round" width="39" height="24" fill="rgb(228,207,98)" stroke="rgb(182,165,78)" stroke-width="1" opacity="0.75" />
			</g>
		</g>
		<g>
			<title>
PtmO9</title>
			<polygon class="
PtmO9" points="1368,10 1379,40 1368,70" fill="rgb(255,255,255)" fill-opacity="1.0" stroke="rgb(0,0,0)" stroke-width="2"  />
			<g>
				<title>Fer4 (PF00037)
"4Fe-4S binding domain"</title>
				<polygon class="PF00037" points="1371,28 1371,28 1373,32 1373,48 1371,52 1371,52" stroke-linejoin="round" width="2" height="24" fill="rgb(143,50,195)" stroke="rgb(114,40,156)" stroke-width="1" opacity="0.75" />
			</g>
		</g>
	</g>
</svg>
