<svg version="1.1" baseProfile="full" xmlns="http://www.w3.org/2000/svg" width="1194.6" height="80">
	<g>
		<line x1="10" y1="40.0" x2="1184.6" y2="40.0" style="stroke:rgb(70,70,70); stroke-width:3 "/>
		<g>
			<title> (SSMG_02531)
TetR family transcriptional regulator</title>
			<polygon class=" (SSMG_02531)
TetR family transcriptional regulator" points="10,40 29,10 29,70" fill="rgb(255,255,255)" fill-opacity="1.0" stroke="rgb(0,0,0)" stroke-width="2"  />
			<g>
				<title>TetR_C_31 (PF17940)
"Tetracyclin repressor-like, C-terminal domain"</title>
				<polygon class="PF17940" points="14,40 21,29 21,51" stroke-linejoin="round" width="11" height="24" fill="rgb(156,99,211)" stroke="rgb(124,79,168)" stroke-width="1" opacity="0.75" />
			</g>
			<g>
				<title>TetR_N (PF00440)
"Bacterial regulatory proteins, tetR family"</title>
				<rect class="PF00440" x="24" y="28" stroke-linejoin="round" width="4" height="24" fill="rgb(148,50,185)" stroke="rgb(118,40,148)" stroke-width="1" opacity="0.75" />
			</g>
		</g>
		<g>
			<title> (SSMG_02532)
predicted protein</title>
			<polygon class=" (SSMG_02532)
predicted protein" points="32,25 51,25 51,10 81,40 51,70 51,55 32,55" fill="rgb(255,255,255)" fill-opacity="1.0" stroke="rgb(0,0,0)" stroke-width="2"  />
			<g>
				<title>AA_permease_2 (PF13520)
"Amino acid permease"</title>
				<polygon class="PF13520" points="35,28 65,28 77,40 65,52 35,52" stroke-linejoin="round" width="43" height="24" fill="rgb(131,80,228)" stroke="rgb(104,64,182)" stroke-width="1" opacity="0.75" />
			</g>
		</g>
		<g>
			<title> (SSMG_02533)
amine oxidase</title>
			<polygon class=" (SSMG_02533)
amine oxidase" points="83,25 98,25 98,10 128,40 98,70 98,55 83,55" fill="rgb(255,255,255)" fill-opacity="1.0" stroke="rgb(0,0,0)" stroke-width="2"  />
			<g>
				<title>Amino_oxidase (PF01593)
"Flavin containing amine oxidoreductase"</title>
				<polygon class="PF01593" points="84,28 112,28 124,40 112,52 84,52" stroke-linejoin="round" width="43" height="24" fill="rgb(95,189,207)" stroke="rgb(76,151,165)" stroke-width="1" opacity="0.75" />
			</g>
		</g>
		<g>
			<title> (SSMG_02534)
predicted protein</title>
			<polygon class=" (SSMG_02534)
predicted protein" points="139,25 150,25 150,10 180,40 150,70 150,55 139,55" fill="rgb(255,255,255)" fill-opacity="1.0" stroke="rgb(0,0,0)" stroke-width="2"  />
			<g>
				<title>Peripla_BP_2 (PF01497)
"Periplasmic binding protein"</title>
				<polygon class="PF01497" points="153,28 163,28 175,40 163,52 153,52" stroke-linejoin="round" width="23" height="24" fill="rgb(78,169,221)" stroke="rgb(62,135,176)" stroke-width="1" opacity="0.75" />
			</g>
		</g>
		<g>
			<title> (SSMG_02535)
non-ribosomal peptide synthetase</title>
			<polygon class=" (SSMG_02535)
non-ribosomal peptide synthetase" points="293,25 212,25 212,10 182,40 212,70 212,55 293,55" fill="rgb(255,255,255)" fill-opacity="1.0" stroke="rgb(0,0,0)" stroke-width="2"  />
			<g>
				<title>PP-binding (PF00550)
"Phosphopantetheine attachment site"</title>
				<polygon class="PF00550" points="186,40 191,35 191,45" stroke-linejoin="round" width="6" height="24" fill="rgb(181,58,166)" stroke="rgb(144,46,132)" stroke-width="1" opacity="0.75" />
			</g>
			<g>
				<title>AMP-binding_C (PF13193)
"AMP-binding enzyme C-terminal domain"</title>
				<polygon class="PF13193" points="194,32 198,28 200,28 200,52 198,52 194,48" stroke-linejoin="round" width="6" height="24" fill="rgb(195,82,106)" stroke="rgb(156,65,84)" stroke-width="1" opacity="0.75" />
			</g>
			<g>
				<title>AMP-binding (PF00501)
"AMP-binding enzyme"</title>
				<rect class="PF00501" x="206" y="28" stroke-linejoin="round" width="32" height="24" fill="rgb(189,78,204)" stroke="rgb(151,62,163)" stroke-width="1" opacity="0.75" />
			</g>
			<g>
				<title>Condensation (PF00668)
"Condensation domain"</title>
				<rect class="PF00668" x="242" y="28" stroke-linejoin="round" width="42" height="24" fill="rgb(172,217,60)" stroke="rgb(137,173,47)" stroke-width="1" opacity="0.75" />
			</g>
			<g>
				<title>PP-binding (PF00550)
"Phosphopantetheine attachment site"</title>
				<rect class="PF00550" x="286" y="28" stroke-linejoin="round" width="6" height="24" fill="rgb(181,58,166)" stroke="rgb(144,46,132)" stroke-width="1" opacity="0.75" />
			</g>
		</g>
		<g>
			<title> (SSMG_02536)
hypothetical protein</title>
			<polygon class=" (SSMG_02536)
hypothetical protein" points="530,25 324,25 324,10 294,40 324,70 324,55 530,55" fill="rgb(255,255,255)" fill-opacity="1.0" stroke="rgb(0,0,0)" stroke-width="2"  />
			<g>
				<title>Condensation (PF00668)
"Condensation domain"</title>
				<rect class="PF00668" x="312" y="28" stroke-linejoin="round" width="17" height="24" fill="rgb(172,217,60)" stroke="rgb(137,173,47)" stroke-width="1" opacity="0.75" />
			</g>
			<g>
				<title>PP-binding (PF00550)
"Phosphopantetheine attachment site"</title>
				<rect class="PF00550" x="331" y="28" stroke-linejoin="round" width="6" height="24" fill="rgb(181,58,166)" stroke="rgb(144,46,132)" stroke-width="1" opacity="0.75" />
			</g>
			<g>
				<title>AMP-binding_C (PF13193)
"AMP-binding enzyme C-terminal domain"</title>
				<rect class="PF13193" x="340" y="28" stroke-linejoin="round" width="6" height="24" fill="rgb(195,82,106)" stroke="rgb(156,65,84)" stroke-width="1" opacity="0.75" />
			</g>
			<g>
				<title>AMP-binding (PF00501)
"AMP-binding enzyme"</title>
				<rect class="PF00501" x="352" y="28" stroke-linejoin="round" width="20" height="24" fill="rgb(189,78,204)" stroke="rgb(151,62,163)" stroke-width="1" opacity="0.75" />
			</g>
			<g>
				<title>AMP-binding (PF00501)
"AMP-binding enzyme"</title>
				<rect class="PF00501" x="371" y="28" stroke-linejoin="round" width="10" height="24" fill="rgb(189,78,204)" stroke="rgb(151,62,163)" stroke-width="1" opacity="0.75" />
			</g>
			<g>
				<title>Condensation (PF00668)
"Condensation domain"</title>
				<rect class="PF00668" x="384" y="28" stroke-linejoin="round" width="43" height="24" fill="rgb(172,217,60)" stroke="rgb(137,173,47)" stroke-width="1" opacity="0.75" />
			</g>
			<g>
				<title>PP-binding (PF00550)
"Phosphopantetheine attachment site"</title>
				<rect class="PF00550" x="429" y="28" stroke-linejoin="round" width="6" height="24" fill="rgb(181,58,166)" stroke="rgb(144,46,132)" stroke-width="1" opacity="0.75" />
			</g>
			<g>
				<title>AMP-binding_C (PF13193)
"AMP-binding enzyme C-terminal domain"</title>
				<rect class="PF13193" x="437" y="28" stroke-linejoin="round" width="6" height="24" fill="rgb(195,82,106)" stroke="rgb(156,65,84)" stroke-width="1" opacity="0.75" />
			</g>
			<g>
				<title>AMP-binding (PF00501)
"AMP-binding enzyme"</title>
				<rect class="PF00501" x="450" y="28" stroke-linejoin="round" width="31" height="24" fill="rgb(189,78,204)" stroke="rgb(151,62,163)" stroke-width="1" opacity="0.75" />
			</g>
			<g>
				<title>Condensation (PF00668)
"Condensation domain"</title>
				<rect class="PF00668" x="482" y="28" stroke-linejoin="round" width="44" height="24" fill="rgb(172,217,60)" stroke="rgb(137,173,47)" stroke-width="1" opacity="0.75" />
			</g>
		</g>
		<g>
			<title> (SSMG_02537)
predicted protein</title>
			<polygon class=" (SSMG_02537)
predicted protein" points="670,25 560,25 560,10 530,40 560,70 560,55 670,55" fill="rgb(255,255,255)" fill-opacity="1.0" stroke="rgb(0,0,0)" stroke-width="2"  />
			<g>
				<title>Condensation (PF00668)
"Condensation domain"</title>
				<polygon class="PF00668" points="534,40 546,28 569,28 569,52 546,52" stroke-linejoin="round" width="39" height="24" fill="rgb(172,217,60)" stroke="rgb(137,173,47)" stroke-width="1" opacity="0.75" />
			</g>
			<g>
				<title>PP-binding (PF00550)
"Phosphopantetheine attachment site"</title>
				<rect class="PF00550" x="572" y="28" stroke-linejoin="round" width="6" height="24" fill="rgb(181,58,166)" stroke="rgb(144,46,132)" stroke-width="1" opacity="0.75" />
			</g>
			<g>
				<title>AMP-binding_C (PF13193)
"AMP-binding enzyme C-terminal domain"</title>
				<rect class="PF13193" x="581" y="28" stroke-linejoin="round" width="7" height="24" fill="rgb(195,82,106)" stroke="rgb(156,65,84)" stroke-width="1" opacity="0.75" />
			</g>
			<g>
				<title>AMP-binding (PF00501)
"AMP-binding enzyme"</title>
				<rect class="PF00501" x="594" y="28" stroke-linejoin="round" width="22" height="24" fill="rgb(189,78,204)" stroke="rgb(151,62,163)" stroke-width="1" opacity="0.75" />
			</g>
			<g>
				<title>AMP-binding (PF00501)
"AMP-binding enzyme"</title>
				<rect class="PF00501" x="615" y="28" stroke-linejoin="round" width="10" height="24" fill="rgb(189,78,204)" stroke="rgb(151,62,163)" stroke-width="1" opacity="0.75" />
			</g>
			<g>
				<title>Condensation (PF00668)
"Condensation domain"</title>
				<rect class="PF00668" x="628" y="28" stroke-linejoin="round" width="41" height="24" fill="rgb(172,217,60)" stroke="rgb(137,173,47)" stroke-width="1" opacity="0.75" />
			</g>
		</g>
		<g>
			<title> (SSMG_02538)
predicted protein</title>
			<polygon class=" (SSMG_02538)
predicted protein" points="903,25 700,25 700,10 670,40 700,70 700,55 903,55" fill="rgb(255,255,255)" fill-opacity="1.0" stroke="rgb(0,0,0)" stroke-width="2"  />
			<g>
				<title>Condensation (PF00668)
"Condensation domain"</title>
				<rect class="PF00668" x="691" y="28" stroke-linejoin="round" width="16" height="24" fill="rgb(172,217,60)" stroke="rgb(137,173,47)" stroke-width="1" opacity="0.75" />
			</g>
			<g>
				<title>PP-binding (PF00550)
"Phosphopantetheine attachment site"</title>
				<rect class="PF00550" x="708" y="28" stroke-linejoin="round" width="6" height="24" fill="rgb(181,58,166)" stroke="rgb(144,46,132)" stroke-width="1" opacity="0.75" />
			</g>
			<g>
				<title>AMP-binding (PF00501)
"AMP-binding enzyme"</title>
				<rect class="PF00501" x="730" y="28" stroke-linejoin="round" width="34" height="24" fill="rgb(189,78,204)" stroke="rgb(151,62,163)" stroke-width="1" opacity="0.75" />
			</g>
			<g>
				<title>Condensation (PF00668)
"Condensation domain"</title>
				<rect class="PF00668" x="766" y="28" stroke-linejoin="round" width="33" height="24" fill="rgb(172,217,60)" stroke="rgb(137,173,47)" stroke-width="1" opacity="0.75" />
			</g>
			<g>
				<title>Condensation (PF00668)
"Condensation domain"</title>
				<rect class="PF00668" x="799" y="28" stroke-linejoin="round" width="7" height="24" fill="rgb(172,217,60)" stroke="rgb(137,173,47)" stroke-width="1" opacity="0.75" />
			</g>
			<g>
				<title>PP-binding (PF00550)
"Phosphopantetheine attachment site"</title>
				<rect class="PF00550" x="808" y="28" stroke-linejoin="round" width="6" height="24" fill="rgb(181,58,166)" stroke="rgb(144,46,132)" stroke-width="1" opacity="0.75" />
			</g>
			<g>
				<title>AMP-binding (PF00501)
"AMP-binding enzyme"</title>
				<rect class="PF00501" x="829" y="28" stroke-linejoin="round" width="21" height="24" fill="rgb(189,78,204)" stroke="rgb(151,62,163)" stroke-width="1" opacity="0.75" />
			</g>
			<g>
				<title>AMP-binding (PF00501)
"AMP-binding enzyme"</title>
				<rect class="PF00501" x="850" y="28" stroke-linejoin="round" width="10" height="24" fill="rgb(189,78,204)" stroke="rgb(151,62,163)" stroke-width="1" opacity="0.75" />
			</g>
			<g>
				<title>Condensation (PF00668)
"Condensation domain"</title>
				<rect class="PF00668" x="862" y="28" stroke-linejoin="round" width="40" height="24" fill="rgb(172,217,60)" stroke="rgb(137,173,47)" stroke-width="1" opacity="0.75" />
			</g>
		</g>
		<g>
			<title> (SSMG_02539)
mbtH protein</title>
			<polygon class=" (SSMG_02539)
mbtH protein" points="903,40 910,10 910,70" fill="rgb(255,255,255)" fill-opacity="1.0" stroke="rgb(0,0,0)" stroke-width="2"  />
			<g>
				<title>MbtH (PF03621)
"MbtH-like protein"</title>
				<polygon class="PF03621" points="906,40 909,28 910,28 910,52 909,52" stroke-linejoin="round" width="5" height="24" fill="rgb(102,212,116)" stroke="rgb(81,169,92)" stroke-width="1" opacity="0.75" />
			</g>
		</g>
		<g>
			<title> (SSMG_02540)
LipE protein</title>
			<polygon class=" (SSMG_02540)
LipE protein" points="912,40 938,10 938,70" fill="rgb(255,255,255)" fill-opacity="1.0" stroke="rgb(0,0,0)" stroke-width="2"  />
			<g>
				<title>Abhydrolase_6 (PF12697)
"Alpha/beta hydrolase family"</title>
				<polygon class="PF12697" points="916,40 927,28 936,28 936,52 927,52" stroke-linejoin="round" width="23" height="24" fill="rgb(87,73,196)" stroke="rgb(69,58,156)" stroke-width="1" opacity="0.75" />
			</g>
		</g>
		<g>
			<title> (SSMG_02541)
major facilitator superfamily transporter multidrug resistance protein</title>
			<polygon class=" (SSMG_02541)
major facilitator superfamily transporter multidrug resistance protein" points="977,25 968,25 968,10 938,40 968,70 968,55 977,55" fill="rgb(255,255,255)" fill-opacity="1.0" stroke="rgb(0,0,0)" stroke-width="2"  />
			<g>
				<title>MFS_3 (PF05977)
"Transmembrane secretion effector"</title>
				<polygon class="PF05977" points="942,40 954,28 976,28 976,52 954,52" stroke-linejoin="round" width="38" height="24" fill="rgb(75,61,221)" stroke="rgb(60,48,176)" stroke-width="1" opacity="0.75" />
			</g>
		</g>
		<g>
			<title> (SSMG_02542)
2,3-dihydroxybenzoate-AMP ligase</title>
			<polygon class=" (SSMG_02542)
2,3-dihydroxybenzoate-AMP ligase" points="982,25 1003,25 1003,10 1033,40 1003,70 1003,55 982,55" fill="rgb(255,255,255)" fill-opacity="1.0" stroke="rgb(0,0,0)" stroke-width="2"  />
			<g>
				<title>AMP-binding (PF00501)
"AMP-binding enzyme"</title>
				<polygon class="PF00501" points="985,28 1017,28 1019,30 1019,50 1017,52 985,52" stroke-linejoin="round" width="34" height="24" fill="rgb(189,78,204)" stroke="rgb(151,62,163)" stroke-width="1" opacity="0.75" />
			</g>
			<g>
				<title>AMP-binding_C (PF13193)
"AMP-binding enzyme C-terminal domain"</title>
				<polygon class="PF13193" points="1024,35 1029,40 1024,45" stroke-linejoin="round" width="7" height="24" fill="rgb(195,82,106)" stroke="rgb(156,65,84)" stroke-width="1" opacity="0.75" />
			</g>
		</g>
		<g>
			<title> (SSMG_02543)
predicted protein</title>
			<polygon class=" (SSMG_02543)
predicted protein" points="1033,25 1035,25 1035,10 1065,40 1035,70 1035,55 1033,55" fill="rgb(255,255,255)" fill-opacity="1.0" stroke="rgb(0,0,0)" stroke-width="2"  />
			<g>
				<title>FecCD (PF01032)
"FecCD transport family"</title>
				<polygon class="PF01032" points="1034,28 1049,28 1061,40 1049,52 1034,52" stroke-linejoin="round" width="30" height="24" fill="rgb(82,200,99)" stroke="rgb(65,160,79)" stroke-width="1" opacity="0.75" />
			</g>
		</g>
		<g>
			<title> (SSMG_02544)
predicted protein</title>
			<polygon class=" (SSMG_02544)
predicted protein" points="1066,25 1068,25 1068,10 1098,40 1068,70 1068,55 1066,55" fill="rgb(255,255,255)" fill-opacity="1.0" stroke="rgb(0,0,0)" stroke-width="2"  />
			<g>
				<title>FecCD (PF01032)
"FecCD transport family"</title>
				<polygon class="PF01032" points="1067,28 1082,28 1094,40 1082,52 1067,52" stroke-linejoin="round" width="30" height="24" fill="rgb(82,200,99)" stroke="rgb(65,160,79)" stroke-width="1" opacity="0.75" />
			</g>
		</g>
		<g>
			<title> (SSMG_02545)
salicylate synthase</title>
			<polygon class=" (SSMG_02545)
salicylate synthase" points="1142,25 1129,25 1129,10 1099,40 1129,70 1129,55 1142,55" fill="rgb(255,255,255)" fill-opacity="1.0" stroke="rgb(0,0,0)" stroke-width="2"  />
			<g>
				<title>Chorismate_bind (PF00425)
"chorismate binding enzyme"</title>
				<polygon class="PF00425" points="1103,40 1115,28 1125,28 1125,52 1115,52" stroke-linejoin="round" width="25" height="24" fill="rgb(126,181,77)" stroke="rgb(100,144,61)" stroke-width="1" opacity="0.75" />
			</g>
		</g>
		<g>
			<title> (SSMG_02546)
peptide monooxygenase</title>
			<polygon class=" (SSMG_02546)
peptide monooxygenase" points="1183,25 1171,25 1171,10 1141,40 1171,70 1171,55 1183,55" fill="rgb(255,255,255)" fill-opacity="1.0" stroke="rgb(0,0,0)" stroke-width="2"  />
			<g>
				<title>Lys_Orn_oxgnase (PF13434)
"L-lysine 6-monooxygenase/L-ornithine 5-monooxygenase"</title>
				<polygon class="PF13434" points="1150,35 1157,28 1183,28 1183,52 1157,52 1150,45" stroke-linejoin="round" width="33" height="24" fill="rgb(99,202,176)" stroke="rgb(79,161,140)" stroke-width="1" opacity="0.75" />
			</g>
		</g>
	</g>
</svg>
