<svg version="1.1" baseProfile="full" xmlns="http://www.w3.org/2000/svg" width="737.9333333333333" height="80">
	<g>
		<line x1="10" y1="40.0" x2="727.9333333333333" y2="40.0" style="stroke:rgb(70,70,70); stroke-width:3 "/>
		<g>
			<title>pcoR
transcriptional activator protein</title>
			<polygon class="pcoR
transcriptional activator protein" points="26,10 50,40 26,70" fill="rgb(255,255,255)" fill-opacity="1.0" stroke="rgb(0,0,0)" stroke-width="2"  />
			<g>
				<title>Autoind_bind (PF03472)
"Autoinducer binding domain"</title>
				<polygon class="PF03472" points="28,28 37,28 42,35 42,45 37,52 28,52" stroke-linejoin="round" width="14" height="24" fill="rgb(206,107,58)" stroke="rgb(164,85,46)" stroke-width="1" opacity="0.75" />
			</g>
			<g>
				<title>GerE (PF00196)
"Bacterial regulatory proteins, luxR family"</title>
				<polygon class="PF00196" points="44,37 46,40 44,43" stroke-linejoin="round" width="5" height="24" fill="rgb(225,67,110)" stroke="rgb(180,53,88)" stroke-width="1" opacity="0.75" />
			</g>
		</g>
		<g>
			<title>rhtB
putative membrane protein</title>
			<polygon class="rhtB
putative membrane protein" points="53,40 73,10 73,70" fill="rgb(255,255,255)" fill-opacity="1.0" stroke="rgb(0,0,0)" stroke-width="2"  />
			<g>
				<title>LysE (PF01810)
"LysE type translocator"</title>
				<polygon class="PF01810" points="57,40 65,28 71,28 71,52 65,52" stroke-linejoin="round" width="18" height="24" fill="rgb(178,96,213)" stroke="rgb(142,76,170)" stroke-width="1" opacity="0.75" />
			</g>
		</g>
		<g>
			<title>pcoI
acyl-homoserine lactone synthase</title>
			<polygon class="pcoI
acyl-homoserine lactone synthase" points="92,10 117,40 92,70" fill="rgb(255,255,255)" fill-opacity="1.0" stroke="rgb(0,0,0)" stroke-width="2"  />
			<g>
				<title>Autoind_synth (PF00765)
"Autoinducer synthase"</title>
				<polygon class="PF00765" points="93,28 103,28 111,37 111,43 103,52 93,52" stroke-linejoin="round" width="18" height="24" fill="rgb(219,89,154)" stroke="rgb(175,71,123)" stroke-width="1" opacity="0.75" />
			</g>
		</g>
		<g>
			<title>rfiA
RfiA</title>
			<polygon class="rfiA
RfiA" points="119,10 147,40 119,70" fill="rgb(255,255,255)" fill-opacity="1.0" stroke="rgb(0,0,0)" stroke-width="2"  />
			<g>
				<title>GerE (PF00196)
"Bacterial regulatory proteins, luxR family"</title>
				<polygon class="PF00196" points="140,37 143,40 140,43" stroke-linejoin="round" width="5" height="24" fill="rgb(225,67,110)" stroke="rgb(180,53,88)" stroke-width="1" opacity="0.75" />
			</g>
		</g>
		<g>
			<title>pcoC
PcoC</title>
			<polygon class="pcoC
PcoC" points="252,25 180,25 180,10 150,40 180,70 180,55 252,55" fill="rgb(255,255,255)" fill-opacity="1.0" stroke="rgb(0,0,0)" stroke-width="2"  />
			<g>
				<title>ACR_tran (PF00873)
"AcrB/AcrD/AcrF family"</title>
				<polygon class="PF00873" points="154,40 166,28 251,28 251,52 166,52" stroke-linejoin="round" width="99" height="24" fill="rgb(66,228,110)" stroke="rgb(52,182,88)" stroke-width="1" opacity="0.75" />
			</g>
		</g>
		<g>
			<title>pcoB
PcoB</title>
			<polygon class="pcoB
PcoB" points="290,25 282,25 282,10 252,40 282,70 282,55 290,55" fill="rgb(255,255,255)" fill-opacity="1.0" stroke="rgb(0,0,0)" stroke-width="2"  />
			<g>
				<title>HlyD_D23 (PF16576)
"Barrel-sandwich domain of CusB or HlyD membrane-fusion"</title>
				<polygon class="PF16576" points="261,35 268,28 282,28 282,52 268,52 261,45" stroke-linejoin="round" width="21" height="24" fill="rgb(179,156,45)" stroke="rgb(143,124,36)" stroke-width="1" opacity="0.75" />
			</g>
		</g>
		<g>
			<title>pcoA
PcoA</title>
			<polygon class="pcoA
PcoA" points="336,25 319,25 319,10 289,40 319,70 319,55 336,55" fill="rgb(255,255,255)" fill-opacity="1.0" stroke="rgb(0,0,0)" stroke-width="2"  />
			<g>
				<title>OEP (PF02321)
"Outer membrane efflux protein"</title>
				<polygon class="PF02321" points="293,40 305,28 309,28 309,52 305,52" stroke-linejoin="round" width="18" height="24" fill="rgb(225,95,192)" stroke="rgb(180,76,153)" stroke-width="1" opacity="0.75" />
			</g>
			<g>
				<title>OEP (PF02321)
"Outer membrane efflux protein"</title>
				<rect class="PF02321" x="311" y="28" stroke-linejoin="round" width="18" height="24" fill="rgb(225,95,192)" stroke="rgb(180,76,153)" stroke-width="1" opacity="0.75" />
			</g>
		</g>
		<g>
			<title>
putative diaminobutyrate-2-oxoglutarate transaminase protein</title>
			<polygon class="
putative diaminobutyrate-2-oxoglutarate transaminase protein" points="350,25 364,25 364,10 394,40 364,70 364,55 350,55" fill="rgb(255,255,255)" fill-opacity="1.0" stroke="rgb(0,0,0)" stroke-width="2"  />
			<g>
				<title>Aminotran_3 (PF00202)
"Aminotransferase class-III"</title>
				<polygon class="PF00202" points="351,28 378,28 390,40 378,52 351,52" stroke-linejoin="round" width="41" height="24" fill="rgb(182,63,213)" stroke="rgb(145,50,170)" stroke-width="1" opacity="0.75" />
			</g>
		</g>
		<g>
			<title>crpE
ABC transporter protein</title>
			<polygon class="crpE
ABC transporter protein" points="470,25 435,25 435,10 405,40 435,70 435,55 470,55" fill="rgb(255,255,255)" fill-opacity="1.0" stroke="rgb(0,0,0)" stroke-width="2"  />
			<g>
				<title>FtsX (PF02687)
"FtsX-like permease family"</title>
				<polygon class="PF02687" points="409,40 416,33 416,47" stroke-linejoin="round" width="11" height="24" fill="rgb(136,199,60)" stroke="rgb(108,159,48)" stroke-width="1" opacity="0.75" />
			</g>
			<g>
				<title>MacB_PCD (PF12704)
"MacB-like periplasmic core domain"</title>
				<polygon class="PF12704" points="420,29 421,28 442,28 442,52 421,52 420,51" stroke-linejoin="round" width="22" height="24" fill="rgb(117,61,225)" stroke="rgb(93,48,180)" stroke-width="1" opacity="0.75" />
			</g>
			<g>
				<title>ABC_tran (PF00005)
"ABC transporter"</title>
				<rect class="PF00005" x="453" y="28" stroke-linejoin="round" width="14" height="24" fill="rgb(46,186,108)" stroke="rgb(36,148,86)" stroke-width="1" opacity="0.75" />
			</g>
		</g>
		<g>
			<title>crpD
membrane fusion protein</title>
			<polygon class="crpD
membrane fusion protein" points="508,25 500,25 500,10 470,40 500,70 500,55 508,55" fill="rgb(255,255,255)" fill-opacity="1.0" stroke="rgb(0,0,0)" stroke-width="2"  />
			<g>
				<title>HlyD_D23 (PF16576)
"Barrel-sandwich domain of CusB or HlyD membrane-fusion"</title>
				<polygon class="PF16576" points="482,32 486,28 504,28 504,52 486,52 482,48" stroke-linejoin="round" width="22" height="24" fill="rgb(179,156,45)" stroke="rgb(143,124,36)" stroke-width="1" opacity="0.75" />
			</g>
		</g>
		<g>
			<title>crpC
non ribosomal peptide synthetase</title>
			<polygon class="crpC
non ribosomal peptide synthetase" points="727,25 541,25 541,10 511,40 541,70 541,55 727,55" fill="rgb(255,255,255)" fill-opacity="1.0" stroke="rgb(0,0,0)" stroke-width="2"  />
			<g>
				<title>Thioesterase (PF00975)
"Thioesterase domain"</title>
				<polygon class="PF00975" points="515,40 527,28 537,28 537,52 527,52" stroke-linejoin="round" width="25" height="24" fill="rgb(69,76,223)" stroke="rgb(55,60,178)" stroke-width="1" opacity="0.75" />
			</g>
			<g>
				<title>Thioesterase (PF00975)
"Thioesterase domain"</title>
				<rect class="PF00975" x="541" y="28" stroke-linejoin="round" width="26" height="24" fill="rgb(69,76,223)" stroke="rgb(55,60,178)" stroke-width="1" opacity="0.75" />
			</g>
			<g>
				<title>PP-binding (PF00550)
"Phosphopantetheine attachment site"</title>
				<rect class="PF00550" x="570" y="28" stroke-linejoin="round" width="6" height="24" fill="rgb(181,58,166)" stroke="rgb(144,46,132)" stroke-width="1" opacity="0.75" />
			</g>
			<g>
				<title>AMP-binding_C (PF13193)
"AMP-binding enzyme C-terminal domain"</title>
				<rect class="PF13193" x="579" y="28" stroke-linejoin="round" width="7" height="24" fill="rgb(195,82,106)" stroke="rgb(156,65,84)" stroke-width="1" opacity="0.75" />
			</g>
			<g>
				<title>AMP-binding (PF00501)
"AMP-binding enzyme"</title>
				<rect class="PF00501" x="592" y="28" stroke-linejoin="round" width="34" height="24" fill="rgb(189,78,204)" stroke="rgb(151,62,163)" stroke-width="1" opacity="0.75" />
			</g>
			<g>
				<title>Condensation (PF00668)
"Condensation domain"</title>
				<rect class="PF00668" x="629" y="28" stroke-linejoin="round" width="43" height="24" fill="rgb(172,217,60)" stroke="rgb(137,173,47)" stroke-width="1" opacity="0.75" />
			</g>
			<g>
				<title>PP-binding (PF00550)
"Phosphopantetheine attachment site"</title>
				<rect class="PF00550" x="677" y="28" stroke-linejoin="round" width="6" height="24" fill="rgb(181,58,166)" stroke="rgb(144,46,132)" stroke-width="1" opacity="0.75" />
			</g>
			<g>
				<title>AMP-binding_C (PF13193)
"AMP-binding enzyme C-terminal domain"</title>
				<rect class="PF13193" x="686" y="28" stroke-linejoin="round" width="7" height="24" fill="rgb(195,82,106)" stroke="rgb(156,65,84)" stroke-width="1" opacity="0.75" />
			</g>
			<g>
				<title>AMP-binding (PF00501)
"AMP-binding enzyme"</title>
				<rect class="PF00501" x="700" y="28" stroke-linejoin="round" width="26" height="24" fill="rgb(189,78,204)" stroke="rgb(151,62,163)" stroke-width="1" opacity="0.75" />
			</g>
		</g>
	</g>
</svg>
