<svg version="1.1" baseProfile="full" xmlns="http://www.w3.org/2000/svg" width="1326.6333333333334" height="80">
	<g>
		<line x1="10" y1="40.0" x2="1316.6333333333334" y2="40.0" style="stroke:rgb(70,70,70); stroke-width:3 "/>
		<g>
			<title>
putative uncharacterized protein</title>
			<polygon class="
putative uncharacterized protein" points="10,40 31,10 31,70" fill="rgb(255,255,255)" fill-opacity="1.0" stroke="rgb(0,0,0)" stroke-width="2"  />
			<g>
				<title>LUD_dom (PF02589)
"LUD domain"</title>
				<polygon class="PF02589" points="14,40 20,32 20,48" stroke-linejoin="round" width="10" height="24" fill="rgb(68,212,75)" stroke="rgb(54,169,59)" stroke-width="1" opacity="0.75" />
			</g>
		</g>
		<g>
			<title>
putative iron-sulfur protein</title>
			<polygon class="
putative iron-sulfur protein" points="78,25 61,25 61,10 31,40 61,70 61,55 78,55" fill="rgb(255,255,255)" fill-opacity="1.0" stroke="rgb(0,0,0)" stroke-width="2"  />
			<g>
				<title>LutB_C (PF11870)
"Lactate utilisation protein B, C-terminal"</title>
				<polygon class="PF11870" points="35,40 39,36 39,44" stroke-linejoin="round" width="8" height="24" fill="rgb(229,91,217)" stroke="rgb(183,72,173)" stroke-width="1" opacity="0.75" />
			</g>
			<g>
				<title>Fer4_8 (PF13183)
"4Fe-4S dicluster domain"</title>
				<polygon class="PF13183" points="40,35 47,28 47,28 47,52 47,52 40,45" stroke-linejoin="round" width="7" height="24" fill="rgb(67,94,204)" stroke="rgb(53,75,163)" stroke-width="1" opacity="0.75" />
			</g>
			<g>
				<title>LUD_dom (PF02589)
"LUD domain"</title>
				<rect class="PF02589" x="48" y="28" stroke-linejoin="round" width="22" height="24" fill="rgb(68,212,75)" stroke="rgb(54,169,59)" stroke-width="1" opacity="0.75" />
			</g>
		</g>
		<g>
			<title>
putative uncharacterized protein</title>
			<polygon class="
putative uncharacterized protein" points="78,40 102,10 102,70" fill="rgb(255,255,255)" fill-opacity="1.0" stroke="rgb(0,0,0)" stroke-width="2"  />
			<g>
				<title>CCG (PF02754)
"Cysteine-rich domain"</title>
				<polygon class="PF02754" points="82,40 88,33 88,47" stroke-linejoin="round" width="8" height="24" fill="rgb(215,106,96)" stroke="rgb(172,84,76)" stroke-width="1" opacity="0.75" />
			</g>
			<g>
				<title>CCG (PF02754)
"Cysteine-rich domain"</title>
				<rect class="PF02754" x="94" y="28" stroke-linejoin="round" width="8" height="24" fill="rgb(215,106,96)" stroke="rgb(172,84,76)" stroke-width="1" opacity="0.75" />
			</g>
		</g>
		<g>
			<title>
GntR family transcriptional regulator</title>
			<polygon class="
GntR family transcriptional regulator" points="130,10 154,40 130,70" fill="rgb(255,255,255)" fill-opacity="1.0" stroke="rgb(0,0,0)" stroke-width="2"  />
			<g>
				<title>GntR (PF00392)
"Bacterial regulatory proteins, gntR family"</title>
				<rect class="PF00392" x="132" y="28" stroke-linejoin="round" width="6" height="24" fill="rgb(215,102,113)" stroke="rgb(172,81,90)" stroke-width="1" opacity="0.75" />
			</g>
			<g>
				<title>FCD (PF07729)
"FCD domain"</title>
				<polygon class="PF07729" points="140,28 141,28 150,40 141,52 140,52" stroke-linejoin="round" width="12" height="24" fill="rgb(57,62,208)" stroke="rgb(45,49,166)" stroke-width="1" opacity="0.75" />
			</g>
		</g>
		<g>
			<title>
peptidase S15</title>
			<polygon class="
peptidase S15" points="225,25 188,25 188,10 158,40 188,70 188,55 225,55" fill="rgb(255,255,255)" fill-opacity="1.0" stroke="rgb(0,0,0)" stroke-width="2"  />
			<g>
				<title>PepX_C (PF08530)
"X-Pro dipeptidyl-peptidase C-terminal non-catalytic domain"</title>
				<polygon class="PF08530" points="171,31 174,28 194,28 194,52 174,52 171,49" stroke-linejoin="round" width="23" height="24" fill="rgb(183,53,98)" stroke="rgb(146,42,78)" stroke-width="1" opacity="0.75" />
			</g>
			<g>
				<title>Peptidase_S15 (PF02129)
"X-Pro dipeptidyl-peptidase (S15 family)"</title>
				<rect class="PF02129" x="198" y="28" stroke-linejoin="round" width="25" height="24" fill="rgb(95,196,87)" stroke="rgb(76,156,69)" stroke-width="1" opacity="0.75" />
			</g>
		</g>
		<g>
			<title>
putative uncharacterized protein</title>
			<polygon class="
putative uncharacterized protein" points="268,25 256,25 256,10 226,40 256,70 256,55 268,55" fill="rgb(255,255,255)" fill-opacity="1.0" stroke="rgb(0,0,0)" stroke-width="2"  />
			<g>
				<title>ATP-grasp_4 (PF13535)
"ATP-grasp domain"</title>
				<polygon class="PF13535" points="239,31 242,28 255,28 255,52 242,52 239,49" stroke-linejoin="round" width="16" height="24" fill="rgb(82,135,191)" stroke="rgb(65,107,152)" stroke-width="1" opacity="0.75" />
			</g>
		</g>
		<g>
			<title>
putative uncharacterized protein</title>
			<polygon class="
putative uncharacterized protein" points="278,10 289,40 278,70" fill="rgb(255,255,255)" fill-opacity="1.0" stroke="rgb(0,0,0)" stroke-width="2"  />
			<g>
				<title>DUF892 (PF05974)
"Domain of unknown function (DUF892)"</title>
				<polygon class="PF05974" points="278,28 281,28 285,40 281,52 278,52" stroke-linejoin="round" width="8" height="24" fill="rgb(83,191,177)" stroke="rgb(66,152,141)" stroke-width="1" opacity="0.75" />
			</g>
		</g>
		<g>
			<title>
NTP-pyrophosphohydrolase</title>
			<polygon class="
NTP-pyrophosphohydrolase" points="317,10 331,40 317,70" fill="rgb(255,255,255)" fill-opacity="1.0" stroke="rgb(0,0,0)" stroke-width="2"  />
			<g>
				<title>NUDIX (PF00293)
"NUDIX domain"</title>
				<polygon class="PF00293" points="317,28 322,28 328,40 322,52 317,52" stroke-linejoin="round" width="13" height="24" fill="rgb(185,54,57)" stroke="rgb(148,43,45)" stroke-width="1" opacity="0.75" />
			</g>
		</g>
		<g>
			<title>
oxireductase</title>
			<polygon class="
oxireductase" points="332,25 340,25 340,10 370,40 340,70 340,55 332,55" fill="rgb(255,255,255)" fill-opacity="1.0" stroke="rgb(0,0,0)" stroke-width="2"  />
			<g>
				<title>GFO_IDH_MocA (PF01408)
"Oxidoreductase family, NAD-binding Rossmann fold"</title>
				<rect class="PF01408" x="334" y="28" stroke-linejoin="round" width="11" height="24" fill="rgb(53,193,178)" stroke="rgb(42,154,142)" stroke-width="1" opacity="0.75" />
			</g>
			<g>
				<title>GFO_IDH_MocA_C (PF02894)
"Oxidoreductase family, C-terminal alpha/beta domain"</title>
				<polygon class="PF02894" points="347,28 354,28 364,38 364,42 354,52 347,52" stroke-linejoin="round" width="17" height="24" fill="rgb(89,185,176)" stroke="rgb(71,148,140)" stroke-width="1" opacity="0.75" />
			</g>
		</g>
		<g>
			<title>
aminotransferase</title>
			<polygon class="
aminotransferase" points="370,25 383,25 383,10 413,40 383,70 383,55 370,55" fill="rgb(255,255,255)" fill-opacity="1.0" stroke="rgb(0,0,0)" stroke-width="2"  />
			<g>
				<title>DegT_DnrJ_EryC1 (PF01041)
"DegT/DnrJ/EryC1/StrS aminotransferase family"</title>
				<polygon class="PF01041" points="373,28 396,28 407,39 407,41 396,52 373,52" stroke-linejoin="round" width="34" height="24" fill="rgb(228,110,183)" stroke="rgb(182,88,146)" stroke-width="1" opacity="0.75" />
			</g>
		</g>
		<g>
			<title>
N-methyltransferase</title>
			<polygon class="
N-methyltransferase" points="414,10 437,40 414,70" fill="rgb(255,255,255)" fill-opacity="1.0" stroke="rgb(0,0,0)" stroke-width="2"  />
			<g>
				<title>MTS (PF05175)
"Methyltransferase small domain"</title>
				<polygon class="PF05175" points="417,28 424,28 433,40 433,40 424,52 417,52" stroke-linejoin="round" width="16" height="24" fill="rgb(70,94,185)" stroke="rgb(56,75,148)" stroke-width="1" opacity="0.75" />
			</g>
		</g>
		<g>
			<title>
GDP-D-manose-4,6-dehydratase</title>
			<polygon class="
GDP-D-manose-4,6-dehydratase" points="475,25 470,25 470,10 440,40 470,70 470,55 475,55" fill="rgb(255,255,255)" fill-opacity="1.0" stroke="rgb(0,0,0)" stroke-width="2"  />
			<g>
				<title>GDP_Man_Dehyd (PF16363)
"GDP-mannose 4,6 dehydratase"</title>
				<polygon class="PF16363" points="444,40 456,28 473,28 473,52 456,52" stroke-linejoin="round" width="31" height="24" fill="rgb(50,144,195)" stroke="rgb(40,115,156)" stroke-width="1" opacity="0.75" />
			</g>
		</g>
		<g>
			<title>
acyltransferase</title>
			<polygon class="
acyltransferase" points="482,25 492,25 492,10 522,40 492,70 492,55 482,55" fill="rgb(255,255,255)" fill-opacity="1.0" stroke="rgb(0,0,0)" stroke-width="2"  />
			<g>
				<title>Acyl_transf_1 (PF00698)
"Acyl transferase domain"</title>
				<polygon class="PF00698" points="488,28 506,28 518,40 506,52 488,52" stroke-linejoin="round" width="31" height="24" fill="rgb(132,93,193)" stroke="rgb(105,74,154)" stroke-width="1" opacity="0.75" />
			</g>
		</g>
		<g>
			<title>
glycosyltransferase</title>
			<polygon class="
glycosyltransferase" points="559,25 552,25 552,10 522,40 552,70 552,55 559,55" fill="rgb(255,255,255)" fill-opacity="1.0" stroke="rgb(0,0,0)" stroke-width="2"  />
			<g>
				<title>Glyco_trans_1_4 (PF13692)
"Glycosyl transferases group 1"</title>
				<polygon class="PF13692" points="528,38 538,28 541,28 541,52 538,52 528,42" stroke-linejoin="round" width="13" height="24" fill="rgb(154,183,67)" stroke="rgb(123,146,53)" stroke-width="1" opacity="0.75" />
			</g>
		</g>
		<g>
			<title>
oxidoreductase</title>
			<polygon class="
oxidoreductase" points="591,25 590,25 590,10 560,40 590,70 590,55 591,55" fill="rgb(255,255,255)" fill-opacity="1.0" stroke="rgb(0,0,0)" stroke-width="2"  />
		</g>
		<g>
			<title>
ABC transporter</title>
			<polygon class="
ABC transporter" points="648,25 621,25 621,10 591,40 621,70 621,55 648,55" fill="rgb(255,255,255)" fill-opacity="1.0" stroke="rgb(0,0,0)" stroke-width="2"  />
			<g>
				<title>ABC_tran (PF00005)
"ABC transporter"</title>
				<polygon class="PF00005" points="597,38 607,28 609,28 609,52 607,52 597,42" stroke-linejoin="round" width="12" height="24" fill="rgb(46,186,108)" stroke="rgb(36,148,86)" stroke-width="1" opacity="0.75" />
			</g>
			<g>
				<title>ABC_tran (PF00005)
"ABC transporter"</title>
				<rect class="PF00005" x="628" y="28" stroke-linejoin="round" width="16" height="24" fill="rgb(46,186,108)" stroke="rgb(36,148,86)" stroke-width="1" opacity="0.75" />
			</g>
		</g>
		<g>
			<title>
glucokinase</title>
			<polygon class="
glucokinase" points="693,25 678,25 678,10 648,40 678,70 678,55 693,55" fill="rgb(255,255,255)" fill-opacity="1.0" stroke="rgb(0,0,0)" stroke-width="2"  />
			<g>
				<title>Glucokinase (PF02685)
"Glucokinase"</title>
				<polygon class="PF02685" points="664,28 664,28 687,28 687,52 664,52 664,52" stroke-linejoin="round" width="23" height="24" fill="rgb(70,182,66)" stroke="rgb(56,145,52)" stroke-width="1" opacity="0.75" />
			</g>
		</g>
		<g>
			<title>
transglycosylse</title>
			<polygon class="
transglycosylse" points="730,25 723,25 723,10 693,40 723,70 723,55 730,55" fill="rgb(255,255,255)" fill-opacity="1.0" stroke="rgb(0,0,0)" stroke-width="2"  />
			<g>
				<title>RGP (PF03214)
"Reversibly glycosylated polypeptide"</title>
				<polygon class="PF03214" points="697,40 709,28 729,28 729,52 709,52" stroke-linejoin="round" width="36" height="24" fill="rgb(89,190,158)" stroke="rgb(71,152,126)" stroke-width="1" opacity="0.75" />
			</g>
		</g>
		<g>
			<title>
NAD-dependent epimerase/dehydratase</title>
			<polygon class="
NAD-dependent epimerase/dehydratase" points="765,25 761,25 761,10 731,40 761,70 761,55 765,55" fill="rgb(255,255,255)" fill-opacity="1.0" stroke="rgb(0,0,0)" stroke-width="2"  />
			<g>
				<title>Epimerase (PF01370)
"NAD dependent epimerase/dehydratase family"</title>
				<polygon class="PF01370" points="740,35 747,28 764,28 764,52 747,52 740,45" stroke-linejoin="round" width="24" height="24" fill="rgb(215,89,157)" stroke="rgb(172,71,125)" stroke-width="1" opacity="0.75" />
			</g>
		</g>
		<g>
			<title>
acyl carrier protein</title>
			<polygon class="
acyl carrier protein" points="789,10 800,40 789,70" fill="rgb(255,255,255)" fill-opacity="1.0" stroke="rgb(0,0,0)" stroke-width="2"  />
			<g>
				<title>PP-binding (PF00550)
"Phosphopantetheine attachment site"</title>
				<polygon class="PF00550" points="792,28 792,28 797,40 792,52 792,52" stroke-linejoin="round" width="6" height="24" fill="rgb(181,58,166)" stroke="rgb(144,46,132)" stroke-width="1" opacity="0.75" />
			</g>
		</g>
		<g>
			<title>
ketoacyl synthase 1</title>
			<polygon class="
ketoacyl synthase 1" points="800,25 808,25 808,10 838,40 808,70 808,55 800,55" fill="rgb(255,255,255)" fill-opacity="1.0" stroke="rgb(0,0,0)" stroke-width="2"  />
			<g>
				<title>ketoacyl-synt (PF00109)
"Beta-ketoacyl synthase, N-terminal domain"</title>
				<rect class="PF00109" x="800" y="28" stroke-linejoin="round" width="20" height="24" fill="rgb(74,179,82)" stroke="rgb(59,143,65)" stroke-width="1" opacity="0.75" />
			</g>
			<g>
				<title>Ketoacyl-synt_C (PF02801)
"Beta-ketoacyl synthase, C-terminal domain"</title>
				<polygon class="PF02801" points="822,28 822,28 833,39 833,41 822,52 822,52" stroke-linejoin="round" width="11" height="24" fill="rgb(212,79,72)" stroke="rgb(169,63,57)" stroke-width="1" opacity="0.75" />
			</g>
		</g>
		<g>
			<title>
putative uncharacterized protein</title>
			<polygon class="
putative uncharacterized protein" points="839,10 865,40 839,70" fill="rgb(255,255,255)" fill-opacity="1.0" stroke="rgb(0,0,0)" stroke-width="2"  />
		</g>
		<g>
			<title>
CoA-ligase</title>
			<polygon class="
CoA-ligase" points="865,25 883,25 883,10 913,40 883,70 883,55 865,55" fill="rgb(255,255,255)" fill-opacity="1.0" stroke="rgb(0,0,0)" stroke-width="2"  />
			<g>
				<title>AMP-binding (PF00501)
"AMP-binding enzyme"</title>
				<rect class="PF00501" x="875" y="28" stroke-linejoin="round" width="21" height="24" fill="rgb(189,78,204)" stroke="rgb(151,62,163)" stroke-width="1" opacity="0.75" />
			</g>
			<g>
				<title>AMP-binding_C (PF13193)
"AMP-binding enzyme C-terminal domain"</title>
				<polygon class="PF13193" points="902,33 909,40 909,40 902,47" stroke-linejoin="round" width="7" height="24" fill="rgb(195,82,106)" stroke="rgb(156,65,84)" stroke-width="1" opacity="0.75" />
			</g>
		</g>
		<g>
			<title>
ACP</title>
			<polygon class="
ACP" points="914,10 923,40 914,70" fill="rgb(255,255,255)" fill-opacity="1.0" stroke="rgb(0,0,0)" stroke-width="2"  />
			<g>
				<title>PP-binding (PF00550)
"Phosphopantetheine attachment site"</title>
				<polygon class="PF00550" points="914,28 916,28 920,40 916,52 914,52" stroke-linejoin="round" width="7" height="24" fill="rgb(181,58,166)" stroke="rgb(144,46,132)" stroke-width="1" opacity="0.75" />
			</g>
		</g>
		<g>
			<title>
3-ketoacyl ACP dehydratase</title>
			<polygon class="
3-ketoacyl ACP dehydratase" points="923,25 927,25 927,10 957,40 927,70 927,55 923,55" fill="rgb(255,255,255)" fill-opacity="1.0" stroke="rgb(0,0,0)" stroke-width="2"  />
		</g>
		<g>
			<title>
phosphotransferase</title>
			<polygon class="
phosphotransferase" points="957,10 976,40 957,70" fill="rgb(255,255,255)" fill-opacity="1.0" stroke="rgb(0,0,0)" stroke-width="2"  />
			<g>
				<title>AAA_18 (PF13238)
"AAA domain"</title>
				<polygon class="PF13238" points="958,28 965,28 971,38 971,42 965,52 958,52" stroke-linejoin="round" width="13" height="24" fill="rgb(186,78,190)" stroke="rgb(148,62,152)" stroke-width="1" opacity="0.75" />
			</g>
		</g>
		<g>
			<title>
3-ketoacyl ACP reductase</title>
			<polygon class="
3-ketoacyl ACP reductase" points="976,10 1001,40 976,70" fill="rgb(255,255,255)" fill-opacity="1.0" stroke="rgb(0,0,0)" stroke-width="2"  />
			<g>
				<title>adh_short_C2 (PF13561)
"Enoyl-(Acyl carrier protein) reductase"</title>
				<polygon class="PF13561" points="977,28 987,28 997,40 987,52 977,52" stroke-linejoin="round" width="23" height="24" fill="rgb(79,221,209)" stroke="rgb(63,176,167)" stroke-width="1" opacity="0.75" />
			</g>
		</g>
		<g>
			<title>
glycosyltransferase</title>
			<polygon class="
glycosyltransferase" points="1002,25 1014,25 1014,10 1044,40 1014,70 1014,55 1002,55" fill="rgb(255,255,255)" fill-opacity="1.0" stroke="rgb(0,0,0)" stroke-width="2"  />
			<g>
				<title>EryCIII-like_C (PF06722)
"Erythromycin biosynthesis protein CIII-like, C-terminal domain"</title>
				<polygon class="PF06722" points="1027,28 1028,28 1038,38 1038,42 1028,52 1027,52" stroke-linejoin="round" width="11" height="24" fill="rgb(48,103,191)" stroke="rgb(38,82,152)" stroke-width="1" opacity="0.75" />
			</g>
		</g>
		<g>
			<title>
methyltransferase</title>
			<polygon class="
methyltransferase" points="1044,25 1049,25 1049,10 1079,40 1049,70 1049,55 1044,55" fill="rgb(255,255,255)" fill-opacity="1.0" stroke="rgb(0,0,0)" stroke-width="2"  />
			<g>
				<title>Methyltransf_23 (PF13489)
"Methyltransferase domain"</title>
				<rect class="PF13489" x="1046" y="28" stroke-linejoin="round" width="16" height="24" fill="rgb(62,214,70)" stroke="rgb(49,171,56)" stroke-width="1" opacity="0.75" />
			</g>
		</g>
		<g>
			<title>
putative chorismate pyruvate-lyase</title>
			<polygon class="
putative chorismate pyruvate-lyase" points="1080,10 1098,40 1080,70" fill="rgb(255,255,255)" fill-opacity="1.0" stroke="rgb(0,0,0)" stroke-width="2"  />
		</g>
		<g>
			<title>
methyltransferase</title>
			<polygon class="
methyltransferase" points="1103,10 1127,40 1103,70" fill="rgb(255,255,255)" fill-opacity="1.0" stroke="rgb(0,0,0)" stroke-width="2"  />
			<g>
				<title>Methyltransf_21 (PF05050)
"Methyltransferase FkbM domain"</title>
				<polygon class="PF05050" points="1106,28 1114,28 1122,39 1122,41 1114,52 1106,52" stroke-linejoin="round" width="16" height="24" fill="rgb(141,93,211)" stroke="rgb(112,74,168)" stroke-width="1" opacity="0.75" />
			</g>
		</g>
		<g>
			<title>
transmembrane protein</title>
			<polygon class="
transmembrane protein" points="1170,25 1157,25 1157,10 1127,40 1157,70 1157,55 1170,55" fill="rgb(255,255,255)" fill-opacity="1.0" stroke="rgb(0,0,0)" stroke-width="2"  />
			<g>
				<title>MFS_1 (PF07690)
"Major Facilitator Superfamily"</title>
				<polygon class="PF07690" points="1131,40 1143,28 1166,28 1166,52 1143,52 1131,40" stroke-linejoin="round" width="35" height="24" fill="rgb(228,207,98)" stroke="rgb(182,165,78)" stroke-width="1" opacity="0.75" />
			</g>
		</g>
		<g>
			<title>
oxidoreductase</title>
			<polygon class="
oxidoreductase" points="1173,25 1196,25 1196,10 1226,40 1196,70 1196,55 1173,55" fill="rgb(255,255,255)" fill-opacity="1.0" stroke="rgb(0,0,0)" stroke-width="2"  />
			<g>
				<title>GMC_oxred_N (PF00732)
"GMC oxidoreductase"</title>
				<rect class="PF00732" x="1176" y="28" stroke-linejoin="round" width="28" height="24" fill="rgb(102,94,198)" stroke="rgb(81,75,158)" stroke-width="1" opacity="0.75" />
			</g>
			<g>
				<title>GMC_oxred_C (PF05199)
"GMC oxidoreductase"</title>
				<polygon class="PF05199" points="1211,30 1221,40 1211,50" stroke-linejoin="round" width="14" height="24" fill="rgb(206,67,222)" stroke="rgb(164,53,177)" stroke-width="1" opacity="0.75" />
			</g>
		</g>
		<g>
			<title>
methyltransferase</title>
			<polygon class="
methyltransferase" points="1226,10 1250,40 1226,70" fill="rgb(255,255,255)" fill-opacity="1.0" stroke="rgb(0,0,0)" stroke-width="2"  />
			<g>
				<title>Methyltransf_21 (PF05050)
"Methyltransferase FkbM domain"</title>
				<polygon class="PF05050" points="1230,28 1236,28 1246,40 1246,40 1236,52 1230,52" stroke-linejoin="round" width="16" height="24" fill="rgb(141,93,211)" stroke="rgb(112,74,168)" stroke-width="1" opacity="0.75" />
			</g>
		</g>
		<g>
			<title>
inositol-phosphate phosphatase</title>
			<polygon class="
inositol-phosphate phosphatase" points="1251,10 1277,40 1251,70" fill="rgb(255,255,255)" fill-opacity="1.0" stroke="rgb(0,0,0)" stroke-width="2"  />
			<g>
				<title>Inositol_P (PF00459)
"Inositol monophosphatase family"</title>
				<polygon class="PF00459" points="1251,28 1263,28 1273,40 1263,52 1251,52" stroke-linejoin="round" width="25" height="24" fill="rgb(213,222,107)" stroke="rgb(170,177,85)" stroke-width="1" opacity="0.75" />
			</g>
		</g>
		<g>
			<title>
putative gas vesicle synthesis protein</title>
			<polygon class="
putative gas vesicle synthesis protein" points="1288,10 1298,40 1288,70" fill="rgb(255,255,255)" fill-opacity="1.0" stroke="rgb(0,0,0)" stroke-width="2"  />
			<g>
				<title>GvpO (PF05800)
"Gas vesicle synthesis protein GvpO"</title>
				<polygon class="PF05800" points="1288,28 1290,28 1295,40 1290,52 1288,52" stroke-linejoin="round" width="9" height="24" fill="rgb(81,62,213)" stroke="rgb(64,49,170)" stroke-width="1" opacity="0.75" />
			</g>
		</g>
		<g>
			<title>
putative gas vesicle synthesis protein</title>
			<polygon class="
putative gas vesicle synthesis protein" points="1301,10 1315,40 1301,70" fill="rgb(255,255,255)" fill-opacity="1.0" stroke="rgb(0,0,0)" stroke-width="2"  />
			<g>
				<title>Gas_vesicle (PF00741)
"Gas vesicle protein"</title>
				<rect class="PF00741" x="1302" y="28" stroke-linejoin="round" width="3" height="24" fill="rgb(65,197,128)" stroke="rgb(52,157,102)" stroke-width="1" opacity="0.75" />
			</g>
		</g>
	</g>
</svg>
