<svg version="1.1" baseProfile="full" xmlns="http://www.w3.org/2000/svg" width="1220.0" height="80">
	<g>
		<line x1="10" y1="40.0" x2="1210.0" y2="40.0" style="stroke:rgb(70,70,70); stroke-width:3 "/>
		<g>
			<title>hutU
urocanase</title>
			<polygon class="hutU
urocanase" points="17,25 43,25 43,10 73,40 43,70 43,55 17,55" fill="rgb(255,255,255)" fill-opacity="1.0" stroke="rgb(0,0,0)" stroke-width="2"  />
			<g>
				<title>Urocanase_N (PF17391)
"Urocanase N-terminal domain"</title>
				<rect class="PF17391" x="17" y="28" stroke-linejoin="round" width="12" height="24" fill="rgb(143,78,182)" stroke="rgb(114,62,145)" stroke-width="1" opacity="0.75" />
			</g>
			<g>
				<title>Urocanase (PF01175)
"Urocanase Rossmann-like domain"</title>
				<rect class="PF01175" x="30" y="28" stroke-linejoin="round" width="21" height="24" fill="rgb(202,77,122)" stroke="rgb(161,61,97)" stroke-width="1" opacity="0.75" />
			</g>
			<g>
				<title>Urocanase_C (PF17392)
"Urocanase C-terminal domain"</title>
				<polygon class="PF17392" points="52,28 57,28 69,40 57,52 52,52" stroke-linejoin="round" width="19" height="24" fill="rgb(218,97,116)" stroke="rgb(174,77,92)" stroke-width="1" opacity="0.75" />
			</g>
		</g>
		<g>
			<title>hutH
histidine ammonia-lyase</title>
			<polygon class="hutH
histidine ammonia-lyase" points="74,25 95,25 95,10 125,40 95,70 95,55 74,55" fill="rgb(255,255,255)" fill-opacity="1.0" stroke="rgb(0,0,0)" stroke-width="2"  />
			<g>
				<title>Lyase_aromatic (PF00221)
"Aromatic amino acid lyase"</title>
				<polygon class="PF00221" points="75,28 109,28 121,40 121,40 109,52 75,52" stroke-linejoin="round" width="46" height="24" fill="rgb(198,213,89)" stroke="rgb(158,170,71)" stroke-width="1" opacity="0.75" />
			</g>
		</g>
		<g>
			<title>hutG
formiminoglutamase</title>
			<polygon class="hutG
formiminoglutamase" points="125,25 126,25 126,10 156,40 126,70 126,55 125,55" fill="rgb(255,255,255)" fill-opacity="1.0" stroke="rgb(0,0,0)" stroke-width="2"  />
			<g>
				<title>Arginase (PF00491)
"Arginase family"</title>
				<polygon class="PF00491" points="128,28 140,28 152,40 140,52 128,52" stroke-linejoin="round" width="27" height="24" fill="rgb(192,133,57)" stroke="rgb(153,106,45)" stroke-width="1" opacity="0.75" />
			</g>
		</g>
		<g>
			<title>hutI
imidazolonepropionase</title>
			<polygon class="hutI
imidazolonepropionase" points="157,25 167,25 167,10 197,40 167,70 167,55 157,55" fill="rgb(255,255,255)" fill-opacity="1.0" stroke="rgb(0,0,0)" stroke-width="2"  />
			<g>
				<title>Amidohydro_1 (PF01979)
"Amidohydrolase family"</title>
				<polygon class="PF01979" points="163,28 181,28 193,40 181,52 163,52" stroke-linejoin="round" width="33" height="24" fill="rgb(190,76,113)" stroke="rgb(152,60,90)" stroke-width="1" opacity="0.75" />
			</g>
		</g>
		<g>
			<title>
two-component hybrid sensor/regulator</title>
			<polygon class="
two-component hybrid sensor/regulator" points="201,25 241,25 241,10 271,40 241,70 241,55 201,55" fill="rgb(255,255,255)" fill-opacity="1.0" stroke="rgb(0,0,0)" stroke-width="2"  />
			<g>
				<title>PAS_3 (PF08447)
"PAS fold"</title>
				<rect class="PF08447" x="206" y="28" stroke-linejoin="round" width="8" height="24" fill="rgb(84,184,80)" stroke="rgb(67,147,64)" stroke-width="1" opacity="0.75" />
			</g>
			<g>
				<title>GAF (PF01590)
"GAF domain"</title>
				<rect class="PF01590" x="218" y="28" stroke-linejoin="round" width="14" height="24" fill="rgb(91,61,214)" stroke="rgb(72,48,171)" stroke-width="1" opacity="0.75" />
			</g>
			<g>
				<title>HisKA (PF00512)
"His Kinase A (phospho-acceptor) domain"</title>
				<rect class="PF00512" x="234" y="28" stroke-linejoin="round" width="6" height="24" fill="rgb(57,81,199)" stroke="rgb(45,64,159)" stroke-width="1" opacity="0.75" />
			</g>
			<g>
				<title>HATPase_c (PF02518)
"Histidine kinase-, DNA gyrase B-, and HSP90-like ATPase"</title>
				<polygon class="PF02518" points="245,28 255,28 256,29 256,51 255,52 245,52" stroke-linejoin="round" width="11" height="24" fill="rgb(94,146,210)" stroke="rgb(75,116,168)" stroke-width="1" opacity="0.75" />
			</g>
			<g>
				<title>Response_reg (PF00072)
"Response regulator receiver domain"</title>
				<polygon class="PF00072" points="259,32 267,40 259,48" stroke-linejoin="round" width="11" height="24" fill="rgb(59,131,198)" stroke="rgb(47,104,158)" stroke-width="1" opacity="0.75" />
			</g>
		</g>
		<g>
			<title>glbA
LysR-type regulator</title>
			<polygon class="glbA
LysR-type regulator" points="284,25 287,25 287,10 317,40 287,70 287,55 284,55" fill="rgb(255,255,255)" fill-opacity="1.0" stroke="rgb(0,0,0)" stroke-width="2"  />
			<g>
				<title>HTH_1 (PF00126)
"Bacterial regulatory helix-turn-helix protein, lysR family"</title>
				<rect class="PF00126" x="284" y="28" stroke-linejoin="round" width="5" height="24" fill="rgb(72,163,212)" stroke="rgb(57,130,169)" stroke-width="1" opacity="0.75" />
			</g>
			<g>
				<title>LysR_substrate (PF03466)
"LysR substrate binding domain"</title>
				<polygon class="PF03466" points="292,28 301,28 312,39 312,41 301,52 292,52" stroke-linejoin="round" width="20" height="24" fill="rgb(214,62,213)" stroke="rgb(171,49,170)" stroke-width="1" opacity="0.75" />
			</g>
		</g>
		<g>
			<title>glbB
conserved protein</title>
			<polygon class="glbB
conserved protein" points="330,10 358,40 330,70" fill="rgb(255,255,255)" fill-opacity="1.0" stroke="rgb(0,0,0)" stroke-width="2"  />
			<g>
				<title>2OG-Fe_Oxy_2 (PF10014)
"2OG-Fe dioxygenase"</title>
				<polygon class="PF10014" points="336,28 342,28 354,40 342,52 336,52" stroke-linejoin="round" width="20" height="24" fill="rgb(62,197,167)" stroke="rgb(49,157,133)" stroke-width="1" opacity="0.75" />
			</g>
		</g>
		<g>
			<title>glbC
sylD-like NRPS/PKS</title>
			<polygon class="glbC
sylD-like NRPS/PKS" points="360,25 748,25 748,10 778,40 748,70 748,55 360,55" fill="rgb(255,255,255)" fill-opacity="1.0" stroke="rgb(0,0,0)" stroke-width="2"  />
			<g>
				<title>Condensation (PF00668)
"Condensation domain"</title>
				<rect class="PF00668" x="362" y="28" stroke-linejoin="round" width="44" height="24" fill="rgb(172,217,60)" stroke="rgb(137,173,47)" stroke-width="1" opacity="0.75" />
			</g>
			<g>
				<title>AMP-binding (PF00501)
"AMP-binding enzyme"</title>
				<rect class="PF00501" x="408" y="28" stroke-linejoin="round" width="35" height="24" fill="rgb(189,78,204)" stroke="rgb(151,62,163)" stroke-width="1" opacity="0.75" />
			</g>
			<g>
				<title>AMP-binding_C (PF13193)
"AMP-binding enzyme C-terminal domain"</title>
				<rect class="PF13193" x="450" y="28" stroke-linejoin="round" width="7" height="24" fill="rgb(195,82,106)" stroke="rgb(156,65,84)" stroke-width="1" opacity="0.75" />
			</g>
			<g>
				<title>PP-binding (PF00550)
"Phosphopantetheine attachment site"</title>
				<rect class="PF00550" x="460" y="28" stroke-linejoin="round" width="6" height="24" fill="rgb(181,58,166)" stroke="rgb(144,46,132)" stroke-width="1" opacity="0.75" />
			</g>
			<g>
				<title>Condensation (PF00668)
"Condensation domain"</title>
				<rect class="PF00668" x="469" y="28" stroke-linejoin="round" width="45" height="24" fill="rgb(172,217,60)" stroke="rgb(137,173,47)" stroke-width="1" opacity="0.75" />
			</g>
			<g>
				<title>AMP-binding (PF00501)
"AMP-binding enzyme"</title>
				<rect class="PF00501" x="515" y="28" stroke-linejoin="round" width="33" height="24" fill="rgb(189,78,204)" stroke="rgb(151,62,163)" stroke-width="1" opacity="0.75" />
			</g>
			<g>
				<title>PP-binding (PF00550)
"Phosphopantetheine attachment site"</title>
				<rect class="PF00550" x="565" y="28" stroke-linejoin="round" width="6" height="24" fill="rgb(181,58,166)" stroke="rgb(144,46,132)" stroke-width="1" opacity="0.75" />
			</g>
			<g>
				<title>ketoacyl-synt (PF00109)
"Beta-ketoacyl synthase, N-terminal domain"</title>
				<rect class="PF00109" x="575" y="28" stroke-linejoin="round" width="24" height="24" fill="rgb(74,179,82)" stroke="rgb(59,143,65)" stroke-width="1" opacity="0.75" />
			</g>
			<g>
				<title>Ketoacyl-synt_C (PF02801)
"Beta-ketoacyl synthase, C-terminal domain"</title>
				<rect class="PF02801" x="600" y="28" stroke-linejoin="round" width="12" height="24" fill="rgb(212,79,72)" stroke="rgb(169,63,57)" stroke-width="1" opacity="0.75" />
			</g>
			<g>
				<title>KAsynt_C_assoc (PF16197)
"Ketoacyl-synthetase C-terminal extension"</title>
				<rect class="PF16197" x="613" y="28" stroke-linejoin="round" width="11" height="24" fill="rgb(200,86,70)" stroke="rgb(160,68,56)" stroke-width="1" opacity="0.75" />
			</g>
			<g>
				<title>Acyl_transf_1 (PF00698)
"Acyl transferase domain"</title>
				<rect class="PF00698" x="627" y="28" stroke-linejoin="round" width="31" height="24" fill="rgb(132,93,193)" stroke="rgb(105,74,154)" stroke-width="1" opacity="0.75" />
			</g>
			<g>
				<title>PKS_DH_N (PF21089)
"Polyketide synthase dehydratase domain"</title>
				<rect class="PF21089" x="664" y="28" stroke-linejoin="round" width="9" height="24" fill="rgb(67,151,200)" stroke="rgb(53,120,160)" stroke-width="1" opacity="0.75" />
			</g>
			<g>
				<title>PS-DH (PF14765)
"Polyketide synthase dehydratase N-terminal domain"</title>
				<rect class="PF14765" x="677" y="28" stroke-linejoin="round" width="14" height="24" fill="rgb(189,61,178)" stroke="rgb(151,48,142)" stroke-width="1" opacity="0.75" />
			</g>
			<g>
				<title>Beta-ketacyl_N (PF21394)
"Beta-ketoacyl synthase-like, N-terminal"</title>
				<rect class="PF21394" x="694" y="28" stroke-linejoin="round" width="15" height="24" fill="rgb(199,58,86)" stroke="rgb(159,46,68)" stroke-width="1" opacity="0.75" />
			</g>
			<g>
				<title>KR (PF08659)
"KR domain"</title>
				<rect class="PF08659" x="714" y="28" stroke-linejoin="round" width="19" height="24" fill="rgb(203,145,81)" stroke="rgb(162,116,64)" stroke-width="1" opacity="0.75" />
			</g>
			<g>
				<title>PP-binding (PF00550)
"Phosphopantetheine attachment site"</title>
				<rect class="PF00550" x="741" y="28" stroke-linejoin="round" width="6" height="24" fill="rgb(181,58,166)" stroke="rgb(144,46,132)" stroke-width="1" opacity="0.75" />
			</g>
			<g>
				<title>Thioesterase (PF00975)
"Thioesterase domain"</title>
				<polygon class="PF00975" points="750,28 761,28 773,40 761,52 750,52" stroke-linejoin="round" width="26" height="24" fill="rgb(69,76,223)" stroke="rgb(55,60,178)" stroke-width="1" opacity="0.75" />
			</g>
		</g>
		<g>
			<title>glbD
major facilitator superfamily transporter</title>
			<polygon class="glbD
major facilitator superfamily transporter" points="778,25 791,25 791,10 821,40 791,70 791,55 778,55" fill="rgb(255,255,255)" fill-opacity="1.0" stroke="rgb(0,0,0)" stroke-width="2"  />
			<g>
				<title>MFS_1 (PF07690)
"Major Facilitator Superfamily"</title>
				<polygon class="PF07690" points="780,28 805,28 814,37 814,43 805,52 780,52" stroke-linejoin="round" width="34" height="24" fill="rgb(228,207,98)" stroke="rgb(182,165,78)" stroke-width="1" opacity="0.75" />
			</g>
		</g>
		<g>
			<title>glbE
MbtH-like protein</title>
			<polygon class="glbE
MbtH-like protein" points="821,10 828,40 821,70" fill="rgb(255,255,255)" fill-opacity="1.0" stroke="rgb(0,0,0)" stroke-width="2"  />
			<g>
				<title>MbtH (PF03621)
"MbtH-like protein"</title>
				<polygon class="PF03621" points="821,28 821,28 825,40 821,52 821,52" stroke-linejoin="round" width="5" height="24" fill="rgb(102,212,116)" stroke="rgb(81,169,92)" stroke-width="1" opacity="0.75" />
			</g>
		</g>
		<g>
			<title>glbF
NRPS module protein</title>
			<polygon class="glbF
NRPS module protein" points="829,25 907,25 907,10 937,40 907,70 907,55 829,55" fill="rgb(255,255,255)" fill-opacity="1.0" stroke="rgb(0,0,0)" stroke-width="2"  />
			<g>
				<title>Condensation (PF00668)
"Condensation domain"</title>
				<rect class="PF00668" x="829" y="28" stroke-linejoin="round" width="44" height="24" fill="rgb(172,217,60)" stroke="rgb(137,173,47)" stroke-width="1" opacity="0.75" />
			</g>
			<g>
				<title>AMP-binding (PF00501)
"AMP-binding enzyme"</title>
				<rect class="PF00501" x="875" y="28" stroke-linejoin="round" width="36" height="24" fill="rgb(189,78,204)" stroke="rgb(151,62,163)" stroke-width="1" opacity="0.75" />
			</g>
			<g>
				<title>AMP-binding_C (PF13193)
"AMP-binding enzyme C-terminal domain"</title>
				<polygon class="PF13193" points="918,28 921,28 925,32 925,48 921,52 918,52" stroke-linejoin="round" width="7" height="24" fill="rgb(195,82,106)" stroke="rgb(156,65,84)" stroke-width="1" opacity="0.75" />
			</g>
			<g>
				<title>PP-binding (PF00550)
"Phosphopantetheine attachment site"</title>
				<polygon class="PF00550" points="928,35 933,40 928,45" stroke-linejoin="round" width="6" height="24" fill="rgb(181,58,166)" stroke="rgb(144,46,132)" stroke-width="1" opacity="0.75" />
			</g>
		</g>
		<g>
			<title>glbG
ketosteroid isomerase-related protein</title>
			<polygon class="glbG
ketosteroid isomerase-related protein" points="939,10 951,40 939,70" fill="rgb(255,255,255)" fill-opacity="1.0" stroke="rgb(0,0,0)" stroke-width="2"  />
			<g>
				<title>SnoaL_2 (PF12680)
"SnoaL-like domain"</title>
				<polygon class="PF12680" points="939,28 942,28 947,40 942,52 939,52" stroke-linejoin="round" width="10" height="24" fill="rgb(180,149,73)" stroke="rgb(144,119,58)" stroke-width="1" opacity="0.75" />
			</g>
		</g>
		<g>
			<title>glbH
2-nitrodioxygenase-like</title>
			<polygon class="glbH
2-nitrodioxygenase-like" points="953,25 970,25 970,10 1000,40 970,70 970,55 953,55" fill="rgb(255,255,255)" fill-opacity="1.0" stroke="rgb(0,0,0)" stroke-width="2"  />
			<g>
				<title>NMO (PF03060)
"Nitronate monooxygenase"</title>
				<polygon class="PF03060" points="965,28 984,28 996,40 984,52 965,52" stroke-linejoin="round" width="34" height="24" fill="rgb(99,221,71)" stroke="rgb(79,176,56)" stroke-width="1" opacity="0.75" />
			</g>
		</g>
		<g>
			<title>
LysR:LysR substrate binding domain</title>
			<polygon class="
LysR:LysR substrate binding domain" points="1004,25 1008,25 1008,10 1038,40 1008,70 1008,55 1004,55" fill="rgb(255,255,255)" fill-opacity="1.0" stroke="rgb(0,0,0)" stroke-width="2"  />
			<g>
				<title>HTH_1 (PF00126)
"Bacterial regulatory helix-turn-helix protein, lysR family"</title>
				<rect class="PF00126" x="1004" y="28" stroke-linejoin="round" width="5" height="24" fill="rgb(72,163,212)" stroke="rgb(57,130,169)" stroke-width="1" opacity="0.75" />
			</g>
			<g>
				<title>LysR_substrate (PF03466)
"LysR substrate binding domain"</title>
				<polygon class="PF03466" points="1012,28 1022,28 1032,38 1032,42 1022,52 1012,52" stroke-linejoin="round" width="20" height="24" fill="rgb(214,62,213)" stroke="rgb(171,49,170)" stroke-width="1" opacity="0.75" />
			</g>
		</g>
		<g>
			<title>
conserved hypothetical protein</title>
			<polygon class="
conserved hypothetical protein" points="1067,10 1076,40 1067,70" fill="rgb(255,255,255)" fill-opacity="1.0" stroke="rgb(0,0,0)" stroke-width="2"  />
			<g>
				<title>ComFB (PF10719)
"Late competence development protein ComFB"</title>
				<polygon class="PF10719" points="1068,28 1069,28 1073,40 1069,52 1068,52" stroke-linejoin="round" width="7" height="24" fill="rgb(57,179,148)" stroke="rgb(45,143,118)" stroke-width="1" opacity="0.75" />
			</g>
		</g>
		<g>
			<title>
hypothetical protein</title>
			<polygon class="
hypothetical protein" points="1077,40 1101,10 1101,70" fill="rgb(255,255,255)" fill-opacity="1.0" stroke="rgb(0,0,0)" stroke-width="2"  />
			<g>
				<title>PEP-CTERM (PF07589)
"PEP-CTERM motif"</title>
				<polygon class="PF07589" points="1081,40 1079,42 1079,38" stroke-linejoin="round" width="2" height="24" fill="rgb(202,84,190)" stroke="rgb(161,67,152)" stroke-width="1" opacity="0.75" />
			</g>
		</g>
		<g>
			<title>
dehydrogenase-related protein</title>
			<polygon class="
dehydrogenase-related protein" points="1109,10 1136,40 1109,70" fill="rgb(255,255,255)" fill-opacity="1.0" stroke="rgb(0,0,0)" stroke-width="2"  />
			<g>
				<title>adh_short (PF00106)
"short chain dehydrogenase"</title>
				<polygon class="PF00106" points="1109,28 1121,28 1128,35 1128,45 1121,52 1109,52" stroke-linejoin="round" width="19" height="24" fill="rgb(128,81,196)" stroke="rgb(102,64,156)" stroke-width="1" opacity="0.75" />
			</g>
		</g>
		<g>
			<title>pacC
carboxymuconolactone decarboxylase</title>
			<polygon class="pacC
carboxymuconolactone decarboxylase" points="1144,10 1161,40 1144,70" fill="rgb(255,255,255)" fill-opacity="1.0" stroke="rgb(0,0,0)" stroke-width="2"  />
			<g>
				<title>CMD (PF02627)
"Carboxymuconolactone decarboxylase family"</title>
				<polygon class="PF02627" points="1150,28 1150,28 1157,40 1150,52 1150,52" stroke-linejoin="round" width="8" height="24" fill="rgb(218,62,137)" stroke="rgb(174,49,109)" stroke-width="1" opacity="0.75" />
			</g>
		</g>
		<g>
			<title>
HTH AraC-type regulator</title>
			<polygon class="
HTH AraC-type regulator" points="1193,25 1191,25 1191,10 1161,40 1191,70 1191,55 1193,55" fill="rgb(255,255,255)" fill-opacity="1.0" stroke="rgb(0,0,0)" stroke-width="2"  />
			<g>
				<title>HTH_18 (PF12833)
"Helix-turn-helix domain"</title>
				<polygon class="PF12833" points="1165,40 1169,36 1169,44" stroke-linejoin="round" width="7" height="24" fill="rgb(96,195,114)" stroke="rgb(76,156,91)" stroke-width="1" opacity="0.75" />
			</g>
			<g>
				<title>AraC_N (PF06719)
"AraC-type transcriptional regulator N-terminus"</title>
				<polygon class="PF06719" points="1173,32 1177,28 1188,28 1188,52 1177,52 1173,48" stroke-linejoin="round" width="15" height="24" fill="rgb(217,81,78)" stroke="rgb(173,64,62)" stroke-width="1" opacity="0.75" />
			</g>
		</g>
	</g>
</svg>
