<svg version="1.1" baseProfile="full" xmlns="http://www.w3.org/2000/svg" width="361.93333333333334" height="80">
	<g>
		<line x1="10" y1="40.0" x2="351.93333333333334" y2="40.0" style="stroke:rgb(70,70,70); stroke-width:3 "/>
		<g>
			<title>asp
alkaline serine protease</title>
			<polygon class="asp
alkaline serine protease" points="36,25 50,25 50,10 80,40 50,70 50,55 36,55" fill="rgb(255,255,255)" fill-opacity="1.0" stroke="rgb(0,0,0)" stroke-width="2"  />
			<g>
				<title>Inhibitor_I9 (PF05922)
"Peptidase inhibitor I9"</title>
				<rect class="PF05922" x="39" y="28" stroke-linejoin="round" width="8" height="24" fill="rgb(215,78,168)" stroke="rgb(172,62,134)" stroke-width="1" opacity="0.75" />
			</g>
			<g>
				<title>Peptidase_S8 (PF00082)
"Subtilase family"</title>
				<polygon class="PF00082" points="50,28 64,28 74,38 74,42 64,52 50,52" stroke-linejoin="round" width="24" height="24" fill="rgb(179,95,73)" stroke="rgb(143,76,58)" stroke-width="1" opacity="0.75" />
			</g>
		</g>
		<g>
			<title>nps
ochratoxin A non-ribosomal peptide synthetase</title>
			<polygon class="nps
ochratoxin A non-ribosomal peptide synthetase" points="189,25 148,25 148,10 118,40 148,70 148,55 189,55" fill="rgb(255,255,255)" fill-opacity="1.0" stroke="rgb(0,0,0)" stroke-width="2"  />
			<g>
				<title>NAD_binding_4 (PF07993)
"Male sterility protein"</title>
				<polygon class="PF07993" points="122,40 134,28 145,28 145,52 134,52 122,40" stroke-linejoin="round" width="23" height="24" fill="rgb(210,94,130)" stroke="rgb(168,75,103)" stroke-width="1" opacity="0.75" />
			</g>
			<g>
				<title>PP-binding (PF00550)
"Phosphopantetheine attachment site"</title>
				<rect class="PF00550" x="150" y="28" stroke-linejoin="round" width="5" height="24" fill="rgb(181,58,166)" stroke="rgb(144,46,132)" stroke-width="1" opacity="0.75" />
			</g>
			<g>
				<title>AMP-binding (PF00501)
"AMP-binding enzyme"</title>
				<rect class="PF00501" x="176" y="28" stroke-linejoin="round" width="12" height="24" fill="rgb(189,78,204)" stroke="rgb(151,62,163)" stroke-width="1" opacity="0.75" />
			</g>
		</g>
		<g>
			<title>
ochratoxin A polyketide synthase</title>
			<polygon class="
ochratoxin A polyketide synthase" points="277,25 321,25 321,10 351,40 321,70 321,55 277,55" fill="rgb(255,255,255)" fill-opacity="1.0" stroke="rgb(0,0,0)" stroke-width="2"  />
			<g>
				<title>ketoacyl-synt (PF00109)
"Beta-ketoacyl synthase, N-terminal domain"</title>
				<rect class="PF00109" x="277" y="28" stroke-linejoin="round" width="25" height="24" fill="rgb(74,179,82)" stroke="rgb(59,143,65)" stroke-width="1" opacity="0.75" />
			</g>
			<g>
				<title>Ketoacyl-synt_C (PF02801)
"Beta-ketoacyl synthase, C-terminal domain"</title>
				<rect class="PF02801" x="303" y="28" stroke-linejoin="round" width="11" height="24" fill="rgb(212,79,72)" stroke="rgb(169,63,57)" stroke-width="1" opacity="0.75" />
			</g>
			<g>
				<title>KAsynt_C_assoc (PF16197)
"Ketoacyl-synthetase C-terminal extension"</title>
				<rect class="PF16197" x="315" y="28" stroke-linejoin="round" width="11" height="24" fill="rgb(200,86,70)" stroke="rgb(160,68,56)" stroke-width="1" opacity="0.75" />
			</g>
			<g>
				<title>Acyl_transf_1 (PF00698)
"Acyl transferase domain"</title>
				<polygon class="PF00698" points="330,28 334,28 346,40 334,52 330,52" stroke-linejoin="round" width="20" height="24" fill="rgb(132,93,193)" stroke="rgb(105,74,154)" stroke-width="1" opacity="0.75" />
			</g>
		</g>
	</g>
</svg>
