<svg version="1.1" baseProfile="full" xmlns="http://www.w3.org/2000/svg" width="1352.6333333333334" height="80">
	<g>
		<line x1="10" y1="40.0" x2="1342.6333333333334" y2="40.0" style="stroke:rgb(70,70,70); stroke-width:3 "/>
		<g>
			<title>aprN (ShinN01.1c)
putative aminoglycoside N-acetylhexosaminyl deacetylase</title>
			<polygon class="aprN (ShinN01.1c)
putative aminoglycoside N-acetylhexosaminyl deacetylase" points="10,40 27,10 27,70" fill="rgb(255,255,255)" fill-opacity="1.0" stroke="rgb(0,0,0)" stroke-width="2"  />
			<g>
				<title>PIG-L (PF02585)
"GlcNAc-PI de-N-acetylase"</title>
				<polygon class="PF02585" points="13,40 20,28 26,28 26,52 20,52" stroke-linejoin="round" width="14" height="24" fill="rgb(208,183,97)" stroke="rgb(166,146,77)" stroke-width="1" opacity="0.75" />
			</g>
		</g>
		<g>
			<title>aprW (ShinN01.2c)
putative ABC-type aminoglycoside exporter</title>
			<polygon class="aprW (ShinN01.2c)
putative ABC-type aminoglycoside exporter" points="93,25 61,25 61,10 31,40 61,70 61,55 93,55" fill="rgb(255,255,255)" fill-opacity="1.0" stroke="rgb(0,0,0)" stroke-width="2"  />
			<g>
				<title>ABC_tran (PF00005)
"ABC transporter"</title>
				<polygon class="PF00005" points="38,37 47,28 52,28 52,52 47,52 38,43" stroke-linejoin="round" width="14" height="24" fill="rgb(46,186,108)" stroke="rgb(36,148,86)" stroke-width="1" opacity="0.75" />
			</g>
			<g>
				<title>ABC_membrane (PF00664)
"ABC transporter transmembrane region"</title>
				<rect class="PF00664" x="60" y="28" stroke-linejoin="round" width="27" height="24" fill="rgb(62,71,183)" stroke="rgb(49,56,146)" stroke-width="1" opacity="0.75" />
			</g>
		</g>
		<g>
			<title>aprV (ShinN01.3c)
putative ABC-type aminoglycoside exporter</title>
			<polygon class="aprV (ShinN01.3c)
putative ABC-type aminoglycoside exporter" points="153,25 123,25 123,10 93,40 123,70 123,55 153,55" fill="rgb(255,255,255)" fill-opacity="1.0" stroke="rgb(0,0,0)" stroke-width="2"  />
			<g>
				<title>ABC_tran (PF00005)
"ABC transporter"</title>
				<polygon class="PF00005" points="101,36 109,28 115,28 115,52 109,52 101,44" stroke-linejoin="round" width="14" height="24" fill="rgb(46,186,108)" stroke="rgb(36,148,86)" stroke-width="1" opacity="0.75" />
			</g>
			<g>
				<title>ABC_membrane (PF00664)
"ABC transporter transmembrane region"</title>
				<rect class="PF00664" x="122" y="28" stroke-linejoin="round" width="27" height="24" fill="rgb(62,71,183)" stroke="rgb(49,56,146)" stroke-width="1" opacity="0.75" />
			</g>
		</g>
		<g>
			<title>aprU (ShinN01.4)
putative apramycin kinase</title>
			<polygon class="aprU (ShinN01.4)
putative apramycin kinase" points="163,25 166,25 166,10 196,40 166,70 166,55 163,55" fill="rgb(255,255,255)" fill-opacity="1.0" stroke="rgb(0,0,0)" stroke-width="2"  />
			<g>
				<title>APH (PF01636)
"Phosphotransferase enzyme family"</title>
				<polygon class="PF01636" points="166,28 180,28 190,38 190,42 180,52 166,52" stroke-linejoin="round" width="24" height="24" fill="rgb(113,205,78)" stroke="rgb(90,164,62)" stroke-width="1" opacity="0.75" />
			</g>
		</g>
		<g>
			<title>aprA (ShinN01.5)</title>
			<polygon class="aprA (ShinN01.5)" points="245,25 252,25 252,10 282,40 252,70 252,55 245,55" fill="rgb(255,255,255)" fill-opacity="1.0" stroke="rgb(0,0,0)" stroke-width="2"  />
			<g>
				<title>DUF371 (PF04027)
"Domain of unknown function (DUF371)"</title>
				<rect class="PF04027" x="245" y="28" stroke-linejoin="round" width="12" height="24" fill="rgb(200,93,188)" stroke="rgb(160,74,150)" stroke-width="1" opacity="0.75" />
			</g>
		</g>
		<g>
			<title>kamB (ShinN01.6)
16S rRNA methyltransferase</title>
			<polygon class="kamB (ShinN01.6)
16S rRNA methyltransferase" points="292,10 307,40 292,70" fill="rgb(255,255,255)" fill-opacity="1.0" stroke="rgb(0,0,0)" stroke-width="2"  />
		</g>
		<g>
			<title>aprO (ShinN01.7c)
putative phosphorylase or hydrolase</title>
			<polygon class="aprO (ShinN01.7c)
putative phosphorylase or hydrolase" points="385,25 337,25 337,10 307,40 337,70 337,55 385,55" fill="rgb(255,255,255)" fill-opacity="1.0" stroke="rgb(0,0,0)" stroke-width="2"  />
			<g>
				<title>Glyco_hydro_65C (PF03633)
"Glycosyl hydrolase family 65, C-terminal domain"</title>
				<polygon class="PF03633" points="311,40 315,36 315,44" stroke-linejoin="round" width="6" height="24" fill="rgb(75,195,158)" stroke="rgb(60,156,126)" stroke-width="1" opacity="0.75" />
			</g>
			<g>
				<title>Glyco_hydro_65m (PF03632)
"Glycosyl hydrolase family 65 central catalytic domain"</title>
				<polygon class="PF03632" points="316,35 323,28 353,28 353,52 323,52 316,45" stroke-linejoin="round" width="37" height="24" fill="rgb(187,76,136)" stroke="rgb(149,60,108)" stroke-width="1" opacity="0.75" />
			</g>
			<g>
				<title>Glyco_hydro_65N (PF03636)
"Glycosyl hydrolase family 65, N-terminal domain"</title>
				<rect class="PF03636" x="358" y="28" stroke-linejoin="round" width="24" height="24" fill="rgb(166,58,198)" stroke="rgb(132,46,158)" stroke-width="1" opacity="0.75" />
			</g>
		</g>
		<g>
			<title>aprD1 (ShinN01.8c)
putative tobramycin/apramycin biosynthetic oxidoreductase</title>
			<polygon class="aprD1 (ShinN01.8c)
putative tobramycin/apramycin biosynthetic oxidoreductase" points="416,25 415,25 415,10 385,40 415,70 415,55 416,55" fill="rgb(255,255,255)" fill-opacity="1.0" stroke="rgb(0,0,0)" stroke-width="2"  />
			<g>
				<title>Epimerase (PF01370)
"NAD dependent epimerase/dehydratase family"</title>
				<polygon class="PF01370" points="392,37 401,28 415,28 415,52 401,52 392,43" stroke-linejoin="round" width="23" height="24" fill="rgb(215,89,157)" stroke="rgb(172,71,125)" stroke-width="1" opacity="0.75" />
			</g>
		</g>
		<g>
			<title>aprF (ShinN01.9c)
putative apramycin biosynthesis protein</title>
			<polygon class="aprF (ShinN01.9c)
putative apramycin biosynthesis protein" points="459,25 447,25 447,10 417,40 447,70 447,55 459,55" fill="rgb(255,255,255)" fill-opacity="1.0" stroke="rgb(0,0,0)" stroke-width="2"  />
			<g>
				<title>Pentapeptide (PF00805)
"Pentapeptide repeats (8 copies)"</title>
				<polygon class="PF00805" points="421,40 422,39 422,41" stroke-linejoin="round" width="3" height="24" fill="rgb(206,93,76)" stroke="rgb(164,74,60)" stroke-width="1" opacity="0.75" />
			</g>
			<g>
				<title>Pentapeptide (PF00805)
"Pentapeptide repeats (8 copies)"</title>
				<polygon class="PF00805" points="426,35 429,32 429,48 426,45" stroke-linejoin="round" width="3" height="24" fill="rgb(206,93,76)" stroke="rgb(164,74,60)" stroke-width="1" opacity="0.75" />
			</g>
		</g>
		<g>
			<title>aprG (ShinN01.10c)
putative apramycin biosynthesis protein</title>
			<polygon class="aprG (ShinN01.10c)
putative apramycin biosynthesis protein" points="460,40 489,10 489,70" fill="rgb(255,255,255)" fill-opacity="1.0" stroke="rgb(0,0,0)" stroke-width="2"  />
			<g>
				<title>Glyco_hydro_127 (PF07944)
"Beta-L-arabinofuranosidase, GH127 catalytic domain"</title>
				<polygon class="PF07944" points="464,40 476,28 476,28 476,52 476,52 464,40" stroke-linejoin="round" width="12" height="24" fill="rgb(201,92,105)" stroke="rgb(160,73,84)" stroke-width="1" opacity="0.75" />
			</g>
		</g>
		<g>
			<title>aprH (ShinN01.11)
putative glycosyltransferase</title>
			<polygon class="aprH (ShinN01.11)
putative glycosyltransferase" points="521,25 526,25 526,10 556,40 526,70 526,55 521,55" fill="rgb(255,255,255)" fill-opacity="1.0" stroke="rgb(0,0,0)" stroke-width="2"  />
		</g>
		<g>
			<title>aprI (ShinN01.12)
putative N-methyltransferase</title>
			<polygon class="aprI (ShinN01.12)
putative N-methyltransferase" points="560,10 586,40 560,70" fill="rgb(255,255,255)" fill-opacity="1.0" stroke="rgb(0,0,0)" stroke-width="2"  />
			<g>
				<title>Methyltransf_25 (PF13649)
"Methyltransferase domain"</title>
				<polygon class="PF13649" points="569,28 572,28 577,34 577,46 572,52 569,52" stroke-linejoin="round" width="8" height="24" fill="rgb(224,103,106)" stroke="rgb(179,82,84)" stroke-width="1" opacity="0.75" />
			</g>
		</g>
		<g>
			<title>aprJ (ShinN01.13c)
putative phosphosugar mutase</title>
			<polygon class="aprJ (ShinN01.13c)
putative phosphosugar mutase" points="590,40 613,10 613,70" fill="rgb(255,255,255)" fill-opacity="1.0" stroke="rgb(0,0,0)" stroke-width="2"  />
			<g>
				<title>Hydrolase (PF00702)
"haloacid dehalogenase-like hydrolase"</title>
				<polygon class="PF00702" points="594,40 604,28 613,28 613,52 604,52 594,40" stroke-linejoin="round" width="19" height="24" fill="rgb(133,222,86)" stroke="rgb(106,177,68)" stroke-width="1" opacity="0.75" />
			</g>
		</g>
		<g>
			<title>aprK (ShinN01.14c)
putative NDP-octose synthase</title>
			<polygon class="aprK (ShinN01.14c)
putative NDP-octose synthase" points="614,40 630,10 630,70" fill="rgb(255,255,255)" fill-opacity="1.0" stroke="rgb(0,0,0)" stroke-width="2"  />
			<g>
				<title>CTP_transf_like (PF01467)
"Cytidylyltransferase-like"</title>
				<polygon class="PF01467" points="617,40 624,28 626,28 626,52 624,52" stroke-linejoin="round" width="12" height="24" fill="rgb(182,79,133)" stroke="rgb(145,63,106)" stroke-width="1" opacity="0.75" />
			</g>
		</g>
		<g>
			<title>aprM (ShinN01.15c)
putative glycosyltransferase</title>
			<polygon class="aprM (ShinN01.15c)
putative glycosyltransferase" points="679,25 662,25 662,10 632,40 662,70 662,55 679,55" fill="rgb(255,255,255)" fill-opacity="1.0" stroke="rgb(0,0,0)" stroke-width="2"  />
			<g>
				<title>Glycos_transf_1 (PF00534)
"Glycosyl transferases group 1"</title>
				<polygon class="PF00534" points="640,36 648,28 656,28 656,52 648,52 640,44" stroke-linejoin="round" width="16" height="24" fill="rgb(66,178,218)" stroke="rgb(52,142,174)" stroke-width="1" opacity="0.75" />
			</g>
			<g>
				<title>Glyco_transf_4 (PF13439)
"Glycosyltransferase Family 4"</title>
				<rect class="PF13439" x="657" y="28" stroke-linejoin="round" width="18" height="24" fill="rgb(67,194,123)" stroke="rgb(53,155,98)" stroke-width="1" opacity="0.75" />
			</g>
		</g>
		<g>
			<title>aprC (ShinN01.16c)
putative 2-deoxy-scyllo-inosose synthase</title>
			<polygon class="aprC (ShinN01.16c)
putative 2-deoxy-scyllo-inosose synthase" points="717,25 709,25 709,10 679,40 709,70 709,55 717,55" fill="rgb(255,255,255)" fill-opacity="1.0" stroke="rgb(0,0,0)" stroke-width="2"  />
			<g>
				<title>DHQ_synthase (PF01761)
"3-dehydroquinate synthase"</title>
				<polygon class="PF01761" points="685,38 695,28 710,28 710,52 695,52 685,42" stroke-linejoin="round" width="25" height="24" fill="rgb(71,149,225)" stroke="rgb(56,119,180)" stroke-width="1" opacity="0.75" />
			</g>
		</g>
		<g>
			<title>aprS (ShinN01.17c)
putative ketocyclitol aminotransferase</title>
			<polygon class="aprS (ShinN01.17c)
putative ketocyclitol aminotransferase" points="761,25 749,25 749,10 719,40 749,70 749,55 761,55" fill="rgb(255,255,255)" fill-opacity="1.0" stroke="rgb(0,0,0)" stroke-width="2"  />
			<g>
				<title>DegT_DnrJ_EryC1 (PF01041)
"DegT/DnrJ/EryC1/StrS aminotransferase family"</title>
				<polygon class="PF01041" points="723,40 735,28 759,28 759,52 735,52" stroke-linejoin="round" width="39" height="24" fill="rgb(228,110,183)" stroke="rgb(182,88,146)" stroke-width="1" opacity="0.75" />
			</g>
		</g>
		<g>
			<title>aprE (ShinN01.18c)
putative 3-amino-2,3-dideoxy-scyllo-inositol 1 dehydrogenase</title>
			<polygon class="aprE (ShinN01.18c)
putative 3-amino-2,3-dideoxy-scyllo-inositol 1 dehydrogenase" points="798,25 795,25 795,10 765,40 795,70 795,55 798,55" fill="rgb(255,255,255)" fill-opacity="1.0" stroke="rgb(0,0,0)" stroke-width="2"  />
			<g>
				<title>ADH_zinc_N (PF00107)
"Zinc-binding dehydrogenase"</title>
				<polygon class="PF00107" points="769,40 781,28 781,28 781,52 781,52 769,40" stroke-linejoin="round" width="12" height="24" fill="rgb(79,114,198)" stroke="rgb(63,91,158)" stroke-width="1" opacity="0.75" />
			</g>
			<g>
				<title>ADH_N (PF08240)
"Alcohol dehydrogenase GroES-like domain"</title>
				<rect class="PF08240" x="785" y="28" stroke-linejoin="round" width="10" height="24" fill="rgb(217,198,105)" stroke="rgb(173,158,84)" stroke-width="1" opacity="0.75" />
			</g>
		</g>
		<g>
			<title>aprP (ShinN01.19c)
putative amidohydrolase</title>
			<polygon class="aprP (ShinN01.19c)
putative amidohydrolase" points="802,40 829,10 829,70" fill="rgb(255,255,255)" fill-opacity="1.0" stroke="rgb(0,0,0)" stroke-width="2"  />
			<g>
				<title>Creatininase (PF02633)
"Creatinine amidohydrolase"</title>
				<polygon class="PF02633" points="806,40 817,28 826,28 826,52 817,52" stroke-linejoin="round" width="22" height="24" fill="rgb(220,82,191)" stroke="rgb(176,65,152)" stroke-width="1" opacity="0.75" />
			</g>
		</g>
		<g>
			<title>aprD2 (ShinN01.20c)
putative tobramycin/apramycin oxidoreductase</title>
			<polygon class="aprD2 (ShinN01.20c)
putative tobramycin/apramycin oxidoreductase" points="861,25 859,25 859,10 829,40 859,70 859,55 861,55" fill="rgb(255,255,255)" fill-opacity="1.0" stroke="rgb(0,0,0)" stroke-width="2"  />
			<g>
				<title>Polysacc_synt_2 (PF02719)
"Polysaccharide biosynthesis protein"</title>
				<polygon class="PF02719" points="833,40 845,28 860,28 860,52 845,52 833,40" stroke-linejoin="round" width="27" height="24" fill="rgb(177,81,206)" stroke="rgb(141,64,164)" stroke-width="1" opacity="0.75" />
			</g>
		</g>
		<g>
			<title>aprD3 (ShinN01.21c)
putative tobramycin/apramycin oxidoreductase 3</title>
			<polygon class="aprD3 (ShinN01.21c)
putative tobramycin/apramycin oxidoreductase 3" points="870,40 894,10 894,70" fill="rgb(255,255,255)" fill-opacity="1.0" stroke="rgb(0,0,0)" stroke-width="2"  />
			<g>
				<title>adh_short (PF00106)
"short chain dehydrogenase"</title>
				<polygon class="PF00106" points="874,40 884,28 893,28 893,52 884,52 874,40" stroke-linejoin="round" width="19" height="24" fill="rgb(128,81,196)" stroke="rgb(102,64,156)" stroke-width="1" opacity="0.75" />
			</g>
		</g>
		<g>
			<title>aprQ (ShinN01.22)
putative hexosamine-6-dehydrogenase</title>
			<polygon class="aprQ (ShinN01.22)
putative hexosamine-6-dehydrogenase" points="935,25 955,25 955,10 985,40 955,70 955,55 935,55" fill="rgb(255,255,255)" fill-opacity="1.0" stroke="rgb(0,0,0)" stroke-width="2"  />
			<g>
				<title>GMC_oxred_N (PF00732)
"GMC oxidoreductase"</title>
				<rect class="PF00732" x="936" y="28" stroke-linejoin="round" width="29" height="24" fill="rgb(102,94,198)" stroke="rgb(81,75,158)" stroke-width="1" opacity="0.75" />
			</g>
			<g>
				<title>GMC_oxred_C (PF05199)
"GMC oxidoreductase"</title>
				<polygon class="PF05199" points="972,31 981,40 972,49" stroke-linejoin="round" width="12" height="24" fill="rgb(206,67,222)" stroke="rgb(164,53,177)" stroke-width="1" opacity="0.75" />
			</g>
		</g>
		<g>
			<title>aprD4 (ShinN01.23)
putative Fe-S oxidoreductase 4</title>
			<polygon class="aprD4 (ShinN01.23)
putative Fe-S oxidoreductase 4" points="987,25 1002,25 1002,10 1032,40 1002,70 1002,55 987,55" fill="rgb(255,255,255)" fill-opacity="1.0" stroke="rgb(0,0,0)" stroke-width="2"  />
			<g>
				<title>Radical_SAM (PF04055)
"Radical SAM superfamily"</title>
				<polygon class="PF04055" points="1006,28 1016,28 1022,34 1022,46 1016,52 1006,52" stroke-linejoin="round" width="16" height="24" fill="rgb(223,193,78)" stroke="rgb(178,154,62)" stroke-width="1" opacity="0.75" />
			</g>
		</g>
		<g>
			<title>aprZ (ShinN01.24)
putative 6-phosphate phosphatase</title>
			<polygon class="aprZ (ShinN01.24)
putative 6-phosphate phosphatase" points="1034,25 1050,25 1050,10 1080,40 1050,70 1050,55 1034,55" fill="rgb(255,255,255)" fill-opacity="1.0" stroke="rgb(0,0,0)" stroke-width="2"  />
			<g>
				<title>Alk_phosphatase (PF00245)
"Alkaline phosphatase"</title>
				<polygon class="PF00245" points="1040,28 1064,28 1076,40 1076,40 1064,52 1040,52" stroke-linejoin="round" width="36" height="24" fill="rgb(95,217,201)" stroke="rgb(76,173,160)" stroke-width="1" opacity="0.75" />
			</g>
		</g>
		<g>
			<title>aprL (ShinN01.25)
putative aminotransferase</title>
			<polygon class="aprL (ShinN01.25)
putative aminotransferase" points="1085,25 1092,25 1092,10 1122,40 1092,70 1092,55 1085,55" fill="rgb(255,255,255)" fill-opacity="1.0" stroke="rgb(0,0,0)" stroke-width="2"  />
			<g>
				<title>DegT_DnrJ_EryC1 (PF01041)
"DegT/DnrJ/EryC1/StrS aminotransferase family"</title>
				<polygon class="PF01041" points="1086,28 1106,28 1118,40 1106,52 1086,52" stroke-linejoin="round" width="34" height="24" fill="rgb(228,110,183)" stroke="rgb(182,88,146)" stroke-width="1" opacity="0.75" />
			</g>
		</g>
		<g>
			<title>aprD5 (ShinN01.26)
putative epimerase/dehydratase</title>
			<polygon class="aprD5 (ShinN01.26)
putative epimerase/dehydratase" points="1124,25 1128,25 1128,10 1158,40 1128,70 1128,55 1124,55" fill="rgb(255,255,255)" fill-opacity="1.0" stroke="rgb(0,0,0)" stroke-width="2"  />
			<g>
				<title>Epimerase (PF01370)
"NAD dependent epimerase/dehydratase family"</title>
				<polygon class="PF01370" points="1125,28 1142,28 1148,34 1148,46 1142,52 1125,52" stroke-linejoin="round" width="23" height="24" fill="rgb(215,89,157)" stroke="rgb(172,71,125)" stroke-width="1" opacity="0.75" />
			</g>
		</g>
		<g>
			<title>N01.27 (ShinN01.27)
putative phenylacetyl-CoA ligase</title>
			<polygon class="N01.27 (ShinN01.27)
putative phenylacetyl-CoA ligase" points="1187,25 1202,25 1202,10 1232,40 1202,70 1202,55 1187,55" fill="rgb(255,255,255)" fill-opacity="1.0" stroke="rgb(0,0,0)" stroke-width="2"  />
			<g>
				<title>AMP-binding (PF00501)
"AMP-binding enzyme"</title>
				<polygon class="PF00501" points="1188,28 1215,28 1216,29 1216,51 1215,52 1188,52" stroke-linejoin="round" width="28" height="24" fill="rgb(189,78,204)" stroke="rgb(151,62,163)" stroke-width="1" opacity="0.75" />
			</g>
			<g>
				<title>AMP-binding_C_2 (PF14535)
"AMP-binding enzyme C-terminal domain"</title>
				<polygon class="PF14535" points="1221,34 1227,40 1221,46" stroke-linejoin="round" width="9" height="24" fill="rgb(93,52,205)" stroke="rgb(74,41,164)" stroke-width="1" opacity="0.75" />
			</g>
		</g>
		<g>
			<title>N01.28c (ShinN01.28c)
putative membrane protein</title>
			<polygon class="N01.28c (ShinN01.28c)
putative membrane protein" points="1235,40 1261,10 1261,70" fill="rgb(255,255,255)" fill-opacity="1.0" stroke="rgb(0,0,0)" stroke-width="2"  />
			<g>
				<title>Thioredoxin_4 (PF13462)
"Thioredoxin"</title>
				<polygon class="PF13462" points="1239,40 1250,28 1253,28 1253,52 1250,52" stroke-linejoin="round" width="18" height="24" fill="rgb(68,196,190)" stroke="rgb(54,156,152)" stroke-width="1" opacity="0.75" />
			</g>
		</g>
		<g>
			<title>N01.29c (ShinN01.29c)
putative membrane protein</title>
			<polygon class="N01.29c (ShinN01.29c)
putative membrane protein" points="1262,40 1280,10 1280,70" fill="rgb(255,255,255)" fill-opacity="1.0" stroke="rgb(0,0,0)" stroke-width="2"  />
			<g>
				<title>MauE (PF07291)
"Methylamine utilisation protein MauE"</title>
				<polygon class="PF07291" points="1266,40 1273,28 1278,28 1278,52 1273,52" stroke-linejoin="round" width="13" height="24" fill="rgb(64,122,200)" stroke="rgb(51,97,160)" stroke-width="1" opacity="0.75" />
			</g>
		</g>
		<g>
			<title>N01.30 (ShinN01.30)
putative membrane protein</title>
			<polygon class="N01.30 (ShinN01.30)
putative membrane protein" points="1287,10 1311,40 1287,70" fill="rgb(255,255,255)" fill-opacity="1.0" stroke="rgb(0,0,0)" stroke-width="2"  />
			<g>
				<title>VIT1 (PF01988)
"VIT family"</title>
				<polygon class="PF01988" points="1289,28 1297,28 1307,40 1297,52 1289,52" stroke-linejoin="round" width="20" height="24" fill="rgb(75,56,218)" stroke="rgb(60,44,174)" stroke-width="1" opacity="0.75" />
			</g>
		</g>
		<g>
			<title>N01.31 (ShinN01.31)
putative glutamyl endopeptidase precursor</title>
			<polygon class="N01.31 (ShinN01.31)
putative glutamyl endopeptidase precursor" points="1319,10 1342,40 1319,70" fill="rgb(255,255,255)" fill-opacity="1.0" stroke="rgb(0,0,0)" stroke-width="2"  />
			<g>
				<title>Pro_Al_protease (PF02983)
"Alpha-lytic protease prodomain"</title>
				<polygon class="PF02983" points="1331,31 1336,37 1336,43 1331,49" stroke-linejoin="round" width="5" height="24" fill="rgb(109,219,88)" stroke="rgb(87,175,70)" stroke-width="1" opacity="0.75" />
			</g>
		</g>
	</g>
</svg>
