<svg version="1.1" baseProfile="full" xmlns="http://www.w3.org/2000/svg" width="595.0" height="80">
	<g>
		<line x1="10" y1="40.0" x2="585.0" y2="40.0" style="stroke:rgb(70,70,70); stroke-width:3 "/>
		<g>
			<title>thdK
putative histidine kinase</title>
			<polygon class="thdK
putative histidine kinase" points="11,25 41,25 41,10 71,40 41,70 41,55 11,55" fill="rgb(255,255,255)" fill-opacity="1.0" stroke="rgb(0,0,0)" stroke-width="2"  />
			<g>
				<title>HisKA_3 (PF07730)
"Histidine kinase"</title>
				<rect class="PF07730" x="32" y="28" stroke-linejoin="round" width="6" height="24" fill="rgb(197,134,53)" stroke="rgb(157,107,42)" stroke-width="1" opacity="0.75" />
			</g>
		</g>
		<g>
			<title>thdL
putative response regulator</title>
			<polygon class="thdL
putative response regulator" points="78,10 100,40 78,70" fill="rgb(255,255,255)" fill-opacity="1.0" stroke="rgb(0,0,0)" stroke-width="2"  />
			<g>
				<title>Response_reg (PF00072)
"Response regulator receiver domain"</title>
				<polygon class="PF00072" points="78,28 87,28 89,30 89,50 87,52 78,52" stroke-linejoin="round" width="11" height="24" fill="rgb(59,131,198)" stroke="rgb(47,104,158)" stroke-width="1" opacity="0.75" />
			</g>
			<g>
				<title>GerE (PF00196)
"Bacterial regulatory proteins, luxR family"</title>
				<polygon class="PF00196" points="93,36 96,40 93,44" stroke-linejoin="round" width="5" height="24" fill="rgb(225,67,110)" stroke="rgb(180,53,88)" stroke-width="1" opacity="0.75" />
			</g>
		</g>
		<g>
			<title>thdD
amido transferase</title>
			<polygon class="thdD
amido transferase" points="135,25 165,25 165,10 195,40 165,70 165,55 135,55" fill="rgb(255,255,255)" fill-opacity="1.0" stroke="rgb(0,0,0)" stroke-width="2"  />
			<g>
				<title>GATase_7 (PF13537)
"Glutamine amidotransferase domain"</title>
				<rect class="PF13537" x="139" y="28" stroke-linejoin="round" width="11" height="24" fill="rgb(102,71,204)" stroke="rgb(81,56,163)" stroke-width="1" opacity="0.75" />
			</g>
			<g>
				<title>Asn_synthase (PF00733)
"Asparagine synthase"</title>
				<polygon class="PF00733" points="158,28 179,28 191,40 179,52 158,52" stroke-linejoin="round" width="36" height="24" fill="rgb(200,91,135)" stroke="rgb(160,72,108)" stroke-width="1" opacity="0.75" />
			</g>
		</g>
		<g>
			<title>thdB
putative DNA binding protein</title>
			<polygon class="thdB
putative DNA binding protein" points="199,10 214,40 199,70" fill="rgb(255,255,255)" fill-opacity="1.0" stroke="rgb(0,0,0)" stroke-width="2"  />
			<g>
				<title>PCC (PF03479)
"Plants and Prokaryotes Conserved (PCC) domain"</title>
				<polygon class="PF03479" points="200,28 204,28 211,40 204,52 200,52" stroke-linejoin="round" width="12" height="24" fill="rgb(70,196,117)" stroke="rgb(56,156,93)" stroke-width="1" opacity="0.75" />
			</g>
		</g>
		<g>
			<title>thdC
putative cytochrome P450</title>
			<polygon class="thdC
putative cytochrome P450" points="215,25 224,25 224,10 254,40 224,70 224,55 215,55" fill="rgb(255,255,255)" fill-opacity="1.0" stroke="rgb(0,0,0)" stroke-width="2"  />
			<g>
				<title>p450 (PF00067)
"Cytochrome P450"</title>
				<polygon class="PF00067" points="230,28 238,28 250,40 238,52 230,52" stroke-linejoin="round" width="21" height="24" fill="rgb(195,210,54)" stroke="rgb(155,168,43)" stroke-width="1" opacity="0.75" />
			</g>
		</g>
		<g>
			<title>thdM
hypothetical protein</title>
			<polygon class="thdM
hypothetical protein" points="255,10 278,40 255,70" fill="rgb(255,255,255)" fill-opacity="1.0" stroke="rgb(0,0,0)" stroke-width="2"  />
			<g>
				<title>DUF6875 (PF21780)
"Domain of unknown function (DUF6875)"</title>
				<polygon class="PF21780" points="258,28 265,28 275,40 265,52 258,52" stroke-linejoin="round" width="18" height="24" fill="rgb(64,75,216)" stroke="rgb(51,60,172)" stroke-width="1" opacity="0.75" />
			</g>
		</g>
		<g>
			<title>thdE
putative dehydrogenase/reductase</title>
			<polygon class="thdE
putative dehydrogenase/reductase" points="279,10 306,40 279,70" fill="rgb(255,255,255)" fill-opacity="1.0" stroke="rgb(0,0,0)" stroke-width="2"  />
			<g>
				<title>adh_short_C2 (PF13561)
"Enoyl-(Acyl carrier protein) reductase"</title>
				<polygon class="PF13561" points="286,28 290,28 302,40 290,52 286,52" stroke-linejoin="round" width="20" height="24" fill="rgb(79,221,209)" stroke="rgb(63,176,167)" stroke-width="1" opacity="0.75" />
			</g>
		</g>
		<g>
			<title>thdY
hypothetical protein</title>
			<polygon class="thdY
hypothetical protein" points="306,10 329,40 306,70" fill="rgb(255,255,255)" fill-opacity="1.0" stroke="rgb(0,0,0)" stroke-width="2"  />
		</g>
		<g>
			<title>thdO
putative FAD-dependent oxidase</title>
			<polygon class="thdO
putative FAD-dependent oxidase" points="335,25 351,25 351,10 381,40 351,70 351,55 335,55" fill="rgb(255,255,255)" fill-opacity="1.0" stroke="rgb(0,0,0)" stroke-width="2"  />
			<g>
				<title>FAD_binding_4 (PF01565)
"FAD binding domain"</title>
				<rect class="PF01565" x="338" y="28" stroke-linejoin="round" width="13" height="24" fill="rgb(194,197,94)" stroke="rgb(155,157,75)" stroke-width="1" opacity="0.75" />
			</g>
			<g>
				<title>BBE (PF08031)
"Berberine and berberine like"</title>
				<polygon class="PF08031" points="374,37 377,40 374,43" stroke-linejoin="round" width="4" height="24" fill="rgb(56,179,213)" stroke="rgb(44,143,170)" stroke-width="1" opacity="0.75" />
			</g>
		</g>
		<g>
			<title>thdH
tryptophan 6-halogenase</title>
			<polygon class="thdH
tryptophan 6-halogenase" points="386,25 409,25 409,10 439,40 409,70 409,55 386,55" fill="rgb(255,255,255)" fill-opacity="1.0" stroke="rgb(0,0,0)" stroke-width="2"  />
			<g>
				<title>Trp_halogenase (PF04820)
"Tryptophan halogenase"</title>
				<polygon class="PF04820" points="386,28 422,28 434,40 434,40 422,52 386,52" stroke-linejoin="round" width="48" height="24" fill="rgb(175,201,66)" stroke="rgb(139,160,52)" stroke-width="1" opacity="0.75" />
			</g>
		</g>
		<g>
			<title>thdF
flavin reductase</title>
			<polygon class="thdF
flavin reductase" points="439,10 458,40 439,70" fill="rgb(255,255,255)" fill-opacity="1.0" stroke="rgb(0,0,0)" stroke-width="2"  />
			<g>
				<title>Flavin_Reduct (PF01613)
"Flavin reductase like domain"</title>
				<polygon class="PF01613" points="440,28 447,28 454,39 454,41 447,52 440,52" stroke-linejoin="round" width="14" height="24" fill="rgb(223,100,227)" stroke="rgb(178,80,181)" stroke-width="1" opacity="0.75" />
			</g>
		</g>
		<g>
			<title>thdN
aminotransferase</title>
			<polygon class="thdN
aminotransferase" points="463,25 471,25 471,10 501,40 471,70 471,55 463,55" fill="rgb(255,255,255)" fill-opacity="1.0" stroke="rgb(0,0,0)" stroke-width="2"  />
			<g>
				<title>Aminotran_1_2 (PF00155)
"Aminotransferase class I and II"</title>
				<polygon class="PF00155" points="468,28 485,28 497,40 485,52 468,52" stroke-linejoin="round" width="32" height="24" fill="rgb(207,146,55)" stroke="rgb(165,116,43)" stroke-width="1" opacity="0.75" />
			</g>
		</g>
		<g>
			<title>thdA
putative Na+/H+ antiporter</title>
			<polygon class="thdA
putative Na+/H+ antiporter" points="508,25 520,25 520,10 550,40 520,70 520,55 508,55" fill="rgb(255,255,255)" fill-opacity="1.0" stroke="rgb(0,0,0)" stroke-width="2"  />
			<g>
				<title>Na_H_Exchanger (PF00999)
"Sodium/hydrogen exchanger family"</title>
				<polygon class="PF00999" points="509,28 533,28 545,40 533,52 509,52" stroke-linejoin="round" width="38" height="24" fill="rgb(95,122,202)" stroke="rgb(76,97,161)" stroke-width="1" opacity="0.75" />
			</g>
		</g>
		<g>
			<title>thdR
putative LysR family transcriptional regulator</title>
			<polygon class="thdR
putative LysR family transcriptional regulator" points="582,25 581,25 581,10 551,40 581,70 581,55 582,55" fill="rgb(255,255,255)" fill-opacity="1.0" stroke="rgb(0,0,0)" stroke-width="2"  />
			<g>
				<title>LysR_substrate (PF03466)
"LysR substrate binding domain"</title>
				<polygon class="PF03466" points="555,40 567,28 573,28 573,52 567,52" stroke-linejoin="round" width="20" height="24" fill="rgb(214,62,213)" stroke="rgb(171,49,170)" stroke-width="1" opacity="0.75" />
			</g>
			<g>
				<title>HTH_1 (PF00126)
"Bacterial regulatory helix-turn-helix protein, lysR family"</title>
				<rect class="PF00126" x="576" y="28" stroke-linejoin="round" width="5" height="24" fill="rgb(72,163,212)" stroke="rgb(57,130,169)" stroke-width="1" opacity="0.75" />
			</g>
		</g>
	</g>
</svg>
