<svg version="1.1" baseProfile="full" xmlns="http://www.w3.org/2000/svg" width="1512.0" height="80">
	<g>
		<line x1="10" y1="40.0" x2="1502.0" y2="40.0" style="stroke:rgb(70,70,70); stroke-width:3 "/>
		<g>
			<title>
putative transcriptional regulator</title>
			<polygon class="
putative transcriptional regulator" points="10,10 20,40 10,70" fill="rgb(255,255,255)" fill-opacity="1.0" stroke="rgb(0,0,0)" stroke-width="2"  />
			<g>
				<title>LysR_substrate (PF03466)
"LysR substrate binding domain"</title>
				<polygon class="PF03466" points="10,28 12,28 17,40 12,52 10,52" stroke-linejoin="round" width="9" height="24" fill="rgb(214,62,213)" stroke="rgb(171,49,170)" stroke-width="1" opacity="0.75" />
			</g>
		</g>
		<g>
			<title>
putative amidase</title>
			<polygon class="
putative amidase" points="91,25 71,25 71,10 41,40 71,70 71,55 91,55" fill="rgb(255,255,255)" fill-opacity="1.0" stroke="rgb(0,0,0)" stroke-width="2"  />
			<g>
				<title>Amidase (PF01425)
"Amidase"</title>
				<polygon class="PF01425" points="45,40 57,28 88,28 88,52 57,52" stroke-linejoin="round" width="45" height="24" fill="rgb(194,63,150)" stroke="rgb(155,50,119)" stroke-width="1" opacity="0.75" />
			</g>
		</g>
		<g>
			<title>
integral membrane protein</title>
			<polygon class="
integral membrane protein" points="97,40 125,10 125,70" fill="rgb(255,255,255)" fill-opacity="1.0" stroke="rgb(0,0,0)" stroke-width="2"  />
			<g>
				<title>Band_7 (PF01145)
"SPFH domain / Band 7 family"</title>
				<polygon class="PF01145" points="102,39 112,28 119,28 119,52 112,52 102,41" stroke-linejoin="round" width="17" height="24" fill="rgb(122,97,201)" stroke="rgb(97,77,160)" stroke-width="1" opacity="0.75" />
			</g>
		</g>
		<g>
			<title>
putative threonine synthase</title>
			<polygon class="
putative threonine synthase" points="136,25 136,25 136,10 166,40 136,70 136,55 136,55" fill="rgb(255,255,255)" fill-opacity="1.0" stroke="rgb(0,0,0)" stroke-width="2"  />
			<g>
				<title>PALP (PF00291)
"Pyridoxal-phosphate dependent enzyme"</title>
				<polygon class="PF00291" points="136,28 150,28 162,40 150,52 136,52" stroke-linejoin="round" width="27" height="24" fill="rgb(73,227,169)" stroke="rgb(58,181,135)" stroke-width="1" opacity="0.75" />
			</g>
		</g>
		<g>
			<title>
ATP-dependent RNA helicase</title>
			<polygon class="
ATP-dependent RNA helicase" points="253,25 203,25 203,10 173,40 203,70 203,55 253,55" fill="rgb(255,255,255)" fill-opacity="1.0" stroke="rgb(0,0,0)" stroke-width="2"  />
			<g>
				<title>HrpB_C (PF08482)
"ATP-dependent helicase C-terminal"</title>
				<polygon class="PF08482" points="177,40 186,31 186,49" stroke-linejoin="round" width="12" height="24" fill="rgb(122,80,213)" stroke="rgb(97,64,170)" stroke-width="1" opacity="0.75" />
			</g>
			<g>
				<title>Helicase_C (PF00271)
"Helicase conserved C-terminal domain"</title>
				<rect class="PF00271" x="221" y="28" stroke-linejoin="round" width="12" height="24" fill="rgb(153,198,73)" stroke="rgb(122,158,58)" stroke-width="1" opacity="0.75" />
			</g>
			<g>
				<title>DEAD (PF00270)
"DEAD/DEAH box helicase"</title>
				<rect class="PF00270" x="237" y="28" stroke-linejoin="round" width="14" height="24" fill="rgb(226,137,69)" stroke="rgb(180,109,55)" stroke-width="1" opacity="0.75" />
			</g>
		</g>
		<g>
			<title>
putative ArsR family transcriptional regulator</title>
			<polygon class="
putative ArsR family transcriptional regulator" points="253,40 263,10 263,70" fill="rgb(255,255,255)" fill-opacity="1.0" stroke="rgb(0,0,0)" stroke-width="2"  />
		</g>
		<g>
			<title>
putative transmembrane efflux protein</title>
			<polygon class="
putative transmembrane efflux protein" points="266,25 274,25 274,10 304,40 274,70 274,55 266,55" fill="rgb(255,255,255)" fill-opacity="1.0" stroke="rgb(0,0,0)" stroke-width="2"  />
			<g>
				<title>MFS_1 (PF07690)
"Major Facilitator Superfamily"</title>
				<polygon class="PF07690" points="266,28 288,28 298,38 298,42 288,52 266,52" stroke-linejoin="round" width="32" height="24" fill="rgb(228,207,98)" stroke="rgb(182,165,78)" stroke-width="1" opacity="0.75" />
			</g>
		</g>
		<g>
			<title>
putative integral membrane lipid kinase</title>
			<polygon class="
putative integral membrane lipid kinase" points="303,40 330,10 330,70" fill="rgb(255,255,255)" fill-opacity="1.0" stroke="rgb(0,0,0)" stroke-width="2"  />
			<g>
				<title>BacA (PF02673)
"Bacitracin resistance protein BacA"</title>
				<polygon class="PF02673" points="307,40 318,28 329,28 329,52 318,52" stroke-linejoin="round" width="25" height="24" fill="rgb(202,75,97)" stroke="rgb(161,60,77)" stroke-width="1" opacity="0.75" />
			</g>
		</g>
		<g>
			<title>nokH
putative nucleoside-diphosphate-sugar epimerase</title>
			<polygon class="nokH
putative nucleoside-diphosphate-sugar epimerase" points="333,40 359,10 359,70" fill="rgb(255,255,255)" fill-opacity="1.0" stroke="rgb(0,0,0)" stroke-width="2"  />
			<g>
				<title>NmrA (PF05368)
"NmrA-like family"</title>
				<polygon class="PF05368" points="339,38 348,28 349,28 349,52 348,52 339,42" stroke-linejoin="round" width="10" height="24" fill="rgb(102,214,88)" stroke="rgb(81,171,70)" stroke-width="1" opacity="0.75" />
			</g>
		</g>
		<g>
			<title>
putative transcriptional regulator</title>
			<polygon class="
putative transcriptional regulator" points="363,25 363,25 363,10 393,40 363,70 363,55 363,55" fill="rgb(255,255,255)" fill-opacity="1.0" stroke="rgb(0,0,0)" stroke-width="2"  />
			<g>
				<title>Cupin_6 (PF12852)
"Cupin"</title>
				<polygon class="PF12852" points="363,28 376,28 381,33 381,47 376,52 363,52" stroke-linejoin="round" width="18" height="24" fill="rgb(216,56,213)" stroke="rgb(172,44,170)" stroke-width="1" opacity="0.75" />
			</g>
			<g>
				<title>HTH_18 (PF12833)
"Helix-turn-helix domain"</title>
				<polygon class="PF12833" points="385,37 388,40 385,43" stroke-linejoin="round" width="7" height="24" fill="rgb(96,195,114)" stroke="rgb(76,156,91)" stroke-width="1" opacity="0.75" />
			</g>
		</g>
		<g>
			<title>
secreted protein</title>
			<polygon class="
secreted protein" points="393,10 410,40 393,70" fill="rgb(255,255,255)" fill-opacity="1.0" stroke="rgb(0,0,0)" stroke-width="2"  />
			<g>
				<title>HAD_SAK_2 (PF18143)
"HAD domain in Swiss Army Knife RNA repair proteins"</title>
				<polygon class="PF18143" points="393,28 399,28 406,40 399,52 393,52" stroke-linejoin="round" width="15" height="24" fill="rgb(189,74,131)" stroke="rgb(151,59,104)" stroke-width="1" opacity="0.75" />
			</g>
		</g>
		<g>
			<title>
lipoate-protein ligase B</title>
			<polygon class="
lipoate-protein ligase B" points="419,10 440,40 419,70" fill="rgb(255,255,255)" fill-opacity="1.0" stroke="rgb(0,0,0)" stroke-width="2"  />
		</g>
		<g>
			<title>nokI
dTDP-dihydrostreptose synthase</title>
			<polygon class="nokI
dTDP-dihydrostreptose synthase" points="440,40 468,10 468,70" fill="rgb(255,255,255)" fill-opacity="1.0" stroke="rgb(0,0,0)" stroke-width="2"  />
			<g>
				<title>RmlD_sub_bind (PF04321)
"RmlD substrate binding domain"</title>
				<polygon class="PF04321" points="444,40 455,28 467,28 467,52 455,52" stroke-linejoin="round" width="27" height="24" fill="rgb(71,77,207)" stroke="rgb(56,61,165)" stroke-width="1" opacity="0.75" />
			</g>
		</g>
		<g>
			<title>nokG
dTDP-glucose 4,6-dehydratase</title>
			<polygon class="nokG
dTDP-glucose 4,6-dehydratase" points="499,25 498,25 498,10 468,40 498,70 498,55 499,55" fill="rgb(255,255,255)" fill-opacity="1.0" stroke="rgb(0,0,0)" stroke-width="2"  />
			<g>
				<title>GDP_Man_Dehyd (PF16363)
"GDP-mannose 4,6 dehydratase"</title>
				<polygon class="PF16363" points="472,40 484,28 498,28 498,52 484,52" stroke-linejoin="round" width="29" height="24" fill="rgb(50,144,195)" stroke="rgb(40,115,156)" stroke-width="1" opacity="0.75" />
			</g>
		</g>
		<g>
			<title>nokF
glucose-1-phosphate thymidylyltransferase</title>
			<polygon class="nokF
glucose-1-phosphate thymidylyltransferase" points="534,25 529,25 529,10 499,40 529,70 529,55 534,55" fill="rgb(255,255,255)" fill-opacity="1.0" stroke="rgb(0,0,0)" stroke-width="2"  />
			<g>
				<title>NTP_transferase (PF00483)
"Nucleotidyl transferase"</title>
				<polygon class="PF00483" points="510,33 515,28 533,28 533,52 515,52 510,47" stroke-linejoin="round" width="23" height="24" fill="rgb(211,145,90)" stroke="rgb(168,116,72)" stroke-width="1" opacity="0.75" />
			</g>
		</g>
		<g>
			<title>nokK
carboxylate O-methyltransferase</title>
			<polygon class="nokK
carboxylate O-methyltransferase" points="535,40 563,10 563,70" fill="rgb(255,255,255)" fill-opacity="1.0" stroke="rgb(0,0,0)" stroke-width="2"  />
			<g>
				<title>Methyltransf_25 (PF13649)
"Methyltransferase domain"</title>
				<polygon class="PF13649" points="549,30 550,28 558,28 558,52 550,52 549,50" stroke-linejoin="round" width="9" height="24" fill="rgb(224,103,106)" stroke="rgb(179,82,84)" stroke-width="1" opacity="0.75" />
			</g>
		</g>
		<g>
			<title>nokP
cytochrome P450 hydroxylase</title>
			<polygon class="nokP
cytochrome P450 hydroxylase" points="604,25 595,25 595,10 565,40 595,70 595,55 604,55" fill="rgb(255,255,255)" fill-opacity="1.0" stroke="rgb(0,0,0)" stroke-width="2"  />
			<g>
				<title>p450 (PF00067)
"Cytochrome P450"</title>
				<polygon class="PF00067" points="569,40 581,28 600,28 600,52 581,52" stroke-linejoin="round" width="34" height="24" fill="rgb(195,210,54)" stroke="rgb(155,168,43)" stroke-width="1" opacity="0.75" />
			</g>
		</g>
		<g>
			<title>nokM
probable sugar O-methyltransferase</title>
			<polygon class="nokM
probable sugar O-methyltransferase" points="642,25 635,25 635,10 605,40 635,70 635,55 642,55" fill="rgb(255,255,255)" fill-opacity="1.0" stroke="rgb(0,0,0)" stroke-width="2"  />
			<g>
				<title>Methyltransf_24 (PF13578)
"Methyltransferase domain"</title>
				<polygon class="PF13578" points="613,36 621,28 622,28 622,52 621,52 613,44" stroke-linejoin="round" width="9" height="24" fill="rgb(197,61,215)" stroke="rgb(157,48,172)" stroke-width="1" opacity="0.75" />
			</g>
			<g>
				<title>MycE_N (PF17843)
"MycE methyltransferase N-terminal"</title>
				<rect class="PF17843" x="631" y="28" stroke-linejoin="round" width="10" height="24" fill="rgb(100,183,60)" stroke="rgb(79,146,48)" stroke-width="1" opacity="0.75" />
			</g>
		</g>
		<g>
			<title>nokJ
cytochrome P450 monooxygenase</title>
			<polygon class="nokJ
cytochrome P450 monooxygenase" points="682,25 673,25 673,10 643,40 673,70 673,55 682,55" fill="rgb(255,255,255)" fill-opacity="1.0" stroke="rgb(0,0,0)" stroke-width="2"  />
			<g>
				<title>p450 (PF00067)
"Cytochrome P450"</title>
				<polygon class="PF00067" points="647,40 656,31 656,49" stroke-linejoin="round" width="11" height="24" fill="rgb(195,210,54)" stroke="rgb(155,168,43)" stroke-width="1" opacity="0.75" />
			</g>
		</g>
		<g>
			<title>nokL
N-glycosyltransferase</title>
			<polygon class="nokL
N-glycosyltransferase" points="727,25 714,25 714,10 684,40 714,70 714,55 727,55" fill="rgb(255,255,255)" fill-opacity="1.0" stroke="rgb(0,0,0)" stroke-width="2"  />
			<g>
				<title>EryCIII-like_C (PF06722)
"Erythromycin biosynthesis protein CIII-like, C-terminal domain"</title>
				<polygon class="PF06722" points="688,40 699,29 699,51" stroke-linejoin="round" width="14" height="24" fill="rgb(48,103,191)" stroke="rgb(38,82,152)" stroke-width="1" opacity="0.75" />
			</g>
		</g>
		<g>
			<title>nokA
L-amino acid oxidase</title>
			<polygon class="nokA
L-amino acid oxidase" points="736,25 754,25 754,10 784,40 754,70 754,55 736,55" fill="rgb(255,255,255)" fill-opacity="1.0" stroke="rgb(0,0,0)" stroke-width="2"  />
			<g>
				<title>Amino_oxidase (PF01593)
"Flavin containing amine oxidoreductase"</title>
				<polygon class="PF01593" points="738,28 768,28 780,40 768,52 738,52" stroke-linejoin="round" width="44" height="24" fill="rgb(95,189,207)" stroke="rgb(76,151,165)" stroke-width="1" opacity="0.75" />
			</g>
		</g>
		<g>
			<title>nokB
chromopyrrolic acid synthase</title>
			<polygon class="nokB
chromopyrrolic acid synthase" points="785,25 858,25 858,10 888,40 858,70 858,55 785,55" fill="rgb(255,255,255)" fill-opacity="1.0" stroke="rgb(0,0,0)" stroke-width="2"  />
			<g>
				<title>Ferritin-like (PF12902)
"Ferritin-like"</title>
				<rect class="PF12902" x="846" y="28" stroke-linejoin="round" width="25" height="24" fill="rgb(183,62,62)" stroke="rgb(146,49,49)" stroke-width="1" opacity="0.75" />
			</g>
		</g>
		<g>
			<title>nokD
monooxygenase</title>
			<polygon class="nokD
monooxygenase" points="888,25 910,25 910,10 940,40 910,70 910,55 888,55" fill="rgb(255,255,255)" fill-opacity="1.0" stroke="rgb(0,0,0)" stroke-width="2"  />
			<g>
				<title>FAD_binding_3 (PF01494)
"FAD binding domain"</title>
				<rect class="PF01494" x="888" y="28" stroke-linejoin="round" width="34" height="24" fill="rgb(215,66,156)" stroke="rgb(172,52,124)" stroke-width="1" opacity="0.75" />
			</g>
			<g>
				<title>Rng_hyd_C (PF21274)
"Aromatic-ring hydroxylase, C-terminal"</title>
				<polygon class="PF21274" points="930,34 936,40 930,46" stroke-linejoin="round" width="9" height="24" fill="rgb(153,227,106)" stroke="rgb(122,181,84)" stroke-width="1" opacity="0.75" />
			</g>
		</g>
		<g>
			<title>nokC
cytochrome P450</title>
			<polygon class="nokC
cytochrome P450" points="940,25 951,25 951,10 981,40 951,70 951,55 940,55" fill="rgb(255,255,255)" fill-opacity="1.0" stroke="rgb(0,0,0)" stroke-width="2"  />
			<g>
				<title>p450 (PF00067)
"Cytochrome P450"</title>
				<polygon class="PF00067" points="943,28 964,28 976,40 964,52 943,52" stroke-linejoin="round" width="34" height="24" fill="rgb(195,210,54)" stroke="rgb(155,168,43)" stroke-width="1" opacity="0.75" />
			</g>
		</g>
		<g>
			<title>nokE
ATP-dependent transcriptional regulator</title>
			<polygon class="nokE
ATP-dependent transcriptional regulator" points="1076,25 1010,25 1010,10 980,40 1010,70 1010,55 1076,55" fill="rgb(255,255,255)" fill-opacity="1.0" stroke="rgb(0,0,0)" stroke-width="2"  />
			<g>
				<title>GerE (PF00196)
"Bacterial regulatory proteins, luxR family"</title>
				<polygon class="PF00196" points="984,40 985,39 985,41" stroke-linejoin="round" width="5" height="24" fill="rgb(225,67,110)" stroke="rgb(180,53,88)" stroke-width="1" opacity="0.75" />
			</g>
			<g>
				<title>AAA_16 (PF13191)
"AAA ATPase domain"</title>
				<rect class="PF13191" x="1056" y="28" stroke-linejoin="round" width="13" height="24" fill="rgb(88,106,197)" stroke="rgb(70,84,157)" stroke-width="1" opacity="0.75" />
			</g>
		</g>
		<g>
			<title>
two-component system sensor kinase</title>
			<polygon class="
two-component system sensor kinase" points="1137,25 1117,25 1117,10 1087,40 1117,70 1117,55 1137,55" fill="rgb(255,255,255)" fill-opacity="1.0" stroke="rgb(0,0,0)" stroke-width="2"  />
			<g>
				<title>HATPase_c (PF02518)
"Histidine kinase-, DNA gyrase B-, and HSP90-like ATPase"</title>
				<polygon class="PF02518" points="1091,40 1095,36 1095,44" stroke-linejoin="round" width="8" height="24" fill="rgb(94,146,210)" stroke="rgb(75,116,168)" stroke-width="1" opacity="0.75" />
			</g>
			<g>
				<title>HisKA_3 (PF07730)
"Histidine kinase"</title>
				<polygon class="PF07730" points="1099,32 1103,28 1105,28 1105,52 1103,52 1099,48" stroke-linejoin="round" width="6" height="24" fill="rgb(197,134,53)" stroke="rgb(157,107,42)" stroke-width="1" opacity="0.75" />
			</g>
			<g>
				<title>GAF (PF01590)
"GAF domain"</title>
				<rect class="PF01590" x="1107" y="28" stroke-linejoin="round" width="13" height="24" fill="rgb(91,61,214)" stroke="rgb(72,48,171)" stroke-width="1" opacity="0.75" />
			</g>
			<g>
				<title>GAF (PF01590)
"GAF domain"</title>
				<rect class="PF01590" x="1124" y="28" stroke-linejoin="round" width="13" height="24" fill="rgb(91,61,214)" stroke="rgb(72,48,171)" stroke-width="1" opacity="0.75" />
			</g>
		</g>
		<g>
			<title>
two-component system response regulator</title>
			<polygon class="
two-component system response regulator" points="1161,40 1172,10 1172,70" fill="rgb(255,255,255)" fill-opacity="1.0" stroke="rgb(0,0,0)" stroke-width="2"  />
			<g>
				<title>Response_reg (PF00072)
"Response regulator receiver domain"</title>
				<polygon class="PF00072" points="1164,40 1169,28 1171,28 1171,52 1169,52" stroke-linejoin="round" width="10" height="24" fill="rgb(59,131,198)" stroke="rgb(47,104,158)" stroke-width="1" opacity="0.75" />
			</g>
		</g>
		<g>
			<title>
amino acid/metabolite permease</title>
			<polygon class="
amino acid/metabolite permease" points="1225,25 1204,25 1204,10 1174,40 1204,70 1204,55 1225,55" fill="rgb(255,255,255)" fill-opacity="1.0" stroke="rgb(0,0,0)" stroke-width="2"  />
			<g>
				<title>AA_permease_2 (PF13520)
"Amino acid permease"</title>
				<polygon class="PF13520" points="1178,40 1190,28 1222,28 1222,52 1190,52" stroke-linejoin="round" width="45" height="24" fill="rgb(131,80,228)" stroke="rgb(104,64,182)" stroke-width="1" opacity="0.75" />
			</g>
		</g>
		<g>
			<title>
putative integral membrane protein</title>
			<polygon class="
putative integral membrane protein" points="1227,40 1237,10 1237,70" fill="rgb(255,255,255)" fill-opacity="1.0" stroke="rgb(0,0,0)" stroke-width="2"  />
			<g>
				<title>DUF2809 (PF10990)
"Protein of unknown function (DUF2809)"</title>
				<polygon class="PF10990" points="1230,40 1234,28 1236,28 1236,52 1234,52" stroke-linejoin="round" width="7" height="24" fill="rgb(119,194,80)" stroke="rgb(95,155,64)" stroke-width="1" opacity="0.75" />
			</g>
		</g>
		<g>
			<title>
putative ABC transporter</title>
			<polygon class="
putative ABC transporter" points="1240,25 1264,25 1264,10 1294,40 1264,70 1264,55 1240,55" fill="rgb(255,255,255)" fill-opacity="1.0" stroke="rgb(0,0,0)" stroke-width="2"  />
			<g>
				<title>ABC_tran (PF00005)
"ABC transporter"</title>
				<rect class="PF00005" x="1242" y="28" stroke-linejoin="round" width="16" height="24" fill="rgb(46,186,108)" stroke="rgb(36,148,86)" stroke-width="1" opacity="0.75" />
			</g>
			<g>
				<title>ABC_tran (PF00005)
"ABC transporter"</title>
				<polygon class="PF00005" points="1276,28 1278,28 1288,38 1288,42 1278,52 1276,52" stroke-linejoin="round" width="12" height="24" fill="rgb(46,186,108)" stroke="rgb(36,148,86)" stroke-width="1" opacity="0.75" />
			</g>
		</g>
		<g>
			<title>
putative peptide transport system secreted peptide binding protein</title>
			<polygon class="
putative peptide transport system secreted peptide binding protein" points="1298,25 1328,25 1328,10 1358,40 1328,70 1328,55 1298,55" fill="rgb(255,255,255)" fill-opacity="1.0" stroke="rgb(0,0,0)" stroke-width="2"  />
			<g>
				<title>SBP_bac_5 (PF00496)
"Bacterial extracellular solute-binding proteins, family 5 Middle"</title>
				<polygon class="PF00496" points="1305,28 1341,28 1343,30 1343,50 1341,52 1305,52" stroke-linejoin="round" width="38" height="24" fill="rgb(178,74,116)" stroke="rgb(142,59,92)" stroke-width="1" opacity="0.75" />
			</g>
		</g>
		<g>
			<title>
putative peptide transport system permease</title>
			<polygon class="
putative peptide transport system permease" points="1358,25 1362,25 1362,10 1392,40 1362,70 1362,55 1358,55" fill="rgb(255,255,255)" fill-opacity="1.0" stroke="rgb(0,0,0)" stroke-width="2"  />
			<g>
				<title>BPD_transp_1_N (PF19300)
"Binding-prot-dependent transport system membrane comp, N-term"</title>
				<rect class="PF19300" x="1360" y="28" stroke-linejoin="round" width="10" height="24" fill="rgb(211,68,223)" stroke="rgb(168,54,178)" stroke-width="1" opacity="0.75" />
			</g>
			<g>
				<title>BPD_transp_1 (PF00528)
"Binding-protein-dependent transport system inner membrane component"</title>
				<polygon class="PF00528" points="1371,28 1376,28 1388,40 1376,52 1371,52" stroke-linejoin="round" width="21" height="24" fill="rgb(167,188,50)" stroke="rgb(133,150,40)" stroke-width="1" opacity="0.75" />
			</g>
		</g>
		<g>
			<title>
putative peptide transport permease</title>
			<polygon class="
putative peptide transport permease" points="1391,25 1392,25 1392,10 1422,40 1392,70 1392,55 1391,55" fill="rgb(255,255,255)" fill-opacity="1.0" stroke="rgb(0,0,0)" stroke-width="2"  />
			<g>
				<title>OppC_N (PF12911)
"N-terminal TM domain of oligopeptide transport permease C"</title>
				<rect class="PF12911" x="1394" y="28" stroke-linejoin="round" width="5" height="24" fill="rgb(85,202,155)" stroke="rgb(68,161,124)" stroke-width="1" opacity="0.75" />
			</g>
			<g>
				<title>BPD_transp_1 (PF00528)
"Binding-protein-dependent transport system inner membrane component"</title>
				<polygon class="PF00528" points="1404,28 1406,28 1418,40 1406,52 1404,52" stroke-linejoin="round" width="18" height="24" fill="rgb(167,188,50)" stroke="rgb(133,150,40)" stroke-width="1" opacity="0.75" />
			</g>
		</g>
		<g>
			<title>
putative ABC transporter ATP-binding protein</title>
			<polygon class="
putative ABC transporter ATP-binding protein" points="1422,25 1424,25 1424,10 1454,40 1424,70 1424,55 1422,55" fill="rgb(255,255,255)" fill-opacity="1.0" stroke="rgb(0,0,0)" stroke-width="2"  />
			<g>
				<title>ABC_tran (PF00005)
"ABC transporter"</title>
				<polygon class="PF00005" points="1424,28 1438,28 1439,29 1439,51 1438,52 1424,52" stroke-linejoin="round" width="15" height="24" fill="rgb(46,186,108)" stroke="rgb(36,148,86)" stroke-width="1" opacity="0.75" />
			</g>
			<g>
				<title>oligo_HPY (PF08352)
"Oligopeptide/dipeptide transporter, C-terminal region"</title>
				<polygon class="PF08352" points="1445,35 1450,40 1445,45" stroke-linejoin="round" width="6" height="24" fill="rgb(130,208,102)" stroke="rgb(104,166,81)" stroke-width="1" opacity="0.75" />
			</g>
		</g>
		<g>
			<title>
putative peptide transport ATP-binding protein</title>
			<polygon class="
putative peptide transport ATP-binding protein" points="1454,25 1457,25 1457,10 1487,40 1457,70 1457,55 1454,55" fill="rgb(255,255,255)" fill-opacity="1.0" stroke="rgb(0,0,0)" stroke-width="2"  />
			<g>
				<title>ABC_tran (PF00005)
"ABC transporter"</title>
				<polygon class="PF00005" points="1457,28 1470,28 1472,30 1472,50 1470,52 1457,52" stroke-linejoin="round" width="15" height="24" fill="rgb(46,186,108)" stroke="rgb(36,148,86)" stroke-width="1" opacity="0.75" />
			</g>
			<g>
				<title>oligo_HPY (PF08352)
"Oligopeptide/dipeptide transporter, C-terminal region"</title>
				<polygon class="PF08352" points="1477,35 1482,40 1482,40 1477,45" stroke-linejoin="round" width="5" height="24" fill="rgb(130,208,102)" stroke="rgb(104,166,81)" stroke-width="1" opacity="0.75" />
			</g>
		</g>
	</g>
</svg>
