<svg version="1.1" baseProfile="full" xmlns="http://www.w3.org/2000/svg" width="1351.4" height="160">
	<g>
		<line x1="10" y1="40.0" x2="1341.4" y2="40.0" style="stroke:rgb(70,70,70); stroke-width:3 "/>
		<g>
			<title>ltmG
geranylgeranyl diphosphate synthase</title>
			<polygon class="ltmG
geranylgeranyl diphosphate synthase" points="97,25 104,25 104,10 134,40 104,70 104,55 97,55" fill="rgb(255,255,255)" fill-opacity="1.0" stroke="rgb(0,0,0)" stroke-width="2"  />
			<g>
				<title>polyprenyl_synt (PF00348)
"Polyprenyl synthetase"</title>
				<polygon class="PF00348" points="100,28 117,28 124,35 124,45 117,52 100,52" stroke-linejoin="round" width="24" height="24" fill="rgb(216,200,102)" stroke="rgb(172,160,81)" stroke-width="1" opacity="0.75" />
			</g>
		</g>
		<g>
			<title>ltmM
FAD dependent monooxygenase</title>
			<polygon class="ltmM
FAD dependent monooxygenase" points="246,25 270,25 270,10 300,40 270,70 270,55 246,55" fill="rgb(255,255,255)" fill-opacity="1.0" stroke="rgb(0,0,0)" stroke-width="2"  />
			<g>
				<title>FAD_binding_3 (PF01494)
"FAD binding domain"</title>
				<rect class="PF01494" x="246" y="28" stroke-linejoin="round" width="34" height="24" fill="rgb(215,66,156)" stroke="rgb(172,52,124)" stroke-width="1" opacity="0.75" />
			</g>
		</g>
		<g>
			<title>ltmK
P450 monooxygenase</title>
			<polygon class="ltmK
P450 monooxygenase" points="364,25 402,25 402,10 432,40 402,70 402,55 364,55" fill="rgb(255,255,255)" fill-opacity="1.0" stroke="rgb(0,0,0)" stroke-width="2"  />
			<g>
				<title>p450 (PF00067)
"Cytochrome P450"</title>
				<rect class="PF00067" x="379" y="28" stroke-linejoin="round" width="36" height="24" fill="rgb(195,210,54)" stroke="rgb(155,168,43)" stroke-width="1" opacity="0.75" />
			</g>
		</g>
	</g>
	<g>
		<line x1="10" y1="120.0" x2="1221.3666666666666" y2="120.0" style="stroke:rgb(70,70,70); stroke-width:3 "/>
		<g>
			<title>ltmE
multi-functional prenyl transferase</title>
			<polygon class="ltmE
multi-functional prenyl transferase" points="42,105 96,105 96,90 126,120 96,150 96,135 42,135" fill="rgb(255,255,255)" fill-opacity="1.0" stroke="rgb(0,0,0)" stroke-width="2"  />
		</g>
		<g>
			<title>ltmJ
P450 monooxygenase</title>
			<polygon class="ltmJ
P450 monooxygenase" points="154,105 188,105 188,90 218,120 188,150 188,135 154,135" fill="rgb(255,255,255)" fill-opacity="1.0" stroke="rgb(0,0,0)" stroke-width="2"  />
		</g>
		<g>
			<title>ltmP
P450 monooxygenase</title>
			<polygon class="ltmP
P450 monooxygenase" points="814,105 784,105 784,90 754,120 784,150 784,135 814,135" fill="rgb(255,255,255)" fill-opacity="1.0" stroke="rgb(0,0,0)" stroke-width="2"  />
		</g>
		<g>
			<title>ltmQ
P450 monooxygenase</title>
			<polygon class="ltmQ
P450 monooxygenase" points="870,105 907,105 907,90 937,120 907,150 907,135 870,135" fill="rgb(255,255,255)" fill-opacity="1.0" stroke="rgb(0,0,0)" stroke-width="2"  />
		</g>
		<g>
			<title>ltmF
aromatic prenyl transferase</title>
			<polygon class="ltmF
aromatic prenyl transferase" points="973,105 992,105 992,90 1022,120 992,150 992,135 973,135" fill="rgb(255,255,255)" fill-opacity="1.0" stroke="rgb(0,0,0)" stroke-width="2"  />
		</g>
		<g>
			<title>ltmC
prenyl transferase</title>
			<polygon class="ltmC
prenyl transferase" points="1078,105 1071,105 1071,90 1041,120 1071,150 1071,135 1078,135" fill="rgb(255,255,255)" fill-opacity="1.0" stroke="rgb(0,0,0)" stroke-width="2"  />
		</g>
		<g>
			<title>ltmB
unknown</title>
			<polygon class="ltmB
unknown" points="1091,90 1116,120 1091,150" fill="rgb(255,255,255)" fill-opacity="1.0" stroke="rgb(0,0,0)" stroke-width="2"  />
		</g>
	</g>
</svg>
