<svg version="1.1" baseProfile="full" xmlns="http://www.w3.org/2000/svg" width="893.9666666666667" height="80">
	<g>
		<line x1="10" y1="40.0" x2="883.9666666666667" y2="40.0" style="stroke:rgb(70,70,70); stroke-width:3 "/>
		<g>
			<title>
AMP-dependent synthetase/ligase</title>
			<polygon class="
AMP-dependent synthetase/ligase" points="45,25 75,25 75,10 105,40 75,70 75,55 45,55" fill="rgb(255,255,255)" fill-opacity="1.0" stroke="rgb(0,0,0)" stroke-width="2"  />
			<g>
				<title>AMP-binding (PF00501)
"AMP-binding enzyme"</title>
				<rect class="PF00501" x="46" y="28" stroke-linejoin="round" width="40" height="24" fill="rgb(189,78,204)" stroke="rgb(151,62,163)" stroke-width="1" opacity="0.75" />
			</g>
		</g>
		<g>
			<title>
acyl carrier protein</title>
			<polygon class="
acyl carrier protein" points="123,10 133,40 123,70" fill="rgb(255,255,255)" fill-opacity="1.0" stroke="rgb(0,0,0)" stroke-width="2"  />
			<g>
				<title>PP-binding (PF00550)
"Phosphopantetheine attachment site"</title>
				<polygon class="PF00550" points="126,28 126,28 130,40 126,52 126,52" stroke-linejoin="round" width="6" height="24" fill="rgb(181,58,166)" stroke="rgb(144,46,132)" stroke-width="1" opacity="0.75" />
			</g>
		</g>
		<g>
			<title>
hypothetical protein</title>
			<polygon class="
hypothetical protein" points="143,25 160,25 160,10 190,40 160,70 160,55 143,55" fill="rgb(255,255,255)" fill-opacity="1.0" stroke="rgb(0,0,0)" stroke-width="2"  />
		</g>
		<g>
			<title>
polyketide synthase</title>
			<polygon class="
polyketide synthase" points="198,25 290,25 290,10 320,40 290,70 290,55 198,55" fill="rgb(255,255,255)" fill-opacity="1.0" stroke="rgb(0,0,0)" stroke-width="2"  />
			<g>
				<title>ketoacyl-synt (PF00109)
"Beta-ketoacyl synthase, N-terminal domain"</title>
				<rect class="PF00109" x="198" y="28" stroke-linejoin="round" width="24" height="24" fill="rgb(74,179,82)" stroke="rgb(59,143,65)" stroke-width="1" opacity="0.75" />
			</g>
			<g>
				<title>Ketoacyl-synt_C (PF02801)
"Beta-ketoacyl synthase, C-terminal domain"</title>
				<rect class="PF02801" x="224" y="28" stroke-linejoin="round" width="11" height="24" fill="rgb(212,79,72)" stroke="rgb(169,63,57)" stroke-width="1" opacity="0.75" />
			</g>
			<g>
				<title>KAsynt_C_assoc (PF16197)
"Ketoacyl-synthetase C-terminal extension"</title>
				<rect class="PF16197" x="236" y="28" stroke-linejoin="round" width="11" height="24" fill="rgb(200,86,70)" stroke="rgb(160,68,56)" stroke-width="1" opacity="0.75" />
			</g>
			<g>
				<title>Acyl_transf_1 (PF00698)
"Acyl transferase domain"</title>
				<rect class="PF00698" x="251" y="28" stroke-linejoin="round" width="32" height="24" fill="rgb(132,93,193)" stroke="rgb(105,74,154)" stroke-width="1" opacity="0.75" />
			</g>
			<g>
				<title>PP-binding (PF00550)
"Phosphopantetheine attachment site"</title>
				<rect class="PF00550" x="297" y="28" stroke-linejoin="round" width="6" height="24" fill="rgb(181,58,166)" stroke="rgb(144,46,132)" stroke-width="1" opacity="0.75" />
			</g>
			<g>
				<title>PP-binding (PF00550)
"Phosphopantetheine attachment site"</title>
				<polygon class="PF00550" points="313,37 316,40 313,43" stroke-linejoin="round" width="6" height="24" fill="rgb(181,58,166)" stroke="rgb(144,46,132)" stroke-width="1" opacity="0.75" />
			</g>
		</g>
		<g>
			<title>
beta-ketoacyl synthase</title>
			<polygon class="
beta-ketoacyl synthase" points="321,25 332,25 332,10 362,40 332,70 332,55 321,55" fill="rgb(255,255,255)" fill-opacity="1.0" stroke="rgb(0,0,0)" stroke-width="2"  />
			<g>
				<title>ketoacyl-synt (PF00109)
"Beta-ketoacyl synthase, N-terminal domain"</title>
				<rect class="PF00109" x="321" y="28" stroke-linejoin="round" width="24" height="24" fill="rgb(74,179,82)" stroke="rgb(59,143,65)" stroke-width="1" opacity="0.75" />
			</g>
			<g>
				<title>Ketoacyl-synt_C (PF02801)
"Beta-ketoacyl synthase, C-terminal domain"</title>
				<polygon class="PF02801" points="347,29 358,40 358,40 347,51" stroke-linejoin="round" width="11" height="24" fill="rgb(212,79,72)" stroke="rgb(169,63,57)" stroke-width="1" opacity="0.75" />
			</g>
		</g>
		<g>
			<title>
HMG-CoA synthase-like enzyme</title>
			<polygon class="
HMG-CoA synthase-like enzyme" points="362,25 374,25 374,10 404,40 374,70 374,55 362,55" fill="rgb(255,255,255)" fill-opacity="1.0" stroke="rgb(0,0,0)" stroke-width="2"  />
			<g>
				<title>HMG_CoA_synt_N (PF01154)
"Hydroxymethylglutaryl-coenzyme A synthase N terminal"</title>
				<rect class="PF01154" x="362" y="28" stroke-linejoin="round" width="18" height="24" fill="rgb(192,53,137)" stroke="rgb(153,42,109)" stroke-width="1" opacity="0.75" />
			</g>
			<g>
				<title>HMG_CoA_synt_C (PF08540)
"Hydroxymethylglutaryl-coenzyme A synthase C terminal"</title>
				<polygon class="PF08540" points="388,29 399,40 388,51" stroke-linejoin="round" width="13" height="24" fill="rgb(72,187,147)" stroke="rgb(57,149,117)" stroke-width="1" opacity="0.75" />
			</g>
		</g>
		<g>
			<title>
enoyl-CoA hydratase/isomerase</title>
			<polygon class="
enoyl-CoA hydratase/isomerase" points="404,10 429,40 404,70" fill="rgb(255,255,255)" fill-opacity="1.0" stroke="rgb(0,0,0)" stroke-width="2"  />
			<g>
				<title>ECH_1 (PF00378)
"Enoyl-CoA hydratase/isomerase"</title>
				<polygon class="PF00378" points="404,28 415,28 425,40 415,52 404,52" stroke-linejoin="round" width="24" height="24" fill="rgb(201,73,190)" stroke="rgb(160,58,152)" stroke-width="1" opacity="0.75" />
			</g>
		</g>
		<g>
			<title>
polyketide synthase</title>
			<polygon class="
polyketide synthase" points="429,25 621,25 621,10 651,40 621,70 621,55 429,55" fill="rgb(255,255,255)" fill-opacity="1.0" stroke="rgb(0,0,0)" stroke-width="2"  />
			<g>
				<title>ECH_1 (PF00378)
"Enoyl-CoA hydratase/isomerase"</title>
				<rect class="PF00378" x="431" y="28" stroke-linejoin="round" width="23" height="24" fill="rgb(201,73,190)" stroke="rgb(160,58,152)" stroke-width="1" opacity="0.75" />
			</g>
			<g>
				<title>ADH_N (PF08240)
"Alcohol dehydrogenase GroES-like domain"</title>
				<rect class="PF08240" x="462" y="28" stroke-linejoin="round" width="8" height="24" fill="rgb(217,198,105)" stroke="rgb(173,158,84)" stroke-width="1" opacity="0.75" />
			</g>
			<g>
				<title>ADH_zinc_N (PF00107)
"Zinc-binding dehydrogenase"</title>
				<rect class="PF00107" x="475" y="28" stroke-linejoin="round" width="13" height="24" fill="rgb(79,114,198)" stroke="rgb(63,91,158)" stroke-width="1" opacity="0.75" />
			</g>
			<g>
				<title>ketoacyl-synt (PF00109)
"Beta-ketoacyl synthase, N-terminal domain"</title>
				<rect class="PF00109" x="516" y="28" stroke-linejoin="round" width="25" height="24" fill="rgb(74,179,82)" stroke="rgb(59,143,65)" stroke-width="1" opacity="0.75" />
			</g>
			<g>
				<title>Ketoacyl-synt_C (PF02801)
"Beta-ketoacyl synthase, C-terminal domain"</title>
				<rect class="PF02801" x="542" y="28" stroke-linejoin="round" width="11" height="24" fill="rgb(212,79,72)" stroke="rgb(169,63,57)" stroke-width="1" opacity="0.75" />
			</g>
			<g>
				<title>KAsynt_C_assoc (PF16197)
"Ketoacyl-synthetase C-terminal extension"</title>
				<rect class="PF16197" x="554" y="28" stroke-linejoin="round" width="12" height="24" fill="rgb(200,86,70)" stroke="rgb(160,68,56)" stroke-width="1" opacity="0.75" />
			</g>
			<g>
				<title>Acyl_transf_1 (PF00698)
"Acyl transferase domain"</title>
				<rect class="PF00698" x="570" y="28" stroke-linejoin="round" width="31" height="24" fill="rgb(132,93,193)" stroke="rgb(105,74,154)" stroke-width="1" opacity="0.75" />
			</g>
			<g>
				<title>PP-binding (PF00550)
"Phosphopantetheine attachment site"</title>
				<rect class="PF00550" x="616" y="28" stroke-linejoin="round" width="6" height="24" fill="rgb(181,58,166)" stroke="rgb(144,46,132)" stroke-width="1" opacity="0.75" />
			</g>
			<g>
				<title>Thioesterase (PF00975)
"Thioesterase domain"</title>
				<polygon class="PF00975" points="628,28 635,28 647,40 635,52 628,52" stroke-linejoin="round" width="22" height="24" fill="rgb(69,76,223)" stroke="rgb(55,60,178)" stroke-width="1" opacity="0.75" />
			</g>
		</g>
		<g>
			<title>
type III polyketide synthase</title>
			<polygon class="
type III polyketide synthase" points="655,25 662,25 662,10 692,40 662,70 662,55 655,55" fill="rgb(255,255,255)" fill-opacity="1.0" stroke="rgb(0,0,0)" stroke-width="2"  />
			<g>
				<title>FAE1_CUT1_RppA (PF08392)
"FAE1/Type III polyketide synthase-like protein"</title>
				<rect class="PF08392" x="660" y="28" stroke-linejoin="round" width="13" height="24" fill="rgb(200,120,99)" stroke="rgb(160,96,79)" stroke-width="1" opacity="0.75" />
			</g>
			<g>
				<title>Chal_sti_synt_C (PF02797)
"Chalcone and stilbene synthases, C-terminal domain"</title>
				<polygon class="PF02797" points="678,30 688,40 678,50" stroke-linejoin="round" width="14" height="24" fill="rgb(210,123,55)" stroke="rgb(168,98,44)" stroke-width="1" opacity="0.75" />
			</g>
		</g>
		<g>
			<title>
phospholipid methyltransferase</title>
			<polygon class="
phospholipid methyltransferase" points="693,10 713,40 693,70" fill="rgb(255,255,255)" fill-opacity="1.0" stroke="rgb(0,0,0)" stroke-width="2"  />
			<g>
				<title>ICMT (PF04140)
"Isoprenylcysteine carboxyl methyltransferase (ICMT) family"</title>
				<polygon class="PF04140" points="700,28 701,28 709,40 709,40 701,52 700,52" stroke-linejoin="round" width="9" height="24" fill="rgb(100,223,114)" stroke="rgb(80,178,91)" stroke-width="1" opacity="0.75" />
			</g>
		</g>
		<g>
			<title>
hemolysin-type calcium-binding region</title>
			<polygon class="
hemolysin-type calcium-binding region" points="725,25 760,25 760,10 790,40 760,70 760,55 725,55" fill="rgb(255,255,255)" fill-opacity="1.0" stroke="rgb(0,0,0)" stroke-width="2"  />
			<g>
				<title>SBBP (PF06739)
"Beta-propeller repeat"</title>
				<rect class="PF06739" x="758" y="28" stroke-linejoin="round" width="3" height="24" fill="rgb(47,181,65)" stroke="rgb(37,144,51)" stroke-width="1" opacity="0.75" />
			</g>
			<g>
				<title>SBBP (PF06739)
"Beta-propeller repeat"</title>
				<polygon class="PF06739" points="771,28 773,28 774,29 774,51 773,52 771,52" stroke-linejoin="round" width="3" height="24" fill="rgb(47,181,65)" stroke="rgb(37,144,51)" stroke-width="1" opacity="0.75" />
			</g>
			<g>
				<title>SBBP (PF06739)
"Beta-propeller repeat"</title>
				<polygon class="PF06739" points="776,31 779,34 779,46 776,49" stroke-linejoin="round" width="3" height="24" fill="rgb(47,181,65)" stroke="rgb(37,144,51)" stroke-width="1" opacity="0.75" />
			</g>
		</g>
		<g>
			<title>
choline dehydrogenase-like flavoprotein</title>
			<polygon class="
choline dehydrogenase-like flavoprotein" points="809,25 832,25 832,10 862,40 832,70 832,55 809,55" fill="rgb(255,255,255)" fill-opacity="1.0" stroke="rgb(0,0,0)" stroke-width="2"  />
			<g>
				<title>ApbA (PF02558)
"Ketopantoate reductase PanE/ApbA"</title>
				<rect class="PF02558" x="809" y="28" stroke-linejoin="round" width="6" height="24" fill="rgb(66,179,95)" stroke="rgb(52,143,75)" stroke-width="1" opacity="0.75" />
			</g>
			<g>
				<title>GMC_oxred_N (PF00732)
"GMC oxidoreductase"</title>
				<rect class="PF00732" x="820" y="28" stroke-linejoin="round" width="20" height="24" fill="rgb(102,94,198)" stroke="rgb(81,75,158)" stroke-width="1" opacity="0.75" />
			</g>
			<g>
				<title>GMC_oxred_C (PF05199)
"GMC oxidoreductase"</title>
				<polygon class="PF05199" points="849,31 858,40 849,49" stroke-linejoin="round" width="12" height="24" fill="rgb(206,67,222)" stroke="rgb(164,53,177)" stroke-width="1" opacity="0.75" />
			</g>
		</g>
	</g>
</svg>
