<svg version="1.1" baseProfile="full" xmlns="http://www.w3.org/2000/svg" width="351.5" height="80">
	<g>
		<line x1="10" y1="40.0" x2="341.5" y2="40.0" style="stroke:rgb(70,70,70); stroke-width:3 "/>
		<g>
			<title> (BAT_RS01135)
hypothetical protein</title>
			<polygon class=" (BAT_RS01135)
hypothetical protein" points="10,40 36,10 36,70" fill="rgb(255,255,255)" fill-opacity="1.0" stroke="rgb(0,0,0)" stroke-width="2"  />
			<g>
				<title>Methyltransf_23 (PF13489)
"Methyltransferase domain"</title>
				<polygon class="PF13489" points="16,38 25,28 32,28 32,52 25,52 16,42" stroke-linejoin="round" width="16" height="24" fill="rgb(62,214,70)" stroke="rgb(49,171,56)" stroke-width="1" opacity="0.75" />
			</g>
		</g>
		<g>
			<title> (BAT_RS01140)
caax amino protease family</title>
			<polygon class=" (BAT_RS01140)
caax amino protease family" points="37,40 59,10 59,70" fill="rgb(255,255,255)" fill-opacity="1.0" stroke="rgb(0,0,0)" stroke-width="2"  />
			<g>
				<title>Rce1-like (PF02517)
"Type II CAAX prenyl endopeptidase Rce1-like"</title>
				<polygon class="PF02517" points="41,40 48,31 48,49" stroke-linejoin="round" width="9" height="24" fill="rgb(221,193,76)" stroke="rgb(176,154,60)" stroke-width="1" opacity="0.75" />
			</g>
		</g>
		<g>
			<title> (BAT_RS01145)
dehydrogenase</title>
			<polygon class=" (BAT_RS01145)
dehydrogenase" points="60,40 87,10 87,70" fill="rgb(255,255,255)" fill-opacity="1.0" stroke="rgb(0,0,0)" stroke-width="2"  />
			<g>
				<title>Nitroreductase (PF00881)
"Nitroreductase family"</title>
				<polygon class="PF00881" points="64,40 75,28 77,28 77,52 75,52" stroke-linejoin="round" width="17" height="24" fill="rgb(106,62,184)" stroke="rgb(84,49,147)" stroke-width="1" opacity="0.75" />
			</g>
		</g>
		<g>
			<title> (BAT_RS01150)
hypothetical protein</title>
			<polygon class=" (BAT_RS01150)
hypothetical protein" points="132,25 118,25 118,10 88,40 118,70 118,55 132,55" fill="rgb(255,255,255)" fill-opacity="1.0" stroke="rgb(0,0,0)" stroke-width="2"  />
			<g>
				<title>YcaO (PF02624)
"YcaO cyclodehydratase, ATP-ad Mg2+-binding"</title>
				<polygon class="PF02624" points="92,40 104,28 126,28 126,52 104,52 92,40" stroke-linejoin="round" width="34" height="24" fill="rgb(69,185,74)" stroke="rgb(55,148,59)" stroke-width="1" opacity="0.75" />
			</g>
		</g>
		<g>
			<title> (BAT_RS01155)
hypothetical protein</title>
			<polygon class=" (BAT_RS01155)
hypothetical protein" points="165,25 163,25 163,10 133,40 163,70 163,55 165,55" fill="rgb(255,255,255)" fill-opacity="1.0" stroke="rgb(0,0,0)" stroke-width="2"  />
		</g>
		<g>
			<title> (BAT_RS01160)
hypothetical protein</title>
			<polygon class=" (BAT_RS01160)
hypothetical protein" points="166,40 189,10 189,70" fill="rgb(255,255,255)" fill-opacity="1.0" stroke="rgb(0,0,0)" stroke-width="2"  />
		</g>
		<g>
			<title> (BAT_RS01165)
hypothetical protein</title>
			<polygon class=" (BAT_RS01165)
hypothetical protein" points="219,40 243,10 243,70" fill="rgb(255,255,255)" fill-opacity="1.0" stroke="rgb(0,0,0)" stroke-width="2"  />
			<g>
				<title>Pentapeptide_4 (PF13599)
"Pentapeptide repeats (9 copies)"</title>
				<polygon class="PF13599" points="223,40 226,36 226,44" stroke-linejoin="round" width="7" height="24" fill="rgb(73,211,115)" stroke="rgb(58,168,92)" stroke-width="1" opacity="0.75" />
			</g>
			<g>
				<title>Pentapeptide_4 (PF13599)
"Pentapeptide repeats (9 copies)"</title>
				<polygon class="PF13599" points="225,38 232,29 232,51 225,42" stroke-linejoin="round" width="7" height="24" fill="rgb(73,211,115)" stroke="rgb(58,168,92)" stroke-width="1" opacity="0.75" />
			</g>
		</g>
		<g>
			<title> (BAT_RS01170)
ABC transporter permease</title>
			<polygon class=" (BAT_RS01170)
ABC transporter permease" points="248,40 272,10 272,70" fill="rgb(255,255,255)" fill-opacity="1.0" stroke="rgb(0,0,0)" stroke-width="2"  />
			<g>
				<title>ABC2_membrane (PF01061)
"ABC-2 type transporter"</title>
				<polygon class="PF01061" points="252,40 262,28 272,28 272,52 262,52 252,40" stroke-linejoin="round" width="20" height="24" fill="rgb(91,137,194)" stroke="rgb(72,109,155)" stroke-width="1" opacity="0.75" />
			</g>
		</g>
		<g>
			<title> (BAT_RS01175)
ABC transporter ATP-binding protein</title>
			<polygon class=" (BAT_RS01175)
ABC transporter ATP-binding protein" points="281,40 310,10 310,70" fill="rgb(255,255,255)" fill-opacity="1.0" stroke="rgb(0,0,0)" stroke-width="2"  />
			<g>
				<title>ABC_tran (PF00005)
"ABC transporter"</title>
				<polygon class="PF00005" points="295,30 297,28 308,28 308,52 297,52 295,50" stroke-linejoin="round" width="13" height="24" fill="rgb(46,186,108)" stroke="rgb(36,148,86)" stroke-width="1" opacity="0.75" />
			</g>
		</g>
		<g>
			<title> (BAT_RS01180)
transcriptional regulator</title>
			<polygon class=" (BAT_RS01180)
transcriptional regulator" points="312,40 321,10 321,70" fill="rgb(255,255,255)" fill-opacity="1.0" stroke="rgb(0,0,0)" stroke-width="2"  />
			<g>
				<title>HTH_34 (PF13601)
"Winged helix DNA-binding domain"</title>
				<polygon class="PF13601" points="315,40 319,28 319,28 319,52 319,52" stroke-linejoin="round" width="7" height="24" fill="rgb(219,67,87)" stroke="rgb(175,53,69)" stroke-width="1" opacity="0.75" />
			</g>
		</g>
		<g>
			<title> (BAT_RS01185)
membrane protein</title>
			<polygon class=" (BAT_RS01185)
membrane protein" points="321,40 340,10 340,70" fill="rgb(255,255,255)" fill-opacity="1.0" stroke="rgb(0,0,0)" stroke-width="2"  />
		</g>
	</g>
</svg>
