<svg version="1.1" baseProfile="full" xmlns="http://www.w3.org/2000/svg" width="1616.1333333333334" height="80">
	<g>
		<line x1="10" y1="40.0" x2="1606.1333333333334" y2="40.0" style="stroke:rgb(70,70,70); stroke-width:3 "/>
		<g>
			<title>phqA
prenyltransferase</title>
			<polygon class="phqA
prenyltransferase" points="10,25 22,25 22,10 52,40 22,70 22,55 10,55" fill="rgb(255,255,255)" fill-opacity="1.0" stroke="rgb(0,0,0)" stroke-width="2"  />
			<g>
				<title>Trp_DMAT (PF11991)
"Tryptophan dimethylallyltransferase"</title>
				<polygon class="PF11991" points="12,28 36,28 46,38 46,42 36,52 12,52" stroke-linejoin="round" width="34" height="24" fill="rgb(65,157,207)" stroke="rgb(51,125,165)" stroke-width="1" opacity="0.75" />
			</g>
		</g>
		<g>
			<title>phqB
NRPS</title>
			<polygon class="phqB
NRPS" points="308,25 93,25 93,10 63,40 93,70 93,55 308,55" fill="rgb(255,255,255)" fill-opacity="1.0" stroke="rgb(0,0,0)" stroke-width="2"  />
			<g>
				<title>NAD_binding_4 (PF07993)
"Male sterility protein"</title>
				<polygon class="PF07993" points="78,29 79,28 103,28 103,52 79,52 78,51" stroke-linejoin="round" width="25" height="24" fill="rgb(210,94,130)" stroke="rgb(168,75,103)" stroke-width="1" opacity="0.75" />
			</g>
			<g>
				<title>PP-binding (PF00550)
"Phosphopantetheine attachment site"</title>
				<rect class="PF00550" x="109" y="28" stroke-linejoin="round" width="6" height="24" fill="rgb(181,58,166)" stroke="rgb(144,46,132)" stroke-width="1" opacity="0.75" />
			</g>
			<g>
				<title>AMP-binding (PF00501)
"AMP-binding enzyme"</title>
				<rect class="PF00501" x="137" y="28" stroke-linejoin="round" width="34" height="24" fill="rgb(189,78,204)" stroke="rgb(151,62,163)" stroke-width="1" opacity="0.75" />
			</g>
			<g>
				<title>Condensation (PF00668)
"Condensation domain"</title>
				<rect class="PF00668" x="174" y="28" stroke-linejoin="round" width="42" height="24" fill="rgb(172,217,60)" stroke="rgb(137,173,47)" stroke-width="1" opacity="0.75" />
			</g>
			<g>
				<title>AMP-binding (PF00501)
"AMP-binding enzyme"</title>
				<rect class="PF00501" x="248" y="28" stroke-linejoin="round" width="34" height="24" fill="rgb(189,78,204)" stroke="rgb(151,62,163)" stroke-width="1" opacity="0.75" />
			</g>
		</g>
		<g>
			<title>phqC
2OG-Fe(II)-oxygenase</title>
			<polygon class="phqC
2OG-Fe(II)-oxygenase" points="327,25 335,25 335,10 365,40 335,70 335,55 327,55" fill="rgb(255,255,255)" fill-opacity="1.0" stroke="rgb(0,0,0)" stroke-width="2"  />
			<g>
				<title>DIOX_N (PF14226)
"non-haem dioxygenase in morphine synthesis N-terminal"</title>
				<rect class="PF14226" x="329" y="28" stroke-linejoin="round" width="13" height="24" fill="rgb(193,95,155)" stroke="rgb(154,76,124)" stroke-width="1" opacity="0.75" />
			</g>
			<g>
				<title>2OG-FeII_Oxy (PF03171)
"2OG-Fe(II) oxygenase superfamily"</title>
				<polygon class="PF03171" points="347,28 349,28 358,37 358,43 349,52 347,52" stroke-linejoin="round" width="11" height="24" fill="rgb(182,163,77)" stroke="rgb(145,130,61)" stroke-width="1" opacity="0.75" />
			</g>
		</g>
		<g>
			<title>phqD
pyrroline-5-carboxylate reductase</title>
			<polygon class="phqD
pyrroline-5-carboxylate reductase" points="408,25 403,25 403,10 373,40 403,70 403,55 408,55" fill="rgb(255,255,255)" fill-opacity="1.0" stroke="rgb(0,0,0)" stroke-width="2"  />
			<g>
				<title>P5CR_dimer (PF14748)
"Pyrroline-5-carboxylate reductase dimerisation"</title>
				<polygon class="PF14748" points="378,39 389,28 389,28 389,52 389,52 378,41" stroke-linejoin="round" width="11" height="24" fill="rgb(186,87,110)" stroke="rgb(148,69,87)" stroke-width="1" opacity="0.75" />
			</g>
			<g>
				<title>F420_oxidored (PF03807)
"NADP oxidoreductase coenzyme F420-dependent"</title>
				<rect class="PF03807" x="396" y="28" stroke-linejoin="round" width="11" height="24" fill="rgb(209,134,62)" stroke="rgb(167,107,49)" stroke-width="1" opacity="0.75" />
			</g>
		</g>
		<g>
			<title>phqE
short chain dehydrogenase</title>
			<polygon class="phqE
short chain dehydrogenase" points="436,10 462,40 436,70" fill="rgb(255,255,255)" fill-opacity="1.0" stroke="rgb(0,0,0)" stroke-width="2"  />
			<g>
				<title>adh_short_C2 (PF13561)
"Enoyl-(Acyl carrier protein) reductase"</title>
				<polygon class="PF13561" points="438,28 447,28 458,40 447,52 438,52" stroke-linejoin="round" width="24" height="24" fill="rgb(79,221,209)" stroke="rgb(63,176,167)" stroke-width="1" opacity="0.75" />
			</g>
		</g>
		<g>
			<title>phqF
efflux pump</title>
			<polygon class="phqF
efflux pump" points="486,25 515,25 515,10 545,40 515,70 515,55 486,55" fill="rgb(255,255,255)" fill-opacity="1.0" stroke="rgb(0,0,0)" stroke-width="2"  />
			<g>
				<title>TRI12 (PF06609)
"Fungal trichothecene efflux pump (TRI12)"</title>
				<rect class="PF06609" x="494" y="28" stroke-linejoin="round" width="17" height="24" fill="rgb(49,57,180)" stroke="rgb(39,45,144)" stroke-width="1" opacity="0.75" />
			</g>
		</g>
		<g>
			<title>phqG
negative regulator</title>
			<polygon class="phqG
negative regulator" points="602,25 614,25 614,10 644,40 614,70 614,55 602,55" fill="rgb(255,255,255)" fill-opacity="1.0" stroke="rgb(0,0,0)" stroke-width="2"  />
			<g>
				<title>NmrA (PF05368)
"NmrA-like family"</title>
				<rect class="PF05368" x="602" y="28" stroke-linejoin="round" width="25" height="24" fill="rgb(102,214,88)" stroke="rgb(81,171,70)" stroke-width="1" opacity="0.75" />
			</g>
		</g>
		<g>
			<title>phqH
oxidoreductase</title>
			<polygon class="phqH
oxidoreductase" points="732,25 767,25 767,10 797,40 767,70 767,55 732,55" fill="rgb(255,255,255)" fill-opacity="1.0" stroke="rgb(0,0,0)" stroke-width="2"  />
			<g>
				<title>FAD_binding_4 (PF01565)
"FAD binding domain"</title>
				<rect class="PF01565" x="743" y="28" stroke-linejoin="round" width="15" height="24" fill="rgb(194,197,94)" stroke="rgb(155,157,75)" stroke-width="1" opacity="0.75" />
			</g>
			<g>
				<title>BBE (PF08031)
"Berberine and berberine like"</title>
				<polygon class="PF08031" points="784,31 788,35 788,45 784,49" stroke-linejoin="round" width="4" height="24" fill="rgb(56,179,213)" stroke="rgb(44,143,170)" stroke-width="1" opacity="0.75" />
			</g>
		</g>
		<g>
			<title>phqI
prenyltransferase</title>
			<polygon class="phqI
prenyltransferase" points="902,25 886,25 886,10 856,40 886,70 886,55 902,55" fill="rgb(255,255,255)" fill-opacity="1.0" stroke="rgb(0,0,0)" stroke-width="2"  />
			<g>
				<title>Trp_DMAT (PF11991)
"Tryptophan dimethylallyltransferase"</title>
				<polygon class="PF11991" points="863,37 872,28 898,28 898,52 872,52 863,43" stroke-linejoin="round" width="35" height="24" fill="rgb(65,157,207)" stroke="rgb(51,125,165)" stroke-width="1" opacity="0.75" />
			</g>
		</g>
		<g>
			<title>phqJ
prenyltransferase</title>
			<polygon class="phqJ
prenyltransferase" points="980,25 992,25 992,10 1022,40 992,70 992,55 980,55" fill="rgb(255,255,255)" fill-opacity="1.0" stroke="rgb(0,0,0)" stroke-width="2"  />
			<g>
				<title>Trp_DMAT (PF11991)
"Tryptophan dimethylallyltransferase"</title>
				<polygon class="PF11991" points="983,28 1006,28 1016,38 1016,42 1006,52 983,52" stroke-linejoin="round" width="33" height="24" fill="rgb(65,157,207)" stroke="rgb(51,125,165)" stroke-width="1" opacity="0.75" />
			</g>
		</g>
		<g>
			<title>phqK
FAD monooxygenase</title>
			<polygon class="phqK
FAD monooxygenase" points="1107,25 1088,25 1088,10 1058,40 1088,70 1088,55 1107,55" fill="rgb(255,255,255)" fill-opacity="1.0" stroke="rgb(0,0,0)" stroke-width="2"  />
			<g>
				<title>FAD_binding_3 (PF01494)
"FAD binding domain"</title>
				<polygon class="PF01494" points="1070,32 1074,28 1106,28 1106,52 1074,52 1070,48" stroke-linejoin="round" width="36" height="24" fill="rgb(215,66,156)" stroke="rgb(172,52,124)" stroke-width="1" opacity="0.75" />
			</g>
		</g>
		<g>
			<title>phqL
P450 monooxygenase</title>
			<polygon class="phqL
P450 monooxygenase" points="1237,25 1205,25 1205,10 1175,40 1205,70 1205,55 1237,55" fill="rgb(255,255,255)" fill-opacity="1.0" stroke="rgb(0,0,0)" stroke-width="2"  />
			<g>
				<title>p450 (PF00067)
"Cytochrome P450"</title>
				<polygon class="PF00067" points="1181,38 1191,28 1225,28 1225,52 1191,52 1181,42" stroke-linejoin="round" width="44" height="24" fill="rgb(195,210,54)" stroke="rgb(155,168,43)" stroke-width="1" opacity="0.75" />
			</g>
		</g>
		<g>
			<title>phqM
P450 monooxygenase</title>
			<polygon class="phqM
P450 monooxygenase" points="1331,25 1285,25 1285,10 1255,40 1285,70 1285,55 1331,55" fill="rgb(255,255,255)" fill-opacity="1.0" stroke="rgb(0,0,0)" stroke-width="2"  />
			<g>
				<title>p450 (PF00067)
"Cytochrome P450"</title>
				<rect class="PF00067" x="1279" y="28" stroke-linejoin="round" width="45" height="24" fill="rgb(195,210,54)" stroke="rgb(155,168,43)" stroke-width="1" opacity="0.75" />
			</g>
		</g>
		<g>
			<title>phqN
methyltransferase</title>
			<polygon class="phqN
methyltransferase" points="1459,40 1488,10 1488,70" fill="rgb(255,255,255)" fill-opacity="1.0" stroke="rgb(0,0,0)" stroke-width="2"  />
			<g>
				<title>Sterol_MT_C (PF08498)
"Sterol methyltransferase C-terminal"</title>
				<polygon class="PF08498" points="1463,40 1465,38 1465,42" stroke-linejoin="round" width="6" height="24" fill="rgb(210,96,138)" stroke="rgb(168,76,110)" stroke-width="1" opacity="0.75" />
			</g>
			<g>
				<title>Methyltransf_11 (PF08241)
"Methyltransferase domain"</title>
				<polygon class="PF08241" points="1474,29 1475,28 1483,28 1483,52 1475,52 1474,51" stroke-linejoin="round" width="9" height="24" fill="rgb(201,85,64)" stroke="rgb(160,68,51)" stroke-width="1" opacity="0.75" />
			</g>
		</g>
		<g>
			<title>phqO
P450 monooxygenase</title>
			<polygon class="phqO
P450 monooxygenase" points="1544,25 1575,25 1575,10 1605,40 1575,70 1575,55 1544,55" fill="rgb(255,255,255)" fill-opacity="1.0" stroke="rgb(0,0,0)" stroke-width="2"  />
			<g>
				<title>p450 (PF00067)
"Cytochrome P450"</title>
				<rect class="PF00067" x="1558" y="28" stroke-linejoin="round" width="27" height="24" fill="rgb(195,210,54)" stroke="rgb(155,168,43)" stroke-width="1" opacity="0.75" />
			</g>
		</g>
	</g>
</svg>
