<svg version="1.1" baseProfile="full" xmlns="http://www.w3.org/2000/svg" width="369.96666666666664" height="80">
	<g>
		<line x1="10" y1="40.0" x2="359.96666666666664" y2="40.0" style="stroke:rgb(70,70,70); stroke-width:3 "/>
		<g>
			<title>tymA
TymA</title>
			<polygon class="tymA
TymA" points="12,25 77,25 77,10 107,40 77,70 77,55 12,55" fill="rgb(255,255,255)" fill-opacity="1.0" stroke="rgb(0,0,0)" stroke-width="2"  />
			<g>
				<title>AAA_16 (PF13191)
"AAA ATPase domain"</title>
				<rect class="PF13191" x="13" y="28" stroke-linejoin="round" width="16" height="24" fill="rgb(88,106,197)" stroke="rgb(70,84,157)" stroke-width="1" opacity="0.75" />
			</g>
			<g>
				<title>GerE (PF00196)
"Bacterial regulatory proteins, luxR family"</title>
				<polygon class="PF00196" points="100,37 103,40 100,43" stroke-linejoin="round" width="5" height="24" fill="rgb(225,67,110)" stroke="rgb(180,53,88)" stroke-width="1" opacity="0.75" />
			</g>
		</g>
		<g>
			<title>tymM
TymM</title>
			<polygon class="tymM
TymM" points="113,10 136,40 113,70" fill="rgb(255,255,255)" fill-opacity="1.0" stroke="rgb(0,0,0)" stroke-width="2"  />
			<g>
				<title>QueC (PF06508)
"Queuosine biosynthesis protein QueC"</title>
				<polygon class="PF06508" points="114,28 123,28 133,40 123,52 114,52" stroke-linejoin="round" width="20" height="24" fill="rgb(186,127,52)" stroke="rgb(148,101,41)" stroke-width="1" opacity="0.75" />
			</g>
		</g>
		<g>
			<title>tymI
TymI</title>
			<polygon class="tymI
TymI" points="141,40 163,10 163,70" fill="rgb(255,255,255)" fill-opacity="1.0" stroke="rgb(0,0,0)" stroke-width="2"  />
			<g>
				<title>Hydrolase (PF00702)
"haloacid dehalogenase-like hydrolase"</title>
				<polygon class="PF00702" points="145,40 154,28 162,28 162,52 154,52 145,40" stroke-linejoin="round" width="17" height="24" fill="rgb(133,222,86)" stroke="rgb(106,177,68)" stroke-width="1" opacity="0.75" />
			</g>
		</g>
		<g>
			<title>tymH
TymH</title>
			<polygon class="tymH
TymH" points="164,40 180,10 180,70" fill="rgb(255,255,255)" fill-opacity="1.0" stroke="rgb(0,0,0)" stroke-width="2"  />
			<g>
				<title>Pribosyltran (PF00156)
"Phosphoribosyl transferase domain"</title>
				<polygon class="PF00156" points="167,40 174,28 179,28 179,52 174,52" stroke-linejoin="round" width="14" height="24" fill="rgb(60,186,99)" stroke="rgb(48,148,79)" stroke-width="1" opacity="0.75" />
			</g>
		</g>
		<g>
			<title>tymG
TymG</title>
			<polygon class="tymG
TymG" points="216,25 211,25 211,10 181,40 211,70 211,55 216,55" fill="rgb(255,255,255)" fill-opacity="1.0" stroke="rgb(0,0,0)" stroke-width="2"  />
			<g>
				<title>Adenylsucc_synt (PF00709)
"Adenylosuccinate synthetase"</title>
				<polygon class="PF00709" points="187,38 197,28 201,28 201,52 197,52 187,42" stroke-linejoin="round" width="14" height="24" fill="rgb(176,210,71)" stroke="rgb(140,168,56)" stroke-width="1" opacity="0.75" />
			</g>
			<g>
				<title>Adenylsucc_synt (PF00709)
"Adenylosuccinate synthetase"</title>
				<rect class="PF00709" x="201" y="28" stroke-linejoin="round" width="14" height="24" fill="rgb(176,210,71)" stroke="rgb(140,168,56)" stroke-width="1" opacity="0.75" />
			</g>
		</g>
		<g>
			<title>tymF
TymF</title>
			<polygon class="tymF
TymF" points="262,25 246,25 246,10 216,40 246,70 246,55 262,55" fill="rgb(255,255,255)" fill-opacity="1.0" stroke="rgb(0,0,0)" stroke-width="2"  />
			<g>
				<title>ADSL_C (PF10397)
"Adenylosuccinate lyase C-terminus"</title>
				<polygon class="PF10397" points="220,40 225,35 225,45" stroke-linejoin="round" width="7" height="24" fill="rgb(95,182,229)" stroke="rgb(76,145,183)" stroke-width="1" opacity="0.75" />
			</g>
			<g>
				<title>Lyase_1 (PF00206)
"Lyase"</title>
				<polygon class="PF00206" points="232,28 232,28 260,28 260,52 232,52 232,52" stroke-linejoin="round" width="28" height="24" fill="rgb(125,214,85)" stroke="rgb(99,171,68)" stroke-width="1" opacity="0.75" />
			</g>
		</g>
		<g>
			<title>tymE
TymE</title>
			<polygon class="tymE
TymE" points="300,25 292,25 292,10 262,40 292,70 292,55 300,55" fill="rgb(255,255,255)" fill-opacity="1.0" stroke="rgb(0,0,0)" stroke-width="2"  />
			<g>
				<title>IMPDH (PF00478)
"IMP dehydrogenase / GMP reductase domain"</title>
				<polygon class="PF00478" points="266,40 278,28 298,28 298,52 278,52" stroke-linejoin="round" width="35" height="24" fill="rgb(176,64,180)" stroke="rgb(140,51,144)" stroke-width="1" opacity="0.75" />
			</g>
		</g>
		<g>
			<title>tymD
TymD</title>
			<polygon class="tymD
TymD" points="301,40 321,10 321,70" fill="rgb(255,255,255)" fill-opacity="1.0" stroke="rgb(0,0,0)" stroke-width="2"  />
			<g>
				<title>GTP_cyclohydroI (PF01227)
"GTP cyclohydrolase I"</title>
				<polygon class="PF01227" points="305,40 313,28 318,28 318,52 313,52" stroke-linejoin="round" width="17" height="24" fill="rgb(213,170,87)" stroke="rgb(170,136,69)" stroke-width="1" opacity="0.75" />
			</g>
		</g>
		<g>
			<title>tymC
ToyC</title>
			<polygon class="tymC
ToyC" points="322,40 343,10 343,70" fill="rgb(255,255,255)" fill-opacity="1.0" stroke="rgb(0,0,0)" stroke-width="2"  />
			<g>
				<title>Radical_SAM (PF04055)
"Radical SAM superfamily"</title>
				<polygon class="PF04055" points="330,34 334,28 342,28 342,52 334,52 330,46" stroke-linejoin="round" width="12" height="24" fill="rgb(223,193,78)" stroke="rgb(178,154,62)" stroke-width="1" opacity="0.75" />
			</g>
		</g>
		<g>
			<title>tymB
TymB</title>
			<polygon class="tymB
TymB" points="347,40 359,10 359,70" fill="rgb(255,255,255)" fill-opacity="1.0" stroke="rgb(0,0,0)" stroke-width="2"  />
			<g>
				<title>PTPS (PF01242)
"6-pyruvoyl tetrahydropterin synthase"</title>
				<polygon class="PF01242" points="350,40 355,28 358,28 358,52 355,52" stroke-linejoin="round" width="11" height="24" fill="rgb(60,110,179)" stroke="rgb(47,88,143)" stroke-width="1" opacity="0.75" />
			</g>
		</g>
	</g>
</svg>
