<svg version="1.1" baseProfile="full" xmlns="http://www.w3.org/2000/svg" width="575.1" height="80">
	<g>
		<line x1="10" y1="40.0" x2="565.1" y2="40.0" style="stroke:rgb(70,70,70); stroke-width:3 "/>
		<g>
			<title>
collagen-binding protein</title>
			<polygon class="
collagen-binding protein" points="43,25 75,25 75,10 105,40 75,70 75,55 43,55" fill="rgb(255,255,255)" fill-opacity="1.0" stroke="rgb(0,0,0)" stroke-width="2"  />
			<g>
				<title>SpaA (PF17802)
"Prealbumin-like fold domain"</title>
				<rect class="PF17802" x="45" y="28" stroke-linejoin="round" width="6" height="24" fill="rgb(75,132,192)" stroke="rgb(60,105,153)" stroke-width="1" opacity="0.75" />
			</g>
			<g>
				<title>SpaA (PF17802)
"Prealbumin-like fold domain"</title>
				<rect class="PF17802" x="54" y="28" stroke-linejoin="round" width="6" height="24" fill="rgb(75,132,192)" stroke="rgb(60,105,153)" stroke-width="1" opacity="0.75" />
			</g>
			<g>
				<title>SpaA (PF17802)
"Prealbumin-like fold domain"</title>
				<rect class="PF17802" x="64" y="28" stroke-linejoin="round" width="6" height="24" fill="rgb(75,132,192)" stroke="rgb(60,105,153)" stroke-width="1" opacity="0.75" />
			</g>
			<g>
				<title>SpaA (PF17802)
"Prealbumin-like fold domain"</title>
				<rect class="PF17802" x="73" y="28" stroke-linejoin="round" width="6" height="24" fill="rgb(75,132,192)" stroke="rgb(60,105,153)" stroke-width="1" opacity="0.75" />
			</g>
			<g>
				<title>SpaA (PF17802)
"Prealbumin-like fold domain"</title>
				<rect class="PF17802" x="83" y="28" stroke-linejoin="round" width="6" height="24" fill="rgb(75,132,192)" stroke="rgb(60,105,153)" stroke-width="1" opacity="0.75" />
			</g>
			<g>
				<title>SpaA (PF17802)
"Prealbumin-like fold domain"</title>
				<polygon class="PF17802" points="92,31 98,37 98,43 92,49" stroke-linejoin="round" width="6" height="24" fill="rgb(75,132,192)" stroke="rgb(60,105,153)" stroke-width="1" opacity="0.75" />
			</g>
			<g>
				<title>Gram_pos_anchor (PF00746)
"LPXTG cell wall anchor motif"</title>
				<polygon class="PF00746" points="101,40 101,40 101,40" stroke-linejoin="round" width="4" height="24" fill="rgb(73,224,83)" stroke="rgb(58,179,66)" stroke-width="1" opacity="0.75" />
			</g>
		</g>
		<g>
			<title>
putative transcriptional regulator</title>
			<polygon class="
putative transcriptional regulator" points="137,40 156,10 156,70" fill="rgb(255,255,255)" fill-opacity="1.0" stroke="rgb(0,0,0)" stroke-width="2"  />
		</g>
		<g>
			<title>lnqQ
lacticin Q</title>
			<polygon class="lnqQ
lacticin Q" points="171,10 176,40 171,70" fill="rgb(255,255,255)" fill-opacity="1.0" stroke="rgb(0,0,0)" stroke-width="2"  />
			<g>
				<title>Bacteriocin_IIi (PF11758)
"Aureocin-like type II bacteriocin"</title>
				<polygon class="PF11758" points="171,27 173,40 171,53" stroke-linejoin="round" width="5" height="24" fill="rgb(65,193,169)" stroke="rgb(51,154,135)" stroke-width="1" opacity="0.75" />
			</g>
		</g>
		<g>
			<title>
membrane permease protein</title>
			<polygon class="
membrane permease protein" points="179,10 187,40 179,70" fill="rgb(255,255,255)" fill-opacity="1.0" stroke="rgb(0,0,0)" stroke-width="2"  />
		</g>
		<g>
			<title>
membrane-franked domain protein</title>
			<polygon class="
membrane-franked domain protein" points="186,10 202,40 186,70" fill="rgb(255,255,255)" fill-opacity="1.0" stroke="rgb(0,0,0)" stroke-width="2"  />
			<g>
				<title>bPH_2 (PF03703)
"Bacterial PH domain"</title>
				<polygon class="PF03703" points="193,30 198,40 193,50" stroke-linejoin="round" width="7" height="24" fill="rgb(196,78,190)" stroke="rgb(156,62,152)" stroke-width="1" opacity="0.75" />
			</g>
		</g>
		<g>
			<title>
membrane-franked domain protein</title>
			<polygon class="
membrane-franked domain protein" points="202,25 215,25 215,10 245,40 215,70 215,55 202,55" fill="rgb(255,255,255)" fill-opacity="1.0" stroke="rgb(0,0,0)" stroke-width="2"  />
			<g>
				<title>bPH_2 (PF03703)
"Bacterial PH domain"</title>
				<rect class="PF03703" x="208" y="28" stroke-linejoin="round" width="7" height="24" fill="rgb(196,78,190)" stroke="rgb(156,62,152)" stroke-width="1" opacity="0.75" />
			</g>
			<g>
				<title>bPH_2 (PF03703)
"Bacterial PH domain"</title>
				<polygon class="PF03703" points="225,28 229,28 231,30 231,50 229,52 225,52" stroke-linejoin="round" width="6" height="24" fill="rgb(196,78,190)" stroke="rgb(156,62,152)" stroke-width="1" opacity="0.75" />
			</g>
		</g>
		<g>
			<title>
ABC-2 type transporter</title>
			<polygon class="
ABC-2 type transporter" points="245,10 267,40 245,70" fill="rgb(255,255,255)" fill-opacity="1.0" stroke="rgb(0,0,0)" stroke-width="2"  />
		</g>
		<g>
			<title>
ABC transporter, ATP-binding protein</title>
			<polygon class="
ABC transporter, ATP-binding protein" points="270,10 296,40 270,70" fill="rgb(255,255,255)" fill-opacity="1.0" stroke="rgb(0,0,0)" stroke-width="2"  />
			<g>
				<title>ABC_tran (PF00005)
"ABC transporter"</title>
				<polygon class="PF00005" points="270,28 281,28 282,29 282,51 281,52 270,52" stroke-linejoin="round" width="12" height="24" fill="rgb(46,186,108)" stroke="rgb(36,148,86)" stroke-width="1" opacity="0.75" />
			</g>
		</g>
		<g>
			<title>
putative transcriptional regulator</title>
			<polygon class="
putative transcriptional regulator" points="349,40 371,10 371,70" fill="rgb(255,255,255)" fill-opacity="1.0" stroke="rgb(0,0,0)" stroke-width="2"  />
			<g>
				<title>HTH_3 (PF01381)
"Helix-turn-helix"</title>
				<rect class="PF01381" x="365" y="28" stroke-linejoin="round" width="5" height="24" fill="rgb(168,185,81)" stroke="rgb(134,148,64)" stroke-width="1" opacity="0.75" />
			</g>
		</g>
		<g>
			<title>
replication protein</title>
			<polygon class="
replication protein" points="436,25 450,25 450,10 480,40 450,70 450,55 436,55" fill="rgb(255,255,255)" fill-opacity="1.0" stroke="rgb(0,0,0)" stroke-width="2"  />
			<g>
				<title>Rep_2 (PF01719)
"Plasmid replication protein"</title>
				<rect class="PF01719" x="436" y="28" stroke-linejoin="round" width="22" height="24" fill="rgb(57,226,106)" stroke="rgb(45,180,84)" stroke-width="1" opacity="0.75" />
			</g>
			<g>
				<title>RNA_helicase (PF00910)
"RNA helicase"</title>
				<polygon class="PF00910" points="459,28 464,28 468,32 468,48 464,52 459,52" stroke-linejoin="round" width="9" height="24" fill="rgb(191,142,54)" stroke="rgb(152,113,43)" stroke-width="1" opacity="0.75" />
			</g>
		</g>
		<g>
			<title>
DNA integrase/recombinase</title>
			<polygon class="
DNA integrase/recombinase" points="494,25 501,25 501,10 531,40 501,70 501,55 494,55" fill="rgb(255,255,255)" fill-opacity="1.0" stroke="rgb(0,0,0)" stroke-width="2"  />
			<g>
				<title>Phage_integrase (PF00589)
"Phage integrase family"</title>
				<polygon class="PF00589" points="511,28 515,28 527,40 515,52 511,52" stroke-linejoin="round" width="18" height="24" fill="rgb(66,206,122)" stroke="rgb(52,164,97)" stroke-width="1" opacity="0.75" />
			</g>
		</g>
		<g>
			<title>
ATP/GTP binding protein</title>
			<polygon class="
ATP/GTP binding protein" points="533,40 561,10 561,70" fill="rgb(255,255,255)" fill-opacity="1.0" stroke="rgb(0,0,0)" stroke-width="2"  />
			<g>
				<title>SLFN-g3_helicase (PF09848)
"Schlafen group 3, DNA/RNA helicase domain"</title>
				<polygon class="PF09848" points="537,40 548,28 560,28 560,52 548,52" stroke-linejoin="round" width="26" height="24" fill="rgb(131,225,105)" stroke="rgb(104,180,84)" stroke-width="1" opacity="0.75" />
			</g>
		</g>
	</g>
</svg>
