<svg version="1.1" baseProfile="full" xmlns="http://www.w3.org/2000/svg" width="2541.366666666667" height="80">
	<g>
		<line x1="10" y1="40.0" x2="2531.366666666667" y2="40.0" style="stroke:rgb(70,70,70); stroke-width:3 "/>
		<g>
			<title>lom1
Lom1</title>
			<polygon class="lom1
Lom1" points="11,25 33,25 33,10 63,40 33,70 33,55 11,55" fill="rgb(255,255,255)" fill-opacity="1.0" stroke="rgb(0,0,0)" stroke-width="2"  />
			<g>
				<title>MFS_1 (PF07690)
"Major Facilitator Superfamily"</title>
				<polygon class="PF07690" points="13,28 47,28 52,33 52,47 47,52 13,52" stroke-linejoin="round" width="39" height="24" fill="rgb(228,207,98)" stroke="rgb(182,165,78)" stroke-width="1" opacity="0.75" />
			</g>
		</g>
		<g>
			<title>lom2
Lom2</title>
			<polygon class="lom2
Lom2" points="70,10 86,40 70,70" fill="rgb(255,255,255)" fill-opacity="1.0" stroke="rgb(0,0,0)" stroke-width="2"  />
		</g>
		<g>
			<title>lom3
Lom3</title>
			<polygon class="lom3
Lom3" points="92,40 119,10 119,70" fill="rgb(255,255,255)" fill-opacity="1.0" stroke="rgb(0,0,0)" stroke-width="2"  />
			<g>
				<title>ABC2_membrane_4 (PF12730)
"ABC-2 family transporter protein"</title>
				<polygon class="PF12730" points="98,38 107,28 116,28 116,52 107,52 98,42" stroke-linejoin="round" width="18" height="24" fill="rgb(161,62,179)" stroke="rgb(128,49,143)" stroke-width="1" opacity="0.75" />
			</g>
		</g>
		<g>
			<title>lom4
Lom4</title>
			<polygon class="lom4
Lom4" points="150,25 149,25 149,10 119,40 149,70 149,55 150,55" fill="rgb(255,255,255)" fill-opacity="1.0" stroke="rgb(0,0,0)" stroke-width="2"  />
			<g>
				<title>ABC_tran (PF00005)
"ABC transporter"</title>
				<polygon class="PF00005" points="135,28 135,28 148,28 148,52 135,52 135,52" stroke-linejoin="round" width="13" height="24" fill="rgb(46,186,108)" stroke="rgb(36,148,86)" stroke-width="1" opacity="0.75" />
			</g>
		</g>
		<g>
			<title>lom5
Lom5</title>
			<polygon class="lom5
Lom5" points="149,40 166,10 166,70" fill="rgb(255,255,255)" fill-opacity="1.0" stroke="rgb(0,0,0)" stroke-width="2"  />
			<g>
				<title>Glyoxalase (PF00903)
"Glyoxalase/Bleomycin resistance protein/Dioxygenase superfamily"</title>
				<polygon class="PF00903" points="153,38 159,28 165,28 165,52 159,52 153,42" stroke-linejoin="round" width="12" height="24" fill="rgb(139,76,222)" stroke="rgb(111,60,177)" stroke-width="1" opacity="0.75" />
			</g>
		</g>
		<g>
			<title>lom6
Lom6</title>
			<polygon class="lom6
Lom6" points="172,40 197,10 197,70" fill="rgb(255,255,255)" fill-opacity="1.0" stroke="rgb(0,0,0)" stroke-width="2"  />
			<g>
				<title>Abhydrolase_6 (PF12697)
"Alpha/beta hydrolase family"</title>
				<polygon class="PF12697" points="176,40 186,28 195,28 195,52 186,52" stroke-linejoin="round" width="23" height="24" fill="rgb(87,73,196)" stroke="rgb(69,58,156)" stroke-width="1" opacity="0.75" />
			</g>
		</g>
		<g>
			<title>lom7
Lom7</title>
			<polygon class="lom7
Lom7" points="206,40 233,10 233,70" fill="rgb(255,255,255)" fill-opacity="1.0" stroke="rgb(0,0,0)" stroke-width="2"  />
			<g>
				<title>BTAD (PF03704)
"Bacterial transcriptional activator domain"</title>
				<polygon class="PF03704" points="210,40 221,28 222,28 222,52 221,52" stroke-linejoin="round" width="14" height="24" fill="rgb(174,224,58)" stroke="rgb(139,179,46)" stroke-width="1" opacity="0.75" />
			</g>
			<g>
				<title>Trans_reg_C (PF00486)
"Transcriptional regulatory protein, C terminal"</title>
				<rect class="PF00486" x="223" y="28" stroke-linejoin="round" width="7" height="24" fill="rgb(69,185,116)" stroke="rgb(55,148,92)" stroke-width="1" opacity="0.75" />
			</g>
		</g>
		<g>
			<title>lom8
Lom8</title>
			<polygon class="lom8
Lom8" points="259,10 286,40 259,70" fill="rgb(255,255,255)" fill-opacity="1.0" stroke="rgb(0,0,0)" stroke-width="2"  />
			<g>
				<title>HTH_18 (PF12833)
"Helix-turn-helix domain"</title>
				<rect class="PF12833" x="261" y="28" stroke-linejoin="round" width="7" height="24" fill="rgb(96,195,114)" stroke="rgb(76,156,91)" stroke-width="1" opacity="0.75" />
			</g>
		</g>
		<g>
			<title>lom9
Lom9</title>
			<polygon class="lom9
Lom9" points="296,25 312,25 312,10 342,40 312,70 312,55 296,55" fill="rgb(255,255,255)" fill-opacity="1.0" stroke="rgb(0,0,0)" stroke-width="2"  />
			<g>
				<title>Hexose_dehydrat (PF03559)
"NDP-hexose 2,3-dehydratase"</title>
				<rect class="PF03559" x="299" y="28" stroke-linejoin="round" width="20" height="24" fill="rgb(56,139,184)" stroke="rgb(44,111,147)" stroke-width="1" opacity="0.75" />
			</g>
			<g>
				<title>Hexose_dehydrat (PF03559)
"NDP-hexose 2,3-dehydratase"</title>
				<polygon class="PF03559" points="320,28 326,28 338,40 326,52 320,52" stroke-linejoin="round" width="20" height="24" fill="rgb(56,139,184)" stroke="rgb(44,111,147)" stroke-width="1" opacity="0.75" />
			</g>
		</g>
		<g>
			<title>lom10
Lom10</title>
			<polygon class="lom10
Lom10" points="346,40 368,10 368,70" fill="rgb(255,255,255)" fill-opacity="1.0" stroke="rgb(0,0,0)" stroke-width="2"  />
			<g>
				<title>Sulfotransfer_4 (PF17784)
"Sulfotransferase domain"</title>
				<polygon class="PF17784" points="350,40 359,28 367,28 367,52 359,52" stroke-linejoin="round" width="20" height="24" fill="rgb(132,102,209)" stroke="rgb(105,81,167)" stroke-width="1" opacity="0.75" />
			</g>
		</g>
		<g>
			<title>lom11
Lom11</title>
			<polygon class="lom11
Lom11" points="370,40 384,10 384,70" fill="rgb(255,255,255)" fill-opacity="1.0" stroke="rgb(0,0,0)" stroke-width="2"  />
		</g>
		<g>
			<title>lom12
Lom12</title>
			<polygon class="lom12
Lom12" points="382,40 409,10 409,70" fill="rgb(255,255,255)" fill-opacity="1.0" stroke="rgb(0,0,0)" stroke-width="2"  />
			<g>
				<title>Peptidase_C26 (PF07722)
"Peptidase C26"</title>
				<polygon class="PF07722" points="387,39 397,28 408,28 408,52 397,52 387,41" stroke-linejoin="round" width="21" height="24" fill="rgb(214,203,54)" stroke="rgb(171,162,43)" stroke-width="1" opacity="0.75" />
			</g>
		</g>
		<g>
			<title>lom13
Lom13</title>
			<polygon class="lom13
Lom13" points="425,25 454,25 454,10 484,40 454,70 454,55 425,55" fill="rgb(255,255,255)" fill-opacity="1.0" stroke="rgb(0,0,0)" stroke-width="2"  />
			<g>
				<title>FAD_binding_3 (PF01494)
"FAD binding domain"</title>
				<rect class="PF01494" x="425" y="28" stroke-linejoin="round" width="36" height="24" fill="rgb(215,66,156)" stroke="rgb(172,52,124)" stroke-width="1" opacity="0.75" />
			</g>
			<g>
				<title>Rng_hyd_C (PF21274)
"Aromatic-ring hydroxylase, C-terminal"</title>
				<polygon class="PF21274" points="471,32 479,40 471,48" stroke-linejoin="round" width="12" height="24" fill="rgb(153,227,106)" stroke="rgb(122,181,84)" stroke-width="1" opacity="0.75" />
			</g>
		</g>
		<g>
			<title>lom14
Lom14</title>
			<polygon class="lom14
Lom14" points="538,25 520,25 520,10 490,40 520,70 520,55 538,55" fill="rgb(255,255,255)" fill-opacity="1.0" stroke="rgb(0,0,0)" stroke-width="2"  />
			<g>
				<title>Amino_oxidase (PF01593)
"Flavin containing amine oxidoreductase"</title>
				<polygon class="PF01593" points="494,40 506,28 536,28 536,52 506,52" stroke-linejoin="round" width="45" height="24" fill="rgb(95,189,207)" stroke="rgb(76,151,165)" stroke-width="1" opacity="0.75" />
			</g>
		</g>
		<g>
			<title>lom15
Lom15</title>
			<polygon class="lom15
Lom15" points="579,25 573,25 573,10 543,40 573,70 573,55 579,55" fill="rgb(255,255,255)" fill-opacity="1.0" stroke="rgb(0,0,0)" stroke-width="2"  />
			<g>
				<title>ParBc (PF02195)
"ParB/Sulfiredoxin domain"</title>
				<rect class="PF02195" x="567" y="28" stroke-linejoin="round" width="7" height="24" fill="rgb(109,68,205)" stroke="rgb(87,54,164)" stroke-width="1" opacity="0.75" />
			</g>
		</g>
		<g>
			<title>lom16
Lom16</title>
			<polygon class="lom16
Lom16" points="631,25 611,25 611,10 581,40 611,70 611,55 631,55" fill="rgb(255,255,255)" fill-opacity="1.0" stroke="rgb(0,0,0)" stroke-width="2"  />
			<g>
				<title>Rng_hyd_C (PF21274)
"Aromatic-ring hydroxylase, C-terminal"</title>
				<polygon class="PF21274" points="585,40 592,33 592,47" stroke-linejoin="round" width="9" height="24" fill="rgb(153,227,106)" stroke="rgb(122,181,84)" stroke-width="1" opacity="0.75" />
			</g>
			<g>
				<title>FAD_binding_3 (PF01494)
"FAD binding domain"</title>
				<rect class="PF01494" x="598" y="28" stroke-linejoin="round" width="32" height="24" fill="rgb(215,66,156)" stroke="rgb(172,52,124)" stroke-width="1" opacity="0.75" />
			</g>
		</g>
		<g>
			<title>lom17
Lom17</title>
			<polygon class="lom17
Lom17" points="681,25 662,25 662,10 632,40 662,70 662,55 681,55" fill="rgb(255,255,255)" fill-opacity="1.0" stroke="rgb(0,0,0)" stroke-width="2"  />
			<g>
				<title>Rng_hyd_C (PF21274)
"Aromatic-ring hydroxylase, C-terminal"</title>
				<polygon class="PF21274" points="636,40 641,35 641,45" stroke-linejoin="round" width="9" height="24" fill="rgb(153,227,106)" stroke="rgb(122,181,84)" stroke-width="1" opacity="0.75" />
			</g>
			<g>
				<title>FAD_binding_3 (PF01494)
"FAD binding domain"</title>
				<polygon class="PF01494" points="647,29 648,28 680,28 680,52 648,52 647,51" stroke-linejoin="round" width="33" height="24" fill="rgb(215,66,156)" stroke="rgb(172,52,124)" stroke-width="1" opacity="0.75" />
			</g>
		</g>
		<g>
			<title>lom18
Lom18</title>
			<polygon class="lom18
Lom18" points="688,10 712,40 688,70" fill="rgb(255,255,255)" fill-opacity="1.0" stroke="rgb(0,0,0)" stroke-width="2"  />
			<g>
				<title>adh_short (PF00106)
"short chain dehydrogenase"</title>
				<polygon class="PF00106" points="688,28 699,28 708,40 708,40 699,52 688,52" stroke-linejoin="round" width="20" height="24" fill="rgb(128,81,196)" stroke="rgb(102,64,156)" stroke-width="1" opacity="0.75" />
			</g>
		</g>
		<g>
			<title>lom19
Lom19</title>
			<polygon class="lom19
Lom19" points="715,10 744,40 715,70" fill="rgb(255,255,255)" fill-opacity="1.0" stroke="rgb(0,0,0)" stroke-width="2"  />
			<g>
				<title>NmrA (PF05368)
"NmrA-like family"</title>
				<polygon class="PF05368" points="715,28 727,28 737,37 737,43 727,52 715,52" stroke-linejoin="round" width="22" height="24" fill="rgb(102,214,88)" stroke="rgb(81,171,70)" stroke-width="1" opacity="0.75" />
			</g>
		</g>
		<g>
			<title>lom20
Lom20</title>
			<polygon class="lom20
Lom20" points="746,40 766,10 766,70" fill="rgb(255,255,255)" fill-opacity="1.0" stroke="rgb(0,0,0)" stroke-width="2"  />
		</g>
		<g>
			<title>lom21
Lom21</title>
			<polygon class="lom21
Lom21" points="767,40 778,10 778,70" fill="rgb(255,255,255)" fill-opacity="1.0" stroke="rgb(0,0,0)" stroke-width="2"  />
			<g>
				<title>Cyclase_polyket (PF04673)
"Polyketide synthesis cyclase"</title>
				<polygon class="PF04673" points="770,40 774,28 777,28 777,52 774,52" stroke-linejoin="round" width="10" height="24" fill="rgb(97,206,162)" stroke="rgb(77,164,129)" stroke-width="1" opacity="0.75" />
			</g>
		</g>
		<g>
			<title>lom22
Lom22</title>
			<polygon class="lom22
Lom22" points="779,40 805,10 805,70" fill="rgb(255,255,255)" fill-opacity="1.0" stroke="rgb(0,0,0)" stroke-width="2"  />
			<g>
				<title>adh_short (PF00106)
"short chain dehydrogenase"</title>
				<polygon class="PF00106" points="784,39 793,28 803,28 803,52 793,52 784,41" stroke-linejoin="round" width="19" height="24" fill="rgb(128,81,196)" stroke="rgb(102,64,156)" stroke-width="1" opacity="0.75" />
			</g>
		</g>
		<g>
			<title>lom23
Lom23</title>
			<polygon class="lom23
Lom23" points="812,25 816,25 816,10 846,40 816,70 816,55 812,55" fill="rgb(255,255,255)" fill-opacity="1.0" stroke="rgb(0,0,0)" stroke-width="2"  />
			<g>
				<title>Dimerisation2 (PF16864)
"Dimerisation domain"</title>
				<rect class="PF16864" x="813" y="28" stroke-linejoin="round" width="7" height="24" fill="rgb(212,101,199)" stroke="rgb(169,80,159)" stroke-width="1" opacity="0.75" />
			</g>
			<g>
				<title>Methyltransf_2 (PF00891)
"O-methyltransferase domain"</title>
				<polygon class="PF00891" points="823,28 830,28 842,40 830,52 823,52" stroke-linejoin="round" width="20" height="24" fill="rgb(91,124,224)" stroke="rgb(72,99,179)" stroke-width="1" opacity="0.75" />
			</g>
		</g>
		<g>
			<title>lom24
Lom24</title>
			<polygon class="lom24
Lom24" points="848,25 868,25 868,10 898,40 868,70 868,55 848,55" fill="rgb(255,255,255)" fill-opacity="1.0" stroke="rgb(0,0,0)" stroke-width="2"  />
			<g>
				<title>FAD_binding_3 (PF01494)
"FAD binding domain"</title>
				<rect class="PF01494" x="848" y="28" stroke-linejoin="round" width="33" height="24" fill="rgb(215,66,156)" stroke="rgb(172,52,124)" stroke-width="1" opacity="0.75" />
			</g>
			<g>
				<title>Rng_hyd_C (PF21274)
"Aromatic-ring hydroxylase, C-terminal"</title>
				<polygon class="PF21274" points="886,32 894,40 886,48" stroke-linejoin="round" width="10" height="24" fill="rgb(153,227,106)" stroke="rgb(122,181,84)" stroke-width="1" opacity="0.75" />
			</g>
		</g>
		<g>
			<title>lom25
Lom25</title>
			<polygon class="lom25
Lom25" points="899,25 901,25 901,10 931,40 901,70 901,55 899,55" fill="rgb(255,255,255)" fill-opacity="1.0" stroke="rgb(0,0,0)" stroke-width="2"  />
			<g>
				<title>Polyketide_cyc2 (PF10604)
"Polyketide cyclase / dehydrase and lipid transport"</title>
				<rect class="PF10604" x="899" y="28" stroke-linejoin="round" width="14" height="24" fill="rgb(170,214,69)" stroke="rgb(136,171,55)" stroke-width="1" opacity="0.75" />
			</g>
			<g>
				<title>Polyketide_cyc2 (PF10604)
"Polyketide cyclase / dehydrase and lipid transport"</title>
				<polygon class="PF10604" points="914,28 914,28 926,40 914,52 914,52" stroke-linejoin="round" width="15" height="24" fill="rgb(170,214,69)" stroke="rgb(136,171,55)" stroke-width="1" opacity="0.75" />
			</g>
		</g>
		<g>
			<title>lom26
Lom26</title>
			<polygon class="lom26
Lom26" points="931,25 949,25 949,10 979,40 949,70 949,55 931,55" fill="rgb(255,255,255)" fill-opacity="1.0" stroke="rgb(0,0,0)" stroke-width="2"  />
			<g>
				<title>FAD_binding_3 (PF01494)
"FAD binding domain"</title>
				<polygon class="PF01494" points="931,28 962,28 963,29 963,51 962,52 931,52" stroke-linejoin="round" width="32" height="24" fill="rgb(215,66,156)" stroke="rgb(172,52,124)" stroke-width="1" opacity="0.75" />
			</g>
			<g>
				<title>Rng_hyd_C (PF21274)
"Aromatic-ring hydroxylase, C-terminal"</title>
				<polygon class="PF21274" points="969,35 974,40 969,45" stroke-linejoin="round" width="8" height="24" fill="rgb(153,227,106)" stroke="rgb(122,181,84)" stroke-width="1" opacity="0.75" />
			</g>
		</g>
		<g>
			<title>lom27
Lom27</title>
			<polygon class="lom27
Lom27" points="979,25 998,25 998,10 1028,40 998,70 998,55 979,55" fill="rgb(255,255,255)" fill-opacity="1.0" stroke="rgb(0,0,0)" stroke-width="2"  />
			<g>
				<title>FAD_binding_3 (PF01494)
"FAD binding domain"</title>
				<rect class="PF01494" x="979" y="28" stroke-linejoin="round" width="33" height="24" fill="rgb(215,66,156)" stroke="rgb(172,52,124)" stroke-width="1" opacity="0.75" />
			</g>
			<g>
				<title>Rng_hyd_C (PF21274)
"Aromatic-ring hydroxylase, C-terminal"</title>
				<polygon class="PF21274" points="1017,33 1024,40 1017,47" stroke-linejoin="round" width="10" height="24" fill="rgb(153,227,106)" stroke="rgb(122,181,84)" stroke-width="1" opacity="0.75" />
			</g>
		</g>
		<g>
			<title>lom28
Lom28</title>
			<polygon class="lom28
Lom28" points="1030,10 1054,40 1030,70" fill="rgb(255,255,255)" fill-opacity="1.0" stroke="rgb(0,0,0)" stroke-width="2"  />
		</g>
		<g>
			<title>lom29
Lom29</title>
			<polygon class="lom29
Lom29" points="1119,25 1087,25 1087,10 1057,40 1087,70 1087,55 1119,55" fill="rgb(255,255,255)" fill-opacity="1.0" stroke="rgb(0,0,0)" stroke-width="2"  />
		</g>
		<g>
			<title>lom30
Lom30</title>
			<polygon class="lom30
Lom30" points="1119,40 1130,10 1130,70" fill="rgb(255,255,255)" fill-opacity="1.0" stroke="rgb(0,0,0)" stroke-width="2"  />
			<g>
				<title>Fer4_21 (PF14697)
"4Fe-4S dicluster domain"</title>
				<polygon class="PF14697" points="1122,40 1127,28 1127,28 1127,52 1127,52 1122,40" stroke-linejoin="round" width="5" height="24" fill="rgb(92,223,96)" stroke="rgb(73,178,76)" stroke-width="1" opacity="0.75" />
			</g>
		</g>
		<g>
			<title>lom31
Lom31</title>
			<polygon class="lom31
Lom31" points="1133,40 1159,10 1159,70" fill="rgb(255,255,255)" fill-opacity="1.0" stroke="rgb(0,0,0)" stroke-width="2"  />
			<g>
				<title>DUF3050 (PF11251)
"Protein of unknown function (DUF3050)"</title>
				<polygon class="PF11251" points="1137,40 1148,28 1156,28 1156,52 1148,52" stroke-linejoin="round" width="22" height="24" fill="rgb(215,101,158)" stroke="rgb(172,80,126)" stroke-width="1" opacity="0.75" />
			</g>
		</g>
		<g>
			<title>lom32
Lom32</title>
			<polygon class="lom32
Lom32" points="1211,25 1191,25 1191,10 1161,40 1191,70 1191,55 1211,55" fill="rgb(255,255,255)" fill-opacity="1.0" stroke="rgb(0,0,0)" stroke-width="2"  />
			<g>
				<title>Gln-synt_C (PF00120)
"Glutamine synthetase, catalytic domain"</title>
				<polygon class="PF00120" points="1165,40 1177,28 1195,28 1195,52 1177,52" stroke-linejoin="round" width="34" height="24" fill="rgb(185,153,76)" stroke="rgb(148,122,60)" stroke-width="1" opacity="0.75" />
			</g>
		</g>
		<g>
			<title>lom33
Lom33</title>
			<polygon class="lom33
Lom33" points="1258,25 1241,25 1241,10 1211,40 1241,70 1241,55 1258,55" fill="rgb(255,255,255)" fill-opacity="1.0" stroke="rgb(0,0,0)" stroke-width="2"  />
			<g>
				<title>Amidase (PF01425)
"Amidase"</title>
				<polygon class="PF01425" points="1215,40 1227,28 1254,28 1254,52 1227,52" stroke-linejoin="round" width="41" height="24" fill="rgb(194,63,150)" stroke="rgb(155,50,119)" stroke-width="1" opacity="0.75" />
			</g>
		</g>
		<g>
			<title>lom34
Lom34</title>
			<polygon class="lom34
Lom34" points="1267,25 1279,25 1279,10 1309,40 1279,70 1279,55 1267,55" fill="rgb(255,255,255)" fill-opacity="1.0" stroke="rgb(0,0,0)" stroke-width="2"  />
			<g>
				<title>Lyase_1 (PF00206)
"Lyase"</title>
				<polygon class="PF00206" points="1267,28 1293,28 1295,30 1295,50 1293,52 1267,52" stroke-linejoin="round" width="28" height="24" fill="rgb(125,214,85)" stroke="rgb(99,171,68)" stroke-width="1" opacity="0.75" />
			</g>
		</g>
		<g>
			<title>lom35
Lom35</title>
			<polygon class="lom35
Lom35" points="1309,10 1322,40 1309,70" fill="rgb(255,255,255)" fill-opacity="1.0" stroke="rgb(0,0,0)" stroke-width="2"  />
			<g>
				<title>Acetyltransf_10 (PF13673)
"Acetyltransferase (GNAT) domain"</title>
				<polygon class="PF13673" points="1310,28 1313,28 1319,40 1313,52 1310,52" stroke-linejoin="round" width="11" height="24" fill="rgb(80,212,184)" stroke="rgb(64,169,147)" stroke-width="1" opacity="0.75" />
			</g>
		</g>
		<g>
			<title>lom36
Lom36</title>
			<polygon class="lom36
Lom36" points="1367,25 1357,25 1357,10 1327,40 1357,70 1357,55 1367,55" fill="rgb(255,255,255)" fill-opacity="1.0" stroke="rgb(0,0,0)" stroke-width="2"  />
			<g>
				<title>Aminotran_1_2 (PF00155)
"Aminotransferase class I and II"</title>
				<polygon class="PF00155" points="1331,40 1343,28 1363,28 1363,52 1343,52" stroke-linejoin="round" width="35" height="24" fill="rgb(207,146,55)" stroke="rgb(165,116,43)" stroke-width="1" opacity="0.75" />
			</g>
		</g>
		<g>
			<title>lom37
Lom37</title>
			<polygon class="lom37
Lom37" points="1404,25 1397,25 1397,10 1367,40 1397,70 1397,55 1404,55" fill="rgb(255,255,255)" fill-opacity="1.0" stroke="rgb(0,0,0)" stroke-width="2"  />
			<g>
				<title>Methyltransf_25 (PF13649)
"Methyltransferase domain"</title>
				<polygon class="PF13649" points="1374,37 1383,28 1384,28 1384,52 1383,52 1374,43" stroke-linejoin="round" width="10" height="24" fill="rgb(224,103,106)" stroke="rgb(179,82,84)" stroke-width="1" opacity="0.75" />
			</g>
		</g>
		<g>
			<title>lom38
Lom38</title>
			<polygon class="lom38
Lom38" points="1439,25 1435,25 1435,10 1405,40 1435,70 1435,55 1439,55" fill="rgb(255,255,255)" fill-opacity="1.0" stroke="rgb(0,0,0)" stroke-width="2"  />
			<g>
				<title>Iso_dh (PF00180)
"Isocitrate/isopropylmalate dehydrogenase"</title>
				<polygon class="PF00180" points="1409,40 1421,28 1438,28 1438,52 1421,52" stroke-linejoin="round" width="33" height="24" fill="rgb(208,112,63)" stroke="rgb(166,89,50)" stroke-width="1" opacity="0.75" />
			</g>
		</g>
		<g>
			<title>lom39
Lom39</title>
			<polygon class="lom39
Lom39" points="1439,40 1454,10 1454,70" fill="rgb(255,255,255)" fill-opacity="1.0" stroke="rgb(0,0,0)" stroke-width="2"  />
		</g>
		<g>
			<title>lom40
Lom40</title>
			<polygon class="lom40
Lom40" points="1455,40 1475,10 1475,70" fill="rgb(255,255,255)" fill-opacity="1.0" stroke="rgb(0,0,0)" stroke-width="2"  />
			<g>
				<title>Aconitase_C (PF00694)
"Aconitase C-terminal domain"</title>
				<polygon class="PF00694" points="1463,34 1467,28 1474,28 1474,52 1467,52 1463,46" stroke-linejoin="round" width="11" height="24" fill="rgb(93,206,89)" stroke="rgb(74,164,71)" stroke-width="1" opacity="0.75" />
			</g>
		</g>
		<g>
			<title>lom41
Lom41</title>
			<polygon class="lom41
Lom41" points="1522,25 1506,25 1506,10 1476,40 1506,70 1506,55 1522,55" fill="rgb(255,255,255)" fill-opacity="1.0" stroke="rgb(0,0,0)" stroke-width="2"  />
			<g>
				<title>Aconitase (PF00330)
"Aconitase family (aconitate hydratase)"</title>
				<polygon class="PF00330" points="1480,40 1492,28 1521,28 1521,52 1492,52" stroke-linejoin="round" width="44" height="24" fill="rgb(59,203,146)" stroke="rgb(47,162,116)" stroke-width="1" opacity="0.75" />
			</g>
		</g>
		<g>
			<title>lom42
Lom42</title>
			<polygon class="lom42
Lom42" points="1558,25 1552,25 1552,10 1522,40 1552,70 1552,55 1558,55" fill="rgb(255,255,255)" fill-opacity="1.0" stroke="rgb(0,0,0)" stroke-width="2"  />
			<g>
				<title>HMGL-like (PF00682)
"HMGL-like"</title>
				<polygon class="PF00682" points="1533,33 1538,28 1558,28 1558,52 1538,52 1533,47" stroke-linejoin="round" width="25" height="24" fill="rgb(214,84,149)" stroke="rgb(171,67,119)" stroke-width="1" opacity="0.75" />
			</g>
		</g>
		<g>
			<title>lom43
Lom43</title>
			<polygon class="lom43
Lom43" points="1639,25 1610,25 1610,10 1580,40 1610,70 1610,55 1639,55" fill="rgb(255,255,255)" fill-opacity="1.0" stroke="rgb(0,0,0)" stroke-width="2"  />
			<g>
				<title>ABC_tran (PF00005)
"ABC transporter"</title>
				<polygon class="PF00005" points="1587,37 1596,28 1601,28 1601,52 1596,52 1587,43" stroke-linejoin="round" width="14" height="24" fill="rgb(46,186,108)" stroke="rgb(36,148,86)" stroke-width="1" opacity="0.75" />
			</g>
			<g>
				<title>ABC_membrane (PF00664)
"ABC transporter transmembrane region"</title>
				<rect class="PF00664" x="1609" y="28" stroke-linejoin="round" width="27" height="24" fill="rgb(62,71,183)" stroke="rgb(49,56,146)" stroke-width="1" opacity="0.75" />
			</g>
		</g>
		<g>
			<title>lom44
Lom44</title>
			<polygon class="lom44
Lom44" points="1643,40 1653,10 1653,70" fill="rgb(255,255,255)" fill-opacity="1.0" stroke="rgb(0,0,0)" stroke-width="2"  />
			<g>
				<title>Rieske (PF00355)
"Rieske [2Fe-2S] domain"</title>
				<polygon class="PF00355" points="1646,40 1650,28 1652,28 1652,52 1650,52" stroke-linejoin="round" width="8" height="24" fill="rgb(60,75,194)" stroke="rgb(48,60,155)" stroke-width="1" opacity="0.75" />
			</g>
		</g>
		<g>
			<title>lom45
Lom45</title>
			<polygon class="lom45
Lom45" points="1662,10 1675,40 1662,70" fill="rgb(255,255,255)" fill-opacity="1.0" stroke="rgb(0,0,0)" stroke-width="2"  />
			<g>
				<title>Glyoxalase (PF00903)
"Glyoxalase/Bleomycin resistance protein/Dioxygenase superfamily"</title>
				<polygon class="PF00903" points="1662,28 1666,28 1672,40 1666,52 1662,52" stroke-linejoin="round" width="12" height="24" fill="rgb(139,76,222)" stroke="rgb(111,60,177)" stroke-width="1" opacity="0.75" />
			</g>
		</g>
		<g>
			<title>lom46
Lom46</title>
			<polygon class="lom46
Lom46" points="1678,10 1704,40 1678,70" fill="rgb(255,255,255)" fill-opacity="1.0" stroke="rgb(0,0,0)" stroke-width="2"  />
			<g>
				<title>Glyoxalase (PF00903)
"Glyoxalase/Bleomycin resistance protein/Dioxygenase superfamily"</title>
				<rect class="PF00903" x="1678" y="28" stroke-linejoin="round" width="11" height="24" fill="rgb(139,76,222)" stroke="rgb(111,60,177)" stroke-width="1" opacity="0.75" />
			</g>
			<g>
				<title>Glyoxalase (PF00903)
"Glyoxalase/Bleomycin resistance protein/Dioxygenase superfamily"</title>
				<polygon class="PF00903" points="1692,31 1700,40 1692,49" stroke-linejoin="round" width="11" height="24" fill="rgb(139,76,222)" stroke="rgb(111,60,177)" stroke-width="1" opacity="0.75" />
			</g>
		</g>
		<g>
			<title>lom47
Lom47</title>
			<polygon class="lom47
Lom47" points="1759,25 1737,25 1737,10 1707,40 1737,70 1737,55 1759,55" fill="rgb(255,255,255)" fill-opacity="1.0" stroke="rgb(0,0,0)" stroke-width="2"  />
			<g>
				<title>Abhydrolase_4 (PF08386)
"TAP-like protein"</title>
				<polygon class="PF08386" points="1711,40 1718,33 1718,47" stroke-linejoin="round" width="10" height="24" fill="rgb(170,216,69)" stroke="rgb(136,172,55)" stroke-width="1" opacity="0.75" />
			</g>
			<g>
				<title>Abhydrolase_1 (PF00561)
"alpha/beta hydrolase fold"</title>
				<rect class="PF00561" x="1728" y="28" stroke-linejoin="round" width="20" height="24" fill="rgb(99,159,215)" stroke="rgb(79,127,172)" stroke-width="1" opacity="0.75" />
			</g>
		</g>
		<g>
			<title>lom48
Lom48</title>
			<polygon class="lom48
Lom48" points="1799,25 1792,25 1792,10 1762,40 1792,70 1792,55 1799,55" fill="rgb(255,255,255)" fill-opacity="1.0" stroke="rgb(0,0,0)" stroke-width="2"  />
			<g>
				<title>EryCIII-like_C (PF06722)
"Erythromycin biosynthesis protein CIII-like, C-terminal domain"</title>
				<polygon class="PF06722" points="1766,40 1776,30 1776,50" stroke-linejoin="round" width="14" height="24" fill="rgb(48,103,191)" stroke="rgb(38,82,152)" stroke-width="1" opacity="0.75" />
			</g>
			<g>
				<title>EryCIII-like_N (PF21036)
"Erythromycin biosynthesis protein CIII-like, N-terminal domain"</title>
				<polygon class="PF21036" points="1778,28 1778,28 1791,28 1791,52 1778,52 1778,52" stroke-linejoin="round" width="13" height="24" fill="rgb(205,88,112)" stroke="rgb(164,70,89)" stroke-width="1" opacity="0.75" />
			</g>
		</g>
		<g>
			<title>lom49
Lom49</title>
			<polygon class="lom49
Lom49" points="1833,25 1829,25 1829,10 1799,40 1829,70 1829,55 1833,55" fill="rgb(255,255,255)" fill-opacity="1.0" stroke="rgb(0,0,0)" stroke-width="2"  />
			<g>
				<title>Methyltransf_2 (PF00891)
"O-methyltransferase domain"</title>
				<polygon class="PF00891" points="1803,40 1815,28 1822,28 1822,52 1815,52" stroke-linejoin="round" width="20" height="24" fill="rgb(91,124,224)" stroke="rgb(72,99,179)" stroke-width="1" opacity="0.75" />
			</g>
		</g>
		<g>
			<title>lom50
Lom50</title>
			<polygon class="lom50
Lom50" points="1843,25 1843,25 1843,10 1873,40 1843,70 1843,55 1843,55" fill="rgb(255,255,255)" fill-opacity="1.0" stroke="rgb(0,0,0)" stroke-width="2"  />
		</g>
		<g>
			<title>lom51
Lom51</title>
			<polygon class="lom51
Lom51" points="1877,25 1879,25 1879,10 1909,40 1879,70 1879,55 1877,55" fill="rgb(255,255,255)" fill-opacity="1.0" stroke="rgb(0,0,0)" stroke-width="2"  />
			<g>
				<title>Epimerase (PF01370)
"NAD dependent epimerase/dehydratase family"</title>
				<polygon class="PF01370" points="1877,28 1892,28 1900,36 1900,44 1892,52 1877,52" stroke-linejoin="round" width="23" height="24" fill="rgb(215,89,157)" stroke="rgb(172,71,125)" stroke-width="1" opacity="0.75" />
			</g>
		</g>
		<g>
			<title>lom52
Lom52</title>
			<polygon class="lom52
Lom52" points="1910,10 1930,40 1910,70" fill="rgb(255,255,255)" fill-opacity="1.0" stroke="rgb(0,0,0)" stroke-width="2"  />
			<g>
				<title>dTDP_sugar_isom (PF00908)
"dTDP-4-dehydrorhamnose 3,5-epimerase"</title>
				<polygon class="PF00908" points="1910,28 1918,28 1926,40 1918,52 1910,52" stroke-linejoin="round" width="17" height="24" fill="rgb(135,62,227)" stroke="rgb(108,49,181)" stroke-width="1" opacity="0.75" />
			</g>
		</g>
		<g>
			<title>lom53
Lom53</title>
			<polygon class="lom53
Lom53" points="1932,25 1935,25 1935,10 1965,40 1935,70 1935,55 1932,55" fill="rgb(255,255,255)" fill-opacity="1.0" stroke="rgb(0,0,0)" stroke-width="2"  />
			<g>
				<title>GFO_IDH_MocA (PF01408)
"Oxidoreductase family, NAD-binding Rossmann fold"</title>
				<rect class="PF01408" x="1932" y="28" stroke-linejoin="round" width="11" height="24" fill="rgb(53,193,178)" stroke="rgb(42,154,142)" stroke-width="1" opacity="0.75" />
			</g>
			<g>
				<title>GFO_IDH_MocA_C (PF02894)
"Oxidoreductase family, C-terminal alpha/beta domain"</title>
				<polygon class="PF02894" points="1945,28 1949,28 1961,40 1949,52 1945,52" stroke-linejoin="round" width="18" height="24" fill="rgb(89,185,176)" stroke="rgb(71,148,140)" stroke-width="1" opacity="0.75" />
			</g>
		</g>
		<g>
			<title>lom54
Lom54</title>
			<polygon class="lom54
Lom54" points="1966,40 1990,10 1990,70" fill="rgb(255,255,255)" fill-opacity="1.0" stroke="rgb(0,0,0)" stroke-width="2"  />
		</g>
		<g>
			<title>lom55
Lom55</title>
			<polygon class="lom55
Lom55" points="2028,25 2024,25 2024,10 1994,40 2024,70 2024,55 2028,55" fill="rgb(255,255,255)" fill-opacity="1.0" stroke="rgb(0,0,0)" stroke-width="2"  />
			<g>
				<title>EryCIII-like_C (PF06722)
"Erythromycin biosynthesis protein CIII-like, C-terminal domain"</title>
				<polygon class="PF06722" points="1998,40 2008,30 2008,50" stroke-linejoin="round" width="14" height="24" fill="rgb(48,103,191)" stroke="rgb(38,82,152)" stroke-width="1" opacity="0.75" />
			</g>
			<g>
				<title>EryCIII-like_N (PF21036)
"Erythromycin biosynthesis protein CIII-like, N-terminal domain"</title>
				<polygon class="PF21036" points="2010,28 2010,28 2022,28 2022,52 2010,52 2010,52" stroke-linejoin="round" width="12" height="24" fill="rgb(205,88,112)" stroke="rgb(164,70,89)" stroke-width="1" opacity="0.75" />
			</g>
		</g>
		<g>
			<title>lom56
Lom56</title>
			<polygon class="lom56
Lom56" points="2070,25 2060,25 2060,10 2030,40 2060,70 2060,55 2070,55" fill="rgb(255,255,255)" fill-opacity="1.0" stroke="rgb(0,0,0)" stroke-width="2"  />
			<g>
				<title>DegT_DnrJ_EryC1 (PF01041)
"DegT/DnrJ/EryC1/StrS aminotransferase family"</title>
				<polygon class="PF01041" points="2034,40 2046,28 2067,28 2067,52 2046,52" stroke-linejoin="round" width="35" height="24" fill="rgb(228,110,183)" stroke="rgb(182,88,146)" stroke-width="1" opacity="0.75" />
			</g>
		</g>
		<g>
			<title>lom57
Lom57</title>
			<polygon class="lom57
Lom57" points="2076,25 2079,25 2079,10 2109,40 2079,70 2079,55 2076,55" fill="rgb(255,255,255)" fill-opacity="1.0" stroke="rgb(0,0,0)" stroke-width="2"  />
			<g>
				<title>GDP_Man_Dehyd (PF16363)
"GDP-mannose 4,6 dehydratase"</title>
				<polygon class="PF16363" points="2076,28 2093,28 2105,40 2093,52 2076,52" stroke-linejoin="round" width="30" height="24" fill="rgb(50,144,195)" stroke="rgb(40,115,156)" stroke-width="1" opacity="0.75" />
			</g>
		</g>
		<g>
			<title>lom58
Lom58</title>
			<polygon class="lom58
Lom58" points="2109,25 2121,25 2121,10 2151,40 2121,70 2121,55 2109,55" fill="rgb(255,255,255)" fill-opacity="1.0" stroke="rgb(0,0,0)" stroke-width="2"  />
			<g>
				<title>ketoacyl-synt (PF00109)
"Beta-ketoacyl synthase, N-terminal domain"</title>
				<rect class="PF00109" x="2109" y="28" stroke-linejoin="round" width="25" height="24" fill="rgb(74,179,82)" stroke="rgb(59,143,65)" stroke-width="1" opacity="0.75" />
			</g>
			<g>
				<title>Ketoacyl-synt_C (PF02801)
"Beta-ketoacyl synthase, C-terminal domain"</title>
				<polygon class="PF02801" points="2135,28 2135,28 2146,39 2146,41 2135,52 2135,52" stroke-linejoin="round" width="11" height="24" fill="rgb(212,79,72)" stroke="rgb(169,63,57)" stroke-width="1" opacity="0.75" />
			</g>
		</g>
		<g>
			<title>lom59
Lom59</title>
			<polygon class="lom59
Lom59" points="2152,25 2166,25 2166,10 2196,40 2166,70 2166,55 2152,55" fill="rgb(255,255,255)" fill-opacity="1.0" stroke="rgb(0,0,0)" stroke-width="2"  />
			<g>
				<title>ketoacyl-synt (PF00109)
"Beta-ketoacyl synthase, N-terminal domain"</title>
				<rect class="PF00109" x="2152" y="28" stroke-linejoin="round" width="24" height="24" fill="rgb(74,179,82)" stroke="rgb(59,143,65)" stroke-width="1" opacity="0.75" />
			</g>
			<g>
				<title>Ketoacyl-synt_C (PF02801)
"Beta-ketoacyl synthase, C-terminal domain"</title>
				<polygon class="PF02801" points="2177,28 2180,28 2188,36 2188,44 2180,52 2177,52" stroke-linejoin="round" width="11" height="24" fill="rgb(212,79,72)" stroke="rgb(169,63,57)" stroke-width="1" opacity="0.75" />
			</g>
		</g>
		<g>
			<title>lom60
Lom60</title>
			<polygon class="lom60
Lom60" points="2195,10 2203,40 2195,70" fill="rgb(255,255,255)" fill-opacity="1.0" stroke="rgb(0,0,0)" stroke-width="2"  />
		</g>
		<g>
			<title>lom61
Lom61</title>
			<polygon class="lom61
Lom61" points="2202,25 2204,25 2204,10 2234,40 2204,70 2204,55 2202,55" fill="rgb(255,255,255)" fill-opacity="1.0" stroke="rgb(0,0,0)" stroke-width="2"  />
			<g>
				<title>Acyl_transf_1 (PF00698)
"Acyl transferase domain"</title>
				<polygon class="PF00698" points="2203,28 2218,28 2230,40 2218,52 2203,52" stroke-linejoin="round" width="29" height="24" fill="rgb(132,93,193)" stroke="rgb(105,74,154)" stroke-width="1" opacity="0.75" />
			</g>
		</g>
		<g>
			<title>lom62
Lom62</title>
			<polygon class="lom62
Lom62" points="2237,25 2239,25 2239,10 2269,40 2239,70 2239,55 2237,55" fill="rgb(255,255,255)" fill-opacity="1.0" stroke="rgb(0,0,0)" stroke-width="2"  />
			<g>
				<title>LnmK_N_HDF (PF18238)
"LnmK N-terminal Hot Dog Fold domain"</title>
				<polygon class="PF18238" points="2239,28 2253,28 2257,32 2257,48 2253,52 2239,52" stroke-linejoin="round" width="18" height="24" fill="rgb(79,104,207)" stroke="rgb(63,83,165)" stroke-width="1" opacity="0.75" />
			</g>
		</g>
		<g>
			<title>lom63
Lom63</title>
			<polygon class="lom63
Lom63" points="2270,40 2278,10 2278,70" fill="rgb(255,255,255)" fill-opacity="1.0" stroke="rgb(0,0,0)" stroke-width="2"  />
			<g>
				<title>PP-binding (PF00550)
"Phosphopantetheine attachment site"</title>
				<polygon class="PF00550" points="2273,40 2275,33 2275,47" stroke-linejoin="round" width="5" height="24" fill="rgb(181,58,166)" stroke="rgb(144,46,132)" stroke-width="1" opacity="0.75" />
			</g>
		</g>
		<g>
			<title>lom64
Lom64</title>
			<polygon class="lom64
Lom64" points="2285,10 2300,40 2285,70" fill="rgb(255,255,255)" fill-opacity="1.0" stroke="rgb(0,0,0)" stroke-width="2"  />
			<g>
				<title>HTH_18 (PF12833)
"Helix-turn-helix domain"</title>
				<polygon class="PF12833" points="2289,28 2290,28 2296,38 2296,42 2290,52 2289,52" stroke-linejoin="round" width="7" height="24" fill="rgb(96,195,114)" stroke="rgb(76,156,91)" stroke-width="1" opacity="0.75" />
			</g>
		</g>
		<g>
			<title>lom65
Lom65</title>
			<polygon class="lom65
Lom65" points="2306,10 2335,40 2306,70" fill="rgb(255,255,255)" fill-opacity="1.0" stroke="rgb(0,0,0)" stroke-width="2"  />
			<g>
				<title>NTP_transferase (PF00483)
"Nucleotidyl transferase"</title>
				<polygon class="PF00483" points="2306,28 2318,28 2329,39 2329,41 2318,52 2306,52" stroke-linejoin="round" width="23" height="24" fill="rgb(211,145,90)" stroke="rgb(168,116,72)" stroke-width="1" opacity="0.75" />
			</g>
		</g>
	</g>
</svg>
