<svg version="1.1" baseProfile="full" xmlns="http://www.w3.org/2000/svg" width="253.6" height="80">
	<g>
		<line x1="10" y1="40.0" x2="243.6" y2="40.0" style="stroke:rgb(70,70,70); stroke-width:3 "/>
		<g>
			<title>
PurH-like protein</title>
			<polygon class="
PurH-like protein" points="15,25 23,25 23,10 53,40 23,70 23,55 15,55" fill="rgb(255,255,255)" fill-opacity="1.0" stroke="rgb(0,0,0)" stroke-width="2"  />
			<g>
				<title>AICARFT_IMPCHas (PF01808)
"AICARFT/IMPCHase bienzyme"</title>
				<polygon class="PF01808" points="15,28 37,28 46,37 46,43 37,52 15,52" stroke-linejoin="round" width="31" height="24" fill="rgb(72,155,202)" stroke="rgb(57,123,161)" stroke-width="1" opacity="0.75" />
			</g>
		</g>
		<g>
			<title>
possible orphan response regulator</title>
			<polygon class="
possible orphan response regulator" points="56,40 81,10 81,70" fill="rgb(255,255,255)" fill-opacity="1.0" stroke="rgb(0,0,0)" stroke-width="2"  />
			<g>
				<title>LytTR (PF04397)
"LytTr DNA-binding domain"</title>
				<polygon class="PF04397" points="60,40 65,34 65,46" stroke-linejoin="round" width="9" height="24" fill="rgb(228,100,101)" stroke="rgb(182,80,80)" stroke-width="1" opacity="0.75" />
			</g>
		</g>
		<g>
			<title>ublA
UblA</title>
			<polygon class="ublA
UblA" points="91,10 98,40 91,70" fill="rgb(255,255,255)" fill-opacity="1.0" stroke="rgb(0,0,0)" stroke-width="2"  />
			<g>
				<title>Bacteriocin_IId (PF09221)
"Bacteriocin class IId cyclical uberolysin-like"</title>
				<polygon class="PF09221" points="91,28 92,28 95,40 92,52 91,52" stroke-linejoin="round" width="6" height="24" fill="rgb(152,220,71)" stroke="rgb(121,176,56)" stroke-width="1" opacity="0.75" />
			</g>
		</g>
		<g>
			<title>ublB
UblB</title>
			<polygon class="ublB
UblB" points="101,25 124,25 124,10 154,40 124,70 124,55 101,55" fill="rgb(255,255,255)" fill-opacity="1.0" stroke="rgb(0,0,0)" stroke-width="2"  />
		</g>
		<g>
			<title>ublC
UblC</title>
			<polygon class="ublC
UblC" points="154,10 172,40 154,70" fill="rgb(255,255,255)" fill-opacity="1.0" stroke="rgb(0,0,0)" stroke-width="2"  />
			<g>
				<title>SpoIIM (PF01944)
"Stage II sporulation protein M"</title>
				<polygon class="PF01944" points="155,28 161,28 168,40 161,52 155,52" stroke-linejoin="round" width="16" height="24" fill="rgb(210,58,209)" stroke="rgb(168,46,167)" stroke-width="1" opacity="0.75" />
			</g>
		</g>
		<g>
			<title>ublD
UblD</title>
			<polygon class="ublD
UblD" points="172,10 193,40 172,70" fill="rgb(255,255,255)" fill-opacity="1.0" stroke="rgb(0,0,0)" stroke-width="2"  />
			<g>
				<title>ABC_tran (PF00005)
"ABC transporter"</title>
				<polygon class="PF00005" points="174,28 181,28 188,38 188,42 181,52 174,52" stroke-linejoin="round" width="14" height="24" fill="rgb(46,186,108)" stroke="rgb(36,148,86)" stroke-width="1" opacity="0.75" />
			</g>
		</g>
		<g>
			<title>ublE
UblE</title>
			<polygon class="ublE
UblE" points="194,10 202,40 194,70" fill="rgb(255,255,255)" fill-opacity="1.0" stroke="rgb(0,0,0)" stroke-width="2"  />
		</g>
	</g>
</svg>
