<svg version="1.1" baseProfile="full" xmlns="http://www.w3.org/2000/svg" width="2009.8" height="80">
	<g>
		<line x1="10" y1="40.0" x2="1999.8" y2="40.0" style="stroke:rgb(70,70,70); stroke-width:3 "/>
		<g>
			<title> (Strop_2691)
hypothetical protein</title>
			<polygon class=" (Strop_2691)
hypothetical protein" points="10,40 21,10 21,70" fill="rgb(255,255,255)" fill-opacity="1.0" stroke="rgb(0,0,0)" stroke-width="2"  />
		</g>
		<g>
			<title> (Strop_2692)
transcriptional regulator</title>
			<polygon class=" (Strop_2692)
transcriptional regulator" points="24,40 45,10 45,70" fill="rgb(255,255,255)" fill-opacity="1.0" stroke="rgb(0,0,0)" stroke-width="2"  />
			<g>
				<title>MerR_1 (PF13411)
"MerR HTH family regulatory protein"</title>
				<rect class="PF13411" x="38" y="28" stroke-linejoin="round" width="7" height="24" fill="rgb(186,92,57)" stroke="rgb(148,73,45)" stroke-width="1" opacity="0.75" />
			</g>
		</g>
		<g>
			<title> (Strop_2693)
transcriptional regulator, AraC family</title>
			<polygon class=" (Strop_2693)
transcriptional regulator, AraC family" points="61,10 87,40 61,70" fill="rgb(255,255,255)" fill-opacity="1.0" stroke="rgb(0,0,0)" stroke-width="2"  />
			<g>
				<title>HTH_18 (PF12833)
"Helix-turn-helix domain"</title>
				<rect class="PF12833" x="63" y="28" stroke-linejoin="round" width="7" height="24" fill="rgb(96,195,114)" stroke="rgb(76,156,91)" stroke-width="1" opacity="0.75" />
			</g>
		</g>
		<g>
			<title> (Strop_2694)
cytochrome P450</title>
			<polygon class=" (Strop_2694)
cytochrome P450" points="138,25 123,25 123,10 93,40 123,70 123,55 138,55" fill="rgb(255,255,255)" fill-opacity="1.0" stroke="rgb(0,0,0)" stroke-width="2"  />
			<g>
				<title>p450 (PF00067)
"Cytochrome P450"</title>
				<polygon class="PF00067" points="97,40 109,28 136,28 136,52 109,52" stroke-linejoin="round" width="43" height="24" fill="rgb(195,210,54)" stroke="rgb(155,168,43)" stroke-width="1" opacity="0.75" />
			</g>
		</g>
		<g>
			<title> (Strop_2695)
flavin reductase domain protein, FMN-binding</title>
			<polygon class=" (Strop_2695)
flavin reductase domain protein, FMN-binding" points="138,40 155,10 155,70" fill="rgb(255,255,255)" fill-opacity="1.0" stroke="rgb(0,0,0)" stroke-width="2"  />
			<g>
				<title>Flavin_Reduct (PF01613)
"Flavin reductase like domain"</title>
				<polygon class="PF01613" points="141,40 148,28 152,28 152,52 148,52" stroke-linejoin="round" width="14" height="24" fill="rgb(223,100,227)" stroke="rgb(178,80,181)" stroke-width="1" opacity="0.75" />
			</g>
		</g>
		<g>
			<title> (Strop_2696)
hypothetical protein</title>
			<polygon class=" (Strop_2696)
hypothetical protein" points="156,40 171,10 171,70" fill="rgb(255,255,255)" fill-opacity="1.0" stroke="rgb(0,0,0)" stroke-width="2"  />
			<g>
				<title>4HBT_2 (PF13279)
"Thioesterase-like superfamily"</title>
				<polygon class="PF13279" points="159,40 165,28 169,28 169,52 165,52" stroke-linejoin="round" width="12" height="24" fill="rgb(108,104,213)" stroke="rgb(86,83,170)" stroke-width="1" opacity="0.75" />
			</g>
		</g>
		<g>
			<title> (Strop_2697)
beta-ketoacyl synthase</title>
			<polygon class=" (Strop_2697)
beta-ketoacyl synthase" points="364,25 202,25 202,10 172,40 202,70 202,55 364,55" fill="rgb(255,255,255)" fill-opacity="1.0" stroke="rgb(0,0,0)" stroke-width="2"  />
			<g>
				<title>PS-DH (PF14765)
"Polyketide synthase dehydratase N-terminal domain"</title>
				<rect class="PF14765" x="191" y="28" stroke-linejoin="round" width="15" height="24" fill="rgb(189,61,178)" stroke="rgb(151,48,142)" stroke-width="1" opacity="0.75" />
			</g>
			<g>
				<title>PKS_DH_N (PF21089)
"Polyketide synthase dehydratase domain"</title>
				<rect class="PF21089" x="209" y="28" stroke-linejoin="round" width="10" height="24" fill="rgb(67,151,200)" stroke="rgb(53,120,160)" stroke-width="1" opacity="0.75" />
			</g>
			<g>
				<title>KR (PF08659)
"KR domain"</title>
				<rect class="PF08659" x="226" y="28" stroke-linejoin="round" width="18" height="24" fill="rgb(203,145,81)" stroke="rgb(162,116,64)" stroke-width="1" opacity="0.75" />
			</g>
			<g>
				<title>Acyl_transf_1 (PF00698)
"Acyl transferase domain"</title>
				<rect class="PF00698" x="277" y="28" stroke-linejoin="round" width="33" height="24" fill="rgb(132,93,193)" stroke="rgb(105,74,154)" stroke-width="1" opacity="0.75" />
			</g>
			<g>
				<title>Ketoacyl-synt_C (PF02801)
"Beta-ketoacyl synthase, C-terminal domain"</title>
				<rect class="PF02801" x="323" y="28" stroke-linejoin="round" width="11" height="24" fill="rgb(212,79,72)" stroke="rgb(169,63,57)" stroke-width="1" opacity="0.75" />
			</g>
			<g>
				<title>ketoacyl-synt (PF00109)
"Beta-ketoacyl synthase, N-terminal domain"</title>
				<rect class="PF00109" x="335" y="28" stroke-linejoin="round" width="28" height="24" fill="rgb(74,179,82)" stroke="rgb(59,143,65)" stroke-width="1" opacity="0.75" />
			</g>
		</g>
		<g>
			<title> (Strop_2698)
hypothetical protein</title>
			<polygon class=" (Strop_2698)
hypothetical protein" points="396,25 394,25 394,10 364,40 394,70 394,55 396,55" fill="rgb(255,255,255)" fill-opacity="1.0" stroke="rgb(0,0,0)" stroke-width="2"  />
		</g>
		<g>
			<title> (Strop_2699)
ASPIC/UnbV domain protein</title>
			<polygon class=" (Strop_2699)
ASPIC/UnbV domain protein" points="462,25 427,25 427,10 397,40 427,70 427,55 462,55" fill="rgb(255,255,255)" fill-opacity="1.0" stroke="rgb(0,0,0)" stroke-width="2"  />
			<g>
				<title>UnbV_ASPIC (PF07593)
"ASPIC and UnbV"</title>
				<polygon class="PF07593" points="401,40 404,37 404,43" stroke-linejoin="round" width="6" height="24" fill="rgb(208,157,76)" stroke="rgb(166,125,60)" stroke-width="1" opacity="0.75" />
			</g>
			<g>
				<title>FG-GAP_3 (PF13517)
"FG-GAP-like repeat"</title>
				<rect class="PF13517" x="425" y="28" stroke-linejoin="round" width="7" height="24" fill="rgb(193,139,80)" stroke="rgb(154,111,64)" stroke-width="1" opacity="0.75" />
			</g>
		</g>
		<g>
			<title> (Strop_2700)
protein of unknown function DUF1702</title>
			<polygon class=" (Strop_2700)
protein of unknown function DUF1702" points="496,25 493,25 493,10 463,40 493,70 493,55 496,55" fill="rgb(255,255,255)" fill-opacity="1.0" stroke="rgb(0,0,0)" stroke-width="2"  />
			<g>
				<title>DUF1702 (PF08012)
"Protein of unknown function (DUF1702)"</title>
				<polygon class="PF08012" points="467,40 479,28 494,28 494,52 479,52" stroke-linejoin="round" width="31" height="24" fill="rgb(115,74,184)" stroke="rgb(92,59,147)" stroke-width="1" opacity="0.75" />
			</g>
		</g>
		<g>
			<title> (Strop_2701)
protein of unknown function DUF1702</title>
			<polygon class=" (Strop_2701)
protein of unknown function DUF1702" points="534,25 532,25 532,10 502,40 532,70 532,55 534,55" fill="rgb(255,255,255)" fill-opacity="1.0" stroke="rgb(0,0,0)" stroke-width="2"  />
			<g>
				<title>DUF1702 (PF08012)
"Protein of unknown function (DUF1702)"</title>
				<polygon class="PF08012" points="506,40 518,28 533,28 533,52 518,52" stroke-linejoin="round" width="31" height="24" fill="rgb(115,74,184)" stroke="rgb(92,59,147)" stroke-width="1" opacity="0.75" />
			</g>
		</g>
		<g>
			<title> (Strop_2702)
NAD-dependent epimerase/dehydratase</title>
			<polygon class=" (Strop_2702)
NAD-dependent epimerase/dehydratase" points="545,25 550,25 550,10 580,40 550,70 550,55 545,55" fill="rgb(255,255,255)" fill-opacity="1.0" stroke="rgb(0,0,0)" stroke-width="2"  />
			<g>
				<title>Epimerase (PF01370)
"NAD dependent epimerase/dehydratase family"</title>
				<polygon class="PF01370" points="545,28 564,28 567,31 567,49 564,52 545,52" stroke-linejoin="round" width="22" height="24" fill="rgb(215,89,157)" stroke="rgb(172,71,125)" stroke-width="1" opacity="0.75" />
			</g>
		</g>
		<g>
			<title> (Strop_2703)
alkylhydroperoxidase like protein, AhpD family</title>
			<polygon class=" (Strop_2703)
alkylhydroperoxidase like protein, AhpD family" points="614,25 608,25 608,10 578,40 608,70 608,55 614,55" fill="rgb(255,255,255)" fill-opacity="1.0" stroke="rgb(0,0,0)" stroke-width="2"  />
			<g>
				<title>CMD (PF02627)
"Carboxymuconolactone decarboxylase family"</title>
				<rect class="PF02627" x="600" y="28" stroke-linejoin="round" width="8" height="24" fill="rgb(218,62,137)" stroke="rgb(174,49,109)" stroke-width="1" opacity="0.75" />
			</g>
		</g>
		<g>
			<title> (Strop_2704)
glucose-methanol-choline oxidoreductase</title>
			<polygon class=" (Strop_2704)
glucose-methanol-choline oxidoreductase" points="671,25 646,25 646,10 616,40 646,70 646,55 671,55" fill="rgb(255,255,255)" fill-opacity="1.0" stroke="rgb(0,0,0)" stroke-width="2"  />
			<g>
				<title>GMC_oxred_C (PF05199)
"GMC oxidoreductase"</title>
				<polygon class="PF05199" points="620,40 631,29 631,51 620,40" stroke-linejoin="round" width="11" height="24" fill="rgb(206,67,222)" stroke="rgb(164,53,177)" stroke-width="1" opacity="0.75" />
			</g>
			<g>
				<title>GMC_oxred_N (PF00732)
"GMC oxidoreductase"</title>
				<rect class="PF00732" x="643" y="28" stroke-linejoin="round" width="26" height="24" fill="rgb(102,94,198)" stroke="rgb(81,75,158)" stroke-width="1" opacity="0.75" />
			</g>
		</g>
		<g>
			<title> (Strop_2705)
hypothetical protein</title>
			<polygon class=" (Strop_2705)
hypothetical protein" points="671,40 689,10 689,70" fill="rgb(255,255,255)" fill-opacity="1.0" stroke="rgb(0,0,0)" stroke-width="2"  />
			<g>
				<title>DUF5987 (PF19449)
"Family of unknown function (DUF5987)"</title>
				<polygon class="PF19449" points="675,40 683,28 688,28 688,52 683,52" stroke-linejoin="round" width="17" height="24" fill="rgb(171,187,51)" stroke="rgb(136,149,40)" stroke-width="1" opacity="0.75" />
			</g>
		</g>
		<g>
			<title> (Strop_2706)
Wyosine base formation</title>
			<polygon class=" (Strop_2706)
Wyosine base formation" points="704,25 704,25 704,10 734,40 704,70 704,55 704,55" fill="rgb(255,255,255)" fill-opacity="1.0" stroke="rgb(0,0,0)" stroke-width="2"  />
			<g>
				<title>MDMPI_N (PF11716)
"Mycothiol maleylpyruvate isomerase N-terminal domain"</title>
				<polygon class="PF11716" points="708,28 718,28 721,31 721,49 718,52 708,52" stroke-linejoin="round" width="13" height="24" fill="rgb(220,88,208)" stroke="rgb(176,70,166)" stroke-width="1" opacity="0.75" />
			</g>
			<g>
				<title>Wyosine_form (PF08608)
"Wyosine base formation"</title>
				<polygon class="PF08608" points="726,36 730,40 726,44" stroke-linejoin="round" width="5" height="24" fill="rgb(170,212,78)" stroke="rgb(135,169,62)" stroke-width="1" opacity="0.75" />
			</g>
		</g>
		<g>
			<title> (Strop_2707)
hypothetical protein</title>
			<polygon class=" (Strop_2707)
hypothetical protein" points="740,10 760,40 740,70" fill="rgb(255,255,255)" fill-opacity="1.0" stroke="rgb(0,0,0)" stroke-width="2"  />
		</g>
		<g>
			<title> (Strop_2708)
Acyl-CoA dehydrogenase, type 2, C-terminal domain</title>
			<polygon class=" (Strop_2708)
Acyl-CoA dehydrogenase, type 2, C-terminal domain" points="772,25 781,25 781,10 811,40 781,70 781,55 772,55" fill="rgb(255,255,255)" fill-opacity="1.0" stroke="rgb(0,0,0)" stroke-width="2"  />
			<g>
				<title>Acyl-CoA_dh_N (PF02771)
"Acyl-CoA dehydrogenase, N-terminal domain"</title>
				<rect class="PF02771" x="772" y="28" stroke-linejoin="round" width="10" height="24" fill="rgb(104,198,213)" stroke="rgb(83,158,170)" stroke-width="1" opacity="0.75" />
			</g>
			<g>
				<title>Acyl-CoA_dh_2 (PF08028)
"Acyl-CoA dehydrogenase, C-terminal domain"</title>
				<polygon class="PF08028" points="795,29 806,40 795,51" stroke-linejoin="round" width="13" height="24" fill="rgb(61,169,203)" stroke="rgb(48,135,162)" stroke-width="1" opacity="0.75" />
			</g>
		</g>
		<g>
			<title> (Strop_2709)
hypothetical protein</title>
			<polygon class=" (Strop_2709)
hypothetical protein" points="816,10 830,40 816,70" fill="rgb(255,255,255)" fill-opacity="1.0" stroke="rgb(0,0,0)" stroke-width="2"  />
			<g>
				<title>DUF4440 (PF14534)
"Domain of unknown function (DUF4440)"</title>
				<polygon class="PF14534" points="817,28 820,28 826,40 820,52 817,52" stroke-linejoin="round" width="11" height="24" fill="rgb(114,76,182)" stroke="rgb(91,60,145)" stroke-width="1" opacity="0.75" />
			</g>
		</g>
		<g>
			<title> (Strop_2710)
monooxygenase, FAD-binding</title>
			<polygon class=" (Strop_2710)
monooxygenase, FAD-binding" points="831,25 847,25 847,10 877,40 847,70 847,55 831,55" fill="rgb(255,255,255)" fill-opacity="1.0" stroke="rgb(0,0,0)" stroke-width="2"  />
			<g>
				<title>FAD_oxidored (PF12831)
"FAD dependent oxidoreductase"</title>
				<rect class="PF12831" x="831" y="28" stroke-linejoin="round" width="17" height="24" fill="rgb(212,60,124)" stroke="rgb(169,47,99)" stroke-width="1" opacity="0.75" />
			</g>
		</g>
		<g>
			<title> (Strop_2711)
Epoxide hydrolase domain protein</title>
			<polygon class=" (Strop_2711)
Epoxide hydrolase domain protein" points="877,25 885,25 885,10 915,40 885,70 885,55 877,55" fill="rgb(255,255,255)" fill-opacity="1.0" stroke="rgb(0,0,0)" stroke-width="2"  />
			<g>
				<title>EHN (PF06441)
"Epoxide hydrolase N terminus"</title>
				<rect class="PF06441" x="877" y="28" stroke-linejoin="round" width="10" height="24" fill="rgb(213,148,83)" stroke="rgb(170,118,66)" stroke-width="1" opacity="0.75" />
			</g>
		</g>
		<g>
			<title> (Strop_2712)
luciferase family protein</title>
			<polygon class=" (Strop_2712)
luciferase family protein" points="923,25 931,25 931,10 961,40 931,70 931,55 923,55" fill="rgb(255,255,255)" fill-opacity="1.0" stroke="rgb(0,0,0)" stroke-width="2"  />
			<g>
				<title>Bac_luciferase (PF00296)
"Luciferase-like monooxygenase"</title>
				<polygon class="PF00296" points="925,28 945,28 957,40 957,40 945,52 925,52" stroke-linejoin="round" width="32" height="24" fill="rgb(50,200,104)" stroke="rgb(40,160,83)" stroke-width="1" opacity="0.75" />
			</g>
		</g>
		<g>
			<title> (Strop_2713)
4-hydroxyphenylacetate 3-hydroxylase</title>
			<polygon class=" (Strop_2713)
4-hydroxyphenylacetate 3-hydroxylase" points="964,25 985,25 985,10 1015,40 985,70 985,55 964,55" fill="rgb(255,255,255)" fill-opacity="1.0" stroke="rgb(0,0,0)" stroke-width="2"  />
			<g>
				<title>HpaB_N (PF11794)
"4-hydroxyphenylacetate 3-hydroxylase N terminal"</title>
				<rect class="PF11794" x="965" y="28" stroke-linejoin="round" width="26" height="24" fill="rgb(88,90,188)" stroke="rgb(70,71,150)" stroke-width="1" opacity="0.75" />
			</g>
			<g>
				<title>HpaB (PF03241)
"4-hydroxyphenylacetate 3-hydroxylase C terminal"</title>
				<polygon class="PF03241" points="992,28 999,28 1011,40 999,52 992,52" stroke-linejoin="round" width="20" height="24" fill="rgb(127,206,101)" stroke="rgb(101,164,80)" stroke-width="1" opacity="0.75" />
			</g>
		</g>
		<g>
			<title> (Strop_2714)
Sigma-70, region 4 type 2</title>
			<polygon class=" (Strop_2714)
Sigma-70, region 4 type 2" points="1063,25 1050,25 1050,10 1020,40 1050,70 1050,55 1063,55" fill="rgb(255,255,255)" fill-opacity="1.0" stroke="rgb(0,0,0)" stroke-width="2"  />
			<g>
				<title>DUF6596 (PF20239)
"Family of unknown function (DUF6596)"</title>
				<polygon class="PF20239" points="1034,30 1036,28 1044,28 1044,52 1036,52 1034,50" stroke-linejoin="round" width="10" height="24" fill="rgb(87,166,221)" stroke="rgb(69,132,176)" stroke-width="1" opacity="0.75" />
			</g>
			<g>
				<title>Sigma70_r4_2 (PF08281)
"Sigma-70, region 4"</title>
				<rect class="PF08281" x="1046" y="28" stroke-linejoin="round" width="5" height="24" fill="rgb(52,208,187)" stroke="rgb(41,166,149)" stroke-width="1" opacity="0.75" />
			</g>
		</g>
		<g>
			<title> (Strop_2715)
DGPFAETKE family protein</title>
			<polygon class=" (Strop_2715)
DGPFAETKE family protein" points="1063,40 1075,10 1075,70" fill="rgb(255,255,255)" fill-opacity="1.0" stroke="rgb(0,0,0)" stroke-width="2"  />
			<g>
				<title>YCII (PF03795)
"YCII-related domain"</title>
				<polygon class="PF03795" points="1066,40 1071,28 1075,28 1075,52 1071,52" stroke-linejoin="round" width="11" height="24" fill="rgb(98,117,223)" stroke="rgb(78,93,178)" stroke-width="1" opacity="0.75" />
			</g>
		</g>
		<g>
			<title> (Strop_2716)
hypothetical protein</title>
			<polygon class=" (Strop_2716)
hypothetical protein" points="1101,10 1110,40 1101,70" fill="rgb(255,255,255)" fill-opacity="1.0" stroke="rgb(0,0,0)" stroke-width="2"  />
		</g>
		<g>
			<title> (Strop_2717)
hypothetical protein</title>
			<polygon class=" (Strop_2717)
hypothetical protein" points="1111,25 1111,25 1111,10 1141,40 1111,70 1111,55 1111,55" fill="rgb(255,255,255)" fill-opacity="1.0" stroke="rgb(0,0,0)" stroke-width="2"  />
			<g>
				<title>DDE_Tnp_1_4 (PF13701)
"Transposase DDE domain group 1"</title>
				<polygon class="PF13701" points="1111,28 1125,28 1137,40 1125,52 1111,52" stroke-linejoin="round" width="30" height="24" fill="rgb(70,131,180)" stroke="rgb(56,104,144)" stroke-width="1" opacity="0.75" />
			</g>
		</g>
		<g>
			<title> (Strop_2718)
major facilitator superfamily MFS_1</title>
			<polygon class=" (Strop_2718)
major facilitator superfamily MFS_1" points="1209,25 1187,25 1187,10 1157,40 1187,70 1187,55 1209,55" fill="rgb(255,255,255)" fill-opacity="1.0" stroke="rgb(0,0,0)" stroke-width="2"  />
			<g>
				<title>MFS_1 (PF07690)
"Major Facilitator Superfamily"</title>
				<polygon class="PF07690" points="1168,33 1173,28 1207,28 1207,52 1173,52 1168,47" stroke-linejoin="round" width="39" height="24" fill="rgb(228,207,98)" stroke="rgb(182,165,78)" stroke-width="1" opacity="0.75" />
			</g>
		</g>
		<g>
			<title> (Strop_2719)
DGPFAETKE family protein</title>
			<polygon class=" (Strop_2719)
DGPFAETKE family protein" points="1225,10 1237,40 1225,70" fill="rgb(255,255,255)" fill-opacity="1.0" stroke="rgb(0,0,0)" stroke-width="2"  />
			<g>
				<title>YCII (PF03795)
"YCII-related domain"</title>
				<polygon class="PF03795" points="1225,28 1228,28 1233,40 1228,52 1225,52" stroke-linejoin="round" width="11" height="24" fill="rgb(98,117,223)" stroke="rgb(78,93,178)" stroke-width="1" opacity="0.75" />
			</g>
		</g>
		<g>
			<title> (Strop_2720)
Acyl-CoA dehydrogenase, type 2, C-terminal domain</title>
			<polygon class=" (Strop_2720)
Acyl-CoA dehydrogenase, type 2, C-terminal domain" points="1284,25 1273,25 1273,10 1243,40 1273,70 1273,55 1284,55" fill="rgb(255,255,255)" fill-opacity="1.0" stroke="rgb(0,0,0)" stroke-width="2"  />
			<g>
				<title>Acyl-CoA_dh_2 (PF08028)
"Acyl-CoA dehydrogenase, C-terminal domain"</title>
				<polygon class="PF08028" points="1247,40 1258,29 1258,51" stroke-linejoin="round" width="13" height="24" fill="rgb(61,169,203)" stroke="rgb(48,135,162)" stroke-width="1" opacity="0.75" />
			</g>
		</g>
		<g>
			<title> (Strop_2721)
condensation domain protein</title>
			<polygon class=" (Strop_2721)
condensation domain protein" points="1291,25 1305,25 1305,10 1335,40 1305,70 1305,55 1291,55" fill="rgb(255,255,255)" fill-opacity="1.0" stroke="rgb(0,0,0)" stroke-width="2"  />
			<g>
				<title>Condensation (PF00668)
"Condensation domain"</title>
				<polygon class="PF00668" points="1291,28 1319,28 1326,35 1326,45 1319,52 1291,52" stroke-linejoin="round" width="35" height="24" fill="rgb(172,217,60)" stroke="rgb(137,173,47)" stroke-width="1" opacity="0.75" />
			</g>
		</g>
		<g>
			<title> (Strop_2722)
hypothetical protein</title>
			<polygon class=" (Strop_2722)
hypothetical protein" points="1383,25 1369,25 1369,10 1339,40 1369,70 1369,55 1383,55" fill="rgb(255,255,255)" fill-opacity="1.0" stroke="rgb(0,0,0)" stroke-width="2"  />
			<g>
				<title>SBP_bac_8 (PF13416)
"Bacterial extracellular solute-binding protein"</title>
				<polygon class="PF13416" points="1344,39 1355,28 1380,28 1380,52 1355,52 1344,41" stroke-linejoin="round" width="36" height="24" fill="rgb(78,192,95)" stroke="rgb(62,153,75)" stroke-width="1" opacity="0.75" />
			</g>
		</g>
		<g>
			<title> (Strop_2723)
Alcohol dehydrogenase GroES domain protein</title>
			<polygon class=" (Strop_2723)
Alcohol dehydrogenase GroES domain protein" points="1417,25 1414,25 1414,10 1384,40 1414,70 1414,55 1417,55" fill="rgb(255,255,255)" fill-opacity="1.0" stroke="rgb(0,0,0)" stroke-width="2"  />
			<g>
				<title>ADH_zinc_N (PF00107)
"Zinc-binding dehydrogenase"</title>
				<polygon class="PF00107" points="1388,40 1399,29 1399,51" stroke-linejoin="round" width="12" height="24" fill="rgb(79,114,198)" stroke="rgb(63,91,158)" stroke-width="1" opacity="0.75" />
			</g>
			<g>
				<title>ADH_N (PF08240)
"Alcohol dehydrogenase GroES-like domain"</title>
				<rect class="PF08240" x="1403" y="28" stroke-linejoin="round" width="11" height="24" fill="rgb(217,198,105)" stroke="rgb(173,158,84)" stroke-width="1" opacity="0.75" />
			</g>
		</g>
		<g>
			<title> (Strop_2724)
cytochrome P450</title>
			<polygon class=" (Strop_2724)
cytochrome P450" points="1459,25 1448,25 1448,10 1418,40 1448,70 1448,55 1459,55" fill="rgb(255,255,255)" fill-opacity="1.0" stroke="rgb(0,0,0)" stroke-width="2"  />
			<g>
				<title>p450 (PF00067)
"Cytochrome P450"</title>
				<polygon class="PF00067" points="1422,40 1430,32 1430,48" stroke-linejoin="round" width="12" height="24" fill="rgb(195,210,54)" stroke="rgb(155,168,43)" stroke-width="1" opacity="0.75" />
			</g>
		</g>
		<g>
			<title> (Strop_2725)
amino acid adenylation domain</title>
			<polygon class=" (Strop_2725)
amino acid adenylation domain" points="1472,25 1500,25 1500,10 1530,40 1500,70 1500,55 1472,55" fill="rgb(255,255,255)" fill-opacity="1.0" stroke="rgb(0,0,0)" stroke-width="2"  />
			<g>
				<title>AMP-binding (PF00501)
"AMP-binding enzyme"</title>
				<rect class="PF00501" x="1473" y="28" stroke-linejoin="round" width="34" height="24" fill="rgb(189,78,204)" stroke="rgb(151,62,163)" stroke-width="1" opacity="0.75" />
			</g>
			<g>
				<title>AMP-binding_C (PF13193)
"AMP-binding enzyme C-terminal domain"</title>
				<polygon class="PF13193" points="1513,28 1514,28 1520,34 1520,46 1514,52 1513,52" stroke-linejoin="round" width="7" height="24" fill="rgb(195,82,106)" stroke="rgb(156,65,84)" stroke-width="1" opacity="0.75" />
			</g>
			<g>
				<title>PP-binding (PF00550)
"Phosphopantetheine attachment site"</title>
				<polygon class="PF00550" points="1523,37 1526,40 1523,43" stroke-linejoin="round" width="6" height="24" fill="rgb(181,58,166)" stroke="rgb(144,46,132)" stroke-width="1" opacity="0.75" />
			</g>
		</g>
		<g>
			<title> (Strop_2726)
MbtH domain protein</title>
			<polygon class=" (Strop_2726)
MbtH domain protein" points="1531,10 1538,40 1531,70" fill="rgb(255,255,255)" fill-opacity="1.0" stroke="rgb(0,0,0)" stroke-width="2"  />
			<g>
				<title>MbtH (PF03621)
"MbtH-like protein"</title>
				<polygon class="PF03621" points="1531,28 1531,28 1534,40 1531,52 1531,52" stroke-linejoin="round" width="5" height="24" fill="rgb(102,212,116)" stroke="rgb(81,169,92)" stroke-width="1" opacity="0.75" />
			</g>
		</g>
		<g>
			<title> (Strop_2727)
4-hydroxyphenylpyruvate dioxygenase</title>
			<polygon class=" (Strop_2727)
4-hydroxyphenylpyruvate dioxygenase" points="1539,25 1544,25 1544,10 1574,40 1544,70 1544,55 1539,55" fill="rgb(255,255,255)" fill-opacity="1.0" stroke="rgb(0,0,0)" stroke-width="2"  />
			<g>
				<title>Glyoxalase (PF00903)
"Glyoxalase/Bleomycin resistance protein/Dioxygenase superfamily"</title>
				<rect class="PF00903" x="1540" y="28" stroke-linejoin="round" width="13" height="24" fill="rgb(139,76,222)" stroke="rgb(111,60,177)" stroke-width="1" opacity="0.75" />
			</g>
			<g>
				<title>Glyoxalase (PF00903)
"Glyoxalase/Bleomycin resistance protein/Dioxygenase superfamily"</title>
				<polygon class="PF00903" points="1555,28 1558,28 1569,39 1569,41 1558,52 1555,52" stroke-linejoin="round" width="14" height="24" fill="rgb(139,76,222)" stroke="rgb(111,60,177)" stroke-width="1" opacity="0.75" />
			</g>
		</g>
		<g>
			<title> (Strop_2728)
hypothetical protein</title>
			<polygon class=" (Strop_2728)
hypothetical protein" points="1575,25 1575,25 1575,10 1605,40 1575,70 1575,55 1575,55" fill="rgb(255,255,255)" fill-opacity="1.0" stroke="rgb(0,0,0)" stroke-width="2"  />
			<g>
				<title>Methyltransf_24 (PF13578)
"Methyltransferase domain"</title>
				<polygon class="PF13578" points="1581,28 1588,28 1596,36 1596,44 1588,52 1581,52" stroke-linejoin="round" width="15" height="24" fill="rgb(197,61,215)" stroke="rgb(157,48,172)" stroke-width="1" opacity="0.75" />
			</g>
		</g>
		<g>
			<title> (Strop_2729)
hypothetical protein</title>
			<polygon class=" (Strop_2729)
hypothetical protein" points="1616,10 1625,40 1616,70" fill="rgb(255,255,255)" fill-opacity="1.0" stroke="rgb(0,0,0)" stroke-width="2"  />
			<g>
				<title>HTH_32 (PF13565)
"Homeodomain-like domain"</title>
				<polygon class="PF13565" points="1616,28 1618,28 1622,40 1618,52 1616,52" stroke-linejoin="round" width="7" height="24" fill="rgb(65,198,121)" stroke="rgb(52,158,96)" stroke-width="1" opacity="0.75" />
			</g>
		</g>
		<g>
			<title> (Strop_2730)
hypothetical protein</title>
			<polygon class=" (Strop_2730)
hypothetical protein" points="1627,10 1645,40 1627,70" fill="rgb(255,255,255)" fill-opacity="1.0" stroke="rgb(0,0,0)" stroke-width="2"  />
			<g>
				<title>DDE_3 (PF13358)
"DDE superfamily endonuclease"</title>
				<polygon class="PF13358" points="1627,28 1634,28 1641,39 1641,41 1634,52 1627,52" stroke-linejoin="round" width="14" height="24" fill="rgb(84,129,212)" stroke="rgb(67,103,169)" stroke-width="1" opacity="0.75" />
			</g>
		</g>
		<g>
			<title> (Strop_2731)
FAD linked oxidase domain protein</title>
			<polygon class=" (Strop_2731)
FAD linked oxidase domain protein" points="1708,25 1691,25 1691,10 1661,40 1691,70 1691,55 1708,55" fill="rgb(255,255,255)" fill-opacity="1.0" stroke="rgb(0,0,0)" stroke-width="2"  />
			<g>
				<title>BBE (PF08031)
"Berberine and berberine like"</title>
				<polygon class="PF08031" points="1665,40 1666,39 1666,41" stroke-linejoin="round" width="4" height="24" fill="rgb(56,179,213)" stroke="rgb(44,143,170)" stroke-width="1" opacity="0.75" />
			</g>
			<g>
				<title>FAD_binding_4 (PF01565)
"FAD binding domain"</title>
				<rect class="PF01565" x="1689" y="28" stroke-linejoin="round" width="13" height="24" fill="rgb(194,197,94)" stroke="rgb(155,157,75)" stroke-width="1" opacity="0.75" />
			</g>
		</g>
		<g>
			<title> (Strop_2732)
hypothetical protein</title>
			<polygon class=" (Strop_2732)
hypothetical protein" points="1711,25 1716,25 1716,10 1746,40 1716,70 1716,55 1711,55" fill="rgb(255,255,255)" fill-opacity="1.0" stroke="rgb(0,0,0)" stroke-width="2"  />
			<g>
				<title>DUF2306 (PF10067)
"Predicted membrane protein (DUF2306)"</title>
				<polygon class="PF10067" points="1729,28 1730,28 1742,40 1730,52 1729,52" stroke-linejoin="round" width="14" height="24" fill="rgb(187,169,79)" stroke="rgb(149,135,63)" stroke-width="1" opacity="0.75" />
			</g>
		</g>
		<g>
			<title> (Strop_2733)
Methyltransferase type 11</title>
			<polygon class=" (Strop_2733)
Methyltransferase type 11" points="1747,25 1767,25 1767,10 1797,40 1767,70 1767,55 1747,55" fill="rgb(255,255,255)" fill-opacity="1.0" stroke="rgb(0,0,0)" stroke-width="2"  />
			<g>
				<title>Methyltransf_25 (PF13649)
"Methyltransferase domain"</title>
				<polygon class="PF13649" points="1781,28 1781,28 1790,37 1790,43 1781,52 1781,52" stroke-linejoin="round" width="9" height="24" fill="rgb(224,103,106)" stroke="rgb(179,82,84)" stroke-width="1" opacity="0.75" />
			</g>
		</g>
		<g>
			<title> (Strop_2734)
hypothetical protein</title>
			<polygon class=" (Strop_2734)
hypothetical protein" points="1800,10 1808,40 1800,70" fill="rgb(255,255,255)" fill-opacity="1.0" stroke="rgb(0,0,0)" stroke-width="2"  />
		</g>
		<g>
			<title> (Strop_2735)
major facilitator superfamily MFS_1</title>
			<polygon class=" (Strop_2735)
major facilitator superfamily MFS_1" points="1861,25 1843,25 1843,10 1813,40 1843,70 1843,55 1861,55" fill="rgb(255,255,255)" fill-opacity="1.0" stroke="rgb(0,0,0)" stroke-width="2"  />
			<g>
				<title>MFS_1 (PF07690)
"Major Facilitator Superfamily"</title>
				<polygon class="PF07690" points="1820,37 1829,28 1859,28 1859,52 1829,52 1820,43" stroke-linejoin="round" width="39" height="24" fill="rgb(228,207,98)" stroke="rgb(182,165,78)" stroke-width="1" opacity="0.75" />
			</g>
		</g>
		<g>
			<title> (Strop_2736)
protein of unknown function DUF899, thioredoxin family protein</title>
			<polygon class=" (Strop_2736)
protein of unknown function DUF899, thioredoxin family protein" points="1862,40 1884,10 1884,70" fill="rgb(255,255,255)" fill-opacity="1.0" stroke="rgb(0,0,0)" stroke-width="2"  />
			<g>
				<title>DUF899 (PF05988)
"Bacterial protein of unknown function (DUF899)"</title>
				<polygon class="PF05988" points="1866,40 1875,28 1883,28 1883,52 1875,52" stroke-linejoin="round" width="21" height="24" fill="rgb(222,87,182)" stroke="rgb(177,69,145)" stroke-width="1" opacity="0.75" />
			</g>
		</g>
		<g>
			<title> (Strop_2737)
transcriptional activator domain</title>
			<polygon class=" (Strop_2737)
transcriptional activator domain" points="1889,25 1969,25 1969,10 1999,40 1969,70 1969,55 1889,55" fill="rgb(255,255,255)" fill-opacity="1.0" stroke="rgb(0,0,0)" stroke-width="2"  />
			<g>
				<title>Trans_reg_C (PF00486)
"Transcriptional regulatory protein, C terminal"</title>
				<rect class="PF00486" x="1891" y="28" stroke-linejoin="round" width="7" height="24" fill="rgb(69,185,116)" stroke="rgb(55,148,92)" stroke-width="1" opacity="0.75" />
			</g>
			<g>
				<title>BTAD (PF03704)
"Bacterial transcriptional activator domain"</title>
				<rect class="PF03704" x="1899" y="28" stroke-linejoin="round" width="14" height="24" fill="rgb(174,224,58)" stroke="rgb(139,179,46)" stroke-width="1" opacity="0.75" />
			</g>
			<g>
				<title>TPR_12 (PF13424)
"Tetratricopeptide repeat"</title>
				<rect class="PF13424" x="1973" y="28" stroke-linejoin="round" width="6" height="24" fill="rgb(55,182,155)" stroke="rgb(44,145,124)" stroke-width="1" opacity="0.75" />
			</g>
		</g>
	</g>
</svg>
