<svg version="1.1" baseProfile="full" xmlns="http://www.w3.org/2000/svg" width="565.5333333333333" height="80">
	<g>
		<line x1="10" y1="40.0" x2="555.5333333333333" y2="40.0" style="stroke:rgb(70,70,70); stroke-width:3 "/>
		<g>
			<title>
hypothetical protein</title>
			<polygon class="
hypothetical protein" points="111,25 101,25 101,10 71,40 101,70 101,55 111,55" fill="rgb(255,255,255)" fill-opacity="1.0" stroke="rgb(0,0,0)" stroke-width="2"  />
			<g>
				<title>MFS_1 (PF07690)
"Major Facilitator Superfamily"</title>
				<polygon class="PF07690" points="82,33 87,28 108,28 108,52 87,52 82,47" stroke-linejoin="round" width="26" height="24" fill="rgb(228,207,98)" stroke="rgb(182,165,78)" stroke-width="1" opacity="0.75" />
			</g>
		</g>
		<g>
			<title>hatC
ATP-binding protein</title>
			<polygon class="hatC
ATP-binding protein" points="115,10 140,40 115,70" fill="rgb(255,255,255)" fill-opacity="1.0" stroke="rgb(0,0,0)" stroke-width="2"  />
			<g>
				<title>ABC_tran (PF00005)
"ABC transporter"</title>
				<polygon class="PF00005" points="116,28 126,28 130,33 130,47 126,52 116,52" stroke-linejoin="round" width="14" height="24" fill="rgb(46,186,108)" stroke="rgb(36,148,86)" stroke-width="1" opacity="0.75" />
			</g>
		</g>
		<g>
			<title>hatD
periplasmic binding protein</title>
			<polygon class="hatD
periplasmic binding protein" points="141,25 141,25 141,10 171,40 141,70 141,55 141,55" fill="rgb(255,255,255)" fill-opacity="1.0" stroke="rgb(0,0,0)" stroke-width="2"  />
			<g>
				<title>Peripla_BP_2 (PF01497)
"Periplasmic binding protein"</title>
				<polygon class="PF01497" points="144,28 154,28 166,40 154,52 144,52" stroke-linejoin="round" width="23" height="24" fill="rgb(78,169,221)" stroke="rgb(62,135,176)" stroke-width="1" opacity="0.75" />
			</g>
		</g>
		<g>
			<title>hatB
membrane permease</title>
			<polygon class="hatB
membrane permease" points="171,25 207,25 207,10 237,40 207,70 207,55 171,55" fill="rgb(255,255,255)" fill-opacity="1.0" stroke="rgb(0,0,0)" stroke-width="2"  />
			<g>
				<title>FecCD (PF01032)
"FecCD transport family"</title>
				<rect class="PF01032" x="173" y="28" stroke-linejoin="round" width="31" height="24" fill="rgb(82,200,99)" stroke="rgb(65,160,79)" stroke-width="1" opacity="0.75" />
			</g>
			<g>
				<title>FecCD (PF01032)
"FecCD transport family"</title>
				<polygon class="PF01032" points="206,28 221,28 233,40 221,52 206,52" stroke-linejoin="round" width="30" height="24" fill="rgb(82,200,99)" stroke="rgb(65,160,79)" stroke-width="1" opacity="0.75" />
			</g>
		</g>
		<g>
			<title>iucA
aerobactin synthetase</title>
			<polygon class="iucA
aerobactin synthetase" points="242,25 273,25 273,10 303,40 273,70 273,55 242,55" fill="rgb(255,255,255)" fill-opacity="1.0" stroke="rgb(0,0,0)" stroke-width="2"  />
			<g>
				<title>IucA_IucC (PF04183)
"IucA / IucC family"</title>
				<rect class="PF04183" x="256" y="28" stroke-linejoin="round" width="14" height="24" fill="rgb(106,227,58)" stroke="rgb(84,181,46)" stroke-width="1" opacity="0.75" />
			</g>
			<g>
				<title>IucA_IucC (PF04183)
"IucA / IucC family"</title>
				<rect class="PF04183" x="271" y="28" stroke-linejoin="round" width="9" height="24" fill="rgb(106,227,58)" stroke="rgb(84,181,46)" stroke-width="1" opacity="0.75" />
			</g>
			<g>
				<title>FhuF (PF06276)
"Ferric iron reductase FhuF-like transporter"</title>
				<polygon class="PF06276" points="283,28 286,28 298,40 286,52 283,52" stroke-linejoin="round" width="16" height="24" fill="rgb(88,189,147)" stroke="rgb(70,151,117)" stroke-width="1" opacity="0.75" />
			</g>
		</g>
		<g>
			<title>iucB
N6-hydroxylysine acetyltransferase</title>
			<polygon class="iucB
N6-hydroxylysine acetyltransferase" points="303,25 304,25 304,10 334,40 304,70 304,55 303,55" fill="rgb(255,255,255)" fill-opacity="1.0" stroke="rgb(0,0,0)" stroke-width="2"  />
			<g>
				<title>Acetyltransf_8 (PF13523)
"Acetyltransferase (GNAT) domain"</title>
				<polygon class="PF13523" points="317,28 318,28 330,40 318,52 317,52" stroke-linejoin="round" width="14" height="24" fill="rgb(73,197,73)" stroke="rgb(58,157,58)" stroke-width="1" opacity="0.75" />
			</g>
		</g>
		<g>
			<title>iucC
aerobactin synthetase</title>
			<polygon class="iucC
aerobactin synthetase" points="334,25 362,25 362,10 392,40 362,70 362,55 334,55" fill="rgb(255,255,255)" fill-opacity="1.0" stroke="rgb(0,0,0)" stroke-width="2"  />
			<g>
				<title>IucA_IucC (PF04183)
"IucA / IucC family"</title>
				<rect class="PF04183" x="347" y="28" stroke-linejoin="round" width="25" height="24" fill="rgb(106,227,58)" stroke="rgb(84,181,46)" stroke-width="1" opacity="0.75" />
			</g>
			<g>
				<title>FhuF (PF06276)
"Ferric iron reductase FhuF-like transporter"</title>
				<polygon class="PF06276" points="374,28 376,28 388,40 376,52 374,52" stroke-linejoin="round" width="16" height="24" fill="rgb(88,189,147)" stroke="rgb(70,151,117)" stroke-width="1" opacity="0.75" />
			</g>
		</g>
		<g>
			<title>iucD
lysine N6-monooxygenase</title>
			<polygon class="iucD
lysine N6-monooxygenase" points="393,25 406,25 406,10 436,40 406,70 406,55 393,55" fill="rgb(255,255,255)" fill-opacity="1.0" stroke="rgb(0,0,0)" stroke-width="2"  />
			<g>
				<title>Lys_Orn_oxgnase (PF13434)
"L-lysine 6-monooxygenase/L-ornithine 5-monooxygenase"</title>
				<polygon class="PF13434" points="393,28 420,28 426,34 426,46 420,52 393,52" stroke-linejoin="round" width="33" height="24" fill="rgb(99,202,176)" stroke="rgb(79,161,140)" stroke-width="1" opacity="0.75" />
			</g>
		</g>
		<g>
			<title>iutA
ferric aerobactin receptor</title>
			<polygon class="iutA
ferric aerobactin receptor" points="466,25 510,25 510,10 540,40 510,70 510,55 466,55" fill="rgb(255,255,255)" fill-opacity="1.0" stroke="rgb(0,0,0)" stroke-width="2"  />
			<g>
				<title>Plug (PF07715)
"TonB-dependent Receptor Plug Domain"</title>
				<rect class="PF07715" x="471" y="28" stroke-linejoin="round" width="10" height="24" fill="rgb(66,186,52)" stroke="rgb(52,148,41)" stroke-width="1" opacity="0.75" />
			</g>
			<g>
				<title>TonB_dep_Rec (PF00593)
"TonB dependent receptor"</title>
				<polygon class="PF00593" points="490,28 524,28 536,40 536,40 524,52 490,52" stroke-linejoin="round" width="46" height="24" fill="rgb(67,93,202)" stroke="rgb(53,74,161)" stroke-width="1" opacity="0.75" />
			</g>
		</g>
	</g>
</svg>
