<svg version="1.1" baseProfile="full" xmlns="http://www.w3.org/2000/svg" width="646.9666666666667" height="80">
	<g>
		<line x1="10" y1="40.0" x2="636.9666666666667" y2="40.0" style="stroke:rgb(70,70,70); stroke-width:3 "/>
		<g>
			<title>paxG
PaxG</title>
			<polygon class="paxG
PaxG" points="53,25 40,25 40,10 10,40 40,70 40,55 53,55" fill="rgb(255,255,255)" fill-opacity="1.0" stroke="rgb(0,0,0)" stroke-width="2"  />
			<g>
				<title>polyprenyl_synt (PF00348)
"Polyprenyl synthetase"</title>
				<polygon class="PF00348" points="21,33 26,28 45,28 45,52 26,52 21,47" stroke-linejoin="round" width="24" height="24" fill="rgb(216,200,102)" stroke="rgb(172,160,81)" stroke-width="1" opacity="0.75" />
			</g>
		</g>
		<g>
			<title>paxA
PaxA</title>
			<polygon class="paxA
PaxA" points="108,25 101,25 101,10 71,40 101,70 101,55 108,55" fill="rgb(255,255,255)" fill-opacity="1.0" stroke="rgb(0,0,0)" stroke-width="2"  />
		</g>
		<g>
			<title>paxM
PaxM</title>
			<polygon class="paxM
PaxM" points="184,25 163,25 163,10 133,40 163,70 163,55 184,55" fill="rgb(255,255,255)" fill-opacity="1.0" stroke="rgb(0,0,0)" stroke-width="2"  />
			<g>
				<title>FAD_binding_3 (PF01494)
"FAD binding domain"</title>
				<rect class="PF01494" x="150" y="28" stroke-linejoin="round" width="33" height="24" fill="rgb(215,66,156)" stroke="rgb(172,52,124)" stroke-width="1" opacity="0.75" />
			</g>
		</g>
		<g>
			<title>paxB
PaxB</title>
			<polygon class="paxB
PaxB" points="201,40 228,10 228,70" fill="rgb(255,255,255)" fill-opacity="1.0" stroke="rgb(0,0,0)" stroke-width="2"  />
		</g>
		<g>
			<title>paxC
PaxC</title>
			<polygon class="paxC
PaxC" points="264,25 269,25 269,10 299,40 269,70 269,55 264,55" fill="rgb(255,255,255)" fill-opacity="1.0" stroke="rgb(0,0,0)" stroke-width="2"  />
			<g>
				<title>polyprenyl_synt (PF00348)
"Polyprenyl synthetase"</title>
				<polygon class="PF00348" points="267,28 283,28 292,37 292,43 283,52 267,52" stroke-linejoin="round" width="25" height="24" fill="rgb(216,200,102)" stroke="rgb(172,160,81)" stroke-width="1" opacity="0.75" />
			</g>
		</g>
		<g>
			<title>paxP
PaxP</title>
			<polygon class="paxP
PaxP" points="379,25 348,25 348,10 318,40 348,70 348,55 379,55" fill="rgb(255,255,255)" fill-opacity="1.0" stroke="rgb(0,0,0)" stroke-width="2"  />
			<g>
				<title>p450 (PF00067)
"Cytochrome P450"</title>
				<polygon class="PF00067" points="329,33 334,28 369,28 369,52 334,52 329,47" stroke-linejoin="round" width="40" height="24" fill="rgb(195,210,54)" stroke="rgb(155,168,43)" stroke-width="1" opacity="0.75" />
			</g>
		</g>
		<g>
			<title>paxQ
PaxQ</title>
			<polygon class="paxQ
PaxQ" points="528,25 489,25 489,10 459,40 489,70 489,55 528,55" fill="rgb(255,255,255)" fill-opacity="1.0" stroke="rgb(0,0,0)" stroke-width="2"  />
			<g>
				<title>p450 (PF00067)
"Cytochrome P450"</title>
				<rect class="PF00067" x="478" y="28" stroke-linejoin="round" width="37" height="24" fill="rgb(195,210,54)" stroke="rgb(155,168,43)" stroke-width="1" opacity="0.75" />
			</g>
		</g>
		<g>
			<title>paxD
PaxD</title>
			<polygon class="paxD
PaxD" points="636,25 620,25 620,10 590,40 620,70 620,55 636,55" fill="rgb(255,255,255)" fill-opacity="1.0" stroke="rgb(0,0,0)" stroke-width="2"  />
			<g>
				<title>Trp_DMAT (PF11991)
"Tryptophan dimethylallyltransferase"</title>
				<polygon class="PF11991" points="598,36 606,28 634,28 634,52 606,52 598,44" stroke-linejoin="round" width="36" height="24" fill="rgb(65,157,207)" stroke="rgb(51,125,165)" stroke-width="1" opacity="0.75" />
			</g>
		</g>
	</g>
</svg>
