<svg version="1.1" baseProfile="full" xmlns="http://www.w3.org/2000/svg" width="1853.3333333333333" height="80">
	<g>
		<line x1="10" y1="40.0" x2="1843.3333333333333" y2="40.0" style="stroke:rgb(70,70,70); stroke-width:3 "/>
		<g>
			<title>
unknown</title>
			<polygon class="
unknown" points="20,25 31,25 31,10 61,40 31,70 31,55 20,55" fill="rgb(255,255,255)" fill-opacity="1.0" stroke="rgb(0,0,0)" stroke-width="2"  />
			<g>
				<title>HODM_asu-like (PF11927)
"Haem-dependent oxidative N-demethylase, alpha subunit-like"</title>
				<polygon class="PF11927" points="26,28 45,28 48,31 48,49 45,52 26,52" stroke-linejoin="round" width="22" height="24" fill="rgb(118,209,86)" stroke="rgb(94,167,68)" stroke-width="1" opacity="0.75" />
			</g>
		</g>
		<g>
			<title>
unknown</title>
			<polygon class="
unknown" points="117,25 104,25 104,10 74,40 104,70 104,55 117,55" fill="rgb(255,255,255)" fill-opacity="1.0" stroke="rgb(0,0,0)" stroke-width="2"  />
			<g>
				<title>4HBT_3C (PF20789)
"Acyl-CoA thioesterase C-terminal domain"</title>
				<polygon class="PF20789" points="82,36 90,28 103,28 103,52 90,52 82,44" stroke-linejoin="round" width="21" height="24" fill="rgb(189,69,180)" stroke="rgb(151,55,144)" stroke-width="1" opacity="0.75" />
			</g>
			<g>
				<title>4HBT_3 (PF13622)
"Acyl-CoA thioesterase N-terminal domain"</title>
				<rect class="PF13622" x="104" y="28" stroke-linejoin="round" width="8" height="24" fill="rgb(200,169,96)" stroke="rgb(160,135,76)" stroke-width="1" opacity="0.75" />
			</g>
		</g>
		<g>
			<title>
unknown</title>
			<polygon class="
unknown" points="128,40 153,10 153,70" fill="rgb(255,255,255)" fill-opacity="1.0" stroke="rgb(0,0,0)" stroke-width="2"  />
		</g>
		<g>
			<title>
unknown</title>
			<polygon class="
unknown" points="221,25 263,25 263,10 293,40 263,70 263,55 221,55" fill="rgb(255,255,255)" fill-opacity="1.0" stroke="rgb(0,0,0)" stroke-width="2"  />
			<g>
				<title>Amidase (PF01425)
"Amidase"</title>
				<rect class="PF01425" x="242" y="28" stroke-linejoin="round" width="22" height="24" fill="rgb(194,63,150)" stroke="rgb(155,50,119)" stroke-width="1" opacity="0.75" />
			</g>
		</g>
		<g>
			<title>
GsfR2</title>
			<polygon class="
GsfR2" points="378,25 367,25 367,10 337,40 367,70 367,55 378,55" fill="rgb(255,255,255)" fill-opacity="1.0" stroke="rgb(0,0,0)" stroke-width="2"  />
			<g>
				<title>Zn_clus (PF00172)
"Fungal Zn(2)-Cys(6) binuclear cluster domain"</title>
				<rect class="PF00172" x="374" y="28" stroke-linejoin="round" width="3" height="24" fill="rgb(58,207,82)" stroke="rgb(46,165,65)" stroke-width="1" opacity="0.75" />
			</g>
		</g>
		<g>
			<title>
GsfK</title>
			<polygon class="
GsfK" points="395,25 399,25 399,10 429,40 399,70 399,55 395,55" fill="rgb(255,255,255)" fill-opacity="1.0" stroke="rgb(0,0,0)" stroke-width="2"  />
			<g>
				<title>adh_short (PF00106)
"short chain dehydrogenase"</title>
				<polygon class="PF00106" points="395,28 413,28 414,29 414,51 413,52 395,52" stroke-linejoin="round" width="19" height="24" fill="rgb(128,81,196)" stroke="rgb(102,64,156)" stroke-width="1" opacity="0.75" />
			</g>
		</g>
		<g>
			<title>
GsfR1</title>
			<polygon class="
GsfR1" points="514,25 474,25 474,10 444,40 474,70 474,55 514,55" fill="rgb(255,255,255)" fill-opacity="1.0" stroke="rgb(0,0,0)" stroke-width="2"  />
		</g>
		<g>
			<title>
GsfJ</title>
			<polygon class="
GsfJ" points="547,25 584,25 584,10 614,40 584,70 584,55 547,55" fill="rgb(255,255,255)" fill-opacity="1.0" stroke="rgb(0,0,0)" stroke-width="2"  />
			<g>
				<title>MFS_1 (PF07690)
"Major Facilitator Superfamily"</title>
				<rect class="PF07690" x="553" y="28" stroke-linejoin="round" width="39" height="24" fill="rgb(228,207,98)" stroke="rgb(182,165,78)" stroke-width="1" opacity="0.75" />
			</g>
		</g>
		<g>
			<title>
GsfI</title>
			<polygon class="
GsfI" points="641,25 676,25 676,10 706,40 676,70 676,55 641,55" fill="rgb(255,255,255)" fill-opacity="1.0" stroke="rgb(0,0,0)" stroke-width="2"  />
			<g>
				<title>FAD_binding_3 (PF01494)
"FAD binding domain"</title>
				<rect class="PF01494" x="641" y="28" stroke-linejoin="round" width="35" height="24" fill="rgb(215,66,156)" stroke="rgb(172,52,124)" stroke-width="1" opacity="0.75" />
			</g>
		</g>
		<g>
			<title>
GsfA</title>
			<polygon class="
GsfA" points="727,25 886,25 886,10 916,40 886,70 886,55 727,55" fill="rgb(255,255,255)" fill-opacity="1.0" stroke="rgb(0,0,0)" stroke-width="2"  />
			<g>
				<title>SAT (PF16073)
"Starter unit:ACP transacylase in aflatoxin biosynthesis"</title>
				<rect class="PF16073" x="729" y="28" stroke-linejoin="round" width="24" height="24" fill="rgb(77,185,114)" stroke="rgb(61,148,91)" stroke-width="1" opacity="0.75" />
			</g>
			<g>
				<title>ketoacyl-synt (PF00109)
"Beta-ketoacyl synthase, N-terminal domain"</title>
				<rect class="PF00109" x="766" y="28" stroke-linejoin="round" width="24" height="24" fill="rgb(74,179,82)" stroke="rgb(59,143,65)" stroke-width="1" opacity="0.75" />
			</g>
			<g>
				<title>Ketoacyl-synt_C (PF02801)
"Beta-ketoacyl synthase, C-terminal domain"</title>
				<rect class="PF02801" x="791" y="28" stroke-linejoin="round" width="12" height="24" fill="rgb(212,79,72)" stroke="rgb(169,63,57)" stroke-width="1" opacity="0.75" />
			</g>
			<g>
				<title>Acyl_transf_1 (PF00698)
"Acyl transferase domain"</title>
				<rect class="PF00698" x="819" y="28" stroke-linejoin="round" width="31" height="24" fill="rgb(132,93,193)" stroke="rgb(105,74,154)" stroke-width="1" opacity="0.75" />
			</g>
			<g>
				<title>PP-binding (PF00550)
"Phosphopantetheine attachment site"</title>
				<polygon class="PF00550" points="899,28 899,28 905,34 905,46 899,52 899,52" stroke-linejoin="round" width="6" height="24" fill="rgb(181,58,166)" stroke="rgb(144,46,132)" stroke-width="1" opacity="0.75" />
			</g>
		</g>
		<g>
			<title>
GsfB</title>
			<polygon class="
GsfB" points="979,25 961,25 961,10 931,40 961,70 961,55 979,55" fill="rgb(255,255,255)" fill-opacity="1.0" stroke="rgb(0,0,0)" stroke-width="2"  />
			<g>
				<title>Methyltransf_2 (PF00891)
"O-methyltransferase domain"</title>
				<polygon class="PF00891" points="939,36 947,28 960,28 960,52 947,52 939,44" stroke-linejoin="round" width="21" height="24" fill="rgb(91,124,224)" stroke="rgb(72,99,179)" stroke-width="1" opacity="0.75" />
			</g>
		</g>
		<g>
			<title>
GsfC</title>
			<polygon class="
GsfC" points="1048,25 1039,25 1039,10 1009,40 1039,70 1039,55 1048,55" fill="rgb(255,255,255)" fill-opacity="1.0" stroke="rgb(0,0,0)" stroke-width="2"  />
			<g>
				<title>Methyltransf_2 (PF00891)
"O-methyltransferase domain"</title>
				<polygon class="PF00891" points="1013,40 1025,28 1026,28 1026,52 1025,52" stroke-linejoin="round" width="15" height="24" fill="rgb(91,124,224)" stroke="rgb(72,99,179)" stroke-width="1" opacity="0.75" />
			</g>
		</g>
		<g>
			<title>
GsfD</title>
			<polygon class="
GsfD" points="1063,25 1076,25 1076,10 1106,40 1076,70 1076,55 1063,55" fill="rgb(255,255,255)" fill-opacity="1.0" stroke="rgb(0,0,0)" stroke-width="2"  />
			<g>
				<title>Dimerisation (PF08100)
"Dimerisation domain"</title>
				<rect class="PF08100" x="1069" y="28" stroke-linejoin="round" width="4" height="24" fill="rgb(62,180,116)" stroke="rgb(49,144,92)" stroke-width="1" opacity="0.75" />
			</g>
			<g>
				<title>Methyltransf_2 (PF00891)
"O-methyltransferase domain"</title>
				<polygon class="PF00891" points="1081,28 1090,28 1097,35 1097,45 1090,52 1081,52" stroke-linejoin="round" width="16" height="24" fill="rgb(91,124,224)" stroke="rgb(72,99,179)" stroke-width="1" opacity="0.75" />
			</g>
		</g>
		<g>
			<title>
GsfE</title>
			<polygon class="
GsfE" points="1155,25 1148,25 1148,10 1118,40 1148,70 1148,55 1155,55" fill="rgb(255,255,255)" fill-opacity="1.0" stroke="rgb(0,0,0)" stroke-width="2"  />
		</g>
		<g>
			<title>
GsfF</title>
			<polygon class="
GsfF" points="1177,25 1203,25 1203,10 1233,40 1203,70 1203,55 1177,55" fill="rgb(255,255,255)" fill-opacity="1.0" stroke="rgb(0,0,0)" stroke-width="2"  />
			<g>
				<title>p450 (PF00067)
"Cytochrome P450"</title>
				<polygon class="PF00067" points="1180,28 1217,28 1226,37 1226,43 1217,52 1180,52" stroke-linejoin="round" width="46" height="24" fill="rgb(195,210,54)" stroke="rgb(155,168,43)" stroke-width="1" opacity="0.75" />
			</g>
		</g>
		<g>
			<title>
GsfG</title>
			<polygon class="
GsfG" points="1272,25 1268,25 1268,10 1238,40 1268,70 1268,55 1272,55" fill="rgb(255,255,255)" fill-opacity="1.0" stroke="rgb(0,0,0)" stroke-width="2"  />
			<g>
				<title>Ank_2 (PF12796)
"Ankyrin repeats (3 copies)"</title>
				<polygon class="PF12796" points="1249,33 1254,28 1257,28 1257,52 1254,52 1249,47" stroke-linejoin="round" width="8" height="24" fill="rgb(78,175,190)" stroke="rgb(62,140,152)" stroke-width="1" opacity="0.75" />
			</g>
		</g>
		<g>
			<title>
GsfH</title>
			<polygon class="
GsfH" points="1370,10 1399,40 1370,70" fill="rgb(255,255,255)" fill-opacity="1.0" stroke="rgb(0,0,0)" stroke-width="2"  />
			<g>
				<title>Isochorismatase (PF00857)
"Isochorismatase family"</title>
				<polygon class="PF00857" points="1373,28 1383,28 1388,33 1388,47 1383,52 1373,52" stroke-linejoin="round" width="15" height="24" fill="rgb(82,216,163)" stroke="rgb(65,172,130)" stroke-width="1" opacity="0.75" />
			</g>
		</g>
		<g>
			<title>
unknown</title>
			<polygon class="
unknown" points="1508,25 1460,25 1460,10 1430,40 1460,70 1460,55 1508,55" fill="rgb(255,255,255)" fill-opacity="1.0" stroke="rgb(0,0,0)" stroke-width="2"  />
			<g>
				<title>Fungal_trans (PF04082)
"Fungal specific transcription factor domain"</title>
				<rect class="PF04082" x="1459" y="28" stroke-linejoin="round" width="22" height="24" fill="rgb(214,73,227)" stroke="rgb(171,58,181)" stroke-width="1" opacity="0.75" />
			</g>
			<g>
				<title>Zn_clus (PF00172)
"Fungal Zn(2)-Cys(6) binuclear cluster domain"</title>
				<rect class="PF00172" x="1492" y="28" stroke-linejoin="round" width="3" height="24" fill="rgb(58,207,82)" stroke="rgb(46,165,65)" stroke-width="1" opacity="0.75" />
			</g>
		</g>
		<g>
			<title>
unknown</title>
			<polygon class="
unknown" points="1636,40 1662,10 1662,70" fill="rgb(255,255,255)" fill-opacity="1.0" stroke="rgb(0,0,0)" stroke-width="2"  />
			<g>
				<title>PAC4 (PF16093)
"Proteasome assembly chaperone 4"</title>
				<polygon class="PF16093" points="1651,28 1651,28 1659,28 1659,52 1651,52 1651,52" stroke-linejoin="round" width="8" height="24" fill="rgb(64,112,196)" stroke="rgb(51,89,156)" stroke-width="1" opacity="0.75" />
			</g>
		</g>
		<g>
			<title>
unknown</title>
			<polygon class="
unknown" points="1688,25 1702,25 1702,10 1732,40 1702,70 1702,55 1688,55" fill="rgb(255,255,255)" fill-opacity="1.0" stroke="rgb(0,0,0)" stroke-width="2"  />
			<g>
				<title>CARME (PF07942)
"Carnosine N-methyltransferase"</title>
				<polygon class="PF07942" points="1699,28 1716,28 1728,40 1728,40 1716,52 1699,52" stroke-linejoin="round" width="29" height="24" fill="rgb(224,98,184)" stroke="rgb(179,78,147)" stroke-width="1" opacity="0.75" />
			</g>
		</g>
		<g>
			<title>
unknown</title>
			<polygon class="
unknown" points="1753,25 1798,25 1798,10 1828,40 1798,70 1798,55 1753,55" fill="rgb(255,255,255)" fill-opacity="1.0" stroke="rgb(0,0,0)" stroke-width="2"  />
			<g>
				<title>HSP70 (PF00012)
"Hsp70 protein"</title>
				<rect class="PF00012" x="1777" y="28" stroke-linejoin="round" width="30" height="24" fill="rgb(202,80,62)" stroke="rgb(161,64,49)" stroke-width="1" opacity="0.75" />
			</g>
		</g>
	</g>
</svg>
