<svg version="1.1" baseProfile="full" xmlns="http://www.w3.org/2000/svg" width="408.3333333333333" height="80">
	<g>
		<line x1="10" y1="40.0" x2="398.3333333333333" y2="40.0" style="stroke:rgb(70,70,70); stroke-width:3 "/>
		<g>
			<title>scnK
ScnK</title>
			<polygon class="scnK
ScnK" points="63,25 48,25 48,10 18,40 48,70 48,55 63,55" fill="rgb(255,255,255)" fill-opacity="1.0" stroke="rgb(0,0,0)" stroke-width="2"  />
			<g>
				<title>HATPase_c (PF02518)
"Histidine kinase-, DNA gyrase B-, and HSP90-like ATPase"</title>
				<polygon class="PF02518" points="22,40 29,33 29,47" stroke-linejoin="round" width="11" height="24" fill="rgb(94,146,210)" stroke="rgb(75,116,168)" stroke-width="1" opacity="0.75" />
			</g>
			<g>
				<title>HisKA (PF00512)
"His Kinase A (phospho-acceptor) domain"</title>
				<polygon class="PF00512" points="34,28 34,28 40,28 40,52 34,52 34,52" stroke-linejoin="round" width="6" height="24" fill="rgb(57,81,199)" stroke="rgb(45,64,159)" stroke-width="1" opacity="0.75" />
			</g>
		</g>
		<g>
			<title>scnR
ScnR</title>
			<polygon class="scnR
ScnR" points="64,40 87,10 87,70" fill="rgb(255,255,255)" fill-opacity="1.0" stroke="rgb(0,0,0)" stroke-width="2"  />
			<g>
				<title>Trans_reg_C (PF00486)
"Transcriptional regulatory protein, C terminal"</title>
				<polygon class="PF00486" points="68,40 71,36 71,44" stroke-linejoin="round" width="7" height="24" fill="rgb(69,185,116)" stroke="rgb(55,148,92)" stroke-width="1" opacity="0.75" />
			</g>
			<g>
				<title>Response_reg (PF00072)
"Response regulator receiver domain"</title>
				<polygon class="PF00072" points="75,31 77,28 86,28 86,52 77,52 75,49" stroke-linejoin="round" width="11" height="24" fill="rgb(59,131,198)" stroke="rgb(47,104,158)" stroke-width="1" opacity="0.75" />
			</g>
		</g>
		<g>
			<title>scnA
streptococcin A-FF22 precursor</title>
			<polygon class="scnA
streptococcin A-FF22 precursor" points="93,10 98,40 93,70" fill="rgb(255,255,255)" fill-opacity="1.0" stroke="rgb(0,0,0)" stroke-width="2"  />
			<g>
				<title>L_biotic_typeA (PF04604)
"Type-A lantibiotic"</title>
				<polygon class="PF04604" points="93,28 95,40 93,52" stroke-linejoin="round" width="4" height="24" fill="rgb(103,168,227)" stroke="rgb(82,134,181)" stroke-width="1" opacity="0.75" />
			</g>
		</g>
		<g>
			<title>scnA1
ScnA1</title>
			<polygon class="scnA1
ScnA1" points="105,10 110,40 105,70" fill="rgb(255,255,255)" fill-opacity="1.0" stroke="rgb(0,0,0)" stroke-width="2"  />
			<g>
				<title>L_biotic_typeA (PF04604)
"Type-A lantibiotic"</title>
				<polygon class="PF04604" points="105,28 107,40 105,52" stroke-linejoin="round" width="5" height="24" fill="rgb(103,168,227)" stroke="rgb(82,134,181)" stroke-width="1" opacity="0.75" />
			</g>
		</g>
		<g>
			<title>scnM
ScnM</title>
			<polygon class="scnM
ScnM" points="111,25 173,25 173,10 203,40 173,70 173,55 111,55" fill="rgb(255,255,255)" fill-opacity="1.0" stroke="rgb(0,0,0)" stroke-width="2"  />
			<g>
				<title>DUF4135 (PF13575)
"Domain of unknown function (DUF4135)"</title>
				<rect class="PF13575" x="120" y="28" stroke-linejoin="round" width="37" height="24" fill="rgb(170,90,215)" stroke="rgb(135,72,172)" stroke-width="1" opacity="0.75" />
			</g>
			<g>
				<title>LANC_like (PF05147)
"Lanthionine synthetase C-like protein"</title>
				<polygon class="PF05147" points="168,28 187,28 199,40 187,52 168,52" stroke-linejoin="round" width="34" height="24" fill="rgb(91,189,96)" stroke="rgb(72,151,76)" stroke-width="1" opacity="0.75" />
			</g>
		</g>
		<g>
			<title>scnT
ScnT</title>
			<polygon class="scnT
ScnT" points="205,25 244,25 244,10 274,40 244,70 244,55 205,55" fill="rgb(255,255,255)" fill-opacity="1.0" stroke="rgb(0,0,0)" stroke-width="2"  />
			<g>
				<title>Peptidase_C39 (PF03412)
"Peptidase C39 family"</title>
				<rect class="PF03412" x="205" y="28" stroke-linejoin="round" width="13" height="24" fill="rgb(93,118,202)" stroke="rgb(74,94,161)" stroke-width="1" opacity="0.75" />
			</g>
			<g>
				<title>ABC_membrane (PF00664)
"ABC transporter transmembrane region"</title>
				<rect class="PF00664" x="220" y="28" stroke-linejoin="round" width="26" height="24" fill="rgb(62,71,183)" stroke="rgb(49,56,146)" stroke-width="1" opacity="0.75" />
			</g>
			<g>
				<title>ABC_tran (PF00005)
"ABC transporter"</title>
				<polygon class="PF00005" points="252,28 257,28 265,36 265,44 257,52 252,52" stroke-linejoin="round" width="13" height="24" fill="rgb(46,186,108)" stroke="rgb(36,148,86)" stroke-width="1" opacity="0.75" />
			</g>
		</g>
		<g>
			<title>scnF
ScnF</title>
			<polygon class="scnF
ScnF" points="277,25 277,25 277,10 307,40 277,70 277,55 277,55" fill="rgb(255,255,255)" fill-opacity="1.0" stroke="rgb(0,0,0)" stroke-width="2"  />
			<g>
				<title>ABC_tran (PF00005)
"ABC transporter"</title>
				<polygon class="PF00005" points="279,28 290,28 293,31 293,49 290,52 279,52" stroke-linejoin="round" width="14" height="24" fill="rgb(46,186,108)" stroke="rgb(36,148,86)" stroke-width="1" opacity="0.75" />
			</g>
		</g>
		<g>
			<title>scnE
ScnE</title>
			<polygon class="scnE
ScnE" points="308,10 333,40 308,70" fill="rgb(255,255,255)" fill-opacity="1.0" stroke="rgb(0,0,0)" stroke-width="2"  />
		</g>
		<g>
			<title>scnG
ScnG</title>
			<polygon class="scnG
ScnG" points="334,10 357,40 334,70" fill="rgb(255,255,255)" fill-opacity="1.0" stroke="rgb(0,0,0)" stroke-width="2"  />
			<g>
				<title>ABC2_membrane_4 (PF12730)
"ABC-2 family transporter protein"</title>
				<polygon class="PF12730" points="334,28 344,28 351,37 351,43 344,52 334,52" stroke-linejoin="round" width="17" height="24" fill="rgb(161,62,179)" stroke="rgb(128,49,143)" stroke-width="1" opacity="0.75" />
			</g>
		</g>
		<g>
			<title>tnpA
TnpA</title>
			<polygon class="tnpA
TnpA" points="397,25 391,25 391,10 361,40 391,70 391,55 397,55" fill="rgb(255,255,255)" fill-opacity="1.0" stroke="rgb(0,0,0)" stroke-width="2"  />
			<g>
				<title>rve (PF00665)
"Integrase core domain"</title>
				<polygon class="PF00665" points="367,38 377,28 377,28 377,52 377,52 367,42" stroke-linejoin="round" width="10" height="24" fill="rgb(213,60,83)" stroke="rgb(170,48,66)" stroke-width="1" opacity="0.75" />
			</g>
			<g>
				<title>HTH_21 (PF13276)
"HTH-like domain"</title>
				<rect class="PF13276" x="379" y="28" stroke-linejoin="round" width="6" height="24" fill="rgb(81,127,201)" stroke="rgb(64,101,160)" stroke-width="1" opacity="0.75" />
			</g>
			<g>
				<title>HTH_Tnp_1 (PF01527)
"Transposase"</title>
				<rect class="PF01527" x="390" y="28" stroke-linejoin="round" width="6" height="24" fill="rgb(142,96,211)" stroke="rgb(113,76,168)" stroke-width="1" opacity="0.75" />
			</g>
		</g>
	</g>
</svg>
