<svg version="1.1" baseProfile="full" xmlns="http://www.w3.org/2000/svg" width="223.1" height="80">
	<g>
		<line x1="10" y1="40.0" x2="213.1" y2="40.0" style="stroke:rgb(70,70,70); stroke-width:3 "/>
		<g>
			<title> (SAOUHSC_02433)
conserved hypothetical protein</title>
			<polygon class=" (SAOUHSC_02433)
conserved hypothetical protein" points="45,25 40,25 40,10 10,40 40,70 40,55 45,55" fill="rgb(255,255,255)" fill-opacity="1.0" stroke="rgb(0,0,0)" stroke-width="2"  />
			<g>
				<title>Ala_racemase_N (PF01168)
"Alanine racemase, N-terminal domain"</title>
				<polygon class="PF01168" points="23,31 26,28 44,28 44,52 26,52 23,49" stroke-linejoin="round" width="21" height="24" fill="rgb(190,90,159)" stroke="rgb(152,72,127)" stroke-width="1" opacity="0.75" />
			</g>
		</g>
		<g>
			<title> (SAOUHSC_02434)
conserved hypothetical protein</title>
			<polygon class=" (SAOUHSC_02434)
conserved hypothetical protein" points="103,25 75,25 75,10 45,40 75,70 75,55 103,55" fill="rgb(255,255,255)" fill-opacity="1.0" stroke="rgb(0,0,0)" stroke-width="2"  />
			<g>
				<title>FhuF (PF06276)
"Ferric iron reductase FhuF-like transporter"</title>
				<polygon class="PF06276" points="49,40 61,28 62,28 62,52 61,52" stroke-linejoin="round" width="16" height="24" fill="rgb(88,189,147)" stroke="rgb(70,151,117)" stroke-width="1" opacity="0.75" />
			</g>
			<g>
				<title>IucA_IucC (PF04183)
"IucA / IucC family"</title>
				<rect class="PF04183" x="65" y="28" stroke-linejoin="round" width="22" height="24" fill="rgb(106,227,58)" stroke="rgb(84,181,46)" stroke-width="1" opacity="0.75" />
			</g>
		</g>
		<g>
			<title> (SAOUHSC_02435)
conserved hypothetical protein</title>
			<polygon class=" (SAOUHSC_02435)
conserved hypothetical protein" points="143,25 134,25 134,10 104,40 134,70 134,55 143,55" fill="rgb(255,255,255)" fill-opacity="1.0" stroke="rgb(0,0,0)" stroke-width="2"  />
			<g>
				<title>MFS_3 (PF05977)
"Transmembrane secretion effector"</title>
				<polygon class="PF05977" points="108,40 120,28 143,28 143,52 120,52" stroke-linejoin="round" width="39" height="24" fill="rgb(75,61,221)" stroke="rgb(60,48,176)" stroke-width="1" opacity="0.75" />
			</g>
		</g>
		<g>
			<title> (SAOUHSC_02436)
conserved hypothetical protein</title>
			<polygon class=" (SAOUHSC_02436)
conserved hypothetical protein" points="147,25 182,25 182,10 212,40 182,70 182,55 147,55" fill="rgb(255,255,255)" fill-opacity="1.0" stroke="rgb(0,0,0)" stroke-width="2"  />
			<g>
				<title>IucA_IucC (PF04183)
"IucA / IucC family"</title>
				<rect class="PF04183" x="166" y="28" stroke-linejoin="round" width="24" height="24" fill="rgb(106,227,58)" stroke="rgb(84,181,46)" stroke-width="1" opacity="0.75" />
			</g>
			<g>
				<title>FhuF (PF06276)
"Ferric iron reductase FhuF-like transporter"</title>
				<polygon class="PF06276" points="193,28 196,28 208,40 196,52 193,52" stroke-linejoin="round" width="17" height="24" fill="rgb(88,189,147)" stroke="rgb(70,151,117)" stroke-width="1" opacity="0.75" />
			</g>
		</g>
	</g>
</svg>
