<svg version="1.1" baseProfile="full" xmlns="http://www.w3.org/2000/svg" width="2827.4" height="80">
	<g>
		<line x1="10" y1="40.0" x2="2817.4" y2="40.0" style="stroke:rgb(70,70,70); stroke-width:3 "/>
		<g>
			<title>
putative DNA polymerase beta chain</title>
			<polygon class="
putative DNA polymerase beta chain" points="16,25 21,25 21,10 51,40 21,70 21,55 16,55" fill="rgb(255,255,255)" fill-opacity="1.0" stroke="rgb(0,0,0)" stroke-width="2"  />
			<g>
				<title>HHH_8 (PF14716)
"Helix-hairpin-helix domain"</title>
				<rect class="PF14716" x="16" y="28" stroke-linejoin="round" width="6" height="24" fill="rgb(107,57,200)" stroke="rgb(85,45,160)" stroke-width="1" opacity="0.75" />
			</g>
			<g>
				<title>PHP (PF02811)
"PHP domain"</title>
				<polygon class="PF02811" points="26,28 35,28 44,37 44,43 35,52 26,52" stroke-linejoin="round" width="18" height="24" fill="rgb(142,222,76)" stroke="rgb(113,177,60)" stroke-width="1" opacity="0.75" />
			</g>
		</g>
		<g>
			<title>
putative integral membrane protein</title>
			<polygon class="
putative integral membrane protein" points="86,25 84,25 84,10 54,40 84,70 84,55 86,55" fill="rgb(255,255,255)" fill-opacity="1.0" stroke="rgb(0,0,0)" stroke-width="2"  />
			<g>
				<title>EamA (PF00892)
"EamA-like transporter family"</title>
				<polygon class="PF00892" points="58,40 70,28 70,28 70,52 70,52" stroke-linejoin="round" width="14" height="24" fill="rgb(202,125,98)" stroke="rgb(161,100,78)" stroke-width="1" opacity="0.75" />
			</g>
			<g>
				<title>EamA (PF00892)
"EamA-like transporter family"</title>
				<rect class="PF00892" x="71" y="28" stroke-linejoin="round" width="13" height="24" fill="rgb(202,125,98)" stroke="rgb(161,100,78)" stroke-width="1" opacity="0.75" />
			</g>
		</g>
		<g>
			<title>
hypothetical protein</title>
			<polygon class="
hypothetical protein" points="89,10 104,40 89,70" fill="rgb(255,255,255)" fill-opacity="1.0" stroke="rgb(0,0,0)" stroke-width="2"  />
			<g>
				<title>Uma2 (PF05685)
"Putative restriction endonuclease"</title>
				<polygon class="PF05685" points="89,28 94,28 101,40 101,40 94,52 89,52" stroke-linejoin="round" width="12" height="24" fill="rgb(195,82,97)" stroke="rgb(156,65,77)" stroke-width="1" opacity="0.75" />
			</g>
		</g>
		<g>
			<title>
hypothetical protein</title>
			<polygon class="
hypothetical protein" points="104,25 129,25 129,10 159,40 129,70 129,55 104,55" fill="rgb(255,255,255)" fill-opacity="1.0" stroke="rgb(0,0,0)" stroke-width="2"  />
			<g>
				<title>DUF885 (PF05960)
"Bacterial protein of unknown function (DUF885)"</title>
				<polygon class="PF05960" points="106,28 143,28 155,40 143,52 106,52" stroke-linejoin="round" width="53" height="24" fill="rgb(181,83,221)" stroke="rgb(144,66,176)" stroke-width="1" opacity="0.75" />
			</g>
		</g>
		<g>
			<title>
putative plus agglutinin</title>
			<polygon class="
putative plus agglutinin" points="196,25 192,25 192,10 162,40 192,70 192,55 196,55" fill="rgb(255,255,255)" fill-opacity="1.0" stroke="rgb(0,0,0)" stroke-width="2"  />
		</g>
		<g>
			<title>
hypothetical protein</title>
			<polygon class="
hypothetical protein" points="197,40 216,10 216,70" fill="rgb(255,255,255)" fill-opacity="1.0" stroke="rgb(0,0,0)" stroke-width="2"  />
			<g>
				<title>DUF6114 (PF19609)
"Family of unknown function (DUF6114)"</title>
				<polygon class="PF19609" points="203,37 209,28 213,28 213,52 209,52 203,43" stroke-linejoin="round" width="10" height="24" fill="rgb(204,53,184)" stroke="rgb(163,42,147)" stroke-width="1" opacity="0.75" />
			</g>
		</g>
		<g>
			<title>
putative esterase</title>
			<polygon class="
putative esterase" points="219,40 239,10 239,70" fill="rgb(255,255,255)" fill-opacity="1.0" stroke="rgb(0,0,0)" stroke-width="2"  />
			<g>
				<title>DUF6230 (PF19741)
"Family of unknown function (DUF6230)"</title>
				<polygon class="PF19741" points="223,40 231,28 234,28 234,52 231,52" stroke-linejoin="round" width="15" height="24" fill="rgb(52,200,157)" stroke="rgb(41,160,125)" stroke-width="1" opacity="0.75" />
			</g>
		</g>
		<g>
			<title>
hypothetical protein</title>
			<polygon class="
hypothetical protein" points="266,25 292,25 292,10 322,40 292,70 292,55 266,55" fill="rgb(255,255,255)" fill-opacity="1.0" stroke="rgb(0,0,0)" stroke-width="2"  />
			<g>
				<title>PG_binding_4 (PF12229)
"Putative peptidoglycan binding domain"</title>
				<rect class="PF12229" x="286" y="28" stroke-linejoin="round" width="12" height="24" fill="rgb(185,87,227)" stroke="rgb(148,69,181)" stroke-width="1" opacity="0.75" />
			</g>
			<g>
				<title>VanW (PF04294)
"VanW like protein"</title>
				<polygon class="PF04294" points="302,28 306,28 314,36 314,44 306,52 302,52" stroke-linejoin="round" width="12" height="24" fill="rgb(62,66,184)" stroke="rgb(49,52,147)" stroke-width="1" opacity="0.75" />
			</g>
		</g>
		<g>
			<title>
hypothetical protein</title>
			<polygon class="
hypothetical protein" points="327,40 347,10 347,70" fill="rgb(255,255,255)" fill-opacity="1.0" stroke="rgb(0,0,0)" stroke-width="2"  />
			<g>
				<title>F420_oxidored (PF03807)
"NADP oxidoreductase coenzyme F420-dependent"</title>
				<polygon class="PF03807" points="339,29 339,28 347,28 347,52 339,52 339,51" stroke-linejoin="round" width="8" height="24" fill="rgb(209,134,62)" stroke="rgb(167,107,49)" stroke-width="1" opacity="0.75" />
			</g>
		</g>
		<g>
			<title>
hypothetical protein</title>
			<polygon class="
hypothetical protein" points="546,10 564,40 546,70" fill="rgb(255,255,255)" fill-opacity="1.0" stroke="rgb(0,0,0)" stroke-width="2"  />
		</g>
		<g>
			<title>
putative Trp-tRNA ligase</title>
			<polygon class="
putative Trp-tRNA ligase" points="567,25 573,25 573,10 603,40 573,70 573,55 567,55" fill="rgb(255,255,255)" fill-opacity="1.0" stroke="rgb(0,0,0)" stroke-width="2"  />
			<g>
				<title>tRNA-synt_1b (PF00579)
"tRNA synthetases class I (W and Y)"</title>
				<polygon class="PF00579" points="567,28 586,28 595,37 595,43 586,52 567,52" stroke-linejoin="round" width="28" height="24" fill="rgb(219,120,72)" stroke="rgb(175,95,57)" stroke-width="1" opacity="0.75" />
			</g>
		</g>
		<g>
			<title>genO
queuine /archaeosine tRNA-ribosyltransferase</title>
			<polygon class="genO
queuine /archaeosine tRNA-ribosyltransferase" points="605,25 613,25 613,10 643,40 613,70 613,55 605,55" fill="rgb(255,255,255)" fill-opacity="1.0" stroke="rgb(0,0,0)" stroke-width="2"  />
			<g>
				<title>TGT (PF01702)
"Queuine tRNA-ribosyltransferase"</title>
				<polygon class="PF01702" points="606,28 627,28 639,40 627,52 606,52" stroke-linejoin="round" width="36" height="24" fill="rgb(170,55,188)" stroke="rgb(135,43,150)" stroke-width="1" opacity="0.75" />
			</g>
		</g>
		<g>
			<title>gmrB
putative ribosomal methyltransferase</title>
			<polygon class="gmrB
putative ribosomal methyltransferase" points="647,10 674,40 647,70" fill="rgb(255,255,255)" fill-opacity="1.0" stroke="rgb(0,0,0)" stroke-width="2"  />
			<g>
				<title>FmrO (PF07091)
"Ribosomal RNA methyltransferase (FmrO)"</title>
				<polygon class="PF07091" points="649,28 658,28 670,40 658,52 649,52" stroke-linejoin="round" width="24" height="24" fill="rgb(207,99,96)" stroke="rgb(165,79,76)" stroke-width="1" opacity="0.75" />
			</g>
		</g>
		<g>
			<title>genB1
gentamicin (hexosaminyl-6-) aminotransferase I</title>
			<polygon class="genB1
gentamicin (hexosaminyl-6-) aminotransferase I" points="716,25 705,25 705,10 675,40 705,70 705,55 716,55" fill="rgb(255,255,255)" fill-opacity="1.0" stroke="rgb(0,0,0)" stroke-width="2"  />
			<g>
				<title>Aminotran_3 (PF00202)
"Aminotransferase class-III"</title>
				<polygon class="PF00202" points="680,39 691,28 702,28 702,52 691,52 680,41" stroke-linejoin="round" width="22" height="24" fill="rgb(182,63,213)" stroke="rgb(145,50,170)" stroke-width="1" opacity="0.75" />
			</g>
			<g>
				<title>Aminotran_3 (PF00202)
"Aminotransferase class-III"</title>
				<rect class="PF00202" x="702" y="28" stroke-linejoin="round" width="12" height="24" fill="rgb(182,63,213)" stroke="rgb(145,50,170)" stroke-width="1" opacity="0.75" />
			</g>
		</g>
		<g>
			<title>genQ
gentamicin hexosamiyl-6'-dehydrogenase</title>
			<polygon class="genQ
gentamicin hexosamiyl-6'-dehydrogenase" points="767,25 747,25 747,10 717,40 747,70 747,55 767,55" fill="rgb(255,255,255)" fill-opacity="1.0" stroke="rgb(0,0,0)" stroke-width="2"  />
			<g>
				<title>GMC_oxred_C (PF05199)
"GMC oxidoreductase"</title>
				<polygon class="PF05199" points="721,40 730,31 730,49" stroke-linejoin="round" width="12" height="24" fill="rgb(206,67,222)" stroke="rgb(164,53,177)" stroke-width="1" opacity="0.75" />
			</g>
			<g>
				<title>GMC_oxred_N (PF00732)
"GMC oxidoreductase"</title>
				<rect class="PF00732" x="738" y="28" stroke-linejoin="round" width="24" height="24" fill="rgb(102,94,198)" stroke="rgb(81,75,158)" stroke-width="1" opacity="0.75" />
			</g>
			<g>
				<title>NAD_binding_8 (PF13450)
"NAD(P)-binding Rossmann-like domain"</title>
				<rect class="PF13450" x="764" y="28" stroke-linejoin="round" width="3" height="24" fill="rgb(218,105,93)" stroke="rgb(174,84,74)" stroke-width="1" opacity="0.75" />
			</g>
		</g>
		<g>
			<title>genD3
putative gentamicin oxidoreductase</title>
			<polygon class="genD3
putative gentamicin oxidoreductase" points="774,40 801,10 801,70" fill="rgb(255,255,255)" fill-opacity="1.0" stroke="rgb(0,0,0)" stroke-width="2"  />
			<g>
				<title>adh_short (PF00106)
"short chain dehydrogenase"</title>
				<polygon class="PF00106" points="779,39 789,28 799,28 799,52 789,52 779,41" stroke-linejoin="round" width="20" height="24" fill="rgb(128,81,196)" stroke="rgb(102,64,156)" stroke-width="1" opacity="0.75" />
			</g>
		</g>
		<g>
			<title>genM1
putative (N-acetyl-)hexosaminyltransferase</title>
			<polygon class="genM1
putative (N-acetyl-)hexosaminyltransferase" points="842,25 831,25 831,10 801,40 831,70 831,55 842,55" fill="rgb(255,255,255)" fill-opacity="1.0" stroke="rgb(0,0,0)" stroke-width="2"  />
			<g>
				<title>Glycos_transf_1 (PF00534)
"Glycosyl transferases group 1"</title>
				<polygon class="PF00534" points="805,40 817,28 820,28 820,52 817,52" stroke-linejoin="round" width="16" height="24" fill="rgb(66,178,218)" stroke="rgb(52,142,174)" stroke-width="1" opacity="0.75" />
			</g>
			<g>
				<title>Glyco_trans_4_4 (PF13579)
"Glycosyl transferase 4-like domain"</title>
				<rect class="PF13579" x="822" y="28" stroke-linejoin="round" width="18" height="24" fill="rgb(109,95,198)" stroke="rgb(87,76,158)" stroke-width="1" opacity="0.75" />
			</g>
		</g>
		<g>
			<title>gmrA
putative ribosomal methyltransferase</title>
			<polygon class="gmrA
putative ribosomal methyltransferase" points="844,40 871,10 871,70" fill="rgb(255,255,255)" fill-opacity="1.0" stroke="rgb(0,0,0)" stroke-width="2"  />
			<g>
				<title>FmrO (PF07091)
"Ribosomal RNA methyltransferase (FmrO)"</title>
				<polygon class="PF07091" points="848,40 859,28 869,28 869,52 859,52" stroke-linejoin="round" width="25" height="24" fill="rgb(207,99,96)" stroke="rgb(165,79,76)" stroke-width="1" opacity="0.75" />
			</g>
		</g>
		<g>
			<title>genS1
putative L-glutamine:ketocyclitol aminotransferase</title>
			<polygon class="genS1
putative L-glutamine:ketocyclitol aminotransferase" points="882,25 894,25 894,10 924,40 894,70 894,55 882,55" fill="rgb(255,255,255)" fill-opacity="1.0" stroke="rgb(0,0,0)" stroke-width="2"  />
			<g>
				<title>DegT_DnrJ_EryC1 (PF01041)
"DegT/DnrJ/EryC1/StrS aminotransferase family"</title>
				<polygon class="PF01041" points="884,28 907,28 919,40 907,52 884,52" stroke-linejoin="round" width="38" height="24" fill="rgb(228,110,183)" stroke="rgb(182,88,146)" stroke-width="1" opacity="0.75" />
			</g>
		</g>
		<g>
			<title>genC
2-deoxy-scyllo-inosose synthase</title>
			<polygon class="genC
2-deoxy-scyllo-inosose synthase" points="928,25 937,25 937,10 967,40 937,70 937,55 928,55" fill="rgb(255,255,255)" fill-opacity="1.0" stroke="rgb(0,0,0)" stroke-width="2"  />
			<g>
				<title>DHQ_synthase (PF01761)
"3-dehydroquinate synthase"</title>
				<polygon class="PF01761" points="934,28 951,28 959,36 959,44 951,52 934,52" stroke-linejoin="round" width="25" height="24" fill="rgb(71,149,225)" stroke="rgb(56,119,180)" stroke-width="1" opacity="0.75" />
			</g>
		</g>
		<g>
			<title>genD2
putative gentamicin oxidoreductase</title>
			<polygon class="genD2
putative gentamicin oxidoreductase" points="968,25 972,25 972,10 1002,40 972,70 972,55 968,55" fill="rgb(255,255,255)" fill-opacity="1.0" stroke="rgb(0,0,0)" stroke-width="2"  />
			<g>
				<title>GFO_IDH_MocA (PF01408)
"Oxidoreductase family, NAD-binding Rossmann fold"</title>
				<rect class="PF01408" x="968" y="28" stroke-linejoin="round" width="11" height="24" fill="rgb(53,193,178)" stroke="rgb(42,154,142)" stroke-width="1" opacity="0.75" />
			</g>
			<g>
				<title>GFO_IDH_MocA_C (PF02894)
"Oxidoreductase family, C-terminal alpha/beta domain"</title>
				<polygon class="PF02894" points="981,28 985,28 997,40 985,52 981,52" stroke-linejoin="round" width="20" height="24" fill="rgb(89,185,176)" stroke="rgb(71,148,140)" stroke-width="1" opacity="0.75" />
			</g>
		</g>
		<g>
			<title>genM2
putatative gentamicin glycosyltransferase II</title>
			<polygon class="genM2
putatative gentamicin glycosyltransferase II" points="1005,25 1014,25 1014,10 1044,40 1014,70 1014,55 1005,55" fill="rgb(255,255,255)" fill-opacity="1.0" stroke="rgb(0,0,0)" stroke-width="2"  />
			<g>
				<title>Glyco_trans_4_4 (PF13579)
"Glycosyl transferase 4-like domain"</title>
				<rect class="PF13579" x="1005" y="28" stroke-linejoin="round" width="18" height="24" fill="rgb(109,95,198)" stroke="rgb(87,76,158)" stroke-width="1" opacity="0.75" />
			</g>
			<g>
				<title>Glycos_transf_1 (PF00534)
"Glycosyl transferases group 1"</title>
				<polygon class="PF00534" points="1024,28 1027,28 1039,40 1027,52 1024,52" stroke-linejoin="round" width="16" height="24" fill="rgb(66,178,218)" stroke="rgb(52,142,174)" stroke-width="1" opacity="0.75" />
			</g>
		</g>
		<g>
			<title>genD1
putative gentamicin oxidoreductase</title>
			<polygon class="genD1
putative gentamicin oxidoreductase" points="1044,25 1080,25 1080,10 1110,40 1080,70 1080,55 1044,55" fill="rgb(255,255,255)" fill-opacity="1.0" stroke="rgb(0,0,0)" stroke-width="2"  />
			<g>
				<title>Radical_SAM (PF04055)
"Radical SAM superfamily"</title>
				<rect class="PF04055" x="1077" y="28" stroke-linejoin="round" width="16" height="24" fill="rgb(223,193,78)" stroke="rgb(178,154,62)" stroke-width="1" opacity="0.75" />
			</g>
		</g>
		<g>
			<title>genS2
putative gentamicin aminotransferase II</title>
			<polygon class="genS2
putative gentamicin aminotransferase II" points="1110,25 1121,25 1121,10 1151,40 1121,70 1121,55 1110,55" fill="rgb(255,255,255)" fill-opacity="1.0" stroke="rgb(0,0,0)" stroke-width="2"  />
			<g>
				<title>DegT_DnrJ_EryC1 (PF01041)
"DegT/DnrJ/EryC1/StrS aminotransferase family"</title>
				<polygon class="PF01041" points="1112,28 1135,28 1147,40 1135,52 1112,52" stroke-linejoin="round" width="36" height="24" fill="rgb(228,110,183)" stroke="rgb(182,88,146)" stroke-width="1" opacity="0.75" />
			</g>
		</g>
		<g>
			<title>genW
putative gentamicin production protein</title>
			<polygon class="genW
putative gentamicin production protein" points="1152,10 1164,40 1152,70" fill="rgb(255,255,255)" fill-opacity="1.0" stroke="rgb(0,0,0)" stroke-width="2"  />
			<g>
				<title>QueF (PF14489)
"QueF-like protein"</title>
				<polygon class="PF14489" points="1156,28 1161,40 1156,52" stroke-linejoin="round" width="7" height="24" fill="rgb(202,99,155)" stroke="rgb(161,79,124)" stroke-width="1" opacity="0.75" />
			</g>
		</g>
		<g>
			<title>genB4
putative gentamicin aminotransferase IV</title>
			<polygon class="genB4
putative gentamicin aminotransferase IV" points="1212,25 1198,25 1198,10 1168,40 1198,70 1198,55 1212,55" fill="rgb(255,255,255)" fill-opacity="1.0" stroke="rgb(0,0,0)" stroke-width="2"  />
			<g>
				<title>Aminotran_3 (PF00202)
"Aminotransferase class-III"</title>
				<polygon class="PF00202" points="1174,38 1184,28 1209,28 1209,52 1184,52 1174,42" stroke-linejoin="round" width="35" height="24" fill="rgb(182,63,213)" stroke="rgb(145,50,170)" stroke-width="1" opacity="0.75" />
			</g>
		</g>
		<g>
			<title>genP
biosynthetic aminoglycoside 3'-phosphotransferase</title>
			<polygon class="genP
biosynthetic aminoglycoside 3'-phosphotransferase" points="1214,40 1240,10 1240,70" fill="rgb(255,255,255)" fill-opacity="1.0" stroke="rgb(0,0,0)" stroke-width="2"  />
			<g>
				<title>APH (PF01636)
"Phosphotransferase enzyme family"</title>
				<polygon class="PF01636" points="1218,40 1229,28 1238,28 1238,52 1229,52" stroke-linejoin="round" width="23" height="24" fill="rgb(113,205,78)" stroke="rgb(90,164,62)" stroke-width="1" opacity="0.75" />
			</g>
		</g>
		<g>
			<title>genB3
putative gentamicin aminotransferase III</title>
			<polygon class="genB3
putative gentamicin aminotransferase III" points="1291,25 1272,25 1272,10 1242,40 1272,70 1272,55 1291,55" fill="rgb(255,255,255)" fill-opacity="1.0" stroke="rgb(0,0,0)" stroke-width="2"  />
			<g>
				<title>Aminotran_3 (PF00202)
"Aminotransferase class-III"</title>
				<polygon class="PF00202" points="1248,38 1258,28 1283,28 1283,52 1258,52 1248,42" stroke-linejoin="round" width="35" height="24" fill="rgb(182,63,213)" stroke="rgb(145,50,170)" stroke-width="1" opacity="0.75" />
			</g>
		</g>
		<g>
			<title>genK
putative gentamicin C-methyltransferase</title>
			<polygon class="genK
putative gentamicin C-methyltransferase" points="1371,25 1338,25 1338,10 1308,40 1338,70 1338,55 1371,55" fill="rgb(255,255,255)" fill-opacity="1.0" stroke="rgb(0,0,0)" stroke-width="2"  />
			<g>
				<title>Radical_SAM (PF04055)
"Radical SAM superfamily"</title>
				<rect class="PF04055" x="1331" y="28" stroke-linejoin="round" width="16" height="24" fill="rgb(223,193,78)" stroke="rgb(178,154,62)" stroke-width="1" opacity="0.75" />
			</g>
			<g>
				<title>B12-binding (PF02310)
"B12 binding domain"</title>
				<rect class="PF02310" x="1354" y="28" stroke-linejoin="round" width="14" height="24" fill="rgb(64,214,216)" stroke="rgb(51,171,172)" stroke-width="1" opacity="0.75" />
			</g>
		</g>
		<g>
			<title>genB2
putative gentamicin aminotransferase II</title>
			<polygon class="genB2
putative gentamicin aminotransferase II" points="1381,25 1392,25 1392,10 1422,40 1392,70 1392,55 1381,55" fill="rgb(255,255,255)" fill-opacity="1.0" stroke="rgb(0,0,0)" stroke-width="2"  />
			<g>
				<title>Aminotran_3 (PF00202)
"Aminotransferase class-III"</title>
				<rect class="PF00202" x="1382" y="28" stroke-linejoin="round" width="12" height="24" fill="rgb(182,63,213)" stroke="rgb(145,50,170)" stroke-width="1" opacity="0.75" />
			</g>
			<g>
				<title>Aminotran_3 (PF00202)
"Aminotransferase class-III"</title>
				<polygon class="PF00202" points="1394,28 1406,28 1416,38 1416,42 1406,52 1394,52" stroke-linejoin="round" width="22" height="24" fill="rgb(182,63,213)" stroke="rgb(145,50,170)" stroke-width="1" opacity="0.75" />
			</g>
		</g>
		<g>
			<title>genX
putative gentamicin production protein</title>
			<polygon class="genX
putative gentamicin production protein" points="1425,40 1442,10 1442,70" fill="rgb(255,255,255)" fill-opacity="1.0" stroke="rgb(0,0,0)" stroke-width="2"  />
			<g>
				<title>DUF664 (PF04978)
"Protein of unknown function (DUF664)"</title>
				<polygon class="PF04978" points="1428,40 1435,28 1439,28 1439,52 1435,52" stroke-linejoin="round" width="14" height="24" fill="rgb(218,86,181)" stroke="rgb(174,68,144)" stroke-width="1" opacity="0.75" />
			</g>
		</g>
		<g>
			<title>genU
putative gentamicin production protein</title>
			<polygon class="genU
putative gentamicin production protein" points="1475,25 1474,25 1474,10 1444,40 1474,70 1474,55 1475,55" fill="rgb(255,255,255)" fill-opacity="1.0" stroke="rgb(0,0,0)" stroke-width="2"  />
			<g>
				<title>WD40 (PF00400)
"WD domain, G-beta repeat"</title>
				<polygon class="PF00400" points="1448,40 1448,40 1448,40" stroke-linejoin="round" width="3" height="24" fill="rgb(219,126,74)" stroke="rgb(175,100,59)" stroke-width="1" opacity="0.75" />
			</g>
			<g>
				<title>WD40 (PF00400)
"WD domain, G-beta repeat"</title>
				<polygon class="PF00400" points="1449,39 1452,36 1452,44 1449,41" stroke-linejoin="round" width="3" height="24" fill="rgb(219,126,74)" stroke="rgb(175,100,59)" stroke-width="1" opacity="0.75" />
			</g>
			<g>
				<title>WD40 (PF00400)
"WD domain, G-beta repeat"</title>
				<polygon class="PF00400" points="1453,35 1456,32 1456,48 1453,45" stroke-linejoin="round" width="3" height="24" fill="rgb(219,126,74)" stroke="rgb(175,100,59)" stroke-width="1" opacity="0.75" />
			</g>
			<g>
				<title>WD40 (PF00400)
"WD domain, G-beta repeat"</title>
				<polygon class="PF00400" points="1457,31 1460,28 1460,28 1460,52 1460,52 1457,49" stroke-linejoin="round" width="3" height="24" fill="rgb(219,126,74)" stroke="rgb(175,100,59)" stroke-width="1" opacity="0.75" />
			</g>
			<g>
				<title>WD40 (PF00400)
"WD domain, G-beta repeat"</title>
				<rect class="PF00400" x="1461" y="28" stroke-linejoin="round" width="3" height="24" fill="rgb(219,126,74)" stroke="rgb(175,100,59)" stroke-width="1" opacity="0.75" />
			</g>
			<g>
				<title>WD40 (PF00400)
"WD domain, G-beta repeat"</title>
				<rect class="PF00400" x="1466" y="28" stroke-linejoin="round" width="3" height="24" fill="rgb(219,126,74)" stroke="rgb(175,100,59)" stroke-width="1" opacity="0.75" />
			</g>
			<g>
				<title>WD40 (PF00400)
"WD domain, G-beta repeat"</title>
				<rect class="PF00400" x="1470" y="28" stroke-linejoin="round" width="3" height="24" fill="rgb(219,126,74)" stroke="rgb(175,100,59)" stroke-width="1" opacity="0.75" />
			</g>
		</g>
		<g>
			<title>genV
putative gentamicin exporter</title>
			<polygon class="genV
putative gentamicin exporter" points="1528,25 1512,25 1512,10 1482,40 1512,70 1512,55 1528,55" fill="rgb(255,255,255)" fill-opacity="1.0" stroke="rgb(0,0,0)" stroke-width="2"  />
			<g>
				<title>MFS_1 (PF07690)
"Major Facilitator Superfamily"</title>
				<polygon class="PF07690" points="1486,40 1498,28 1525,28 1525,52 1498,52 1486,40" stroke-linejoin="round" width="39" height="24" fill="rgb(228,207,98)" stroke="rgb(182,165,78)" stroke-width="1" opacity="0.75" />
			</g>
		</g>
		<g>
			<title>genE
putative aminocyclitol 1-dehydrogenase</title>
			<polygon class="genE
putative aminocyclitol 1-dehydrogenase" points="1572,25 1568,25 1568,10 1538,40 1568,70 1568,55 1572,55" fill="rgb(255,255,255)" fill-opacity="1.0" stroke="rgb(0,0,0)" stroke-width="2"  />
			<g>
				<title>ADH_zinc_N (PF00107)
"Zinc-binding dehydrogenase"</title>
				<polygon class="PF00107" points="1542,40 1554,28 1554,28 1554,52 1554,52 1542,40" stroke-linejoin="round" width="12" height="24" fill="rgb(79,114,198)" stroke="rgb(63,91,158)" stroke-width="1" opacity="0.75" />
			</g>
			<g>
				<title>ADH_N (PF08240)
"Alcohol dehydrogenase GroES-like domain"</title>
				<rect class="PF08240" x="1558" y="28" stroke-linejoin="round" width="10" height="24" fill="rgb(217,198,105)" stroke="rgb(173,158,84)" stroke-width="1" opacity="0.75" />
			</g>
		</g>
		<g>
			<title>genY
putative kation antiporter</title>
			<polygon class="genY
putative kation antiporter" points="1588,25 1608,25 1608,10 1638,40 1608,70 1608,55 1588,55" fill="rgb(255,255,255)" fill-opacity="1.0" stroke="rgb(0,0,0)" stroke-width="2"  />
			<g>
				<title>Na_H_Exchanger (PF00999)
"Sodium/hydrogen exchanger family"</title>
				<polygon class="PF00999" points="1594,28 1622,28 1633,39 1633,41 1622,52 1594,52" stroke-linejoin="round" width="39" height="24" fill="rgb(95,122,202)" stroke="rgb(76,97,161)" stroke-width="1" opacity="0.75" />
			</g>
		</g>
		<g>
			<title>genA
putative gentamicin production protein</title>
			<polygon class="genA
putative gentamicin production protein" points="1643,10 1667,40 1643,70" fill="rgb(255,255,255)" fill-opacity="1.0" stroke="rgb(0,0,0)" stroke-width="2"  />
			<g>
				<title>QueC (PF06508)
"Queuosine biosynthesis protein QueC"</title>
				<polygon class="PF06508" points="1644,28 1654,28 1663,40 1654,52 1644,52" stroke-linejoin="round" width="21" height="24" fill="rgb(186,127,52)" stroke="rgb(148,101,41)" stroke-width="1" opacity="0.75" />
			</g>
		</g>
		<g>
			<title>genF
putative gentamicin production protein</title>
			<polygon class="genF
putative gentamicin production protein" points="1667,10 1688,40 1667,70" fill="rgb(255,255,255)" fill-opacity="1.0" stroke="rgb(0,0,0)" stroke-width="2"  />
		</g>
		<g>
			<title>genG
putative gentamicin production protein</title>
			<polygon class="genG
putative gentamicin production protein" points="1689,10 1700,40 1689,70" fill="rgb(255,255,255)" fill-opacity="1.0" stroke="rgb(0,0,0)" stroke-width="2"  />
			<g>
				<title>PTPS (PF01242)
"6-pyruvoyl tetrahydropterin synthase"</title>
				<polygon class="PF01242" points="1689,28 1692,28 1697,40 1692,52 1689,52" stroke-linejoin="round" width="11" height="24" fill="rgb(60,110,179)" stroke="rgb(47,88,143)" stroke-width="1" opacity="0.75" />
			</g>
		</g>
		<g>
			<title>genH
putative gentamicin exporter</title>
			<polygon class="genH
putative gentamicin exporter" points="1816,25 1733,25 1733,10 1703,40 1733,70 1733,55 1816,55" fill="rgb(255,255,255)" fill-opacity="1.0" stroke="rgb(0,0,0)" stroke-width="2"  />
			<g>
				<title>MFS_1 (PF07690)
"Major Facilitator Superfamily"</title>
				<rect class="PF07690" x="1773" y="28" stroke-linejoin="round" width="39" height="24" fill="rgb(228,207,98)" stroke="rgb(182,165,78)" stroke-width="1" opacity="0.75" />
			</g>
		</g>
		<g>
			<title>genI
putative gentamicin exporter</title>
			<polygon class="genI
putative gentamicin exporter" points="1881,25 1847,25 1847,10 1817,40 1847,70 1847,55 1881,55" fill="rgb(255,255,255)" fill-opacity="1.0" stroke="rgb(0,0,0)" stroke-width="2"  />
		</g>
		<g>
			<title>genT
putative gentamicin production protein</title>
			<polygon class="genT
putative gentamicin production protein" points="1930,25 1929,25 1929,10 1899,40 1929,70 1929,55 1930,55" fill="rgb(255,255,255)" fill-opacity="1.0" stroke="rgb(0,0,0)" stroke-width="2"  />
			<g>
				<title>TP_methylase (PF00590)
"Tetrapyrrole (Corrin/Porphyrin) Methylases"</title>
				<polygon class="PF00590" points="1908,35 1915,28 1928,28 1928,52 1915,52 1908,45" stroke-linejoin="round" width="20" height="24" fill="rgb(178,80,58)" stroke="rgb(142,64,46)" stroke-width="1" opacity="0.75" />
			</g>
		</g>
		<g>
			<title>genD_
putative gentamicin production protein</title>
			<polygon class="genD_
putative gentamicin production protein" points="1947,10 1967,40 1947,70" fill="rgb(255,255,255)" fill-opacity="1.0" stroke="rgb(0,0,0)" stroke-width="2"  />
		</g>
		<g>
			<title>genN
putative gentamicin methyltransferase</title>
			<polygon class="genN
putative gentamicin methyltransferase" points="1967,25 1969,25 1969,10 1999,40 1969,70 1969,55 1967,55" fill="rgb(255,255,255)" fill-opacity="1.0" stroke="rgb(0,0,0)" stroke-width="2"  />
			<g>
				<title>MTS (PF05175)
"Methyltransferase small domain"</title>
				<polygon class="PF05175" points="1978,28 1982,28 1991,37 1991,43 1982,52 1978,52" stroke-linejoin="round" width="13" height="24" fill="rgb(70,94,185)" stroke="rgb(56,75,148)" stroke-width="1" opacity="0.75" />
			</g>
		</g>
		<g>
			<title>
hypothetical protein</title>
			<polygon class="
hypothetical protein" points="2006,40 2022,10 2022,70" fill="rgb(255,255,255)" fill-opacity="1.0" stroke="rgb(0,0,0)" stroke-width="2"  />
			<g>
				<title>PepSY (PF03413)
"Peptidase propeptide and YPEB domain"</title>
				<polygon class="PF03413" points="2009,40 2014,31 2014,49 2009,40" stroke-linejoin="round" width="5" height="24" fill="rgb(203,98,81)" stroke="rgb(162,78,64)" stroke-width="1" opacity="0.75" />
			</g>
		</g>
		<g>
			<title>
putative two-component system histidine kinase</title>
			<polygon class="
putative two-component system histidine kinase" points="2070,25 2057,25 2057,10 2027,40 2057,70 2057,55 2070,55" fill="rgb(255,255,255)" fill-opacity="1.0" stroke="rgb(0,0,0)" stroke-width="2"  />
			<g>
				<title>HATPase_c (PF02518)
"Histidine kinase-, DNA gyrase B-, and HSP90-like ATPase"</title>
				<polygon class="PF02518" points="2031,40 2038,33 2038,47" stroke-linejoin="round" width="11" height="24" fill="rgb(94,146,210)" stroke="rgb(75,116,168)" stroke-width="1" opacity="0.75" />
			</g>
			<g>
				<title>HisKA (PF00512)
"His Kinase A (phospho-acceptor) domain"</title>
				<polygon class="PF00512" points="2043,28 2043,28 2048,28 2048,52 2043,52 2043,52" stroke-linejoin="round" width="5" height="24" fill="rgb(57,81,199)" stroke="rgb(45,64,159)" stroke-width="1" opacity="0.75" />
			</g>
			<g>
				<title>HAMP (PF00672)
"HAMP domain"</title>
				<rect class="PF00672" x="2049" y="28" stroke-linejoin="round" width="5" height="24" fill="rgb(66,193,49)" stroke="rgb(52,154,39)" stroke-width="1" opacity="0.75" />
			</g>
		</g>
		<g>
			<title>
putative two-component system response regulator</title>
			<polygon class="
putative two-component system response regulator" points="2071,40 2094,10 2094,70" fill="rgb(255,255,255)" fill-opacity="1.0" stroke="rgb(0,0,0)" stroke-width="2"  />
			<g>
				<title>Trans_reg_C (PF00486)
"Transcriptional regulatory protein, C terminal"</title>
				<polygon class="PF00486" points="2075,40 2078,36 2078,44" stroke-linejoin="round" width="7" height="24" fill="rgb(69,185,116)" stroke="rgb(55,148,92)" stroke-width="1" opacity="0.75" />
			</g>
			<g>
				<title>Response_reg (PF00072)
"Response regulator receiver domain"</title>
				<polygon class="PF00072" points="2082,31 2084,28 2092,28 2092,52 2084,52 2082,49" stroke-linejoin="round" width="10" height="24" fill="rgb(59,131,198)" stroke="rgb(47,104,158)" stroke-width="1" opacity="0.75" />
			</g>
		</g>
		<g>
			<title>
putatative secreted serine protease</title>
			<polygon class="
putatative secreted serine protease" points="2098,10 2114,40 2098,70" fill="rgb(255,255,255)" fill-opacity="1.0" stroke="rgb(0,0,0)" stroke-width="2"  />
		</g>
		<g>
			<title>
DNA polymerase III, epsilon subunit</title>
			<polygon class="
DNA polymerase III, epsilon subunit" points="2152,25 2144,25 2144,10 2114,40 2144,70 2144,55 2152,55" fill="rgb(255,255,255)" fill-opacity="1.0" stroke="rgb(0,0,0)" stroke-width="2"  />
			<g>
				<title>BRCT (PF00533)
"BRCA1 C Terminus (BRCT) domain"</title>
				<polygon class="PF00533" points="2118,40 2121,37 2121,43" stroke-linejoin="round" width="6" height="24" fill="rgb(78,103,216)" stroke="rgb(62,82,172)" stroke-width="1" opacity="0.75" />
			</g>
			<g>
				<title>RNase_T (PF00929)
"Exonuclease"</title>
				<rect class="PF00929" x="2138" y="28" stroke-linejoin="round" width="13" height="24" fill="rgb(205,171,73)" stroke="rgb(164,136,58)" stroke-width="1" opacity="0.75" />
			</g>
		</g>
		<g>
			<title>
hypothetical protein</title>
			<polygon class="
hypothetical protein" points="2155,40 2176,10 2176,70" fill="rgb(255,255,255)" fill-opacity="1.0" stroke="rgb(0,0,0)" stroke-width="2"  />
			<g>
				<title>DUF6218 (PF19726)
"Family of unknown function (DUF6218)"</title>
				<polygon class="PF19726" points="2159,40 2168,28 2176,28 2176,52 2168,52" stroke-linejoin="round" width="20" height="24" fill="rgb(206,65,183)" stroke="rgb(164,52,146)" stroke-width="1" opacity="0.75" />
			</g>
		</g>
		<g>
			<title>
hypothetical protein</title>
			<polygon class="
hypothetical protein" points="2192,25 2196,25 2196,10 2226,40 2196,70 2196,55 2192,55" fill="rgb(255,255,255)" fill-opacity="1.0" stroke="rgb(0,0,0)" stroke-width="2"  />
		</g>
		<g>
			<title>
hypothetical protein</title>
			<polygon class="
hypothetical protein" points="2231,40 2246,10 2246,70" fill="rgb(255,255,255)" fill-opacity="1.0" stroke="rgb(0,0,0)" stroke-width="2"  />
		</g>
		<g>
			<title>
putative RNA polymerase sigma factor</title>
			<polygon class="
putative RNA polymerase sigma factor" points="2246,40 2267,10 2267,70" fill="rgb(255,255,255)" fill-opacity="1.0" stroke="rgb(0,0,0)" stroke-width="2"  />
			<g>
				<title>Sigma70_r4 (PF04545)
"Sigma-70, region 4"</title>
				<polygon class="PF04545" points="2250,40 2254,35 2254,45" stroke-linejoin="round" width="5" height="24" fill="rgb(85,205,89)" stroke="rgb(68,164,71)" stroke-width="1" opacity="0.75" />
			</g>
			<g>
				<title>Sigma70_r2 (PF04542)
"Sigma-70 region 2"</title>
				<polygon class="PF04542" points="2258,29 2259,28 2264,28 2264,52 2259,52 2258,51" stroke-linejoin="round" width="6" height="24" fill="rgb(66,209,150)" stroke="rgb(52,167,120)" stroke-width="1" opacity="0.75" />
			</g>
		</g>
		<g>
			<title>
putative serine protease, subtilase family</title>
			<polygon class="
putative serine protease, subtilase family" points="2311,25 2298,25 2298,10 2268,40 2298,70 2298,55 2311,55" fill="rgb(255,255,255)" fill-opacity="1.0" stroke="rgb(0,0,0)" stroke-width="2"  />
			<g>
				<title>Peptidase_S8 (PF00082)
"Subtilase family"</title>
				<polygon class="PF00082" points="2272,40 2284,28 2293,28 2293,52 2284,52" stroke-linejoin="round" width="24" height="24" fill="rgb(179,95,73)" stroke="rgb(143,76,58)" stroke-width="1" opacity="0.75" />
			</g>
		</g>
		<g>
			<title>
hypothetical protein</title>
			<polygon class="
hypothetical protein" points="2316,25 2374,25 2374,10 2404,40 2374,70 2374,55 2316,55" fill="rgb(255,255,255)" fill-opacity="1.0" stroke="rgb(0,0,0)" stroke-width="2"  />
			<g>
				<title>CHAT (PF12770)
"CHAT domain"</title>
				<polygon class="PF12770" points="2379,28 2388,28 2400,40 2388,52 2379,52" stroke-linejoin="round" width="24" height="24" fill="rgb(164,89,200)" stroke="rgb(131,71,160)" stroke-width="1" opacity="0.75" />
			</g>
		</g>
		<g>
			<title>
hypothetical protein</title>
			<polygon class="
hypothetical protein" points="2407,40 2423,10 2423,70" fill="rgb(255,255,255)" fill-opacity="1.0" stroke="rgb(0,0,0)" stroke-width="2"  />
		</g>
		<g>
			<title>
hypothetical protein</title>
			<polygon class="
hypothetical protein" points="2427,25 2442,25 2442,10 2472,40 2442,70 2442,55 2427,55" fill="rgb(255,255,255)" fill-opacity="1.0" stroke="rgb(0,0,0)" stroke-width="2"  />
			<g>
				<title>DUF4185 (PF13810)
"Domain of unknown function (DUF4185)"</title>
				<polygon class="PF13810" points="2439,28 2456,28 2468,40 2456,52 2439,52" stroke-linejoin="round" width="32" height="24" fill="rgb(173,69,194)" stroke="rgb(138,55,155)" stroke-width="1" opacity="0.75" />
			</g>
		</g>
		<g>
			<title>
putative glycosyltransferase</title>
			<polygon class="
putative glycosyltransferase" points="2477,10 2489,40 2477,70" fill="rgb(255,255,255)" fill-opacity="1.0" stroke="rgb(0,0,0)" stroke-width="2"  />
		</g>
		<g>
			<title>
hypothetical protein</title>
			<polygon class="
hypothetical protein" points="2498,40 2507,10 2507,70" fill="rgb(255,255,255)" fill-opacity="1.0" stroke="rgb(0,0,0)" stroke-width="2"  />
		</g>
		<g>
			<title>
hypothetical protein</title>
			<polygon class="
hypothetical protein" points="2545,25 2541,25 2541,10 2511,40 2541,70 2541,55 2545,55" fill="rgb(255,255,255)" fill-opacity="1.0" stroke="rgb(0,0,0)" stroke-width="2"  />
		</g>
		<g>
			<title>
putative transcriptional regulator</title>
			<polygon class="
putative transcriptional regulator" points="2552,25 2559,25 2559,10 2589,40 2559,70 2559,55 2552,55" fill="rgb(255,255,255)" fill-opacity="1.0" stroke="rgb(0,0,0)" stroke-width="2"  />
			<g>
				<title>NB-ARC (PF00931)
"NB-ARC domain"</title>
				<polygon class="PF00931" points="2565,28 2573,28 2585,40 2585,40 2573,52 2565,52" stroke-linejoin="round" width="20" height="24" fill="rgb(199,170,84)" stroke="rgb(159,136,67)" stroke-width="1" opacity="0.75" />
			</g>
		</g>
		<g>
			<title>
putative acetyltransferase</title>
			<polygon class="
putative acetyltransferase" points="2591,40 2597,10 2597,70" fill="rgb(255,255,255)" fill-opacity="1.0" stroke="rgb(0,0,0)" stroke-width="2"  />
		</g>
		<g>
			<title>
hypothetical protein</title>
			<polygon class="
hypothetical protein" points="2605,25 2651,25 2651,10 2681,40 2651,70 2651,55 2605,55" fill="rgb(255,255,255)" fill-opacity="1.0" stroke="rgb(0,0,0)" stroke-width="2"  />
			<g>
				<title>Lant_dehydr_N (PF04738)
"Lantibiotic dehydratase, N terminus"</title>
				<rect class="PF04738" x="2615" y="28" stroke-linejoin="round" width="31" height="24" fill="rgb(191,60,69)" stroke="rgb(152,48,55)" stroke-width="1" opacity="0.75" />
			</g>
		</g>
		<g>
			<title>
hypothetical protein</title>
			<polygon class="
hypothetical protein" points="2686,25 2734,25 2734,10 2764,40 2734,70 2734,55 2686,55" fill="rgb(255,255,255)" fill-opacity="1.0" stroke="rgb(0,0,0)" stroke-width="2"  />
			<g>
				<title>Lant_dehydr_N (PF04738)
"Lantibiotic dehydratase, N terminus"</title>
				<rect class="PF04738" x="2695" y="28" stroke-linejoin="round" width="52" height="24" fill="rgb(191,60,69)" stroke="rgb(152,48,55)" stroke-width="1" opacity="0.75" />
			</g>
			<g>
				<title>Lant_dehydr_N (PF04738)
"Lantibiotic dehydratase, N terminus"</title>
				<polygon class="PF04738" points="2750,31 2758,39 2758,41 2750,49" stroke-linejoin="round" width="8" height="24" fill="rgb(191,60,69)" stroke="rgb(152,48,55)" stroke-width="1" opacity="0.75" />
			</g>
		</g>
		<g>
			<title>
putative ATP-binding protein</title>
			<polygon class="
putative ATP-binding protein" points="2764,25 2766,25 2766,10 2796,40 2766,70 2766,55 2764,55" fill="rgb(255,255,255)" fill-opacity="1.0" stroke="rgb(0,0,0)" stroke-width="2"  />
			<g>
				<title>ABC_tran (PF00005)
"ABC transporter"</title>
				<polygon class="PF00005" points="2767,28 2780,28 2781,29 2781,51 2780,52 2767,52" stroke-linejoin="round" width="14" height="24" fill="rgb(46,186,108)" stroke="rgb(36,148,86)" stroke-width="1" opacity="0.75" />
			</g>
		</g>
		<g>
			<title>
putative ABC-transporter, permease component</title>
			<polygon class="
putative ABC-transporter, permease component" points="2797,10 2817,40 2797,70" fill="rgb(255,255,255)" fill-opacity="1.0" stroke="rgb(0,0,0)" stroke-width="2"  />
			<g>
				<title>ABC2_membrane (PF01061)
"ABC-2 type transporter"</title>
				<polygon class="PF01061" points="2799,28 2805,28 2813,40 2805,52 2799,52" stroke-linejoin="round" width="17" height="24" fill="rgb(91,137,194)" stroke="rgb(72,109,155)" stroke-width="1" opacity="0.75" />
			</g>
		</g>
	</g>
</svg>
