<svg version="1.1" baseProfile="full" xmlns="http://www.w3.org/2000/svg" width="1325.0333333333333" height="80">
	<g>
		<line x1="10" y1="40.0" x2="1315.0333333333333" y2="40.0" style="stroke:rgb(70,70,70); stroke-width:3 "/>
		<g>
			<title>
putative AfsR regulatory protein</title>
			<polygon class="
putative AfsR regulatory protein" points="122,25 115,25 115,10 85,40 115,70 115,55 122,55" fill="rgb(255,255,255)" fill-opacity="1.0" stroke="rgb(0,0,0)" stroke-width="2"  />
			<g>
				<title>NB-ARC (PF00931)
"NB-ARC domain"</title>
				<polygon class="PF00931" points="91,38 101,28 112,28 112,52 101,52 91,42" stroke-linejoin="round" width="21" height="24" fill="rgb(199,170,84)" stroke="rgb(159,136,67)" stroke-width="1" opacity="0.75" />
			</g>
			<g>
				<title>HTH_31 (PF13560)
"Helix-turn-helix domain"</title>
				<rect class="PF13560" x="115" y="28" stroke-linejoin="round" width="6" height="24" fill="rgb(109,58,189)" stroke="rgb(87,46,151)" stroke-width="1" opacity="0.75" />
			</g>
		</g>
		<g>
			<title>
putative p-hydroxybenzoate hydroxylase</title>
			<polygon class="
putative p-hydroxybenzoate hydroxylase" points="173,25 163,25 163,10 133,40 163,70 163,55 173,55" fill="rgb(255,255,255)" fill-opacity="1.0" stroke="rgb(0,0,0)" stroke-width="2"  />
			<g>
				<title>FAD_binding_3 (PF01494)
"FAD binding domain"</title>
				<polygon class="PF01494" points="138,39 149,28 172,28 172,52 149,52 138,41" stroke-linejoin="round" width="34" height="24" fill="rgb(215,66,156)" stroke="rgb(172,52,124)" stroke-width="1" opacity="0.75" />
			</g>
		</g>
		<g>
			<title>
putative regulatory protein</title>
			<polygon class="
putative regulatory protein" points="186,25 188,25 188,10 218,40 188,70 188,55 186,55" fill="rgb(255,255,255)" fill-opacity="1.0" stroke="rgb(0,0,0)" stroke-width="2"  />
			<g>
				<title>ParBc (PF02195)
"ParB/Sulfiredoxin domain"</title>
				<rect class="PF02195" x="189" y="28" stroke-linejoin="round" width="7" height="24" fill="rgb(109,68,205)" stroke="rgb(87,54,164)" stroke-width="1" opacity="0.75" />
			</g>
		</g>
		<g>
			<title>
putative chorismate lyase</title>
			<polygon class="
putative chorismate lyase" points="225,10 242,40 225,70" fill="rgb(255,255,255)" fill-opacity="1.0" stroke="rgb(0,0,0)" stroke-width="2"  />
		</g>
		<g>
			<title>
putative mannose dehydratase</title>
			<polygon class="
putative mannose dehydratase" points="243,25 248,25 248,10 278,40 248,70 248,55 243,55" fill="rgb(255,255,255)" fill-opacity="1.0" stroke="rgb(0,0,0)" stroke-width="2"  />
			<g>
				<title>GDP_Man_Dehyd (PF16363)
"GDP-mannose 4,6 dehydratase"</title>
				<polygon class="PF16363" points="243,28 262,28 274,40 274,40 262,52 243,52" stroke-linejoin="round" width="31" height="24" fill="rgb(50,144,195)" stroke="rgb(40,115,156)" stroke-width="1" opacity="0.75" />
			</g>
		</g>
		<g>
			<title>
putative methyltransferase</title>
			<polygon class="
putative methyltransferase" points="288,10 313,40 288,70" fill="rgb(255,255,255)" fill-opacity="1.0" stroke="rgb(0,0,0)" stroke-width="2"  />
			<g>
				<title>Methyltransf_21 (PF05050)
"Methyltransferase FkbM domain"</title>
				<polygon class="PF05050" points="291,28 299,28 307,38 307,42 299,52 291,52" stroke-linejoin="round" width="16" height="24" fill="rgb(141,93,211)" stroke="rgb(112,74,168)" stroke-width="1" opacity="0.75" />
			</g>
		</g>
		<g>
			<title>
unknown</title>
			<polygon class="
unknown" points="312,25 340,25 340,10 370,40 340,70 340,55 312,55" fill="rgb(255,255,255)" fill-opacity="1.0" stroke="rgb(0,0,0)" stroke-width="2"  />
			<g>
				<title>Amidohydro_3 (PF07969)
"Amidohydrolase family"</title>
				<polygon class="PF07969" points="316,28 353,28 365,40 353,52 316,52" stroke-linejoin="round" width="51" height="24" fill="rgb(218,99,185)" stroke="rgb(174,79,148)" stroke-width="1" opacity="0.75" />
			</g>
		</g>
		<g>
			<title>
putative aminotransferase</title>
			<polygon class="
putative aminotransferase" points="373,25 384,25 384,10 414,40 384,70 384,55 373,55" fill="rgb(255,255,255)" fill-opacity="1.0" stroke="rgb(0,0,0)" stroke-width="2"  />
			<g>
				<title>Aminotran_3 (PF00202)
"Aminotransferase class-III"</title>
				<rect class="PF00202" x="377" y="28" stroke-linejoin="round" width="11" height="24" fill="rgb(182,63,213)" stroke="rgb(145,50,170)" stroke-width="1" opacity="0.75" />
			</g>
			<g>
				<title>Aminotran_3 (PF00202)
"Aminotransferase class-III"</title>
				<polygon class="PF00202" points="390,28 397,28 409,40 397,52 390,52" stroke-linejoin="round" width="23" height="24" fill="rgb(182,63,213)" stroke="rgb(145,50,170)" stroke-width="1" opacity="0.75" />
			</g>
		</g>
		<g>
			<title>
putative acyl carrier protein</title>
			<polygon class="
putative acyl carrier protein" points="414,10 422,40 414,70" fill="rgb(255,255,255)" fill-opacity="1.0" stroke="rgb(0,0,0)" stroke-width="2"  />
			<g>
				<title>PP-binding (PF00550)
"Phosphopantetheine attachment site"</title>
				<polygon class="PF00550" points="414,28 415,28 419,40 415,52 414,52" stroke-linejoin="round" width="7" height="24" fill="rgb(181,58,166)" stroke="rgb(144,46,132)" stroke-width="1" opacity="0.75" />
			</g>
		</g>
		<g>
			<title>
putative beta-ketoacyl synthase 1</title>
			<polygon class="
putative beta-ketoacyl synthase 1" points="423,25 430,25 430,10 460,40 430,70 430,55 423,55" fill="rgb(255,255,255)" fill-opacity="1.0" stroke="rgb(0,0,0)" stroke-width="2"  />
			<g>
				<title>ketoacyl-synt (PF00109)
"Beta-ketoacyl synthase, N-terminal domain"</title>
				<rect class="PF00109" x="432" y="28" stroke-linejoin="round" width="11" height="24" fill="rgb(74,179,82)" stroke="rgb(59,143,65)" stroke-width="1" opacity="0.75" />
			</g>
			<g>
				<title>Ketoacyl-synt_C (PF02801)
"Beta-ketoacyl synthase, C-terminal domain"</title>
				<polygon class="PF02801" points="445,29 456,40 456,40 445,51" stroke-linejoin="round" width="11" height="24" fill="rgb(212,79,72)" stroke="rgb(169,63,57)" stroke-width="1" opacity="0.75" />
			</g>
		</g>
		<g>
			<title>
unknown</title>
			<polygon class="
unknown" points="461,10 486,40 461,70" fill="rgb(255,255,255)" fill-opacity="1.0" stroke="rgb(0,0,0)" stroke-width="2"  />
		</g>
		<g>
			<title>
putative Co-A ligase</title>
			<polygon class="
putative Co-A ligase" points="486,25 501,25 501,10 531,40 501,70 501,55 486,55" fill="rgb(255,255,255)" fill-opacity="1.0" stroke="rgb(0,0,0)" stroke-width="2"  />
			<g>
				<title>AMP-binding (PF00501)
"AMP-binding enzyme"</title>
				<rect class="PF00501" x="487" y="28" stroke-linejoin="round" width="10" height="24" fill="rgb(189,78,204)" stroke="rgb(151,62,163)" stroke-width="1" opacity="0.75" />
			</g>
			<g>
				<title>AMP-binding (PF00501)
"AMP-binding enzyme"</title>
				<polygon class="PF00501" points="497,28 514,28 515,29 515,51 514,52 497,52" stroke-linejoin="round" width="18" height="24" fill="rgb(189,78,204)" stroke="rgb(151,62,163)" stroke-width="1" opacity="0.75" />
			</g>
			<g>
				<title>AMP-binding_C (PF13193)
"AMP-binding enzyme C-terminal domain"</title>
				<polygon class="PF13193" points="522,36 526,40 522,44" stroke-linejoin="round" width="7" height="24" fill="rgb(195,82,106)" stroke="rgb(156,65,84)" stroke-width="1" opacity="0.75" />
			</g>
		</g>
		<g>
			<title>
putative acyl carrier protein</title>
			<polygon class="
putative acyl carrier protein" points="533,10 542,40 533,70" fill="rgb(255,255,255)" fill-opacity="1.0" stroke="rgb(0,0,0)" stroke-width="2"  />
			<g>
				<title>PP-binding (PF00550)
"Phosphopantetheine attachment site"</title>
				<polygon class="PF00550" points="534,28 535,28 539,40 535,52 534,52" stroke-linejoin="round" width="6" height="24" fill="rgb(181,58,166)" stroke="rgb(144,46,132)" stroke-width="1" opacity="0.75" />
			</g>
		</g>
		<g>
			<title>
putative 3-hydroyacyl ACP dehydratase</title>
			<polygon class="
putative 3-hydroyacyl ACP dehydratase" points="543,25 547,25 547,10 577,40 547,70 547,55 543,55" fill="rgb(255,255,255)" fill-opacity="1.0" stroke="rgb(0,0,0)" stroke-width="2"  />
		</g>
		<g>
			<title>
putative 3-ketoacyl ACP reductase</title>
			<polygon class="
putative 3-ketoacyl ACP reductase" points="577,10 602,40 577,70" fill="rgb(255,255,255)" fill-opacity="1.0" stroke="rgb(0,0,0)" stroke-width="2"  />
			<g>
				<title>adh_short_C2 (PF13561)
"Enoyl-(Acyl carrier protein) reductase"</title>
				<polygon class="PF13561" points="579,28 588,28 598,40 588,52 579,52" stroke-linejoin="round" width="23" height="24" fill="rgb(79,221,209)" stroke="rgb(63,176,167)" stroke-width="1" opacity="0.75" />
			</g>
		</g>
		<g>
			<title>
putative glycosyltransferase</title>
			<polygon class="
putative glycosyltransferase" points="603,25 616,25 616,10 646,40 616,70 616,55 603,55" fill="rgb(255,255,255)" fill-opacity="1.0" stroke="rgb(0,0,0)" stroke-width="2"  />
			<g>
				<title>EryCIII-like_C (PF06722)
"Erythromycin biosynthesis protein CIII-like, C-terminal domain"</title>
				<polygon class="PF06722" points="630,29 638,37 638,43 630,51" stroke-linejoin="round" width="8" height="24" fill="rgb(48,103,191)" stroke="rgb(38,82,152)" stroke-width="1" opacity="0.75" />
			</g>
		</g>
		<g>
			<title>
putative myo-inositol dehydrogenase</title>
			<polygon class="
putative myo-inositol dehydrogenase" points="646,25 649,25 649,10 679,40 649,70 649,55 646,55" fill="rgb(255,255,255)" fill-opacity="1.0" stroke="rgb(0,0,0)" stroke-width="2"  />
			<g>
				<title>GFO_IDH_MocA (PF01408)
"Oxidoreductase family, NAD-binding Rossmann fold"</title>
				<rect class="PF01408" x="646" y="28" stroke-linejoin="round" width="11" height="24" fill="rgb(53,193,178)" stroke="rgb(42,154,142)" stroke-width="1" opacity="0.75" />
			</g>
			<g>
				<title>GFO_IDH_MocA_C (PF02894)
"Oxidoreductase family, C-terminal alpha/beta domain"</title>
				<polygon class="PF02894" points="659,28 662,28 674,40 662,52 659,52" stroke-linejoin="round" width="19" height="24" fill="rgb(89,185,176)" stroke="rgb(71,148,140)" stroke-width="1" opacity="0.75" />
			</g>
		</g>
		<g>
			<title>
putative myo-inositol-1-phosphate synthase</title>
			<polygon class="
putative myo-inositol-1-phosphate synthase" points="683,25 689,25 689,10 719,40 689,70 689,55 683,55" fill="rgb(255,255,255)" fill-opacity="1.0" stroke="rgb(0,0,0)" stroke-width="2"  />
			<g>
				<title>Inos-1-P_synth (PF01658)
"Myo-inositol-1-phosphate synthase"</title>
				<polygon class="PF01658" points="702,28 703,28 712,37 712,43 703,52 702,52" stroke-linejoin="round" width="10" height="24" fill="rgb(135,203,83)" stroke="rgb(108,162,66)" stroke-width="1" opacity="0.75" />
			</g>
		</g>
		<g>
			<title>
putative transmembrane protein</title>
			<polygon class="
putative transmembrane protein" points="721,25 732,25 732,10 762,40 732,70 732,55 721,55" fill="rgb(255,255,255)" fill-opacity="1.0" stroke="rgb(0,0,0)" stroke-width="2"  />
			<g>
				<title>MFS_3 (PF05977)
"Transmembrane secretion effector"</title>
				<polygon class="PF05977" points="721,28 746,28 758,40 746,52 721,52" stroke-linejoin="round" width="40" height="24" fill="rgb(75,61,221)" stroke="rgb(60,48,176)" stroke-width="1" opacity="0.75" />
			</g>
		</g>
		<g>
			<title>
putative transglucosylase</title>
			<polygon class="
putative transglucosylase" points="763,25 770,25 770,10 800,40 770,70 770,55 763,55" fill="rgb(255,255,255)" fill-opacity="1.0" stroke="rgb(0,0,0)" stroke-width="2"  />
			<g>
				<title>RGP (PF03214)
"Reversibly glycosylated polypeptide"</title>
				<polygon class="PF03214" points="763,28 783,28 795,40 783,52 763,52" stroke-linejoin="round" width="36" height="24" fill="rgb(89,190,158)" stroke="rgb(71,152,126)" stroke-width="1" opacity="0.75" />
			</g>
		</g>
		<g>
			<title>
putative phosphotransferase</title>
			<polygon class="
putative phosphotransferase" points="802,40 820,10 820,70" fill="rgb(255,255,255)" fill-opacity="1.0" stroke="rgb(0,0,0)" stroke-width="2"  />
			<g>
				<title>AAA_33 (PF13671)
"AAA domain"</title>
				<polygon class="PF13671" points="806,40 813,28 818,28 818,52 813,52" stroke-linejoin="round" width="14" height="24" fill="rgb(168,199,76)" stroke="rgb(134,159,60)" stroke-width="1" opacity="0.75" />
			</g>
		</g>
		<g>
			<title>
putative acyltransferase</title>
			<polygon class="
putative acyltransferase" points="830,25 839,25 839,10 869,40 839,70 839,55 830,55" fill="rgb(255,255,255)" fill-opacity="1.0" stroke="rgb(0,0,0)" stroke-width="2"  />
			<g>
				<title>Acyl_transf_1 (PF00698)
"Acyl transferase domain"</title>
				<polygon class="PF00698" points="835,28 852,28 864,40 852,52 835,52" stroke-linejoin="round" width="31" height="24" fill="rgb(132,93,193)" stroke="rgb(105,74,154)" stroke-width="1" opacity="0.75" />
			</g>
		</g>
		<g>
			<title>
putative fucose synthase</title>
			<polygon class="
putative fucose synthase" points="869,25 871,25 871,10 901,40 871,70 871,55 869,55" fill="rgb(255,255,255)" fill-opacity="1.0" stroke="rgb(0,0,0)" stroke-width="2"  />
			<g>
				<title>Epimerase (PF01370)
"NAD dependent epimerase/dehydratase family"</title>
				<polygon class="PF01370" points="870,28 885,28 893,36 893,44 885,52 870,52" stroke-linejoin="round" width="23" height="24" fill="rgb(215,89,157)" stroke="rgb(172,71,125)" stroke-width="1" opacity="0.75" />
			</g>
		</g>
		<g>
			<title>
unknown</title>
			<polygon class="
unknown" points="902,40 930,10 930,70" fill="rgb(255,255,255)" fill-opacity="1.0" stroke="rgb(0,0,0)" stroke-width="2"  />
			<g>
				<title>MaoC_dehydratas (PF01575)
"MaoC like domain"</title>
				<polygon class="PF01575" points="906,40 914,32 914,48" stroke-linejoin="round" width="11" height="24" fill="rgb(86,84,223)" stroke="rgb(68,67,178)" stroke-width="1" opacity="0.75" />
			</g>
		</g>
		<g>
			<title>
putative myo-inositol-1-phosphatase</title>
			<polygon class="
putative myo-inositol-1-phosphatase" points="935,10 956,40 935,70" fill="rgb(255,255,255)" fill-opacity="1.0" stroke="rgb(0,0,0)" stroke-width="2"  />
			<g>
				<title>Hydrolase (PF00702)
"haloacid dehalogenase-like hydrolase"</title>
				<polygon class="PF00702" points="935,28 944,28 952,40 944,52 935,52" stroke-linejoin="round" width="18" height="24" fill="rgb(133,222,86)" stroke="rgb(106,177,68)" stroke-width="1" opacity="0.75" />
			</g>
		</g>
		<g>
			<title>
putative short chain dehydrogenase</title>
			<polygon class="
putative short chain dehydrogenase" points="957,40 984,10 984,70" fill="rgb(255,255,255)" fill-opacity="1.0" stroke="rgb(0,0,0)" stroke-width="2"  />
			<g>
				<title>adh_short (PF00106)
"short chain dehydrogenase"</title>
				<polygon class="PF00106" points="962,39 972,28 982,28 982,52 972,52 962,41" stroke-linejoin="round" width="20" height="24" fill="rgb(128,81,196)" stroke="rgb(102,64,156)" stroke-width="1" opacity="0.75" />
			</g>
		</g>
		<g>
			<title>
putative DAHP synthase</title>
			<polygon class="
putative DAHP synthase" points="1000,25 1010,25 1010,10 1040,40 1010,70 1010,55 1000,55" fill="rgb(255,255,255)" fill-opacity="1.0" stroke="rgb(0,0,0)" stroke-width="2"  />
			<g>
				<title>DAHP_synth_2 (PF01474)
"Class-II DAHP synthetase family"</title>
				<rect class="PF01474" x="1000" y="28" stroke-linejoin="round" width="16" height="24" fill="rgb(57,77,225)" stroke="rgb(45,61,180)" stroke-width="1" opacity="0.75" />
			</g>
			<g>
				<title>DAHP_synth_2 (PF01474)
"Class-II DAHP synthetase family"</title>
				<polygon class="PF01474" points="1016,28 1023,28 1035,40 1023,52 1016,52" stroke-linejoin="round" width="22" height="24" fill="rgb(57,77,225)" stroke="rgb(45,61,180)" stroke-width="1" opacity="0.75" />
			</g>
		</g>
		<g>
			<title>
putative ABC transporter</title>
			<polygon class="
putative ABC transporter" points="1043,25 1070,25 1070,10 1100,40 1070,70 1070,55 1043,55" fill="rgb(255,255,255)" fill-opacity="1.0" stroke="rgb(0,0,0)" stroke-width="2"  />
			<g>
				<title>ABC_tran (PF00005)
"ABC transporter"</title>
				<rect class="PF00005" x="1045" y="28" stroke-linejoin="round" width="16" height="24" fill="rgb(46,186,108)" stroke="rgb(36,148,86)" stroke-width="1" opacity="0.75" />
			</g>
			<g>
				<title>ABC_tran (PF00005)
"ABC transporter"</title>
				<polygon class="PF00005" points="1079,28 1083,28 1092,37 1092,43 1083,52 1079,52" stroke-linejoin="round" width="13" height="24" fill="rgb(46,186,108)" stroke="rgb(36,148,86)" stroke-width="1" opacity="0.75" />
			</g>
		</g>
		<g>
			<title>
putative methyltransferase</title>
			<polygon class="
putative methyltransferase" points="1135,25 1128,25 1128,10 1098,40 1128,70 1128,55 1135,55" fill="rgb(255,255,255)" fill-opacity="1.0" stroke="rgb(0,0,0)" stroke-width="2"  />
			<g>
				<title>PCMT (PF01135)
"Protein-L-isoaspartate(D-aspartate) O-methyltransferase (PCMT)"</title>
				<polygon class="PF01135" points="1113,29 1114,28 1131,28 1131,52 1114,52 1113,51" stroke-linejoin="round" width="18" height="24" fill="rgb(162,204,68)" stroke="rgb(129,163,54)" stroke-width="1" opacity="0.75" />
			</g>
		</g>
	</g>
</svg>
