<svg version="1.1" baseProfile="full" xmlns="http://www.w3.org/2000/svg" width="227.56666666666666" height="80">
	<g>
		<line x1="10" y1="40.0" x2="217.56666666666666" y2="40.0" style="stroke:rgb(70,70,70); stroke-width:3 "/>
		<g>
			<title>crtW
beta-carotene ketolase</title>
			<polygon class="crtW
beta-carotene ketolase" points="22,10 46,40 22,70" fill="rgb(255,255,255)" fill-opacity="1.0" stroke="rgb(0,0,0)" stroke-width="2"  />
			<g>
				<title>FA_desaturase (PF00487)
"Fatty acid desaturase"</title>
				<polygon class="PF00487" points="25,28 33,28 35,31 35,49 33,52 25,52" stroke-linejoin="round" width="10" height="24" fill="rgb(91,208,91)" stroke="rgb(72,166,72)" stroke-width="1" opacity="0.75" />
			</g>
			<g>
				<title>FA_desaturase (PF00487)
"Fatty acid desaturase"</title>
				<polygon class="PF00487" points="35,31 42,40 35,49" stroke-linejoin="round" width="10" height="24" fill="rgb(91,208,91)" stroke="rgb(72,166,72)" stroke-width="1" opacity="0.75" />
			</g>
		</g>
		<g>
			<title>crtZ
beta-carotene hydroxylase</title>
			<polygon class="crtZ
beta-carotene hydroxylase" points="47,10 63,40 47,70" fill="rgb(255,255,255)" fill-opacity="1.0" stroke="rgb(0,0,0)" stroke-width="2"  />
			<g>
				<title>FA_hydroxylase (PF04116)
"Fatty acid hydroxylase"</title>
				<polygon class="PF04116" points="47,28 53,28 59,40 53,52 47,52" stroke-linejoin="round" width="13" height="24" fill="rgb(54,190,140)" stroke="rgb(43,152,112)" stroke-width="1" opacity="0.75" />
			</g>
		</g>
		<g>
			<title>crtY
lycopene cyclase</title>
			<polygon class="crtY
lycopene cyclase" points="63,25 71,25 71,10 101,40 71,70 71,55 63,55" fill="rgb(255,255,255)" fill-opacity="1.0" stroke="rgb(0,0,0)" stroke-width="2"  />
			<g>
				<title>Lycopene_cycl (PF05834)
"Lycopene cyclase protein"</title>
				<polygon class="PF05834" points="63,28 85,28 97,40 85,52 63,52" stroke-linejoin="round" width="37" height="24" fill="rgb(198,210,104)" stroke="rgb(158,168,83)" stroke-width="1" opacity="0.75" />
			</g>
		</g>
		<g>
			<title>crtI
phytoene desaturase</title>
			<polygon class="crtI
phytoene desaturase" points="101,25 121,25 121,10 151,40 121,70 121,55 101,55" fill="rgb(255,255,255)" fill-opacity="1.0" stroke="rgb(0,0,0)" stroke-width="2"  />
			<g>
				<title>Amino_oxidase (PF01593)
"Flavin containing amine oxidoreductase"</title>
				<polygon class="PF01593" points="102,28 134,28 146,40 134,52 102,52" stroke-linejoin="round" width="47" height="24" fill="rgb(95,189,207)" stroke="rgb(76,151,165)" stroke-width="1" opacity="0.75" />
			</g>
		</g>
		<g>
			<title>crtB
phytoene synthase</title>
			<polygon class="crtB
phytoene synthase" points="151,25 151,25 151,10 181,40 151,70 151,55 151,55" fill="rgb(255,255,255)" fill-opacity="1.0" stroke="rgb(0,0,0)" stroke-width="2"  />
			<g>
				<title>SQS_PSY (PF00494)
"Squalene/phytoene synthase"</title>
				<polygon class="PF00494" points="152,28 165,28 177,40 177,40 165,52 152,52" stroke-linejoin="round" width="25" height="24" fill="rgb(149,199,81)" stroke="rgb(119,159,64)" stroke-width="1" opacity="0.75" />
			</g>
		</g>
		<g>
			<title>crtE
geranylgeranyl diphosphate synthase</title>
			<polygon class="crtE
geranylgeranyl diphosphate synthase" points="182,40 211,10 211,70" fill="rgb(255,255,255)" fill-opacity="1.0" stroke="rgb(0,0,0)" stroke-width="2"  />
			<g>
				<title>polyprenyl_synt (PF00348)
"Polyprenyl synthetase"</title>
				<polygon class="PF00348" points="186,40 198,28 207,28 207,52 198,52" stroke-linejoin="round" width="25" height="24" fill="rgb(216,200,102)" stroke="rgb(172,160,81)" stroke-width="1" opacity="0.75" />
			</g>
		</g>
	</g>
</svg>
