<svg version="1.1" baseProfile="full" xmlns="http://www.w3.org/2000/svg" width="164.9" height="80">
	<g>
		<line x1="10" y1="40.0" x2="154.9" y2="40.0" style="stroke:rgb(70,70,70); stroke-width:3 "/>
		<g>
			<title>ectA
L-2,4-diaminobutyric acid acetyltransferase</title>
			<polygon class="ectA
L-2,4-diaminobutyric acid acetyltransferase" points="27,10 44,40 27,70" fill="rgb(255,255,255)" fill-opacity="1.0" stroke="rgb(0,0,0)" stroke-width="2"  />
			<g>
				<title>Acetyltransf_1 (PF00583)
"Acetyltransferase (GNAT) family"</title>
				<polygon class="PF00583" points="29,28 33,28 40,40 40,40 33,52 29,52" stroke-linejoin="round" width="11" height="24" fill="rgb(91,221,217)" stroke="rgb(72,176,173)" stroke-width="1" opacity="0.75" />
			</g>
		</g>
		<g>
			<title>ectB
L-2,4-diaminobutyrate aminotransferase</title>
			<polygon class="ectB
L-2,4-diaminobutyrate aminotransferase" points="46,25 60,25 60,10 90,40 60,70 60,55 46,55" fill="rgb(255,255,255)" fill-opacity="1.0" stroke="rgb(0,0,0)" stroke-width="2"  />
			<g>
				<title>Aminotran_3 (PF00202)
"Aminotransferase class-III"</title>
				<polygon class="PF00202" points="47,28 74,28 86,40 74,52 47,52" stroke-linejoin="round" width="40" height="24" fill="rgb(182,63,213)" stroke="rgb(145,50,170)" stroke-width="1" opacity="0.75" />
			</g>
		</g>
		<g>
			<title>ectC
ectoine synthase</title>
			<polygon class="ectC
ectoine synthase" points="93,10 106,40 93,70" fill="rgb(255,255,255)" fill-opacity="1.0" stroke="rgb(0,0,0)" stroke-width="2"  />
			<g>
				<title>Ectoine_synth (PF06339)
"Ectoine synthase"</title>
				<polygon class="PF06339" points="93,28 97,28 103,40 97,52 93,52" stroke-linejoin="round" width="12" height="24" fill="rgb(216,166,88)" stroke="rgb(172,132,70)" stroke-width="1" opacity="0.75" />
			</g>
		</g>
		<g>
			<title>ask
aspartokinase</title>
			<polygon class="ask
aspartokinase" points="111,25 124,25 124,10 154,40 124,70 124,55 111,55" fill="rgb(255,255,255)" fill-opacity="1.0" stroke="rgb(0,0,0)" stroke-width="2"  />
			<g>
				<title>AA_kinase (PF00696)
"Amino acid kinase family"</title>
				<polygon class="PF00696" points="111,28 138,28 140,30 140,50 138,52 111,52" stroke-linejoin="round" width="29" height="24" fill="rgb(72,198,168)" stroke="rgb(57,158,134)" stroke-width="1" opacity="0.75" />
			</g>
		</g>
	</g>
</svg>
