<svg version="1.1" baseProfile="full" xmlns="http://www.w3.org/2000/svg" width="424.93333333333334" height="80">
	<g>
		<line x1="10" y1="40.0" x2="414.93333333333334" y2="40.0" style="stroke:rgb(70,70,70); stroke-width:3 "/>
		<g>
			<title>
putative regulatory protein</title>
			<polygon class="
putative regulatory protein" points="119,25 41,25 41,10 11,40 41,70 41,55 119,55" fill="rgb(255,255,255)" fill-opacity="1.0" stroke="rgb(0,0,0)" stroke-width="2"  />
			<g>
				<title>TPR_MalT (PF17874)
"MalT-like TPR region"</title>
				<rect class="PF17874" x="37" y="28" stroke-linejoin="round" width="15" height="24" fill="rgb(82,47,183)" stroke="rgb(65,37,146)" stroke-width="1" opacity="0.75" />
			</g>
			<g>
				<title>AAA_16 (PF13191)
"AAA ATPase domain"</title>
				<rect class="PF13191" x="81" y="28" stroke-linejoin="round" width="15" height="24" fill="rgb(88,106,197)" stroke="rgb(70,84,157)" stroke-width="1" opacity="0.75" />
			</g>
		</g>
		<g>
			<title>
cypemycin structural protein</title>
			<polygon class="
cypemycin structural protein" points="139,10 145,40 139,70" fill="rgb(255,255,255)" fill-opacity="1.0" stroke="rgb(0,0,0)" stroke-width="2"  />
		</g>
		<g>
			<title>
hypothetical protein</title>
			<polygon class="
hypothetical protein" points="149,25 177,25 177,10 207,40 177,70 177,55 149,55" fill="rgb(255,255,255)" fill-opacity="1.0" stroke="rgb(0,0,0)" stroke-width="2"  />
			<g>
				<title>Abhydrolase_6 (PF12697)
"Alpha/beta hydrolase family"</title>
				<polygon class="PF12697" points="183,28 191,28 203,40 191,52 183,52" stroke-linejoin="round" width="23" height="24" fill="rgb(87,73,196)" stroke="rgb(69,58,156)" stroke-width="1" opacity="0.75" />
			</g>
		</g>
		<g>
			<title>
unknown</title>
			<polygon class="
unknown" points="207,10 225,40 207,70" fill="rgb(255,255,255)" fill-opacity="1.0" stroke="rgb(0,0,0)" stroke-width="2"  />
		</g>
		<g>
			<title>
HFCD family decarboxylase</title>
			<polygon class="
HFCD family decarboxylase" points="226,10 245,40 226,70" fill="rgb(255,255,255)" fill-opacity="1.0" stroke="rgb(0,0,0)" stroke-width="2"  />
			<g>
				<title>Flavoprotein (PF02441)
"Flavoprotein"</title>
				<polygon class="PF02441" points="226,28 233,28 241,40 233,52 226,52" stroke-linejoin="round" width="17" height="24" fill="rgb(103,178,79)" stroke="rgb(82,142,63)" stroke-width="1" opacity="0.75" />
			</g>
		</g>
		<g>
			<title>
SAM-dependent methyltransferase</title>
			<polygon class="
SAM-dependent methyltransferase" points="245,10 269,40 245,70" fill="rgb(255,255,255)" fill-opacity="1.0" stroke="rgb(0,0,0)" stroke-width="2"  />
			<g>
				<title>Methyltransf_25 (PF13649)
"Methyltransferase domain"</title>
				<polygon class="PF13649" points="249,28 256,28 258,31 258,49 256,52 249,52" stroke-linejoin="round" width="9" height="24" fill="rgb(224,103,106)" stroke="rgb(179,82,84)" stroke-width="1" opacity="0.75" />
			</g>
		</g>
		<g>
			<title>
ABC transporter ATP binding subunit</title>
			<polygon class="
ABC transporter ATP binding subunit" points="269,10 290,40 269,70" fill="rgb(255,255,255)" fill-opacity="1.0" stroke="rgb(0,0,0)" stroke-width="2"  />
			<g>
				<title>ABC_tran (PF00005)
"ABC transporter"</title>
				<polygon class="PF00005" points="271,28 278,28 285,38 285,42 278,52 271,52" stroke-linejoin="round" width="14" height="24" fill="rgb(46,186,108)" stroke="rgb(36,148,86)" stroke-width="1" opacity="0.75" />
			</g>
		</g>
		<g>
			<title>
putative transmembrane pore</title>
			<polygon class="
putative transmembrane pore" points="290,25 311,25 311,10 341,40 311,70 311,55 290,55" fill="rgb(255,255,255)" fill-opacity="1.0" stroke="rgb(0,0,0)" stroke-width="2"  />
		</g>
		<g>
			<title>
DUF255 family protein</title>
			<polygon class="
DUF255 family protein" points="345,25 382,25 382,10 412,40 382,70 382,55 345,55" fill="rgb(255,255,255)" fill-opacity="1.0" stroke="rgb(0,0,0)" stroke-width="2"  />
			<g>
				<title>Thioredox_DsbH (PF03190)
"Protein of unknown function, DUF255"</title>
				<rect class="PF03190" x="345" y="28" stroke-linejoin="round" width="16" height="24" fill="rgb(182,152,51)" stroke="rgb(145,121,40)" stroke-width="1" opacity="0.75" />
			</g>
		</g>
	</g>
</svg>
