<svg version="1.1" baseProfile="full" xmlns="http://www.w3.org/2000/svg" width="674.1333333333333" height="80">
	<g>
		<line x1="10" y1="40.0" x2="664.1333333333333" y2="40.0" style="stroke:rgb(70,70,70); stroke-width:3 "/>
		<g>
			<title>paaZ (PGA1_262p00800)
phenylacetic acid degradation protein PaaZ</title>
			<polygon class="paaZ (PGA1_262p00800)
phenylacetic acid degradation protein PaaZ" points="10,25 51,25 51,10 81,40 51,70 51,55 10,55" fill="rgb(255,255,255)" fill-opacity="1.0" stroke="rgb(0,0,0)" stroke-width="2"  />
			<g>
				<title>Aldedh (PF00171)
"Aldehyde dehydrogenase family"</title>
				<rect class="PF00171" x="12" y="28" stroke-linejoin="round" width="44" height="24" fill="rgb(180,140,83)" stroke="rgb(144,112,66)" stroke-width="1" opacity="0.75" />
			</g>
			<g>
				<title>MaoC_dehydratas (PF01575)
"MaoC like domain"</title>
				<polygon class="PF01575" points="63,28 64,28 74,38 74,42 64,52 63,52" stroke-linejoin="round" width="11" height="24" fill="rgb(86,84,223)" stroke="rgb(68,67,178)" stroke-width="1" opacity="0.75" />
			</g>
		</g>
		<g>
			<title>tdaF (PGA1_262p00810)
putative flavoprotein, HFCD family</title>
			<polygon class="tdaF (PGA1_262p00810)
putative flavoprotein, HFCD family" points="82,10 101,40 82,70" fill="rgb(255,255,255)" fill-opacity="1.0" stroke="rgb(0,0,0)" stroke-width="2"  />
			<g>
				<title>Flavoprotein (PF02441)
"Flavoprotein"</title>
				<polygon class="PF02441" points="82,28 89,28 97,40 89,52 82,52" stroke-linejoin="round" width="17" height="24" fill="rgb(103,178,79)" stroke="rgb(82,142,63)" stroke-width="1" opacity="0.75" />
			</g>
		</g>
		<g>
			<title> (PGA1_262p00820)
hypothetical protein</title>
			<polygon class=" (PGA1_262p00820)
hypothetical protein" points="103,40 117,10 117,70" fill="rgb(255,255,255)" fill-opacity="1.0" stroke="rgb(0,0,0)" stroke-width="2"  />
		</g>
		<g>
			<title> (PGA1_262p00830)
hypothetical protein</title>
			<polygon class=" (PGA1_262p00830)
hypothetical protein" points="153,25 148,25 148,10 118,40 148,70 148,55 153,55" fill="rgb(255,255,255)" fill-opacity="1.0" stroke="rgb(0,0,0)" stroke-width="2"  />
		</g>
		<g>
			<title> (PGA1_262p00840)
hypothetical protein</title>
			<polygon class=" (PGA1_262p00840)
hypothetical protein" points="201,25 187,25 187,10 157,40 187,70 187,55 201,55" fill="rgb(255,255,255)" fill-opacity="1.0" stroke="rgb(0,0,0)" stroke-width="2"  />
		</g>
		<g>
			<title> (PGA1_262p00850)
putative sodium dependent symporter</title>
			<polygon class=" (PGA1_262p00850)
putative sodium dependent symporter" points="253,25 235,25 235,10 205,40 235,70 235,55 253,55" fill="rgb(255,255,255)" fill-opacity="1.0" stroke="rgb(0,0,0)" stroke-width="2"  />
			<g>
				<title>Na_sulph_symp (PF00939)
"Sodium:sulfate symporter transmembrane region"</title>
				<polygon class="PF00939" points="209,40 221,28 250,28 250,52 221,52" stroke-linejoin="round" width="45" height="24" fill="rgb(221,70,129)" stroke="rgb(176,56,103)" stroke-width="1" opacity="0.75" />
			</g>
		</g>
		<g>
			<title> (PGA1_262p00860)
hypothetical protein</title>
			<polygon class=" (PGA1_262p00860)
hypothetical protein" points="264,10 279,40 264,70" fill="rgb(255,255,255)" fill-opacity="1.0" stroke="rgb(0,0,0)" stroke-width="2"  />
			<g>
				<title>TrmO (PF01980)
"tRNA-methyltransferase O"</title>
				<polygon class="PF01980" points="267,28 269,28 275,40 269,52 267,52" stroke-linejoin="round" width="11" height="24" fill="rgb(61,175,222)" stroke="rgb(48,140,177)" stroke-width="1" opacity="0.75" />
			</g>
		</g>
		<g>
			<title> (PGA1_262p00870)
ABC transporter, extracellular solute-binding protein</title>
			<polygon class=" (PGA1_262p00870)
ABC transporter, extracellular solute-binding protein" points="280,25 303,25 303,10 333,40 303,70 303,55 280,55" fill="rgb(255,255,255)" fill-opacity="1.0" stroke="rgb(0,0,0)" stroke-width="2"  />
			<g>
				<title>SBP_bac_5 (PF00496)
"Bacterial extracellular solute-binding proteins, family 5 Middle"</title>
				<polygon class="PF00496" points="288,28 317,28 324,35 324,45 317,52 288,52" stroke-linejoin="round" width="36" height="24" fill="rgb(178,74,116)" stroke="rgb(142,59,92)" stroke-width="1" opacity="0.75" />
			</g>
		</g>
		<g>
			<title> (PGA1_262p00880)
ABC transporter, integral inner membrane component</title>
			<polygon class=" (PGA1_262p00880)
ABC transporter, integral inner membrane component" points="334,25 338,25 338,10 368,40 338,70 338,55 334,55" fill="rgb(255,255,255)" fill-opacity="1.0" stroke="rgb(0,0,0)" stroke-width="2"  />
			<g>
				<title>BPD_transp_1 (PF00528)
"Binding-protein-dependent transport system inner membrane component"</title>
				<polygon class="PF00528" points="348,28 352,28 364,40 352,52 348,52" stroke-linejoin="round" width="20" height="24" fill="rgb(167,188,50)" stroke="rgb(133,150,40)" stroke-width="1" opacity="0.75" />
			</g>
		</g>
		<g>
			<title> (PGA1_262p00890)
ABC transporter, integral inner membrane component</title>
			<polygon class=" (PGA1_262p00890)
ABC transporter, integral inner membrane component" points="369,10 396,40 369,70" fill="rgb(255,255,255)" fill-opacity="1.0" stroke="rgb(0,0,0)" stroke-width="2"  />
		</g>
		<g>
			<title> (PGA1_262p00900)
ABC transporter, ATP-binding protein</title>
			<polygon class=" (PGA1_262p00900)
ABC transporter, ATP-binding protein" points="396,25 415,25 415,10 445,40 415,70 415,55 396,55" fill="rgb(255,255,255)" fill-opacity="1.0" stroke="rgb(0,0,0)" stroke-width="2"  />
			<g>
				<title>ABC_tran (PF00005)
"ABC transporter"</title>
				<rect class="PF00005" x="397" y="28" stroke-linejoin="round" width="16" height="24" fill="rgb(46,186,108)" stroke="rgb(36,148,86)" stroke-width="1" opacity="0.75" />
			</g>
			<g>
				<title>ABC_tran (PF00005)
"ABC transporter"</title>
				<polygon class="PF00005" points="424,28 429,28 439,38 439,42 429,52 424,52" stroke-linejoin="round" width="15" height="24" fill="rgb(46,186,108)" stroke="rgb(36,148,86)" stroke-width="1" opacity="0.75" />
			</g>
		</g>
		<g>
			<title> (PGA1_262p00910)
putative cation transort protein</title>
			<polygon class=" (PGA1_262p00910)
putative cation transort protein" points="445,40 463,10 463,70" fill="rgb(255,255,255)" fill-opacity="1.0" stroke="rgb(0,0,0)" stroke-width="2"  />
			<g>
				<title>ChaC (PF04752)
"ChaC-like protein"</title>
				<polygon class="PF04752" points="449,40 456,28 463,28 463,52 456,52" stroke-linejoin="round" width="17" height="24" fill="rgb(46,143,185)" stroke="rgb(36,114,148)" stroke-width="1" opacity="0.75" />
			</g>
		</g>
		<g>
			<title> (PGA1_262p00920)
conserved hypothetical protein, peptidase M23-like protein</title>
			<polygon class=" (PGA1_262p00920)
conserved hypothetical protein, peptidase M23-like protein" points="467,40 489,10 489,70" fill="rgb(255,255,255)" fill-opacity="1.0" stroke="rgb(0,0,0)" stroke-width="2"  />
			<g>
				<title>Peptidase_M23 (PF01551)
"Peptidase family M23"</title>
				<polygon class="PF01551" points="471,40 478,31 478,49" stroke-linejoin="round" width="9" height="24" fill="rgb(201,103,54)" stroke="rgb(160,82,43)" stroke-width="1" opacity="0.75" />
			</g>
		</g>
		<g>
			<title> (PGA1_262p00930)
hypothetical protein</title>
			<polygon class=" (PGA1_262p00930)
hypothetical protein" points="490,40 509,10 509,70" fill="rgb(255,255,255)" fill-opacity="1.0" stroke="rgb(0,0,0)" stroke-width="2"  />
		</g>
		<g>
			<title>tdaE (PGA1_262p00940)
acyl-CoA dehydrogenase TdaE</title>
			<polygon class="tdaE (PGA1_262p00940)
acyl-CoA dehydrogenase TdaE" points="549,25 540,25 540,10 510,40 540,70 540,55 549,55" fill="rgb(255,255,255)" fill-opacity="1.0" stroke="rgb(0,0,0)" stroke-width="2"  />
			<g>
				<title>Acyl-CoA_dh_1 (PF00441)
"Acyl-CoA dehydrogenase, C-terminal domain"</title>
				<polygon class="PF00441" points="514,40 526,28 526,28 526,52 526,52" stroke-linejoin="round" width="14" height="24" fill="rgb(96,175,206)" stroke="rgb(76,139,164)" stroke-width="1" opacity="0.75" />
			</g>
			<g>
				<title>Acyl-CoA_dh_M (PF02770)
"Acyl-CoA dehydrogenase, middle domain"</title>
				<rect class="PF02770" x="528" y="28" stroke-linejoin="round" width="9" height="24" fill="rgb(58,129,192)" stroke="rgb(46,103,153)" stroke-width="1" opacity="0.75" />
			</g>
			<g>
				<title>Acyl-CoA_dh_N (PF02771)
"Acyl-CoA dehydrogenase, N-terminal domain"</title>
				<rect class="PF02771" x="538" y="28" stroke-linejoin="round" width="11" height="24" fill="rgb(104,198,213)" stroke="rgb(83,158,170)" stroke-width="1" opacity="0.75" />
			</g>
		</g>
		<g>
			<title>tdaD (PGA1_262p00950)
thioesterase superfamily protein TdaD</title>
			<polygon class="tdaD (PGA1_262p00950)
thioesterase superfamily protein TdaD" points="551,40 564,10 564,70" fill="rgb(255,255,255)" fill-opacity="1.0" stroke="rgb(0,0,0)" stroke-width="2"  />
			<g>
				<title>4HBT_2 (PF13279)
"Thioesterase-like superfamily"</title>
				<polygon class="PF13279" points="554,40 560,28 562,28 562,52 560,52" stroke-linejoin="round" width="11" height="24" fill="rgb(108,104,213)" stroke="rgb(86,83,170)" stroke-width="1" opacity="0.75" />
			</g>
		</g>
		<g>
			<title>tdaC (PGA1_262p00960)
prephenate dehydratase TdaC-like protein</title>
			<polygon class="tdaC (PGA1_262p00960)
prephenate dehydratase TdaC-like protein" points="566,40 586,10 586,70" fill="rgb(255,255,255)" fill-opacity="1.0" stroke="rgb(0,0,0)" stroke-width="2"  />
		</g>
		<g>
			<title>tdaB (PGA1_262p00970)
putative beta etherase TdaB</title>
			<polygon class="tdaB (PGA1_262p00970)
putative beta etherase TdaB" points="603,40 626,10 626,70" fill="rgb(255,255,255)" fill-opacity="1.0" stroke="rgb(0,0,0)" stroke-width="2"  />
			<g>
				<title>GST_C (PF00043)
"Glutathione S-transferase, C-terminal domain"</title>
				<polygon class="PF00043" points="607,40 614,31 614,49" stroke-linejoin="round" width="10" height="24" fill="rgb(111,184,77)" stroke="rgb(88,147,61)" stroke-width="1" opacity="0.75" />
			</g>
			<g>
				<title>GST_N_3 (PF13417)
"Glutathione S-transferase, N-terminal domain"</title>
				<rect class="PF13417" x="617" y="28" stroke-linejoin="round" width="7" height="24" fill="rgb(171,66,186)" stroke="rgb(136,52,148)" stroke-width="1" opacity="0.75" />
			</g>
		</g>
		<g>
			<title>tdaA (PGA1_262p00980)
transcriptional regulator, LysR family</title>
			<polygon class="tdaA (PGA1_262p00980)
transcriptional regulator, LysR family" points="634,40 663,10 663,70" fill="rgb(255,255,255)" fill-opacity="1.0" stroke="rgb(0,0,0)" stroke-width="2"  />
			<g>
				<title>LysR_substrate (PF03466)
"LysR substrate binding domain"</title>
				<polygon class="PF03466" points="638,40 650,28 654,28 654,52 650,52" stroke-linejoin="round" width="20" height="24" fill="rgb(214,62,213)" stroke="rgb(171,49,170)" stroke-width="1" opacity="0.75" />
			</g>
			<g>
				<title>HTH_1 (PF00126)
"Bacterial regulatory helix-turn-helix protein, lysR family"</title>
				<rect class="PF00126" x="657" y="28" stroke-linejoin="round" width="5" height="24" fill="rgb(72,163,212)" stroke="rgb(57,130,169)" stroke-width="1" opacity="0.75" />
			</g>
		</g>
	</g>
</svg>
