<svg version="1.1" baseProfile="full" xmlns="http://www.w3.org/2000/svg" width="530.4333333333334" height="80">
	<g>
		<line x1="10" y1="40.0" x2="520.4333333333334" y2="40.0" style="stroke:rgb(70,70,70); stroke-width:3 "/>
		<g>
			<title>slvF
putative lantibiotic transport ATP-binding protein SlvF</title>
			<polygon class="slvF
putative lantibiotic transport ATP-binding protein SlvF" points="10,10 32,40 10,70" fill="rgb(255,255,255)" fill-opacity="1.0" stroke="rgb(0,0,0)" stroke-width="2"  />
			<g>
				<title>ABC_tran (PF00005)
"ABC transporter"</title>
				<polygon class="PF00005" points="11,28 20,28 24,34 24,46 20,52 11,52" stroke-linejoin="round" width="13" height="24" fill="rgb(46,186,108)" stroke="rgb(36,148,86)" stroke-width="1" opacity="0.75" />
			</g>
		</g>
		<g>
			<title>slvE
putative lantibiotic transport membrane protein SlvE</title>
			<polygon class="slvE
putative lantibiotic transport membrane protein SlvE" points="32,10 56,40 32,70" fill="rgb(255,255,255)" fill-opacity="1.0" stroke="rgb(0,0,0)" stroke-width="2"  />
		</g>
		<g>
			<title>slvG
putative lantibiotic transport protein SlvG</title>
			<polygon class="slvG
putative lantibiotic transport protein SlvG" points="56,10 77,40 56,70" fill="rgb(255,255,255)" fill-opacity="1.0" stroke="rgb(0,0,0)" stroke-width="2"  />
		</g>
		<g>
			<title>
transposase</title>
			<polygon class="
transposase" points="104,10 133,40 104,70" fill="rgb(255,255,255)" fill-opacity="1.0" stroke="rgb(0,0,0)" stroke-width="2"  />
			<g>
				<title>DUF772 (PF05598)
"Transposase domain (DUF772)"</title>
				<rect class="PF05598" x="106" y="28" stroke-linejoin="round" width="7" height="24" fill="rgb(160,53,193)" stroke="rgb(128,42,154)" stroke-width="1" opacity="0.75" />
			</g>
			<g>
				<title>DDE_Tnp_1 (PF01609)
"Transposase DDE domain"</title>
				<polygon class="PF01609" points="123,34 129,40 123,46" stroke-linejoin="round" width="9" height="24" fill="rgb(71,226,221)" stroke="rgb(56,180,176)" stroke-width="1" opacity="0.75" />
			</g>
		</g>
		<g>
			<title>slvK
putative sensor histidine kinase SlvK</title>
			<polygon class="slvK
putative sensor histidine kinase SlvK" points="200,25 186,25 186,10 156,40 186,70 186,55 200,55" fill="rgb(255,255,255)" fill-opacity="1.0" stroke="rgb(0,0,0)" stroke-width="2"  />
			<g>
				<title>HATPase_c (PF02518)
"Histidine kinase-, DNA gyrase B-, and HSP90-like ATPase"</title>
				<polygon class="PF02518" points="160,40 166,34 166,46" stroke-linejoin="round" width="10" height="24" fill="rgb(94,146,210)" stroke="rgb(75,116,168)" stroke-width="1" opacity="0.75" />
			</g>
			<g>
				<title>HisKA (PF00512)
"His Kinase A (phospho-acceptor) domain"</title>
				<polygon class="PF00512" points="171,29 172,28 177,28 177,52 172,52 171,51" stroke-linejoin="round" width="6" height="24" fill="rgb(57,81,199)" stroke="rgb(45,64,159)" stroke-width="1" opacity="0.75" />
			</g>
		</g>
		<g>
			<title>slvR
putative response regulator SlvR</title>
			<polygon class="slvR
putative response regulator SlvR" points="200,40 222,10 222,70" fill="rgb(255,255,255)" fill-opacity="1.0" stroke="rgb(0,0,0)" stroke-width="2"  />
			<g>
				<title>Trans_reg_C (PF00486)
"Transcriptional regulatory protein, C terminal"</title>
				<polygon class="PF00486" points="204,40 207,36 207,44" stroke-linejoin="round" width="7" height="24" fill="rgb(69,185,116)" stroke="rgb(55,148,92)" stroke-width="1" opacity="0.75" />
			</g>
			<g>
				<title>Response_reg (PF00072)
"Response regulator receiver domain"</title>
				<polygon class="PF00072" points="211,31 213,28 221,28 221,52 213,52 211,49" stroke-linejoin="round" width="10" height="24" fill="rgb(59,131,198)" stroke="rgb(47,104,158)" stroke-width="1" opacity="0.75" />
			</g>
		</g>
		<g>
			<title>slvP
putative serine protease SlvP</title>
			<polygon class="slvP
putative serine protease SlvP" points="275,25 252,25 252,10 222,40 252,70 252,55 275,55" fill="rgb(255,255,255)" fill-opacity="1.0" stroke="rgb(0,0,0)" stroke-width="2"  />
			<g>
				<title>Peptidase_S8 (PF00082)
"Subtilase family"</title>
				<polygon class="PF00082" points="232,34 238,28 263,28 263,52 238,52 232,46" stroke-linejoin="round" width="31" height="24" fill="rgb(179,95,73)" stroke="rgb(143,76,58)" stroke-width="1" opacity="0.75" />
			</g>
		</g>
		<g>
			<title>slvI
putative immunity protein SlvI</title>
			<polygon class="slvI
putative immunity protein SlvI" points="276,40 300,10 300,70" fill="rgb(255,255,255)" fill-opacity="1.0" stroke="rgb(0,0,0)" stroke-width="2"  />
			<g>
				<title>Spa1_C (PF18218)
"Lantibiotic immunity protein Spa1 C-terminal domain"</title>
				<polygon class="PF18218" points="280,40 285,34 285,46" stroke-linejoin="round" width="9" height="24" fill="rgb(96,228,150)" stroke="rgb(76,182,120)" stroke-width="1" opacity="0.75" />
			</g>
		</g>
		<g>
			<title>slvC
putative lantibiotic cyclase SlvC</title>
			<polygon class="slvC
putative lantibiotic cyclase SlvC" points="341,25 331,25 331,10 301,40 331,70 331,55 341,55" fill="rgb(255,255,255)" fill-opacity="1.0" stroke="rgb(0,0,0)" stroke-width="2"  />
			<g>
				<title>LANC_like (PF05147)
"Lanthionine synthetase C-like protein"</title>
				<polygon class="PF05147" points="305,40 317,28 338,28 338,52 317,52" stroke-linejoin="round" width="37" height="24" fill="rgb(91,189,96)" stroke="rgb(72,151,76)" stroke-width="1" opacity="0.75" />
			</g>
		</g>
		<g>
			<title>slvT
putative ABC transporter SlvT</title>
			<polygon class="slvT
putative ABC transporter SlvT" points="401,25 370,25 370,10 340,40 370,70 370,55 401,55" fill="rgb(255,255,255)" fill-opacity="1.0" stroke="rgb(0,0,0)" stroke-width="2"  />
			<g>
				<title>ABC_tran (PF00005)
"ABC transporter"</title>
				<polygon class="PF00005" points="349,35 356,28 364,28 364,52 356,52 349,45" stroke-linejoin="round" width="15" height="24" fill="rgb(46,186,108)" stroke="rgb(36,148,86)" stroke-width="1" opacity="0.75" />
			</g>
		</g>
		<g>
			<title>slvB
putative lantibiotic dehydratase SlvB</title>
			<polygon class="slvB
putative lantibiotic dehydratase SlvB" points="500,25 432,25 432,10 402,40 432,70 432,55 500,55" fill="rgb(255,255,255)" fill-opacity="1.0" stroke="rgb(0,0,0)" stroke-width="2"  />
			<g>
				<title>Lant_dehydr_C (PF14028)
"Lantibiotic biosynthesis dehydratase C-term"</title>
				<polygon class="PF14028" points="406,40 418,28 426,28 426,52 418,52" stroke-linejoin="round" width="24" height="24" fill="rgb(195,82,58)" stroke="rgb(156,65,46)" stroke-width="1" opacity="0.75" />
			</g>
			<g>
				<title>Lant_dehydr_N (PF04738)
"Lantibiotic dehydratase, N terminus"</title>
				<rect class="PF04738" x="434" y="28" stroke-linejoin="round" width="62" height="24" fill="rgb(191,60,69)" stroke="rgb(152,48,55)" stroke-width="1" opacity="0.75" />
			</g>
		</g>
		<g>
			<title>slvN
putative lantibiotic SlvN</title>
			<polygon class="slvN
putative lantibiotic SlvN" points="504,40 509,10 509,70" fill="rgb(255,255,255)" fill-opacity="1.0" stroke="rgb(0,0,0)" stroke-width="2"  />
		</g>
		<g>
			<title>slvD
salivaricin D</title>
			<polygon class="slvD
salivaricin D" points="514,40 519,10 519,70" fill="rgb(255,255,255)" fill-opacity="1.0" stroke="rgb(0,0,0)" stroke-width="2"  />
			<g>
				<title>Gallidermin (PF02052)
"Gallidermin"</title>
				<polygon class="PF02052" points="517,40 518,35 518,45" stroke-linejoin="round" width="3" height="24" fill="rgb(114,55,200)" stroke="rgb(91,44,160)" stroke-width="1" opacity="0.75" />
			</g>
		</g>
	</g>
</svg>
