<svg version="1.1" baseProfile="full" xmlns="http://www.w3.org/2000/svg" width="876.2" height="80">
	<g>
		<line x1="10" y1="40.0" x2="866.2" y2="40.0" style="stroke:rgb(70,70,70); stroke-width:3 "/>
		<g>
			<title> (lomo17)
transcriptional regulator</title>
			<polygon class=" (lomo17)
transcriptional regulator" points="43,25 40,25 40,10 10,40 40,70 40,55 43,55" fill="rgb(255,255,255)" fill-opacity="1.0" stroke="rgb(0,0,0)" stroke-width="2"  />
			<g>
				<title>AsnC_trans_reg (PF01037)
"Lrp/AsnC ligand binding domain"</title>
				<polygon class="PF01037" points="14,40 18,36 18,44" stroke-linejoin="round" width="7" height="24" fill="rgb(104,228,202)" stroke="rgb(83,182,161)" stroke-width="1" opacity="0.75" />
			</g>
			<g>
				<title>HTH_AsnC-type (PF13404)
"AsnC-type helix-turn-helix domain"</title>
				<polygon class="PF13404" points="21,33 25,29 25,51 21,47" stroke-linejoin="round" width="4" height="24" fill="rgb(114,75,220)" stroke="rgb(91,60,176)" stroke-width="1" opacity="0.75" />
			</g>
			<g>
				<title>HTH_AsnC-type (PF13404)
"AsnC-type helix-turn-helix domain"</title>
				<rect class="PF13404" x="39" y="28" stroke-linejoin="round" width="4" height="24" fill="rgb(114,75,220)" stroke="rgb(91,60,176)" stroke-width="1" opacity="0.75" />
			</g>
		</g>
		<g>
			<title> (lomo16)
aldehyde dehydrogenase</title>
			<polygon class=" (lomo16)
aldehyde dehydrogenase" points="90,25 77,25 77,10 47,40 77,70 77,55 90,55" fill="rgb(255,255,255)" fill-opacity="1.0" stroke="rgb(0,0,0)" stroke-width="2"  />
			<g>
				<title>Aldedh (PF00171)
"Aldehyde dehydrogenase family"</title>
				<polygon class="PF00171" points="51,40 63,28 88,28 88,52 63,52" stroke-linejoin="round" width="40" height="24" fill="rgb(180,140,83)" stroke="rgb(144,112,66)" stroke-width="1" opacity="0.75" />
			</g>
		</g>
		<g>
			<title> (lomo15)
phenazine antibiotic biosynthesis protein</title>
			<polygon class=" (lomo15)
phenazine antibiotic biosynthesis protein" points="128,25 124,25 124,10 94,40 124,70 124,55 128,55" fill="rgb(255,255,255)" fill-opacity="1.0" stroke="rgb(0,0,0)" stroke-width="2"  />
		</g>
		<g>
			<title> (lomo14)
alcohol dehydrogenase</title>
			<polygon class=" (lomo14)
alcohol dehydrogenase" points="162,25 161,25 161,10 131,40 161,70 161,55 162,55" fill="rgb(255,255,255)" fill-opacity="1.0" stroke="rgb(0,0,0)" stroke-width="2"  />
			<g>
				<title>ADH_zinc_N (PF00107)
"Zinc-binding dehydrogenase"</title>
				<polygon class="PF00107" points="135,40 147,28 148,28 148,52 147,52" stroke-linejoin="round" width="14" height="24" fill="rgb(79,114,198)" stroke="rgb(63,91,158)" stroke-width="1" opacity="0.75" />
			</g>
			<g>
				<title>ADH_N_2 (PF16884)
"N-terminal domain of oxidoreductase"</title>
				<rect class="PF16884" x="153" y="28" stroke-linejoin="round" width="9" height="24" fill="rgb(225,66,194)" stroke="rgb(180,52,155)" stroke-width="1" opacity="0.75" />
			</g>
		</g>
		<g>
			<title> (lomo13)
transporter</title>
			<polygon class=" (lomo13)
transporter" points="179,25 197,25 197,10 227,40 197,70 197,55 179,55" fill="rgb(255,255,255)" fill-opacity="1.0" stroke="rgb(0,0,0)" stroke-width="2"  />
			<g>
				<title>MFS_1 (PF07690)
"Major Facilitator Superfamily"</title>
				<rect class="PF07690" x="181" y="28" stroke-linejoin="round" width="18" height="24" fill="rgb(228,207,98)" stroke="rgb(182,165,78)" stroke-width="1" opacity="0.75" />
			</g>
			<g>
				<title>MFS_1 (PF07690)
"Major Facilitator Superfamily"</title>
				<polygon class="PF07690" points="199,28 211,28 220,37 220,43 211,52 199,52" stroke-linejoin="round" width="21" height="24" fill="rgb(228,207,98)" stroke="rgb(182,165,78)" stroke-width="1" opacity="0.75" />
			</g>
		</g>
		<g>
			<title> (lomo12)
transcriptional regulator</title>
			<polygon class=" (lomo12)
transcriptional regulator" points="264,25 260,25 260,10 230,40 260,70 260,55 264,55" fill="rgb(255,255,255)" fill-opacity="1.0" stroke="rgb(0,0,0)" stroke-width="2"  />
			<g>
				<title>AsnC_trans_reg (PF01037)
"Lrp/AsnC ligand binding domain"</title>
				<polygon class="PF01037" points="234,40 239,35 239,45" stroke-linejoin="round" width="7" height="24" fill="rgb(104,228,202)" stroke="rgb(83,182,161)" stroke-width="1" opacity="0.75" />
			</g>
			<g>
				<title>HTH_AsnC-type (PF13404)
"AsnC-type helix-turn-helix domain"</title>
				<polygon class="PF13404" points="242,32 246,28 246,28 246,52 246,52 242,48" stroke-linejoin="round" width="4" height="24" fill="rgb(114,75,220)" stroke="rgb(91,60,176)" stroke-width="1" opacity="0.75" />
			</g>
			<g>
				<title>HTH_AsnC-type (PF13404)
"AsnC-type helix-turn-helix domain"</title>
				<rect class="PF13404" x="259" y="28" stroke-linejoin="round" width="4" height="24" fill="rgb(114,75,220)" stroke="rgb(91,60,176)" stroke-width="1" opacity="0.75" />
			</g>
		</g>
		<g>
			<title> (lomo11)
methyltransferase</title>
			<polygon class=" (lomo11)
methyltransferase" points="275,10 302,40 275,70" fill="rgb(255,255,255)" fill-opacity="1.0" stroke="rgb(0,0,0)" stroke-width="2"  />
			<g>
				<title>LCM (PF04072)
"Leucine carboxyl methyltransferase"</title>
				<polygon class="PF04072" points="275,28 286,28 292,34 292,46 286,52 275,52" stroke-linejoin="round" width="17" height="24" fill="rgb(154,184,47)" stroke="rgb(123,147,37)" stroke-width="1" opacity="0.75" />
			</g>
		</g>
		<g>
			<title> (lomo10)
FAD-binding monooxygenase</title>
			<polygon class=" (lomo10)
FAD-binding monooxygenase" points="316,25 330,25 330,10 360,40 330,70 330,55 316,55" fill="rgb(255,255,255)" fill-opacity="1.0" stroke="rgb(0,0,0)" stroke-width="2"  />
		</g>
		<g>
			<title> (lomo9)
acyl-CoA dehydrogenase</title>
			<polygon class=" (lomo9)
acyl-CoA dehydrogenase" points="371,25 376,25 376,10 406,40 376,70 376,55 371,55" fill="rgb(255,255,255)" fill-opacity="1.0" stroke="rgb(0,0,0)" stroke-width="2"  />
			<g>
				<title>Acyl-CoA_dh_2 (PF08028)
"Acyl-CoA dehydrogenase, C-terminal domain"</title>
				<polygon class="PF08028" points="390,28 390,28 402,40 390,52 390,52" stroke-linejoin="round" width="13" height="24" fill="rgb(61,169,203)" stroke="rgb(48,135,162)" stroke-width="1" opacity="0.75" />
			</g>
		</g>
		<g>
			<title>lphzB
phenazine biosynthesis protein</title>
			<polygon class="lphzB
phenazine biosynthesis protein" points="408,10 424,40 408,70" fill="rgb(255,255,255)" fill-opacity="1.0" stroke="rgb(0,0,0)" stroke-width="2"  />
			<g>
				<title>PHZA_PHZB (PF03284)
"Phenazine biosynthesis protein A/B"</title>
				<polygon class="PF03284" points="408,28 414,28 420,40 414,52 408,52" stroke-linejoin="round" width="15" height="24" fill="rgb(97,186,70)" stroke="rgb(77,148,56)" stroke-width="1" opacity="0.75" />
			</g>
		</g>
		<g>
			<title>lphzC
phenazine biosynthesis protein</title>
			<polygon class="lphzC
phenazine biosynthesis protein" points="429,25 435,25 435,10 465,40 435,70 435,55 429,55" fill="rgb(255,255,255)" fill-opacity="1.0" stroke="rgb(0,0,0)" stroke-width="2"  />
			<g>
				<title>DAHP_synth_2 (PF01474)
"Class-II DAHP synthetase family"</title>
				<rect class="PF01474" x="429" y="28" stroke-linejoin="round" width="14" height="24" fill="rgb(57,77,225)" stroke="rgb(45,61,180)" stroke-width="1" opacity="0.75" />
			</g>
			<g>
				<title>DAHP_synth_2 (PF01474)
"Class-II DAHP synthetase family"</title>
				<polygon class="PF01474" points="444,28 449,28 461,40 449,52 444,52" stroke-linejoin="round" width="21" height="24" fill="rgb(57,77,225)" stroke="rgb(45,61,180)" stroke-width="1" opacity="0.75" />
			</g>
		</g>
		<g>
			<title>lphzD
phenazine biosynthesis protein</title>
			<polygon class="lphzD
phenazine biosynthesis protein" points="478,10 489,40 478,70" fill="rgb(255,255,255)" fill-opacity="1.0" stroke="rgb(0,0,0)" stroke-width="2"  />
			<g>
				<title>Isochorismatase (PF00857)
"Isochorismatase family"</title>
				<polygon class="PF00857" points="478,28 481,28 485,40 481,52 478,52" stroke-linejoin="round" width="10" height="24" fill="rgb(82,216,163)" stroke="rgb(65,172,130)" stroke-width="1" opacity="0.75" />
			</g>
		</g>
		<g>
			<title>lphzE
2-amino-2-deoxy-isochorismate synthase PhzE</title>
			<polygon class="lphzE
2-amino-2-deoxy-isochorismate synthase PhzE" points="493,25 522,25 522,10 552,40 522,70 522,55 493,55" fill="rgb(255,255,255)" fill-opacity="1.0" stroke="rgb(0,0,0)" stroke-width="2"  />
			<g>
				<title>Chorismate_bind (PF00425)
"chorismate binding enzyme"</title>
				<rect class="PF00425" x="502" y="28" stroke-linejoin="round" width="26" height="24" fill="rgb(126,181,77)" stroke="rgb(100,144,61)" stroke-width="1" opacity="0.75" />
			</g>
			<g>
				<title>GATase (PF00117)
"Glutamine amidotransferase class-I"</title>
				<polygon class="PF00117" points="533,28 536,28 548,40 536,52 533,52" stroke-linejoin="round" width="18" height="24" fill="rgb(54,118,198)" stroke="rgb(43,94,158)" stroke-width="1" opacity="0.75" />
			</g>
		</g>
		<g>
			<title>lphzF
2,3-dihydro-3-hydroxyanthranilateisomerase</title>
			<polygon class="lphzF
2,3-dihydro-3-hydroxyanthranilateisomerase" points="564,10 591,40 564,70" fill="rgb(255,255,255)" fill-opacity="1.0" stroke="rgb(0,0,0)" stroke-width="2"  />
			<g>
				<title>PhzC-PhzF (PF02567)
"Phenazine biosynthesis-like protein"</title>
				<polygon class="PF02567" points="564,28 576,28 587,40 576,52 564,52" stroke-linejoin="round" width="26" height="24" fill="rgb(81,190,161)" stroke="rgb(64,152,128)" stroke-width="1" opacity="0.75" />
			</g>
		</g>
		<g>
			<title>lphzG
FMN-dependent oxidase</title>
			<polygon class="lphzG
FMN-dependent oxidase" points="592,10 613,40 592,70" fill="rgb(255,255,255)" fill-opacity="1.0" stroke="rgb(0,0,0)" stroke-width="2"  />
			<g>
				<title>Putative_PNPOx (PF01243)
"Pyridoxamine 5'-phosphate oxidase"</title>
				<polygon class="PF01243" points="595,28 601,28 603,31 603,49 601,52 595,52" stroke-linejoin="round" width="8" height="24" fill="rgb(187,127,57)" stroke="rgb(149,101,45)" stroke-width="1" opacity="0.75" />
			</g>
			<g>
				<title>PNP_phzG_C (PF10590)
"Pyridoxine 5'-phosphate oxidase C-terminal dimerisation region"</title>
				<polygon class="PF10590" points="609,40 609,40 609,40" stroke-linejoin="round" width="4" height="24" fill="rgb(58,189,132)" stroke="rgb(46,151,105)" stroke-width="1" opacity="0.75" />
			</g>
		</g>
		<g>
			<title> (lomo8)
flavin reductase</title>
			<polygon class=" (lomo8)
flavin reductase" points="617,10 633,40 617,70" fill="rgb(255,255,255)" fill-opacity="1.0" stroke="rgb(0,0,0)" stroke-width="2"  />
			<g>
				<title>Flavin_Reduct (PF01613)
"Flavin reductase like domain"</title>
				<polygon class="PF01613" points="617,28 623,28 629,40 623,52 617,52" stroke-linejoin="round" width="14" height="24" fill="rgb(223,100,227)" stroke="rgb(178,80,181)" stroke-width="1" opacity="0.75" />
			</g>
		</g>
		<g>
			<title> (lomo7)
quinone oxidoreductase</title>
			<polygon class=" (lomo7)
quinone oxidoreductase" points="634,10 654,40 634,70" fill="rgb(255,255,255)" fill-opacity="1.0" stroke="rgb(0,0,0)" stroke-width="2"  />
			<g>
				<title>FMN_red (PF03358)
"NADPH-dependent FMN reductase"</title>
				<polygon class="PF03358" points="634,28 642,28 649,38 649,42 642,52 634,52" stroke-linejoin="round" width="15" height="24" fill="rgb(161,216,66)" stroke="rgb(128,172,52)" stroke-width="1" opacity="0.75" />
			</g>
		</g>
		<g>
			<title> (lomo6)
S-adenosylmethionine synthetase</title>
			<polygon class=" (lomo6)
S-adenosylmethionine synthetase" points="658,25 667,25 667,10 697,40 667,70 667,55 658,55" fill="rgb(255,255,255)" fill-opacity="1.0" stroke="rgb(0,0,0)" stroke-width="2"  />
			<g>
				<title>S-AdoMet_synt_N (PF00438)
"S-adenosylmethionine synthetase, N-terminal domain"</title>
				<rect class="PF00438" x="658" y="28" stroke-linejoin="round" width="9" height="24" fill="rgb(198,117,90)" stroke="rgb(158,93,72)" stroke-width="1" opacity="0.75" />
			</g>
			<g>
				<title>S-AdoMet_synt_M (PF02772)
"S-adenosylmethionine synthetase, central domain"</title>
				<rect class="PF02772" x="669" y="28" stroke-linejoin="round" width="12" height="24" fill="rgb(215,74,54)" stroke="rgb(172,59,43)" stroke-width="1" opacity="0.75" />
			</g>
			<g>
				<title>S-AdoMet_synt_C (PF02773)
"S-adenosylmethionine synthetase, C-terminal domain"</title>
				<polygon class="PF02773" points="682,29 693,40 682,51" stroke-linejoin="round" width="13" height="24" fill="rgb(143,191,71)" stroke="rgb(114,152,56)" stroke-width="1" opacity="0.75" />
			</g>
		</g>
		<g>
			<title> (lomo5)
putative hexokinase</title>
			<polygon class=" (lomo5)
putative hexokinase" points="710,10 730,40 710,70" fill="rgb(255,255,255)" fill-opacity="1.0" stroke="rgb(0,0,0)" stroke-width="2"  />
			<g>
				<title>PfkB (PF00294)
"pfkB family carbohydrate kinase"</title>
				<polygon class="PF00294" points="710,28 718,28 726,40 718,52 710,52" stroke-linejoin="round" width="18" height="24" fill="rgb(94,207,198)" stroke="rgb(75,165,158)" stroke-width="1" opacity="0.75" />
			</g>
		</g>
		<g>
			<title> (lomo4)
5,10-methylenetetrahydrofolate reductase</title>
			<polygon class=" (lomo4)
5,10-methylenetetrahydrofolate reductase" points="731,25 731,25 731,10 761,40 731,70 731,55 731,55" fill="rgb(255,255,255)" fill-opacity="1.0" stroke="rgb(0,0,0)" stroke-width="2"  />
			<g>
				<title>MTHFR (PF02219)
"Methylenetetrahydrofolate reductase"</title>
				<polygon class="PF02219" points="731,28 745,28 757,40 745,52 731,52" stroke-linejoin="round" width="28" height="24" fill="rgb(85,139,203)" stroke="rgb(68,111,162)" stroke-width="1" opacity="0.75" />
			</g>
		</g>
		<g>
			<title> (lomo3)
3-phosphoshikimate 1-carboxyvinyltransferase</title>
			<polygon class=" (lomo3)
3-phosphoshikimate 1-carboxyvinyltransferase" points="777,10 804,40 777,70" fill="rgb(255,255,255)" fill-opacity="1.0" stroke="rgb(0,0,0)" stroke-width="2"  />
			<g>
				<title>EPSP_synthase (PF00275)
"EPSP synthase (3-phosphoshikimate 1-carboxyvinyltransferase)"</title>
				<polygon class="PF00275" points="777,28 788,28 799,39 799,41 788,52 777,52" stroke-linejoin="round" width="22" height="24" fill="rgb(185,81,160)" stroke="rgb(148,64,128)" stroke-width="1" opacity="0.75" />
			</g>
		</g>
		<g>
			<title> (lomo2)
chorismate synthase</title>
			<polygon class=" (lomo2)
chorismate synthase" points="807,25 814,25 814,10 844,40 814,70 814,55 807,55" fill="rgb(255,255,255)" fill-opacity="1.0" stroke="rgb(0,0,0)" stroke-width="2"  />
			<g>
				<title>Chorismate_synt (PF01264)
"Chorismate synthase"</title>
				<polygon class="PF01264" points="807,28 828,28 840,40 828,52 807,52" stroke-linejoin="round" width="35" height="24" fill="rgb(61,206,183)" stroke="rgb(48,164,146)" stroke-width="1" opacity="0.75" />
			</g>
		</g>
		<g>
			<title> (lomo1)
shikimate kinase</title>
			<polygon class=" (lomo1)
shikimate kinase" points="846,10 866,40 846,70" fill="rgb(255,255,255)" fill-opacity="1.0" stroke="rgb(0,0,0)" stroke-width="2"  />
			<g>
				<title>SKI (PF01202)
"Shikimate kinase"</title>
				<polygon class="PF01202" points="846,28 854,28 861,38 861,42 854,52 846,52" stroke-linejoin="round" width="15" height="24" fill="rgb(85,205,211)" stroke="rgb(68,164,168)" stroke-width="1" opacity="0.75" />
			</g>
		</g>
	</g>
</svg>
