<svg version="1.1" baseProfile="full" xmlns="http://www.w3.org/2000/svg" width="1404.2666666666667" height="80">
	<g>
		<line x1="10" y1="40.0" x2="1394.2666666666667" y2="40.0" style="stroke:rgb(70,70,70); stroke-width:3 "/>
		<g>
			<title>ctc9
Ctc9</title>
			<polygon class="ctc9
Ctc9" points="10,40 19,10 19,70" fill="rgb(255,255,255)" fill-opacity="1.0" stroke="rgb(0,0,0)" stroke-width="2"  />
		</g>
		<g>
			<title>ctc8
Ctc8</title>
			<polygon class="ctc8
Ctc8" points="64,25 53,25 53,10 23,40 53,70 53,55 64,55" fill="rgb(255,255,255)" fill-opacity="1.0" stroke="rgb(0,0,0)" stroke-width="2"  />
			<g>
				<title>Glycos_transf_2 (PF00535)
"Glycosyl transferase family 2"</title>
				<rect class="PF00535" x="47" y="28" stroke-linejoin="round" width="16" height="24" fill="rgb(197,62,212)" stroke="rgb(157,49,169)" stroke-width="1" opacity="0.75" />
			</g>
		</g>
		<g>
			<title>ctc7
Ctc7</title>
			<polygon class="ctc7
Ctc7" points="76,10 101,40 76,70" fill="rgb(255,255,255)" fill-opacity="1.0" stroke="rgb(0,0,0)" stroke-width="2"  />
		</g>
		<g>
			<title>ctc6
Ctc6</title>
			<polygon class="ctc6
Ctc6" points="102,40 128,10 128,70" fill="rgb(255,255,255)" fill-opacity="1.0" stroke="rgb(0,0,0)" stroke-width="2"  />
			<g>
				<title>Sortase (PF04203)
"Sortase domain"</title>
				<polygon class="PF04203" points="106,40 116,28 116,28 116,52 116,52" stroke-linejoin="round" width="13" height="24" fill="rgb(74,64,205)" stroke="rgb(59,51,164)" stroke-width="1" opacity="0.75" />
			</g>
		</g>
		<g>
			<title>ctc5
Ctc5</title>
			<polygon class="ctc5
Ctc5" points="178,25 163,25 163,10 133,40 163,70 163,55 178,55" fill="rgb(255,255,255)" fill-opacity="1.0" stroke="rgb(0,0,0)" stroke-width="2"  />
			<g>
				<title>Gln-synt_C (PF00120)
"Glutamine synthetase, catalytic domain"</title>
				<polygon class="PF00120" points="137,40 149,28 167,28 167,52 149,52" stroke-linejoin="round" width="34" height="24" fill="rgb(185,153,76)" stroke="rgb(148,122,60)" stroke-width="1" opacity="0.75" />
			</g>
			<g>
				<title>Gln-synt_N (PF03951)
"Glutamine synthetase, beta-Grasp domain"</title>
				<rect class="PF03951" x="168" y="28" stroke-linejoin="round" width="8" height="24" fill="rgb(120,59,206)" stroke="rgb(96,47,164)" stroke-width="1" opacity="0.75" />
			</g>
		</g>
		<g>
			<title>ctc4
Ctc4</title>
			<polygon class="ctc4
Ctc4" points="184,25 212,25 212,10 242,40 212,70 212,55 184,55" fill="rgb(255,255,255)" fill-opacity="1.0" stroke="rgb(0,0,0)" stroke-width="2"  />
			<g>
				<title>CN_hydrolase (PF00795)
"Carbon-nitrogen hydrolase"</title>
				<rect class="PF00795" x="184" y="28" stroke-linejoin="round" width="26" height="24" fill="rgb(51,122,182)" stroke="rgb(40,97,145)" stroke-width="1" opacity="0.75" />
			</g>
			<g>
				<title>NAD_synthase (PF02540)
"NAD synthase"</title>
				<polygon class="PF02540" points="214,28 226,28 238,40 238,40 226,52 214,52" stroke-linejoin="round" width="24" height="24" fill="rgb(120,96,221)" stroke="rgb(96,76,176)" stroke-width="1" opacity="0.75" />
			</g>
		</g>
		<g>
			<title>ctc3
Ctc3</title>
			<polygon class="ctc3
Ctc3" points="244,25 264,25 264,10 294,40 264,70 264,55 244,55" fill="rgb(255,255,255)" fill-opacity="1.0" stroke="rgb(0,0,0)" stroke-width="2"  />
			<g>
				<title>DUF772 (PF05598)
"Transposase domain (DUF772)"</title>
				<rect class="PF05598" x="251" y="28" stroke-linejoin="round" width="6" height="24" fill="rgb(160,53,193)" stroke="rgb(128,42,154)" stroke-width="1" opacity="0.75" />
			</g>
			<g>
				<title>DDE_Tnp_1 (PF01609)
"Transposase DDE domain"</title>
				<polygon class="PF01609" points="271,28 277,28 289,40 277,52 271,52" stroke-linejoin="round" width="20" height="24" fill="rgb(71,226,221)" stroke="rgb(56,180,176)" stroke-width="1" opacity="0.75" />
			</g>
		</g>
		<g>
			<title>ctcA
CtcA</title>
			<polygon class="ctcA
CtcA" points="331,10 352,40 331,70" fill="rgb(255,255,255)" fill-opacity="1.0" stroke="rgb(0,0,0)" stroke-width="2"  />
			<g>
				<title>GerE (PF00196)
"Bacterial regulatory proteins, luxR family"</title>
				<polygon class="PF00196" points="345,35 348,40 345,45" stroke-linejoin="round" width="5" height="24" fill="rgb(225,67,110)" stroke="rgb(180,53,88)" stroke-width="1" opacity="0.75" />
			</g>
		</g>
		<g>
			<title>ctcB
CtcB</title>
			<polygon class="ctcB
CtcB" points="357,40 384,10 384,70" fill="rgb(255,255,255)" fill-opacity="1.0" stroke="rgb(0,0,0)" stroke-width="2"  />
			<g>
				<title>BTAD (PF03704)
"Bacterial transcriptional activator domain"</title>
				<polygon class="PF03704" points="361,40 372,28 373,28 373,52 372,52" stroke-linejoin="round" width="14" height="24" fill="rgb(174,224,58)" stroke="rgb(139,179,46)" stroke-width="1" opacity="0.75" />
			</g>
		</g>
		<g>
			<title>ctcC
CtcC</title>
			<polygon class="ctcC
CtcC" points="395,25 431,25 431,10 461,40 431,70 431,55 395,55" fill="rgb(255,255,255)" fill-opacity="1.0" stroke="rgb(0,0,0)" stroke-width="2"  />
			<g>
				<title>GTP_EFTU (PF00009)
"Elongation factor Tu GTP binding domain"</title>
				<rect class="PF00009" x="395" y="28" stroke-linejoin="round" width="25" height="24" fill="rgb(205,198,101)" stroke="rgb(164,158,80)" stroke-width="1" opacity="0.75" />
			</g>
			<g>
				<title>EFG_III (PF14492)
"Elongation Factor G, domain III"</title>
				<rect class="PF14492" x="430" y="28" stroke-linejoin="round" width="7" height="24" fill="rgb(147,101,214)" stroke="rgb(117,80,171)" stroke-width="1" opacity="0.75" />
			</g>
			<g>
				<title>EFG_IV (PF03764)
"Elongation factor G, domain IV"</title>
				<polygon class="PF03764" points="439,28 444,28 449,33 449,47 444,52 439,52" stroke-linejoin="round" width="10" height="24" fill="rgb(138,62,178)" stroke="rgb(110,49,142)" stroke-width="1" opacity="0.75" />
			</g>
			<g>
				<title>EFG_C (PF00679)
"Elongation factor G C-terminus"</title>
				<polygon class="PF00679" points="450,34 456,40 450,46" stroke-linejoin="round" width="8" height="24" fill="rgb(184,92,170)" stroke="rgb(147,73,136)" stroke-width="1" opacity="0.75" />
			</g>
		</g>
		<g>
			<title>ctcD
CtcD</title>
			<polygon class="ctcD
CtcD" points="464,40 489,10 489,70" fill="rgb(255,255,255)" fill-opacity="1.0" stroke="rgb(0,0,0)" stroke-width="2"  />
			<g>
				<title>Cyclase (PF04199)
"Putative cyclase"</title>
				<polygon class="PF04199" points="471,36 478,28 489,28 489,52 478,52 471,44" stroke-linejoin="round" width="18" height="24" fill="rgb(145,90,187)" stroke="rgb(115,72,149)" stroke-width="1" opacity="0.75" />
			</g>
		</g>
		<g>
			<title>ctcE
CtcE</title>
			<polygon class="ctcE
CtcE" points="543,25 519,25 519,10 489,40 519,70 519,55 543,55" fill="rgb(255,255,255)" fill-opacity="1.0" stroke="rgb(0,0,0)" stroke-width="2"  />
			<g>
				<title>FAD_binding_3 (PF01494)
"FAD binding domain"</title>
				<rect class="PF01494" x="508" y="28" stroke-linejoin="round" width="33" height="24" fill="rgb(215,66,156)" stroke="rgb(172,52,124)" stroke-width="1" opacity="0.75" />
			</g>
		</g>
		<g>
			<title>ctcF
CtcF</title>
			<polygon class="ctcF
CtcF" points="574,25 573,25 573,10 543,40 573,70 573,55 574,55" fill="rgb(255,255,255)" fill-opacity="1.0" stroke="rgb(0,0,0)" stroke-width="2"  />
			<g>
				<title>Polyketide_cyc2 (PF10604)
"Polyketide cyclase / dehydrase and lipid transport"</title>
				<polygon class="PF10604" points="547,40 558,29 558,51" stroke-linejoin="round" width="14" height="24" fill="rgb(170,214,69)" stroke="rgb(136,171,55)" stroke-width="1" opacity="0.75" />
			</g>
			<g>
				<title>Polyketide_cyc2 (PF10604)
"Polyketide cyclase / dehydrase and lipid transport"</title>
				<polygon class="PF10604" points="559,28 559,28 573,28 573,52 559,52 559,52" stroke-linejoin="round" width="14" height="24" fill="rgb(170,214,69)" stroke="rgb(136,171,55)" stroke-width="1" opacity="0.75" />
			</g>
		</g>
		<g>
			<title>ctcG
CtcG</title>
			<polygon class="ctcG
CtcG" points="577,40 603,10 603,70" fill="rgb(255,255,255)" fill-opacity="1.0" stroke="rgb(0,0,0)" stroke-width="2"  />
			<g>
				<title>adh_short (PF00106)
"short chain dehydrogenase"</title>
				<polygon class="PF00106" points="582,39 592,28 601,28 601,52 592,52 582,41" stroke-linejoin="round" width="19" height="24" fill="rgb(128,81,196)" stroke="rgb(102,64,156)" stroke-width="1" opacity="0.75" />
			</g>
		</g>
		<g>
			<title>ctcH
CtcH</title>
			<polygon class="ctcH
CtcH" points="610,10 625,40 610,70" fill="rgb(255,255,255)" fill-opacity="1.0" stroke="rgb(0,0,0)" stroke-width="2"  />
			<g>
				<title>SnoaL_4 (PF13577)
"SnoaL-like domain"</title>
				<polygon class="PF13577" points="612,28 615,28 622,40 615,52 612,52" stroke-linejoin="round" width="12" height="24" fill="rgb(58,198,190)" stroke="rgb(46,158,152)" stroke-width="1" opacity="0.75" />
			</g>
		</g>
		<g>
			<title>ctcI
CtcI</title>
			<polygon class="ctcI
CtcI" points="626,25 647,25 647,10 677,40 647,70 647,55 626,55" fill="rgb(255,255,255)" fill-opacity="1.0" stroke="rgb(0,0,0)" stroke-width="2"  />
			<g>
				<title>AMP-binding (PF00501)
"AMP-binding enzyme"</title>
				<polygon class="PF00501" points="629,28 661,28 664,31 664,49 661,52 629,52" stroke-linejoin="round" width="35" height="24" fill="rgb(189,78,204)" stroke="rgb(151,62,163)" stroke-width="1" opacity="0.75" />
			</g>
			<g>
				<title>AMP-binding_C (PF13193)
"AMP-binding enzyme C-terminal domain"</title>
				<polygon class="PF13193" points="668,35 673,40 668,45" stroke-linejoin="round" width="7" height="24" fill="rgb(195,82,106)" stroke="rgb(156,65,84)" stroke-width="1" opacity="0.75" />
			</g>
		</g>
		<g>
			<title>ctcJ
CtcJ</title>
			<polygon class="ctcJ
CtcJ" points="679,10 688,40 679,70" fill="rgb(255,255,255)" fill-opacity="1.0" stroke="rgb(0,0,0)" stroke-width="2"  />
			<g>
				<title>ABM (PF03992)
"Antibiotic biosynthesis monooxygenase"</title>
				<polygon class="PF03992" points="679,28 681,28 685,40 681,52 679,52" stroke-linejoin="round" width="7" height="24" fill="rgb(211,55,142)" stroke="rgb(168,44,113)" stroke-width="1" opacity="0.75" />
			</g>
		</g>
		<g>
			<title>ctcK
CtcK</title>
			<polygon class="ctcK
CtcK" points="689,25 693,25 693,10 723,40 693,70 693,55 689,55" fill="rgb(255,255,255)" fill-opacity="1.0" stroke="rgb(0,0,0)" stroke-width="2"  />
			<g>
				<title>Methyltransf_2 (PF00891)
"O-methyltransferase domain"</title>
				<polygon class="PF00891" points="700,28 707,28 719,40 707,52 700,52" stroke-linejoin="round" width="20" height="24" fill="rgb(91,124,224)" stroke="rgb(72,99,179)" stroke-width="1" opacity="0.75" />
			</g>
		</g>
		<g>
			<title>ctcL
CtcL</title>
			<polygon class="ctcL
CtcL" points="765,25 759,25 759,10 729,40 759,70 759,55 765,55" fill="rgb(255,255,255)" fill-opacity="1.0" stroke="rgb(0,0,0)" stroke-width="2"  />
			<g>
				<title>Aminotran_1_2 (PF00155)
"Aminotransferase class I and II"</title>
				<polygon class="PF00155" points="733,40 745,28 762,28 762,52 745,52" stroke-linejoin="round" width="33" height="24" fill="rgb(207,146,55)" stroke="rgb(165,116,43)" stroke-width="1" opacity="0.75" />
			</g>
		</g>
		<g>
			<title>ctcM
CtcM</title>
			<polygon class="ctcM
CtcM" points="765,40 779,10 779,70" fill="rgb(255,255,255)" fill-opacity="1.0" stroke="rgb(0,0,0)" stroke-width="2"  />
			<g>
				<title>Putative_PNPOx (PF01243)
"Pyridoxamine 5'-phosphate oxidase"</title>
				<polygon class="PF01243" points="769,38 774,28 778,28 778,52 774,52 769,42" stroke-linejoin="round" width="9" height="24" fill="rgb(187,127,57)" stroke="rgb(149,101,45)" stroke-width="1" opacity="0.75" />
			</g>
		</g>
		<g>
			<title>ctcN
CtcN</title>
			<polygon class="ctcN
CtcN" points="785,25 804,25 804,10 834,40 804,70 804,55 785,55" fill="rgb(255,255,255)" fill-opacity="1.0" stroke="rgb(0,0,0)" stroke-width="2"  />
			<g>
				<title>FAD_binding_3 (PF01494)
"FAD binding domain"</title>
				<polygon class="PF01494" points="785,28 817,28 819,30 819,50 817,52 785,52" stroke-linejoin="round" width="34" height="24" fill="rgb(215,66,156)" stroke="rgb(172,52,124)" stroke-width="1" opacity="0.75" />
			</g>
			<g>
				<title>Rng_hyd_C (PF21274)
"Aromatic-ring hydroxylase, C-terminal"</title>
				<polygon class="PF21274" points="824,35 829,40 824,45" stroke-linejoin="round" width="9" height="24" fill="rgb(153,227,106)" stroke="rgb(122,181,84)" stroke-width="1" opacity="0.75" />
			</g>
		</g>
		<g>
			<title>ctcO
CtcO</title>
			<polygon class="ctcO
CtcO" points="835,25 839,25 839,10 869,40 839,70 839,55 835,55" fill="rgb(255,255,255)" fill-opacity="1.0" stroke="rgb(0,0,0)" stroke-width="2"  />
			<g>
				<title>Dimerisation2 (PF16864)
"Dimerisation domain"</title>
				<rect class="PF16864" x="836" y="28" stroke-linejoin="round" width="8" height="24" fill="rgb(212,101,199)" stroke="rgb(169,80,159)" stroke-width="1" opacity="0.75" />
			</g>
			<g>
				<title>Methyltransf_2 (PF00891)
"O-methyltransferase domain"</title>
				<polygon class="PF00891" points="846,28 853,28 865,40 853,52 846,52" stroke-linejoin="round" width="20" height="24" fill="rgb(91,124,224)" stroke="rgb(72,99,179)" stroke-width="1" opacity="0.75" />
			</g>
		</g>
		<g>
			<title>ctcP
CtcP</title>
			<polygon class="ctcP
CtcP" points="870,25 895,25 895,10 925,40 895,70 895,55 870,55" fill="rgb(255,255,255)" fill-opacity="1.0" stroke="rgb(0,0,0)" stroke-width="2"  />
			<g>
				<title>FAD_binding_3 (PF01494)
"FAD binding domain"</title>
				<rect class="PF01494" x="871" y="28" stroke-linejoin="round" width="35" height="24" fill="rgb(215,66,156)" stroke="rgb(172,52,124)" stroke-width="1" opacity="0.75" />
			</g>
		</g>
		<g>
			<title>ctcQ
CtcQ</title>
			<polygon class="ctcQ
CtcQ" points="928,40 947,10 947,70" fill="rgb(255,255,255)" fill-opacity="1.0" stroke="rgb(0,0,0)" stroke-width="2"  />
			<g>
				<title>Flavin_Reduct (PF01613)
"Flavin reductase like domain"</title>
				<polygon class="PF01613" points="932,40 940,28 943,28 943,52 940,52" stroke-linejoin="round" width="14" height="24" fill="rgb(223,100,227)" stroke="rgb(178,80,181)" stroke-width="1" opacity="0.75" />
			</g>
		</g>
		<g>
			<title>ctcR
CtcR</title>
			<polygon class="ctcR
CtcR" points="1005,25 984,25 984,10 954,40 984,70 984,55 1005,55" fill="rgb(255,255,255)" fill-opacity="1.0" stroke="rgb(0,0,0)" stroke-width="2"  />
			<g>
				<title>MFS_1 (PF07690)
"Major Facilitator Superfamily"</title>
				<polygon class="PF07690" points="961,37 970,28 1000,28 1000,52 970,52 961,43" stroke-linejoin="round" width="39" height="24" fill="rgb(228,207,98)" stroke="rgb(182,165,78)" stroke-width="1" opacity="0.75" />
			</g>
		</g>
		<g>
			<title>ctcS
CtcS</title>
			<polygon class="ctcS
CtcS" points="1010,10 1026,40 1010,70" fill="rgb(255,255,255)" fill-opacity="1.0" stroke="rgb(0,0,0)" stroke-width="2"  />
			<g>
				<title>MarR_2 (PF12802)
"MarR family"</title>
				<polygon class="PF12802" points="1013,28 1016,28 1018,31 1018,49 1016,52 1013,52" stroke-linejoin="round" width="5" height="24" fill="rgb(139,211,68)" stroke="rgb(111,168,54)" stroke-width="1" opacity="0.75" />
			</g>
		</g>
		<g>
			<title>ctcT
CtcT</title>
			<polygon class="ctcT
CtcT" points="1087,25 1056,25 1056,10 1026,40 1056,70 1056,55 1087,55" fill="rgb(255,255,255)" fill-opacity="1.0" stroke="rgb(0,0,0)" stroke-width="2"  />
			<g>
				<title>Asn_synthase (PF00733)
"Asparagine synthase"</title>
				<polygon class="PF00733" points="1030,40 1042,28 1062,28 1062,52 1042,52" stroke-linejoin="round" width="36" height="24" fill="rgb(200,91,135)" stroke="rgb(160,72,108)" stroke-width="1" opacity="0.75" />
			</g>
			<g>
				<title>GATase_7 (PF13537)
"Glutamine amidotransferase domain"</title>
				<rect class="PF13537" x="1070" y="28" stroke-linejoin="round" width="12" height="24" fill="rgb(102,71,204)" stroke="rgb(81,56,163)" stroke-width="1" opacity="0.75" />
			</g>
		</g>
		<g>
			<title>ctcU
CtcU</title>
			<polygon class="ctcU
CtcU" points="1087,40 1095,10 1095,70" fill="rgb(255,255,255)" fill-opacity="1.0" stroke="rgb(0,0,0)" stroke-width="2"  />
			<g>
				<title>PP-binding (PF00550)
"Phosphopantetheine attachment site"</title>
				<polygon class="PF00550" points="1090,40 1093,28 1093,28 1093,52 1093,52" stroke-linejoin="round" width="6" height="24" fill="rgb(181,58,166)" stroke="rgb(144,46,132)" stroke-width="1" opacity="0.75" />
			</g>
		</g>
		<g>
			<title>ctcV
CtcV</title>
			<polygon class="ctcV
CtcV" points="1138,25 1128,25 1128,10 1098,40 1128,70 1128,55 1138,55" fill="rgb(255,255,255)" fill-opacity="1.0" stroke="rgb(0,0,0)" stroke-width="2"  />
			<g>
				<title>Ketoacyl-synt_C (PF02801)
"Beta-ketoacyl synthase, C-terminal domain"</title>
				<polygon class="PF02801" points="1102,40 1113,29 1113,51 1102,40" stroke-linejoin="round" width="11" height="24" fill="rgb(212,79,72)" stroke="rgb(169,63,57)" stroke-width="1" opacity="0.75" />
			</g>
			<g>
				<title>ketoacyl-synt (PF00109)
"Beta-ketoacyl synthase, N-terminal domain"</title>
				<polygon class="PF00109" points="1114,28 1114,28 1138,28 1138,52 1114,52 1114,52" stroke-linejoin="round" width="24" height="24" fill="rgb(74,179,82)" stroke="rgb(59,143,65)" stroke-width="1" opacity="0.75" />
			</g>
		</g>
		<g>
			<title>ctcW
CtcW</title>
			<polygon class="ctcW
CtcW" points="1180,25 1168,25 1168,10 1138,40 1168,70 1168,55 1180,55" fill="rgb(255,255,255)" fill-opacity="1.0" stroke="rgb(0,0,0)" stroke-width="2"  />
			<g>
				<title>Ketoacyl-synt_C (PF02801)
"Beta-ketoacyl synthase, C-terminal domain"</title>
				<polygon class="PF02801" points="1142,40 1153,29 1153,51 1142,40" stroke-linejoin="round" width="11" height="24" fill="rgb(212,79,72)" stroke="rgb(169,63,57)" stroke-width="1" opacity="0.75" />
			</g>
			<g>
				<title>ketoacyl-synt (PF00109)
"Beta-ketoacyl synthase, N-terminal domain"</title>
				<rect class="PF00109" x="1155" y="28" stroke-linejoin="round" width="24" height="24" fill="rgb(74,179,82)" stroke="rgb(59,143,65)" stroke-width="1" opacity="0.75" />
			</g>
		</g>
		<g>
			<title>ctcX
CtcX</title>
			<polygon class="ctcX
CtcX" points="1190,25 1201,25 1201,10 1231,40 1201,70 1201,55 1190,55" fill="rgb(255,255,255)" fill-opacity="1.0" stroke="rgb(0,0,0)" stroke-width="2"  />
			<g>
				<title>FAD_binding_3 (PF01494)
"FAD binding domain"</title>
				<polygon class="PF01494" points="1190,28 1215,28 1225,38 1225,42 1215,52 1190,52" stroke-linejoin="round" width="35" height="24" fill="rgb(215,66,156)" stroke="rgb(172,52,124)" stroke-width="1" opacity="0.75" />
			</g>
		</g>
		<g>
			<title>ctcY
CtcY</title>
			<polygon class="ctcY
CtcY" points="1232,25 1246,25 1246,10 1276,40 1246,70 1246,55 1232,55" fill="rgb(255,255,255)" fill-opacity="1.0" stroke="rgb(0,0,0)" stroke-width="2"  />
			<g>
				<title>Na_H_Exchanger (PF00999)
"Sodium/hydrogen exchanger family"</title>
				<polygon class="PF00999" points="1234,28 1259,28 1271,40 1259,52 1234,52" stroke-linejoin="round" width="39" height="24" fill="rgb(95,122,202)" stroke="rgb(76,97,161)" stroke-width="1" opacity="0.75" />
			</g>
		</g>
		<g>
			<title>ctcZ
CtcZ</title>
			<polygon class="ctcZ
CtcZ" points="1326,25 1322,25 1322,10 1292,40 1322,70 1322,55 1326,55" fill="rgb(255,255,255)" fill-opacity="1.0" stroke="rgb(0,0,0)" stroke-width="2"  />
			<g>
				<title>Exo_endo_phos (PF03372)
"Endonuclease/Exonuclease/phosphatase family"</title>
				<polygon class="PF03372" points="1296,40 1308,28 1313,28 1313,52 1308,52" stroke-linejoin="round" width="20" height="24" fill="rgb(151,50,200)" stroke="rgb(120,40,160)" stroke-width="1" opacity="0.75" />
			</g>
		</g>
		<g>
			<title>ctc1
Ctc1</title>
			<polygon class="ctc1
Ctc1" points="1335,40 1358,10 1358,70" fill="rgb(255,255,255)" fill-opacity="1.0" stroke="rgb(0,0,0)" stroke-width="2"  />
			<g>
				<title>TetR_C_11 (PF16859)
"Tetracyclin repressor-like, C-terminal domain"</title>
				<polygon class="PF16859" points="1339,40 1346,31 1346,49" stroke-linejoin="round" width="11" height="24" fill="rgb(170,197,93)" stroke="rgb(136,157,74)" stroke-width="1" opacity="0.75" />
			</g>
			<g>
				<title>TetR_N (PF00440)
"Bacterial regulatory proteins, tetR family"</title>
				<polygon class="PF00440" points="1348,28 1348,28 1351,28 1351,52 1348,52 1348,52" stroke-linejoin="round" width="3" height="24" fill="rgb(148,50,185)" stroke="rgb(118,40,148)" stroke-width="1" opacity="0.75" />
			</g>
		</g>
		<g>
			<title>ctc2
Ctc2</title>
			<polygon class="ctc2
Ctc2" points="1393,25 1392,25 1392,10 1362,40 1392,70 1392,55 1393,55" fill="rgb(255,255,255)" fill-opacity="1.0" stroke="rgb(0,0,0)" stroke-width="2"  />
			<g>
				<title>MFS_1 (PF07690)
"Major Facilitator Superfamily"</title>
				<polygon class="PF07690" points="1373,33 1378,28 1392,28 1392,52 1378,52 1373,47" stroke-linejoin="round" width="19" height="24" fill="rgb(228,207,98)" stroke="rgb(182,165,78)" stroke-width="1" opacity="0.75" />
			</g>
		</g>
	</g>
</svg>
