<svg version="1.1" baseProfile="full" xmlns="http://www.w3.org/2000/svg" width="363.26666666666665" height="80">
	<g>
		<line x1="10" y1="40.0" x2="353.26666666666665" y2="40.0" style="stroke:rgb(70,70,70); stroke-width:3 "/>
		<g>
			<title>lysA (XOO1354)
diaminopimelate decarboxylase</title>
			<polygon class="lysA (XOO1354)
diaminopimelate decarboxylase" points="52,25 40,25 40,10 10,40 40,70 40,55 52,55" fill="rgb(255,255,255)" fill-opacity="1.0" stroke="rgb(0,0,0)" stroke-width="2"  />
			<g>
				<title>Orn_Arg_deC_N (PF02784)
"Pyridoxal-dependent decarboxylase, pyridoxal binding domain"</title>
				<polygon class="PF02784" points="21,33 26,28 45,28 45,52 26,52 21,47" stroke-linejoin="round" width="24" height="24" fill="rgb(92,174,185)" stroke="rgb(73,139,148)" stroke-width="1" opacity="0.75" />
			</g>
		</g>
		<g>
			<title>iucA (XOO1355)
iron transporter</title>
			<polygon class="iucA (XOO1355)
iron transporter" points="108,25 79,25 79,10 49,40 79,70 79,55 108,55" fill="rgb(255,255,255)" fill-opacity="1.0" stroke="rgb(0,0,0)" stroke-width="2"  />
			<g>
				<title>FhuF (PF06276)
"Ferric iron reductase FhuF-like transporter"</title>
				<polygon class="PF06276" points="53,40 65,28 67,28 67,52 65,52" stroke-linejoin="round" width="16" height="24" fill="rgb(88,189,147)" stroke="rgb(70,151,117)" stroke-width="1" opacity="0.75" />
			</g>
			<g>
				<title>IucA_IucC (PF04183)
"IucA / IucC family"</title>
				<rect class="PF04183" x="70" y="28" stroke-linejoin="round" width="23" height="24" fill="rgb(106,227,58)" stroke="rgb(84,181,46)" stroke-width="1" opacity="0.75" />
			</g>
		</g>
		<g>
			<title>yceE (XOO1356)
transport protein</title>
			<polygon class="yceE (XOO1356)
transport protein" points="147,25 138,25 138,10 108,40 138,70 138,55 147,55" fill="rgb(255,255,255)" fill-opacity="1.0" stroke="rgb(0,0,0)" stroke-width="2"  />
			<g>
				<title>MFS_1 (PF07690)
"Major Facilitator Superfamily"</title>
				<polygon class="PF07690" points="120,32 124,28 146,28 146,52 124,52 120,48" stroke-linejoin="round" width="26" height="24" fill="rgb(228,207,98)" stroke="rgb(182,165,78)" stroke-width="1" opacity="0.75" />
			</g>
		</g>
		<g>
			<title>RhbC (XOO1357)
Siderophore synthetase component</title>
			<polygon class="RhbC (XOO1357)
Siderophore synthetase component" points="208,25 177,25 177,10 147,40 177,70 177,55 208,55" fill="rgb(255,255,255)" fill-opacity="1.0" stroke="rgb(0,0,0)" stroke-width="2"  />
			<g>
				<title>FhuF (PF06276)
"Ferric iron reductase FhuF-like transporter"</title>
				<polygon class="PF06276" points="151,40 163,28 167,28 167,52 163,52" stroke-linejoin="round" width="17" height="24" fill="rgb(88,189,147)" stroke="rgb(70,151,117)" stroke-width="1" opacity="0.75" />
			</g>
			<g>
				<title>IucA_IucC (PF04183)
"IucA / IucC family"</title>
				<rect class="PF04183" x="169" y="28" stroke-linejoin="round" width="21" height="24" fill="rgb(106,227,58)" stroke="rgb(84,181,46)" stroke-width="1" opacity="0.75" />
			</g>
		</g>
		<g>
			<title>CarB (XOO1358)
Carbamoylphosphate synthase large subunit (split gene in MJ)</title>
			<polygon class="CarB (XOO1358)
Carbamoylphosphate synthase large subunit (split gene in MJ)" points="247,25 237,25 237,10 207,40 237,70 237,55 247,55" fill="rgb(255,255,255)" fill-opacity="1.0" stroke="rgb(0,0,0)" stroke-width="2"  />
		</g>
		<g>
			<title>fecA (XOO1359)
citrate-dependent iron transporter</title>
			<polygon class="fecA (XOO1359)
citrate-dependent iron transporter" points="327,25 286,25 286,10 256,40 286,70 286,55 327,55" fill="rgb(255,255,255)" fill-opacity="1.0" stroke="rgb(0,0,0)" stroke-width="2"  />
			<g>
				<title>TonB_dep_Rec (PF00593)
"TonB dependent receptor"</title>
				<polygon class="PF00593" points="260,40 272,28 302,28 302,52 272,52" stroke-linejoin="round" width="43" height="24" fill="rgb(67,93,202)" stroke="rgb(53,74,161)" stroke-width="1" opacity="0.75" />
			</g>
			<g>
				<title>Plug (PF07715)
"TonB-dependent Receptor Plug Domain"</title>
				<rect class="PF07715" x="309" y="28" stroke-linejoin="round" width="11" height="24" fill="rgb(66,186,52)" stroke="rgb(52,148,41)" stroke-width="1" opacity="0.75" />
			</g>
		</g>
		<g>
			<title>mphE (XOO1360)
4-hydroxy-2-oxovalerate aldolase</title>
			<polygon class="mphE (XOO1360)
4-hydroxy-2-oxovalerate aldolase" points="327,40 352,10 352,70" fill="rgb(255,255,255)" fill-opacity="1.0" stroke="rgb(0,0,0)" stroke-width="2"  />
			<g>
				<title>HpcH_HpaI (PF03328)
"HpcH/HpaI aldolase/citrate lyase family"</title>
				<polygon class="PF03328" points="331,40 341,28 351,28 351,52 341,52 331,40" stroke-linejoin="round" width="20" height="24" fill="rgb(62,60,185)" stroke="rgb(49,48,148)" stroke-width="1" opacity="0.75" />
			</g>
		</g>
	</g>
</svg>
