<svg version="1.1" baseProfile="full" xmlns="http://www.w3.org/2000/svg" width="1049.4666666666667" height="80">
	<g>
		<line x1="10" y1="40.0" x2="1039.4666666666667" y2="40.0" style="stroke:rgb(70,70,70); stroke-width:3 "/>
		<g>
			<title>
hypothetical protein</title>
			<polygon class="
hypothetical protein" points="10,40 16,10 16,70" fill="rgb(255,255,255)" fill-opacity="1.0" stroke="rgb(0,0,0)" stroke-width="2"  />
			<g>
				<title>RGI_lyase (PF18370)
"Rhamnogalacturonan I lyases beta-sheet domain"</title>
				<polygon class="PF18370" points="13,40 13,40 13,40" stroke-linejoin="round" width="3" height="24" fill="rgb(93,111,197)" stroke="rgb(74,88,157)" stroke-width="1" opacity="0.75" />
			</g>
		</g>
		<g>
			<title>
transcriptional regulator, XRE family</title>
			<polygon class="
transcriptional regulator, XRE family" points="21,40 40,10 40,70" fill="rgb(255,255,255)" fill-opacity="1.0" stroke="rgb(0,0,0)" stroke-width="2"  />
			<g>
				<title>Cupin_2 (PF07883)
"Cupin domain"</title>
				<polygon class="PF07883" points="25,40 27,37 27,43" stroke-linejoin="round" width="6" height="24" fill="rgb(191,63,205)" stroke="rgb(152,50,164)" stroke-width="1" opacity="0.75" />
			</g>
			<g>
				<title>HTH_3 (PF01381)
"Helix-turn-helix"</title>
				<polygon class="PF01381" points="32,29 33,28 37,28 37,52 33,52 32,51" stroke-linejoin="round" width="5" height="24" fill="rgb(168,185,81)" stroke="rgb(134,148,64)" stroke-width="1" opacity="0.75" />
			</g>
		</g>
		<g>
			<title>
putative azaleucine resistance protein AzlC</title>
			<polygon class="
putative azaleucine resistance protein AzlC" points="42,10 65,40 42,70" fill="rgb(255,255,255)" fill-opacity="1.0" stroke="rgb(0,0,0)" stroke-width="2"  />
			<g>
				<title>AzlC (PF03591)
"AzlC protein"</title>
				<polygon class="PF03591" points="44,28 52,28 57,35 57,45 52,52 44,52" stroke-linejoin="round" width="13" height="24" fill="rgb(195,68,143)" stroke="rgb(156,54,114)" stroke-width="1" opacity="0.75" />
			</g>
		</g>
		<g>
			<title>
hypothetical protein</title>
			<polygon class="
hypothetical protein" points="65,10 76,40 65,70" fill="rgb(255,255,255)" fill-opacity="1.0" stroke="rgb(0,0,0)" stroke-width="2"  />
			<g>
				<title>AzlD (PF05437)
"Branched-chain amino acid transport protein (AzlD)"</title>
				<polygon class="PF05437" points="66,28 68,28 72,40 68,52 66,52" stroke-linejoin="round" width="9" height="24" fill="rgb(66,224,83)" stroke="rgb(52,179,66)" stroke-width="1" opacity="0.75" />
			</g>
		</g>
		<g>
			<title>
hypothetical protein</title>
			<polygon class="
hypothetical protein" points="77,40 93,10 93,70" fill="rgb(255,255,255)" fill-opacity="1.0" stroke="rgb(0,0,0)" stroke-width="2"  />
			<g>
				<title>Asp23 (PF03780)
"Asp23 family, cell envelope-related function"</title>
				<polygon class="PF03780" points="80,40 87,28 90,28 90,52 87,52" stroke-linejoin="round" width="11" height="24" fill="rgb(200,53,122)" stroke="rgb(160,42,97)" stroke-width="1" opacity="0.75" />
			</g>
		</g>
		<g>
			<title>
putative efflux protein</title>
			<polygon class="
putative efflux protein" points="140,25 128,25 128,10 98,40 128,70 128,55 140,55" fill="rgb(255,255,255)" fill-opacity="1.0" stroke="rgb(0,0,0)" stroke-width="2"  />
			<g>
				<title>MFS_1 (PF07690)
"Major Facilitator Superfamily"</title>
				<polygon class="PF07690" points="111,31 114,28 137,28 137,52 114,52 111,49" stroke-linejoin="round" width="26" height="24" fill="rgb(228,207,98)" stroke="rgb(182,165,78)" stroke-width="1" opacity="0.75" />
			</g>
		</g>
		<g>
			<title>
hypothetical protein</title>
			<polygon class="
hypothetical protein" points="147,10 160,40 147,70" fill="rgb(255,255,255)" fill-opacity="1.0" stroke="rgb(0,0,0)" stroke-width="2"  />
		</g>
		<g>
			<title>
LuxR family transcriptional regulator</title>
			<polygon class="
LuxR family transcriptional regulator" points="193,25 187,25 187,10 157,40 187,70 187,55 193,55" fill="rgb(255,255,255)" fill-opacity="1.0" stroke="rgb(0,0,0)" stroke-width="2"  />
			<g>
				<title>GerE (PF00196)
"Bacterial regulatory proteins, luxR family"</title>
				<polygon class="PF00196" points="161,40 164,37 164,43" stroke-linejoin="round" width="5" height="24" fill="rgb(225,67,110)" stroke="rgb(180,53,88)" stroke-width="1" opacity="0.75" />
			</g>
		</g>
		<g>
			<title>
putative nucleoside 2-deoxyribosyltransferase</title>
			<polygon class="
putative nucleoside 2-deoxyribosyltransferase" points="195,10 213,40 195,70" fill="rgb(255,255,255)" fill-opacity="1.0" stroke="rgb(0,0,0)" stroke-width="2"  />
		</g>
		<g>
			<title>
cytosylglucuronic acid synthase</title>
			<polygon class="
cytosylglucuronic acid synthase" points="214,25 224,25 224,10 254,40 224,70 224,55 214,55" fill="rgb(255,255,255)" fill-opacity="1.0" stroke="rgb(0,0,0)" stroke-width="2"  />
		</g>
		<g>
			<title>
hypothetical protein Radical SAM</title>
			<polygon class="
hypothetical protein Radical SAM" points="252,25 257,25 257,10 287,40 257,70 257,55 252,55" fill="rgb(255,255,255)" fill-opacity="1.0" stroke="rgb(0,0,0)" stroke-width="2"  />
			<g>
				<title>Radical_SAM (PF04055)
"Radical SAM superfamily"</title>
				<rect class="PF04055" x="255" y="28" stroke-linejoin="round" width="15" height="24" fill="rgb(223,193,78)" stroke="rgb(178,154,62)" stroke-width="1" opacity="0.75" />
			</g>
		</g>
		<g>
			<title>
hypothetical protein</title>
			<polygon class="
hypothetical protein" points="288,25 289,25 289,10 319,40 289,70 289,55 288,55" fill="rgb(255,255,255)" fill-opacity="1.0" stroke="rgb(0,0,0)" stroke-width="2"  />
		</g>
		<g>
			<title>
putative cytosinine synthase</title>
			<polygon class="
putative cytosinine synthase" points="320,25 330,25 330,10 360,40 330,70 330,55 320,55" fill="rgb(255,255,255)" fill-opacity="1.0" stroke="rgb(0,0,0)" stroke-width="2"  />
			<g>
				<title>DegT_DnrJ_EryC1 (PF01041)
"DegT/DnrJ/EryC1/StrS aminotransferase family"</title>
				<polygon class="PF01041" points="323,28 344,28 356,40 344,52 323,52" stroke-linejoin="round" width="36" height="24" fill="rgb(228,110,183)" stroke="rgb(182,88,146)" stroke-width="1" opacity="0.75" />
			</g>
		</g>
		<g>
			<title>
major facilitator superfamily MFS_1</title>
			<polygon class="
major facilitator superfamily MFS_1" points="362,25 373,25 373,10 403,40 373,70 373,55 362,55" fill="rgb(255,255,255)" fill-opacity="1.0" stroke="rgb(0,0,0)" stroke-width="2"  />
			<g>
				<title>MFS_1 (PF07690)
"Major Facilitator Superfamily"</title>
				<polygon class="PF07690" points="364,28 387,28 391,32 391,48 387,52 364,52" stroke-linejoin="round" width="27" height="24" fill="rgb(228,207,98)" stroke="rgb(182,165,78)" stroke-width="1" opacity="0.75" />
			</g>
		</g>
		<g>
			<title>
putative ligase</title>
			<polygon class="
putative ligase" points="406,25 418,25 418,10 448,40 418,70 418,55 406,55" fill="rgb(255,255,255)" fill-opacity="1.0" stroke="rgb(0,0,0)" stroke-width="2"  />
			<g>
				<title>LAL_C2 (PF18603)
"L-amino acid ligase C-terminal domain 2"</title>
				<polygon class="PF18603" points="439,36 443,40 439,44" stroke-linejoin="round" width="7" height="24" fill="rgb(135,203,91)" stroke="rgb(107,162,72)" stroke-width="1" opacity="0.75" />
			</g>
		</g>
		<g>
			<title>
hypothetical protein</title>
			<polygon class="
hypothetical protein" points="513,25 481,25 481,10 451,40 481,70 481,55 513,55" fill="rgb(255,255,255)" fill-opacity="1.0" stroke="rgb(0,0,0)" stroke-width="2"  />
		</g>
		<g>
			<title>
putative leucyldemethylblasticidin S guanidino methyltransferase</title>
			<polygon class="
putative leucyldemethylblasticidin S guanidino methyltransferase" points="526,40 547,10 547,70" fill="rgb(255,255,255)" fill-opacity="1.0" stroke="rgb(0,0,0)" stroke-width="2"  />
		</g>
		<g>
			<title>
aminotransferase, class I and II</title>
			<polygon class="
aminotransferase, class I and II" points="593,25 586,25 586,10 556,40 586,70 586,55 593,55" fill="rgb(255,255,255)" fill-opacity="1.0" stroke="rgb(0,0,0)" stroke-width="2"  />
			<g>
				<title>Aminotran_1_2 (PF00155)
"Aminotransferase class I and II"</title>
				<polygon class="PF00155" points="560,40 572,28 589,28 589,52 572,52" stroke-linejoin="round" width="32" height="24" fill="rgb(207,146,55)" stroke="rgb(165,116,43)" stroke-width="1" opacity="0.75" />
			</g>
		</g>
		<g>
			<title>
methyltransferase</title>
			<polygon class="
methyltransferase" points="626,25 623,25 623,10 593,40 623,70 623,55 626,55" fill="rgb(255,255,255)" fill-opacity="1.0" stroke="rgb(0,0,0)" stroke-width="2"  />
		</g>
		<g>
			<title>
conserved hypothetical protein</title>
			<polygon class="
conserved hypothetical protein" points="661,40 674,10 674,70" fill="rgb(255,255,255)" fill-opacity="1.0" stroke="rgb(0,0,0)" stroke-width="2"  />
			<g>
				<title>PIN (PF01850)
"PIN domain"</title>
				<polygon class="PF01850" points="664,40 670,28 673,28 673,52 670,52" stroke-linejoin="round" width="11" height="24" fill="rgb(197,55,123)" stroke="rgb(157,44,98)" stroke-width="1" opacity="0.75" />
			</g>
		</g>
		<g>
			<title>
conserved hypothetical protein</title>
			<polygon class="
conserved hypothetical protein" points="675,40 684,10 684,70" fill="rgb(255,255,255)" fill-opacity="1.0" stroke="rgb(0,0,0)" stroke-width="2"  />
		</g>
		<g>
			<title>
hypothetical protein</title>
			<polygon class="
hypothetical protein" points="686,10 695,40 686,70" fill="rgb(255,255,255)" fill-opacity="1.0" stroke="rgb(0,0,0)" stroke-width="2"  />
		</g>
		<g>
			<title>
two-component system response regulator</title>
			<polygon class="
two-component system response regulator" points="731,10 748,40 731,70" fill="rgb(255,255,255)" fill-opacity="1.0" stroke="rgb(0,0,0)" stroke-width="2"  />
			<g>
				<title>Response_reg (PF00072)
"Response regulator receiver domain"</title>
				<polygon class="PF00072" points="733,28 737,28 744,39 744,41 737,52 733,52" stroke-linejoin="round" width="11" height="24" fill="rgb(59,131,198)" stroke="rgb(47,104,158)" stroke-width="1" opacity="0.75" />
			</g>
		</g>
		<g>
			<title>
arginyl tRNA synthetase</title>
			<polygon class="
arginyl tRNA synthetase" points="754,25 764,25 764,10 794,40 764,70 764,55 754,55" fill="rgb(255,255,255)" fill-opacity="1.0" stroke="rgb(0,0,0)" stroke-width="2"  />
			<g>
				<title>Arg_tRNA_synt_N (PF03485)
"Arginyl tRNA synthetase N terminal domain"</title>
				<rect class="PF03485" x="754" y="28" stroke-linejoin="round" width="8" height="24" fill="rgb(73,223,127)" stroke="rgb(58,178,101)" stroke-width="1" opacity="0.75" />
			</g>
			<g>
				<title>DALR_1 (PF05746)
"DALR anticodon binding domain"</title>
				<polygon class="PF05746" points="782,33 789,40 782,47" stroke-linejoin="round" width="11" height="24" fill="rgb(170,75,213)" stroke="rgb(136,60,170)" stroke-width="1" opacity="0.75" />
			</g>
		</g>
		<g>
			<title>
diaminopimelate decarboxylase</title>
			<polygon class="
diaminopimelate decarboxylase" points="791,25 810,25 810,10 840,40 810,70 810,55 791,55" fill="rgb(255,255,255)" fill-opacity="1.0" stroke="rgb(0,0,0)" stroke-width="2"  />
			<g>
				<title>Orn_Arg_deC_N (PF02784)
"Pyridoxal-dependent decarboxylase, pyridoxal binding domain"</title>
				<polygon class="PF02784" points="801,28 824,28 826,30 826,50 824,52 801,52" stroke-linejoin="round" width="25" height="24" fill="rgb(92,174,185)" stroke="rgb(73,139,148)" stroke-width="1" opacity="0.75" />
			</g>
		</g>
		<g>
			<title>
homoserine dehydrogenase</title>
			<polygon class="
homoserine dehydrogenase" points="847,25 860,25 860,10 890,40 860,70 860,55 847,55" fill="rgb(255,255,255)" fill-opacity="1.0" stroke="rgb(0,0,0)" stroke-width="2"  />
			<g>
				<title>NAD_binding_3 (PF03447)
"Homoserine dehydrogenase, NAD binding domain"</title>
				<rect class="PF03447" x="848" y="28" stroke-linejoin="round" width="11" height="24" fill="rgb(69,192,213)" stroke="rgb(55,153,170)" stroke-width="1" opacity="0.75" />
			</g>
			<g>
				<title>Homoserine_dh (PF00742)
"Homoserine dehydrogenase"</title>
				<polygon class="PF00742" points="861,28 874,28 879,33 879,47 874,52 861,52" stroke-linejoin="round" width="18" height="24" fill="rgb(70,209,92)" stroke="rgb(56,167,73)" stroke-width="1" opacity="0.75" />
			</g>
			<g>
				<title>ACT (PF01842)
"ACT domain"</title>
				<polygon class="PF01842" points="882,36 886,40 882,44" stroke-linejoin="round" width="6" height="24" fill="rgb(171,88,195)" stroke="rgb(136,70,156)" stroke-width="1" opacity="0.75" />
			</g>
		</g>
		<g>
			<title>
threonine synthase</title>
			<polygon class="
threonine synthase" points="891,25 896,25 896,10 926,40 896,70 896,55 891,55" fill="rgb(255,255,255)" fill-opacity="1.0" stroke="rgb(0,0,0)" stroke-width="2"  />
			<g>
				<title>PALP (PF00291)
"Pyridoxal-phosphate dependent enzyme"</title>
				<polygon class="PF00291" points="893,28 910,28 922,40 922,40 910,52 893,52" stroke-linejoin="round" width="29" height="24" fill="rgb(73,227,169)" stroke="rgb(58,181,135)" stroke-width="1" opacity="0.75" />
			</g>
		</g>
		<g>
			<title>
homoserine kinase</title>
			<polygon class="
homoserine kinase" points="932,25 936,25 936,10 966,40 936,70 936,55 932,55" fill="rgb(255,255,255)" fill-opacity="1.0" stroke="rgb(0,0,0)" stroke-width="2"  />
			<g>
				<title>GHMP_kinases_N (PF00288)
"GHMP kinases N terminal domain"</title>
				<rect class="PF00288" x="944" y="28" stroke-linejoin="round" width="6" height="24" fill="rgb(76,147,218)" stroke="rgb(60,117,174)" stroke-width="1" opacity="0.75" />
			</g>
			<g>
				<title>GHMP_kinases_C (PF08544)
"GHMP kinases C terminal"</title>
				<polygon class="PF08544" points="955,33 962,40 955,47" stroke-linejoin="round" width="8" height="24" fill="rgb(191,105,222)" stroke="rgb(152,84,177)" stroke-width="1" opacity="0.75" />
			</g>
		</g>
		<g>
			<title>
hypothetical protein</title>
			<polygon class="
hypothetical protein" points="1016,25 999,25 999,10 969,40 999,70 999,55 1016,55" fill="rgb(255,255,255)" fill-opacity="1.0" stroke="rgb(0,0,0)" stroke-width="2"  />
		</g>
	</g>
</svg>
