<svg version="1.1" baseProfile="full" xmlns="http://www.w3.org/2000/svg" width="1170.2666666666667" height="80">
	<g>
		<line x1="10" y1="40.0" x2="1160.2666666666667" y2="40.0" style="stroke:rgb(70,70,70); stroke-width:3 "/>
		<g>
			<title>
unknown</title>
			<polygon class="
unknown" points="55,25 47,25 47,10 17,40 47,70 47,55 55,55" fill="rgb(255,255,255)" fill-opacity="1.0" stroke="rgb(0,0,0)" stroke-width="2"  />
		</g>
		<g>
			<title>
unknown</title>
			<polygon class="
unknown" points="114,25 89,25 89,10 59,40 89,70 89,55 114,55" fill="rgb(255,255,255)" fill-opacity="1.0" stroke="rgb(0,0,0)" stroke-width="2"  />
			<g>
				<title>AMP-binding (PF00501)
"AMP-binding enzyme"</title>
				<polygon class="PF00501" points="73,30 75,28 112,28 112,52 75,52 73,50" stroke-linejoin="round" width="39" height="24" fill="rgb(189,78,204)" stroke="rgb(151,62,163)" stroke-width="1" opacity="0.75" />
			</g>
		</g>
		<g>
			<title>fcl
GDP-4-keto-6-deoxy-D-mannose-3, 5-epimerase-4-reductase</title>
			<polygon class="fcl
GDP-4-keto-6-deoxy-D-mannose-3, 5-epimerase-4-reductase" points="157,25 151,25 151,10 121,40 151,70 151,55 157,55" fill="rgb(255,255,255)" fill-opacity="1.0" stroke="rgb(0,0,0)" stroke-width="2"  />
			<g>
				<title>Epimerase (PF01370)
"NAD dependent epimerase/dehydratase family"</title>
				<polygon class="PF01370" points="127,38 135,30 135,50 127,42" stroke-linejoin="round" width="8" height="24" fill="rgb(215,89,157)" stroke="rgb(172,71,125)" stroke-width="1" opacity="0.75" />
			</g>
			<g>
				<title>Epimerase (PF01370)
"NAD dependent epimerase/dehydratase family"</title>
				<polygon class="PF01370" points="135,30 137,28 155,28 155,52 137,52 135,50" stroke-linejoin="round" width="20" height="24" fill="rgb(215,89,157)" stroke="rgb(172,71,125)" stroke-width="1" opacity="0.75" />
			</g>
		</g>
		<g>
			<title>gmd
Gmd</title>
			<polygon class="gmd
Gmd" points="192,25 187,25 187,10 157,40 187,70 187,55 192,55" fill="rgb(255,255,255)" fill-opacity="1.0" stroke="rgb(0,0,0)" stroke-width="2"  />
			<g>
				<title>GDP_Man_Dehyd (PF16363)
"GDP-mannose 4,6 dehydratase"</title>
				<polygon class="PF16363" points="161,40 173,28 191,28 191,52 173,52" stroke-linejoin="round" width="33" height="24" fill="rgb(50,144,195)" stroke="rgb(40,115,156)" stroke-width="1" opacity="0.75" />
			</g>
		</g>
		<g>
			<title>
unknown</title>
			<polygon class="
unknown" points="200,25 212,25 212,10 242,40 212,70 212,55 200,55" fill="rgb(255,255,255)" fill-opacity="1.0" stroke="rgb(0,0,0)" stroke-width="2"  />
			<g>
				<title>AAA_14 (PF13173)
"AAA domain"</title>
				<rect class="PF13173" x="203" y="28" stroke-linejoin="round" width="13" height="24" fill="rgb(223,91,151)" stroke="rgb(178,72,120)" stroke-width="1" opacity="0.75" />
			</g>
		</g>
		<g>
			<title>
unknown</title>
			<polygon class="
unknown" points="252,40 278,10 278,70" fill="rgb(255,255,255)" fill-opacity="1.0" stroke="rgb(0,0,0)" stroke-width="2"  />
			<g>
				<title>Lin1244_N (PF14297)
"Lin1244/Lin1753-like, N-terminal"</title>
				<rect class="PF14297" x="268" y="28" stroke-linejoin="round" width="9" height="24" fill="rgb(201,58,209)" stroke="rgb(160,46,167)" stroke-width="1" opacity="0.75" />
			</g>
		</g>
		<g>
			<title>
unknown</title>
			<polygon class="
unknown" points="280,40 291,10 291,70" fill="rgb(255,255,255)" fill-opacity="1.0" stroke="rgb(0,0,0)" stroke-width="2"  />
			<g>
				<title>WYL_2 (PF10902)
"WYL_2, Sm-like SH3 beta-barrel fold"</title>
				<polygon class="PF10902" points="283,40 286,32 286,48" stroke-linejoin="round" width="6" height="24" fill="rgb(64,81,198)" stroke="rgb(51,64,158)" stroke-width="1" opacity="0.75" />
			</g>
		</g>
		<g>
			<title>upbY
putative transcriptional regulatory protein</title>
			<polygon class="upbY
putative transcriptional regulatory protein" points="325,10 342,40 325,70" fill="rgb(255,255,255)" fill-opacity="1.0" stroke="rgb(0,0,0)" stroke-width="2"  />
			<g>
				<title>NusG (PF02357)
"Transcription termination factor nusG"</title>
				<polygon class="PF02357" points="325,28 331,28 335,34 335,46 331,52 325,52" stroke-linejoin="round" width="10" height="24" fill="rgb(170,85,186)" stroke="rgb(136,68,148)" stroke-width="1" opacity="0.75" />
			</g>
		</g>
		<g>
			<title>upbZ
unknown</title>
			<polygon class="upbZ
unknown" points="343,10 359,40 343,70" fill="rgb(255,255,255)" fill-opacity="1.0" stroke="rgb(0,0,0)" stroke-width="2"  />
			<g>
				<title>UpxZ (PF06603)
"UpxZ family of transcription anti-terminator antagonists"</title>
				<polygon class="PF06603" points="343,28 349,28 353,35 353,45 349,52 343,52" stroke-linejoin="round" width="10" height="24" fill="rgb(199,81,142)" stroke="rgb(159,64,113)" stroke-width="1" opacity="0.75" />
			</g>
		</g>
		<g>
			<title>wcfT
unknown</title>
			<polygon class="wcfT
unknown" points="359,25 371,25 371,10 401,40 371,70 371,55 359,55" fill="rgb(255,255,255)" fill-opacity="1.0" stroke="rgb(0,0,0)" stroke-width="2"  />
			<g>
				<title>DUF5690 (PF18943)
"Family of unknown function (DUF5690)"</title>
				<polygon class="PF18943" points="362,28 385,28 397,40 385,52 362,52" stroke-linejoin="round" width="37" height="24" fill="rgb(70,192,61)" stroke="rgb(56,153,48)" stroke-width="1" opacity="0.75" />
			</g>
		</g>
		<g>
			<title>wcfU
putative glucose-1-P-cytidylyltransferase</title>
			<polygon class="wcfU
putative glucose-1-P-cytidylyltransferase" points="401,10 425,40 401,70" fill="rgb(255,255,255)" fill-opacity="1.0" stroke="rgb(0,0,0)" stroke-width="2"  />
			<g>
				<title>NTP_transf_3 (PF12804)
"MobA-like NTP transferase domain"</title>
				<polygon class="PF12804" points="401,28 411,28 418,37 418,43 411,52 401,52" stroke-linejoin="round" width="17" height="24" fill="rgb(203,166,82)" stroke="rgb(162,132,65)" stroke-width="1" opacity="0.75" />
			</g>
		</g>
		<g>
			<title>aepX
putative phosphoenolpyruvate phosphomutase</title>
			<polygon class="aepX
putative phosphoenolpyruvate phosphomutase" points="426,25 439,25 439,10 469,40 439,70 439,55 426,55" fill="rgb(255,255,255)" fill-opacity="1.0" stroke="rgb(0,0,0)" stroke-width="2"  />
			<g>
				<title>CTP_transf_like (PF01467)
"Cytidylyltransferase-like"</title>
				<rect class="PF01467" x="426" y="28" stroke-linejoin="round" width="12" height="24" fill="rgb(182,79,133)" stroke="rgb(145,63,106)" stroke-width="1" opacity="0.75" />
			</g>
			<g>
				<title>PEP_mutase (PF13714)
"Phosphoenolpyruvate phosphomutase"</title>
				<polygon class="PF13714" points="440,28 453,28 465,40 465,40 453,52 440,52" stroke-linejoin="round" width="25" height="24" fill="rgb(75,181,147)" stroke="rgb(59,144,117)" stroke-width="1" opacity="0.75" />
			</g>
		</g>
		<g>
			<title>aepY
putative phosphoenolpyruvate decarboxylase</title>
			<polygon class="aepY
putative phosphoenolpyruvate decarboxylase" points="470,25 477,25 477,10 507,40 477,70 477,55 470,55" fill="rgb(255,255,255)" fill-opacity="1.0" stroke="rgb(0,0,0)" stroke-width="2"  />
			<g>
				<title>TPP_enzyme_N (PF02776)
"Thiamine pyrophosphate enzyme, N-terminal TPP binding domain"</title>
				<rect class="PF02776" x="470" y="28" stroke-linejoin="round" width="12" height="24" fill="rgb(208,64,165)" stroke="rgb(166,51,132)" stroke-width="1" opacity="0.75" />
			</g>
			<g>
				<title>TPP_enzyme_C (PF02775)
"Thiamine pyrophosphate enzyme, C-terminal TPP binding domain"</title>
				<polygon class="PF02775" points="490,28 491,28 503,40 503,40 491,52 490,52" stroke-linejoin="round" width="13" height="24" fill="rgb(212,69,87)" stroke="rgb(169,55,69)" stroke-width="1" opacity="0.75" />
			</g>
		</g>
		<g>
			<title>aepZ
putative 2-aminoethylphosphonate pyruvate aminotransferase</title>
			<polygon class="aepZ
putative 2-aminoethylphosphonate pyruvate aminotransferase" points="507,25 513,25 513,10 543,40 513,70 513,55 507,55" fill="rgb(255,255,255)" fill-opacity="1.0" stroke="rgb(0,0,0)" stroke-width="2"  />
			<g>
				<title>Aminotran_5 (PF00266)
"Aminotransferase class-V"</title>
				<polygon class="PF00266" points="509,28 527,28 539,40 527,52 509,52" stroke-linejoin="round" width="32" height="24" fill="rgb(61,141,184)" stroke="rgb(48,112,147)" stroke-width="1" opacity="0.75" />
			</g>
		</g>
		<g>
			<title>wzx
putative flippase</title>
			<polygon class="wzx
putative flippase" points="545,25 564,25 564,10 594,40 564,70 564,55 545,55" fill="rgb(255,255,255)" fill-opacity="1.0" stroke="rgb(0,0,0)" stroke-width="2"  />
			<g>
				<title>Polysacc_synt_3 (PF13440)
"Polysaccharide biosynthesis protein"</title>
				<rect class="PF13440" x="554" y="28" stroke-linejoin="round" width="24" height="24" fill="rgb(215,91,58)" stroke="rgb(172,72,46)" stroke-width="1" opacity="0.75" />
			</g>
		</g>
		<g>
			<title>wcfV
unknown</title>
			<polygon class="wcfV
unknown" points="595,25 603,25 603,10 633,40 603,70 603,55 595,55" fill="rgb(255,255,255)" fill-opacity="1.0" stroke="rgb(0,0,0)" stroke-width="2"  />
		</g>
		<g>
			<title>wcfW
putative alpha-1,2-fucosyltransferase</title>
			<polygon class="wcfW
putative alpha-1,2-fucosyltransferase" points="633,10 662,40 633,70" fill="rgb(255,255,255)" fill-opacity="1.0" stroke="rgb(0,0,0)" stroke-width="2"  />
			<g>
				<title>Glyco_transf_11 (PF01531)
"Glycosyl transferase family 11"</title>
				<polygon class="PF01531" points="641,28 645,28 657,40 645,52 641,52" stroke-linejoin="round" width="20" height="24" fill="rgb(66,77,182)" stroke="rgb(52,61,145)" stroke-width="1" opacity="0.75" />
			</g>
		</g>
		<g>
			<title>wcfX
putative UDP-glucuronic acid epimerase</title>
			<polygon class="wcfX
putative UDP-glucuronic acid epimerase" points="662,25 667,25 667,10 697,40 667,70 667,55 662,55" fill="rgb(255,255,255)" fill-opacity="1.0" stroke="rgb(0,0,0)" stroke-width="2"  />
			<g>
				<title>Epimerase (PF01370)
"NAD dependent epimerase/dehydratase family"</title>
				<polygon class="PF01370" points="662,28 680,28 689,37 689,43 680,52 662,52" stroke-linejoin="round" width="27" height="24" fill="rgb(215,89,157)" stroke="rgb(172,71,125)" stroke-width="1" opacity="0.75" />
			</g>
		</g>
		<g>
			<title>wcfY
putative UDP-glucose dehydrogenase</title>
			<polygon class="wcfY
putative UDP-glucose dehydrogenase" points="697,25 711,25 711,10 741,40 711,70 711,55 697,55" fill="rgb(255,255,255)" fill-opacity="1.0" stroke="rgb(0,0,0)" stroke-width="2"  />
			<g>
				<title>UDPG_MGDP_dh_N (PF03721)
"UDP-glucose/GDP-mannose dehydrogenase family, NAD binding domain"</title>
				<rect class="PF03721" x="697" y="28" stroke-linejoin="round" width="18" height="24" fill="rgb(63,215,56)" stroke="rgb(50,172,44)" stroke-width="1" opacity="0.75" />
			</g>
			<g>
				<title>UDPG_MGDP_dh (PF00984)
"UDP-glucose/GDP-mannose dehydrogenase family, central domain"</title>
				<polygon class="PF00984" points="717,28 724,28 726,30 726,50 724,52 717,52" stroke-linejoin="round" width="9" height="24" fill="rgb(171,213,56)" stroke="rgb(136,170,44)" stroke-width="1" opacity="0.75" />
			</g>
			<g>
				<title>UDPG_MGDP_dh_C (PF03720)
"UDP-glucose/GDP-mannose dehydrogenase family, UDP binding domain"</title>
				<polygon class="PF03720" points="729,33 736,40 729,47" stroke-linejoin="round" width="10" height="24" fill="rgb(78,165,180)" stroke="rgb(62,132,144)" stroke-width="1" opacity="0.75" />
			</g>
		</g>
		<g>
			<title>wcfZ
putative glycosyltransferase</title>
			<polygon class="wcfZ
putative glycosyltransferase" points="751,25 755,25 755,10 785,40 755,70 755,55 751,55" fill="rgb(255,255,255)" fill-opacity="1.0" stroke="rgb(0,0,0)" stroke-width="2"  />
			<g>
				<title>Glycos_transf_2 (PF00535)
"Glycosyl transferase family 2"</title>
				<rect class="PF00535" x="752" y="28" stroke-linejoin="round" width="16" height="24" fill="rgb(197,62,212)" stroke="rgb(157,49,169)" stroke-width="1" opacity="0.75" />
			</g>
		</g>
		<g>
			<title>wcgQ
putative glycosyltransferase</title>
			<polygon class="wcgQ
putative glycosyltransferase" points="786,25 790,25 790,10 820,40 790,70 790,55 786,55" fill="rgb(255,255,255)" fill-opacity="1.0" stroke="rgb(0,0,0)" stroke-width="2"  />
			<g>
				<title>Glycos_transf_2 (PF00535)
"Glycosyl transferase family 2"</title>
				<rect class="PF00535" x="787" y="28" stroke-linejoin="round" width="13" height="24" fill="rgb(197,62,212)" stroke="rgb(157,49,169)" stroke-width="1" opacity="0.75" />
			</g>
		</g>
		<g>
			<title>wzy
putative polymerase</title>
			<polygon class="wzy
putative polymerase" points="820,25 827,25 827,10 857,40 827,70 827,55 820,55" fill="rgb(255,255,255)" fill-opacity="1.0" stroke="rgb(0,0,0)" stroke-width="2"  />
		</g>
		<g>
			<title>wcgR
putative glycosyltransferase</title>
			<polygon class="wcgR
putative glycosyltransferase" points="857,25 864,25 864,10 894,40 864,70 864,55 857,55" fill="rgb(255,255,255)" fill-opacity="1.0" stroke="rgb(0,0,0)" stroke-width="2"  />
			<g>
				<title>Glyco_transf_4 (PF13439)
"Glycosyltransferase Family 4"</title>
				<rect class="PF13439" x="858" y="28" stroke-linejoin="round" width="16" height="24" fill="rgb(67,194,123)" stroke="rgb(53,155,98)" stroke-width="1" opacity="0.75" />
			</g>
			<g>
				<title>Glyco_trans_1_4 (PF13692)
"Glycosyl transferases group 1"</title>
				<polygon class="PF13692" points="876,28 877,28 889,40 889,40 877,52 876,52" stroke-linejoin="round" width="13" height="24" fill="rgb(154,183,67)" stroke="rgb(123,146,53)" stroke-width="1" opacity="0.75" />
			</g>
		</g>
		<g>
			<title>wcgS
putative dehydratase</title>
			<polygon class="wcgS
putative dehydratase" points="894,25 897,25 897,10 927,40 897,70 897,55 894,55" fill="rgb(255,255,255)" fill-opacity="1.0" stroke="rgb(0,0,0)" stroke-width="2"  />
			<g>
				<title>Polysacc_synt_2 (PF02719)
"Polysaccharide biosynthesis protein"</title>
				<polygon class="PF02719" points="894,28 911,28 921,38 921,42 911,52 894,52" stroke-linejoin="round" width="27" height="24" fill="rgb(177,81,206)" stroke="rgb(141,64,164)" stroke-width="1" opacity="0.75" />
			</g>
			<g>
				<title>Polysacc_syn_2C (PF08485)
"Polysaccharide biosynthesis protein C-terminal"</title>
				<polygon class="PF08485" points="922,39 923,40 922,41" stroke-linejoin="round" width="4" height="24" fill="rgb(219,77,227)" stroke="rgb(175,61,181)" stroke-width="1" opacity="0.75" />
			</g>
		</g>
		<g>
			<title>wcgT
putative epimerase</title>
			<polygon class="wcgT
putative epimerase" points="928,25 935,25 935,10 965,40 935,70 935,55 928,55" fill="rgb(255,255,255)" fill-opacity="1.0" stroke="rgb(0,0,0)" stroke-width="2"  />
			<g>
				<title>Epimerase_2 (PF02350)
"UDP-N-acetylglucosamine 2-epimerase"</title>
				<polygon class="PF02350" points="930,28 949,28 961,40 949,52 930,52" stroke-linejoin="round" width="33" height="24" fill="rgb(227,99,124)" stroke="rgb(181,79,99)" stroke-width="1" opacity="0.75" />
			</g>
		</g>
		<g>
			<title>wcgU
putative reductase</title>
			<polygon class="wcgU
putative reductase" points="966,10 994,40 966,70" fill="rgb(255,255,255)" fill-opacity="1.0" stroke="rgb(0,0,0)" stroke-width="2"  />
			<g>
				<title>RmlD_sub_bind (PF04321)
"RmlD substrate binding domain"</title>
				<polygon class="PF04321" points="966,28 978,28 983,33 983,47 978,52 966,52" stroke-linejoin="round" width="17" height="24" fill="rgb(71,77,207)" stroke="rgb(56,61,165)" stroke-width="1" opacity="0.75" />
			</g>
		</g>
		<g>
			<title>wcgV
putative glycosyltransferase</title>
			<polygon class="wcgV
putative glycosyltransferase" points="995,25 1005,25 1005,10 1035,40 1005,70 1005,55 995,55" fill="rgb(255,255,255)" fill-opacity="1.0" stroke="rgb(0,0,0)" stroke-width="2"  />
			<g>
				<title>Glyco_trans_4_4 (PF13579)
"Glycosyl transferase 4-like domain"</title>
				<rect class="PF13579" x="996" y="28" stroke-linejoin="round" width="18" height="24" fill="rgb(109,95,198)" stroke="rgb(87,76,158)" stroke-width="1" opacity="0.75" />
			</g>
			<g>
				<title>Glycos_transf_1 (PF00534)
"Glycosyl transferases group 1"</title>
				<polygon class="PF00534" points="1015,28 1019,28 1031,40 1019,52 1015,52" stroke-linejoin="round" width="17" height="24" fill="rgb(66,178,218)" stroke="rgb(52,142,174)" stroke-width="1" opacity="0.75" />
			</g>
		</g>
		<g>
			<title>wcgW
putative dehydratase</title>
			<polygon class="wcgW
putative dehydratase" points="1036,25 1039,25 1039,10 1069,40 1039,70 1039,55 1036,55" fill="rgb(255,255,255)" fill-opacity="1.0" stroke="rgb(0,0,0)" stroke-width="2"  />
			<g>
				<title>Epimerase (PF01370)
"NAD dependent epimerase/dehydratase family"</title>
				<polygon class="PF01370" points="1036,28 1053,28 1059,34 1059,46 1053,52 1036,52" stroke-linejoin="round" width="23" height="24" fill="rgb(215,89,157)" stroke="rgb(172,71,125)" stroke-width="1" opacity="0.75" />
			</g>
		</g>
		<g>
			<title>wcgX
putative UndPP-QuiNAc-P-transferase</title>
			<polygon class="wcgX
putative UndPP-QuiNAc-P-transferase" points="1069,25 1070,25 1070,10 1100,40 1070,70 1070,55 1069,55" fill="rgb(255,255,255)" fill-opacity="1.0" stroke="rgb(0,0,0)" stroke-width="2"  />
			<g>
				<title>Glycos_transf_4 (PF00953)
"Glycosyl transferase family 4"</title>
				<polygon class="PF00953" points="1075,28 1084,28 1089,33 1089,47 1084,52 1075,52" stroke-linejoin="round" width="14" height="24" fill="rgb(189,86,126)" stroke="rgb(151,68,100)" stroke-width="1" opacity="0.75" />
			</g>
		</g>
		<g>
			<title>
unknown</title>
			<polygon class="
unknown" points="1134,10 1149,40 1134,70" fill="rgb(255,255,255)" fill-opacity="1.0" stroke="rgb(0,0,0)" stroke-width="2"  />
			<g>
				<title>HU-HIG (PF18291)
"HU domain fused to wHTH, Ig, or Glycine-rich motif"</title>
				<polygon class="PF18291" points="1134,28 1139,28 1146,40 1146,40 1139,52 1134,52" stroke-linejoin="round" width="12" height="24" fill="rgb(90,104,229)" stroke="rgb(71,83,183)" stroke-width="1" opacity="0.75" />
			</g>
		</g>
	</g>
</svg>
