<svg version="1.1" baseProfile="full" xmlns="http://www.w3.org/2000/svg" width="290.8333333333333" height="80">
	<g>
		<line x1="10" y1="40.0" x2="280.8333333333333" y2="40.0" style="stroke:rgb(70,70,70); stroke-width:3 "/>
		<g>
			<title>cpx2D
Cpx2D</title>
			<polygon class="cpx2D
Cpx2D" points="47,25 40,25 40,10 10,40 40,70 40,55 47,55" fill="rgb(255,255,255)" fill-opacity="1.0" stroke="rgb(0,0,0)" stroke-width="2"  />
			<g>
				<title>Poly_export (PF02563)
"Polysaccharide biosynthesis/export protein"</title>
				<rect class="PF02563" x="29" y="28" stroke-linejoin="round" width="9" height="24" fill="rgb(219,92,156)" stroke="rgb(175,73,124)" stroke-width="1" opacity="0.75" />
			</g>
		</g>
		<g>
			<title>cps2A
Cps2A</title>
			<polygon class="cps2A
Cps2A" points="53,25 60,25 60,10 90,40 60,70 60,55 53,55" fill="rgb(255,255,255)" fill-opacity="1.0" stroke="rgb(0,0,0)" stroke-width="2"  />
			<g>
				<title>Glyphos_transf (PF04464)
"CDP-Glycerol:Poly(glycerophosphate) glycerophosphotransferase"</title>
				<polygon class="PF04464" points="64,28 74,28 79,33 79,47 74,52 64,52" stroke-linejoin="round" width="15" height="24" fill="rgb(210,81,221)" stroke="rgb(168,64,176)" stroke-width="1" opacity="0.75" />
			</g>
		</g>
		<g>
			<title>cps2B
Cps2B</title>
			<polygon class="cps2B
Cps2B" points="92,10 106,40 92,70" fill="rgb(255,255,255)" fill-opacity="1.0" stroke="rgb(0,0,0)" stroke-width="2"  />
			<g>
				<title>CTP_transf_like (PF01467)
"Cytidylyltransferase-like"</title>
				<polygon class="PF01467" points="92,28 97,28 102,40 97,52 92,52" stroke-linejoin="round" width="12" height="24" fill="rgb(182,79,133)" stroke="rgb(145,63,106)" stroke-width="1" opacity="0.75" />
			</g>
		</g>
		<g>
			<title>cps2C
Cps2C</title>
			<polygon class="cps2C
Cps2C" points="107,25 115,25 115,10 145,40 115,70 115,55 107,55" fill="rgb(255,255,255)" fill-opacity="1.0" stroke="rgb(0,0,0)" stroke-width="2"  />
		</g>
		<g>
			<title>cps2D
Cps2D</title>
			<polygon class="cps2D
Cps2D" points="145,25 243,25 243,10 273,40 243,70 243,55 145,55" fill="rgb(255,255,255)" fill-opacity="1.0" stroke="rgb(0,0,0)" stroke-width="2"  />
			<g>
				<title>TPR_8 (PF13181)
"Tetratricopeptide repeat"</title>
				<rect class="PF13181" x="174" y="28" stroke-linejoin="round" width="3" height="24" fill="rgb(216,64,149)" stroke="rgb(172,51,119)" stroke-width="1" opacity="0.75" />
			</g>
			<g>
				<title>Glyphos_transf (PF04464)
"CDP-Glycerol:Poly(glycerophosphate) glycerophosphotransferase"</title>
				<rect class="PF04464" x="196" y="28" stroke-linejoin="round" width="36" height="24" fill="rgb(210,81,221)" stroke="rgb(168,64,176)" stroke-width="1" opacity="0.75" />
			</g>
			<g>
				<title>Glycos_transf_1 (PF00534)
"Glycosyl transferases group 1"</title>
				<polygon class="PF00534" points="256,28 257,28 269,40 257,52 256,52" stroke-linejoin="round" width="16" height="24" fill="rgb(66,178,218)" stroke="rgb(52,142,174)" stroke-width="1" opacity="0.75" />
			</g>
		</g>
	</g>
</svg>
