<svg version="1.1" baseProfile="full" xmlns="http://www.w3.org/2000/svg" width="840.8333333333334" height="80">
	<g>
		<line x1="10" y1="40.0" x2="830.8333333333334" y2="40.0" style="stroke:rgb(70,70,70); stroke-width:3 "/>
		<g>
			<title> (NCC2767LJ0002)
hypothetical protein</title>
			<polygon class=" (NCC2767LJ0002)
hypothetical protein" points="33,10 38,40 33,70" fill="rgb(255,255,255)" fill-opacity="1.0" stroke="rgb(0,0,0)" stroke-width="2"  />
		</g>
		<g>
			<title> (NCC2767LJ0003)
eps transcriptional regulator</title>
			<polygon class=" (NCC2767LJ0003)
eps transcriptional regulator" points="46,25 49,25 49,10 79,40 49,70 49,55 46,55" fill="rgb(255,255,255)" fill-opacity="1.0" stroke="rgb(0,0,0)" stroke-width="2"  />
			<g>
				<title>LytR_cpsA_psr (PF03816)
"LytR_cpsA_psr family"</title>
				<polygon class="PF03816" points="56,28 63,28 70,35 70,45 63,52 56,52" stroke-linejoin="round" width="14" height="24" fill="rgb(100,48,191)" stroke="rgb(79,38,152)" stroke-width="1" opacity="0.75" />
			</g>
		</g>
		<g>
			<title> (NCC2767LJ0004)
polymerization and chain length determination protein</title>
			<polygon class=" (NCC2767LJ0004)
polymerization and chain length determination protein" points="80,10 108,40 80,70" fill="rgb(255,255,255)" fill-opacity="1.0" stroke="rgb(0,0,0)" stroke-width="2"  />
			<g>
				<title>Wzz (PF02706)
"Chain length determinant protein"</title>
				<rect class="PF02706" x="80" y="28" stroke-linejoin="round" width="9" height="24" fill="rgb(216,77,57)" stroke="rgb(172,61,45)" stroke-width="1" opacity="0.75" />
			</g>
		</g>
		<g>
			<title> (NCC2767LJ0005)
polymerization and chain length determination protein</title>
			<polygon class=" (NCC2767LJ0005)
polymerization and chain length determination protein" points="109,10 134,40 109,70" fill="rgb(255,255,255)" fill-opacity="1.0" stroke="rgb(0,0,0)" stroke-width="2"  />
			<g>
				<title>AAA_31 (PF13614)
"AAA domain"</title>
				<polygon class="PF13614" points="114,28 120,28 130,40 120,52 114,52" stroke-linejoin="round" width="17" height="24" fill="rgb(103,181,56)" stroke="rgb(82,144,44)" stroke-width="1" opacity="0.75" />
			</g>
		</g>
		<g>
			<title> (NCC2767LJ0006)
polymerization and chain length determination protein</title>
			<polygon class=" (NCC2767LJ0006)
polymerization and chain length determination protein" points="135,10 160,40 135,70" fill="rgb(255,255,255)" fill-opacity="1.0" stroke="rgb(0,0,0)" stroke-width="2"  />
			<g>
				<title>CpsB_CapC (PF19567)
"Capsular polysaccharide synthesis, CpsB/CapC"</title>
				<polygon class="PF19567" points="135,28 146,28 156,40 146,52 135,52" stroke-linejoin="round" width="23" height="24" fill="rgb(63,98,189)" stroke="rgb(50,78,151)" stroke-width="1" opacity="0.75" />
			</g>
		</g>
		<g>
			<title> (NCC2767LJ0007)
phospho-glycosyltransferase</title>
			<polygon class=" (NCC2767LJ0007)
phospho-glycosyltransferase" points="162,10 184,40 162,70" fill="rgb(255,255,255)" fill-opacity="1.0" stroke="rgb(0,0,0)" stroke-width="2"  />
			<g>
				<title>Bac_transf (PF02397)
"Bacterial sugar transferase"</title>
				<polygon class="PF02397" points="164,28 172,28 180,40 172,52 164,52" stroke-linejoin="round" width="19" height="24" fill="rgb(100,199,213)" stroke="rgb(80,159,170)" stroke-width="1" opacity="0.75" />
			</g>
		</g>
		<g>
			<title> (NCC2767LJ0008)
glycosyltransferase</title>
			<polygon class=" (NCC2767LJ0008)
glycosyltransferase" points="184,10 210,40 184,70" fill="rgb(255,255,255)" fill-opacity="1.0" stroke="rgb(0,0,0)" stroke-width="2"  />
			<g>
				<title>DUF4422 (PF14393)
"Domain of unknown function (DUF4422)"</title>
				<polygon class="PF14393" points="184,28 196,28 205,39 205,41 196,52 184,52" stroke-linejoin="round" width="21" height="24" fill="rgb(193,177,73)" stroke="rgb(154,141,58)" stroke-width="1" opacity="0.75" />
			</g>
		</g>
		<g>
			<title> (NCC2767LJ0009)
glycosyltransferase</title>
			<polygon class=" (NCC2767LJ0009)
glycosyltransferase" points="211,25 218,25 218,10 248,40 218,70 218,55 211,55" fill="rgb(255,255,255)" fill-opacity="1.0" stroke="rgb(0,0,0)" stroke-width="2"  />
			<g>
				<title>Glyco_transf_4 (PF13439)
"Glycosyltransferase Family 4"</title>
				<rect class="PF13439" x="212" y="28" stroke-linejoin="round" width="16" height="24" fill="rgb(67,194,123)" stroke="rgb(53,155,98)" stroke-width="1" opacity="0.75" />
			</g>
			<g>
				<title>Glycos_transf_1 (PF00534)
"Glycosyl transferases group 1"</title>
				<polygon class="PF00534" points="229,28 231,28 243,40 231,52 229,52" stroke-linejoin="round" width="16" height="24" fill="rgb(66,178,218)" stroke="rgb(52,142,174)" stroke-width="1" opacity="0.75" />
			</g>
		</g>
		<g>
			<title> (NCC2767LJ0010)
glycosyltransferase</title>
			<polygon class=" (NCC2767LJ0010)
glycosyltransferase" points="250,25 255,25 255,10 285,40 255,70 255,55 250,55" fill="rgb(255,255,255)" fill-opacity="1.0" stroke="rgb(0,0,0)" stroke-width="2"  />
			<g>
				<title>Glyco_transf_4 (PF13439)
"Glycosyltransferase Family 4"</title>
				<rect class="PF13439" x="250" y="28" stroke-linejoin="round" width="15" height="24" fill="rgb(67,194,123)" stroke="rgb(53,155,98)" stroke-width="1" opacity="0.75" />
			</g>
			<g>
				<title>Glycos_transf_1 (PF00534)
"Glycosyl transferases group 1"</title>
				<polygon class="PF00534" points="267,28 269,28 281,40 269,52 267,52" stroke-linejoin="round" width="15" height="24" fill="rgb(66,178,218)" stroke="rgb(52,142,174)" stroke-width="1" opacity="0.75" />
			</g>
		</g>
		<g>
			<title> (NCC2767LJ0011)
glycosyltransferase</title>
			<polygon class=" (NCC2767LJ0011)
glycosyltransferase" points="285,25 291,25 291,10 321,40 291,70 291,55 285,55" fill="rgb(255,255,255)" fill-opacity="1.0" stroke="rgb(0,0,0)" stroke-width="2"  />
			<g>
				<title>Glyco_transf_4 (PF13439)
"Glycosyltransferase Family 4"</title>
				<rect class="PF13439" x="286" y="28" stroke-linejoin="round" width="15" height="24" fill="rgb(67,194,123)" stroke="rgb(53,155,98)" stroke-width="1" opacity="0.75" />
			</g>
			<g>
				<title>Glycos_transf_1 (PF00534)
"Glycosyl transferases group 1"</title>
				<polygon class="PF00534" points="302,28 305,28 317,40 317,40 305,52 302,52" stroke-linejoin="round" width="15" height="24" fill="rgb(66,178,218)" stroke="rgb(52,142,174)" stroke-width="1" opacity="0.75" />
			</g>
		</g>
		<g>
			<title> (NCC2767LJ0012)
glycosyltransferase</title>
			<polygon class=" (NCC2767LJ0012)
glycosyltransferase" points="322,25 323,25 323,10 353,40 323,70 323,55 322,55" fill="rgb(255,255,255)" fill-opacity="1.0" stroke="rgb(0,0,0)" stroke-width="2"  />
			<g>
				<title>Glycos_transf_2 (PF00535)
"Glycosyl transferase family 2"</title>
				<polygon class="PF00535" points="323,28 337,28 339,30 339,50 337,52 323,52" stroke-linejoin="round" width="16" height="24" fill="rgb(197,62,212)" stroke="rgb(157,49,169)" stroke-width="1" opacity="0.75" />
			</g>
		</g>
		<g>
			<title> (NCC2767LJ0013)
polymerization and export protein</title>
			<polygon class=" (NCC2767LJ0013)
polymerization and export protein" points="355,25 366,25 366,10 396,40 366,70 366,55 355,55" fill="rgb(255,255,255)" fill-opacity="1.0" stroke="rgb(0,0,0)" stroke-width="2"  />
			<g>
				<title>Wzy_C (PF04932)
"O-Antigen ligase"</title>
				<polygon class="PF04932" points="377,28 379,28 390,39 390,41 379,52 377,52" stroke-linejoin="round" width="13" height="24" fill="rgb(226,159,71)" stroke="rgb(180,127,56)" stroke-width="1" opacity="0.75" />
			</g>
		</g>
		<g>
			<title> (NCC2767LJ0014)
UDP-galactopyranose mutase</title>
			<polygon class=" (NCC2767LJ0014)
UDP-galactopyranose mutase" points="397,25 404,25 404,10 434,40 404,70 404,55 397,55" fill="rgb(255,255,255)" fill-opacity="1.0" stroke="rgb(0,0,0)" stroke-width="2"  />
			<g>
				<title>NAD_binding_8 (PF13450)
"NAD(P)-binding Rossmann-like domain"</title>
				<rect class="PF13450" x="397" y="28" stroke-linejoin="round" width="6" height="24" fill="rgb(218,105,93)" stroke="rgb(174,84,74)" stroke-width="1" opacity="0.75" />
			</g>
			<g>
				<title>GLF (PF03275)
"UDP-galactopyranose mutase"</title>
				<polygon class="PF03275" points="411,28 418,28 430,40 418,52 411,52" stroke-linejoin="round" width="20" height="24" fill="rgb(110,188,78)" stroke="rgb(88,150,62)" stroke-width="1" opacity="0.75" />
			</g>
		</g>
		<g>
			<title> (NCC2767LJ0015)
glycosyltransferase</title>
			<polygon class=" (NCC2767LJ0015)
glycosyltransferase" points="435,10 464,40 435,70" fill="rgb(255,255,255)" fill-opacity="1.0" stroke="rgb(0,0,0)" stroke-width="2"  />
			<g>
				<title>Branch (PF02485)
"Core-2/I-Branching enzyme"</title>
				<polygon class="PF02485" points="435,28 448,28 460,40 448,52 435,52" stroke-linejoin="round" width="26" height="24" fill="rgb(188,83,152)" stroke="rgb(150,66,121)" stroke-width="1" opacity="0.75" />
			</g>
		</g>
		<g>
			<title> (NCC2767LJ0016)
polymerization and export protein</title>
			<polygon class=" (NCC2767LJ0016)
polymerization and export protein" points="465,25 482,25 482,10 512,40 482,70 482,55 465,55" fill="rgb(255,255,255)" fill-opacity="1.0" stroke="rgb(0,0,0)" stroke-width="2"  />
			<g>
				<title>Polysacc_synt (PF01943)
"Polysaccharide biosynthesis protein"</title>
				<rect class="PF01943" x="465" y="28" stroke-linejoin="round" width="26" height="24" fill="rgb(87,191,113)" stroke="rgb(69,152,90)" stroke-width="1" opacity="0.75" />
			</g>
			<g>
				<title>Polysacc_synt_C (PF14667)
"Polysaccharide biosynthesis C-terminal domain"</title>
				<polygon class="PF14667" points="497,29 508,40 497,51" stroke-linejoin="round" width="13" height="24" fill="rgb(183,62,83)" stroke="rgb(146,49,66)" stroke-width="1" opacity="0.75" />
			</g>
		</g>
		<g>
			<title> (NCC2767LJ0017)
membrane protein</title>
			<polygon class=" (NCC2767LJ0017)
membrane protein" points="512,25 515,25 515,10 545,40 515,70 515,55 512,55" fill="rgb(255,255,255)" fill-opacity="1.0" stroke="rgb(0,0,0)" stroke-width="2"  />
			<g>
				<title>Acyl_transf_3 (PF01757)
"Acyltransferase family"</title>
				<polygon class="PF01757" points="512,28 529,28 541,40 529,52 512,52" stroke-linejoin="round" width="31" height="24" fill="rgb(131,179,78)" stroke="rgb(104,143,62)" stroke-width="1" opacity="0.75" />
			</g>
		</g>
		<g>
			<title> (NCC2767LJ0018)
hypothetical protein</title>
			<polygon class=" (NCC2767LJ0018)
hypothetical protein" points="547,10 561,40 547,70" fill="rgb(255,255,255)" fill-opacity="1.0" stroke="rgb(0,0,0)" stroke-width="2"  />
			<g>
				<title>Acyl_transf_3 (PF01757)
"Acyltransferase family"</title>
				<polygon class="PF01757" points="547,28 552,28 558,40 552,52 547,52" stroke-linejoin="round" width="13" height="24" fill="rgb(131,179,78)" stroke="rgb(104,143,62)" stroke-width="1" opacity="0.75" />
			</g>
		</g>
		<g>
			<title> (NCC2767LJ0019)
hypothetical protein</title>
			<polygon class=" (NCC2767LJ0019)
hypothetical protein" points="563,10 580,40 563,70" fill="rgb(255,255,255)" fill-opacity="1.0" stroke="rgb(0,0,0)" stroke-width="2"  />
		</g>
		<g>
			<title> (NCC2767LJ0020)
hypothetical protein</title>
			<polygon class=" (NCC2767LJ0020)
hypothetical protein" points="609,10 615,40 609,70" fill="rgb(255,255,255)" fill-opacity="1.0" stroke="rgb(0,0,0)" stroke-width="2"  />
		</g>
		<g>
			<title> (NCC2767LJ0021)
sugar biosynthesis protein</title>
			<polygon class=" (NCC2767LJ0021)
sugar biosynthesis protein" points="622,10 639,40 622,70" fill="rgb(255,255,255)" fill-opacity="1.0" stroke="rgb(0,0,0)" stroke-width="2"  />
			<g>
				<title>dTDP_sugar_isom (PF00908)
"dTDP-4-dehydrorhamnose 3,5-epimerase"</title>
				<polygon class="PF00908" points="622,28 628,28 635,40 628,52 622,52" stroke-linejoin="round" width="16" height="24" fill="rgb(135,62,227)" stroke="rgb(108,49,181)" stroke-width="1" opacity="0.75" />
			</g>
		</g>
		<g>
			<title> (NCC2767LJ0022)
sugar biosynthesis protein</title>
			<polygon class=" (NCC2767LJ0022)
sugar biosynthesis protein" points="639,25 641,25 641,10 671,40 641,70 641,55 639,55" fill="rgb(255,255,255)" fill-opacity="1.0" stroke="rgb(0,0,0)" stroke-width="2"  />
			<g>
				<title>RmlD_sub_bind (PF04321)
"RmlD substrate binding domain"</title>
				<polygon class="PF04321" points="639,28 655,28 667,40 655,52 639,52" stroke-linejoin="round" width="31" height="24" fill="rgb(71,77,207)" stroke="rgb(56,61,165)" stroke-width="1" opacity="0.75" />
			</g>
		</g>
		<g>
			<title> (NCC2767LJ0023)
hypothetical protein</title>
			<polygon class=" (NCC2767LJ0023)
hypothetical protein" points="713,10 737,40 713,70" fill="rgb(255,255,255)" fill-opacity="1.0" stroke="rgb(0,0,0)" stroke-width="2"  />
			<g>
				<title>DUF5986 (PF19448)
"Family of unknown function (DUF5986)"</title>
				<polygon class="PF19448" points="713,28 724,28 733,40 724,52 713,52" stroke-linejoin="round" width="23" height="24" fill="rgb(99,136,205)" stroke="rgb(79,108,164)" stroke-width="1" opacity="0.75" />
			</g>
		</g>
		<g>
			<title> (NCC2767LJ0024)
transcriptional regulator</title>
			<polygon class=" (NCC2767LJ0024)
transcriptional regulator" points="737,25 744,25 744,10 774,40 744,70 744,55 737,55" fill="rgb(255,255,255)" fill-opacity="1.0" stroke="rgb(0,0,0)" stroke-width="2"  />
			<g>
				<title>HTH_3 (PF01381)
"Helix-turn-helix"</title>
				<rect class="PF01381" x="737" y="28" stroke-linejoin="round" width="5" height="24" fill="rgb(168,185,81)" stroke="rgb(134,148,64)" stroke-width="1" opacity="0.75" />
			</g>
			<g>
				<title>Peptidase_M78 (PF06114)
"IrrE N-terminal-like domain"</title>
				<polygon class="PF06114" points="751,28 758,28 763,33 763,47 758,52 751,52" stroke-linejoin="round" width="12" height="24" fill="rgb(223,73,162)" stroke="rgb(178,58,129)" stroke-width="1" opacity="0.75" />
			</g>
		</g>
	</g>
</svg>
