<svg version="1.1" baseProfile="full" xmlns="http://www.w3.org/2000/svg" width="1278.4333333333334" height="80">
	<g>
		<line x1="10" y1="40.0" x2="1268.4333333333334" y2="40.0" style="stroke:rgb(70,70,70); stroke-width:3 "/>
		<g>
			<title>wxcX
putative methyltransferase</title>
			<polygon class="wxcX
putative methyltransferase" points="14,10 35,40 14,70" fill="rgb(255,255,255)" fill-opacity="1.0" stroke="rgb(0,0,0)" stroke-width="2"  />
			<g>
				<title>Glyco_tran_WbsX (PF14307)
"Glycosyltransferase WbsX"</title>
				<rect class="PF14307" x="14" y="28" stroke-linejoin="round" width="2" height="24" fill="rgb(138,228,79)" stroke="rgb(110,182,63)" stroke-width="1" opacity="0.75" />
			</g>
			<g>
				<title>RgpF (PF05045)
"Rhamnan synthesis protein F"</title>
				<polygon class="PF05045" points="17,28 23,28 31,40 23,52 17,52" stroke-linejoin="round" width="15" height="24" fill="rgb(54,124,196)" stroke="rgb(43,99,156)" stroke-width="1" opacity="0.75" />
			</g>
		</g>
		<g>
			<title>lpsJ
beta-subunit of putative 3-oxoacid CoA-transferase</title>
			<polygon class="lpsJ
beta-subunit of putative 3-oxoacid CoA-transferase" points="45,40 66,10 66,70" fill="rgb(255,255,255)" fill-opacity="1.0" stroke="rgb(0,0,0)" stroke-width="2"  />
			<g>
				<title>CoA_trans (PF01144)
"Coenzyme A transferase"</title>
				<polygon class="PF01144" points="49,40 58,28 65,28 65,52 58,52" stroke-linejoin="round" width="19" height="24" fill="rgb(102,208,197)" stroke="rgb(81,166,157)" stroke-width="1" opacity="0.75" />
			</g>
		</g>
		<g>
			<title>lpsI
alpha subunit of putative 3-oxoacid CoA-transferase</title>
			<polygon class="lpsI
alpha subunit of putative 3-oxoacid CoA-transferase" points="66,40 90,10 90,70" fill="rgb(255,255,255)" fill-opacity="1.0" stroke="rgb(0,0,0)" stroke-width="2"  />
			<g>
				<title>CoA_trans (PF01144)
"Coenzyme A transferase"</title>
				<polygon class="PF01144" points="70,40 80,28 88,28 88,52 80,52" stroke-linejoin="round" width="21" height="24" fill="rgb(102,208,197)" stroke="rgb(81,166,157)" stroke-width="1" opacity="0.75" />
			</g>
		</g>
		<g>
			<title>xanA
phosphomannomutase/phosphoglucomutase</title>
			<polygon class="xanA
phosphomannomutase/phosphoglucomutase" points="95,25 109,25 109,10 139,40 109,70 109,55 95,55" fill="rgb(255,255,255)" fill-opacity="1.0" stroke="rgb(0,0,0)" stroke-width="2"  />
			<g>
				<title>PGM_PMM_I (PF02878)
"Phosphoglucomutase/phosphomannomutase, alpha/beta/alpha domain I"</title>
				<rect class="PF02878" x="95" y="28" stroke-linejoin="round" width="13" height="24" fill="rgb(107,71,202)" stroke="rgb(85,56,161)" stroke-width="1" opacity="0.75" />
			</g>
			<g>
				<title>PGM_PMM_II (PF02879)
"Phosphoglucomutase/phosphomannomutase, alpha/beta/alpha domain II"</title>
				<rect class="PF02879" x="110" y="28" stroke-linejoin="round" width="10" height="24" fill="rgb(150,212,95)" stroke="rgb(120,169,76)" stroke-width="1" opacity="0.75" />
			</g>
			<g>
				<title>PGM_PMM_III (PF02880)
"Phosphoglucomutase/phosphomannomutase, alpha/beta/alpha domain III"</title>
				<polygon class="PF02880" points="120,28 123,28 131,36 131,44 123,52 120,52" stroke-linejoin="round" width="11" height="24" fill="rgb(90,192,181)" stroke="rgb(72,153,144)" stroke-width="1" opacity="0.75" />
			</g>
			<g>
				<title>PGM_PMM_IV (PF00408)
"Phosphoglucomutase/phosphomannomutase, C-terminal domain"</title>
				<polygon class="PF00408" points="132,37 135,40 132,43" stroke-linejoin="round" width="7" height="24" fill="rgb(179,205,74)" stroke="rgb(143,164,59)" stroke-width="1" opacity="0.75" />
			</g>
		</g>
		<g>
			<title>xanB
phosphomannose isomerase/GDP-D-mannose pyrophosphorylase</title>
			<polygon class="xanB
phosphomannose isomerase/GDP-D-mannose pyrophosphorylase" points="141,25 157,25 157,10 187,40 157,70 157,55 141,55" fill="rgb(255,255,255)" fill-opacity="1.0" stroke="rgb(0,0,0)" stroke-width="2"  />
			<g>
				<title>NTP_transferase (PF00483)
"Nucleotidyl transferase"</title>
				<rect class="PF00483" x="141" y="28" stroke-linejoin="round" width="28" height="24" fill="rgb(211,145,90)" stroke="rgb(168,116,72)" stroke-width="1" opacity="0.75" />
			</g>
			<g>
				<title>MannoseP_isomer (PF01050)
"Mannose-6-phosphate isomerase"</title>
				<polygon class="PF01050" points="172,29 183,40 172,51" stroke-linejoin="round" width="15" height="24" fill="rgb(153,227,90)" stroke="rgb(122,181,72)" stroke-width="1" opacity="0.75" />
			</g>
		</g>
		<g>
			<title>rmlD
dTDP-4-dehydrorhamnose reductase</title>
			<polygon class="rmlD
dTDP-4-dehydrorhamnose reductase" points="222,25 222,25 222,10 192,40 222,70 222,55 222,55" fill="rgb(255,255,255)" fill-opacity="1.0" stroke="rgb(0,0,0)" stroke-width="2"  />
			<g>
				<title>RmlD_sub_bind (PF04321)
"RmlD substrate binding domain"</title>
				<polygon class="PF04321" points="196,40 208,28 221,28 221,52 208,52" stroke-linejoin="round" width="29" height="24" fill="rgb(71,77,207)" stroke="rgb(56,61,165)" stroke-width="1" opacity="0.75" />
			</g>
		</g>
		<g>
			<title>rmlC
dTDP-4-dehydrorhamnose 3,5-epimerase</title>
			<polygon class="rmlC
dTDP-4-dehydrorhamnose 3,5-epimerase" points="222,40 240,10 240,70" fill="rgb(255,255,255)" fill-opacity="1.0" stroke="rgb(0,0,0)" stroke-width="2"  />
			<g>
				<title>dTDP_sugar_isom (PF00908)
"dTDP-4-dehydrorhamnose 3,5-epimerase"</title>
				<polygon class="PF00908" points="226,40 233,28 239,28 239,52 233,52" stroke-linejoin="round" width="16" height="24" fill="rgb(135,62,227)" stroke="rgb(108,49,181)" stroke-width="1" opacity="0.75" />
			</g>
		</g>
		<g>
			<title>rmlA
glucose-1-phosphate thymidyltransferase</title>
			<polygon class="rmlA
glucose-1-phosphate thymidyltransferase" points="241,40 270,10 270,70" fill="rgb(255,255,255)" fill-opacity="1.0" stroke="rgb(0,0,0)" stroke-width="2"  />
			<g>
				<title>NTP_transferase (PF00483)
"Nucleotidyl transferase"</title>
				<polygon class="PF00483" points="246,39 257,28 269,28 269,52 257,52 246,41" stroke-linejoin="round" width="23" height="24" fill="rgb(211,145,90)" stroke="rgb(168,116,72)" stroke-width="1" opacity="0.75" />
			</g>
		</g>
		<g>
			<title>rmlB
dTDP-glucose-4,6-dehydratase</title>
			<polygon class="rmlB
dTDP-glucose-4,6-dehydratase" points="307,25 302,25 302,10 272,40 302,70 302,55 307,55" fill="rgb(255,255,255)" fill-opacity="1.0" stroke="rgb(0,0,0)" stroke-width="2"  />
			<g>
				<title>GDP_Man_Dehyd (PF16363)
"GDP-mannose 4,6 dehydratase"</title>
				<polygon class="PF16363" points="276,40 288,28 305,28 305,52 288,52" stroke-linejoin="round" width="31" height="24" fill="rgb(50,144,195)" stroke="rgb(40,115,156)" stroke-width="1" opacity="0.75" />
			</g>
		</g>
		<g>
			<title>etfS
putative electron-transferring flavoprotein beta subunit</title>
			<polygon class="etfS
putative electron-transferring flavoprotein beta subunit" points="315,10 339,40 315,70" fill="rgb(255,255,255)" fill-opacity="1.0" stroke="rgb(0,0,0)" stroke-width="2"  />
			<g>
				<title>ETF (PF01012)
"Electron transfer flavoprotein domain"</title>
				<polygon class="PF01012" points="317,28 326,28 335,39 335,41 326,52 317,52" stroke-linejoin="round" width="18" height="24" fill="rgb(212,182,65)" stroke="rgb(169,145,52)" stroke-width="1" opacity="0.75" />
			</g>
		</g>
		<g>
			<title>etfL
putative electron-transferring flavoprotein alpha subunit</title>
			<polygon class="etfL
putative electron-transferring flavoprotein alpha subunit" points="340,25 341,25 341,10 371,40 341,70 341,55 340,55" fill="rgb(255,255,255)" fill-opacity="1.0" stroke="rgb(0,0,0)" stroke-width="2"  />
			<g>
				<title>ETF (PF01012)
"Electron transfer flavoprotein domain"</title>
				<polygon class="PF01012" points="340,28 355,28 357,30 357,50 355,52 340,52" stroke-linejoin="round" width="17" height="24" fill="rgb(212,182,65)" stroke="rgb(169,145,52)" stroke-width="1" opacity="0.75" />
			</g>
			<g>
				<title>ETF_alpha (PF00766)
"Electron transfer flavoprotein FAD-binding domain"</title>
				<polygon class="PF00766" points="359,32 367,40 367,40 359,48" stroke-linejoin="round" width="8" height="24" fill="rgb(73,171,229)" stroke="rgb(58,136,183)" stroke-width="1" opacity="0.75" />
			</g>
		</g>
		<g>
			<title>wxcH
WxcH</title>
			<polygon class="wxcH
WxcH" points="373,10 384,40 373,70" fill="rgb(255,255,255)" fill-opacity="1.0" stroke="rgb(0,0,0)" stroke-width="2"  />
			<g>
				<title>MannoseP_isomer (PF01050)
"Mannose-6-phosphate isomerase"</title>
				<polygon class="PF01050" points="379,34 381,40 379,46" stroke-linejoin="round" width="4" height="24" fill="rgb(153,227,90)" stroke="rgb(122,181,72)" stroke-width="1" opacity="0.75" />
			</g>
		</g>
		<g>
			<title>wxcK
putative aminotransferase</title>
			<polygon class="wxcK
putative aminotransferase" points="387,25 393,25 393,10 423,40 393,70 393,55 387,55" fill="rgb(255,255,255)" fill-opacity="1.0" stroke="rgb(0,0,0)" stroke-width="2"  />
			<g>
				<title>DegT_DnrJ_EryC1 (PF01041)
"DegT/DnrJ/EryC1/StrS aminotransferase family"</title>
				<polygon class="PF01041" points="388,28 407,28 419,40 407,52 388,52" stroke-linejoin="round" width="34" height="24" fill="rgb(228,110,183)" stroke="rgb(182,88,146)" stroke-width="1" opacity="0.75" />
			</g>
		</g>
		<g>
			<title>wxcL
putative glycosyltransferase</title>
			<polygon class="wxcL
putative glycosyltransferase" points="423,25 425,25 425,10 455,40 425,70 425,55 423,55" fill="rgb(255,255,255)" fill-opacity="1.0" stroke="rgb(0,0,0)" stroke-width="2"  />
			<g>
				<title>Glycos_transf_2 (PF00535)
"Glycosyl transferase family 2"</title>
				<polygon class="PF00535" points="424,28 439,28 440,29 440,51 439,52 424,52" stroke-linejoin="round" width="16" height="24" fill="rgb(197,62,212)" stroke="rgb(157,49,169)" stroke-width="1" opacity="0.75" />
			</g>
		</g>
		<g>
			<title>wxcM
putative bifunctional enzyme WxcM</title>
			<polygon class="wxcM
putative bifunctional enzyme WxcM" points="455,25 456,25 456,10 486,40 456,70 456,55 455,55" fill="rgb(255,255,255)" fill-opacity="1.0" stroke="rgb(0,0,0)" stroke-width="2"  />
			<g>
				<title>Hexapep (PF00132)
"Bacterial transferase hexapeptide (six repeats)"</title>
				<rect class="PF00132" x="456" y="28" stroke-linejoin="round" width="3" height="24" fill="rgb(125,98,224)" stroke="rgb(100,78,179)" stroke-width="1" opacity="0.75" />
			</g>
			<g>
				<title>Hexapep (PF00132)
"Bacterial transferase hexapeptide (six repeats)"</title>
				<rect class="PF00132" x="464" y="28" stroke-linejoin="round" width="3" height="24" fill="rgb(125,98,224)" stroke="rgb(100,78,179)" stroke-width="1" opacity="0.75" />
			</g>
			<g>
				<title>FdtA (PF05523)
"WxcM-like, C-terminal"</title>
				<polygon class="PF05523" points="472,31 481,40 472,49" stroke-linejoin="round" width="13" height="24" fill="rgb(125,179,58)" stroke="rgb(100,143,46)" stroke-width="1" opacity="0.75" />
			</g>
		</g>
		<g>
			<title>wxcN
putative integral membrane protein WxcN</title>
			<polygon class="wxcN
putative integral membrane protein WxcN" points="486,10 500,40 486,70" fill="rgb(255,255,255)" fill-opacity="1.0" stroke="rgb(0,0,0)" stroke-width="2"  />
			<g>
				<title>GtrA (PF04138)
"GtrA-like protein"</title>
				<polygon class="PF04138" points="488,28 491,28 497,40 491,52 488,52" stroke-linejoin="round" width="11" height="24" fill="rgb(52,94,204)" stroke="rgb(41,75,163)" stroke-width="1" opacity="0.75" />
			</g>
		</g>
		<g>
			<title>wxcO
integral membrane protein WxcO</title>
			<polygon class="wxcO
integral membrane protein WxcO" points="503,25 548,25 548,10 578,40 548,70 548,55 503,55" fill="rgb(255,255,255)" fill-opacity="1.0" stroke="rgb(0,0,0)" stroke-width="2"  />
		</g>
		<g>
			<title>rmd
putative NDP-hexose epimerase/oxydoreductase</title>
			<polygon class="rmd
putative NDP-hexose epimerase/oxydoreductase" points="613,25 612,25 612,10 582,40 612,70 612,55 613,55" fill="rgb(255,255,255)" fill-opacity="1.0" stroke="rgb(0,0,0)" stroke-width="2"  />
			<g>
				<title>Epimerase (PF01370)
"NAD dependent epimerase/dehydratase family"</title>
				<polygon class="PF01370" points="589,37 598,28 611,28 611,52 598,52 589,43" stroke-linejoin="round" width="22" height="24" fill="rgb(215,89,157)" stroke="rgb(172,71,125)" stroke-width="1" opacity="0.75" />
			</g>
		</g>
		<g>
			<title>gmd
putative GDP-mannose 4,6-dehydratase</title>
			<polygon class="gmd
putative GDP-mannose 4,6-dehydratase" points="647,25 643,25 643,10 613,40 643,70 643,55 647,55" fill="rgb(255,255,255)" fill-opacity="1.0" stroke="rgb(0,0,0)" stroke-width="2"  />
			<g>
				<title>GDP_Man_Dehyd (PF16363)
"GDP-mannose 4,6 dehydratase"</title>
				<polygon class="PF16363" points="617,40 629,28 646,28 646,52 629,52" stroke-linejoin="round" width="32" height="24" fill="rgb(50,144,195)" stroke="rgb(40,115,156)" stroke-width="1" opacity="0.75" />
			</g>
		</g>
		<g>
			<title>wxcE
putative membrane protein WxcE</title>
			<polygon class="wxcE
putative membrane protein WxcE" points="650,40 671,10 671,70" fill="rgb(255,255,255)" fill-opacity="1.0" stroke="rgb(0,0,0)" stroke-width="2"  />
		</g>
		<g>
			<title>wxcD
putative membrane protein WxcD</title>
			<polygon class="wxcD
putative membrane protein WxcD" points="729,25 701,25 701,10 671,40 701,70 701,55 729,55" fill="rgb(255,255,255)" fill-opacity="1.0" stroke="rgb(0,0,0)" stroke-width="2"  />
			<g>
				<title>Glycos_transf_1 (PF00534)
"Glycosyl transferases group 1"</title>
				<rect class="PF00534" x="693" y="28" stroke-linejoin="round" width="16" height="24" fill="rgb(66,178,218)" stroke="rgb(52,142,174)" stroke-width="1" opacity="0.75" />
			</g>
		</g>
		<g>
			<title>wxcC
putative glycosyltransferase</title>
			<polygon class="wxcC
putative glycosyltransferase" points="765,25 760,25 760,10 730,40 760,70 760,55 765,55" fill="rgb(255,255,255)" fill-opacity="1.0" stroke="rgb(0,0,0)" stroke-width="2"  />
			<g>
				<title>Glycos_transf_1 (PF00534)
"Glycosyl transferases group 1"</title>
				<polygon class="PF00534" points="734,40 746,28 747,28 747,52 746,52" stroke-linejoin="round" width="16" height="24" fill="rgb(66,178,218)" stroke="rgb(52,142,174)" stroke-width="1" opacity="0.75" />
			</g>
		</g>
		<g>
			<title>wxcB
putative kinase</title>
			<polygon class="wxcB
putative kinase" points="843,25 797,25 797,10 767,40 797,70 797,55 843,55" fill="rgb(255,255,255)" fill-opacity="1.0" stroke="rgb(0,0,0)" stroke-width="2"  />
			<g>
				<title>Methyltransf_25 (PF13649)
"Methyltransferase domain"</title>
				<rect class="PF13649" x="827" y="28" stroke-linejoin="round" width="9" height="24" fill="rgb(224,103,106)" stroke="rgb(179,82,84)" stroke-width="1" opacity="0.75" />
			</g>
		</g>
		<g>
			<title>wzt
ABC transporter</title>
			<polygon class="wzt
ABC transporter" points="887,25 875,25 875,10 845,40 875,70 875,55 887,55" fill="rgb(255,255,255)" fill-opacity="1.0" stroke="rgb(0,0,0)" stroke-width="2"  />
			<g>
				<title>Wzt_C (PF14524)
"Wzt C-terminal domain"</title>
				<polygon class="PF14524" points="849,40 860,29 860,51" stroke-linejoin="round" width="14" height="24" fill="rgb(52,205,184)" stroke="rgb(41,164,147)" stroke-width="1" opacity="0.75" />
			</g>
			<g>
				<title>ABC_tran (PF00005)
"ABC transporter"</title>
				<rect class="PF00005" x="870" y="28" stroke-linejoin="round" width="13" height="24" fill="rgb(46,186,108)" stroke="rgb(36,148,86)" stroke-width="1" opacity="0.75" />
			</g>
		</g>
		<g>
			<title>wzm
ABC transporter</title>
			<polygon class="wzm
ABC transporter" points="888,40 914,10 914,70" fill="rgb(255,255,255)" fill-opacity="1.0" stroke="rgb(0,0,0)" stroke-width="2"  />
			<g>
				<title>ABC2_membrane (PF01061)
"ABC-2 type transporter"</title>
				<polygon class="PF01061" points="892,40 902,28 913,28 913,52 902,52 892,40" stroke-linejoin="round" width="21" height="24" fill="rgb(91,137,194)" stroke="rgb(72,109,155)" stroke-width="1" opacity="0.75" />
			</g>
		</g>
		<g>
			<title>wxcA
putative glycosyltransferase</title>
			<polygon class="wxcA
putative glycosyltransferase" points="963,25 947,25 947,10 917,40 947,70 947,55 963,55" fill="rgb(255,255,255)" fill-opacity="1.0" stroke="rgb(0,0,0)" stroke-width="2"  />
			<g>
				<title>Glyco_trans_1_4 (PF13692)
"Glycosyl transferases group 1"</title>
				<polygon class="PF13692" points="923,38 933,28 937,28 937,52 933,52 923,42" stroke-linejoin="round" width="14" height="24" fill="rgb(154,183,67)" stroke="rgb(123,146,53)" stroke-width="1" opacity="0.75" />
			</g>
		</g>
		<g>
			<title>uptH
cystathionine gamma-synthase</title>
			<polygon class="uptH
cystathionine gamma-synthase" points="1003,25 993,25 993,10 963,40 993,70 993,55 1003,55" fill="rgb(255,255,255)" fill-opacity="1.0" stroke="rgb(0,0,0)" stroke-width="2"  />
			<g>
				<title>Cys_Met_Meta_PP (PF01053)
"Cys/Met metabolism PLP-dependent enzyme"</title>
				<polygon class="PF01053" points="967,40 979,28 1000,28 1000,52 979,52" stroke-linejoin="round" width="37" height="24" fill="rgb(155,84,222)" stroke="rgb(124,67,177)" stroke-width="1" opacity="0.75" />
			</g>
		</g>
		<g>
			<title>uptG
cystathionine beta-lyase</title>
			<polygon class="uptG
cystathionine beta-lyase" points="1051,25 1036,25 1036,10 1006,40 1036,70 1036,55 1051,55" fill="rgb(255,255,255)" fill-opacity="1.0" stroke="rgb(0,0,0)" stroke-width="2"  />
			<g>
				<title>CBS (PF00571)
"CBS domain"</title>
				<polygon class="PF00571" points="1012,38 1017,33 1017,47 1012,42" stroke-linejoin="round" width="5" height="24" fill="rgb(189,85,87)" stroke="rgb(151,68,69)" stroke-width="1" opacity="0.75" />
			</g>
			<g>
				<title>PALP (PF00291)
"Pyridoxal-phosphate dependent enzyme"</title>
				<polygon class="PF00291" points="1021,29 1022,28 1050,28 1050,52 1022,52 1021,51" stroke-linejoin="round" width="29" height="24" fill="rgb(73,227,169)" stroke="rgb(58,181,135)" stroke-width="1" opacity="0.75" />
			</g>
		</g>
		<g>
			<title>uptF
UptF</title>
			<polygon class="uptF
UptF" points="1059,40 1075,10 1075,70" fill="rgb(255,255,255)" fill-opacity="1.0" stroke="rgb(0,0,0)" stroke-width="2"  />
			<g>
				<title>DUF465 (PF04325)
"Protein of unknown function (DUF465)"</title>
				<polygon class="PF04325" points="1062,40 1063,38 1063,42" stroke-linejoin="round" width="4" height="24" fill="rgb(126,71,187)" stroke="rgb(100,56,149)" stroke-width="1" opacity="0.75" />
			</g>
		</g>
		<g>
			<title>uptE
putative outer membrane protein UptE precursor</title>
			<polygon class="uptE
putative outer membrane protein UptE precursor" points="1078,40 1107,10 1107,70" fill="rgb(255,255,255)" fill-opacity="1.0" stroke="rgb(0,0,0)" stroke-width="2"  />
		</g>
		<g>
			<title>uptD
putative outer membrane protein UptD precursor</title>
			<polygon class="uptD
putative outer membrane protein UptD precursor" points="1107,40 1119,10 1119,70" fill="rgb(255,255,255)" fill-opacity="1.0" stroke="rgb(0,0,0)" stroke-width="2"  />
			<g>
				<title>DUF4398 (PF14346)
"Domain of unknown function (DUF4398)"</title>
				<polygon class="PF14346" points="1110,40 1115,28 1116,28 1116,52 1115,52" stroke-linejoin="round" width="8" height="24" fill="rgb(199,64,81)" stroke="rgb(159,51,64)" stroke-width="1" opacity="0.75" />
			</g>
		</g>
		<g>
			<title>uptC
type II secretion system protein-like protein</title>
			<polygon class="uptC
type II secretion system protein-like protein" points="1123,25 1130,25 1130,10 1160,40 1130,70 1130,55 1123,55" fill="rgb(255,255,255)" fill-opacity="1.0" stroke="rgb(0,0,0)" stroke-width="2"  />
			<g>
				<title>T2SSE (PF00437)
"Type II/IV secretion system protein"</title>
				<polygon class="PF00437" points="1123,28 1144,28 1149,33 1149,47 1144,52 1123,52" stroke-linejoin="round" width="26" height="24" fill="rgb(140,60,209)" stroke="rgb(112,48,167)" stroke-width="1" opacity="0.75" />
			</g>
		</g>
		<g>
			<title>uptB
putative maleylacetoacetate isomerase</title>
			<polygon class="uptB
putative maleylacetoacetate isomerase" points="1179,40 1201,10 1201,70" fill="rgb(255,255,255)" fill-opacity="1.0" stroke="rgb(0,0,0)" stroke-width="2"  />
			<g>
				<title>GST_C_2 (PF13410)
"Glutathione S-transferase, C-terminal domain"</title>
				<polygon class="PF13410" points="1183,40 1186,36 1186,44" stroke-linejoin="round" width="7" height="24" fill="rgb(143,197,67)" stroke="rgb(114,157,53)" stroke-width="1" opacity="0.75" />
			</g>
			<g>
				<title>GST_N_3 (PF13417)
"Glutathione S-transferase, N-terminal domain"</title>
				<polygon class="PF13417" points="1192,28 1192,28 1199,28 1199,52 1192,52 1192,52" stroke-linejoin="round" width="7" height="24" fill="rgb(171,66,186)" stroke="rgb(136,52,148)" stroke-width="1" opacity="0.75" />
			</g>
		</g>
		<g>
			<title>uptA
putative dioxygenase</title>
			<polygon class="uptA
putative dioxygenase" points="1235,25 1232,25 1232,10 1202,40 1232,70 1232,55 1235,55" fill="rgb(255,255,255)" fill-opacity="1.0" stroke="rgb(0,0,0)" stroke-width="2"  />
			<g>
				<title>FAA_hydrolase (PF01557)
"Fumarylacetoacetate (FAA) hydrolase family"</title>
				<polygon class="PF01557" points="1206,40 1218,28 1226,28 1226,52 1218,52" stroke-linejoin="round" width="24" height="24" fill="rgb(73,102,192)" stroke="rgb(58,81,153)" stroke-width="1" opacity="0.75" />
			</g>
			<g>
				<title>FAA_hydro_N_2 (PF18288)
"Fumarylacetoacetase N-terminal domain 2"</title>
				<rect class="PF18288" x="1227" y="28" stroke-linejoin="round" width="7" height="24" fill="rgb(75,100,217)" stroke="rgb(59,80,173)" stroke-width="1" opacity="0.75" />
			</g>
		</g>
		<g>
			<title>rhlE
putative ATP-dependent RNA helicase</title>
			<polygon class="rhlE
putative ATP-dependent RNA helicase" points="1248,10 1268,40 1248,70" fill="rgb(255,255,255)" fill-opacity="1.0" stroke="rgb(0,0,0)" stroke-width="2"  />
			<g>
				<title>DEAD (PF00270)
"DEAD/DEAH box helicase"</title>
				<polygon class="PF00270" points="1250,28 1256,28 1264,40 1256,52 1250,52" stroke-linejoin="round" width="17" height="24" fill="rgb(226,137,69)" stroke="rgb(180,109,55)" stroke-width="1" opacity="0.75" />
			</g>
		</g>
	</g>
</svg>
