<svg version="1.1" baseProfile="full" xmlns="http://www.w3.org/2000/svg" width="592.2333333333333" height="80">
	<g>
		<line x1="10" y1="40.0" x2="582.2333333333333" y2="40.0" style="stroke:rgb(70,70,70); stroke-width:3 "/>
		<g>
			<title> (SCAB_56591)
putative cytosolic aminopeptidase</title>
			<polygon class=" (SCAB_56591)
putative cytosolic aminopeptidase" points="58,25 40,25 40,10 10,40 40,70 40,55 58,55" fill="rgb(255,255,255)" fill-opacity="1.0" stroke="rgb(0,0,0)" stroke-width="2"  />
			<g>
				<title>Peptidase_M17 (PF00883)
"Cytosol aminopeptidase family, catalytic domain"</title>
				<polygon class="PF00883" points="14,40 26,28 41,28 41,52 26,52" stroke-linejoin="round" width="31" height="24" fill="rgb(202,71,203)" stroke="rgb(161,56,162)" stroke-width="1" opacity="0.75" />
			</g>
			<g>
				<title>Peptidase_M17_N (PF02789)
"Cytosol aminopeptidase family, N-terminal domain"</title>
				<rect class="PF02789" x="45" y="28" stroke-linejoin="round" width="12" height="24" fill="rgb(117,199,84)" stroke="rgb(93,159,67)" stroke-width="1" opacity="0.75" />
			</g>
		</g>
		<g>
			<title> (SCAB_56601)
hypothetical protein</title>
			<polygon class=" (SCAB_56601)
hypothetical protein" points="58,40 77,10 77,70" fill="rgb(255,255,255)" fill-opacity="1.0" stroke="rgb(0,0,0)" stroke-width="2"  />
			<g>
				<title>DUF2087 (PF09860)
"Uncharacterized protein conserved in bacteria (DUF2087)"</title>
				<polygon class="PF09860" points="62,40 64,37 64,43" stroke-linejoin="round" width="6" height="24" fill="rgb(66,133,179)" stroke="rgb(52,106,143)" stroke-width="1" opacity="0.75" />
			</g>
		</g>
		<g>
			<title> (SCAB_56611)
conserved hypothetical protein</title>
			<polygon class=" (SCAB_56611)
conserved hypothetical protein" points="146,25 111,25 111,10 81,40 111,70 111,55 146,55" fill="rgb(255,255,255)" fill-opacity="1.0" stroke="rgb(0,0,0)" stroke-width="2"  />
			<g>
				<title>Radical_SAM (PF04055)
"Radical SAM superfamily"</title>
				<rect class="PF04055" x="102" y="28" stroke-linejoin="round" width="16" height="24" fill="rgb(223,193,78)" stroke="rgb(178,154,62)" stroke-width="1" opacity="0.75" />
			</g>
		</g>
		<g>
			<title> (SCAB_56621)
conserved hypothetical protein</title>
			<polygon class=" (SCAB_56621)
conserved hypothetical protein" points="183,25 176,25 176,10 146,40 176,70 176,55 183,55" fill="rgb(255,255,255)" fill-opacity="1.0" stroke="rgb(0,0,0)" stroke-width="2"  />
			<g>
				<title>p450 (PF00067)
"Cytochrome P450"</title>
				<polygon class="PF00067" points="150,40 155,35 155,45" stroke-linejoin="round" width="6" height="24" fill="rgb(195,210,54)" stroke="rgb(155,168,43)" stroke-width="1" opacity="0.75" />
			</g>
		</g>
		<g>
			<title> (SCAB_56631)
conserved hypothetical protein</title>
			<polygon class=" (SCAB_56631)
conserved hypothetical protein" points="234,25 217,25 217,10 187,40 217,70 217,55 234,55" fill="rgb(255,255,255)" fill-opacity="1.0" stroke="rgb(0,0,0)" stroke-width="2"  />
		</g>
		<g>
			<title> (SCAB_56641)
conserved hypothetical protein</title>
			<polygon class=" (SCAB_56641)
conserved hypothetical protein" points="234,40 261,10 261,70" fill="rgb(255,255,255)" fill-opacity="1.0" stroke="rgb(0,0,0)" stroke-width="2"  />
			<g>
				<title>Abhydrolase_1 (PF00561)
"alpha/beta hydrolase fold"</title>
				<polygon class="PF00561" points="246,31 249,28 259,28 259,52 249,52 246,49" stroke-linejoin="round" width="13" height="24" fill="rgb(99,159,215)" stroke="rgb(79,127,172)" stroke-width="1" opacity="0.75" />
			</g>
		</g>
		<g>
			<title> (SCAB_56651)
conserved hypothetical protein</title>
			<polygon class=" (SCAB_56651)
conserved hypothetical protein" points="329,25 292,25 292,10 262,40 292,70 292,55 329,55" fill="rgb(255,255,255)" fill-opacity="1.0" stroke="rgb(0,0,0)" stroke-width="2"  />
			<g>
				<title>Radical_SAM (PF04055)
"Radical SAM superfamily"</title>
				<rect class="PF04055" x="285" y="28" stroke-linejoin="round" width="16" height="24" fill="rgb(223,193,78)" stroke="rgb(178,154,62)" stroke-width="1" opacity="0.75" />
			</g>
		</g>
		<g>
			<title> (SCAB_56661)
conserved hypothetical protein</title>
			<polygon class=" (SCAB_56661)
conserved hypothetical protein" points="378,25 360,25 360,10 330,40 360,70 360,55 378,55" fill="rgb(255,255,255)" fill-opacity="1.0" stroke="rgb(0,0,0)" stroke-width="2"  />
			<g>
				<title>YcaO (PF02624)
"YcaO cyclodehydratase, ATP-ad Mg2+-binding"</title>
				<polygon class="PF02624" points="334,40 346,28 357,28 357,52 346,52" stroke-linejoin="round" width="24" height="24" fill="rgb(69,185,74)" stroke="rgb(55,148,59)" stroke-width="1" opacity="0.75" />
			</g>
		</g>
		<g>
			<title> (SCAB_56671)
hypothetical protein</title>
			<polygon class=" (SCAB_56671)
hypothetical protein" points="414,25 403,25 403,10 373,40 403,70 403,55 414,55" fill="rgb(255,255,255)" fill-opacity="1.0" stroke="rgb(0,0,0)" stroke-width="2"  />
		</g>
		<g>
			<title> (SCAB_56681)
hypothetical protein</title>
			<polygon class=" (SCAB_56681)
hypothetical protein" points="417,40 421,10 421,70" fill="rgb(255,255,255)" fill-opacity="1.0" stroke="rgb(0,0,0)" stroke-width="2"  />
		</g>
		<g>
			<title> (SCAB_56691)
conserved hypothetical protein</title>
			<polygon class=" (SCAB_56691)
conserved hypothetical protein" points="490,25 456,25 456,10 426,40 456,70 456,55 490,55" fill="rgb(255,255,255)" fill-opacity="1.0" stroke="rgb(0,0,0)" stroke-width="2"  />
			<g>
				<title>Radical_SAM (PF04055)
"Radical SAM superfamily"</title>
				<rect class="PF04055" x="446" y="28" stroke-linejoin="round" width="16" height="24" fill="rgb(223,193,78)" stroke="rgb(178,154,62)" stroke-width="1" opacity="0.75" />
			</g>
		</g>
		<g>
			<title> (SCAB_56701)
conserved hypothetical protein</title>
			<polygon class=" (SCAB_56701)
conserved hypothetical protein" points="504,10 532,40 504,70" fill="rgb(255,255,255)" fill-opacity="1.0" stroke="rgb(0,0,0)" stroke-width="2"  />
			<g>
				<title>LCM (PF04072)
"Leucine carboxyl methyltransferase"</title>
				<polygon class="PF04072" points="505,28 516,28 520,32 520,48 516,52 505,52" stroke-linejoin="round" width="15" height="24" fill="rgb(154,184,47)" stroke="rgb(123,147,37)" stroke-width="1" opacity="0.75" />
			</g>
		</g>
		<g>
			<title> (SCAB_56711)
putative integral membrane protein</title>
			<polygon class=" (SCAB_56711)
putative integral membrane protein" points="538,25 551,25 551,10 581,40 551,70 551,55 538,55" fill="rgb(255,255,255)" fill-opacity="1.0" stroke="rgb(0,0,0)" stroke-width="2"  />
			<g>
				<title>MFS_3 (PF05977)
"Transmembrane secretion effector"</title>
				<polygon class="PF05977" points="538,28 565,28 577,40 565,52 538,52" stroke-linejoin="round" width="40" height="24" fill="rgb(75,61,221)" stroke="rgb(60,48,176)" stroke-width="1" opacity="0.75" />
			</g>
		</g>
	</g>
</svg>
