<svg version="1.1" baseProfile="full" xmlns="http://www.w3.org/2000/svg" width="955.7333333333333" height="240">
	<g>
		<line x1="10" y1="40.0" x2="945.7333333333333" y2="40.0" style="stroke:rgb(70,70,70); stroke-width:3 "/>
		<g>
			<title>cpz9
AraC family transcriptional regulator</title>
			<polygon class="cpz9
AraC family transcriptional regulator" points="13,25 17,25 17,10 47,40 17,70 17,55 13,55" fill="rgb(255,255,255)" fill-opacity="1.0" stroke="rgb(0,0,0)" stroke-width="2"  />
			<g>
				<title>AraC_binding_2 (PF14525)
"AraC-binding-like domain"</title>
				<polygon class="PF14525" points="17,28 31,28 34,31 34,49 31,52 17,52" stroke-linejoin="round" width="17" height="24" fill="rgb(130,194,61)" stroke="rgb(104,155,48)" stroke-width="1" opacity="0.75" />
			</g>
			<g>
				<title>HTH_18 (PF12833)
"Helix-turn-helix domain"</title>
				<polygon class="PF12833" points="38,35 43,40 38,45" stroke-linejoin="round" width="8" height="24" fill="rgb(96,195,114)" stroke="rgb(76,156,91)" stroke-width="1" opacity="0.75" />
			</g>
		</g>
		<g>
			<title>cpz10
beta-hydroxylase</title>
			<polygon class="cpz10
beta-hydroxylase" points="53,10 71,40 53,70" fill="rgb(255,255,255)" fill-opacity="1.0" stroke="rgb(0,0,0)" stroke-width="2"  />
			<g>
				<title>Asp_Arg_Hydrox (PF05118)
"Aspartyl/Asparaginyl beta-hydroxylase"</title>
				<polygon class="PF05118" points="61,29 67,40 61,51" stroke-linejoin="round" width="9" height="24" fill="rgb(65,114,183)" stroke="rgb(51,91,146)" stroke-width="1" opacity="0.75" />
			</g>
		</g>
		<g>
			<title>cpz11
SAM-dependent methyltransferase</title>
			<polygon class="cpz11
SAM-dependent methyltransferase" points="72,10 93,40 72,70" fill="rgb(255,255,255)" fill-opacity="1.0" stroke="rgb(0,0,0)" stroke-width="2"  />
			<g>
				<title>Methyltransf_25 (PF13649)
"Methyltransferase domain"</title>
				<polygon class="PF13649" points="76,28 81,28 84,33 84,47 81,52 76,52" stroke-linejoin="round" width="8" height="24" fill="rgb(224,103,106)" stroke="rgb(179,82,84)" stroke-width="1" opacity="0.75" />
			</g>
		</g>
		<g>
			<title>cpz12
TmrB-like protein</title>
			<polygon class="cpz12
TmrB-like protein" points="93,10 112,40 93,70" fill="rgb(255,255,255)" fill-opacity="1.0" stroke="rgb(0,0,0)" stroke-width="2"  />
		</g>
		<g>
			<title>cpz13
aminotransferase</title>
			<polygon class="cpz13
aminotransferase" points="114,25 128,25 128,10 158,40 128,70 128,55 114,55" fill="rgb(255,255,255)" fill-opacity="1.0" stroke="rgb(0,0,0)" stroke-width="2"  />
		</g>
		<g>
			<title>cpz14
glycine hydroxymethyltransferase</title>
			<polygon class="cpz14
glycine hydroxymethyltransferase" points="158,25 170,25 170,10 200,40 170,70 170,55 158,55" fill="rgb(255,255,255)" fill-opacity="1.0" stroke="rgb(0,0,0)" stroke-width="2"  />
			<g>
				<title>SHMT (PF00464)
"Serine hydroxymethyltransferase"</title>
				<polygon class="PF00464" points="159,28 184,28 196,40 196,40 184,52 159,52" stroke-linejoin="round" width="37" height="24" fill="rgb(215,61,139)" stroke="rgb(172,48,111)" stroke-width="1" opacity="0.75" />
			</g>
		</g>
		<g>
			<title>cpz15
dioxygenase</title>
			<polygon class="cpz15
dioxygenase" points="204,10 231,40 204,70" fill="rgb(255,255,255)" fill-opacity="1.0" stroke="rgb(0,0,0)" stroke-width="2"  />
			<g>
				<title>TauD (PF02668)
"Taurine catabolism dioxygenase TauD, TfdA family"</title>
				<polygon class="PF02668" points="204,28 215,28 227,40 215,52 204,52" stroke-linejoin="round" width="25" height="24" fill="rgb(72,206,196)" stroke="rgb(57,164,156)" stroke-width="1" opacity="0.75" />
			</g>
		</g>
		<g>
			<title>cpz16
nucleotidyltransferase</title>
			<polygon class="cpz16
nucleotidyltransferase" points="231,10 254,40 231,70" fill="rgb(255,255,255)" fill-opacity="1.0" stroke="rgb(0,0,0)" stroke-width="2"  />
		</g>
		<g>
			<title>cpz17
glycosyltransferase</title>
			<polygon class="cpz17
glycosyltransferase" points="254,25 261,25 261,10 291,40 261,70 261,55 254,55" fill="rgb(255,255,255)" fill-opacity="1.0" stroke="rgb(0,0,0)" stroke-width="2"  />
		</g>
		<g>
			<title>cpz18
aminotransferase</title>
			<polygon class="cpz18
aminotransferase" points="292,25 304,25 304,10 334,40 304,70 304,55 292,55" fill="rgb(255,255,255)" fill-opacity="1.0" stroke="rgb(0,0,0)" stroke-width="2"  />
			<g>
				<title>Aminotran_3 (PF00202)
"Aminotransferase class-III"</title>
				<polygon class="PF00202" points="293,28 318,28 330,40 318,52 293,52" stroke-linejoin="round" width="40" height="24" fill="rgb(182,63,213)" stroke="rgb(145,50,170)" stroke-width="1" opacity="0.75" />
			</g>
		</g>
		<g>
			<title>cpz19
pyrimidine-nucleoside phosphorylase</title>
			<polygon class="cpz19
pyrimidine-nucleoside phosphorylase" points="334,25 350,25 350,10 380,40 350,70 350,55 334,55" fill="rgb(255,255,255)" fill-opacity="1.0" stroke="rgb(0,0,0)" stroke-width="2"  />
			<g>
				<title>Glycos_trans_3N (PF02885)
"Glycosyl transferase family, helical bundle domain"</title>
				<rect class="PF02885" x="335" y="28" stroke-linejoin="round" width="6" height="24" fill="rgb(185,60,158)" stroke="rgb(148,48,126)" stroke-width="1" opacity="0.75" />
			</g>
			<g>
				<title>Glycos_transf_3 (PF00591)
"Glycosyl transferase family, a/b domain"</title>
				<polygon class="PF00591" points="342,28 363,28 365,30 365,50 363,52 342,52" stroke-linejoin="round" width="23" height="24" fill="rgb(188,52,100)" stroke="rgb(150,41,80)" stroke-width="1" opacity="0.75" />
			</g>
			<g>
				<title>PYNP_C (PF07831)
"Pyrimidine nucleoside phosphorylase C-terminal domain"</title>
				<polygon class="PF07831" points="369,34 375,40 369,46" stroke-linejoin="round" width="7" height="24" fill="rgb(222,149,98)" stroke="rgb(177,119,78)" stroke-width="1" opacity="0.75" />
			</g>
		</g>
		<g>
			<title>cpz20
acyl-CoA synthase</title>
			<polygon class="cpz20
acyl-CoA synthase" points="380,25 385,25 385,10 415,40 385,70 385,55 380,55" fill="rgb(255,255,255)" fill-opacity="1.0" stroke="rgb(0,0,0)" stroke-width="2"  />
		</g>
		<g>
			<title>cpz21
acyltransferase</title>
			<polygon class="cpz21
acyltransferase" points="416,25 436,25 436,10 466,40 436,70 436,55 416,55" fill="rgb(255,255,255)" fill-opacity="1.0" stroke="rgb(0,0,0)" stroke-width="2"  />
			<g>
				<title>COesterase (PF00135)
"Carboxylesterase family"</title>
				<rect class="PF00135" x="416" y="28" stroke-linejoin="round" width="33" height="24" fill="rgb(79,58,200)" stroke="rgb(63,46,160)" stroke-width="1" opacity="0.75" />
			</g>
		</g>
		<g>
			<title>cpz22
ABC multidrug resistance transporter</title>
			<polygon class="cpz22
ABC multidrug resistance transporter" points="466,25 559,25 559,10 589,40 559,70 559,55 466,55" fill="rgb(255,255,255)" fill-opacity="1.0" stroke="rgb(0,0,0)" stroke-width="2"  />
			<g>
				<title>ABC_membrane (PF00664)
"ABC transporter transmembrane region"</title>
				<rect class="PF00664" x="468" y="28" stroke-linejoin="round" width="26" height="24" fill="rgb(62,71,183)" stroke="rgb(49,56,146)" stroke-width="1" opacity="0.75" />
			</g>
			<g>
				<title>ABC_tran (PF00005)
"ABC transporter"</title>
				<rect class="PF00005" x="501" y="28" stroke-linejoin="round" width="15" height="24" fill="rgb(46,186,108)" stroke="rgb(36,148,86)" stroke-width="1" opacity="0.75" />
			</g>
			<g>
				<title>ABC_membrane (PF00664)
"ABC transporter transmembrane region"</title>
				<rect class="PF00664" x="532" y="28" stroke-linejoin="round" width="24" height="24" fill="rgb(62,71,183)" stroke="rgb(49,56,146)" stroke-width="1" opacity="0.75" />
			</g>
			<g>
				<title>ABC_tran (PF00005)
"ABC transporter"</title>
				<polygon class="PF00005" points="566,28 573,28 580,35 580,45 573,52 566,52" stroke-linejoin="round" width="14" height="24" fill="rgb(46,186,108)" stroke="rgb(36,148,86)" stroke-width="1" opacity="0.75" />
			</g>
		</g>
		<g>
			<title>cpz23
lipase</title>
			<polygon class="cpz23
lipase" points="589,25 593,25 593,10 623,40 593,70 593,55 589,55" fill="rgb(255,255,255)" fill-opacity="1.0" stroke="rgb(0,0,0)" stroke-width="2"  />
			<g>
				<title>SsfX3_N (PF21181)
"SsfX3, N-terminal domain"</title>
				<rect class="PF21181" x="590" y="28" stroke-linejoin="round" width="13" height="24" fill="rgb(108,187,78)" stroke="rgb(86,149,62)" stroke-width="1" opacity="0.75" />
			</g>
		</g>
		<g>
			<title>cpz24
hypothetical protein</title>
			<polygon class="cpz24
hypothetical protein" points="633,25 662,25 662,10 692,40 662,70 662,55 633,55" fill="rgb(255,255,255)" fill-opacity="1.0" stroke="rgb(0,0,0)" stroke-width="2"  />
		</g>
		<g>
			<title>cpz25
alcohol dehydrogenase</title>
			<polygon class="cpz25
alcohol dehydrogenase" points="696,25 700,25 700,10 730,40 700,70 700,55 696,55" fill="rgb(255,255,255)" fill-opacity="1.0" stroke="rgb(0,0,0)" stroke-width="2"  />
			<g>
				<title>ADH_N (PF08240)
"Alcohol dehydrogenase GroES-like domain"</title>
				<rect class="PF08240" x="699" y="28" stroke-linejoin="round" width="9" height="24" fill="rgb(217,198,105)" stroke="rgb(173,158,84)" stroke-width="1" opacity="0.75" />
			</g>
			<g>
				<title>ADH_zinc_N (PF00107)
"Zinc-binding dehydrogenase"</title>
				<polygon class="PF00107" points="712,28 713,28 723,38 723,42 713,52 712,52" stroke-linejoin="round" width="11" height="24" fill="rgb(79,114,198)" stroke="rgb(63,91,158)" stroke-width="1" opacity="0.75" />
			</g>
		</g>
		<g>
			<title>cpz26
SAM-dependent methyltransferase</title>
			<polygon class="cpz26
SAM-dependent methyltransferase" points="732,25 743,25 743,10 773,40 743,70 743,55 732,55" fill="rgb(255,255,255)" fill-opacity="1.0" stroke="rgb(0,0,0)" stroke-width="2"  />
			<g>
				<title>Methyltransf_11 (PF08241)
"Methyltransferase domain"</title>
				<polygon class="PF08241" points="751,28 757,28 759,30 759,50 757,52 751,52" stroke-linejoin="round" width="8" height="24" fill="rgb(201,85,64)" stroke="rgb(160,68,51)" stroke-width="1" opacity="0.75" />
			</g>
		</g>
		<g>
			<title>cpz27
TmrB-like protein</title>
			<polygon class="cpz27
TmrB-like protein" points="774,10 793,40 774,70" fill="rgb(255,255,255)" fill-opacity="1.0" stroke="rgb(0,0,0)" stroke-width="2"  />
		</g>
		<g>
			<title>cpz28
sugar O-methyltransferase</title>
			<polygon class="cpz28
sugar O-methyltransferase" points="796,25 805,25 805,10 835,40 805,70 805,55 796,55" fill="rgb(255,255,255)" fill-opacity="1.0" stroke="rgb(0,0,0)" stroke-width="2"  />
			<g>
				<title>MycE_N (PF17843)
"MycE methyltransferase N-terminal"</title>
				<rect class="PF17843" x="797" y="28" stroke-linejoin="round" width="12" height="24" fill="rgb(100,183,60)" stroke="rgb(79,146,48)" stroke-width="1" opacity="0.75" />
			</g>
			<g>
				<title>Methyltransf_24 (PF13578)
"Methyltransferase domain"</title>
				<polygon class="PF13578" points="817,28 819,28 826,35 826,45 819,52 817,52" stroke-linejoin="round" width="9" height="24" fill="rgb(197,61,215)" stroke="rgb(157,48,172)" stroke-width="1" opacity="0.75" />
			</g>
		</g>
		<g>
			<title>cpz29
sugar O-methyltransferase</title>
			<polygon class="cpz29
sugar O-methyltransferase" points="837,10 863,40 837,70" fill="rgb(255,255,255)" fill-opacity="1.0" stroke="rgb(0,0,0)" stroke-width="2"  />
			<g>
				<title>TylF (PF05711)
"Macrocin-O-methyltransferase (TylF)"</title>
				<polygon class="PF05711" points="838,28 848,28 859,40 848,52 838,52" stroke-linejoin="round" width="24" height="24" fill="rgb(217,188,104)" stroke="rgb(173,150,83)" stroke-width="1" opacity="0.75" />
			</g>
		</g>
		<g>
			<title>cpz30
sugar O-methyltransferase</title>
			<polygon class="cpz30
sugar O-methyltransferase" points="863,25 875,25 875,10 905,40 875,70 875,55 863,55" fill="rgb(255,255,255)" fill-opacity="1.0" stroke="rgb(0,0,0)" stroke-width="2"  />
			<g>
				<title>MycE_N (PF17843)
"MycE methyltransferase N-terminal"</title>
				<rect class="PF17843" x="864" y="28" stroke-linejoin="round" width="11" height="24" fill="rgb(100,183,60)" stroke="rgb(79,146,48)" stroke-width="1" opacity="0.75" />
			</g>
			<g>
				<title>Methyltransf_24 (PF13578)
"Methyltransferase domain"</title>
				<polygon class="PF13578" points="883,28 888,28 894,34 894,46 888,52 883,52" stroke-linejoin="round" width="11" height="24" fill="rgb(197,61,215)" stroke="rgb(157,48,172)" stroke-width="1" opacity="0.75" />
			</g>
		</g>
		<g>
			<title>cpz31
rhamnosyltransferase</title>
			<polygon class="cpz31
rhamnosyltransferase" points="906,25 915,25 915,10 945,40 915,70 915,55 906,55" fill="rgb(255,255,255)" fill-opacity="1.0" stroke="rgb(0,0,0)" stroke-width="2"  />
			<g>
				<title>EryCIII-like_N (PF21036)
"Erythromycin biosynthesis protein CIII-like, N-terminal domain"</title>
				<rect class="PF21036" x="908" y="28" stroke-linejoin="round" width="21" height="24" fill="rgb(205,88,112)" stroke="rgb(164,70,89)" stroke-width="1" opacity="0.75" />
			</g>
			<g>
				<title>EryCIII-like_C (PF06722)
"Erythromycin biosynthesis protein CIII-like, C-terminal domain"</title>
				<polygon class="PF06722" points="931,30 941,40 931,50" stroke-linejoin="round" width="14" height="24" fill="rgb(48,103,191)" stroke="rgb(38,82,152)" stroke-width="1" opacity="0.75" />
			</g>
		</g>
	</g>
	<g>
		<line x1="10" y1="120.0" x2="232.36666666666667" y2="120.0" style="stroke:rgb(70,70,70); stroke-width:3 "/>
		<g>
			<title>cpzDI
unknown</title>
			<polygon class="cpzDI
unknown" points="10,90 15,120 10,150" fill="rgb(255,255,255)" fill-opacity="1.0" stroke="rgb(0,0,0)" stroke-width="2"  />
		</g>
		<g>
			<title>cpzDII
dTDP-glucose synthase</title>
			<polygon class="cpzDII
dTDP-glucose synthase" points="19,105 24,105 24,90 54,120 24,150 24,135 19,135" fill="rgb(255,255,255)" fill-opacity="1.0" stroke="rgb(0,0,0)" stroke-width="2"  />
		</g>
		<g>
			<title>cpzDIII
dTDP-glucose dehydratase</title>
			<polygon class="cpzDIII
dTDP-glucose dehydratase" points="54,105 56,105 56,90 86,120 56,150 56,135 54,135" fill="rgb(255,255,255)" fill-opacity="1.0" stroke="rgb(0,0,0)" stroke-width="2"  />
		</g>
		<g>
			<title>cpzDIV
4-ketoreductase</title>
			<polygon class="cpzDIV
4-ketoreductase" points="87,90 116,120 87,150" fill="rgb(255,255,255)" fill-opacity="1.0" stroke="rgb(0,0,0)" stroke-width="2"  />
		</g>
		<g>
			<title>cpzDV
unknown</title>
			<polygon class="cpzDV
unknown" points="116,90 142,120 116,150" fill="rgb(255,255,255)" fill-opacity="1.0" stroke="rgb(0,0,0)" stroke-width="2"  />
		</g>
		<g>
			<title>cpzDVI
sugar 3,5-epimerase</title>
			<polygon class="cpzDVI
sugar 3,5-epimerase" points="147,120 167,90 167,150" fill="rgb(255,255,255)" fill-opacity="1.0" stroke="rgb(0,0,0)" stroke-width="2"  />
		</g>
		<g>
			<title>cpzDVII
glycosyltransferase</title>
			<polygon class="cpzDVII
glycosyltransferase" points="231,105 197,105 197,90 167,120 197,150 197,135 231,135" fill="rgb(255,255,255)" fill-opacity="1.0" stroke="rgb(0,0,0)" stroke-width="2"  />
		</g>
	</g>
	<g>
		<line x1="10" y1="200.0" x2="61.4" y2="200.0" style="stroke:rgb(70,70,70); stroke-width:3 "/>
		<g>
			<title>cpz4
sulfotransferase</title>
			<polygon class="cpz4
sulfotransferase" points="10,185 31,185 31,170 61,200 31,230 31,215 10,215" fill="rgb(255,255,255)" fill-opacity="1.0" stroke="rgb(0,0,0)" stroke-width="2"  />
		</g>
	</g>
</svg>
