<svg version="1.1" baseProfile="full" xmlns="http://www.w3.org/2000/svg" width="744.8666666666667" height="80">
	<g>
		<line x1="10" y1="40.0" x2="734.8666666666667" y2="40.0" style="stroke:rgb(70,70,70); stroke-width:3 "/>
		<g>
			<title> (ANIA_06004)
actin cytoskeleton protein (VIP1), putative (AFU_orthologue; AFUA_2G10030)</title>
			<polygon class=" (ANIA_06004)
actin cytoskeleton protein (VIP1), putative (AFU_orthologue; AFUA_2G10030)" points="52,25 52,25 52,10 22,40 52,70 52,55 52,55" fill="rgb(255,255,255)" fill-opacity="1.0" stroke="rgb(0,0,0)" stroke-width="2"  />
			<g>
				<title>RRM_1 (PF00076)
"RNA recognition motif"</title>
				<rect class="PF00076" x="45" y="28" stroke-linejoin="round" width="6" height="24" fill="rgb(195,57,49)" stroke="rgb(156,45,39)" stroke-width="1" opacity="0.75" />
			</g>
		</g>
		<g>
			<title> (ANIA_06003)
conserved hypothetical protein</title>
			<polygon class=" (ANIA_06003)
conserved hypothetical protein" points="120,25 150,25 150,10 180,40 150,70 150,55 120,55" fill="rgb(255,255,255)" fill-opacity="1.0" stroke="rgb(0,0,0)" stroke-width="2"  />
		</g>
		<g>
			<title> (ANIA_06002)
FAD-dependent monooxygenase, putative (AFU_orthologue; AFUA_7G00150)</title>
			<polygon class=" (ANIA_06002)
FAD-dependent monooxygenase, putative (AFU_orthologue; AFUA_7G00150)" points="206,25 217,25 217,10 247,40 217,70 217,55 206,55" fill="rgb(255,255,255)" fill-opacity="1.0" stroke="rgb(0,0,0)" stroke-width="2"  />
		</g>
		<g>
			<title> (ANIA_06001)
metallo-beta-lactamase domain protein (AFU_orthologue; AFUA_7G00120)</title>
			<polygon class=" (ANIA_06001)
metallo-beta-lactamase domain protein (AFU_orthologue; AFUA_7G00120)" points="286,25 283,25 283,10 253,40 283,70 283,55 286,55" fill="rgb(255,255,255)" fill-opacity="1.0" stroke="rgb(0,0,0)" stroke-width="2"  />
			<g>
				<title>Lactamase_B (PF00753)
"Metallo-beta-lactamase superfamily"</title>
				<polygon class="PF00753" points="265,32 269,28 281,28 281,52 269,52 265,48" stroke-linejoin="round" width="16" height="24" fill="rgb(70,201,123)" stroke="rgb(56,160,98)" stroke-width="1" opacity="0.75" />
			</g>
		</g>
		<g>
			<title> (ANIA_06000)
polyketide synthase, putative (JCVI)</title>
			<polygon class=" (ANIA_06000)
polyketide synthase, putative (JCVI)" points="301,25 455,25 455,10 485,40 455,70 455,55 301,55" fill="rgb(255,255,255)" fill-opacity="1.0" stroke="rgb(0,0,0)" stroke-width="2"  />
			<g>
				<title>SAT (PF16073)
"Starter unit:ACP transacylase in aflatoxin biosynthesis"</title>
				<rect class="PF16073" x="302" y="28" stroke-linejoin="round" width="24" height="24" fill="rgb(77,185,114)" stroke="rgb(61,148,91)" stroke-width="1" opacity="0.75" />
			</g>
			<g>
				<title>ketoacyl-synt (PF00109)
"Beta-ketoacyl synthase, N-terminal domain"</title>
				<rect class="PF00109" x="340" y="28" stroke-linejoin="round" width="25" height="24" fill="rgb(74,179,82)" stroke="rgb(59,143,65)" stroke-width="1" opacity="0.75" />
			</g>
			<g>
				<title>Ketoacyl-synt_C (PF02801)
"Beta-ketoacyl synthase, C-terminal domain"</title>
				<rect class="PF02801" x="366" y="28" stroke-linejoin="round" width="12" height="24" fill="rgb(212,79,72)" stroke="rgb(169,63,57)" stroke-width="1" opacity="0.75" />
			</g>
			<g>
				<title>KAsynt_C_assoc (PF16197)
"Ketoacyl-synthetase C-terminal extension"</title>
				<rect class="PF16197" x="378" y="28" stroke-linejoin="round" width="11" height="24" fill="rgb(200,86,70)" stroke="rgb(160,68,56)" stroke-width="1" opacity="0.75" />
			</g>
			<g>
				<title>Acyl_transf_1 (PF00698)
"Acyl transferase domain"</title>
				<rect class="PF00698" x="393" y="28" stroke-linejoin="round" width="31" height="24" fill="rgb(132,93,193)" stroke="rgb(105,74,154)" stroke-width="1" opacity="0.75" />
			</g>
			<g>
				<title>PP-binding (PF00550)
"Phosphopantetheine attachment site"</title>
				<polygon class="PF00550" points="473,32 479,38 479,42 473,48" stroke-linejoin="round" width="6" height="24" fill="rgb(181,58,166)" stroke="rgb(144,46,132)" stroke-width="1" opacity="0.75" />
			</g>
		</g>
		<g>
			<title> (ANIA_05999)
carbamoyl-phosphate synthetase, arginine-specific large chain (Eurofung)</title>
			<polygon class=" (ANIA_05999)
carbamoyl-phosphate synthetase, arginine-specific large chain (Eurofung)" points="527,25 621,25 621,10 651,40 621,70 621,55 527,55" fill="rgb(255,255,255)" fill-opacity="1.0" stroke="rgb(0,0,0)" stroke-width="2"  />
			<g>
				<title>CPSase_L_D2 (PF02786)
"Carbamoyl-phosphate synthase L chain, ATP binding domain"</title>
				<rect class="PF02786" x="548" y="28" stroke-linejoin="round" width="20" height="24" fill="rgb(215,220,78)" stroke="rgb(172,176,62)" stroke-width="1" opacity="0.75" />
			</g>
			<g>
				<title>CPSase_L_D3 (PF02787)
"Carbamoyl-phosphate synthetase large chain, oligomerisation domain"</title>
				<rect class="PF02787" x="577" y="28" stroke-linejoin="round" width="8" height="24" fill="rgb(210,101,66)" stroke="rgb(168,80,52)" stroke-width="1" opacity="0.75" />
			</g>
			<g>
				<title>CPSase_L_D2 (PF02786)
"Carbamoyl-phosphate synthase L chain, ATP binding domain"</title>
				<rect class="PF02786" x="602" y="28" stroke-linejoin="round" width="20" height="24" fill="rgb(215,220,78)" stroke="rgb(172,176,62)" stroke-width="1" opacity="0.75" />
			</g>
		</g>
		<g>
			<title> (ANIA_05998)
SET and MYND domain protein, putative (AFU_orthologue; AFUA_2G10080)</title>
			<polygon class=" (ANIA_05998)
SET and MYND domain protein, putative (AFU_orthologue; AFUA_2G10080)" points="680,25 704,25 704,10 734,40 704,70 704,55 680,55" fill="rgb(255,255,255)" fill-opacity="1.0" stroke="rgb(0,0,0)" stroke-width="2"  />
			<g>
				<title>SET (PF00856)
"SET domain"</title>
				<rect class="PF00856" x="682" y="28" stroke-linejoin="round" width="23" height="24" fill="rgb(122,95,207)" stroke="rgb(97,76,165)" stroke-width="1" opacity="0.75" />
			</g>
		</g>
	</g>
</svg>
