<svg version="1.1" baseProfile="full" xmlns="http://www.w3.org/2000/svg" width="2113.4666666666667" height="80">
	<g>
		<line x1="10" y1="40.0" x2="2103.4666666666667" y2="40.0" style="stroke:rgb(70,70,70); stroke-width:3 "/>
		<g>
			<title>
tyrosinase</title>
			<polygon class="
tyrosinase" points="18,40 45,10 45,70" fill="rgb(255,255,255)" fill-opacity="1.0" stroke="rgb(0,0,0)" stroke-width="2"  />
			<g>
				<title>Tyrosinase (PF00264)
"Common central domain of tyrosinase"</title>
				<polygon class="PF00264" points="22,40 33,28 42,28 42,52 33,52 22,40" stroke-linejoin="round" width="20" height="24" fill="rgb(95,226,202)" stroke="rgb(76,180,161)" stroke-width="1" opacity="0.75" />
			</g>
		</g>
		<g>
			<title>
tyrosinase co-factor</title>
			<polygon class="
tyrosinase co-factor" points="45,40 59,10 59,70" fill="rgb(255,255,255)" fill-opacity="1.0" stroke="rgb(0,0,0)" stroke-width="2"  />
			<g>
				<title>MelC1 (PF06236)
"Tyrosinase co-factor MelC1"</title>
				<polygon class="PF06236" points="48,40 54,28 58,28 58,52 54,52" stroke-linejoin="round" width="12" height="24" fill="rgb(213,63,121)" stroke="rgb(170,50,96)" stroke-width="1" opacity="0.75" />
			</g>
		</g>
		<g>
			<title>
putative translation initiation inhibitor</title>
			<polygon class="
putative translation initiation inhibitor" points="65,40 81,10 81,70" fill="rgb(255,255,255)" fill-opacity="1.0" stroke="rgb(0,0,0)" stroke-width="2"  />
			<g>
				<title>Ribonuc_L-PSP (PF01042)
"Endoribonuclease L-PSP"</title>
				<polygon class="PF01042" points="68,40 75,28 76,28 76,52 75,52" stroke-linejoin="round" width="11" height="24" fill="rgb(184,70,155)" stroke="rgb(147,56,124)" stroke-width="1" opacity="0.75" />
			</g>
		</g>
		<g>
			<title>
putative transcriptional regulator</title>
			<polygon class="
putative transcriptional regulator" points="81,25 103,25 103,10 133,40 103,70 103,55 81,55" fill="rgb(255,255,255)" fill-opacity="1.0" stroke="rgb(0,0,0)" stroke-width="2"  />
			<g>
				<title>LytR_cpsA_psr (PF03816)
"LytR_cpsA_psr family"</title>
				<rect class="PF03816" x="96" y="28" stroke-linejoin="round" width="14" height="24" fill="rgb(100,48,191)" stroke="rgb(79,38,152)" stroke-width="1" opacity="0.75" />
			</g>
		</g>
		<g>
			<title>
hypothetical protein</title>
			<polygon class="
hypothetical protein" points="140,25 151,25 151,10 181,40 151,70 151,55 140,55" fill="rgb(255,255,255)" fill-opacity="1.0" stroke="rgb(0,0,0)" stroke-width="2"  />
		</g>
		<g>
			<title>
putative methyltransferase</title>
			<polygon class="
putative methyltransferase" points="186,40 207,10 207,70" fill="rgb(255,255,255)" fill-opacity="1.0" stroke="rgb(0,0,0)" stroke-width="2"  />
			<g>
				<title>Methyltransf_25 (PF13649)
"Methyltransferase domain"</title>
				<polygon class="PF13649" points="193,36 199,28 202,28 202,52 199,52 193,44" stroke-linejoin="round" width="9" height="24" fill="rgb(224,103,106)" stroke="rgb(179,82,84)" stroke-width="1" opacity="0.75" />
			</g>
		</g>
		<g>
			<title>
hypothetical protein</title>
			<polygon class="
hypothetical protein" points="211,10 223,40 211,70" fill="rgb(255,255,255)" fill-opacity="1.0" stroke="rgb(0,0,0)" stroke-width="2"  />
			<g>
				<title>Glyoxalase_6 (PF18029)
"Glyoxalase-like domain"</title>
				<polygon class="PF18029" points="212,28 214,28 220,40 214,52 212,52" stroke-linejoin="round" width="11" height="24" fill="rgb(165,212,74)" stroke="rgb(131,169,59)" stroke-width="1" opacity="0.75" />
			</g>
		</g>
		<g>
			<title>
hypothetical protein</title>
			<polygon class="
hypothetical protein" points="226,10 247,40 226,70" fill="rgb(255,255,255)" fill-opacity="1.0" stroke="rgb(0,0,0)" stroke-width="2"  />
		</g>
		<g>
			<title>
glyoxalase/bleomycin resistance protein/dioxygenase</title>
			<polygon class="
glyoxalase/bleomycin resistance protein/dioxygenase" points="249,10 262,40 249,70" fill="rgb(255,255,255)" fill-opacity="1.0" stroke="rgb(0,0,0)" stroke-width="2"  />
			<g>
				<title>Glyoxalase (PF00903)
"Glyoxalase/Bleomycin resistance protein/Dioxygenase superfamily"</title>
				<polygon class="PF00903" points="249,28 253,28 259,40 253,52 249,52" stroke-linejoin="round" width="12" height="24" fill="rgb(139,76,222)" stroke="rgb(111,60,177)" stroke-width="1" opacity="0.75" />
			</g>
		</g>
		<g>
			<title>
hypothetical protein</title>
			<polygon class="
hypothetical protein" points="264,10 278,40 264,70" fill="rgb(255,255,255)" fill-opacity="1.0" stroke="rgb(0,0,0)" stroke-width="2"  />
			<g>
				<title>DUF1905 (PF08922)
"Domain of unknown function (DUF1905)"</title>
				<polygon class="PF08922" points="264,28 269,28 271,32 271,48 269,52 264,52" stroke-linejoin="round" width="7" height="24" fill="rgb(187,99,73)" stroke="rgb(149,79,58)" stroke-width="1" opacity="0.75" />
			</g>
			<g>
				<title>OmdA (PF13376)
"Bacteriocin-protection, YdeI or OmpD-Associated"</title>
				<polygon class="PF13376" points="272,34 275,40 272,46" stroke-linejoin="round" width="5" height="24" fill="rgb(72,210,151)" stroke="rgb(57,168,120)" stroke-width="1" opacity="0.75" />
			</g>
		</g>
		<g>
			<title>sfmR1
transcriptional regulator</title>
			<polygon class="sfmR1
transcriptional regulator" points="284,10 303,40 284,70" fill="rgb(255,255,255)" fill-opacity="1.0" stroke="rgb(0,0,0)" stroke-width="2"  />
			<g>
				<title>TetR_N (PF00440)
"Bacterial regulatory proteins, tetR family"</title>
				<rect class="PF00440" x="284" y="28" stroke-linejoin="round" width="4" height="24" fill="rgb(148,50,185)" stroke="rgb(118,40,148)" stroke-width="1" opacity="0.75" />
			</g>
			<g>
				<title>TetR_C_6 (PF13977)
"BetI-type transcriptional repressor, C-terminal"</title>
				<polygon class="PF13977" points="292,28 292,28 300,40 292,52 292,52" stroke-linejoin="round" width="10" height="24" fill="rgb(196,90,180)" stroke="rgb(156,72,144)" stroke-width="1" opacity="0.75" />
			</g>
		</g>
		<g>
			<title>sfmO1
oxidoreductase</title>
			<polygon class="sfmO1
oxidoreductase" points="303,25 303,25 303,10 333,40 303,70 303,55 303,55" fill="rgb(255,255,255)" fill-opacity="1.0" stroke="rgb(0,0,0)" stroke-width="2"  />
			<g>
				<title>adh_short (PF00106)
"short chain dehydrogenase"</title>
				<polygon class="PF00106" points="304,28 317,28 324,35 324,45 317,52 304,52" stroke-linejoin="round" width="20" height="24" fill="rgb(128,81,196)" stroke="rgb(102,64,156)" stroke-width="1" opacity="0.75" />
			</g>
		</g>
		<g>
			<title>sfmR2
transcriptional regulatory protein</title>
			<polygon class="sfmR2
transcriptional regulatory protein" points="340,10 357,40 340,70" fill="rgb(255,255,255)" fill-opacity="1.0" stroke="rgb(0,0,0)" stroke-width="2"  />
			<g>
				<title>Trans_reg_C (PF00486)
"Transcriptional regulatory protein, C terminal"</title>
				<polygon class="PF00486" points="349,32 353,40 349,48" stroke-linejoin="round" width="7" height="24" fill="rgb(69,185,116)" stroke="rgb(55,148,92)" stroke-width="1" opacity="0.75" />
			</g>
		</g>
		<g>
			<title>sfmCy1
oxidoreductase</title>
			<polygon class="sfmCy1
oxidoreductase" points="363,25 384,25 384,10 414,40 384,70 384,55 363,55" fill="rgb(255,255,255)" fill-opacity="1.0" stroke="rgb(0,0,0)" stroke-width="2"  />
			<g>
				<title>FAD_binding_4 (PF01565)
"FAD binding domain"</title>
				<rect class="PF01565" x="370" y="28" stroke-linejoin="round" width="13" height="24" fill="rgb(194,197,94)" stroke="rgb(155,157,75)" stroke-width="1" opacity="0.75" />
			</g>
			<g>
				<title>BBE (PF08031)
"Berberine and berberine like"</title>
				<polygon class="PF08031" points="409,39 410,40 409,41" stroke-linejoin="round" width="4" height="24" fill="rgb(56,179,213)" stroke="rgb(44,143,170)" stroke-width="1" opacity="0.75" />
			</g>
		</g>
		<g>
			<title>sfmG
transmembrane efflux protein</title>
			<polygon class="sfmG
transmembrane efflux protein" points="416,25 434,25 434,10 464,40 434,70 434,55 416,55" fill="rgb(255,255,255)" fill-opacity="1.0" stroke="rgb(0,0,0)" stroke-width="2"  />
			<g>
				<title>MFS_1 (PF07690)
"Major Facilitator Superfamily"</title>
				<polygon class="PF07690" points="418,28 447,28 457,38 457,42 447,52 418,52" stroke-linejoin="round" width="39" height="24" fill="rgb(228,207,98)" stroke="rgb(182,165,78)" stroke-width="1" opacity="0.75" />
			</g>
		</g>
		<g>
			<title>sfmH
UV-repair protein</title>
			<polygon class="sfmH
UV-repair protein" points="549,25 497,25 497,10 467,40 497,70 497,55 549,55" fill="rgb(255,255,255)" fill-opacity="1.0" stroke="rgb(0,0,0)" stroke-width="2"  />
			<g>
				<title>UvrA_DNA-bind (PF17755)
"UvrA DNA-binding domain"</title>
				<rect class="PF17755" x="521" y="28" stroke-linejoin="round" width="11" height="24" fill="rgb(74,206,99)" stroke="rgb(59,164,79)" stroke-width="1" opacity="0.75" />
			</g>
		</g>
		<g>
			<title>sfmO2
monooxygenase</title>
			<polygon class="sfmO2
monooxygenase" points="604,25 582,25 582,10 552,40 582,70 582,55 604,55" fill="rgb(255,255,255)" fill-opacity="1.0" stroke="rgb(0,0,0)" stroke-width="2"  />
			<g>
				<title>Rng_hyd_C (PF21274)
"Aromatic-ring hydroxylase, C-terminal"</title>
				<polygon class="PF21274" points="556,40 564,32 564,48" stroke-linejoin="round" width="10" height="24" fill="rgb(153,227,106)" stroke="rgb(122,181,84)" stroke-width="1" opacity="0.75" />
			</g>
			<g>
				<title>FAD_binding_3 (PF01494)
"FAD binding domain"</title>
				<rect class="PF01494" x="570" y="28" stroke-linejoin="round" width="33" height="24" fill="rgb(215,66,156)" stroke="rgb(172,52,124)" stroke-width="1" opacity="0.75" />
			</g>
		</g>
		<g>
			<title>sfmM1
SAM-dependent methyltransferase</title>
			<polygon class="sfmM1
SAM-dependent methyltransferase" points="606,40 626,10 626,70" fill="rgb(255,255,255)" fill-opacity="1.0" stroke="rgb(0,0,0)" stroke-width="2"  />
			<g>
				<title>Methyltransf_25 (PF13649)
"Methyltransferase domain"</title>
				<polygon class="PF13649" points="612,37 618,28 621,28 621,52 618,52 612,43" stroke-linejoin="round" width="9" height="24" fill="rgb(224,103,106)" stroke="rgb(179,82,84)" stroke-width="1" opacity="0.75" />
			</g>
		</g>
		<g>
			<title>sfmI
hypothetical protein</title>
			<polygon class="sfmI
hypothetical protein" points="631,40 647,10 647,70" fill="rgb(255,255,255)" fill-opacity="1.0" stroke="rgb(0,0,0)" stroke-width="2"  />
		</g>
		<g>
			<title>sfmJ
pyridoxamine 5'-phosphate oxidase-related protein</title>
			<polygon class="sfmJ
pyridoxamine 5'-phosphate oxidase-related protein" points="647,40 663,10 663,70" fill="rgb(255,255,255)" fill-opacity="1.0" stroke="rgb(0,0,0)" stroke-width="2"  />
			<g>
				<title>Putative_PNPOx (PF01243)
"Pyridoxamine 5'-phosphate oxidase"</title>
				<polygon class="PF01243" points="653,35 657,28 662,28 662,52 657,52 653,45" stroke-linejoin="round" width="9" height="24" fill="rgb(187,127,57)" stroke="rgb(149,101,45)" stroke-width="1" opacity="0.75" />
			</g>
		</g>
		<g>
			<title>sfmO3
cytochrome P450 hydroxylase</title>
			<polygon class="sfmO3
cytochrome P450 hydroxylase" points="670,25 679,25 679,10 709,40 679,70 679,55 670,55" fill="rgb(255,255,255)" fill-opacity="1.0" stroke="rgb(0,0,0)" stroke-width="2"  />
			<g>
				<title>p450 (PF00067)
"Cytochrome P450"</title>
				<polygon class="PF00067" points="672,28 693,28 705,40 693,52 672,52" stroke-linejoin="round" width="36" height="24" fill="rgb(195,210,54)" stroke="rgb(155,168,43)" stroke-width="1" opacity="0.75" />
			</g>
		</g>
		<g>
			<title>sfmK
ferredoxin-like protein</title>
			<polygon class="sfmK
ferredoxin-like protein" points="711,10 717,40 711,70" fill="rgb(255,255,255)" fill-opacity="1.0" stroke="rgb(0,0,0)" stroke-width="2"  />
			<g>
				<title>Fer4_13 (PF13370)
"4Fe-4S single cluster domain of Ferredoxin I"</title>
				<polygon class="PF13370" points="711,28 711,28 714,40 711,52 711,52" stroke-linejoin="round" width="4" height="24" fill="rgb(72,194,54)" stroke="rgb(57,155,43)" stroke-width="1" opacity="0.75" />
			</g>
		</g>
		<g>
			<title>sfmCy2
oxidoreductase</title>
			<polygon class="sfmCy2
oxidoreductase" points="770,25 750,25 750,10 720,40 750,70 750,55 770,55" fill="rgb(255,255,255)" fill-opacity="1.0" stroke="rgb(0,0,0)" stroke-width="2"  />
			<g>
				<title>BBE (PF08031)
"Berberine and berberine like"</title>
				<polygon class="PF08031" points="724,40 724,40 724,40" stroke-linejoin="round" width="4" height="24" fill="rgb(56,179,213)" stroke="rgb(44,143,170)" stroke-width="1" opacity="0.75" />
			</g>
			<g>
				<title>FAD_binding_4 (PF01565)
"FAD binding domain"</title>
				<rect class="PF01565" x="750" y="28" stroke-linejoin="round" width="13" height="24" fill="rgb(194,197,94)" stroke="rgb(155,157,75)" stroke-width="1" opacity="0.75" />
			</g>
		</g>
		<g>
			<title>sfmO4
cytochrome P450 hydroxylase</title>
			<polygon class="sfmO4
cytochrome P450 hydroxylase" points="822,25 805,25 805,10 775,40 805,70 805,55 822,55" fill="rgb(255,255,255)" fill-opacity="1.0" stroke="rgb(0,0,0)" stroke-width="2"  />
			<g>
				<title>p450 (PF00067)
"Cytochrome P450"</title>
				<polygon class="PF00067" points="779,40 791,28 820,28 820,52 791,52" stroke-linejoin="round" width="42" height="24" fill="rgb(195,210,54)" stroke="rgb(155,168,43)" stroke-width="1" opacity="0.75" />
			</g>
		</g>
		<g>
			<title>sfmA
putative non-ribosomal peptide synthetase</title>
			<polygon class="sfmA
putative non-ribosomal peptide synthetase" points="823,25 976,25 976,10 1006,40 976,70 976,55 823,55" fill="rgb(255,255,255)" fill-opacity="1.0" stroke="rgb(0,0,0)" stroke-width="2"  />
			<g>
				<title>AMP-binding (PF00501)
"AMP-binding enzyme"</title>
				<rect class="PF00501" x="832" y="28" stroke-linejoin="round" width="40" height="24" fill="rgb(189,78,204)" stroke="rgb(151,62,163)" stroke-width="1" opacity="0.75" />
			</g>
			<g>
				<title>Condensation (PF00668)
"Condensation domain"</title>
				<rect class="PF00668" x="898" y="28" stroke-linejoin="round" width="45" height="24" fill="rgb(172,217,60)" stroke="rgb(137,173,47)" stroke-width="1" opacity="0.75" />
			</g>
			<g>
				<title>AMP-binding (PF00501)
"AMP-binding enzyme"</title>
				<rect class="PF00501" x="946" y="28" stroke-linejoin="round" width="34" height="24" fill="rgb(189,78,204)" stroke="rgb(151,62,163)" stroke-width="1" opacity="0.75" />
			</g>
			<g>
				<title>AMP-binding_C (PF13193)
"AMP-binding enzyme C-terminal domain"</title>
				<polygon class="PF13193" points="986,28 990,28 993,31 993,49 990,52 986,52" stroke-linejoin="round" width="7" height="24" fill="rgb(195,82,106)" stroke="rgb(156,65,84)" stroke-width="1" opacity="0.75" />
			</g>
			<g>
				<title>PP-binding (PF00550)
"Phosphopantetheine attachment site"</title>
				<polygon class="PF00550" points="996,34 1002,40 1002,40 996,46" stroke-linejoin="round" width="6" height="24" fill="rgb(181,58,166)" stroke="rgb(144,46,132)" stroke-width="1" opacity="0.75" />
			</g>
		</g>
		<g>
			<title>sfmB
putative non-ribosomal peptide synthetase</title>
			<polygon class="sfmB
putative non-ribosomal peptide synthetase" points="1012,25 1090,25 1090,10 1120,40 1090,70 1090,55 1012,55" fill="rgb(255,255,255)" fill-opacity="1.0" stroke="rgb(0,0,0)" stroke-width="2"  />
			<g>
				<title>Condensation (PF00668)
"Condensation domain"</title>
				<rect class="PF00668" x="1012" y="28" stroke-linejoin="round" width="43" height="24" fill="rgb(172,217,60)" stroke="rgb(137,173,47)" stroke-width="1" opacity="0.75" />
			</g>
			<g>
				<title>AMP-binding (PF00501)
"AMP-binding enzyme"</title>
				<rect class="PF00501" x="1057" y="28" stroke-linejoin="round" width="34" height="24" fill="rgb(189,78,204)" stroke="rgb(151,62,163)" stroke-width="1" opacity="0.75" />
			</g>
			<g>
				<title>AMP-binding_C (PF13193)
"AMP-binding enzyme C-terminal domain"</title>
				<rect class="PF13193" x="1097" y="28" stroke-linejoin="round" width="7" height="24" fill="rgb(195,82,106)" stroke="rgb(156,65,84)" stroke-width="1" opacity="0.75" />
			</g>
			<g>
				<title>PP-binding (PF00550)
"Phosphopantetheine attachment site"</title>
				<polygon class="PF00550" points="1107,31 1113,37 1113,43 1107,49" stroke-linejoin="round" width="6" height="24" fill="rgb(181,58,166)" stroke="rgb(144,46,132)" stroke-width="1" opacity="0.75" />
			</g>
		</g>
		<g>
			<title>sfmC
putative non-ribosomal peptide synthetase</title>
			<polygon class="sfmC
putative non-ribosomal peptide synthetase" points="1120,25 1238,25 1238,10 1268,40 1238,70 1238,55 1120,55" fill="rgb(255,255,255)" fill-opacity="1.0" stroke="rgb(0,0,0)" stroke-width="2"  />
			<g>
				<title>Condensation (PF00668)
"Condensation domain"</title>
				<rect class="PF00668" x="1122" y="28" stroke-linejoin="round" width="15" height="24" fill="rgb(172,217,60)" stroke="rgb(137,173,47)" stroke-width="1" opacity="0.75" />
			</g>
			<g>
				<title>AMP-binding (PF00501)
"AMP-binding enzyme"</title>
				<rect class="PF00501" x="1167" y="28" stroke-linejoin="round" width="34" height="24" fill="rgb(189,78,204)" stroke="rgb(151,62,163)" stroke-width="1" opacity="0.75" />
			</g>
			<g>
				<title>AMP-binding_C (PF13193)
"AMP-binding enzyme C-terminal domain"</title>
				<rect class="PF13193" x="1208" y="28" stroke-linejoin="round" width="7" height="24" fill="rgb(195,82,106)" stroke="rgb(156,65,84)" stroke-width="1" opacity="0.75" />
			</g>
			<g>
				<title>PP-binding (PF00550)
"Phosphopantetheine attachment site"</title>
				<rect class="PF00550" x="1219" y="28" stroke-linejoin="round" width="6" height="24" fill="rgb(181,58,166)" stroke="rgb(144,46,132)" stroke-width="1" opacity="0.75" />
			</g>
			<g>
				<title>NAD_binding_4 (PF07993)
"Male sterility protein"</title>
				<polygon class="PF07993" points="1230,28 1252,28 1253,29 1253,51 1252,52 1230,52" stroke-linejoin="round" width="23" height="24" fill="rgb(210,94,130)" stroke="rgb(168,75,103)" stroke-width="1" opacity="0.75" />
			</g>
		</g>
		<g>
			<title>sfmD
hypothetical protein</title>
			<polygon class="sfmD
hypothetical protein" points="1268,25 1274,25 1274,10 1304,40 1274,70 1274,55 1268,55" fill="rgb(255,255,255)" fill-opacity="1.0" stroke="rgb(0,0,0)" stroke-width="2"  />
		</g>
		<g>
			<title>sfmE
putative peptidase</title>
			<polygon class="sfmE
putative peptidase" points="1305,25 1354,25 1354,10 1384,40 1354,70 1354,55 1305,55" fill="rgb(255,255,255)" fill-opacity="1.0" stroke="rgb(0,0,0)" stroke-width="2"  />
			<g>
				<title>Peptidase_M28 (PF04389)
"Peptidase family M28"</title>
				<rect class="PF04389" x="1316" y="28" stroke-linejoin="round" width="19" height="24" fill="rgb(181,83,196)" stroke="rgb(144,66,156)" stroke-width="1" opacity="0.75" />
			</g>
		</g>
		<g>
			<title>sfmF
MbtH-like domain protein</title>
			<polygon class="sfmF
MbtH-like domain protein" points="1383,10 1390,40 1383,70" fill="rgb(255,255,255)" fill-opacity="1.0" stroke="rgb(0,0,0)" stroke-width="2"  />
			<g>
				<title>MbtH (PF03621)
"MbtH-like protein"</title>
				<polygon class="PF03621" points="1384,27 1387,40 1384,53" stroke-linejoin="round" width="5" height="24" fill="rgb(102,212,116)" stroke="rgb(81,169,92)" stroke-width="1" opacity="0.75" />
			</g>
		</g>
		<g>
			<title>sfmM2
SAM-dependent methyltransferase</title>
			<polygon class="sfmM2
SAM-dependent methyltransferase" points="1392,25 1398,25 1398,10 1428,40 1398,70 1398,55 1392,55" fill="rgb(255,255,255)" fill-opacity="1.0" stroke="rgb(0,0,0)" stroke-width="2"  />
			<g>
				<title>Methyltransf_2 (PF00891)
"O-methyltransferase domain"</title>
				<polygon class="PF00891" points="1405,28 1412,28 1424,40 1412,52 1405,52" stroke-linejoin="round" width="21" height="24" fill="rgb(91,124,224)" stroke="rgb(72,99,179)" stroke-width="1" opacity="0.75" />
			</g>
		</g>
		<g>
			<title>sfmR3
transcriptional regulatory protein</title>
			<polygon class="sfmR3
transcriptional regulatory protein" points="1432,10 1449,40 1432,70" fill="rgb(255,255,255)" fill-opacity="1.0" stroke="rgb(0,0,0)" stroke-width="2"  />
			<g>
				<title>Trans_reg_C (PF00486)
"Transcriptional regulatory protein, C terminal"</title>
				<polygon class="PF00486" points="1441,31 1446,40 1441,49" stroke-linejoin="round" width="7" height="24" fill="rgb(69,185,116)" stroke="rgb(55,148,92)" stroke-width="1" opacity="0.75" />
			</g>
		</g>
		<g>
			<title>sfmO5
prephenate dehydrogenase</title>
			<polygon class="sfmO5
prephenate dehydrogenase" points="1493,25 1484,25 1484,10 1454,40 1484,70 1484,55 1493,55" fill="rgb(255,255,255)" fill-opacity="1.0" stroke="rgb(0,0,0)" stroke-width="2"  />
			<g>
				<title>PDH_C (PF20463)
"Prephenate dehydrogenase, dimerization domain"</title>
				<polygon class="PF20463" points="1465,33 1470,28 1474,28 1474,52 1470,52 1465,47" stroke-linejoin="round" width="9" height="24" fill="rgb(83,223,141)" stroke="rgb(66,178,112)" stroke-width="1" opacity="0.75" />
			</g>
			<g>
				<title>PDH_N (PF02153)
"Prephenate dehydrogenase, nucleotide-binding domain"</title>
				<rect class="PF02153" x="1475" y="28" stroke-linejoin="round" width="14" height="24" fill="rgb(204,207,87)" stroke="rgb(163,165,69)" stroke-width="1" opacity="0.75" />
			</g>
		</g>
		<g>
			<title>sfmS1
putative adenosylhomocysteinase</title>
			<polygon class="sfmS1
putative adenosylhomocysteinase" points="1542,25 1524,25 1524,10 1494,40 1524,70 1524,55 1542,55" fill="rgb(255,255,255)" fill-opacity="1.0" stroke="rgb(0,0,0)" stroke-width="2"  />
			<g>
				<title>AdoHcyase (PF05221)
"S-adenosyl-L-homocysteine hydrolase"</title>
				<polygon class="PF05221" points="1498,40 1510,28 1541,28 1541,52 1510,52" stroke-linejoin="round" width="47" height="24" fill="rgb(185,78,202)" stroke="rgb(148,62,161)" stroke-width="1" opacity="0.75" />
			</g>
		</g>
		<g>
			<title>sfmS2
N5, N10-methylen-tetrahydrofolate reductase</title>
			<polygon class="sfmS2
N5, N10-methylen-tetrahydrofolate reductase" points="1575,25 1574,25 1574,10 1544,40 1574,70 1574,55 1575,55" fill="rgb(255,255,255)" fill-opacity="1.0" stroke="rgb(0,0,0)" stroke-width="2"  />
			<g>
				<title>MTHFR (PF02219)
"Methylenetetrahydrofolate reductase"</title>
				<polygon class="PF02219" points="1548,40 1560,28 1573,28 1573,52 1560,52" stroke-linejoin="round" width="28" height="24" fill="rgb(85,139,203)" stroke="rgb(68,111,162)" stroke-width="1" opacity="0.75" />
			</g>
		</g>
		<g>
			<title>sfmS3
putative methionine synthase</title>
			<polygon class="sfmS3
putative methionine synthase" points="1688,25 1606,25 1606,10 1576,40 1606,70 1606,55 1688,55" fill="rgb(255,255,255)" fill-opacity="1.0" stroke="rgb(0,0,0)" stroke-width="2"  />
			<g>
				<title>Met_synt_B12 (PF02965)
"Vitamin B12 dependent methionine synthase, activation domain"</title>
				<polygon class="PF02965" points="1580,40 1592,28 1598,28 1598,52 1592,52" stroke-linejoin="round" width="22" height="24" fill="rgb(107,217,214)" stroke="rgb(85,173,171)" stroke-width="1" opacity="0.75" />
			</g>
			<g>
				<title>B12-binding (PF02310)
"B12 binding domain"</title>
				<rect class="PF02310" x="1607" y="28" stroke-linejoin="round" width="12" height="24" fill="rgb(64,214,216)" stroke="rgb(51,171,172)" stroke-width="1" opacity="0.75" />
			</g>
			<g>
				<title>B12-binding_2 (PF02607)
"B12 binding domain"</title>
				<rect class="PF02607" x="1620" y="28" stroke-linejoin="round" width="7" height="24" fill="rgb(87,196,76)" stroke="rgb(69,156,60)" stroke-width="1" opacity="0.75" />
			</g>
			<g>
				<title>Pterin_bind (PF00809)
"Pterin binding enzyme"</title>
				<rect class="PF00809" x="1634" y="28" stroke-linejoin="round" width="23" height="24" fill="rgb(68,133,191)" stroke="rgb(54,106,152)" stroke-width="1" opacity="0.75" />
			</g>
			<g>
				<title>S-methyl_trans (PF02574)
"Homocysteine S-methyltransferase"</title>
				<rect class="PF02574" x="1661" y="28" stroke-linejoin="round" width="27" height="24" fill="rgb(73,136,197)" stroke="rgb(58,108,157)" stroke-width="1" opacity="0.75" />
			</g>
		</g>
		<g>
			<title>sfmS4
putative adenosine kinase</title>
			<polygon class="sfmS4
putative adenosine kinase" points="1724,25 1722,25 1722,10 1692,40 1722,70 1722,55 1724,55" fill="rgb(255,255,255)" fill-opacity="1.0" stroke="rgb(0,0,0)" stroke-width="2"  />
			<g>
				<title>PfkB (PF00294)
"pfkB family carbohydrate kinase"</title>
				<polygon class="PF00294" points="1696,40 1708,28 1722,28 1722,52 1708,52" stroke-linejoin="round" width="28" height="24" fill="rgb(94,207,198)" stroke="rgb(75,165,158)" stroke-width="1" opacity="0.75" />
			</g>
		</g>
		<g>
			<title>sfmS5
putative S-adenosylmethionine synthetase</title>
			<polygon class="sfmS5
putative S-adenosylmethionine synthetase" points="1765,25 1755,25 1755,10 1725,40 1755,70 1755,55 1765,55" fill="rgb(255,255,255)" fill-opacity="1.0" stroke="rgb(0,0,0)" stroke-width="2"  />
			<g>
				<title>S-AdoMet_synt_C (PF02773)
"S-adenosylmethionine synthetase, C-terminal domain"</title>
				<polygon class="PF02773" points="1729,40 1739,30 1739,50" stroke-linejoin="round" width="13" height="24" fill="rgb(143,191,71)" stroke="rgb(114,152,56)" stroke-width="1" opacity="0.75" />
			</g>
			<g>
				<title>S-AdoMet_synt_M (PF02772)
"S-adenosylmethionine synthetase, central domain"</title>
				<polygon class="PF02772" points="1740,29 1741,28 1752,28 1752,52 1741,52 1740,51" stroke-linejoin="round" width="12" height="24" fill="rgb(215,74,54)" stroke="rgb(172,59,43)" stroke-width="1" opacity="0.75" />
			</g>
			<g>
				<title>S-AdoMet_synt_N (PF00438)
"S-adenosylmethionine synthetase, N-terminal domain"</title>
				<rect class="PF00438" x="1755" y="28" stroke-linejoin="round" width="9" height="24" fill="rgb(198,117,90)" stroke="rgb(158,93,72)" stroke-width="1" opacity="0.75" />
			</g>
		</g>
		<g>
			<title>sfmM3
SAM-dependent methyltransferase</title>
			<polygon class="sfmM3
SAM-dependent methyltransferase" points="1799,25 1796,25 1796,10 1766,40 1796,70 1796,55 1799,55" fill="rgb(255,255,255)" fill-opacity="1.0" stroke="rgb(0,0,0)" stroke-width="2"  />
			<g>
				<title>Methyltransf_2 (PF00891)
"O-methyltransferase domain"</title>
				<polygon class="PF00891" points="1770,40 1782,28 1789,28 1789,52 1782,52" stroke-linejoin="round" width="21" height="24" fill="rgb(91,124,224)" stroke="rgb(72,99,179)" stroke-width="1" opacity="0.75" />
			</g>
		</g>
		<g>
			<title>sfmO6
oxygenase</title>
			<polygon class="sfmO6
oxygenase" points="1810,25 1817,25 1817,10 1847,40 1817,70 1817,55 1810,55" fill="rgb(255,255,255)" fill-opacity="1.0" stroke="rgb(0,0,0)" stroke-width="2"  />
			<g>
				<title>FAD_binding_3 (PF01494)
"FAD binding domain"</title>
				<rect class="PF01494" x="1810" y="28" stroke-linejoin="round" width="11" height="24" fill="rgb(215,66,156)" stroke="rgb(172,52,124)" stroke-width="1" opacity="0.75" />
			</g>
			<g>
				<title>FAD_binding_3 (PF01494)
"FAD binding domain"</title>
				<rect class="PF01494" x="1825" y="28" stroke-linejoin="round" width="3" height="24" fill="rgb(215,66,156)" stroke="rgb(172,52,124)" stroke-width="1" opacity="0.75" />
			</g>
		</g>
		<g>
			<title>
cofilin</title>
			<polygon class="
cofilin" points="1859,10 1874,40 1859,70" fill="rgb(255,255,255)" fill-opacity="1.0" stroke="rgb(0,0,0)" stroke-width="2"  />
		</g>
		<g>
			<title>
putative RNA polymerase ECF-subfamily sigma factor</title>
			<polygon class="
putative RNA polymerase ECF-subfamily sigma factor" points="1905,25 1902,25 1902,10 1872,40 1902,70 1902,55 1905,55" fill="rgb(255,255,255)" fill-opacity="1.0" stroke="rgb(0,0,0)" stroke-width="2"  />
		</g>
		<g>
			<title>
putative DNA ligase</title>
			<polygon class="
putative DNA ligase" points="1917,10 1932,40 1917,70" fill="rgb(255,255,255)" fill-opacity="1.0" stroke="rgb(0,0,0)" stroke-width="2"  />
			<g>
				<title>DNA_ligase_A_M (PF01068)
"ATP dependent DNA ligase domain"</title>
				<polygon class="PF01068" points="1917,28 1922,28 1929,40 1922,52 1917,52" stroke-linejoin="round" width="14" height="24" fill="rgb(188,86,212)" stroke="rgb(150,68,169)" stroke-width="1" opacity="0.75" />
			</g>
		</g>
		<g>
			<title>
hypothetical protein</title>
			<polygon class="
hypothetical protein" points="1939,40 1951,10 1951,70" fill="rgb(255,255,255)" fill-opacity="1.0" stroke="rgb(0,0,0)" stroke-width="2"  />
		</g>
		<g>
			<title>
unknonw</title>
			<polygon class="
unknonw" points="1954,25 1966,25 1966,10 1996,40 1966,70 1966,55 1954,55" fill="rgb(255,255,255)" fill-opacity="1.0" stroke="rgb(0,0,0)" stroke-width="2"  />
			<g>
				<title>SLFN_AlbA_2 (PF04326)
"Schlafen, AlbA_2"</title>
				<rect class="PF04326" x="1957" y="28" stroke-linejoin="round" width="12" height="24" fill="rgb(62,70,178)" stroke="rgb(49,55,142)" stroke-width="1" opacity="0.75" />
			</g>
		</g>
		<g>
			<title>
neuromedin U receptor 1</title>
			<polygon class="
neuromedin U receptor 1" points="2010,10 2025,40 2010,70" fill="rgb(255,255,255)" fill-opacity="1.0" stroke="rgb(0,0,0)" stroke-width="2"  />
		</g>
		<g>
			<title>
hypothetical protein</title>
			<polygon class="
hypothetical protein" points="2024,40 2043,10 2043,70" fill="rgb(255,255,255)" fill-opacity="1.0" stroke="rgb(0,0,0)" stroke-width="2"  />
		</g>
	</g>
</svg>
