<svg version="1.1" baseProfile="full" xmlns="http://www.w3.org/2000/svg" width="660.5666666666667" height="80">
	<g>
		<line x1="10" y1="40.0" x2="650.5666666666667" y2="40.0" style="stroke:rgb(70,70,70); stroke-width:3 "/>
		<g>
			<title>galF
UDP-glucose pyrophosphorylase</title>
			<polygon class="galF
UDP-glucose pyrophosphorylase" points="15,10 44,40 15,70" fill="rgb(255,255,255)" fill-opacity="1.0" stroke="rgb(0,0,0)" stroke-width="2"  />
			<g>
				<title>NTP_transferase (PF00483)
"Nucleotidyl transferase"</title>
				<polygon class="PF00483" points="15,28 28,28 40,40 28,52 15,52" stroke-linejoin="round" width="27" height="24" fill="rgb(211,145,90)" stroke="rgb(168,116,72)" stroke-width="1" opacity="0.75" />
			</g>
		</g>
		<g>
			<title>acidPPc
acid phosphatase homologue</title>
			<polygon class="acidPPc
acid phosphatase homologue" points="57,10 78,40 57,70" fill="rgb(255,255,255)" fill-opacity="1.0" stroke="rgb(0,0,0)" stroke-width="2"  />
			<g>
				<title>PAP2 (PF01569)
"PAP2 superfamily"</title>
				<polygon class="PF01569" points="62,28 66,28 71,36 71,44 66,52 62,52" stroke-linejoin="round" width="9" height="24" fill="rgb(102,182,88)" stroke="rgb(81,145,70)" stroke-width="1" opacity="0.75" />
			</g>
		</g>
		<g>
			<title>wzi
surface assembly of capsule</title>
			<polygon class="wzi
surface assembly of capsule" points="110,25 127,25 127,10 157,40 127,70 127,55 110,55" fill="rgb(255,255,255)" fill-opacity="1.0" stroke="rgb(0,0,0)" stroke-width="2"  />
			<g>
				<title>Caps_assemb_Wzi (PF14052)
"Capsule assembly protein Wzi"</title>
				<polygon class="PF14052" points="118,28 141,28 153,40 141,52 118,52" stroke-linejoin="round" width="38" height="24" fill="rgb(197,72,151)" stroke="rgb(157,57,120)" stroke-width="1" opacity="0.75" />
			</g>
		</g>
		<g>
			<title>wza
multimeric putative translocation channel</title>
			<polygon class="wza
multimeric putative translocation channel" points="162,25 169,25 169,10 199,40 169,70 169,55 162,55" fill="rgb(255,255,255)" fill-opacity="1.0" stroke="rgb(0,0,0)" stroke-width="2"  />
			<g>
				<title>Poly_export (PF02563)
"Polysaccharide biosynthesis/export protein"</title>
				<rect class="PF02563" x="170" y="28" stroke-linejoin="round" width="8" height="24" fill="rgb(219,92,156)" stroke="rgb(175,73,124)" stroke-width="1" opacity="0.75" />
			</g>
			<g>
				<title>SLBB (PF10531)
"SLBB domain"</title>
				<polygon class="PF10531" points="179,28 183,28 185,30 185,50 183,52 179,52" stroke-linejoin="round" width="6" height="24" fill="rgb(53,192,99)" stroke="rgb(42,153,79)" stroke-width="1" opacity="0.75" />
			</g>
			<g>
				<title>SLBB (PF10531)
"SLBB domain"</title>
				<polygon class="PF10531" points="187,32 192,37 192,43 187,48" stroke-linejoin="round" width="5" height="24" fill="rgb(53,192,99)" stroke="rgb(42,153,79)" stroke-width="1" opacity="0.75" />
			</g>
			<g>
				<title>Wza_C (PF18412)
"Outer-membrane lipoprotein Wza C-terminal domain"</title>
				<polygon class="PF18412" points="196,40 195,40 196,40" stroke-linejoin="round" width="2" height="24" fill="rgb(151,203,80)" stroke="rgb(120,162,64)" stroke-width="1" opacity="0.75" />
			</g>
		</g>
		<g>
			<title>wzb
protein tyrosine phosphatase</title>
			<polygon class="wzb
protein tyrosine phosphatase" points="200,10 214,40 200,70" fill="rgb(255,255,255)" fill-opacity="1.0" stroke="rgb(0,0,0)" stroke-width="2"  />
			<g>
				<title>LMWPc (PF01451)
"Low molecular weight phosphotyrosine protein phosphatase"</title>
				<polygon class="PF01451" points="200,28 205,28 211,40 205,52 200,52" stroke-linejoin="round" width="13" height="24" fill="rgb(105,179,85)" stroke="rgb(84,143,68)" stroke-width="1" opacity="0.75" />
			</g>
		</g>
		<g>
			<title>wzc
putative transmembrane protein</title>
			<polygon class="wzc
putative transmembrane protein" points="215,25 256,25 256,10 286,40 256,70 256,55 215,55" fill="rgb(255,255,255)" fill-opacity="1.0" stroke="rgb(0,0,0)" stroke-width="2"  />
			<g>
				<title>Wzz (PF02706)
"Chain length determinant protein"</title>
				<rect class="PF02706" x="216" y="28" stroke-linejoin="round" width="9" height="24" fill="rgb(216,77,57)" stroke="rgb(172,61,45)" stroke-width="1" opacity="0.75" />
			</g>
			<g>
				<title>GNVR (PF13807)
"G-rich domain on putative tyrosine kinase"</title>
				<rect class="PF13807" x="251" y="28" stroke-linejoin="round" width="8" height="24" fill="rgb(214,163,91)" stroke="rgb(171,130,72)" stroke-width="1" opacity="0.75" />
			</g>
			<g>
				<title>AAA_31 (PF13614)
"AAA domain"</title>
				<polygon class="PF13614" points="267,28 270,28 281,39 281,41 270,52 267,52" stroke-linejoin="round" width="14" height="24" fill="rgb(103,181,56)" stroke="rgb(82,144,44)" stroke-width="1" opacity="0.75" />
			</g>
		</g>
		<g>
			<title>wzy
polymerase</title>
			<polygon class="wzy
polymerase" points="293,25 303,25 303,10 333,40 303,70 303,55 293,55" fill="rgb(255,255,255)" fill-opacity="1.0" stroke="rgb(0,0,0)" stroke-width="2"  />
			<g>
				<title>DUF6369 (PF19896)
"Family of unknown function (DUF6369)"</title>
				<polygon class="PF19896" points="295,28 317,28 329,40 317,52 295,52" stroke-linejoin="round" width="37" height="24" fill="rgb(93,223,87)" stroke="rgb(74,178,69)" stroke-width="1" opacity="0.75" />
			</g>
		</g>
		<g>
			<title>wzx
flippase</title>
			<polygon class="wzx
flippase" points="333,25 351,25 351,10 381,40 351,70 351,55 333,55" fill="rgb(255,255,255)" fill-opacity="1.0" stroke="rgb(0,0,0)" stroke-width="2"  />
			<g>
				<title>Polysacc_synt (PF01943)
"Polysaccharide biosynthesis protein"</title>
				<rect class="PF01943" x="334" y="28" stroke-linejoin="round" width="28" height="24" fill="rgb(87,191,113)" stroke="rgb(69,152,90)" stroke-width="1" opacity="0.75" />
			</g>
		</g>
		<g>
			<title>
putative pyruvyl transferase</title>
			<polygon class="
putative pyruvyl transferase" points="382,25 390,25 390,10 420,40 390,70 390,55 382,55" fill="rgb(255,255,255)" fill-opacity="1.0" stroke="rgb(0,0,0)" stroke-width="2"  />
			<g>
				<title>PS_pyruv_trans (PF04230)
"Polysaccharide pyruvyl transferase"</title>
				<polygon class="PF04230" points="383,28 403,28 412,37 412,43 403,52 383,52" stroke-linejoin="round" width="29" height="24" fill="rgb(190,122,54)" stroke="rgb(152,97,43)" stroke-width="1" opacity="0.75" />
			</g>
		</g>
		<g>
			<title>
hypothetical protein</title>
			<polygon class="
hypothetical protein" points="418,10 446,40 418,70" fill="rgb(255,255,255)" fill-opacity="1.0" stroke="rgb(0,0,0)" stroke-width="2"  />
			<g>
				<title>Polysacc_lyase_14 (PF21294)
"Polysaccharide lyase 14"</title>
				<polygon class="PF21294" points="424,28 430,28 442,40 430,52 424,52" stroke-linejoin="round" width="20" height="24" fill="rgb(192,182,49)" stroke="rgb(153,145,39)" stroke-width="1" opacity="0.75" />
			</g>
		</g>
		<g>
			<title>
putative acetyltransferase</title>
			<polygon class="
putative acetyltransferase" points="446,10 464,40 446,70" fill="rgb(255,255,255)" fill-opacity="1.0" stroke="rgb(0,0,0)" stroke-width="2"  />
			<g>
				<title>Hexapep (PF00132)
"Bacterial transferase hexapeptide (six repeats)"</title>
				<polygon class="PF00132" points="457,34 460,39 460,41 457,46" stroke-linejoin="round" width="3" height="24" fill="rgb(125,98,224)" stroke="rgb(100,78,179)" stroke-width="1" opacity="0.75" />
			</g>
		</g>
		<g>
			<title>
putative glycosyltransferase</title>
			<polygon class="
putative glycosyltransferase" points="466,25 468,25 468,10 498,40 468,70 468,55 466,55" fill="rgb(255,255,255)" fill-opacity="1.0" stroke="rgb(0,0,0)" stroke-width="2"  />
		</g>
		<g>
			<title>
putative glycosyltransferase</title>
			<polygon class="
putative glycosyltransferase" points="498,10 512,40 498,70" fill="rgb(255,255,255)" fill-opacity="1.0" stroke="rgb(0,0,0)" stroke-width="2"  />
			<g>
				<title>Alg14 (PF08660)
"Oligosaccharide biosynthesis protein Alg14 like"</title>
				<polygon class="PF08660" points="502,28 503,28 509,40 503,52 502,52" stroke-linejoin="round" width="10" height="24" fill="rgb(68,151,206)" stroke="rgb(54,120,164)" stroke-width="1" opacity="0.75" />
			</g>
		</g>
		<g>
			<title>
putative glycosyltransferase</title>
			<polygon class="
putative glycosyltransferase" points="513,10 529,40 513,70" fill="rgb(255,255,255)" fill-opacity="1.0" stroke="rgb(0,0,0)" stroke-width="2"  />
			<g>
				<title>Glyco_tran_28_C (PF04101)
"Glycosyltransferase family 28 C-terminal domain"</title>
				<polygon class="PF04101" points="513,28 519,28 524,37 524,43 519,52 513,52" stroke-linejoin="round" width="11" height="24" fill="rgb(77,119,200)" stroke="rgb(61,95,160)" stroke-width="1" opacity="0.75" />
			</g>
		</g>
		<g>
			<title>rfbp
glycosyltransferase</title>
			<polygon class="rfbp
glycosyltransferase" points="539,25 555,25 555,10 585,40 555,70 555,55 539,55" fill="rgb(255,255,255)" fill-opacity="1.0" stroke="rgb(0,0,0)" stroke-width="2"  />
			<g>
				<title>CoA_binding_3 (PF13727)
"CoA-binding domain"</title>
				<rect class="PF13727" x="545" y="28" stroke-linejoin="round" width="17" height="24" fill="rgb(115,219,79)" stroke="rgb(92,175,63)" stroke-width="1" opacity="0.75" />
			</g>
			<g>
				<title>Bac_transf (PF02397)
"Bacterial sugar transferase"</title>
				<polygon class="PF02397" points="566,28 569,28 581,40 569,52 566,52" stroke-linejoin="round" width="18" height="24" fill="rgb(100,199,213)" stroke="rgb(80,159,170)" stroke-width="1" opacity="0.75" />
			</g>
		</g>
		<g>
			<title>gnd
6-phosphogluconate dehydrogenase</title>
			<polygon class="gnd
6-phosphogluconate dehydrogenase" points="591,25 607,25 607,10 637,40 607,70 607,55 591,55" fill="rgb(255,255,255)" fill-opacity="1.0" stroke="rgb(0,0,0)" stroke-width="2"  />
			<g>
				<title>NAD_binding_2 (PF03446)
"NAD binding domain of 6-phosphogluconate dehydrogenase"</title>
				<rect class="PF03446" x="591" y="28" stroke-linejoin="round" width="16" height="24" fill="rgb(119,80,223)" stroke="rgb(95,64,178)" stroke-width="1" opacity="0.75" />
			</g>
			<g>
				<title>6PGD (PF00393)
"6-phosphogluconate dehydrogenase, C-terminal domain"</title>
				<polygon class="PF00393" points="608,28 621,28 633,40 621,52 608,52" stroke-linejoin="round" width="28" height="24" fill="rgb(70,217,77)" stroke="rgb(56,173,61)" stroke-width="1" opacity="0.75" />
			</g>
		</g>
	</g>
</svg>
