<svg version="1.1" baseProfile="full" xmlns="http://www.w3.org/2000/svg" width="1785.3333333333333" height="80">
	<g>
		<line x1="10" y1="40.0" x2="1775.3333333333333" y2="40.0" style="stroke:rgb(70,70,70); stroke-width:3 "/>
		<g>
			<title> (FVEG_12534)
hypothetical protein</title>
			<polygon class=" (FVEG_12534)
hypothetical protein" points="92,25 42,25 42,10 12,40 42,70 42,55 92,55" fill="rgb(255,255,255)" fill-opacity="1.0" stroke="rgb(0,0,0)" stroke-width="2"  />
			<g>
				<title>Fungal_trans (PF04082)
"Fungal specific transcription factor domain"</title>
				<rect class="PF04082" x="47" y="28" stroke-linejoin="round" width="24" height="24" fill="rgb(214,73,227)" stroke="rgb(171,58,181)" stroke-width="1" opacity="0.75" />
			</g>
			<g>
				<title>Zn_clus (PF00172)
"Fungal Zn(2)-Cys(6) binuclear cluster domain"</title>
				<rect class="PF00172" x="86" y="28" stroke-linejoin="round" width="4" height="24" fill="rgb(58,207,82)" stroke="rgb(46,165,65)" stroke-width="1" opacity="0.75" />
			</g>
		</g>
		<g>
			<title> (FVEG_12533)
hypothetical protein</title>
			<polygon class=" (FVEG_12533)
hypothetical protein" points="98,25 141,25 141,10 171,40 141,70 141,55 98,55" fill="rgb(255,255,255)" fill-opacity="1.0" stroke="rgb(0,0,0)" stroke-width="2"  />
		</g>
		<g>
			<title> (FVEG_125_1)
FVEG_125_1</title>
			<polygon class=" (FVEG_125_1)
FVEG_125_1" points="98,25 141,25 141,10 171,40 141,70 141,55 98,55" fill="rgb(255,255,255)" fill-opacity="1.0" stroke="rgb(0,0,0)" stroke-width="2"  />
			<g>
				<title>MFS_1 (PF07690)
"Major Facilitator Superfamily"</title>
				<polygon class="PF07690" points="118,28 154,28 156,30 156,50 154,52 118,52" stroke-linejoin="round" width="38" height="24" fill="rgb(228,207,98)" stroke="rgb(182,165,78)" stroke-width="1" opacity="0.75" />
			</g>
		</g>
		<g>
			<title> (FVEG_12532)
hypothetical protein</title>
			<polygon class=" (FVEG_12532)
hypothetical protein" points="341,25 353,25 353,10 383,40 353,70 353,55 341,55" fill="rgb(255,255,255)" fill-opacity="1.0" stroke="rgb(0,0,0)" stroke-width="2"  />
			<g>
				<title>Zn_clus (PF00172)
"Fungal Zn(2)-Cys(6) binuclear cluster domain"</title>
				<rect class="PF00172" x="342" y="28" stroke-linejoin="round" width="4" height="24" fill="rgb(58,207,82)" stroke="rgb(46,165,65)" stroke-width="1" opacity="0.75" />
			</g>
		</g>
		<g>
			<title> (FVEG_12531)
hypothetical protein</title>
			<polygon class=" (FVEG_12531)
hypothetical protein" points="506,25 487,25 487,10 457,40 487,70 487,55 506,55" fill="rgb(255,255,255)" fill-opacity="1.0" stroke="rgb(0,0,0)" stroke-width="2"  />
		</g>
		<g>
			<title> (FVEG_125_2)
FVEG_125_2</title>
			<polygon class=" (FVEG_125_2)
FVEG_125_2" points="506,25 487,25 487,10 457,40 487,70 487,55 506,55" fill="rgb(255,255,255)" fill-opacity="1.0" stroke="rgb(0,0,0)" stroke-width="2"  />
		</g>
		<g>
			<title> (FVEG_125_3)
FVEG_125_3</title>
			<polygon class=" (FVEG_125_3)
FVEG_125_3" points="506,25 488,25 488,10 458,40 488,70 488,55 506,55" fill="rgb(255,255,255)" fill-opacity="1.0" stroke="rgb(0,0,0)" stroke-width="2"  />
			<g>
				<title>FMN_dh (PF01070)
"FMN-dependent dehydrogenase"</title>
				<polygon class="PF01070" points="471,31 474,28 502,28 502,52 474,52 471,49" stroke-linejoin="round" width="31" height="24" fill="rgb(219,60,209)" stroke="rgb(175,47,167)" stroke-width="1" opacity="0.75" />
			</g>
		</g>
		<g>
			<title> (FVEG_12530)
hypothetical protein</title>
			<polygon class=" (FVEG_12530)
hypothetical protein" points="644,25 560,25 560,10 530,40 560,70 560,55 644,55" fill="rgb(255,255,255)" fill-opacity="1.0" stroke="rgb(0,0,0)" stroke-width="2"  />
			<g>
				<title>NAD_binding_4 (PF07993)
"Male sterility protein"</title>
				<rect class="PF07993" x="552" y="28" stroke-linejoin="round" width="24" height="24" fill="rgb(210,94,130)" stroke="rgb(168,75,103)" stroke-width="1" opacity="0.75" />
			</g>
			<g>
				<title>PP-binding (PF00550)
"Phosphopantetheine attachment site"</title>
				<rect class="PF00550" x="580" y="28" stroke-linejoin="round" width="6" height="24" fill="rgb(181,58,166)" stroke="rgb(144,46,132)" stroke-width="1" opacity="0.75" />
			</g>
			<g>
				<title>AMP-binding (PF00501)
"AMP-binding enzyme"</title>
				<rect class="PF00501" x="606" y="28" stroke-linejoin="round" width="33" height="24" fill="rgb(189,78,204)" stroke="rgb(151,62,163)" stroke-width="1" opacity="0.75" />
			</g>
		</g>
		<g>
			<title> (FVEG_12529)
O-acetylhomoserine (thiol)-lyase</title>
			<polygon class=" (FVEG_12529)
O-acetylhomoserine (thiol)-lyase" points="664,25 684,25 684,10 714,40 684,70 684,55 664,55" fill="rgb(255,255,255)" fill-opacity="1.0" stroke="rgb(0,0,0)" stroke-width="2"  />
			<g>
				<title>Cys_Met_Meta_PP (PF01053)
"Cys/Met metabolism PLP-dependent enzyme"</title>
				<polygon class="PF01053" points="665,28 697,28 706,37 706,43 697,52 665,52" stroke-linejoin="round" width="41" height="24" fill="rgb(155,84,222)" stroke="rgb(124,67,177)" stroke-width="1" opacity="0.75" />
			</g>
		</g>
		<g>
			<title> (FVEG_12528)
hypothetical protein</title>
			<polygon class=" (FVEG_12528)
hypothetical protein" points="757,25 764,25 764,10 794,40 764,70 764,55 757,55" fill="rgb(255,255,255)" fill-opacity="1.0" stroke="rgb(0,0,0)" stroke-width="2"  />
			<g>
				<title>ADH_N_2 (PF16884)
"N-terminal domain of oxidoreductase"</title>
				<rect class="PF16884" x="757" y="28" stroke-linejoin="round" width="10" height="24" fill="rgb(225,66,194)" stroke="rgb(180,52,155)" stroke-width="1" opacity="0.75" />
			</g>
			<g>
				<title>ADH_zinc_N (PF00107)
"Zinc-binding dehydrogenase"</title>
				<polygon class="PF00107" points="774,28 778,28 787,37 787,43 778,52 774,52" stroke-linejoin="round" width="13" height="24" fill="rgb(79,114,198)" stroke="rgb(63,91,158)" stroke-width="1" opacity="0.75" />
			</g>
		</g>
		<g>
			<title> (FVEG_12527)
hypothetical protein</title>
			<polygon class=" (FVEG_12527)
hypothetical protein" points="896,25 899,25 899,10 929,40 899,70 899,55 896,55" fill="rgb(255,255,255)" fill-opacity="1.0" stroke="rgb(0,0,0)" stroke-width="2"  />
			<g>
				<title>Aldolase_II (PF00596)
"Class II Aldolase and Adducin N-terminal domain"</title>
				<polygon class="PF00596" points="900,28 912,28 918,34 918,46 912,52 900,52" stroke-linejoin="round" width="18" height="24" fill="rgb(151,55,189)" stroke="rgb(120,44,151)" stroke-width="1" opacity="0.75" />
			</g>
		</g>
		<g>
			<title> (FVEG_12526)
hypothetical protein</title>
			<polygon class=" (FVEG_12526)
hypothetical protein" points="971,25 968,25 968,10 938,40 968,70 968,55 971,55" fill="rgb(255,255,255)" fill-opacity="1.0" stroke="rgb(0,0,0)" stroke-width="2"  />
			<g>
				<title>Lactamase_B (PF00753)
"Metallo-beta-lactamase superfamily"</title>
				<polygon class="PF00753" points="948,34 954,28 961,28 961,52 954,52 948,46" stroke-linejoin="round" width="13" height="24" fill="rgb(70,201,123)" stroke="rgb(56,160,98)" stroke-width="1" opacity="0.75" />
			</g>
		</g>
		<g>
			<title> (FVEG_17291)
hypothetical protein</title>
			<polygon class=" (FVEG_17291)
hypothetical protein" points="1003,40 1013,10 1013,70" fill="rgb(255,255,255)" fill-opacity="1.0" stroke="rgb(0,0,0)" stroke-width="2"  />
		</g>
		<g>
			<title> (FVEG_17290)
hypothetical protein</title>
			<polygon class=" (FVEG_17290)
hypothetical protein" points="1067,25 1053,25 1053,10 1023,40 1053,70 1053,55 1067,55" fill="rgb(255,255,255)" fill-opacity="1.0" stroke="rgb(0,0,0)" stroke-width="2"  />
			<g>
				<title>Acyl-CoA_dh_1 (PF00441)
"Acyl-CoA dehydrogenase, C-terminal domain"</title>
				<polygon class="PF00441" points="1027,40 1039,28 1040,28 1040,52 1039,52" stroke-linejoin="round" width="15" height="24" fill="rgb(96,175,206)" stroke="rgb(76,139,164)" stroke-width="1" opacity="0.75" />
			</g>
			<g>
				<title>Acyl-CoA_dh_M (PF02770)
"Acyl-CoA dehydrogenase, middle domain"</title>
				<rect class="PF02770" x="1042" y="28" stroke-linejoin="round" width="9" height="24" fill="rgb(58,129,192)" stroke="rgb(46,103,153)" stroke-width="1" opacity="0.75" />
			</g>
			<g>
				<title>Acyl-CoA_dh_N (PF02771)
"Acyl-CoA dehydrogenase, N-terminal domain"</title>
				<rect class="PF02771" x="1052" y="28" stroke-linejoin="round" width="12" height="24" fill="rgb(104,198,213)" stroke="rgb(83,158,170)" stroke-width="1" opacity="0.75" />
			</g>
		</g>
		<g>
			<title> (FVEG_12524)
hypothetical protein</title>
			<polygon class=" (FVEG_12524)
hypothetical protein" points="1182,25 1157,25 1157,10 1127,40 1157,70 1157,55 1182,55" fill="rgb(255,255,255)" fill-opacity="1.0" stroke="rgb(0,0,0)" stroke-width="2"  />
			<g>
				<title>COesterase (PF00135)
"Carboxylesterase family"</title>
				<polygon class="PF00135" points="1133,38 1143,28 1146,28 1146,52 1143,52 1133,42" stroke-linejoin="round" width="13" height="24" fill="rgb(79,58,200)" stroke="rgb(63,46,160)" stroke-width="1" opacity="0.75" />
			</g>
			<g>
				<title>COesterase (PF00135)
"Carboxylesterase family"</title>
				<rect class="PF00135" x="1146" y="28" stroke-linejoin="round" width="33" height="24" fill="rgb(79,58,200)" stroke="rgb(63,46,160)" stroke-width="1" opacity="0.75" />
			</g>
		</g>
		<g>
			<title> (FVEG_12523)
hypothetical protein</title>
			<polygon class=" (FVEG_12523)
hypothetical protein" points="1283,25 1500,25 1500,10 1530,40 1500,70 1500,55 1283,55" fill="rgb(255,255,255)" fill-opacity="1.0" stroke="rgb(0,0,0)" stroke-width="2"  />
			<g>
				<title>ketoacyl-synt (PF00109)
"Beta-ketoacyl synthase, N-terminal domain"</title>
				<rect class="PF00109" x="1288" y="28" stroke-linejoin="round" width="25" height="24" fill="rgb(74,179,82)" stroke="rgb(59,143,65)" stroke-width="1" opacity="0.75" />
			</g>
			<g>
				<title>Ketoacyl-synt_C (PF02801)
"Beta-ketoacyl synthase, C-terminal domain"</title>
				<rect class="PF02801" x="1314" y="28" stroke-linejoin="round" width="11" height="24" fill="rgb(212,79,72)" stroke="rgb(169,63,57)" stroke-width="1" opacity="0.75" />
			</g>
			<g>
				<title>KAsynt_C_assoc (PF16197)
"Ketoacyl-synthetase C-terminal extension"</title>
				<rect class="PF16197" x="1326" y="28" stroke-linejoin="round" width="14" height="24" fill="rgb(200,86,70)" stroke="rgb(160,68,56)" stroke-width="1" opacity="0.75" />
			</g>
			<g>
				<title>Acyl_transf_1 (PF00698)
"Acyl transferase domain"</title>
				<rect class="PF00698" x="1343" y="28" stroke-linejoin="round" width="33" height="24" fill="rgb(132,93,193)" stroke="rgb(105,74,154)" stroke-width="1" opacity="0.75" />
			</g>
			<g>
				<title>PKS_DH_N (PF21089)
"Polyketide synthase dehydratase domain"</title>
				<rect class="PF21089" x="1382" y="28" stroke-linejoin="round" width="11" height="24" fill="rgb(67,151,200)" stroke="rgb(53,120,160)" stroke-width="1" opacity="0.75" />
			</g>
			<g>
				<title>PS-DH (PF14765)
"Polyketide synthase dehydratase N-terminal domain"</title>
				<rect class="PF14765" x="1397" y="28" stroke-linejoin="round" width="16" height="24" fill="rgb(189,61,178)" stroke="rgb(151,48,142)" stroke-width="1" opacity="0.75" />
			</g>
			<g>
				<title>ADH_N (PF08240)
"Alcohol dehydrogenase GroES-like domain"</title>
				<rect class="PF08240" x="1456" y="28" stroke-linejoin="round" width="6" height="24" fill="rgb(217,198,105)" stroke="rgb(173,158,84)" stroke-width="1" opacity="0.75" />
			</g>
			<g>
				<title>ADH_zinc_N_2 (PF13602)
"Zinc-binding dehydrogenase"</title>
				<rect class="PF13602" x="1471" y="28" stroke-linejoin="round" width="13" height="24" fill="rgb(183,68,113)" stroke="rgb(146,54,90)" stroke-width="1" opacity="0.75" />
			</g>
			<g>
				<title>KR (PF08659)
"KR domain"</title>
				<rect class="PF08659" x="1487" y="28" stroke-linejoin="round" width="17" height="24" fill="rgb(203,145,81)" stroke="rgb(162,116,64)" stroke-width="1" opacity="0.75" />
			</g>
			<g>
				<title>PP-binding (PF00550)
"Phosphopantetheine attachment site"</title>
				<polygon class="PF00550" points="1516,30 1522,36 1522,44 1516,50" stroke-linejoin="round" width="6" height="24" fill="rgb(181,58,166)" stroke="rgb(144,46,132)" stroke-width="1" opacity="0.75" />
			</g>
		</g>
		<g>
			<title> (FVEG_17289)
hypothetical protein</title>
			<polygon class=" (FVEG_17289)
hypothetical protein" points="1545,10 1551,40 1545,70" fill="rgb(255,255,255)" fill-opacity="1.0" stroke="rgb(0,0,0)" stroke-width="2"  />
		</g>
		<g>
			<title> (FVEG_12522)
hypothetical protein</title>
			<polygon class=" (FVEG_12522)
hypothetical protein" points="1557,10 1567,40 1557,70" fill="rgb(255,255,255)" fill-opacity="1.0" stroke="rgb(0,0,0)" stroke-width="2"  />
			<g>
				<title>YCII (PF03795)
"YCII-related domain"</title>
				<polygon class="PF03795" points="1557,28 1559,28 1564,40 1559,52 1557,52" stroke-linejoin="round" width="9" height="24" fill="rgb(98,117,223)" stroke="rgb(78,93,178)" stroke-width="1" opacity="0.75" />
			</g>
		</g>
		<g>
			<title> (FVEG_12521)
aspartate kinase</title>
			<polygon class=" (FVEG_12521)
aspartate kinase" points="1587,25 1618,25 1618,10 1648,40 1618,70 1618,55 1587,55" fill="rgb(255,255,255)" fill-opacity="1.0" stroke="rgb(0,0,0)" stroke-width="2"  />
			<g>
				<title>AA_kinase (PF00696)
"Amino acid kinase family"</title>
				<rect class="PF00696" x="1589" y="28" stroke-linejoin="round" width="30" height="24" fill="rgb(72,198,168)" stroke="rgb(57,158,134)" stroke-width="1" opacity="0.75" />
			</g>
			<g>
				<title>ACT_7 (PF13840)
"ACT domain"</title>
				<polygon class="PF13840" points="1632,28 1632,28 1638,34 1638,46 1632,52 1632,52" stroke-linejoin="round" width="6" height="24" fill="rgb(106,216,98)" stroke="rgb(84,172,78)" stroke-width="1" opacity="0.75" />
			</g>
		</g>
		<g>
			<title> (FVEG_125_4)
FVEG_125_4</title>
			<polygon class=" (FVEG_125_4)
FVEG_125_4" points="1590,25 1618,25 1618,10 1648,40 1618,70 1618,55 1590,55" fill="rgb(255,255,255)" fill-opacity="1.0" stroke="rgb(0,0,0)" stroke-width="2"  />
		</g>
		<g>
			<title> (FVEG_12520)
hypothetical protein</title>
			<polygon class=" (FVEG_12520)
hypothetical protein" points="1670,40 1698,10 1698,70" fill="rgb(255,255,255)" fill-opacity="1.0" stroke="rgb(0,0,0)" stroke-width="2"  />
			<g>
				<title>FSH1 (PF03959)
"Serine hydrolase (FSH1)"</title>
				<polygon class="PF03959" points="1674,40 1685,28 1697,28 1697,52 1685,52" stroke-linejoin="round" width="25" height="24" fill="rgb(93,205,174)" stroke="rgb(74,164,139)" stroke-width="1" opacity="0.75" />
			</g>
		</g>
		<g>
			<title> (FVEG_12519)
homoserine O-acetyltransferase</title>
			<polygon class=" (FVEG_12519)
homoserine O-acetyltransferase" points="1722,25 1743,25 1743,10 1773,40 1743,70 1743,55 1722,55" fill="rgb(255,255,255)" fill-opacity="1.0" stroke="rgb(0,0,0)" stroke-width="2"  />
			<g>
				<title>Abhydrolase_1 (PF00561)
"alpha/beta hydrolase fold"</title>
				<polygon class="PF00561" points="1733,28 1757,28 1765,36 1765,44 1757,52 1733,52" stroke-linejoin="round" width="32" height="24" fill="rgb(99,159,215)" stroke="rgb(79,127,172)" stroke-width="1" opacity="0.75" />
			</g>
		</g>
	</g>
</svg>
