<svg version="1.1" baseProfile="full" xmlns="http://www.w3.org/2000/svg" width="916.0333333333333" height="80">
	<g>
		<line x1="10" y1="40.0" x2="906.0333333333333" y2="40.0" style="stroke:rgb(70,70,70); stroke-width:3 "/>
		<g>
			<title> (ACRE_003200)
putative transporter -like protein</title>
			<polygon class=" (ACRE_003200)
putative transporter -like protein" points="64,25 40,25 40,10 10,40 40,70 40,55 64,55" fill="rgb(255,255,255)" fill-opacity="1.0" stroke="rgb(0,0,0)" stroke-width="2"  />
			<g>
				<title>MFS_1 (PF07690)
"Major Facilitator Superfamily"</title>
				<polygon class="PF07690" points="20,34 26,28 58,28 58,52 26,52 20,46" stroke-linejoin="round" width="38" height="24" fill="rgb(228,207,98)" stroke="rgb(182,165,78)" stroke-width="1" opacity="0.75" />
			</g>
		</g>
		<g>
			<title> (ACRE_003210)
Isopenicillin N epimerase component-like protein</title>
			<polygon class=" (ACRE_003210)
Isopenicillin N epimerase component-like protein" points="167,25 125,25 125,10 95,40 125,70 125,55 167,55" fill="rgb(255,255,255)" fill-opacity="1.0" stroke="rgb(0,0,0)" stroke-width="2"  />
			<g>
				<title>AMP-binding_C (PF13193)
"AMP-binding enzyme C-terminal domain"</title>
				<polygon class="PF13193" points="109,30 111,28 116,28 116,52 111,52 109,50" stroke-linejoin="round" width="7" height="24" fill="rgb(195,82,106)" stroke="rgb(156,65,84)" stroke-width="1" opacity="0.75" />
			</g>
			<g>
				<title>AMP-binding (PF00501)
"AMP-binding enzyme"</title>
				<rect class="PF00501" x="125" y="28" stroke-linejoin="round" width="35" height="24" fill="rgb(189,78,204)" stroke="rgb(151,62,163)" stroke-width="1" opacity="0.75" />
			</g>
		</g>
		<g>
			<title> (ACRE_003220)
Isopenicillin N epimerase component-like protein</title>
			<polygon class=" (ACRE_003220)
Isopenicillin N epimerase component-like protein" points="218,25 229,25 229,10 259,40 229,70 229,55 218,55" fill="rgb(255,255,255)" fill-opacity="1.0" stroke="rgb(0,0,0)" stroke-width="2"  />
			<g>
				<title>CoA_transf_3 (PF02515)
"CoA-transferase family III"</title>
				<polygon class="PF02515" points="218,28 243,28 249,34 249,46 243,52 218,52" stroke-linejoin="round" width="31" height="24" fill="rgb(194,75,118)" stroke="rgb(155,60,94)" stroke-width="1" opacity="0.75" />
			</g>
		</g>
		<g>
			<title> (ACRE_003230)
Isopenicillin N synthase-like protein</title>
			<polygon class=" (ACRE_003230)
Isopenicillin N synthase-like protein" points="350,25 347,25 347,10 317,40 347,70 347,55 350,55" fill="rgb(255,255,255)" fill-opacity="1.0" stroke="rgb(0,0,0)" stroke-width="2"  />
			<g>
				<title>2OG-FeII_Oxy (PF03171)
"2OG-Fe(II) oxygenase superfamily"</title>
				<polygon class="PF03171" points="321,40 331,30 331,50 321,40" stroke-linejoin="round" width="10" height="24" fill="rgb(182,163,77)" stroke="rgb(145,130,61)" stroke-width="1" opacity="0.75" />
			</g>
			<g>
				<title>DIOX_N (PF14226)
"non-haem dioxygenase in morphine synthesis N-terminal"</title>
				<rect class="PF14226" x="337" y="28" stroke-linejoin="round" width="12" height="24" fill="rgb(193,95,155)" stroke="rgb(154,76,124)" stroke-width="1" opacity="0.75" />
			</g>
		</g>
		<g>
			<title> (ACRE_003240)
N-like protein</title>
			<polygon class=" (ACRE_003240)
N-like protein" points="386,25 733,25 733,10 763,40 733,70 733,55 386,55" fill="rgb(255,255,255)" fill-opacity="1.0" stroke="rgb(0,0,0)" stroke-width="2"  />
			<g>
				<title>AMP-binding (PF00501)
"AMP-binding enzyme"</title>
				<rect class="PF00501" x="416" y="28" stroke-linejoin="round" width="35" height="24" fill="rgb(189,78,204)" stroke="rgb(151,62,163)" stroke-width="1" opacity="0.75" />
			</g>
			<g>
				<title>PP-binding (PF00550)
"Phosphopantetheine attachment site"</title>
				<rect class="PF00550" x="470" y="28" stroke-linejoin="round" width="6" height="24" fill="rgb(181,58,166)" stroke="rgb(144,46,132)" stroke-width="1" opacity="0.75" />
			</g>
			<g>
				<title>Condensation (PF00668)
"Condensation domain"</title>
				<rect class="PF00668" x="479" y="28" stroke-linejoin="round" width="45" height="24" fill="rgb(172,217,60)" stroke="rgb(137,173,47)" stroke-width="1" opacity="0.75" />
			</g>
			<g>
				<title>AMP-binding (PF00501)
"AMP-binding enzyme"</title>
				<rect class="PF00501" x="527" y="28" stroke-linejoin="round" width="34" height="24" fill="rgb(189,78,204)" stroke="rgb(151,62,163)" stroke-width="1" opacity="0.75" />
			</g>
			<g>
				<title>AMP-binding_C (PF13193)
"AMP-binding enzyme C-terminal domain"</title>
				<rect class="PF13193" x="568" y="28" stroke-linejoin="round" width="7" height="24" fill="rgb(195,82,106)" stroke="rgb(156,65,84)" stroke-width="1" opacity="0.75" />
			</g>
			<g>
				<title>PP-binding (PF00550)
"Phosphopantetheine attachment site"</title>
				<rect class="PF00550" x="578" y="28" stroke-linejoin="round" width="6" height="24" fill="rgb(181,58,166)" stroke="rgb(144,46,132)" stroke-width="1" opacity="0.75" />
			</g>
			<g>
				<title>Condensation (PF00668)
"Condensation domain"</title>
				<rect class="PF00668" x="587" y="28" stroke-linejoin="round" width="44" height="24" fill="rgb(172,217,60)" stroke="rgb(137,173,47)" stroke-width="1" opacity="0.75" />
			</g>
			<g>
				<title>AMP-binding (PF00501)
"AMP-binding enzyme"</title>
				<rect class="PF00501" x="634" y="28" stroke-linejoin="round" width="34" height="24" fill="rgb(189,78,204)" stroke="rgb(151,62,163)" stroke-width="1" opacity="0.75" />
			</g>
			<g>
				<title>AMP-binding_C (PF13193)
"AMP-binding enzyme C-terminal domain"</title>
				<rect class="PF13193" x="675" y="28" stroke-linejoin="round" width="8" height="24" fill="rgb(195,82,106)" stroke="rgb(156,65,84)" stroke-width="1" opacity="0.75" />
			</g>
			<g>
				<title>PP-binding (PF00550)
"Phosphopantetheine attachment site"</title>
				<rect class="PF00550" x="686" y="28" stroke-linejoin="round" width="6" height="24" fill="rgb(181,58,166)" stroke="rgb(144,46,132)" stroke-width="1" opacity="0.75" />
			</g>
			<g>
				<title>Condensation (PF00668)
"Condensation domain"</title>
				<rect class="PF00668" x="695" y="28" stroke-linejoin="round" width="43" height="24" fill="rgb(172,217,60)" stroke="rgb(137,173,47)" stroke-width="1" opacity="0.75" />
			</g>
			<g>
				<title>Thioesterase (PF00975)
"Thioesterase domain"</title>
				<polygon class="PF00975" points="740,28 747,28 759,40 747,52 740,52" stroke-linejoin="round" width="21" height="24" fill="rgb(69,76,223)" stroke="rgb(55,60,178)" stroke-width="1" opacity="0.75" />
			</g>
		</g>
		<g>
			<title> (ACRE_003250)
D-lactate dehydrogenase-like protein</title>
			<polygon class=" (ACRE_003250)
D-lactate dehydrogenase-like protein" points="804,25 808,25 808,10 838,40 808,70 808,55 804,55" fill="rgb(255,255,255)" fill-opacity="1.0" stroke="rgb(0,0,0)" stroke-width="2"  />
			<g>
				<title>2-Hacid_dh_C (PF02826)
"D-isomer specific 2-hydroxyacid dehydrogenase, NAD binding domain"</title>
				<polygon class="PF02826" points="815,28 822,28 833,39 833,41 822,52 815,52" stroke-linejoin="round" width="18" height="24" fill="rgb(93,92,222)" stroke="rgb(74,73,177)" stroke-width="1" opacity="0.75" />
			</g>
		</g>
		<g>
			<title> (ACRE_003260)
putative MFS-type transporter-like protein</title>
			<polygon class=" (ACRE_003260)
putative MFS-type transporter-like protein" points="905,25 877,25 877,10 847,40 877,70 877,55 905,55" fill="rgb(255,255,255)" fill-opacity="1.0" stroke="rgb(0,0,0)" stroke-width="2"  />
			<g>
				<title>MFS_1 (PF07690)
"Major Facilitator Superfamily"</title>
				<polygon class="PF07690" points="857,34 863,28 895,28 895,52 863,52 857,46" stroke-linejoin="round" width="38" height="24" fill="rgb(228,207,98)" stroke="rgb(182,165,78)" stroke-width="1" opacity="0.75" />
			</g>
		</g>
	</g>
</svg>
