<svg version="1.1" baseProfile="full" xmlns="http://www.w3.org/2000/svg" width="2094.366666666667" height="80">
	<g>
		<line x1="10" y1="40.0" x2="2084.366666666667" y2="40.0" style="stroke:rgb(70,70,70); stroke-width:3 "/>
		<g>
			<title> (Strop_2172)
drug resistance transporter, EmrB/QacA subfamily</title>
			<polygon class=" (Strop_2172)
drug resistance transporter, EmrB/QacA subfamily" points="10,25 32,25 32,10 62,40 32,70 32,55 10,55" fill="rgb(255,255,255)" fill-opacity="1.0" stroke="rgb(0,0,0)" stroke-width="2"  />
			<g>
				<title>MFS_1 (PF07690)
"Major Facilitator Superfamily"</title>
				<polygon class="PF07690" points="12,28 46,28 51,33 51,47 46,52 12,52" stroke-linejoin="round" width="39" height="24" fill="rgb(228,207,98)" stroke="rgb(182,165,78)" stroke-width="1" opacity="0.75" />
			</g>
		</g>
		<g>
			<title> (Strop_2173)
hypothetical protein</title>
			<polygon class=" (Strop_2173)
hypothetical protein" points="70,10 86,40 70,70" fill="rgb(255,255,255)" fill-opacity="1.0" stroke="rgb(0,0,0)" stroke-width="2"  />
			<g>
				<title>DUF1801 (PF08818)
"Domain of unknown function (DU1801)"</title>
				<polygon class="PF08818" points="76,28 76,28 82,40 76,52 76,52" stroke-linejoin="round" width="9" height="24" fill="rgb(76,133,213)" stroke="rgb(60,106,170)" stroke-width="1" opacity="0.75" />
			</g>
		</g>
		<g>
			<title> (Strop_2174)
hypothetical protein</title>
			<polygon class=" (Strop_2174)
hypothetical protein" points="91,40 118,10 118,70" fill="rgb(255,255,255)" fill-opacity="1.0" stroke="rgb(0,0,0)" stroke-width="2"  />
			<g>
				<title>ABC2_membrane_4 (PF12730)
"ABC-2 family transporter protein"</title>
				<polygon class="PF12730" points="97,38 106,28 115,28 115,52 106,52 97,42" stroke-linejoin="round" width="18" height="24" fill="rgb(161,62,179)" stroke="rgb(128,49,143)" stroke-width="1" opacity="0.75" />
			</g>
		</g>
		<g>
			<title> (Strop_2175)
ABC transporter related</title>
			<polygon class=" (Strop_2175)
ABC transporter related" points="150,25 149,25 149,10 119,40 149,70 149,55 150,55" fill="rgb(255,255,255)" fill-opacity="1.0" stroke="rgb(0,0,0)" stroke-width="2"  />
			<g>
				<title>ABC_tran (PF00005)
"ABC transporter"</title>
				<polygon class="PF00005" points="135,28 135,28 148,28 148,52 135,52 135,52" stroke-linejoin="round" width="13" height="24" fill="rgb(46,186,108)" stroke="rgb(36,148,86)" stroke-width="1" opacity="0.75" />
			</g>
		</g>
		<g>
			<title> (Strop_2176)
Glyoxalase/bleomycin resistance protein/dioxygenase</title>
			<polygon class=" (Strop_2176)
Glyoxalase/bleomycin resistance protein/dioxygenase" points="149,40 166,10 166,70" fill="rgb(255,255,255)" fill-opacity="1.0" stroke="rgb(0,0,0)" stroke-width="2"  />
			<g>
				<title>Glyoxalase (PF00903)
"Glyoxalase/Bleomycin resistance protein/Dioxygenase superfamily"</title>
				<polygon class="PF00903" points="153,38 159,28 165,28 165,52 159,52 153,42" stroke-linejoin="round" width="12" height="24" fill="rgb(139,76,222)" stroke="rgb(111,60,177)" stroke-width="1" opacity="0.75" />
			</g>
		</g>
		<g>
			<title> (Strop_2177)
hypothetical protein</title>
			<polygon class=" (Strop_2177)
hypothetical protein" points="171,40 196,10 196,70" fill="rgb(255,255,255)" fill-opacity="1.0" stroke="rgb(0,0,0)" stroke-width="2"  />
			<g>
				<title>Abhydrolase_6 (PF12697)
"Alpha/beta hydrolase family"</title>
				<polygon class="PF12697" points="175,40 185,28 194,28 194,52 185,52" stroke-linejoin="round" width="23" height="24" fill="rgb(87,73,196)" stroke="rgb(69,58,156)" stroke-width="1" opacity="0.75" />
			</g>
		</g>
		<g>
			<title> (Strop_2178)
transcriptional activator domain</title>
			<polygon class=" (Strop_2178)
transcriptional activator domain" points="206,40 233,10 233,70" fill="rgb(255,255,255)" fill-opacity="1.0" stroke="rgb(0,0,0)" stroke-width="2"  />
			<g>
				<title>BTAD (PF03704)
"Bacterial transcriptional activator domain"</title>
				<polygon class="PF03704" points="210,40 221,28 222,28 222,52 221,52" stroke-linejoin="round" width="14" height="24" fill="rgb(174,224,58)" stroke="rgb(139,179,46)" stroke-width="1" opacity="0.75" />
			</g>
			<g>
				<title>Trans_reg_C (PF00486)
"Transcriptional regulatory protein, C terminal"</title>
				<rect class="PF00486" x="223" y="28" stroke-linejoin="round" width="7" height="24" fill="rgb(69,185,116)" stroke="rgb(55,148,92)" stroke-width="1" opacity="0.75" />
			</g>
		</g>
		<g>
			<title> (Strop_2179)
hypothetical protein</title>
			<polygon class=" (Strop_2179)
hypothetical protein" points="246,40 257,10 257,70" fill="rgb(255,255,255)" fill-opacity="1.0" stroke="rgb(0,0,0)" stroke-width="2"  />
		</g>
		<g>
			<title> (Strop_2180)
transcriptional regulator, AraC family</title>
			<polygon class=" (Strop_2180)
transcriptional regulator, AraC family" points="258,10 286,40 258,70" fill="rgb(255,255,255)" fill-opacity="1.0" stroke="rgb(0,0,0)" stroke-width="2"  />
			<g>
				<title>HTH_18 (PF12833)
"Helix-turn-helix domain"</title>
				<rect class="PF12833" x="260" y="28" stroke-linejoin="round" width="7" height="24" fill="rgb(96,195,114)" stroke="rgb(76,156,91)" stroke-width="1" opacity="0.75" />
			</g>
		</g>
		<g>
			<title> (Strop_2181)
NDP-hexose 2,3-dehydratase</title>
			<polygon class=" (Strop_2181)
NDP-hexose 2,3-dehydratase" points="295,25 312,25 312,10 342,40 312,70 312,55 295,55" fill="rgb(255,255,255)" fill-opacity="1.0" stroke="rgb(0,0,0)" stroke-width="2"  />
			<g>
				<title>Hexose_dehydrat (PF03559)
"NDP-hexose 2,3-dehydratase"</title>
				<rect class="PF03559" x="298" y="28" stroke-linejoin="round" width="20" height="24" fill="rgb(56,139,184)" stroke="rgb(44,111,147)" stroke-width="1" opacity="0.75" />
			</g>
			<g>
				<title>Hexose_dehydrat (PF03559)
"NDP-hexose 2,3-dehydratase"</title>
				<polygon class="PF03559" points="319,28 326,28 338,40 326,52 319,52" stroke-linejoin="round" width="20" height="24" fill="rgb(56,139,184)" stroke="rgb(44,111,147)" stroke-width="1" opacity="0.75" />
			</g>
		</g>
		<g>
			<title> (Strop_2182)
hypothetical protein</title>
			<polygon class=" (Strop_2182)
hypothetical protein" points="344,40 366,10 366,70" fill="rgb(255,255,255)" fill-opacity="1.0" stroke="rgb(0,0,0)" stroke-width="2"  />
			<g>
				<title>Sulfotransfer_4 (PF17784)
"Sulfotransferase domain"</title>
				<polygon class="PF17784" points="348,40 357,28 365,28 365,52 357,52" stroke-linejoin="round" width="20" height="24" fill="rgb(132,102,209)" stroke="rgb(105,81,167)" stroke-width="1" opacity="0.75" />
			</g>
		</g>
		<g>
			<title> (Strop_2183)
Carboxymuconolactone decarboxylase</title>
			<polygon class=" (Strop_2183)
Carboxymuconolactone decarboxylase" points="368,40 382,10 382,70" fill="rgb(255,255,255)" fill-opacity="1.0" stroke="rgb(0,0,0)" stroke-width="2"  />
		</g>
		<g>
			<title> (Strop_2184)
peptidase C26</title>
			<polygon class=" (Strop_2184)
peptidase C26" points="381,40 408,10 408,70" fill="rgb(255,255,255)" fill-opacity="1.0" stroke="rgb(0,0,0)" stroke-width="2"  />
			<g>
				<title>Peptidase_C26 (PF07722)
"Peptidase C26"</title>
				<polygon class="PF07722" points="386,39 396,28 407,28 407,52 396,52 386,41" stroke-linejoin="round" width="21" height="24" fill="rgb(214,203,54)" stroke="rgb(171,162,43)" stroke-width="1" opacity="0.75" />
			</g>
		</g>
		<g>
			<title> (Strop_2185)
monooxygenase, FAD-binding</title>
			<polygon class=" (Strop_2185)
monooxygenase, FAD-binding" points="424,25 453,25 453,10 483,40 453,70 453,55 424,55" fill="rgb(255,255,255)" fill-opacity="1.0" stroke="rgb(0,0,0)" stroke-width="2"  />
			<g>
				<title>FAD_binding_3 (PF01494)
"FAD binding domain"</title>
				<rect class="PF01494" x="424" y="28" stroke-linejoin="round" width="36" height="24" fill="rgb(215,66,156)" stroke="rgb(172,52,124)" stroke-width="1" opacity="0.75" />
			</g>
			<g>
				<title>Rng_hyd_C (PF21274)
"Aromatic-ring hydroxylase, C-terminal"</title>
				<polygon class="PF21274" points="470,32 478,40 470,48" stroke-linejoin="round" width="12" height="24" fill="rgb(153,227,106)" stroke="rgb(122,181,84)" stroke-width="1" opacity="0.75" />
			</g>
		</g>
		<g>
			<title> (Strop_2186)
protoporphyrinogen oxidase</title>
			<polygon class=" (Strop_2186)
protoporphyrinogen oxidase" points="536,25 518,25 518,10 488,40 518,70 518,55 536,55" fill="rgb(255,255,255)" fill-opacity="1.0" stroke="rgb(0,0,0)" stroke-width="2"  />
			<g>
				<title>Amino_oxidase (PF01593)
"Flavin containing amine oxidoreductase"</title>
				<polygon class="PF01593" points="492,40 504,28 534,28 534,52 504,52" stroke-linejoin="round" width="45" height="24" fill="rgb(95,189,207)" stroke="rgb(76,151,165)" stroke-width="1" opacity="0.75" />
			</g>
		</g>
		<g>
			<title> (Strop_2187)
ParB domain protein nuclease</title>
			<polygon class=" (Strop_2187)
ParB domain protein nuclease" points="577,25 571,25 571,10 541,40 571,70 571,55 577,55" fill="rgb(255,255,255)" fill-opacity="1.0" stroke="rgb(0,0,0)" stroke-width="2"  />
			<g>
				<title>ParBc (PF02195)
"ParB/Sulfiredoxin domain"</title>
				<rect class="PF02195" x="565" y="28" stroke-linejoin="round" width="8" height="24" fill="rgb(109,68,205)" stroke="rgb(87,54,164)" stroke-width="1" opacity="0.75" />
			</g>
		</g>
		<g>
			<title> (Strop_2188)
monooxygenase, FAD-binding</title>
			<polygon class=" (Strop_2188)
monooxygenase, FAD-binding" points="630,25 610,25 610,10 580,40 610,70 610,55 630,55" fill="rgb(255,255,255)" fill-opacity="1.0" stroke="rgb(0,0,0)" stroke-width="2"  />
			<g>
				<title>Rng_hyd_C (PF21274)
"Aromatic-ring hydroxylase, C-terminal"</title>
				<polygon class="PF21274" points="584,40 591,33 591,47" stroke-linejoin="round" width="9" height="24" fill="rgb(153,227,106)" stroke="rgb(122,181,84)" stroke-width="1" opacity="0.75" />
			</g>
			<g>
				<title>FAD_binding_3 (PF01494)
"FAD binding domain"</title>
				<rect class="PF01494" x="597" y="28" stroke-linejoin="round" width="33" height="24" fill="rgb(215,66,156)" stroke="rgb(172,52,124)" stroke-width="1" opacity="0.75" />
			</g>
		</g>
		<g>
			<title> (Strop_2189)
monooxygenase, FAD-binding</title>
			<polygon class=" (Strop_2189)
monooxygenase, FAD-binding" points="679,25 660,25 660,10 630,40 660,70 660,55 679,55" fill="rgb(255,255,255)" fill-opacity="1.0" stroke="rgb(0,0,0)" stroke-width="2"  />
			<g>
				<title>Rng_hyd_C (PF21274)
"Aromatic-ring hydroxylase, C-terminal"</title>
				<polygon class="PF21274" points="634,40 639,35 639,45" stroke-linejoin="round" width="9" height="24" fill="rgb(153,227,106)" stroke="rgb(122,181,84)" stroke-width="1" opacity="0.75" />
			</g>
			<g>
				<title>FAD_binding_3 (PF01494)
"FAD binding domain"</title>
				<polygon class="PF01494" points="645,29 646,28 678,28 678,52 646,52 645,51" stroke-linejoin="round" width="33" height="24" fill="rgb(215,66,156)" stroke="rgb(172,52,124)" stroke-width="1" opacity="0.75" />
			</g>
		</g>
		<g>
			<title> (Strop_2190)
short-chain dehydrogenase/reductase SDR</title>
			<polygon class=" (Strop_2190)
short-chain dehydrogenase/reductase SDR" points="684,10 710,40 684,70" fill="rgb(255,255,255)" fill-opacity="1.0" stroke="rgb(0,0,0)" stroke-width="2"  />
			<g>
				<title>adh_short (PF00106)
"short chain dehydrogenase"</title>
				<polygon class="PF00106" points="686,28 696,28 706,40 706,40 696,52 686,52" stroke-linejoin="round" width="20" height="24" fill="rgb(128,81,196)" stroke="rgb(102,64,156)" stroke-width="1" opacity="0.75" />
			</g>
		</g>
		<g>
			<title> (Strop_2191)
NmrA family protein</title>
			<polygon class=" (Strop_2191)
NmrA family protein" points="712,10 741,40 712,70" fill="rgb(255,255,255)" fill-opacity="1.0" stroke="rgb(0,0,0)" stroke-width="2"  />
			<g>
				<title>NmrA (PF05368)
"NmrA-like family"</title>
				<polygon class="PF05368" points="712,28 724,28 734,37 734,43 724,52 712,52" stroke-linejoin="round" width="22" height="24" fill="rgb(102,214,88)" stroke="rgb(81,171,70)" stroke-width="1" opacity="0.75" />
			</g>
		</g>
		<g>
			<title> (Strop_2192)
hypothetical protein</title>
			<polygon class=" (Strop_2192)
hypothetical protein" points="744,40 764,10 764,70" fill="rgb(255,255,255)" fill-opacity="1.0" stroke="rgb(0,0,0)" stroke-width="2"  />
		</g>
		<g>
			<title> (Strop_2193)
Polyketide synthesis cyclase</title>
			<polygon class=" (Strop_2193)
Polyketide synthesis cyclase" points="765,40 776,10 776,70" fill="rgb(255,255,255)" fill-opacity="1.0" stroke="rgb(0,0,0)" stroke-width="2"  />
			<g>
				<title>Cyclase_polyket (PF04673)
"Polyketide synthesis cyclase"</title>
				<polygon class="PF04673" points="768,40 772,28 775,28 775,52 772,52" stroke-linejoin="round" width="10" height="24" fill="rgb(97,206,162)" stroke="rgb(77,164,129)" stroke-width="1" opacity="0.75" />
			</g>
		</g>
		<g>
			<title> (Strop_2194)
short-chain dehydrogenase/reductase SDR</title>
			<polygon class=" (Strop_2194)
short-chain dehydrogenase/reductase SDR" points="777,40 803,10 803,70" fill="rgb(255,255,255)" fill-opacity="1.0" stroke="rgb(0,0,0)" stroke-width="2"  />
			<g>
				<title>adh_short (PF00106)
"short chain dehydrogenase"</title>
				<polygon class="PF00106" points="782,39 791,28 801,28 801,52 791,52 782,41" stroke-linejoin="round" width="19" height="24" fill="rgb(128,81,196)" stroke="rgb(102,64,156)" stroke-width="1" opacity="0.75" />
			</g>
		</g>
		<g>
			<title> (Strop_2195)
hydroxyneurosporene-O-methyltransferase</title>
			<polygon class=" (Strop_2195)
hydroxyneurosporene-O-methyltransferase" points="809,25 813,25 813,10 843,40 813,70 813,55 809,55" fill="rgb(255,255,255)" fill-opacity="1.0" stroke="rgb(0,0,0)" stroke-width="2"  />
			<g>
				<title>Dimerisation2 (PF16864)
"Dimerisation domain"</title>
				<rect class="PF16864" x="810" y="28" stroke-linejoin="round" width="7" height="24" fill="rgb(212,101,199)" stroke="rgb(169,80,159)" stroke-width="1" opacity="0.75" />
			</g>
			<g>
				<title>Methyltransf_2 (PF00891)
"O-methyltransferase domain"</title>
				<polygon class="PF00891" points="820,28 827,28 839,40 827,52 820,52" stroke-linejoin="round" width="20" height="24" fill="rgb(91,124,224)" stroke="rgb(72,99,179)" stroke-width="1" opacity="0.75" />
			</g>
		</g>
		<g>
			<title> (Strop_2196)
monooxygenase, FAD-binding</title>
			<polygon class=" (Strop_2196)
monooxygenase, FAD-binding" points="846,25 866,25 866,10 896,40 866,70 866,55 846,55" fill="rgb(255,255,255)" fill-opacity="1.0" stroke="rgb(0,0,0)" stroke-width="2"  />
			<g>
				<title>FAD_binding_3 (PF01494)
"FAD binding domain"</title>
				<rect class="PF01494" x="846" y="28" stroke-linejoin="round" width="33" height="24" fill="rgb(215,66,156)" stroke="rgb(172,52,124)" stroke-width="1" opacity="0.75" />
			</g>
			<g>
				<title>Rng_hyd_C (PF21274)
"Aromatic-ring hydroxylase, C-terminal"</title>
				<polygon class="PF21274" points="884,32 892,40 884,48" stroke-linejoin="round" width="10" height="24" fill="rgb(153,227,106)" stroke="rgb(122,181,84)" stroke-width="1" opacity="0.75" />
			</g>
		</g>
		<g>
			<title> (Strop_2197)
cyclase/dehydrase</title>
			<polygon class=" (Strop_2197)
cyclase/dehydrase" points="897,25 899,25 899,10 929,40 899,70 899,55 897,55" fill="rgb(255,255,255)" fill-opacity="1.0" stroke="rgb(0,0,0)" stroke-width="2"  />
			<g>
				<title>Polyketide_cyc (PF03364)
"Polyketide cyclase / dehydrase and lipid transport"</title>
				<rect class="PF03364" x="898" y="28" stroke-linejoin="round" width="12" height="24" fill="rgb(87,54,192)" stroke="rgb(69,43,153)" stroke-width="1" opacity="0.75" />
			</g>
			<g>
				<title>Polyketide_cyc2 (PF10604)
"Polyketide cyclase / dehydrase and lipid transport"</title>
				<polygon class="PF10604" points="912,28 912,28 924,40 912,52 912,52" stroke-linejoin="round" width="15" height="24" fill="rgb(170,214,69)" stroke="rgb(136,171,55)" stroke-width="1" opacity="0.75" />
			</g>
		</g>
		<g>
			<title> (Strop_2198)
monooxygenase, FAD-binding</title>
			<polygon class=" (Strop_2198)
monooxygenase, FAD-binding" points="929,25 947,25 947,10 977,40 947,70 947,55 929,55" fill="rgb(255,255,255)" fill-opacity="1.0" stroke="rgb(0,0,0)" stroke-width="2"  />
			<g>
				<title>FAD_binding_3 (PF01494)
"FAD binding domain"</title>
				<polygon class="PF01494" points="929,28 960,28 961,29 961,51 960,52 929,52" stroke-linejoin="round" width="32" height="24" fill="rgb(215,66,156)" stroke="rgb(172,52,124)" stroke-width="1" opacity="0.75" />
			</g>
			<g>
				<title>Rng_hyd_C (PF21274)
"Aromatic-ring hydroxylase, C-terminal"</title>
				<polygon class="PF21274" points="967,35 972,40 967,45" stroke-linejoin="round" width="8" height="24" fill="rgb(153,227,106)" stroke="rgb(122,181,84)" stroke-width="1" opacity="0.75" />
			</g>
		</g>
		<g>
			<title> (Strop_2199)
monooxygenase, FAD-binding</title>
			<polygon class=" (Strop_2199)
monooxygenase, FAD-binding" points="976,25 995,25 995,10 1025,40 995,70 995,55 976,55" fill="rgb(255,255,255)" fill-opacity="1.0" stroke="rgb(0,0,0)" stroke-width="2"  />
			<g>
				<title>FAD_binding_3 (PF01494)
"FAD binding domain"</title>
				<rect class="PF01494" x="976" y="28" stroke-linejoin="round" width="33" height="24" fill="rgb(215,66,156)" stroke="rgb(172,52,124)" stroke-width="1" opacity="0.75" />
			</g>
			<g>
				<title>Rng_hyd_C (PF21274)
"Aromatic-ring hydroxylase, C-terminal"</title>
				<polygon class="PF21274" points="1014,33 1021,40 1014,47" stroke-linejoin="round" width="10" height="24" fill="rgb(153,227,106)" stroke="rgb(122,181,84)" stroke-width="1" opacity="0.75" />
			</g>
		</g>
		<g>
			<title> (Strop_2200)
hypothetical protein</title>
			<polygon class=" (Strop_2200)
hypothetical protein" points="1028,10 1052,40 1028,70" fill="rgb(255,255,255)" fill-opacity="1.0" stroke="rgb(0,0,0)" stroke-width="2"  />
		</g>
		<g>
			<title> (Strop_2201)
hypothetical protein</title>
			<polygon class=" (Strop_2201)
hypothetical protein" points="1117,25 1085,25 1085,10 1055,40 1085,70 1085,55 1117,55" fill="rgb(255,255,255)" fill-opacity="1.0" stroke="rgb(0,0,0)" stroke-width="2"  />
		</g>
		<g>
			<title> (Strop_2202)
4Fe-4S ferredoxin, iron-sulfur binding domain protein</title>
			<polygon class=" (Strop_2202)
4Fe-4S ferredoxin, iron-sulfur binding domain protein" points="1117,40 1128,10 1128,70" fill="rgb(255,255,255)" fill-opacity="1.0" stroke="rgb(0,0,0)" stroke-width="2"  />
			<g>
				<title>Fer4_21 (PF14697)
"4Fe-4S dicluster domain"</title>
				<polygon class="PF14697" points="1120,40 1125,28 1125,28 1125,52 1125,52 1120,40" stroke-linejoin="round" width="5" height="24" fill="rgb(92,223,96)" stroke="rgb(73,178,76)" stroke-width="1" opacity="0.75" />
			</g>
		</g>
		<g>
			<title> (Strop_2203)
hypothetical protein</title>
			<polygon class=" (Strop_2203)
hypothetical protein" points="1131,40 1157,10 1157,70" fill="rgb(255,255,255)" fill-opacity="1.0" stroke="rgb(0,0,0)" stroke-width="2"  />
			<g>
				<title>DUF3050 (PF11251)
"Protein of unknown function (DUF3050)"</title>
				<polygon class="PF11251" points="1135,40 1146,28 1154,28 1154,52 1146,52" stroke-linejoin="round" width="22" height="24" fill="rgb(215,101,158)" stroke="rgb(172,80,126)" stroke-width="1" opacity="0.75" />
			</g>
		</g>
		<g>
			<title> (Strop_2204)
L-glutamine synthetase</title>
			<polygon class=" (Strop_2204)
L-glutamine synthetase" points="1209,25 1189,25 1189,10 1159,40 1189,70 1189,55 1209,55" fill="rgb(255,255,255)" fill-opacity="1.0" stroke="rgb(0,0,0)" stroke-width="2"  />
			<g>
				<title>Gln-synt_C (PF00120)
"Glutamine synthetase, catalytic domain"</title>
				<polygon class="PF00120" points="1163,40 1175,28 1193,28 1193,52 1175,52" stroke-linejoin="round" width="34" height="24" fill="rgb(185,153,76)" stroke="rgb(148,122,60)" stroke-width="1" opacity="0.75" />
			</g>
		</g>
		<g>
			<title> (Strop_2205)
Amidase</title>
			<polygon class=" (Strop_2205)
Amidase" points="1257,25 1239,25 1239,10 1209,40 1239,70 1239,55 1257,55" fill="rgb(255,255,255)" fill-opacity="1.0" stroke="rgb(0,0,0)" stroke-width="2"  />
			<g>
				<title>Amidase (PF01425)
"Amidase"</title>
				<polygon class="PF01425" points="1213,40 1225,28 1252,28 1252,52 1225,52" stroke-linejoin="round" width="41" height="24" fill="rgb(194,63,150)" stroke="rgb(155,50,119)" stroke-width="1" opacity="0.75" />
			</g>
		</g>
		<g>
			<title> (Strop_2206)
Adenylosuccinate lyase</title>
			<polygon class=" (Strop_2206)
Adenylosuccinate lyase" points="1265,25 1277,25 1277,10 1307,40 1277,70 1277,55 1265,55" fill="rgb(255,255,255)" fill-opacity="1.0" stroke="rgb(0,0,0)" stroke-width="2"  />
			<g>
				<title>Lyase_1 (PF00206)
"Lyase"</title>
				<polygon class="PF00206" points="1265,28 1291,28 1293,30 1293,50 1291,52 1265,52" stroke-linejoin="round" width="28" height="24" fill="rgb(125,214,85)" stroke="rgb(99,171,68)" stroke-width="1" opacity="0.75" />
			</g>
		</g>
		<g>
			<title> (Strop_2207)
GCN5-related N-acetyltransferase</title>
			<polygon class=" (Strop_2207)
GCN5-related N-acetyltransferase" points="1307,10 1320,40 1307,70" fill="rgb(255,255,255)" fill-opacity="1.0" stroke="rgb(0,0,0)" stroke-width="2"  />
			<g>
				<title>Acetyltransf_10 (PF13673)
"Acetyltransferase (GNAT) domain"</title>
				<polygon class="PF13673" points="1308,28 1311,28 1317,40 1311,52 1308,52" stroke-linejoin="round" width="11" height="24" fill="rgb(80,212,184)" stroke="rgb(64,169,147)" stroke-width="1" opacity="0.75" />
			</g>
		</g>
		<g>
			<title> (Strop_2208)
ABC transporter related</title>
			<polygon class=" (Strop_2208)
ABC transporter related" points="1382,25 1353,25 1353,10 1323,40 1353,70 1353,55 1382,55" fill="rgb(255,255,255)" fill-opacity="1.0" stroke="rgb(0,0,0)" stroke-width="2"  />
			<g>
				<title>ABC_tran (PF00005)
"ABC transporter"</title>
				<polygon class="PF00005" points="1330,37 1339,28 1344,28 1344,52 1339,52 1330,43" stroke-linejoin="round" width="14" height="24" fill="rgb(46,186,108)" stroke="rgb(36,148,86)" stroke-width="1" opacity="0.75" />
			</g>
			<g>
				<title>ABC_membrane (PF00664)
"ABC transporter transmembrane region"</title>
				<rect class="PF00664" x="1352" y="28" stroke-linejoin="round" width="27" height="24" fill="rgb(62,71,183)" stroke="rgb(49,56,146)" stroke-width="1" opacity="0.75" />
			</g>
		</g>
		<g>
			<title> (Strop_2209)
Rieske (2Fe-2S) domain protein</title>
			<polygon class=" (Strop_2209)
Rieske (2Fe-2S) domain protein" points="1386,40 1396,10 1396,70" fill="rgb(255,255,255)" fill-opacity="1.0" stroke="rgb(0,0,0)" stroke-width="2"  />
			<g>
				<title>Rieske (PF00355)
"Rieske [2Fe-2S] domain"</title>
				<polygon class="PF00355" points="1389,40 1393,28 1395,28 1395,52 1393,52" stroke-linejoin="round" width="8" height="24" fill="rgb(60,75,194)" stroke="rgb(48,60,155)" stroke-width="1" opacity="0.75" />
			</g>
		</g>
		<g>
			<title> (Strop_2210)
Glyoxalase/bleomycin resistance protein/dioxygenase</title>
			<polygon class=" (Strop_2210)
Glyoxalase/bleomycin resistance protein/dioxygenase" points="1405,10 1418,40 1405,70" fill="rgb(255,255,255)" fill-opacity="1.0" stroke="rgb(0,0,0)" stroke-width="2"  />
			<g>
				<title>Glyoxalase (PF00903)
"Glyoxalase/Bleomycin resistance protein/Dioxygenase superfamily"</title>
				<polygon class="PF00903" points="1405,28 1409,28 1415,40 1409,52 1405,52" stroke-linejoin="round" width="12" height="24" fill="rgb(139,76,222)" stroke="rgb(111,60,177)" stroke-width="1" opacity="0.75" />
			</g>
		</g>
		<g>
			<title> (Strop_2211)
Glyoxalase/bleomycin resistance protein/dioxygenase</title>
			<polygon class=" (Strop_2211)
Glyoxalase/bleomycin resistance protein/dioxygenase" points="1421,10 1447,40 1421,70" fill="rgb(255,255,255)" fill-opacity="1.0" stroke="rgb(0,0,0)" stroke-width="2"  />
			<g>
				<title>Glyoxalase (PF00903)
"Glyoxalase/Bleomycin resistance protein/Dioxygenase superfamily"</title>
				<rect class="PF00903" x="1421" y="28" stroke-linejoin="round" width="11" height="24" fill="rgb(139,76,222)" stroke="rgb(111,60,177)" stroke-width="1" opacity="0.75" />
			</g>
			<g>
				<title>Glyoxalase (PF00903)
"Glyoxalase/Bleomycin resistance protein/Dioxygenase superfamily"</title>
				<polygon class="PF00903" points="1435,31 1443,40 1435,49" stroke-linejoin="round" width="11" height="24" fill="rgb(139,76,222)" stroke="rgb(111,60,177)" stroke-width="1" opacity="0.75" />
			</g>
		</g>
		<g>
			<title> (Strop_2212)
TAP domain protein</title>
			<polygon class=" (Strop_2212)
TAP domain protein" points="1503,25 1481,25 1481,10 1451,40 1481,70 1481,55 1503,55" fill="rgb(255,255,255)" fill-opacity="1.0" stroke="rgb(0,0,0)" stroke-width="2"  />
			<g>
				<title>Abhydrolase_4 (PF08386)
"TAP-like protein"</title>
				<polygon class="PF08386" points="1455,40 1462,33 1462,47" stroke-linejoin="round" width="10" height="24" fill="rgb(170,216,69)" stroke="rgb(136,172,55)" stroke-width="1" opacity="0.75" />
			</g>
			<g>
				<title>Abhydrolase_1 (PF00561)
"alpha/beta hydrolase fold"</title>
				<rect class="PF00561" x="1471" y="28" stroke-linejoin="round" width="21" height="24" fill="rgb(99,159,215)" stroke="rgb(79,127,172)" stroke-width="1" opacity="0.75" />
			</g>
		</g>
		<g>
			<title> (Strop_2213)
protein of unknown function DUF1205</title>
			<polygon class=" (Strop_2213)
protein of unknown function DUF1205" points="1547,25 1539,25 1539,10 1509,40 1539,70 1539,55 1547,55" fill="rgb(255,255,255)" fill-opacity="1.0" stroke="rgb(0,0,0)" stroke-width="2"  />
			<g>
				<title>EryCIII-like_C (PF06722)
"Erythromycin biosynthesis protein CIII-like, C-terminal domain"</title>
				<polygon class="PF06722" points="1513,40 1524,29 1524,51" stroke-linejoin="round" width="14" height="24" fill="rgb(48,103,191)" stroke="rgb(38,82,152)" stroke-width="1" opacity="0.75" />
			</g>
			<g>
				<title>EryCIII-like_N (PF21036)
"Erythromycin biosynthesis protein CIII-like, N-terminal domain"</title>
				<rect class="PF21036" x="1526" y="28" stroke-linejoin="round" width="13" height="24" fill="rgb(205,88,112)" stroke="rgb(164,70,89)" stroke-width="1" opacity="0.75" />
			</g>
		</g>
		<g>
			<title> (Strop_2214)
O-methyltransferase, family 2</title>
			<polygon class=" (Strop_2214)
O-methyltransferase, family 2" points="1584,25 1577,25 1577,10 1547,40 1577,70 1577,55 1584,55" fill="rgb(255,255,255)" fill-opacity="1.0" stroke="rgb(0,0,0)" stroke-width="2"  />
			<g>
				<title>Methyltransf_2 (PF00891)
"O-methyltransferase domain"</title>
				<polygon class="PF00891" points="1551,40 1563,28 1570,28 1570,52 1563,52" stroke-linejoin="round" width="20" height="24" fill="rgb(91,124,224)" stroke="rgb(72,99,179)" stroke-width="1" opacity="0.75" />
			</g>
		</g>
		<g>
			<title> (Strop_2215)
hypothetical protein</title>
			<polygon class=" (Strop_2215)
hypothetical protein" points="1590,25 1591,25 1591,10 1621,40 1591,70 1591,55 1590,55" fill="rgb(255,255,255)" fill-opacity="1.0" stroke="rgb(0,0,0)" stroke-width="2"  />
		</g>
		<g>
			<title> (Strop_2216)
NAD-dependent epimerase/dehydratase</title>
			<polygon class=" (Strop_2216)
NAD-dependent epimerase/dehydratase" points="1624,25 1626,25 1626,10 1656,40 1626,70 1626,55 1624,55" fill="rgb(255,255,255)" fill-opacity="1.0" stroke="rgb(0,0,0)" stroke-width="2"  />
			<g>
				<title>Epimerase (PF01370)
"NAD dependent epimerase/dehydratase family"</title>
				<polygon class="PF01370" points="1624,28 1640,28 1647,35 1647,45 1640,52 1624,52" stroke-linejoin="round" width="23" height="24" fill="rgb(215,89,157)" stroke="rgb(172,71,125)" stroke-width="1" opacity="0.75" />
			</g>
		</g>
		<g>
			<title> (Strop_2217)
dTDP-4-dehydrorhamnose 3,5-epimerase</title>
			<polygon class=" (Strop_2217)
dTDP-4-dehydrorhamnose 3,5-epimerase" points="1657,10 1677,40 1657,70" fill="rgb(255,255,255)" fill-opacity="1.0" stroke="rgb(0,0,0)" stroke-width="2"  />
			<g>
				<title>dTDP_sugar_isom (PF00908)
"dTDP-4-dehydrorhamnose 3,5-epimerase"</title>
				<polygon class="PF00908" points="1657,28 1665,28 1673,40 1665,52 1657,52" stroke-linejoin="round" width="17" height="24" fill="rgb(135,62,227)" stroke="rgb(108,49,181)" stroke-width="1" opacity="0.75" />
			</g>
		</g>
		<g>
			<title> (Strop_2218)
oxidoreductase domain protein</title>
			<polygon class=" (Strop_2218)
oxidoreductase domain protein" points="1679,25 1682,25 1682,10 1712,40 1682,70 1682,55 1679,55" fill="rgb(255,255,255)" fill-opacity="1.0" stroke="rgb(0,0,0)" stroke-width="2"  />
			<g>
				<title>GFO_IDH_MocA (PF01408)
"Oxidoreductase family, NAD-binding Rossmann fold"</title>
				<rect class="PF01408" x="1679" y="28" stroke-linejoin="round" width="11" height="24" fill="rgb(53,193,178)" stroke="rgb(42,154,142)" stroke-width="1" opacity="0.75" />
			</g>
			<g>
				<title>GFO_IDH_MocA_C (PF02894)
"Oxidoreductase family, C-terminal alpha/beta domain"</title>
				<polygon class="PF02894" points="1692,28 1696,28 1708,40 1696,52 1692,52" stroke-linejoin="round" width="18" height="24" fill="rgb(89,185,176)" stroke="rgb(71,148,140)" stroke-width="1" opacity="0.75" />
			</g>
		</g>
		<g>
			<title> (Strop_2219)
hypothetical protein</title>
			<polygon class=" (Strop_2219)
hypothetical protein" points="1714,40 1738,10 1738,70" fill="rgb(255,255,255)" fill-opacity="1.0" stroke="rgb(0,0,0)" stroke-width="2"  />
		</g>
		<g>
			<title> (Strop_2220)
protein of unknown function DUF1205</title>
			<polygon class=" (Strop_2220)
protein of unknown function DUF1205" points="1775,25 1771,25 1771,10 1741,40 1771,70 1771,55 1775,55" fill="rgb(255,255,255)" fill-opacity="1.0" stroke="rgb(0,0,0)" stroke-width="2"  />
			<g>
				<title>EryCIII-like_C (PF06722)
"Erythromycin biosynthesis protein CIII-like, C-terminal domain"</title>
				<polygon class="PF06722" points="1745,40 1755,30 1755,50" stroke-linejoin="round" width="14" height="24" fill="rgb(48,103,191)" stroke="rgb(38,82,152)" stroke-width="1" opacity="0.75" />
			</g>
			<g>
				<title>EryCIII-like_N (PF21036)
"Erythromycin biosynthesis protein CIII-like, N-terminal domain"</title>
				<polygon class="PF21036" points="1757,28 1757,28 1769,28 1769,52 1757,52 1757,52" stroke-linejoin="round" width="12" height="24" fill="rgb(205,88,112)" stroke="rgb(164,70,89)" stroke-width="1" opacity="0.75" />
			</g>
		</g>
		<g>
			<title> (Strop_2221)
DegT/DnrJ/EryC1/StrS aminotransferase</title>
			<polygon class=" (Strop_2221)
DegT/DnrJ/EryC1/StrS aminotransferase" points="1816,25 1806,25 1806,10 1776,40 1806,70 1806,55 1816,55" fill="rgb(255,255,255)" fill-opacity="1.0" stroke="rgb(0,0,0)" stroke-width="2"  />
			<g>
				<title>DegT_DnrJ_EryC1 (PF01041)
"DegT/DnrJ/EryC1/StrS aminotransferase family"</title>
				<polygon class="PF01041" points="1780,40 1792,28 1813,28 1813,52 1792,52" stroke-linejoin="round" width="35" height="24" fill="rgb(228,110,183)" stroke="rgb(182,88,146)" stroke-width="1" opacity="0.75" />
			</g>
		</g>
		<g>
			<title> (Strop_2222)
dTDP-glucose 4,6-dehydratase</title>
			<polygon class=" (Strop_2222)
dTDP-glucose 4,6-dehydratase" points="1822,25 1825,25 1825,10 1855,40 1825,70 1825,55 1822,55" fill="rgb(255,255,255)" fill-opacity="1.0" stroke="rgb(0,0,0)" stroke-width="2"  />
			<g>
				<title>GDP_Man_Dehyd (PF16363)
"GDP-mannose 4,6 dehydratase"</title>
				<polygon class="PF16363" points="1822,28 1839,28 1851,40 1839,52 1822,52" stroke-linejoin="round" width="30" height="24" fill="rgb(50,144,195)" stroke="rgb(40,115,156)" stroke-width="1" opacity="0.75" />
			</g>
		</g>
		<g>
			<title> (Strop_2223)
beta-ketoacyl synthase</title>
			<polygon class=" (Strop_2223)
beta-ketoacyl synthase" points="1855,25 1867,25 1867,10 1897,40 1867,70 1867,55 1855,55" fill="rgb(255,255,255)" fill-opacity="1.0" stroke="rgb(0,0,0)" stroke-width="2"  />
			<g>
				<title>ketoacyl-synt (PF00109)
"Beta-ketoacyl synthase, N-terminal domain"</title>
				<rect class="PF00109" x="1855" y="28" stroke-linejoin="round" width="25" height="24" fill="rgb(74,179,82)" stroke="rgb(59,143,65)" stroke-width="1" opacity="0.75" />
			</g>
			<g>
				<title>Ketoacyl-synt_C (PF02801)
"Beta-ketoacyl synthase, C-terminal domain"</title>
				<polygon class="PF02801" points="1881,28 1881,28 1892,39 1892,41 1881,52 1881,52" stroke-linejoin="round" width="11" height="24" fill="rgb(212,79,72)" stroke="rgb(169,63,57)" stroke-width="1" opacity="0.75" />
			</g>
		</g>
		<g>
			<title> (Strop_2224)
beta-ketoacyl synthase</title>
			<polygon class=" (Strop_2224)
beta-ketoacyl synthase" points="1898,25 1910,25 1910,10 1940,40 1910,70 1910,55 1898,55" fill="rgb(255,255,255)" fill-opacity="1.0" stroke="rgb(0,0,0)" stroke-width="2"  />
			<g>
				<title>ketoacyl-synt (PF00109)
"Beta-ketoacyl synthase, N-terminal domain"</title>
				<rect class="PF00109" x="1898" y="28" stroke-linejoin="round" width="24" height="24" fill="rgb(74,179,82)" stroke="rgb(59,143,65)" stroke-width="1" opacity="0.75" />
			</g>
			<g>
				<title>Ketoacyl-synt_C (PF02801)
"Beta-ketoacyl synthase, C-terminal domain"</title>
				<polygon class="PF02801" points="1923,28 1924,28 1934,38 1934,42 1924,52 1923,52" stroke-linejoin="round" width="11" height="24" fill="rgb(212,79,72)" stroke="rgb(169,63,57)" stroke-width="1" opacity="0.75" />
			</g>
		</g>
		<g>
			<title> (Strop_2225)
phosphopantetheine-binding</title>
			<polygon class=" (Strop_2225)
phosphopantetheine-binding" points="1941,10 1949,40 1941,70" fill="rgb(255,255,255)" fill-opacity="1.0" stroke="rgb(0,0,0)" stroke-width="2"  />
			<g>
				<title>PP-binding (PF00550)
"Phosphopantetheine attachment site"</title>
				<polygon class="PF00550" points="1941,28 1942,28 1946,40 1942,52 1941,52" stroke-linejoin="round" width="7" height="24" fill="rgb(181,58,166)" stroke="rgb(144,46,132)" stroke-width="1" opacity="0.75" />
			</g>
		</g>
		<g>
			<title> (Strop_2226)
acyl transferase domain protein</title>
			<polygon class=" (Strop_2226)
acyl transferase domain protein" points="1948,25 1950,25 1950,10 1980,40 1950,70 1950,55 1948,55" fill="rgb(255,255,255)" fill-opacity="1.0" stroke="rgb(0,0,0)" stroke-width="2"  />
			<g>
				<title>Acyl_transf_1 (PF00698)
"Acyl transferase domain"</title>
				<polygon class="PF00698" points="1949,28 1964,28 1976,40 1964,52 1949,52" stroke-linejoin="round" width="28" height="24" fill="rgb(132,93,193)" stroke="rgb(105,74,154)" stroke-width="1" opacity="0.75" />
			</g>
		</g>
		<g>
			<title> (Strop_2227)
hypothetical protein</title>
			<polygon class=" (Strop_2227)
hypothetical protein" points="1985,25 1987,25 1987,10 2017,40 1987,70 1987,55 1985,55" fill="rgb(255,255,255)" fill-opacity="1.0" stroke="rgb(0,0,0)" stroke-width="2"  />
			<g>
				<title>LnmK_N_HDF (PF18238)
"LnmK N-terminal Hot Dog Fold domain"</title>
				<polygon class="PF18238" points="1987,28 2001,28 2005,32 2005,48 2001,52 1987,52" stroke-linejoin="round" width="18" height="24" fill="rgb(79,104,207)" stroke="rgb(63,83,165)" stroke-width="1" opacity="0.75" />
			</g>
		</g>
		<g>
			<title> (Strop_2229)
transcriptional regulator, AraC family</title>
			<polygon class=" (Strop_2229)
transcriptional regulator, AraC family" points="2033,10 2049,40 2033,70" fill="rgb(255,255,255)" fill-opacity="1.0" stroke="rgb(0,0,0)" stroke-width="2"  />
			<g>
				<title>HTH_18 (PF12833)
"Helix-turn-helix domain"</title>
				<polygon class="PF12833" points="2037,28 2039,28 2044,37 2044,43 2039,52 2037,52" stroke-linejoin="round" width="7" height="24" fill="rgb(96,195,114)" stroke="rgb(76,156,91)" stroke-width="1" opacity="0.75" />
			</g>
		</g>
		<g>
			<title> (Strop_2230)
Glucose-1-phosphate thymidylyltransferase</title>
			<polygon class=" (Strop_2230)
Glucose-1-phosphate thymidylyltransferase" points="2055,10 2084,40 2055,70" fill="rgb(255,255,255)" fill-opacity="1.0" stroke="rgb(0,0,0)" stroke-width="2"  />
			<g>
				<title>NTP_transferase (PF00483)
"Nucleotidyl transferase"</title>
				<polygon class="PF00483" points="2055,28 2067,28 2078,39 2078,41 2067,52 2055,52" stroke-linejoin="round" width="23" height="24" fill="rgb(211,145,90)" stroke="rgb(168,116,72)" stroke-width="1" opacity="0.75" />
			</g>
		</g>
	</g>
</svg>
