<svg version="1.1" baseProfile="full" xmlns="http://www.w3.org/2000/svg" width="1175.1333333333334" height="80">
	<g>
		<line x1="10" y1="40.0" x2="1165.1333333333334" y2="40.0" style="stroke:rgb(70,70,70); stroke-width:3 "/>
		<g>
			<title>chryX
putative spore-associated protein precursor</title>
			<polygon class="chryX
putative spore-associated protein precursor" points="10,40 25,10 25,70" fill="rgb(255,255,255)" fill-opacity="1.0" stroke="rgb(0,0,0)" stroke-width="2"  />
		</g>
		<g>
			<title>chryF
putative polyketide ketoreductase</title>
			<polygon class="chryF
putative polyketide ketoreductase" points="39,10 65,40 39,70" fill="rgb(255,255,255)" fill-opacity="1.0" stroke="rgb(0,0,0)" stroke-width="2"  />
			<g>
				<title>adh_short (PF00106)
"short chain dehydrogenase"</title>
				<polygon class="PF00106" points="39,28 51,28 58,37 58,43 51,52 39,52" stroke-linejoin="round" width="19" height="24" fill="rgb(128,81,196)" stroke="rgb(102,64,156)" stroke-width="1" opacity="0.75" />
			</g>
		</g>
		<g>
			<title>chryV
hypothetical protein</title>
			<polygon class="chryV
hypothetical protein" points="70,10 81,40 70,70" fill="rgb(255,255,255)" fill-opacity="1.0" stroke="rgb(0,0,0)" stroke-width="2"  />
			<g>
				<title>Darcynin (PF17074)
"Darcynin, domain of unknown function"</title>
				<polygon class="PF17074" points="70,28 73,28 77,40 73,52 70,52" stroke-linejoin="round" width="10" height="24" fill="rgb(58,68,196)" stroke="rgb(46,54,156)" stroke-width="1" opacity="0.75" />
			</g>
		</g>
		<g>
			<title>chryH
putative oxidoreductase/NADH-dependent FMN reductase</title>
			<polygon class="chryH
putative oxidoreductase/NADH-dependent FMN reductase" points="84,10 103,40 84,70" fill="rgb(255,255,255)" fill-opacity="1.0" stroke="rgb(0,0,0)" stroke-width="2"  />
			<g>
				<title>FMN_red (PF03358)
"NADPH-dependent FMN reductase"</title>
				<polygon class="PF03358" points="84,28 91,28 98,38 98,42 91,52 84,52" stroke-linejoin="round" width="14" height="24" fill="rgb(161,216,66)" stroke="rgb(128,172,52)" stroke-width="1" opacity="0.75" />
			</g>
		</g>
		<g>
			<title>chryOI
putative FAD-dependent monooxygenase</title>
			<polygon class="chryOI
putative FAD-dependent monooxygenase" points="103,25 124,25 124,10 154,40 124,70 124,55 103,55" fill="rgb(255,255,255)" fill-opacity="1.0" stroke="rgb(0,0,0)" stroke-width="2"  />
			<g>
				<title>FAD_binding_3 (PF01494)
"FAD binding domain"</title>
				<rect class="PF01494" x="105" y="28" stroke-linejoin="round" width="33" height="24" fill="rgb(215,66,156)" stroke="rgb(172,52,124)" stroke-width="1" opacity="0.75" />
			</g>
			<g>
				<title>Rng_hyd_C (PF21274)
"Aromatic-ring hydroxylase, C-terminal"</title>
				<polygon class="PF21274" points="143,33 150,40 143,47" stroke-linejoin="round" width="9" height="24" fill="rgb(153,227,106)" stroke="rgb(122,181,84)" stroke-width="1" opacity="0.75" />
			</g>
		</g>
		<g>
			<title>chryG
putative cyclase</title>
			<polygon class="chryG
putative cyclase" points="156,10 167,40 156,70" fill="rgb(255,255,255)" fill-opacity="1.0" stroke="rgb(0,0,0)" stroke-width="2"  />
			<g>
				<title>Cyclase_polyket (PF04673)
"Polyketide synthesis cyclase"</title>
				<polygon class="PF04673" points="156,28 159,28 163,40 159,52 156,52" stroke-linejoin="round" width="10" height="24" fill="rgb(97,206,162)" stroke="rgb(77,164,129)" stroke-width="1" opacity="0.75" />
			</g>
		</g>
		<g>
			<title>chryC1
putative acyl carrier protein</title>
			<polygon class="chryC1
putative acyl carrier protein" points="168,10 176,40 168,70" fill="rgb(255,255,255)" fill-opacity="1.0" stroke="rgb(0,0,0)" stroke-width="2"  />
			<g>
				<title>PP-binding (PF00550)
"Phosphopantetheine attachment site"</title>
				<polygon class="PF00550" points="168,28 169,28 173,40 169,52 168,52" stroke-linejoin="round" width="7" height="24" fill="rgb(181,58,166)" stroke="rgb(144,46,132)" stroke-width="1" opacity="0.75" />
			</g>
		</g>
		<g>
			<title>chryK
putative bifunctional cyclase/dehydratase</title>
			<polygon class="chryK
putative bifunctional cyclase/dehydratase" points="179,25 180,25 180,10 210,40 180,70 180,55 179,55" fill="rgb(255,255,255)" fill-opacity="1.0" stroke="rgb(0,0,0)" stroke-width="2"  />
			<g>
				<title>Polyketide_cyc2 (PF10604)
"Polyketide cyclase / dehydrase and lipid transport"</title>
				<rect class="PF10604" x="179" y="28" stroke-linejoin="round" width="14" height="24" fill="rgb(170,214,69)" stroke="rgb(136,171,55)" stroke-width="1" opacity="0.75" />
			</g>
			<g>
				<title>Polyketide_cyc2 (PF10604)
"Polyketide cyclase / dehydrase and lipid transport"</title>
				<polygon class="PF10604" points="194,28 194,28 206,40 194,52 194,52" stroke-linejoin="round" width="15" height="24" fill="rgb(170,214,69)" stroke="rgb(136,171,55)" stroke-width="1" opacity="0.75" />
			</g>
		</g>
		<g>
			<title>chryOIV
putative FAD-dependent monooxygenase</title>
			<polygon class="chryOIV
putative FAD-dependent monooxygenase" points="211,25 230,25 230,10 260,40 230,70 230,55 211,55" fill="rgb(255,255,255)" fill-opacity="1.0" stroke="rgb(0,0,0)" stroke-width="2"  />
			<g>
				<title>FAD_binding_3 (PF01494)
"FAD binding domain"</title>
				<polygon class="PF01494" points="211,28 243,28 244,29 244,51 243,52 211,52" stroke-linejoin="round" width="33" height="24" fill="rgb(215,66,156)" stroke="rgb(172,52,124)" stroke-width="1" opacity="0.75" />
			</g>
			<g>
				<title>Rng_hyd_C (PF21274)
"Aromatic-ring hydroxylase, C-terminal"</title>
				<polygon class="PF21274" points="250,35 255,40 250,45" stroke-linejoin="round" width="10" height="24" fill="rgb(153,227,106)" stroke="rgb(122,181,84)" stroke-width="1" opacity="0.75" />
			</g>
		</g>
		<g>
			<title>chryA
putative ketoacyl synthase (KSa)</title>
			<polygon class="chryA
putative ketoacyl synthase (KSa)" points="262,25 274,25 274,10 304,40 274,70 274,55 262,55" fill="rgb(255,255,255)" fill-opacity="1.0" stroke="rgb(0,0,0)" stroke-width="2"  />
			<g>
				<title>ketoacyl-synt (PF00109)
"Beta-ketoacyl synthase, N-terminal domain"</title>
				<rect class="PF00109" x="262" y="28" stroke-linejoin="round" width="25" height="24" fill="rgb(74,179,82)" stroke="rgb(59,143,65)" stroke-width="1" opacity="0.75" />
			</g>
			<g>
				<title>Ketoacyl-synt_C (PF02801)
"Beta-ketoacyl synthase, C-terminal domain"</title>
				<polygon class="PF02801" points="288,28 288,28 299,39 299,41 288,52 288,52" stroke-linejoin="round" width="11" height="24" fill="rgb(212,79,72)" stroke="rgb(169,63,57)" stroke-width="1" opacity="0.75" />
			</g>
		</g>
		<g>
			<title>chryB
putative chain length factor (KSa)</title>
			<polygon class="chryB
putative chain length factor (KSa)" points="305,25 315,25 315,10 345,40 315,70 315,55 305,55" fill="rgb(255,255,255)" fill-opacity="1.0" stroke="rgb(0,0,0)" stroke-width="2"  />
			<g>
				<title>ketoacyl-synt (PF00109)
"Beta-ketoacyl synthase, N-terminal domain"</title>
				<rect class="PF00109" x="305" y="28" stroke-linejoin="round" width="24" height="24" fill="rgb(74,179,82)" stroke="rgb(59,143,65)" stroke-width="1" opacity="0.75" />
			</g>
			<g>
				<title>Ketoacyl-synt_C (PF02801)
"Beta-ketoacyl synthase, C-terminal domain"</title>
				<polygon class="PF02801" points="330,29 341,40 341,40 330,51" stroke-linejoin="round" width="11" height="24" fill="rgb(212,79,72)" stroke="rgb(169,63,57)" stroke-width="1" opacity="0.75" />
			</g>
		</g>
		<g>
			<title>chryC
putative acyl carrier protein</title>
			<polygon class="chryC
putative acyl carrier protein" points="347,10 355,40 347,70" fill="rgb(255,255,255)" fill-opacity="1.0" stroke="rgb(0,0,0)" stroke-width="2"  />
			<g>
				<title>PP-binding (PF00550)
"Phosphopantetheine attachment site"</title>
				<polygon class="PF00550" points="347,28 348,28 352,40 348,52 347,52" stroke-linejoin="round" width="6" height="24" fill="rgb(181,58,166)" stroke="rgb(144,46,132)" stroke-width="1" opacity="0.75" />
			</g>
		</g>
		<g>
			<title>chryOIII
putative P450 monooxygenase</title>
			<polygon class="chryOIII
putative P450 monooxygenase" points="357,25 366,25 366,10 396,40 366,70 366,55 357,55" fill="rgb(255,255,255)" fill-opacity="1.0" stroke="rgb(0,0,0)" stroke-width="2"  />
			<g>
				<title>p450 (PF00067)
"Cytochrome P450"</title>
				<polygon class="PF00067" points="378,28 380,28 392,40 380,52 378,52" stroke-linejoin="round" width="15" height="24" fill="rgb(195,210,54)" stroke="rgb(155,168,43)" stroke-width="1" opacity="0.75" />
			</g>
		</g>
		<g>
			<title>chryY
putative ferredoxin</title>
			<polygon class="chryY
putative ferredoxin" points="397,10 403,40 397,70" fill="rgb(255,255,255)" fill-opacity="1.0" stroke="rgb(0,0,0)" stroke-width="2"  />
			<g>
				<title>Fer4_15 (PF13459)
"4Fe-4S single cluster domain"</title>
				<polygon class="PF13459" points="397,28 397,28 400,40 397,52 397,52" stroke-linejoin="round" width="5" height="24" fill="rgb(97,101,215)" stroke="rgb(77,80,172)" stroke-width="1" opacity="0.75" />
			</g>
		</g>
		<g>
			<title>chryP
putative malonyl-CoA carrier protein transacylase</title>
			<polygon class="chryP
putative malonyl-CoA carrier protein transacylase" points="405,25 407,25 407,10 437,40 407,70 407,55 405,55" fill="rgb(255,255,255)" fill-opacity="1.0" stroke="rgb(0,0,0)" stroke-width="2"  />
			<g>
				<title>Acyl_transf_1 (PF00698)
"Acyl transferase domain"</title>
				<polygon class="PF00698" points="405,28 421,28 433,40 421,52 405,52" stroke-linejoin="round" width="29" height="24" fill="rgb(132,93,193)" stroke="rgb(105,74,154)" stroke-width="1" opacity="0.75" />
			</g>
		</g>
		<g>
			<title>chryQ
putative propionyl-CoA carrier protein transacylase</title>
			<polygon class="chryQ
putative propionyl-CoA carrier protein transacylase" points="437,25 439,25 439,10 469,40 439,70 439,55 437,55" fill="rgb(255,255,255)" fill-opacity="1.0" stroke="rgb(0,0,0)" stroke-width="2"  />
			<g>
				<title>Acyl_transf_1 (PF00698)
"Acyl transferase domain"</title>
				<polygon class="PF00698" points="437,28 453,28 465,40 453,52 437,52" stroke-linejoin="round" width="30" height="24" fill="rgb(132,93,193)" stroke="rgb(105,74,154)" stroke-width="1" opacity="0.75" />
			</g>
		</g>
		<g>
			<title>chryX1
putative regulator</title>
			<polygon class="chryX1
putative regulator" points="473,40 499,10 499,70" fill="rgb(255,255,255)" fill-opacity="1.0" stroke="rgb(0,0,0)" stroke-width="2"  />
		</g>
		<g>
			<title>chryX2
putative two-component response regulator</title>
			<polygon class="chryX2
putative two-component response regulator" points="512,40 532,10 532,70" fill="rgb(255,255,255)" fill-opacity="1.0" stroke="rgb(0,0,0)" stroke-width="2"  />
			<g>
				<title>GerE (PF00196)
"Bacterial regulatory proteins, luxR family"</title>
				<polygon class="PF00196" points="516,40 517,39 517,41" stroke-linejoin="round" width="5" height="24" fill="rgb(225,67,110)" stroke="rgb(180,53,88)" stroke-width="1" opacity="0.75" />
			</g>
			<g>
				<title>Response_reg (PF00072)
"Response regulator receiver domain"</title>
				<polygon class="PF00072" points="520,34 524,28 531,28 531,52 524,52 520,46" stroke-linejoin="round" width="11" height="24" fill="rgb(59,131,198)" stroke="rgb(47,104,158)" stroke-width="1" opacity="0.75" />
			</g>
		</g>
		<g>
			<title>chryE
putative TDP-glucose-4,6-dehydratase</title>
			<polygon class="chryE
putative TDP-glucose-4,6-dehydratase" points="572,25 570,25 570,10 540,40 570,70 570,55 572,55" fill="rgb(255,255,255)" fill-opacity="1.0" stroke="rgb(0,0,0)" stroke-width="2"  />
			<g>
				<title>GDP_Man_Dehyd (PF16363)
"GDP-mannose 4,6 dehydratase"</title>
				<polygon class="PF16363" points="544,40 556,28 572,28 572,52 556,52" stroke-linejoin="round" width="30" height="24" fill="rgb(50,144,195)" stroke="rgb(40,115,156)" stroke-width="1" opacity="0.75" />
			</g>
		</g>
		<g>
			<title>chryD
putative glucose-1-phosphate thymidylyltransferase</title>
			<polygon class="chryD
putative glucose-1-phosphate thymidylyltransferase" points="608,25 603,25 603,10 573,40 603,70 603,55 608,55" fill="rgb(255,255,255)" fill-opacity="1.0" stroke="rgb(0,0,0)" stroke-width="2"  />
			<g>
				<title>NTP_transferase (PF00483)
"Nucleotidyl transferase"</title>
				<polygon class="PF00483" points="584,33 589,28 607,28 607,52 589,52 584,47" stroke-linejoin="round" width="23" height="24" fill="rgb(211,145,90)" stroke="rgb(168,116,72)" stroke-width="1" opacity="0.75" />
			</g>
		</g>
		<g>
			<title>chryJ
putative major facilitator superfamily permease</title>
			<polygon class="chryJ
putative major facilitator superfamily permease" points="672,25 645,25 645,10 615,40 645,70 645,55 672,55" fill="rgb(255,255,255)" fill-opacity="1.0" stroke="rgb(0,0,0)" stroke-width="2"  />
		</g>
		<g>
			<title>chryX3
putative marR family transcriptional regulator</title>
			<polygon class="chryX3
putative marR family transcriptional regulator" points="675,10 694,40 675,70" fill="rgb(255,255,255)" fill-opacity="1.0" stroke="rgb(0,0,0)" stroke-width="2"  />
			<g>
				<title>MarR_2 (PF12802)
"MarR family"</title>
				<polygon class="PF12802" points="680,28 683,28 686,33 686,47 683,52 680,52" stroke-linejoin="round" width="6" height="24" fill="rgb(139,211,68)" stroke="rgb(111,168,54)" stroke-width="1" opacity="0.75" />
			</g>
		</g>
		<g>
			<title>chryGT
putative C-glycosyltransferase</title>
			<polygon class="chryGT
putative C-glycosyltransferase" points="703,25 711,25 711,10 741,40 711,70 711,55 703,55" fill="rgb(255,255,255)" fill-opacity="1.0" stroke="rgb(0,0,0)" stroke-width="2"  />
			<g>
				<title>EryCIII-like_N (PF21036)
"Erythromycin biosynthesis protein CIII-like, N-terminal domain"</title>
				<rect class="PF21036" x="705" y="28" stroke-linejoin="round" width="19" height="24" fill="rgb(205,88,112)" stroke="rgb(164,70,89)" stroke-width="1" opacity="0.75" />
			</g>
			<g>
				<title>EryCIII-like_C (PF06722)
"Erythromycin biosynthesis protein CIII-like, C-terminal domain"</title>
				<polygon class="PF06722" points="726,30 736,40 726,50" stroke-linejoin="round" width="14" height="24" fill="rgb(48,103,191)" stroke="rgb(38,82,152)" stroke-width="1" opacity="0.75" />
			</g>
		</g>
		<g>
			<title>chryMT
putative O-methyltransferase</title>
			<polygon class="chryMT
putative O-methyltransferase" points="745,25 749,25 749,10 779,40 749,70 749,55 745,55" fill="rgb(255,255,255)" fill-opacity="1.0" stroke="rgb(0,0,0)" stroke-width="2"  />
			<g>
				<title>Dimerisation2 (PF16864)
"Dimerisation domain"</title>
				<rect class="PF16864" x="746" y="28" stroke-linejoin="round" width="8" height="24" fill="rgb(212,101,199)" stroke="rgb(169,80,159)" stroke-width="1" opacity="0.75" />
			</g>
			<g>
				<title>Methyltransf_2 (PF00891)
"O-methyltransferase domain"</title>
				<polygon class="PF00891" points="756,28 762,28 774,40 762,52 756,52" stroke-linejoin="round" width="20" height="24" fill="rgb(91,124,224)" stroke="rgb(72,99,179)" stroke-width="1" opacity="0.75" />
			</g>
		</g>
		<g>
			<title>chryOII
putative anthrone monooxygenase</title>
			<polygon class="chryOII
putative anthrone monooxygenase" points="782,10 805,40 782,70" fill="rgb(255,255,255)" fill-opacity="1.0" stroke="rgb(0,0,0)" stroke-width="2"  />
			<g>
				<title>ABM (PF03992)
"Antibiotic biosynthesis monooxygenase"</title>
				<polygon class="PF03992" points="791,28 792,28 801,39 801,41 792,52 791,52" stroke-linejoin="round" width="10" height="24" fill="rgb(211,55,142)" stroke="rgb(168,44,113)" stroke-width="1" opacity="0.75" />
			</g>
		</g>
		<g>
			<title>chryRM
putative dehydrogenase and domain with unknown function</title>
			<polygon class="chryRM
putative dehydrogenase and domain with unknown function" points="806,25 852,25 852,10 882,40 852,70 852,55 806,55" fill="rgb(255,255,255)" fill-opacity="1.0" stroke="rgb(0,0,0)" stroke-width="2"  />
			<g>
				<title>FAD_binding_4 (PF01565)
"FAD binding domain"</title>
				<rect class="PF01565" x="810" y="28" stroke-linejoin="round" width="13" height="24" fill="rgb(194,197,94)" stroke="rgb(155,157,75)" stroke-width="1" opacity="0.75" />
			</g>
			<g>
				<title>BBE (PF08031)
"Berberine and berberine like"</title>
				<rect class="PF08031" x="852" y="28" stroke-linejoin="round" width="5" height="24" fill="rgb(56,179,213)" stroke="rgb(44,143,170)" stroke-width="1" opacity="0.75" />
			</g>
			<g>
				<title>Methyltransf_25 (PF13649)
"Methyltransferase domain"</title>
				<polygon class="PF13649" points="863,28 865,28 872,35 872,45 865,52 863,52" stroke-linejoin="round" width="9" height="24" fill="rgb(224,103,106)" stroke="rgb(179,82,84)" stroke-width="1" opacity="0.75" />
			</g>
		</g>
		<g>
			<title>chryU
putative NDP-hexose 4-ketoreductase</title>
			<polygon class="chryU
putative NDP-hexose 4-ketoreductase" points="886,25 886,25 886,10 916,40 886,70 886,55 886,55" fill="rgb(255,255,255)" fill-opacity="1.0" stroke="rgb(0,0,0)" stroke-width="2"  />
			<g>
				<title>RmlD_sub_bind (PF04321)
"RmlD substrate binding domain"</title>
				<polygon class="PF04321" points="886,28 900,28 912,40 900,52 886,52" stroke-linejoin="round" width="28" height="24" fill="rgb(71,77,207)" stroke="rgb(56,61,165)" stroke-width="1" opacity="0.75" />
			</g>
		</g>
		<g>
			<title>chryCMT
putative C-methyltransferase</title>
			<polygon class="chryCMT
putative C-methyltransferase" points="917,25 928,25 928,10 958,40 928,70 928,55 917,55" fill="rgb(255,255,255)" fill-opacity="1.0" stroke="rgb(0,0,0)" stroke-width="2"  />
			<g>
				<title>Methyltransf_13 (PF08421)
"Putative zinc binding domain"</title>
				<rect class="PF08421" x="917" y="28" stroke-linejoin="round" width="6" height="24" fill="rgb(65,65,206)" stroke="rgb(52,52,164)" stroke-width="1" opacity="0.75" />
			</g>
			<g>
				<title>Methyltransf_23 (PF13489)
"Methyltransferase domain"</title>
				<rect class="PF13489" x="925" y="28" stroke-linejoin="round" width="16" height="24" fill="rgb(62,214,70)" stroke="rgb(49,171,56)" stroke-width="1" opacity="0.75" />
			</g>
			<g>
				<title>Methyltransf_14 (PF08484)
"C-methyltransferase C-terminal domain"</title>
				<polygon class="PF08484" points="941,28 941,28 953,40 941,52 941,52" stroke-linejoin="round" width="15" height="24" fill="rgb(131,189,66)" stroke="rgb(104,151,52)" stroke-width="1" opacity="0.75" />
			</g>
		</g>
		<g>
			<title>chryX4
putative hexokinase</title>
			<polygon class="chryX4
putative hexokinase" points="960,25 961,25 961,10 991,40 961,70 961,55 960,55" fill="rgb(255,255,255)" fill-opacity="1.0" stroke="rgb(0,0,0)" stroke-width="2"  />
			<g>
				<title>PfkB (PF00294)
"pfkB family carbohydrate kinase"</title>
				<polygon class="PF00294" points="961,28 974,28 986,40 974,52 961,52" stroke-linejoin="round" width="28" height="24" fill="rgb(94,207,198)" stroke="rgb(75,165,158)" stroke-width="1" opacity="0.75" />
			</g>
		</g>
		<g>
			<title>chryL
putative NAD-dependent epimerase/dehydratase</title>
			<polygon class="chryL
putative NAD-dependent epimerase/dehydratase" points="996,40 1017,10 1017,70" fill="rgb(255,255,255)" fill-opacity="1.0" stroke="rgb(0,0,0)" stroke-width="2"  />
			<g>
				<title>NAD_binding_10 (PF13460)
"NAD(P)H-binding"</title>
				<polygon class="PF13460" points="1000,40 1008,28 1016,28 1016,52 1008,52" stroke-linejoin="round" width="19" height="24" fill="rgb(131,53,182)" stroke="rgb(104,42,145)" stroke-width="1" opacity="0.75" />
			</g>
		</g>
		<g>
			<title>chryX5
putative tetR family regulator</title>
			<polygon class="chryX5
putative tetR family regulator" points="1021,10 1041,40 1021,70" fill="rgb(255,255,255)" fill-opacity="1.0" stroke="rgb(0,0,0)" stroke-width="2"  />
			<g>
				<title>TetR_N (PF00440)
"Bacterial regulatory proteins, tetR family"</title>
				<rect class="PF00440" x="1022" y="28" stroke-linejoin="round" width="4" height="24" fill="rgb(148,50,185)" stroke="rgb(118,40,148)" stroke-width="1" opacity="0.75" />
			</g>
		</g>
		<g>
			<title>chryX6
putative tetR family transcriptional regulator</title>
			<polygon class="chryX6
putative tetR family transcriptional regulator" points="1043,40 1056,10 1056,70" fill="rgb(255,255,255)" fill-opacity="1.0" stroke="rgb(0,0,0)" stroke-width="2"  />
			<g>
				<title>STAS (PF01740)
"STAS domain"</title>
				<polygon class="PF01740" points="1046,40 1051,28 1055,28 1055,52 1051,52" stroke-linejoin="round" width="10" height="24" fill="rgb(210,100,71)" stroke="rgb(168,80,56)" stroke-width="1" opacity="0.75" />
			</g>
		</g>
		<g>
			<title>chryX7
hypothetical protein</title>
			<polygon class="chryX7
hypothetical protein" points="1058,40 1070,10 1070,70" fill="rgb(255,255,255)" fill-opacity="1.0" stroke="rgb(0,0,0)" stroke-width="2"  />
			<g>
				<title>DUF488 (PF04343)
"Protein of unknown function, DUF488"</title>
				<polygon class="PF04343" points="1061,40 1066,28 1069,28 1069,52 1066,52" stroke-linejoin="round" width="11" height="24" fill="rgb(146,228,105)" stroke="rgb(116,182,84)" stroke-width="1" opacity="0.75" />
			</g>
		</g>
		<g>
			<title>chryX8
putative tetR family regulator</title>
			<polygon class="chryX8
putative tetR family regulator" points="1089,10 1109,40 1089,70" fill="rgb(255,255,255)" fill-opacity="1.0" stroke="rgb(0,0,0)" stroke-width="2"  />
			<g>
				<title>TetR_N (PF00440)
"Bacterial regulatory proteins, tetR family"</title>
				<rect class="PF00440" x="1091" y="28" stroke-linejoin="round" width="4" height="24" fill="rgb(148,50,185)" stroke="rgb(118,40,148)" stroke-width="1" opacity="0.75" />
			</g>
			<g>
				<title>TetR_C_24 (PF17932)
"Tetracyclin repressor-like, C-terminal domain"</title>
				<polygon class="PF17932" points="1097,28 1097,28 1105,39 1105,41 1097,52 1097,52" stroke-linejoin="round" width="8" height="24" fill="rgb(211,91,211)" stroke="rgb(168,72,168)" stroke-width="1" opacity="0.75" />
			</g>
		</g>
		<g>
			<title>chryX9
putative acyl-CoA dehydrogenase</title>
			<polygon class="chryX9
putative acyl-CoA dehydrogenase" points="1110,25 1134,25 1134,10 1164,40 1134,70 1134,55 1110,55" fill="rgb(255,255,255)" fill-opacity="1.0" stroke="rgb(0,0,0)" stroke-width="2"  />
			<g>
				<title>AidB_N (PF18158)
"Adaptive response protein AidB N-terminal domain"</title>
				<rect class="PF18158" x="1111" y="28" stroke-linejoin="round" width="15" height="24" fill="rgb(190,59,175)" stroke="rgb(152,47,140)" stroke-width="1" opacity="0.75" />
			</g>
			<g>
				<title>Acyl-CoA_dh_M (PF02770)
"Acyl-CoA dehydrogenase, middle domain"</title>
				<rect class="PF02770" x="1128" y="28" stroke-linejoin="round" width="9" height="24" fill="rgb(58,129,192)" stroke="rgb(46,103,153)" stroke-width="1" opacity="0.75" />
			</g>
			<g>
				<title>Acyl-CoA_dh_1 (PF00441)
"Acyl-CoA dehydrogenase, C-terminal domain"</title>
				<polygon class="PF00441" points="1138,28 1148,28 1153,33 1153,47 1148,52 1138,52" stroke-linejoin="round" width="15" height="24" fill="rgb(96,175,206)" stroke="rgb(76,139,164)" stroke-width="1" opacity="0.75" />
			</g>
		</g>
	</g>
</svg>
