<svg version="1.1" baseProfile="full" xmlns="http://www.w3.org/2000/svg" width="770.3666666666667" height="80">
	<g>
		<line x1="10" y1="40.0" x2="760.3666666666667" y2="40.0" style="stroke:rgb(70,70,70); stroke-width:3 "/>
		<g>
			<title>encE
putative regulatory protein EncE</title>
			<polygon class="encE
putative regulatory protein EncE" points="27,10 43,40 27,70" fill="rgb(255,255,255)" fill-opacity="1.0" stroke="rgb(0,0,0)" stroke-width="2"  />
			<g>
				<title>MerR_1 (PF13411)
"MerR HTH family regulatory protein"</title>
				<rect class="PF13411" x="27" y="28" stroke-linejoin="round" width="6" height="24" fill="rgb(186,92,57)" stroke="rgb(148,73,45)" stroke-width="1" opacity="0.75" />
			</g>
		</g>
		<g>
			<title>encF
putative transcriptional regulator EncF</title>
			<polygon class="encF
putative transcriptional regulator EncF" points="68,10 96,40 68,70" fill="rgb(255,255,255)" fill-opacity="1.0" stroke="rgb(0,0,0)" stroke-width="2"  />
			<g>
				<title>Trans_reg_C (PF00486)
"Transcriptional regulatory protein, C terminal"</title>
				<rect class="PF00486" x="69" y="28" stroke-linejoin="round" width="7" height="24" fill="rgb(69,185,116)" stroke="rgb(55,148,92)" stroke-width="1" opacity="0.75" />
			</g>
			<g>
				<title>BTAD (PF03704)
"Bacterial transcriptional activator domain"</title>
				<polygon class="PF03704" points="78,28 80,28 92,40 92,40 80,52 78,52" stroke-linejoin="round" width="14" height="24" fill="rgb(174,224,58)" stroke="rgb(139,179,46)" stroke-width="1" opacity="0.75" />
			</g>
		</g>
		<g>
			<title>encG
EncG</title>
			<polygon class="encG
EncG" points="99,40 115,10 115,70" fill="rgb(255,255,255)" fill-opacity="1.0" stroke="rgb(0,0,0)" stroke-width="2"  />
			<g>
				<title>SnoaL_4 (PF13577)
"SnoaL-like domain"</title>
				<polygon class="PF13577" points="102,40 109,28 112,28 112,52 109,52" stroke-linejoin="round" width="12" height="24" fill="rgb(58,198,190)" stroke="rgb(46,158,152)" stroke-width="1" opacity="0.75" />
			</g>
		</g>
		<g>
			<title>encH
putative acyl-CoA ligase EncH</title>
			<polygon class="encH
putative acyl-CoA ligase EncH" points="120,25 143,25 143,10 173,40 143,70 143,55 120,55" fill="rgb(255,255,255)" fill-opacity="1.0" stroke="rgb(0,0,0)" stroke-width="2"  />
			<g>
				<title>AMP-binding (PF00501)
"AMP-binding enzyme"</title>
				<polygon class="PF00501" points="123,28 157,28 158,29 158,51 157,52 123,52" stroke-linejoin="round" width="35" height="24" fill="rgb(189,78,204)" stroke="rgb(151,62,163)" stroke-width="1" opacity="0.75" />
			</g>
			<g>
				<title>AMP-binding_C (PF13193)
"AMP-binding enzyme C-terminal domain"</title>
				<polygon class="PF13193" points="163,34 169,40 163,46" stroke-linejoin="round" width="7" height="24" fill="rgb(195,82,106)" stroke="rgb(156,65,84)" stroke-width="1" opacity="0.75" />
			</g>
		</g>
		<g>
			<title>encI
putative enoyl-CoA hydratase EncI</title>
			<polygon class="encI
putative enoyl-CoA hydratase EncI" points="174,10 199,40 174,70" fill="rgb(255,255,255)" fill-opacity="1.0" stroke="rgb(0,0,0)" stroke-width="2"  />
			<g>
				<title>ECH_1 (PF00378)
"Enoyl-CoA hydratase/isomerase"</title>
				<polygon class="PF00378" points="175,28 186,28 195,40 186,52 175,52" stroke-linejoin="round" width="23" height="24" fill="rgb(201,73,190)" stroke="rgb(160,58,152)" stroke-width="1" opacity="0.75" />
			</g>
		</g>
		<g>
			<title>encJ
putative beta-oxoacyl-CoA thiolase EncJ</title>
			<polygon class="encJ
putative beta-oxoacyl-CoA thiolase EncJ" points="245,25 235,25 235,10 205,40 235,70 235,55 245,55" fill="rgb(255,255,255)" fill-opacity="1.0" stroke="rgb(0,0,0)" stroke-width="2"  />
			<g>
				<title>Thiolase_C (PF02803)
"Thiolase, C-terminal domain"</title>
				<polygon class="PF02803" points="209,40 217,32 217,48" stroke-linejoin="round" width="12" height="24" fill="rgb(110,126,225)" stroke="rgb(88,100,180)" stroke-width="1" opacity="0.75" />
			</g>
			<g>
				<title>Thiolase_N (PF00108)
"Thiolase, N-terminal domain"</title>
				<polygon class="PF00108" points="218,31 221,28 243,28 243,52 221,52 218,49" stroke-linejoin="round" width="25" height="24" fill="rgb(208,68,98)" stroke="rgb(166,54,78)" stroke-width="1" opacity="0.75" />
			</g>
		</g>
		<g>
			<title>encK
putative O-methyl transferase EncK</title>
			<polygon class="encK
putative O-methyl transferase EncK" points="245,40 269,10 269,70" fill="rgb(255,255,255)" fill-opacity="1.0" stroke="rgb(0,0,0)" stroke-width="2"  />
			<g>
				<title>Methyltransf_12 (PF08242)
"Methyltransferase domain"</title>
				<polygon class="PF08242" points="253,35 259,28 262,28 262,52 259,52 253,45" stroke-linejoin="round" width="9" height="24" fill="rgb(78,210,205)" stroke="rgb(62,168,164)" stroke-width="1" opacity="0.75" />
			</g>
		</g>
		<g>
			<title>encD
putative ketoreductase EncD</title>
			<polygon class="encD
putative ketoreductase EncD" points="270,40 296,10 296,70" fill="rgb(255,255,255)" fill-opacity="1.0" stroke="rgb(0,0,0)" stroke-width="2"  />
			<g>
				<title>adh_short (PF00106)
"short chain dehydrogenase"</title>
				<polygon class="PF00106" points="275,39 285,28 294,28 294,52 285,52 275,41" stroke-linejoin="round" width="19" height="24" fill="rgb(128,81,196)" stroke="rgb(102,64,156)" stroke-width="1" opacity="0.75" />
			</g>
		</g>
		<g>
			<title>encA
putative keto synthase alpha EncA</title>
			<polygon class="encA
putative keto synthase alpha EncA" points="303,25 315,25 315,10 345,40 315,70 315,55 303,55" fill="rgb(255,255,255)" fill-opacity="1.0" stroke="rgb(0,0,0)" stroke-width="2"  />
			<g>
				<title>ketoacyl-synt (PF00109)
"Beta-ketoacyl synthase, N-terminal domain"</title>
				<rect class="PF00109" x="303" y="28" stroke-linejoin="round" width="25" height="24" fill="rgb(74,179,82)" stroke="rgb(59,143,65)" stroke-width="1" opacity="0.75" />
			</g>
			<g>
				<title>Ketoacyl-synt_C (PF02801)
"Beta-ketoacyl synthase, C-terminal domain"</title>
				<polygon class="PF02801" points="329,28 329,28 340,39 340,41 329,52 329,52" stroke-linejoin="round" width="11" height="24" fill="rgb(212,79,72)" stroke="rgb(169,63,57)" stroke-width="1" opacity="0.75" />
			</g>
		</g>
		<g>
			<title>encB
putative keto synthase beta EncB</title>
			<polygon class="encB
putative keto synthase beta EncB" points="346,25 356,25 356,10 386,40 356,70 356,55 346,55" fill="rgb(255,255,255)" fill-opacity="1.0" stroke="rgb(0,0,0)" stroke-width="2"  />
			<g>
				<title>ketoacyl-synt (PF00109)
"Beta-ketoacyl synthase, N-terminal domain"</title>
				<rect class="PF00109" x="346" y="28" stroke-linejoin="round" width="24" height="24" fill="rgb(74,179,82)" stroke="rgb(59,143,65)" stroke-width="1" opacity="0.75" />
			</g>
			<g>
				<title>Ketoacyl-synt_C (PF02801)
"Beta-ketoacyl synthase, C-terminal domain"</title>
				<polygon class="PF02801" points="371,29 382,40 382,40 371,51" stroke-linejoin="round" width="11" height="24" fill="rgb(212,79,72)" stroke="rgb(169,63,57)" stroke-width="1" opacity="0.75" />
			</g>
		</g>
		<g>
			<title>encC
putative acyl carrier protein EncC</title>
			<polygon class="encC
putative acyl carrier protein EncC" points="388,10 396,40 388,70" fill="rgb(255,255,255)" fill-opacity="1.0" stroke="rgb(0,0,0)" stroke-width="2"  />
			<g>
				<title>PP-binding (PF00550)
"Phosphopantetheine attachment site"</title>
				<polygon class="PF00550" points="388,28 389,28 393,40 389,52 388,52" stroke-linejoin="round" width="7" height="24" fill="rgb(181,58,166)" stroke="rgb(144,46,132)" stroke-width="1" opacity="0.75" />
			</g>
		</g>
		<g>
			<title>encL
putative acyl transferase EncL</title>
			<polygon class="encL
putative acyl transferase EncL" points="398,25 402,25 402,10 432,40 402,70 402,55 398,55" fill="rgb(255,255,255)" fill-opacity="1.0" stroke="rgb(0,0,0)" stroke-width="2"  />
			<g>
				<title>Acyl_transf_1 (PF00698)
"Acyl transferase domain"</title>
				<polygon class="PF00698" points="399,28 415,28 427,40 415,52 399,52" stroke-linejoin="round" width="31" height="24" fill="rgb(132,93,193)" stroke="rgb(105,74,154)" stroke-width="1" opacity="0.75" />
			</g>
		</g>
		<g>
			<title>encM
putative FAD-dependent oxygenase EncM</title>
			<polygon class="encM
putative FAD-dependent oxygenase EncM" points="434,25 450,25 450,10 480,40 450,70 450,55 434,55" fill="rgb(255,255,255)" fill-opacity="1.0" stroke="rgb(0,0,0)" stroke-width="2"  />
			<g>
				<title>FAD_binding_4 (PF01565)
"FAD binding domain"</title>
				<rect class="PF01565" x="438" y="28" stroke-linejoin="round" width="13" height="24" fill="rgb(194,197,94)" stroke="rgb(155,157,75)" stroke-width="1" opacity="0.75" />
			</g>
			<g>
				<title>BBE (PF08031)
"Berberine and berberine like"</title>
				<polygon class="PF08031" points="475,39 476,40 475,41" stroke-linejoin="round" width="4" height="24" fill="rgb(56,179,213)" stroke="rgb(44,143,170)" stroke-width="1" opacity="0.75" />
			</g>
		</g>
		<g>
			<title>encN
putative aryl-CoA ligase EncN</title>
			<polygon class="encN
putative aryl-CoA ligase EncN" points="484,25 506,25 506,10 536,40 506,70 506,55 484,55" fill="rgb(255,255,255)" fill-opacity="1.0" stroke="rgb(0,0,0)" stroke-width="2"  />
			<g>
				<title>AMP-binding (PF00501)
"AMP-binding enzyme"</title>
				<rect class="PF00501" x="485" y="28" stroke-linejoin="round" width="35" height="24" fill="rgb(189,78,204)" stroke="rgb(151,62,163)" stroke-width="1" opacity="0.75" />
			</g>
			<g>
				<title>AMP-binding_C (PF13193)
"AMP-binding enzyme C-terminal domain"</title>
				<polygon class="PF13193" points="526,34 532,40 526,46" stroke-linejoin="round" width="7" height="24" fill="rgb(195,82,106)" stroke="rgb(156,65,84)" stroke-width="1" opacity="0.75" />
			</g>
		</g>
		<g>
			<title>encO
EncO</title>
			<polygon class="encO
EncO" points="538,40 551,10 551,70" fill="rgb(255,255,255)" fill-opacity="1.0" stroke="rgb(0,0,0)" stroke-width="2"  />
			<g>
				<title>DUF4440 (PF14534)
"Domain of unknown function (DUF4440)"</title>
				<polygon class="PF14534" points="541,40 546,28 549,28 549,52 546,52" stroke-linejoin="round" width="10" height="24" fill="rgb(114,76,182)" stroke="rgb(91,60,145)" stroke-width="1" opacity="0.75" />
			</g>
		</g>
		<g>
			<title>encP
putative phenylalanine ammonia lyase EncP</title>
			<polygon class="encP
putative phenylalanine ammonia lyase EncP" points="604,25 582,25 582,10 552,40 582,70 582,55 604,55" fill="rgb(255,255,255)" fill-opacity="1.0" stroke="rgb(0,0,0)" stroke-width="2"  />
			<g>
				<title>Lyase_aromatic (PF00221)
"Aromatic amino acid lyase"</title>
				<polygon class="PF00221" points="556,40 568,28 602,28 602,52 568,52" stroke-linejoin="round" width="47" height="24" fill="rgb(198,213,89)" stroke="rgb(158,170,71)" stroke-width="1" opacity="0.75" />
			</g>
		</g>
		<g>
			<title>encQ
putative ferredoxin EncQ</title>
			<polygon class="encQ
putative ferredoxin EncQ" points="614,40 622,10 622,70" fill="rgb(255,255,255)" fill-opacity="1.0" stroke="rgb(0,0,0)" stroke-width="2"  />
			<g>
				<title>Fer4_15 (PF13459)
"4Fe-4S single cluster domain"</title>
				<polygon class="PF13459" points="617,40 620,28 620,28 620,52 620,52" stroke-linejoin="round" width="5" height="24" fill="rgb(97,101,215)" stroke="rgb(77,80,172)" stroke-width="1" opacity="0.75" />
			</g>
		</g>
		<g>
			<title>encR
putative p450 monooxygenase EncR</title>
			<polygon class="encR
putative p450 monooxygenase EncR" points="662,25 652,25 652,10 622,40 652,70 652,55 662,55" fill="rgb(255,255,255)" fill-opacity="1.0" stroke="rgb(0,0,0)" stroke-width="2"  />
			<g>
				<title>p450 (PF00067)
"Cytochrome P450"</title>
				<polygon class="PF00067" points="626,40 638,28 644,28 644,52 638,52" stroke-linejoin="round" width="20" height="24" fill="rgb(195,210,54)" stroke="rgb(155,168,43)" stroke-width="1" opacity="0.75" />
			</g>
		</g>
		<g>
			<title>encS
putative regulatory protein EncS</title>
			<polygon class="encS
putative regulatory protein EncS" points="666,40 687,10 687,70" fill="rgb(255,255,255)" fill-opacity="1.0" stroke="rgb(0,0,0)" stroke-width="2"  />
			<g>
				<title>TetR_C_6 (PF13977)
"BetI-type transcriptional repressor, C-terminal"</title>
				<polygon class="PF13977" points="670,40 678,29 678,51" stroke-linejoin="round" width="11" height="24" fill="rgb(196,90,180)" stroke="rgb(156,72,144)" stroke-width="1" opacity="0.75" />
			</g>
			<g>
				<title>TetR_N (PF00440)
"Bacterial regulatory proteins, tetR family"</title>
				<rect class="PF00440" x="681" y="28" stroke-linejoin="round" width="4" height="24" fill="rgb(148,50,185)" stroke="rgb(118,40,148)" stroke-width="1" opacity="0.75" />
			</g>
		</g>
		<g>
			<title>encT
putative efflux protein EncT</title>
			<polygon class="encT
putative efflux protein EncT" points="690,25 708,25 708,10 738,40 708,70 708,55 690,55" fill="rgb(255,255,255)" fill-opacity="1.0" stroke="rgb(0,0,0)" stroke-width="2"  />
			<g>
				<title>MFS_1 (PF07690)
"Major Facilitator Superfamily"</title>
				<polygon class="PF07690" points="693,28 722,28 732,38 732,42 722,52 693,52" stroke-linejoin="round" width="39" height="24" fill="rgb(228,207,98)" stroke="rgb(182,165,78)" stroke-width="1" opacity="0.75" />
			</g>
		</g>
	</g>
</svg>
