<svg version="1.1" baseProfile="full" xmlns="http://www.w3.org/2000/svg" width="236.56666666666666" height="80">
	<g>
		<line x1="10" y1="40.0" x2="226.56666666666666" y2="40.0" style="stroke:rgb(70,70,70); stroke-width:3 "/>
		<g>
			<title>
hypothetical protein</title>
			<polygon class="
hypothetical protein" points="10,40 26,10 26,70" fill="rgb(255,255,255)" fill-opacity="1.0" stroke="rgb(0,0,0)" stroke-width="2"  />
		</g>
		<g>
			<title>
ribonuclease H</title>
			<polygon class="
ribonuclease H" points="33,10 56,40 33,70" fill="rgb(255,255,255)" fill-opacity="1.0" stroke="rgb(0,0,0)" stroke-width="2"  />
			<g>
				<title>RNase_H (PF00075)
"RNase H"</title>
				<polygon class="PF00075" points="33,28 43,28 47,33 47,47 43,52 33,52" stroke-linejoin="round" width="14" height="24" fill="rgb(97,117,200)" stroke="rgb(77,93,160)" stroke-width="1" opacity="0.75" />
			</g>
		</g>
		<g>
			<title>melC2
tyrosinase</title>
			<polygon class="melC2
tyrosinase" points="61,40 88,10 88,70" fill="rgb(255,255,255)" fill-opacity="1.0" stroke="rgb(0,0,0)" stroke-width="2"  />
			<g>
				<title>Tyrosinase (PF00264)
"Common central domain of tyrosinase"</title>
				<polygon class="PF00264" points="65,40 76,28 85,28 85,52 76,52 65,40" stroke-linejoin="round" width="20" height="24" fill="rgb(95,226,202)" stroke="rgb(76,180,161)" stroke-width="1" opacity="0.75" />
			</g>
		</g>
		<g>
			<title>melC1
tyrosinase co-factor protein</title>
			<polygon class="melC1
tyrosinase co-factor protein" points="90,40 101,10 101,70" fill="rgb(255,255,255)" fill-opacity="1.0" stroke="rgb(0,0,0)" stroke-width="2"  />
			<g>
				<title>MelC1 (PF06236)
"Tyrosinase co-factor MelC1"</title>
				<polygon class="PF06236" points="93,40 98,28 100,28 100,52 98,52" stroke-linejoin="round" width="10" height="24" fill="rgb(213,63,121)" stroke="rgb(170,50,96)" stroke-width="1" opacity="0.75" />
			</g>
		</g>
		<g>
			<title>
hypothetical protein</title>
			<polygon class="
hypothetical protein" points="111,40 126,10 126,70" fill="rgb(255,255,255)" fill-opacity="1.0" stroke="rgb(0,0,0)" stroke-width="2"  />
		</g>
		<g>
			<title>
putative hydroxylase</title>
			<polygon class="
putative hydroxylase" points="132,25 142,25 142,10 172,40 142,70 142,55 132,55" fill="rgb(255,255,255)" fill-opacity="1.0" stroke="rgb(0,0,0)" stroke-width="2"  />
			<g>
				<title>FAD_binding_3 (PF01494)
"FAD binding domain"</title>
				<polygon class="PF01494" points="141,28 155,28 164,37 164,43 155,52 141,52" stroke-linejoin="round" width="23" height="24" fill="rgb(215,66,156)" stroke="rgb(172,52,124)" stroke-width="1" opacity="0.75" />
			</g>
		</g>
		<g>
			<title>
membrane transport protein</title>
			<polygon class="
membrane transport protein" points="174,25 195,25 195,10 225,40 195,70 195,55 174,55" fill="rgb(255,255,255)" fill-opacity="1.0" stroke="rgb(0,0,0)" stroke-width="2"  />
			<g>
				<title>MFS_1 (PF07690)
"Major Facilitator Superfamily"</title>
				<polygon class="PF07690" points="179,28 209,28 218,37 218,43 209,52 179,52" stroke-linejoin="round" width="39" height="24" fill="rgb(228,207,98)" stroke="rgb(182,165,78)" stroke-width="1" opacity="0.75" />
			</g>
		</g>
	</g>
</svg>
