<svg version="1.1" baseProfile="full" xmlns="http://www.w3.org/2000/svg" width="977.1" height="80">
	<g>
		<line x1="10" y1="40.0" x2="967.1" y2="40.0" style="stroke:rgb(70,70,70); stroke-width:3 "/>
		<g>
			<title>san1
acyl-CoA decarboxylase</title>
			<polygon class="san1
acyl-CoA decarboxylase" points="66,25 40,25 40,10 10,40 40,70 40,55 66,55" fill="rgb(255,255,255)" fill-opacity="1.0" stroke="rgb(0,0,0)" stroke-width="2"  />
			<g>
				<title>Carboxyl_trans (PF01039)
"Carboxyl transferase domain"</title>
				<polygon class="PF01039" points="14,40 26,28 58,28 58,52 26,52" stroke-linejoin="round" width="48" height="24" fill="rgb(185,80,158)" stroke="rgb(148,64,126)" stroke-width="1" opacity="0.75" />
			</g>
		</g>
		<g>
			<title>san2
acyl-ACP-thioesterase</title>
			<polygon class="san2
acyl-ACP-thioesterase" points="69,25 73,25 73,10 103,40 73,70 73,55 69,55" fill="rgb(255,255,255)" fill-opacity="1.0" stroke="rgb(0,0,0)" stroke-width="2"  />
			<g>
				<title>Acyl_transf_1 (PF00698)
"Acyl transferase domain"</title>
				<polygon class="PF00698" points="70,28 87,28 99,40 87,52 70,52" stroke-linejoin="round" width="31" height="24" fill="rgb(132,93,193)" stroke="rgb(105,74,154)" stroke-width="1" opacity="0.75" />
			</g>
		</g>
		<g>
			<title>san3
quinone-forming monooxygenase</title>
			<polygon class="san3
quinone-forming monooxygenase" points="195,25 132,25 132,10 102,40 132,70 132,55 195,55" fill="rgb(255,255,255)" fill-opacity="1.0" stroke="rgb(0,0,0)" stroke-width="2"  />
			<g>
				<title>Cu-oxidase_2 (PF07731)
"Multicopper oxidase"</title>
				<polygon class="PF07731" points="106,40 114,32 114,48" stroke-linejoin="round" width="11" height="24" fill="rgb(188,215,88)" stroke="rgb(150,172,70)" stroke-width="1" opacity="0.75" />
			</g>
			<g>
				<title>Cu-oxidase_3 (PF07732)
"Multicopper oxidase"</title>
				<rect class="PF07732" x="138" y="28" stroke-linejoin="round" width="11" height="24" fill="rgb(174,103,224)" stroke="rgb(139,82,179)" stroke-width="1" opacity="0.75" />
			</g>
		</g>
		<g>
			<title>sanC
3-ketoacyl ACP-reductase</title>
			<polygon class="sanC
3-ketoacyl ACP-reductase" points="199,10 223,40 199,70" fill="rgb(255,255,255)" fill-opacity="1.0" stroke="rgb(0,0,0)" stroke-width="2"  />
			<g>
				<title>adh_short_C2 (PF13561)
"Enoyl-(Acyl carrier protein) reductase"</title>
				<polygon class="PF13561" points="200,28 210,28 219,40 210,52 200,52" stroke-linejoin="round" width="23" height="24" fill="rgb(79,221,209)" stroke="rgb(63,176,167)" stroke-width="1" opacity="0.75" />
			</g>
		</g>
		<g>
			<title>sanT
peptide transporter</title>
			<polygon class="sanT
peptide transporter" points="227,25 248,25 248,10 278,40 248,70 248,55 227,55" fill="rgb(255,255,255)" fill-opacity="1.0" stroke="rgb(0,0,0)" stroke-width="2"  />
			<g>
				<title>PTR2 (PF00854)
"POT family"</title>
				<polygon class="PF00854" points="238,28 261,28 273,40 261,52 238,52" stroke-linejoin="round" width="37" height="24" fill="rgb(196,116,74)" stroke="rgb(156,92,59)" stroke-width="1" opacity="0.75" />
			</g>
		</g>
		<g>
			<title>sanD
polyketide cyclase</title>
			<polygon class="sanD
polyketide cyclase" points="283,10 293,40 283,70" fill="rgb(255,255,255)" fill-opacity="1.0" stroke="rgb(0,0,0)" stroke-width="2"  />
			<g>
				<title>Cyclase_polyket (PF04673)
"Polyketide synthesis cyclase"</title>
				<polygon class="PF04673" points="283,28 285,28 290,40 285,52 283,52" stroke-linejoin="round" width="10" height="24" fill="rgb(97,206,162)" stroke="rgb(77,164,129)" stroke-width="1" opacity="0.75" />
			</g>
		</g>
		<g>
			<title>sanE
polyketide cyclase</title>
			<polygon class="sanE
polyketide cyclase" points="298,10 312,40 298,70" fill="rgb(255,255,255)" fill-opacity="1.0" stroke="rgb(0,0,0)" stroke-width="2"  />
			<g>
				<title>Cupin_2 (PF07883)
"Cupin domain"</title>
				<polygon class="PF07883" points="302,28 303,28 308,40 303,52 302,52" stroke-linejoin="round" width="7" height="24" fill="rgb(191,63,205)" stroke="rgb(152,50,164)" stroke-width="1" opacity="0.75" />
			</g>
		</g>
		<g>
			<title>sanF
ketosynthase</title>
			<polygon class="sanF
ketosynthase" points="312,25 324,25 324,10 354,40 324,70 324,55 312,55" fill="rgb(255,255,255)" fill-opacity="1.0" stroke="rgb(0,0,0)" stroke-width="2"  />
			<g>
				<title>ketoacyl-synt (PF00109)
"Beta-ketoacyl synthase, N-terminal domain"</title>
				<rect class="PF00109" x="312" y="28" stroke-linejoin="round" width="24" height="24" fill="rgb(74,179,82)" stroke="rgb(59,143,65)" stroke-width="1" opacity="0.75" />
			</g>
			<g>
				<title>Ketoacyl-synt_C (PF02801)
"Beta-ketoacyl synthase, C-terminal domain"</title>
				<polygon class="PF02801" points="338,29 349,40 349,40 338,51" stroke-linejoin="round" width="11" height="24" fill="rgb(212,79,72)" stroke="rgb(169,63,57)" stroke-width="1" opacity="0.75" />
			</g>
		</g>
		<g>
			<title>sanG
chain length factor</title>
			<polygon class="sanG
chain length factor" points="354,25 366,25 366,10 396,40 366,70 366,55 354,55" fill="rgb(255,255,255)" fill-opacity="1.0" stroke="rgb(0,0,0)" stroke-width="2"  />
			<g>
				<title>ketoacyl-synt (PF00109)
"Beta-ketoacyl synthase, N-terminal domain"</title>
				<rect class="PF00109" x="356" y="28" stroke-linejoin="round" width="24" height="24" fill="rgb(74,179,82)" stroke="rgb(59,143,65)" stroke-width="1" opacity="0.75" />
			</g>
			<g>
				<title>Ketoacyl-synt_C (PF02801)
"Beta-ketoacyl synthase, C-terminal domain"</title>
				<polygon class="PF02801" points="381,29 392,40 392,40 381,51" stroke-linejoin="round" width="11" height="24" fill="rgb(212,79,72)" stroke="rgb(169,63,57)" stroke-width="1" opacity="0.75" />
			</g>
		</g>
		<g>
			<title>sanH
acyl carrier protein</title>
			<polygon class="sanH
acyl carrier protein" points="401,10 409,40 401,70" fill="rgb(255,255,255)" fill-opacity="1.0" stroke="rgb(0,0,0)" stroke-width="2"  />
			<g>
				<title>PP-binding (PF00550)
"Phosphopantetheine attachment site"</title>
				<polygon class="PF00550" points="401,28 402,28 406,40 402,52 401,52" stroke-linejoin="round" width="7" height="24" fill="rgb(181,58,166)" stroke="rgb(144,46,132)" stroke-width="1" opacity="0.75" />
			</g>
		</g>
		<g>
			<title>sanI
polyketide cyclase/aromatase</title>
			<polygon class="sanI
polyketide cyclase/aromatase" points="409,10 424,40 409,70" fill="rgb(255,255,255)" fill-opacity="1.0" stroke="rgb(0,0,0)" stroke-width="2"  />
			<g>
				<title>Polyketide_cyc (PF03364)
"Polyketide cyclase / dehydrase and lipid transport"</title>
				<polygon class="PF03364" points="410,28 414,28 420,40 414,52 410,52" stroke-linejoin="round" width="13" height="24" fill="rgb(87,54,192)" stroke="rgb(69,43,153)" stroke-width="1" opacity="0.75" />
			</g>
		</g>
		<g>
			<title>sanJ
monooxygenase</title>
			<polygon class="sanJ
monooxygenase" points="424,10 435,40 424,70" fill="rgb(255,255,255)" fill-opacity="1.0" stroke="rgb(0,0,0)" stroke-width="2"  />
			<g>
				<title>ABM (PF03992)
"Antibiotic biosynthesis monooxygenase"</title>
				<polygon class="PF03992" points="424,28 427,28 431,37 431,43 427,52 424,52" stroke-linejoin="round" width="7" height="24" fill="rgb(211,55,142)" stroke="rgb(168,44,113)" stroke-width="1" opacity="0.75" />
			</g>
		</g>
		<g>
			<title>sanK
monooxygenase</title>
			<polygon class="sanK
monooxygenase" points="436,10 450,40 436,70" fill="rgb(255,255,255)" fill-opacity="1.0" stroke="rgb(0,0,0)" stroke-width="2"  />
			<g>
				<title>SCP2 (PF02036)
"SCP-2 sterol transfer family"</title>
				<polygon class="PF02036" points="439,28 441,28 447,40 441,52 439,52" stroke-linejoin="round" width="10" height="24" fill="rgb(149,55,182)" stroke="rgb(119,44,145)" stroke-width="1" opacity="0.75" />
			</g>
		</g>
		<g>
			<title>sanL
monooxygenase</title>
			<polygon class="sanL
monooxygenase" points="458,40 482,10 482,70" fill="rgb(255,255,255)" fill-opacity="1.0" stroke="rgb(0,0,0)" stroke-width="2"  />
			<g>
				<title>SchA_CurD (PF04486)
"SchA/CurD like domain"</title>
				<polygon class="PF04486" points="462,40 469,31 469,49" stroke-linejoin="round" width="11" height="24" fill="rgb(162,226,64)" stroke="rgb(129,180,51)" stroke-width="1" opacity="0.75" />
			</g>
			<g>
				<title>SchA_CurD (PF04486)
"SchA/CurD like domain"</title>
				<polygon class="PF04486" points="470,30 472,28 482,28 482,52 472,52 470,50" stroke-linejoin="round" width="12" height="24" fill="rgb(162,226,64)" stroke="rgb(129,180,51)" stroke-width="1" opacity="0.75" />
			</g>
		</g>
		<g>
			<title>sanM
hydroxylase</title>
			<polygon class="sanM
hydroxylase" points="487,40 501,10 501,70" fill="rgb(255,255,255)" fill-opacity="1.0" stroke="rgb(0,0,0)" stroke-width="2"  />
			<g>
				<title>Anthrone_oxy (PF08592)
"Anthrone oxygenase"</title>
				<polygon class="PF08592" points="490,40 496,28 497,28 497,52 496,52" stroke-linejoin="round" width="9" height="24" fill="rgb(94,203,219)" stroke="rgb(75,162,175)" stroke-width="1" opacity="0.75" />
			</g>
		</g>
		<g>
			<title>sanM1
hydroxylase</title>
			<polygon class="sanM1
hydroxylase" points="509,10 524,40 509,70" fill="rgb(255,255,255)" fill-opacity="1.0" stroke="rgb(0,0,0)" stroke-width="2"  />
			<g>
				<title>Anthrone_oxy (PF08592)
"Anthrone oxygenase"</title>
				<polygon class="PF08592" points="513,28 514,28 521,40 514,52 513,52" stroke-linejoin="round" width="9" height="24" fill="rgb(94,203,219)" stroke="rgb(75,162,175)" stroke-width="1" opacity="0.75" />
			</g>
		</g>
		<g>
			<title>sanN
O-methyltransferase</title>
			<polygon class="sanN
O-methyltransferase" points="531,25 536,25 536,10 566,40 536,70 536,55 531,55" fill="rgb(255,255,255)" fill-opacity="1.0" stroke="rgb(0,0,0)" stroke-width="2"  />
			<g>
				<title>Methyltransf_2 (PF00891)
"O-methyltransferase domain"</title>
				<polygon class="PF00891" points="543,28 549,28 561,40 549,52 543,52" stroke-linejoin="round" width="20" height="24" fill="rgb(91,124,224)" stroke="rgb(72,99,179)" stroke-width="1" opacity="0.75" />
			</g>
		</g>
		<g>
			<title>sanO
ketoreductase</title>
			<polygon class="sanO
ketoreductase" points="570,10 595,40 570,70" fill="rgb(255,255,255)" fill-opacity="1.0" stroke="rgb(0,0,0)" stroke-width="2"  />
			<g>
				<title>adh_short_C2 (PF13561)
"Enoyl-(Acyl carrier protein) reductase"</title>
				<polygon class="PF13561" points="571,28 581,28 591,40 581,52 571,52" stroke-linejoin="round" width="23" height="24" fill="rgb(79,221,209)" stroke="rgb(63,176,167)" stroke-width="1" opacity="0.75" />
			</g>
		</g>
		<g>
			<title>sanP
monooxygenase</title>
			<polygon class="sanP
monooxygenase" points="594,10 604,40 594,70" fill="rgb(255,255,255)" fill-opacity="1.0" stroke="rgb(0,0,0)" stroke-width="2"  />
			<g>
				<title>ABM (PF03992)
"Antibiotic biosynthesis monooxygenase"</title>
				<polygon class="PF03992" points="595,28 596,28 601,40 596,52 595,52" stroke-linejoin="round" width="7" height="24" fill="rgb(211,55,142)" stroke="rgb(168,44,113)" stroke-width="1" opacity="0.75" />
			</g>
		</g>
		<g>
			<title>sanQ
monooxygenase</title>
			<polygon class="sanQ
monooxygenase" points="605,10 615,40 605,70" fill="rgb(255,255,255)" fill-opacity="1.0" stroke="rgb(0,0,0)" stroke-width="2"  />
			<g>
				<title>ABM (PF03992)
"Antibiotic biosynthesis monooxygenase"</title>
				<polygon class="PF03992" points="605,28 607,28 612,39 612,41 607,52 605,52" stroke-linejoin="round" width="7" height="24" fill="rgb(211,55,142)" stroke="rgb(168,44,113)" stroke-width="1" opacity="0.75" />
			</g>
		</g>
		<g>
			<title>sanS
3-ketoacyl ACP-synthase</title>
			<polygon class="sanS
3-ketoacyl ACP-synthase" points="653,25 650,25 650,10 620,40 650,70 650,55 653,55" fill="rgb(255,255,255)" fill-opacity="1.0" stroke="rgb(0,0,0)" stroke-width="2"  />
			<g>
				<title>ACP_syn_III_C (PF08541)
"3-Oxoacyl-[acyl-carrier-protein (ACP)] synthase III C terminal"</title>
				<polygon class="PF08541" points="624,40 629,35 629,45" stroke-linejoin="round" width="9" height="24" fill="rgb(223,111,121)" stroke="rgb(178,88,96)" stroke-width="1" opacity="0.75" />
			</g>
			<g>
				<title>ACP_syn_III (PF08545)
"3-Oxoacyl-[acyl-carrier-protein (ACP)] synthase III"</title>
				<polygon class="PF08545" points="634,30 636,28 641,28 641,52 636,52 634,50" stroke-linejoin="round" width="7" height="24" fill="rgb(93,213,73)" stroke="rgb(74,170,58)" stroke-width="1" opacity="0.75" />
			</g>
		</g>
		<g>
			<title>sanT1
transporter</title>
			<polygon class="sanT1
transporter" points="687,25 684,25 684,10 654,40 684,70 684,55 687,55" fill="rgb(255,255,255)" fill-opacity="1.0" stroke="rgb(0,0,0)" stroke-width="2"  />
		</g>
		<g>
			<title>sanX
hypothetical protein</title>
			<polygon class="sanX
hypothetical protein" points="696,10 706,40 696,70" fill="rgb(255,255,255)" fill-opacity="1.0" stroke="rgb(0,0,0)" stroke-width="2"  />
		</g>
		<g>
			<title>sanR
regulator</title>
			<polygon class="sanR
regulator" points="715,40 729,10 729,70" fill="rgb(255,255,255)" fill-opacity="1.0" stroke="rgb(0,0,0)" stroke-width="2"  />
			<g>
				<title>MarR_2 (PF12802)
"MarR family"</title>
				<polygon class="PF12802" points="720,36 724,28 726,28 726,52 724,52 720,44" stroke-linejoin="round" width="6" height="24" fill="rgb(139,211,68)" stroke="rgb(111,168,54)" stroke-width="1" opacity="0.75" />
			</g>
		</g>
		<g>
			<title>sanU
hypothetical protein</title>
			<polygon class="sanU
hypothetical protein" points="738,10 752,40 738,70" fill="rgb(255,255,255)" fill-opacity="1.0" stroke="rgb(0,0,0)" stroke-width="2"  />
			<g>
				<title>DUF6069 (PF19545)
"Family of unknown function (DUF6069)"</title>
				<polygon class="PF19545" points="738,28 743,28 749,40 743,52 738,52" stroke-linejoin="round" width="13" height="24" fill="rgb(76,57,222)" stroke="rgb(60,45,177)" stroke-width="1" opacity="0.75" />
			</g>
		</g>
		<g>
			<title>sanV
asparagine synthetase</title>
			<polygon class="sanV
asparagine synthetase" points="757,25 790,25 790,10 820,40 790,70 790,55 757,55" fill="rgb(255,255,255)" fill-opacity="1.0" stroke="rgb(0,0,0)" stroke-width="2"  />
			<g>
				<title>GATase_6 (PF13522)
"Glutamine amidotransferase domain"</title>
				<rect class="PF13522" x="760" y="28" stroke-linejoin="round" width="14" height="24" fill="rgb(227,106,138)" stroke="rgb(181,84,110)" stroke-width="1" opacity="0.75" />
			</g>
			<g>
				<title>Asn_synthase (PF00733)
"Asparagine synthase"</title>
				<polygon class="PF00733" points="782,28 804,28 816,40 804,52 782,52" stroke-linejoin="round" width="37" height="24" fill="rgb(200,91,135)" stroke="rgb(160,72,108)" stroke-width="1" opacity="0.75" />
			</g>
		</g>
		<g>
			<title>sanR1
regulator</title>
			<polygon class="sanR1
regulator" points="889,25 858,25 858,10 828,40 858,70 858,55 889,55" fill="rgb(255,255,255)" fill-opacity="1.0" stroke="rgb(0,0,0)" stroke-width="2"  />
			<g>
				<title>BTAD (PF03704)
"Bacterial transcriptional activator domain"</title>
				<rect class="PF03704" x="863" y="28" stroke-linejoin="round" width="14" height="24" fill="rgb(174,224,58)" stroke="rgb(139,179,46)" stroke-width="1" opacity="0.75" />
			</g>
			<g>
				<title>Trans_reg_C (PF00486)
"Transcriptional regulatory protein, C terminal"</title>
				<rect class="PF00486" x="880" y="28" stroke-linejoin="round" width="6" height="24" fill="rgb(69,185,116)" stroke="rgb(55,148,92)" stroke-width="1" opacity="0.75" />
			</g>
		</g>
		<g>
			<title>sanT2
transporter</title>
			<polygon class="sanT2
transporter" points="896,25 917,25 917,10 947,40 917,70 917,55 896,55" fill="rgb(255,255,255)" fill-opacity="1.0" stroke="rgb(0,0,0)" stroke-width="2"  />
			<g>
				<title>MFS_1 (PF07690)
"Major Facilitator Superfamily"</title>
				<polygon class="PF07690" points="899,28 930,28 938,36 938,44 930,52 899,52" stroke-linejoin="round" width="39" height="24" fill="rgb(228,207,98)" stroke="rgb(182,165,78)" stroke-width="1" opacity="0.75" />
			</g>
		</g>
		<g>
			<title>sanW
phosphopantetheinyl transferase</title>
			<polygon class="sanW
phosphopantetheinyl transferase" points="951,10 967,40 951,70" fill="rgb(255,255,255)" fill-opacity="1.0" stroke="rgb(0,0,0)" stroke-width="2"  />
			<g>
				<title>ACPS (PF01648)
"4'-phosphopantetheinyl transferase superfamily"</title>
				<polygon class="PF01648" points="955,28 957,28 963,40 957,52 955,52" stroke-linejoin="round" width="11" height="24" fill="rgb(58,190,78)" stroke="rgb(46,152,62)" stroke-width="1" opacity="0.75" />
			</g>
		</g>
	</g>
</svg>
