<svg version="1.1" baseProfile="full" xmlns="http://www.w3.org/2000/svg" width="675.1" height="80">
	<g>
		<line x1="10" y1="40.0" x2="665.1" y2="40.0" style="stroke:rgb(70,70,70); stroke-width:3 "/>
		<g>
			<title>mxcA
MxcA</title>
			<polygon class="mxcA
MxcA" points="16,25 18,25 18,10 48,40 18,70 18,55 16,55" fill="rgb(255,255,255)" fill-opacity="1.0" stroke="rgb(0,0,0)" stroke-width="2"  />
			<g>
				<title>Aldo_ket_red (PF00248)
"Aldo/keto reductase family"</title>
				<polygon class="PF00248" points="17,28 32,28 44,40 32,52 17,52" stroke-linejoin="round" width="28" height="24" fill="rgb(96,196,138)" stroke="rgb(76,156,110)" stroke-width="1" opacity="0.75" />
			</g>
		</g>
		<g>
			<title>mxcB
MxcB</title>
			<polygon class="mxcB
MxcB" points="52,10 79,40 52,70" fill="rgb(255,255,255)" fill-opacity="1.0" stroke="rgb(0,0,0)" stroke-width="2"  />
			<g>
				<title>FAD_binding_9 (PF08021)
"Siderophore-interacting FAD-binding domain"</title>
				<polygon class="PF08021" points="54,28 63,28 65,29 65,51 63,52 54,52" stroke-linejoin="round" width="11" height="24" fill="rgb(217,82,174)" stroke="rgb(173,65,139)" stroke-width="1" opacity="0.75" />
			</g>
			<g>
				<title>SIP (PF04954)
"Siderophore-interacting protein"</title>
				<polygon class="PF04954" points="66,30 75,40 66,50" stroke-linejoin="round" width="11" height="24" fill="rgb(219,115,58)" stroke="rgb(175,92,46)" stroke-width="1" opacity="0.75" />
			</g>
		</g>
		<g>
			<title>mxcC
MxcC</title>
			<polygon class="mxcC
MxcC" points="87,10 112,40 87,70" fill="rgb(255,255,255)" fill-opacity="1.0" stroke="rgb(0,0,0)" stroke-width="2"  />
			<g>
				<title>adh_short (PF00106)
"short chain dehydrogenase"</title>
				<polygon class="PF00106" points="87,28 98,28 106,37 106,43 98,52 87,52" stroke-linejoin="round" width="19" height="24" fill="rgb(128,81,196)" stroke="rgb(102,64,156)" stroke-width="1" opacity="0.75" />
			</g>
		</g>
		<g>
			<title>mxcD
MxcD</title>
			<polygon class="mxcD
MxcD" points="117,25 127,25 127,10 157,40 127,70 127,55 117,55" fill="rgb(255,255,255)" fill-opacity="1.0" stroke="rgb(0,0,0)" stroke-width="2"  />
			<g>
				<title>Chorismate_bind (PF00425)
"chorismate binding enzyme"</title>
				<polygon class="PF00425" points="129,28 141,28 153,40 141,52 129,52" stroke-linejoin="round" width="26" height="24" fill="rgb(126,181,77)" stroke="rgb(100,144,61)" stroke-width="1" opacity="0.75" />
			</g>
		</g>
		<g>
			<title>mxcE
MxcE</title>
			<polygon class="mxcE
MxcE" points="158,25 182,25 182,10 212,40 182,70 182,55 158,55" fill="rgb(255,255,255)" fill-opacity="1.0" stroke="rgb(0,0,0)" stroke-width="2"  />
			<g>
				<title>AMP-binding (PF00501)
"AMP-binding enzyme"</title>
				<polygon class="PF00501" points="162,28 196,28 198,30 198,50 196,52 162,52" stroke-linejoin="round" width="36" height="24" fill="rgb(189,78,204)" stroke="rgb(151,62,163)" stroke-width="1" opacity="0.75" />
			</g>
			<g>
				<title>AMP-binding_C (PF13193)
"AMP-binding enzyme C-terminal domain"</title>
				<polygon class="PF13193" points="203,35 208,40 203,45" stroke-linejoin="round" width="7" height="24" fill="rgb(195,82,106)" stroke="rgb(156,65,84)" stroke-width="1" opacity="0.75" />
			</g>
		</g>
		<g>
			<title>mxcF
MxcF</title>
			<polygon class="mxcF
MxcF" points="215,25 216,25 216,10 246,40 216,70 216,55 215,55" fill="rgb(255,255,255)" fill-opacity="1.0" stroke="rgb(0,0,0)" stroke-width="2"  />
			<g>
				<title>Isochorismatase (PF00857)
"Isochorismatase family"</title>
				<polygon class="PF00857" points="218,28 229,28 235,34 235,46 229,52 218,52" stroke-linejoin="round" width="17" height="24" fill="rgb(82,216,163)" stroke="rgb(65,172,130)" stroke-width="1" opacity="0.75" />
			</g>
			<g>
				<title>PP-binding (PF00550)
"Phosphopantetheine attachment site"</title>
				<polygon class="PF00550" points="237,36 241,40 237,44" stroke-linejoin="round" width="6" height="24" fill="rgb(181,58,166)" stroke="rgb(144,46,132)" stroke-width="1" opacity="0.75" />
			</g>
		</g>
		<g>
			<title>mxcG
MxcG</title>
			<polygon class="mxcG
MxcG" points="248,25 363,25 363,10 393,40 363,70 363,55 248,55" fill="rgb(255,255,255)" fill-opacity="1.0" stroke="rgb(0,0,0)" stroke-width="2"  />
			<g>
				<title>Condensation (PF00668)
"Condensation domain"</title>
				<rect class="PF00668" x="248" y="28" stroke-linejoin="round" width="43" height="24" fill="rgb(172,217,60)" stroke="rgb(137,173,47)" stroke-width="1" opacity="0.75" />
			</g>
			<g>
				<title>AMP-binding (PF00501)
"AMP-binding enzyme"</title>
				<rect class="PF00501" x="294" y="28" stroke-linejoin="round" width="35" height="24" fill="rgb(189,78,204)" stroke="rgb(151,62,163)" stroke-width="1" opacity="0.75" />
			</g>
			<g>
				<title>AMP-binding_C (PF13193)
"AMP-binding enzyme C-terminal domain"</title>
				<rect class="PF13193" x="335" y="28" stroke-linejoin="round" width="7" height="24" fill="rgb(195,82,106)" stroke="rgb(156,65,84)" stroke-width="1" opacity="0.75" />
			</g>
			<g>
				<title>PP-binding (PF00550)
"Phosphopantetheine attachment site"</title>
				<rect class="PF00550" x="345" y="28" stroke-linejoin="round" width="6" height="24" fill="rgb(181,58,166)" stroke="rgb(144,46,132)" stroke-width="1" opacity="0.75" />
			</g>
			<g>
				<title>NAD_binding_4 (PF07993)
"Male sterility protein"</title>
				<polygon class="PF07993" points="357,28 377,28 380,31 380,49 377,52 357,52" stroke-linejoin="round" width="23" height="24" fill="rgb(210,94,130)" stroke="rgb(168,75,103)" stroke-width="1" opacity="0.75" />
			</g>
		</g>
		<g>
			<title>aroAA5
AroAA5</title>
			<polygon class="aroAA5
AroAA5" points="395,25 412,25 412,10 442,40 412,70 412,55 395,55" fill="rgb(255,255,255)" fill-opacity="1.0" stroke="rgb(0,0,0)" stroke-width="2"  />
			<g>
				<title>DAHP_synth_2 (PF01474)
"Class-II DAHP synthetase family"</title>
				<polygon class="PF01474" points="395,28 426,28 438,40 438,40 426,52 395,52" stroke-linejoin="round" width="43" height="24" fill="rgb(57,77,225)" stroke="rgb(45,61,180)" stroke-width="1" opacity="0.75" />
			</g>
		</g>
		<g>
			<title>mxcH
MxcH</title>
			<polygon class="mxcH
MxcH" points="443,25 500,25 500,10 530,40 500,70 500,55 443,55" fill="rgb(255,255,255)" fill-opacity="1.0" stroke="rgb(0,0,0)" stroke-width="2"  />
			<g>
				<title>TonB_C (PF03544)
"Gram-negative bacterial TonB protein C-terminal"</title>
				<rect class="PF03544" x="451" y="28" stroke-linejoin="round" width="7" height="24" fill="rgb(217,155,59)" stroke="rgb(173,123,47)" stroke-width="1" opacity="0.75" />
			</g>
			<g>
				<title>Plug (PF07715)
"TonB-dependent Receptor Plug Domain"</title>
				<rect class="PF07715" x="463" y="28" stroke-linejoin="round" width="10" height="24" fill="rgb(66,186,52)" stroke="rgb(52,148,41)" stroke-width="1" opacity="0.75" />
			</g>
		</g>
		<g>
			<title>mxcI
MxcI</title>
			<polygon class="mxcI
MxcI" points="531,25 542,25 542,10 572,40 542,70 542,55 531,55" fill="rgb(255,255,255)" fill-opacity="1.0" stroke="rgb(0,0,0)" stroke-width="2"  />
		</g>
		<g>
			<title>mxcK
MxcK</title>
			<polygon class="mxcK
MxcK" points="580,25 590,25 590,10 620,40 590,70 590,55 580,55" fill="rgb(255,255,255)" fill-opacity="1.0" stroke="rgb(0,0,0)" stroke-width="2"  />
			<g>
				<title>MFS_1 (PF07690)
"Major Facilitator Superfamily"</title>
				<rect class="PF07690" x="581" y="28" stroke-linejoin="round" width="20" height="24" fill="rgb(228,207,98)" stroke="rgb(182,165,78)" stroke-width="1" opacity="0.75" />
			</g>
			<g>
				<title>MFS_1 (PF07690)
"Major Facilitator Superfamily"</title>
				<polygon class="PF07690" points="601,28 604,28 616,40 604,52 601,52" stroke-linejoin="round" width="18" height="24" fill="rgb(228,207,98)" stroke="rgb(182,165,78)" stroke-width="1" opacity="0.75" />
			</g>
		</g>
		<g>
			<title>mxcL
MxcL</title>
			<polygon class="mxcL
MxcL" points="623,25 635,25 635,10 665,40 635,70 635,55 623,55" fill="rgb(255,255,255)" fill-opacity="1.0" stroke="rgb(0,0,0)" stroke-width="2"  />
			<g>
				<title>Aminotran_3 (PF00202)
"Aminotransferase class-III"</title>
				<polygon class="PF00202" points="627,28 648,28 660,40 648,52 627,52" stroke-linejoin="round" width="34" height="24" fill="rgb(182,63,213)" stroke="rgb(145,50,170)" stroke-width="1" opacity="0.75" />
			</g>
		</g>
	</g>
</svg>
