<svg version="1.1" baseProfile="full" xmlns="http://www.w3.org/2000/svg" width="1264.5666666666666" height="80">
	<g>
		<line x1="10" y1="40.0" x2="1254.5666666666666" y2="40.0" style="stroke:rgb(70,70,70); stroke-width:3 "/>
		<g>
			<title>
putative transcription antitermination regulator</title>
			<polygon class="
putative transcription antitermination regulator" points="74,25 78,25 78,10 108,40 78,70 78,55 74,55" fill="rgb(255,255,255)" fill-opacity="1.0" stroke="rgb(0,0,0)" stroke-width="2"  />
			<g>
				<title>ANTAR (PF03861)
"ANTAR domain"</title>
				<polygon class="PF03861" points="102,38 104,40 102,42" stroke-linejoin="round" width="5" height="24" fill="rgb(110,223,124)" stroke="rgb(88,178,99)" stroke-width="1" opacity="0.75" />
			</g>
		</g>
		<g>
			<title>
Mg or Mn-dependent protein phosphatase</title>
			<polygon class="
Mg or Mn-dependent protein phosphatase" points="172,25 181,25 181,10 211,40 181,70 181,55 172,55" fill="rgb(255,255,255)" fill-opacity="1.0" stroke="rgb(0,0,0)" stroke-width="2"  />
			<g>
				<title>SpoIIE (PF07228)
"Stage II sporulation protein E (SpoIIE)"</title>
				<polygon class="PF07228" points="192,28 195,28 207,40 195,52 192,52" stroke-linejoin="round" width="18" height="24" fill="rgb(205,53,111)" stroke="rgb(164,42,88)" stroke-width="1" opacity="0.75" />
			</g>
		</g>
		<g>
			<title>amiA
PabC</title>
			<polygon class="amiA
PabC" points="273,10 299,40 273,70" fill="rgb(255,255,255)" fill-opacity="1.0" stroke="rgb(0,0,0)" stroke-width="2"  />
			<g>
				<title>Aminotran_4 (PF01063)
"Amino-transferase class IV"</title>
				<polygon class="PF01063" points="275,28 284,28 295,40 284,52 275,52" stroke-linejoin="round" width="21" height="24" fill="rgb(181,68,119)" stroke="rgb(144,54,95)" stroke-width="1" opacity="0.75" />
			</g>
		</g>
		<g>
			<title>amiB
NDP-sugar aminotransferase</title>
			<polygon class="amiB
NDP-sugar aminotransferase" points="315,25 322,25 322,10 352,40 322,70 322,55 315,55" fill="rgb(255,255,255)" fill-opacity="1.0" stroke="rgb(0,0,0)" stroke-width="2"  />
			<g>
				<title>DegT_DnrJ_EryC1 (PF01041)
"DegT/DnrJ/EryC1/StrS aminotransferase family"</title>
				<polygon class="PF01041" points="316,28 336,28 348,40 336,52 316,52" stroke-linejoin="round" width="35" height="24" fill="rgb(228,110,183)" stroke="rgb(182,88,146)" stroke-width="1" opacity="0.75" />
			</g>
		</g>
		<g>
			<title>amic
NDP-hexose 2,3-dehydratase</title>
			<polygon class="amic
NDP-hexose 2,3-dehydratase" points="352,25 367,25 367,10 397,40 367,70 367,55 352,55" fill="rgb(255,255,255)" fill-opacity="1.0" stroke="rgb(0,0,0)" stroke-width="2"  />
			<g>
				<title>Hexose_dehydrat (PF03559)
"NDP-hexose 2,3-dehydratase"</title>
				<rect class="PF03559" x="354" y="28" stroke-linejoin="round" width="20" height="24" fill="rgb(56,139,184)" stroke="rgb(44,111,147)" stroke-width="1" opacity="0.75" />
			</g>
			<g>
				<title>Hexose_dehydrat (PF03559)
"NDP-hexose 2,3-dehydratase"</title>
				<polygon class="PF03559" points="377,28 381,28 393,40 381,52 377,52" stroke-linejoin="round" width="19" height="24" fill="rgb(56,139,184)" stroke="rgb(44,111,147)" stroke-width="1" opacity="0.75" />
			</g>
		</g>
		<g>
			<title>amiD
NDP-hexose 3-ketoreductase</title>
			<polygon class="amiD
NDP-hexose 3-ketoreductase" points="398,25 400,25 400,10 430,40 400,70 400,55 398,55" fill="rgb(255,255,255)" fill-opacity="1.0" stroke="rgb(0,0,0)" stroke-width="2"  />
			<g>
				<title>GFO_IDH_MocA (PF01408)
"Oxidoreductase family, NAD-binding Rossmann fold"</title>
				<rect class="PF01408" x="398" y="28" stroke-linejoin="round" width="11" height="24" fill="rgb(53,193,178)" stroke="rgb(42,154,142)" stroke-width="1" opacity="0.75" />
			</g>
		</g>
		<g>
			<title>amiE
glucose-1-phosphate thymidylyltransferase</title>
			<polygon class="amiE
glucose-1-phosphate thymidylyltransferase" points="435,10 460,40 435,70" fill="rgb(255,255,255)" fill-opacity="1.0" stroke="rgb(0,0,0)" stroke-width="2"  />
			<g>
				<title>NTP_transferase (PF00483)
"Nucleotidyl transferase"</title>
				<polygon class="PF00483" points="436,28 446,28 456,40 446,52 436,52" stroke-linejoin="round" width="24" height="24" fill="rgb(211,145,90)" stroke="rgb(168,116,72)" stroke-width="1" opacity="0.75" />
			</g>
		</g>
		<g>
			<title>amiF
GCN5-like N-acetyltransferase</title>
			<polygon class="amiF
GCN5-like N-acetyltransferase" points="463,25 479,25 479,10 509,40 479,70 479,55 463,55" fill="rgb(255,255,255)" fill-opacity="1.0" stroke="rgb(0,0,0)" stroke-width="2"  />
			<g>
				<title>Acetyltransf_1 (PF00583)
"Acetyltransferase (GNAT) family"</title>
				<rect class="PF00583" x="467" y="28" stroke-linejoin="round" width="11" height="24" fill="rgb(91,221,217)" stroke="rgb(72,176,173)" stroke-width="1" opacity="0.75" />
			</g>
		</g>
		<g>
			<title>amiG
glycosyltransferase</title>
			<polygon class="amiG
glycosyltransferase" points="511,25 530,25 530,10 560,40 530,70 530,55 511,55" fill="rgb(255,255,255)" fill-opacity="1.0" stroke="rgb(0,0,0)" stroke-width="2"  />
			<g>
				<title>Glyco_trans_4_4 (PF13579)
"Glycosyl transferase 4-like domain"</title>
				<rect class="PF13579" x="512" y="28" stroke-linejoin="round" width="16" height="24" fill="rgb(109,95,198)" stroke="rgb(87,76,158)" stroke-width="1" opacity="0.75" />
			</g>
			<g>
				<title>Glycos_transf_1 (PF00534)
"Glycosyl transferases group 1"</title>
				<polygon class="PF00534" points="529,28 544,28 545,29 545,51 544,52 529,52" stroke-linejoin="round" width="16" height="24" fill="rgb(66,178,218)" stroke="rgb(52,142,174)" stroke-width="1" opacity="0.75" />
			</g>
		</g>
		<g>
			<title>amiH
NDP-aminohexose N-dimethyltransferase</title>
			<polygon class="amiH
NDP-aminohexose N-dimethyltransferase" points="560,10 585,40 560,70" fill="rgb(255,255,255)" fill-opacity="1.0" stroke="rgb(0,0,0)" stroke-width="2"  />
			<g>
				<title>Methyltransf_23 (PF13489)
"Methyltransferase domain"</title>
				<polygon class="PF13489" points="562,28 571,28 581,40 581,40 571,52 562,52" stroke-linejoin="round" width="19" height="24" fill="rgb(62,214,70)" stroke="rgb(49,171,56)" stroke-width="1" opacity="0.75" />
			</g>
		</g>
		<g>
			<title>amiI
deoxy cytidine deoxyribosyltransferase</title>
			<polygon class="amiI
deoxy cytidine deoxyribosyltransferase" points="585,10 603,40 585,70" fill="rgb(255,255,255)" fill-opacity="1.0" stroke="rgb(0,0,0)" stroke-width="2"  />
			<g>
				<title>Nuc_deoxyrib_tr (PF05014)
"Nucleoside 2-deoxyribosyltransferase"</title>
				<polygon class="PF05014" points="586,28 592,28 599,39 599,41 592,52 586,52" stroke-linejoin="round" width="13" height="24" fill="rgb(216,79,129)" stroke="rgb(172,63,103)" stroke-width="1" opacity="0.75" />
			</g>
		</g>
		<g>
			<title>amiJ
cytosylglucuronic acid synthase/glycosyltransferase</title>
			<polygon class="amiJ
cytosylglucuronic acid synthase/glycosyltransferase" points="604,25 614,25 614,10 644,40 614,70 614,55 604,55" fill="rgb(255,255,255)" fill-opacity="1.0" stroke="rgb(0,0,0)" stroke-width="2"  />
		</g>
		<g>
			<title>amiK
NDP-hexose 4-ketoreductase</title>
			<polygon class="amiK
NDP-hexose 4-ketoreductase" points="644,25 645,25 645,10 675,40 645,70 645,55 644,55" fill="rgb(255,255,255)" fill-opacity="1.0" stroke="rgb(0,0,0)" stroke-width="2"  />
			<g>
				<title>Epimerase (PF01370)
"NAD dependent epimerase/dehydratase family"</title>
				<polygon class="PF01370" points="644,28 659,28 667,36 667,44 659,52 644,52" stroke-linejoin="round" width="23" height="24" fill="rgb(215,89,157)" stroke="rgb(172,71,125)" stroke-width="1" opacity="0.75" />
			</g>
		</g>
		<g>
			<title>amiL
benzoate-CoA synthase</title>
			<polygon class="amiL
benzoate-CoA synthase" points="677,25 696,25 696,10 726,40 696,70 696,55 677,55" fill="rgb(255,255,255)" fill-opacity="1.0" stroke="rgb(0,0,0)" stroke-width="2"  />
			<g>
				<title>AMP-binding (PF00501)
"AMP-binding enzyme"</title>
				<polygon class="PF00501" points="678,28 710,28 711,29 711,51 710,52 678,52" stroke-linejoin="round" width="33" height="24" fill="rgb(189,78,204)" stroke="rgb(151,62,163)" stroke-width="1" opacity="0.75" />
			</g>
			<g>
				<title>AMP-binding_C (PF13193)
"AMP-binding enzyme C-terminal domain"</title>
				<polygon class="PF13193" points="717,35 722,40 717,45" stroke-linejoin="round" width="7" height="24" fill="rgb(195,82,106)" stroke="rgb(156,65,84)" stroke-width="1" opacity="0.75" />
			</g>
		</g>
		<g>
			<title>amiM
PABA synthase</title>
			<polygon class="amiM
PABA synthase" points="727,25 764,25 764,10 794,40 764,70 764,55 727,55" fill="rgb(255,255,255)" fill-opacity="1.0" stroke="rgb(0,0,0)" stroke-width="2"  />
			<g>
				<title>GATase (PF00117)
"Glutamine amidotransferase class-I"</title>
				<rect class="PF00117" x="727" y="28" stroke-linejoin="round" width="18" height="24" fill="rgb(54,118,198)" stroke="rgb(43,94,158)" stroke-width="1" opacity="0.75" />
			</g>
			<g>
				<title>Anth_synt_I_N (PF04715)
"Anthranilate synthase component I, N terminal region"</title>
				<rect class="PF04715" x="749" y="28" stroke-linejoin="round" width="13" height="24" fill="rgb(224,152,88)" stroke="rgb(179,121,70)" stroke-width="1" opacity="0.75" />
			</g>
			<g>
				<title>Chorismate_bind (PF00425)
"chorismate binding enzyme"</title>
				<polygon class="PF00425" points="768,28 778,28 790,40 778,52 768,52" stroke-linejoin="round" width="25" height="24" fill="rgb(126,181,77)" stroke="rgb(100,144,61)" stroke-width="1" opacity="0.75" />
			</g>
		</g>
		<g>
			<title>amiN
CDP-4-keto-6-deoxyglucose-3-dehydratase</title>
			<polygon class="amiN
CDP-4-keto-6-deoxyglucose-3-dehydratase" points="796,25 810,25 810,10 840,40 810,70 810,55 796,55" fill="rgb(255,255,255)" fill-opacity="1.0" stroke="rgb(0,0,0)" stroke-width="2"  />
			<g>
				<title>DegT_DnrJ_EryC1 (PF01041)
"DegT/DnrJ/EryC1/StrS aminotransferase family"</title>
				<polygon class="PF01041" points="799,28 823,28 835,40 823,52 799,52" stroke-linejoin="round" width="38" height="24" fill="rgb(228,110,183)" stroke="rgb(182,88,146)" stroke-width="1" opacity="0.75" />
			</g>
		</g>
		<g>
			<title>amiO
ABC transporter</title>
			<polygon class="amiO
ABC transporter" points="842,25 868,25 868,10 898,40 868,70 868,55 842,55" fill="rgb(255,255,255)" fill-opacity="1.0" stroke="rgb(0,0,0)" stroke-width="2"  />
			<g>
				<title>ABC_tran (PF00005)
"ABC transporter"</title>
				<rect class="PF00005" x="844" y="28" stroke-linejoin="round" width="16" height="24" fill="rgb(46,186,108)" stroke="rgb(36,148,86)" stroke-width="1" opacity="0.75" />
			</g>
			<g>
				<title>ABC_tran (PF00005)
"ABC transporter"</title>
				<polygon class="PF00005" points="876,28 881,28 891,38 891,42 881,52 876,52" stroke-linejoin="round" width="15" height="24" fill="rgb(46,186,108)" stroke="rgb(36,148,86)" stroke-width="1" opacity="0.75" />
			</g>
		</g>
		<g>
			<title>amiP
TetR family transcriptional regulator</title>
			<polygon class="amiP
TetR family transcriptional regulator" points="909,10 930,40 909,70" fill="rgb(255,255,255)" fill-opacity="1.0" stroke="rgb(0,0,0)" stroke-width="2"  />
			<g>
				<title>TetR_N (PF00440)
"Bacterial regulatory proteins, tetR family"</title>
				<rect class="PF00440" x="910" y="28" stroke-linejoin="round" width="4" height="24" fill="rgb(148,50,185)" stroke="rgb(118,40,148)" stroke-width="1" opacity="0.75" />
			</g>
			<g>
				<title>TetR_C_6 (PF13977)
"BetI-type transcriptional repressor, C-terminal"</title>
				<polygon class="PF13977" points="917,28 918,28 926,40 918,52 917,52" stroke-linejoin="round" width="10" height="24" fill="rgb(196,90,180)" stroke="rgb(156,72,144)" stroke-width="1" opacity="0.75" />
			</g>
		</g>
		<g>
			<title>amiQ
major facilitator superfamily transporter</title>
			<polygon class="amiQ
major facilitator superfamily transporter" points="932,25 941,25 941,10 971,40 941,70 941,55 932,55" fill="rgb(255,255,255)" fill-opacity="1.0" stroke="rgb(0,0,0)" stroke-width="2"  />
			<g>
				<title>MFS_1 (PF07690)
"Major Facilitator Superfamily"</title>
				<polygon class="PF07690" points="932,28 955,28 963,36 963,44 955,52 932,52" stroke-linejoin="round" width="31" height="24" fill="rgb(228,207,98)" stroke="rgb(182,165,78)" stroke-width="1" opacity="0.75" />
			</g>
		</g>
		<g>
			<title>amiR
malonyl CoA-acyl carrier protein transacylase</title>
			<polygon class="amiR
malonyl CoA-acyl carrier protein transacylase" points="974,25 974,25 974,10 1004,40 974,70 974,55 974,55" fill="rgb(255,255,255)" fill-opacity="1.0" stroke="rgb(0,0,0)" stroke-width="2"  />
		</g>
		<g>
			<title>amiS
glycine/serine hydroxymethyltransferase</title>
			<polygon class="amiS
glycine/serine hydroxymethyltransferase" points="1007,25 1022,25 1022,10 1052,40 1022,70 1022,55 1007,55" fill="rgb(255,255,255)" fill-opacity="1.0" stroke="rgb(0,0,0)" stroke-width="2"  />
			<g>
				<title>SHMT (PF00464)
"Serine hydroxymethyltransferase"</title>
				<polygon class="PF00464" points="1009,28 1036,28 1047,39 1047,41 1036,52 1009,52" stroke-linejoin="round" width="38" height="24" fill="rgb(215,61,139)" stroke="rgb(172,48,111)" stroke-width="1" opacity="0.75" />
			</g>
		</g>
		<g>
			<title>amiT
non-ribosomal peptide synthetase</title>
			<polygon class="amiT
non-ribosomal peptide synthetase" points="1054,25 1106,25 1106,10 1136,40 1106,70 1106,55 1054,55" fill="rgb(255,255,255)" fill-opacity="1.0" stroke="rgb(0,0,0)" stroke-width="2"  />
			<g>
				<title>AMP-binding (PF00501)
"AMP-binding enzyme"</title>
				<rect class="PF00501" x="1077" y="28" stroke-linejoin="round" width="35" height="24" fill="rgb(189,78,204)" stroke="rgb(151,62,163)" stroke-width="1" opacity="0.75" />
			</g>
			<g>
				<title>AMP-binding_C (PF13193)
"AMP-binding enzyme C-terminal domain"</title>
				<polygon class="PF13193" points="1118,28 1119,28 1125,34 1125,46 1119,52 1118,52" stroke-linejoin="round" width="7" height="24" fill="rgb(195,82,106)" stroke="rgb(156,65,84)" stroke-width="1" opacity="0.75" />
			</g>
			<g>
				<title>PP-binding (PF00550)
"Phosphopantetheine attachment site"</title>
				<polygon class="PF00550" points="1129,38 1131,40 1129,42" stroke-linejoin="round" width="6" height="24" fill="rgb(181,58,166)" stroke="rgb(144,46,132)" stroke-width="1" opacity="0.75" />
			</g>
		</g>
		<g>
			<title>amiU
dTDP glucose 4,6-dehydratase</title>
			<polygon class="amiU
dTDP glucose 4,6-dehydratase" points="1137,25 1142,25 1142,10 1172,40 1142,70 1142,55 1137,55" fill="rgb(255,255,255)" fill-opacity="1.0" stroke="rgb(0,0,0)" stroke-width="2"  />
			<g>
				<title>GDP_Man_Dehyd (PF16363)
"GDP-mannose 4,6 dehydratase"</title>
				<polygon class="PF16363" points="1137,28 1156,28 1168,40 1168,40 1156,52 1137,52" stroke-linejoin="round" width="31" height="24" fill="rgb(50,144,195)" stroke="rgb(40,115,156)" stroke-width="1" opacity="0.75" />
			</g>
		</g>
		<g>
			<title>
GCN5-like N-acetyltransferase</title>
			<polygon class="
GCN5-like N-acetyltransferase" points="1198,40 1216,10 1216,70" fill="rgb(255,255,255)" fill-opacity="1.0" stroke="rgb(0,0,0)" stroke-width="2"  />
			<g>
				<title>Acetyltransf_3 (PF13302)
"Acetyltransferase (GNAT) domain"</title>
				<polygon class="PF13302" points="1201,40 1208,28 1215,28 1215,52 1208,52 1201,40" stroke-linejoin="round" width="14" height="24" fill="rgb(79,214,103)" stroke="rgb(63,171,82)" stroke-width="1" opacity="0.75" />
			</g>
		</g>
	</g>
</svg>
