<svg version="1.1" baseProfile="full" xmlns="http://www.w3.org/2000/svg" width="655.1666666666666" height="80">
	<g>
		<line x1="10" y1="40.0" x2="645.1666666666666" y2="40.0" style="stroke:rgb(70,70,70); stroke-width:3 "/>
		<g>
			<title>rimB
RimB</title>
			<polygon class="rimB
RimB" points="10,25 43,25 43,10 73,40 43,70 43,55 10,55" fill="rgb(255,255,255)" fill-opacity="1.0" stroke="rgb(0,0,0)" stroke-width="2"  />
			<g>
				<title>KR (PF08659)
"KR domain"</title>
				<rect class="PF08659" x="29" y="28" stroke-linejoin="round" width="17" height="24" fill="rgb(203,145,81)" stroke="rgb(162,116,64)" stroke-width="1" opacity="0.75" />
			</g>
			<g>
				<title>PP-binding (PF00550)
"Phosphopantetheine attachment site"</title>
				<polygon class="PF00550" points="57,29 63,35 63,45 57,51" stroke-linejoin="round" width="6" height="24" fill="rgb(181,58,166)" stroke="rgb(144,46,132)" stroke-width="1" opacity="0.75" />
			</g>
		</g>
		<g>
			<title>rimC
RimC</title>
			<polygon class="rimC
RimC" points="113,25 106,25 106,10 76,40 106,70 106,55 113,55" fill="rgb(255,255,255)" fill-opacity="1.0" stroke="rgb(0,0,0)" stroke-width="2"  />
			<g>
				<title>Y_phosphatase3 (PF13350)
"Tyrosine phosphatase family"</title>
				<polygon class="PF13350" points="80,40 92,28 100,28 100,52 92,52" stroke-linejoin="round" width="24" height="24" fill="rgb(59,184,187)" stroke="rgb(47,147,149)" stroke-width="1" opacity="0.75" />
			</g>
		</g>
		<g>
			<title>rimD
RimD</title>
			<polygon class="rimD
RimD" points="122,25 147,25 147,10 177,40 147,70 147,55 122,55" fill="rgb(255,255,255)" fill-opacity="1.0" stroke="rgb(0,0,0)" stroke-width="2"  />
			<g>
				<title>GMC_oxred_N (PF00732)
"GMC oxidoreductase"</title>
				<rect class="PF00732" x="134" y="28" stroke-linejoin="round" width="21" height="24" fill="rgb(102,94,198)" stroke="rgb(81,75,158)" stroke-width="1" opacity="0.75" />
			</g>
			<g>
				<title>GMC_oxred_C (PF05199)
"GMC oxidoreductase"</title>
				<polygon class="PF05199" points="164,32 172,40 164,48" stroke-linejoin="round" width="11" height="24" fill="rgb(206,67,222)" stroke="rgb(164,53,177)" stroke-width="1" opacity="0.75" />
			</g>
		</g>
		<g>
			<title>rimE
RimE</title>
			<polygon class="rimE
RimE" points="185,25 201,25 201,10 231,40 201,70 201,55 185,55" fill="rgb(255,255,255)" fill-opacity="1.0" stroke="rgb(0,0,0)" stroke-width="2"  />
			<g>
				<title>UDPGT (PF00201)
"UDP-glucoronosyl and UDP-glucosyl transferase"</title>
				<polygon class="PF00201" points="189,28 214,28 226,40 214,52 189,52" stroke-linejoin="round" width="39" height="24" fill="rgb(228,86,168)" stroke="rgb(182,68,134)" stroke-width="1" opacity="0.75" />
			</g>
		</g>
		<g>
			<title>rimF
RimF</title>
			<polygon class="rimF
RimF" points="232,25 237,25 237,10 267,40 237,70 237,55 232,55" fill="rgb(255,255,255)" fill-opacity="1.0" stroke="rgb(0,0,0)" stroke-width="2"  />
			<g>
				<title>DegT_DnrJ_EryC1 (PF01041)
"DegT/DnrJ/EryC1/StrS aminotransferase family"</title>
				<polygon class="PF01041" points="233,28 251,28 263,40 251,52 233,52" stroke-linejoin="round" width="33" height="24" fill="rgb(228,110,183)" stroke="rgb(182,88,146)" stroke-width="1" opacity="0.75" />
			</g>
		</g>
		<g>
			<title>rimG
RimG</title>
			<polygon class="rimG
RimG" points="269,25 281,25 281,10 311,40 281,70 281,55 269,55" fill="rgb(255,255,255)" fill-opacity="1.0" stroke="rgb(0,0,0)" stroke-width="2"  />
			<g>
				<title>p450 (PF00067)
"Cytochrome P450"</title>
				<polygon class="PF00067" points="298,32 306,40 298,48" stroke-linejoin="round" width="12" height="24" fill="rgb(195,210,54)" stroke="rgb(155,168,43)" stroke-width="1" opacity="0.75" />
			</g>
		</g>
		<g>
			<title>rimH
RimH</title>
			<polygon class="rimH
RimH" points="314,10 320,40 314,70" fill="rgb(255,255,255)" fill-opacity="1.0" stroke="rgb(0,0,0)" stroke-width="2"  />
			<g>
				<title>Fer4_15 (PF13459)
"4Fe-4S single cluster domain"</title>
				<polygon class="PF13459" points="314,28 314,28 317,40 314,52 314,52" stroke-linejoin="round" width="5" height="24" fill="rgb(97,101,215)" stroke="rgb(77,80,172)" stroke-width="1" opacity="0.75" />
			</g>
		</g>
		<g>
			<title>rimA
RimA</title>
			<polygon class="rimA
RimA" points="323,25 466,25 466,10 496,40 466,70 466,55 323,55" fill="rgb(255,255,255)" fill-opacity="1.0" stroke="rgb(0,0,0)" stroke-width="2"  />
			<g>
				<title>AMP-binding (PF00501)
"AMP-binding enzyme"</title>
				<rect class="PF00501" x="326" y="28" stroke-linejoin="round" width="36" height="24" fill="rgb(189,78,204)" stroke="rgb(151,62,163)" stroke-width="1" opacity="0.75" />
			</g>
			<g>
				<title>AMP-binding_C (PF13193)
"AMP-binding enzyme C-terminal domain"</title>
				<rect class="PF13193" x="367" y="28" stroke-linejoin="round" width="7" height="24" fill="rgb(195,82,106)" stroke="rgb(156,65,84)" stroke-width="1" opacity="0.75" />
			</g>
			<g>
				<title>PP-binding (PF00550)
"Phosphopantetheine attachment site"</title>
				<rect class="PF00550" x="378" y="28" stroke-linejoin="round" width="7" height="24" fill="rgb(181,58,166)" stroke="rgb(144,46,132)" stroke-width="1" opacity="0.75" />
			</g>
			<g>
				<title>ketoacyl-synt (PF00109)
"Beta-ketoacyl synthase, N-terminal domain"</title>
				<rect class="PF00109" x="389" y="28" stroke-linejoin="round" width="25" height="24" fill="rgb(74,179,82)" stroke="rgb(59,143,65)" stroke-width="1" opacity="0.75" />
			</g>
			<g>
				<title>Ketoacyl-synt_C (PF02801)
"Beta-ketoacyl synthase, C-terminal domain"</title>
				<rect class="PF02801" x="414" y="28" stroke-linejoin="round" width="11" height="24" fill="rgb(212,79,72)" stroke="rgb(169,63,57)" stroke-width="1" opacity="0.75" />
			</g>
			<g>
				<title>KAsynt_C_assoc (PF16197)
"Ketoacyl-synthetase C-terminal extension"</title>
				<rect class="PF16197" x="426" y="28" stroke-linejoin="round" width="11" height="24" fill="rgb(200,86,70)" stroke="rgb(160,68,56)" stroke-width="1" opacity="0.75" />
			</g>
			<g>
				<title>Acyl_transf_1 (PF00698)
"Acyl transferase domain"</title>
				<rect class="PF00698" x="442" y="28" stroke-linejoin="round" width="32" height="24" fill="rgb(132,93,193)" stroke="rgb(105,74,154)" stroke-width="1" opacity="0.75" />
			</g>
			<g>
				<title>PP-binding (PF00550)
"Phosphopantetheine attachment site"</title>
				<polygon class="PF00550" points="482,30 488,36 488,44 482,50" stroke-linejoin="round" width="6" height="24" fill="rgb(181,58,166)" stroke="rgb(144,46,132)" stroke-width="1" opacity="0.75" />
			</g>
		</g>
		<g>
			<title>orf1
ORF1</title>
			<polygon class="orf1
ORF1" points="555,25 529,25 529,10 499,40 529,70 529,55 555,55" fill="rgb(255,255,255)" fill-opacity="1.0" stroke="rgb(0,0,0)" stroke-width="2"  />
			<g>
				<title>DDE_Tnp_1_6 (PF13751)
"Transposase DDE domain"</title>
				<polygon class="PF13751" points="503,40 514,29 514,51" stroke-linejoin="round" width="12" height="24" fill="rgb(189,204,62)" stroke="rgb(151,163,49)" stroke-width="1" opacity="0.75" />
			</g>
			<g>
				<title>DUF772 (PF05598)
"Transposase domain (DUF772)"</title>
				<rect class="PF05598" x="542" y="28" stroke-linejoin="round" width="7" height="24" fill="rgb(160,53,193)" stroke="rgb(128,42,154)" stroke-width="1" opacity="0.75" />
			</g>
		</g>
		<g>
			<title>rimJ
RimJ</title>
			<polygon class="rimJ
RimJ" points="603,25 589,25 589,10 559,40 589,70 589,55 603,55" fill="rgb(255,255,255)" fill-opacity="1.0" stroke="rgb(0,0,0)" stroke-width="2"  />
			<g>
				<title>ADH_zinc_N (PF00107)
"Zinc-binding dehydrogenase"</title>
				<polygon class="PF00107" points="565,38 575,28 579,28 579,52 575,52 565,42" stroke-linejoin="round" width="14" height="24" fill="rgb(79,114,198)" stroke="rgb(63,91,158)" stroke-width="1" opacity="0.75" />
			</g>
			<g>
				<title>ADH_N (PF08240)
"Alcohol dehydrogenase GroES-like domain"</title>
				<rect class="PF08240" x="584" y="28" stroke-linejoin="round" width="12" height="24" fill="rgb(217,198,105)" stroke="rgb(173,158,84)" stroke-width="1" opacity="0.75" />
			</g>
		</g>
		<g>
			<title>rimK
RimK</title>
			<polygon class="rimK
RimK" points="614,40 627,10 627,70" fill="rgb(255,255,255)" fill-opacity="1.0" stroke="rgb(0,0,0)" stroke-width="2"  />
			<g>
				<title>Acetyltransf_1 (PF00583)
"Acetyltransferase (GNAT) family"</title>
				<polygon class="PF00583" points="617,40 622,28 627,28 627,52 622,52" stroke-linejoin="round" width="12" height="24" fill="rgb(91,221,217)" stroke="rgb(72,176,173)" stroke-width="1" opacity="0.75" />
			</g>
		</g>
	</g>
</svg>
