<svg version="1.1" baseProfile="full" xmlns="http://www.w3.org/2000/svg" width="603.7333333333333" height="80">
	<g>
		<line x1="10" y1="40.0" x2="593.7333333333333" y2="40.0" style="stroke:rgb(70,70,70); stroke-width:3 "/>
		<g>
			<title>orf6
Orf6</title>
			<polygon class="orf6
Orf6" points="10,10 37,40 10,70" fill="rgb(255,255,255)" fill-opacity="1.0" stroke="rgb(0,0,0)" stroke-width="2"  />
			<g>
				<title>FAA_hydrolase (PF01557)
"Fumarylacetoacetate (FAA) hydrolase family"</title>
				<polygon class="PF01557" points="14,28 21,28 33,40 33,40 21,52 14,52" stroke-linejoin="round" width="19" height="24" fill="rgb(73,102,192)" stroke="rgb(58,81,153)" stroke-width="1" opacity="0.75" />
			</g>
		</g>
		<g>
			<title>rebG
N-glycosyl transferase RebG</title>
			<polygon class="rebG
N-glycosyl transferase RebG" points="81,25 69,25 69,10 39,40 69,70 69,55 81,55" fill="rgb(255,255,255)" fill-opacity="1.0" stroke="rgb(0,0,0)" stroke-width="2"  />
			<g>
				<title>EryCIII-like_C (PF06722)
"Erythromycin biosynthesis protein CIII-like, C-terminal domain"</title>
				<polygon class="PF06722" points="43,40 53,30 53,50" stroke-linejoin="round" width="14" height="24" fill="rgb(48,103,191)" stroke="rgb(38,82,152)" stroke-width="1" opacity="0.75" />
			</g>
		</g>
		<g>
			<title>rebO
L-amino acid oxygenase RebO</title>
			<polygon class="rebO
L-amino acid oxygenase RebO" points="88,25 105,25 105,10 135,40 105,70 105,55 88,55" fill="rgb(255,255,255)" fill-opacity="1.0" stroke="rgb(0,0,0)" stroke-width="2"  />
			<g>
				<title>Amino_oxidase (PF01593)
"Flavin containing amine oxidoreductase"</title>
				<polygon class="PF01593" points="89,28 119,28 131,40 119,52 89,52" stroke-linejoin="round" width="45" height="24" fill="rgb(95,189,207)" stroke="rgb(76,151,165)" stroke-width="1" opacity="0.75" />
			</g>
		</g>
		<g>
			<title>rebD
RebD</title>
			<polygon class="rebD
RebD" points="136,25 207,25 207,10 237,40 207,70 207,55 136,55" fill="rgb(255,255,255)" fill-opacity="1.0" stroke="rgb(0,0,0)" stroke-width="2"  />
			<g>
				<title>Ferritin-like (PF12902)
"Ferritin-like"</title>
				<rect class="PF12902" x="196" y="28" stroke-linejoin="round" width="24" height="24" fill="rgb(183,62,62)" stroke="rgb(146,49,49)" stroke-width="1" opacity="0.75" />
			</g>
		</g>
		<g>
			<title>rebC
RebC</title>
			<polygon class="rebC
RebC" points="237,25 260,25 260,10 290,40 260,70 260,55 237,55" fill="rgb(255,255,255)" fill-opacity="1.0" stroke="rgb(0,0,0)" stroke-width="2"  />
			<g>
				<title>FAD_binding_3 (PF01494)
"FAD binding domain"</title>
				<rect class="PF01494" x="237" y="28" stroke-linejoin="round" width="34" height="24" fill="rgb(215,66,156)" stroke="rgb(172,52,124)" stroke-width="1" opacity="0.75" />
			</g>
			<g>
				<title>Rng_hyd_C (PF21274)
"Aromatic-ring hydroxylase, C-terminal"</title>
				<polygon class="PF21274" points="279,34 285,40 279,46" stroke-linejoin="round" width="10" height="24" fill="rgb(153,227,106)" stroke="rgb(122,181,84)" stroke-width="1" opacity="0.75" />
			</g>
		</g>
		<g>
			<title>rebP
cytochrome P-450 RebP</title>
			<polygon class="rebP
cytochrome P-450 RebP" points="290,25 299,25 299,10 329,40 299,70 299,55 290,55" fill="rgb(255,255,255)" fill-opacity="1.0" stroke="rgb(0,0,0)" stroke-width="2"  />
			<g>
				<title>p450 (PF00067)
"Cytochrome P450"</title>
				<polygon class="PF00067" points="307,28 313,28 316,31 316,49 313,52 307,52" stroke-linejoin="round" width="9" height="24" fill="rgb(195,210,54)" stroke="rgb(155,168,43)" stroke-width="1" opacity="0.75" />
			</g>
			<g>
				<title>p450 (PF00067)
"Cytochrome P450"</title>
				<polygon class="PF00067" points="316,31 325,40 316,49" stroke-linejoin="round" width="11" height="24" fill="rgb(195,210,54)" stroke="rgb(155,168,43)" stroke-width="1" opacity="0.75" />
			</g>
		</g>
		<g>
			<title>rebM
RebM</title>
			<polygon class="rebM
RebM" points="330,10 357,40 330,70" fill="rgb(255,255,255)" fill-opacity="1.0" stroke="rgb(0,0,0)" stroke-width="2"  />
			<g>
				<title>Methyltransf_11 (PF08241)
"Methyltransferase domain"</title>
				<polygon class="PF08241" points="336,28 341,28 345,31 345,49 341,52 336,52" stroke-linejoin="round" width="9" height="24" fill="rgb(201,85,64)" stroke="rgb(160,68,51)" stroke-width="1" opacity="0.75" />
			</g>
		</g>
		<g>
			<title>rebR
transcriptional activator</title>
			<polygon class="rebR
transcriptional activator" points="369,25 431,25 431,10 461,40 431,70 431,55 369,55" fill="rgb(255,255,255)" fill-opacity="1.0" stroke="rgb(0,0,0)" stroke-width="2"  />
			<g>
				<title>AAA_16 (PF13191)
"AAA ATPase domain"</title>
				<rect class="PF13191" x="372" y="28" stroke-linejoin="round" width="14" height="24" fill="rgb(88,106,197)" stroke="rgb(70,84,157)" stroke-width="1" opacity="0.75" />
			</g>
			<g>
				<title>GerE (PF00196)
"Bacterial regulatory proteins, luxR family"</title>
				<polygon class="PF00196" points="455,38 457,40 455,42" stroke-linejoin="round" width="5" height="24" fill="rgb(225,67,110)" stroke="rgb(180,53,88)" stroke-width="1" opacity="0.75" />
			</g>
		</g>
		<g>
			<title>rebF
flavin reductase</title>
			<polygon class="rebF
flavin reductase" points="461,10 478,40 461,70" fill="rgb(255,255,255)" fill-opacity="1.0" stroke="rgb(0,0,0)" stroke-width="2"  />
			<g>
				<title>Flavin_Reduct (PF01613)
"Flavin reductase like domain"</title>
				<polygon class="PF01613" points="463,28 467,28 474,40 467,52 463,52" stroke-linejoin="round" width="14" height="24" fill="rgb(223,100,227)" stroke="rgb(178,80,181)" stroke-width="1" opacity="0.75" />
			</g>
		</g>
		<g>
			<title>rebU
Na+/H+ antiporter</title>
			<polygon class="rebU
Na+/H+ antiporter" points="478,25 490,25 490,10 520,40 490,70 490,55 478,55" fill="rgb(255,255,255)" fill-opacity="1.0" stroke="rgb(0,0,0)" stroke-width="2"  />
			<g>
				<title>Na_H_Exchanger (PF00999)
"Sodium/hydrogen exchanger family"</title>
				<polygon class="PF00999" points="479,28 504,28 516,40 504,52 479,52" stroke-linejoin="round" width="38" height="24" fill="rgb(95,122,202)" stroke="rgb(76,97,161)" stroke-width="1" opacity="0.75" />
			</g>
		</g>
		<g>
			<title>rebH
halogenase</title>
			<polygon class="rebH
halogenase" points="520,25 543,25 543,10 573,40 543,70 543,55 520,55" fill="rgb(255,255,255)" fill-opacity="1.0" stroke="rgb(0,0,0)" stroke-width="2"  />
			<g>
				<title>Trp_halogenase (PF04820)
"Tryptophan halogenase"</title>
				<polygon class="PF04820" points="520,28 556,28 568,40 568,40 556,52 520,52" stroke-linejoin="round" width="48" height="24" fill="rgb(175,201,66)" stroke="rgb(139,160,52)" stroke-width="1" opacity="0.75" />
			</g>
		</g>
	</g>
</svg>
