<svg version="1.1" baseProfile="full" xmlns="http://www.w3.org/2000/svg" width="1454.2" height="80">
	<g>
		<line x1="10" y1="40.0" x2="1444.2" y2="40.0" style="stroke:rgb(70,70,70); stroke-width:3 "/>
		<g>
			<title>
hypothetical protein</title>
			<polygon class="
hypothetical protein" points="10,40 30,10 30,70" fill="rgb(255,255,255)" fill-opacity="1.0" stroke="rgb(0,0,0)" stroke-width="2"  />
		</g>
		<g>
			<title>
hypothetical protein</title>
			<polygon class="
hypothetical protein" points="27,40 55,10 55,70" fill="rgb(255,255,255)" fill-opacity="1.0" stroke="rgb(0,0,0)" stroke-width="2"  />
			<g>
				<title>DUF4097 (PF13349)
"Putative adhesin"</title>
				<polygon class="PF13349" points="31,40 41,29 41,51" stroke-linejoin="round" width="13" height="24" fill="rgb(205,228,84)" stroke="rgb(163,182,67)" stroke-width="1" opacity="0.75" />
			</g>
		</g>
		<g>
			<title>pnxR1
putative transcriptional regulator</title>
			<polygon class="pnxR1
putative transcriptional regulator" points="59,40 75,10 75,70" fill="rgb(255,255,255)" fill-opacity="1.0" stroke="rgb(0,0,0)" stroke-width="2"  />
			<g>
				<title>MarR (PF01047)
"MarR family"</title>
				<polygon class="PF01047" points="66,33 69,28 71,28 71,52 69,52 66,47" stroke-linejoin="round" width="5" height="24" fill="rgb(157,188,64)" stroke="rgb(125,150,51)" stroke-width="1" opacity="0.75" />
			</g>
		</g>
		<g>
			<title>pnxT
putative transporter</title>
			<polygon class="pnxT
putative transporter" points="82,25 113,25 113,10 143,40 113,70 113,55 82,55" fill="rgb(255,255,255)" fill-opacity="1.0" stroke="rgb(0,0,0)" stroke-width="2"  />
			<g>
				<title>MFS_1 (PF07690)
"Major Facilitator Superfamily"</title>
				<rect class="PF07690" x="87" y="28" stroke-linejoin="round" width="40" height="24" fill="rgb(228,207,98)" stroke="rgb(182,165,78)" stroke-width="1" opacity="0.75" />
			</g>
		</g>
		<g>
			<title>pnxO1
putative dehydrogenase</title>
			<polygon class="pnxO1
putative dehydrogenase" points="177,25 175,25 175,10 145,40 175,70 175,55 177,55" fill="rgb(255,255,255)" fill-opacity="1.0" stroke="rgb(0,0,0)" stroke-width="2"  />
			<g>
				<title>adh_short (PF00106)
"short chain dehydrogenase"</title>
				<polygon class="PF00106" points="151,38 161,28 169,28 169,52 161,52 151,42" stroke-linejoin="round" width="18" height="24" fill="rgb(128,81,196)" stroke="rgb(102,64,156)" stroke-width="1" opacity="0.75" />
			</g>
		</g>
		<g>
			<title>pnxE1
hypothetical protein</title>
			<polygon class="pnxE1
hypothetical protein" points="184,10 199,40 184,70" fill="rgb(255,255,255)" fill-opacity="1.0" stroke="rgb(0,0,0)" stroke-width="2"  />
			<g>
				<title>Anthrone_oxy (PF08592)
"Anthrone oxygenase"</title>
				<polygon class="PF08592" points="188,28 189,28 195,40 189,52 188,52" stroke-linejoin="round" width="10" height="24" fill="rgb(94,203,219)" stroke="rgb(75,162,175)" stroke-width="1" opacity="0.75" />
			</g>
		</g>
		<g>
			<title>pnxMT1
putative methyltransferase</title>
			<polygon class="pnxMT1
putative methyltransferase" points="201,10 222,40 201,70" fill="rgb(255,255,255)" fill-opacity="1.0" stroke="rgb(0,0,0)" stroke-width="2"  />
			<g>
				<title>Methyltransf_25 (PF13649)
"Methyltransferase domain"</title>
				<polygon class="PF13649" points="205,28 210,28 214,34 214,46 210,52 205,52" stroke-linejoin="round" width="9" height="24" fill="rgb(224,103,106)" stroke="rgb(179,82,84)" stroke-width="1" opacity="0.75" />
			</g>
		</g>
		<g>
			<title>pnxR2
putative transcriptional regulator</title>
			<polygon class="pnxR2
putative transcriptional regulator" points="228,25 261,25 261,10 291,40 261,70 261,55 228,55" fill="rgb(255,255,255)" fill-opacity="1.0" stroke="rgb(0,0,0)" stroke-width="2"  />
			<g>
				<title>Trans_reg_C (PF00486)
"Transcriptional regulatory protein, C terminal"</title>
				<rect class="PF00486" x="229" y="28" stroke-linejoin="round" width="7" height="24" fill="rgb(69,185,116)" stroke="rgb(55,148,92)" stroke-width="1" opacity="0.75" />
			</g>
			<g>
				<title>BTAD (PF03704)
"Bacterial transcriptional activator domain"</title>
				<rect class="PF03704" x="238" y="28" stroke-linejoin="round" width="14" height="24" fill="rgb(174,224,58)" stroke="rgb(139,179,46)" stroke-width="1" opacity="0.75" />
			</g>
			<g>
				<title>NB-ARC (PF00931)
"NB-ARC domain"</title>
				<polygon class="PF00931" points="257,28 275,28 276,29 276,51 275,52 257,52" stroke-linejoin="round" width="19" height="24" fill="rgb(199,170,84)" stroke="rgb(159,136,67)" stroke-width="1" opacity="0.75" />
			</g>
		</g>
		<g>
			<title>pnxO2
putative cytochrome P450</title>
			<polygon class="pnxO2
putative cytochrome P450" points="292,25 304,25 304,10 334,40 304,70 304,55 292,55" fill="rgb(255,255,255)" fill-opacity="1.0" stroke="rgb(0,0,0)" stroke-width="2"  />
			<g>
				<title>p450 (PF00067)
"Cytochrome P450"</title>
				<polygon class="PF00067" points="297,28 317,28 329,40 317,52 297,52" stroke-linejoin="round" width="34" height="24" fill="rgb(195,210,54)" stroke="rgb(155,168,43)" stroke-width="1" opacity="0.75" />
			</g>
		</g>
		<g>
			<title>pnxF
hypothetical protein</title>
			<polygon class="pnxF
hypothetical protein" points="336,10 354,40 336,70" fill="rgb(255,255,255)" fill-opacity="1.0" stroke="rgb(0,0,0)" stroke-width="2"  />
			<g>
				<title>DUF1707 (PF08044)
"Domain of unknown function (DUF1707)"</title>
				<rect class="PF08044" x="337" y="28" stroke-linejoin="round" width="5" height="24" fill="rgb(122,199,69)" stroke="rgb(97,159,55)" stroke-width="1" opacity="0.75" />
			</g>
		</g>
		<g>
			<title>pnxO3
putative cytochrome P450</title>
			<polygon class="pnxO3
putative cytochrome P450" points="397,25 387,25 387,10 357,40 387,70 387,55 397,55" fill="rgb(255,255,255)" fill-opacity="1.0" stroke="rgb(0,0,0)" stroke-width="2"  />
			<g>
				<title>p450 (PF00067)
"Cytochrome P450"</title>
				<polygon class="PF00067" points="361,40 369,32 369,48" stroke-linejoin="round" width="12" height="24" fill="rgb(195,210,54)" stroke="rgb(155,168,43)" stroke-width="1" opacity="0.75" />
			</g>
		</g>
		<g>
			<title>pnxJ
putative acyltransferase</title>
			<polygon class="pnxJ
putative acyltransferase" points="437,25 434,25 434,10 404,40 434,70 434,55 437,55" fill="rgb(255,255,255)" fill-opacity="1.0" stroke="rgb(0,0,0)" stroke-width="2"  />
			<g>
				<title>Acyl_transf_1 (PF00698)
"Acyl transferase domain"</title>
				<polygon class="PF00698" points="408,40 420,28 436,28 436,52 420,52" stroke-linejoin="round" width="30" height="24" fill="rgb(132,93,193)" stroke="rgb(105,74,154)" stroke-width="1" opacity="0.75" />
			</g>
		</g>
		<g>
			<title>pnxK
putative polyketide cyclase</title>
			<polygon class="pnxK
putative polyketide cyclase" points="445,10 455,40 445,70" fill="rgb(255,255,255)" fill-opacity="1.0" stroke="rgb(0,0,0)" stroke-width="2"  />
			<g>
				<title>Cyclase_polyket (PF04673)
"Polyketide synthesis cyclase"</title>
				<polygon class="PF04673" points="445,28 447,28 452,40 447,52 445,52" stroke-linejoin="round" width="10" height="24" fill="rgb(97,206,162)" stroke="rgb(77,164,129)" stroke-width="1" opacity="0.75" />
			</g>
		</g>
		<g>
			<title>pnxL
putative polyketide cyclase</title>
			<polygon class="pnxL
putative polyketide cyclase" points="455,10 472,40 455,70" fill="rgb(255,255,255)" fill-opacity="1.0" stroke="rgb(0,0,0)" stroke-width="2"  />
			<g>
				<title>Cupin_2 (PF07883)
"Cupin domain"</title>
				<polygon class="PF07883" points="461,28 461,28 468,39 468,41 461,52 461,52" stroke-linejoin="round" width="7" height="24" fill="rgb(191,63,205)" stroke="rgb(152,50,164)" stroke-width="1" opacity="0.75" />
			</g>
		</g>
		<g>
			<title>pnxA
putative ketoacyl synthase</title>
			<polygon class="pnxA
putative ketoacyl synthase" points="473,25 485,25 485,10 515,40 485,70 485,55 473,55" fill="rgb(255,255,255)" fill-opacity="1.0" stroke="rgb(0,0,0)" stroke-width="2"  />
			<g>
				<title>ketoacyl-synt (PF00109)
"Beta-ketoacyl synthase, N-terminal domain"</title>
				<rect class="PF00109" x="473" y="28" stroke-linejoin="round" width="25" height="24" fill="rgb(74,179,82)" stroke="rgb(59,143,65)" stroke-width="1" opacity="0.75" />
			</g>
			<g>
				<title>Ketoacyl-synt_C (PF02801)
"Beta-ketoacyl synthase, C-terminal domain"</title>
				<polygon class="PF02801" points="499,28 499,28 510,39 510,41 499,52 499,52" stroke-linejoin="round" width="11" height="24" fill="rgb(212,79,72)" stroke="rgb(169,63,57)" stroke-width="1" opacity="0.75" />
			</g>
		</g>
		<g>
			<title>pnxB
putative ketoacyl synthase</title>
			<polygon class="pnxB
putative ketoacyl synthase" points="515,25 526,25 526,10 556,40 526,70 526,55 515,55" fill="rgb(255,255,255)" fill-opacity="1.0" stroke="rgb(0,0,0)" stroke-width="2"  />
			<g>
				<title>ketoacyl-synt (PF00109)
"Beta-ketoacyl synthase, N-terminal domain"</title>
				<rect class="PF00109" x="516" y="28" stroke-linejoin="round" width="24" height="24" fill="rgb(74,179,82)" stroke="rgb(59,143,65)" stroke-width="1" opacity="0.75" />
			</g>
			<g>
				<title>Ketoacyl-synt_C (PF02801)
"Beta-ketoacyl synthase, C-terminal domain"</title>
				<polygon class="PF02801" points="541,29 552,40 552,40 541,51" stroke-linejoin="round" width="11" height="24" fill="rgb(212,79,72)" stroke="rgb(169,63,57)" stroke-width="1" opacity="0.75" />
			</g>
		</g>
		<g>
			<title>pnxC
putative acyl carrier protein</title>
			<polygon class="pnxC
putative acyl carrier protein" points="558,10 566,40 558,70" fill="rgb(255,255,255)" fill-opacity="1.0" stroke="rgb(0,0,0)" stroke-width="2"  />
			<g>
				<title>PP-binding (PF00550)
"Phosphopantetheine attachment site"</title>
				<polygon class="PF00550" points="558,28 559,28 563,40 559,52 558,52" stroke-linejoin="round" width="7" height="24" fill="rgb(181,58,166)" stroke="rgb(144,46,132)" stroke-width="1" opacity="0.75" />
			</g>
		</g>
		<g>
			<title>pnxD
putative polyketide cyclase</title>
			<polygon class="pnxD
putative polyketide cyclase" points="567,10 582,40 567,70" fill="rgb(255,255,255)" fill-opacity="1.0" stroke="rgb(0,0,0)" stroke-width="2"  />
			<g>
				<title>Polyketide_cyc2 (PF10604)
"Polyketide cyclase / dehydrase and lipid transport"</title>
				<polygon class="PF10604" points="567,28 572,28 579,40 572,52 567,52" stroke-linejoin="round" width="14" height="24" fill="rgb(170,214,69)" stroke="rgb(136,171,55)" stroke-width="1" opacity="0.75" />
			</g>
		</g>
		<g>
			<title>pnxE2
hypothetical protein</title>
			<polygon class="pnxE2
hypothetical protein" points="583,10 598,40 583,70" fill="rgb(255,255,255)" fill-opacity="1.0" stroke="rgb(0,0,0)" stroke-width="2"  />
			<g>
				<title>Anthrone_oxy (PF08592)
"Anthrone oxygenase"</title>
				<polygon class="PF08592" points="587,28 588,28 594,40 588,52 587,52" stroke-linejoin="round" width="9" height="24" fill="rgb(94,203,219)" stroke="rgb(75,162,175)" stroke-width="1" opacity="0.75" />
			</g>
		</g>
		<g>
			<title>pnxG
putative 3-oxoacyl-ACP reductase</title>
			<polygon class="pnxG
putative 3-oxoacyl-ACP reductase" points="599,10 624,40 599,70" fill="rgb(255,255,255)" fill-opacity="1.0" stroke="rgb(0,0,0)" stroke-width="2"  />
			<g>
				<title>adh_short_C2 (PF13561)
"Enoyl-(Acyl carrier protein) reductase"</title>
				<polygon class="PF13561" points="600,28 610,28 620,40 610,52 600,52" stroke-linejoin="round" width="23" height="24" fill="rgb(79,221,209)" stroke="rgb(63,176,167)" stroke-width="1" opacity="0.75" />
			</g>
		</g>
		<g>
			<title>pnxH
hypothetical protein</title>
			<polygon class="pnxH
hypothetical protein" points="624,10 635,40 624,70" fill="rgb(255,255,255)" fill-opacity="1.0" stroke="rgb(0,0,0)" stroke-width="2"  />
			<g>
				<title>ABM (PF03992)
"Antibiotic biosynthesis monooxygenase"</title>
				<polygon class="PF03992" points="624,28 627,28 631,38 631,42 627,52 624,52" stroke-linejoin="round" width="7" height="24" fill="rgb(211,55,142)" stroke="rgb(168,44,113)" stroke-width="1" opacity="0.75" />
			</g>
		</g>
		<g>
			<title>pnxI
hypothetical protein</title>
			<polygon class="pnxI
hypothetical protein" points="635,10 646,40 635,70" fill="rgb(255,255,255)" fill-opacity="1.0" stroke="rgb(0,0,0)" stroke-width="2"  />
			<g>
				<title>ABM (PF03992)
"Antibiotic biosynthesis monooxygenase"</title>
				<polygon class="PF03992" points="635,28 638,28 642,38 642,42 638,52 635,52" stroke-linejoin="round" width="7" height="24" fill="rgb(211,55,142)" stroke="rgb(168,44,113)" stroke-width="1" opacity="0.75" />
			</g>
		</g>
		<g>
			<title>pnxM
hypothetical protein</title>
			<polygon class="pnxM
hypothetical protein" points="646,10 654,40 646,70" fill="rgb(255,255,255)" fill-opacity="1.0" stroke="rgb(0,0,0)" stroke-width="2"  />
			<g>
				<title>DUF6059 (PF19534)
"Family of unknown function (DUF6059)"</title>
				<polygon class="PF19534" points="647,28 647,28 651,40 647,52 647,52" stroke-linejoin="round" width="5" height="24" fill="rgb(51,132,181)" stroke="rgb(40,105,144)" stroke-width="1" opacity="0.75" />
			</g>
		</g>
		<g>
			<title>pnxS2
putative dTDP-glucose 4,6-dehydratase</title>
			<polygon class="pnxS2
putative dTDP-glucose 4,6-dehydratase" points="656,25 660,25 660,10 690,40 660,70 660,55 656,55" fill="rgb(255,255,255)" fill-opacity="1.0" stroke="rgb(0,0,0)" stroke-width="2"  />
			<g>
				<title>GDP_Man_Dehyd (PF16363)
"GDP-mannose 4,6 dehydratase"</title>
				<polygon class="PF16363" points="657,28 674,28 686,40 674,52 657,52" stroke-linejoin="round" width="30" height="24" fill="rgb(50,144,195)" stroke="rgb(40,115,156)" stroke-width="1" opacity="0.75" />
			</g>
		</g>
		<g>
			<title>pnxS1
putative glucose-1-phosphate thymidylyltransferase</title>
			<polygon class="pnxS1
putative glucose-1-phosphate thymidylyltransferase" points="691,25 696,25 696,10 726,40 696,70 696,55 691,55" fill="rgb(255,255,255)" fill-opacity="1.0" stroke="rgb(0,0,0)" stroke-width="2"  />
			<g>
				<title>NTP_transferase (PF00483)
"Nucleotidyl transferase"</title>
				<polygon class="PF00483" points="691,28 710,28 714,32 714,48 710,52 691,52" stroke-linejoin="round" width="23" height="24" fill="rgb(211,145,90)" stroke="rgb(168,116,72)" stroke-width="1" opacity="0.75" />
			</g>
		</g>
		<g>
			<title>pnxS3
putative NDP-hexose 2,3-dehydratase</title>
			<polygon class="pnxS3
putative NDP-hexose 2,3-dehydratase" points="729,25 748,25 748,10 778,40 748,70 748,55 729,55" fill="rgb(255,255,255)" fill-opacity="1.0" stroke="rgb(0,0,0)" stroke-width="2"  />
			<g>
				<title>Hexose_dehydrat (PF03559)
"NDP-hexose 2,3-dehydratase"</title>
				<rect class="PF03559" x="733" y="28" stroke-linejoin="round" width="20" height="24" fill="rgb(56,139,184)" stroke="rgb(44,111,147)" stroke-width="1" opacity="0.75" />
			</g>
			<g>
				<title>Hexose_dehydrat (PF03559)
"NDP-hexose 2,3-dehydratase"</title>
				<polygon class="PF03559" points="757,28 762,28 774,40 762,52 757,52" stroke-linejoin="round" width="20" height="24" fill="rgb(56,139,184)" stroke="rgb(44,111,147)" stroke-width="1" opacity="0.75" />
			</g>
		</g>
		<g>
			<title>pnxS4
putative NDP-hexose-3-ketoreductase</title>
			<polygon class="pnxS4
putative NDP-hexose-3-ketoreductase" points="779,25 782,25 782,10 812,40 782,70 782,55 779,55" fill="rgb(255,255,255)" fill-opacity="1.0" stroke="rgb(0,0,0)" stroke-width="2"  />
			<g>
				<title>GFO_IDH_MocA (PF01408)
"Oxidoreductase family, NAD-binding Rossmann fold"</title>
				<rect class="PF01408" x="780" y="28" stroke-linejoin="round" width="11" height="24" fill="rgb(53,193,178)" stroke="rgb(42,154,142)" stroke-width="1" opacity="0.75" />
			</g>
		</g>
		<g>
			<title>pnxO4
putative polyketide hydroxylase</title>
			<polygon class="pnxO4
putative polyketide hydroxylase" points="814,25 838,25 838,10 868,40 838,70 838,55 814,55" fill="rgb(255,255,255)" fill-opacity="1.0" stroke="rgb(0,0,0)" stroke-width="2"  />
			<g>
				<title>FAD_binding_3 (PF01494)
"FAD binding domain"</title>
				<rect class="PF01494" x="814" y="28" stroke-linejoin="round" width="35" height="24" fill="rgb(215,66,156)" stroke="rgb(172,52,124)" stroke-width="1" opacity="0.75" />
			</g>
			<g>
				<title>Rng_hyd_C (PF21274)
"Aromatic-ring hydroxylase, C-terminal"</title>
				<polygon class="PF21274" points="855,32 863,40 855,48" stroke-linejoin="round" width="11" height="24" fill="rgb(153,227,106)" stroke="rgb(122,181,84)" stroke-width="1" opacity="0.75" />
			</g>
		</g>
		<g>
			<title>pnxN
putative AHL-lactonase</title>
			<polygon class="pnxN
putative AHL-lactonase" points="868,10 891,40 868,70" fill="rgb(255,255,255)" fill-opacity="1.0" stroke="rgb(0,0,0)" stroke-width="2"  />
			<g>
				<title>Lactamase_B (PF00753)
"Metallo-beta-lactamase superfamily"</title>
				<polygon class="PF00753" points="869,28 878,28 887,40 878,52 869,52" stroke-linejoin="round" width="20" height="24" fill="rgb(70,201,123)" stroke="rgb(56,160,98)" stroke-width="1" opacity="0.75" />
			</g>
		</g>
		<g>
			<title>pnxO5
putative cytochrome P450</title>
			<polygon class="pnxO5
putative cytochrome P450" points="937,25 925,25 925,10 895,40 925,70 925,55 937,55" fill="rgb(255,255,255)" fill-opacity="1.0" stroke="rgb(0,0,0)" stroke-width="2"  />
			<g>
				<title>p450 (PF00067)
"Cytochrome P450"</title>
				<polygon class="PF00067" points="899,40 907,32 907,48" stroke-linejoin="round" width="10" height="24" fill="rgb(195,210,54)" stroke="rgb(155,168,43)" stroke-width="1" opacity="0.75" />
			</g>
		</g>
		<g>
			<title>pnxGT1
putative glycosyltransferase</title>
			<polygon class="pnxGT1
putative glycosyltransferase" points="980,25 967,25 967,10 937,40 967,70 967,55 980,55" fill="rgb(255,255,255)" fill-opacity="1.0" stroke="rgb(0,0,0)" stroke-width="2"  />
			<g>
				<title>EryCIII-like_C (PF06722)
"Erythromycin biosynthesis protein CIII-like, C-terminal domain"</title>
				<polygon class="PF06722" points="941,40 952,29 952,51" stroke-linejoin="round" width="14" height="24" fill="rgb(48,103,191)" stroke="rgb(38,82,152)" stroke-width="1" opacity="0.75" />
			</g>
		</g>
		<g>
			<title>pnxP
putative amidohydrolase</title>
			<polygon class="pnxP
putative amidohydrolase" points="1029,25 1015,25 1015,10 985,40 1015,70 1015,55 1029,55" fill="rgb(255,255,255)" fill-opacity="1.0" stroke="rgb(0,0,0)" stroke-width="2"  />
			<g>
				<title>Amidohydro_1 (PF01979)
"Amidohydrolase family"</title>
				<polygon class="PF01979" points="989,40 1001,28 1020,28 1020,52 1001,52" stroke-linejoin="round" width="34" height="24" fill="rgb(190,76,113)" stroke="rgb(152,60,90)" stroke-width="1" opacity="0.75" />
			</g>
		</g>
		<g>
			<title>pnxO6
putative FAD-binding monooxygenase</title>
			<polygon class="pnxO6
putative FAD-binding monooxygenase" points="1035,25 1055,25 1055,10 1085,40 1055,70 1055,55 1035,55" fill="rgb(255,255,255)" fill-opacity="1.0" stroke="rgb(0,0,0)" stroke-width="2"  />
			<g>
				<title>FAD_binding_3 (PF01494)
"FAD binding domain"</title>
				<polygon class="PF01494" points="1035,28 1068,28 1069,29 1069,51 1068,52 1035,52" stroke-linejoin="round" width="34" height="24" fill="rgb(215,66,156)" stroke="rgb(172,52,124)" stroke-width="1" opacity="0.75" />
			</g>
		</g>
		<g>
			<title>pnxMT2
putative methyltransferase</title>
			<polygon class="pnxMT2
putative methyltransferase" points="1088,10 1115,40 1088,70" fill="rgb(255,255,255)" fill-opacity="1.0" stroke="rgb(0,0,0)" stroke-width="2"  />
			<g>
				<title>Methyltransf_21 (PF05050)
"Methyltransferase FkbM domain"</title>
				<polygon class="PF05050" points="1093,28 1099,28 1110,40 1099,52 1093,52" stroke-linejoin="round" width="18" height="24" fill="rgb(141,93,211)" stroke="rgb(112,74,168)" stroke-width="1" opacity="0.75" />
			</g>
		</g>
		<g>
			<title>pnxGT2
putative glycosyltransferase</title>
			<polygon class="pnxGT2
putative glycosyltransferase" points="1120,25 1128,25 1128,10 1158,40 1128,70 1128,55 1120,55" fill="rgb(255,255,255)" fill-opacity="1.0" stroke="rgb(0,0,0)" stroke-width="2"  />
			<g>
				<title>EryCIII-like_N (PF21036)
"Erythromycin biosynthesis protein CIII-like, N-terminal domain"</title>
				<rect class="PF21036" x="1122" y="28" stroke-linejoin="round" width="20" height="24" fill="rgb(205,88,112)" stroke="rgb(164,70,89)" stroke-width="1" opacity="0.75" />
			</g>
			<g>
				<title>EryCIII-like_C (PF06722)
"Erythromycin biosynthesis protein CIII-like, C-terminal domain"</title>
				<polygon class="PF06722" points="1143,29 1154,40 1143,51" stroke-linejoin="round" width="14" height="24" fill="rgb(48,103,191)" stroke="rgb(38,82,152)" stroke-width="1" opacity="0.75" />
			</g>
		</g>
		<g>
			<title>pnxQ
hypothetical protein</title>
			<polygon class="pnxQ
hypothetical protein" points="1162,40 1176,10 1176,70" fill="rgb(255,255,255)" fill-opacity="1.0" stroke="rgb(0,0,0)" stroke-width="2"  />
			<g>
				<title>SCP2 (PF02036)
"SCP-2 sterol transfer family"</title>
				<polygon class="PF02036" points="1165,40 1171,28 1172,28 1172,52 1171,52" stroke-linejoin="round" width="10" height="24" fill="rgb(149,55,182)" stroke="rgb(119,44,145)" stroke-width="1" opacity="0.75" />
			</g>
		</g>
		<g>
			<title>pnxS5
putative NDP-hexose-4-ketoreductase</title>
			<polygon class="pnxS5
putative NDP-hexose-4-ketoreductase" points="1184,10 1209,40 1184,70" fill="rgb(255,255,255)" fill-opacity="1.0" stroke="rgb(0,0,0)" stroke-width="2"  />
			<g>
				<title>Epimerase (PF01370)
"NAD dependent epimerase/dehydratase family"</title>
				<polygon class="PF01370" points="1184,28 1196,28 1200,34 1200,46 1196,52 1184,52" stroke-linejoin="round" width="16" height="24" fill="rgb(215,89,157)" stroke="rgb(172,71,125)" stroke-width="1" opacity="0.75" />
			</g>
		</g>
		<g>
			<title>pnxU
putative 3-oxoacyl-ACP synthase III</title>
			<polygon class="pnxU
putative 3-oxoacyl-ACP synthase III" points="1210,25 1213,25 1213,10 1243,40 1213,70 1213,55 1210,55" fill="rgb(255,255,255)" fill-opacity="1.0" stroke="rgb(0,0,0)" stroke-width="2"  />
			<g>
				<title>ACP_syn_III (PF08545)
"3-Oxoacyl-[acyl-carrier-protein (ACP)] synthase III"</title>
				<polygon class="PF08545" points="1221,28 1227,28 1228,29 1228,51 1227,52 1221,52" stroke-linejoin="round" width="7" height="24" fill="rgb(93,213,73)" stroke="rgb(74,170,58)" stroke-width="1" opacity="0.75" />
			</g>
			<g>
				<title>ACP_syn_III_C (PF08541)
"3-Oxoacyl-[acyl-carrier-protein (ACP)] synthase III C terminal"</title>
				<polygon class="PF08541" points="1234,35 1239,40 1234,45" stroke-linejoin="round" width="9" height="24" fill="rgb(223,111,121)" stroke="rgb(178,88,96)" stroke-width="1" opacity="0.75" />
			</g>
		</g>
		<g>
			<title>pnxV
putative acyl carrier protein</title>
			<polygon class="pnxV
putative acyl carrier protein" points="1246,10 1254,40 1246,70" fill="rgb(255,255,255)" fill-opacity="1.0" stroke="rgb(0,0,0)" stroke-width="2"  />
			<g>
				<title>PP-binding (PF00550)
"Phosphopantetheine attachment site"</title>
				<polygon class="PF00550" points="1247,28 1247,28 1251,40 1247,52 1247,52" stroke-linejoin="round" width="5" height="24" fill="rgb(181,58,166)" stroke="rgb(144,46,132)" stroke-width="1" opacity="0.75" />
			</g>
		</g>
		<g>
			<title>pnxO7
putative dehydrogenase</title>
			<polygon class="pnxO7
putative dehydrogenase" points="1288,25 1287,25 1287,10 1257,40 1287,70 1287,55 1288,55" fill="rgb(255,255,255)" fill-opacity="1.0" stroke="rgb(0,0,0)" stroke-width="2"  />
			<g>
				<title>NAD_binding_11 (PF14833)
"NAD-binding of NADP-dependent 3-hydroxyisobutyrate dehydrogenase"</title>
				<polygon class="PF14833" points="1261,40 1269,32 1269,48" stroke-linejoin="round" width="12" height="24" fill="rgb(71,220,222)" stroke="rgb(56,176,177)" stroke-width="1" opacity="0.75" />
			</g>
			<g>
				<title>NAD_binding_2 (PF03446)
"NAD binding domain of 6-phosphogluconate dehydrogenase"</title>
				<polygon class="PF03446" points="1270,31 1273,28 1285,28 1285,52 1273,52 1270,49" stroke-linejoin="round" width="15" height="24" fill="rgb(119,80,223)" stroke="rgb(95,64,178)" stroke-width="1" opacity="0.75" />
			</g>
		</g>
		<g>
			<title>pnxO8
hypothetical protein</title>
			<polygon class="pnxO8
hypothetical protein" points="1290,40 1303,10 1303,70" fill="rgb(255,255,255)" fill-opacity="1.0" stroke="rgb(0,0,0)" stroke-width="2"  />
			<g>
				<title>SchA_CurD (PF04486)
"SchA/CurD like domain"</title>
				<polygon class="PF04486" points="1293,40 1298,28 1302,28 1302,52 1298,52" stroke-linejoin="round" width="11" height="24" fill="rgb(162,226,64)" stroke="rgb(129,180,51)" stroke-width="1" opacity="0.75" />
			</g>
		</g>
		<g>
			<title>pnxW
putative 3-ketoacyl-ACP reductase</title>
			<polygon class="pnxW
putative 3-ketoacyl-ACP reductase" points="1306,40 1330,10 1330,70" fill="rgb(255,255,255)" fill-opacity="1.0" stroke="rgb(0,0,0)" stroke-width="2"  />
			<g>
				<title>adh_short_C2 (PF13561)
"Enoyl-(Acyl carrier protein) reductase"</title>
				<polygon class="PF13561" points="1310,40 1320,28 1329,28 1329,52 1320,52" stroke-linejoin="round" width="23" height="24" fill="rgb(79,221,209)" stroke="rgb(63,176,167)" stroke-width="1" opacity="0.75" />
			</g>
		</g>
		<g>
			<title>
hypothetical protein</title>
			<polygon class="
hypothetical protein" points="1337,10 1350,40 1337,70" fill="rgb(255,255,255)" fill-opacity="1.0" stroke="rgb(0,0,0)" stroke-width="2"  />
			<g>
				<title>SepF (PF04472)
"Cell division protein SepF"</title>
				<polygon class="PF04472" points="1341,28 1341,28 1347,40 1341,52 1341,52" stroke-linejoin="round" width="7" height="24" fill="rgb(179,45,62)" stroke="rgb(143,36,49)" stroke-width="1" opacity="0.75" />
			</g>
		</g>
		<g>
			<title>
hypothetical protein</title>
			<polygon class="
hypothetical protein" points="1351,25 1361,25 1361,10 1391,40 1361,70 1361,55 1351,55" fill="rgb(255,255,255)" fill-opacity="1.0" stroke="rgb(0,0,0)" stroke-width="2"  />
		</g>
		<g>
			<title>
hypothetical protein</title>
			<polygon class="
hypothetical protein" points="1392,10 1405,40 1392,70" fill="rgb(255,255,255)" fill-opacity="1.0" stroke="rgb(0,0,0)" stroke-width="2"  />
			<g>
				<title>MazG-like (PF12643)
"MazG-like family"</title>
				<polygon class="PF12643" points="1397,28 1402,40 1397,52" stroke-linejoin="round" width="8" height="24" fill="rgb(73,202,222)" stroke="rgb(58,161,177)" stroke-width="1" opacity="0.75" />
			</g>
		</g>
		<g>
			<title>
hypothetical protein</title>
			<polygon class="
hypothetical protein" points="1410,10 1425,40 1410,70" fill="rgb(255,255,255)" fill-opacity="1.0" stroke="rgb(0,0,0)" stroke-width="2"  />
			<g>
				<title>DUF6099 (PF19594)
"Family of unknown function (DUF6099)"</title>
				<polygon class="PF19594" points="1410,28 1415,28 1421,40 1415,52 1410,52" stroke-linejoin="round" width="14" height="24" fill="rgb(214,81,187)" stroke="rgb(171,64,149)" stroke-width="1" opacity="0.75" />
			</g>
		</g>
	</g>
</svg>
