<svg version="1.1" baseProfile="full" xmlns="http://www.w3.org/2000/svg" width="324.0" height="80">
	<g>
		<line x1="10" y1="40.0" x2="314.0" y2="40.0" style="stroke:rgb(70,70,70); stroke-width:3 "/>
		<g>
			<title>orfA</title>
			<polygon class="orfA" points="10,10 24,40 10,70" fill="rgb(255,255,255)" fill-opacity="1.0" stroke="rgb(0,0,0)" stroke-width="2"  />
		</g>
		<g>
			<title>napH
N-acetylpuromycin N-acetylhydrolase</title>
			<polygon class="napH
N-acetylpuromycin N-acetylhydrolase" points="33,25 51,25 51,10 81,40 51,70 51,55 33,55" fill="rgb(255,255,255)" fill-opacity="1.0" stroke="rgb(0,0,0)" stroke-width="2"  />
			<g>
				<title>PA (PF02225)
"PA domain"</title>
				<rect class="PF02225" x="46" y="28" stroke-linejoin="round" width="9" height="24" fill="rgb(71,202,141)" stroke="rgb(56,161,112)" stroke-width="1" opacity="0.75" />
			</g>
			<g>
				<title>Peptidase_M28 (PF04389)
"Peptidase family M28"</title>
				<polygon class="PF04389" points="57,28 65,28 77,40 65,52 57,52" stroke-linejoin="round" width="22" height="24" fill="rgb(181,83,196)" stroke="rgb(144,66,156)" stroke-width="1" opacity="0.75" />
			</g>
		</g>
		<g>
			<title>pur7
NTP pyrophosphohydrolase</title>
			<polygon class="pur7
NTP pyrophosphohydrolase" points="82,10 97,40 82,70" fill="rgb(255,255,255)" fill-opacity="1.0" stroke="rgb(0,0,0)" stroke-width="2"  />
			<g>
				<title>NUDIX (PF00293)
"NUDIX domain"</title>
				<polygon class="PF00293" points="82,28 87,28 93,40 87,52 82,52" stroke-linejoin="round" width="13" height="24" fill="rgb(185,54,57)" stroke="rgb(148,43,45)" stroke-width="1" opacity="0.75" />
			</g>
		</g>
		<g>
			<title>pur10
Oxido-reductase</title>
			<polygon class="pur10
Oxido-reductase" points="100,25 103,25 103,10 133,40 103,70 103,55 100,55" fill="rgb(255,255,255)" fill-opacity="1.0" stroke="rgb(0,0,0)" stroke-width="2"  />
			<g>
				<title>GFO_IDH_MocA (PF01408)
"Oxidoreductase family, NAD-binding Rossmann fold"</title>
				<rect class="PF01408" x="101" y="28" stroke-linejoin="round" width="11" height="24" fill="rgb(53,193,178)" stroke="rgb(42,154,142)" stroke-width="1" opacity="0.75" />
			</g>
			<g>
				<title>GFO_IDH_MocA_C (PF02894)
"Oxidoreductase family, C-terminal alpha/beta domain"</title>
				<polygon class="PF02894" points="114,28 117,28 129,40 117,52 114,52" stroke-linejoin="round" width="18" height="24" fill="rgb(89,185,176)" stroke="rgb(71,148,140)" stroke-width="1" opacity="0.75" />
			</g>
		</g>
		<g>
			<title>pur6
Synthetase</title>
			<polygon class="pur6
Synthetase" points="135,25 182,25 182,10 212,40 182,70 182,55 135,55" fill="rgb(255,255,255)" fill-opacity="1.0" stroke="rgb(0,0,0)" stroke-width="2"  />
		</g>
		<g>
			<title>pur4
Amino-transferase</title>
			<polygon class="pur4
Amino-transferase" points="214,25 227,25 227,10 257,40 227,70 227,55 214,55" fill="rgb(255,255,255)" fill-opacity="1.0" stroke="rgb(0,0,0)" stroke-width="2"  />
			<g>
				<title>DegT_DnrJ_EryC1 (PF01041)
"DegT/DnrJ/EryC1/StrS aminotransferase family"</title>
				<polygon class="PF01041" points="216,28 240,28 252,40 252,40 240,52 216,52" stroke-linejoin="round" width="36" height="24" fill="rgb(228,110,183)" stroke="rgb(182,88,146)" stroke-width="1" opacity="0.75" />
			</g>
		</g>
		<g>
			<title>pur5
N-methyl-transferase</title>
			<polygon class="pur5
N-methyl-transferase" points="259,10 281,40 259,70" fill="rgb(255,255,255)" fill-opacity="1.0" stroke="rgb(0,0,0)" stroke-width="2"  />
			<g>
				<title>MTS (PF05175)
"Methyltransferase small domain"</title>
				<polygon class="PF05175" points="262,28 269,28 278,40 269,52 262,52" stroke-linejoin="round" width="18" height="24" fill="rgb(70,94,185)" stroke="rgb(56,75,148)" stroke-width="1" opacity="0.75" />
			</g>
		</g>
		<g>
			<title>pur3
Mono-phosphatase</title>
			<polygon class="pur3
Mono-phosphatase" points="285,10 312,40 285,70" fill="rgb(255,255,255)" fill-opacity="1.0" stroke="rgb(0,0,0)" stroke-width="2"  />
			<g>
				<title>Inositol_P (PF00459)
"Inositol monophosphatase family"</title>
				<polygon class="PF00459" points="285,28 296,28 308,40 296,52 285,52" stroke-linejoin="round" width="26" height="24" fill="rgb(213,222,107)" stroke="rgb(170,177,85)" stroke-width="1" opacity="0.75" />
			</g>
		</g>
	</g>
</svg>
