<svg version="1.1" baseProfile="full" xmlns="http://www.w3.org/2000/svg" width="4029.733333333333" height="160">
	<g>
		<line x1="10" y1="40.0" x2="4019.733333333333" y2="40.0" style="stroke:rgb(70,70,70); stroke-width:3 "/>
		<g>
			<title>
hypothetical protein</title>
			<polygon class="
hypothetical protein" points="93,25 59,25 59,10 29,40 59,70 59,55 93,55" fill="rgb(255,255,255)" fill-opacity="1.0" stroke="rgb(0,0,0)" stroke-width="2"  />
			<g>
				<title>p450 (PF00067)
"Cytochrome P450"</title>
				<polygon class="PF00067" points="44,29 45,28 90,28 90,52 45,52 44,51" stroke-linejoin="round" width="46" height="24" fill="rgb(195,210,54)" stroke="rgb(155,168,43)" stroke-width="1" opacity="0.75" />
			</g>
		</g>
		<g>
			<title>
hypothetical protein</title>
			<polygon class="
hypothetical protein" points="127,25 165,25 165,10 195,40 165,70 165,55 127,55" fill="rgb(255,255,255)" fill-opacity="1.0" stroke="rgb(0,0,0)" stroke-width="2"  />
			<g>
				<title>Fung_rhodopsin (PF20684)
"Fungal rhodopsin domain"</title>
				<rect class="PF20684" x="138" y="28" stroke-linejoin="round" width="23" height="24" fill="rgb(199,225,87)" stroke="rgb(159,180,69)" stroke-width="1" opacity="0.75" />
			</g>
		</g>
		<g>
			<title>
hypothetical protein</title>
			<polygon class="
hypothetical protein" points="243,25 259,25 259,10 289,40 259,70 259,55 243,55" fill="rgb(255,255,255)" fill-opacity="1.0" stroke="rgb(0,0,0)" stroke-width="2"  />
			<g>
				<title>TAL_FSA (PF00923)
"Transaldolase/Fructose-6-phosphate aldolase"</title>
				<polygon class="PF00923" points="245,28 273,28 276,31 276,49 273,52 245,52" stroke-linejoin="round" width="31" height="24" fill="rgb(93,197,162)" stroke="rgb(74,157,129)" stroke-width="1" opacity="0.75" />
			</g>
		</g>
		<g>
			<title>
hypothetical protein</title>
			<polygon class="
hypothetical protein" points="307,25 322,25 322,10 352,40 322,70 322,55 307,55" fill="rgb(255,255,255)" fill-opacity="1.0" stroke="rgb(0,0,0)" stroke-width="2"  />
			<g>
				<title>Lipase_GDSL (PF00657)
"GDSL-like Lipase/Acylhydrolase"</title>
				<rect class="PF00657" x="310" y="28" stroke-linejoin="round" width="26" height="24" fill="rgb(99,193,95)" stroke="rgb(79,154,76)" stroke-width="1" opacity="0.75" />
			</g>
		</g>
		<g>
			<title>ecdB
EcdB</title>
			<polygon class="ecdB
EcdB" points="925,25 892,25 892,10 862,40 892,70 892,55 925,55" fill="rgb(255,255,255)" fill-opacity="1.0" stroke="rgb(0,0,0)" stroke-width="2"  />
			<g>
				<title>Zn_clus (PF00172)
"Fungal Zn(2)-Cys(6) binuclear cluster domain"</title>
				<rect class="PF00172" x="921" y="28" stroke-linejoin="round" width="3" height="24" fill="rgb(58,207,82)" stroke="rgb(46,165,65)" stroke-width="1" opacity="0.75" />
			</g>
		</g>
		<g>
			<title>ecdC
EcdC</title>
			<polygon class="ecdC
EcdC" points="957,25 994,25 994,10 1024,40 994,70 994,55 957,55" fill="rgb(255,255,255)" fill-opacity="1.0" stroke="rgb(0,0,0)" stroke-width="2"  />
			<g>
				<title>Sugar_tr (PF00083)
"Sugar (and other) transporter"</title>
				<rect class="PF00083" x="962" y="28" stroke-linejoin="round" width="46" height="24" fill="rgb(186,204,56)" stroke="rgb(148,163,44)" stroke-width="1" opacity="0.75" />
			</g>
		</g>
		<g>
			<title>ecdD
EcdD</title>
			<polygon class="ecdD
EcdD" points="1107,25 1076,25 1076,10 1046,40 1076,70 1076,55 1107,55" fill="rgb(255,255,255)" fill-opacity="1.0" stroke="rgb(0,0,0)" stroke-width="2"  />
			<g>
				<title>Sugar_tr (PF00083)
"Sugar (and other) transporter"</title>
				<polygon class="PF00083" points="1058,32 1062,28 1104,28 1104,52 1062,52 1058,48" stroke-linejoin="round" width="46" height="24" fill="rgb(186,204,56)" stroke="rgb(148,163,44)" stroke-width="1" opacity="0.75" />
			</g>
		</g>
		<g>
			<title>ecdE
EcdE</title>
			<polygon class="ecdE
EcdE" points="1219,25 1177,25 1177,10 1147,40 1177,70 1177,55 1219,55" fill="rgb(255,255,255)" fill-opacity="1.0" stroke="rgb(0,0,0)" stroke-width="2"  />
			<g>
				<title>Glyco_hydro_32C (PF08244)
"Glycosyl hydrolases family 32 C terminal"</title>
				<polygon class="PF08244" points="1151,40 1163,28 1164,28 1164,52 1163,52" stroke-linejoin="round" width="15" height="24" fill="rgb(90,224,216)" stroke="rgb(72,179,172)" stroke-width="1" opacity="0.75" />
			</g>
			<g>
				<title>Glyco_hydro_32N (PF00251)
"Glycosyl hydrolases family 32 N-terminal domain"</title>
				<rect class="PF00251" x="1165" y="28" stroke-linejoin="round" width="12" height="24" fill="rgb(199,99,102)" stroke="rgb(159,79,81)" stroke-width="1" opacity="0.75" />
			</g>
			<g>
				<title>Glyco_hydro_32N (PF00251)
"Glycosyl hydrolases family 32 N-terminal domain"</title>
				<rect class="PF00251" x="1185" y="28" stroke-linejoin="round" width="29" height="24" fill="rgb(199,99,102)" stroke="rgb(159,79,81)" stroke-width="1" opacity="0.75" />
			</g>
		</g>
		<g>
			<title>ecdF
EcdF</title>
			<polygon class="ecdF
EcdF" points="1246,25 1281,25 1281,10 1311,40 1281,70 1281,55 1246,55" fill="rgb(255,255,255)" fill-opacity="1.0" stroke="rgb(0,0,0)" stroke-width="2"  />
			<g>
				<title>Glyco_hydro_32N (PF00251)
"Glycosyl hydrolases family 32 N-terminal domain"</title>
				<rect class="PF00251" x="1248" y="28" stroke-linejoin="round" width="32" height="24" fill="rgb(199,99,102)" stroke="rgb(159,79,81)" stroke-width="1" opacity="0.75" />
			</g>
			<g>
				<title>Glyco_hydro_32C (PF08244)
"Glycosyl hydrolases family 32 C terminal"</title>
				<rect class="PF08244" x="1280" y="28" stroke-linejoin="round" width="15" height="24" fill="rgb(90,224,216)" stroke="rgb(72,179,172)" stroke-width="1" opacity="0.75" />
			</g>
		</g>
		<g>
			<title>ecdA
EcdA</title>
			<polygon class="ecdA
EcdA" points="1385,25 2085,25 2085,10 2115,40 2085,70 2085,55 1385,55" fill="rgb(255,255,255)" fill-opacity="1.0" stroke="rgb(0,0,0)" stroke-width="2"  />
			<g>
				<title>PP-binding (PF00550)
"Phosphopantetheine attachment site"</title>
				<rect class="PF00550" x="1386" y="28" stroke-linejoin="round" width="6" height="24" fill="rgb(181,58,166)" stroke="rgb(144,46,132)" stroke-width="1" opacity="0.75" />
			</g>
			<g>
				<title>Condensation (PF00668)
"Condensation domain"</title>
				<rect class="PF00668" x="1398" y="28" stroke-linejoin="round" width="42" height="24" fill="rgb(172,217,60)" stroke="rgb(137,173,47)" stroke-width="1" opacity="0.75" />
			</g>
			<g>
				<title>AMP-binding (PF00501)
"AMP-binding enzyme"</title>
				<rect class="PF00501" x="1442" y="28" stroke-linejoin="round" width="34" height="24" fill="rgb(189,78,204)" stroke="rgb(151,62,163)" stroke-width="1" opacity="0.75" />
			</g>
			<g>
				<title>PP-binding (PF00550)
"Phosphopantetheine attachment site"</title>
				<rect class="PF00550" x="1494" y="28" stroke-linejoin="round" width="6" height="24" fill="rgb(181,58,166)" stroke="rgb(144,46,132)" stroke-width="1" opacity="0.75" />
			</g>
			<g>
				<title>Condensation (PF00668)
"Condensation domain"</title>
				<rect class="PF00668" x="1505" y="28" stroke-linejoin="round" width="42" height="24" fill="rgb(172,217,60)" stroke="rgb(137,173,47)" stroke-width="1" opacity="0.75" />
			</g>
			<g>
				<title>AMP-binding (PF00501)
"AMP-binding enzyme"</title>
				<rect class="PF00501" x="1550" y="28" stroke-linejoin="round" width="34" height="24" fill="rgb(189,78,204)" stroke="rgb(151,62,163)" stroke-width="1" opacity="0.75" />
			</g>
			<g>
				<title>PP-binding (PF00550)
"Phosphopantetheine attachment site"</title>
				<rect class="PF00550" x="1604" y="28" stroke-linejoin="round" width="6" height="24" fill="rgb(181,58,166)" stroke="rgb(144,46,132)" stroke-width="1" opacity="0.75" />
			</g>
			<g>
				<title>Condensation (PF00668)
"Condensation domain"</title>
				<rect class="PF00668" x="1616" y="28" stroke-linejoin="round" width="42" height="24" fill="rgb(172,217,60)" stroke="rgb(137,173,47)" stroke-width="1" opacity="0.75" />
			</g>
			<g>
				<title>AMP-binding (PF00501)
"AMP-binding enzyme"</title>
				<rect class="PF00501" x="1661" y="28" stroke-linejoin="round" width="34" height="24" fill="rgb(189,78,204)" stroke="rgb(151,62,163)" stroke-width="1" opacity="0.75" />
			</g>
			<g>
				<title>PP-binding (PF00550)
"Phosphopantetheine attachment site"</title>
				<rect class="PF00550" x="1714" y="28" stroke-linejoin="round" width="6" height="24" fill="rgb(181,58,166)" stroke="rgb(144,46,132)" stroke-width="1" opacity="0.75" />
			</g>
			<g>
				<title>Condensation (PF00668)
"Condensation domain"</title>
				<rect class="PF00668" x="1726" y="28" stroke-linejoin="round" width="41" height="24" fill="rgb(172,217,60)" stroke="rgb(137,173,47)" stroke-width="1" opacity="0.75" />
			</g>
			<g>
				<title>AMP-binding (PF00501)
"AMP-binding enzyme"</title>
				<rect class="PF00501" x="1770" y="28" stroke-linejoin="round" width="34" height="24" fill="rgb(189,78,204)" stroke="rgb(151,62,163)" stroke-width="1" opacity="0.75" />
			</g>
			<g>
				<title>PP-binding (PF00550)
"Phosphopantetheine attachment site"</title>
				<rect class="PF00550" x="1825" y="28" stroke-linejoin="round" width="6" height="24" fill="rgb(181,58,166)" stroke="rgb(144,46,132)" stroke-width="1" opacity="0.75" />
			</g>
			<g>
				<title>Condensation (PF00668)
"Condensation domain"</title>
				<rect class="PF00668" x="1835" y="28" stroke-linejoin="round" width="42" height="24" fill="rgb(172,217,60)" stroke="rgb(137,173,47)" stroke-width="1" opacity="0.75" />
			</g>
			<g>
				<title>AMP-binding (PF00501)
"AMP-binding enzyme"</title>
				<rect class="PF00501" x="1880" y="28" stroke-linejoin="round" width="34" height="24" fill="rgb(189,78,204)" stroke="rgb(151,62,163)" stroke-width="1" opacity="0.75" />
			</g>
			<g>
				<title>PP-binding (PF00550)
"Phosphopantetheine attachment site"</title>
				<rect class="PF00550" x="1935" y="28" stroke-linejoin="round" width="6" height="24" fill="rgb(181,58,166)" stroke="rgb(144,46,132)" stroke-width="1" opacity="0.75" />
			</g>
			<g>
				<title>Condensation (PF00668)
"Condensation domain"</title>
				<rect class="PF00668" x="1947" y="28" stroke-linejoin="round" width="42" height="24" fill="rgb(172,217,60)" stroke="rgb(137,173,47)" stroke-width="1" opacity="0.75" />
			</g>
			<g>
				<title>AMP-binding (PF00501)
"AMP-binding enzyme"</title>
				<rect class="PF00501" x="1991" y="28" stroke-linejoin="round" width="34" height="24" fill="rgb(189,78,204)" stroke="rgb(151,62,163)" stroke-width="1" opacity="0.75" />
			</g>
			<g>
				<title>PP-binding (PF00550)
"Phosphopantetheine attachment site"</title>
				<rect class="PF00550" x="2044" y="28" stroke-linejoin="round" width="6" height="24" fill="rgb(181,58,166)" stroke="rgb(144,46,132)" stroke-width="1" opacity="0.75" />
			</g>
			<g>
				<title>Condensation (PF00668)
"Condensation domain"</title>
				<rect class="PF00668" x="2056" y="28" stroke-linejoin="round" width="42" height="24" fill="rgb(172,217,60)" stroke="rgb(137,173,47)" stroke-width="1" opacity="0.75" />
			</g>
		</g>
		<g>
			<title>ecdG
EcdG</title>
			<polygon class="ecdG
EcdG" points="2122,25 2130,25 2130,10 2160,40 2130,70 2130,55 2122,55" fill="rgb(255,255,255)" fill-opacity="1.0" stroke="rgb(0,0,0)" stroke-width="2"  />
			<g>
				<title>2OG-FeII_Oxy (PF03171)
"2OG-Fe(II) oxygenase superfamily"</title>
				<polygon class="PF03171" points="2137,28 2144,28 2148,32 2148,48 2144,52 2137,52" stroke-linejoin="round" width="11" height="24" fill="rgb(182,163,77)" stroke="rgb(145,130,61)" stroke-width="1" opacity="0.75" />
			</g>
		</g>
		<g>
			<title>ecdH
EcdH</title>
			<polygon class="ecdH
EcdH" points="2174,25 2196,25 2196,10 2226,40 2196,70 2196,55 2174,55" fill="rgb(255,255,255)" fill-opacity="1.0" stroke="rgb(0,0,0)" stroke-width="2"  />
			<g>
				<title>p450 (PF00067)
"Cytochrome P450"</title>
				<polygon class="PF00067" points="2186,28 2209,28 2221,40 2209,52 2186,52" stroke-linejoin="round" width="36" height="24" fill="rgb(195,210,54)" stroke="rgb(155,168,43)" stroke-width="1" opacity="0.75" />
			</g>
		</g>
		<g>
			<title>ecdI
EcdI</title>
			<polygon class="ecdI
EcdI" points="2292,25 2258,25 2258,10 2228,40 2258,70 2258,55 2292,55" fill="rgb(255,255,255)" fill-opacity="1.0" stroke="rgb(0,0,0)" stroke-width="2"  />
			<g>
				<title>AMP-binding_C (PF13193)
"AMP-binding enzyme C-terminal domain"</title>
				<polygon class="PF13193" points="2237,35 2244,28 2245,28 2245,52 2244,52 2237,45" stroke-linejoin="round" width="8" height="24" fill="rgb(195,82,106)" stroke="rgb(156,65,84)" stroke-width="1" opacity="0.75" />
			</g>
			<g>
				<title>AMP-binding (PF00501)
"AMP-binding enzyme"</title>
				<rect class="PF00501" x="2250" y="28" stroke-linejoin="round" width="38" height="24" fill="rgb(189,78,204)" stroke="rgb(151,62,163)" stroke-width="1" opacity="0.75" />
			</g>
		</g>
		<g>
			<title>ecdJ
EcdJ</title>
			<polygon class="ecdJ
EcdJ" points="2343,25 2384,25 2384,10 2414,40 2384,70 2384,55 2343,55" fill="rgb(255,255,255)" fill-opacity="1.0" stroke="rgb(0,0,0)" stroke-width="2"  />
		</g>
		<g>
			<title>ecdK
EcdK</title>
			<polygon class="ecdK
EcdK" points="2455,25 2448,25 2448,10 2418,40 2448,70 2448,55 2455,55" fill="rgb(255,255,255)" fill-opacity="1.0" stroke="rgb(0,0,0)" stroke-width="2"  />
			<g>
				<title>2OG-FeII_Oxy (PF03171)
"2OG-Fe(II) oxygenase superfamily"</title>
				<polygon class="PF03171" points="2425,37 2434,28 2436,28 2436,52 2434,52 2425,43" stroke-linejoin="round" width="11" height="24" fill="rgb(182,163,77)" stroke="rgb(145,130,61)" stroke-width="1" opacity="0.75" />
			</g>
			<g>
				<title>DIOX_N (PF14226)
"non-haem dioxygenase in morphine synthesis N-terminal"</title>
				<rect class="PF14226" x="2442" y="28" stroke-linejoin="round" width="12" height="24" fill="rgb(193,95,155)" stroke="rgb(154,76,124)" stroke-width="1" opacity="0.75" />
			</g>
		</g>
		<g>
			<title>ecdL
EcdL</title>
			<polygon class="ecdL
EcdL" points="2464,25 2607,25 2607,10 2637,40 2607,70 2607,55 2464,55" fill="rgb(255,255,255)" fill-opacity="1.0" stroke="rgb(0,0,0)" stroke-width="2"  />
			<g>
				<title>ABC_tran (PF00005)
"ABC transporter"</title>
				<rect class="PF00005" x="2526" y="28" stroke-linejoin="round" width="13" height="24" fill="rgb(46,186,108)" stroke="rgb(36,148,86)" stroke-width="1" opacity="0.75" />
			</g>
			<g>
				<title>ABC_membrane (PF00664)
"ABC transporter transmembrane region"</title>
				<rect class="PF00664" x="2555" y="28" stroke-linejoin="round" width="26" height="24" fill="rgb(62,71,183)" stroke="rgb(49,56,146)" stroke-width="1" opacity="0.75" />
			</g>
			<g>
				<title>ABC_tran (PF00005)
"ABC transporter"</title>
				<rect class="PF00005" x="2588" y="28" stroke-linejoin="round" width="14" height="24" fill="rgb(46,186,108)" stroke="rgb(36,148,86)" stroke-width="1" opacity="0.75" />
			</g>
		</g>
		<g>
			<title>
hypothetical protein</title>
			<polygon class="
hypothetical protein" points="2973,25 2775,25 2775,10 2745,40 2775,70 2775,55 2973,55" fill="rgb(255,255,255)" fill-opacity="1.0" stroke="rgb(0,0,0)" stroke-width="2"  />
			<g>
				<title>Eisosome1 (PF12757)
"Eisosome protein 1"</title>
				<rect class="PF12757" x="2869" y="28" stroke-linejoin="round" width="12" height="24" fill="rgb(93,206,145)" stroke="rgb(74,164,116)" stroke-width="1" opacity="0.75" />
			</g>
			<g>
				<title>MFS_1 (PF07690)
"Major Facilitator Superfamily"</title>
				<rect class="PF07690" x="2924" y="28" stroke-linejoin="round" width="41" height="24" fill="rgb(228,207,98)" stroke="rgb(182,165,78)" stroke-width="1" opacity="0.75" />
			</g>
		</g>
		<g>
			<title>
hypothetical protein</title>
			<polygon class="
hypothetical protein" points="3098,25 3120,25 3120,10 3150,40 3120,70 3120,55 3098,55" fill="rgb(255,255,255)" fill-opacity="1.0" stroke="rgb(0,0,0)" stroke-width="2"  />
			<g>
				<title>Prenyltrans (PF00432)
"Prenyltransferase and squalene oxidase repeat"</title>
				<rect class="PF00432" x="3103" y="28" stroke-linejoin="round" width="5" height="24" fill="rgb(159,208,89)" stroke="rgb(127,166,71)" stroke-width="1" opacity="0.75" />
			</g>
			<g>
				<title>Prenyltrans (PF00432)
"Prenyltransferase and squalene oxidase repeat"</title>
				<rect class="PF00432" x="3110" y="28" stroke-linejoin="round" width="4" height="24" fill="rgb(159,208,89)" stroke="rgb(127,166,71)" stroke-width="1" opacity="0.75" />
			</g>
			<g>
				<title>Prenyltrans (PF00432)
"Prenyltransferase and squalene oxidase repeat"</title>
				<rect class="PF00432" x="3116" y="28" stroke-linejoin="round" width="2" height="24" fill="rgb(159,208,89)" stroke="rgb(127,166,71)" stroke-width="1" opacity="0.75" />
			</g>
			<g>
				<title>Prenyltrans (PF00432)
"Prenyltransferase and squalene oxidase repeat"</title>
				<rect class="PF00432" x="3128" y="28" stroke-linejoin="round" width="2" height="24" fill="rgb(159,208,89)" stroke="rgb(127,166,71)" stroke-width="1" opacity="0.75" />
			</g>
		</g>
		<g>
			<title>
hypothetical protein</title>
			<polygon class="
hypothetical protein" points="3196,25 3262,25 3262,10 3292,40 3262,70 3262,55 3196,55" fill="rgb(255,255,255)" fill-opacity="1.0" stroke="rgb(0,0,0)" stroke-width="2"  />
			<g>
				<title>Pkinase (PF00069)
"Protein kinase domain"</title>
				<rect class="PF00069" x="3198" y="28" stroke-linejoin="round" width="24" height="24" fill="rgb(93,191,206)" stroke="rgb(74,152,164)" stroke-width="1" opacity="0.75" />
			</g>
		</g>
		<g>
			<title>
hypothetical protein</title>
			<polygon class="
hypothetical protein" points="3325,25 3346,25 3346,10 3376,40 3346,70 3346,55 3325,55" fill="rgb(255,255,255)" fill-opacity="1.0" stroke="rgb(0,0,0)" stroke-width="2"  />
			<g>
				<title>Rttp106-like_middle (PF08512)
"Histone chaperone Rttp106-like, middle domain"</title>
				<rect class="PF08512" x="3351" y="28" stroke-linejoin="round" width="9" height="24" fill="rgb(227,79,130)" stroke="rgb(181,63,104)" stroke-width="1" opacity="0.75" />
			</g>
		</g>
		<g>
			<title>
hypothetical protein</title>
			<polygon class="
hypothetical protein" points="3446,25 3467,25 3467,10 3497,40 3467,70 3467,55 3446,55" fill="rgb(255,255,255)" fill-opacity="1.0" stroke="rgb(0,0,0)" stroke-width="2"  />
			<g>
				<title>Pkinase (PF00069)
"Protein kinase domain"</title>
				<rect class="PF00069" x="3447" y="28" stroke-linejoin="round" width="27" height="24" fill="rgb(93,191,206)" stroke="rgb(74,152,164)" stroke-width="1" opacity="0.75" />
			</g>
		</g>
		<g>
			<title>
hypothetical protein</title>
			<polygon class="
hypothetical protein" points="3764,25 3770,25 3770,10 3800,40 3770,70 3770,55 3764,55" fill="rgb(255,255,255)" fill-opacity="1.0" stroke="rgb(0,0,0)" stroke-width="2"  />
			<g>
				<title>RGS (PF00615)
"Regulator of G protein signaling domain"</title>
				<rect class="PF00615" x="3770" y="28" stroke-linejoin="round" width="13" height="24" fill="rgb(203,120,61)" stroke="rgb(162,96,48)" stroke-width="1" opacity="0.75" />
			</g>
		</g>
		<g>
			<title>
hypothetical protein</title>
			<polygon class="
hypothetical protein" points="3891,25 3854,25 3854,10 3824,40 3854,70 3854,55 3891,55" fill="rgb(255,255,255)" fill-opacity="1.0" stroke="rgb(0,0,0)" stroke-width="2"  />
			<g>
				<title>UVB_sens_prot (PF04884)
"Vitamin B6 photo-protection and homoeostasis"</title>
				<rect class="PF04884" x="3862" y="28" stroke-linejoin="round" width="22" height="24" fill="rgb(184,71,227)" stroke="rgb(147,56,181)" stroke-width="1" opacity="0.75" />
			</g>
		</g>
	</g>
	<g>
		<line x1="10" y1="120.0" x2="1593.8" y2="120.0" style="stroke:rgb(70,70,70); stroke-width:3 "/>
		<g>
			<title>
hypothetical protein</title>
			<polygon class="
hypothetical protein" points="32,105 48,105 48,90 78,120 48,150 48,135 32,135" fill="rgb(255,255,255)" fill-opacity="1.0" stroke="rgb(0,0,0)" stroke-width="2"  />
		</g>
		<g>
			<title>
hypothetical protein</title>
			<polygon class="
hypothetical protein" points="145,105 195,105 195,90 225,120 195,150 195,135 145,135" fill="rgb(255,255,255)" fill-opacity="1.0" stroke="rgb(0,0,0)" stroke-width="2"  />
		</g>
		<g>
			<title>
hypothetical protein</title>
			<polygon class="
hypothetical protein" points="295,105 269,105 269,90 239,120 269,150 269,135 295,135" fill="rgb(255,255,255)" fill-opacity="1.0" stroke="rgb(0,0,0)" stroke-width="2"  />
		</g>
		<g>
			<title>
hypothetical protein</title>
			<polygon class="
hypothetical protein" points="331,105 373,105 373,90 403,120 373,150 373,135 331,135" fill="rgb(255,255,255)" fill-opacity="1.0" stroke="rgb(0,0,0)" stroke-width="2"  />
		</g>
		<g>
			<title>
hypothetical protein</title>
			<polygon class="
hypothetical protein" points="605,105 465,105 465,90 435,120 465,150 465,135 605,135" fill="rgb(255,255,255)" fill-opacity="1.0" stroke="rgb(0,0,0)" stroke-width="2"  />
		</g>
		<g>
			<title>
hypothetical protein</title>
			<polygon class="
hypothetical protein" points="648,105 655,105 655,90 685,120 655,150 655,135 648,135" fill="rgb(255,255,255)" fill-opacity="1.0" stroke="rgb(0,0,0)" stroke-width="2"  />
		</g>
		<g>
			<title>htyF
HtyF</title>
			<polygon class="htyF
HtyF" points="758,105 819,105 819,90 849,120 819,150 819,135 758,135" fill="rgb(255,255,255)" fill-opacity="1.0" stroke="rgb(0,0,0)" stroke-width="2"  />
		</g>
		<g>
			<title>htyE
HtyE</title>
			<polygon class="htyE
HtyE" points="865,105 871,105 871,90 901,120 871,150 871,135 865,135" fill="rgb(255,255,255)" fill-opacity="1.0" stroke="rgb(0,0,0)" stroke-width="2"  />
		</g>
		<g>
			<title>htyA
HtyA</title>
			<polygon class="htyA
HtyA" points="969,105 937,105 937,90 907,120 937,150 937,135 969,135" fill="rgb(255,255,255)" fill-opacity="1.0" stroke="rgb(0,0,0)" stroke-width="2"  />
		</g>
		<g>
			<title>htyB
HtyB</title>
			<polygon class="htyB
HtyB" points="1020,105 1006,105 1006,90 976,120 1006,150 1006,135 1020,135" fill="rgb(255,255,255)" fill-opacity="1.0" stroke="rgb(0,0,0)" stroke-width="2"  />
		</g>
		<g>
			<title>htyC
HtyC</title>
			<polygon class="htyC
HtyC" points="1028,105 1046,105 1046,90 1076,120 1046,150 1046,135 1028,135" fill="rgb(255,255,255)" fill-opacity="1.0" stroke="rgb(0,0,0)" stroke-width="2"  />
		</g>
		<g>
			<title>htyD
HtyD</title>
			<polygon class="htyD
HtyD" points="1082,105 1172,105 1172,90 1202,120 1172,150 1172,135 1082,135" fill="rgb(255,255,255)" fill-opacity="1.0" stroke="rgb(0,0,0)" stroke-width="2"  />
		</g>
		<g>
			<title>
hypothetical protein</title>
			<polygon class="
hypothetical protein" points="1379,105 1393,105 1393,90 1423,120 1393,150 1393,135 1379,135" fill="rgb(255,255,255)" fill-opacity="1.0" stroke="rgb(0,0,0)" stroke-width="2"  />
		</g>
		<g>
			<title>
hypothetical protein</title>
			<polygon class="
hypothetical protein" points="1471,105 1461,105 1461,90 1431,120 1461,150 1461,135 1471,135" fill="rgb(255,255,255)" fill-opacity="1.0" stroke="rgb(0,0,0)" stroke-width="2"  />
		</g>
		<g>
			<title>
hypothetical protein</title>
			<polygon class="
hypothetical protein" points="1574,105 1573,105 1573,90 1543,120 1573,150 1573,135 1574,135" fill="rgb(255,255,255)" fill-opacity="1.0" stroke="rgb(0,0,0)" stroke-width="2"  />
		</g>
	</g>
</svg>
