<svg version="1.1" baseProfile="full" xmlns="http://www.w3.org/2000/svg" width="728.5666666666667" height="80">
	<g>
		<line x1="10" y1="40.0" x2="718.5666666666667" y2="40.0" style="stroke:rgb(70,70,70); stroke-width:3 "/>
		<g>
			<title> (STAUR_1572)
conserved uncharacterized protein</title>
			<polygon class=" (STAUR_1572)
conserved uncharacterized protein" points="52,25 40,25 40,10 10,40 40,70 40,55 52,55" fill="rgb(255,255,255)" fill-opacity="1.0" stroke="rgb(0,0,0)" stroke-width="2"  />
			<g>
				<title>Cu2_monoox_C (PF03712)
"Copper type II ascorbate-dependent monooxygenase, C-terminal domain"</title>
				<polygon class="PF03712" points="14,40 20,34 20,46" stroke-linejoin="round" width="10" height="24" fill="rgb(92,159,219)" stroke="rgb(73,127,175)" stroke-width="1" opacity="0.75" />
			</g>
		</g>
		<g>
			<title> (STAUR_1573)
Malonyl CoA-acyl carrier protein transacylase</title>
			<polygon class=" (STAUR_1573)
Malonyl CoA-acyl carrier protein transacylase" points="55,25 56,25 56,10 86,40 56,70 56,55 55,55" fill="rgb(255,255,255)" fill-opacity="1.0" stroke="rgb(0,0,0)" stroke-width="2"  />
			<g>
				<title>Acyl_transf_1 (PF00698)
"Acyl transferase domain"</title>
				<polygon class="PF00698" points="56,28 70,28 82,40 70,52 56,52" stroke-linejoin="round" width="29" height="24" fill="rgb(132,93,193)" stroke="rgb(105,74,154)" stroke-width="1" opacity="0.75" />
			</g>
		</g>
		<g>
			<title> (STAUR_1574)
beta-ketoacyl synthase-like protein, Acyl transferase subunit</title>
			<polygon class=" (STAUR_1574)
beta-ketoacyl synthase-like protein, Acyl transferase subunit" points="102,25 208,25 208,10 238,40 208,70 208,55 102,55" fill="rgb(255,255,255)" fill-opacity="1.0" stroke="rgb(0,0,0)" stroke-width="2"  />
			<g>
				<title>ketoacyl-synt (PF00109)
"Beta-ketoacyl synthase, N-terminal domain"</title>
				<rect class="PF00109" x="102" y="28" stroke-linejoin="round" width="26" height="24" fill="rgb(74,179,82)" stroke="rgb(59,143,65)" stroke-width="1" opacity="0.75" />
			</g>
			<g>
				<title>Ketoacyl-synt_C (PF02801)
"Beta-ketoacyl synthase, C-terminal domain"</title>
				<rect class="PF02801" x="128" y="28" stroke-linejoin="round" width="11" height="24" fill="rgb(212,79,72)" stroke="rgb(169,63,57)" stroke-width="1" opacity="0.75" />
			</g>
			<g>
				<title>ketoacyl-synt (PF00109)
"Beta-ketoacyl synthase, N-terminal domain"</title>
				<rect class="PF00109" x="147" y="28" stroke-linejoin="round" width="28" height="24" fill="rgb(74,179,82)" stroke="rgb(59,143,65)" stroke-width="1" opacity="0.75" />
			</g>
			<g>
				<title>Ketoacyl-synt_C (PF02801)
"Beta-ketoacyl synthase, C-terminal domain"</title>
				<rect class="PF02801" x="176" y="28" stroke-linejoin="round" width="11" height="24" fill="rgb(212,79,72)" stroke="rgb(169,63,57)" stroke-width="1" opacity="0.75" />
			</g>
			<g>
				<title>KAsynt_C_assoc (PF16197)
"Ketoacyl-synthetase C-terminal extension"</title>
				<rect class="PF16197" x="188" y="28" stroke-linejoin="round" width="10" height="24" fill="rgb(200,86,70)" stroke="rgb(160,68,56)" stroke-width="1" opacity="0.75" />
			</g>
			<g>
				<title>Acyl_transf_1 (PF00698)
"Acyl transferase domain"</title>
				<polygon class="PF00698" points="205,28 222,28 234,40 222,52 205,52" stroke-linejoin="round" width="32" height="24" fill="rgb(132,93,193)" stroke="rgb(105,74,154)" stroke-width="1" opacity="0.75" />
			</g>
		</g>
		<g>
			<title> (STAUR_1575)
Beta-ketoacyl synthase</title>
			<polygon class=" (STAUR_1575)
Beta-ketoacyl synthase" points="238,25 339,25 339,10 369,40 339,70 339,55 238,55" fill="rgb(255,255,255)" fill-opacity="1.0" stroke="rgb(0,0,0)" stroke-width="2"  />
			<g>
				<title>KR (PF08659)
"KR domain"</title>
				<polygon class="PF08659" points="338,28 352,28 360,36 360,44 352,52 338,52" stroke-linejoin="round" width="22" height="24" fill="rgb(203,145,81)" stroke="rgb(162,116,64)" stroke-width="1" opacity="0.75" />
			</g>
		</g>
		<g>
			<title> (STAUR_1576)
Peptidase C45, DszB protein</title>
			<polygon class=" (STAUR_1576)
Peptidase C45, DszB protein" points="370,25 409,25 409,10 439,40 409,70 409,55 370,55" fill="rgb(255,255,255)" fill-opacity="1.0" stroke="rgb(0,0,0)" stroke-width="2"  />
			<g>
				<title>AAT (PF03417)
"Acyl-coenzyme A:6-aminopenicillanic acid acyl-transferase"</title>
				<rect class="PF03417" x="380" y="28" stroke-linejoin="round" width="24" height="24" fill="rgb(106,220,172)" stroke="rgb(84,176,137)" stroke-width="1" opacity="0.75" />
			</g>
			<g>
				<title>PKS_DH_N (PF21089)
"Polyketide synthase dehydratase domain"</title>
				<rect class="PF21089" x="409" y="28" stroke-linejoin="round" width="9" height="24" fill="rgb(67,151,200)" stroke="rgb(53,120,160)" stroke-width="1" opacity="0.75" />
			</g>
			<g>
				<title>PS-DH (PF14765)
"Polyketide synthase dehydratase N-terminal domain"</title>
				<polygon class="PF14765" points="422,28 423,28 435,40 423,52 422,52" stroke-linejoin="round" width="15" height="24" fill="rgb(189,61,178)" stroke="rgb(151,48,142)" stroke-width="1" opacity="0.75" />
			</g>
		</g>
		<g>
			<title> (STAUR_1577)
Beta-ketoacyl synthase</title>
			<polygon class=" (STAUR_1577)
Beta-ketoacyl synthase" points="439,25 503,25 503,10 533,40 503,70 503,55 439,55" fill="rgb(255,255,255)" fill-opacity="1.0" stroke="rgb(0,0,0)" stroke-width="2"  />
			<g>
				<title>ketoacyl-synt (PF00109)
"Beta-ketoacyl synthase, N-terminal domain"</title>
				<rect class="PF00109" x="439" y="28" stroke-linejoin="round" width="28" height="24" fill="rgb(74,179,82)" stroke="rgb(59,143,65)" stroke-width="1" opacity="0.75" />
			</g>
			<g>
				<title>Ketoacyl-synt_C (PF02801)
"Beta-ketoacyl synthase, C-terminal domain"</title>
				<rect class="PF02801" x="468" y="28" stroke-linejoin="round" width="11" height="24" fill="rgb(212,79,72)" stroke="rgb(169,63,57)" stroke-width="1" opacity="0.75" />
			</g>
			<g>
				<title>ketoacyl-synt (PF00109)
"Beta-ketoacyl synthase, N-terminal domain"</title>
				<rect class="PF00109" x="486" y="28" stroke-linejoin="round" width="29" height="24" fill="rgb(74,179,82)" stroke="rgb(59,143,65)" stroke-width="1" opacity="0.75" />
			</g>
			<g>
				<title>Ketoacyl-synt_C (PF02801)
"Beta-ketoacyl synthase, C-terminal domain"</title>
				<polygon class="PF02801" points="517,28 517,28 528,39 528,41 517,52 517,52" stroke-linejoin="round" width="11" height="24" fill="rgb(212,79,72)" stroke="rgb(169,63,57)" stroke-width="1" opacity="0.75" />
			</g>
		</g>
		<g>
			<title> (STAUR_1578)
Beta-ketoacyl synthase</title>
			<polygon class=" (STAUR_1578)
Beta-ketoacyl synthase" points="534,25 631,25 631,10 661,40 631,70 631,55 534,55" fill="rgb(255,255,255)" fill-opacity="1.0" stroke="rgb(0,0,0)" stroke-width="2"  />
			<g>
				<title>ketoacyl-synt (PF00109)
"Beta-ketoacyl synthase, N-terminal domain"</title>
				<rect class="PF00109" x="535" y="28" stroke-linejoin="round" width="28" height="24" fill="rgb(74,179,82)" stroke="rgb(59,143,65)" stroke-width="1" opacity="0.75" />
			</g>
			<g>
				<title>Ketoacyl-synt_C (PF02801)
"Beta-ketoacyl synthase, C-terminal domain"</title>
				<rect class="PF02801" x="564" y="28" stroke-linejoin="round" width="11" height="24" fill="rgb(212,79,72)" stroke="rgb(169,63,57)" stroke-width="1" opacity="0.75" />
			</g>
			<g>
				<title>ketoacyl-synt (PF00109)
"Beta-ketoacyl synthase, N-terminal domain"</title>
				<rect class="PF00109" x="583" y="28" stroke-linejoin="round" width="28" height="24" fill="rgb(74,179,82)" stroke="rgb(59,143,65)" stroke-width="1" opacity="0.75" />
			</g>
			<g>
				<title>Ketoacyl-synt_C (PF02801)
"Beta-ketoacyl synthase, C-terminal domain"</title>
				<rect class="PF02801" x="612" y="28" stroke-linejoin="round" width="11" height="24" fill="rgb(212,79,72)" stroke="rgb(169,63,57)" stroke-width="1" opacity="0.75" />
			</g>
			<g>
				<title>KAsynt_C_assoc (PF16197)
"Ketoacyl-synthetase C-terminal extension"</title>
				<rect class="PF16197" x="624" y="28" stroke-linejoin="round" width="9" height="24" fill="rgb(200,86,70)" stroke="rgb(160,68,56)" stroke-width="1" opacity="0.75" />
			</g>
		</g>
		<g>
			<title> (STAUR_1579)
HetI protein</title>
			<polygon class=" (STAUR_1579)
HetI protein" points="663,10 689,40 663,70" fill="rgb(255,255,255)" fill-opacity="1.0" stroke="rgb(0,0,0)" stroke-width="2"  />
			<g>
				<title>ACPS (PF01648)
"4'-phosphopantetheinyl transferase superfamily"</title>
				<polygon class="PF01648" points="675,29 685,40 675,51" stroke-linejoin="round" width="11" height="24" fill="rgb(58,190,78)" stroke="rgb(46,152,62)" stroke-width="1" opacity="0.75" />
			</g>
		</g>
		<g>
			<title> (STAUR_1580)
uncharacterized protein</title>
			<polygon class=" (STAUR_1580)
uncharacterized protein" points="689,10 717,40 689,70" fill="rgb(255,255,255)" fill-opacity="1.0" stroke="rgb(0,0,0)" stroke-width="2"  />
			<g>
				<title>PKS_DH_N (PF21089)
"Polyketide synthase dehydratase domain"</title>
				<rect class="PF21089" x="689" y="28" stroke-linejoin="round" width="10" height="24" fill="rgb(67,151,200)" stroke="rgb(53,120,160)" stroke-width="1" opacity="0.75" />
			</g>
		</g>
	</g>
</svg>
