<svg version="1.1" baseProfile="full" xmlns="http://www.w3.org/2000/svg" width="1074.7" height="80">
	<g>
		<line x1="10" y1="40.0" x2="1064.7" y2="40.0" style="stroke:rgb(70,70,70); stroke-width:3 "/>
		<g>
			<title>SCO5877
transcriptional regulator RedD</title>
			<polygon class="SCO5877
transcriptional regulator RedD" points="10,25 15,25 15,10 45,40 15,70 15,55 10,55" fill="rgb(255,255,255)" fill-opacity="1.0" stroke="rgb(0,0,0)" stroke-width="2"  />
			<g>
				<title>BTAD (PF03704)
"Bacterial transcriptional activator domain"</title>
				<polygon class="PF03704" points="27,28 28,28 40,40 28,52 27,52" stroke-linejoin="round" width="14" height="24" fill="rgb(174,224,58)" stroke="rgb(139,179,46)" stroke-width="1" opacity="0.75" />
			</g>
		</g>
		<g>
			<title>SCO5878
polyketide synthase RedX</title>
			<polygon class="SCO5878
polyketide synthase RedX" points="46,25 114,25 114,10 144,40 114,70 114,55 46,55" fill="rgb(255,255,255)" fill-opacity="1.0" stroke="rgb(0,0,0)" stroke-width="2"  />
			<g>
				<title>ketoacyl-synt (PF00109)
"Beta-ketoacyl synthase, N-terminal domain"</title>
				<rect class="PF00109" x="49" y="28" stroke-linejoin="round" width="26" height="24" fill="rgb(74,179,82)" stroke="rgb(59,143,65)" stroke-width="1" opacity="0.75" />
			</g>
			<g>
				<title>Ketoacyl-synt_C (PF02801)
"Beta-ketoacyl synthase, C-terminal domain"</title>
				<rect class="PF02801" x="76" y="28" stroke-linejoin="round" width="11" height="24" fill="rgb(212,79,72)" stroke="rgb(169,63,57)" stroke-width="1" opacity="0.75" />
			</g>
			<g>
				<title>ketoacyl-synt (PF00109)
"Beta-ketoacyl synthase, N-terminal domain"</title>
				<rect class="PF00109" x="97" y="28" stroke-linejoin="round" width="28" height="24" fill="rgb(74,179,82)" stroke="rgb(59,143,65)" stroke-width="1" opacity="0.75" />
			</g>
			<g>
				<title>Ketoacyl-synt_C (PF02801)
"Beta-ketoacyl synthase, C-terminal domain"</title>
				<polygon class="PF02801" points="127,28 128,28 138,38 138,42 128,52 127,52" stroke-linejoin="round" width="11" height="24" fill="rgb(212,79,72)" stroke="rgb(169,63,57)" stroke-width="1" opacity="0.75" />
			</g>
		</g>
		<g>
			<title>SCO5879
acyl-coa dehydrogenase RedW</title>
			<polygon class="SCO5879
acyl-coa dehydrogenase RedW" points="144,25 153,25 153,10 183,40 153,70 153,55 144,55" fill="rgb(255,255,255)" fill-opacity="1.0" stroke="rgb(0,0,0)" stroke-width="2"  />
			<g>
				<title>Acyl-CoA_dh_N (PF02771)
"Acyl-CoA dehydrogenase, N-terminal domain"</title>
				<rect class="PF02771" x="145" y="28" stroke-linejoin="round" width="11" height="24" fill="rgb(104,198,213)" stroke="rgb(83,158,170)" stroke-width="1" opacity="0.75" />
			</g>
			<g>
				<title>Acyl-CoA_dh_M (PF02770)
"Acyl-CoA dehydrogenase, middle domain"</title>
				<rect class="PF02770" x="156" y="28" stroke-linejoin="round" width="9" height="24" fill="rgb(58,129,192)" stroke="rgb(46,103,153)" stroke-width="1" opacity="0.75" />
			</g>
			<g>
				<title>Acyl-CoA_dh_1 (PF00441)
"Acyl-CoA dehydrogenase, C-terminal domain"</title>
				<polygon class="PF00441" points="167,29 178,40 167,51" stroke-linejoin="round" width="14" height="24" fill="rgb(96,175,206)" stroke="rgb(76,139,164)" stroke-width="1" opacity="0.75" />
			</g>
		</g>
		<g>
			<title>SCO5880
RedY protein</title>
			<polygon class="SCO5880
RedY protein" points="184,10 194,40 184,70" fill="rgb(255,255,255)" fill-opacity="1.0" stroke="rgb(0,0,0)" stroke-width="2"  />
			<g>
				<title>HapK (PF11639)
"REDY-like protein HapK"</title>
				<polygon class="PF11639" points="184,28 186,28 191,40 186,52 184,52" stroke-linejoin="round" width="10" height="24" fill="rgb(80,208,187)" stroke="rgb(64,166,149)" stroke-width="1" opacity="0.75" />
			</g>
		</g>
		<g>
			<title>SCO5881
response regulator</title>
			<polygon class="SCO5881
response regulator" points="198,40 219,10 219,70" fill="rgb(255,255,255)" fill-opacity="1.0" stroke="rgb(0,0,0)" stroke-width="2"  />
			<g>
				<title>GerE (PF00196)
"Bacterial regulatory proteins, luxR family"</title>
				<polygon class="PF00196" points="202,40 204,37 204,43" stroke-linejoin="round" width="5" height="24" fill="rgb(225,67,110)" stroke="rgb(180,53,88)" stroke-width="1" opacity="0.75" />
			</g>
		</g>
		<g>
			<title>SCO5882
RedV protein</title>
			<polygon class="SCO5882
RedV protein" points="267,25 258,25 258,10 228,40 258,70 258,55 267,55" fill="rgb(255,255,255)" fill-opacity="1.0" stroke="rgb(0,0,0)" stroke-width="2"  />
		</g>
		<g>
			<title>SCO5883
hypothetical protein SC3F7.03c</title>
			<polygon class="SCO5883
hypothetical protein SC3F7.03c" points="271,40 297,10 297,70" fill="rgb(255,255,255)" fill-opacity="1.0" stroke="rgb(0,0,0)" stroke-width="2"  />
			<g>
				<title>ACPS (PF01648)
"4'-phosphopantetheinyl transferase superfamily"</title>
				<polygon class="PF01648" points="275,40 282,32 282,48" stroke-linejoin="round" width="10" height="24" fill="rgb(58,190,78)" stroke="rgb(46,152,62)" stroke-width="1" opacity="0.75" />
			</g>
		</g>
		<g>
			<title>SCO5884
hypothetical protein SC3F7.04c</title>
			<polygon class="SCO5884
hypothetical protein SC3F7.04c" points="300,40 329,10 329,70" fill="rgb(255,255,255)" fill-opacity="1.0" stroke="rgb(0,0,0)" stroke-width="2"  />
			<g>
				<title>DUF6206 (PF19709)
"Family of unknown function (DUF6206)"</title>
				<polygon class="PF19709" points="304,40 316,28 328,28 328,52 316,52" stroke-linejoin="round" width="26" height="24" fill="rgb(100,213,106)" stroke="rgb(80,170,84)" stroke-width="1" opacity="0.75" />
			</g>
		</g>
		<g>
			<title>SCO5885
putative membrane protein</title>
			<polygon class="SCO5885
putative membrane protein" points="330,40 344,10 344,70" fill="rgb(255,255,255)" fill-opacity="1.0" stroke="rgb(0,0,0)" stroke-width="2"  />
			<g>
				<title>DUF6041 (PF19507)
"Family of unknown function (DUF6041)"</title>
				<polygon class="PF19507" points="333,40 339,28 344,28 344,52 339,52" stroke-linejoin="round" width="14" height="24" fill="rgb(74,201,137)" stroke="rgb(59,160,109)" stroke-width="1" opacity="0.75" />
			</g>
		</g>
		<g>
			<title>SCO5886
3-oxoacyl-[acyl-carrier-protein] synthase II</title>
			<polygon class="SCO5886
3-oxoacyl-[acyl-carrier-protein] synthase II" points="389,25 379,25 379,10 349,40 379,70 379,55 389,55" fill="rgb(255,255,255)" fill-opacity="1.0" stroke="rgb(0,0,0)" stroke-width="2"  />
			<g>
				<title>Ketoacyl-synt_C (PF02801)
"Beta-ketoacyl synthase, C-terminal domain"</title>
				<polygon class="PF02801" points="353,40 364,29 364,51 353,40" stroke-linejoin="round" width="11" height="24" fill="rgb(212,79,72)" stroke="rgb(169,63,57)" stroke-width="1" opacity="0.75" />
			</g>
			<g>
				<title>ketoacyl-synt (PF00109)
"Beta-ketoacyl synthase, N-terminal domain"</title>
				<polygon class="PF00109" points="365,28 365,28 389,28 389,52 365,52 365,52" stroke-linejoin="round" width="24" height="24" fill="rgb(74,179,82)" stroke="rgb(59,143,65)" stroke-width="1" opacity="0.75" />
			</g>
		</g>
		<g>
			<title>SCO5887
acyl carrier protein</title>
			<polygon class="SCO5887
acyl carrier protein" points="390,40 398,10 398,70" fill="rgb(255,255,255)" fill-opacity="1.0" stroke="rgb(0,0,0)" stroke-width="2"  />
			<g>
				<title>PP-binding (PF00550)
"Phosphopantetheine attachment site"</title>
				<polygon class="PF00550" points="393,40 396,28 397,28 397,52 396,52" stroke-linejoin="round" width="6" height="24" fill="rgb(181,58,166)" stroke="rgb(144,46,132)" stroke-width="1" opacity="0.75" />
			</g>
		</g>
		<g>
			<title>SCO5888
3-oxoacyl-[acyl-carrier-protein] synthase</title>
			<polygon class="SCO5888
3-oxoacyl-[acyl-carrier-protein] synthase" points="410,25 413,25 413,10 443,40 413,70 413,55 410,55" fill="rgb(255,255,255)" fill-opacity="1.0" stroke="rgb(0,0,0)" stroke-width="2"  />
			<g>
				<title>ACP_syn_III (PF08545)
"3-Oxoacyl-[acyl-carrier-protein (ACP)] synthase III"</title>
				<polygon class="PF08545" points="420,28 427,28 428,29 428,51 427,52 420,52" stroke-linejoin="round" width="8" height="24" fill="rgb(93,213,73)" stroke="rgb(74,170,58)" stroke-width="1" opacity="0.75" />
			</g>
			<g>
				<title>ACP_syn_III_C (PF08541)
"3-Oxoacyl-[acyl-carrier-protein (ACP)] synthase III C terminal"</title>
				<polygon class="PF08541" points="434,35 439,40 434,45" stroke-linejoin="round" width="8" height="24" fill="rgb(223,111,121)" stroke="rgb(178,88,96)" stroke-width="1" opacity="0.75" />
			</g>
		</g>
		<g>
			<title>SCO5889
hypothetical protein SC3F7.09</title>
			<polygon class="SCO5889
hypothetical protein SC3F7.09" points="446,10 454,40 446,70" fill="rgb(255,255,255)" fill-opacity="1.0" stroke="rgb(0,0,0)" stroke-width="2"  />
			<g>
				<title>PP-binding (PF00550)
"Phosphopantetheine attachment site"</title>
				<polygon class="PF00550" points="446,28 447,28 451,40 447,52 446,52" stroke-linejoin="round" width="6" height="24" fill="rgb(181,58,166)" stroke="rgb(144,46,132)" stroke-width="1" opacity="0.75" />
			</g>
		</g>
		<g>
			<title>SCO5890
putative 8-amino-7-oxononanoate synthase</title>
			<polygon class="SCO5890
putative 8-amino-7-oxononanoate synthase" points="454,25 488,25 488,10 518,40 488,70 488,55 454,55" fill="rgb(255,255,255)" fill-opacity="1.0" stroke="rgb(0,0,0)" stroke-width="2"  />
			<g>
				<title>PP-binding (PF00550)
"Phosphopantetheine attachment site"</title>
				<rect class="PF00550" x="465" y="28" stroke-linejoin="round" width="6" height="24" fill="rgb(181,58,166)" stroke="rgb(144,46,132)" stroke-width="1" opacity="0.75" />
			</g>
			<g>
				<title>Aminotran_1_2 (PF00155)
"Aminotransferase class I and II"</title>
				<polygon class="PF00155" points="482,28 501,28 513,40 501,52 482,52" stroke-linejoin="round" width="34" height="24" fill="rgb(207,146,55)" stroke="rgb(165,116,43)" stroke-width="1" opacity="0.75" />
			</g>
		</g>
		<g>
			<title>SCO5891
putative peptide synthase</title>
			<polygon class="SCO5891
putative peptide synthase" points="522,25 545,25 545,10 575,40 545,70 545,55 522,55" fill="rgb(255,255,255)" fill-opacity="1.0" stroke="rgb(0,0,0)" stroke-width="2"  />
			<g>
				<title>AMP-binding (PF00501)
"AMP-binding enzyme"</title>
				<polygon class="PF00501" points="523,28 559,28 560,29 560,51 559,52 523,52" stroke-linejoin="round" width="37" height="24" fill="rgb(189,78,204)" stroke="rgb(151,62,163)" stroke-width="1" opacity="0.75" />
			</g>
			<g>
				<title>AMP-binding_C (PF13193)
"AMP-binding enzyme C-terminal domain"</title>
				<polygon class="PF13193" points="565,34 571,40 565,46" stroke-linejoin="round" width="7" height="24" fill="rgb(195,82,106)" stroke="rgb(156,65,84)" stroke-width="1" opacity="0.75" />
			</g>
		</g>
		<g>
			<title>SCO5892
polyketide synthase</title>
			<polygon class="SCO5892
polyketide synthase" points="576,25 775,25 775,10 805,40 775,70 775,55 576,55" fill="rgb(255,255,255)" fill-opacity="1.0" stroke="rgb(0,0,0)" stroke-width="2"  />
			<g>
				<title>AMP-binding (PF00501)
"AMP-binding enzyme"</title>
				<rect class="PF00501" x="579" y="28" stroke-linejoin="round" width="40" height="24" fill="rgb(189,78,204)" stroke="rgb(151,62,163)" stroke-width="1" opacity="0.75" />
			</g>
			<g>
				<title>PP-binding (PF00550)
"Phosphopantetheine attachment site"</title>
				<rect class="PF00550" x="646" y="28" stroke-linejoin="round" width="6" height="24" fill="rgb(181,58,166)" stroke="rgb(144,46,132)" stroke-width="1" opacity="0.75" />
			</g>
			<g>
				<title>ketoacyl-synt (PF00109)
"Beta-ketoacyl synthase, N-terminal domain"</title>
				<rect class="PF00109" x="655" y="28" stroke-linejoin="round" width="23" height="24" fill="rgb(74,179,82)" stroke="rgb(59,143,65)" stroke-width="1" opacity="0.75" />
			</g>
			<g>
				<title>Ketoacyl-synt_C (PF02801)
"Beta-ketoacyl synthase, C-terminal domain"</title>
				<rect class="PF02801" x="680" y="28" stroke-linejoin="round" width="11" height="24" fill="rgb(212,79,72)" stroke="rgb(169,63,57)" stroke-width="1" opacity="0.75" />
			</g>
			<g>
				<title>KAsynt_C_assoc (PF16197)
"Ketoacyl-synthetase C-terminal extension"</title>
				<rect class="PF16197" x="692" y="28" stroke-linejoin="round" width="11" height="24" fill="rgb(200,86,70)" stroke="rgb(160,68,56)" stroke-width="1" opacity="0.75" />
			</g>
			<g>
				<title>Acyl_transf_1 (PF00698)
"Acyl transferase domain"</title>
				<rect class="PF00698" x="707" y="28" stroke-linejoin="round" width="32" height="24" fill="rgb(132,93,193)" stroke="rgb(105,74,154)" stroke-width="1" opacity="0.75" />
			</g>
			<g>
				<title>PP-binding (PF00550)
"Phosphopantetheine attachment site"</title>
				<rect class="PF00550" x="746" y="28" stroke-linejoin="round" width="6" height="24" fill="rgb(181,58,166)" stroke="rgb(144,46,132)" stroke-width="1" opacity="0.75" />
			</g>
			<g>
				<title>Aminotran_1_2 (PF00155)
"Aminotransferase class I and II"</title>
				<polygon class="PF00155" points="771,28 789,28 801,40 789,52 771,52" stroke-linejoin="round" width="34" height="24" fill="rgb(207,146,55)" stroke="rgb(165,116,43)" stroke-width="1" opacity="0.75" />
			</g>
		</g>
		<g>
			<title>SCO5893
oxidoreductase</title>
			<polygon class="SCO5893
oxidoreductase" points="806,25 810,25 810,10 840,40 810,70 810,55 806,55" fill="rgb(255,255,255)" fill-opacity="1.0" stroke="rgb(0,0,0)" stroke-width="2"  />
			<g>
				<title>Epimerase (PF01370)
"NAD dependent epimerase/dehydratase family"</title>
				<polygon class="PF01370" points="807,28 824,28 829,33 829,47 824,52 807,52" stroke-linejoin="round" width="22" height="24" fill="rgb(215,89,157)" stroke="rgb(172,71,125)" stroke-width="1" opacity="0.75" />
			</g>
		</g>
		<g>
			<title>SCO5894
thioesterase</title>
			<polygon class="SCO5894
thioesterase" points="840,10 868,40 840,70" fill="rgb(255,255,255)" fill-opacity="1.0" stroke="rgb(0,0,0)" stroke-width="2"  />
			<g>
				<title>Thioesterase (PF00975)
"Thioesterase domain"</title>
				<polygon class="PF00975" points="843,28 852,28 863,40 852,52 843,52" stroke-linejoin="round" width="22" height="24" fill="rgb(69,76,223)" stroke="rgb(55,60,178)" stroke-width="1" opacity="0.75" />
			</g>
		</g>
		<g>
			<title>SCO5895
putative methyltransferase</title>
			<polygon class="SCO5895
putative methyltransferase" points="868,25 874,25 874,10 904,40 874,70 874,55 868,55" fill="rgb(255,255,255)" fill-opacity="1.0" stroke="rgb(0,0,0)" stroke-width="2"  />
			<g>
				<title>Methyltransf_12 (PF08242)
"Methyltransferase domain"</title>
				<polygon class="PF08242" points="887,28 888,28 896,36 896,44 888,52 887,52" stroke-linejoin="round" width="9" height="24" fill="rgb(78,210,205)" stroke="rgb(62,168,164)" stroke-width="1" opacity="0.75" />
			</g>
		</g>
		<g>
			<title>SCO5896
phosphoenolpyruvate-utilizing enzyme</title>
			<polygon class="SCO5896
phosphoenolpyruvate-utilizing enzyme" points="905,25 968,25 968,10 998,40 968,70 968,55 905,55" fill="rgb(255,255,255)" fill-opacity="1.0" stroke="rgb(0,0,0)" stroke-width="2"  />
			<g>
				<title>PPDK_N (PF01326)
"Pyruvate phosphate dikinase, AMP/ATP-binding domain"</title>
				<rect class="PF01326" x="909" y="28" stroke-linejoin="round" width="29" height="24" fill="rgb(69,201,140)" stroke="rgb(55,160,112)" stroke-width="1" opacity="0.75" />
			</g>
			<g>
				<title>PEP-utilizers (PF00391)
"PEP-utilising enzyme, mobile domain"</title>
				<polygon class="PF00391" points="988,34 994,40 988,46" stroke-linejoin="round" width="7" height="24" fill="rgb(194,64,123)" stroke="rgb(155,51,98)" stroke-width="1" opacity="0.75" />
			</g>
		</g>
		<g>
			<title>SCO5897
putative oxidase</title>
			<polygon class="SCO5897
putative oxidase" points="1001,25 1010,25 1010,10 1040,40 1010,70 1010,55 1001,55" fill="rgb(255,255,255)" fill-opacity="1.0" stroke="rgb(0,0,0)" stroke-width="2"  />
			<g>
				<title>Rieske (PF00355)
"Rieske [2Fe-2S] domain"</title>
				<rect class="PF00355" x="1001" y="28" stroke-linejoin="round" width="9" height="24" fill="rgb(60,75,194)" stroke="rgb(48,60,155)" stroke-width="1" opacity="0.75" />
			</g>
		</g>
		<g>
			<title>SCO5898
probable membrane protein</title>
			<polygon class="SCO5898
probable membrane protein" points="1042,10 1064,40 1042,70" fill="rgb(255,255,255)" fill-opacity="1.0" stroke="rgb(0,0,0)" stroke-width="2"  />
			<g>
				<title>DUF1295 (PF06966)
"Protein of unknown function (DUF1295)"</title>
				<polygon class="PF06966" points="1050,28 1052,28 1060,40 1052,52 1050,52" stroke-linejoin="round" width="13" height="24" fill="rgb(207,164,100)" stroke="rgb(165,131,80)" stroke-width="1" opacity="0.75" />
			</g>
		</g>
	</g>
</svg>
