<svg version="1.1" baseProfile="full" xmlns="http://www.w3.org/2000/svg" width="476.93333333333334" height="80">
	<g>
		<line x1="10" y1="40.0" x2="466.93333333333334" y2="40.0" style="stroke:rgb(70,70,70); stroke-width:3 "/>
		<g>
			<title>
signal recognition particle protein SRP</title>
			<polygon class="
signal recognition particle protein SRP" points="13,25 31,25 31,10 61,40 31,70 31,55 13,55" fill="rgb(255,255,255)" fill-opacity="1.0" stroke="rgb(0,0,0)" stroke-width="2"  />
			<g>
				<title>SRP54_N (PF02881)
"SRP54-type protein, helical bundle domain"</title>
				<rect class="PF02881" x="13" y="28" stroke-linejoin="round" width="7" height="24" fill="rgb(51,128,180)" stroke="rgb(40,102,144)" stroke-width="1" opacity="0.75" />
			</g>
			<g>
				<title>SRP54 (PF00448)
"SRP54-type protein, GTPase domain"</title>
				<rect class="PF00448" x="23" y="28" stroke-linejoin="round" width="19" height="24" fill="rgb(55,84,196)" stroke="rgb(44,67,156)" stroke-width="1" opacity="0.75" />
			</g>
			<g>
				<title>SRP_SPB (PF02978)
"Signal peptide binding domain"</title>
				<polygon class="PF02978" points="45,28 45,28 55,38 55,42 45,52 45,52" stroke-linejoin="round" width="10" height="24" fill="rgb(227,94,170)" stroke="rgb(181,75,135)" stroke-width="1" opacity="0.75" />
			</g>
		</g>
		<g>
			<title>acyC
anacyclamide synthesis protein AcyC</title>
			<polygon class="acyC
anacyclamide synthesis protein AcyC" points="63,40 69,10 69,70" fill="rgb(255,255,255)" fill-opacity="1.0" stroke="rgb(0,0,0)" stroke-width="2"  />
		</g>
		<g>
			<title>acyB
anacyclamide synthesis protein AcyB</title>
			<polygon class="acyB
anacyclamide synthesis protein AcyB" points="70,40 76,10 76,70" fill="rgb(255,255,255)" fill-opacity="1.0" stroke="rgb(0,0,0)" stroke-width="2"  />
		</g>
		<g>
			<title>acyA
anacyclamide synthesis protein AcyA</title>
			<polygon class="acyA
anacyclamide synthesis protein AcyA" points="149,25 114,25 114,10 84,40 114,70 114,55 149,55" fill="rgb(255,255,255)" fill-opacity="1.0" stroke="rgb(0,0,0)" stroke-width="2"  />
			<g>
				<title>PatG_C (PF18065)
"PatG C-terminal"</title>
				<polygon class="PF18065" points="88,40 95,33 95,47" stroke-linejoin="round" width="11" height="24" fill="rgb(123,196,84)" stroke="rgb(98,156,67)" stroke-width="1" opacity="0.75" />
			</g>
			<g>
				<title>PatG_D (PF18047)
"PatG Domain"</title>
				<polygon class="PF18047" points="100,28 100,28 111,28 111,52 100,52 100,52" stroke-linejoin="round" width="11" height="24" fill="rgb(218,110,91)" stroke="rgb(174,88,72)" stroke-width="1" opacity="0.75" />
			</g>
			<g>
				<title>Peptidase_S8 (PF00082)
"Subtilase family"</title>
				<rect class="PF00082" x="121" y="28" stroke-linejoin="round" width="26" height="24" fill="rgb(179,95,73)" stroke="rgb(143,76,58)" stroke-width="1" opacity="0.75" />
			</g>
		</g>
		<g>
			<title>acyE
anacyclamide synthesis protein AcyE</title>
			<polygon class="acyE
anacyclamide synthesis protein AcyE" points="174,10 179,40 174,70" fill="rgb(255,255,255)" fill-opacity="1.0" stroke="rgb(0,0,0)" stroke-width="2"  />
			<g>
				<title>DUF5840 (PF19158)
"Family of unknown function (DUF5840)"</title>
				<polygon class="PF19158" points="174,29 175,40 174,51" stroke-linejoin="round" width="4" height="24" fill="rgb(189,69,210)" stroke="rgb(151,55,168)" stroke-width="1" opacity="0.75" />
			</g>
		</g>
		<g>
			<title>
transposase</title>
			<polygon class="
transposase" points="180,40 205,10 205,70" fill="rgb(255,255,255)" fill-opacity="1.0" stroke="rgb(0,0,0)" stroke-width="2"  />
			<g>
				<title>Y1_Tnp (PF01797)
"Transposase IS200 like"</title>
				<polygon class="PF01797" points="192,31 194,28 203,28 203,52 194,52 192,49" stroke-linejoin="round" width="11" height="24" fill="rgb(180,66,67)" stroke="rgb(144,52,53)" stroke-width="1" opacity="0.75" />
			</g>
		</g>
		<g>
			<title>acyF
anacyclamide synthesis protein AcyF</title>
			<polygon class="acyF
anacyclamide synthesis protein AcyF" points="207,10 236,40 207,70" fill="rgb(255,255,255)" fill-opacity="1.0" stroke="rgb(0,0,0)" stroke-width="2"  />
			<g>
				<title>DUF5838 (PF19156)
"Family of unknown function (DUF5838)"</title>
				<polygon class="PF19156" points="208,28 220,28 232,40 220,52 208,52" stroke-linejoin="round" width="28" height="24" fill="rgb(202,115,99)" stroke="rgb(161,92,79)" stroke-width="1" opacity="0.75" />
			</g>
		</g>
		<g>
			<title>
hypothetical protein</title>
			<polygon class="
hypothetical protein" points="243,10 256,40 243,70" fill="rgb(255,255,255)" fill-opacity="1.0" stroke="rgb(0,0,0)" stroke-width="2"  />
		</g>
		<g>
			<title>
hypothetical protein</title>
			<polygon class="
hypothetical protein" points="259,10 281,40 259,70" fill="rgb(255,255,255)" fill-opacity="1.0" stroke="rgb(0,0,0)" stroke-width="2"  />
			<g>
				<title>Uma2 (PF05685)
"Putative restriction endonuclease"</title>
				<polygon class="PF05685" points="261,28 269,28 278,40 278,40 269,52 261,52" stroke-linejoin="round" width="17" height="24" fill="rgb(195,82,97)" stroke="rgb(156,65,77)" stroke-width="1" opacity="0.75" />
			</g>
		</g>
		<g>
			<title>
hypothetical protein</title>
			<polygon class="
hypothetical protein" points="304,40 324,10 324,70" fill="rgb(255,255,255)" fill-opacity="1.0" stroke="rgb(0,0,0)" stroke-width="2"  />
		</g>
		<g>
			<title>
XisI protein</title>
			<polygon class="
XisI protein" points="325,40 336,10 336,70" fill="rgb(255,255,255)" fill-opacity="1.0" stroke="rgb(0,0,0)" stroke-width="2"  />
			<g>
				<title>XisI (PF08869)
"XisI protein"</title>
				<polygon class="PF08869" points="328,40 332,28 335,28 335,52 332,52" stroke-linejoin="round" width="10" height="24" fill="rgb(61,197,66)" stroke="rgb(48,157,52)" stroke-width="1" opacity="0.75" />
			</g>
		</g>
		<g>
			<title>acyG
anacyclamide synthesis protein AcyG</title>
			<polygon class="acyG
anacyclamide synthesis protein AcyG" points="352,25 393,25 393,10 423,40 393,70 393,55 352,55" fill="rgb(255,255,255)" fill-opacity="1.0" stroke="rgb(0,0,0)" stroke-width="2"  />
			<g>
				<title>Peptidase_S8 (PF00082)
"Subtilase family"</title>
				<rect class="PF00082" x="354" y="28" stroke-linejoin="round" width="32" height="24" fill="rgb(179,95,73)" stroke="rgb(143,76,58)" stroke-width="1" opacity="0.75" />
			</g>
			<g>
				<title>PatG_D (PF18047)
"PatG Domain"</title>
				<rect class="PF18047" x="395" y="28" stroke-linejoin="round" width="11" height="24" fill="rgb(218,110,91)" stroke="rgb(174,88,72)" stroke-width="1" opacity="0.75" />
			</g>
			<g>
				<title>PatG_C (PF18065)
"PatG C-terminal"</title>
				<polygon class="PF18065" points="411,33 418,40 411,47" stroke-linejoin="round" width="11" height="24" fill="rgb(123,196,84)" stroke="rgb(98,156,67)" stroke-width="1" opacity="0.75" />
			</g>
		</g>
		<g>
			<title>
30S ribosomal protein S16</title>
			<polygon class="
30S ribosomal protein S16" points="440,10 448,40 440,70" fill="rgb(255,255,255)" fill-opacity="1.0" stroke="rgb(0,0,0)" stroke-width="2"  />
			<g>
				<title>Ribosomal_S16 (PF00886)
"Ribosomal protein S16"</title>
				<polygon class="PF00886" points="440,28 441,28 445,39 445,41 441,52 440,52" stroke-linejoin="round" width="5" height="24" fill="rgb(197,52,60)" stroke="rgb(157,41,48)" stroke-width="1" opacity="0.75" />
			</g>
		</g>
		<g>
			<title>
hypothetical protein</title>
			<polygon class="
hypothetical protein" points="449,10 461,40 449,70" fill="rgb(255,255,255)" fill-opacity="1.0" stroke="rgb(0,0,0)" stroke-width="2"  />
			<g>
				<title>KhpA-B_KH (PF13083)
"KhpA/KhpB, KH domain"</title>
				<polygon class="PF13083" points="450,28 453,28 457,37 457,43 453,52 450,52" stroke-linejoin="round" width="7" height="24" fill="rgb(64,203,125)" stroke="rgb(51,162,100)" stroke-width="1" opacity="0.75" />
			</g>
		</g>
	</g>
</svg>
