<svg version="1.1" baseProfile="full" xmlns="http://www.w3.org/2000/svg" width="461.96666666666664" height="80">
	<g>
		<line x1="10" y1="40.0" x2="451.96666666666664" y2="40.0" style="stroke:rgb(70,70,70); stroke-width:3 "/>
		<g>
			<title> (ANIA_03495)
nonribosomal peptide synthase, putative (Eurofung)</title>
			<polygon class=" (ANIA_03495)
nonribosomal peptide synthase, putative (Eurofung)" points="37,25 160,25 160,10 190,40 160,70 160,55 37,55" fill="rgb(255,255,255)" fill-opacity="1.0" stroke="rgb(0,0,0)" stroke-width="2"  />
			<g>
				<title>Condensation (PF00668)
"Condensation domain"</title>
				<rect class="PF00668" x="41" y="28" stroke-linejoin="round" width="41" height="24" fill="rgb(172,217,60)" stroke="rgb(137,173,47)" stroke-width="1" opacity="0.75" />
			</g>
			<g>
				<title>AMP-binding (PF00501)
"AMP-binding enzyme"</title>
				<rect class="PF00501" x="84" y="28" stroke-linejoin="round" width="34" height="24" fill="rgb(189,78,204)" stroke="rgb(151,62,163)" stroke-width="1" opacity="0.75" />
			</g>
			<g>
				<title>NAD_binding_4 (PF07993)
"Male sterility protein"</title>
				<rect class="PF07993" x="149" y="28" stroke-linejoin="round" width="24" height="24" fill="rgb(210,94,130)" stroke="rgb(168,75,103)" stroke-width="1" opacity="0.75" />
			</g>
		</g>
		<g>
			<title> (ANIA_03494)
conserved hypothetical protein</title>
			<polygon class=" (ANIA_03494)
conserved hypothetical protein" points="242,25 229,25 229,10 199,40 229,70 229,55 242,55" fill="rgb(255,255,255)" fill-opacity="1.0" stroke="rgb(0,0,0)" stroke-width="2"  />
			<g>
				<title>FSH1 (PF03959)
"Serine hydrolase (FSH1)"</title>
				<rect class="PF03959" x="219" y="28" stroke-linejoin="round" width="23" height="24" fill="rgb(93,205,174)" stroke="rgb(74,164,139)" stroke-width="1" opacity="0.75" />
			</g>
		</g>
		<g>
			<title> (ANIA_03493)
conserved hypothetical protein</title>
			<polygon class=" (ANIA_03493)
conserved hypothetical protein" points="286,40 309,10 309,70" fill="rgb(255,255,255)" fill-opacity="1.0" stroke="rgb(0,0,0)" stroke-width="2"  />
			<g>
				<title>Proteasome (PF00227)
"Proteasome subunit"</title>
				<polygon class="PF00227" points="290,40 299,28 307,28 307,52 299,52" stroke-linejoin="round" width="18" height="24" fill="rgb(110,195,73)" stroke="rgb(88,156,58)" stroke-width="1" opacity="0.75" />
			</g>
		</g>
		<g>
			<title> (ANIA_03492)
conserved hypothetical protein</title>
			<polygon class=" (ANIA_03492)
conserved hypothetical protein" points="330,40 357,10 357,70" fill="rgb(255,255,255)" fill-opacity="1.0" stroke="rgb(0,0,0)" stroke-width="2"  />
		</g>
		<g>
			<title> (ANIA_03491)
conserved hypothetical protein</title>
			<polygon class=" (ANIA_03491)
conserved hypothetical protein" points="429,25 401,25 401,10 371,40 401,70 401,55 429,55" fill="rgb(255,255,255)" fill-opacity="1.0" stroke="rgb(0,0,0)" stroke-width="2"  />
			<g>
				<title>MFS_1 (PF07690)
"Major Facilitator Superfamily"</title>
				<rect class="PF07690" x="408" y="28" stroke-linejoin="round" width="18" height="24" fill="rgb(228,207,98)" stroke="rgb(182,165,78)" stroke-width="1" opacity="0.75" />
			</g>
		</g>
	</g>
</svg>
