<svg version="1.1" baseProfile="full" xmlns="http://www.w3.org/2000/svg" width="1107.8" height="80">
	<g>
		<line x1="10" y1="40.0" x2="1097.8" y2="40.0" style="stroke:rgb(70,70,70); stroke-width:3 "/>
		<g>
			<title>rubI
RubI</title>
			<polygon class="rubI
RubI" points="35,25 56,25 56,10 86,40 56,70 56,55 35,55" fill="rgb(255,255,255)" fill-opacity="1.0" stroke="rgb(0,0,0)" stroke-width="2"  />
			<g>
				<title>FAD_binding_4 (PF01565)
"FAD binding domain"</title>
				<rect class="PF01565" x="42" y="28" stroke-linejoin="round" width="13" height="24" fill="rgb(194,197,94)" stroke="rgb(155,157,75)" stroke-width="1" opacity="0.75" />
			</g>
			<g>
				<title>BBE (PF08031)
"Berberine and berberine like"</title>
				<polygon class="PF08031" points="81,39 82,40 81,41" stroke-linejoin="round" width="4" height="24" fill="rgb(56,179,213)" stroke="rgb(44,143,170)" stroke-width="1" opacity="0.75" />
			</g>
		</g>
		<g>
			<title>rubJ
RubJ</title>
			<polygon class="rubJ
RubJ" points="87,10 112,40 87,70" fill="rgb(255,255,255)" fill-opacity="1.0" stroke="rgb(0,0,0)" stroke-width="2"  />
			<g>
				<title>adh_short_C2 (PF13561)
"Enoyl-(Acyl carrier protein) reductase"</title>
				<polygon class="PF13561" points="88,28 98,28 108,40 98,52 88,52" stroke-linejoin="round" width="24" height="24" fill="rgb(79,221,209)" stroke="rgb(63,176,167)" stroke-width="1" opacity="0.75" />
			</g>
		</g>
		<g>
			<title>rubK
RubK</title>
			<polygon class="rubK
RubK" points="154,10 182,40 154,70" fill="rgb(255,255,255)" fill-opacity="1.0" stroke="rgb(0,0,0)" stroke-width="2"  />
			<g>
				<title>SnoaL (PF07366)
"SnoaL-like polyketide cyclase"</title>
				<rect class="PF07366" x="155" y="28" stroke-linejoin="round" width="10" height="24" fill="rgb(102,157,212)" stroke="rgb(81,125,169)" stroke-width="1" opacity="0.75" />
			</g>
			<g>
				<title>SnoaL (PF07366)
"SnoaL-like polyketide cyclase"</title>
				<polygon class="PF07366" points="168,30 177,40 168,50" stroke-linejoin="round" width="12" height="24" fill="rgb(102,157,212)" stroke="rgb(81,125,169)" stroke-width="1" opacity="0.75" />
			</g>
		</g>
		<g>
			<title>rubL
RubL</title>
			<polygon class="rubL
RubL" points="184,25 209,25 209,10 239,40 209,70 209,55 184,55" fill="rgb(255,255,255)" fill-opacity="1.0" stroke="rgb(0,0,0)" stroke-width="2"  />
			<g>
				<title>FAD_binding_3 (PF01494)
"FAD binding domain"</title>
				<rect class="PF01494" x="185" y="28" stroke-linejoin="round" width="35" height="24" fill="rgb(215,66,156)" stroke="rgb(172,52,124)" stroke-width="1" opacity="0.75" />
			</g>
			<g>
				<title>Rng_hyd_C (PF21274)
"Aromatic-ring hydroxylase, C-terminal"</title>
				<polygon class="PF21274" points="226,31 235,40 226,49" stroke-linejoin="round" width="12" height="24" fill="rgb(153,227,106)" stroke="rgb(122,181,84)" stroke-width="1" opacity="0.75" />
			</g>
		</g>
		<g>
			<title>rubM
RubM</title>
			<polygon class="rubM
RubM" points="242,40 258,10 258,70" fill="rgb(255,255,255)" fill-opacity="1.0" stroke="rgb(0,0,0)" stroke-width="2"  />
			<g>
				<title>MarR_2 (PF12802)
"MarR family"</title>
				<polygon class="PF12802" points="248,34 252,28 254,28 254,52 252,52 248,46" stroke-linejoin="round" width="6" height="24" fill="rgb(139,211,68)" stroke="rgb(111,168,54)" stroke-width="1" opacity="0.75" />
			</g>
		</g>
		<g>
			<title>rubN
RubN</title>
			<polygon class="rubN
RubN" points="263,25 284,25 284,10 314,40 284,70 284,55 263,55" fill="rgb(255,255,255)" fill-opacity="1.0" stroke="rgb(0,0,0)" stroke-width="2"  />
			<g>
				<title>FAD_binding_3 (PF01494)
"FAD binding domain"</title>
				<rect class="PF01494" x="265" y="28" stroke-linejoin="round" width="33" height="24" fill="rgb(215,66,156)" stroke="rgb(172,52,124)" stroke-width="1" opacity="0.75" />
			</g>
			<g>
				<title>Rng_hyd_C (PF21274)
"Aromatic-ring hydroxylase, C-terminal"</title>
				<polygon class="PF21274" points="303,33 310,40 303,47" stroke-linejoin="round" width="10" height="24" fill="rgb(153,227,106)" stroke="rgb(122,181,84)" stroke-width="1" opacity="0.75" />
			</g>
		</g>
		<g>
			<title>rubO
RubO</title>
			<polygon class="rubO
RubO" points="320,25 337,25 337,10 367,40 337,70 337,55 320,55" fill="rgb(255,255,255)" fill-opacity="1.0" stroke="rgb(0,0,0)" stroke-width="2"  />
			<g>
				<title>FAD_binding_3 (PF01494)
"FAD binding domain"</title>
				<rect class="PF01494" x="333" y="28" stroke-linejoin="round" width="16" height="24" fill="rgb(215,66,156)" stroke="rgb(172,52,124)" stroke-width="1" opacity="0.75" />
			</g>
			<g>
				<title>Rng_hyd_C (PF21274)
"Aromatic-ring hydroxylase, C-terminal"</title>
				<polygon class="PF21274" points="355,32 363,40 355,48" stroke-linejoin="round" width="12" height="24" fill="rgb(153,227,106)" stroke="rgb(122,181,84)" stroke-width="1" opacity="0.75" />
			</g>
		</g>
		<g>
			<title>rubP
RubP</title>
			<polygon class="rubP
RubP" points="425,25 403,25 403,10 373,40 403,70 403,55 425,55" fill="rgb(255,255,255)" fill-opacity="1.0" stroke="rgb(0,0,0)" stroke-width="2"  />
			<g>
				<title>Rng_hyd_C (PF21274)
"Aromatic-ring hydroxylase, C-terminal"</title>
				<polygon class="PF21274" points="377,40 384,33 384,47" stroke-linejoin="round" width="11" height="24" fill="rgb(153,227,106)" stroke="rgb(122,181,84)" stroke-width="1" opacity="0.75" />
			</g>
			<g>
				<title>FAD_binding_3 (PF01494)
"FAD binding domain"</title>
				<polygon class="PF01494" points="389,28 389,28 424,28 424,52 389,52 389,52" stroke-linejoin="round" width="35" height="24" fill="rgb(215,66,156)" stroke="rgb(172,52,124)" stroke-width="1" opacity="0.75" />
			</g>
		</g>
		<g>
			<title>rubQ
RubQ</title>
			<polygon class="rubQ
RubQ" points="433,10 447,40 433,70" fill="rgb(255,255,255)" fill-opacity="1.0" stroke="rgb(0,0,0)" stroke-width="2"  />
			<g>
				<title>Anthrone_oxy (PF08592)
"Anthrone oxygenase"</title>
				<polygon class="PF08592" points="437,28 438,28 444,40 438,52 437,52" stroke-linejoin="round" width="9" height="24" fill="rgb(94,203,219)" stroke="rgb(75,162,175)" stroke-width="1" opacity="0.75" />
			</g>
		</g>
		<g>
			<title>rubW
RubW</title>
			<polygon class="rubW
RubW" points="448,10 465,40 448,70" fill="rgb(255,255,255)" fill-opacity="1.0" stroke="rgb(0,0,0)" stroke-width="2"  />
		</g>
		<g>
			<title>rubR
RubR</title>
			<polygon class="rubR
RubR" points="465,25 497,25 497,10 527,40 497,70 497,55 465,55" fill="rgb(255,255,255)" fill-opacity="1.0" stroke="rgb(0,0,0)" stroke-width="2"  />
			<g>
				<title>GATase_7 (PF13537)
"Glutamine amidotransferase domain"</title>
				<rect class="PF13537" x="469" y="28" stroke-linejoin="round" width="12" height="24" fill="rgb(102,71,204)" stroke="rgb(81,56,163)" stroke-width="1" opacity="0.75" />
			</g>
			<g>
				<title>Asn_synthase (PF00733)
"Asparagine synthase"</title>
				<polygon class="PF00733" points="489,28 511,28 523,40 511,52 489,52" stroke-linejoin="round" width="37" height="24" fill="rgb(200,91,135)" stroke="rgb(160,72,108)" stroke-width="1" opacity="0.75" />
			</g>
		</g>
		<g>
			<title>rubS
RubS</title>
			<polygon class="rubS
RubS" points="536,25 572,25 572,10 602,40 572,70 572,55 536,55" fill="rgb(255,255,255)" fill-opacity="1.0" stroke="rgb(0,0,0)" stroke-width="2"  />
			<g>
				<title>Trans_reg_C (PF00486)
"Transcriptional regulatory protein, C terminal"</title>
				<rect class="PF00486" x="539" y="28" stroke-linejoin="round" width="6" height="24" fill="rgb(69,185,116)" stroke="rgb(55,148,92)" stroke-width="1" opacity="0.75" />
			</g>
			<g>
				<title>BTAD (PF03704)
"Bacterial transcriptional activator domain"</title>
				<rect class="PF03704" x="548" y="28" stroke-linejoin="round" width="14" height="24" fill="rgb(174,224,58)" stroke="rgb(139,179,46)" stroke-width="1" opacity="0.75" />
			</g>
			<g>
				<title>NB-ARC (PF00931)
"NB-ARC domain"</title>
				<polygon class="PF00931" points="567,28 585,28 588,31 588,49 585,52 567,52" stroke-linejoin="round" width="21" height="24" fill="rgb(199,170,84)" stroke="rgb(159,136,67)" stroke-width="1" opacity="0.75" />
			</g>
		</g>
		<g>
			<title>rubE
putative cyclaseI</title>
			<polygon class="rubE
putative cyclaseI" points="608,10 620,40 608,70" fill="rgb(255,255,255)" fill-opacity="1.0" stroke="rgb(0,0,0)" stroke-width="2"  />
			<g>
				<title>Cyclase_polyket (PF04673)
"Polyketide synthesis cyclase"</title>
				<polygon class="PF04673" points="608,28 611,28 617,40 611,52 608,52" stroke-linejoin="round" width="10" height="24" fill="rgb(97,206,162)" stroke="rgb(77,164,129)" stroke-width="1" opacity="0.75" />
			</g>
		</g>
		<g>
			<title>rubD
putative cyclase II</title>
			<polygon class="rubD
putative cyclase II" points="620,10 634,40 620,70" fill="rgb(255,255,255)" fill-opacity="1.0" stroke="rgb(0,0,0)" stroke-width="2"  />
			<g>
				<title>Cupin_2 (PF07883)
"Cupin domain"</title>
				<polygon class="PF07883" points="624,28 625,28 631,40 631,40 625,52 624,52" stroke-linejoin="round" width="7" height="24" fill="rgb(191,63,205)" stroke="rgb(152,50,164)" stroke-width="1" opacity="0.75" />
			</g>
		</g>
		<g>
			<title>rubA
ketosynthase alpha subunit</title>
			<polygon class="rubA
ketosynthase alpha subunit" points="634,25 646,25 646,10 676,40 646,70 646,55 634,55" fill="rgb(255,255,255)" fill-opacity="1.0" stroke="rgb(0,0,0)" stroke-width="2"  />
			<g>
				<title>ketoacyl-synt (PF00109)
"Beta-ketoacyl synthase, N-terminal domain"</title>
				<rect class="PF00109" x="634" y="28" stroke-linejoin="round" width="25" height="24" fill="rgb(74,179,82)" stroke="rgb(59,143,65)" stroke-width="1" opacity="0.75" />
			</g>
			<g>
				<title>Ketoacyl-synt_C (PF02801)
"Beta-ketoacyl synthase, C-terminal domain"</title>
				<polygon class="PF02801" points="660,28 660,28 671,39 671,41 660,52 660,52" stroke-linejoin="round" width="11" height="24" fill="rgb(212,79,72)" stroke="rgb(169,63,57)" stroke-width="1" opacity="0.75" />
			</g>
		</g>
		<g>
			<title>rubB
ketosynthase beta subunit</title>
			<polygon class="rubB
ketosynthase beta subunit" points="677,25 689,25 689,10 719,40 689,70 689,55 677,55" fill="rgb(255,255,255)" fill-opacity="1.0" stroke="rgb(0,0,0)" stroke-width="2"  />
			<g>
				<title>ketoacyl-synt (PF00109)
"Beta-ketoacyl synthase, N-terminal domain"</title>
				<rect class="PF00109" x="678" y="28" stroke-linejoin="round" width="24" height="24" fill="rgb(74,179,82)" stroke="rgb(59,143,65)" stroke-width="1" opacity="0.75" />
			</g>
			<g>
				<title>Ketoacyl-synt_C (PF02801)
"Beta-ketoacyl synthase, C-terminal domain"</title>
				<polygon class="PF02801" points="703,28 703,28 714,39 714,41 703,52 703,52" stroke-linejoin="round" width="11" height="24" fill="rgb(212,79,72)" stroke="rgb(169,63,57)" stroke-width="1" opacity="0.75" />
			</g>
		</g>
		<g>
			<title>rubC
acyl carrier protein</title>
			<polygon class="rubC
acyl carrier protein" points="721,10 729,40 721,70" fill="rgb(255,255,255)" fill-opacity="1.0" stroke="rgb(0,0,0)" stroke-width="2"  />
			<g>
				<title>PP-binding (PF00550)
"Phosphopantetheine attachment site"</title>
				<polygon class="PF00550" points="721,28 722,28 726,40 722,52 721,52" stroke-linejoin="round" width="7" height="24" fill="rgb(181,58,166)" stroke="rgb(144,46,132)" stroke-width="1" opacity="0.75" />
			</g>
		</g>
		<g>
			<title>rubF
RubF</title>
			<polygon class="rubF
RubF" points="730,25 739,25 739,10 769,40 739,70 739,55 730,55" fill="rgb(255,255,255)" fill-opacity="1.0" stroke="rgb(0,0,0)" stroke-width="2"  />
			<g>
				<title>Polyketide_cyc (PF03364)
"Polyketide cyclase / dehydrase and lipid transport"</title>
				<rect class="PF03364" x="731" y="28" stroke-linejoin="round" width="12" height="24" fill="rgb(87,54,192)" stroke="rgb(69,43,153)" stroke-width="1" opacity="0.75" />
			</g>
			<g>
				<title>adh_short_C2 (PF13561)
"Enoyl-(Acyl carrier protein) reductase"</title>
				<polygon class="PF13561" points="746,28 753,28 765,40 753,52 746,52" stroke-linejoin="round" width="23" height="24" fill="rgb(79,221,209)" stroke="rgb(63,176,167)" stroke-width="1" opacity="0.75" />
			</g>
		</g>
		<g>
			<title>rubG
putative reductase</title>
			<polygon class="rubG
putative reductase" points="770,10 795,40 770,70" fill="rgb(255,255,255)" fill-opacity="1.0" stroke="rgb(0,0,0)" stroke-width="2"  />
			<g>
				<title>adh_short_C2 (PF13561)
"Enoyl-(Acyl carrier protein) reductase"</title>
				<polygon class="PF13561" points="771,28 781,28 791,40 781,52 771,52" stroke-linejoin="round" width="23" height="24" fill="rgb(79,221,209)" stroke="rgb(63,176,167)" stroke-width="1" opacity="0.75" />
			</g>
		</g>
		<g>
			<title>rubH
hypthetical protein</title>
			<polygon class="rubH
hypthetical protein" points="795,10 805,40 795,70" fill="rgb(255,255,255)" fill-opacity="1.0" stroke="rgb(0,0,0)" stroke-width="2"  />
			<g>
				<title>ABM (PF03992)
"Antibiotic biosynthesis monooxygenase"</title>
				<polygon class="PF03992" points="795,28 798,28 802,39 802,41 798,52 795,52" stroke-linejoin="round" width="7" height="24" fill="rgb(211,55,142)" stroke="rgb(168,44,113)" stroke-width="1" opacity="0.75" />
			</g>
		</g>
		<g>
			<title>rubT
RubT</title>
			<polygon class="rubT
RubT" points="806,10 817,40 806,70" fill="rgb(255,255,255)" fill-opacity="1.0" stroke="rgb(0,0,0)" stroke-width="2"  />
			<g>
				<title>ABM (PF03992)
"Antibiotic biosynthesis monooxygenase"</title>
				<polygon class="PF03992" points="806,28 809,28 813,36 813,44 809,52 806,52" stroke-linejoin="round" width="7" height="24" fill="rgb(211,55,142)" stroke="rgb(168,44,113)" stroke-width="1" opacity="0.75" />
			</g>
		</g>
		<g>
			<title>rubU
RubU</title>
			<polygon class="rubU
RubU" points="818,25 830,25 830,10 860,40 830,70 830,55 818,55" fill="rgb(255,255,255)" fill-opacity="1.0" stroke="rgb(0,0,0)" stroke-width="2"  />
			<g>
				<title>p450 (PF00067)
"Cytochrome P450"</title>
				<polygon class="PF00067" points="836,28 843,28 855,40 843,52 836,52" stroke-linejoin="round" width="21" height="24" fill="rgb(195,210,54)" stroke="rgb(155,168,43)" stroke-width="1" opacity="0.75" />
			</g>
		</g>
		<g>
			<title>
hypothetical protein</title>
			<polygon class="
hypothetical protein" points="861,10 889,40 861,70" fill="rgb(255,255,255)" fill-opacity="1.0" stroke="rgb(0,0,0)" stroke-width="2"  />
			<g>
				<title>Methyltransf_19 (PF04672)
"S-adenosyl methyltransferase"</title>
				<polygon class="PF04672" points="862,28 873,28 884,40 873,52 862,52" stroke-linejoin="round" width="26" height="24" fill="rgb(220,59,72)" stroke="rgb(176,47,57)" stroke-width="1" opacity="0.75" />
			</g>
		</g>
		<g>
			<title>
putative transporter</title>
			<polygon class="
putative transporter" points="890,25 910,25 910,10 940,40 910,70 910,55 890,55" fill="rgb(255,255,255)" fill-opacity="1.0" stroke="rgb(0,0,0)" stroke-width="2"  />
			<g>
				<title>PTR2 (PF00854)
"POT family"</title>
				<polygon class="PF00854" points="899,28 923,28 935,40 923,52 899,52" stroke-linejoin="round" width="37" height="24" fill="rgb(196,116,74)" stroke="rgb(156,92,59)" stroke-width="1" opacity="0.75" />
			</g>
		</g>
		<g>
			<title>
DNA methylase</title>
			<polygon class="
DNA methylase" points="1006,25 1015,25 1015,10 1045,40 1015,70 1015,55 1006,55" fill="rgb(255,255,255)" fill-opacity="1.0" stroke="rgb(0,0,0)" stroke-width="2"  />
			<g>
				<title>N6_Mtase (PF02384)
"N-6 DNA Methylase"</title>
				<polygon class="PF02384" points="1008,28 1029,28 1041,40 1041,40 1029,52 1008,52" stroke-linejoin="round" width="33" height="24" fill="rgb(199,214,101)" stroke="rgb(159,171,80)" stroke-width="1" opacity="0.75" />
			</g>
		</g>
	</g>
</svg>
