<svg version="1.1" baseProfile="full" xmlns="http://www.w3.org/2000/svg" width="2547.633333333333" height="80">
	<g>
		<line x1="10" y1="40.0" x2="2537.633333333333" y2="40.0" style="stroke:rgb(70,70,70); stroke-width:3 "/>
		<g>
			<title>
AflT</title>
			<polygon class="
AflT" points="181,25 217,25 217,10 247,40 217,70 217,55 181,55" fill="rgb(255,255,255)" fill-opacity="1.0" stroke="rgb(0,0,0)" stroke-width="2"  />
			<g>
				<title>MFS_1 (PF07690)
"Major Facilitator Superfamily"</title>
				<rect class="PF07690" x="186" y="28" stroke-linejoin="round" width="39" height="24" fill="rgb(228,207,98)" stroke="rgb(182,165,78)" stroke-width="1" opacity="0.75" />
			</g>
		</g>
		<g>
			<title>
PksA</title>
			<polygon class="
PksA" points="520,25 330,25 330,10 300,40 330,70 330,55 520,55" fill="rgb(255,255,255)" fill-opacity="1.0" stroke="rgb(0,0,0)" stroke-width="2"  />
			<g>
				<title>Thioesterase (PF00975)
"Thioesterase domain"</title>
				<polygon class="PF00975" points="310,34 316,28 334,28 334,52 316,52 310,46" stroke-linejoin="round" width="24" height="24" fill="rgb(69,76,223)" stroke="rgb(55,60,178)" stroke-width="1" opacity="0.75" />
			</g>
			<g>
				<title>PP-binding (PF00550)
"Phosphopantetheine attachment site"</title>
				<rect class="PF00550" x="342" y="28" stroke-linejoin="round" width="6" height="24" fill="rgb(181,58,166)" stroke="rgb(144,46,132)" stroke-width="1" opacity="0.75" />
			</g>
			<g>
				<title>PS-DH (PF14765)
"Polyketide synthase dehydratase N-terminal domain"</title>
				<rect class="PF14765" x="357" y="28" stroke-linejoin="round" width="14" height="24" fill="rgb(189,61,178)" stroke="rgb(151,48,142)" stroke-width="1" opacity="0.75" />
			</g>
			<g>
				<title>Acyl_transf_1 (PF00698)
"Acyl transferase domain"</title>
				<rect class="PF00698" x="398" y="28" stroke-linejoin="round" width="31" height="24" fill="rgb(132,93,193)" stroke="rgb(105,74,154)" stroke-width="1" opacity="0.75" />
			</g>
			<g>
				<title>Ketoacyl-synt_C (PF02801)
"Beta-ketoacyl synthase, C-terminal domain"</title>
				<rect class="PF02801" x="445" y="28" stroke-linejoin="round" width="12" height="24" fill="rgb(212,79,72)" stroke="rgb(169,63,57)" stroke-width="1" opacity="0.75" />
			</g>
			<g>
				<title>ketoacyl-synt (PF00109)
"Beta-ketoacyl synthase, N-terminal domain"</title>
				<rect class="PF00109" x="458" y="28" stroke-linejoin="round" width="24" height="24" fill="rgb(74,179,82)" stroke="rgb(59,143,65)" stroke-width="1" opacity="0.75" />
			</g>
			<g>
				<title>SAT (PF16073)
"Starter unit:ACP transacylase in aflatoxin biosynthesis"</title>
				<rect class="PF16073" x="496" y="28" stroke-linejoin="round" width="23" height="24" fill="rgb(77,185,114)" stroke="rgb(61,148,91)" stroke-width="1" opacity="0.75" />
			</g>
		</g>
		<g>
			<title>
Nor-1</title>
			<polygon class="
Nor-1" points="577,25 580,25 580,10 610,40 580,70 580,55 577,55" fill="rgb(255,255,255)" fill-opacity="1.0" stroke="rgb(0,0,0)" stroke-width="2"  />
			<g>
				<title>adh_short (PF00106)
"short chain dehydrogenase"</title>
				<polygon class="PF00106" points="579,28 593,28 599,34 599,46 593,52 579,52" stroke-linejoin="round" width="20" height="24" fill="rgb(128,81,196)" stroke="rgb(102,64,156)" stroke-width="1" opacity="0.75" />
			</g>
		</g>
		<g>
			<title>
HexA</title>
			<polygon class="
HexA" points="823,25 683,25 683,10 653,40 683,70 683,55 823,55" fill="rgb(255,255,255)" fill-opacity="1.0" stroke="rgb(0,0,0)" stroke-width="2"  />
			<g>
				<title>ACPS (PF01648)
"4'-phosphopantetheinyl transferase superfamily"</title>
				<polygon class="PF01648" points="657,40 668,29 668,51 657,40" stroke-linejoin="round" width="11" height="24" fill="rgb(58,190,78)" stroke="rgb(46,152,62)" stroke-width="1" opacity="0.75" />
			</g>
			<g>
				<title>Ketoacyl-synt_C (PF02801)
"Beta-ketoacyl synthase, C-terminal domain"</title>
				<rect class="PF02801" x="685" y="28" stroke-linejoin="round" width="12" height="24" fill="rgb(212,79,72)" stroke="rgb(169,63,57)" stroke-width="1" opacity="0.75" />
			</g>
			<g>
				<title>ketoacyl-synt (PF00109)
"Beta-ketoacyl synthase, N-terminal domain"</title>
				<rect class="PF00109" x="703" y="28" stroke-linejoin="round" width="21" height="24" fill="rgb(74,179,82)" stroke="rgb(59,143,65)" stroke-width="1" opacity="0.75" />
			</g>
			<g>
				<title>KR (PF08659)
"KR domain"</title>
				<rect class="PF08659" x="764" y="28" stroke-linejoin="round" width="9" height="24" fill="rgb(203,145,81)" stroke="rgb(162,116,64)" stroke-width="1" opacity="0.75" />
			</g>
			<g>
				<title>FAS_I_H (PF18314)
"Fatty acid synthase type I helical domain"</title>
				<rect class="PF18314" x="778" y="28" stroke-linejoin="round" width="19" height="24" fill="rgb(186,161,78)" stroke="rgb(148,128,62)" stroke-width="1" opacity="0.75" />
			</g>
			<g>
				<title>Fas_alpha_ACP (PF18325)
"Fatty acid synthase subunit alpha Acyl carrier domain"</title>
				<rect class="PF18325" x="800" y="28" stroke-linejoin="round" width="15" height="24" fill="rgb(90,76,202)" stroke="rgb(71,60,161)" stroke-width="1" opacity="0.75" />
			</g>
		</g>
		<g>
			<title>
HexB</title>
			<polygon class="
HexB" points="848,25 1012,25 1012,10 1042,40 1012,70 1012,55 848,55" fill="rgb(255,255,255)" fill-opacity="1.0" stroke="rgb(0,0,0)" stroke-width="2"  />
			<g>
				<title>SAT (PF16073)
"Starter unit:ACP transacylase in aflatoxin biosynthesis"</title>
				<rect class="PF16073" x="850" y="28" stroke-linejoin="round" width="25" height="24" fill="rgb(77,185,114)" stroke="rgb(61,148,91)" stroke-width="1" opacity="0.75" />
			</g>
			<g>
				<title>Fas1-AflB-like_hel (PF08354)
"Fatty acid synthase subunit beta/Fas1-like, helical"</title>
				<rect class="PF08354" x="906" y="28" stroke-linejoin="round" width="34" height="24" fill="rgb(200,86,126)" stroke="rgb(160,68,100)" stroke-width="1" opacity="0.75" />
			</g>
			<g>
				<title>FAS_meander (PF17951)
"Fatty acid synthase meander beta sheet domain"</title>
				<rect class="PF17951" x="945" y="28" stroke-linejoin="round" width="14" height="24" fill="rgb(177,192,60)" stroke="rgb(141,153,48)" stroke-width="1" opacity="0.75" />
			</g>
			<g>
				<title>MaoC_dehydrat_N (PF13452)
"N-terminal half of MaoC dehydratase"</title>
				<rect class="PF13452" x="960" y="28" stroke-linejoin="round" width="12" height="24" fill="rgb(80,58,182)" stroke="rgb(64,46,145)" stroke-width="1" opacity="0.75" />
			</g>
			<g>
				<title>MaoC_dehydratas (PF01575)
"MaoC like domain"</title>
				<rect class="PF01575" x="986" y="28" stroke-linejoin="round" width="11" height="24" fill="rgb(86,84,223)" stroke="rgb(68,67,178)" stroke-width="1" opacity="0.75" />
			</g>
			<g>
				<title>Acyl_transf_1 (PF00698)
"Acyl transferase domain"</title>
				<polygon class="PF00698" points="999,28 1026,28 1035,37 1035,43 1026,52 999,52" stroke-linejoin="round" width="36" height="24" fill="rgb(132,93,193)" stroke="rgb(105,74,154)" stroke-width="1" opacity="0.75" />
			</g>
		</g>
		<g>
			<title>
AflR</title>
			<polygon class="
AflR" points="1129,25 1115,25 1115,10 1085,40 1115,70 1115,55 1129,55" fill="rgb(255,255,255)" fill-opacity="1.0" stroke="rgb(0,0,0)" stroke-width="2"  />
			<g>
				<title>AflR (PF08493)
"Aflatoxin regulatory protein"</title>
				<polygon class="PF08493" points="1096,33 1101,28 1106,28 1106,52 1101,52 1096,47" stroke-linejoin="round" width="10" height="24" fill="rgb(82,57,195)" stroke="rgb(65,45,156)" stroke-width="1" opacity="0.75" />
			</g>
			<g>
				<title>Zn_clus (PF00172)
"Fungal Zn(2)-Cys(6) binuclear cluster domain"</title>
				<rect class="PF00172" x="1123" y="28" stroke-linejoin="round" width="3" height="24" fill="rgb(58,207,82)" stroke="rgb(46,165,65)" stroke-width="1" opacity="0.75" />
			</g>
		</g>
		<g>
			<title>
AflJ</title>
			<polygon class="
AflJ" points="1154,25 1172,25 1172,10 1202,40 1172,70 1172,55 1154,55" fill="rgb(255,255,255)" fill-opacity="1.0" stroke="rgb(0,0,0)" stroke-width="2"  />
		</g>
		<g>
			<title>
AdhA</title>
			<polygon class="
AdhA" points="1222,10 1249,40 1222,70" fill="rgb(255,255,255)" fill-opacity="1.0" stroke="rgb(0,0,0)" stroke-width="2"  />
			<g>
				<title>adh_short (PF00106)
"short chain dehydrogenase"</title>
				<polygon class="PF00106" points="1223,28 1234,28 1244,39 1244,41 1234,52 1223,52" stroke-linejoin="round" width="21" height="24" fill="rgb(128,81,196)" stroke="rgb(102,64,156)" stroke-width="1" opacity="0.75" />
			</g>
		</g>
		<g>
			<title>
EstA</title>
			<polygon class="
EstA" points="1280,25 1283,25 1283,10 1313,40 1283,70 1283,55 1280,55" fill="rgb(255,255,255)" fill-opacity="1.0" stroke="rgb(0,0,0)" stroke-width="2"  />
			<g>
				<title>Abhydrolase_3 (PF07859)
"alpha/beta hydrolase fold"</title>
				<polygon class="PF07859" points="1288,28 1297,28 1308,39 1308,41 1297,52 1288,52" stroke-linejoin="round" width="20" height="24" fill="rgb(216,68,121)" stroke="rgb(172,54,96)" stroke-width="1" opacity="0.75" />
			</g>
		</g>
		<g>
			<title>
NorA</title>
			<polygon class="
NorA" points="1323,25 1335,25 1335,10 1365,40 1335,70 1335,55 1323,55" fill="rgb(255,255,255)" fill-opacity="1.0" stroke="rgb(0,0,0)" stroke-width="2"  />
			<g>
				<title>Aldo_ket_red (PF00248)
"Aldo/keto reductase family"</title>
				<polygon class="PF00248" points="1325,28 1349,28 1355,34 1355,46 1349,52 1325,52" stroke-linejoin="round" width="30" height="24" fill="rgb(96,196,138)" stroke="rgb(76,156,110)" stroke-width="1" opacity="0.75" />
			</g>
		</g>
		<g>
			<title>
Ver-1</title>
			<polygon class="
Ver-1" points="1393,25 1393,25 1393,10 1423,40 1393,70 1393,55 1393,55" fill="rgb(255,255,255)" fill-opacity="1.0" stroke="rgb(0,0,0)" stroke-width="2"  />
			<g>
				<title>adh_short_C2 (PF13561)
"Enoyl-(Acyl carrier protein) reductase"</title>
				<polygon class="PF13561" points="1394,28 1406,28 1418,40 1418,40 1406,52 1394,52" stroke-linejoin="round" width="24" height="24" fill="rgb(79,221,209)" stroke="rgb(63,176,167)" stroke-width="1" opacity="0.75" />
			</g>
		</g>
		<g>
			<title>
VerA</title>
			<polygon class="
VerA" points="1458,25 1479,25 1479,10 1509,40 1479,70 1479,55 1458,55" fill="rgb(255,255,255)" fill-opacity="1.0" stroke="rgb(0,0,0)" stroke-width="2"  />
			<g>
				<title>p450 (PF00067)
"Cytochrome P450"</title>
				<polygon class="PF00067" points="1458,28 1492,28 1503,39 1503,41 1492,52 1458,52" stroke-linejoin="round" width="45" height="24" fill="rgb(195,210,54)" stroke="rgb(155,168,43)" stroke-width="1" opacity="0.75" />
			</g>
		</g>
		<g>
			<title>
AvnA</title>
			<polygon class="
AvnA" points="1597,25 1574,25 1574,10 1544,40 1574,70 1574,55 1597,55" fill="rgb(255,255,255)" fill-opacity="1.0" stroke="rgb(0,0,0)" stroke-width="2"  />
			<g>
				<title>p450 (PF00067)
"Cytochrome P450"</title>
				<polygon class="PF00067" points="1548,40 1560,28 1592,28 1592,52 1560,52 1548,40" stroke-linejoin="round" width="44" height="24" fill="rgb(195,210,54)" stroke="rgb(155,168,43)" stroke-width="1" opacity="0.75" />
			</g>
		</g>
		<g>
			<title>
VerB</title>
			<polygon class="
VerB" points="1660,25 1639,25 1639,10 1609,40 1639,70 1639,55 1660,55" fill="rgb(255,255,255)" fill-opacity="1.0" stroke="rgb(0,0,0)" stroke-width="2"  />
			<g>
				<title>p450 (PF00067)
"Cytochrome P450"</title>
				<polygon class="PF00067" points="1613,40 1625,28 1657,28 1657,52 1625,52" stroke-linejoin="round" width="45" height="24" fill="rgb(195,210,54)" stroke="rgb(155,168,43)" stroke-width="1" opacity="0.75" />
			</g>
		</g>
		<g>
			<title>
AvfA</title>
			<polygon class="
AvfA" points="1696,40 1724,10 1724,70" fill="rgb(255,255,255)" fill-opacity="1.0" stroke="rgb(0,0,0)" stroke-width="2"  />
			<g>
				<title>NAD_binding_10 (PF13460)
"NAD(P)H-binding"</title>
				<polygon class="PF13460" points="1702,38 1711,28 1723,28 1723,52 1711,52 1702,42" stroke-linejoin="round" width="21" height="24" fill="rgb(131,53,182)" stroke="rgb(104,42,145)" stroke-width="1" opacity="0.75" />
			</g>
		</g>
		<g>
			<title>
OmtB</title>
			<polygon class="
OmtB" points="1774,25 1760,25 1760,10 1730,40 1760,70 1760,55 1774,55" fill="rgb(255,255,255)" fill-opacity="1.0" stroke="rgb(0,0,0)" stroke-width="2"  />
			<g>
				<title>Methyltransf_2 (PF00891)
"O-methyltransferase domain"</title>
				<polygon class="PF00891" points="1738,36 1746,28 1759,28 1759,52 1746,52 1738,44" stroke-linejoin="round" width="21" height="24" fill="rgb(91,124,224)" stroke="rgb(72,99,179)" stroke-width="1" opacity="0.75" />
			</g>
		</g>
		<g>
			<title>
OmtA</title>
			<polygon class="
OmtA" points="1865,25 1846,25 1846,10 1816,40 1846,70 1846,55 1865,55" fill="rgb(255,255,255)" fill-opacity="1.0" stroke="rgb(0,0,0)" stroke-width="2"  />
			<g>
				<title>Methyltransf_2 (PF00891)
"O-methyltransferase domain"</title>
				<polygon class="PF00891" points="1826,34 1832,28 1846,28 1846,52 1832,52 1826,46" stroke-linejoin="round" width="20" height="24" fill="rgb(91,124,224)" stroke="rgb(72,99,179)" stroke-width="1" opacity="0.75" />
			</g>
		</g>
		<g>
			<title>
OrdA</title>
			<polygon class="
OrdA" points="1907,25 1942,25 1942,10 1972,40 1942,70 1942,55 1907,55" fill="rgb(255,255,255)" fill-opacity="1.0" stroke="rgb(0,0,0)" stroke-width="2"  />
			<g>
				<title>p450 (PF00067)
"Cytochrome P450"</title>
				<rect class="PF00067" x="1910" y="28" stroke-linejoin="round" width="45" height="24" fill="rgb(195,210,54)" stroke="rgb(155,168,43)" stroke-width="1" opacity="0.75" />
			</g>
		</g>
		<g>
			<title>
VBS</title>
			<polygon class="
VBS" points="1989,25 2025,25 2025,10 2055,40 2025,70 2025,55 1989,55" fill="rgb(255,255,255)" fill-opacity="1.0" stroke="rgb(0,0,0)" stroke-width="2"  />
			<g>
				<title>GMC_oxred_N (PF00732)
"GMC oxidoreductase"</title>
				<rect class="PF00732" x="1996" y="28" stroke-linejoin="round" width="31" height="24" fill="rgb(102,94,198)" stroke="rgb(81,75,158)" stroke-width="1" opacity="0.75" />
			</g>
			<g>
				<title>GMC_oxred_C (PF05199)
"GMC oxidoreductase"</title>
				<polygon class="PF05199" points="2038,28 2038,28 2050,40 2038,52 2038,52" stroke-linejoin="round" width="13" height="24" fill="rgb(206,67,222)" stroke="rgb(164,53,177)" stroke-width="1" opacity="0.75" />
			</g>
		</g>
		<g>
			<title>
CypX</title>
			<polygon class="
CypX" points="2129,25 2105,25 2105,10 2075,40 2105,70 2105,55 2129,55" fill="rgb(255,255,255)" fill-opacity="1.0" stroke="rgb(0,0,0)" stroke-width="2"  />
			<g>
				<title>p450 (PF00067)
"Cytochrome P450"</title>
				<polygon class="PF00067" points="2080,39 2091,28 2124,28 2124,52 2091,52 2080,41" stroke-linejoin="round" width="44" height="24" fill="rgb(195,210,54)" stroke="rgb(155,168,43)" stroke-width="1" opacity="0.75" />
			</g>
		</g>
		<g>
			<title>
MoxY</title>
			<polygon class="
MoxY" points="2150,25 2168,25 2168,10 2198,40 2168,70 2168,55 2150,55" fill="rgb(255,255,255)" fill-opacity="1.0" stroke="rgb(0,0,0)" stroke-width="2"  />
			<g>
				<title>FMO-like (PF00743)
"Flavin-binding monooxygenase-like"</title>
				<rect class="PF00743" x="2150" y="28" stroke-linejoin="round" width="22" height="24" fill="rgb(187,193,82)" stroke="rgb(149,154,65)" stroke-width="1" opacity="0.75" />
			</g>
		</g>
		<g>
			<title>
OrdB</title>
			<polygon class="
OrdB" points="2217,40 2243,10 2243,70" fill="rgb(255,255,255)" fill-opacity="1.0" stroke="rgb(0,0,0)" stroke-width="2"  />
			<g>
				<title>NAD_binding_10 (PF13460)
"NAD(P)H-binding"</title>
				<polygon class="PF13460" points="2222,39 2232,28 2242,28 2242,52 2232,52 2222,41" stroke-linejoin="round" width="20" height="24" fill="rgb(131,53,182)" stroke="rgb(104,42,145)" stroke-width="1" opacity="0.75" />
			</g>
		</g>
		<g>
			<title>
HypA</title>
			<polygon class="
HypA" points="2309,25 2286,25 2286,10 2256,40 2286,70 2286,55 2309,55" fill="rgb(255,255,255)" fill-opacity="1.0" stroke="rgb(0,0,0)" stroke-width="2"  />
			<g>
				<title>Questin_oxidase (PF14027)
"Questin oxidase-like"</title>
				<polygon class="PF14027" points="2269,31 2272,28 2302,28 2302,52 2272,52 2269,49" stroke-linejoin="round" width="33" height="24" fill="rgb(195,73,96)" stroke="rgb(156,58,76)" stroke-width="1" opacity="0.75" />
			</g>
		</g>
	</g>
</svg>
