<svg version="1.1" baseProfile="full" xmlns="http://www.w3.org/2000/svg" width="613.4666666666667" height="80">
	<g>
		<line x1="10" y1="40.0" x2="603.4666666666667" y2="40.0" style="stroke:rgb(70,70,70); stroke-width:3 "/>
		<g>
			<title>ppzP
5,10-dihydrophenazine-1-carboxylate 9-dimethylallyltransferase (dihydro-PCA prenyltransferase)</title>
			<polygon class="ppzP
5,10-dihydrophenazine-1-carboxylate 9-dimethylallyltransferase (dihydro-PCA prenyltransferase)" points="10,25 10,25 10,10 40,40 10,70 10,55 10,55" fill="rgb(255,255,255)" fill-opacity="1.0" stroke="rgb(0,0,0)" stroke-width="2"  />
			<g>
				<title>PTase_Orf2 (PF11468)
"Aromatic prenyltransferase Orf2"</title>
				<polygon class="PF11468" points="10,28 23,28 35,40 23,52 10,52" stroke-linejoin="round" width="29" height="24" fill="rgb(75,65,211)" stroke="rgb(59,51,168)" stroke-width="1" opacity="0.75" />
			</g>
		</g>
		<g>
			<title>mk
putative mevalonate kinase</title>
			<polygon class="mk
putative mevalonate kinase" points="43,25 47,25 47,10 77,40 47,70 47,55 43,55" fill="rgb(255,255,255)" fill-opacity="1.0" stroke="rgb(0,0,0)" stroke-width="2"  />
			<g>
				<title>GHMP_kinases_N (PF00288)
"GHMP kinases N terminal domain"</title>
				<rect class="PF00288" x="54" y="28" stroke-linejoin="round" width="6" height="24" fill="rgb(76,147,218)" stroke="rgb(60,117,174)" stroke-width="1" opacity="0.75" />
			</g>
			<g>
				<title>GHMP_kinases_C (PF08544)
"GHMP kinases C terminal"</title>
				<polygon class="PF08544" points="67,34 73,40 67,46" stroke-linejoin="round" width="8" height="24" fill="rgb(191,105,222)" stroke="rgb(152,84,177)" stroke-width="1" opacity="0.75" />
			</g>
		</g>
		<g>
			<title>mdpd
putative diphosphomevalonate decarboxylase</title>
			<polygon class="mdpd
putative diphosphomevalonate decarboxylase" points="77,25 82,25 82,10 112,40 82,70 82,55 77,55" fill="rgb(255,255,255)" fill-opacity="1.0" stroke="rgb(0,0,0)" stroke-width="2"  />
			<g>
				<title>GHMP_kinases_N (PF00288)
"GHMP kinases N terminal domain"</title>
				<rect class="PF00288" x="87" y="28" stroke-linejoin="round" width="5" height="24" fill="rgb(76,147,218)" stroke="rgb(60,117,174)" stroke-width="1" opacity="0.75" />
			</g>
			<g>
				<title>MDD_C (PF18376)
"Mevalonate 5-diphosphate decarboxylase C-terminal domain"</title>
				<polygon class="PF18376" points="96,29 107,40 96,51" stroke-linejoin="round" width="13" height="24" fill="rgb(56,180,89)" stroke="rgb(44,144,71)" stroke-width="1" opacity="0.75" />
			</g>
		</g>
		<g>
			<title>pmk
putative phosphomevalonate kinase</title>
			<polygon class="pmk
putative phosphomevalonate kinase" points="112,25 119,25 119,10 149,40 119,70 119,55 112,55" fill="rgb(255,255,255)" fill-opacity="1.0" stroke="rgb(0,0,0)" stroke-width="2"  />
			<g>
				<title>GHMP_kinases_N (PF00288)
"GHMP kinases N terminal domain"</title>
				<rect class="PF00288" x="123" y="28" stroke-linejoin="round" width="6" height="24" fill="rgb(76,147,218)" stroke="rgb(60,117,174)" stroke-width="1" opacity="0.75" />
			</g>
			<g>
				<title>GHMP_kinases_C (PF08544)
"GHMP kinases C terminal"</title>
				<polygon class="PF08544" points="139,35 144,40 139,45" stroke-linejoin="round" width="8" height="24" fill="rgb(191,105,222)" stroke="rgb(152,84,177)" stroke-width="1" opacity="0.75" />
			</g>
		</g>
		<g>
			<title>ippi
putative type II isopentenyl diphosphate delta isomerase</title>
			<polygon class="ippi
putative type II isopentenyl diphosphate delta isomerase" points="149,25 155,25 155,10 185,40 155,70 155,55 149,55" fill="rgb(255,255,255)" fill-opacity="1.0" stroke="rgb(0,0,0)" stroke-width="2"  />
			<g>
				<title>FMN_dh (PF01070)
"FMN-dependent dehydrogenase"</title>
				<polygon class="PF01070" points="160,28 169,28 181,40 181,40 169,52 160,52" stroke-linejoin="round" width="21" height="24" fill="rgb(219,60,209)" stroke="rgb(175,47,167)" stroke-width="1" opacity="0.75" />
			</g>
		</g>
		<g>
			<title>hmgr
putative 3-hydroxy-3-methylglutaryl-CoA reductase</title>
			<polygon class="hmgr
putative 3-hydroxy-3-methylglutaryl-CoA reductase" points="186,25 191,25 191,10 221,40 191,70 191,55 186,55" fill="rgb(255,255,255)" fill-opacity="1.0" stroke="rgb(0,0,0)" stroke-width="2"  />
			<g>
				<title>HMG-CoA_red (PF00368)
"Hydroxymethylglutaryl-coenzyme A reductase"</title>
				<polygon class="PF00368" points="186,28 205,28 217,40 205,52 186,52" stroke-linejoin="round" width="33" height="24" fill="rgb(211,175,87)" stroke="rgb(168,140,69)" stroke-width="1" opacity="0.75" />
			</g>
		</g>
		<g>
			<title>hmgs
putative 3-hydroxy-3-methylglutaryl-CoA synthase</title>
			<polygon class="hmgs
putative 3-hydroxy-3-methylglutaryl-CoA synthase" points="221,25 230,25 230,10 260,40 230,70 230,55 221,55" fill="rgb(255,255,255)" fill-opacity="1.0" stroke="rgb(0,0,0)" stroke-width="2"  />
			<g>
				<title>HMG_CoA_synt_N (PF01154)
"Hydroxymethylglutaryl-coenzyme A synthase N terminal"</title>
				<rect class="PF01154" x="221" y="28" stroke-linejoin="round" width="16" height="24" fill="rgb(192,53,137)" stroke="rgb(153,42,109)" stroke-width="1" opacity="0.75" />
			</g>
			<g>
				<title>HMG_CoA_synt_C (PF08540)
"Hydroxymethylglutaryl-coenzyme A synthase C terminal"</title>
				<polygon class="PF08540" points="247,32 255,40 247,48" stroke-linejoin="round" width="9" height="24" fill="rgb(72,187,147)" stroke="rgb(57,149,117)" stroke-width="1" opacity="0.75" />
			</g>
		</g>
		<g>
			<title>ppzT
putative 3-oxoacyl-[acyl-carrier-protein] synthase</title>
			<polygon class="ppzT
putative 3-oxoacyl-[acyl-carrier-protein] synthase" points="262,25 264,25 264,10 294,40 264,70 264,55 262,55" fill="rgb(255,255,255)" fill-opacity="1.0" stroke="rgb(0,0,0)" stroke-width="2"  />
			<g>
				<title>ACP_syn_III (PF08545)
"3-Oxoacyl-[acyl-carrier-protein (ACP)] synthase III"</title>
				<polygon class="PF08545" points="272,28 278,28 279,29 279,51 278,52 272,52" stroke-linejoin="round" width="7" height="24" fill="rgb(93,213,73)" stroke="rgb(74,170,58)" stroke-width="1" opacity="0.75" />
			</g>
			<g>
				<title>ACP_syn_III_C (PF08541)
"3-Oxoacyl-[acyl-carrier-protein (ACP)] synthase III C terminal"</title>
				<polygon class="PF08541" points="285,35 290,40 285,45" stroke-linejoin="round" width="8" height="24" fill="rgb(223,111,121)" stroke="rgb(178,88,96)" stroke-width="1" opacity="0.75" />
			</g>
		</g>
		<g>
			<title>ppzU
putative WrbA NAD(P)H:quinone oxidoreductase</title>
			<polygon class="ppzU
putative WrbA NAD(P)H:quinone oxidoreductase" points="297,10 321,40 297,70" fill="rgb(255,255,255)" fill-opacity="1.0" stroke="rgb(0,0,0)" stroke-width="2"  />
			<g>
				<title>FMN_red (PF03358)
"NADPH-dependent FMN reductase"</title>
				<polygon class="PF03358" points="299,28 308,28 314,36 314,44 308,52 299,52" stroke-linejoin="round" width="15" height="24" fill="rgb(161,216,66)" stroke="rgb(128,172,52)" stroke-width="1" opacity="0.75" />
			</g>
		</g>
		<g>
			<title>ppzV
conserved hypothetical protein ovmZ-like</title>
			<polygon class="ppzV
conserved hypothetical protein ovmZ-like" points="326,40 346,10 346,70" fill="rgb(255,255,255)" fill-opacity="1.0" stroke="rgb(0,0,0)" stroke-width="2"  />
		</g>
		<g>
			<title>ppzM
putative phenazine N-methyltransferase</title>
			<polygon class="ppzM
putative phenazine N-methyltransferase" points="384,25 380,25 380,10 350,40 380,70 380,55 384,55" fill="rgb(255,255,255)" fill-opacity="1.0" stroke="rgb(0,0,0)" stroke-width="2"  />
			<g>
				<title>Methyltransf_2 (PF00891)
"O-methyltransferase domain"</title>
				<polygon class="PF00891" points="354,40 366,28 372,28 372,52 366,52" stroke-linejoin="round" width="20" height="24" fill="rgb(91,124,224)" stroke="rgb(72,99,179)" stroke-width="1" opacity="0.75" />
			</g>
			<g>
				<title>Dimerisation2 (PF16864)
"Dimerisation domain"</title>
				<rect class="PF16864" x="375" y="28" stroke-linejoin="round" width="7" height="24" fill="rgb(212,101,199)" stroke="rgb(169,80,159)" stroke-width="1" opacity="0.75" />
			</g>
		</g>
		<g>
			<title>ppzB
putative enzyme of phenazine biosynthesis</title>
			<polygon class="ppzB
putative enzyme of phenazine biosynthesis" points="386,40 402,10 402,70" fill="rgb(255,255,255)" fill-opacity="1.0" stroke="rgb(0,0,0)" stroke-width="2"  />
			<g>
				<title>PHZA_PHZB (PF03284)
"Phenazine biosynthesis protein A/B"</title>
				<polygon class="PF03284" points="389,40 396,28 402,28 402,52 396,52" stroke-linejoin="round" width="16" height="24" fill="rgb(97,186,70)" stroke="rgb(77,148,56)" stroke-width="1" opacity="0.75" />
			</g>
		</g>
		<g>
			<title>ppzG
putative FMN-dependent oxidase</title>
			<polygon class="ppzG
putative FMN-dependent oxidase" points="404,40 427,10 427,70" fill="rgb(255,255,255)" fill-opacity="1.0" stroke="rgb(0,0,0)" stroke-width="2"  />
			<g>
				<title>PNP_phzG_C (PF10590)
"Pyridoxine 5'-phosphate oxidase C-terminal dimerisation region"</title>
				<polygon class="PF10590" points="408,40 408,40 408,40" stroke-linejoin="round" width="4" height="24" fill="rgb(58,189,132)" stroke="rgb(46,151,105)" stroke-width="1" opacity="0.75" />
			</g>
			<g>
				<title>Putative_PNPOx (PF01243)
"Pyridoxamine 5'-phosphate oxidase"</title>
				<polygon class="PF01243" points="413,34 417,28 421,28 421,52 417,52 413,46" stroke-linejoin="round" width="8" height="24" fill="rgb(187,127,57)" stroke="rgb(149,101,45)" stroke-width="1" opacity="0.75" />
			</g>
		</g>
		<g>
			<title>ppzF
putative trans-2,3-dihydro-3-hydroxyanthranilate isomerase</title>
			<polygon class="ppzF
putative trans-2,3-dihydro-3-hydroxyanthranilate isomerase" points="427,40 455,10 455,70" fill="rgb(255,255,255)" fill-opacity="1.0" stroke="rgb(0,0,0)" stroke-width="2"  />
			<g>
				<title>PhzC-PhzF (PF02567)
"Phenazine biosynthesis-like protein"</title>
				<polygon class="PF02567" points="431,40 442,28 453,28 453,52 442,52" stroke-linejoin="round" width="26" height="24" fill="rgb(81,190,161)" stroke="rgb(64,152,128)" stroke-width="1" opacity="0.75" />
			</g>
		</g>
		<g>
			<title>ppzE
putative 2-amino-2-desoxy-isochorismate synthase</title>
			<polygon class="ppzE
putative 2-amino-2-desoxy-isochorismate synthase" points="522,25 488,25 488,10 458,40 488,70 488,55 522,55" fill="rgb(255,255,255)" fill-opacity="1.0" stroke="rgb(0,0,0)" stroke-width="2"  />
			<g>
				<title>GATase (PF00117)
"Glutamine amidotransferase class-I"</title>
				<polygon class="PF00117" points="462,40 474,28 477,28 477,52 474,52" stroke-linejoin="round" width="18" height="24" fill="rgb(54,118,198)" stroke="rgb(43,94,158)" stroke-width="1" opacity="0.75" />
			</g>
			<g>
				<title>Chorismate_bind (PF00425)
"chorismate binding enzyme"</title>
				<rect class="PF00425" x="483" y="28" stroke-linejoin="round" width="26" height="24" fill="rgb(126,181,77)" stroke="rgb(100,144,61)" stroke-width="1" opacity="0.75" />
			</g>
		</g>
		<g>
			<title>ppzD
putative 2,3-dihydro-3-hydroxy-anthranilate synthase</title>
			<polygon class="ppzD
putative 2,3-dihydro-3-hydroxy-anthranilate synthase" points="523,40 543,10 543,70" fill="rgb(255,255,255)" fill-opacity="1.0" stroke="rgb(0,0,0)" stroke-width="2"  />
			<g>
				<title>Isochorismatase (PF00857)
"Isochorismatase family"</title>
				<polygon class="PF00857" points="527,40 535,28 540,28 540,52 535,52" stroke-linejoin="round" width="17" height="24" fill="rgb(82,216,163)" stroke="rgb(65,172,130)" stroke-width="1" opacity="0.75" />
			</g>
		</g>
		<g>
			<title>ppzC
putative 3-deoxy-D-arabino-heptulosonic acid 7-phosphate synthase</title>
			<polygon class="ppzC
putative 3-deoxy-D-arabino-heptulosonic acid 7-phosphate synthase" points="585,25 576,25 576,10 546,40 576,70 576,55 585,55" fill="rgb(255,255,255)" fill-opacity="1.0" stroke="rgb(0,0,0)" stroke-width="2"  />
			<g>
				<title>DAHP_synth_2 (PF01474)
"Class-II DAHP synthetase family"</title>
				<polygon class="PF01474" points="550,40 562,28 569,28 569,52 562,52" stroke-linejoin="round" width="23" height="24" fill="rgb(57,77,225)" stroke="rgb(45,61,180)" stroke-width="1" opacity="0.75" />
			</g>
			<g>
				<title>DAHP_synth_2 (PF01474)
"Class-II DAHP synthetase family"</title>
				<rect class="PF01474" x="568" y="28" stroke-linejoin="round" width="16" height="24" fill="rgb(57,77,225)" stroke="rgb(45,61,180)" stroke-width="1" opacity="0.75" />
			</g>
		</g>
		<g>
			<title>ppzA
putative enzyme of phenazine biosynthesis</title>
			<polygon class="ppzA
putative enzyme of phenazine biosynthesis" points="587,40 603,10 603,70" fill="rgb(255,255,255)" fill-opacity="1.0" stroke="rgb(0,0,0)" stroke-width="2"  />
			<g>
				<title>PHZA_PHZB (PF03284)
"Phenazine biosynthesis protein A/B"</title>
				<polygon class="PF03284" points="590,40 597,28 603,28 603,52 597,52" stroke-linejoin="round" width="16" height="24" fill="rgb(97,186,70)" stroke="rgb(77,148,56)" stroke-width="1" opacity="0.75" />
			</g>
		</g>
	</g>
</svg>
