<svg version="1.1" baseProfile="full" xmlns="http://www.w3.org/2000/svg" width="218.36666666666667" height="80">
	<g>
		<line x1="10" y1="40.0" x2="208.36666666666667" y2="40.0" style="stroke:rgb(70,70,70); stroke-width:3 "/>
		<g>
			<title>cnbA
cyclic nucleotide-binding protein</title>
			<polygon class="cnbA
cyclic nucleotide-binding protein" points="31,25 47,25 47,10 77,40 47,70 47,55 31,55" fill="rgb(255,255,255)" fill-opacity="1.0" stroke="rgb(0,0,0)" stroke-width="2"  />
			<g>
				<title>cNMP_binding (PF00027)
"Cyclic nucleotide-binding domain"</title>
				<rect class="PF00027" x="42" y="28" stroke-linejoin="round" width="8" height="24" fill="rgb(127,55,197)" stroke="rgb(101,44,157)" stroke-width="1" opacity="0.75" />
			</g>
			<g>
				<title>SrpI-like (PF19307)
"Type 2A encapsulin shell protein SrpI-like"</title>
				<polygon class="PF19307" points="52,28 61,28 73,40 61,52 52,52" stroke-linejoin="round" width="25" height="24" fill="rgb(108,76,192)" stroke="rgb(86,60,153)" stroke-width="1" opacity="0.75" />
			</g>
		</g>
		<g>
			<title>mtf
SAM-dependent methyltransferase</title>
			<polygon class="mtf
SAM-dependent methyltransferase" points="81,10 110,40 81,70" fill="rgb(255,255,255)" fill-opacity="1.0" stroke="rgb(0,0,0)" stroke-width="2"  />
			<g>
				<title>Methyltransf_25 (PF13649)
"Methyltransferase domain"</title>
				<polygon class="PF13649" points="90,28 93,28 99,33 99,47 93,52 90,52" stroke-linejoin="round" width="9" height="24" fill="rgb(224,103,106)" stroke="rgb(179,82,84)" stroke-width="1" opacity="0.75" />
			</g>
		</g>
		<g>
			<title>mic
monoterpene cyclase</title>
			<polygon class="mic
monoterpene cyclase" points="113,25 122,25 122,10 152,40 122,70 122,55 113,55" fill="rgb(255,255,255)" fill-opacity="1.0" stroke="rgb(0,0,0)" stroke-width="2"  />
			<g>
				<title>Terpene_syn_C_2 (PF19086)
"Terpene synthase family 2, C-terminal metal binding"</title>
				<polygon class="PF19086" points="126,28 136,28 146,38 146,42 136,52 126,52" stroke-linejoin="round" width="20" height="24" fill="rgb(201,180,53)" stroke="rgb(160,144,42)" stroke-width="1" opacity="0.75" />
			</g>
		</g>
		<g>
			<title>cnbB
cyclic nucleotide-binding protein</title>
			<polygon class="cnbB
cyclic nucleotide-binding protein" points="155,25 171,25 171,10 201,40 171,70 171,55 155,55" fill="rgb(255,255,255)" fill-opacity="1.0" stroke="rgb(0,0,0)" stroke-width="2"  />
			<g>
				<title>cNMP_binding (PF00027)
"Cyclic nucleotide-binding domain"</title>
				<rect class="PF00027" x="166" y="28" stroke-linejoin="round" width="8" height="24" fill="rgb(127,55,197)" stroke="rgb(101,44,157)" stroke-width="1" opacity="0.75" />
			</g>
			<g>
				<title>SrpI-like (PF19307)
"Type 2A encapsulin shell protein SrpI-like"</title>
				<polygon class="PF19307" points="176,28 185,28 197,40 185,52 176,52" stroke-linejoin="round" width="25" height="24" fill="rgb(108,76,192)" stroke="rgb(86,60,153)" stroke-width="1" opacity="0.75" />
			</g>
		</g>
	</g>
</svg>
