<svg version="1.1" baseProfile="full" xmlns="http://www.w3.org/2000/svg" width="820.3" height="80">
	<g>
		<line x1="10" y1="40.0" x2="810.3" y2="40.0" style="stroke:rgb(70,70,70); stroke-width:3 "/>
		<g>
			<title>
putative integrase</title>
			<polygon class="
putative integrase" points="13,10 31,40 13,70" fill="rgb(255,255,255)" fill-opacity="1.0" stroke="rgb(0,0,0)" stroke-width="2"  />
			<g>
				<title>Phage_integrase (PF00589)
"Phage integrase family"</title>
				<polygon class="PF00589" points="13,28 20,28 28,40 20,52 13,52" stroke-linejoin="round" width="16" height="24" fill="rgb(66,206,122)" stroke="rgb(52,164,97)" stroke-width="1" opacity="0.75" />
			</g>
		</g>
		<g>
			<title>
Hypothetical protein</title>
			<polygon class="
Hypothetical protein" points="33,40 62,10 62,70" fill="rgb(255,255,255)" fill-opacity="1.0" stroke="rgb(0,0,0)" stroke-width="2"  />
		</g>
		<g>
			<title>
putative integrase</title>
			<polygon class="
putative integrase" points="75,25 86,25 86,10 116,40 86,70 86,55 75,55" fill="rgb(255,255,255)" fill-opacity="1.0" stroke="rgb(0,0,0)" stroke-width="2"  />
			<g>
				<title>HTH_28 (PF13518)
"Helix-turn-helix domain"</title>
				<rect class="PF13518" x="76" y="28" stroke-linejoin="round" width="5" height="24" fill="rgb(193,76,169)" stroke="rgb(154,60,135)" stroke-width="1" opacity="0.75" />
			</g>
			<g>
				<title>rve (PF00665)
"Integrase core domain"</title>
				<rect class="PF00665" x="87" y="28" stroke-linejoin="round" width="11" height="24" fill="rgb(213,60,83)" stroke="rgb(170,48,66)" stroke-width="1" opacity="0.75" />
			</g>
		</g>
		<g>
			<title>
putative ATPase</title>
			<polygon class="
putative ATPase" points="118,10 143,40 118,70" fill="rgb(255,255,255)" fill-opacity="1.0" stroke="rgb(0,0,0)" stroke-width="2"  />
			<g>
				<title>IstB_IS21 (PF01695)
"IstB-like ATP binding protein"</title>
				<polygon class="PF01695" points="119,28 129,28 139,40 129,52 119,52" stroke-linejoin="round" width="23" height="24" fill="rgb(174,183,87)" stroke="rgb(139,146,69)" stroke-width="1" opacity="0.75" />
			</g>
		</g>
		<g>
			<title>
putative transposase</title>
			<polygon class="
putative transposase" points="148,10 167,40 148,70" fill="rgb(255,255,255)" fill-opacity="1.0" stroke="rgb(0,0,0)" stroke-width="2"  />
			<g>
				<title>rve (PF00665)
"Integrase core domain"</title>
				<polygon class="PF00665" points="151,28 156,28 160,34 160,46 156,52 151,52" stroke-linejoin="round" width="9" height="24" fill="rgb(213,60,83)" stroke="rgb(170,48,66)" stroke-width="1" opacity="0.75" />
			</g>
			<g>
				<title>rve_2 (PF13333)
"Integrase core domain"</title>
				<polygon class="PF13333" points="161,36 163,40 161,44" stroke-linejoin="round" width="5" height="24" fill="rgb(107,225,182)" stroke="rgb(85,180,145)" stroke-width="1" opacity="0.75" />
			</g>
		</g>
		<g>
			<title>
Hypothetical protein</title>
			<polygon class="
Hypothetical protein" points="178,10 190,40 178,70" fill="rgb(255,255,255)" fill-opacity="1.0" stroke="rgb(0,0,0)" stroke-width="2"  />
		</g>
		<g>
			<title>
Hypothetical protein</title>
			<polygon class="
Hypothetical protein" points="258,10 264,40 258,70" fill="rgb(255,255,255)" fill-opacity="1.0" stroke="rgb(0,0,0)" stroke-width="2"  />
		</g>
		<g>
			<title>
Hypothetical protein</title>
			<polygon class="
Hypothetical protein" points="264,10 284,40 264,70" fill="rgb(255,255,255)" fill-opacity="1.0" stroke="rgb(0,0,0)" stroke-width="2"  />
		</g>
		<g>
			<title>
putative plasmid replication-associated protein</title>
			<polygon class="
putative plasmid replication-associated protein" points="376,25 356,25 356,10 326,40 356,70 356,55 376,55" fill="rgb(255,255,255)" fill-opacity="1.0" stroke="rgb(0,0,0)" stroke-width="2"  />
			<g>
				<title>PriCT_1 (PF08708)
"Primase C terminal 1 (PriCT-1)"</title>
				<rect class="PF08708" x="343" y="28" stroke-linejoin="round" width="6" height="24" fill="rgb(154,49,188)" stroke="rgb(123,39,150)" stroke-width="1" opacity="0.75" />
			</g>
		</g>
		<g>
			<title>
putative plasmid replication-associated protein</title>
			<polygon class="
putative plasmid replication-associated protein" points="392,10 418,40 392,70" fill="rgb(255,255,255)" fill-opacity="1.0" stroke="rgb(0,0,0)" stroke-width="2"  />
			<g>
				<title>AAA_31 (PF13614)
"AAA domain"</title>
				<polygon class="PF13614" points="392,28 404,28 410,35 410,45 404,52 392,52" stroke-linejoin="round" width="18" height="24" fill="rgb(103,181,56)" stroke="rgb(82,144,44)" stroke-width="1" opacity="0.75" />
			</g>
		</g>
		<g>
			<title>
putative plasmid replication-associated protein</title>
			<polygon class="
putative plasmid replication-associated protein" points="418,10 424,40 418,70" fill="rgb(255,255,255)" fill-opacity="1.0" stroke="rgb(0,0,0)" stroke-width="2"  />
		</g>
		<g>
			<title>
putative transposase</title>
			<polygon class="
putative transposase" points="429,10 436,40 429,70" fill="rgb(255,255,255)" fill-opacity="1.0" stroke="rgb(0,0,0)" stroke-width="2"  />
		</g>
		<g>
			<title>tclE
TclE</title>
			<polygon class="tclE
TclE" points="449,10 454,40 449,70" fill="rgb(255,255,255)" fill-opacity="1.0" stroke="rgb(0,0,0)" stroke-width="2"  />
		</g>
		<g>
			<title>tclS
TclS</title>
			<polygon class="tclS
TclS" points="456,40 478,10 478,70" fill="rgb(255,255,255)" fill-opacity="1.0" stroke="rgb(0,0,0)" stroke-width="2"  />
			<g>
				<title>adh_short (PF00106)
"short chain dehydrogenase"</title>
				<polygon class="PF00106" points="460,40 469,28 478,28 478,52 469,52" stroke-linejoin="round" width="19" height="24" fill="rgb(128,81,196)" stroke="rgb(102,64,156)" stroke-width="1" opacity="0.75" />
			</g>
		</g>
		<g>
			<title>
Hypothetical protein</title>
			<polygon class="
Hypothetical protein" points="478,40 494,10 494,70" fill="rgb(255,255,255)" fill-opacity="1.0" stroke="rgb(0,0,0)" stroke-width="2"  />
		</g>
		<g>
			<title>tclQ
TclQ</title>
			<polygon class="tclQ
TclQ" points="495,40 509,10 509,70" fill="rgb(255,255,255)" fill-opacity="1.0" stroke="rgb(0,0,0)" stroke-width="2"  />
			<g>
				<title>Ribosomal_L11 (PF00298)
"Ribosomal protein L11, RNA binding domain"</title>
				<polygon class="PF00298" points="498,40 501,34 501,46" stroke-linejoin="round" width="6" height="24" fill="rgb(89,180,123)" stroke="rgb(71,144,98)" stroke-width="1" opacity="0.75" />
			</g>
			<g>
				<title>Ribosomal_L11_N (PF03946)
"Ribosomal protein L11, N-terminal domain"</title>
				<polygon class="PF03946" points="502,31 504,28 507,28 507,52 504,52 502,49" stroke-linejoin="round" width="5" height="24" fill="rgb(57,191,98)" stroke="rgb(45,152,78)" stroke-width="1" opacity="0.75" />
			</g>
		</g>
		<g>
			<title>tclI
TcI</title>
			<polygon class="tclI
TcI" points="513,10 537,40 513,70" fill="rgb(255,255,255)" fill-opacity="1.0" stroke="rgb(0,0,0)" stroke-width="2"  />
		</g>
		<g>
			<title>tclJ
TclJ</title>
			<polygon class="tclJ
TclJ" points="537,25 563,25 563,10 593,40 563,70 563,55 537,55" fill="rgb(255,255,255)" fill-opacity="1.0" stroke="rgb(0,0,0)" stroke-width="2"  />
			<g>
				<title>YcaO (PF02624)
"YcaO cyclodehydratase, ATP-ad Mg2+-binding"</title>
				<polygon class="PF02624" points="555,28 577,28 589,40 589,40 577,52 555,52" stroke-linejoin="round" width="34" height="24" fill="rgb(69,185,74)" stroke="rgb(55,148,59)" stroke-width="1" opacity="0.75" />
			</g>
		</g>
		<g>
			<title>tclK
TclK</title>
			<polygon class="tclK
TclK" points="594,25 648,25 648,10 678,40 648,70 648,55 594,55" fill="rgb(255,255,255)" fill-opacity="1.0" stroke="rgb(0,0,0)" stroke-width="2"  />
		</g>
		<g>
			<title>tclL
TclL</title>
			<polygon class="tclL
TclL" points="678,10 704,40 678,70" fill="rgb(255,255,255)" fill-opacity="1.0" stroke="rgb(0,0,0)" stroke-width="2"  />
			<g>
				<title>Lant_dehydr_C (PF14028)
"Lantibiotic biosynthesis dehydratase C-term"</title>
				<polygon class="PF14028" points="678,28 689,28 700,40 689,52 678,52" stroke-linejoin="round" width="25" height="24" fill="rgb(195,82,58)" stroke="rgb(156,65,46)" stroke-width="1" opacity="0.75" />
			</g>
		</g>
		<g>
			<title>tclM
TclM</title>
			<polygon class="tclM
TclM" points="704,10 730,40 704,70" fill="rgb(255,255,255)" fill-opacity="1.0" stroke="rgb(0,0,0)" stroke-width="2"  />
		</g>
		<g>
			<title>tclN
TclN</title>
			<polygon class="tclN
TclN" points="731,25 745,25 745,10 775,40 745,70 745,55 731,55" fill="rgb(255,255,255)" fill-opacity="1.0" stroke="rgb(0,0,0)" stroke-width="2"  />
		</g>
		<g>
			<title>tclP
TclP</title>
			<polygon class="tclP
TclP" points="775,10 798,40 775,70" fill="rgb(255,255,255)" fill-opacity="1.0" stroke="rgb(0,0,0)" stroke-width="2"  />
			<g>
				<title>adh_short_C2 (PF13561)
"Enoyl-(Acyl carrier protein) reductase"</title>
				<polygon class="PF13561" points="777,28 785,28 794,40 785,52 777,52" stroke-linejoin="round" width="20" height="24" fill="rgb(79,221,209)" stroke="rgb(63,176,167)" stroke-width="1" opacity="0.75" />
			</g>
		</g>
		<g>
			<title>tclU
TclU</title>
			<polygon class="tclU
TclU" points="798,10 809,40 798,70" fill="rgb(255,255,255)" fill-opacity="1.0" stroke="rgb(0,0,0)" stroke-width="2"  />
			<g>
				<title>MerR_1 (PF13411)
"MerR HTH family regulatory protein"</title>
				<polygon class="PF13411" points="798,28 801,28 804,35 804,45 801,52 798,52" stroke-linejoin="round" width="6" height="24" fill="rgb(186,92,57)" stroke="rgb(148,73,45)" stroke-width="1" opacity="0.75" />
			</g>
		</g>
	</g>
</svg>
