<svg version="1.1" baseProfile="full" xmlns="http://www.w3.org/2000/svg" width="578.4" height="640">
	<g>
		<line x1="10" y1="40.0" x2="568.4" y2="40.0" style="stroke:rgb(70,70,70); stroke-width:3 "/>
		<g>
			<title>HTS1
HC-toxin synthetase</title>
			<polygon class="HTS1
HC-toxin synthetase" points="41,25 532,25 532,10 562,40 532,70 532,55 41,55" fill="rgb(255,255,255)" fill-opacity="1.0" stroke="rgb(0,0,0)" stroke-width="2"  />
			<g>
				<title>AMP-binding (PF00501)
"AMP-binding enzyme"</title>
				<rect class="PF00501" x="63" y="28" stroke-linejoin="round" width="34" height="24" fill="rgb(189,78,204)" stroke="rgb(151,62,163)" stroke-width="1" opacity="0.75" />
			</g>
			<g>
				<title>PP-binding (PF00550)
"Phosphopantetheine attachment site"</title>
				<rect class="PF00550" x="118" y="28" stroke-linejoin="round" width="6" height="24" fill="rgb(181,58,166)" stroke="rgb(144,46,132)" stroke-width="1" opacity="0.75" />
			</g>
			<g>
				<title>Condensation (PF00668)
"Condensation domain"</title>
				<rect class="PF00668" x="126" y="28" stroke-linejoin="round" width="18" height="24" fill="rgb(172,217,60)" stroke="rgb(137,173,47)" stroke-width="1" opacity="0.75" />
			</g>
			<g>
				<title>Condensation (PF00668)
"Condensation domain"</title>
				<rect class="PF00668" x="174" y="28" stroke-linejoin="round" width="47" height="24" fill="rgb(172,217,60)" stroke="rgb(137,173,47)" stroke-width="1" opacity="0.75" />
			</g>
			<g>
				<title>AMP-binding (PF00501)
"AMP-binding enzyme"</title>
				<rect class="PF00501" x="223" y="28" stroke-linejoin="round" width="35" height="24" fill="rgb(189,78,204)" stroke="rgb(151,62,163)" stroke-width="1" opacity="0.75" />
			</g>
			<g>
				<title>PP-binding (PF00550)
"Phosphopantetheine attachment site"</title>
				<rect class="PF00550" x="279" y="28" stroke-linejoin="round" width="6" height="24" fill="rgb(181,58,166)" stroke="rgb(144,46,132)" stroke-width="1" opacity="0.75" />
			</g>
			<g>
				<title>Condensation (PF00668)
"Condensation domain"</title>
				<rect class="PF00668" x="294" y="28" stroke-linejoin="round" width="42" height="24" fill="rgb(172,217,60)" stroke="rgb(137,173,47)" stroke-width="1" opacity="0.75" />
			</g>
			<g>
				<title>AMP-binding (PF00501)
"AMP-binding enzyme"</title>
				<rect class="PF00501" x="338" y="28" stroke-linejoin="round" width="35" height="24" fill="rgb(189,78,204)" stroke="rgb(151,62,163)" stroke-width="1" opacity="0.75" />
			</g>
			<g>
				<title>PP-binding (PF00550)
"Phosphopantetheine attachment site"</title>
				<rect class="PF00550" x="394" y="28" stroke-linejoin="round" width="6" height="24" fill="rgb(181,58,166)" stroke="rgb(144,46,132)" stroke-width="1" opacity="0.75" />
			</g>
			<g>
				<title>Condensation (PF00668)
"Condensation domain"</title>
				<rect class="PF00668" x="405" y="28" stroke-linejoin="round" width="45" height="24" fill="rgb(172,217,60)" stroke="rgb(137,173,47)" stroke-width="1" opacity="0.75" />
			</g>
			<g>
				<title>AMP-binding (PF00501)
"AMP-binding enzyme"</title>
				<rect class="PF00501" x="454" y="28" stroke-linejoin="round" width="34" height="24" fill="rgb(189,78,204)" stroke="rgb(151,62,163)" stroke-width="1" opacity="0.75" />
			</g>
			<g>
				<title>PP-binding (PF00550)
"Phosphopantetheine attachment site"</title>
				<rect class="PF00550" x="508" y="28" stroke-linejoin="round" width="6" height="24" fill="rgb(181,58,166)" stroke="rgb(144,46,132)" stroke-width="1" opacity="0.75" />
			</g>
			<g>
				<title>Condensation (PF00668)
"Condensation domain"</title>
				<polygon class="PF00668" points="519,28 546,28 551,33 551,47 546,52 519,52" stroke-linejoin="round" width="32" height="24" fill="rgb(172,217,60)" stroke="rgb(137,173,47)" stroke-width="1" opacity="0.75" />
			</g>
		</g>
	</g>
	<g>
		<line x1="10" y1="120.0" x2="110.43333333333334" y2="120.0" style="stroke:rgb(70,70,70); stroke-width:3 "/>
		<g>
			<title>toxa
toxin pump</title>
			<polygon class="toxa
toxin pump" points="35,105 67,105 67,90 97,120 67,150 67,135 35,135" fill="rgb(255,255,255)" fill-opacity="1.0" stroke="rgb(0,0,0)" stroke-width="2"  />
		</g>
	</g>
	<g>
		<line x1="10" y1="200.0" x2="244.73333333333332" y2="200.0" style="stroke:rgb(70,70,70); stroke-width:3 "/>
		<g>
			<title>
putative fatty acid synthase beta</title>
			<polygon class="
putative fatty acid synthase beta" points="15,185 194,185 194,170 224,200 194,230 194,215 15,215" fill="rgb(255,255,255)" fill-opacity="1.0" stroke="rgb(0,0,0)" stroke-width="2"  />
		</g>
	</g>
	<g>
		<line x1="10" y1="280.0" x2="60.2" y2="280.0" style="stroke:rgb(70,70,70); stroke-width:3 "/>
		<g>
			<title>toxD</title>
			<polygon class="toxD" points="19,250 48,280 19,310" fill="rgb(255,255,255)" fill-opacity="1.0" stroke="rgb(0,0,0)" stroke-width="2"  />
		</g>
	</g>
	<g>
		<line x1="10" y1="360.0" x2="70.16666666666666" y2="360.0" style="stroke:rgb(70,70,70); stroke-width:3 "/>
		<g>
			<title>TOXE
TOXE protein</title>
			<polygon class="TOXE
TOXE protein" points="15,345 32,345 32,330 62,360 32,390 32,375 15,375" fill="rgb(255,255,255)" fill-opacity="1.0" stroke="rgb(0,0,0)" stroke-width="2"  />
		</g>
	</g>
	<g>
		<line x1="10" y1="440.0" x2="73.56666666666666" y2="440.0" style="stroke:rgb(70,70,70); stroke-width:3 "/>
		<g>
			<title>TOXF
putative branched-chain amino acid aminotransferase</title>
			<polygon class="TOXF
putative branched-chain amino acid aminotransferase" points="15,425 33,425 33,410 63,440 33,470 33,455 15,455" fill="rgb(255,255,255)" fill-opacity="1.0" stroke="rgb(0,0,0)" stroke-width="2"  />
		</g>
	</g>
	<g>
		<line x1="10" y1="520.0" x2="66.1" y2="520.0" style="stroke:rgb(70,70,70); stroke-width:3 "/>
		<g>
			<title>TOXG
alanine racemase</title>
			<polygon class="TOXG
alanine racemase" points="20,505 30,505 30,490 60,520 30,550 30,535 20,535" fill="rgb(255,255,255)" fill-opacity="1.0" stroke="rgb(0,0,0)" stroke-width="2"  />
		</g>
	</g>
	<g>
		<line x1="10" y1="600.0" x2="248.0" y2="600.0" style="stroke:rgb(70,70,70); stroke-width:3 "/>
		<g>
			<title>TOXH
fatty acid synthase alpha subunit</title>
			<polygon class="TOXH
fatty acid synthase alpha subunit" points="47,585 182,585 182,570 212,600 182,630 182,615 47,615" fill="rgb(255,255,255)" fill-opacity="1.0" stroke="rgb(0,0,0)" stroke-width="2"  />
		</g>
	</g>
</svg>
