<svg version="1.1" baseProfile="full" xmlns="http://www.w3.org/2000/svg" width="519.8333333333333" height="80">
	<g>
		<line x1="10" y1="40.0" x2="509.8333333333333" y2="40.0" style="stroke:rgb(70,70,70); stroke-width:3 "/>
		<g>
			<title>
DNA methylase</title>
			<polygon class="
DNA methylase" points="10,25 70,25 70,10 100,40 70,70 70,55 10,55" fill="rgb(255,255,255)" fill-opacity="1.0" stroke="rgb(0,0,0)" stroke-width="2"  />
			<g>
				<title>ResIII (PF04851)
"Type III restriction enzyme, res subunit"</title>
				<rect class="PF04851" x="18" y="28" stroke-linejoin="round" width="23" height="24" fill="rgb(222,111,66)" stroke="rgb(177,88,52)" stroke-width="1" opacity="0.75" />
			</g>
			<g>
				<title>Helicase_C (PF00271)
"Helicase conserved C-terminal domain"</title>
				<rect class="PF00271" x="59" y="28" stroke-linejoin="round" width="10" height="24" fill="rgb(153,198,73)" stroke="rgb(122,158,58)" stroke-width="1" opacity="0.75" />
			</g>
		</g>
		<g>
			<title>
hypothetical protein</title>
			<polygon class="
hypothetical protein" points="103,10 113,40 103,70" fill="rgb(255,255,255)" fill-opacity="1.0" stroke="rgb(0,0,0)" stroke-width="2"  />
			<g>
				<title>DUF5962 (PF19387)
"Family of unknown function (DUF5962)"</title>
				<polygon class="PF19387" points="103,28 105,28 109,40 105,52 103,52" stroke-linejoin="round" width="9" height="24" fill="rgb(214,101,60)" stroke="rgb(171,80,47)" stroke-width="1" opacity="0.75" />
			</g>
		</g>
		<g>
			<title>
hypothetical protein</title>
			<polygon class="
hypothetical protein" points="113,10 122,40 113,70" fill="rgb(255,255,255)" fill-opacity="1.0" stroke="rgb(0,0,0)" stroke-width="2"  />
			<g>
				<title>DUF5966 (PF19391)
"Family of unknown function (DUF5966)"</title>
				<polygon class="PF19391" points="113,28 115,28 119,40 115,52 113,52" stroke-linejoin="round" width="9" height="24" fill="rgb(86,187,76)" stroke="rgb(68,149,60)" stroke-width="1" opacity="0.75" />
			</g>
		</g>
		<g>
			<title>bovA
BovA</title>
			<polygon class="bovA
BovA" points="128,10 133,40 128,70" fill="rgb(255,255,255)" fill-opacity="1.0" stroke="rgb(0,0,0)" stroke-width="2"  />
			<g>
				<title>L_biotic_typeA (PF04604)
"Type-A lantibiotic"</title>
				<polygon class="PF04604" points="128,28 128,28 130,40 128,52 128,52" stroke-linejoin="round" width="5" height="24" fill="rgb(103,168,227)" stroke="rgb(82,134,181)" stroke-width="1" opacity="0.75" />
			</g>
		</g>
		<g>
			<title>bovM
BovM</title>
			<polygon class="bovM
BovM" points="136,25 189,25 189,10 219,40 189,70 189,55 136,55" fill="rgb(255,255,255)" fill-opacity="1.0" stroke="rgb(0,0,0)" stroke-width="2"  />
			<g>
				<title>DUF4135 (PF13575)
"Domain of unknown function (DUF4135)"</title>
				<rect class="PF13575" x="146" y="28" stroke-linejoin="round" width="36" height="24" fill="rgb(170,90,215)" stroke="rgb(135,72,172)" stroke-width="1" opacity="0.75" />
			</g>
			<g>
				<title>LANC_like (PF05147)
"Lanthionine synthetase C-like protein"</title>
				<polygon class="PF05147" points="189,28 203,28 215,40 203,52 189,52" stroke-linejoin="round" width="29" height="24" fill="rgb(91,189,96)" stroke="rgb(72,151,76)" stroke-width="1" opacity="0.75" />
			</g>
		</g>
		<g>
			<title>bovT
BovT</title>
			<polygon class="bovT
BovT" points="220,25 258,25 258,10 288,40 258,70 258,55 220,55" fill="rgb(255,255,255)" fill-opacity="1.0" stroke="rgb(0,0,0)" stroke-width="2"  />
			<g>
				<title>Peptidase_C39 (PF03412)
"Peptidase C39 family"</title>
				<rect class="PF03412" x="220" y="28" stroke-linejoin="round" width="12" height="24" fill="rgb(93,118,202)" stroke="rgb(74,94,161)" stroke-width="1" opacity="0.75" />
			</g>
			<g>
				<title>ABC_membrane (PF00664)
"ABC transporter transmembrane region"</title>
				<rect class="PF00664" x="236" y="28" stroke-linejoin="round" width="26" height="24" fill="rgb(62,71,183)" stroke="rgb(49,56,146)" stroke-width="1" opacity="0.75" />
			</g>
			<g>
				<title>ABC_tran (PF00005)
"ABC transporter"</title>
				<polygon class="PF00005" points="268,28 271,28 282,39 282,41 271,52 268,52" stroke-linejoin="round" width="14" height="24" fill="rgb(46,186,108)" stroke="rgb(36,148,86)" stroke-width="1" opacity="0.75" />
			</g>
		</g>
		<g>
			<title>bovF
BovF</title>
			<polygon class="bovF
BovF" points="288,25 288,25 288,10 318,40 288,70 288,55 288,55" fill="rgb(255,255,255)" fill-opacity="1.0" stroke="rgb(0,0,0)" stroke-width="2"  />
			<g>
				<title>ABC_tran (PF00005)
"ABC transporter"</title>
				<rect class="PF00005" x="289" y="28" stroke-linejoin="round" width="13" height="24" fill="rgb(46,186,108)" stroke="rgb(36,148,86)" stroke-width="1" opacity="0.75" />
			</g>
		</g>
		<g>
			<title>bovE
BovE</title>
			<polygon class="bovE
BovE" points="317,10 341,40 317,70" fill="rgb(255,255,255)" fill-opacity="1.0" stroke="rgb(0,0,0)" stroke-width="2"  />
			<g>
				<title>ABC2_membrane_4 (PF12730)
"ABC-2 family transporter protein"</title>
				<polygon class="PF12730" points="317,28 327,28 335,38 335,42 327,52 317,52" stroke-linejoin="round" width="18" height="24" fill="rgb(161,62,179)" stroke="rgb(128,49,143)" stroke-width="1" opacity="0.75" />
			</g>
		</g>
		<g>
			<title>bovG
BovG</title>
			<polygon class="bovG
BovG" points="342,10 365,40 342,70" fill="rgb(255,255,255)" fill-opacity="1.0" stroke="rgb(0,0,0)" stroke-width="2"  />
		</g>
		<g>
			<title>bovK
BovK</title>
			<polygon class="bovK
BovK" points="365,25 385,25 385,10 415,40 385,70 385,55 365,55" fill="rgb(255,255,255)" fill-opacity="1.0" stroke="rgb(0,0,0)" stroke-width="2"  />
		</g>
		<g>
			<title>bovR
BovR</title>
			<polygon class="bovR
BovR" points="415,10 434,40 415,70" fill="rgb(255,255,255)" fill-opacity="1.0" stroke="rgb(0,0,0)" stroke-width="2"  />
			<g>
				<title>Response_reg (PF00072)
"Response regulator receiver domain"</title>
				<polygon class="PF00072" points="415,28 423,28 426,33 426,47 423,52 415,52" stroke-linejoin="round" width="11" height="24" fill="rgb(59,131,198)" stroke="rgb(47,104,158)" stroke-width="1" opacity="0.75" />
			</g>
			<g>
				<title>GerE (PF00196)
"Bacterial regulatory proteins, luxR family"</title>
				<polygon class="PF00196" points="428,36 431,40 428,44" stroke-linejoin="round" width="5" height="24" fill="rgb(225,67,110)" stroke="rgb(180,53,88)" stroke-width="1" opacity="0.75" />
			</g>
		</g>
		<g>
			<title>bovI
BovI</title>
			<polygon class="bovI
BovI" points="437,10 442,40 437,70" fill="rgb(255,255,255)" fill-opacity="1.0" stroke="rgb(0,0,0)" stroke-width="2"  />
		</g>
		<g>
			<title>sdb1
Sdb1</title>
			<polygon class="sdb1
Sdb1" points="443,10 459,40 443,70" fill="rgb(255,255,255)" fill-opacity="1.0" stroke="rgb(0,0,0)" stroke-width="2"  />
		</g>
		<g>
			<title>
hypothetical protein</title>
			<polygon class="
hypothetical protein" points="466,10 487,40 466,70" fill="rgb(255,255,255)" fill-opacity="1.0" stroke="rgb(0,0,0)" stroke-width="2"  />
		</g>
		<g>
			<title>
hypothetical protein</title>
			<polygon class="
hypothetical protein" points="489,10 509,40 489,70" fill="rgb(255,255,255)" fill-opacity="1.0" stroke="rgb(0,0,0)" stroke-width="2"  />
			<g>
				<title>DUF3991 (PF13154)
"Protein of unknown function (DUF3991)"</title>
				<polygon class="PF13154" points="500,32 505,40 500,48" stroke-linejoin="round" width="8" height="24" fill="rgb(81,221,155)" stroke="rgb(64,176,124)" stroke-width="1" opacity="0.75" />
			</g>
		</g>
	</g>
</svg>
