<svg version="1.1" baseProfile="full" xmlns="http://www.w3.org/2000/svg" width="1010.3" height="80">
	<g>
		<line x1="10" y1="40.0" x2="1000.3" y2="40.0" style="stroke:rgb(70,70,70); stroke-width:3 "/>
		<g>
			<title>lpmA
HMG-CoA synthase</title>
			<polygon class="lpmA
HMG-CoA synthase" points="49,25 40,25 40,10 10,40 40,70 40,55 49,55" fill="rgb(255,255,255)" fill-opacity="1.0" stroke="rgb(0,0,0)" stroke-width="2"  />
			<g>
				<title>HMG_CoA_synt_C (PF08540)
"Hydroxymethylglutaryl-coenzyme A synthase C terminal"</title>
				<polygon class="PF08540" points="15,39 23,31 23,49 15,41" stroke-linejoin="round" width="8" height="24" fill="rgb(72,187,147)" stroke="rgb(57,149,117)" stroke-width="1" opacity="0.75" />
			</g>
			<g>
				<title>HMG_CoA_synt_N (PF01154)
"Hydroxymethylglutaryl-coenzyme A synthase N terminal"</title>
				<rect class="PF01154" x="32" y="28" stroke-linejoin="round" width="16" height="24" fill="rgb(192,53,137)" stroke="rgb(153,42,109)" stroke-width="1" opacity="0.75" />
			</g>
		</g>
		<g>
			<title>lpmB
sulfotransferase</title>
			<polygon class="lpmB
sulfotransferase" points="91,25 80,25 80,10 50,40 80,70 80,55 91,55" fill="rgb(255,255,255)" fill-opacity="1.0" stroke="rgb(0,0,0)" stroke-width="2"  />
			<g>
				<title>Arylsulfotran_2 (PF14269)
"Arylsulfotransferase (ASST)"</title>
				<polygon class="PF14269" points="54,40 66,28 79,28 79,52 66,52" stroke-linejoin="round" width="28" height="24" fill="rgb(139,201,88)" stroke="rgb(111,160,70)" stroke-width="1" opacity="0.75" />
			</g>
		</g>
		<g>
			<title>lpmC
hypothetical protein</title>
			<polygon class="lpmC
hypothetical protein" points="94,40 118,10 118,70" fill="rgb(255,255,255)" fill-opacity="1.0" stroke="rgb(0,0,0)" stroke-width="2"  />
		</g>
		<g>
			<title>lpmD
type III PKS</title>
			<polygon class="lpmD
type III PKS" points="133,25 138,25 138,10 168,40 138,70 138,55 133,55" fill="rgb(255,255,255)" fill-opacity="1.0" stroke="rgb(0,0,0)" stroke-width="2"  />
			<g>
				<title>Chal_sti_synt_N (PF00195)
"Chalcone and stilbene synthases, N-terminal domain"</title>
				<polygon class="PF00195" points="138,28 151,28 152,29 152,51 151,52 138,52" stroke-linejoin="round" width="14" height="24" fill="rgb(102,206,179)" stroke="rgb(81,164,143)" stroke-width="1" opacity="0.75" />
			</g>
			<g>
				<title>Chal_sti_synt_C (PF02797)
"Chalcone and stilbene synthases, C-terminal domain"</title>
				<polygon class="PF02797" points="153,30 163,40 153,50" stroke-linejoin="round" width="13" height="24" fill="rgb(210,123,55)" stroke="rgb(168,98,44)" stroke-width="1" opacity="0.75" />
			</g>
		</g>
		<g>
			<title>lpmE
PAPS 3'-phosphatase</title>
			<polygon class="lpmE
PAPS 3'-phosphatase" points="168,10 194,40 168,70" fill="rgb(255,255,255)" fill-opacity="1.0" stroke="rgb(0,0,0)" stroke-width="2"  />
			<g>
				<title>Inositol_P (PF00459)
"Inositol monophosphatase family"</title>
				<polygon class="PF00459" points="168,28 180,28 190,40 180,52 168,52" stroke-linejoin="round" width="24" height="24" fill="rgb(213,222,107)" stroke="rgb(170,177,85)" stroke-width="1" opacity="0.75" />
			</g>
		</g>
		<g>
			<title>lpmF
hypothetical protein</title>
			<polygon class="lpmF
hypothetical protein" points="194,10 215,40 194,70" fill="rgb(255,255,255)" fill-opacity="1.0" stroke="rgb(0,0,0)" stroke-width="2"  />
			<g>
				<title>Sulfotransfer_4 (PF17784)
"Sulfotransferase domain"</title>
				<polygon class="PF17784" points="194,28 203,28 211,40 203,52 194,52" stroke-linejoin="round" width="19" height="24" fill="rgb(132,102,209)" stroke="rgb(105,81,167)" stroke-width="1" opacity="0.75" />
			</g>
		</g>
		<g>
			<title>lpmG
transcriptional regulator</title>
			<polygon class="lpmG
transcriptional regulator" points="224,25 227,25 227,10 257,40 227,70 227,55 224,55" fill="rgb(255,255,255)" fill-opacity="1.0" stroke="rgb(0,0,0)" stroke-width="2"  />
			<g>
				<title>HTH_18 (PF12833)
"Helix-turn-helix domain"</title>
				<polygon class="PF12833" points="248,35 253,40 248,45" stroke-linejoin="round" width="8" height="24" fill="rgb(96,195,114)" stroke="rgb(76,156,91)" stroke-width="1" opacity="0.75" />
			</g>
		</g>
		<g>
			<title>lpmH
beta-hydroxylase</title>
			<polygon class="lpmH
beta-hydroxylase" points="262,10 279,40 262,70" fill="rgb(255,255,255)" fill-opacity="1.0" stroke="rgb(0,0,0)" stroke-width="2"  />
			<g>
				<title>Asp_Arg_Hydrox (PF05118)
"Aspartyl/Asparaginyl beta-hydroxylase"</title>
				<polygon class="PF05118" points="264,28 268,28 275,40 268,52 264,52" stroke-linejoin="round" width="14" height="24" fill="rgb(65,114,183)" stroke="rgb(51,91,146)" stroke-width="1" opacity="0.75" />
			</g>
		</g>
		<g>
			<title>lpmI
methyltransferase</title>
			<polygon class="lpmI
methyltransferase" points="280,10 301,40 280,70" fill="rgb(255,255,255)" fill-opacity="1.0" stroke="rgb(0,0,0)" stroke-width="2"  />
			<g>
				<title>Methyltransf_25 (PF13649)
"Methyltransferase domain"</title>
				<polygon class="PF13649" points="284,28 289,28 293,34 293,46 289,52 284,52" stroke-linejoin="round" width="9" height="24" fill="rgb(224,103,106)" stroke="rgb(179,82,84)" stroke-width="1" opacity="0.75" />
			</g>
		</g>
		<g>
			<title>lpmJ
kinase</title>
			<polygon class="lpmJ
kinase" points="301,10 319,40 301,70" fill="rgb(255,255,255)" fill-opacity="1.0" stroke="rgb(0,0,0)" stroke-width="2"  />
		</g>
		<g>
			<title>lpmK
aminotransferase</title>
			<polygon class="lpmK
aminotransferase" points="320,25 334,25 334,10 364,40 334,70 334,55 320,55" fill="rgb(255,255,255)" fill-opacity="1.0" stroke="rgb(0,0,0)" stroke-width="2"  />
		</g>
		<g>
			<title>lpmL
hydroxymethyltransferase</title>
			<polygon class="lpmL
hydroxymethyltransferase" points="364,25 376,25 376,10 406,40 376,70 376,55 364,55" fill="rgb(255,255,255)" fill-opacity="1.0" stroke="rgb(0,0,0)" stroke-width="2"  />
			<g>
				<title>SHMT (PF00464)
"Serine hydroxymethyltransferase"</title>
				<polygon class="PF00464" points="365,28 390,28 402,40 402,40 390,52 365,52" stroke-linejoin="round" width="37" height="24" fill="rgb(215,61,139)" stroke="rgb(172,48,111)" stroke-width="1" opacity="0.75" />
			</g>
		</g>
		<g>
			<title>lpmM
dioxygenase</title>
			<polygon class="lpmM
dioxygenase" points="410,10 437,40 410,70" fill="rgb(255,255,255)" fill-opacity="1.0" stroke="rgb(0,0,0)" stroke-width="2"  />
			<g>
				<title>TauD (PF02668)
"Taurine catabolism dioxygenase TauD, TfdA family"</title>
				<polygon class="PF02668" points="411,28 422,28 433,40 422,52 411,52" stroke-linejoin="round" width="25" height="24" fill="rgb(72,206,196)" stroke="rgb(57,164,156)" stroke-width="1" opacity="0.75" />
			</g>
		</g>
		<g>
			<title>lpmN
nucleotidyltransferase</title>
			<polygon class="lpmN
nucleotidyltransferase" points="437,10 460,40 437,70" fill="rgb(255,255,255)" fill-opacity="1.0" stroke="rgb(0,0,0)" stroke-width="2"  />
		</g>
		<g>
			<title>lpmO
glycosyltransferase</title>
			<polygon class="lpmO
glycosyltransferase" points="461,25 468,25 468,10 498,40 468,70 468,55 461,55" fill="rgb(255,255,255)" fill-opacity="1.0" stroke="rgb(0,0,0)" stroke-width="2"  />
		</g>
		<g>
			<title>lpmP
aminotransferase</title>
			<polygon class="lpmP
aminotransferase" points="498,25 510,25 510,10 540,40 510,70 510,55 498,55" fill="rgb(255,255,255)" fill-opacity="1.0" stroke="rgb(0,0,0)" stroke-width="2"  />
			<g>
				<title>Aminotran_3 (PF00202)
"Aminotransferase class-III"</title>
				<polygon class="PF00202" points="499,28 524,28 536,40 524,52 499,52" stroke-linejoin="round" width="40" height="24" fill="rgb(182,63,213)" stroke="rgb(145,50,170)" stroke-width="1" opacity="0.75" />
			</g>
		</g>
		<g>
			<title>lpmQ
pyrimidine phosphorylase</title>
			<polygon class="lpmQ
pyrimidine phosphorylase" points="541,25 556,25 556,10 586,40 556,70 556,55 541,55" fill="rgb(255,255,255)" fill-opacity="1.0" stroke="rgb(0,0,0)" stroke-width="2"  />
			<g>
				<title>Glycos_trans_3N (PF02885)
"Glycosyl transferase family, helical bundle domain"</title>
				<rect class="PF02885" x="542" y="28" stroke-linejoin="round" width="6" height="24" fill="rgb(185,60,158)" stroke="rgb(148,48,126)" stroke-width="1" opacity="0.75" />
			</g>
			<g>
				<title>Glycos_transf_3 (PF00591)
"Glycosyl transferase family, a/b domain"</title>
				<polygon class="PF00591" points="549,28 570,28 572,30 572,50 570,52 549,52" stroke-linejoin="round" width="23" height="24" fill="rgb(188,52,100)" stroke="rgb(150,41,80)" stroke-width="1" opacity="0.75" />
			</g>
			<g>
				<title>PYNP_C (PF07831)
"Pyrimidine nucleoside phosphorylase C-terminal domain"</title>
				<polygon class="PF07831" points="576,34 582,40 576,46" stroke-linejoin="round" width="7" height="24" fill="rgb(222,149,98)" stroke="rgb(177,119,78)" stroke-width="1" opacity="0.75" />
			</g>
		</g>
		<g>
			<title>lpmR
acyl-CoA synthase</title>
			<polygon class="lpmR
acyl-CoA synthase" points="587,25 592,25 592,10 622,40 592,70 592,55 587,55" fill="rgb(255,255,255)" fill-opacity="1.0" stroke="rgb(0,0,0)" stroke-width="2"  />
		</g>
		<g>
			<title>lpmS
carboxyesterase</title>
			<polygon class="lpmS
carboxyesterase" points="622,25 641,25 641,10 671,40 641,70 641,55 622,55" fill="rgb(255,255,255)" fill-opacity="1.0" stroke="rgb(0,0,0)" stroke-width="2"  />
			<g>
				<title>COesterase (PF00135)
"Carboxylesterase family"</title>
				<polygon class="PF00135" points="622,28 655,28 656,29 656,51 655,52 622,52" stroke-linejoin="round" width="34" height="24" fill="rgb(79,58,200)" stroke="rgb(63,46,160)" stroke-width="1" opacity="0.75" />
			</g>
		</g>
		<g>
			<title>lpmT
ABC transporter</title>
			<polygon class="lpmT
ABC transporter" points="672,25 765,25 765,10 795,40 765,70 765,55 672,55" fill="rgb(255,255,255)" fill-opacity="1.0" stroke="rgb(0,0,0)" stroke-width="2"  />
			<g>
				<title>ABC_membrane (PF00664)
"ABC transporter transmembrane region"</title>
				<rect class="PF00664" x="675" y="28" stroke-linejoin="round" width="26" height="24" fill="rgb(62,71,183)" stroke="rgb(49,56,146)" stroke-width="1" opacity="0.75" />
			</g>
			<g>
				<title>ABC_tran (PF00005)
"ABC transporter"</title>
				<rect class="PF00005" x="708" y="28" stroke-linejoin="round" width="14" height="24" fill="rgb(46,186,108)" stroke="rgb(36,148,86)" stroke-width="1" opacity="0.75" />
			</g>
			<g>
				<title>ABC_membrane (PF00664)
"ABC transporter transmembrane region"</title>
				<rect class="PF00664" x="738" y="28" stroke-linejoin="round" width="24" height="24" fill="rgb(62,71,183)" stroke="rgb(49,56,146)" stroke-width="1" opacity="0.75" />
			</g>
			<g>
				<title>ABC_tran (PF00005)
"ABC transporter"</title>
				<polygon class="PF00005" points="772,28 779,28 786,35 786,45 779,52 772,52" stroke-linejoin="round" width="14" height="24" fill="rgb(46,186,108)" stroke="rgb(36,148,86)" stroke-width="1" opacity="0.75" />
			</g>
		</g>
		<g>
			<title>lpmU
lipase</title>
			<polygon class="lpmU
lipase" points="795,25 799,25 799,10 829,40 799,70 799,55 795,55" fill="rgb(255,255,255)" fill-opacity="1.0" stroke="rgb(0,0,0)" stroke-width="2"  />
			<g>
				<title>SsfX3_N (PF21181)
"SsfX3, N-terminal domain"</title>
				<rect class="PF21181" x="796" y="28" stroke-linejoin="round" width="13" height="24" fill="rgb(108,187,78)" stroke="rgb(86,149,62)" stroke-width="1" opacity="0.75" />
			</g>
		</g>
		<g>
			<title>lpmV
hypothetical protein</title>
			<polygon class="lpmV
hypothetical protein" points="839,25 869,25 869,10 899,40 869,70 869,55 839,55" fill="rgb(255,255,255)" fill-opacity="1.0" stroke="rgb(0,0,0)" stroke-width="2"  />
		</g>
		<g>
			<title>lpmW
dehydrogenase</title>
			<polygon class="lpmW
dehydrogenase" points="902,25 906,25 906,10 936,40 906,70 906,55 902,55" fill="rgb(255,255,255)" fill-opacity="1.0" stroke="rgb(0,0,0)" stroke-width="2"  />
			<g>
				<title>ADH_N (PF08240)
"Alcohol dehydrogenase GroES-like domain"</title>
				<rect class="PF08240" x="905" y="28" stroke-linejoin="round" width="9" height="24" fill="rgb(217,198,105)" stroke="rgb(173,158,84)" stroke-width="1" opacity="0.75" />
			</g>
			<g>
				<title>ADH_zinc_N (PF00107)
"Zinc-binding dehydrogenase"</title>
				<polygon class="PF00107" points="918,28 920,28 929,37 929,43 920,52 918,52" stroke-linejoin="round" width="11" height="24" fill="rgb(79,114,198)" stroke="rgb(63,91,158)" stroke-width="1" opacity="0.75" />
			</g>
		</g>
		<g>
			<title>lpmX
methyltransferase</title>
			<polygon class="lpmX
methyltransferase" points="938,25 949,25 949,10 979,40 949,70 949,55 938,55" fill="rgb(255,255,255)" fill-opacity="1.0" stroke="rgb(0,0,0)" stroke-width="2"  />
			<g>
				<title>Methyltransf_11 (PF08241)
"Methyltransferase domain"</title>
				<polygon class="PF08241" points="957,28 963,28 965,30 965,50 963,52 957,52" stroke-linejoin="round" width="8" height="24" fill="rgb(201,85,64)" stroke="rgb(160,68,51)" stroke-width="1" opacity="0.75" />
			</g>
		</g>
		<g>
			<title>lpmY
kinase</title>
			<polygon class="lpmY
kinase" points="981,10 999,40 981,70" fill="rgb(255,255,255)" fill-opacity="1.0" stroke="rgb(0,0,0)" stroke-width="2"  />
		</g>
	</g>
</svg>
