<svg version="1.1" baseProfile="full" xmlns="http://www.w3.org/2000/svg" width="745.9333333333333" height="80">
	<g>
		<line x1="10" y1="40.0" x2="735.9333333333333" y2="40.0" style="stroke:rgb(70,70,70); stroke-width:3 "/>
		<g>
			<title> (SSPG_05081)
rod shape-determining protein MreB</title>
			<polygon class=" (SSPG_05081)
rod shape-determining protein MreB" points="46,25 40,25 40,10 10,40 40,70 40,55 46,55" fill="rgb(255,255,255)" fill-opacity="1.0" stroke="rgb(0,0,0)" stroke-width="2"  />
			<g>
				<title>MreB_Mbl (PF06723)
"MreB/Mbl protein"</title>
				<polygon class="PF06723" points="14,40 26,28 43,28 43,52 26,52" stroke-linejoin="round" width="32" height="24" fill="rgb(94,213,140)" stroke="rgb(75,170,112)" stroke-width="1" opacity="0.75" />
			</g>
		</g>
		<g>
			<title> (SSPG_05082)
protein kinase</title>
			<polygon class=" (SSPG_05082)
protein kinase" points="154,25 81,25 81,10 51,40 81,70 81,55 154,55" fill="rgb(255,255,255)" fill-opacity="1.0" stroke="rgb(0,0,0)" stroke-width="2"  />
			<g>
				<title>BTAD (PF03704)
"Bacterial transcriptional activator domain"</title>
				<rect class="PF03704" x="80" y="28" stroke-linejoin="round" width="13" height="24" fill="rgb(174,224,58)" stroke="rgb(139,179,46)" stroke-width="1" opacity="0.75" />
			</g>
			<g>
				<title>PK_Tyr_Ser-Thr (PF07714)
"Protein tyrosine and serine/threonine kinase"</title>
				<rect class="PF07714" x="112" y="28" stroke-linejoin="round" width="13" height="24" fill="rgb(125,209,59)" stroke="rgb(100,167,47)" stroke-width="1" opacity="0.75" />
			</g>
		</g>
		<g>
			<title> (SSPG_05083)
serine/threonine protein kinase</title>
			<polygon class=" (SSPG_05083)
serine/threonine protein kinase" points="159,40 188,10 188,70" fill="rgb(255,255,255)" fill-opacity="1.0" stroke="rgb(0,0,0)" stroke-width="2"  />
		</g>
		<g>
			<title> (SSPG_05084)
ATPase AAA</title>
			<polygon class=" (SSPG_05084)
ATPase AAA" points="222,25 218,25 218,10 188,40 218,70 218,55 222,55" fill="rgb(255,255,255)" fill-opacity="1.0" stroke="rgb(0,0,0)" stroke-width="2"  />
			<g>
				<title>AAA_5 (PF07728)
"AAA domain (dynein-related subfamily)"</title>
				<polygon class="PF07728" points="196,36 204,28 213,28 213,52 204,52 196,44" stroke-linejoin="round" width="17" height="24" fill="rgb(117,60,202)" stroke="rgb(93,47,161)" stroke-width="1" opacity="0.75" />
			</g>
		</g>
		<g>
			<title> (SSPG_05085)
hypothetical protein</title>
			<polygon class=" (SSPG_05085)
hypothetical protein" points="282,25 257,25 257,10 227,40 257,70 257,55 282,55" fill="rgb(255,255,255)" fill-opacity="1.0" stroke="rgb(0,0,0)" stroke-width="2"  />
			<g>
				<title>VMAP-C (PF20028)
"vWA-MoxR associated protein C-terminal domain"</title>
				<polygon class="PF20028" points="231,40 243,28 251,28 251,52 243,52" stroke-linejoin="round" width="23" height="24" fill="rgb(80,219,55)" stroke="rgb(64,175,44)" stroke-width="1" opacity="0.75" />
			</g>
			<g>
				<title>Trypsin_2 (PF13365)
"Trypsin-like peptidase domain"</title>
				<rect class="PF13365" x="265" y="28" stroke-linejoin="round" width="14" height="24" fill="rgb(113,214,88)" stroke="rgb(90,171,70)" stroke-width="1" opacity="0.75" />
			</g>
		</g>
		<g>
			<title> (SSPG_05086)
hypothetical protein</title>
			<polygon class=" (SSPG_05086)
hypothetical protein" points="282,40 297,10 297,70" fill="rgb(255,255,255)" fill-opacity="1.0" stroke="rgb(0,0,0)" stroke-width="2"  />
			<g>
				<title>Trypco1 (PF19493)
"Trypsin-co-occurring domain 1"</title>
				<polygon class="PF19493" points="285,40 291,28 294,28 294,52 291,52 285,40" stroke-linejoin="round" width="9" height="24" fill="rgb(96,82,178)" stroke="rgb(76,65,142)" stroke-width="1" opacity="0.75" />
			</g>
		</g>
		<g>
			<title> (SSPG_05087)
peptidase S8</title>
			<polygon class=" (SSPG_05087)
peptidase S8" points="304,25 396,25 396,10 426,40 396,70 396,55 304,55" fill="rgb(255,255,255)" fill-opacity="1.0" stroke="rgb(0,0,0)" stroke-width="2"  />
			<g>
				<title>Peptidase_S8 (PF00082)
"Subtilase family"</title>
				<rect class="PF00082" x="325" y="28" stroke-linejoin="round" width="26" height="24" fill="rgb(179,95,73)" stroke="rgb(143,76,58)" stroke-width="1" opacity="0.75" />
			</g>
		</g>
		<g>
			<title> (SSPG_05088)
acetyl CoA carboxylase alpha subunit</title>
			<polygon class=" (SSPG_05088)
acetyl CoA carboxylase alpha subunit" points="435,40 452,10 452,70" fill="rgb(255,255,255)" fill-opacity="1.0" stroke="rgb(0,0,0)" stroke-width="2"  />
			<g>
				<title>Carboxyl_trans (PF01039)
"Carboxyl transferase domain"</title>
				<polygon class="PF01039" points="438,40 445,28 451,28 451,52 445,52" stroke-linejoin="round" width="16" height="24" fill="rgb(185,80,158)" stroke="rgb(148,64,126)" stroke-width="1" opacity="0.75" />
			</g>
		</g>
		<g>
			<title> (SSPG_05089)
acetyl CoA carboxylase beta subunit</title>
			<polygon class=" (SSPG_05089)
acetyl CoA carboxylase beta subunit" points="463,40 480,10 480,70" fill="rgb(255,255,255)" fill-opacity="1.0" stroke="rgb(0,0,0)" stroke-width="2"  />
			<g>
				<title>Carboxyl_trans (PF01039)
"Carboxyl transferase domain"</title>
				<polygon class="PF01039" points="466,40 473,28 475,28 475,52 473,52" stroke-linejoin="round" width="12" height="24" fill="rgb(185,80,158)" stroke="rgb(148,64,126)" stroke-width="1" opacity="0.75" />
			</g>
		</g>
		<g>
			<title> (SSPG_05090)
acyl-CoA synthetase</title>
			<polygon class=" (SSPG_05090)
acyl-CoA synthetase" points="528,25 510,25 510,10 480,40 510,70 510,55 528,55" fill="rgb(255,255,255)" fill-opacity="1.0" stroke="rgb(0,0,0)" stroke-width="2"  />
			<g>
				<title>AMP-binding_C (PF13193)
"AMP-binding enzyme C-terminal domain"</title>
				<polygon class="PF13193" points="484,40 488,36 488,44" stroke-linejoin="round" width="7" height="24" fill="rgb(195,82,106)" stroke="rgb(156,65,84)" stroke-width="1" opacity="0.75" />
			</g>
			<g>
				<title>AMP-binding (PF00501)
"AMP-binding enzyme"</title>
				<polygon class="PF00501" points="493,31 496,28 526,28 526,52 496,52 493,49" stroke-linejoin="round" width="33" height="24" fill="rgb(189,78,204)" stroke="rgb(151,62,163)" stroke-width="1" opacity="0.75" />
			</g>
		</g>
		<g>
			<title> (SSPG_05091)
DeoR family transcriptional regulator</title>
			<polygon class=" (SSPG_05091)
DeoR family transcriptional regulator" points="578,25 562,25 562,10 532,40 562,70 562,55 578,55" fill="rgb(255,255,255)" fill-opacity="1.0" stroke="rgb(0,0,0)" stroke-width="2"  />
			<g>
				<title>MatC_N (PF07158)
"Dicarboxylate carrier protein MatC N-terminus"</title>
				<rect class="PF07158" x="563" y="28" stroke-linejoin="round" width="14" height="24" fill="rgb(134,64,190)" stroke="rgb(107,51,152)" stroke-width="1" opacity="0.75" />
			</g>
		</g>
		<g>
			<title> (SSPG_05092)
GntR family transcriptional regulator</title>
			<polygon class=" (SSPG_05092)
GntR family transcriptional regulator" points="585,10 608,40 585,70" fill="rgb(255,255,255)" fill-opacity="1.0" stroke="rgb(0,0,0)" stroke-width="2"  />
			<g>
				<title>GntR (PF00392)
"Bacterial regulatory proteins, gntR family"</title>
				<rect class="PF00392" x="586" y="28" stroke-linejoin="round" width="6" height="24" fill="rgb(215,102,113)" stroke="rgb(172,81,90)" stroke-width="1" opacity="0.75" />
			</g>
			<g>
				<title>FCD (PF07729)
"FCD domain"</title>
				<polygon class="PF07729" points="594,28 595,28 604,40 595,52 594,52" stroke-linejoin="round" width="12" height="24" fill="rgb(57,62,208)" stroke="rgb(45,49,166)" stroke-width="1" opacity="0.75" />
			</g>
		</g>
		<g>
			<title> (SSPG_05093)
hypothetical protein</title>
			<polygon class=" (SSPG_05093)
hypothetical protein" points="609,40 629,10 629,70" fill="rgb(255,255,255)" fill-opacity="1.0" stroke="rgb(0,0,0)" stroke-width="2"  />
		</g>
		<g>
			<title> (SSPG_05094)
IclR family transcriptional regulator</title>
			<polygon class=" (SSPG_05094)
IclR family transcriptional regulator" points="634,10 659,40 634,70" fill="rgb(255,255,255)" fill-opacity="1.0" stroke="rgb(0,0,0)" stroke-width="2"  />
			<g>
				<title>HTH_IclR (PF09339)
"IclR helix-turn-helix domain"</title>
				<rect class="PF09339" x="634" y="28" stroke-linejoin="round" width="5" height="24" fill="rgb(147,104,225)" stroke="rgb(117,83,180)" stroke-width="1" opacity="0.75" />
			</g>
			<g>
				<title>IclR (PF01614)
"Bacterial transcriptional regulator"</title>
				<polygon class="PF01614" points="646,29 655,40 646,51" stroke-linejoin="round" width="12" height="24" fill="rgb(209,146,66)" stroke="rgb(167,116,52)" stroke-width="1" opacity="0.75" />
			</g>
		</g>
		<g>
			<title> (SSPG_05095)
calcium-binding protein</title>
			<polygon class=" (SSPG_05095)
calcium-binding protein" points="659,10 687,40 659,70" fill="rgb(255,255,255)" fill-opacity="1.0" stroke="rgb(0,0,0)" stroke-width="2"  />
			<g>
				<title>SGL (PF08450)
"SMP-30/Gluconolactonase/LRE-like region"</title>
				<polygon class="PF08450" points="660,28 671,28 683,40 683,40 671,52 660,52" stroke-linejoin="round" width="23" height="24" fill="rgb(164,88,200)" stroke="rgb(131,70,160)" stroke-width="1" opacity="0.75" />
			</g>
		</g>
		<g>
			<title> (SSPG_05096)
hypothetical protein</title>
			<polygon class=" (SSPG_05096)
hypothetical protein" points="735,25 720,25 720,10 690,40 720,70 720,55 735,55" fill="rgb(255,255,255)" fill-opacity="1.0" stroke="rgb(0,0,0)" stroke-width="2"  />
		</g>
	</g>
</svg>
