<svg version="1.1" baseProfile="full" xmlns="http://www.w3.org/2000/svg" width="1053.0333333333333" height="80">
	<g>
		<line x1="10" y1="40.0" x2="1043.0333333333333" y2="40.0" style="stroke:rgb(70,70,70); stroke-width:3 "/>
		<g>
			<title>sxtB
cytidine deaminase</title>
			<polygon class="sxtB
cytidine deaminase" points="102,25 100,25 100,10 70,40 100,70 100,55 102,55" fill="rgb(255,255,255)" fill-opacity="1.0" stroke="rgb(0,0,0)" stroke-width="2"  />
			<g>
				<title>dCMP_cyt_deam_2 (PF08211)
"Cytidine and deoxycytidylate deaminase zinc-binding region"</title>
				<polygon class="PF08211" points="74,40 84,30 84,50" stroke-linejoin="round" width="12" height="24" fill="rgb(53,103,192)" stroke="rgb(42,82,153)" stroke-width="1" opacity="0.75" />
			</g>
			<g>
				<title>dCMP_cyt_deam_1 (PF00383)
"Cytidine and deoxycytidylate deaminase zinc-binding region"</title>
				<rect class="PF00383" x="87" y="28" stroke-linejoin="round" width="10" height="24" fill="rgb(181,147,83)" stroke="rgb(144,117,66)" stroke-width="1" opacity="0.75" />
			</g>
		</g>
		<g>
			<title>sxtA
polyketide synthase-related protein</title>
			<polygon class="sxtA
polyketide synthase-related protein" points="226,25 133,25 133,10 103,40 133,70 133,55 226,55" fill="rgb(255,255,255)" fill-opacity="1.0" stroke="rgb(0,0,0)" stroke-width="2"  />
			<g>
				<title>Aminotran_1_2 (PF00155)
"Aminotransferase class I and II"</title>
				<polygon class="PF00155" points="107,40 119,28 139,28 139,52 119,52" stroke-linejoin="round" width="35" height="24" fill="rgb(207,146,55)" stroke="rgb(165,116,43)" stroke-width="1" opacity="0.75" />
			</g>
			<g>
				<title>PP-binding (PF00550)
"Phosphopantetheine attachment site"</title>
				<rect class="PF00550" x="145" y="28" stroke-linejoin="round" width="6" height="24" fill="rgb(181,58,166)" stroke="rgb(144,46,132)" stroke-width="1" opacity="0.75" />
			</g>
		</g>
		<g>
			<title>sxtE
SxtE</title>
			<polygon class="sxtE
SxtE" points="234,40 249,10 249,70" fill="rgb(255,255,255)" fill-opacity="1.0" stroke="rgb(0,0,0)" stroke-width="2"  />
			<g>
				<title>DUF5992 (PF19454)
"Family of unknown function (DUF5992)"</title>
				<polygon class="PF19454" points="237,40 243,28 244,28 244,52 243,52" stroke-linejoin="round" width="10" height="24" fill="rgb(228,128,107)" stroke="rgb(182,102,85)" stroke-width="1" opacity="0.75" />
			</g>
		</g>
		<g>
			<title>sxtD
sterole desaturase</title>
			<polygon class="sxtD
sterole desaturase" points="268,40 293,10 293,70" fill="rgb(255,255,255)" fill-opacity="1.0" stroke="rgb(0,0,0)" stroke-width="2"  />
			<g>
				<title>FA_hydroxylase (PF04116)
"Fatty acid hydroxylase"</title>
				<polygon class="PF04116" points="272,40 282,28 284,28 284,52 282,52" stroke-linejoin="round" width="13" height="24" fill="rgb(54,190,140)" stroke="rgb(43,152,112)" stroke-width="1" opacity="0.75" />
			</g>
		</g>
		<g>
			<title>sxtP
putative saxitoxin-binding protein</title>
			<polygon class="sxtP
putative saxitoxin-binding protein" points="295,25 313,25 313,10 343,40 313,70 313,55 295,55" fill="rgb(255,255,255)" fill-opacity="1.0" stroke="rgb(0,0,0)" stroke-width="2"  />
			<g>
				<title>FG-GAP_3 (PF13517)
"FG-GAP-like repeat"</title>
				<rect class="PF13517" x="309" y="28" stroke-linejoin="round" width="6" height="24" fill="rgb(193,139,80)" stroke="rgb(154,111,64)" stroke-width="1" opacity="0.75" />
			</g>
			<g>
				<title>FG-GAP_3 (PF13517)
"FG-GAP-like repeat"</title>
				<polygon class="PF13517" points="329,30 335,36 335,44 329,50" stroke-linejoin="round" width="6" height="24" fill="rgb(193,139,80)" stroke="rgb(154,111,64)" stroke-width="1" opacity="0.75" />
			</g>
		</g>
		<g>
			<title>
unknown</title>
			<polygon class="
unknown" points="344,10 369,40 344,70" fill="rgb(255,255,255)" fill-opacity="1.0" stroke="rgb(0,0,0)" stroke-width="2"  />
			<g>
				<title>YqcI_YcgG (PF08892)
"YqcI/YcgG family"</title>
				<polygon class="PF08892" points="348,28 356,28 365,40 356,52 348,52" stroke-linejoin="round" width="19" height="24" fill="rgb(189,223,61)" stroke="rgb(151,178,48)" stroke-width="1" opacity="0.75" />
			</g>
		</g>
		<g>
			<title>sxtR
acyl-CoA N-acyltransferase</title>
			<polygon class="sxtR
acyl-CoA N-acyltransferase" points="371,10 397,40 371,70" fill="rgb(255,255,255)" fill-opacity="1.0" stroke="rgb(0,0,0)" stroke-width="2"  />
		</g>
		<g>
			<title>
transposase</title>
			<polygon class="
transposase" points="492,10 521,40 492,70" fill="rgb(255,255,255)" fill-opacity="1.0" stroke="rgb(0,0,0)" stroke-width="2"  />
			<g>
				<title>DDE_Tnp_1_3 (PF13612)
"Transposase DDE domain"</title>
				<polygon class="PF13612" points="502,28 505,28 517,40 517,40 505,52 502,52" stroke-linejoin="round" width="15" height="24" fill="rgb(109,73,223)" stroke="rgb(87,58,178)" stroke-width="1" opacity="0.75" />
			</g>
		</g>
		<g>
			<title>
permease</title>
			<polygon class="
permease" points="572,25 571,25 571,10 541,40 571,70 571,55 572,55" fill="rgb(255,255,255)" fill-opacity="1.0" stroke="rgb(0,0,0)" stroke-width="2"  />
			<g>
				<title>EamA (PF00892)
"EamA-like transporter family"</title>
				<polygon class="PF00892" points="545,40 556,29 556,51" stroke-linejoin="round" width="14" height="24" fill="rgb(202,125,98)" stroke="rgb(161,100,78)" stroke-width="1" opacity="0.75" />
			</g>
			<g>
				<title>EamA (PF00892)
"EamA-like transporter family"</title>
				<polygon class="PF00892" points="557,28 557,28 569,28 569,52 557,52 557,52" stroke-linejoin="round" width="12" height="24" fill="rgb(202,125,98)" stroke="rgb(161,100,78)" stroke-width="1" opacity="0.75" />
			</g>
		</g>
		<g>
			<title>
hypothetical protein</title>
			<polygon class="
hypothetical protein" points="580,10 600,40 580,70" fill="rgb(255,255,255)" fill-opacity="1.0" stroke="rgb(0,0,0)" stroke-width="2"  />
		</g>
		<g>
			<title>sxtS
phytanoyl-CoA dioxygenase</title>
			<polygon class="sxtS
phytanoyl-CoA dioxygenase" points="610,10 634,40 610,70" fill="rgb(255,255,255)" fill-opacity="1.0" stroke="rgb(0,0,0)" stroke-width="2"  />
			<g>
				<title>PhyH (PF05721)
"Phytanoyl-CoA dioxygenase (PhyH)"</title>
				<polygon class="PF05721" points="611,28 621,28 630,40 621,52 611,52" stroke-linejoin="round" width="20" height="24" fill="rgb(186,53,95)" stroke="rgb(148,42,76)" stroke-width="1" opacity="0.75" />
			</g>
		</g>
		<g>
			<title>sxtT
phenylpropionate dioxygenase</title>
			<polygon class="sxtT
phenylpropionate dioxygenase" points="638,25 642,25 642,10 672,40 642,70 642,55 638,55" fill="rgb(255,255,255)" fill-opacity="1.0" stroke="rgb(0,0,0)" stroke-width="2"  />
			<g>
				<title>Rieske (PF00355)
"Rieske [2Fe-2S] domain"</title>
				<rect class="PF00355" x="639" y="28" stroke-linejoin="round" width="9" height="24" fill="rgb(60,75,194)" stroke="rgb(48,60,155)" stroke-width="1" opacity="0.75" />
			</g>
			<g>
				<title>VanA_C (PF19112)
"Vanillate O-demethylase oxygenase C-terminal domain"</title>
				<polygon class="PF19112" points="652,28 655,28 667,40 655,52 652,52" stroke-linejoin="round" width="18" height="24" fill="rgb(82,202,147)" stroke="rgb(65,161,117)" stroke-width="1" opacity="0.75" />
			</g>
		</g>
		<g>
			<title>sxtU
short-chain alcohol dehydrogenase</title>
			<polygon class="sxtU
short-chain alcohol dehydrogenase" points="677,10 702,40 677,70" fill="rgb(255,255,255)" fill-opacity="1.0" stroke="rgb(0,0,0)" stroke-width="2"  />
			<g>
				<title>adh_short (PF00106)
"short chain dehydrogenase"</title>
				<polygon class="PF00106" points="677,28 688,28 696,38 696,42 688,52 677,52" stroke-linejoin="round" width="19" height="24" fill="rgb(128,81,196)" stroke="rgb(102,64,156)" stroke-width="1" opacity="0.75" />
			</g>
		</g>
		<g>
			<title>sxtN
sulfotransferase</title>
			<polygon class="sxtN
sulfotransferase" points="704,10 733,40 704,70" fill="rgb(255,255,255)" fill-opacity="1.0" stroke="rgb(0,0,0)" stroke-width="2"  />
			<g>
				<title>Sulfotransfer_5 (PF19798)
"Sulfotransferase domain"</title>
				<polygon class="PF19798" points="705,28 716,28 728,40 716,52 705,52" stroke-linejoin="round" width="25" height="24" fill="rgb(217,197,81)" stroke="rgb(173,157,64)" stroke-width="1" opacity="0.75" />
			</g>
		</g>
		<g>
			<title>sxtG
amidinotransferase</title>
			<polygon class="sxtG
amidinotransferase" points="736,25 743,25 743,10 773,40 743,70 743,55 736,55" fill="rgb(255,255,255)" fill-opacity="1.0" stroke="rgb(0,0,0)" stroke-width="2"  />
		</g>
		<g>
			<title>sxtH
phenylpropionate dioxygenase</title>
			<polygon class="sxtH
phenylpropionate dioxygenase" points="776,25 780,25 780,10 810,40 780,70 780,55 776,55" fill="rgb(255,255,255)" fill-opacity="1.0" stroke="rgb(0,0,0)" stroke-width="2"  />
			<g>
				<title>Rieske (PF00355)
"Rieske [2Fe-2S] domain"</title>
				<rect class="PF00355" x="777" y="28" stroke-linejoin="round" width="9" height="24" fill="rgb(60,75,194)" stroke="rgb(48,60,155)" stroke-width="1" opacity="0.75" />
			</g>
			<g>
				<title>VanA_C (PF19112)
"Vanillate O-demethylase oxygenase C-terminal domain"</title>
				<polygon class="PF19112" points="790,28 793,28 805,40 793,52 790,52" stroke-linejoin="round" width="18" height="24" fill="rgb(82,202,147)" stroke="rgb(65,161,117)" stroke-width="1" opacity="0.75" />
			</g>
		</g>
		<g>
			<title>sxtM
sodium-driven multidrug and toxic compound extrusion protein</title>
			<polygon class="sxtM
sodium-driven multidrug and toxic compound extrusion protein" points="812,25 830,25 830,10 860,40 830,70 830,55 812,55" fill="rgb(255,255,255)" fill-opacity="1.0" stroke="rgb(0,0,0)" stroke-width="2"  />
			<g>
				<title>MatE (PF01554)
"MatE"</title>
				<rect class="PF01554" x="815" y="28" stroke-linejoin="round" width="15" height="24" fill="rgb(223,98,132)" stroke="rgb(178,78,105)" stroke-width="1" opacity="0.75" />
			</g>
			<g>
				<title>MatE (PF01554)
"MatE"</title>
				<polygon class="PF01554" points="837,28 844,28 853,37 853,43 844,52 837,52" stroke-linejoin="round" width="16" height="24" fill="rgb(223,98,132)" stroke="rgb(178,78,105)" stroke-width="1" opacity="0.75" />
			</g>
		</g>
		<g>
			<title>sxtI
NodU/CmcH-related carbamoyltransferase</title>
			<polygon class="sxtI
NodU/CmcH-related carbamoyltransferase" points="860,25 891,25 891,10 921,40 891,70 891,55 860,55" fill="rgb(255,255,255)" fill-opacity="1.0" stroke="rgb(0,0,0)" stroke-width="2"  />
			<g>
				<title>Carbam_trans_N (PF02543)
"Carbamoyltransferase N-terminus"</title>
				<rect class="PF02543" x="860" y="28" stroke-linejoin="round" width="34" height="24" fill="rgb(97,95,191)" stroke="rgb(77,76,152)" stroke-width="1" opacity="0.75" />
			</g>
			<g>
				<title>Carbam_trans_C (PF16861)
"Carbamoyltransferase C-terminus"</title>
				<polygon class="PF16861" points="900,28 905,28 917,40 905,52 900,52" stroke-linejoin="round" width="18" height="24" fill="rgb(158,73,206)" stroke="rgb(126,58,164)" stroke-width="1" opacity="0.75" />
			</g>
		</g>
		<g>
			<title>sxtJ
SxtJ</title>
			<polygon class="sxtJ
SxtJ" points="923,10 936,40 923,70" fill="rgb(255,255,255)" fill-opacity="1.0" stroke="rgb(0,0,0)" stroke-width="2"  />
			<g>
				<title>SxtJ (PF19588)
"Saxitoxin biosynthesis operon protein SxtJ"</title>
				<polygon class="PF19588" points="924,28 927,28 933,40 933,40 927,52 924,52" stroke-linejoin="round" width="9" height="24" fill="rgb(103,220,101)" stroke="rgb(82,176,80)" stroke-width="1" opacity="0.75" />
			</g>
		</g>
		<g>
			<title>sxtK
SxtK</title>
			<polygon class="sxtK
SxtK" points="936,10 941,40 936,70" fill="rgb(255,255,255)" fill-opacity="1.0" stroke="rgb(0,0,0)" stroke-width="2"  />
			<g>
				<title>DUF5989 (PF19451)
"Family of unknown function (DUF5989)"</title>
				<polygon class="PF19451" points="936,27 938,40 936,53" stroke-linejoin="round" width="4" height="24" fill="rgb(88,227,127)" stroke="rgb(70,181,101)" stroke-width="1" opacity="0.75" />
			</g>
		</g>
		<g>
			<title>sxtL
GDSL-lipase</title>
			<polygon class="sxtL
GDSL-lipase" points="942,25 954,25 954,10 984,40 954,70 954,55 942,55" fill="rgb(255,255,255)" fill-opacity="1.0" stroke="rgb(0,0,0)" stroke-width="2"  />
		</g>
		<g>
			<title>sxtO
adenylylsulfate kinase</title>
			<polygon class="sxtO
adenylylsulfate kinase" points="985,10 1004,40 985,70" fill="rgb(255,255,255)" fill-opacity="1.0" stroke="rgb(0,0,0)" stroke-width="2"  />
			<g>
				<title>APS_kinase (PF01583)
"Adenylylsulphate kinase"</title>
				<polygon class="PF01583" points="985,28 992,28 1000,40 1000,40 992,52 985,52" stroke-linejoin="round" width="15" height="24" fill="rgb(215,100,220)" stroke="rgb(171,80,176)" stroke-width="1" opacity="0.75" />
			</g>
		</g>
		<g>
			<title>
SMF protein</title>
			<polygon class="
SMF protein" points="1042,25 1041,25 1041,10 1011,40 1041,70 1041,55 1042,55" fill="rgb(255,255,255)" fill-opacity="1.0" stroke="rgb(0,0,0)" stroke-width="2"  />
			<g>
				<title>DprA_WH (PF17782)
"DprA winged helix domain"</title>
				<polygon class="PF17782" points="1015,40 1016,39 1016,41" stroke-linejoin="round" width="5" height="24" fill="rgb(85,158,202)" stroke="rgb(68,126,161)" stroke-width="1" opacity="0.75" />
			</g>
			<g>
				<title>DNA_processg_A (PF02481)
"DNA recombination-mediator protein A"</title>
				<polygon class="PF02481" points="1019,36 1027,28 1040,28 1040,52 1027,52 1019,44" stroke-linejoin="round" width="21" height="24" fill="rgb(183,84,194)" stroke="rgb(146,67,155)" stroke-width="1" opacity="0.75" />
			</g>
		</g>
	</g>
</svg>
