<svg version="1.1" baseProfile="full" xmlns="http://www.w3.org/2000/svg" width="412.53333333333336" height="80">
	<g>
		<line x1="10" y1="40.0" x2="402.53333333333336" y2="40.0" style="stroke:rgb(70,70,70); stroke-width:3 "/>
		<g>
			<title>smbM1
modifying enzyme for proSmb</title>
			<polygon class="smbM1
modifying enzyme for proSmb" points="56,25 121,25 121,10 151,40 121,70 121,55 56,55" fill="rgb(255,255,255)" fill-opacity="1.0" stroke="rgb(0,0,0)" stroke-width="2"  />
			<g>
				<title>DUF4135 (PF13575)
"Domain of unknown function (DUF4135)"</title>
				<rect class="PF13575" x="70" y="28" stroke-linejoin="round" width="34" height="24" fill="rgb(170,90,215)" stroke="rgb(135,72,172)" stroke-width="1" opacity="0.75" />
			</g>
			<g>
				<title>LANC_like (PF05147)
"Lanthionine synthetase C-like protein"</title>
				<polygon class="PF05147" points="116,28 135,28 147,40 135,52 116,52" stroke-linejoin="round" width="34" height="24" fill="rgb(91,189,96)" stroke="rgb(72,151,76)" stroke-width="1" opacity="0.75" />
			</g>
		</g>
		<g>
			<title>smbF</title>
			<polygon class="smbF" points="152,10 179,40 152,70" fill="rgb(255,255,255)" fill-opacity="1.0" stroke="rgb(0,0,0)" stroke-width="2"  />
			<g>
				<title>ABC_tran (PF00005)
"ABC transporter"</title>
				<polygon class="PF00005" points="153,28 163,28 165,29 165,51 163,52 153,52" stroke-linejoin="round" width="12" height="24" fill="rgb(46,186,108)" stroke="rgb(36,148,86)" stroke-width="1" opacity="0.75" />
			</g>
		</g>
		<g>
			<title>smbT</title>
			<polygon class="smbT" points="179,10 202,40 179,70" fill="rgb(255,255,255)" fill-opacity="1.0" stroke="rgb(0,0,0)" stroke-width="2"  />
		</g>
		<g>
			<title>smbM2
modifying enzyme for proSmb</title>
			<polygon class="smbM2
modifying enzyme for proSmb" points="203,25 260,25 260,10 290,40 260,70 260,55 203,55" fill="rgb(255,255,255)" fill-opacity="1.0" stroke="rgb(0,0,0)" stroke-width="2"  />
			<g>
				<title>DUF4135 (PF13575)
"Domain of unknown function (DUF4135)"</title>
				<rect class="PF13575" x="214" y="28" stroke-linejoin="round" width="35" height="24" fill="rgb(170,90,215)" stroke="rgb(135,72,172)" stroke-width="1" opacity="0.75" />
			</g>
			<g>
				<title>LANC_like (PF05147)
"Lanthionine synthetase C-like protein"</title>
				<polygon class="PF05147" points="259,28 274,28 286,40 274,52 259,52" stroke-linejoin="round" width="31" height="24" fill="rgb(91,189,96)" stroke="rgb(72,151,76)" stroke-width="1" opacity="0.75" />
			</g>
		</g>
		<g>
			<title>smbG</title>
			<polygon class="smbG" points="291,25 330,25 330,10 360,40 330,70 330,55 291,55" fill="rgb(255,255,255)" fill-opacity="1.0" stroke="rgb(0,0,0)" stroke-width="2"  />
			<g>
				<title>Peptidase_C39 (PF03412)
"Peptidase C39 family"</title>
				<rect class="PF03412" x="291" y="28" stroke-linejoin="round" width="12" height="24" fill="rgb(93,118,202)" stroke="rgb(74,94,161)" stroke-width="1" opacity="0.75" />
			</g>
			<g>
				<title>ABC_membrane (PF00664)
"ABC transporter transmembrane region"</title>
				<rect class="PF00664" x="306" y="28" stroke-linejoin="round" width="27" height="24" fill="rgb(62,71,183)" stroke="rgb(49,56,146)" stroke-width="1" opacity="0.75" />
			</g>
			<g>
				<title>ABC_tran (PF00005)
"ABC transporter"</title>
				<polygon class="PF00005" points="339,28 344,28 353,37 353,43 344,52 339,52" stroke-linejoin="round" width="14" height="24" fill="rgb(46,186,108)" stroke="rgb(36,148,86)" stroke-width="1" opacity="0.75" />
			</g>
		</g>
		<g>
			<title>smbA
SmbA precursor</title>
			<polygon class="smbA
SmbA precursor" points="365,10 371,40 365,70" fill="rgb(255,255,255)" fill-opacity="1.0" stroke="rgb(0,0,0)" stroke-width="2"  />
		</g>
		<g>
			<title>smbB
SmbB precursor</title>
			<polygon class="smbB
SmbB precursor" points="372,10 378,40 372,70" fill="rgb(255,255,255)" fill-opacity="1.0" stroke="rgb(0,0,0)" stroke-width="2"  />
			<g>
				<title>Lantibiotic_a (PF14867)
"Lantibiotic alpha"</title>
				<polygon class="PF14867" points="375,39 375,40 375,41" stroke-linejoin="round" width="3" height="24" fill="rgb(211,214,86)" stroke="rgb(168,171,68)" stroke-width="1" opacity="0.75" />
			</g>
		</g>
	</g>
</svg>
