<svg version="1.1" baseProfile="full" xmlns="http://www.w3.org/2000/svg" width="599.9333333333333" height="80">
	<g>
		<line x1="10" y1="40.0" x2="589.9333333333333" y2="40.0" style="stroke:rgb(70,70,70); stroke-width:3 "/>
		<g>
			<title>tatC
TatC</title>
			<polygon class="tatC
TatC" points="24,10 49,40 24,70" fill="rgb(255,255,255)" fill-opacity="1.0" stroke="rgb(0,0,0)" stroke-width="2"  />
			<g>
				<title>TatC (PF00902)
"Sec-independent protein translocase protein (TatC)"</title>
				<polygon class="PF00902" points="26,28 35,28 45,40 35,52 26,52" stroke-linejoin="round" width="20" height="24" fill="rgb(221,56,60)" stroke="rgb(176,44,48)" stroke-width="1" opacity="0.75" />
			</g>
		</g>
		<g>
			<title>ligT
LigT</title>
			<polygon class="ligT
LigT" points="54,10 74,40 54,70" fill="rgb(255,255,255)" fill-opacity="1.0" stroke="rgb(0,0,0)" stroke-width="2"  />
			<g>
				<title>2_5_RNA_ligase2 (PF13563)
"2'-5' RNA ligase superfamily"</title>
				<polygon class="PF13563" points="54,28 62,28 69,38 69,42 62,52 54,52" stroke-linejoin="round" width="15" height="24" fill="rgb(58,196,62)" stroke="rgb(46,156,49)" stroke-width="1" opacity="0.75" />
			</g>
		</g>
		<g>
			<title>hep2
Hep2</title>
			<polygon class="hep2
Hep2" points="79,25 81,25 81,10 111,40 81,70 81,55 79,55" fill="rgb(255,255,255)" fill-opacity="1.0" stroke="rgb(0,0,0)" stroke-width="2"  />
			<g>
				<title>polyprenyl_synt (PF00348)
"Polyprenyl synthetase"</title>
				<polygon class="PF00348" points="81,28 94,28 105,39 105,41 94,52 81,52" stroke-linejoin="round" width="24" height="24" fill="rgb(216,200,102)" stroke="rgb(172,160,81)" stroke-width="1" opacity="0.75" />
			</g>
		</g>
		<g>
			<title>ccs1
Ccs1</title>
			<polygon class="ccs1
Ccs1" points="114,25 129,25 129,10 159,40 129,70 129,55 114,55" fill="rgb(255,255,255)" fill-opacity="1.0" stroke="rgb(0,0,0)" stroke-width="2"  />
			<g>
				<title>ResB (PF05140)
"ResB-like family"</title>
				<polygon class="PF05140" points="115,28 142,28 148,34 148,46 142,52 115,52" stroke-linejoin="round" width="33" height="24" fill="rgb(186,80,186)" stroke="rgb(148,64,148)" stroke-width="1" opacity="0.75" />
			</g>
		</g>
		<g>
			<title>ccsA
CcsA</title>
			<polygon class="ccsA
CcsA" points="159,10 187,40 159,70" fill="rgb(255,255,255)" fill-opacity="1.0" stroke="rgb(0,0,0)" stroke-width="2"  />
			<g>
				<title>Cytochrom_C_asm (PF01578)
"Cytochrome C assembly protein"</title>
				<polygon class="PF01578" points="165,28 171,28 183,40 171,52 165,52" stroke-linejoin="round" width="21" height="24" fill="rgb(214,106,115)" stroke="rgb(171,84,91)" stroke-width="1" opacity="0.75" />
			</g>
		</g>
		<g>
			<title>cysGB
CysGB</title>
			<polygon class="cysGB
CysGB" points="187,10 208,40 187,70" fill="rgb(255,255,255)" fill-opacity="1.0" stroke="rgb(0,0,0)" stroke-width="2"  />
			<g>
				<title>NAD_binding_7 (PF13241)
"Putative NAD(P)-binding"</title>
				<polygon class="PF13241" points="187,28 196,28 197,30 197,50 196,52 187,52" stroke-linejoin="round" width="10" height="24" fill="rgb(94,207,130)" stroke="rgb(75,165,104)" stroke-width="1" opacity="0.75" />
			</g>
			<g>
				<title>Sirohm_synth_M (PF14824)
"Sirohaem biosynthesis protein central"</title>
				<polygon class="PF14824" points="198,31 200,34 200,46 198,49" stroke-linejoin="round" width="2" height="24" fill="rgb(77,187,121)" stroke="rgb(61,149,96)" stroke-width="1" opacity="0.75" />
			</g>
			<g>
				<title>CysG_dimeriser (PF10414)
"Sirohaem synthase dimerisation region"</title>
				<polygon class="PF10414" points="201,36 204,40 201,44" stroke-linejoin="round" width="5" height="24" fill="rgb(95,200,133)" stroke="rgb(76,160,106)" stroke-width="1" opacity="0.75" />
			</g>
		</g>
		<g>
			<title>hemA2
HemA2</title>
			<polygon class="hemA2
HemA2" points="208,25 221,25 221,10 251,40 221,70 221,55 208,55" fill="rgb(255,255,255)" fill-opacity="1.0" stroke="rgb(0,0,0)" stroke-width="2"  />
			<g>
				<title>GlutR_N (PF05201)
"Glutamyl-tRNAGlu reductase, N-terminal domain"</title>
				<rect class="PF05201" x="208" y="28" stroke-linejoin="round" width="15" height="24" fill="rgb(186,72,209)" stroke="rgb(148,57,167)" stroke-width="1" opacity="0.75" />
			</g>
			<g>
				<title>Shikimate_DH (PF01488)
"Shikimate / quinate 5-dehydrogenase"</title>
				<polygon class="PF01488" points="225,28 234,28 238,32 238,48 234,52 225,52" stroke-linejoin="round" width="13" height="24" fill="rgb(140,196,67)" stroke="rgb(112,156,53)" stroke-width="1" opacity="0.75" />
			</g>
			<g>
				<title>GlutR_dimer (PF00745)
"Glutamyl-tRNAGlu reductase, dimerisation domain"</title>
				<polygon class="PF00745" points="240,34 246,40 240,46" stroke-linejoin="round" width="9" height="24" fill="rgb(72,199,66)" stroke="rgb(57,159,52)" stroke-width="1" opacity="0.75" />
			</g>
		</g>
		<g>
			<title>hemC
HemC</title>
			<polygon class="hemC
HemC" points="252,25 253,25 253,10 283,40 253,70 253,55 252,55" fill="rgb(255,255,255)" fill-opacity="1.0" stroke="rgb(0,0,0)" stroke-width="2"  />
			<g>
				<title>Porphobil_deam (PF01379)
"Porphobilinogen deaminase, dipyromethane cofactor binding domain"</title>
				<polygon class="PF01379" points="252,28 267,28 272,33 272,47 267,52 252,52" stroke-linejoin="round" width="20" height="24" fill="rgb(182,111,66)" stroke="rgb(145,88,52)" stroke-width="1" opacity="0.75" />
			</g>
			<g>
				<title>Porphobil_deamC (PF03900)
"Porphobilinogen deaminase, C-terminal domain"</title>
				<polygon class="PF03900" points="274,35 279,40 274,45" stroke-linejoin="round" width="7" height="24" fill="rgb(152,105,211)" stroke="rgb(121,84,168)" stroke-width="1" opacity="0.75" />
			</g>
		</g>
		<g>
			<title>hemD
HemD</title>
			<polygon class="hemD
HemD" points="283,25 304,25 304,10 334,40 304,70 304,55 283,55" fill="rgb(255,255,255)" fill-opacity="1.0" stroke="rgb(0,0,0)" stroke-width="2"  />
			<g>
				<title>TP_methylase (PF00590)
"Tetrapyrrole (Corrin/Porphyrin) Methylases"</title>
				<rect class="PF00590" x="283" y="28" stroke-linejoin="round" width="21" height="24" fill="rgb(178,80,58)" stroke="rgb(142,64,46)" stroke-width="1" opacity="0.75" />
			</g>
			<g>
				<title>HEM4 (PF02602)
"Uroporphyrinogen-III synthase HemD"</title>
				<polygon class="PF02602" points="309,28 318,28 330,40 318,52 309,52" stroke-linejoin="round" width="23" height="24" fill="rgb(161,184,85)" stroke="rgb(128,147,68)" stroke-width="1" opacity="0.75" />
			</g>
		</g>
		<g>
			<title>nirJ1
NirJ1</title>
			<polygon class="nirJ1
NirJ1" points="340,25 349,25 349,10 379,40 349,70 349,55 340,55" fill="rgb(255,255,255)" fill-opacity="1.0" stroke="rgb(0,0,0)" stroke-width="2"  />
			<g>
				<title>Radical_SAM (PF04055)
"Radical SAM superfamily"</title>
				<rect class="PF04055" x="344" y="28" stroke-linejoin="round" width="15" height="24" fill="rgb(223,193,78)" stroke="rgb(178,154,62)" stroke-width="1" opacity="0.75" />
			</g>
			<g>
				<title>SPASM (PF13186)
"Iron-sulfur cluster-binding domain"</title>
				<polygon class="PF13186" points="369,34 375,40 375,40 369,46" stroke-linejoin="round" width="6" height="24" fill="rgb(70,195,165)" stroke="rgb(56,156,132)" stroke-width="1" opacity="0.75" />
			</g>
		</g>
		<g>
			<title>hemB
HemB</title>
			<polygon class="hemB
HemB" points="387,25 390,25 390,10 420,40 390,70 390,55 387,55" fill="rgb(255,255,255)" fill-opacity="1.0" stroke="rgb(0,0,0)" stroke-width="2"  />
			<g>
				<title>ALAD (PF00490)
"Delta-aminolevulinic acid dehydratase"</title>
				<polygon class="PF00490" points="388,28 403,28 415,40 403,52 388,52" stroke-linejoin="round" width="31" height="24" fill="rgb(54,72,184)" stroke="rgb(43,57,147)" stroke-width="1" opacity="0.75" />
			</g>
		</g>
		<g>
			<title>nirJ2
NirJ2</title>
			<polygon class="nirJ2
NirJ2" points="424,25 427,25 427,10 457,40 427,70 427,55 424,55" fill="rgb(255,255,255)" fill-opacity="1.0" stroke="rgb(0,0,0)" stroke-width="2"  />
			<g>
				<title>Radical_SAM (PF04055)
"Radical SAM superfamily"</title>
				<rect class="PF04055" x="424" y="28" stroke-linejoin="round" width="15" height="24" fill="rgb(223,193,78)" stroke="rgb(178,154,62)" stroke-width="1" opacity="0.75" />
			</g>
			<g>
				<title>SPASM (PF13186)
"Iron-sulfur cluster-binding domain"</title>
				<polygon class="PF13186" points="447,35 452,40 447,45" stroke-linejoin="round" width="6" height="24" fill="rgb(70,195,165)" stroke="rgb(56,156,132)" stroke-width="1" opacity="0.75" />
			</g>
		</g>
		<g>
			<title>nirD
NirD</title>
			<polygon class="nirD
NirD" points="457,10 473,40 457,70" fill="rgb(255,255,255)" fill-opacity="1.0" stroke="rgb(0,0,0)" stroke-width="2"  />
			<g>
				<title>HTH_AsnC-type (PF13404)
"AsnC-type helix-turn-helix domain"</title>
				<rect class="PF13404" x="458" y="28" stroke-linejoin="round" width="4" height="24" fill="rgb(114,75,220)" stroke="rgb(91,60,176)" stroke-width="1" opacity="0.75" />
			</g>
			<g>
				<title>AsnC_trans_reg2 (PF17805)
"AsnC-like ligand binding domain"</title>
				<polygon class="PF17805" points="464,29 470,40 464,51" stroke-linejoin="round" width="7" height="24" fill="rgb(142,185,87)" stroke="rgb(113,148,69)" stroke-width="1" opacity="0.75" />
			</g>
		</g>
		<g>
			<title>nirL
NirL</title>
			<polygon class="nirL
NirL" points="478,10 494,40 478,70" fill="rgb(255,255,255)" fill-opacity="1.0" stroke="rgb(0,0,0)" stroke-width="2"  />
			<g>
				<title>HTH_AsnC-type (PF13404)
"AsnC-type helix-turn-helix domain"</title>
				<rect class="PF13404" x="478" y="28" stroke-linejoin="round" width="4" height="24" fill="rgb(114,75,220)" stroke="rgb(91,60,176)" stroke-width="1" opacity="0.75" />
			</g>
			<g>
				<title>AsnC_trans_reg2 (PF17805)
"AsnC-like ligand binding domain"</title>
				<polygon class="PF17805" points="484,28 484,28 490,40 484,52 484,52" stroke-linejoin="round" width="8" height="24" fill="rgb(142,185,87)" stroke="rgb(113,148,69)" stroke-width="1" opacity="0.75" />
			</g>
		</g>
		<g>
			<title>hemL
HemL</title>
			<polygon class="hemL
HemL" points="495,25 507,25 507,10 537,40 507,70 507,55 495,55" fill="rgb(255,255,255)" fill-opacity="1.0" stroke="rgb(0,0,0)" stroke-width="2"  />
			<g>
				<title>Aminotran_3 (PF00202)
"Aminotransferase class-III"</title>
				<polygon class="PF00202" points="498,28 521,28 533,40 521,52 498,52" stroke-linejoin="round" width="39" height="24" fill="rgb(182,63,213)" stroke="rgb(145,50,170)" stroke-width="1" opacity="0.75" />
			</g>
		</g>
		<g>
			<title>orf311
hypothetical protein</title>
			<polygon class="orf311
hypothetical protein" points="543,25 544,25 544,10 574,40 544,70 544,55 543,55" fill="rgb(255,255,255)" fill-opacity="1.0" stroke="rgb(0,0,0)" stroke-width="2"  />
			<g>
				<title>Cu_amine_oxidN1 (PF07833)
"Copper amine oxidase N-terminal domain"</title>
				<rect class="PF07833" x="547" y="28" stroke-linejoin="round" width="9" height="24" fill="rgb(85,115,197)" stroke="rgb(68,92,157)" stroke-width="1" opacity="0.75" />
			</g>
			<g>
				<title>SLH (PF00395)
"S-layer homology domain"</title>
				<polygon class="PF00395" points="562,33 565,36 565,44 562,47" stroke-linejoin="round" width="3" height="24" fill="rgb(127,75,190)" stroke="rgb(101,60,152)" stroke-width="1" opacity="0.75" />
			</g>
		</g>
	</g>
</svg>
