<svg version="1.1" baseProfile="full" xmlns="http://www.w3.org/2000/svg" width="176.2" height="1520">
	<g>
		<line x1="10" y1="40.0" x2="29.0" y2="40.0" style="stroke:rgb(70,70,70); stroke-width:3 "/>
		<g>
			<title>PhomC
putative cupin domain protein</title>
			<polygon class="PhomC
putative cupin domain protein" points="10,10 29,40 10,70" fill="rgb(255,255,255)" fill-opacity="1.0" stroke="rgb(0,0,0)" stroke-width="2"  />
			<g>
				<title>Cupin_2 (PF07883)
"Cupin domain"</title>
				<polygon class="PF07883" points="19,30 25,40 19,50" stroke-linejoin="round" width="7" height="24" fill="rgb(191,63,205)" stroke="rgb(152,50,164)" stroke-width="1" opacity="0.75" />
			</g>
		</g>
	</g>
	<g>
		<line x1="10" y1="120.0" x2="57.0" y2="120.0" style="stroke:rgb(70,70,70); stroke-width:3 "/>
		<g>
			<title>PhomD
zinc finger protein</title>
			<polygon class="PhomD
zinc finger protein" points="10,105 27,105 27,90 57,120 27,150 27,135 10,135" fill="rgb(255,255,255)" fill-opacity="1.0" stroke="rgb(0,0,0)" stroke-width="2"  />
		</g>
	</g>
	<g>
		<line x1="10" y1="200.0" x2="69.6" y2="200.0" style="stroke:rgb(70,70,70); stroke-width:3 "/>
		<g>
			<title>PhomT
MFS multidrug transporter</title>
			<polygon class="PhomT
MFS multidrug transporter" points="10,185 39,185 39,170 69,200 39,230 39,215 10,215" fill="rgb(255,255,255)" fill-opacity="1.0" stroke="rgb(0,0,0)" stroke-width="2"  />
		</g>
	</g>
	<g>
		<line x1="10" y1="280.0" x2="49.7" y2="280.0" style="stroke:rgb(70,70,70); stroke-width:3 "/>
		<g>
			<title>PhomE
putative salicylate hydroxylase</title>
			<polygon class="PhomE
putative salicylate hydroxylase" points="10,265 19,265 19,250 49,280 19,310 19,295 10,295" fill="rgb(255,255,255)" fill-opacity="1.0" stroke="rgb(0,0,0)" stroke-width="2"  />
		</g>
	</g>
	<g>
		<line x1="10" y1="360.0" x2="39.4" y2="360.0" style="stroke:rgb(70,70,70); stroke-width:3 "/>
		<g>
			<title>PhomF
putative short chain dehydrogenase reductase</title>
			<polygon class="PhomF
putative short chain dehydrogenase reductase" points="10,330 39,360 10,390" fill="rgb(255,255,255)" fill-opacity="1.0" stroke="rgb(0,0,0)" stroke-width="2"  />
		</g>
	</g>
	<g>
		<line x1="10" y1="440.0" x2="22.2" y2="440.0" style="stroke:rgb(70,70,70); stroke-width:3 "/>
		<g>
			<title>PhomYa
DUF3328 protein</title>
			<polygon class="PhomYa
DUF3328 protein" points="10,410 22,440 10,470" fill="rgb(255,255,255)" fill-opacity="1.0" stroke="rgb(0,0,0)" stroke-width="2"  />
		</g>
	</g>
	<g>
		<line x1="10" y1="520.0" x2="76.7" y2="520.0" style="stroke:rgb(70,70,70); stroke-width:3 "/>
		<g>
			<title>PhomP
peptidase S41 family protein</title>
			<polygon class="PhomP
peptidase S41 family protein" points="10,505 46,505 46,490 76,520 46,550 46,535 10,535" fill="rgb(255,255,255)" fill-opacity="1.0" stroke="rgb(0,0,0)" stroke-width="2"  />
		</g>
	</g>
	<g>
		<line x1="10" y1="600.0" x2="35.2" y2="600.0" style="stroke:rgb(70,70,70); stroke-width:3 "/>
		<g>
			<title>PhomYb
DUF3328 protein</title>
			<polygon class="PhomYb
DUF3328 protein" points="10,570 35,600 10,630" fill="rgb(255,255,255)" fill-opacity="1.0" stroke="rgb(0,0,0)" stroke-width="2"  />
		</g>
	</g>
	<g>
		<line x1="10" y1="680.0" x2="24.5" y2="680.0" style="stroke:rgb(70,70,70); stroke-width:3 "/>
		<g>
			<title>PhomA
precursor peptide</title>
			<polygon class="PhomA
precursor peptide" points="10,650 24,680 10,710" fill="rgb(255,255,255)" fill-opacity="1.0" stroke="rgb(0,0,0)" stroke-width="2"  />
		</g>
	</g>
	<g>
		<line x1="10" y1="760.0" x2="74.0" y2="760.0" style="stroke:rgb(70,70,70); stroke-width:3 "/>
		<g>
			<title>PhomR
transcription factor</title>
			<polygon class="PhomR
transcription factor" points="10,745 44,745 44,730 74,760 44,790 44,775 10,775" fill="rgb(255,255,255)" fill-opacity="1.0" stroke="rgb(0,0,0)" stroke-width="2"  />
		</g>
	</g>
	<g>
		<line x1="10" y1="840.0" x2="166.2" y2="840.0" style="stroke:rgb(70,70,70); stroke-width:3 "/>
		<g>
			<title>PhomO
ABC transporter</title>
			<polygon class="PhomO
ABC transporter" points="10,825 136,825 136,810 166,840 136,870 136,855 10,855" fill="rgb(255,255,255)" fill-opacity="1.0" stroke="rgb(0,0,0)" stroke-width="2"  />
		</g>
	</g>
	<g>
		<line x1="10" y1="920.0" x2="48.8" y2="920.0" style="stroke:rgb(70,70,70); stroke-width:3 "/>
		<g>
			<title>PhomM
methytransferase</title>
			<polygon class="PhomM
methytransferase" points="10,905 18,905 18,890 48,920 18,950 18,935 10,935" fill="rgb(255,255,255)" fill-opacity="1.0" stroke="rgb(0,0,0)" stroke-width="2"  />
		</g>
	</g>
	<g>
		<line x1="10" y1="1000.0" x2="44.3" y2="1000.0" style="stroke:rgb(70,70,70); stroke-width:3 "/>
		<g>
			<title>PhomB
hypothetical protein</title>
			<polygon class="PhomB
hypothetical protein" points="10,985 14,985 14,970 44,1000 14,1030 14,1015 10,1015" fill="rgb(255,255,255)" fill-opacity="1.0" stroke="rgb(0,0,0)" stroke-width="2"  />
		</g>
	</g>
	<g>
		<line x1="10" y1="1080.0" x2="94.3" y2="1080.0" style="stroke:rgb(70,70,70); stroke-width:3 "/>
		<g>
			<title>PhomP2
oligopeptide transporter</title>
			<polygon class="PhomP2
oligopeptide transporter" points="10,1065 64,1065 64,1050 94,1080 64,1110 64,1095 10,1095" fill="rgb(255,255,255)" fill-opacity="1.0" stroke="rgb(0,0,0)" stroke-width="2"  />
		</g>
	</g>
	<g>
		<line x1="10" y1="1160.0" x2="35.5" y2="1160.0" style="stroke:rgb(70,70,70); stroke-width:3 "/>
		<g>
			<title>PhomYc
DUF3328 protein</title>
			<polygon class="PhomYc
DUF3328 protein" points="10,1130 35,1160 10,1190" fill="rgb(255,255,255)" fill-opacity="1.0" stroke="rgb(0,0,0)" stroke-width="2"  />
		</g>
	</g>
	<g>
		<line x1="10" y1="1240.0" x2="47.9" y2="1240.0" style="stroke:rgb(70,70,70); stroke-width:3 "/>
		<g>
			<title>PhomQ
tyrosinase</title>
			<polygon class="PhomQ
tyrosinase" points="10,1225 17,1225 17,1210 47,1240 17,1270 17,1255 10,1255" fill="rgb(255,255,255)" fill-opacity="1.0" stroke="rgb(0,0,0)" stroke-width="2"  />
		</g>
	</g>
	<g>
		<line x1="10" y1="1320.0" x2="33.5" y2="1320.0" style="stroke:rgb(70,70,70); stroke-width:3 "/>
		<g>
			<title>PhomYd
DUF3328 protein</title>
			<polygon class="PhomYd
DUF3328 protein" points="10,1290 33,1320 10,1350" fill="rgb(255,255,255)" fill-opacity="1.0" stroke="rgb(0,0,0)" stroke-width="2"  />
		</g>
	</g>
	<g>
		<line x1="10" y1="1400.0" x2="38.6" y2="1400.0" style="stroke:rgb(70,70,70); stroke-width:3 "/>
		<g>
			<title>PhomYe
DUF3328 protein</title>
			<polygon class="PhomYe
DUF3328 protein" points="10,1370 38,1400 10,1430" fill="rgb(255,255,255)" fill-opacity="1.0" stroke="rgb(0,0,0)" stroke-width="2"  />
		</g>
	</g>
	<g>
		<line x1="10" y1="1480.0" x2="131.4" y2="1480.0" style="stroke:rgb(70,70,70); stroke-width:3 "/>
		<g>
			<title>PhomG
peptidase</title>
			<polygon class="PhomG
peptidase" points="10,1465 101,1465 101,1450 131,1480 101,1510 101,1495 10,1495" fill="rgb(255,255,255)" fill-opacity="1.0" stroke="rgb(0,0,0)" stroke-width="2"  />
		</g>
	</g>
</svg>
