<svg version="1.1" baseProfile="full" xmlns="http://www.w3.org/2000/svg" width="525.7" height="80">
	<g>
		<line x1="10" y1="40.0" x2="515.7" y2="40.0" style="stroke:rgb(70,70,70); stroke-width:3 "/>
		<g>
			<title>
putative relaxase</title>
			<polygon class="
putative relaxase" points="10,25 42,25 42,10 72,40 42,70 42,55 10,55" fill="rgb(255,255,255)" fill-opacity="1.0" stroke="rgb(0,0,0)" stroke-width="2"  />
			<g>
				<title>Relaxase (PF03432)
"Relaxase/Mobilisation nuclease domain"</title>
				<rect class="PF03432" x="11" y="28" stroke-linejoin="round" width="24" height="24" fill="rgb(81,179,104)" stroke="rgb(64,143,83)" stroke-width="1" opacity="0.75" />
			</g>
			<g>
				<title>Relaxase_M (PF20874)
"Relaxase central domain"</title>
				<polygon class="PF20874" points="48,28 55,28 56,29 56,51 55,52 48,52" stroke-linejoin="round" width="8" height="24" fill="rgb(105,127,218)" stroke="rgb(84,101,174)" stroke-width="1" opacity="0.75" />
			</g>
			<g>
				<title>Relaxase_C (PF11083)
"C-terminal helical hairpin domain from relaxase"</title>
				<polygon class="PF11083" points="58,31 67,40 58,49" stroke-linejoin="round" width="12" height="24" fill="rgb(193,92,124)" stroke="rgb(154,73,99)" stroke-width="1" opacity="0.75" />
			</g>
		</g>
		<g>
			<title>mcdK
McdK</title>
			<polygon class="mcdK
McdK" points="119,25 104,25 104,10 74,40 104,70 104,55 119,55" fill="rgb(255,255,255)" fill-opacity="1.0" stroke="rgb(0,0,0)" stroke-width="2"  />
			<g>
				<title>HATPase_c (PF02518)
"Histidine kinase-, DNA gyrase B-, and HSP90-like ATPase"</title>
				<polygon class="PF02518" points="78,40 85,33 85,47" stroke-linejoin="round" width="11" height="24" fill="rgb(94,146,210)" stroke="rgb(75,116,168)" stroke-width="1" opacity="0.75" />
			</g>
			<g>
				<title>HisKA (PF00512)
"His Kinase A (phospho-acceptor) domain"</title>
				<polygon class="PF00512" points="90,28 90,28 96,28 96,52 90,52 90,52" stroke-linejoin="round" width="6" height="24" fill="rgb(57,81,199)" stroke="rgb(45,64,159)" stroke-width="1" opacity="0.75" />
			</g>
		</g>
		<g>
			<title>mcdR
McdR</title>
			<polygon class="mcdR
McdR" points="120,40 143,10 143,70" fill="rgb(255,255,255)" fill-opacity="1.0" stroke="rgb(0,0,0)" stroke-width="2"  />
			<g>
				<title>Trans_reg_C (PF00486)
"Transcriptional regulatory protein, C terminal"</title>
				<polygon class="PF00486" points="124,40 127,36 127,44" stroke-linejoin="round" width="7" height="24" fill="rgb(69,185,116)" stroke="rgb(55,148,92)" stroke-width="1" opacity="0.75" />
			</g>
			<g>
				<title>Response_reg (PF00072)
"Response regulator receiver domain"</title>
				<polygon class="PF00072" points="131,31 133,28 142,28 142,52 133,52 131,49" stroke-linejoin="round" width="11" height="24" fill="rgb(59,131,198)" stroke="rgb(47,104,158)" stroke-width="1" opacity="0.75" />
			</g>
		</g>
		<g>
			<title>tnp
putative transposase</title>
			<polygon class="tnp
putative transposase" points="186,25 177,25 177,10 147,40 177,70 177,55 186,55" fill="rgb(255,255,255)" fill-opacity="1.0" stroke="rgb(0,0,0)" stroke-width="2"  />
			<g>
				<title>Transposase_mut (PF00872)
"Transposase, Mutator family"</title>
				<polygon class="PF00872" points="151,40 163,28 186,28 186,52 163,52" stroke-linejoin="round" width="37" height="24" fill="rgb(81,171,191)" stroke="rgb(64,136,152)" stroke-width="1" opacity="0.75" />
			</g>
		</g>
		<g>
			<title>mcdA
McdA</title>
			<polygon class="mcdA
McdA" points="195,10 200,40 195,70" fill="rgb(255,255,255)" fill-opacity="1.0" stroke="rgb(0,0,0)" stroke-width="2"  />
			<g>
				<title>L_biotic_typeA (PF04604)
"Type-A lantibiotic"</title>
				<polygon class="PF04604" points="195,28 197,40 195,52" stroke-linejoin="round" width="4" height="24" fill="rgb(103,168,227)" stroke="rgb(82,134,181)" stroke-width="1" opacity="0.75" />
			</g>
		</g>
		<g>
			<title>mcdA_
McdA'</title>
			<polygon class="mcdA_
McdA'" points="201,10 206,40 201,70" fill="rgb(255,255,255)" fill-opacity="1.0" stroke="rgb(0,0,0)" stroke-width="2"  />
			<g>
				<title>L_biotic_typeA (PF04604)
"Type-A lantibiotic"</title>
				<polygon class="PF04604" points="201,28 203,40 201,52" stroke-linejoin="round" width="4" height="24" fill="rgb(103,168,227)" stroke="rgb(82,134,181)" stroke-width="1" opacity="0.75" />
			</g>
		</g>
		<g>
			<title>mcdA1
McdA1</title>
			<polygon class="mcdA1
McdA1" points="221,10 226,40 221,70" fill="rgb(255,255,255)" fill-opacity="1.0" stroke="rgb(0,0,0)" stroke-width="2"  />
			<g>
				<title>L_biotic_typeA (PF04604)
"Type-A lantibiotic"</title>
				<polygon class="PF04604" points="221,27 223,40 221,53" stroke-linejoin="round" width="5" height="24" fill="rgb(103,168,227)" stroke="rgb(82,134,181)" stroke-width="1" opacity="0.75" />
			</g>
		</g>
		<g>
			<title>mcdM
McdM</title>
			<polygon class="mcdM
McdM" points="227,25 289,25 289,10 319,40 289,70 289,55 227,55" fill="rgb(255,255,255)" fill-opacity="1.0" stroke="rgb(0,0,0)" stroke-width="2"  />
			<g>
				<title>DUF4135 (PF13575)
"Domain of unknown function (DUF4135)"</title>
				<rect class="PF13575" x="236" y="28" stroke-linejoin="round" width="37" height="24" fill="rgb(170,90,215)" stroke="rgb(135,72,172)" stroke-width="1" opacity="0.75" />
			</g>
			<g>
				<title>LANC_like (PF05147)
"Lanthionine synthetase C-like protein"</title>
				<polygon class="PF05147" points="285,28 303,28 315,40 303,52 285,52" stroke-linejoin="round" width="34" height="24" fill="rgb(91,189,96)" stroke="rgb(72,151,76)" stroke-width="1" opacity="0.75" />
			</g>
		</g>
		<g>
			<title>mcdT
McdT</title>
			<polygon class="mcdT
McdT" points="321,25 360,25 360,10 390,40 360,70 360,55 321,55" fill="rgb(255,255,255)" fill-opacity="1.0" stroke="rgb(0,0,0)" stroke-width="2"  />
			<g>
				<title>Peptidase_C39 (PF03412)
"Peptidase C39 family"</title>
				<rect class="PF03412" x="321" y="28" stroke-linejoin="round" width="13" height="24" fill="rgb(93,118,202)" stroke="rgb(74,94,161)" stroke-width="1" opacity="0.75" />
			</g>
			<g>
				<title>ABC_membrane (PF00664)
"ABC transporter transmembrane region"</title>
				<rect class="PF00664" x="336" y="28" stroke-linejoin="round" width="26" height="24" fill="rgb(62,71,183)" stroke="rgb(49,56,146)" stroke-width="1" opacity="0.75" />
			</g>
			<g>
				<title>ABC_tran (PF00005)
"ABC transporter"</title>
				<polygon class="PF00005" points="368,28 373,28 381,36 381,44 373,52 368,52" stroke-linejoin="round" width="13" height="24" fill="rgb(46,186,108)" stroke="rgb(36,148,86)" stroke-width="1" opacity="0.75" />
			</g>
		</g>
		<g>
			<title>mcdF
McdF</title>
			<polygon class="mcdF
McdF" points="394,25 394,25 394,10 424,40 394,70 394,55 394,55" fill="rgb(255,255,255)" fill-opacity="1.0" stroke="rgb(0,0,0)" stroke-width="2"  />
			<g>
				<title>ABC_tran (PF00005)
"ABC transporter"</title>
				<polygon class="PF00005" points="396,28 408,28 410,30 410,50 408,52 396,52" stroke-linejoin="round" width="14" height="24" fill="rgb(46,186,108)" stroke="rgb(36,148,86)" stroke-width="1" opacity="0.75" />
			</g>
		</g>
		<g>
			<title>mcdE
McdE</title>
			<polygon class="mcdE
McdE" points="424,10 449,40 424,70" fill="rgb(255,255,255)" fill-opacity="1.0" stroke="rgb(0,0,0)" stroke-width="2"  />
			<g>
				<title>ABC2_membrane_4 (PF12730)
"ABC-2 family transporter protein"</title>
				<polygon class="PF12730" points="424,28 435,28 441,35 441,45 435,52 424,52" stroke-linejoin="round" width="17" height="24" fill="rgb(161,62,179)" stroke="rgb(128,49,143)" stroke-width="1" opacity="0.75" />
			</g>
		</g>
		<g>
			<title>mcdG
McdG</title>
			<polygon class="mcdG
McdG" points="452,10 476,40 452,70" fill="rgb(255,255,255)" fill-opacity="1.0" stroke="rgb(0,0,0)" stroke-width="2"  />
			<g>
				<title>ABC2_membrane_4 (PF12730)
"ABC-2 family transporter protein"</title>
				<polygon class="PF12730" points="452,28 463,28 469,36 469,44 463,52 452,52" stroke-linejoin="round" width="17" height="24" fill="rgb(161,62,179)" stroke="rgb(128,49,143)" stroke-width="1" opacity="0.75" />
			</g>
		</g>
		<g>
			<title>
hypothetical protein</title>
			<polygon class="
hypothetical protein" points="486,10 493,40 486,70" fill="rgb(255,255,255)" fill-opacity="1.0" stroke="rgb(0,0,0)" stroke-width="2"  />
			<g>
				<title>HTH_19 (PF12844)
"Helix-turn-helix domain"</title>
				<polygon class="PF12844" points="486,28 486,28 490,40 486,52 486,52" stroke-linejoin="round" width="6" height="24" fill="rgb(99,86,186)" stroke="rgb(79,68,148)" stroke-width="1" opacity="0.75" />
			</g>
		</g>
		<g>
			<title>
hypothetical protein</title>
			<polygon class="
hypothetical protein" points="509,10 515,40 509,70" fill="rgb(255,255,255)" fill-opacity="1.0" stroke="rgb(0,0,0)" stroke-width="2"  />
		</g>
	</g>
</svg>
