<svg version="1.1" baseProfile="full" xmlns="http://www.w3.org/2000/svg" width="1875.0333333333333" height="80">
	<g>
		<line x1="10" y1="40.0" x2="1865.0333333333333" y2="40.0" style="stroke:rgb(70,70,70); stroke-width:3 "/>
		<g>
			<title>
partitioning binding protein</title>
			<polygon class="
partitioning binding protein" points="43,25 40,25 40,10 10,40 40,70 40,55 43,55" fill="rgb(255,255,255)" fill-opacity="1.0" stroke="rgb(0,0,0)" stroke-width="2"  />
		</g>
		<g>
			<title>
hypothetical protein</title>
			<polygon class="
hypothetical protein" points="108,25 88,25 88,10 58,40 88,70 88,55 108,55" fill="rgb(255,255,255)" fill-opacity="1.0" stroke="rgb(0,0,0)" stroke-width="2"  />
		</g>
		<g>
			<title>
hypothetical protein</title>
			<polygon class="
hypothetical protein" points="173,25 156,25 156,10 126,40 156,70 156,55 173,55" fill="rgb(255,255,255)" fill-opacity="1.0" stroke="rgb(0,0,0)" stroke-width="2"  />
			<g>
				<title>DUF6177 (PF19674)
"Family of unknown function (DUF6177)"</title>
				<polygon class="PF19674" points="130,40 142,28 160,28 160,52 142,52" stroke-linejoin="round" width="34" height="24" fill="rgb(51,196,167)" stroke="rgb(40,156,133)" stroke-width="1" opacity="0.75" />
			</g>
		</g>
		<g>
			<title>
hypothetical protein</title>
			<polygon class="
hypothetical protein" points="295,25 205,25 205,10 175,40 205,70 205,55 295,55" fill="rgb(255,255,255)" fill-opacity="1.0" stroke="rgb(0,0,0)" stroke-width="2"  />
			<g>
				<title>FtsK_SpoIIIE (PF01580)
"FtsK/SpoIIIE family"</title>
				<rect class="PF01580" x="204" y="28" stroke-linejoin="round" width="23" height="24" fill="rgb(85,60,218)" stroke="rgb(67,47,174)" stroke-width="1" opacity="0.75" />
			</g>
			<g>
				<title>FtsK_SpoIIIE (PF01580)
"FtsK/SpoIIIE family"</title>
				<rect class="PF01580" x="244" y="28" stroke-linejoin="round" width="19" height="24" fill="rgb(85,60,218)" stroke="rgb(67,47,174)" stroke-width="1" opacity="0.75" />
			</g>
		</g>
		<g>
			<title>
Serine/threonine kinase</title>
			<polygon class="
Serine/threonine kinase" points="440,25 347,25 347,10 317,40 347,70 347,55 440,55" fill="rgb(255,255,255)" fill-opacity="1.0" stroke="rgb(0,0,0)" stroke-width="2"  />
			<g>
				<title>PadR (PF03551)
"Transcriptional regulator PadR-like family"</title>
				<polygon class="PF03551" points="323,38 329,32 329,48 323,42" stroke-linejoin="round" width="6" height="24" fill="rgb(101,169,228)" stroke="rgb(80,135,182)" stroke-width="1" opacity="0.75" />
			</g>
			<g>
				<title>Pkinase (PF00069)
"Protein kinase domain"</title>
				<rect class="PF00069" x="352" y="28" stroke-linejoin="round" width="25" height="24" fill="rgb(93,191,206)" stroke="rgb(74,152,164)" stroke-width="1" opacity="0.75" />
			</g>
			<g>
				<title>Pkinase (PF00069)
"Protein kinase domain"</title>
				<rect class="PF00069" x="414" y="28" stroke-linejoin="round" width="20" height="24" fill="rgb(93,191,206)" stroke="rgb(74,152,164)" stroke-width="1" opacity="0.75" />
			</g>
		</g>
		<g>
			<title>getA
Thioesterase</title>
			<polygon class="getA
Thioesterase" points="469,10 497,40 469,70" fill="rgb(255,255,255)" fill-opacity="1.0" stroke="rgb(0,0,0)" stroke-width="2"  />
			<g>
				<title>Thioesterase (PF00975)
"Thioesterase domain"</title>
				<polygon class="PF00975" points="473,28 481,28 493,40 481,52 473,52" stroke-linejoin="round" width="22" height="24" fill="rgb(69,76,223)" stroke="rgb(55,60,178)" stroke-width="1" opacity="0.75" />
			</g>
		</g>
		<g>
			<title>getB
ABC multidrug transporter</title>
			<polygon class="getB
ABC multidrug transporter" points="502,25 528,25 528,10 558,40 528,70 528,55 502,55" fill="rgb(255,255,255)" fill-opacity="1.0" stroke="rgb(0,0,0)" stroke-width="2"  />
			<g>
				<title>ABC_membrane (PF00664)
"ABC transporter transmembrane region"</title>
				<rect class="PF00664" x="505" y="28" stroke-linejoin="round" width="26" height="24" fill="rgb(62,71,183)" stroke="rgb(49,56,146)" stroke-width="1" opacity="0.75" />
			</g>
			<g>
				<title>ABC_tran (PF00005)
"ABC transporter"</title>
				<polygon class="PF00005" points="539,28 542,28 550,36 550,44 542,52 539,52" stroke-linejoin="round" width="11" height="24" fill="rgb(46,186,108)" stroke="rgb(36,148,86)" stroke-width="1" opacity="0.75" />
			</g>
		</g>
		<g>
			<title>getC
ABC multidrug transporter</title>
			<polygon class="getC
ABC multidrug transporter" points="560,25 589,25 589,10 619,40 589,70 589,55 560,55" fill="rgb(255,255,255)" fill-opacity="1.0" stroke="rgb(0,0,0)" stroke-width="2"  />
			<g>
				<title>ABC_membrane (PF00664)
"ABC transporter transmembrane region"</title>
				<rect class="PF00664" x="562" y="28" stroke-linejoin="round" width="27" height="24" fill="rgb(62,71,183)" stroke="rgb(49,56,146)" stroke-width="1" opacity="0.75" />
			</g>
			<g>
				<title>ABC_tran (PF00005)
"ABC transporter"</title>
				<polygon class="PF00005" points="595,28 603,28 609,34 609,46 603,52 595,52" stroke-linejoin="round" width="14" height="24" fill="rgb(46,186,108)" stroke="rgb(36,148,86)" stroke-width="1" opacity="0.75" />
			</g>
		</g>
		<g>
			<title>getD
cyclodeaminase</title>
			<polygon class="getD
cyclodeaminase" points="616,25 626,25 626,10 656,40 626,70 626,55 616,55" fill="rgb(255,255,255)" fill-opacity="1.0" stroke="rgb(0,0,0)" stroke-width="2"  />
			<g>
				<title>OCD_Mu_crystall (PF02423)
"Ornithine cyclodeaminase/mu-crystallin family"</title>
				<polygon class="PF02423" points="622,28 639,28 651,40 651,40 639,52 622,52" stroke-linejoin="round" width="29" height="24" fill="rgb(225,111,164)" stroke="rgb(180,88,131)" stroke-width="1" opacity="0.75" />
			</g>
		</g>
		<g>
			<title>getE
NRPS A-domain</title>
			<polygon class="getE
NRPS A-domain" points="658,25 679,25 679,10 709,40 679,70 679,55 658,55" fill="rgb(255,255,255)" fill-opacity="1.0" stroke="rgb(0,0,0)" stroke-width="2"  />
			<g>
				<title>AMP-binding (PF00501)
"AMP-binding enzyme"</title>
				<rect class="PF00501" x="658" y="28" stroke-linejoin="round" width="35" height="24" fill="rgb(189,78,204)" stroke="rgb(151,62,163)" stroke-width="1" opacity="0.75" />
			</g>
		</g>
		<g>
			<title>getF
putative pipecolic acid hydroxylase</title>
			<polygon class="getF
putative pipecolic acid hydroxylase" points="745,25 739,25 739,10 709,40 739,70 739,55 745,55" fill="rgb(255,255,255)" fill-opacity="1.0" stroke="rgb(0,0,0)" stroke-width="2"  />
			<g>
				<title>Pro_3_hydrox_C (PF05373)
"L-proline 3-hydroxylase, C-terminal"</title>
				<polygon class="PF05373" points="713,40 718,35 718,45" stroke-linejoin="round" width="9" height="24" fill="rgb(196,117,95)" stroke="rgb(156,93,76)" stroke-width="1" opacity="0.75" />
			</g>
			<g>
				<title>Asp_Arg_Hydrox (PF05118)
"Aspartyl/Asparaginyl beta-hydroxylase"</title>
				<polygon class="PF05118" points="719,34 725,28 734,28 734,52 725,52 719,46" stroke-linejoin="round" width="15" height="24" fill="rgb(65,114,183)" stroke="rgb(51,91,146)" stroke-width="1" opacity="0.75" />
			</g>
		</g>
		<g>
			<title>getH
NRPS didomain PCP-C</title>
			<polygon class="getH
NRPS didomain PCP-C" points="744,25 954,25 954,10 984,40 954,70 954,55 744,55" fill="rgb(255,255,255)" fill-opacity="1.0" stroke="rgb(0,0,0)" stroke-width="2"  />
			<g>
				<title>AMP-binding (PF00501)
"AMP-binding enzyme"</title>
				<rect class="PF00501" x="769" y="28" stroke-linejoin="round" width="35" height="24" fill="rgb(189,78,204)" stroke="rgb(151,62,163)" stroke-width="1" opacity="0.75" />
			</g>
			<g>
				<title>PP-binding (PF00550)
"Phosphopantetheine attachment site"</title>
				<rect class="PF00550" x="820" y="28" stroke-linejoin="round" width="6" height="24" fill="rgb(181,58,166)" stroke="rgb(144,46,132)" stroke-width="1" opacity="0.75" />
			</g>
			<g>
				<title>Condensation (PF00668)
"Condensation domain"</title>
				<rect class="PF00668" x="829" y="28" stroke-linejoin="round" width="12" height="24" fill="rgb(172,217,60)" stroke="rgb(137,173,47)" stroke-width="1" opacity="0.75" />
			</g>
			<g>
				<title>Condensation (PF00668)
"Condensation domain"</title>
				<rect class="PF00668" x="843" y="28" stroke-linejoin="round" width="31" height="24" fill="rgb(172,217,60)" stroke="rgb(137,173,47)" stroke-width="1" opacity="0.75" />
			</g>
			<g>
				<title>AMP-binding (PF00501)
"AMP-binding enzyme"</title>
				<rect class="PF00501" x="877" y="28" stroke-linejoin="round" width="37" height="24" fill="rgb(189,78,204)" stroke="rgb(151,62,163)" stroke-width="1" opacity="0.75" />
			</g>
			<g>
				<title>AMP-binding_C (PF13193)
"AMP-binding enzyme C-terminal domain"</title>
				<rect class="PF13193" x="920" y="28" stroke-linejoin="round" width="7" height="24" fill="rgb(195,82,106)" stroke="rgb(156,65,84)" stroke-width="1" opacity="0.75" />
			</g>
			<g>
				<title>PP-binding (PF00550)
"Phosphopantetheine attachment site"</title>
				<rect class="PF00550" x="931" y="28" stroke-linejoin="round" width="5" height="24" fill="rgb(181,58,166)" stroke="rgb(144,46,132)" stroke-width="1" opacity="0.75" />
			</g>
			<g>
				<title>Condensation (PF00668)
"Condensation domain"</title>
				<polygon class="PF00668" points="938,28 968,28 980,40 980,40 968,52 938,52" stroke-linejoin="round" width="42" height="24" fill="rgb(172,217,60)" stroke="rgb(137,173,47)" stroke-width="1" opacity="0.75" />
			</g>
		</g>
		<g>
			<title>getI
putative 2-oxoglutarate/FeII oxygenase</title>
			<polygon class="getI
putative 2-oxoglutarate/FeII oxygenase" points="1040,25 1044,25 1044,10 1074,40 1044,70 1044,55 1040,55" fill="rgb(255,255,255)" fill-opacity="1.0" stroke="rgb(0,0,0)" stroke-width="2"  />
			<g>
				<title>TauD (PF02668)
"Taurine catabolism dioxygenase TauD, TfdA family"</title>
				<polygon class="PF02668" points="1059,29 1070,40 1059,51" stroke-linejoin="round" width="12" height="24" fill="rgb(72,206,196)" stroke="rgb(57,164,156)" stroke-width="1" opacity="0.75" />
			</g>
		</g>
		<g>
			<title>getJ
NRPS didomain PCP-A</title>
			<polygon class="getJ
NRPS didomain PCP-A" points="1160,25 1108,25 1108,10 1078,40 1108,70 1108,55 1160,55" fill="rgb(255,255,255)" fill-opacity="1.0" stroke="rgb(0,0,0)" stroke-width="2"  />
			<g>
				<title>PP-binding (PF00550)
"Phosphopantetheine attachment site"</title>
				<polygon class="PF00550" points="1082,40 1085,37 1085,43" stroke-linejoin="round" width="6" height="24" fill="rgb(181,58,166)" stroke="rgb(144,46,132)" stroke-width="1" opacity="0.75" />
			</g>
			<g>
				<title>AMP-binding_C (PF13193)
"AMP-binding enzyme C-terminal domain"</title>
				<polygon class="PF13193" points="1089,33 1094,28 1096,28 1096,52 1094,52 1089,47" stroke-linejoin="round" width="7" height="24" fill="rgb(195,82,106)" stroke="rgb(156,65,84)" stroke-width="1" opacity="0.75" />
			</g>
			<g>
				<title>AMP-binding (PF00501)
"AMP-binding enzyme"</title>
				<rect class="PF00501" x="1102" y="28" stroke-linejoin="round" width="35" height="24" fill="rgb(189,78,204)" stroke="rgb(151,62,163)" stroke-width="1" opacity="0.75" />
			</g>
		</g>
		<g>
			<title>getK
putative GTP-binding protein</title>
			<polygon class="getK
putative GTP-binding protein" points="1210,25 1197,25 1197,10 1167,40 1197,70 1197,55 1210,55" fill="rgb(255,255,255)" fill-opacity="1.0" stroke="rgb(0,0,0)" stroke-width="2"  />
			<g>
				<title>RsgA_GTPase (PF03193)
"RsgA GTPase"</title>
				<polygon class="PF03193" points="1176,35 1183,28 1193,28 1193,52 1183,52 1176,45" stroke-linejoin="round" width="17" height="24" fill="rgb(65,221,59)" stroke="rgb(51,176,47)" stroke-width="1" opacity="0.75" />
			</g>
		</g>
		<g>
			<title>getL
Halogenase</title>
			<polygon class="getL
Halogenase" points="1276,25 1248,25 1248,10 1218,40 1248,70 1248,55 1276,55" fill="rgb(255,255,255)" fill-opacity="1.0" stroke="rgb(0,0,0)" stroke-width="2"  />
			<g>
				<title>Trp_halogenase (PF04820)
"Tryptophan halogenase"</title>
				<rect class="PF04820" x="1238" y="28" stroke-linejoin="round" width="27" height="24" fill="rgb(175,201,66)" stroke="rgb(139,160,52)" stroke-width="1" opacity="0.75" />
			</g>
		</g>
		<g>
			<title>getM
NRPS didomain A-PCP</title>
			<polygon class="getM
NRPS didomain A-PCP" points="1337,25 1306,25 1306,10 1276,40 1306,70 1306,55 1337,55" fill="rgb(255,255,255)" fill-opacity="1.0" stroke="rgb(0,0,0)" stroke-width="2"  />
			<g>
				<title>PP-binding (PF00550)
"Phosphopantetheine attachment site"</title>
				<polygon class="PF00550" points="1280,40 1283,37 1283,43" stroke-linejoin="round" width="6" height="24" fill="rgb(181,58,166)" stroke="rgb(144,46,132)" stroke-width="1" opacity="0.75" />
			</g>
			<g>
				<title>AMP-binding (PF00501)
"AMP-binding enzyme"</title>
				<rect class="PF00501" x="1299" y="28" stroke-linejoin="round" width="34" height="24" fill="rgb(189,78,204)" stroke="rgb(151,62,163)" stroke-width="1" opacity="0.75" />
			</g>
		</g>
		<g>
			<title>thioesterase
GetN</title>
			<polygon class="thioesterase
GetN" points="1339,40 1367,10 1367,70" fill="rgb(255,255,255)" fill-opacity="1.0" stroke="rgb(0,0,0)" stroke-width="2"  />
			<g>
				<title>Thioesterase (PF00975)
"Thioesterase domain"</title>
				<polygon class="PF00975" points="1349,34 1355,28 1364,28 1364,52 1355,52 1349,46" stroke-linejoin="round" width="15" height="24" fill="rgb(69,76,223)" stroke="rgb(55,60,178)" stroke-width="1" opacity="0.75" />
			</g>
		</g>
		<g>
			<title>
3-oxoacid CoA-transferase</title>
			<polygon class="
3-oxoacid CoA-transferase" points="1366,25 1367,25 1367,10 1397,40 1367,70 1367,55 1366,55" fill="rgb(255,255,255)" fill-opacity="1.0" stroke="rgb(0,0,0)" stroke-width="2"  />
			<g>
				<title>CoA_trans (PF01144)
"Coenzyme A transferase"</title>
				<polygon class="PF01144" points="1376,28 1381,28 1393,40 1381,52 1376,52" stroke-linejoin="round" width="19" height="24" fill="rgb(102,208,197)" stroke="rgb(81,166,157)" stroke-width="1" opacity="0.75" />
			</g>
		</g>
		<g>
			<title>
Protocatechuate 3,4-dioxygenase alpha subunit</title>
			<polygon class="
Protocatechuate 3,4-dioxygenase alpha subunit" points="1402,10 1428,40 1402,70" fill="rgb(255,255,255)" fill-opacity="1.0" stroke="rgb(0,0,0)" stroke-width="2"  />
			<g>
				<title>PCDO_beta_N (PF12391)
"Protocatechuate 3,4-dioxygenase beta subunit N terminal"</title>
				<rect class="PF12391" x="1405" y="28" stroke-linejoin="round" width="3" height="24" fill="rgb(54,192,166)" stroke="rgb(43,153,132)" stroke-width="1" opacity="0.75" />
			</g>
			<g>
				<title>Dioxygenase_C (PF00775)
"Dioxygenase"</title>
				<polygon class="PF00775" points="1408,28 1414,28 1424,40 1414,52 1408,52" stroke-linejoin="round" width="18" height="24" fill="rgb(61,224,204)" stroke="rgb(48,179,163)" stroke-width="1" opacity="0.75" />
			</g>
		</g>
		<g>
			<title>
Protocatechuate 3,4-dioxygenase beta subunit</title>
			<polygon class="
Protocatechuate 3,4-dioxygenase beta subunit" points="1428,10 1447,40 1428,70" fill="rgb(255,255,255)" fill-opacity="1.0" stroke="rgb(0,0,0)" stroke-width="2"  />
		</g>
		<g>
			<title>
3-carboxymuconate cycloisomerase</title>
			<polygon class="
3-carboxymuconate cycloisomerase" points="1444,25 1462,25 1462,10 1492,40 1462,70 1462,55 1444,55" fill="rgb(255,255,255)" fill-opacity="1.0" stroke="rgb(0,0,0)" stroke-width="2"  />
			<g>
				<title>Lyase_1 (PF00206)
"Lyase"</title>
				<polygon class="PF00206" points="1449,28 1476,28 1478,30 1478,50 1476,52 1449,52" stroke-linejoin="round" width="29" height="24" fill="rgb(125,214,85)" stroke="rgb(99,171,68)" stroke-width="1" opacity="0.75" />
			</g>
			<g>
				<title>ADSL_C (PF10397)
"Adenylosuccinate lyase C-terminus"</title>
				<polygon class="PF10397" points="1485,37 1488,40 1485,43" stroke-linejoin="round" width="7" height="24" fill="rgb(95,182,229)" stroke="rgb(76,145,183)" stroke-width="1" opacity="0.75" />
			</g>
		</g>
		<g>
			<title>
Deoxyribose-phosphate aldolase</title>
			<polygon class="
Deoxyribose-phosphate aldolase" points="1493,10 1519,40 1493,70" fill="rgb(255,255,255)" fill-opacity="1.0" stroke="rgb(0,0,0)" stroke-width="2"  />
			<g>
				<title>DeoC (PF01791)
"DeoC/LacD family aldolase"</title>
				<polygon class="PF01791" points="1502,28 1505,28 1515,40 1505,52 1502,52" stroke-linejoin="round" width="14" height="24" fill="rgb(154,53,201)" stroke="rgb(123,42,160)" stroke-width="1" opacity="0.75" />
			</g>
		</g>
		<g>
			<title>
NRPS</title>
			<polygon class="
NRPS" points="1635,25 1546,25 1546,10 1516,40 1546,70 1546,55 1635,55" fill="rgb(255,255,255)" fill-opacity="1.0" stroke="rgb(0,0,0)" stroke-width="2"  />
			<g>
				<title>PP-binding (PF00550)
"Phosphopantetheine attachment site"</title>
				<polygon class="PF00550" points="1523,37 1529,31 1529,49 1523,43" stroke-linejoin="round" width="6" height="24" fill="rgb(181,58,166)" stroke="rgb(144,46,132)" stroke-width="1" opacity="0.75" />
			</g>
			<g>
				<title>AMP-binding_C (PF13193)
"AMP-binding enzyme C-terminal domain"</title>
				<rect class="PF13193" x="1533" y="28" stroke-linejoin="round" width="7" height="24" fill="rgb(195,82,106)" stroke="rgb(156,65,84)" stroke-width="1" opacity="0.75" />
			</g>
			<g>
				<title>AMP-binding (PF00501)
"AMP-binding enzyme"</title>
				<rect class="PF00501" x="1546" y="28" stroke-linejoin="round" width="32" height="24" fill="rgb(189,78,204)" stroke="rgb(151,62,163)" stroke-width="1" opacity="0.75" />
			</g>
			<g>
				<title>Condensation (PF00668)
"Condensation domain"</title>
				<rect class="PF00668" x="1581" y="28" stroke-linejoin="round" width="43" height="24" fill="rgb(172,217,60)" stroke="rgb(137,173,47)" stroke-width="1" opacity="0.75" />
			</g>
			<g>
				<title>PP-binding (PF00550)
"Phosphopantetheine attachment site"</title>
				<rect class="PF00550" x="1626" y="28" stroke-linejoin="round" width="6" height="24" fill="rgb(181,58,166)" stroke="rgb(144,46,132)" stroke-width="1" opacity="0.75" />
			</g>
		</g>
		<g>
			<title>
NRPS</title>
			<polygon class="
NRPS" points="1717,25 1666,25 1666,10 1636,40 1666,70 1666,55 1717,55" fill="rgb(255,255,255)" fill-opacity="1.0" stroke="rgb(0,0,0)" stroke-width="2"  />
			<g>
				<title>Condensation (PF00668)
"Condensation domain"</title>
				<polygon class="PF00668" points="1640,40 1652,28 1682,28 1682,52 1652,52" stroke-linejoin="round" width="44" height="24" fill="rgb(172,217,60)" stroke="rgb(137,173,47)" stroke-width="1" opacity="0.75" />
			</g>
			<g>
				<title>Bac_luciferase (PF00296)
"Luciferase-like monooxygenase"</title>
				<rect class="PF00296" x="1687" y="28" stroke-linejoin="round" width="16" height="24" fill="rgb(50,200,104)" stroke="rgb(40,160,83)" stroke-width="1" opacity="0.75" />
			</g>
		</g>
		<g>
			<title>
putative GTPase</title>
			<polygon class="
putative GTPase" points="1736,40 1764,10 1764,70" fill="rgb(255,255,255)" fill-opacity="1.0" stroke="rgb(0,0,0)" stroke-width="2"  />
			<g>
				<title>YchF-GTPase_C (PF06071)
"Protein of unknown function (DUF933)"</title>
				<polygon class="PF06071" points="1740,40 1744,36 1744,44" stroke-linejoin="round" width="8" height="24" fill="rgb(164,213,82)" stroke="rgb(131,170,65)" stroke-width="1" opacity="0.75" />
			</g>
		</g>
		<g>
			<title>
hypothetical protein</title>
			<polygon class="
hypothetical protein" points="1768,25 1780,25 1780,10 1810,40 1780,70 1780,55 1768,55" fill="rgb(255,255,255)" fill-opacity="1.0" stroke="rgb(0,0,0)" stroke-width="2"  />
			<g>
				<title>GAF_2 (PF13185)
"GAF domain"</title>
				<polygon class="PF13185" points="1788,28 1794,28 1802,36 1802,44 1794,52 1788,52" stroke-linejoin="round" width="14" height="24" fill="rgb(180,56,162)" stroke="rgb(144,44,129)" stroke-width="1" opacity="0.75" />
			</g>
			<g>
				<title>ANTAR (PF03861)
"ANTAR domain"</title>
				<polygon class="PF03861" points="1805,39 1806,40 1805,41" stroke-linejoin="round" width="4" height="24" fill="rgb(110,223,124)" stroke="rgb(88,178,99)" stroke-width="1" opacity="0.75" />
			</g>
		</g>
		<g>
			<title>
Integrin like protein</title>
			<polygon class="
Integrin like protein" points="1816,25 1834,25 1834,10 1864,40 1834,70 1834,55 1816,55" fill="rgb(255,255,255)" fill-opacity="1.0" stroke="rgb(0,0,0)" stroke-width="2"  />
			<g>
				<title>FG-GAP (PF01839)
"FG-GAP repeat"</title>
				<rect class="PF01839" x="1820" y="28" stroke-linejoin="round" width="3" height="24" fill="rgb(151,58,226)" stroke="rgb(120,46,180)" stroke-width="1" opacity="0.75" />
			</g>
			<g>
				<title>FG-GAP_3 (PF13517)
"FG-GAP-like repeat"</title>
				<rect class="PF13517" x="1827" y="28" stroke-linejoin="round" width="7" height="24" fill="rgb(193,139,80)" stroke="rgb(154,111,64)" stroke-width="1" opacity="0.75" />
			</g>
			<g>
				<title>FG-GAP (PF01839)
"FG-GAP repeat"</title>
				<polygon class="PF01839" points="1850,30 1853,33 1853,47 1850,50" stroke-linejoin="round" width="3" height="24" fill="rgb(151,58,226)" stroke="rgb(120,46,180)" stroke-width="1" opacity="0.75" />
			</g>
			<g>
				<title>FG-GAP (PF01839)
"FG-GAP repeat"</title>
				<polygon class="PF01839" points="1857,37 1860,40 1860,40 1857,43" stroke-linejoin="round" width="3" height="24" fill="rgb(151,58,226)" stroke="rgb(120,46,180)" stroke-width="1" opacity="0.75" />
			</g>
		</g>
	</g>
</svg>
