<svg version="1.1" baseProfile="full" xmlns="http://www.w3.org/2000/svg" width="1053.3333333333333" height="160">
	<g>
		<line x1="10" y1="40.0" x2="415.03333333333336" y2="40.0" style="stroke:rgb(70,70,70); stroke-width:3 "/>
		<g>
			<title>
luciferase-like monooxygenase</title>
			<polygon class="
luciferase-like monooxygenase" points="13,25 15,25 15,10 45,40 15,70 15,55 13,55" fill="rgb(255,255,255)" fill-opacity="1.0" stroke="rgb(0,0,0)" stroke-width="2"  />
			<g>
				<title>Bac_luciferase (PF00296)
"Luciferase-like monooxygenase"</title>
				<rect class="PF00296" x="13" y="28" stroke-linejoin="round" width="13" height="24" fill="rgb(50,200,104)" stroke="rgb(40,160,83)" stroke-width="1" opacity="0.75" />
			</g>
			<g>
				<title>Bac_luciferase (PF00296)
"Luciferase-like monooxygenase"</title>
				<polygon class="PF00296" points="27,28 29,28 41,40 29,52 27,52" stroke-linejoin="round" width="15" height="24" fill="rgb(50,200,104)" stroke="rgb(40,160,83)" stroke-width="1" opacity="0.75" />
			</g>
		</g>
		<g>
			<title>wlpF
OprM family outer membrane protein</title>
			<polygon class="wlpF
OprM family outer membrane protein" points="93,25 77,25 77,10 47,40 77,70 77,55 93,55" fill="rgb(255,255,255)" fill-opacity="1.0" stroke="rgb(0,0,0)" stroke-width="2"  />
			<g>
				<title>OEP (PF02321)
"Outer membrane efflux protein"</title>
				<polygon class="PF02321" points="51,40 63,28 65,28 65,52 63,52" stroke-linejoin="round" width="18" height="24" fill="rgb(225,95,192)" stroke="rgb(180,76,153)" stroke-width="1" opacity="0.75" />
			</g>
			<g>
				<title>OEP (PF02321)
"Outer membrane efflux protein"</title>
				<rect class="PF02321" x="68" y="28" stroke-linejoin="round" width="19" height="24" fill="rgb(225,95,192)" stroke="rgb(180,76,153)" stroke-width="1" opacity="0.75" />
			</g>
		</g>
		<g>
			<title>wlpR
LuxR family regulator</title>
			<polygon class="wlpR
LuxR family regulator" points="94,40 119,10 119,70" fill="rgb(255,255,255)" fill-opacity="1.0" stroke="rgb(0,0,0)" stroke-width="2"  />
			<g>
				<title>GerE (PF00196)
"Bacterial regulatory proteins, luxR family"</title>
				<polygon class="PF00196" points="98,40 99,39 99,41" stroke-linejoin="round" width="5" height="24" fill="rgb(225,67,110)" stroke="rgb(180,53,88)" stroke-width="1" opacity="0.75" />
			</g>
		</g>
		<g>
			<title>wlpA
WLIP synthetase A</title>
			<polygon class="wlpA
WLIP synthetase A" points="133,25 314,25 314,10 344,40 314,70 314,55 133,55" fill="rgb(255,255,255)" fill-opacity="1.0" stroke="rgb(0,0,0)" stroke-width="2"  />
			<g>
				<title>Condensation (PF00668)
"Condensation domain"</title>
				<rect class="PF00668" x="133" y="28" stroke-linejoin="round" width="44" height="24" fill="rgb(172,217,60)" stroke="rgb(137,173,47)" stroke-width="1" opacity="0.75" />
			</g>
			<g>
				<title>AMP-binding (PF00501)
"AMP-binding enzyme"</title>
				<rect class="PF00501" x="179" y="28" stroke-linejoin="round" width="33" height="24" fill="rgb(189,78,204)" stroke="rgb(151,62,163)" stroke-width="1" opacity="0.75" />
			</g>
			<g>
				<title>PP-binding (PF00550)
"Phosphopantetheine attachment site"</title>
				<rect class="PF00550" x="228" y="28" stroke-linejoin="round" width="6" height="24" fill="rgb(181,58,166)" stroke="rgb(144,46,132)" stroke-width="1" opacity="0.75" />
			</g>
			<g>
				<title>Condensation (PF00668)
"Condensation domain"</title>
				<rect class="PF00668" x="240" y="28" stroke-linejoin="round" width="43" height="24" fill="rgb(172,217,60)" stroke="rgb(137,173,47)" stroke-width="1" opacity="0.75" />
			</g>
			<g>
				<title>AMP-binding (PF00501)
"AMP-binding enzyme"</title>
				<rect class="PF00501" x="285" y="28" stroke-linejoin="round" width="35" height="24" fill="rgb(189,78,204)" stroke="rgb(151,62,163)" stroke-width="1" opacity="0.75" />
			</g>
			<g>
				<title>AMP-binding_C (PF13193)
"AMP-binding enzyme C-terminal domain"</title>
				<polygon class="PF13193" points="326,28 328,28 333,33 333,47 328,52 326,52" stroke-linejoin="round" width="7" height="24" fill="rgb(195,82,106)" stroke="rgb(156,65,84)" stroke-width="1" opacity="0.75" />
			</g>
			<g>
				<title>PP-binding (PF00550)
"Phosphopantetheine attachment site"</title>
				<polygon class="PF00550" points="335,35 340,40 335,45" stroke-linejoin="round" width="6" height="24" fill="rgb(181,58,166)" stroke="rgb(144,46,132)" stroke-width="1" opacity="0.75" />
			</g>
		</g>
		<g>
			<title>
LysE superfamily transporter protein</title>
			<polygon class="
LysE superfamily transporter protein" points="349,10 369,40 349,70" fill="rgb(255,255,255)" fill-opacity="1.0" stroke="rgb(0,0,0)" stroke-width="2"  />
			<g>
				<title>LysE (PF01810)
"LysE type translocator"</title>
				<polygon class="PF01810" points="350,28 357,28 366,40 357,52 350,52" stroke-linejoin="round" width="19" height="24" fill="rgb(178,96,213)" stroke="rgb(142,76,170)" stroke-width="1" opacity="0.75" />
			</g>
		</g>
		<g>
			<title>
major facilitator superfamily transporter protein</title>
			<polygon class="
major facilitator superfamily transporter protein" points="410,25 400,25 400,10 370,40 400,70 400,55 410,55" fill="rgb(255,255,255)" fill-opacity="1.0" stroke="rgb(0,0,0)" stroke-width="2"  />
			<g>
				<title>MFS_1 (PF07690)
"Major Facilitator Superfamily"</title>
				<polygon class="PF07690" points="376,38 386,28 408,28 408,52 386,52 376,42" stroke-linejoin="round" width="32" height="24" fill="rgb(228,207,98)" stroke="rgb(182,165,78)" stroke-width="1" opacity="0.75" />
			</g>
		</g>
	</g>
	<g>
		<line x1="10" y1="120.0" x2="1043.3333333333333" y2="120.0" style="stroke:rgb(70,70,70); stroke-width:3 "/>
		<g>
			<title>
sigma-54-dependent transcriptional regulator</title>
			<polygon class="
sigma-54-dependent transcriptional regulator" points="50,105 43,105 43,90 13,120 43,150 43,135 50,135" fill="rgb(255,255,255)" fill-opacity="1.0" stroke="rgb(0,0,0)" stroke-width="2"  />
		</g>
		<g>
			<title>
acyl-COA dehydrogenase</title>
			<polygon class="
acyl-COA dehydrogenase" points="90,105 81,105 81,90 51,120 81,150 81,135 90,135" fill="rgb(255,255,255)" fill-opacity="1.0" stroke="rgb(0,0,0)" stroke-width="2"  />
		</g>
		<g>
			<title>
FMN reductase</title>
			<polygon class="
FMN reductase" points="91,120 109,90 109,150" fill="rgb(255,255,255)" fill-opacity="1.0" stroke="rgb(0,0,0)" stroke-width="2"  />
		</g>
		<g>
			<title>wlpB
WLIP synthetase B</title>
			<polygon class="wlpB
WLIP synthetase B" points="121,105 521,105 521,90 551,120 521,150 521,135 121,135" fill="rgb(255,255,255)" fill-opacity="1.0" stroke="rgb(0,0,0)" stroke-width="2"  />
		</g>
		<g>
			<title>wlpC
WLIP synthetase C</title>
			<polygon class="wlpC
WLIP synthetase C" points="551,105 901,105 901,90 931,120 901,150 901,135 551,135" fill="rgb(255,255,255)" fill-opacity="1.0" stroke="rgb(0,0,0)" stroke-width="2"  />
		</g>
		<g>
			<title>wlpD
MacA-like protein</title>
			<polygon class="wlpD
MacA-like protein" points="936,105 944,105 944,90 974,120 944,150 944,135 936,135" fill="rgb(255,255,255)" fill-opacity="1.0" stroke="rgb(0,0,0)" stroke-width="2"  />
		</g>
		<g>
			<title>wlpE
MacB-like ABC transporter protein</title>
			<polygon class="wlpE
MacB-like ABC transporter protein" points="974,105 1011,105 1011,90 1041,120 1011,150 1011,135 974,135" fill="rgb(255,255,255)" fill-opacity="1.0" stroke="rgb(0,0,0)" stroke-width="2"  />
		</g>
	</g>
</svg>
