<svg version="1.1" baseProfile="full" xmlns="http://www.w3.org/2000/svg" width="555.8333333333334" height="80">
	<g>
		<line x1="10" y1="40.0" x2="545.8333333333334" y2="40.0" style="stroke:rgb(70,70,70); stroke-width:3 "/>
		<g>
			<title>gumA
GumA</title>
			<polygon class="gumA
GumA" points="11,10 21,40 11,70" fill="rgb(255,255,255)" fill-opacity="1.0" stroke="rgb(0,0,0)" stroke-width="2"  />
			<g>
				<title>Bac_DNA_binding (PF00216)
"Bacterial DNA-binding protein"</title>
				<polygon class="PF00216" points="11,28 13,28 17,40 13,52 11,52" stroke-linejoin="round" width="8" height="24" fill="rgb(98,92,195)" stroke="rgb(78,73,156)" stroke-width="1" opacity="0.75" />
			</g>
		</g>
		<g>
			<title>gumB
GumB</title>
			<polygon class="gumB
GumB" points="54,10 75,40 54,70" fill="rgb(255,255,255)" fill-opacity="1.0" stroke="rgb(0,0,0)" stroke-width="2"  />
			<g>
				<title>Poly_export (PF02563)
"Polysaccharide biosynthesis/export protein"</title>
				<rect class="PF02563" x="56" y="28" stroke-linejoin="round" width="7" height="24" fill="rgb(219,92,156)" stroke="rgb(175,73,124)" stroke-width="1" opacity="0.75" />
			</g>
			<g>
				<title>SLBB (PF10531)
"SLBB domain"</title>
				<polygon class="PF10531" points="64,30 69,37 69,43 64,50" stroke-linejoin="round" width="5" height="24" fill="rgb(53,192,99)" stroke="rgb(42,153,79)" stroke-width="1" opacity="0.75" />
			</g>
		</g>
		<g>
			<title>gumC
GumC</title>
			<polygon class="gumC
GumC" points="78,25 93,25 93,10 123,40 93,70 93,55 78,55" fill="rgb(255,255,255)" fill-opacity="1.0" stroke="rgb(0,0,0)" stroke-width="2"  />
			<g>
				<title>Wzz (PF02706)
"Chain length determinant protein"</title>
				<rect class="PF02706" x="78" y="28" stroke-linejoin="round" width="8" height="24" fill="rgb(216,77,57)" stroke="rgb(172,61,45)" stroke-width="1" opacity="0.75" />
			</g>
			<g>
				<title>GNVR (PF13807)
"G-rich domain on putative tyrosine kinase"</title>
				<polygon class="PF13807" points="113,35 118,40 113,45" stroke-linejoin="round" width="8" height="24" fill="rgb(214,163,91)" stroke="rgb(171,130,72)" stroke-width="1" opacity="0.75" />
			</g>
		</g>
		<g>
			<title>gumD
GumD</title>
			<polygon class="gumD
GumD" points="131,25 149,25 149,10 179,40 149,70 149,55 131,55" fill="rgb(255,255,255)" fill-opacity="1.0" stroke="rgb(0,0,0)" stroke-width="2"  />
			<g>
				<title>CoA_binding_3 (PF13727)
"CoA-binding domain"</title>
				<rect class="PF13727" x="138" y="28" stroke-linejoin="round" width="18" height="24" fill="rgb(115,219,79)" stroke="rgb(92,175,63)" stroke-width="1" opacity="0.75" />
			</g>
			<g>
				<title>Bac_transf (PF02397)
"Bacterial sugar transferase"</title>
				<polygon class="PF02397" points="160,28 163,28 175,40 163,52 160,52" stroke-linejoin="round" width="18" height="24" fill="rgb(100,199,213)" stroke="rgb(80,159,170)" stroke-width="1" opacity="0.75" />
			</g>
		</g>
		<g>
			<title>gumE
GumE</title>
			<polygon class="gumE
GumE" points="182,25 195,25 195,10 225,40 195,70 195,55 182,55" fill="rgb(255,255,255)" fill-opacity="1.0" stroke="rgb(0,0,0)" stroke-width="2"  />
		</g>
		<g>
			<title>gumF
GumF</title>
			<polygon class="gumF
GumF" points="225,25 231,25 231,10 261,40 231,70 231,55 225,55" fill="rgb(255,255,255)" fill-opacity="1.0" stroke="rgb(0,0,0)" stroke-width="2"  />
			<g>
				<title>Acyl_transf_3 (PF01757)
"Acyltransferase family"</title>
				<polygon class="PF01757" points="227,28 245,28 257,40 245,52 227,52" stroke-linejoin="round" width="31" height="24" fill="rgb(131,179,78)" stroke="rgb(104,143,62)" stroke-width="1" opacity="0.75" />
			</g>
		</g>
		<g>
			<title>gumG
GumG</title>
			<polygon class="gumG
GumG" points="262,25 270,25 270,10 300,40 270,70 270,55 262,55" fill="rgb(255,255,255)" fill-opacity="1.0" stroke="rgb(0,0,0)" stroke-width="2"  />
			<g>
				<title>Acyl_transf_3 (PF01757)
"Acyltransferase family"</title>
				<polygon class="PF01757" points="264,28 283,28 295,40 295,40 283,52 264,52" stroke-linejoin="round" width="31" height="24" fill="rgb(131,179,78)" stroke="rgb(104,143,62)" stroke-width="1" opacity="0.75" />
			</g>
		</g>
		<g>
			<title>gumH
GumH</title>
			<polygon class="gumH
GumH" points="299,25 307,25 307,10 337,40 307,70 307,55 299,55" fill="rgb(255,255,255)" fill-opacity="1.0" stroke="rgb(0,0,0)" stroke-width="2"  />
			<g>
				<title>Glyco_transf_4 (PF13439)
"Glycosyltransferase Family 4"</title>
				<rect class="PF13439" x="300" y="28" stroke-linejoin="round" width="16" height="24" fill="rgb(67,194,123)" stroke="rgb(53,155,98)" stroke-width="1" opacity="0.75" />
			</g>
			<g>
				<title>Glycos_transf_1 (PF00534)
"Glycosyl transferases group 1"</title>
				<polygon class="PF00534" points="316,28 320,28 332,40 332,40 320,52 316,52" stroke-linejoin="round" width="16" height="24" fill="rgb(66,178,218)" stroke="rgb(52,142,174)" stroke-width="1" opacity="0.75" />
			</g>
		</g>
		<g>
			<title>gumI
GumI</title>
			<polygon class="gumI
GumI" points="337,25 342,25 342,10 372,40 342,70 342,55 337,55" fill="rgb(255,255,255)" fill-opacity="1.0" stroke="rgb(0,0,0)" stroke-width="2"  />
		</g>
		<g>
			<title>gumJ
GumJ</title>
			<polygon class="gumJ
GumJ" points="372,25 391,25 391,10 421,40 391,70 391,55 372,55" fill="rgb(255,255,255)" fill-opacity="1.0" stroke="rgb(0,0,0)" stroke-width="2"  />
			<g>
				<title>Polysacc_synt_3 (PF13440)
"Polysaccharide biosynthesis protein"</title>
				<rect class="PF13440" x="376" y="28" stroke-linejoin="round" width="29" height="24" fill="rgb(215,91,58)" stroke="rgb(172,72,46)" stroke-width="1" opacity="0.75" />
			</g>
		</g>
		<g>
			<title>gumK
GumK</title>
			<polygon class="gumK
GumK" points="435,10 464,40 435,70" fill="rgb(255,255,255)" fill-opacity="1.0" stroke="rgb(0,0,0)" stroke-width="2"  />
		</g>
		<g>
			<title>gumL
GumL</title>
			<polygon class="gumL
GumL" points="466,10 492,40 466,70" fill="rgb(255,255,255)" fill-opacity="1.0" stroke="rgb(0,0,0)" stroke-width="2"  />
			<g>
				<title>PS_pyruv_trans (PF04230)
"Polysaccharide pyruvyl transferase"</title>
				<polygon class="PF04230" points="469,28 477,28 486,38 486,42 477,52 469,52" stroke-linejoin="round" width="17" height="24" fill="rgb(190,122,54)" stroke="rgb(152,97,43)" stroke-width="1" opacity="0.75" />
			</g>
		</g>
		<g>
			<title>gumM
GumM</title>
			<polygon class="gumM
GumM" points="493,10 519,40 493,70" fill="rgb(255,255,255)" fill-opacity="1.0" stroke="rgb(0,0,0)" stroke-width="2"  />
			<g>
				<title>Glyco_tran_WecG (PF03808)
"Glycosyl transferase WecG/TagA/CpsF family"</title>
				<polygon class="PF03808" points="500,28 505,28 515,40 505,52 500,52" stroke-linejoin="round" width="16" height="24" fill="rgb(148,189,59)" stroke="rgb(118,151,47)" stroke-width="1" opacity="0.75" />
			</g>
		</g>
	</g>
</svg>
