<svg version="1.1" baseProfile="full" xmlns="http://www.w3.org/2000/svg" width="478.03333333333336" height="80">
	<g>
		<line x1="10" y1="40.0" x2="468.03333333333336" y2="40.0" style="stroke:rgb(70,70,70); stroke-width:3 "/>
		<g>
			<title>mceA
microcin E492 precursor</title>
			<polygon class="mceA
microcin E492 precursor" points="18,40 28,10 28,70" fill="rgb(255,255,255)" fill-opacity="1.0" stroke="rgb(0,0,0)" stroke-width="2"  />
		</g>
		<g>
			<title>mceB
microcin E492 immunity protein</title>
			<polygon class="mceB
microcin E492 immunity protein" points="28,40 37,10 37,70" fill="rgb(255,255,255)" fill-opacity="1.0" stroke="rgb(0,0,0)" stroke-width="2"  />
		</g>
		<g>
			<title>mceC
MceC</title>
			<polygon class="mceC
MceC" points="53,25 60,25 60,10 90,40 60,70 60,55 53,55" fill="rgb(255,255,255)" fill-opacity="1.0" stroke="rgb(0,0,0)" stroke-width="2"  />
			<g>
				<title>EryCIII-like_N (PF21036)
"Erythromycin biosynthesis protein CIII-like, N-terminal domain"</title>
				<rect class="PF21036" x="55" y="28" stroke-linejoin="round" width="18" height="24" fill="rgb(205,88,112)" stroke="rgb(164,70,89)" stroke-width="1" opacity="0.75" />
			</g>
			<g>
				<title>EryCIII-like_C (PF06722)
"Erythromycin biosynthesis protein CIII-like, C-terminal domain"</title>
				<polygon class="PF06722" points="75,30 85,40 75,50" stroke-linejoin="round" width="14" height="24" fill="rgb(48,103,191)" stroke="rgb(38,82,152)" stroke-width="1" opacity="0.75" />
			</g>
		</g>
		<g>
			<title>mceD
MceD</title>
			<polygon class="mceD
MceD" points="137,25 126,25 126,10 96,40 126,70 126,55 137,55" fill="rgb(255,255,255)" fill-opacity="1.0" stroke="rgb(0,0,0)" stroke-width="2"  />
			<g>
				<title>Esterase (PF00756)
"Putative esterase"</title>
				<polygon class="PF00756" points="100,40 112,28 118,28 118,52 112,52" stroke-linejoin="round" width="22" height="24" fill="rgb(225,102,85)" stroke="rgb(180,81,67)" stroke-width="1" opacity="0.75" />
			</g>
			<g>
				<title>Enterochelin_N (PF11806)
"Enterochelin esterase, N-terminal"</title>
				<rect class="PF11806" x="120" y="28" stroke-linejoin="round" width="11" height="24" fill="rgb(130,203,66)" stroke="rgb(104,162,52)" stroke-width="1" opacity="0.75" />
			</g>
		</g>
		<g>
			<title>
MceS2</title>
			<polygon class="
MceS2" points="140,40 145,10 145,70" fill="rgb(255,255,255)" fill-opacity="1.0" stroke="rgb(0,0,0)" stroke-width="2"  />
		</g>
		<g>
			<title>
MceS3</title>
			<polygon class="
MceS3" points="153,40 159,10 159,70" fill="rgb(255,255,255)" fill-opacity="1.0" stroke="rgb(0,0,0)" stroke-width="2"  />
		</g>
		<g>
			<title>
MceM</title>
			<polygon class="
MceM" points="166,40 174,10 174,70" fill="rgb(255,255,255)" fill-opacity="1.0" stroke="rgb(0,0,0)" stroke-width="2"  />
		</g>
		<g>
			<title>
MceL</title>
			<polygon class="
MceL" points="175,40 184,10 184,70" fill="rgb(255,255,255)" fill-opacity="1.0" stroke="rgb(0,0,0)" stroke-width="2"  />
		</g>
		<g>
			<title>mceE
MceE</title>
			<polygon class="mceE
MceE" points="189,40 200,10 200,70" fill="rgb(255,255,255)" fill-opacity="1.0" stroke="rgb(0,0,0)" stroke-width="2"  />
		</g>
		<g>
			<title>
MceX</title>
			<polygon class="
MceX" points="207,10 210,40 207,70" fill="rgb(255,255,255)" fill-opacity="1.0" stroke="rgb(0,0,0)" stroke-width="2"  />
		</g>
		<g>
			<title>mceJ
MceJ</title>
			<polygon class="mceJ
MceJ" points="216,25 238,25 238,10 268,40 238,70 238,55 216,55" fill="rgb(255,255,255)" fill-opacity="1.0" stroke="rgb(0,0,0)" stroke-width="2"  />
		</g>
		<g>
			<title>mceI
MceI</title>
			<polygon class="mceI
MceI" points="268,10 284,40 268,70" fill="rgb(255,255,255)" fill-opacity="1.0" stroke="rgb(0,0,0)" stroke-width="2"  />
			<g>
				<title>HlyC (PF02794)
"RTX toxin acyltransferase family"</title>
				<polygon class="PF02794" points="270,28 274,28 280,40 274,52 270,52" stroke-linejoin="round" width="12" height="24" fill="rgb(166,49,178)" stroke="rgb(132,39,142)" stroke-width="1" opacity="0.75" />
			</g>
		</g>
		<g>
			<title>mceH
MceH</title>
			<polygon class="mceH
MceH" points="290,25 301,25 301,10 331,40 301,70 301,55 290,55" fill="rgb(255,255,255)" fill-opacity="1.0" stroke="rgb(0,0,0)" stroke-width="2"  />
			<g>
				<title>HlyD_3 (PF13437)
"HlyD family secretion protein"</title>
				<polygon class="PF13437" points="314,28 315,28 324,37 324,43 315,52 314,52" stroke-linejoin="round" width="10" height="24" fill="rgb(221,110,109)" stroke="rgb(176,88,87)" stroke-width="1" opacity="0.75" />
			</g>
		</g>
		<g>
			<title>mceG
MceG</title>
			<polygon class="mceG
MceG" points="331,25 370,25 370,10 400,40 370,70 370,55 331,55" fill="rgb(255,255,255)" fill-opacity="1.0" stroke="rgb(0,0,0)" stroke-width="2"  />
			<g>
				<title>Peptidase_C39 (PF03412)
"Peptidase C39 family"</title>
				<rect class="PF03412" x="333" y="28" stroke-linejoin="round" width="13" height="24" fill="rgb(93,118,202)" stroke="rgb(74,94,161)" stroke-width="1" opacity="0.75" />
			</g>
			<g>
				<title>ABC_membrane (PF00664)
"ABC transporter transmembrane region"</title>
				<rect class="PF00664" x="348" y="28" stroke-linejoin="round" width="27" height="24" fill="rgb(62,71,183)" stroke="rgb(49,56,146)" stroke-width="1" opacity="0.75" />
			</g>
			<g>
				<title>ABC_tran (PF00005)
"ABC transporter"</title>
				<polygon class="PF00005" points="381,28 384,28 395,39 395,41 384,52 381,52" stroke-linejoin="round" width="14" height="24" fill="rgb(46,186,108)" stroke="rgb(36,148,86)" stroke-width="1" opacity="0.75" />
			</g>
		</g>
		<g>
			<title>
MceK</title>
			<polygon class="
MceK" points="403,10 416,40 403,70" fill="rgb(255,255,255)" fill-opacity="1.0" stroke="rgb(0,0,0)" stroke-width="2"  />
		</g>
		<g>
			<title>mceF
MceF</title>
			<polygon class="mceF
MceF" points="423,40 446,10 446,70" fill="rgb(255,255,255)" fill-opacity="1.0" stroke="rgb(0,0,0)" stroke-width="2"  />
			<g>
				<title>Rce1-like (PF02517)
"Type II CAAX prenyl endopeptidase Rce1-like"</title>
				<polygon class="PF02517" points="427,40 433,32 433,48" stroke-linejoin="round" width="9" height="24" fill="rgb(221,193,76)" stroke="rgb(176,154,60)" stroke-width="1" opacity="0.75" />
			</g>
		</g>
	</g>
</svg>
