<svg version="1.1" baseProfile="full" xmlns="http://www.w3.org/2000/svg" width="246.3" height="80">
	<g>
		<line x1="10" y1="40.0" x2="236.3" y2="40.0" style="stroke:rgb(70,70,70); stroke-width:3 "/>
		<g>
			<title>gccI
hypothetical protein</title>
			<polygon class="gccI
hypothetical protein" points="16,10 25,40 16,70" fill="rgb(255,255,255)" fill-opacity="1.0" stroke="rgb(0,0,0)" stroke-width="2"  />
			<g>
				<title>DUF5839 (PF19157)
"Family of unknown function (DUF5839)"</title>
				<polygon class="PF19157" points="16,28 18,28 22,40 18,52 16,52" stroke-linejoin="round" width="9" height="24" fill="rgb(215,55,68)" stroke="rgb(172,44,54)" stroke-width="1" opacity="0.75" />
			</g>
		</g>
		<g>
			<title>gccH
hypothetical protein</title>
			<polygon class="gccH
hypothetical protein" points="40,40 51,10 51,70" fill="rgb(255,255,255)" fill-opacity="1.0" stroke="rgb(0,0,0)" stroke-width="2"  />
		</g>
		<g>
			<title>gccA
UDP-GlcNAc glycosyltransferase family 2</title>
			<polygon class="gccA
UDP-GlcNAc glycosyltransferase family 2" points="53,25 65,25 65,10 95,40 65,70 65,55 53,55" fill="rgb(255,255,255)" fill-opacity="1.0" stroke="rgb(0,0,0)" stroke-width="2"  />
			<g>
				<title>Glycos_transf_2 (PF00535)
"Glycosyl transferase family 2"</title>
				<rect class="PF00535" x="57" y="28" stroke-linejoin="round" width="17" height="24" fill="rgb(197,62,212)" stroke="rgb(157,49,169)" stroke-width="1" opacity="0.75" />
			</g>
		</g>
		<g>
			<title>gccB
bacteriocin ABC transporter of glycocin F</title>
			<polygon class="gccB
bacteriocin ABC transporter of glycocin F" points="95,25 135,25 135,10 165,40 135,70 135,55 95,55" fill="rgb(255,255,255)" fill-opacity="1.0" stroke="rgb(0,0,0)" stroke-width="2"  />
			<g>
				<title>Peptidase_C39 (PF03412)
"Peptidase C39 family"</title>
				<rect class="PF03412" x="95" y="28" stroke-linejoin="round" width="13" height="24" fill="rgb(93,118,202)" stroke="rgb(74,94,161)" stroke-width="1" opacity="0.75" />
			</g>
			<g>
				<title>ABC_membrane (PF00664)
"ABC transporter transmembrane region"</title>
				<rect class="PF00664" x="111" y="28" stroke-linejoin="round" width="27" height="24" fill="rgb(62,71,183)" stroke="rgb(49,56,146)" stroke-width="1" opacity="0.75" />
			</g>
			<g>
				<title>ABC_tran (PF00005)
"ABC transporter"</title>
				<polygon class="PF00005" points="144,28 149,28 158,37 158,43 149,52 144,52" stroke-linejoin="round" width="14" height="24" fill="rgb(46,186,108)" stroke="rgb(36,148,86)" stroke-width="1" opacity="0.75" />
			</g>
		</g>
		<g>
			<title>gccC
hypothetical protein</title>
			<polygon class="gccC
hypothetical protein" points="165,10 179,40 165,70" fill="rgb(255,255,255)" fill-opacity="1.0" stroke="rgb(0,0,0)" stroke-width="2"  />
			<g>
				<title>TraF (PF13728)
"F plasmid transfer operon protein"</title>
				<polygon class="PF13728" points="167,28 169,28 175,40 169,52 167,52" stroke-linejoin="round" width="9" height="24" fill="rgb(198,91,151)" stroke="rgb(158,72,120)" stroke-width="1" opacity="0.75" />
			</g>
		</g>
		<g>
			<title>gccD
hypothetical protein</title>
			<polygon class="gccD
hypothetical protein" points="179,10 196,40 179,70" fill="rgb(255,255,255)" fill-opacity="1.0" stroke="rgb(0,0,0)" stroke-width="2"  />
			<g>
				<title>DUF6568 (PF20207)
"Family of unknown function (DUF6568)"</title>
				<polygon class="PF20207" points="179,28 186,28 193,40 186,52 179,52" stroke-linejoin="round" width="16" height="24" fill="rgb(80,171,189)" stroke="rgb(64,136,151)" stroke-width="1" opacity="0.75" />
			</g>
		</g>
		<g>
			<title>gccE
putative LytTR response regulator</title>
			<polygon class="gccE
putative LytTR response regulator" points="196,10 221,40 196,70" fill="rgb(255,255,255)" fill-opacity="1.0" stroke="rgb(0,0,0)" stroke-width="2"  />
			<g>
				<title>LytTR (PF04397)
"LytTr DNA-binding domain"</title>
				<polygon class="PF04397" points="212,34 217,40 212,46" stroke-linejoin="round" width="9" height="24" fill="rgb(228,100,101)" stroke="rgb(182,80,80)" stroke-width="1" opacity="0.75" />
			</g>
		</g>
		<g>
			<title>gccF
prebacteriocin glycocin F</title>
			<polygon class="gccF
prebacteriocin glycocin F" points="224,10 230,40 224,70" fill="rgb(255,255,255)" fill-opacity="1.0" stroke="rgb(0,0,0)" stroke-width="2"  />
		</g>
	</g>
</svg>
