<svg version="1.1" baseProfile="full" xmlns="http://www.w3.org/2000/svg" width="1279.3666666666666" height="80">
	<g>
		<line x1="10" y1="40.0" x2="1269.3666666666666" y2="40.0" style="stroke:rgb(70,70,70); stroke-width:3 "/>
		<g>
			<title> (B110_RS0125630)
hypothetical protein</title>
			<polygon class=" (B110_RS0125630)
hypothetical protein" points="58,40 82,10 82,70" fill="rgb(255,255,255)" fill-opacity="1.0" stroke="rgb(0,0,0)" stroke-width="2"  />
			<g>
				<title>His_Phos_1 (PF00300)
"Histidine phosphatase superfamily (branch 1)"</title>
				<polygon class="PF00300" points="62,40 72,28 80,28 80,52 72,52" stroke-linejoin="round" width="21" height="24" fill="rgb(221,146,58)" stroke="rgb(176,116,46)" stroke-width="1" opacity="0.75" />
			</g>
		</g>
		<g>
			<title> (B110_RS27155)
hypothetical protein</title>
			<polygon class=" (B110_RS27155)
hypothetical protein" points="88,40 102,10 102,70" fill="rgb(255,255,255)" fill-opacity="1.0" stroke="rgb(0,0,0)" stroke-width="2"  />
		</g>
		<g>
			<title> (B110_RS27160)
hypothetical protein</title>
			<polygon class=" (B110_RS27160)
hypothetical protein" points="135,10 141,40 135,70" fill="rgb(255,255,255)" fill-opacity="1.0" stroke="rgb(0,0,0)" stroke-width="2"  />
			<g>
				<title>DddA-like (PF14428)
"Double-stranded DNA deaminase toxin A"</title>
				<polygon class="PF14428" points="135,28 135,28 138,40 135,52 135,52" stroke-linejoin="round" width="5" height="24" fill="rgb(197,214,75)" stroke="rgb(157,171,60)" stroke-width="1" opacity="0.75" />
			</g>
		</g>
		<g>
			<title> (B110_RS0125650)
hypothetical protein</title>
			<polygon class=" (B110_RS0125650)
hypothetical protein" points="142,10 156,40 142,70" fill="rgb(255,255,255)" fill-opacity="1.0" stroke="rgb(0,0,0)" stroke-width="2"  />
			<g>
				<title>Imm1 (PF14430)
"Immunity protein Imm1"</title>
				<polygon class="PF14430" points="142,28 147,28 153,40 147,52 142,52" stroke-linejoin="round" width="13" height="24" fill="rgb(188,67,174)" stroke="rgb(150,53,139)" stroke-width="1" opacity="0.75" />
			</g>
		</g>
		<g>
			<title> (B110_RS27165)
hypothetical protein</title>
			<polygon class=" (B110_RS27165)
hypothetical protein" points="160,10 177,40 160,70" fill="rgb(255,255,255)" fill-opacity="1.0" stroke="rgb(0,0,0)" stroke-width="2"  />
		</g>
		<g>
			<title> (B110_RS27170)
hypothetical protein</title>
			<polygon class=" (B110_RS27170)
hypothetical protein" points="214,40 240,10 240,70" fill="rgb(255,255,255)" fill-opacity="1.0" stroke="rgb(0,0,0)" stroke-width="2"  />
			<g>
				<title>PIG-L (PF02585)
"GlcNAc-PI de-N-acetylase"</title>
				<polygon class="PF02585" points="225,32 229,28 238,28 238,52 229,52 225,48" stroke-linejoin="round" width="13" height="24" fill="rgb(208,183,97)" stroke="rgb(166,146,77)" stroke-width="1" opacity="0.75" />
			</g>
		</g>
		<g>
			<title> (B110_RS0125665)
hypothetical protein</title>
			<polygon class=" (B110_RS0125665)
hypothetical protein" points="241,40 256,10 256,70" fill="rgb(255,255,255)" fill-opacity="1.0" stroke="rgb(0,0,0)" stroke-width="2"  />
			<g>
				<title>Glyoxalase (PF00903)
"Glyoxalase/Bleomycin resistance protein/Dioxygenase superfamily"</title>
				<polygon class="PF00903" points="244,40 250,28 253,28 253,52 250,52" stroke-linejoin="round" width="11" height="24" fill="rgb(139,76,222)" stroke="rgb(111,60,177)" stroke-width="1" opacity="0.75" />
			</g>
		</g>
		<g>
			<title> (B110_RS27175)
MerR family transcriptional regulator</title>
			<polygon class=" (B110_RS27175)
MerR family transcriptional regulator" points="256,40 281,10 281,70" fill="rgb(255,255,255)" fill-opacity="1.0" stroke="rgb(0,0,0)" stroke-width="2"  />
			<g>
				<title>MerR_1 (PF13411)
"MerR HTH family regulatory protein"</title>
				<polygon class="PF13411" points="262,38 268,31 268,49 262,42" stroke-linejoin="round" width="6" height="24" fill="rgb(186,92,57)" stroke="rgb(148,73,45)" stroke-width="1" opacity="0.75" />
			</g>
			<g>
				<title>MerR (PF00376)
"MerR family regulatory protein"</title>
				<rect class="PF00376" x="278" y="28" stroke-linejoin="round" width="3" height="24" fill="rgb(89,197,125)" stroke="rgb(71,157,99)" stroke-width="1" opacity="0.75" />
			</g>
		</g>
		<g>
			<title> (B110_RS0125675)
daunorubicin resistance protein DrrA family ABC transporter ATP-binding protein</title>
			<polygon class=" (B110_RS0125675)
daunorubicin resistance protein DrrA family ABC transporter ATP-binding protein" points="286,25 288,25 288,10 318,40 288,70 288,55 286,55" fill="rgb(255,255,255)" fill-opacity="1.0" stroke="rgb(0,0,0)" stroke-width="2"  />
			<g>
				<title>ABC_tran (PF00005)
"ABC transporter"</title>
				<rect class="PF00005" x="288" y="28" stroke-linejoin="round" width="14" height="24" fill="rgb(46,186,108)" stroke="rgb(36,148,86)" stroke-width="1" opacity="0.75" />
			</g>
			<g>
				<title>DUF4162 (PF13732)
"Domain of unknown function (DUF4162)"</title>
				<polygon class="PF13732" points="307,33 314,40 307,47" stroke-linejoin="round" width="9" height="24" fill="rgb(62,115,222)" stroke="rgb(49,91,177)" stroke-width="1" opacity="0.75" />
			</g>
		</g>
		<g>
			<title> (B110_RS0125680)
ABC transporter</title>
			<polygon class=" (B110_RS0125680)
ABC transporter" points="319,10 346,40 319,70" fill="rgb(255,255,255)" fill-opacity="1.0" stroke="rgb(0,0,0)" stroke-width="2"  />
			<g>
				<title>ABC2_membrane (PF01061)
"ABC-2 type transporter"</title>
				<polygon class="PF01061" points="321,28 330,28 342,40 342,40 330,52 321,52" stroke-linejoin="round" width="21" height="24" fill="rgb(91,137,194)" stroke="rgb(72,109,155)" stroke-width="1" opacity="0.75" />
			</g>
		</g>
		<g>
			<title> (B110_RS27180)
hypothetical protein</title>
			<polygon class=" (B110_RS27180)
hypothetical protein" points="350,25 365,25 365,10 395,40 365,70 365,55 350,55" fill="rgb(255,255,255)" fill-opacity="1.0" stroke="rgb(0,0,0)" stroke-width="2"  />
		</g>
		<g>
			<title> (B110_RS0125690)
hypothetical protein</title>
			<polygon class=" (B110_RS0125690)
hypothetical protein" points="397,25 399,25 399,10 429,40 399,70 399,55 397,55" fill="rgb(255,255,255)" fill-opacity="1.0" stroke="rgb(0,0,0)" stroke-width="2"  />
			<g>
				<title>Pyr_redox_2 (PF07992)
"Pyridine nucleotide-disulphide oxidoreductase"</title>
				<polygon class="PF07992" points="397,28 413,28 425,40 425,40 413,52 397,52" stroke-linejoin="round" width="28" height="24" fill="rgb(187,87,99)" stroke="rgb(149,69,79)" stroke-width="1" opacity="0.75" />
			</g>
		</g>
		<g>
			<title> (B110_RS0125695)
transposase</title>
			<polygon class=" (B110_RS0125695)
transposase" points="431,40 456,10 456,70" fill="rgb(255,255,255)" fill-opacity="1.0" stroke="rgb(0,0,0)" stroke-width="2"  />
			<g>
				<title>DDE_Tnp_4 (PF13359)
"DDE superfamily endonuclease"</title>
				<polygon class="PF13359" points="435,40 445,28 445,28 445,52 445,52" stroke-linejoin="round" width="14" height="24" fill="rgb(69,175,221)" stroke="rgb(55,140,176)" stroke-width="1" opacity="0.75" />
			</g>
			<g>
				<title>HTH_Tnp_4 (PF13613)
"Helix-turn-helix of DDE superfamily endonuclease"</title>
				<rect class="PF13613" x="447" y="28" stroke-linejoin="round" width="5" height="24" fill="rgb(203,71,107)" stroke="rgb(162,56,85)" stroke-width="1" opacity="0.75" />
			</g>
		</g>
		<g>
			<title> (B110_RS27185)
transposase</title>
			<polygon class=" (B110_RS27185)
transposase" points="521,25 497,25 497,10 467,40 497,70 497,55 521,55" fill="rgb(255,255,255)" fill-opacity="1.0" stroke="rgb(0,0,0)" stroke-width="2"  />
		</g>
		<g>
			<title> (B110_RS27190)
hypothetical protein</title>
			<polygon class=" (B110_RS27190)
hypothetical protein" points="525,40 538,10 538,70" fill="rgb(255,255,255)" fill-opacity="1.0" stroke="rgb(0,0,0)" stroke-width="2"  />
			<g>
				<title>Trans_reg_C (PF00486)
"Transcriptional regulatory protein, C terminal"</title>
				<polygon class="PF00486" points="528,40 532,31 532,49" stroke-linejoin="round" width="7" height="24" fill="rgb(69,185,116)" stroke="rgb(55,148,92)" stroke-width="1" opacity="0.75" />
			</g>
		</g>
		<g>
			<title> (B110_RS0125710)
hypothetical protein</title>
			<polygon class=" (B110_RS0125710)
hypothetical protein" points="544,40 551,10 551,70" fill="rgb(255,255,255)" fill-opacity="1.0" stroke="rgb(0,0,0)" stroke-width="2"  />
			<g>
				<title>MbtH (PF03621)
"MbtH-like protein"</title>
				<polygon class="PF03621" points="547,40 550,28 550,28 550,52 550,52" stroke-linejoin="round" width="5" height="24" fill="rgb(102,212,116)" stroke="rgb(81,169,92)" stroke-width="1" opacity="0.75" />
			</g>
		</g>
		<g>
			<title> (B110_RS0125715)
non-ribosomal peptide synthetase</title>
			<polygon class=" (B110_RS0125715)
non-ribosomal peptide synthetase" points="864,25 582,25 582,10 552,40 582,70 582,55 864,55" fill="rgb(255,255,255)" fill-opacity="1.0" stroke="rgb(0,0,0)" stroke-width="2"  />
			<g>
				<title>Thioesterase (PF00975)
"Thioesterase domain"</title>
				<polygon class="PF00975" points="556,40 568,28 574,28 574,52 568,52" stroke-linejoin="round" width="21" height="24" fill="rgb(69,76,223)" stroke="rgb(55,60,178)" stroke-width="1" opacity="0.75" />
			</g>
			<g>
				<title>PP-binding (PF00550)
"Phosphopantetheine attachment site"</title>
				<rect class="PF00550" x="577" y="28" stroke-linejoin="round" width="6" height="24" fill="rgb(181,58,166)" stroke="rgb(144,46,132)" stroke-width="1" opacity="0.75" />
			</g>
			<g>
				<title>Methyltransf_23 (PF13489)
"Methyltransferase domain"</title>
				<rect class="PF13489" x="608" y="28" stroke-linejoin="round" width="15" height="24" fill="rgb(62,214,70)" stroke="rgb(49,171,56)" stroke-width="1" opacity="0.75" />
			</g>
			<g>
				<title>AMP-binding (PF00501)
"AMP-binding enzyme"</title>
				<rect class="PF00501" x="639" y="28" stroke-linejoin="round" width="33" height="24" fill="rgb(189,78,204)" stroke="rgb(151,62,163)" stroke-width="1" opacity="0.75" />
			</g>
			<g>
				<title>Condensation (PF00668)
"Condensation domain"</title>
				<rect class="PF00668" x="674" y="28" stroke-linejoin="round" width="45" height="24" fill="rgb(172,217,60)" stroke="rgb(137,173,47)" stroke-width="1" opacity="0.75" />
			</g>
			<g>
				<title>PP-binding (PF00550)
"Phosphopantetheine attachment site"</title>
				<rect class="PF00550" x="720" y="28" stroke-linejoin="round" width="6" height="24" fill="rgb(181,58,166)" stroke="rgb(144,46,132)" stroke-width="1" opacity="0.75" />
			</g>
			<g>
				<title>Methyltransf_12 (PF08242)
"Methyltransferase domain"</title>
				<rect class="PF08242" x="754" y="28" stroke-linejoin="round" width="9" height="24" fill="rgb(78,210,205)" stroke="rgb(62,168,164)" stroke-width="1" opacity="0.75" />
			</g>
			<g>
				<title>AMP-binding (PF00501)
"AMP-binding enzyme"</title>
				<rect class="PF00501" x="780" y="28" stroke-linejoin="round" width="35" height="24" fill="rgb(189,78,204)" stroke="rgb(151,62,163)" stroke-width="1" opacity="0.75" />
			</g>
			<g>
				<title>Condensation (PF00668)
"Condensation domain"</title>
				<rect class="PF00668" x="820" y="28" stroke-linejoin="round" width="44" height="24" fill="rgb(172,217,60)" stroke="rgb(137,173,47)" stroke-width="1" opacity="0.75" />
			</g>
		</g>
		<g>
			<title> (B110_RS0125720)
non-ribosomal peptide synthetase</title>
			<polygon class=" (B110_RS0125720)
non-ribosomal peptide synthetase" points="1121,25 895,25 895,10 865,40 895,70 895,55 1121,55" fill="rgb(255,255,255)" fill-opacity="1.0" stroke="rgb(0,0,0)" stroke-width="2"  />
			<g>
				<title>PP-binding (PF00550)
"Phosphopantetheine attachment site"</title>
				<polygon class="PF00550" points="869,40 872,37 872,43" stroke-linejoin="round" width="6" height="24" fill="rgb(181,58,166)" stroke="rgb(144,46,132)" stroke-width="1" opacity="0.75" />
			</g>
			<g>
				<title>AMP-binding_C (PF13193)
"AMP-binding enzyme C-terminal domain"</title>
				<polygon class="PF13193" points="875,34 881,28 882,28 882,52 881,52 875,46" stroke-linejoin="round" width="7" height="24" fill="rgb(195,82,106)" stroke="rgb(156,65,84)" stroke-width="1" opacity="0.75" />
			</g>
			<g>
				<title>AMP-binding (PF00501)
"AMP-binding enzyme"</title>
				<rect class="PF00501" x="889" y="28" stroke-linejoin="round" width="32" height="24" fill="rgb(189,78,204)" stroke="rgb(151,62,163)" stroke-width="1" opacity="0.75" />
			</g>
			<g>
				<title>Condensation (PF00668)
"Condensation domain"</title>
				<rect class="PF00668" x="923" y="28" stroke-linejoin="round" width="43" height="24" fill="rgb(172,217,60)" stroke="rgb(137,173,47)" stroke-width="1" opacity="0.75" />
			</g>
			<g>
				<title>Condensation (PF00668)
"Condensation domain"</title>
				<rect class="PF00668" x="971" y="28" stroke-linejoin="round" width="42" height="24" fill="rgb(172,217,60)" stroke="rgb(137,173,47)" stroke-width="1" opacity="0.75" />
			</g>
			<g>
				<title>PP-binding (PF00550)
"Phosphopantetheine attachment site"</title>
				<rect class="PF00550" x="1018" y="28" stroke-linejoin="round" width="6" height="24" fill="rgb(181,58,166)" stroke="rgb(144,46,132)" stroke-width="1" opacity="0.75" />
			</g>
			<g>
				<title>AMP-binding_C (PF13193)
"AMP-binding enzyme C-terminal domain"</title>
				<rect class="PF13193" x="1027" y="28" stroke-linejoin="round" width="9" height="24" fill="rgb(195,82,106)" stroke="rgb(156,65,84)" stroke-width="1" opacity="0.75" />
			</g>
			<g>
				<title>AMP-binding (PF00501)
"AMP-binding enzyme"</title>
				<rect class="PF00501" x="1042" y="28" stroke-linejoin="round" width="33" height="24" fill="rgb(189,78,204)" stroke="rgb(151,62,163)" stroke-width="1" opacity="0.75" />
			</g>
			<g>
				<title>Condensation (PF00668)
"Condensation domain"</title>
				<rect class="PF00668" x="1077" y="28" stroke-linejoin="round" width="44" height="24" fill="rgb(172,217,60)" stroke="rgb(137,173,47)" stroke-width="1" opacity="0.75" />
			</g>
		</g>
		<g>
			<title> (B110_RS0125725)
daunorubicin resistance protein DrrC</title>
			<polygon class=" (B110_RS0125725)
daunorubicin resistance protein DrrC" points="1130,25 1179,25 1179,10 1209,40 1179,70 1179,55 1130,55" fill="rgb(255,255,255)" fill-opacity="1.0" stroke="rgb(0,0,0)" stroke-width="2"  />
			<g>
				<title>ABC_tran (PF00005)
"ABC transporter"</title>
				<polygon class="PF00005" points="1180,28 1192,28 1200,36 1200,44 1192,52 1180,52" stroke-linejoin="round" width="20" height="24" fill="rgb(46,186,108)" stroke="rgb(36,148,86)" stroke-width="1" opacity="0.75" />
			</g>
		</g>
		<g>
			<title> (B110_RS27195)
hypothetical protein</title>
			<polygon class=" (B110_RS27195)
hypothetical protein" points="1211,40 1234,10 1234,70" fill="rgb(255,255,255)" fill-opacity="1.0" stroke="rgb(0,0,0)" stroke-width="2"  />
			<g>
				<title>Thioesterase (PF00975)
"Thioesterase domain"</title>
				<polygon class="PF00975" points="1215,40 1224,28 1233,28 1233,52 1224,52" stroke-linejoin="round" width="22" height="24" fill="rgb(69,76,223)" stroke="rgb(55,60,178)" stroke-width="1" opacity="0.75" />
			</g>
		</g>
	</g>
</svg>
