<svg version="1.1" baseProfile="full" xmlns="http://www.w3.org/2000/svg" width="512.3666666666667" height="160">
	<g>
		<line x1="10" y1="40.0" x2="502.3666666666667" y2="40.0" style="stroke:rgb(70,70,70); stroke-width:3 "/>
		<g>
			<title> (Bmul_4910)
glycosyl transferase group 1</title>
			<polygon class=" (Bmul_4910)
glycosyl transferase group 1" points="48,25 40,25 40,10 10,40 40,70 40,55 48,55" fill="rgb(255,255,255)" fill-opacity="1.0" stroke="rgb(0,0,0)" stroke-width="2"  />
			<g>
				<title>Glycos_transf_1 (PF00534)
"Glycosyl transferases group 1"</title>
				<polygon class="PF00534" points="14,40 26,28 29,28 29,52 26,52" stroke-linejoin="round" width="17" height="24" fill="rgb(66,178,218)" stroke="rgb(52,142,174)" stroke-width="1" opacity="0.75" />
			</g>
			<g>
				<title>Glyco_transf_4 (PF13439)
"Glycosyltransferase Family 4"</title>
				<rect class="PF13439" x="30" y="28" stroke-linejoin="round" width="16" height="24" fill="rgb(67,194,123)" stroke="rgb(53,155,98)" stroke-width="1" opacity="0.75" />
			</g>
		</g>
		<g>
			<title> (Bmul_4911)
glycosyl transferase group 1</title>
			<polygon class=" (Bmul_4911)
glycosyl transferase group 1" points="87,25 78,25 78,10 48,40 78,70 78,55 87,55" fill="rgb(255,255,255)" fill-opacity="1.0" stroke="rgb(0,0,0)" stroke-width="2"  />
			<g>
				<title>Glycos_transf_1 (PF00534)
"Glycosyl transferases group 1"</title>
				<polygon class="PF00534" points="52,40 64,28 68,28 68,52 64,52 52,40" stroke-linejoin="round" width="16" height="24" fill="rgb(66,178,218)" stroke="rgb(52,142,174)" stroke-width="1" opacity="0.75" />
			</g>
			<g>
				<title>Glyco_transf_4 (PF13439)
"Glycosyltransferase Family 4"</title>
				<rect class="PF13439" x="69" y="28" stroke-linejoin="round" width="17" height="24" fill="rgb(67,194,123)" stroke="rgb(53,155,98)" stroke-width="1" opacity="0.75" />
			</g>
		</g>
		<g>
			<title> (Bmul_4912)
conserved hypothetical protein</title>
			<polygon class=" (Bmul_4912)
conserved hypothetical protein" points="136,25 118,25 118,10 88,40 118,70 118,55 136,55" fill="rgb(255,255,255)" fill-opacity="1.0" stroke="rgb(0,0,0)" stroke-width="2"  />
		</g>
		<g>
			<title> (Bmul_4913)
glycosyltransferase-like protein</title>
			<polygon class=" (Bmul_4913)
glycosyltransferase-like protein" points="175,25 167,25 167,10 137,40 167,70 167,55 175,55" fill="rgb(255,255,255)" fill-opacity="1.0" stroke="rgb(0,0,0)" stroke-width="2"  />
			<g>
				<title>Glyco_trans_1_4 (PF13692)
"Glycosyl transferases group 1"</title>
				<polygon class="PF13692" points="143,38 153,28 155,28 155,52 153,52 143,42" stroke-linejoin="round" width="12" height="24" fill="rgb(154,183,67)" stroke="rgb(123,146,53)" stroke-width="1" opacity="0.75" />
			</g>
		</g>
		<g>
			<title> (Bmul_4914)
glycosyl transferase family 2</title>
			<polygon class=" (Bmul_4914)
glycosyl transferase family 2" points="208,25 206,25 206,10 176,40 206,70 206,55 208,55" fill="rgb(255,255,255)" fill-opacity="1.0" stroke="rgb(0,0,0)" stroke-width="2"  />
			<g>
				<title>Glyco_tranf_2_3 (PF13641)
"Glycosyltransferase like family 2"</title>
				<polygon class="PF13641" points="185,35 192,28 207,28 207,52 192,52 185,45" stroke-linejoin="round" width="22" height="24" fill="rgb(220,84,201)" stroke="rgb(176,67,160)" stroke-width="1" opacity="0.75" />
			</g>
		</g>
		<g>
			<title> (Bmul_4915)
capsular exopolysaccharide family</title>
			<polygon class=" (Bmul_4915)
capsular exopolysaccharide family" points="284,25 240,25 240,10 210,40 240,70 240,55 284,55" fill="rgb(255,255,255)" fill-opacity="1.0" stroke="rgb(0,0,0)" stroke-width="2"  />
			<g>
				<title>AAA_31 (PF13614)
"AAA domain"</title>
				<polygon class="PF13614" points="214,40 226,28 228,28 228,52 226,52" stroke-linejoin="round" width="15" height="24" fill="rgb(103,181,56)" stroke="rgb(82,144,44)" stroke-width="1" opacity="0.75" />
			</g>
			<g>
				<title>GNVR (PF13807)
"G-rich domain on putative tyrosine kinase"</title>
				<rect class="PF13807" x="236" y="28" stroke-linejoin="round" width="8" height="24" fill="rgb(214,163,91)" stroke="rgb(171,130,72)" stroke-width="1" opacity="0.75" />
			</g>
			<g>
				<title>Wzz (PF02706)
"Chain length determinant protein"</title>
				<rect class="PF02706" x="272" y="28" stroke-linejoin="round" width="9" height="24" fill="rgb(216,77,57)" stroke="rgb(172,61,45)" stroke-width="1" opacity="0.75" />
			</g>
		</g>
		<g>
			<title> (Bmul_4916)
polysaccharide export protein</title>
			<polygon class=" (Bmul_4916)
polysaccharide export protein" points="325,25 316,25 316,10 286,40 316,70 316,55 325,55" fill="rgb(255,255,255)" fill-opacity="1.0" stroke="rgb(0,0,0)" stroke-width="2"  />
			<g>
				<title>SLBB (PF10531)
"SLBB domain"</title>
				<polygon class="PF10531" points="292,38 297,33 297,47 292,42" stroke-linejoin="round" width="5" height="24" fill="rgb(53,192,99)" stroke="rgb(42,153,79)" stroke-width="1" opacity="0.75" />
			</g>
			<g>
				<title>SLBB (PF10531)
"SLBB domain"</title>
				<polygon class="PF10531" points="300,30 302,28 305,28 305,52 302,52 300,50" stroke-linejoin="round" width="5" height="24" fill="rgb(53,192,99)" stroke="rgb(42,153,79)" stroke-width="1" opacity="0.75" />
			</g>
			<g>
				<title>Poly_export (PF02563)
"Polysaccharide biosynthesis/export protein"</title>
				<rect class="PF02563" x="306" y="28" stroke-linejoin="round" width="11" height="24" fill="rgb(219,92,156)" stroke="rgb(175,73,124)" stroke-width="1" opacity="0.75" />
			</g>
		</g>
		<g>
			<title> (Bmul_4917)
protein tyrosine phosphatase</title>
			<polygon class=" (Bmul_4917)
protein tyrosine phosphatase" points="326,40 340,10 340,70" fill="rgb(255,255,255)" fill-opacity="1.0" stroke="rgb(0,0,0)" stroke-width="2"  />
			<g>
				<title>LMWPc (PF01451)
"Low molecular weight phosphotyrosine protein phosphatase"</title>
				<polygon class="PF01451" points="329,40 335,28 339,28 339,52 335,52" stroke-linejoin="round" width="13" height="24" fill="rgb(105,179,85)" stroke="rgb(84,143,68)" stroke-width="1" opacity="0.75" />
			</g>
		</g>
		<g>
			<title> (Bmul_4918)
nucleotide sugar dehydrogenase</title>
			<polygon class=" (Bmul_4918)
nucleotide sugar dehydrogenase" points="389,25 372,25 372,10 342,40 372,70 372,55 389,55" fill="rgb(255,255,255)" fill-opacity="1.0" stroke="rgb(0,0,0)" stroke-width="2"  />
			<g>
				<title>UDPG_MGDP_dh_C (PF03720)
"UDP-glucose/GDP-mannose dehydrogenase family, UDP binding domain"</title>
				<polygon class="PF03720" points="346,40 356,30 356,50" stroke-linejoin="round" width="11" height="24" fill="rgb(78,165,180)" stroke="rgb(62,132,144)" stroke-width="1" opacity="0.75" />
			</g>
			<g>
				<title>UDPG_MGDP_dh (PF00984)
"UDP-glucose/GDP-mannose dehydrogenase family, central domain"</title>
				<rect class="PF00984" x="359" y="28" stroke-linejoin="round" width="9" height="24" fill="rgb(171,213,56)" stroke="rgb(136,170,44)" stroke-width="1" opacity="0.75" />
			</g>
			<g>
				<title>UDPG_MGDP_dh_N (PF03721)
"UDP-glucose/GDP-mannose dehydrogenase family, NAD binding domain"</title>
				<rect class="PF03721" x="370" y="28" stroke-linejoin="round" width="18" height="24" fill="rgb(63,215,56)" stroke="rgb(50,172,44)" stroke-width="1" opacity="0.75" />
			</g>
		</g>
		<g>
			<title> (Bmul_4919)
Undecaprenyl-phosphate glucose phosphotransferase</title>
			<polygon class=" (Bmul_4919)
Undecaprenyl-phosphate glucose phosphotransferase" points="438,25 421,25 421,10 391,40 421,70 421,55 438,55" fill="rgb(255,255,255)" fill-opacity="1.0" stroke="rgb(0,0,0)" stroke-width="2"  />
			<g>
				<title>Bac_transf (PF02397)
"Bacterial sugar transferase"</title>
				<polygon class="PF02397" points="395,40 407,28 409,28 409,52 407,52" stroke-linejoin="round" width="18" height="24" fill="rgb(100,199,213)" stroke="rgb(80,159,170)" stroke-width="1" opacity="0.75" />
			</g>
			<g>
				<title>CoA_binding_3 (PF13727)
"CoA-binding domain"</title>
				<rect class="PF13727" x="413" y="28" stroke-linejoin="round" width="17" height="24" fill="rgb(115,219,79)" stroke="rgb(92,175,63)" stroke-width="1" opacity="0.75" />
			</g>
		</g>
		<g>
			<title> (Bmul_4920)
mannose-1-phosphate guanylyltransferase/mannose-6-phosphate isomerase</title>
			<polygon class=" (Bmul_4920)
mannose-1-phosphate guanylyltransferase/mannose-6-phosphate isomerase" points="451,25 471,25 471,10 501,40 471,70 471,55 451,55" fill="rgb(255,255,255)" fill-opacity="1.0" stroke="rgb(0,0,0)" stroke-width="2"  />
			<g>
				<title>NTP_transferase (PF00483)
"Nucleotidyl transferase"</title>
				<rect class="PF00483" x="453" y="28" stroke-linejoin="round" width="29" height="24" fill="rgb(211,145,90)" stroke="rgb(168,116,72)" stroke-width="1" opacity="0.75" />
			</g>
			<g>
				<title>MannoseP_isomer (PF01050)
"Mannose-6-phosphate isomerase"</title>
				<polygon class="PF01050" points="486,29 497,40 486,51" stroke-linejoin="round" width="15" height="24" fill="rgb(153,227,90)" stroke="rgb(122,181,72)" stroke-width="1" opacity="0.75" />
			</g>
		</g>
	</g>
	<g>
		<line x1="10" y1="120.0" x2="478.8" y2="120.0" style="stroke:rgb(70,70,70); stroke-width:3 "/>
		<g>
			<title> (Bmul_4604)
acyltransferase 3</title>
			<polygon class=" (Bmul_4604)
acyltransferase 3" points="10,105 17,105 17,90 47,120 17,150 17,135 10,135" fill="rgb(255,255,255)" fill-opacity="1.0" stroke="rgb(0,0,0)" stroke-width="2"  />
		</g>
		<g>
			<title> (Bmul_4605)
UTP-glucose-1-phosphate uridylyltransferase</title>
			<polygon class=" (Bmul_4605)
UTP-glucose-1-phosphate uridylyltransferase" points="57,120 86,90 86,150" fill="rgb(255,255,255)" fill-opacity="1.0" stroke="rgb(0,0,0)" stroke-width="2"  />
		</g>
		<g>
			<title> (Bmul_4606)
conserved hypothetical protein</title>
			<polygon class=" (Bmul_4606)
conserved hypothetical protein" points="94,120 98,90 98,150" fill="rgb(255,255,255)" fill-opacity="1.0" stroke="rgb(0,0,0)" stroke-width="2"  />
		</g>
		<g>
			<title> (Bmul_4607)
acyltransferase 3</title>
			<polygon class=" (Bmul_4607)
acyltransferase 3" points="106,105 115,105 115,90 145,120 115,150 115,135 106,135" fill="rgb(255,255,255)" fill-opacity="1.0" stroke="rgb(0,0,0)" stroke-width="2"  />
		</g>
		<g>
			<title> (Bmul_4608)
glycosyl transferase group 1</title>
			<polygon class=" (Bmul_4608)
glycosyl transferase group 1" points="235,105 183,105 183,90 153,120 183,150 183,135 235,135" fill="rgb(255,255,255)" fill-opacity="1.0" stroke="rgb(0,0,0)" stroke-width="2"  />
		</g>
		<g>
			<title> (Bmul_4609)
polysaccharide biosynthesis protein</title>
			<polygon class=" (Bmul_4609)
polysaccharide biosynthesis protein" points="283,105 265,105 265,90 235,120 265,150 265,135 283,135" fill="rgb(255,255,255)" fill-opacity="1.0" stroke="rgb(0,0,0)" stroke-width="2"  />
		</g>
		<g>
			<title> (Bmul_4610)
conserved hypothetical protein</title>
			<polygon class=" (Bmul_4610)
conserved hypothetical protein" points="358,105 315,105 315,90 285,120 315,150 315,135 358,135" fill="rgb(255,255,255)" fill-opacity="1.0" stroke="rgb(0,0,0)" stroke-width="2"  />
		</g>
		<g>
			<title> (Bmul_4611)
acyltransferase 3</title>
			<polygon class=" (Bmul_4611)
acyltransferase 3" points="374,105 380,105 380,90 410,120 380,150 380,135 374,135" fill="rgb(255,255,255)" fill-opacity="1.0" stroke="rgb(0,0,0)" stroke-width="2"  />
		</g>
		<g>
			<title> (Bmul_4612)
GDP-mannose 4,6-dehydratase</title>
			<polygon class=" (Bmul_4612)
GDP-mannose 4,6-dehydratase" points="411,105 415,105 415,90 445,120 415,150 415,135 411,135" fill="rgb(255,255,255)" fill-opacity="1.0" stroke="rgb(0,0,0)" stroke-width="2"  />
		</g>
		<g>
			<title> (Bmul_4613)
NAD-dependent epimerase/dehydratase</title>
			<polygon class=" (Bmul_4613)
NAD-dependent epimerase/dehydratase" points="446,105 448,105 448,90 478,120 448,150 448,135 446,135" fill="rgb(255,255,255)" fill-opacity="1.0" stroke="rgb(0,0,0)" stroke-width="2"  />
		</g>
	</g>
</svg>
