<svg version="1.1" baseProfile="full" xmlns="http://www.w3.org/2000/svg" width="2686.6666666666665" height="80">
	<g>
		<line x1="10" y1="40.0" x2="2676.6666666666665" y2="40.0" style="stroke:rgb(70,70,70); stroke-width:3 "/>
		<g>
			<title> (2360)
d-tyrosyl-tRNA(Tyr) deacylase</title>
			<polygon class=" (2360)
d-tyrosyl-tRNA(Tyr) deacylase" points="353,10 378,40 353,70" fill="rgb(255,255,255)" fill-opacity="1.0" stroke="rgb(0,0,0)" stroke-width="2"  />
			<g>
				<title>Tyr_Deacylase (PF02580)
"D-Tyr-tRNA(Tyr) deacylase"</title>
				<polygon class="PF02580" points="360,28 364,28 367,32 367,48 364,52 360,52" stroke-linejoin="round" width="7" height="24" fill="rgb(184,126,78)" stroke="rgb(147,100,62)" stroke-width="1" opacity="0.75" />
			</g>
		</g>
		<g>
			<title> (2361)
peptidyl-prolyl cis-trans isomerase</title>
			<polygon class=" (2361)
peptidyl-prolyl cis-trans isomerase" points="405,25 405,25 405,10 435,40 405,70 405,55 405,55" fill="rgb(255,255,255)" fill-opacity="1.0" stroke="rgb(0,0,0)" stroke-width="2"  />
			<g>
				<title>Pro_isomerase (PF00160)
"Cyclophilin type peptidyl-prolyl cis-trans isomerase/CLD"</title>
				<rect class="PF00160" x="405" y="28" stroke-linejoin="round" width="10" height="24" fill="rgb(69,187,86)" stroke="rgb(55,149,68)" stroke-width="1" opacity="0.75" />
			</g>
		</g>
		<g>
			<title> (2362MpPKS5)
conidial yellow pigment biosynthesis polyketide synthase</title>
			<polygon class=" (2362MpPKS5)
conidial yellow pigment biosynthesis polyketide synthase" points="744,25 503,25 503,10 473,40 503,70 503,55 744,55" fill="rgb(255,255,255)" fill-opacity="1.0" stroke="rgb(0,0,0)" stroke-width="2"  />
			<g>
				<title>NAD_binding_4 (PF07993)
"Male sterility protein"</title>
				<polygon class="PF07993" points="487,30 489,28 511,28 511,52 489,52 487,50" stroke-linejoin="round" width="24" height="24" fill="rgb(210,94,130)" stroke="rgb(168,75,103)" stroke-width="1" opacity="0.75" />
			</g>
			<g>
				<title>Methyltransf_12 (PF08242)
"Methyltransferase domain"</title>
				<rect class="PF08242" x="526" y="28" stroke-linejoin="round" width="10" height="24" fill="rgb(78,210,205)" stroke="rgb(62,168,164)" stroke-width="1" opacity="0.75" />
			</g>
			<g>
				<title>HTH_51 (PF18558)
"Helix-turn-helix domain"</title>
				<rect class="PF18558" x="546" y="28" stroke-linejoin="round" width="8" height="24" fill="rgb(57,180,179)" stroke="rgb(45,144,143)" stroke-width="1" opacity="0.75" />
			</g>
			<g>
				<title>PP-binding (PF00550)
"Phosphopantetheine attachment site"</title>
				<rect class="PF00550" x="561" y="28" stroke-linejoin="round" width="6" height="24" fill="rgb(181,58,166)" stroke="rgb(144,46,132)" stroke-width="1" opacity="0.75" />
			</g>
			<g>
				<title>PP-binding (PF00550)
"Phosphopantetheine attachment site"</title>
				<rect class="PF00550" x="571" y="28" stroke-linejoin="round" width="6" height="24" fill="rgb(181,58,166)" stroke="rgb(144,46,132)" stroke-width="1" opacity="0.75" />
			</g>
			<g>
				<title>Acyl_transf_1 (PF00698)
"Acyl transferase domain"</title>
				<rect class="PF00698" x="623" y="28" stroke-linejoin="round" width="29" height="24" fill="rgb(132,93,193)" stroke="rgb(105,74,154)" stroke-width="1" opacity="0.75" />
			</g>
			<g>
				<title>Ketoacyl-synt_C (PF02801)
"Beta-ketoacyl synthase, C-terminal domain"</title>
				<rect class="PF02801" x="668" y="28" stroke-linejoin="round" width="11" height="24" fill="rgb(212,79,72)" stroke="rgb(169,63,57)" stroke-width="1" opacity="0.75" />
			</g>
			<g>
				<title>ketoacyl-synt (PF00109)
"Beta-ketoacyl synthase, N-terminal domain"</title>
				<rect class="PF00109" x="681" y="28" stroke-linejoin="round" width="24" height="24" fill="rgb(74,179,82)" stroke="rgb(59,143,65)" stroke-width="1" opacity="0.75" />
			</g>
			<g>
				<title>SAT (PF16073)
"Starter unit:ACP transacylase in aflatoxin biosynthesis"</title>
				<rect class="PF16073" x="718" y="28" stroke-linejoin="round" width="19" height="24" fill="rgb(77,185,114)" stroke="rgb(61,148,91)" stroke-width="1" opacity="0.75" />
			</g>
		</g>
		<g>
			<title> (2363R1)
putative citrinin biosynthesis transcriptional activator CtnR</title>
			<polygon class=" (2363R1)
putative citrinin biosynthesis transcriptional activator CtnR" points="830,25 857,25 857,10 887,40 857,70 857,55 830,55" fill="rgb(255,255,255)" fill-opacity="1.0" stroke="rgb(0,0,0)" stroke-width="2"  />
			<g>
				<title>Fungal_trans (PF04082)
"Fungal specific transcription factor domain"</title>
				<rect class="PF04082" x="840" y="28" stroke-linejoin="round" width="23" height="24" fill="rgb(214,73,227)" stroke="rgb(171,58,181)" stroke-width="1" opacity="0.75" />
			</g>
		</g>
		<g>
			<title> (2364A)
putative oxidoreductase yoxD</title>
			<polygon class=" (2364A)
putative oxidoreductase yoxD" points="927,25 922,25 922,10 892,40 922,70 922,55 927,55" fill="rgb(255,255,255)" fill-opacity="1.0" stroke="rgb(0,0,0)" stroke-width="2"  />
			<g>
				<title>adh_short (PF00106)
"short chain dehydrogenase"</title>
				<polygon class="PF00106" points="903,33 908,28 922,28 922,52 908,52 903,47" stroke-linejoin="round" width="19" height="24" fill="rgb(128,81,196)" stroke="rgb(102,64,156)" stroke-width="1" opacity="0.75" />
			</g>
		</g>
		<g>
			<title> (2365B)
trichothecene 3-O-acetyltransferase</title>
			<polygon class=" (2365B)
trichothecene 3-O-acetyltransferase" points="947,25 962,25 962,10 992,40 962,70 962,55 947,55" fill="rgb(255,255,255)" fill-opacity="1.0" stroke="rgb(0,0,0)" stroke-width="2"  />
			<g>
				<title>Transferase (PF02458)
"Transferase family"</title>
				<polygon class="PF02458" points="959,28 976,28 988,40 976,52 959,52" stroke-linejoin="round" width="32" height="24" fill="rgb(183,146,88)" stroke="rgb(146,116,70)" stroke-width="1" opacity="0.75" />
			</g>
		</g>
		<g>
			<title> (2366C)
aflatoxin B1 aldehyde reductase member 3</title>
			<polygon class=" (2366C)
aflatoxin B1 aldehyde reductase member 3" points="1031,25 1027,25 1027,10 997,40 1027,70 1027,55 1031,55" fill="rgb(255,255,255)" fill-opacity="1.0" stroke="rgb(0,0,0)" stroke-width="2"  />
			<g>
				<title>Aldo_ket_red (PF00248)
"Aldo/keto reductase family"</title>
				<polygon class="PF00248" points="1001,40 1013,28 1030,28 1030,52 1013,52" stroke-linejoin="round" width="32" height="24" fill="rgb(96,196,138)" stroke="rgb(76,156,110)" stroke-width="1" opacity="0.75" />
			</g>
		</g>
		<g>
			<title> (2367B)
amino oxidase/esterase</title>
			<polygon class=" (2367B)
amino oxidase/esterase" points="1049,25 1102,25 1102,10 1132,40 1102,70 1102,55 1049,55" fill="rgb(255,255,255)" fill-opacity="1.0" stroke="rgb(0,0,0)" stroke-width="2"  />
			<g>
				<title>NAD_binding_8 (PF13450)
"NAD(P)-binding Rossmann-like domain"</title>
				<rect class="PF13450" x="1051" y="28" stroke-linejoin="round" width="6" height="24" fill="rgb(218,105,93)" stroke="rgb(174,84,74)" stroke-width="1" opacity="0.75" />
			</g>
			<g>
				<title>FSH1 (PF03959)
"Serine hydrolase (FSH1)"</title>
				<polygon class="PF03959" points="1097,28 1116,28 1121,33 1121,47 1116,52 1097,52" stroke-linejoin="round" width="24" height="24" fill="rgb(93,205,174)" stroke="rgb(74,164,139)" stroke-width="1" opacity="0.75" />
			</g>
		</g>
		<g>
			<title> (2368E)
putative quinone-oxidoreductase-like protein</title>
			<polygon class=" (2368E)
putative quinone-oxidoreductase-like protein" points="1173,25 1166,25 1166,10 1136,40 1166,70 1166,55 1173,55" fill="rgb(255,255,255)" fill-opacity="1.0" stroke="rgb(0,0,0)" stroke-width="2"  />
			<g>
				<title>ADH_N (PF08240)
"Alcohol dehydrogenase GroES-like domain"</title>
				<rect class="PF08240" x="1161" y="28" stroke-linejoin="round" width="8" height="24" fill="rgb(217,198,105)" stroke="rgb(173,158,84)" stroke-width="1" opacity="0.75" />
			</g>
		</g>
		<g>
			<title> (2369)
hypothetical protein</title>
			<polygon class=" (2369)
hypothetical protein" points="1183,25 1185,25 1185,10 1215,40 1185,70 1185,55 1183,55" fill="rgb(255,255,255)" fill-opacity="1.0" stroke="rgb(0,0,0)" stroke-width="2"  />
			<g>
				<title>Zn_clus (PF00172)
"Fungal Zn(2)-Cys(6) binuclear cluster domain"</title>
				<rect class="PF00172" x="1186" y="28" stroke-linejoin="round" width="3" height="24" fill="rgb(58,207,82)" stroke="rgb(46,165,65)" stroke-width="1" opacity="0.75" />
			</g>
		</g>
		<g>
			<title> (2370R2)
putative transcriptional regulatory protein</title>
			<polygon class=" (2370R2)
putative transcriptional regulatory protein" points="1220,25 1238,25 1238,10 1268,40 1238,70 1238,55 1220,55" fill="rgb(255,255,255)" fill-opacity="1.0" stroke="rgb(0,0,0)" stroke-width="2"  />
			<g>
				<title>Fungal_trans (PF04082)
"Fungal specific transcription factor domain"</title>
				<rect class="PF04082" x="1220" y="28" stroke-linejoin="round" width="21" height="24" fill="rgb(214,73,227)" stroke="rgb(171,58,181)" stroke-width="1" opacity="0.75" />
			</g>
		</g>
		<g>
			<title> (2371MpFasA2)
fatty acid synthase alpha subunit</title>
			<polygon class=" (2371MpFasA2)
fatty acid synthase alpha subunit" points="1469,25 1307,25 1307,10 1277,40 1307,70 1307,55 1469,55" fill="rgb(255,255,255)" fill-opacity="1.0" stroke="rgb(0,0,0)" stroke-width="2"  />
			<g>
				<title>ACPS (PF01648)
"4'-phosphopantetheinyl transferase superfamily"</title>
				<polygon class="PF01648" points="1289,32 1293,28 1298,28 1298,52 1293,52 1289,48" stroke-linejoin="round" width="9" height="24" fill="rgb(58,190,78)" stroke="rgb(46,152,62)" stroke-width="1" opacity="0.75" />
			</g>
			<g>
				<title>Ketoacyl-synt_C (PF02801)
"Beta-ketoacyl synthase, C-terminal domain"</title>
				<rect class="PF02801" x="1317" y="28" stroke-linejoin="round" width="12" height="24" fill="rgb(212,79,72)" stroke="rgb(169,63,57)" stroke-width="1" opacity="0.75" />
			</g>
			<g>
				<title>ketoacyl-synt (PF00109)
"Beta-ketoacyl synthase, N-terminal domain"</title>
				<rect class="PF00109" x="1338" y="28" stroke-linejoin="round" width="24" height="24" fill="rgb(74,179,82)" stroke="rgb(59,143,65)" stroke-width="1" opacity="0.75" />
			</g>
			<g>
				<title>FAS_I_H (PF18314)
"Fatty acid synthase type I helical domain"</title>
				<rect class="PF18314" x="1414" y="28" stroke-linejoin="round" width="19" height="24" fill="rgb(186,161,78)" stroke="rgb(148,128,62)" stroke-width="1" opacity="0.75" />
			</g>
			<g>
				<title>Fas_alpha_ACP (PF18325)
"Fatty acid synthase subunit alpha Acyl carrier domain"</title>
				<rect class="PF18325" x="1436" y="28" stroke-linejoin="round" width="15" height="24" fill="rgb(90,76,202)" stroke="rgb(71,60,161)" stroke-width="1" opacity="0.75" />
			</g>
		</g>
		<g>
			<title> (2372MpFasB2)
fatty acid synthase beta subunit</title>
			<polygon class=" (2372MpFasB2)
fatty acid synthase beta subunit" points="1491,25 1669,25 1669,10 1699,40 1669,70 1669,55 1491,55" fill="rgb(255,255,255)" fill-opacity="1.0" stroke="rgb(0,0,0)" stroke-width="2"  />
			<g>
				<title>SAT (PF16073)
"Starter unit:ACP transacylase in aflatoxin biosynthesis"</title>
				<rect class="PF16073" x="1505" y="28" stroke-linejoin="round" width="25" height="24" fill="rgb(77,185,114)" stroke="rgb(61,148,91)" stroke-width="1" opacity="0.75" />
			</g>
			<g>
				<title>Fas1-AflB-like_hel (PF08354)
"Fatty acid synthase subunit beta/Fas1-like, helical"</title>
				<rect class="PF08354" x="1562" y="28" stroke-linejoin="round" width="34" height="24" fill="rgb(200,86,126)" stroke="rgb(160,68,100)" stroke-width="1" opacity="0.75" />
			</g>
			<g>
				<title>FAS_meander (PF17951)
"Fatty acid synthase meander beta sheet domain"</title>
				<rect class="PF17951" x="1602" y="28" stroke-linejoin="round" width="13" height="24" fill="rgb(177,192,60)" stroke="rgb(141,153,48)" stroke-width="1" opacity="0.75" />
			</g>
			<g>
				<title>MaoC_dehydrat_N (PF13452)
"N-terminal half of MaoC dehydratase"</title>
				<rect class="PF13452" x="1619" y="28" stroke-linejoin="round" width="9" height="24" fill="rgb(80,58,182)" stroke="rgb(64,46,145)" stroke-width="1" opacity="0.75" />
			</g>
			<g>
				<title>MaoC_dehydratas (PF01575)
"MaoC like domain"</title>
				<rect class="PF01575" x="1641" y="28" stroke-linejoin="round" width="13" height="24" fill="rgb(86,84,223)" stroke="rgb(68,67,178)" stroke-width="1" opacity="0.75" />
			</g>
			<g>
				<title>Acyl_transf_1 (PF00698)
"Acyl transferase domain"</title>
				<polygon class="PF00698" points="1655,28 1683,28 1691,36 1691,44 1683,52 1655,52" stroke-linejoin="round" width="36" height="24" fill="rgb(132,93,193)" stroke="rgb(105,74,154)" stroke-width="1" opacity="0.75" />
			</g>
		</g>
		<g>
			<title> (2373)
hypothetical protein</title>
			<polygon class=" (2373)
hypothetical protein" points="1716,40 1731,10 1731,70" fill="rgb(255,255,255)" fill-opacity="1.0" stroke="rgb(0,0,0)" stroke-width="2"  />
		</g>
		<g>
			<title> (2374)
gTP-binding protein rhoA</title>
			<polygon class=" (2374)
gTP-binding protein rhoA" points="1750,40 1771,10 1771,70" fill="rgb(255,255,255)" fill-opacity="1.0" stroke="rgb(0,0,0)" stroke-width="2"  />
			<g>
				<title>Ras (PF00071)
"Ras family"</title>
				<polygon class="PF00071" points="1754,40 1763,28 1770,28 1770,52 1763,52" stroke-linejoin="round" width="20" height="24" fill="rgb(179,79,223)" stroke="rgb(143,63,178)" stroke-width="1" opacity="0.75" />
			</g>
		</g>
		<g>
			<title> (2375)
hypothetical protein</title>
			<polygon class=" (2375)
hypothetical protein" points="1817,25 1821,25 1821,10 1851,40 1821,70 1821,55 1817,55" fill="rgb(255,255,255)" fill-opacity="1.0" stroke="rgb(0,0,0)" stroke-width="2"  />
		</g>
		<g>
			<title> (2376)
myrosinase-binding protein-like protein</title>
			<polygon class=" (2376)
myrosinase-binding protein-like protein" points="1869,25 1874,25 1874,10 1904,40 1874,70 1874,55 1869,55" fill="rgb(255,255,255)" fill-opacity="1.0" stroke="rgb(0,0,0)" stroke-width="2"  />
			<g>
				<title>Kelch_3 (PF13415)
"Galactose oxidase, central domain"</title>
				<rect class="PF13415" x="1871" y="28" stroke-linejoin="round" width="5" height="24" fill="rgb(93,123,214)" stroke="rgb(74,98,171)" stroke-width="1" opacity="0.75" />
			</g>
			<g>
				<title>Kelch_4 (PF13418)
"Galactose oxidase, central domain"</title>
				<rect class="PF13418" x="1882" y="28" stroke-linejoin="round" width="4" height="24" fill="rgb(68,182,61)" stroke="rgb(54,145,48)" stroke-width="1" opacity="0.75" />
			</g>
			<g>
				<title>Kelch_4 (PF13418)
"Galactose oxidase, central domain"</title>
				<polygon class="PF13418" points="1895,35 1898,38 1898,42 1895,45" stroke-linejoin="round" width="3" height="24" fill="rgb(68,182,61)" stroke="rgb(54,145,48)" stroke-width="1" opacity="0.75" />
			</g>
			<g>
				<title>Kelch_4 (PF13418)
"Galactose oxidase, central domain"</title>
				<polygon class="PF13418" points="1899,39 1900,40 1899,41" stroke-linejoin="round" width="3" height="24" fill="rgb(68,182,61)" stroke="rgb(54,145,48)" stroke-width="1" opacity="0.75" />
			</g>
		</g>
		<g>
			<title> (2377)
solute carrier family 40 member 1</title>
			<polygon class=" (2377)
solute carrier family 40 member 1" points="1926,25 1959,25 1959,10 1989,40 1959,70 1959,55 1926,55" fill="rgb(255,255,255)" fill-opacity="1.0" stroke="rgb(0,0,0)" stroke-width="2"  />
			<g>
				<title>FPN1 (PF06963)
"Ferroportin1 (FPN1)"</title>
				<rect class="PF06963" x="1930" y="28" stroke-linejoin="round" width="8" height="24" fill="rgb(217,153,77)" stroke="rgb(173,122,61)" stroke-width="1" opacity="0.75" />
			</g>
			<g>
				<title>FPN1 (PF06963)
"Ferroportin1 (FPN1)"</title>
				<rect class="PF06963" x="1938" y="28" stroke-linejoin="round" width="23" height="24" fill="rgb(217,153,77)" stroke="rgb(173,122,61)" stroke-width="1" opacity="0.75" />
			</g>
		</g>
		<g>
			<title> (2378)
hypothetical protein</title>
			<polygon class=" (2378)
hypothetical protein" points="2002,40 2008,10 2008,70" fill="rgb(255,255,255)" fill-opacity="1.0" stroke="rgb(0,0,0)" stroke-width="2"  />
		</g>
		<g>
			<title> (2379)
hypothetical protein</title>
			<polygon class=" (2379)
hypothetical protein" points="2176,25 2166,25 2166,10 2136,40 2166,70 2166,55 2176,55" fill="rgb(255,255,255)" fill-opacity="1.0" stroke="rgb(0,0,0)" stroke-width="2"  />
		</g>
		<g>
			<title> (2380)
hypothetical protein</title>
			<polygon class=" (2380)
hypothetical protein" points="2270,25 2255,25 2255,10 2225,40 2255,70 2255,55 2270,55" fill="rgb(255,255,255)" fill-opacity="1.0" stroke="rgb(0,0,0)" stroke-width="2"  />
			<g>
				<title>PapA_C (PF16911)
"Phthiocerol/phthiodiolone dimycocerosyl transferase C-terminus"</title>
				<polygon class="PF16911" points="2229,40 2241,28 2247,28 2247,52 2241,52" stroke-linejoin="round" width="19" height="24" fill="rgb(64,194,72)" stroke="rgb(51,155,57)" stroke-width="1" opacity="0.75" />
			</g>
		</g>
		<g>
			<title> (2381F)
salicylate hydroxylase</title>
			<polygon class=" (2381F)
salicylate hydroxylase" points="2340,25 2325,25 2325,10 2295,40 2325,70 2325,55 2340,55" fill="rgb(255,255,255)" fill-opacity="1.0" stroke="rgb(0,0,0)" stroke-width="2"  />
			<g>
				<title>FAD_binding_3 (PF01494)
"FAD binding domain"</title>
				<polygon class="PF01494" points="2302,37 2311,28 2339,28 2339,52 2311,52 2302,43" stroke-linejoin="round" width="37" height="24" fill="rgb(215,66,156)" stroke="rgb(172,52,124)" stroke-width="1" opacity="0.75" />
			</g>
		</g>
		<g>
			<title> (2382)
hypothetical protein</title>
			<polygon class=" (2382)
hypothetical protein" points="2417,25 2401,25 2401,10 2371,40 2401,70 2401,55 2417,55" fill="rgb(255,255,255)" fill-opacity="1.0" stroke="rgb(0,0,0)" stroke-width="2"  />
		</g>
		<g>
			<title> (2383)
putative HC-toxin efflux carrier TOXA</title>
			<polygon class=" (2383)
putative HC-toxin efflux carrier TOXA" points="2547,25 2503,25 2503,10 2473,40 2503,70 2503,55 2547,55" fill="rgb(255,255,255)" fill-opacity="1.0" stroke="rgb(0,0,0)" stroke-width="2"  />
			<g>
				<title>TRI12 (PF06609)
"Fungal trichothecene efflux pump (TRI12)"</title>
				<rect class="PF06609" x="2521" y="28" stroke-linejoin="round" width="13" height="24" fill="rgb(49,57,180)" stroke="rgb(39,45,144)" stroke-width="1" opacity="0.75" />
			</g>
		</g>
	</g>
</svg>
