<svg version="1.1" baseProfile="full" xmlns="http://www.w3.org/2000/svg" width="226.26666666666668" height="80">
	<g>
		<line x1="10" y1="40.0" x2="216.26666666666668" y2="40.0" style="stroke:rgb(70,70,70); stroke-width:3 "/>
		<g>
			<title>gaeP
GaeP</title>
			<polygon class="gaeP
GaeP" points="14,10 19,40 14,70" fill="rgb(255,255,255)" fill-opacity="1.0" stroke="rgb(0,0,0)" stroke-width="2"  />
		</g>
		<g>
			<title>gaeK
GaeK</title>
			<polygon class="gaeK
GaeK" points="19,25 32,25 32,10 62,40 32,70 32,55 19,55" fill="rgb(255,255,255)" fill-opacity="1.0" stroke="rgb(0,0,0)" stroke-width="2"  />
			<g>
				<title>HATPase_c_5 (PF14501)
"GHKL domain"</title>
				<polygon class="PF14501" points="50,32 58,40 50,48" stroke-linejoin="round" width="10" height="24" fill="rgb(171,96,195)" stroke="rgb(136,76,156)" stroke-width="1" opacity="0.75" />
			</g>
		</g>
		<g>
			<title>gaeR
GaeR</title>
			<polygon class="gaeR
GaeR" points="63,10 89,40 63,70" fill="rgb(255,255,255)" fill-opacity="1.0" stroke="rgb(0,0,0)" stroke-width="2"  />
			<g>
				<title>Response_reg (PF00072)
"Response regulator receiver domain"</title>
				<polygon class="PF00072" points="63,28 74,28 76,30 76,50 74,52 63,52" stroke-linejoin="round" width="13" height="24" fill="rgb(59,131,198)" stroke="rgb(47,104,158)" stroke-width="1" opacity="0.75" />
			</g>
			<g>
				<title>LytTR (PF04397)
"LytTr DNA-binding domain"</title>
				<polygon class="PF04397" points="79,33 85,40 79,47" stroke-linejoin="round" width="9" height="24" fill="rgb(228,100,101)" stroke="rgb(182,80,80)" stroke-width="1" opacity="0.75" />
			</g>
		</g>
		<g>
			<title>gaeT
GaeT</title>
			<polygon class="gaeT
GaeT" points="90,25 132,25 132,10 162,40 132,70 132,55 90,55" fill="rgb(255,255,255)" fill-opacity="1.0" stroke="rgb(0,0,0)" stroke-width="2"  />
			<g>
				<title>Peptidase_C39 (PF03412)
"Peptidase C39 family"</title>
				<rect class="PF03412" x="90" y="28" stroke-linejoin="round" width="13" height="24" fill="rgb(93,118,202)" stroke="rgb(74,94,161)" stroke-width="1" opacity="0.75" />
			</g>
			<g>
				<title>ABC_membrane (PF00664)
"ABC transporter transmembrane region"</title>
				<rect class="PF00664" x="106" y="28" stroke-linejoin="round" width="27" height="24" fill="rgb(62,71,183)" stroke="rgb(49,56,146)" stroke-width="1" opacity="0.75" />
			</g>
			<g>
				<title>ABC_tran (PF00005)
"ABC transporter"</title>
				<polygon class="PF00005" points="140,28 145,28 155,38 155,42 145,52 140,52" stroke-linejoin="round" width="15" height="24" fill="rgb(46,186,108)" stroke="rgb(36,148,86)" stroke-width="1" opacity="0.75" />
			</g>
		</g>
		<g>
			<title>gaeC
GaeC</title>
			<polygon class="gaeC
GaeC" points="162,10 181,40 162,70" fill="rgb(255,255,255)" fill-opacity="1.0" stroke="rgb(0,0,0)" stroke-width="2"  />
		</g>
		<g>
			<title>gaeZ
GaeZ</title>
			<polygon class="gaeZ
GaeZ" points="184,10 187,40 184,70" fill="rgb(255,255,255)" fill-opacity="1.0" stroke="rgb(0,0,0)" stroke-width="2"  />
		</g>
		<g>
			<title>gaeA
GasE</title>
			<polygon class="gaeA
GasE" points="192,10 199,40 192,70" fill="rgb(255,255,255)" fill-opacity="1.0" stroke="rgb(0,0,0)" stroke-width="2"  />
			<g>
				<title>Bacteriocin_IIc (PF10439)
"Bacteriocin class II with double-glycine leader peptide"</title>
				<polygon class="PF10439" points="192,28 193,28 196,40 193,52 192,52" stroke-linejoin="round" width="7" height="24" fill="rgb(140,203,69)" stroke="rgb(112,162,55)" stroke-width="1" opacity="0.75" />
			</g>
		</g>
		<g>
			<title>gaeX
putative GaeX</title>
			<polygon class="gaeX
putative GaeX" points="200,10 206,40 200,70" fill="rgb(255,255,255)" fill-opacity="1.0" stroke="rgb(0,0,0)" stroke-width="2"  />
			<g>
				<title>Bacteriocin_IIc (PF10439)
"Bacteriocin class II with double-glycine leader peptide"</title>
				<polygon class="PF10439" points="200,28 200,28 203,40 200,52 200,52" stroke-linejoin="round" width="5" height="24" fill="rgb(140,203,69)" stroke="rgb(112,162,55)" stroke-width="1" opacity="0.75" />
			</g>
		</g>
		<g>
			<title>gaeI
GaeI</title>
			<polygon class="gaeI
GaeI" points="207,10 215,40 207,70" fill="rgb(255,255,255)" fill-opacity="1.0" stroke="rgb(0,0,0)" stroke-width="2"  />
		</g>
	</g>
</svg>
