<svg version="1.1" baseProfile="full" xmlns="http://www.w3.org/2000/svg" width="1478.7" height="80">
	<g>
		<line x1="10" y1="40.0" x2="1468.7" y2="40.0" style="stroke:rgb(70,70,70); stroke-width:3 "/>
		<g>
			<title>
hypothetical protein</title>
			<polygon class="
hypothetical protein" points="43,40 65,10 65,70" fill="rgb(255,255,255)" fill-opacity="1.0" stroke="rgb(0,0,0)" stroke-width="2"  />
			<g>
				<title>HATPase_c_2 (PF13581)
"Histidine kinase-like ATPase domain"</title>
				<polygon class="PF13581" points="47,40 54,31 54,49" stroke-linejoin="round" width="11" height="24" fill="rgb(91,200,53)" stroke="rgb(72,160,42)" stroke-width="1" opacity="0.75" />
			</g>
		</g>
		<g>
			<title>
arabinofuranosidase</title>
			<polygon class="
arabinofuranosidase" points="115,25 132,25 132,10 162,40 132,70 132,55 115,55" fill="rgb(255,255,255)" fill-opacity="1.0" stroke="rgb(0,0,0)" stroke-width="2"  />
			<g>
				<title>Ricin_B_lectin (PF00652)
"Ricin-type beta-trefoil lectin domain"</title>
				<rect class="PF00652" x="118" y="28" stroke-linejoin="round" width="12" height="24" fill="rgb(189,49,138)" stroke="rgb(151,39,110)" stroke-width="1" opacity="0.75" />
			</g>
			<g>
				<title>Glyco_hydro_62 (PF03664)
"Glycosyl hydrolase family 62"</title>
				<polygon class="PF03664" points="132,28 146,28 158,40 158,40 146,52 132,52" stroke-linejoin="round" width="26" height="24" fill="rgb(68,179,69)" stroke="rgb(54,143,55)" stroke-width="1" opacity="0.75" />
			</g>
		</g>
		<g>
			<title>cmmSu
CmmSu</title>
			<polygon class="cmmSu
CmmSu" points="232,25 228,25 228,10 198,40 228,70 228,55 232,55" fill="rgb(255,255,255)" fill-opacity="1.0" stroke="rgb(0,0,0)" stroke-width="2"  />
		</g>
		<g>
			<title>cmmE
CmmE</title>
			<polygon class="cmmE
CmmE" points="238,10 266,40 238,70" fill="rgb(255,255,255)" fill-opacity="1.0" stroke="rgb(0,0,0)" stroke-width="2"  />
			<g>
				<title>ECH_1 (PF00378)
"Enoyl-CoA hydratase/isomerase"</title>
				<polygon class="PF00378" points="241,28 250,28 262,40 250,52 241,52" stroke-linejoin="round" width="24" height="24" fill="rgb(201,73,190)" stroke="rgb(160,58,152)" stroke-width="1" opacity="0.75" />
			</g>
		</g>
		<g>
			<title>cmmF
CmmF</title>
			<polygon class="cmmF
CmmF" points="301,25 298,25 298,10 268,40 298,70 298,55 301,55" fill="rgb(255,255,255)" fill-opacity="1.0" stroke="rgb(0,0,0)" stroke-width="2"  />
			<g>
				<title>Acetyltransf_1 (PF00583)
"Acetyltransferase (GNAT) family"</title>
				<polygon class="PF00583" points="272,40 282,30 282,50" stroke-linejoin="round" width="12" height="24" fill="rgb(91,221,217)" stroke="rgb(72,176,173)" stroke-width="1" opacity="0.75" />
			</g>
		</g>
		<g>
			<title>cmmG
CmmG</title>
			<polygon class="cmmG
CmmG" points="301,40 327,10 327,70" fill="rgb(255,255,255)" fill-opacity="1.0" stroke="rgb(0,0,0)" stroke-width="2"  />
			<g>
				<title>PhyH (PF05721)
"Phytanoyl-CoA dioxygenase (PhyH)"</title>
				<polygon class="PF05721" points="305,40 316,28 325,28 325,52 316,52" stroke-linejoin="round" width="23" height="24" fill="rgb(186,53,95)" stroke="rgb(148,42,76)" stroke-width="1" opacity="0.75" />
			</g>
		</g>
		<g>
			<title>cmmH
CmmH</title>
			<polygon class="cmmH
CmmH" points="336,10 359,40 336,70" fill="rgb(255,255,255)" fill-opacity="1.0" stroke="rgb(0,0,0)" stroke-width="2"  />
			<g>
				<title>Hydrolase (PF00702)
"haloacid dehalogenase-like hydrolase"</title>
				<polygon class="PF00702" points="336,28 346,28 354,39 354,41 346,52 336,52" stroke-linejoin="round" width="18" height="24" fill="rgb(133,222,86)" stroke="rgb(106,177,68)" stroke-width="1" opacity="0.75" />
			</g>
		</g>
		<g>
			<title>cmmI
CmmI</title>
			<polygon class="cmmI
CmmI" points="404,25 388,25 388,10 358,40 388,70 388,55 404,55" fill="rgb(255,255,255)" fill-opacity="1.0" stroke="rgb(0,0,0)" stroke-width="2"  />
			<g>
				<title>HTH_1 (PF00126)
"Bacterial regulatory helix-turn-helix protein, lysR family"</title>
				<polygon class="PF00126" points="363,39 368,34 368,46 363,41" stroke-linejoin="round" width="5" height="24" fill="rgb(72,163,212)" stroke="rgb(57,130,169)" stroke-width="1" opacity="0.75" />
			</g>
			<g>
				<title>LysR_substrate (PF03466)
"LysR substrate binding domain"</title>
				<rect class="PF03466" x="375" y="28" stroke-linejoin="round" width="22" height="24" fill="rgb(214,62,213)" stroke="rgb(171,49,170)" stroke-width="1" opacity="0.75" />
			</g>
			<g>
				<title>HTH_1 (PF00126)
"Bacterial regulatory helix-turn-helix protein, lysR family"</title>
				<rect class="PF00126" x="398" y="28" stroke-linejoin="round" width="5" height="24" fill="rgb(72,163,212)" stroke="rgb(57,130,169)" stroke-width="1" opacity="0.75" />
			</g>
		</g>
		<g>
			<title>cmmJ
CmmJ</title>
			<polygon class="cmmJ
CmmJ" points="456,25 438,25 438,10 408,40 438,70 438,55 456,55" fill="rgb(255,255,255)" fill-opacity="1.0" stroke="rgb(0,0,0)" stroke-width="2"  />
			<g>
				<title>MFS_1 (PF07690)
"Major Facilitator Superfamily"</title>
				<polygon class="PF07690" points="414,38 424,28 454,28 454,52 424,52 414,42" stroke-linejoin="round" width="40" height="24" fill="rgb(228,207,98)" stroke="rgb(182,165,78)" stroke-width="1" opacity="0.75" />
			</g>
		</g>
		<g>
			<title>cmmK
CmmK</title>
			<polygon class="cmmK
CmmK" points="525,25 487,25 487,10 457,40 487,70 487,55 525,55" fill="rgb(255,255,255)" fill-opacity="1.0" stroke="rgb(0,0,0)" stroke-width="2"  />
			<g>
				<title>B12-binding (PF02310)
"B12 binding domain"</title>
				<rect class="PF02310" x="511" y="28" stroke-linejoin="round" width="8" height="24" fill="rgb(64,214,216)" stroke="rgb(51,171,172)" stroke-width="1" opacity="0.75" />
			</g>
		</g>
		<g>
			<title>cmmL
CmmL</title>
			<polygon class="cmmL
CmmL" points="567,25 558,25 558,10 528,40 558,70 558,55 567,55" fill="rgb(255,255,255)" fill-opacity="1.0" stroke="rgb(0,0,0)" stroke-width="2"  />
			<g>
				<title>Radical_SAM (PF04055)
"Radical SAM superfamily"</title>
				<polygon class="PF04055" points="539,33 544,28 555,28 555,52 544,52 539,47" stroke-linejoin="round" width="16" height="24" fill="rgb(223,193,78)" stroke="rgb(178,154,62)" stroke-width="1" opacity="0.75" />
			</g>
		</g>
		<g>
			<title>cmmM
CmmM</title>
			<polygon class="cmmM
CmmM" points="621,25 605,25 605,10 575,40 605,70 605,55 621,55" fill="rgb(255,255,255)" fill-opacity="1.0" stroke="rgb(0,0,0)" stroke-width="2"  />
			<g>
				<title>Asn_synthase (PF00733)
"Asparagine synthase"</title>
				<polygon class="PF00733" points="579,40 585,34 585,46" stroke-linejoin="round" width="10" height="24" fill="rgb(200,91,135)" stroke="rgb(160,72,108)" stroke-width="1" opacity="0.75" />
			</g>
			<g>
				<title>Asn_synthase (PF00733)
"Asparagine synthase"</title>
				<polygon class="PF00733" points="585,34 591,28 602,28 602,52 591,52 585,46" stroke-linejoin="round" width="17" height="24" fill="rgb(200,91,135)" stroke="rgb(160,72,108)" stroke-width="1" opacity="0.75" />
			</g>
		</g>
		<g>
			<title>cmmN
CmmN</title>
			<polygon class="cmmN
CmmN" points="658,25 651,25 651,10 621,40 651,70 651,55 658,55" fill="rgb(255,255,255)" fill-opacity="1.0" stroke="rgb(0,0,0)" stroke-width="2"  />
			<g>
				<title>AMP-binding (PF00501)
"AMP-binding enzyme"</title>
				<polygon class="PF00501" points="626,39 637,28 648,28 648,52 637,52 626,41" stroke-linejoin="round" width="22" height="24" fill="rgb(189,78,204)" stroke="rgb(151,62,163)" stroke-width="1" opacity="0.75" />
			</g>
		</g>
		<g>
			<title>cmmO
CmmO</title>
			<polygon class="cmmO
CmmO" points="705,25 689,25 689,10 659,40 689,70 689,55 705,55" fill="rgb(255,255,255)" fill-opacity="1.0" stroke="rgb(0,0,0)" stroke-width="2"  />
		</g>
		<g>
			<title>cmmP
CmmP</title>
			<polygon class="cmmP
CmmP" points="754,25 736,25 736,10 706,40 736,70 736,55 754,55" fill="rgb(255,255,255)" fill-opacity="1.0" stroke="rgb(0,0,0)" stroke-width="2"  />
			<g>
				<title>Radical_SAM (PF04055)
"Radical SAM superfamily"</title>
				<polygon class="PF04055" points="717,33 722,28 733,28 733,52 722,52 717,47" stroke-linejoin="round" width="16" height="24" fill="rgb(223,193,78)" stroke="rgb(178,154,62)" stroke-width="1" opacity="0.75" />
			</g>
			<g>
				<title>B12-binding (PF02310)
"B12 binding domain"</title>
				<rect class="PF02310" x="740" y="28" stroke-linejoin="round" width="11" height="24" fill="rgb(64,214,216)" stroke="rgb(51,171,172)" stroke-width="1" opacity="0.75" />
			</g>
		</g>
		<g>
			<title>cmmQ
CmmQ</title>
			<polygon class="cmmQ
CmmQ" points="768,10 794,40 768,70" fill="rgb(255,255,255)" fill-opacity="1.0" stroke="rgb(0,0,0)" stroke-width="2"  />
			<g>
				<title>PhyH (PF05721)
"Phytanoyl-CoA dioxygenase (PhyH)"</title>
				<polygon class="PF05721" points="770,28 780,28 790,40 790,40 780,52 770,52" stroke-linejoin="round" width="20" height="24" fill="rgb(186,53,95)" stroke="rgb(148,42,76)" stroke-width="1" opacity="0.75" />
			</g>
		</g>
		<g>
			<title>cmm17
Cmm17</title>
			<polygon class="cmm17
Cmm17" points="794,10 823,40 794,70" fill="rgb(255,255,255)" fill-opacity="1.0" stroke="rgb(0,0,0)" stroke-width="2"  />
			<g>
				<title>ECH_1 (PF00378)
"Enoyl-CoA hydratase/isomerase"</title>
				<polygon class="PF00378" points="795,28 807,28 819,40 819,40 807,52 795,52" stroke-linejoin="round" width="24" height="24" fill="rgb(201,73,190)" stroke="rgb(160,58,152)" stroke-width="1" opacity="0.75" />
			</g>
		</g>
		<g>
			<title>cmmR
CmmR</title>
			<polygon class="cmmR
CmmR" points="822,40 844,10 844,70" fill="rgb(255,255,255)" fill-opacity="1.0" stroke="rgb(0,0,0)" stroke-width="2"  />
			<g>
				<title>NUDIX (PF00293)
"NUDIX domain"</title>
				<polygon class="PF00293" points="827,39 835,28 840,28 840,52 835,52 827,41" stroke-linejoin="round" width="13" height="24" fill="rgb(185,54,57)" stroke="rgb(148,43,45)" stroke-width="1" opacity="0.75" />
			</g>
		</g>
		<g>
			<title>cmmT
CmmT</title>
			<polygon class="cmmT
CmmT" points="850,25 858,25 858,10 888,40 858,70 858,55 850,55" fill="rgb(255,255,255)" fill-opacity="1.0" stroke="rgb(0,0,0)" stroke-width="2"  />
			<g>
				<title>Peptidase_S58 (PF03576)
"Peptidase family S58"</title>
				<polygon class="PF03576" points="851,28 872,28 884,40 872,52 851,52" stroke-linejoin="round" width="35" height="24" fill="rgb(101,185,79)" stroke="rgb(80,148,63)" stroke-width="1" opacity="0.75" />
			</g>
		</g>
		<g>
			<title>cmmS
CmmS</title>
			<polygon class="cmmS
CmmS" points="922,25 919,25 919,10 889,40 919,70 919,55 922,55" fill="rgb(255,255,255)" fill-opacity="1.0" stroke="rgb(0,0,0)" stroke-width="2"  />
			<g>
				<title>Lactamase_B_2 (PF12706)
"Beta-lactamase superfamily domain"</title>
				<polygon class="PF12706" points="894,39 905,28 916,28 916,52 905,52 894,41" stroke-linejoin="round" width="22" height="24" fill="rgb(229,69,211)" stroke="rgb(183,55,168)" stroke-width="1" opacity="0.75" />
			</g>
		</g>
		<g>
			<title>cmmPah
CmmPah</title>
			<polygon class="cmmPah
CmmPah" points="933,10 962,40 933,70" fill="rgb(255,255,255)" fill-opacity="1.0" stroke="rgb(0,0,0)" stroke-width="2"  />
			<g>
				<title>Arginase (PF00491)
"Arginase family"</title>
				<polygon class="PF00491" points="935,28 946,28 958,40 946,52 935,52" stroke-linejoin="round" width="25" height="24" fill="rgb(192,133,57)" stroke="rgb(153,106,45)" stroke-width="1" opacity="0.75" />
			</g>
		</g>
		<g>
			<title>cmm22
Cmm22</title>
			<polygon class="cmm22
Cmm22" points="987,10 1009,40 987,70" fill="rgb(255,255,255)" fill-opacity="1.0" stroke="rgb(0,0,0)" stroke-width="2"  />
			<g>
				<title>Response_reg (PF00072)
"Response regulator receiver domain"</title>
				<rect class="PF00072" x="987" y="28" stroke-linejoin="round" width="10" height="24" fill="rgb(59,131,198)" stroke="rgb(47,104,158)" stroke-width="1" opacity="0.75" />
			</g>
			<g>
				<title>Trans_reg_C (PF00486)
"Transcriptional regulatory protein, C terminal"</title>
				<polygon class="PF00486" points="1001,34 1006,40 1001,46" stroke-linejoin="round" width="7" height="24" fill="rgb(69,185,116)" stroke="rgb(55,148,92)" stroke-width="1" opacity="0.75" />
			</g>
		</g>
		<g>
			<title>cmm23
Cmm23</title>
			<polygon class="cmm23
Cmm23" points="1010,25 1030,25 1030,10 1060,40 1030,70 1030,55 1010,55" fill="rgb(255,255,255)" fill-opacity="1.0" stroke="rgb(0,0,0)" stroke-width="2"  />
			<g>
				<title>HAMP (PF00672)
"HAMP domain"</title>
				<rect class="PF00672" x="1029" y="28" stroke-linejoin="round" width="5" height="24" fill="rgb(66,193,49)" stroke="rgb(52,154,39)" stroke-width="1" opacity="0.75" />
			</g>
			<g>
				<title>HisKA (PF00512)
"His Kinase A (phospho-acceptor) domain"</title>
				<rect class="PF00512" x="1036" y="28" stroke-linejoin="round" width="6" height="24" fill="rgb(57,81,199)" stroke="rgb(45,64,159)" stroke-width="1" opacity="0.75" />
			</g>
			<g>
				<title>HATPase_c (PF02518)
"Histidine kinase-, DNA gyrase B-, and HSP90-like ATPase"</title>
				<polygon class="PF02518" points="1046,30 1056,40 1056,40 1046,50" stroke-linejoin="round" width="10" height="24" fill="rgb(94,146,210)" stroke="rgb(75,116,168)" stroke-width="1" opacity="0.75" />
			</g>
		</g>
		<g>
			<title>cmm24
Cmm24</title>
			<polygon class="cmm24
Cmm24" points="1059,10 1082,40 1059,70" fill="rgb(255,255,255)" fill-opacity="1.0" stroke="rgb(0,0,0)" stroke-width="2"  />
		</g>
		<g>
			<title>orf25
Orf25</title>
			<polygon class="orf25
Orf25" points="1202,25 1123,25 1123,10 1093,40 1123,70 1123,55 1202,55" fill="rgb(255,255,255)" fill-opacity="1.0" stroke="rgb(0,0,0)" stroke-width="2"  />
			<g>
				<title>Peptidase_S8 (PF00082)
"Subtilase family"</title>
				<rect class="PF00082" x="1155" y="28" stroke-linejoin="round" width="26" height="24" fill="rgb(179,95,73)" stroke="rgb(143,76,58)" stroke-width="1" opacity="0.75" />
			</g>
		</g>
		<g>
			<title>orf26
Orf26</title>
			<polygon class="orf26
Orf26" points="1238,25 1311,25 1311,10 1341,40 1311,70 1311,55 1238,55" fill="rgb(255,255,255)" fill-opacity="1.0" stroke="rgb(0,0,0)" stroke-width="2"  />
			<g>
				<title>Glyco_hydro81C (PF17652)
"Glycosyl hydrolase family 81 C-terminal domain"</title>
				<rect class="PF17652" x="1273" y="28" stroke-linejoin="round" width="33" height="24" fill="rgb(225,140,78)" stroke="rgb(180,112,62)" stroke-width="1" opacity="0.75" />
			</g>
			<g>
				<title>fn3 (PF00041)
"Fibronectin type III domain"</title>
				<rect class="PF00041" x="1315" y="28" stroke-linejoin="round" width="7" height="24" fill="rgb(88,218,140)" stroke="rgb(70,174,112)" stroke-width="1" opacity="0.75" />
			</g>
		</g>
		<g>
			<title>orf27
Orf27</title>
			<polygon class="orf27
Orf27" points="1372,40 1401,10 1401,70" fill="rgb(255,255,255)" fill-opacity="1.0" stroke="rgb(0,0,0)" stroke-width="2"  />
			<g>
				<title>Sigma70_r4 (PF04545)
"Sigma-70, region 4"</title>
				<polygon class="PF04545" points="1376,40 1376,40 1376,40" stroke-linejoin="round" width="4" height="24" fill="rgb(85,205,89)" stroke="rgb(68,164,71)" stroke-width="1" opacity="0.75" />
			</g>
			<g>
				<title>Sigma70_r3 (PF04539)
"Sigma-70 region 3"</title>
				<polygon class="PF04539" points="1379,37 1385,31 1385,49 1379,43" stroke-linejoin="round" width="6" height="24" fill="rgb(189,74,74)" stroke="rgb(151,59,59)" stroke-width="1" opacity="0.75" />
			</g>
			<g>
				<title>Sigma70_r2 (PF04542)
"Sigma-70 region 2"</title>
				<polygon class="PF04542" points="1387,29 1388,28 1394,28 1394,52 1388,52 1387,51" stroke-linejoin="round" width="7" height="24" fill="rgb(66,209,150)" stroke="rgb(52,167,120)" stroke-width="1" opacity="0.75" />
			</g>
		</g>
		<g>
			<title>orf28
Orf28</title>
			<polygon class="orf28
Orf28" points="1411,25 1420,25 1420,10 1450,40 1420,70 1420,55 1411,55" fill="rgb(255,255,255)" fill-opacity="1.0" stroke="rgb(0,0,0)" stroke-width="2"  />
			<g>
				<title>SpoIIE (PF07228)
"Stage II sporulation protein E (SpoIIE)"</title>
				<polygon class="PF07228" points="1430,28 1434,28 1446,40 1434,52 1430,52" stroke-linejoin="round" width="19" height="24" fill="rgb(205,53,111)" stroke="rgb(164,42,88)" stroke-width="1" opacity="0.75" />
			</g>
		</g>
		<g>
			<title>orf29
Orf29</title>
			<polygon class="orf29
Orf29" points="1451,40 1467,10 1467,70" fill="rgb(255,255,255)" fill-opacity="1.0" stroke="rgb(0,0,0)" stroke-width="2"  />
			<g>
				<title>MarR_2 (PF12802)
"MarR family"</title>
				<polygon class="PF12802" points="1457,35 1461,28 1462,28 1462,52 1461,52 1457,45" stroke-linejoin="round" width="5" height="24" fill="rgb(139,211,68)" stroke="rgb(111,168,54)" stroke-width="1" opacity="0.75" />
			</g>
		</g>
	</g>
</svg>
