<svg version="1.1" baseProfile="full" xmlns="http://www.w3.org/2000/svg" width="2601.9" height="80">
	<g>
		<line x1="10" y1="40.0" x2="2591.9" y2="40.0" style="stroke:rgb(70,70,70); stroke-width:3 "/>
		<g>
			<title>
SyrP-like protein</title>
			<polygon class="
SyrP-like protein" points="81,25 79,25 79,10 49,40 79,70 79,55 81,55" fill="rgb(255,255,255)" fill-opacity="1.0" stroke="rgb(0,0,0)" stroke-width="2"  />
			<g>
				<title>TauD (PF02668)
"Taurine catabolism dioxygenase TauD, TfdA family"</title>
				<polygon class="PF02668" points="53,40 65,28 79,28 79,52 65,52" stroke-linejoin="round" width="30" height="24" fill="rgb(72,206,196)" stroke="rgb(57,164,156)" stroke-width="1" opacity="0.75" />
			</g>
		</g>
		<g>
			<title>
peptide synthetase NRPS12</title>
			<polygon class="
peptide synthetase NRPS12" points="139,25 112,25 112,10 82,40 112,70 112,55 139,55" fill="rgb(255,255,255)" fill-opacity="1.0" stroke="rgb(0,0,0)" stroke-width="2"  />
			<g>
				<title>PP-binding (PF00550)
"Phosphopantetheine attachment site"</title>
				<polygon class="PF00550" points="86,40 89,37 89,43" stroke-linejoin="round" width="6" height="24" fill="rgb(181,58,166)" stroke="rgb(144,46,132)" stroke-width="1" opacity="0.75" />
			</g>
			<g>
				<title>AMP-binding_C (PF13193)
"AMP-binding enzyme C-terminal domain"</title>
				<polygon class="PF13193" points="92,34 98,28 99,28 99,52 98,52 92,46" stroke-linejoin="round" width="7" height="24" fill="rgb(195,82,106)" stroke="rgb(156,65,84)" stroke-width="1" opacity="0.75" />
			</g>
			<g>
				<title>AMP-binding (PF00501)
"AMP-binding enzyme"</title>
				<rect class="PF00501" x="105" y="28" stroke-linejoin="round" width="33" height="24" fill="rgb(189,78,204)" stroke="rgb(151,62,163)" stroke-width="1" opacity="0.75" />
			</g>
		</g>
		<g>
			<title>
hypothetical protein</title>
			<polygon class="
hypothetical protein" points="140,40 167,10 167,70" fill="rgb(255,255,255)" fill-opacity="1.0" stroke="rgb(0,0,0)" stroke-width="2"  />
		</g>
		<g>
			<title>
putative transporter</title>
			<polygon class="
putative transporter" points="210,25 198,25 198,10 168,40 198,70 198,55 210,55" fill="rgb(255,255,255)" fill-opacity="1.0" stroke="rgb(0,0,0)" stroke-width="2"  />
			<g>
				<title>MFS_1 (PF07690)
"Major Facilitator Superfamily"</title>
				<polygon class="PF07690" points="176,36 184,28 208,28 208,52 184,52 176,44" stroke-linejoin="round" width="32" height="24" fill="rgb(228,207,98)" stroke="rgb(182,165,78)" stroke-width="1" opacity="0.75" />
			</g>
		</g>
		<g>
			<title>
thioesterase</title>
			<polygon class="
thioesterase" points="210,40 235,10 235,70" fill="rgb(255,255,255)" fill-opacity="1.0" stroke="rgb(0,0,0)" stroke-width="2"  />
			<g>
				<title>Thioesterase (PF00975)
"Thioesterase domain"</title>
				<polygon class="PF00975" points="214,40 224,28 232,28 232,52 224,52" stroke-linejoin="round" width="22" height="24" fill="rgb(69,76,223)" stroke="rgb(55,60,178)" stroke-width="1" opacity="0.75" />
			</g>
		</g>
		<g>
			<title>
clavaminic acid synthase-like protein</title>
			<polygon class="
clavaminic acid synthase-like protein" points="269,25 266,25 266,10 236,40 266,70 266,55 269,55" fill="rgb(255,255,255)" fill-opacity="1.0" stroke="rgb(0,0,0)" stroke-width="2"  />
			<g>
				<title>TauD (PF02668)
"Taurine catabolism dioxygenase TauD, TfdA family"</title>
				<polygon class="PF02668" points="240,40 252,28 259,28 259,52 252,52" stroke-linejoin="round" width="21" height="24" fill="rgb(72,206,196)" stroke="rgb(57,164,156)" stroke-width="1" opacity="0.75" />
			</g>
		</g>
		<g>
			<title>
putative transporter</title>
			<polygon class="
putative transporter" points="316,25 301,25 301,10 271,40 301,70 301,55 316,55" fill="rgb(255,255,255)" fill-opacity="1.0" stroke="rgb(0,0,0)" stroke-width="2"  />
		</g>
		<g>
			<title>
peptide synthetase NRPS11-10</title>
			<polygon class="
peptide synthetase NRPS11-10" points="601,25 347,25 347,10 317,40 347,70 347,55 601,55" fill="rgb(255,255,255)" fill-opacity="1.0" stroke="rgb(0,0,0)" stroke-width="2"  />
			<g>
				<title>PP-binding (PF00550)
"Phosphopantetheine attachment site"</title>
				<polygon class="PF00550" points="321,40 323,38 323,42" stroke-linejoin="round" width="6" height="24" fill="rgb(181,58,166)" stroke="rgb(144,46,132)" stroke-width="1" opacity="0.75" />
			</g>
			<g>
				<title>Methyltransf_12 (PF08242)
"Methyltransferase domain"</title>
				<rect class="PF08242" x="353" y="28" stroke-linejoin="round" width="9" height="24" fill="rgb(78,210,205)" stroke="rgb(62,168,164)" stroke-width="1" opacity="0.75" />
			</g>
			<g>
				<title>AMP-binding (PF00501)
"AMP-binding enzyme"</title>
				<rect class="PF00501" x="379" y="28" stroke-linejoin="round" width="33" height="24" fill="rgb(189,78,204)" stroke="rgb(151,62,163)" stroke-width="1" opacity="0.75" />
			</g>
			<g>
				<title>Condensation (PF00668)
"Condensation domain"</title>
				<rect class="PF00668" x="415" y="28" stroke-linejoin="round" width="45" height="24" fill="rgb(172,217,60)" stroke="rgb(137,173,47)" stroke-width="1" opacity="0.75" />
			</g>
			<g>
				<title>PP-binding (PF00550)
"Phosphopantetheine attachment site"</title>
				<rect class="PF00550" x="462" y="28" stroke-linejoin="round" width="6" height="24" fill="rgb(181,58,166)" stroke="rgb(144,46,132)" stroke-width="1" opacity="0.75" />
			</g>
			<g>
				<title>AMP-binding_C (PF13193)
"AMP-binding enzyme C-terminal domain"</title>
				<rect class="PF13193" x="472" y="28" stroke-linejoin="round" width="7" height="24" fill="rgb(195,82,106)" stroke="rgb(156,65,84)" stroke-width="1" opacity="0.75" />
			</g>
			<g>
				<title>AMP-binding (PF00501)
"AMP-binding enzyme"</title>
				<rect class="PF00501" x="485" y="28" stroke-linejoin="round" width="35" height="24" fill="rgb(189,78,204)" stroke="rgb(151,62,163)" stroke-width="1" opacity="0.75" />
			</g>
			<g>
				<title>Condensation (PF00668)
"Condensation domain"</title>
				<rect class="PF00668" x="522" y="28" stroke-linejoin="round" width="45" height="24" fill="rgb(172,217,60)" stroke="rgb(137,173,47)" stroke-width="1" opacity="0.75" />
			</g>
			<g>
				<title>PP-binding (PF00550)
"Phosphopantetheine attachment site"</title>
				<rect class="PF00550" x="569" y="28" stroke-linejoin="round" width="6" height="24" fill="rgb(181,58,166)" stroke="rgb(144,46,132)" stroke-width="1" opacity="0.75" />
			</g>
			<g>
				<title>AMP-binding (PF00501)
"AMP-binding enzyme"</title>
				<rect class="PF00501" x="581" y="28" stroke-linejoin="round" width="16" height="24" fill="rgb(189,78,204)" stroke="rgb(151,62,163)" stroke-width="1" opacity="0.75" />
			</g>
		</g>
		<g>
			<title>
PHNA-like protein</title>
			<polygon class="
PHNA-like protein" points="620,40 631,10 631,70" fill="rgb(255,255,255)" fill-opacity="1.0" stroke="rgb(0,0,0)" stroke-width="2"  />
			<g>
				<title>YjdM (PF03831)
"PhnA domain"</title>
				<polygon class="PF03831" points="623,40 626,32 626,48" stroke-linejoin="round" width="6" height="24" fill="rgb(224,101,219)" stroke="rgb(179,80,175)" stroke-width="1" opacity="0.75" />
			</g>
			<g>
				<title>YjdM_Zn_Ribbon (PF08274)
"PhnA Zinc-Ribbon"</title>
				<polygon class="PF08274" points="628,27 628,28 630,28 630,52 628,52 628,53" stroke-linejoin="round" width="2" height="24" fill="rgb(221,101,163)" stroke="rgb(176,80,130)" stroke-width="1" opacity="0.75" />
			</g>
		</g>
		<g>
			<title>
metal-dependent regulatory protein</title>
			<polygon class="
metal-dependent regulatory protein" points="637,10 648,40 637,70" fill="rgb(255,255,255)" fill-opacity="1.0" stroke="rgb(0,0,0)" stroke-width="2"  />
			<g>
				<title>HTH_5 (PF01022)
"Bacterial regulatory protein, arsR family"</title>
				<polygon class="PF01022" points="638,28 640,28 642,32 642,48 640,52 638,52" stroke-linejoin="round" width="4" height="24" fill="rgb(147,71,180)" stroke="rgb(117,56,144)" stroke-width="1" opacity="0.75" />
			</g>
		</g>
		<g>
			<title>
putative transporter</title>
			<polygon class="
putative transporter" points="648,25 676,25 676,10 706,40 676,70 676,55 648,55" fill="rgb(255,255,255)" fill-opacity="1.0" stroke="rgb(0,0,0)" stroke-width="2"  />
			<g>
				<title>Sulfate_transp (PF00916)
"Sulfate permease family"</title>
				<rect class="PF00916" x="651" y="28" stroke-linejoin="round" width="36" height="24" fill="rgb(106,213,80)" stroke="rgb(84,170,64)" stroke-width="1" opacity="0.75" />
			</g>
			<g>
				<title>STAS (PF01740)
"STAS domain"</title>
				<polygon class="PF01740" points="692,30 701,39 701,41 692,50" stroke-linejoin="round" width="9" height="24" fill="rgb(210,100,71)" stroke="rgb(168,80,56)" stroke-width="1" opacity="0.75" />
			</g>
		</g>
		<g>
			<title>
phosphatidylserine decarboxylase</title>
			<polygon class="
phosphatidylserine decarboxylase" points="722,10 746,40 722,70" fill="rgb(255,255,255)" fill-opacity="1.0" stroke="rgb(0,0,0)" stroke-width="2"  />
			<g>
				<title>PS_Dcarbxylase (PF02666)
"Phosphatidylserine decarboxylase"</title>
				<polygon class="PF02666" points="724,28 732,28 742,40 732,52 724,52" stroke-linejoin="round" width="20" height="24" fill="rgb(146,194,78)" stroke="rgb(116,155,62)" stroke-width="1" opacity="0.75" />
			</g>
		</g>
		<g>
			<title>blmXI
peptide synthetase NRPS</title>
			<polygon class="blmXI
peptide synthetase NRPS" points="747,25 785,25 785,10 815,40 785,70 785,55 747,55" fill="rgb(255,255,255)" fill-opacity="1.0" stroke="rgb(0,0,0)" stroke-width="2"  />
			<g>
				<title>Condensation (PF00668)
"Condensation domain"</title>
				<rect class="PF00668" x="750" y="28" stroke-linejoin="round" width="45" height="24" fill="rgb(172,217,60)" stroke="rgb(137,173,47)" stroke-width="1" opacity="0.75" />
			</g>
			<g>
				<title>PP-binding (PF00550)
"Phosphopantetheine attachment site"</title>
				<polygon class="PF00550" points="808,37 811,40 808,43" stroke-linejoin="round" width="6" height="24" fill="rgb(181,58,166)" stroke="rgb(144,46,132)" stroke-width="1" opacity="0.75" />
			</g>
		</g>
		<g>
			<title>blmX
peptide synthetase NRPS9-8</title>
			<polygon class="blmX
peptide synthetase NRPS9-8" points="823,25 1009,25 1009,10 1039,40 1009,70 1009,55 823,55" fill="rgb(255,255,255)" fill-opacity="1.0" stroke="rgb(0,0,0)" stroke-width="2"  />
			<g>
				<title>Condensation (PF00668)
"Condensation domain"</title>
				<rect class="PF00668" x="825" y="28" stroke-linejoin="round" width="43" height="24" fill="rgb(172,217,60)" stroke="rgb(137,173,47)" stroke-width="1" opacity="0.75" />
			</g>
			<g>
				<title>AMP-binding (PF00501)
"AMP-binding enzyme"</title>
				<rect class="PF00501" x="871" y="28" stroke-linejoin="round" width="35" height="24" fill="rgb(189,78,204)" stroke="rgb(151,62,163)" stroke-width="1" opacity="0.75" />
			</g>
			<g>
				<title>AMP-binding_C (PF13193)
"AMP-binding enzyme C-terminal domain"</title>
				<rect class="PF13193" x="912" y="28" stroke-linejoin="round" width="8" height="24" fill="rgb(195,82,106)" stroke="rgb(156,65,84)" stroke-width="1" opacity="0.75" />
			</g>
			<g>
				<title>PP-binding (PF00550)
"Phosphopantetheine attachment site"</title>
				<rect class="PF00550" x="923" y="28" stroke-linejoin="round" width="6" height="24" fill="rgb(181,58,166)" stroke="rgb(144,46,132)" stroke-width="1" opacity="0.75" />
			</g>
			<g>
				<title>Condensation (PF00668)
"Condensation domain"</title>
				<rect class="PF00668" x="933" y="28" stroke-linejoin="round" width="44" height="24" fill="rgb(172,217,60)" stroke="rgb(137,173,47)" stroke-width="1" opacity="0.75" />
			</g>
			<g>
				<title>AMP-binding (PF00501)
"AMP-binding enzyme"</title>
				<rect class="PF00501" x="979" y="28" stroke-linejoin="round" width="34" height="24" fill="rgb(189,78,204)" stroke="rgb(151,62,163)" stroke-width="1" opacity="0.75" />
			</g>
			<g>
				<title>AMP-binding_C (PF13193)
"AMP-binding enzyme C-terminal domain"</title>
				<polygon class="PF13193" points="1019,28 1023,28 1026,31 1026,49 1023,52 1019,52" stroke-linejoin="round" width="7" height="24" fill="rgb(195,82,106)" stroke="rgb(156,65,84)" stroke-width="1" opacity="0.75" />
			</g>
			<g>
				<title>PP-binding (PF00550)
"Phosphopantetheine attachment site"</title>
				<polygon class="PF00550" points="1030,35 1035,40 1030,45" stroke-linejoin="round" width="6" height="24" fill="rgb(181,58,166)" stroke="rgb(144,46,132)" stroke-width="1" opacity="0.75" />
			</g>
		</g>
		<g>
			<title>blmIX
peptide synthetase NRPS7</title>
			<polygon class="blmIX
peptide synthetase NRPS7" points="1039,25 1115,25 1115,10 1145,40 1115,70 1115,55 1039,55" fill="rgb(255,255,255)" fill-opacity="1.0" stroke="rgb(0,0,0)" stroke-width="2"  />
			<g>
				<title>Condensation (PF00668)
"Condensation domain"</title>
				<rect class="PF00668" x="1039" y="28" stroke-linejoin="round" width="43" height="24" fill="rgb(172,217,60)" stroke="rgb(137,173,47)" stroke-width="1" opacity="0.75" />
			</g>
			<g>
				<title>AMP-binding (PF00501)
"AMP-binding enzyme"</title>
				<rect class="PF00501" x="1085" y="28" stroke-linejoin="round" width="34" height="24" fill="rgb(189,78,204)" stroke="rgb(151,62,163)" stroke-width="1" opacity="0.75" />
			</g>
			<g>
				<title>AMP-binding_C (PF13193)
"AMP-binding enzyme C-terminal domain"</title>
				<polygon class="PF13193" points="1125,28 1129,28 1132,31 1132,49 1129,52 1125,52" stroke-linejoin="round" width="7" height="24" fill="rgb(195,82,106)" stroke="rgb(156,65,84)" stroke-width="1" opacity="0.75" />
			</g>
			<g>
				<title>PP-binding (PF00550)
"Phosphopantetheine attachment site"</title>
				<polygon class="PF00550" points="1135,34 1141,40 1141,40 1135,46" stroke-linejoin="round" width="6" height="24" fill="rgb(181,58,166)" stroke="rgb(144,46,132)" stroke-width="1" opacity="0.75" />
			</g>
		</g>
		<g>
			<title>blmVIII
polyketide synthase</title>
			<polygon class="blmVIII
polyketide synthase" points="1146,25 1300,25 1300,10 1330,40 1300,70 1300,55 1146,55" fill="rgb(255,255,255)" fill-opacity="1.0" stroke="rgb(0,0,0)" stroke-width="2"  />
			<g>
				<title>ketoacyl-synt (PF00109)
"Beta-ketoacyl synthase, N-terminal domain"</title>
				<rect class="PF00109" x="1147" y="28" stroke-linejoin="round" width="25" height="24" fill="rgb(74,179,82)" stroke="rgb(59,143,65)" stroke-width="1" opacity="0.75" />
			</g>
			<g>
				<title>Ketoacyl-synt_C (PF02801)
"Beta-ketoacyl synthase, C-terminal domain"</title>
				<rect class="PF02801" x="1173" y="28" stroke-linejoin="round" width="11" height="24" fill="rgb(212,79,72)" stroke="rgb(169,63,57)" stroke-width="1" opacity="0.75" />
			</g>
			<g>
				<title>KAsynt_C_assoc (PF16197)
"Ketoacyl-synthetase C-terminal extension"</title>
				<rect class="PF16197" x="1185" y="28" stroke-linejoin="round" width="11" height="24" fill="rgb(200,86,70)" stroke="rgb(160,68,56)" stroke-width="1" opacity="0.75" />
			</g>
			<g>
				<title>Acyl_transf_1 (PF00698)
"Acyl transferase domain"</title>
				<rect class="PF00698" x="1199" y="28" stroke-linejoin="round" width="29" height="24" fill="rgb(132,93,193)" stroke="rgb(105,74,154)" stroke-width="1" opacity="0.75" />
			</g>
			<g>
				<title>Methyltransf_12 (PF08242)
"Methyltransferase domain"</title>
				<rect class="PF08242" x="1251" y="28" stroke-linejoin="round" width="10" height="24" fill="rgb(78,210,205)" stroke="rgb(62,168,164)" stroke-width="1" opacity="0.75" />
			</g>
			<g>
				<title>KR (PF08659)
"KR domain"</title>
				<rect class="PF08659" x="1292" y="28" stroke-linejoin="round" width="19" height="24" fill="rgb(203,145,81)" stroke="rgb(162,116,64)" stroke-width="1" opacity="0.75" />
			</g>
			<g>
				<title>PP-binding (PF00550)
"Phosphopantetheine attachment site"</title>
				<polygon class="PF00550" points="1322,37 1325,40 1322,43" stroke-linejoin="round" width="6" height="24" fill="rgb(181,58,166)" stroke="rgb(144,46,132)" stroke-width="1" opacity="0.75" />
			</g>
		</g>
		<g>
			<title>blmVII
peptide synthetase NRPS6</title>
			<polygon class="blmVII
peptide synthetase NRPS6" points="1330,25 1421,25 1421,10 1451,40 1421,70 1421,55 1330,55" fill="rgb(255,255,255)" fill-opacity="1.0" stroke="rgb(0,0,0)" stroke-width="2"  />
			<g>
				<title>TubC_N (PF18563)
"TubC N-terminal docking domain"</title>
				<rect class="PF18563" x="1330" y="28" stroke-linejoin="round" width="5" height="24" fill="rgb(106,209,83)" stroke="rgb(84,167,66)" stroke-width="1" opacity="0.75" />
			</g>
			<g>
				<title>Condensation (PF00668)
"Condensation domain"</title>
				<rect class="PF00668" x="1336" y="28" stroke-linejoin="round" width="43" height="24" fill="rgb(172,217,60)" stroke="rgb(137,173,47)" stroke-width="1" opacity="0.75" />
			</g>
			<g>
				<title>AMP-binding (PF00501)
"AMP-binding enzyme"</title>
				<rect class="PF00501" x="1382" y="28" stroke-linejoin="round" width="34" height="24" fill="rgb(189,78,204)" stroke="rgb(151,62,163)" stroke-width="1" opacity="0.75" />
			</g>
			<g>
				<title>AMP-binding_C (PF13193)
"AMP-binding enzyme C-terminal domain"</title>
				<rect class="PF13193" x="1422" y="28" stroke-linejoin="round" width="7" height="24" fill="rgb(195,82,106)" stroke="rgb(156,65,84)" stroke-width="1" opacity="0.75" />
			</g>
			<g>
				<title>PP-binding (PF00550)
"Phosphopantetheine attachment site"</title>
				<polygon class="PF00550" points="1432,28 1435,28 1438,31 1438,49 1435,52 1432,52" stroke-linejoin="round" width="6" height="24" fill="rgb(181,58,166)" stroke="rgb(144,46,132)" stroke-width="1" opacity="0.75" />
			</g>
		</g>
		<g>
			<title>blmVI
peptide synthetase NRPS5-4-3</title>
			<polygon class="blmVI
peptide synthetase NRPS5-4-3" points="1452,25 1689,25 1689,10 1719,40 1689,70 1689,55 1452,55" fill="rgb(255,255,255)" fill-opacity="1.0" stroke="rgb(0,0,0)" stroke-width="2"  />
			<g>
				<title>AMP-binding (PF00501)
"AMP-binding enzyme"</title>
				<rect class="PF00501" x="1453" y="28" stroke-linejoin="round" width="38" height="24" fill="rgb(189,78,204)" stroke="rgb(151,62,163)" stroke-width="1" opacity="0.75" />
			</g>
			<g>
				<title>PP-binding (PF00550)
"Phosphopantetheine attachment site"</title>
				<rect class="PF00550" x="1510" y="28" stroke-linejoin="round" width="6" height="24" fill="rgb(181,58,166)" stroke="rgb(144,46,132)" stroke-width="1" opacity="0.75" />
			</g>
			<g>
				<title>Condensation (PF00668)
"Condensation domain"</title>
				<rect class="PF00668" x="1518" y="28" stroke-linejoin="round" width="43" height="24" fill="rgb(172,217,60)" stroke="rgb(137,173,47)" stroke-width="1" opacity="0.75" />
			</g>
			<g>
				<title>AMP-binding (PF00501)
"AMP-binding enzyme"</title>
				<rect class="PF00501" x="1563" y="28" stroke-linejoin="round" width="35" height="24" fill="rgb(189,78,204)" stroke="rgb(151,62,163)" stroke-width="1" opacity="0.75" />
			</g>
			<g>
				<title>AMP-binding_C (PF13193)
"AMP-binding enzyme C-terminal domain"</title>
				<rect class="PF13193" x="1604" y="28" stroke-linejoin="round" width="7" height="24" fill="rgb(195,82,106)" stroke="rgb(156,65,84)" stroke-width="1" opacity="0.75" />
			</g>
			<g>
				<title>PP-binding (PF00550)
"Phosphopantetheine attachment site"</title>
				<rect class="PF00550" x="1614" y="28" stroke-linejoin="round" width="6" height="24" fill="rgb(181,58,166)" stroke="rgb(144,46,132)" stroke-width="1" opacity="0.75" />
			</g>
			<g>
				<title>Condensation (PF00668)
"Condensation domain"</title>
				<rect class="PF00668" x="1623" y="28" stroke-linejoin="round" width="42" height="24" fill="rgb(172,217,60)" stroke="rgb(137,173,47)" stroke-width="1" opacity="0.75" />
			</g>
			<g>
				<title>AMP-binding (PF00501)
"AMP-binding enzyme"</title>
				<rect class="PF00501" x="1667" y="28" stroke-linejoin="round" width="33" height="24" fill="rgb(189,78,204)" stroke="rgb(151,62,163)" stroke-width="1" opacity="0.75" />
			</g>
			<g>
				<title>AMP-binding_C (PF13193)
"AMP-binding enzyme C-terminal domain"</title>
				<polygon class="PF13193" points="1707,32 1714,39 1714,41 1707,48" stroke-linejoin="round" width="7" height="24" fill="rgb(195,82,106)" stroke="rgb(156,65,84)" stroke-width="1" opacity="0.75" />
			</g>
		</g>
		<g>
			<title>blmV
peptide synthetase NRPS3CT</title>
			<polygon class="blmV
peptide synthetase NRPS3CT" points="1726,25 1760,25 1760,10 1790,40 1760,70 1760,55 1726,55" fill="rgb(255,255,255)" fill-opacity="1.0" stroke="rgb(0,0,0)" stroke-width="2"  />
			<g>
				<title>PP-binding (PF00550)
"Phosphopantetheine attachment site"</title>
				<rect class="PF00550" x="1735" y="28" stroke-linejoin="round" width="6" height="24" fill="rgb(181,58,166)" stroke="rgb(144,46,132)" stroke-width="1" opacity="0.75" />
			</g>
			<g>
				<title>Condensation (PF00668)
"Condensation domain"</title>
				<polygon class="PF00668" points="1743,28 1774,28 1786,40 1774,52 1743,52" stroke-linejoin="round" width="44" height="24" fill="rgb(172,217,60)" stroke="rgb(137,173,47)" stroke-width="1" opacity="0.75" />
			</g>
		</g>
		<g>
			<title>blmG
sugar epimerase BlmG</title>
			<polygon class="blmG
sugar epimerase BlmG" points="1790,25 1792,25 1792,10 1822,40 1792,70 1792,55 1790,55" fill="rgb(255,255,255)" fill-opacity="1.0" stroke="rgb(0,0,0)" stroke-width="2"  />
			<g>
				<title>Epimerase (PF01370)
"NAD dependent epimerase/dehydratase family"</title>
				<polygon class="PF01370" points="1790,28 1806,28 1814,36 1814,44 1806,52 1790,52" stroke-linejoin="round" width="24" height="24" fill="rgb(215,89,157)" stroke="rgb(172,71,125)" stroke-width="1" opacity="0.75" />
			</g>
		</g>
		<g>
			<title>blmF
hydroxylase BlmF</title>
			<polygon class="blmF
hydroxylase BlmF" points="1823,25 1842,25 1842,10 1872,40 1842,70 1842,55 1823,55" fill="rgb(255,255,255)" fill-opacity="1.0" stroke="rgb(0,0,0)" stroke-width="2"  />
			<g>
				<title>Asp_Arg_Hydrox (PF05118)
"Aspartyl/Asparaginyl beta-hydroxylase"</title>
				<polygon class="PF05118" points="1859,31 1868,40 1859,49" stroke-linejoin="round" width="12" height="24" fill="rgb(65,114,183)" stroke="rgb(51,91,146)" stroke-width="1" opacity="0.75" />
			</g>
		</g>
		<g>
			<title>
asparagine synthetase</title>
			<polygon class="
asparagine synthetase" points="1873,25 1906,25 1906,10 1936,40 1906,70 1906,55 1873,55" fill="rgb(255,255,255)" fill-opacity="1.0" stroke="rgb(0,0,0)" stroke-width="2"  />
			<g>
				<title>GATase_7 (PF13537)
"Glutamine amidotransferase domain"</title>
				<rect class="PF13537" x="1878" y="28" stroke-linejoin="round" width="11" height="24" fill="rgb(102,71,204)" stroke="rgb(81,56,163)" stroke-width="1" opacity="0.75" />
			</g>
			<g>
				<title>Asn_synthase (PF00733)
"Asparagine synthase"</title>
				<polygon class="PF00733" points="1897,28 1920,28 1932,40 1920,52 1897,52" stroke-linejoin="round" width="37" height="24" fill="rgb(200,91,135)" stroke="rgb(160,72,108)" stroke-width="1" opacity="0.75" />
			</g>
		</g>
		<g>
			<title>blmIV
peptide synthetase NRPS2-1</title>
			<polygon class="blmIV
peptide synthetase NRPS2-1" points="1940,25 2172,25 2172,10 2202,40 2172,70 2172,55 1940,55" fill="rgb(255,255,255)" fill-opacity="1.0" stroke="rgb(0,0,0)" stroke-width="2"  />
			<g>
				<title>Condensation (PF00668)
"Condensation domain"</title>
				<rect class="PF00668" x="1941" y="28" stroke-linejoin="round" width="43" height="24" fill="rgb(172,217,60)" stroke="rgb(137,173,47)" stroke-width="1" opacity="0.75" />
			</g>
			<g>
				<title>AMP-binding (PF00501)
"AMP-binding enzyme"</title>
				<rect class="PF00501" x="1986" y="28" stroke-linejoin="round" width="34" height="24" fill="rgb(189,78,204)" stroke="rgb(151,62,163)" stroke-width="1" opacity="0.75" />
			</g>
			<g>
				<title>AMP-binding_C (PF13193)
"AMP-binding enzyme C-terminal domain"</title>
				<rect class="PF13193" x="2026" y="28" stroke-linejoin="round" width="7" height="24" fill="rgb(195,82,106)" stroke="rgb(156,65,84)" stroke-width="1" opacity="0.75" />
			</g>
			<g>
				<title>Condensation (PF00668)
"Condensation domain"</title>
				<rect class="PF00668" x="2045" y="28" stroke-linejoin="round" width="43" height="24" fill="rgb(172,217,60)" stroke="rgb(137,173,47)" stroke-width="1" opacity="0.75" />
			</g>
			<g>
				<title>AMP-binding (PF00501)
"AMP-binding enzyme"</title>
				<rect class="PF00501" x="2092" y="28" stroke-linejoin="round" width="35" height="24" fill="rgb(189,78,204)" stroke="rgb(151,62,163)" stroke-width="1" opacity="0.75" />
			</g>
			<g>
				<title>AMP-binding_C (PF13193)
"AMP-binding enzyme C-terminal domain"</title>
				<rect class="PF13193" x="2133" y="28" stroke-linejoin="round" width="7" height="24" fill="rgb(195,82,106)" stroke="rgb(156,65,84)" stroke-width="1" opacity="0.75" />
			</g>
			<g>
				<title>PP-binding (PF00550)
"Phosphopantetheine attachment site"</title>
				<rect class="PF00550" x="2144" y="28" stroke-linejoin="round" width="6" height="24" fill="rgb(181,58,166)" stroke="rgb(144,46,132)" stroke-width="1" opacity="0.75" />
			</g>
			<g>
				<title>Condensation (PF00668)
"Condensation domain"</title>
				<polygon class="PF00668" points="2153,28 2186,28 2196,38 2196,42 2186,52 2153,52" stroke-linejoin="round" width="43" height="24" fill="rgb(172,217,60)" stroke="rgb(137,173,47)" stroke-width="1" opacity="0.75" />
			</g>
		</g>
		<g>
			<title>blmIII
peptide synthetase NRPS0</title>
			<polygon class="blmIII
peptide synthetase NRPS0" points="2202,25 2265,25 2265,10 2295,40 2265,70 2265,55 2202,55" fill="rgb(255,255,255)" fill-opacity="1.0" stroke="rgb(0,0,0)" stroke-width="2"  />
			<g>
				<title>AMP-binding (PF00501)
"AMP-binding enzyme"</title>
				<rect class="PF00501" x="2205" y="28" stroke-linejoin="round" width="13" height="24" fill="rgb(189,78,204)" stroke="rgb(151,62,163)" stroke-width="1" opacity="0.75" />
			</g>
			<g>
				<title>AMP-binding (PF00501)
"AMP-binding enzyme"</title>
				<rect class="PF00501" x="2220" y="28" stroke-linejoin="round" width="19" height="24" fill="rgb(189,78,204)" stroke="rgb(151,62,163)" stroke-width="1" opacity="0.75" />
			</g>
			<g>
				<title>AMP-binding_C (PF13193)
"AMP-binding enzyme C-terminal domain"</title>
				<rect class="PF13193" x="2245" y="28" stroke-linejoin="round" width="7" height="24" fill="rgb(195,82,106)" stroke="rgb(156,65,84)" stroke-width="1" opacity="0.75" />
			</g>
			<g>
				<title>PP-binding (PF00550)
"Phosphopantetheine attachment site"</title>
				<rect class="PF00550" x="2256" y="28" stroke-linejoin="round" width="6" height="24" fill="rgb(181,58,166)" stroke="rgb(144,46,132)" stroke-width="1" opacity="0.75" />
			</g>
			<g>
				<title>Nitroreductase (PF00881)
"Nitroreductase family"</title>
				<polygon class="PF00881" points="2276,28 2279,28 2291,40 2279,52 2276,52" stroke-linejoin="round" width="18" height="24" fill="rgb(106,62,184)" stroke="rgb(84,49,147)" stroke-width="1" opacity="0.75" />
			</g>
		</g>
		<g>
			<title>
SyrP-like protein</title>
			<polygon class="
SyrP-like protein" points="2296,25 2300,25 2300,10 2330,40 2300,70 2300,55 2296,55" fill="rgb(255,255,255)" fill-opacity="1.0" stroke="rgb(0,0,0)" stroke-width="2"  />
			<g>
				<title>TauD (PF02668)
"Taurine catabolism dioxygenase TauD, TfdA family"</title>
				<polygon class="PF02668" points="2298,28 2313,28 2325,40 2313,52 2298,52" stroke-linejoin="round" width="30" height="24" fill="rgb(72,206,196)" stroke="rgb(57,164,156)" stroke-width="1" opacity="0.75" />
			</g>
		</g>
		<g>
			<title>blmII
peptide synthetase NRPS</title>
			<polygon class="blmII
peptide synthetase NRPS" points="2329,25 2345,25 2345,10 2375,40 2345,70 2345,55 2329,55" fill="rgb(255,255,255)" fill-opacity="1.0" stroke="rgb(0,0,0)" stroke-width="2"  />
		</g>
		<g>
			<title>
MbtH-like protein</title>
			<polygon class="
MbtH-like protein" points="2376,10 2394,40 2376,70" fill="rgb(255,255,255)" fill-opacity="1.0" stroke="rgb(0,0,0)" stroke-width="2"  />
			<g>
				<title>MbtH (PF03621)
"MbtH-like protein"</title>
				<rect class="PF03621" x="2376" y="28" stroke-linejoin="round" width="5" height="24" fill="rgb(102,212,116)" stroke="rgb(81,169,92)" stroke-width="1" opacity="0.75" />
			</g>
		</g>
		<g>
			<title>blmE
sugar transferase BlmE</title>
			<polygon class="blmE
sugar transferase BlmE" points="2397,25 2406,25 2406,10 2436,40 2406,70 2406,55 2397,55" fill="rgb(255,255,255)" fill-opacity="1.0" stroke="rgb(0,0,0)" stroke-width="2"  />
			<g>
				<title>Glyco_transf_9 (PF01075)
"Glycosyltransferase family 9 (heptosyltransferase)"</title>
				<polygon class="PF01075" points="2406,28 2419,28 2430,39 2430,41 2419,52 2406,52" stroke-linejoin="round" width="24" height="24" fill="rgb(188,85,172)" stroke="rgb(150,67,137)" stroke-width="1" opacity="0.75" />
			</g>
		</g>
		<g>
			<title>blmD
carbamyltransferase BlmD</title>
			<polygon class="blmD
carbamyltransferase BlmD" points="2436,25 2460,25 2460,10 2490,40 2460,70 2460,55 2436,55" fill="rgb(255,255,255)" fill-opacity="1.0" stroke="rgb(0,0,0)" stroke-width="2"  />
			<g>
				<title>Carbam_trans_N (PF02543)
"Carbamoyltransferase N-terminus"</title>
				<rect class="PF02543" x="2458" y="28" stroke-linejoin="round" width="9" height="24" fill="rgb(97,95,191)" stroke="rgb(77,76,152)" stroke-width="1" opacity="0.75" />
			</g>
			<g>
				<title>Carbam_trans_C (PF16861)
"Carbamoyltransferase C-terminus"</title>
				<polygon class="PF16861" points="2473,28 2474,28 2486,40 2474,52 2473,52" stroke-linejoin="round" width="16" height="24" fill="rgb(158,73,206)" stroke="rgb(126,58,164)" stroke-width="1" opacity="0.75" />
			</g>
		</g>
		<g>
			<title>blmI
peptide synthetase NRPS type II-PCP</title>
			<polygon class="blmI
peptide synthetase NRPS type II-PCP" points="2490,10 2499,40 2490,70" fill="rgb(255,255,255)" fill-opacity="1.0" stroke="rgb(0,0,0)" stroke-width="2"  />
			<g>
				<title>PP-binding (PF00550)
"Phosphopantetheine attachment site"</title>
				<polygon class="PF00550" points="2491,28 2491,28 2495,40 2491,52 2491,52" stroke-linejoin="round" width="6" height="24" fill="rgb(181,58,166)" stroke="rgb(144,46,132)" stroke-width="1" opacity="0.75" />
			</g>
		</g>
		<g>
			<title>blmC
sugar synthase BlmC</title>
			<polygon class="blmC
sugar synthase BlmC" points="2499,25 2518,25 2518,10 2548,40 2518,70 2518,55 2499,55" fill="rgb(255,255,255)" fill-opacity="1.0" stroke="rgb(0,0,0)" stroke-width="2"  />
			<g>
				<title>PfkB (PF00294)
"pfkB family carbohydrate kinase"</title>
				<rect class="PF00294" x="2500" y="28" stroke-linejoin="round" width="31" height="24" fill="rgb(94,207,198)" stroke="rgb(75,165,158)" stroke-width="1" opacity="0.75" />
			</g>
			<g>
				<title>CTP_transf_like (PF01467)
"Cytidylyltransferase-like"</title>
				<polygon class="PF01467" points="2534,30 2544,40 2534,50" stroke-linejoin="round" width="12" height="24" fill="rgb(182,79,133)" stroke="rgb(145,63,106)" stroke-width="1" opacity="0.75" />
			</g>
		</g>
		<g>
			<title>
coproporphyrinogen III oxidase-like protein</title>
			<polygon class="
coproporphyrinogen III oxidase-like protein" points="2549,25 2561,25 2561,10 2591,40 2561,70 2561,55 2549,55" fill="rgb(255,255,255)" fill-opacity="1.0" stroke="rgb(0,0,0)" stroke-width="2"  />
			<g>
				<title>Radical_SAM (PF04055)
"Radical SAM superfamily"</title>
				<rect class="PF04055" x="2551" y="28" stroke-linejoin="round" width="18" height="24" fill="rgb(223,193,78)" stroke="rgb(178,154,62)" stroke-width="1" opacity="0.75" />
			</g>
		</g>
	</g>
</svg>
