<svg version="1.1" baseProfile="full" xmlns="http://www.w3.org/2000/svg" width="717.1333333333333" height="80">
	<g>
		<line x1="10" y1="40.0" x2="707.1333333333333" y2="40.0" style="stroke:rgb(70,70,70); stroke-width:3 "/>
		<g>
			<title>galF
UDP-glucose pyrophosphorylase</title>
			<polygon class="galF
UDP-glucose pyrophosphorylase" points="15,10 44,40 15,70" fill="rgb(255,255,255)" fill-opacity="1.0" stroke="rgb(0,0,0)" stroke-width="2"  />
			<g>
				<title>NTP_transferase (PF00483)
"Nucleotidyl transferase"</title>
				<polygon class="PF00483" points="15,28 28,28 40,40 28,52 15,52" stroke-linejoin="round" width="27" height="24" fill="rgb(211,145,90)" stroke="rgb(168,116,72)" stroke-width="1" opacity="0.75" />
			</g>
		</g>
		<g>
			<title>acidPPc
acid phosphatase homologue</title>
			<polygon class="acidPPc
acid phosphatase homologue" points="58,10 79,40 58,70" fill="rgb(255,255,255)" fill-opacity="1.0" stroke="rgb(0,0,0)" stroke-width="2"  />
			<g>
				<title>PAP2 (PF01569)
"PAP2 superfamily"</title>
				<polygon class="PF01569" points="64,28 67,28 73,37 73,43 67,52 64,52" stroke-linejoin="round" width="9" height="24" fill="rgb(102,182,88)" stroke="rgb(81,145,70)" stroke-width="1" opacity="0.75" />
			</g>
		</g>
		<g>
			<title>wzi
surface assembly of capsule</title>
			<polygon class="wzi
surface assembly of capsule" points="110,25 128,25 128,10 158,40 128,70 128,55 110,55" fill="rgb(255,255,255)" fill-opacity="1.0" stroke="rgb(0,0,0)" stroke-width="2"  />
			<g>
				<title>Caps_assemb_Wzi (PF14052)
"Capsule assembly protein Wzi"</title>
				<polygon class="PF14052" points="118,28 141,28 153,40 141,52 118,52" stroke-linejoin="round" width="38" height="24" fill="rgb(197,72,151)" stroke="rgb(157,57,120)" stroke-width="1" opacity="0.75" />
			</g>
		</g>
		<g>
			<title>wza
multimeric putative translocation channel</title>
			<polygon class="wza
multimeric putative translocation channel" points="163,25 170,25 170,10 200,40 170,70 170,55 163,55" fill="rgb(255,255,255)" fill-opacity="1.0" stroke="rgb(0,0,0)" stroke-width="2"  />
			<g>
				<title>Poly_export (PF02563)
"Polysaccharide biosynthesis/export protein"</title>
				<rect class="PF02563" x="171" y="28" stroke-linejoin="round" width="8" height="24" fill="rgb(219,92,156)" stroke="rgb(175,73,124)" stroke-width="1" opacity="0.75" />
			</g>
			<g>
				<title>SLBB (PF10531)
"SLBB domain"</title>
				<polygon class="PF10531" points="180,28 184,28 185,29 185,51 184,52 180,52" stroke-linejoin="round" width="5" height="24" fill="rgb(53,192,99)" stroke="rgb(42,153,79)" stroke-width="1" opacity="0.75" />
			</g>
			<g>
				<title>SLBB (PF10531)
"SLBB domain"</title>
				<polygon class="PF10531" points="188,32 193,37 193,43 188,48" stroke-linejoin="round" width="5" height="24" fill="rgb(53,192,99)" stroke="rgb(42,153,79)" stroke-width="1" opacity="0.75" />
			</g>
			<g>
				<title>Wza_C (PF18412)
"Outer-membrane lipoprotein Wza C-terminal domain"</title>
				<polygon class="PF18412" points="197,40 196,40 197,40" stroke-linejoin="round" width="2" height="24" fill="rgb(151,203,80)" stroke="rgb(120,162,64)" stroke-width="1" opacity="0.75" />
			</g>
		</g>
		<g>
			<title>wzb
protein tyrosine phosphatase</title>
			<polygon class="wzb
protein tyrosine phosphatase" points="201,10 215,40 201,70" fill="rgb(255,255,255)" fill-opacity="1.0" stroke="rgb(0,0,0)" stroke-width="2"  />
			<g>
				<title>LMWPc (PF01451)
"Low molecular weight phosphotyrosine protein phosphatase"</title>
				<polygon class="PF01451" points="201,28 206,28 212,40 206,52 201,52" stroke-linejoin="round" width="13" height="24" fill="rgb(105,179,85)" stroke="rgb(84,143,68)" stroke-width="1" opacity="0.75" />
			</g>
		</g>
		<g>
			<title>wzc
putative transmembrane protein</title>
			<polygon class="wzc
putative transmembrane protein" points="216,25 257,25 257,10 287,40 257,70 257,55 216,55" fill="rgb(255,255,255)" fill-opacity="1.0" stroke="rgb(0,0,0)" stroke-width="2"  />
			<g>
				<title>Wzz (PF02706)
"Chain length determinant protein"</title>
				<rect class="PF02706" x="217" y="28" stroke-linejoin="round" width="9" height="24" fill="rgb(216,77,57)" stroke="rgb(172,61,45)" stroke-width="1" opacity="0.75" />
			</g>
			<g>
				<title>GNVR (PF13807)
"G-rich domain on putative tyrosine kinase"</title>
				<rect class="PF13807" x="252" y="28" stroke-linejoin="round" width="8" height="24" fill="rgb(214,163,91)" stroke="rgb(171,130,72)" stroke-width="1" opacity="0.75" />
			</g>
			<g>
				<title>AAA_31 (PF13614)
"AAA domain"</title>
				<polygon class="PF13614" points="267,28 271,28 283,40 283,40 271,52 267,52" stroke-linejoin="round" width="16" height="24" fill="rgb(103,181,56)" stroke="rgb(82,144,44)" stroke-width="1" opacity="0.75" />
			</g>
		</g>
		<g>
			<title>
putative glycosyltransferase</title>
			<polygon class="
putative glycosyltransferase" points="290,25 298,25 298,10 328,40 298,70 298,55 290,55" fill="rgb(255,255,255)" fill-opacity="1.0" stroke="rgb(0,0,0)" stroke-width="2"  />
			<g>
				<title>Glyco_transf_4 (PF13439)
"Glycosyltransferase Family 4"</title>
				<rect class="PF13439" x="291" y="28" stroke-linejoin="round" width="16" height="24" fill="rgb(67,194,123)" stroke="rgb(53,155,98)" stroke-width="1" opacity="0.75" />
			</g>
			<g>
				<title>Glycos_transf_1 (PF00534)
"Glycosyl transferases group 1"</title>
				<polygon class="PF00534" points="309,28 312,28 324,40 312,52 309,52" stroke-linejoin="round" width="17" height="24" fill="rgb(66,178,218)" stroke="rgb(52,142,174)" stroke-width="1" opacity="0.75" />
			</g>
		</g>
		<g>
			<title>wzx
flippase</title>
			<polygon class="wzx
flippase" points="331,25 339,25 339,10 369,40 339,70 339,55 331,55" fill="rgb(255,255,255)" fill-opacity="1.0" stroke="rgb(0,0,0)" stroke-width="2"  />
		</g>
		<g>
			<title>wzy_K54
serotype K54 polymerase</title>
			<polygon class="wzy_K54
serotype K54 polymerase" points="373,25 379,25 379,10 409,40 379,70 379,55 373,55" fill="rgb(255,255,255)" fill-opacity="1.0" stroke="rgb(0,0,0)" stroke-width="2"  />
		</g>
		<g>
			<title>
putative acetyltransferase</title>
			<polygon class="
putative acetyltransferase" points="414,10 428,40 414,70" fill="rgb(255,255,255)" fill-opacity="1.0" stroke="rgb(0,0,0)" stroke-width="2"  />
		</g>
		<g>
			<title>
putative glycosyltransferase</title>
			<polygon class="
putative glycosyltransferase" points="428,25 428,25 428,10 458,40 428,70 428,55 428,55" fill="rgb(255,255,255)" fill-opacity="1.0" stroke="rgb(0,0,0)" stroke-width="2"  />
			<g>
				<title>Glycos_transf_2 (PF00535)
"Glycosyl transferase family 2"</title>
				<polygon class="PF00535" points="428,28 442,28 444,30 444,50 442,52 428,52" stroke-linejoin="round" width="16" height="24" fill="rgb(197,62,212)" stroke="rgb(157,49,169)" stroke-width="1" opacity="0.75" />
			</g>
		</g>
		<g>
			<title>
GDP-D-mannose dehydratase</title>
			<polygon class="
GDP-D-mannose dehydratase" points="459,25 466,25 466,10 496,40 466,70 466,55 459,55" fill="rgb(255,255,255)" fill-opacity="1.0" stroke="rgb(0,0,0)" stroke-width="2"  />
			<g>
				<title>GDP_Man_Dehyd (PF16363)
"GDP-mannose 4,6 dehydratase"</title>
				<polygon class="PF16363" points="459,28 480,28 492,40 480,52 459,52" stroke-linejoin="round" width="34" height="24" fill="rgb(50,144,195)" stroke="rgb(40,115,156)" stroke-width="1" opacity="0.75" />
			</g>
		</g>
		<g>
			<title>
GDP-fucose synthetase</title>
			<polygon class="
GDP-fucose synthetase" points="497,25 499,25 499,10 529,40 499,70 499,55 497,55" fill="rgb(255,255,255)" fill-opacity="1.0" stroke="rgb(0,0,0)" stroke-width="2"  />
			<g>
				<title>Epimerase (PF01370)
"NAD dependent epimerase/dehydratase family"</title>
				<polygon class="PF01370" points="497,28 513,28 521,36 521,44 513,52 497,52" stroke-linejoin="round" width="24" height="24" fill="rgb(215,89,157)" stroke="rgb(172,71,125)" stroke-width="1" opacity="0.75" />
			</g>
		</g>
		<g>
			<title>
putative GDP-mannose</title>
			<polygon class="
putative GDP-mannose" points="529,10 544,40 529,70" fill="rgb(255,255,255)" fill-opacity="1.0" stroke="rgb(0,0,0)" stroke-width="2"  />
			<g>
				<title>NUDIX (PF00293)
"NUDIX domain"</title>
				<polygon class="PF00293" points="530,28 534,28 540,40 534,52 530,52" stroke-linejoin="round" width="13" height="24" fill="rgb(185,54,57)" stroke="rgb(148,43,45)" stroke-width="1" opacity="0.75" />
			</g>
		</g>
		<g>
			<title>
putative glycosyl transferase</title>
			<polygon class="
putative glycosyl transferase" points="545,25 555,25 555,10 585,40 555,70 555,55 545,55" fill="rgb(255,255,255)" fill-opacity="1.0" stroke="rgb(0,0,0)" stroke-width="2"  />
			<g>
				<title>Glyco_trans_4_4 (PF13579)
"Glycosyl transferase 4-like domain"</title>
				<rect class="PF13579" x="546" y="28" stroke-linejoin="round" width="18" height="24" fill="rgb(109,95,198)" stroke="rgb(87,76,158)" stroke-width="1" opacity="0.75" />
			</g>
			<g>
				<title>Glycos_transf_1 (PF00534)
"Glycosyl transferases group 1"</title>
				<polygon class="PF00534" points="566,28 569,28 581,40 569,52 566,52" stroke-linejoin="round" width="17" height="24" fill="rgb(66,178,218)" stroke="rgb(52,142,174)" stroke-width="1" opacity="0.75" />
			</g>
		</g>
		<g>
			<title>
putative CPS biosynthesis glycosyltransferase</title>
			<polygon class="
putative CPS biosynthesis glycosyltransferase" points="595,25 611,25 611,10 641,40 611,70 611,55 595,55" fill="rgb(255,255,255)" fill-opacity="1.0" stroke="rgb(0,0,0)" stroke-width="2"  />
			<g>
				<title>CoA_binding_3 (PF13727)
"CoA-binding domain"</title>
				<rect class="PF13727" x="601" y="28" stroke-linejoin="round" width="17" height="24" fill="rgb(115,219,79)" stroke="rgb(92,175,63)" stroke-width="1" opacity="0.75" />
			</g>
			<g>
				<title>Bac_transf (PF02397)
"Bacterial sugar transferase"</title>
				<polygon class="PF02397" points="622,28 625,28 637,40 625,52 622,52" stroke-linejoin="round" width="18" height="24" fill="rgb(100,199,213)" stroke="rgb(80,159,170)" stroke-width="1" opacity="0.75" />
			</g>
		</g>
		<g>
			<title>gnd
6-phosphogluconate dehydrogenase</title>
			<polygon class="gnd
6-phosphogluconate dehydrogenase" points="648,25 664,25 664,10 694,40 664,70 664,55 648,55" fill="rgb(255,255,255)" fill-opacity="1.0" stroke="rgb(0,0,0)" stroke-width="2"  />
			<g>
				<title>NAD_binding_2 (PF03446)
"NAD binding domain of 6-phosphogluconate dehydrogenase"</title>
				<rect class="PF03446" x="648" y="28" stroke-linejoin="round" width="16" height="24" fill="rgb(119,80,223)" stroke="rgb(95,64,178)" stroke-width="1" opacity="0.75" />
			</g>
			<g>
				<title>6PGD (PF00393)
"6-phosphogluconate dehydrogenase, C-terminal domain"</title>
				<polygon class="PF00393" points="665,28 678,28 690,40 678,52 665,52" stroke-linejoin="round" width="28" height="24" fill="rgb(70,217,77)" stroke="rgb(56,173,61)" stroke-width="1" opacity="0.75" />
			</g>
		</g>
	</g>
</svg>
