<svg version="1.1" baseProfile="full" xmlns="http://www.w3.org/2000/svg" width="1571.2666666666667" height="80">
	<g>
		<line x1="10" y1="40.0" x2="1561.2666666666667" y2="40.0" style="stroke:rgb(70,70,70); stroke-width:3 "/>
		<g>
			<title>
hypothetical protein</title>
			<polygon class="
hypothetical protein" points="16,10 37,40 16,70" fill="rgb(255,255,255)" fill-opacity="1.0" stroke="rgb(0,0,0)" stroke-width="2"  />
			<g>
				<title>Cyclase (PF04199)
"Putative cyclase"</title>
				<polygon class="PF04199" points="16,28 25,28 30,35 30,45 25,52 16,52" stroke-linejoin="round" width="14" height="24" fill="rgb(145,90,187)" stroke="rgb(115,72,149)" stroke-width="1" opacity="0.75" />
			</g>
		</g>
		<g>
			<title>
hypothetical protein</title>
			<polygon class="
hypothetical protein" points="38,25 59,25 59,10 89,40 59,70 59,55 38,55" fill="rgb(255,255,255)" fill-opacity="1.0" stroke="rgb(0,0,0)" stroke-width="2"  />
			<g>
				<title>G_glu_transpept (PF01019)
"Gamma-glutamyltranspeptidase"</title>
				<polygon class="PF01019" points="40,28 73,28 85,40 73,52 40,52" stroke-linejoin="round" width="48" height="24" fill="rgb(198,115,67)" stroke="rgb(158,92,53)" stroke-width="1" opacity="0.75" />
			</g>
		</g>
		<g>
			<title>
hypothetical protein</title>
			<polygon class="
hypothetical protein" points="90,25 124,25 124,10 154,40 124,70 124,55 90,55" fill="rgb(255,255,255)" fill-opacity="1.0" stroke="rgb(0,0,0)" stroke-width="2"  />
			<g>
				<title>Cu_amine_oxidN3 (PF02728)
"Copper amine oxidase, N3 domain"</title>
				<rect class="PF02728" x="100" y="28" stroke-linejoin="round" width="10" height="24" fill="rgb(153,95,203)" stroke="rgb(122,76,162)" stroke-width="1" opacity="0.75" />
			</g>
			<g>
				<title>Cu_amine_oxid (PF01179)
"Copper amine oxidase, enzyme domain"</title>
				<polygon class="PF01179" points="112,28 138,28 150,40 138,52 112,52" stroke-linejoin="round" width="40" height="24" fill="rgb(224,62,88)" stroke="rgb(179,49,70)" stroke-width="1" opacity="0.75" />
			</g>
		</g>
		<g>
			<title>
putative dioxygenase</title>
			<polygon class="
putative dioxygenase" points="157,25 172,25 172,10 202,40 172,70 172,55 157,55" fill="rgb(255,255,255)" fill-opacity="1.0" stroke="rgb(0,0,0)" stroke-width="2"  />
			<g>
				<title>Rieske (PF00355)
"Rieske [2Fe-2S] domain"</title>
				<rect class="PF00355" x="159" y="28" stroke-linejoin="round" width="9" height="24" fill="rgb(60,75,194)" stroke="rgb(48,60,155)" stroke-width="1" opacity="0.75" />
			</g>
			<g>
				<title>LigXa_C (PF19301)
"LigXa C-terminal domain like"</title>
				<polygon class="PF19301" points="170,28 185,28 196,39 196,41 185,52 170,52" stroke-linejoin="round" width="26" height="24" fill="rgb(78,200,132)" stroke="rgb(62,160,105)" stroke-width="1" opacity="0.75" />
			</g>
		</g>
		<g>
			<title>
putative glutamine synthetase</title>
			<polygon class="
putative glutamine synthetase" points="202,25 219,25 219,10 249,40 219,70 219,55 202,55" fill="rgb(255,255,255)" fill-opacity="1.0" stroke="rgb(0,0,0)" stroke-width="2"  />
			<g>
				<title>Gln-synt_C (PF00120)
"Glutamine synthetase, catalytic domain"</title>
				<polygon class="PF00120" points="215,28 233,28 245,40 233,52 215,52" stroke-linejoin="round" width="34" height="24" fill="rgb(185,153,76)" stroke="rgb(148,122,60)" stroke-width="1" opacity="0.75" />
			</g>
		</g>
		<g>
			<title>
putative oxidoreductase</title>
			<polygon class="
putative oxidoreductase" points="251,25 259,25 259,10 289,40 259,70 259,55 251,55" fill="rgb(255,255,255)" fill-opacity="1.0" stroke="rgb(0,0,0)" stroke-width="2"  />
		</g>
		<g>
			<title>
putative feruolyl esterase</title>
			<polygon class="
putative feruolyl esterase" points="342,25 315,25 315,10 285,40 315,70 315,55 342,55" fill="rgb(255,255,255)" fill-opacity="1.0" stroke="rgb(0,0,0)" stroke-width="2"  />
			<g>
				<title>Tannase (PF07519)
"Tannase and feruloyl esterase"</title>
				<polygon class="PF07519" points="289,40 301,28 333,28 333,52 301,52" stroke-linejoin="round" width="46" height="24" fill="rgb(217,70,181)" stroke="rgb(173,56,144)" stroke-width="1" opacity="0.75" />
			</g>
		</g>
		<g>
			<title>
putative nitrate ABC transport substrate-binding protein</title>
			<polygon class="
putative nitrate ABC transport substrate-binding protein" points="351,25 353,25 353,10 383,40 353,70 353,55 351,55" fill="rgb(255,255,255)" fill-opacity="1.0" stroke="rgb(0,0,0)" stroke-width="2"  />
			<g>
				<title>NMT1 (PF09084)
"NMT1/THI5 like"</title>
				<polygon class="PF09084" points="355,28 367,28 376,37 376,43 367,52 355,52" stroke-linejoin="round" width="21" height="24" fill="rgb(196,74,83)" stroke="rgb(156,59,66)" stroke-width="1" opacity="0.75" />
			</g>
		</g>
		<g>
			<title>
putative cytochrome P450</title>
			<polygon class="
putative cytochrome P450" points="423,25 414,25 414,10 384,40 414,70 414,55 423,55" fill="rgb(255,255,255)" fill-opacity="1.0" stroke="rgb(0,0,0)" stroke-width="2"  />
			<g>
				<title>p450 (PF00067)
"Cytochrome P450"</title>
				<polygon class="PF00067" points="388,40 400,28 403,28 403,52 400,52" stroke-linejoin="round" width="19" height="24" fill="rgb(195,210,54)" stroke="rgb(155,168,43)" stroke-width="1" opacity="0.75" />
			</g>
		</g>
		<g>
			<title>
hypothetical protein</title>
			<polygon class="
hypothetical protein" points="429,25 465,25 465,10 495,40 465,70 465,55 429,55" fill="rgb(255,255,255)" fill-opacity="1.0" stroke="rgb(0,0,0)" stroke-width="2"  />
			<g>
				<title>Pkinase (PF00069)
"Protein kinase domain"</title>
				<rect class="PF00069" x="431" y="28" stroke-linejoin="round" width="24" height="24" fill="rgb(93,191,206)" stroke="rgb(74,152,164)" stroke-width="1" opacity="0.75" />
			</g>
		</g>
		<g>
			<title>colH1
hypothetical protein</title>
			<polygon class="colH1
hypothetical protein" points="527,25 527,25 527,10 497,40 527,70 527,55 527,55" fill="rgb(255,255,255)" fill-opacity="1.0" stroke="rgb(0,0,0)" stroke-width="2"  />
			<g>
				<title>DUF899 (PF05988)
"Bacterial protein of unknown function (DUF899)"</title>
				<polygon class="PF05988" points="501,40 513,28 522,28 522,52 513,52" stroke-linejoin="round" width="22" height="24" fill="rgb(222,87,182)" stroke="rgb(177,69,145)" stroke-width="1" opacity="0.75" />
			</g>
		</g>
		<g>
			<title>colR5
regulatory protein</title>
			<polygon class="colR5
regulatory protein" points="531,40 556,10 556,70" fill="rgb(255,255,255)" fill-opacity="1.0" stroke="rgb(0,0,0)" stroke-width="2"  />
			<g>
				<title>BTAD (PF03704)
"Bacterial transcriptional activator domain"</title>
				<polygon class="PF03704" points="535,40 545,28 545,28 545,52 545,52" stroke-linejoin="round" width="14" height="24" fill="rgb(174,224,58)" stroke="rgb(139,179,46)" stroke-width="1" opacity="0.75" />
			</g>
			<g>
				<title>Trans_reg_C (PF00486)
"Transcriptional regulatory protein, C terminal"</title>
				<rect class="PF00486" x="546" y="28" stroke-linejoin="round" width="7" height="24" fill="rgb(69,185,116)" stroke="rgb(55,148,92)" stroke-width="1" opacity="0.75" />
			</g>
		</g>
		<g>
			<title>colC16
DSBA oxido/reductase</title>
			<polygon class="colC16
DSBA oxido/reductase" points="564,40 588,10 588,70" fill="rgb(255,255,255)" fill-opacity="1.0" stroke="rgb(0,0,0)" stroke-width="2"  />
			<g>
				<title>DSBA (PF01323)
"DSBA-like thioredoxin domain"</title>
				<polygon class="PF01323" points="568,40 578,28 586,28 586,52 578,52" stroke-linejoin="round" width="19" height="24" fill="rgb(203,114,66)" stroke="rgb(162,91,52)" stroke-width="1" opacity="0.75" />
			</g>
		</g>
		<g>
			<title>colC3
hypothetical protein</title>
			<polygon class="colC3
hypothetical protein" points="626,25 618,25 618,10 588,40 618,70 618,55 626,55" fill="rgb(255,255,255)" fill-opacity="1.0" stroke="rgb(0,0,0)" stroke-width="2"  />
			<g>
				<title>ketoacyl-synt (PF00109)
"Beta-ketoacyl synthase, N-terminal domain"</title>
				<polygon class="PF00109" points="603,29 604,28 623,28 623,52 604,52 603,51" stroke-linejoin="round" width="20" height="24" fill="rgb(74,179,82)" stroke="rgb(59,143,65)" stroke-width="1" opacity="0.75" />
			</g>
		</g>
		<g>
			<title>colC4
putative beta-ketoacyl synthase</title>
			<polygon class="colC4
putative beta-ketoacyl synthase" points="666,25 656,25 656,10 626,40 656,70 656,55 666,55" fill="rgb(255,255,255)" fill-opacity="1.0" stroke="rgb(0,0,0)" stroke-width="2"  />
			<g>
				<title>Ketoacyl-synt_C (PF02801)
"Beta-ketoacyl synthase, C-terminal domain"</title>
				<polygon class="PF02801" points="630,40 641,29 641,51 630,40" stroke-linejoin="round" width="11" height="24" fill="rgb(212,79,72)" stroke="rgb(169,63,57)" stroke-width="1" opacity="0.75" />
			</g>
			<g>
				<title>ketoacyl-synt (PF00109)
"Beta-ketoacyl synthase, N-terminal domain"</title>
				<polygon class="PF00109" points="642,28 642,28 665,28 665,52 642,52 642,52" stroke-linejoin="round" width="23" height="24" fill="rgb(74,179,82)" stroke="rgb(59,143,65)" stroke-width="1" opacity="0.75" />
			</g>
		</g>
		<g>
			<title>colC5
putative ACP</title>
			<polygon class="colC5
putative ACP" points="667,40 675,10 675,70" fill="rgb(255,255,255)" fill-opacity="1.0" stroke="rgb(0,0,0)" stroke-width="2"  />
			<g>
				<title>PP-binding (PF00550)
"Phosphopantetheine attachment site"</title>
				<polygon class="PF00550" points="670,40 673,28 673,28 673,52 673,52" stroke-linejoin="round" width="6" height="24" fill="rgb(181,58,166)" stroke="rgb(144,46,132)" stroke-width="1" opacity="0.75" />
			</g>
		</g>
		<g>
			<title>colC10
putative ketoreductase</title>
			<polygon class="colC10
putative ketoreductase" points="677,40 701,10 701,70" fill="rgb(255,255,255)" fill-opacity="1.0" stroke="rgb(0,0,0)" stroke-width="2"  />
			<g>
				<title>adh_short_C2 (PF13561)
"Enoyl-(Acyl carrier protein) reductase"</title>
				<polygon class="PF13561" points="681,40 691,28 700,28 700,52 691,52" stroke-linejoin="round" width="23" height="24" fill="rgb(79,221,209)" stroke="rgb(63,176,167)" stroke-width="1" opacity="0.75" />
			</g>
		</g>
		<g>
			<title>colC2
putative arylamine N-acetyltransferase</title>
			<polygon class="colC2
putative arylamine N-acetyltransferase" points="702,40 730,10 730,70" fill="rgb(255,255,255)" fill-opacity="1.0" stroke="rgb(0,0,0)" stroke-width="2"  />
			<g>
				<title>Acetyltransf_2 (PF00797)
"N-acetyltransferase"</title>
				<polygon class="PF00797" points="706,40 717,28 727,28 727,52 717,52" stroke-linejoin="round" width="22" height="24" fill="rgb(83,223,184)" stroke="rgb(66,178,147)" stroke-width="1" opacity="0.75" />
			</g>
		</g>
		<g>
			<title>colM1
putative transport protein</title>
			<polygon class="colM1
putative transport protein" points="790,25 770,25 770,10 740,40 770,70 770,55 790,55" fill="rgb(255,255,255)" fill-opacity="1.0" stroke="rgb(0,0,0)" stroke-width="2"  />
			<g>
				<title>MFS_1 (PF07690)
"Major Facilitator Superfamily"</title>
				<polygon class="PF07690" points="748,36 756,28 787,28 787,52 756,52 748,44" stroke-linejoin="round" width="39" height="24" fill="rgb(228,207,98)" stroke="rgb(182,165,78)" stroke-width="1" opacity="0.75" />
			</g>
		</g>
		<g>
			<title>colC15
putative type II thioesterase</title>
			<polygon class="colC15
putative type II thioesterase" points="794,40 820,10 820,70" fill="rgb(255,255,255)" fill-opacity="1.0" stroke="rgb(0,0,0)" stroke-width="2"  />
			<g>
				<title>Thioesterase (PF00975)
"Thioesterase domain"</title>
				<polygon class="PF00975" points="798,40 808,28 817,28 817,52 808,52" stroke-linejoin="round" width="22" height="24" fill="rgb(69,76,223)" stroke="rgb(55,60,178)" stroke-width="1" opacity="0.75" />
			</g>
		</g>
		<g>
			<title>colC9
putative acyl dehydratase</title>
			<polygon class="colC9
putative acyl dehydratase" points="820,40 846,10 846,70" fill="rgb(255,255,255)" fill-opacity="1.0" stroke="rgb(0,0,0)" stroke-width="2"  />
			<g>
				<title>MaoC_dehydratas (PF01575)
"MaoC like domain"</title>
				<polygon class="PF01575" points="834,29 835,28 845,28 845,52 835,52 834,51" stroke-linejoin="round" width="11" height="24" fill="rgb(86,84,223)" stroke="rgb(68,67,178)" stroke-width="1" opacity="0.75" />
			</g>
		</g>
		<g>
			<title>colC8
putative acyl dehydratase</title>
			<polygon class="colC8
putative acyl dehydratase" points="847,40 861,10 861,70" fill="rgb(255,255,255)" fill-opacity="1.0" stroke="rgb(0,0,0)" stroke-width="2"  />
			<g>
				<title>MaoC_dehydrat_N (PF13452)
"N-terminal half of MaoC dehydratase"</title>
				<polygon class="PF13452" points="850,40 856,28 860,28 860,52 856,52" stroke-linejoin="round" width="12" height="24" fill="rgb(80,58,182)" stroke="rgb(64,46,145)" stroke-width="1" opacity="0.75" />
			</g>
		</g>
		<g>
			<title>colA2
putative 3,4-AHBA carboxyl group adenylase</title>
			<polygon class="colA2
putative 3,4-AHBA carboxyl group adenylase" points="908,25 891,25 891,10 861,40 891,70 891,55 908,55" fill="rgb(255,255,255)" fill-opacity="1.0" stroke="rgb(0,0,0)" stroke-width="2"  />
			<g>
				<title>AMP-binding_C (PF13193)
"AMP-binding enzyme C-terminal domain"</title>
				<polygon class="PF13193" points="865,40 869,36 869,44" stroke-linejoin="round" width="6" height="24" fill="rgb(195,82,106)" stroke="rgb(156,65,84)" stroke-width="1" opacity="0.75" />
			</g>
			<g>
				<title>AMP-binding (PF00501)
"AMP-binding enzyme"</title>
				<polygon class="PF00501" points="875,30 877,28 906,28 906,52 877,52 875,50" stroke-linejoin="round" width="31" height="24" fill="rgb(189,78,204)" stroke="rgb(151,62,163)" stroke-width="1" opacity="0.75" />
			</g>
		</g>
		<g>
			<title>colA1
putative 3,4-AHBA synthase</title>
			<polygon class="colA1
putative 3,4-AHBA synthase" points="946,25 939,25 939,10 909,40 939,70 939,55 946,55" fill="rgb(255,255,255)" fill-opacity="1.0" stroke="rgb(0,0,0)" stroke-width="2"  />
			<g>
				<title>DHQS (PF01959)
"3-dehydroquinate synthase II"</title>
				<polygon class="PF01959" points="913,40 925,28 946,28 946,52 925,52" stroke-linejoin="round" width="37" height="24" fill="rgb(72,159,184)" stroke="rgb(57,127,147)" stroke-width="1" opacity="0.75" />
			</g>
		</g>
		<g>
			<title>colA3
putative 2-amino-4,5-dihydroxy-6-one-heptanoic acid-7-phosphate synthase</title>
			<polygon class="colA3
putative 2-amino-4,5-dihydroxy-6-one-heptanoic acid-7-phosphate synthase" points="956,10 983,40 956,70" fill="rgb(255,255,255)" fill-opacity="1.0" stroke="rgb(0,0,0)" stroke-width="2"  />
			<g>
				<title>DeoC (PF01791)
"DeoC/LacD family aldolase"</title>
				<polygon class="PF01791" points="958,28 967,28 979,40 979,40 967,52 958,52" stroke-linejoin="round" width="21" height="24" fill="rgb(154,53,201)" stroke="rgb(123,42,160)" stroke-width="1" opacity="0.75" />
			</g>
		</g>
		<g>
			<title>colC11
putative ACP</title>
			<polygon class="colC11
putative ACP" points="986,10 995,40 986,70" fill="rgb(255,255,255)" fill-opacity="1.0" stroke="rgb(0,0,0)" stroke-width="2"  />
			<g>
				<title>PP-binding (PF00550)
"Phosphopantetheine attachment site"</title>
				<polygon class="PF00550" points="986,28 988,28 992,40 988,52 986,52" stroke-linejoin="round" width="7" height="24" fill="rgb(181,58,166)" stroke="rgb(144,46,132)" stroke-width="1" opacity="0.75" />
			</g>
		</g>
		<g>
			<title>colC12
putative 3,4-AHBA ACP</title>
			<polygon class="colC12
putative 3,4-AHBA ACP" points="995,10 1004,40 995,70" fill="rgb(255,255,255)" fill-opacity="1.0" stroke="rgb(0,0,0)" stroke-width="2"  />
		</g>
		<g>
			<title>colC13
putative type II PKS ketosynthase alpha subunit</title>
			<polygon class="colC13
putative type II PKS ketosynthase alpha subunit" points="1004,25 1013,25 1013,10 1043,40 1013,70 1013,55 1004,55" fill="rgb(255,255,255)" fill-opacity="1.0" stroke="rgb(0,0,0)" stroke-width="2"  />
			<g>
				<title>ketoacyl-synt (PF00109)
"Beta-ketoacyl synthase, N-terminal domain"</title>
				<rect class="PF00109" x="1004" y="28" stroke-linejoin="round" width="23" height="24" fill="rgb(74,179,82)" stroke="rgb(59,143,65)" stroke-width="1" opacity="0.75" />
			</g>
			<g>
				<title>Ketoacyl-synt_C (PF02801)
"Beta-ketoacyl synthase, C-terminal domain"</title>
				<polygon class="PF02801" points="1028,29 1039,40 1039,40 1028,51" stroke-linejoin="round" width="11" height="24" fill="rgb(212,79,72)" stroke="rgb(169,63,57)" stroke-width="1" opacity="0.75" />
			</g>
		</g>
		<g>
			<title>colC14
putative beta-ketoacyl synthase beta subunit (CLF)</title>
			<polygon class="colC14
putative beta-ketoacyl synthase beta subunit (CLF)" points="1046,10 1070,40 1046,70" fill="rgb(255,255,255)" fill-opacity="1.0" stroke="rgb(0,0,0)" stroke-width="2"  />
			<g>
				<title>Ketoacyl-synt_2 (PF13723)
"Beta-ketoacyl synthase, N-terminal domain"</title>
				<polygon class="PF13723" points="1047,28 1057,28 1066,40 1066,40 1057,52 1047,52" stroke-linejoin="round" width="19" height="24" fill="rgb(206,180,54)" stroke="rgb(164,144,43)" stroke-width="1" opacity="0.75" />
			</g>
		</g>
		<g>
			<title>colE3
putative 4-hydroxyprotocolabomycin epoxidase</title>
			<polygon class="colE3
putative 4-hydroxyprotocolabomycin epoxidase" points="1071,25 1078,25 1078,10 1108,40 1078,70 1078,55 1071,55" fill="rgb(255,255,255)" fill-opacity="1.0" stroke="rgb(0,0,0)" stroke-width="2"  />
			<g>
				<title>Bac_luciferase (PF00296)
"Luciferase-like monooxygenase"</title>
				<polygon class="PF00296" points="1071,28 1092,28 1101,37 1101,43 1092,52 1071,52" stroke-linejoin="round" width="30" height="24" fill="rgb(50,200,104)" stroke="rgb(40,160,83)" stroke-width="1" opacity="0.75" />
			</g>
		</g>
		<g>
			<title>colC7
putative ketoreductase</title>
			<polygon class="colC7
putative ketoreductase" points="1111,40 1134,10 1134,70" fill="rgb(255,255,255)" fill-opacity="1.0" stroke="rgb(0,0,0)" stroke-width="2"  />
			<g>
				<title>adh_short_C2 (PF13561)
"Enoyl-(Acyl carrier protein) reductase"</title>
				<polygon class="PF13561" points="1115,40 1124,28 1133,28 1133,52 1124,52" stroke-linejoin="round" width="22" height="24" fill="rgb(79,221,209)" stroke="rgb(63,176,167)" stroke-width="1" opacity="0.75" />
			</g>
		</g>
		<g>
			<title>colE2
putative flavin reductase</title>
			<polygon class="colE2
putative flavin reductase" points="1138,40 1155,10 1155,70" fill="rgb(255,255,255)" fill-opacity="1.0" stroke="rgb(0,0,0)" stroke-width="2"  />
			<g>
				<title>Flavin_Reduct (PF01613)
"Flavin reductase like domain"</title>
				<polygon class="PF01613" points="1141,40 1148,28 1153,28 1153,52 1148,52" stroke-linejoin="round" width="15" height="24" fill="rgb(223,100,227)" stroke="rgb(178,80,181)" stroke-width="1" opacity="0.75" />
			</g>
		</g>
		<g>
			<title>colC6
putative thioesterase</title>
			<polygon class="colC6
putative thioesterase" points="1156,40 1171,10 1171,70" fill="rgb(255,255,255)" fill-opacity="1.0" stroke="rgb(0,0,0)" stroke-width="2"  />
			<g>
				<title>4HBT (PF03061)
"Thioesterase superfamily"</title>
				<polygon class="PF03061" points="1159,40 1164,30 1164,50" stroke-linejoin="round" width="7" height="24" fill="rgb(56,71,219)" stroke="rgb(44,56,175)" stroke-width="1" opacity="0.75" />
			</g>
		</g>
		<g>
			<title>colR2
putative TetR family transcriptional regulator</title>
			<polygon class="colR2
putative TetR family transcriptional regulator" points="1179,40 1198,10 1198,70" fill="rgb(255,255,255)" fill-opacity="1.0" stroke="rgb(0,0,0)" stroke-width="2"  />
			<g>
				<title>TetR_C_8 (PF14278)
"Transcriptional regulator C-terminal region"</title>
				<polygon class="PF14278" points="1183,40 1189,31 1189,49" stroke-linejoin="round" width="10" height="24" fill="rgb(152,51,201)" stroke="rgb(121,40,160)" stroke-width="1" opacity="0.75" />
			</g>
			<g>
				<title>TetR_N (PF00440)
"Bacterial regulatory proteins, tetR family"</title>
				<rect class="PF00440" x="1192" y="28" stroke-linejoin="round" width="4" height="24" fill="rgb(148,50,185)" stroke="rgb(118,40,148)" stroke-width="1" opacity="0.75" />
			</g>
		</g>
		<g>
			<title>colR1
putative transcriptional regulator</title>
			<polygon class="colR1
putative transcriptional regulator" points="1200,40 1221,10 1221,70" fill="rgb(255,255,255)" fill-opacity="1.0" stroke="rgb(0,0,0)" stroke-width="2"  />
			<g>
				<title>GerE (PF00196)
"Bacterial regulatory proteins, luxR family"</title>
				<polygon class="PF00196" points="1204,40 1207,36 1207,44" stroke-linejoin="round" width="5" height="24" fill="rgb(225,67,110)" stroke="rgb(180,53,88)" stroke-width="1" opacity="0.75" />
			</g>
		</g>
		<g>
			<title>colC1
putative phosphopantetheinyl transferase</title>
			<polygon class="colC1
putative phosphopantetheinyl transferase" points="1223,40 1246,10 1246,70" fill="rgb(255,255,255)" fill-opacity="1.0" stroke="rgb(0,0,0)" stroke-width="2"  />
			<g>
				<title>ACPS (PF01648)
"4'-phosphopantetheinyl transferase superfamily"</title>
				<polygon class="PF01648" points="1227,40 1235,30 1235,50" stroke-linejoin="round" width="10" height="24" fill="rgb(58,190,78)" stroke="rgb(46,152,62)" stroke-width="1" opacity="0.75" />
			</g>
		</g>
		<g>
			<title>colE1
putative protocolabomycin 4-hydroxylase</title>
			<polygon class="colE1
putative protocolabomycin 4-hydroxylase" points="1260,25 1270,25 1270,10 1300,40 1270,70 1270,55 1260,55" fill="rgb(255,255,255)" fill-opacity="1.0" stroke="rgb(0,0,0)" stroke-width="2"  />
			<g>
				<title>FAD_binding_3 (PF01494)
"FAD binding domain"</title>
				<polygon class="PF01494" points="1261,28 1284,28 1296,40 1296,40 1284,52 1261,52" stroke-linejoin="round" width="35" height="24" fill="rgb(215,66,156)" stroke="rgb(172,52,124)" stroke-width="1" opacity="0.75" />
			</g>
		</g>
		<g>
			<title>colD3
putative 5-aminolevulinate CoA-ligase</title>
			<polygon class="colD3
putative 5-aminolevulinate CoA-ligase" points="1354,25 1333,25 1333,10 1303,40 1333,70 1333,55 1354,55" fill="rgb(255,255,255)" fill-opacity="1.0" stroke="rgb(0,0,0)" stroke-width="2"  />
			<g>
				<title>AMP-binding_C (PF13193)
"AMP-binding enzyme C-terminal domain"</title>
				<polygon class="PF13193" points="1307,40 1312,35 1312,45" stroke-linejoin="round" width="7" height="24" fill="rgb(195,82,106)" stroke="rgb(156,65,84)" stroke-width="1" opacity="0.75" />
			</g>
			<g>
				<title>AMP-binding (PF00501)
"AMP-binding enzyme"</title>
				<polygon class="PF00501" points="1317,30 1319,28 1352,28 1352,52 1319,52 1317,50" stroke-linejoin="round" width="35" height="24" fill="rgb(189,78,204)" stroke="rgb(151,62,163)" stroke-width="1" opacity="0.75" />
			</g>
		</g>
		<g>
			<title>colD2
putative 5-aminolevulinate synthase</title>
			<polygon class="colD2
putative 5-aminolevulinate synthase" points="1398,25 1387,25 1387,10 1357,40 1387,70 1387,55 1398,55" fill="rgb(255,255,255)" fill-opacity="1.0" stroke="rgb(0,0,0)" stroke-width="2"  />
			<g>
				<title>Aminotran_1_2 (PF00155)
"Aminotransferase class I and II"</title>
				<polygon class="PF00155" points="1361,40 1373,28 1392,28 1392,52 1373,52" stroke-linejoin="round" width="34" height="24" fill="rgb(207,146,55)" stroke="rgb(165,116,43)" stroke-width="1" opacity="0.75" />
			</g>
		</g>
		<g>
			<title>colD1
putative amide synthetase</title>
			<polygon class="colD1
putative amide synthetase" points="1451,25 1430,25 1430,10 1400,40 1430,70 1430,55 1451,55" fill="rgb(255,255,255)" fill-opacity="1.0" stroke="rgb(0,0,0)" stroke-width="2"  />
			<g>
				<title>AMP-binding_C (PF13193)
"AMP-binding enzyme C-terminal domain"</title>
				<polygon class="PF13193" points="1404,40 1408,36 1408,44" stroke-linejoin="round" width="7" height="24" fill="rgb(195,82,106)" stroke="rgb(156,65,84)" stroke-width="1" opacity="0.75" />
			</g>
			<g>
				<title>AMP-binding (PF00501)
"AMP-binding enzyme"</title>
				<polygon class="PF00501" points="1414,30 1416,28 1449,28 1449,52 1416,52 1414,50" stroke-linejoin="round" width="35" height="24" fill="rgb(189,78,204)" stroke="rgb(151,62,163)" stroke-width="1" opacity="0.75" />
			</g>
		</g>
		<g>
			<title>colR3
putative TetR family transcriptional regulator</title>
			<polygon class="colR3
putative TetR family transcriptional regulator" points="1462,40 1481,10 1481,70" fill="rgb(255,255,255)" fill-opacity="1.0" stroke="rgb(0,0,0)" stroke-width="2"  />
			<g>
				<title>TetR_C_43 (PF21597)
"Transcriptional regulator SbtR-like, C-terminal domain"</title>
				<polygon class="PF21597" points="1466,40 1471,32 1471,48" stroke-linejoin="round" width="9" height="24" fill="rgb(54,198,207)" stroke="rgb(43,158,165)" stroke-width="1" opacity="0.75" />
			</g>
			<g>
				<title>TetR_N (PF00440)
"Bacterial regulatory proteins, tetR family"</title>
				<polygon class="PF00440" points="1474,28 1474,28 1478,28 1478,52 1474,52 1474,52" stroke-linejoin="round" width="4" height="24" fill="rgb(148,50,185)" stroke="rgb(118,40,148)" stroke-width="1" opacity="0.75" />
			</g>
		</g>
		<g>
			<title>
hypothetical protein</title>
			<polygon class="
hypothetical protein" points="1486,10 1507,40 1486,70" fill="rgb(255,255,255)" fill-opacity="1.0" stroke="rgb(0,0,0)" stroke-width="2"  />
			<g>
				<title>DUF2218 (PF09981)
"Uncharacterized protein conserved in bacteria (DUF2218)"</title>
				<polygon class="PF09981" points="1491,28 1495,28 1497,31 1497,49 1495,52 1491,52" stroke-linejoin="round" width="6" height="24" fill="rgb(125,220,81)" stroke="rgb(100,176,64)" stroke-width="1" opacity="0.75" />
			</g>
		</g>
		<g>
			<title>
hypothetical protein</title>
			<polygon class="
hypothetical protein" points="1509,40 1533,10 1533,70" fill="rgb(255,255,255)" fill-opacity="1.0" stroke="rgb(0,0,0)" stroke-width="2"  />
		</g>
		<g>
			<title>
hypothetical protein</title>
			<polygon class="
hypothetical protein" points="1553,10 1560,40 1553,70" fill="rgb(255,255,255)" fill-opacity="1.0" stroke="rgb(0,0,0)" stroke-width="2"  />
		</g>
	</g>
</svg>
