<svg version="1.1" baseProfile="full" xmlns="http://www.w3.org/2000/svg" width="930.8" height="80">
	<g>
		<line x1="10" y1="40.0" x2="920.8" y2="40.0" style="stroke:rgb(70,70,70); stroke-width:3 "/>
		<g>
			<title> (ATEG_10077)
conserved hypothetical protein</title>
			<polygon class=" (ATEG_10077)
conserved hypothetical protein" points="10,10 35,40 10,70" fill="rgb(255,255,255)" fill-opacity="1.0" stroke="rgb(0,0,0)" stroke-width="2"  />
		</g>
		<g>
			<title> (ATEG_10078)
conserved hypothetical protein</title>
			<polygon class=" (ATEG_10078)
conserved hypothetical protein" points="89,25 82,25 82,10 52,40 82,70 82,55 89,55" fill="rgb(255,255,255)" fill-opacity="1.0" stroke="rgb(0,0,0)" stroke-width="2"  />
			<g>
				<title>UbiA (PF01040)
"UbiA prenyltransferase family"</title>
				<polygon class="PF01040" points="56,40 68,28 82,28 82,52 68,52" stroke-linejoin="round" width="27" height="24" fill="rgb(172,202,98)" stroke="rgb(137,161,78)" stroke-width="1" opacity="0.75" />
			</g>
		</g>
		<g>
			<title> (ATEG_10079)
conserved hypothetical protein</title>
			<polygon class=" (ATEG_10079)
conserved hypothetical protein" points="146,25 180,25 180,10 210,40 180,70 180,55 146,55" fill="rgb(255,255,255)" fill-opacity="1.0" stroke="rgb(0,0,0)" stroke-width="2"  />
			<g>
				<title>Pyr_redox_2 (PF07992)
"Pyridine nucleotide-disulphide oxidoreductase"</title>
				<rect class="PF07992" x="153" y="28" stroke-linejoin="round" width="23" height="24" fill="rgb(187,87,99)" stroke="rgb(149,69,79)" stroke-width="1" opacity="0.75" />
			</g>
		</g>
		<g>
			<title> (ATEG_10080)
hypothetical protein</title>
			<polygon class=" (ATEG_10080)
hypothetical protein" points="491,25 253,25 253,10 223,40 253,70 253,55 491,55" fill="rgb(255,255,255)" fill-opacity="1.0" stroke="rgb(0,0,0)" stroke-width="2"  />
			<g>
				<title>Abhydrolase_3 (PF07859)
"alpha/beta hydrolase fold"</title>
				<rect class="PF07859" x="269" y="28" stroke-linejoin="round" width="15" height="24" fill="rgb(216,68,121)" stroke="rgb(172,54,96)" stroke-width="1" opacity="0.75" />
			</g>
			<g>
				<title>Methyltransf_12 (PF08242)
"Methyltransferase domain"</title>
				<rect class="PF08242" x="296" y="28" stroke-linejoin="round" width="10" height="24" fill="rgb(78,210,205)" stroke="rgb(62,168,164)" stroke-width="1" opacity="0.75" />
			</g>
			<g>
				<title>HTH_51 (PF18558)
"Helix-turn-helix domain"</title>
				<rect class="PF18558" x="317" y="28" stroke-linejoin="round" width="8" height="24" fill="rgb(57,180,179)" stroke="rgb(45,144,143)" stroke-width="1" opacity="0.75" />
			</g>
			<g>
				<title>PP-binding (PF00550)
"Phosphopantetheine attachment site"</title>
				<rect class="PF00550" x="331" y="28" stroke-linejoin="round" width="6" height="24" fill="rgb(181,58,166)" stroke="rgb(144,46,132)" stroke-width="1" opacity="0.75" />
			</g>
			<g>
				<title>Acyl_transf_1 (PF00698)
"Acyl transferase domain"</title>
				<rect class="PF00698" x="381" y="28" stroke-linejoin="round" width="23" height="24" fill="rgb(132,93,193)" stroke="rgb(105,74,154)" stroke-width="1" opacity="0.75" />
			</g>
			<g>
				<title>Ketoacyl-synt_C (PF02801)
"Beta-ketoacyl synthase, C-terminal domain"</title>
				<rect class="PF02801" x="422" y="28" stroke-linejoin="round" width="11" height="24" fill="rgb(212,79,72)" stroke="rgb(169,63,57)" stroke-width="1" opacity="0.75" />
			</g>
			<g>
				<title>ketoacyl-synt (PF00109)
"Beta-ketoacyl synthase, N-terminal domain"</title>
				<rect class="PF00109" x="434" y="28" stroke-linejoin="round" width="24" height="24" fill="rgb(74,179,82)" stroke="rgb(59,143,65)" stroke-width="1" opacity="0.75" />
			</g>
		</g>
		<g>
			<title> (ATEG_10081)
conserved hypothetical protein</title>
			<polygon class=" (ATEG_10081)
conserved hypothetical protein" points="532,25 536,25 536,10 566,40 536,70 536,55 532,55" fill="rgb(255,255,255)" fill-opacity="1.0" stroke="rgb(0,0,0)" stroke-width="2"  />
		</g>
		<g>
			<title> (ATEG_10082)
predicted protein</title>
			<polygon class=" (ATEG_10082)
predicted protein" points="592,40 606,10 606,70" fill="rgb(255,255,255)" fill-opacity="1.0" stroke="rgb(0,0,0)" stroke-width="2"  />
		</g>
		<g>
			<title> (ATEG_10083)
conserved hypothetical protein</title>
			<polygon class=" (ATEG_10083)
conserved hypothetical protein" points="630,25 656,25 656,10 686,40 656,70 656,55 630,55" fill="rgb(255,255,255)" fill-opacity="1.0" stroke="rgb(0,0,0)" stroke-width="2"  />
			<g>
				<title>p450 (PF00067)
"Cytochrome P450"</title>
				<polygon class="PF00067" points="641,28 670,28 677,35 677,45 670,52 641,52" stroke-linejoin="round" width="36" height="24" fill="rgb(195,210,54)" stroke="rgb(155,168,43)" stroke-width="1" opacity="0.75" />
			</g>
		</g>
		<g>
			<title> (ATEG_10084)
predicted protein</title>
			<polygon class=" (ATEG_10084)
predicted protein" points="744,40 772,10 772,70" fill="rgb(255,255,255)" fill-opacity="1.0" stroke="rgb(0,0,0)" stroke-width="2"  />
			<g>
				<title>PhyH (PF05721)
"Phytanoyl-CoA dioxygenase (PhyH)"</title>
				<polygon class="PF05721" points="750,38 759,28 769,28 769,52 759,52 750,42" stroke-linejoin="round" width="19" height="24" fill="rgb(186,53,95)" stroke="rgb(148,42,76)" stroke-width="1" opacity="0.75" />
			</g>
		</g>
		<g>
			<title> (ATEG_10085)
hypothetical protein</title>
			<polygon class=" (ATEG_10085)
hypothetical protein" points="818,25 851,25 851,10 881,40 851,70 851,55 818,55" fill="rgb(255,255,255)" fill-opacity="1.0" stroke="rgb(0,0,0)" stroke-width="2"  />
			<g>
				<title>FAD_binding_3 (PF01494)
"FAD binding domain"</title>
				<rect class="PF01494" x="823" y="28" stroke-linejoin="round" width="13" height="24" fill="rgb(215,66,156)" stroke="rgb(172,52,124)" stroke-width="1" opacity="0.75" />
			</g>
		</g>
		<g>
			<title> (ATEG_10086)
conserved hypothetical protein</title>
			<polygon class=" (ATEG_10086)
conserved hypothetical protein" points="892,40 920,10 920,70" fill="rgb(255,255,255)" fill-opacity="1.0" stroke="rgb(0,0,0)" stroke-width="2"  />
			<g>
				<title>adh_short_C2 (PF13561)
"Enoyl-(Acyl carrier protein) reductase"</title>
				<polygon class="PF13561" points="897,39 907,28 920,28 920,52 907,52 897,41" stroke-linejoin="round" width="23" height="24" fill="rgb(79,221,209)" stroke="rgb(63,176,167)" stroke-width="1" opacity="0.75" />
			</g>
		</g>
	</g>
</svg>
