<svg version="1.1" baseProfile="full" xmlns="http://www.w3.org/2000/svg" width="186.53333333333333" height="400">
	<g>
		<line x1="10" y1="40.0" x2="176.53333333333333" y2="40.0" style="stroke:rgb(70,70,70); stroke-width:3 "/>
		<g>
			<title>cps_ks
copalyldiphosphate/kaurene synthase</title>
			<polygon class="cps_ks
copalyldiphosphate/kaurene synthase" points="36,25 107,25 107,10 137,40 107,70 107,55 36,55" fill="rgb(255,255,255)" fill-opacity="1.0" stroke="rgb(0,0,0)" stroke-width="2"  />
		</g>
	</g>
	<g>
		<line x1="10" y1="120.0" x2="76.96666666666667" y2="120.0" style="stroke:rgb(70,70,70); stroke-width:3 "/>
		<g>
			<title>ggs2
geranylgeranyldiphosphate synthase</title>
			<polygon class="ggs2
geranylgeranyldiphosphate synthase" points="36,105 46,105 46,90 76,120 46,150 46,135 36,135" fill="rgb(255,255,255)" fill-opacity="1.0" stroke="rgb(0,0,0)" stroke-width="2"  />
		</g>
	</g>
	<g>
		<line x1="10" y1="200.0" x2="96.63333333333334" y2="200.0" style="stroke:rgb(70,70,70); stroke-width:3 "/>
		<g>
			<title>P450-2
P450 monooxygenase</title>
			<polygon class="P450-2
P450 monooxygenase" points="37,185 65,185 65,170 95,200 65,230 65,215 37,215" fill="rgb(255,255,255)" fill-opacity="1.0" stroke="rgb(0,0,0)" stroke-width="2"  />
		</g>
	</g>
	<g>
		<line x1="10" y1="280.0" x2="89.13333333333334" y2="280.0" style="stroke:rgb(70,70,70); stroke-width:3 "/>
		<g>
			<title>P450-4
P450 monooxygenase</title>
			<polygon class="P450-4
P450 monooxygenase" points="33,265 59,265 59,250 89,280 59,310 59,295 33,295" fill="rgb(255,255,255)" fill-opacity="1.0" stroke="rgb(0,0,0)" stroke-width="2"  />
		</g>
	</g>
	<g>
		<line x1="10" y1="360.0" x2="102.2" y2="360.0" style="stroke:rgb(70,70,70); stroke-width:3 "/>
		<g>
			<title>P450-1
P450 monooxygenase</title>
			<polygon class="P450-1
P450 monooxygenase" points="33,345 59,345 59,330 89,360 59,390 59,375 33,375" fill="rgb(255,255,255)" fill-opacity="1.0" stroke="rgb(0,0,0)" stroke-width="2"  />
		</g>
	</g>
</svg>
