<svg version="1.1" baseProfile="full" xmlns="http://www.w3.org/2000/svg" width="1397.8" height="80">
	<g>
		<line x1="10" y1="40.0" x2="1387.8" y2="40.0" style="stroke:rgb(70,70,70); stroke-width:3 "/>
		<g>
			<title>
long-chain-fatty-acid-CoA ligase</title>
			<polygon class="
long-chain-fatty-acid-CoA ligase" points="12,25 150,25 150,10 180,40 150,70 150,55 12,55" fill="rgb(255,255,255)" fill-opacity="1.0" stroke="rgb(0,0,0)" stroke-width="2"  />
			<g>
				<title>Condensation (PF00668)
"Condensation domain"</title>
				<rect class="PF00668" x="12" y="28" stroke-linejoin="round" width="22" height="24" fill="rgb(172,217,60)" stroke="rgb(137,173,47)" stroke-width="1" opacity="0.75" />
			</g>
			<g>
				<title>AMP-binding (PF00501)
"AMP-binding enzyme"</title>
				<rect class="PF00501" x="36" y="28" stroke-linejoin="round" width="33" height="24" fill="rgb(189,78,204)" stroke="rgb(151,62,163)" stroke-width="1" opacity="0.75" />
			</g>
			<g>
				<title>PP-binding (PF00550)
"Phosphopantetheine attachment site"</title>
				<rect class="PF00550" x="89" y="28" stroke-linejoin="round" width="6" height="24" fill="rgb(181,58,166)" stroke="rgb(144,46,132)" stroke-width="1" opacity="0.75" />
			</g>
			<g>
				<title>Condensation (PF00668)
"Condensation domain"</title>
				<rect class="PF00668" x="100" y="28" stroke-linejoin="round" width="27" height="24" fill="rgb(172,217,60)" stroke="rgb(137,173,47)" stroke-width="1" opacity="0.75" />
			</g>
			<g>
				<title>Condensation (PF00668)
"Condensation domain"</title>
				<polygon class="PF00668" points="139,28 164,28 176,40 164,52 139,52" stroke-linejoin="round" width="40" height="24" fill="rgb(172,217,60)" stroke="rgb(137,173,47)" stroke-width="1" opacity="0.75" />
			</g>
		</g>
		<g>
			<title>
hypothetical protein</title>
			<polygon class="
hypothetical protein" points="181,25 197,25 197,10 227,40 197,70 197,55 181,55" fill="rgb(255,255,255)" fill-opacity="1.0" stroke="rgb(0,0,0)" stroke-width="2"  />
			<g>
				<title>MFS_1 (PF07690)
"Major Facilitator Superfamily"</title>
				<polygon class="PF07690" points="182,28 210,28 221,39 221,41 210,52 182,52" stroke-linejoin="round" width="39" height="24" fill="rgb(228,207,98)" stroke="rgb(182,165,78)" stroke-width="1" opacity="0.75" />
			</g>
		</g>
		<g>
			<title>
2-keto-3-deoxy-D-arabino-heptulosonate-7</title>
			<polygon class="
2-keto-3-deoxy-D-arabino-heptulosonate-7" points="227,25 231,25 231,10 261,40 231,70 231,55 227,55" fill="rgb(255,255,255)" fill-opacity="1.0" stroke="rgb(0,0,0)" stroke-width="2"  />
			<g>
				<title>DAHP_synth_1 (PF00793)
"DAHP synthetase I family"</title>
				<polygon class="PF00793" points="228,28 245,28 257,40 245,52 228,52" stroke-linejoin="round" width="30" height="24" fill="rgb(66,201,123)" stroke="rgb(52,160,98)" stroke-width="1" opacity="0.75" />
			</g>
		</g>
		<g>
			<title>
hypothetical protein</title>
			<polygon class="
hypothetical protein" points="267,25 288,25 288,10 318,40 288,70 288,55 267,55" fill="rgb(255,255,255)" fill-opacity="1.0" stroke="rgb(0,0,0)" stroke-width="2"  />
			<g>
				<title>Methyltransf_11 (PF08241)
"Methyltransferase domain"</title>
				<rect class="PF08241" x="286" y="28" stroke-linejoin="round" width="10" height="24" fill="rgb(201,85,64)" stroke="rgb(160,68,51)" stroke-width="1" opacity="0.75" />
			</g>
		</g>
		<g>
			<title>
cytochrome P450 hydroxylase</title>
			<polygon class="
cytochrome P450 hydroxylase" points="365,25 355,25 355,10 325,40 355,70 355,55 365,55" fill="rgb(255,255,255)" fill-opacity="1.0" stroke="rgb(0,0,0)" stroke-width="2"  />
			<g>
				<title>p450 (PF00067)
"Cytochrome P450"</title>
				<polygon class="PF00067" points="329,40 341,28 343,28 343,52 341,52" stroke-linejoin="round" width="16" height="24" fill="rgb(195,210,54)" stroke="rgb(155,168,43)" stroke-width="1" opacity="0.75" />
			</g>
		</g>
		<g>
			<title>
ferredoxin reductase</title>
			<polygon class="
ferredoxin reductase" points="406,25 397,25 397,10 367,40 397,70 397,55 406,55" fill="rgb(255,255,255)" fill-opacity="1.0" stroke="rgb(0,0,0)" stroke-width="2"  />
			<g>
				<title>Reductase_C (PF14759)
"Reductase C-terminal"</title>
				<polygon class="PF14759" points="371,40 374,37 374,43" stroke-linejoin="round" width="7" height="24" fill="rgb(81,138,223)" stroke="rgb(64,110,178)" stroke-width="1" opacity="0.75" />
			</g>
			<g>
				<title>Pyr_redox_2 (PF07992)
"Pyridine nucleotide-disulphide oxidoreductase"</title>
				<polygon class="PF07992" points="376,35 383,28 405,28 405,52 383,52 376,45" stroke-linejoin="round" width="29" height="24" fill="rgb(187,87,99)" stroke="rgb(149,69,79)" stroke-width="1" opacity="0.75" />
			</g>
		</g>
		<g>
			<title>
ferredoxin</title>
			<polygon class="
ferredoxin" points="406,40 412,10 412,70" fill="rgb(255,255,255)" fill-opacity="1.0" stroke="rgb(0,0,0)" stroke-width="2"  />
			<g>
				<title>Fer4_13 (PF13370)
"4Fe-4S single cluster domain of Ferredoxin I"</title>
				<polygon class="PF13370" points="409,40 411,31 411,49" stroke-linejoin="round" width="5" height="24" fill="rgb(72,194,54)" stroke="rgb(57,155,43)" stroke-width="1" opacity="0.75" />
			</g>
		</g>
		<g>
			<title>
hypothetical protein</title>
			<polygon class="
hypothetical protein" points="438,40 460,10 460,70" fill="rgb(255,255,255)" fill-opacity="1.0" stroke="rgb(0,0,0)" stroke-width="2"  />
			<g>
				<title>Rhodanese (PF00581)
"Rhodanese-like domain"</title>
				<polygon class="PF00581" points="442,40 448,32 448,48" stroke-linejoin="round" width="9" height="24" fill="rgb(154,191,86)" stroke="rgb(123,152,68)" stroke-width="1" opacity="0.75" />
			</g>
			<g>
				<title>HTH_5 (PF01022)
"Bacterial regulatory protein, arsR family"</title>
				<rect class="PF01022" x="453" y="28" stroke-linejoin="round" width="4" height="24" fill="rgb(147,71,180)" stroke="rgb(117,56,144)" stroke-width="1" opacity="0.75" />
			</g>
		</g>
		<g>
			<title>dtpR2
streptomycin biosynthesis operon regulator</title>
			<polygon class="dtpR2
streptomycin biosynthesis operon regulator" points="487,25 489,25 489,10 519,40 489,70 489,55 487,55" fill="rgb(255,255,255)" fill-opacity="1.0" stroke="rgb(0,0,0)" stroke-width="2"  />
			<g>
				<title>ParBc (PF02195)
"ParB/Sulfiredoxin domain"</title>
				<rect class="PF02195" x="487" y="28" stroke-linejoin="round" width="8" height="24" fill="rgb(109,68,205)" stroke="rgb(87,54,164)" stroke-width="1" opacity="0.75" />
			</g>
		</g>
		<g>
			<title>dtpA
phosphopantothenoylcysteine decarboxylase</title>
			<polygon class="dtpA
phosphopantothenoylcysteine decarboxylase" points="521,40 540,10 540,70" fill="rgb(255,255,255)" fill-opacity="1.0" stroke="rgb(0,0,0)" stroke-width="2"  />
			<g>
				<title>Flavoprotein (PF02441)
"Flavoprotein"</title>
				<polygon class="PF02441" points="525,40 533,28 538,28 538,52 533,52" stroke-linejoin="round" width="17" height="24" fill="rgb(103,178,79)" stroke="rgb(82,142,63)" stroke-width="1" opacity="0.75" />
			</g>
		</g>
		<g>
			<title>dtpB
nonribosomal peptide synthetase</title>
			<polygon class="dtpB
nonribosomal peptide synthetase" points="551,25 625,25 625,10 655,40 625,70 625,55 551,55" fill="rgb(255,255,255)" fill-opacity="1.0" stroke="rgb(0,0,0)" stroke-width="2"  />
			<g>
				<title>Condensation (PF00668)
"Condensation domain"</title>
				<rect class="PF00668" x="552" y="28" stroke-linejoin="round" width="41" height="24" fill="rgb(172,217,60)" stroke="rgb(137,173,47)" stroke-width="1" opacity="0.75" />
			</g>
			<g>
				<title>AMP-binding (PF00501)
"AMP-binding enzyme"</title>
				<rect class="PF00501" x="596" y="28" stroke-linejoin="round" width="35" height="24" fill="rgb(189,78,204)" stroke="rgb(151,62,163)" stroke-width="1" opacity="0.75" />
			</g>
			<g>
				<title>AMP-binding_C (PF13193)
"AMP-binding enzyme C-terminal domain"</title>
				<polygon class="PF13193" points="637,28 639,28 644,33 644,47 639,52 637,52" stroke-linejoin="round" width="7" height="24" fill="rgb(195,82,106)" stroke="rgb(156,65,84)" stroke-width="1" opacity="0.75" />
			</g>
			<g>
				<title>PP-binding (PF00550)
"Phosphopantetheine attachment site"</title>
				<polygon class="PF00550" points="647,36 651,40 647,44" stroke-linejoin="round" width="6" height="24" fill="rgb(181,58,166)" stroke="rgb(144,46,132)" stroke-width="1" opacity="0.75" />
			</g>
		</g>
		<g>
			<title>dtpC
glucose-methanol-choline oxidoreductase</title>
			<polygon class="dtpC
glucose-methanol-choline oxidoreductase" points="656,25 677,25 677,10 707,40 677,70 677,55 656,55" fill="rgb(255,255,255)" fill-opacity="1.0" stroke="rgb(0,0,0)" stroke-width="2"  />
			<g>
				<title>GMC_oxred_N (PF00732)
"GMC oxidoreductase"</title>
				<rect class="PF00732" x="656" y="28" stroke-linejoin="round" width="29" height="24" fill="rgb(102,94,198)" stroke="rgb(81,75,158)" stroke-width="1" opacity="0.75" />
			</g>
			<g>
				<title>GMC_oxred_C (PF05199)
"GMC oxidoreductase"</title>
				<polygon class="PF05199" points="693,30 703,40 693,50" stroke-linejoin="round" width="13" height="24" fill="rgb(206,67,222)" stroke="rgb(164,53,177)" stroke-width="1" opacity="0.75" />
			</g>
		</g>
		<g>
			<title>
hypothetical protein</title>
			<polygon class="
hypothetical protein" points="707,10 731,40 707,70" fill="rgb(255,255,255)" fill-opacity="1.0" stroke="rgb(0,0,0)" stroke-width="2"  />
			<g>
				<title>Thioesterase (PF00975)
"Thioesterase domain"</title>
				<polygon class="PF00975" points="707,28 718,28 728,40 718,52 707,52" stroke-linejoin="round" width="23" height="24" fill="rgb(69,76,223)" stroke="rgb(55,60,178)" stroke-width="1" opacity="0.75" />
			</g>
		</g>
		<g>
			<title>
hypothetical protein</title>
			<polygon class="
hypothetical protein" points="732,25 740,25 740,10 770,40 740,70 740,55 732,55" fill="rgb(255,255,255)" fill-opacity="1.0" stroke="rgb(0,0,0)" stroke-width="2"  />
			<g>
				<title>Acyl-CoA_dh_N (PF02771)
"Acyl-CoA dehydrogenase, N-terminal domain"</title>
				<rect class="PF02771" x="732" y="28" stroke-linejoin="round" width="11" height="24" fill="rgb(104,198,213)" stroke="rgb(83,158,170)" stroke-width="1" opacity="0.75" />
			</g>
			<g>
				<title>Acyl-CoA_dh_M (PF02770)
"Acyl-CoA dehydrogenase, middle domain"</title>
				<rect class="PF02770" x="744" y="28" stroke-linejoin="round" width="9" height="24" fill="rgb(58,129,192)" stroke="rgb(46,103,153)" stroke-width="1" opacity="0.75" />
			</g>
			<g>
				<title>Acyl-CoA_dh_1 (PF00441)
"Acyl-CoA dehydrogenase, C-terminal domain"</title>
				<polygon class="PF00441" points="755,30 765,40 755,50" stroke-linejoin="round" width="14" height="24" fill="rgb(96,175,206)" stroke="rgb(76,139,164)" stroke-width="1" opacity="0.75" />
			</g>
		</g>
		<g>
			<title>dtpF
globin</title>
			<polygon class="dtpF
globin" points="772,10 786,40 772,70" fill="rgb(255,255,255)" fill-opacity="1.0" stroke="rgb(0,0,0)" stroke-width="2"  />
			<g>
				<title>Bac_globin (PF01152)
"Bacterial-like globin"</title>
				<polygon class="PF01152" points="772,28 777,28 783,40 783,40 777,52 772,52" stroke-linejoin="round" width="11" height="24" fill="rgb(187,173,73)" stroke="rgb(149,138,58)" stroke-width="1" opacity="0.75" />
			</g>
		</g>
		<g>
			<title>dtpG
hypothetical protein</title>
			<polygon class="dtpG
hypothetical protein" points="845,25 828,25 828,10 798,40 828,70 828,55 845,55" fill="rgb(255,255,255)" fill-opacity="1.0" stroke="rgb(0,0,0)" stroke-width="2"  />
			<g>
				<title>DAO (PF01266)
"FAD dependent oxidoreductase"</title>
				<polygon class="PF01266" points="808,34 814,28 844,28 844,52 814,52 808,46" stroke-linejoin="round" width="36" height="24" fill="rgb(175,183,81)" stroke="rgb(139,146,64)" stroke-width="1" opacity="0.75" />
			</g>
		</g>
		<g>
			<title>dtpH
putative regulatory protein</title>
			<polygon class="dtpH
putative regulatory protein" points="851,40 870,10 870,70" fill="rgb(255,255,255)" fill-opacity="1.0" stroke="rgb(0,0,0)" stroke-width="2"  />
			<g>
				<title>Cupin_2 (PF07883)
"Cupin domain"</title>
				<polygon class="PF07883" points="855,40 859,34 859,46" stroke-linejoin="round" width="7" height="24" fill="rgb(191,63,205)" stroke="rgb(152,50,164)" stroke-width="1" opacity="0.75" />
			</g>
			<g>
				<title>HTH_3 (PF01381)
"Helix-turn-helix"</title>
				<polygon class="PF01381" points="863,28 863,28 868,28 868,52 863,52 863,52" stroke-linejoin="round" width="5" height="24" fill="rgb(168,185,81)" stroke="rgb(134,148,64)" stroke-width="1" opacity="0.75" />
			</g>
		</g>
		<g>
			<title>dtpI
thioredoxin reductase</title>
			<polygon class="dtpI
thioredoxin reductase" points="874,25 875,25 875,10 905,40 875,70 875,55 874,55" fill="rgb(255,255,255)" fill-opacity="1.0" stroke="rgb(0,0,0)" stroke-width="2"  />
			<g>
				<title>Pyr_redox_2 (PF07992)
"Pyridine nucleotide-disulphide oxidoreductase"</title>
				<polygon class="PF07992" points="875,28 889,28 901,40 889,52 875,52" stroke-linejoin="round" width="27" height="24" fill="rgb(187,87,99)" stroke="rgb(149,69,79)" stroke-width="1" opacity="0.75" />
			</g>
		</g>
		<g>
			<title>dtpJ
drug resistance transporter EmrB/QacA</title>
			<polygon class="dtpJ
drug resistance transporter EmrB/QacA" points="962,25 939,25 939,10 909,40 939,70 939,55 962,55" fill="rgb(255,255,255)" fill-opacity="1.0" stroke="rgb(0,0,0)" stroke-width="2"  />
			<g>
				<title>MFS_1 (PF07690)
"Major Facilitator Superfamily"</title>
				<polygon class="PF07690" points="920,33 925,28 959,28 959,52 925,52 920,47" stroke-linejoin="round" width="39" height="24" fill="rgb(228,207,98)" stroke="rgb(182,165,78)" stroke-width="1" opacity="0.75" />
			</g>
		</g>
		<g>
			<title>dtpK
hypothetical protein</title>
			<polygon class="dtpK
hypothetical protein" points="968,10 993,40 968,70" fill="rgb(255,255,255)" fill-opacity="1.0" stroke="rgb(0,0,0)" stroke-width="2"  />
			<g>
				<title>MerR_1 (PF13411)
"MerR HTH family regulatory protein"</title>
				<rect class="PF13411" x="971" y="28" stroke-linejoin="round" width="5" height="24" fill="rgb(186,92,57)" stroke="rgb(148,73,45)" stroke-width="1" opacity="0.75" />
			</g>
		</g>
		<g>
			<title>dtpL
hypothetical protein</title>
			<polygon class="dtpL
hypothetical protein" points="993,25 1045,25 1045,10 1075,40 1045,70 1045,55 993,55" fill="rgb(255,255,255)" fill-opacity="1.0" stroke="rgb(0,0,0)" stroke-width="2"  />
			<g>
				<title>VIT (PF08487)
"Vault protein inter-alpha-trypsin domain"</title>
				<rect class="PF08487" x="996" y="28" stroke-linejoin="round" width="11" height="24" fill="rgb(144,188,50)" stroke="rgb(115,150,40)" stroke-width="1" opacity="0.75" />
			</g>
			<g>
				<title>VWA (PF00092)
"von Willebrand factor type A domain"</title>
				<rect class="PF00092" x="1023" y="28" stroke-linejoin="round" width="16" height="24" fill="rgb(97,196,137)" stroke="rgb(77,156,109)" stroke-width="1" opacity="0.75" />
			</g>
		</g>
		<g>
			<title>
hypothetical protein</title>
			<polygon class="
hypothetical protein" points="1098,25 1116,25 1116,10 1146,40 1116,70 1116,55 1098,55" fill="rgb(255,255,255)" fill-opacity="1.0" stroke="rgb(0,0,0)" stroke-width="2"  />
			<g>
				<title>WS_DGAT_cat (PF03007)
"Wax ester synthase/diacylglycerol acyltransferase catalytic domain"</title>
				<rect class="PF03007" x="1100" y="28" stroke-linejoin="round" width="27" height="24" fill="rgb(63,186,190)" stroke="rgb(50,148,152)" stroke-width="1" opacity="0.75" />
			</g>
			<g>
				<title>WS_DGAT_C (PF06974)
"WS/DGAT C-terminal domain"</title>
				<polygon class="PF06974" points="1131,29 1142,40 1131,51" stroke-linejoin="round" width="14" height="24" fill="rgb(195,96,218)" stroke="rgb(155,76,174)" stroke-width="1" opacity="0.75" />
			</g>
		</g>
		<g>
			<title>dtpN
hypothetical protein</title>
			<polygon class="dtpN
hypothetical protein" points="1148,10 1175,40 1148,70" fill="rgb(255,255,255)" fill-opacity="1.0" stroke="rgb(0,0,0)" stroke-width="2"  />
			<g>
				<title>adh_short_C2 (PF13561)
"Enoyl-(Acyl carrier protein) reductase"</title>
				<polygon class="PF13561" points="1149,28 1159,28 1171,40 1159,52 1149,52" stroke-linejoin="round" width="23" height="24" fill="rgb(79,221,209)" stroke="rgb(63,176,167)" stroke-width="1" opacity="0.75" />
			</g>
		</g>
		<g>
			<title>
hypothetical protein</title>
			<polygon class="
hypothetical protein" points="1177,25 1200,25 1200,10 1230,40 1200,70 1200,55 1177,55" fill="rgb(255,255,255)" fill-opacity="1.0" stroke="rgb(0,0,0)" stroke-width="2"  />
			<g>
				<title>Acyl_transf_1 (PF00698)
"Acyl transferase domain"</title>
				<rect class="PF00698" x="1177" y="28" stroke-linejoin="round" width="30" height="24" fill="rgb(132,93,193)" stroke="rgb(105,74,154)" stroke-width="1" opacity="0.75" />
			</g>
			<g>
				<title>PP-binding (PF00550)
"Phosphopantetheine attachment site"</title>
				<polygon class="PF00550" points="1222,37 1225,40 1222,43" stroke-linejoin="round" width="6" height="24" fill="rgb(181,58,166)" stroke="rgb(144,46,132)" stroke-width="1" opacity="0.75" />
			</g>
		</g>
		<g>
			<title>dtpP
hypothetical protein</title>
			<polygon class="dtpP
hypothetical protein" points="1361,25 1259,25 1259,10 1229,40 1259,70 1259,55 1361,55" fill="rgb(255,255,255)" fill-opacity="1.0" stroke="rgb(0,0,0)" stroke-width="2"  />
		</g>
	</g>
</svg>
