<svg version="1.1" baseProfile="full" xmlns="http://www.w3.org/2000/svg" width="672.6666666666666" height="160">
	<g>
		<line x1="10" y1="40.0" x2="662.6666666666666" y2="40.0" style="stroke:rgb(70,70,70); stroke-width:3 "/>
		<g>
			<title>chaW
hypothetical protein</title>
			<polygon class="chaW
hypothetical protein" points="55,25 42,25 42,10 12,40 42,70 42,55 55,55" fill="rgb(255,255,255)" fill-opacity="1.0" stroke="rgb(0,0,0)" stroke-width="2"  />
		</g>
		<g>
			<title>chaM
ChaM protein</title>
			<polygon class="chaM
ChaM protein" points="58,40 83,10 83,70" fill="rgb(255,255,255)" fill-opacity="1.0" stroke="rgb(0,0,0)" stroke-width="2"  />
			<g>
				<title>Methyltransf_23 (PF13489)
"Methyltransferase domain"</title>
				<polygon class="PF13489" points="65,37 72,28 81,28 81,52 72,52 65,43" stroke-linejoin="round" width="16" height="24" fill="rgb(62,214,70)" stroke="rgb(49,171,56)" stroke-width="1" opacity="0.75" />
			</g>
		</g>
		<g>
			<title>chaGT2
ChaGT2 protein</title>
			<polygon class="chaGT2
ChaGT2 protein" points="121,25 114,25 114,10 84,40 114,70 114,55 121,55" fill="rgb(255,255,255)" fill-opacity="1.0" stroke="rgb(0,0,0)" stroke-width="2"  />
			<g>
				<title>Glycos_transf_2 (PF00535)
"Glycosyl transferase family 2"</title>
				<polygon class="PF00535" points="97,31 100,28 113,28 113,52 100,52 97,49" stroke-linejoin="round" width="16" height="24" fill="rgb(197,62,212)" stroke="rgb(157,49,169)" stroke-width="1" opacity="0.75" />
			</g>
		</g>
		<g>
			<title>chaG
ChaG protein</title>
			<polygon class="chaG
ChaG protein" points="123,40 146,10 146,70" fill="rgb(255,255,255)" fill-opacity="1.0" stroke="rgb(0,0,0)" stroke-width="2"  />
			<g>
				<title>Cyclase (PF04199)
"Putative cyclase"</title>
				<polygon class="PF04199" points="130,36 136,28 145,28 145,52 136,52 130,44" stroke-linejoin="round" width="15" height="24" fill="rgb(145,90,187)" stroke="rgb(115,72,149)" stroke-width="1" opacity="0.75" />
			</g>
		</g>
		<g>
			<title>chaF
ChaF protein</title>
			<polygon class="chaF
ChaF protein" points="180,25 178,25 178,10 148,40 178,70 178,55 180,55" fill="rgb(255,255,255)" fill-opacity="1.0" stroke="rgb(0,0,0)" stroke-width="2"  />
			<g>
				<title>Polyketide_cyc2 (PF10604)
"Polyketide cyclase / dehydrase and lipid transport"</title>
				<polygon class="PF10604" points="152,40 164,28 164,28 164,52 164,52" stroke-linejoin="round" width="15" height="24" fill="rgb(170,214,69)" stroke="rgb(136,171,55)" stroke-width="1" opacity="0.75" />
			</g>
			<g>
				<title>Polyketide_cyc2 (PF10604)
"Polyketide cyclase / dehydrase and lipid transport"</title>
				<rect class="PF10604" x="165" y="28" stroke-linejoin="round" width="14" height="24" fill="rgb(170,214,69)" stroke="rgb(136,171,55)" stroke-width="1" opacity="0.75" />
			</g>
		</g>
		<g>
			<title>chaD
ChaD protein</title>
			<polygon class="chaD
ChaD protein" points="181,40 207,10 207,70" fill="rgb(255,255,255)" fill-opacity="1.0" stroke="rgb(0,0,0)" stroke-width="2"  />
			<g>
				<title>adh_short (PF00106)
"short chain dehydrogenase"</title>
				<polygon class="PF00106" points="186,39 195,28 205,28 205,52 195,52 186,41" stroke-linejoin="round" width="19" height="24" fill="rgb(128,81,196)" stroke="rgb(102,64,156)" stroke-width="1" opacity="0.75" />
			</g>
		</g>
		<g>
			<title>chaN
hypothetical protein</title>
			<polygon class="chaN
hypothetical protein" points="214,10 228,40 214,70" fill="rgb(255,255,255)" fill-opacity="1.0" stroke="rgb(0,0,0)" stroke-width="2"  />
			<g>
				<title>SnoaL_4 (PF13577)
"SnoaL-like domain"</title>
				<polygon class="PF13577" points="215,28 219,28 225,40 219,52 215,52" stroke-linejoin="round" width="12" height="24" fill="rgb(58,198,190)" stroke="rgb(46,158,152)" stroke-width="1" opacity="0.75" />
			</g>
		</g>
		<g>
			<title>chaS3
ChaS3 protein</title>
			<polygon class="chaS3
ChaS3 protein" points="231,10 244,40 231,70" fill="rgb(255,255,255)" fill-opacity="1.0" stroke="rgb(0,0,0)" stroke-width="2"  />
			<g>
				<title>GtrA (PF04138)
"GtrA-like protein"</title>
				<polygon class="PF04138" points="231,28 235,28 241,40 235,52 231,52" stroke-linejoin="round" width="11" height="24" fill="rgb(52,94,204)" stroke="rgb(41,75,163)" stroke-width="1" opacity="0.75" />
			</g>
		</g>
		<g>
			<title>chaR1
ChaR1 protein</title>
			<polygon class="chaR1
ChaR1 protein" points="247,40 268,10 268,70" fill="rgb(255,255,255)" fill-opacity="1.0" stroke="rgb(0,0,0)" stroke-width="2"  />
			<g>
				<title>BTAD (PF03704)
"Bacterial transcriptional activator domain"</title>
				<polygon class="PF03704" points="251,40 260,28 262,28 262,52 260,52" stroke-linejoin="round" width="14" height="24" fill="rgb(174,224,58)" stroke="rgb(139,179,46)" stroke-width="1" opacity="0.75" />
			</g>
		</g>
		<g>
			<title>chaA
ChaA protein</title>
			<polygon class="chaA
ChaA protein" points="285,25 297,25 297,10 327,40 297,70 297,55 285,55" fill="rgb(255,255,255)" fill-opacity="1.0" stroke="rgb(0,0,0)" stroke-width="2"  />
			<g>
				<title>ketoacyl-synt (PF00109)
"Beta-ketoacyl synthase, N-terminal domain"</title>
				<rect class="PF00109" x="285" y="28" stroke-linejoin="round" width="24" height="24" fill="rgb(74,179,82)" stroke="rgb(59,143,65)" stroke-width="1" opacity="0.75" />
			</g>
			<g>
				<title>Ketoacyl-synt_C (PF02801)
"Beta-ketoacyl synthase, C-terminal domain"</title>
				<polygon class="PF02801" points="311,28 311,28 322,39 322,41 311,52 311,52" stroke-linejoin="round" width="11" height="24" fill="rgb(212,79,72)" stroke="rgb(169,63,57)" stroke-width="1" opacity="0.75" />
			</g>
		</g>
		<g>
			<title>chaB
ChaB protein</title>
			<polygon class="chaB
ChaB protein" points="328,25 338,25 338,10 368,40 338,70 338,55 328,55" fill="rgb(255,255,255)" fill-opacity="1.0" stroke="rgb(0,0,0)" stroke-width="2"  />
			<g>
				<title>ketoacyl-synt (PF00109)
"Beta-ketoacyl synthase, N-terminal domain"</title>
				<rect class="PF00109" x="328" y="28" stroke-linejoin="round" width="24" height="24" fill="rgb(74,179,82)" stroke="rgb(59,143,65)" stroke-width="1" opacity="0.75" />
			</g>
			<g>
				<title>Ketoacyl-synt_C (PF02801)
"Beta-ketoacyl synthase, C-terminal domain"</title>
				<polygon class="PF02801" points="353,29 364,40 364,40 353,51" stroke-linejoin="round" width="11" height="24" fill="rgb(212,79,72)" stroke="rgb(169,63,57)" stroke-width="1" opacity="0.75" />
			</g>
		</g>
		<g>
			<title>chaC
ChaC protein</title>
			<polygon class="chaC
ChaC protein" points="371,10 379,40 371,70" fill="rgb(255,255,255)" fill-opacity="1.0" stroke="rgb(0,0,0)" stroke-width="2"  />
			<g>
				<title>PP-binding (PF00550)
"Phosphopantetheine attachment site"</title>
				<polygon class="PF00550" points="371,28 372,28 376,40 372,52 371,52" stroke-linejoin="round" width="7" height="24" fill="rgb(181,58,166)" stroke="rgb(144,46,132)" stroke-width="1" opacity="0.75" />
			</g>
		</g>
		<g>
			<title>chaGT1
ChaGT1 protein</title>
			<polygon class="chaGT1
ChaGT1 protein" points="382,25 390,25 390,10 420,40 390,70 390,55 382,55" fill="rgb(255,255,255)" fill-opacity="1.0" stroke="rgb(0,0,0)" stroke-width="2"  />
			<g>
				<title>EryCIII-like_N (PF21036)
"Erythromycin biosynthesis protein CIII-like, N-terminal domain"</title>
				<rect class="PF21036" x="384" y="28" stroke-linejoin="round" width="19" height="24" fill="rgb(205,88,112)" stroke="rgb(164,70,89)" stroke-width="1" opacity="0.75" />
			</g>
			<g>
				<title>EryCIII-like_C (PF06722)
"Erythromycin biosynthesis protein CIII-like, C-terminal domain"</title>
				<polygon class="PF06722" points="405,29 416,40 405,51" stroke-linejoin="round" width="14" height="24" fill="rgb(48,103,191)" stroke="rgb(38,82,152)" stroke-width="1" opacity="0.75" />
			</g>
		</g>
		<g>
			<title>chaS1
ChaS1 protein</title>
			<polygon class="chaS1
ChaS1 protein" points="427,25 432,25 432,10 462,40 432,70 432,55 427,55" fill="rgb(255,255,255)" fill-opacity="1.0" stroke="rgb(0,0,0)" stroke-width="2"  />
			<g>
				<title>NTP_transferase (PF00483)
"Nucleotidyl transferase"</title>
				<polygon class="PF00483" points="427,28 446,28 450,32 450,48 446,52 427,52" stroke-linejoin="round" width="23" height="24" fill="rgb(211,145,90)" stroke="rgb(168,116,72)" stroke-width="1" opacity="0.75" />
			</g>
		</g>
		<g>
			<title>chaS4
ChaS4 protein</title>
			<polygon class="chaS4
ChaS4 protein" points="462,25 463,25 463,10 493,40 463,70 463,55 462,55" fill="rgb(255,255,255)" fill-opacity="1.0" stroke="rgb(0,0,0)" stroke-width="2"  />
			<g>
				<title>Epimerase (PF01370)
"NAD dependent epimerase/dehydratase family"</title>
				<polygon class="PF01370" points="463,28 476,28 484,36 484,44 476,52 463,52" stroke-linejoin="round" width="21" height="24" fill="rgb(215,89,157)" stroke="rgb(172,71,125)" stroke-width="1" opacity="0.75" />
			</g>
		</g>
		<g>
			<title>chaH
ChaH protein</title>
			<polygon class="chaH
ChaH protein" points="502,10 512,40 502,70" fill="rgb(255,255,255)" fill-opacity="1.0" stroke="rgb(0,0,0)" stroke-width="2"  />
			<g>
				<title>ABM (PF03992)
"Antibiotic biosynthesis monooxygenase"</title>
				<polygon class="PF03992" points="502,28 504,28 509,39 509,41 504,52 502,52" stroke-linejoin="round" width="7" height="24" fill="rgb(211,55,142)" stroke="rgb(168,44,113)" stroke-width="1" opacity="0.75" />
			</g>
		</g>
		<g>
			<title>chaS2
ChaS2 protein</title>
			<polygon class="chaS2
ChaS2 protein" points="512,25 515,25 515,10 545,40 515,70 515,55 512,55" fill="rgb(255,255,255)" fill-opacity="1.0" stroke="rgb(0,0,0)" stroke-width="2"  />
			<g>
				<title>GDP_Man_Dehyd (PF16363)
"GDP-mannose 4,6 dehydratase"</title>
				<polygon class="PF16363" points="512,28 529,28 541,40 541,40 529,52 512,52" stroke-linejoin="round" width="29" height="24" fill="rgb(50,144,195)" stroke="rgb(40,115,156)" stroke-width="1" opacity="0.75" />
			</g>
		</g>
		<g>
			<title>chaR2
ChaR2 protein</title>
			<polygon class="chaR2
ChaR2 protein" points="552,25 565,25 565,10 595,40 565,70 565,55 552,55" fill="rgb(255,255,255)" fill-opacity="1.0" stroke="rgb(0,0,0)" stroke-width="2"  />
		</g>
		<g>
			<title>chaP
ChaP protein</title>
			<polygon class="chaP
ChaP protein" points="599,40 612,10 612,70" fill="rgb(255,255,255)" fill-opacity="1.0" stroke="rgb(0,0,0)" stroke-width="2"  />
			<g>
				<title>Glyoxalase (PF00903)
"Glyoxalase/Bleomycin resistance protein/Dioxygenase superfamily"</title>
				<polygon class="PF00903" points="602,40 607,28 611,28 611,52 607,52" stroke-linejoin="round" width="11" height="24" fill="rgb(139,76,222)" stroke="rgb(111,60,177)" stroke-width="1" opacity="0.75" />
			</g>
		</g>
		<g>
			<title>chaU
ChaU protein</title>
			<polygon class="chaU
ChaU protein" points="613,40 626,10 626,70" fill="rgb(255,255,255)" fill-opacity="1.0" stroke="rgb(0,0,0)" stroke-width="2"  />
			<g>
				<title>SnoaL (PF07366)
"SnoaL-like polyketide cyclase"</title>
				<polygon class="PF07366" points="616,40 622,28 626,28 626,52 622,52" stroke-linejoin="round" width="11" height="24" fill="rgb(102,157,212)" stroke="rgb(81,125,169)" stroke-width="1" opacity="0.75" />
			</g>
		</g>
		<g>
			<title>chaX
ChaX protein</title>
			<polygon class="chaX
ChaX protein" points="632,10 658,40 632,70" fill="rgb(255,255,255)" fill-opacity="1.0" stroke="rgb(0,0,0)" stroke-width="2"  />
		</g>
	</g>
	<g>
		<line x1="10" y1="120.0" x2="594.6666666666666" y2="120.0" style="stroke:rgb(70,70,70); stroke-width:3 "/>
		<g>
			<title>chaK
ChaK protein</title>
			<polygon class="chaK
ChaK protein" points="37,120 51,90 51,150" fill="rgb(255,255,255)" fill-opacity="1.0" stroke="rgb(0,0,0)" stroke-width="2"  />
		</g>
		<g>
			<title>chaL
ChaL protein</title>
			<polygon class="chaL
ChaL protein" points="53,120 77,90 77,150" fill="rgb(255,255,255)" fill-opacity="1.0" stroke="rgb(0,0,0)" stroke-width="2"  />
		</g>
		<g>
			<title>chaZ
ChaZ protein</title>
			<polygon class="chaZ
ChaZ protein" points="83,90 109,120 83,150" fill="rgb(255,255,255)" fill-opacity="1.0" stroke="rgb(0,0,0)" stroke-width="2"  />
		</g>
		<g>
			<title>chaI
ChaI protein</title>
			<polygon class="chaI
ChaI protein" points="156,120 184,90 184,150" fill="rgb(255,255,255)" fill-opacity="1.0" stroke="rgb(0,0,0)" stroke-width="2"  />
		</g>
		<g>
			<title>chaJ
ChaJ protein</title>
			<polygon class="chaJ
ChaJ protein" points="192,90 205,120 192,150" fill="rgb(255,255,255)" fill-opacity="1.0" stroke="rgb(0,0,0)" stroke-width="2"  />
		</g>
		<g>
			<title>chaT1
ChaT1 protein</title>
			<polygon class="chaT1
ChaT1 protein" points="217,105 241,105 241,90 271,120 241,150 241,135 217,135" fill="rgb(255,255,255)" fill-opacity="1.0" stroke="rgb(0,0,0)" stroke-width="2"  />
		</g>
		<g>
			<title>chaO
ChaO protein</title>
			<polygon class="chaO
ChaO protein" points="278,105 286,105 286,90 316,120 286,150 286,135 278,135" fill="rgb(255,255,255)" fill-opacity="1.0" stroke="rgb(0,0,0)" stroke-width="2"  />
		</g>
		<g>
			<title>chaQ
hypothetical protein</title>
			<polygon class="chaQ
hypothetical protein" points="323,90 347,120 323,150" fill="rgb(255,255,255)" fill-opacity="1.0" stroke="rgb(0,0,0)" stroke-width="2"  />
		</g>
		<g>
			<title>chaT2
ChaT2 protein</title>
			<polygon class="chaT2
ChaT2 protein" points="352,105 352,105 352,90 382,120 352,150 352,135 352,135" fill="rgb(255,255,255)" fill-opacity="1.0" stroke="rgb(0,0,0)" stroke-width="2"  />
		</g>
		<g>
			<title>chaT3
ChaT3 protein</title>
			<polygon class="chaT3
ChaT3 protein" points="385,90 412,120 385,150" fill="rgb(255,255,255)" fill-opacity="1.0" stroke="rgb(0,0,0)" stroke-width="2"  />
		</g>
		<g>
			<title>chaT4
ChaT4 protein</title>
			<polygon class="chaT4
ChaT4 protein" points="412,90 441,120 412,150" fill="rgb(255,255,255)" fill-opacity="1.0" stroke="rgb(0,0,0)" stroke-width="2"  />
		</g>
		<g>
			<title>chaT5
ChaT5 protein</title>
			<polygon class="chaT5
ChaT5 protein" points="442,105 480,105 480,90 510,120 480,150 480,135 442,135" fill="rgb(255,255,255)" fill-opacity="1.0" stroke="rgb(0,0,0)" stroke-width="2"  />
		</g>
		<g>
			<title>chaR3
ChaR3 protein</title>
			<polygon class="chaR3
ChaR3 protein" points="549,105 544,105 544,90 514,120 544,150 544,135 549,135" fill="rgb(255,255,255)" fill-opacity="1.0" stroke="rgb(0,0,0)" stroke-width="2"  />
		</g>
	</g>
</svg>
