<svg version="1.1" baseProfile="full" xmlns="http://www.w3.org/2000/svg" width="2826.3" height="80">
	<g>
		<line x1="10" y1="40.0" x2="2816.3" y2="40.0" style="stroke:rgb(70,70,70); stroke-width:3 "/>
		<g>
			<title> (eco2001)
hypothetical protein</title>
			<polygon class=" (eco2001)
hypothetical protein" points="36,10 52,40 36,70" fill="rgb(255,255,255)" fill-opacity="1.0" stroke="rgb(0,0,0)" stroke-width="2"  />
		</g>
		<g>
			<title> (eco2002)
hypothetical protein</title>
			<polygon class=" (eco2002)
hypothetical protein" points="55,10 79,40 55,70" fill="rgb(255,255,255)" fill-opacity="1.0" stroke="rgb(0,0,0)" stroke-width="2"  />
		</g>
		<g>
			<title> (eco2003)
hypothetical protein</title>
			<polygon class=" (eco2003)
hypothetical protein" points="174,25 115,25 115,10 85,40 115,70 115,55 174,55" fill="rgb(255,255,255)" fill-opacity="1.0" stroke="rgb(0,0,0)" stroke-width="2"  />
		</g>
		<g>
			<title> (eco2004)
hypothetical protein</title>
			<polygon class=" (eco2004)
hypothetical protein" points="176,40 192,10 192,70" fill="rgb(255,255,255)" fill-opacity="1.0" stroke="rgb(0,0,0)" stroke-width="2"  />
		</g>
		<g>
			<title> (eco2005)
hypothetical protein</title>
			<polygon class=" (eco2005)
hypothetical protein" points="206,10 235,40 206,70" fill="rgb(255,255,255)" fill-opacity="1.0" stroke="rgb(0,0,0)" stroke-width="2"  />
			<g>
				<title>DUF6216 (PF19723)
"Family of unknown function (DUF6216)"</title>
				<polygon class="PF19723" points="207,28 219,28 231,40 219,52 207,52" stroke-linejoin="round" width="26" height="24" fill="rgb(211,77,70)" stroke="rgb(168,61,56)" stroke-width="1" opacity="0.75" />
			</g>
		</g>
		<g>
			<title> (eco2006)
hypothetical protein</title>
			<polygon class=" (eco2006)
hypothetical protein" points="239,40 247,10 247,70" fill="rgb(255,255,255)" fill-opacity="1.0" stroke="rgb(0,0,0)" stroke-width="2"  />
		</g>
		<g>
			<title> (eco2007)
putative DNA-binding protein</title>
			<polygon class=" (eco2007)
putative DNA-binding protein" points="277,10 301,40 277,70" fill="rgb(255,255,255)" fill-opacity="1.0" stroke="rgb(0,0,0)" stroke-width="2"  />
			<g>
				<title>RepL (PF05732)
"Firmicute plasmid replication protein (RepL)"</title>
				<polygon class="PF05732" points="278,28 288,28 295,37 295,43 288,52 278,52" stroke-linejoin="round" width="17" height="24" fill="rgb(225,91,217)" stroke="rgb(180,72,173)" stroke-width="1" opacity="0.75" />
			</g>
		</g>
		<g>
			<title> (eco2008)
hypothetical protein</title>
			<polygon class=" (eco2008)
hypothetical protein" points="302,10 328,40 302,70" fill="rgb(255,255,255)" fill-opacity="1.0" stroke="rgb(0,0,0)" stroke-width="2"  />
		</g>
		<g>
			<title> (eco2009)
hypothetical protein</title>
			<polygon class=" (eco2009)
hypothetical protein" points="338,10 354,40 338,70" fill="rgb(255,255,255)" fill-opacity="1.0" stroke="rgb(0,0,0)" stroke-width="2"  />
			<g>
				<title>DUF4756 (PF15948)
"Domain of unknown function (DUF4756)"</title>
				<polygon class="PF15948" points="338,28 344,28 350,40 344,52 338,52" stroke-linejoin="round" width="15" height="24" fill="rgb(198,128,62)" stroke="rgb(158,102,49)" stroke-width="1" opacity="0.75" />
			</g>
		</g>
		<g>
			<title>c2411 (eco2010)
DNA-binding protein H-NS</title>
			<polygon class="c2411 (eco2010)
DNA-binding protein H-NS" points="359,10 372,40 359,70" fill="rgb(255,255,255)" fill-opacity="1.0" stroke="rgb(0,0,0)" stroke-width="2"  />
			<g>
				<title>Histone_HNS (PF00816)
"H-NS histone family"</title>
				<polygon class="PF00816" points="362,28 363,28 369,40 363,52 362,52" stroke-linejoin="round" width="9" height="24" fill="rgb(64,84,187)" stroke="rgb(51,67,149)" stroke-width="1" opacity="0.75" />
			</g>
		</g>
		<g>
			<title> (eco2011)
hypothetical protein</title>
			<polygon class=" (eco2011)
hypothetical protein" points="375,40 387,10 387,70" fill="rgb(255,255,255)" fill-opacity="1.0" stroke="rgb(0,0,0)" stroke-width="2"  />
			<g>
				<title>DUF6404 (PF19942)
"Family of unknown function (DUF6404)"</title>
				<polygon class="PF19942" points="378,40 383,28 386,28 386,52 383,52" stroke-linejoin="round" width="11" height="24" fill="rgb(112,83,191)" stroke="rgb(89,66,152)" stroke-width="1" opacity="0.75" />
			</g>
		</g>
		<g>
			<title> (eco2012)
hypothetical protein</title>
			<polygon class=" (eco2012)
hypothetical protein" points="390,40 398,10 398,70" fill="rgb(255,255,255)" fill-opacity="1.0" stroke="rgb(0,0,0)" stroke-width="2"  />
		</g>
		<g>
			<title> (eco2013)
hypothetical protein</title>
			<polygon class=" (eco2013)
hypothetical protein" points="402,40 410,10 410,70" fill="rgb(255,255,255)" fill-opacity="1.0" stroke="rgb(0,0,0)" stroke-width="2"  />
		</g>
		<g>
			<title> (eco2014)
hypothetical protein</title>
			<polygon class=" (eco2014)
hypothetical protein" points="412,40 422,10 422,70" fill="rgb(255,255,255)" fill-opacity="1.0" stroke="rgb(0,0,0)" stroke-width="2"  />
		</g>
		<g>
			<title>ECs3513 (eco2015)
ECs3513 protein</title>
			<polygon class="ECs3513 (eco2015)
ECs3513 protein" points="424,40 431,10 431,70" fill="rgb(255,255,255)" fill-opacity="1.0" stroke="rgb(0,0,0)" stroke-width="2"  />
			<g>
				<title>Phage_AlpA (PF05930)
"Prophage CP4-57 regulatory protein (AlpA)"</title>
				<polygon class="PF05930" points="427,40 430,28 430,28 430,52 430,52" stroke-linejoin="round" width="5" height="24" fill="rgb(90,183,185)" stroke="rgb(72,146,148)" stroke-width="1" opacity="0.75" />
			</g>
		</g>
		<g>
			<title> (eco2016)
hypothetical protein</title>
			<polygon class=" (eco2016)
hypothetical protein" points="439,40 468,10 468,70" fill="rgb(255,255,255)" fill-opacity="1.0" stroke="rgb(0,0,0)" stroke-width="2"  />
			<g>
				<title>DUF6387 (PF19924)
"Family of unknown function (DUF6387)"</title>
				<polygon class="PF19924" points="443,40 455,28 466,28 466,52 455,52" stroke-linejoin="round" width="25" height="24" fill="rgb(102,188,86)" stroke="rgb(81,150,68)" stroke-width="1" opacity="0.75" />
			</g>
		</g>
		<g>
			<title>yeeI (eco2017)
putative YeeI protein</title>
			<polygon class="yeeI (eco2017)
putative YeeI protein" points="482,10 508,40 482,70" fill="rgb(255,255,255)" fill-opacity="1.0" stroke="rgb(0,0,0)" stroke-width="2"  />
			<g>
				<title>Peptidase_M90 (PF06167)
"Glucose-regulated metallo-peptidase M90"</title>
				<polygon class="PF06167" points="482,28 493,28 504,40 493,52 482,52" stroke-linejoin="round" width="24" height="24" fill="rgb(221,165,102)" stroke="rgb(176,132,81)" stroke-width="1" opacity="0.75" />
			</g>
		</g>
		<g>
			<title>int (eco2018)
putative prophage P4 integrase</title>
			<polygon class="int (eco2018)
putative prophage P4 integrase" points="520,25 532,25 532,10 562,40 532,70 532,55 520,55" fill="rgb(255,255,255)" fill-opacity="1.0" stroke="rgb(0,0,0)" stroke-width="2"  />
			<g>
				<title>Arm-DNA-bind_3 (PF13356)
"Arm DNA-binding domain"</title>
				<rect class="PF13356" x="520" y="28" stroke-linejoin="round" width="8" height="24" fill="rgb(182,73,213)" stroke="rgb(145,58,170)" stroke-width="1" opacity="0.75" />
			</g>
			<g>
				<title>Phage_int_SAM_3 (PF14659)
"Phage integrase, N-terminal SAM-like domain"</title>
				<rect class="PF14659" x="529" y="28" stroke-linejoin="round" width="5" height="24" fill="rgb(229,112,147)" stroke="rgb(183,89,117)" stroke-width="1" opacity="0.75" />
			</g>
			<g>
				<title>Phage_integrase (PF00589)
"Phage integrase family"</title>
				<polygon class="PF00589" points="540,28 545,28 557,40 545,52 540,52" stroke-linejoin="round" width="18" height="24" fill="rgb(66,206,122)" stroke="rgb(52,164,97)" stroke-width="1" opacity="0.75" />
			</g>
		</g>
		<g>
			<title>ybtS (eco2019)
putative anthranilate synthase</title>
			<polygon class="ybtS (eco2019)
putative anthranilate synthase" points="611,25 598,25 598,10 568,40 598,70 598,55 611,55" fill="rgb(255,255,255)" fill-opacity="1.0" stroke="rgb(0,0,0)" stroke-width="2"  />
			<g>
				<title>Chorismate_bind (PF00425)
"chorismate binding enzyme"</title>
				<polygon class="PF00425" points="572,40 584,28 594,28 594,52 584,52" stroke-linejoin="round" width="25" height="24" fill="rgb(126,181,77)" stroke="rgb(100,144,61)" stroke-width="1" opacity="0.75" />
			</g>
		</g>
		<g>
			<title>ybtX (eco2020)
putative cytoplasmic transmembrane protein</title>
			<polygon class="ybtX (eco2020)
putative cytoplasmic transmembrane protein" points="655,25 643,25 643,10 613,40 643,70 643,55 655,55" fill="rgb(255,255,255)" fill-opacity="1.0" stroke="rgb(0,0,0)" stroke-width="2"  />
			<g>
				<title>MFS_1 (PF07690)
"Major Facilitator Superfamily"</title>
				<polygon class="PF07690" points="618,39 629,28 653,28 653,52 629,52 618,41" stroke-linejoin="round" width="35" height="24" fill="rgb(228,207,98)" stroke="rgb(182,165,78)" stroke-width="1" opacity="0.75" />
			</g>
		</g>
		<g>
			<title>ybtQ (eco2021)
putative ABC transporter protein</title>
			<polygon class="ybtQ (eco2021)
putative ABC transporter protein" points="715,25 685,25 685,10 655,40 685,70 685,55 715,55" fill="rgb(255,255,255)" fill-opacity="1.0" stroke="rgb(0,0,0)" stroke-width="2"  />
			<g>
				<title>ABC_tran (PF00005)
"ABC transporter"</title>
				<polygon class="PF00005" points="664,35 671,28 678,28 678,52 671,52 664,45" stroke-linejoin="round" width="14" height="24" fill="rgb(46,186,108)" stroke="rgb(36,148,86)" stroke-width="1" opacity="0.75" />
			</g>
			<g>
				<title>ABC_membrane (PF00664)
"ABC transporter transmembrane region"</title>
				<rect class="PF00664" x="685" y="28" stroke-linejoin="round" width="27" height="24" fill="rgb(62,71,183)" stroke="rgb(49,56,146)" stroke-width="1" opacity="0.75" />
			</g>
		</g>
		<g>
			<title>ybtP (eco2022)
putative inner membrane ABC-transporter</title>
			<polygon class="ybtP (eco2022)
putative inner membrane ABC-transporter" points="775,25 745,25 745,10 715,40 745,70 745,55 775,55" fill="rgb(255,255,255)" fill-opacity="1.0" stroke="rgb(0,0,0)" stroke-width="2"  />
			<g>
				<title>ABC_tran (PF00005)
"ABC transporter"</title>
				<polygon class="PF00005" points="724,35 731,28 738,28 738,52 731,52 724,45" stroke-linejoin="round" width="14" height="24" fill="rgb(46,186,108)" stroke="rgb(36,148,86)" stroke-width="1" opacity="0.75" />
			</g>
			<g>
				<title>ABC_membrane (PF00664)
"ABC transporter transmembrane region"</title>
				<rect class="PF00664" x="745" y="28" stroke-linejoin="round" width="27" height="24" fill="rgb(62,71,183)" stroke="rgb(49,56,146)" stroke-width="1" opacity="0.75" />
			</g>
		</g>
		<g>
			<title>ybtA (eco2023)
putative AraC type regulator</title>
			<polygon class="ybtA (eco2023)
putative AraC type regulator" points="781,25 783,25 783,10 813,40 783,70 783,55 781,55" fill="rgb(255,255,255)" fill-opacity="1.0" stroke="rgb(0,0,0)" stroke-width="2"  />
			<g>
				<title>HTH_18 (PF12833)
"Helix-turn-helix domain"</title>
				<polygon class="PF12833" points="804,36 808,40 804,44" stroke-linejoin="round" width="7" height="24" fill="rgb(96,195,114)" stroke="rgb(76,156,91)" stroke-width="1" opacity="0.75" />
			</g>
		</g>
		<g>
			<title>irp2_HMWP2 (eco2024)
putative peptide synthase</title>
			<polygon class="irp2_HMWP2 (eco2024)
putative peptide synthase" points="819,25 992,25 992,10 1022,40 992,70 992,55 819,55" fill="rgb(255,255,255)" fill-opacity="1.0" stroke="rgb(0,0,0)" stroke-width="2"  />
			<g>
				<title>PP-binding (PF00550)
"Phosphopantetheine attachment site"</title>
				<rect class="PF00550" x="821" y="28" stroke-linejoin="round" width="6" height="24" fill="rgb(181,58,166)" stroke="rgb(144,46,132)" stroke-width="1" opacity="0.75" />
			</g>
			<g>
				<title>Condensation (PF00668)
"Condensation domain"</title>
				<rect class="PF00668" x="830" y="28" stroke-linejoin="round" width="43" height="24" fill="rgb(172,217,60)" stroke="rgb(137,173,47)" stroke-width="1" opacity="0.75" />
			</g>
			<g>
				<title>AMP-binding (PF00501)
"AMP-binding enzyme"</title>
				<rect class="PF00501" x="876" y="28" stroke-linejoin="round" width="34" height="24" fill="rgb(189,78,204)" stroke="rgb(151,62,163)" stroke-width="1" opacity="0.75" />
			</g>
			<g>
				<title>Methyltransf_12 (PF08242)
"Methyltransferase domain"</title>
				<rect class="PF08242" x="937" y="28" stroke-linejoin="round" width="9" height="24" fill="rgb(78,210,205)" stroke="rgb(62,168,164)" stroke-width="1" opacity="0.75" />
			</g>
			<g>
				<title>PP-binding (PF00550)
"Phosphopantetheine attachment site"</title>
				<rect class="PF00550" x="960" y="28" stroke-linejoin="round" width="6" height="24" fill="rgb(181,58,166)" stroke="rgb(144,46,132)" stroke-width="1" opacity="0.75" />
			</g>
			<g>
				<title>Condensation (PF00668)
"Condensation domain"</title>
				<polygon class="PF00668" points="970,28 1006,28 1010,32 1010,48 1006,52 970,52" stroke-linejoin="round" width="40" height="24" fill="rgb(172,217,60)" stroke="rgb(137,173,47)" stroke-width="1" opacity="0.75" />
			</g>
			<g>
				<title>PP-binding (PF00550)
"Phosphopantetheine attachment site"</title>
				<polygon class="PF00550" points="1014,36 1018,40 1014,44" stroke-linejoin="round" width="6" height="24" fill="rgb(181,58,166)" stroke="rgb(144,46,132)" stroke-width="1" opacity="0.75" />
			</g>
		</g>
		<g>
			<title>irp1_HMWP1 (eco2025)
putative peptide/polyketide synthetase</title>
			<polygon class="irp1_HMWP1 (eco2025)
putative peptide/polyketide synthetase" points="1025,25 1311,25 1311,10 1341,40 1311,70 1311,55 1025,55" fill="rgb(255,255,255)" fill-opacity="1.0" stroke="rgb(0,0,0)" stroke-width="2"  />
			<g>
				<title>ketoacyl-synt (PF00109)
"Beta-ketoacyl synthase, N-terminal domain"</title>
				<rect class="PF00109" x="1027" y="28" stroke-linejoin="round" width="25" height="24" fill="rgb(74,179,82)" stroke="rgb(59,143,65)" stroke-width="1" opacity="0.75" />
			</g>
			<g>
				<title>Ketoacyl-synt_C (PF02801)
"Beta-ketoacyl synthase, C-terminal domain"</title>
				<rect class="PF02801" x="1053" y="28" stroke-linejoin="round" width="11" height="24" fill="rgb(212,79,72)" stroke="rgb(169,63,57)" stroke-width="1" opacity="0.75" />
			</g>
			<g>
				<title>KAsynt_C_assoc (PF16197)
"Ketoacyl-synthetase C-terminal extension"</title>
				<rect class="PF16197" x="1065" y="28" stroke-linejoin="round" width="11" height="24" fill="rgb(200,86,70)" stroke="rgb(160,68,56)" stroke-width="1" opacity="0.75" />
			</g>
			<g>
				<title>Acyl_transf_1 (PF00698)
"Acyl transferase domain"</title>
				<rect class="PF00698" x="1080" y="28" stroke-linejoin="round" width="31" height="24" fill="rgb(132,93,193)" stroke="rgb(105,74,154)" stroke-width="1" opacity="0.75" />
			</g>
			<g>
				<title>Methyltransf_12 (PF08242)
"Methyltransferase domain"</title>
				<rect class="PF08242" x="1134" y="28" stroke-linejoin="round" width="10" height="24" fill="rgb(78,210,205)" stroke="rgb(62,168,164)" stroke-width="1" opacity="0.75" />
			</g>
			<g>
				<title>KR (PF08659)
"KR domain"</title>
				<rect class="PF08659" x="1180" y="28" stroke-linejoin="round" width="17" height="24" fill="rgb(203,145,81)" stroke="rgb(162,116,64)" stroke-width="1" opacity="0.75" />
			</g>
			<g>
				<title>PP-binding (PF00550)
"Phosphopantetheine attachment site"</title>
				<rect class="PF00550" x="1207" y="28" stroke-linejoin="round" width="6" height="24" fill="rgb(181,58,166)" stroke="rgb(144,46,132)" stroke-width="1" opacity="0.75" />
			</g>
			<g>
				<title>Condensation (PF00668)
"Condensation domain"</title>
				<rect class="PF00668" x="1216" y="28" stroke-linejoin="round" width="43" height="24" fill="rgb(172,217,60)" stroke="rgb(137,173,47)" stroke-width="1" opacity="0.75" />
			</g>
			<g>
				<title>Methyltransf_12 (PF08242)
"Methyltransferase domain"</title>
				<rect class="PF08242" x="1284" y="28" stroke-linejoin="round" width="10" height="24" fill="rgb(78,210,205)" stroke="rgb(62,168,164)" stroke-width="1" opacity="0.75" />
			</g>
			<g>
				<title>PP-binding (PF00550)
"Phosphopantetheine attachment site"</title>
				<rect class="PF00550" x="1308" y="28" stroke-linejoin="round" width="6" height="24" fill="rgb(181,58,166)" stroke="rgb(144,46,132)" stroke-width="1" opacity="0.75" />
			</g>
			<g>
				<title>Thioesterase (PF00975)
"Thioesterase domain"</title>
				<polygon class="PF00975" points="1316,28 1325,28 1337,40 1325,52 1316,52" stroke-linejoin="round" width="23" height="24" fill="rgb(69,76,223)" stroke="rgb(55,60,178)" stroke-width="1" opacity="0.75" />
			</g>
		</g>
		<g>
			<title> (eco2026)
hypothetical protein</title>
			<polygon class=" (eco2026)
hypothetical protein" points="1342,25 1348,25 1348,10 1378,40 1348,70 1348,55 1342,55" fill="rgb(255,255,255)" fill-opacity="1.0" stroke="rgb(0,0,0)" stroke-width="2"  />
			<g>
				<title>GFO_IDH_MocA (PF01408)
"Oxidoreductase family, NAD-binding Rossmann fold"</title>
				<rect class="PF01408" x="1342" y="28" stroke-linejoin="round" width="11" height="24" fill="rgb(53,193,178)" stroke="rgb(42,154,142)" stroke-width="1" opacity="0.75" />
			</g>
			<g>
				<title>Irp3-like_C (PF21390)
"Thiazolinyl imine reductase Irp3-like, C-terminal"</title>
				<polygon class="PF21390" points="1357,28 1362,28 1366,32 1366,48 1362,52 1357,52" stroke-linejoin="round" width="9" height="24" fill="rgb(225,168,102)" stroke="rgb(180,134,81)" stroke-width="1" opacity="0.75" />
			</g>
		</g>
		<g>
			<title>ybtT (eco2027)
putative thioesterase</title>
			<polygon class="ybtT (eco2027)
putative thioesterase" points="1379,10 1405,40 1379,70" fill="rgb(255,255,255)" fill-opacity="1.0" stroke="rgb(0,0,0)" stroke-width="2"  />
			<g>
				<title>Thioesterase (PF00975)
"Thioesterase domain"</title>
				<polygon class="PF00975" points="1380,28 1391,28 1401,40 1391,52 1380,52" stroke-linejoin="round" width="23" height="24" fill="rgb(69,76,223)" stroke="rgb(55,60,178)" stroke-width="1" opacity="0.75" />
			</g>
		</g>
		<g>
			<title>ybtE (eco2028)
2,3-dihydroxybenzoate-AMP ligase</title>
			<polygon class="ybtE (eco2028)
2,3-dihydroxybenzoate-AMP ligase" points="1405,25 1427,25 1427,10 1457,40 1427,70 1427,55 1405,55" fill="rgb(255,255,255)" fill-opacity="1.0" stroke="rgb(0,0,0)" stroke-width="2"  />
			<g>
				<title>AMP-binding (PF00501)
"AMP-binding enzyme"</title>
				<polygon class="PF00501" points="1407,28 1441,28 1443,30 1443,50 1441,52 1407,52" stroke-linejoin="round" width="36" height="24" fill="rgb(189,78,204)" stroke="rgb(151,62,163)" stroke-width="1" opacity="0.75" />
			</g>
			<g>
				<title>AMP-binding_C (PF13193)
"AMP-binding enzyme C-terminal domain"</title>
				<polygon class="PF13193" points="1448,35 1453,40 1448,45" stroke-linejoin="round" width="7" height="24" fill="rgb(195,82,106)" stroke="rgb(156,65,84)" stroke-width="1" opacity="0.75" />
			</g>
		</g>
		<g>
			<title>psn (eco2029)
putative pesticin receptor</title>
			<polygon class="psn (eco2029)
putative pesticin receptor" points="1462,25 1499,25 1499,10 1529,40 1499,70 1499,55 1462,55" fill="rgb(255,255,255)" fill-opacity="1.0" stroke="rgb(0,0,0)" stroke-width="2"  />
			<g>
				<title>Plug (PF07715)
"TonB-dependent Receptor Plug Domain"</title>
				<rect class="PF07715" x="1466" y="28" stroke-linejoin="round" width="10" height="24" fill="rgb(66,186,52)" stroke="rgb(52,148,41)" stroke-width="1" opacity="0.75" />
			</g>
			<g>
				<title>TonB_dep_Rec (PF00593)
"TonB dependent receptor"</title>
				<polygon class="PF00593" points="1476,28 1513,28 1524,39 1524,41 1513,52 1476,52" stroke-linejoin="round" width="48" height="24" fill="rgb(67,93,202)" stroke="rgb(53,74,161)" stroke-width="1" opacity="0.75" />
			</g>
		</g>
		<g>
			<title> (eco2030)
hypothetical protein</title>
			<polygon class=" (eco2030)
hypothetical protein" points="1549,10 1575,40 1549,70" fill="rgb(255,255,255)" fill-opacity="1.0" stroke="rgb(0,0,0)" stroke-width="2"  />
			<g>
				<title>IAT_beta (PF11924)
"Inverse autotransporter, beta-domain"</title>
				<polygon class="PF11924" points="1567,35 1571,40 1567,45" stroke-linejoin="round" width="6" height="24" fill="rgb(60,60,196)" stroke="rgb(47,47,156)" stroke-width="1" opacity="0.75" />
			</g>
		</g>
		<g>
			<title> (eco2031)
hypothetical protein</title>
			<polygon class=" (eco2031)
hypothetical protein" points="1581,25 1616,25 1616,10 1646,40 1616,70 1616,55 1581,55" fill="rgb(255,255,255)" fill-opacity="1.0" stroke="rgb(0,0,0)" stroke-width="2"  />
			<g>
				<title>Big_1 (PF02369)
"Bacterial Ig-like domain (group 1)"</title>
				<rect class="PF02369" x="1588" y="28" stroke-linejoin="round" width="6" height="24" fill="rgb(156,73,198)" stroke="rgb(124,58,158)" stroke-width="1" opacity="0.75" />
			</g>
			<g>
				<title>Big_1 (PF02369)
"Bacterial Ig-like domain (group 1)"</title>
				<rect class="PF02369" x="1598" y="28" stroke-linejoin="round" width="6" height="24" fill="rgb(156,73,198)" stroke="rgb(124,58,158)" stroke-width="1" opacity="0.75" />
			</g>
			<g>
				<title>Big_1 (PF02369)
"Bacterial Ig-like domain (group 1)"</title>
				<rect class="PF02369" x="1607" y="28" stroke-linejoin="round" width="6" height="24" fill="rgb(156,73,198)" stroke="rgb(124,58,158)" stroke-width="1" opacity="0.75" />
			</g>
			<g>
				<title>Big_1 (PF02369)
"Bacterial Ig-like domain (group 1)"</title>
				<rect class="PF02369" x="1617" y="28" stroke-linejoin="round" width="6" height="24" fill="rgb(156,73,198)" stroke="rgb(124,58,158)" stroke-width="1" opacity="0.75" />
			</g>
			<g>
				<title>Invasin_D3 (PF09134)
"Invasin, domain 3"</title>
				<polygon class="PF09134" points="1626,28 1630,28 1636,34 1636,46 1630,52 1626,52" stroke-linejoin="round" width="10" height="24" fill="rgb(122,183,57)" stroke="rgb(97,146,45)" stroke-width="1" opacity="0.75" />
			</g>
			<g>
				<title>Invasin_D4 (PF21764)
"Invasin, domain 4"</title>
				<polygon class="PF21764" points="1637,35 1642,40 1637,45" stroke-linejoin="round" width="8" height="24" fill="rgb(188,180,62)" stroke="rgb(150,144,49)" stroke-width="1" opacity="0.75" />
			</g>
		</g>
		<g>
			<title> (eco2032)
hypothetical protein</title>
			<polygon class=" (eco2032)
hypothetical protein" points="1685,25 1680,25 1680,10 1650,40 1680,70 1680,55 1685,55" fill="rgb(255,255,255)" fill-opacity="1.0" stroke="rgb(0,0,0)" stroke-width="2"  />
			<g>
				<title>Glyco_transf_9 (PF01075)
"Glycosyltransferase family 9 (heptosyltransferase)"</title>
				<polygon class="PF01075" points="1654,40 1666,28 1667,28 1667,52 1666,52" stroke-linejoin="round" width="16" height="24" fill="rgb(188,85,172)" stroke="rgb(150,67,137)" stroke-width="1" opacity="0.75" />
			</g>
		</g>
		<g>
			<title>shiA (eco2033)
putative transport protein, shikimate</title>
			<polygon class="shiA (eco2033)
putative transport protein, shikimate" points="1696,25 1709,25 1709,10 1739,40 1709,70 1709,55 1696,55" fill="rgb(255,255,255)" fill-opacity="1.0" stroke="rgb(0,0,0)" stroke-width="2"  />
			<g>
				<title>Sugar_tr (PF00083)
"Sugar (and other) transporter"</title>
				<rect class="PF00083" x="1698" y="28" stroke-linejoin="round" width="22" height="24" fill="rgb(186,204,56)" stroke="rgb(148,163,44)" stroke-width="1" opacity="0.75" />
			</g>
			<g>
				<title>MFS_1 (PF07690)
"Major Facilitator Superfamily"</title>
				<polygon class="PF07690" points="1724,29 1735,40 1724,51" stroke-linejoin="round" width="14" height="24" fill="rgb(228,207,98)" stroke="rgb(182,165,78)" stroke-width="1" opacity="0.75" />
			</g>
		</g>
		<g>
			<title>amn (eco2034)
putative AMP nucleosidase</title>
			<polygon class="amn (eco2034)
putative AMP nucleosidase" points="1743,25 1761,25 1761,10 1791,40 1761,70 1761,55 1743,55" fill="rgb(255,255,255)" fill-opacity="1.0" stroke="rgb(0,0,0)" stroke-width="2"  />
			<g>
				<title>AMNp_N (PF10423)
"Bacterial AMP nucleoside phosphorylase N-terminus"</title>
				<rect class="PF10423" x="1744" y="28" stroke-linejoin="round" width="15" height="24" fill="rgb(184,69,135)" stroke="rgb(147,55,108)" stroke-width="1" opacity="0.75" />
			</g>
			<g>
				<title>PNP_UDP_1 (PF01048)
"Phosphorylase superfamily"</title>
				<polygon class="PF01048" points="1767,28 1775,28 1787,40 1787,40 1775,52 1767,52" stroke-linejoin="round" width="20" height="24" fill="rgb(81,138,182)" stroke="rgb(64,110,145)" stroke-width="1" opacity="0.75" />
			</g>
		</g>
		<g>
			<title> (eco2035)
hypothetical protein</title>
			<polygon class=" (eco2035)
hypothetical protein" points="1803,10 1826,40 1803,70" fill="rgb(255,255,255)" fill-opacity="1.0" stroke="rgb(0,0,0)" stroke-width="2"  />
			<g>
				<title>TACO1_YebC_N (PF20772)
"TACO1/YebC protein N-terminal domain"</title>
				<rect class="PF20772" x="1803" y="28" stroke-linejoin="round" width="7" height="24" fill="rgb(140,56,215)" stroke="rgb(112,44,172)" stroke-width="1" opacity="0.75" />
			</g>
			<g>
				<title>Transcrip_reg (PF01709)
"TACO1/YebC second and third domain"</title>
				<polygon class="PF01709" points="1810,28 1813,28 1823,40 1813,52 1810,52" stroke-linejoin="round" width="15" height="24" fill="rgb(185,79,83)" stroke="rgb(148,63,66)" stroke-width="1" opacity="0.75" />
			</g>
		</g>
		<g>
			<title> (eco2036)
hypothetical protein</title>
			<polygon class=" (eco2036)
hypothetical protein" points="1902,25 1878,25 1878,10 1848,40 1878,70 1878,55 1902,55" fill="rgb(255,255,255)" fill-opacity="1.0" stroke="rgb(0,0,0)" stroke-width="2"  />
			<g>
				<title>MatE (PF01554)
"MatE"</title>
				<polygon class="PF01554" points="1853,39 1864,28 1869,28 1869,52 1864,52 1853,41" stroke-linejoin="round" width="16" height="24" fill="rgb(223,98,132)" stroke="rgb(178,78,105)" stroke-width="1" opacity="0.75" />
			</g>
			<g>
				<title>MatE (PF01554)
"MatE"</title>
				<rect class="PF01554" x="1876" y="28" stroke-linejoin="round" width="16" height="24" fill="rgb(223,98,132)" stroke="rgb(178,78,105)" stroke-width="1" opacity="0.75" />
			</g>
		</g>
		<g>
			<title>cbl (eco2037)
putative transcriptional regulator</title>
			<polygon class="cbl (eco2037)
putative transcriptional regulator" points="1937,25 1936,25 1936,10 1906,40 1936,70 1936,55 1937,55" fill="rgb(255,255,255)" fill-opacity="1.0" stroke="rgb(0,0,0)" stroke-width="2"  />
			<g>
				<title>LysR_substrate (PF03466)
"LysR substrate binding domain"</title>
				<polygon class="PF03466" points="1910,40 1922,28 1928,28 1928,52 1922,52" stroke-linejoin="round" width="20" height="24" fill="rgb(214,62,213)" stroke="rgb(171,49,170)" stroke-width="1" opacity="0.75" />
			</g>
			<g>
				<title>HTH_1 (PF00126)
"Bacterial regulatory helix-turn-helix protein, lysR family"</title>
				<rect class="PF00126" x="1931" y="28" stroke-linejoin="round" width="6" height="24" fill="rgb(72,163,212)" stroke="rgb(57,130,169)" stroke-width="1" opacity="0.75" />
			</g>
		</g>
		<g>
			<title>nac (eco2038)
putative nitrogen assimilation regulatory protein</title>
			<polygon class="nac (eco2038)
putative nitrogen assimilation regulatory protein" points="1972,25 1972,25 1972,10 1942,40 1972,70 1972,55 1972,55" fill="rgb(255,255,255)" fill-opacity="1.0" stroke="rgb(0,0,0)" stroke-width="2"  />
			<g>
				<title>LysR_substrate (PF03466)
"LysR substrate binding domain"</title>
				<polygon class="PF03466" points="1946,40 1958,28 1963,28 1963,52 1958,52" stroke-linejoin="round" width="20" height="24" fill="rgb(214,62,213)" stroke="rgb(171,49,170)" stroke-width="1" opacity="0.75" />
			</g>
			<g>
				<title>HTH_1 (PF00126)
"Bacterial regulatory helix-turn-helix protein, lysR family"</title>
				<rect class="PF00126" x="1966" y="28" stroke-linejoin="round" width="5" height="24" fill="rgb(72,163,212)" stroke="rgb(57,130,169)" stroke-width="1" opacity="0.75" />
			</g>
		</g>
		<g>
			<title>erfK (eco2039)
putative exported protein ErfK</title>
			<polygon class="erfK (eco2039)
putative exported protein ErfK" points="2018,25 2017,25 2017,10 1987,40 2017,70 2017,55 2018,55" fill="rgb(255,255,255)" fill-opacity="1.0" stroke="rgb(0,0,0)" stroke-width="2"  />
			<g>
				<title>Ldt_C (PF17969)
"L,D-transpeptidase C-terminal domain"</title>
				<polygon class="PF17969" points="1991,40 1993,38 1993,42" stroke-linejoin="round" width="6" height="24" fill="rgb(193,85,97)" stroke="rgb(154,68,77)" stroke-width="1" opacity="0.75" />
			</g>
			<g>
				<title>YkuD (PF03734)
"L,D-transpeptidase catalytic domain"</title>
				<polygon class="PF03734" points="1995,36 2003,28 2008,28 2008,52 2003,52 1995,44" stroke-linejoin="round" width="13" height="24" fill="rgb(184,73,48)" stroke="rgb(147,58,38)" stroke-width="1" opacity="0.75" />
			</g>
		</g>
		<g>
			<title>cobT (eco2040)
putative dimethylbenzimidazol phosphoribosyltransferase</title>
			<polygon class="cobT (eco2040)
putative dimethylbenzimidazol phosphoribosyltransferase" points="2056,25 2051,25 2051,10 2021,40 2051,70 2051,55 2056,55" fill="rgb(255,255,255)" fill-opacity="1.0" stroke="rgb(0,0,0)" stroke-width="2"  />
			<g>
				<title>DBI_PRT (PF02277)
"Phosphoribosyltransferase"</title>
				<polygon class="PF02277" points="2025,40 2037,28 2055,28 2055,52 2037,52" stroke-linejoin="round" width="33" height="24" fill="rgb(86,141,210)" stroke="rgb(68,112,168)" stroke-width="1" opacity="0.75" />
			</g>
		</g>
		<g>
			<title>cobS (eco2041)
putative cobalamin synthase</title>
			<polygon class="cobS (eco2041)
putative cobalamin synthase" points="2057,40 2081,10 2081,70" fill="rgb(255,255,255)" fill-opacity="1.0" stroke="rgb(0,0,0)" stroke-width="2"  />
			<g>
				<title>CobS (PF02654)
"Cobalamin-5-phosphate synthase"</title>
				<polygon class="PF02654" points="2061,40 2071,28 2080,28 2080,52 2071,52" stroke-linejoin="round" width="23" height="24" fill="rgb(216,189,92)" stroke="rgb(172,151,73)" stroke-width="1" opacity="0.75" />
			</g>
		</g>
		<g>
			<title>cobU (eco2042)
putative cobinamide kinase/cobinamide phosphate guanylyltransferase</title>
			<polygon class="cobU (eco2042)
putative cobinamide kinase/cobinamide phosphate guanylyltransferase" points="2081,40 2099,10 2099,70" fill="rgb(255,255,255)" fill-opacity="1.0" stroke="rgb(0,0,0)" stroke-width="2"  />
			<g>
				<title>CobU (PF02283)
"Cobinamide kinase / cobinamide phosphate guanyltransferase"</title>
				<polygon class="PF02283" points="2085,40 2092,28 2098,28 2098,52 2092,52" stroke-linejoin="round" width="17" height="24" fill="rgb(213,56,196)" stroke="rgb(170,44,156)" stroke-width="1" opacity="0.75" />
			</g>
		</g>
		<g>
			<title>cbiG (eco2043)</title>
			<polygon class="cbiG (eco2043)" points="2104,40 2118,10 2118,70" fill="rgb(255,255,255)" fill-opacity="1.0" stroke="rgb(0,0,0)" stroke-width="2"  />
		</g>
		<g>
			<title>pocR (eco2044)
putative regulatory protein PocR</title>
			<polygon class="pocR (eco2044)
putative regulatory protein PocR" points="2165,25 2165,25 2165,10 2135,40 2165,70 2165,55 2165,55" fill="rgb(255,255,255)" fill-opacity="1.0" stroke="rgb(0,0,0)" stroke-width="2"  />
			<g>
				<title>HTH_18 (PF12833)
"Helix-turn-helix domain"</title>
				<polygon class="PF12833" points="2139,40 2143,36 2143,44" stroke-linejoin="round" width="7" height="24" fill="rgb(96,195,114)" stroke="rgb(76,156,91)" stroke-width="1" opacity="0.75" />
			</g>
			<g>
				<title>PocR (PF10114)
"Sensory domain found in PocR"</title>
				<polygon class="PF10114" points="2148,31 2151,28 2164,28 2164,52 2151,52 2148,49" stroke-linejoin="round" width="16" height="24" fill="rgb(221,76,155)" stroke="rgb(176,60,123)" stroke-width="1" opacity="0.75" />
			</g>
		</g>
		<g>
			<title>pduF (eco2045)
putative propanediol diffusion facilitator</title>
			<polygon class="pduF (eco2045)
putative propanediol diffusion facilitator" points="2172,40 2199,10 2199,70" fill="rgb(255,255,255)" fill-opacity="1.0" stroke="rgb(0,0,0)" stroke-width="2"  />
			<g>
				<title>MIP (PF00230)
"Major intrinsic protein"</title>
				<polygon class="PF00230" points="2176,40 2187,28 2198,28 2198,52 2187,52" stroke-linejoin="round" width="24" height="24" fill="rgb(99,223,164)" stroke="rgb(79,178,131)" stroke-width="1" opacity="0.75" />
			</g>
		</g>
		<g>
			<title>pduA (eco2046)
putative propanediol utilization protein PduA</title>
			<polygon class="pduA (eco2046)
putative propanediol utilization protein PduA" points="2216,10 2225,40 2216,70" fill="rgb(255,255,255)" fill-opacity="1.0" stroke="rgb(0,0,0)" stroke-width="2"  />
			<g>
				<title>BMC (PF00936)
"BMC domain"</title>
				<polygon class="PF00936" points="2216,28 2218,28 2222,40 2218,52 2216,52" stroke-linejoin="round" width="7" height="24" fill="rgb(189,70,101)" stroke="rgb(151,56,80)" stroke-width="1" opacity="0.75" />
			</g>
		</g>
		<g>
			<title>pduB (eco2047)
putative propanediol utilization protein PduB</title>
			<polygon class="pduB (eco2047)
putative propanediol utilization protein PduB" points="2225,10 2252,40 2225,70" fill="rgb(255,255,255)" fill-opacity="1.0" stroke="rgb(0,0,0)" stroke-width="2"  />
			<g>
				<title>BMC (PF00936)
"BMC domain"</title>
				<polygon class="PF00936" points="2233,28 2236,28 2241,33 2241,47 2236,52 2233,52" stroke-linejoin="round" width="8" height="24" fill="rgb(189,70,101)" stroke="rgb(151,56,80)" stroke-width="1" opacity="0.75" />
			</g>
			<g>
				<title>BMC (PF00936)
"BMC domain"</title>
				<polygon class="PF00936" points="2243,35 2248,40 2243,45" stroke-linejoin="round" width="7" height="24" fill="rgb(189,70,101)" stroke="rgb(151,56,80)" stroke-width="1" opacity="0.75" />
			</g>
		</g>
		<g>
			<title>pduC (eco2048)
putative glycerol dehydratase large subunit</title>
			<polygon class="pduC (eco2048)
putative glycerol dehydratase large subunit" points="2253,25 2278,25 2278,10 2308,40 2278,70 2278,55 2253,55" fill="rgb(255,255,255)" fill-opacity="1.0" stroke="rgb(0,0,0)" stroke-width="2"  />
			<g>
				<title>Dehydratase_LU (PF02286)
"Dehydratase large subunit"</title>
				<polygon class="PF02286" points="2253,28 2292,28 2304,40 2292,52 2253,52" stroke-linejoin="round" width="55" height="24" fill="rgb(70,177,208)" stroke="rgb(56,141,166)" stroke-width="1" opacity="0.75" />
			</g>
		</g>
		<g>
			<title>pduD (eco2049)
putative diol dehydratase medium subunit</title>
			<polygon class="pduD (eco2049)
putative diol dehydratase medium subunit" points="2309,10 2331,40 2309,70" fill="rgb(255,255,255)" fill-opacity="1.0" stroke="rgb(0,0,0)" stroke-width="2"  />
			<g>
				<title>Dehydratase_MU (PF02288)
"Dehydratase medium subunit"</title>
				<polygon class="PF02288" points="2315,28 2318,28 2326,38 2326,42 2318,52 2315,52" stroke-linejoin="round" width="11" height="24" fill="rgb(87,120,223)" stroke="rgb(69,95,178)" stroke-width="1" opacity="0.75" />
			</g>
		</g>
		<g>
			<title>pduE (eco2050)
putative diol dehydratase small subunit</title>
			<polygon class="pduE (eco2050)
putative diol dehydratase small subunit" points="2332,10 2349,40 2332,70" fill="rgb(255,255,255)" fill-opacity="1.0" stroke="rgb(0,0,0)" stroke-width="2"  />
			<g>
				<title>Dehydratase_SU (PF02287)
"Dehydratase small subunit"</title>
				<polygon class="PF02287" points="2335,28 2338,28 2345,40 2338,52 2335,52" stroke-linejoin="round" width="13" height="24" fill="rgb(150,85,200)" stroke="rgb(119,67,160)" stroke-width="1" opacity="0.75" />
			</g>
		</g>
		<g>
			<title>pduG (eco2051)
PduG protein</title>
			<polygon class="pduG (eco2051)
PduG protein" points="2349,25 2380,25 2380,10 2410,40 2380,70 2380,55 2349,55" fill="rgb(255,255,255)" fill-opacity="1.0" stroke="rgb(0,0,0)" stroke-width="2"  />
			<g>
				<title>DDR_swiveling (PF18427)
"DD-reactivating factor swiveling domain"</title>
				<rect class="PF18427" x="2358" y="28" stroke-linejoin="round" width="16" height="24" fill="rgb(66,207,132)" stroke="rgb(52,165,105)" stroke-width="1" opacity="0.75" />
			</g>
			<g>
				<title>DDR (PF08841)
"Diol dehydratase reactivase ATPase-like domain"</title>
				<polygon class="PF08841" points="2376,28 2393,28 2405,40 2393,52 2376,52" stroke-linejoin="round" width="32" height="24" fill="rgb(67,210,116)" stroke="rgb(53,168,92)" stroke-width="1" opacity="0.75" />
			</g>
		</g>
		<g>
			<title>pduH (eco2052)
PduH protein</title>
			<polygon class="pduH (eco2052)
PduH protein" points="2410,10 2421,40 2410,70" fill="rgb(255,255,255)" fill-opacity="1.0" stroke="rgb(0,0,0)" stroke-width="2"  />
			<g>
				<title>Dehydratase_MU (PF02288)
"Dehydratase medium subunit"</title>
				<polygon class="PF02288" points="2410,28 2413,28 2418,40 2413,52 2410,52" stroke-linejoin="round" width="10" height="24" fill="rgb(87,120,223)" stroke="rgb(69,95,178)" stroke-width="1" opacity="0.75" />
			</g>
		</g>
		<g>
			<title>pduJ (eco2053)
putative propanediol utilization protein PduJ</title>
			<polygon class="pduJ (eco2053)
putative propanediol utilization protein PduJ" points="2422,10 2431,40 2422,70" fill="rgb(255,255,255)" fill-opacity="1.0" stroke="rgb(0,0,0)" stroke-width="2"  />
			<g>
				<title>BMC (PF00936)
"BMC domain"</title>
				<polygon class="PF00936" points="2422,28 2424,28 2428,40 2424,52 2422,52" stroke-linejoin="round" width="7" height="24" fill="rgb(189,70,101)" stroke="rgb(151,56,80)" stroke-width="1" opacity="0.75" />
			</g>
		</g>
		<g>
			<title>pduK (eco2054)
putative propanediol utilization protein PduK</title>
			<polygon class="pduK (eco2054)
putative propanediol utilization protein PduK" points="2432,10 2446,40 2432,70" fill="rgb(255,255,255)" fill-opacity="1.0" stroke="rgb(0,0,0)" stroke-width="2"  />
			<g>
				<title>BMC (PF00936)
"BMC domain"</title>
				<polygon class="PF00936" points="2432,28 2436,28 2439,32 2439,48 2436,52 2432,52" stroke-linejoin="round" width="7" height="24" fill="rgb(189,70,101)" stroke="rgb(151,56,80)" stroke-width="1" opacity="0.75" />
			</g>
		</g>
		<g>
			<title>pduL (eco2055)
PduL protein</title>
			<polygon class="pduL (eco2055)
PduL protein" points="2447,10 2468,40 2447,70" fill="rgb(255,255,255)" fill-opacity="1.0" stroke="rgb(0,0,0)" stroke-width="2"  />
			<g>
				<title>PTAC (PF06130)
"Phosphate propanoyltransferase"</title>
				<rect class="PF06130" x="2449" y="28" stroke-linejoin="round" width="7" height="24" fill="rgb(208,64,81)" stroke="rgb(166,51,64)" stroke-width="1" opacity="0.75" />
			</g>
			<g>
				<title>PTAC (PF06130)
"Phosphate propanoyltransferase"</title>
				<polygon class="PF06130" points="2460,34 2464,40 2460,46" stroke-linejoin="round" width="6" height="24" fill="rgb(208,64,81)" stroke="rgb(166,51,64)" stroke-width="1" opacity="0.75" />
			</g>
		</g>
		<g>
			<title>pduM (eco2056)
PduM protein</title>
			<polygon class="pduM (eco2056)
PduM protein" points="2468,10 2484,40 2468,70" fill="rgb(255,255,255)" fill-opacity="1.0" stroke="rgb(0,0,0)" stroke-width="2"  />
			<g>
				<title>PDU_like (PF15953)
"Putative propanediol utilisation"</title>
				<polygon class="PF15953" points="2468,28 2474,28 2480,40 2474,52 2468,52" stroke-linejoin="round" width="15" height="24" fill="rgb(218,172,101)" stroke="rgb(174,137,80)" stroke-width="1" opacity="0.75" />
			</g>
		</g>
		<g>
			<title>pduN (eco2057)
putative propanediol utilization protein PduN</title>
			<polygon class="pduN (eco2057)
putative propanediol utilization protein PduN" points="2484,10 2493,40 2484,70" fill="rgb(255,255,255)" fill-opacity="1.0" stroke="rgb(0,0,0)" stroke-width="2"  />
			<g>
				<title>EutN_CcmL (PF03319)
"Ethanolamine utilisation protein EutN/carboxysome"</title>
				<polygon class="PF03319" points="2484,28 2486,28 2490,40 2486,52 2484,52" stroke-linejoin="round" width="8" height="24" fill="rgb(104,180,53)" stroke="rgb(83,144,42)" stroke-width="1" opacity="0.75" />
			</g>
		</g>
		<g>
			<title>pduO (eco2058)
PduO protein</title>
			<polygon class="pduO (eco2058)
PduO protein" points="2494,25 2497,25 2497,10 2527,40 2497,70 2497,55 2494,55" fill="rgb(255,255,255)" fill-opacity="1.0" stroke="rgb(0,0,0)" stroke-width="2"  />
			<g>
				<title>Cob_adeno_trans (PF01923)
"Cobalamin adenosyltransferase"</title>
				<rect class="PF01923" x="2494" y="28" stroke-linejoin="round" width="16" height="24" fill="rgb(174,94,190)" stroke="rgb(139,75,152)" stroke-width="1" opacity="0.75" />
			</g>
			<g>
				<title>HbpS-like (PF03928)
"Haem degrading protein HbpS-like"</title>
				<polygon class="PF03928" points="2514,31 2523,40 2514,49" stroke-linejoin="round" width="12" height="24" fill="rgb(183,126,83)" stroke="rgb(146,100,66)" stroke-width="1" opacity="0.75" />
			</g>
		</g>
		<g>
			<title>pduP (eco2059)
putative CoA-dependent propionaldehyde dehydrogenase</title>
			<polygon class="pduP (eco2059)
putative CoA-dependent propionaldehyde dehydrogenase" points="2527,25 2543,25 2543,10 2573,40 2543,70 2543,55 2527,55" fill="rgb(255,255,255)" fill-opacity="1.0" stroke="rgb(0,0,0)" stroke-width="2"  />
			<g>
				<title>Aldedh (PF00171)
"Aldehyde dehydrogenase family"</title>
				<polygon class="PF00171" points="2529,28 2556,28 2568,40 2556,52 2529,52" stroke-linejoin="round" width="40" height="24" fill="rgb(180,140,83)" stroke="rgb(144,112,66)" stroke-width="1" opacity="0.75" />
			</g>
		</g>
		<g>
			<title>pduQ (eco2060)
putative propanol dehydrogenase</title>
			<polygon class="pduQ (eco2060)
putative propanol dehydrogenase" points="2574,25 2581,25 2581,10 2611,40 2581,70 2581,55 2574,55" fill="rgb(255,255,255)" fill-opacity="1.0" stroke="rgb(0,0,0)" stroke-width="2"  />
			<g>
				<title>Fe-ADH (PF00465)
"Iron-containing alcohol dehydrogenase"</title>
				<polygon class="PF00465" points="2574,28 2594,28 2606,40 2594,52 2574,52" stroke-linejoin="round" width="35" height="24" fill="rgb(55,192,63)" stroke="rgb(44,153,50)" stroke-width="1" opacity="0.75" />
			</g>
		</g>
		<g>
			<title>pduS (eco2061)
putative cobalamine reductase</title>
			<polygon class="pduS (eco2061)
putative cobalamine reductase" points="2611,25 2625,25 2625,10 2655,40 2625,70 2625,55 2611,55" fill="rgb(255,255,255)" fill-opacity="1.0" stroke="rgb(0,0,0)" stroke-width="2"  />
			<g>
				<title>Complex1_51K (PF01512)
"Respiratory-chain NADH dehydrogenase 51 Kd subunit"</title>
				<rect class="PF01512" x="2612" y="28" stroke-linejoin="round" width="14" height="24" fill="rgb(219,87,180)" stroke="rgb(175,69,144)" stroke-width="1" opacity="0.75" />
			</g>
			<g>
				<title>SLBB (PF10531)
"SLBB domain"</title>
				<rect class="PF10531" x="2627" y="28" stroke-linejoin="round" width="4" height="24" fill="rgb(53,192,99)" stroke="rgb(42,153,79)" stroke-width="1" opacity="0.75" />
			</g>
			<g>
				<title>Fer4_17 (PF13534)
"4Fe-4S dicluster domain"</title>
				<polygon class="PF13534" points="2636,28 2639,28 2642,31 2642,49 2639,52 2636,52" stroke-linejoin="round" width="6" height="24" fill="rgb(194,63,67)" stroke="rgb(155,50,53)" stroke-width="1" opacity="0.75" />
			</g>
			<g>
				<title>RnfC_N (PF13375)
"RnfC Barrel sandwich hybrid domain"</title>
				<polygon class="PF13375" points="2648,37 2651,40 2648,43" stroke-linejoin="round" width="7" height="24" fill="rgb(226,141,112)" stroke="rgb(180,112,89)" stroke-width="1" opacity="0.75" />
			</g>
		</g>
		<g>
			<title>pduT (eco2062)
putative propanediol utilization protein PduT</title>
			<polygon class="pduT (eco2062)
putative propanediol utilization protein PduT" points="2655,10 2673,40 2655,70" fill="rgb(255,255,255)" fill-opacity="1.0" stroke="rgb(0,0,0)" stroke-width="2"  />
			<g>
				<title>BMC (PF00936)
"BMC domain"</title>
				<rect class="PF00936" x="2655" y="28" stroke-linejoin="round" width="7" height="24" fill="rgb(189,70,101)" stroke="rgb(151,56,80)" stroke-width="1" opacity="0.75" />
			</g>
			<g>
				<title>BMC (PF00936)
"BMC domain"</title>
				<polygon class="PF00936" points="2664,31 2669,40 2664,49" stroke-linejoin="round" width="7" height="24" fill="rgb(189,70,101)" stroke="rgb(151,56,80)" stroke-width="1" opacity="0.75" />
			</g>
		</g>
		<g>
			<title>pduU (eco2063)
putative propanediol utilization protein PduU</title>
			<polygon class="pduU (eco2063)
putative propanediol utilization protein PduU" points="2674,10 2685,40 2674,70" fill="rgb(255,255,255)" fill-opacity="1.0" stroke="rgb(0,0,0)" stroke-width="2"  />
			<g>
				<title>BMC (PF00936)
"BMC domain"</title>
				<polygon class="PF00936" points="2678,29 2682,40 2678,51" stroke-linejoin="round" width="6" height="24" fill="rgb(189,70,101)" stroke="rgb(151,56,80)" stroke-width="1" opacity="0.75" />
			</g>
		</g>
		<g>
			<title>pduV (eco2064)
putative propanediol utilization protein PduV</title>
			<polygon class="pduV (eco2064)
putative propanediol utilization protein PduV" points="2686,10 2700,40 2686,70" fill="rgb(255,255,255)" fill-opacity="1.0" stroke="rgb(0,0,0)" stroke-width="2"  />
			<g>
				<title>PduV-EutP (PF10662)
"Ethanolamine utilisation - propanediol utilisation"</title>
				<polygon class="PF10662" points="2686,28 2691,28 2697,40 2691,52 2686,52" stroke-linejoin="round" width="14" height="24" fill="rgb(172,82,199)" stroke="rgb(137,65,159)" stroke-width="1" opacity="0.75" />
			</g>
		</g>
		<g>
			<title> (eco2065)
hypothetical protein</title>
			<polygon class=" (eco2065)
hypothetical protein" points="2704,40 2717,10 2717,70" fill="rgb(255,255,255)" fill-opacity="1.0" stroke="rgb(0,0,0)" stroke-width="2"  />
			<g>
				<title>DUF496 (PF04363)
"Protein of unknown function (DUF496)"</title>
				<polygon class="PF04363" points="2707,40 2712,28 2714,28 2714,52 2712,52" stroke-linejoin="round" width="9" height="24" fill="rgb(50,80,190)" stroke="rgb(39,64,152)" stroke-width="1" opacity="0.75" />
			</g>
		</g>
		<g>
			<title> (eco2066)
hypothetical protein</title>
			<polygon class=" (eco2066)
hypothetical protein" points="2756,25 2751,25 2751,10 2721,40 2751,70 2751,55 2756,55" fill="rgb(255,255,255)" fill-opacity="1.0" stroke="rgb(0,0,0)" stroke-width="2"  />
			<g>
				<title>FUSC (PF04632)
"Fusaric acid resistance protein family"</title>
				<polygon class="PF04632" points="2725,40 2737,28 2753,28 2753,52 2737,52" stroke-linejoin="round" width="32" height="24" fill="rgb(58,191,86)" stroke="rgb(46,152,68)" stroke-width="1" opacity="0.75" />
			</g>
		</g>
		<g>
			<title>sbmC (eco2067)
putative DNA gyrase inhibitory protein</title>
			<polygon class="sbmC (eco2067)
putative DNA gyrase inhibitory protein" points="2762,40 2777,10 2777,70" fill="rgb(255,255,255)" fill-opacity="1.0" stroke="rgb(0,0,0)" stroke-width="2"  />
			<g>
				<title>GyrI-like (PF06445)
"GyrI-like small molecule binding domain"</title>
				<polygon class="PF06445" points="2765,40 2771,28 2777,28 2777,52 2771,52" stroke-linejoin="round" width="15" height="24" fill="rgb(86,114,203)" stroke="rgb(68,91,162)" stroke-width="1" opacity="0.75" />
			</g>
		</g>
		<g>
			<title>ECs2812 (eco2068)
putative penicillin binding protein 6b</title>
			<polygon class="ECs2812 (eco2068)
putative penicillin binding protein 6b" points="2815,25 2812,25 2812,10 2782,40 2812,70 2812,55 2815,55" fill="rgb(255,255,255)" fill-opacity="1.0" stroke="rgb(0,0,0)" stroke-width="2"  />
			<g>
				<title>PBP5_C (PF07943)
"Penicillin-binding protein 5, C-terminal domain"</title>
				<polygon class="PF07943" points="2786,40 2792,34 2792,46" stroke-linejoin="round" width="9" height="24" fill="rgb(82,117,193)" stroke="rgb(65,93,154)" stroke-width="1" opacity="0.75" />
			</g>
			<g>
				<title>Peptidase_S11 (PF00768)
"D-alanyl-D-alanine carboxypeptidase"</title>
				<polygon class="PF00768" points="2794,32 2798,28 2813,28 2813,52 2798,52 2794,48" stroke-linejoin="round" width="19" height="24" fill="rgb(58,207,160)" stroke="rgb(46,165,128)" stroke-width="1" opacity="0.75" />
			</g>
		</g>
	</g>
</svg>
