<svg version="1.1" baseProfile="full" xmlns="http://www.w3.org/2000/svg" width="1085.5" height="80">
	<g>
		<line x1="10" y1="40.0" x2="1075.5" y2="40.0" style="stroke:rgb(70,70,70); stroke-width:3 "/>
		<g>
			<title> (arx1)
NAD-dependent epimerase/dehydratase</title>
			<polygon class=" (arx1)
NAD-dependent epimerase/dehydratase" points="45,25 40,25 40,10 10,40 40,70 40,55 45,55" fill="rgb(255,255,255)" fill-opacity="1.0" stroke="rgb(0,0,0)" stroke-width="2"  />
			<g>
				<title>Epimerase (PF01370)
"NAD dependent epimerase/dehydratase family"</title>
				<polygon class="PF01370" points="17,37 26,28 44,28 44,52 26,52 17,43" stroke-linejoin="round" width="27" height="24" fill="rgb(215,89,157)" stroke="rgb(172,71,125)" stroke-width="1" opacity="0.75" />
			</g>
		</g>
		<g>
			<title> (arx2)
hypothetical protein</title>
			<polygon class=" (arx2)
hypothetical protein" points="45,40 69,10 69,70" fill="rgb(255,255,255)" fill-opacity="1.0" stroke="rgb(0,0,0)" stroke-width="2"  />
			<g>
				<title>Methyltransf_12 (PF08242)
"Methyltransferase domain"</title>
				<polygon class="PF08242" points="53,35 59,28 62,28 62,52 59,52 53,45" stroke-linejoin="round" width="9" height="24" fill="rgb(78,210,205)" stroke="rgb(62,168,164)" stroke-width="1" opacity="0.75" />
			</g>
		</g>
		<g>
			<title> (arx3)
glycosyltransferase</title>
			<polygon class=" (arx3)
glycosyltransferase" points="108,25 100,25 100,10 70,40 100,70 100,55 108,55" fill="rgb(255,255,255)" fill-opacity="1.0" stroke="rgb(0,0,0)" stroke-width="2"  />
			<g>
				<title>EryCIII-like_C (PF06722)
"Erythromycin biosynthesis protein CIII-like, C-terminal domain"</title>
				<polygon class="PF06722" points="74,40 84,30 84,50" stroke-linejoin="round" width="14" height="24" fill="rgb(48,103,191)" stroke="rgb(38,82,152)" stroke-width="1" opacity="0.75" />
			</g>
			<g>
				<title>EryCIII-like_N (PF21036)
"Erythromycin biosynthesis protein CIII-like, N-terminal domain"</title>
				<polygon class="PF21036" points="86,28 86,28 106,28 106,52 86,52 86,52" stroke-linejoin="round" width="20" height="24" fill="rgb(205,88,112)" stroke="rgb(164,70,89)" stroke-width="1" opacity="0.75" />
			</g>
		</g>
		<g>
			<title> (arx4)
short-chain dehydrogenase/reductase SDR</title>
			<polygon class=" (arx4)
short-chain dehydrogenase/reductase SDR" points="116,10 138,40 116,70" fill="rgb(255,255,255)" fill-opacity="1.0" stroke="rgb(0,0,0)" stroke-width="2"  />
			<g>
				<title>adh_short (PF00106)
"short chain dehydrogenase"</title>
				<polygon class="PF00106" points="116,28 126,28 134,40 126,52 116,52" stroke-linejoin="round" width="19" height="24" fill="rgb(128,81,196)" stroke="rgb(102,64,156)" stroke-width="1" opacity="0.75" />
			</g>
		</g>
		<g>
			<title> (arx5)
amidotransferase</title>
			<polygon class=" (arx5)
amidotransferase" points="140,25 171,25 171,10 201,40 171,70 171,55 140,55" fill="rgb(255,255,255)" fill-opacity="1.0" stroke="rgb(0,0,0)" stroke-width="2"  />
			<g>
				<title>GATase_7 (PF13537)
"Glutamine amidotransferase domain"</title>
				<rect class="PF13537" x="144" y="28" stroke-linejoin="round" width="12" height="24" fill="rgb(102,71,204)" stroke="rgb(81,56,163)" stroke-width="1" opacity="0.75" />
			</g>
			<g>
				<title>Asn_synthase (PF00733)
"Asparagine synthase"</title>
				<polygon class="PF00733" points="164,28 185,28 197,40 185,52 164,52" stroke-linejoin="round" width="36" height="24" fill="rgb(200,91,135)" stroke="rgb(160,72,108)" stroke-width="1" opacity="0.75" />
			</g>
		</g>
		<g>
			<title> (arx6)
O-methyltransferase</title>
			<polygon class=" (arx6)
O-methyltransferase" points="203,25 208,25 208,10 238,40 208,70 208,55 203,55" fill="rgb(255,255,255)" fill-opacity="1.0" stroke="rgb(0,0,0)" stroke-width="2"  />
			<g>
				<title>Methyltransf_2 (PF00891)
"O-methyltransferase domain"</title>
				<polygon class="PF00891" points="215,28 222,28 234,40 222,52 215,52" stroke-linejoin="round" width="21" height="24" fill="rgb(91,124,224)" stroke="rgb(72,99,179)" stroke-width="1" opacity="0.75" />
			</g>
		</g>
		<g>
			<title> (arx7)
ABC transporter</title>
			<polygon class=" (arx7)
ABC transporter" points="240,40 267,10 267,70" fill="rgb(255,255,255)" fill-opacity="1.0" stroke="rgb(0,0,0)" stroke-width="2"  />
			<g>
				<title>ABC2_membrane (PF01061)
"ABC-2 type transporter"</title>
				<polygon class="PF01061" points="244,40 255,28 265,28 265,52 255,52 244,40" stroke-linejoin="round" width="21" height="24" fill="rgb(91,137,194)" stroke="rgb(72,109,155)" stroke-width="1" opacity="0.75" />
			</g>
		</g>
		<g>
			<title> (arx8)
ABC transporter ATP-binding protein</title>
			<polygon class=" (arx8)
ABC transporter ATP-binding protein" points="299,25 298,25 298,10 268,40 298,70 298,55 299,55" fill="rgb(255,255,255)" fill-opacity="1.0" stroke="rgb(0,0,0)" stroke-width="2"  />
			<g>
				<title>ABC_tran (PF00005)
"ABC transporter"</title>
				<polygon class="PF00005" points="283,29 284,28 297,28 297,52 284,52 283,51" stroke-linejoin="round" width="14" height="24" fill="rgb(46,186,108)" stroke="rgb(36,148,86)" stroke-width="1" opacity="0.75" />
			</g>
		</g>
		<g>
			<title> (arx9)
glycosyltransferase</title>
			<polygon class=" (arx9)
glycosyltransferase" points="338,25 329,25 329,10 299,40 329,70 329,55 338,55" fill="rgb(255,255,255)" fill-opacity="1.0" stroke="rgb(0,0,0)" stroke-width="2"  />
			<g>
				<title>EryCIII-like_C (PF06722)
"Erythromycin biosynthesis protein CIII-like, C-terminal domain"</title>
				<polygon class="PF06722" points="303,40 313,30 313,50" stroke-linejoin="round" width="14" height="24" fill="rgb(48,103,191)" stroke="rgb(38,82,152)" stroke-width="1" opacity="0.75" />
			</g>
			<g>
				<title>EryCIII-like_N (PF21036)
"Erythromycin biosynthesis protein CIII-like, N-terminal domain"</title>
				<polygon class="PF21036" points="315,28 315,28 335,28 335,52 315,52 315,52" stroke-linejoin="round" width="20" height="24" fill="rgb(205,88,112)" stroke="rgb(164,70,89)" stroke-width="1" opacity="0.75" />
			</g>
		</g>
		<g>
			<title> (arx10)
FAD-binding monooxygenase</title>
			<polygon class=" (arx10)
FAD-binding monooxygenase" points="391,25 369,25 369,10 339,40 369,70 369,55 391,55" fill="rgb(255,255,255)" fill-opacity="1.0" stroke="rgb(0,0,0)" stroke-width="2"  />
			<g>
				<title>Rng_hyd_C (PF21274)
"Aromatic-ring hydroxylase, C-terminal"</title>
				<polygon class="PF21274" points="343,40 350,33 350,47" stroke-linejoin="round" width="11" height="24" fill="rgb(153,227,106)" stroke="rgb(122,181,84)" stroke-width="1" opacity="0.75" />
			</g>
			<g>
				<title>FAD_binding_3 (PF01494)
"FAD binding domain"</title>
				<rect class="PF01494" x="356" y="28" stroke-linejoin="round" width="35" height="24" fill="rgb(215,66,156)" stroke="rgb(172,52,124)" stroke-width="1" opacity="0.75" />
			</g>
		</g>
		<g>
			<title> (arx11)
hypothetical protein</title>
			<polygon class=" (arx11)
hypothetical protein" points="418,40 445,10 445,70" fill="rgb(255,255,255)" fill-opacity="1.0" stroke="rgb(0,0,0)" stroke-width="2"  />
		</g>
		<g>
			<title> (arx12)
O-methyltransferase</title>
			<polygon class=" (arx12)
O-methyltransferase" points="480,25 476,25 476,10 446,40 476,70 476,55 480,55" fill="rgb(255,255,255)" fill-opacity="1.0" stroke="rgb(0,0,0)" stroke-width="2"  />
			<g>
				<title>Methyltransf_2 (PF00891)
"O-methyltransferase domain"</title>
				<polygon class="PF00891" points="450,40 462,28 468,28 468,52 462,52" stroke-linejoin="round" width="20" height="24" fill="rgb(91,124,224)" stroke="rgb(72,99,179)" stroke-width="1" opacity="0.75" />
			</g>
			<g>
				<title>Dimerisation2 (PF16864)
"Dimerisation domain"</title>
				<rect class="PF16864" x="471" y="28" stroke-linejoin="round" width="7" height="24" fill="rgb(212,101,199)" stroke="rgb(169,80,159)" stroke-width="1" opacity="0.75" />
			</g>
		</g>
		<g>
			<title> (arx13)
dehydrogenase</title>
			<polygon class=" (arx13)
dehydrogenase" points="487,10 516,40 487,70" fill="rgb(255,255,255)" fill-opacity="1.0" stroke="rgb(0,0,0)" stroke-width="2"  />
			<g>
				<title>NAD_binding_2 (PF03446)
"NAD binding domain of 6-phosphogluconate dehydrogenase"</title>
				<polygon class="PF03446" points="487,28 500,28 502,30 502,50 500,52 487,52" stroke-linejoin="round" width="15" height="24" fill="rgb(119,80,223)" stroke="rgb(95,64,178)" stroke-width="1" opacity="0.75" />
			</g>
			<g>
				<title>NAD_binding_11 (PF14833)
"NAD-binding of NADP-dependent 3-hydroxyisobutyrate dehydrogenase"</title>
				<polygon class="PF14833" points="503,31 512,40 503,49" stroke-linejoin="round" width="12" height="24" fill="rgb(71,220,222)" stroke="rgb(56,176,177)" stroke-width="1" opacity="0.75" />
			</g>
		</g>
		<g>
			<title> (arx14)
cyclase</title>
			<polygon class=" (arx14)
cyclase" points="517,10 528,40 517,70" fill="rgb(255,255,255)" fill-opacity="1.0" stroke="rgb(0,0,0)" stroke-width="2"  />
			<g>
				<title>Cyclase_polyket (PF04673)
"Polyketide synthesis cyclase"</title>
				<polygon class="PF04673" points="517,28 520,28 524,40 520,52 517,52" stroke-linejoin="round" width="10" height="24" fill="rgb(97,206,162)" stroke="rgb(77,164,129)" stroke-width="1" opacity="0.75" />
			</g>
		</g>
		<g>
			<title> (arx15)
cyclase</title>
			<polygon class=" (arx15)
cyclase" points="529,10 543,40 529,70" fill="rgb(255,255,255)" fill-opacity="1.0" stroke="rgb(0,0,0)" stroke-width="2"  />
			<g>
				<title>Cupin_2 (PF07883)
"Cupin domain"</title>
				<polygon class="PF07883" points="533,28 534,28 540,40 540,40 534,52 533,52" stroke-linejoin="round" width="7" height="24" fill="rgb(191,63,205)" stroke="rgb(152,50,164)" stroke-width="1" opacity="0.75" />
			</g>
		</g>
		<g>
			<title> (arx16)
beta-ketoacyl synthase alpha</title>
			<polygon class=" (arx16)
beta-ketoacyl synthase alpha" points="543,25 555,25 555,10 585,40 555,70 555,55 543,55" fill="rgb(255,255,255)" fill-opacity="1.0" stroke="rgb(0,0,0)" stroke-width="2"  />
			<g>
				<title>ketoacyl-synt (PF00109)
"Beta-ketoacyl synthase, N-terminal domain"</title>
				<rect class="PF00109" x="543" y="28" stroke-linejoin="round" width="25" height="24" fill="rgb(74,179,82)" stroke="rgb(59,143,65)" stroke-width="1" opacity="0.75" />
			</g>
			<g>
				<title>Ketoacyl-synt_C (PF02801)
"Beta-ketoacyl synthase, C-terminal domain"</title>
				<polygon class="PF02801" points="569,28 569,28 580,39 580,41 569,52 569,52" stroke-linejoin="round" width="11" height="24" fill="rgb(212,79,72)" stroke="rgb(169,63,57)" stroke-width="1" opacity="0.75" />
			</g>
		</g>
		<g>
			<title> (arx17)
beta-ketoacyl synthase beta</title>
			<polygon class=" (arx17)
beta-ketoacyl synthase beta" points="585,25 596,25 596,10 626,40 596,70 596,55 585,55" fill="rgb(255,255,255)" fill-opacity="1.0" stroke="rgb(0,0,0)" stroke-width="2"  />
			<g>
				<title>ketoacyl-synt (PF00109)
"Beta-ketoacyl synthase, N-terminal domain"</title>
				<rect class="PF00109" x="585" y="28" stroke-linejoin="round" width="24" height="24" fill="rgb(74,179,82)" stroke="rgb(59,143,65)" stroke-width="1" opacity="0.75" />
			</g>
			<g>
				<title>Ketoacyl-synt_C (PF02801)
"Beta-ketoacyl synthase, C-terminal domain"</title>
				<polygon class="PF02801" points="610,28 610,28 620,38 620,42 610,52 610,52" stroke-linejoin="round" width="10" height="24" fill="rgb(212,79,72)" stroke="rgb(169,63,57)" stroke-width="1" opacity="0.75" />
			</g>
		</g>
		<g>
			<title> (arx18)
acyl carrier protein</title>
			<polygon class=" (arx18)
acyl carrier protein" points="626,10 634,40 626,70" fill="rgb(255,255,255)" fill-opacity="1.0" stroke="rgb(0,0,0)" stroke-width="2"  />
			<g>
				<title>PP-binding (PF00550)
"Phosphopantetheine attachment site"</title>
				<polygon class="PF00550" points="626,28 627,28 631,40 627,52 626,52" stroke-linejoin="round" width="7" height="24" fill="rgb(181,58,166)" stroke="rgb(144,46,132)" stroke-width="1" opacity="0.75" />
			</g>
		</g>
		<g>
			<title> (arx19)
cyclase</title>
			<polygon class=" (arx19)
cyclase" points="635,10 650,40 635,70" fill="rgb(255,255,255)" fill-opacity="1.0" stroke="rgb(0,0,0)" stroke-width="2"  />
			<g>
				<title>Polyketide_cyc (PF03364)
"Polyketide cyclase / dehydrase and lipid transport"</title>
				<polygon class="PF03364" points="636,28 640,28 647,40 640,52 636,52" stroke-linejoin="round" width="12" height="24" fill="rgb(87,54,192)" stroke="rgb(69,43,153)" stroke-width="1" opacity="0.75" />
			</g>
		</g>
		<g>
			<title> (arx20)
monooxygenase</title>
			<polygon class=" (arx20)
monooxygenase" points="651,10 666,40 651,70" fill="rgb(255,255,255)" fill-opacity="1.0" stroke="rgb(0,0,0)" stroke-width="2"  />
			<g>
				<title>Anthrone_oxy (PF08592)
"Anthrone oxygenase"</title>
				<polygon class="PF08592" points="655,28 656,28 662,40 656,52 655,52" stroke-linejoin="round" width="10" height="24" fill="rgb(94,203,219)" stroke="rgb(75,162,175)" stroke-width="1" opacity="0.75" />
			</g>
		</g>
		<g>
			<title> (arx21)
3-oxoacyl-ACP reductase</title>
			<polygon class=" (arx21)
3-oxoacyl-ACP reductase" points="667,10 692,40 667,70" fill="rgb(255,255,255)" fill-opacity="1.0" stroke="rgb(0,0,0)" stroke-width="2"  />
			<g>
				<title>adh_short_C2 (PF13561)
"Enoyl-(Acyl carrier protein) reductase"</title>
				<polygon class="PF13561" points="668,28 678,28 688,40 678,52 668,52" stroke-linejoin="round" width="23" height="24" fill="rgb(79,221,209)" stroke="rgb(63,176,167)" stroke-width="1" opacity="0.75" />
			</g>
		</g>
		<g>
			<title> (arx22)
monooxygenase</title>
			<polygon class=" (arx22)
monooxygenase" points="692,10 703,40 692,70" fill="rgb(255,255,255)" fill-opacity="1.0" stroke="rgb(0,0,0)" stroke-width="2"  />
			<g>
				<title>ABM (PF03992)
"Antibiotic biosynthesis monooxygenase"</title>
				<polygon class="PF03992" points="692,28 695,28 699,36 699,44 695,52 692,52" stroke-linejoin="round" width="7" height="24" fill="rgb(211,55,142)" stroke="rgb(168,44,113)" stroke-width="1" opacity="0.75" />
			</g>
		</g>
		<g>
			<title> (arx23)
monooxygenase</title>
			<polygon class=" (arx23)
monooxygenase" points="704,10 714,40 704,70" fill="rgb(255,255,255)" fill-opacity="1.0" stroke="rgb(0,0,0)" stroke-width="2"  />
			<g>
				<title>ABM (PF03992)
"Antibiotic biosynthesis monooxygenase"</title>
				<polygon class="PF03992" points="704,28 706,28 711,40 711,40 706,52 704,52" stroke-linejoin="round" width="7" height="24" fill="rgb(211,55,142)" stroke="rgb(168,44,113)" stroke-width="1" opacity="0.75" />
			</g>
		</g>
		<g>
			<title> (arx24)
NDP-4-ketoreductase</title>
			<polygon class=" (arx24)
NDP-4-ketoreductase" points="715,10 741,40 715,70" fill="rgb(255,255,255)" fill-opacity="1.0" stroke="rgb(0,0,0)" stroke-width="2"  />
			<g>
				<title>Epimerase (PF01370)
"NAD dependent epimerase/dehydratase family"</title>
				<polygon class="PF01370" points="715,28 726,28 731,33 731,47 726,52 715,52" stroke-linejoin="round" width="16" height="24" fill="rgb(215,89,157)" stroke="rgb(172,71,125)" stroke-width="1" opacity="0.75" />
			</g>
		</g>
		<g>
			<title> (arx25)
hypothetical protein</title>
			<polygon class=" (arx25)
hypothetical protein" points="743,40 758,10 758,70" fill="rgb(255,255,255)" fill-opacity="1.0" stroke="rgb(0,0,0)" stroke-width="2"  />
			<g>
				<title>Anthrone_oxy (PF08592)
"Anthrone oxygenase"</title>
				<polygon class="PF08592" points="746,40 752,28 753,28 753,52 752,52" stroke-linejoin="round" width="9" height="24" fill="rgb(94,203,219)" stroke="rgb(75,162,175)" stroke-width="1" opacity="0.75" />
			</g>
		</g>
		<g>
			<title> (arx26)
hypothetical protein</title>
			<polygon class=" (arx26)
hypothetical protein" points="759,40 771,10 771,70" fill="rgb(255,255,255)" fill-opacity="1.0" stroke="rgb(0,0,0)" stroke-width="2"  />
			<g>
				<title>SchA_CurD (PF04486)
"SchA/CurD like domain"</title>
				<polygon class="PF04486" points="762,40 767,28 770,28 770,52 767,52" stroke-linejoin="round" width="11" height="24" fill="rgb(162,226,64)" stroke="rgb(129,180,51)" stroke-width="1" opacity="0.75" />
			</g>
		</g>
		<g>
			<title> (arx27)
3-oxoacyl-ACP reductase</title>
			<polygon class=" (arx27)
3-oxoacyl-ACP reductase" points="771,40 795,10 795,70" fill="rgb(255,255,255)" fill-opacity="1.0" stroke="rgb(0,0,0)" stroke-width="2"  />
			<g>
				<title>adh_short_C2 (PF13561)
"Enoyl-(Acyl carrier protein) reductase"</title>
				<polygon class="PF13561" points="775,40 785,28 794,28 794,52 785,52" stroke-linejoin="round" width="23" height="24" fill="rgb(79,221,209)" stroke="rgb(63,176,167)" stroke-width="1" opacity="0.75" />
			</g>
		</g>
		<g>
			<title> (arx28)
putative peptide transporter</title>
			<polygon class=" (arx28)
putative peptide transporter" points="845,25 826,25 826,10 796,40 826,70 826,55 845,55" fill="rgb(255,255,255)" fill-opacity="1.0" stroke="rgb(0,0,0)" stroke-width="2"  />
			<g>
				<title>PTR2 (PF00854)
"POT family"</title>
				<polygon class="PF00854" points="800,40 812,28 836,28 836,52 812,52" stroke-linejoin="round" width="37" height="24" fill="rgb(196,116,74)" stroke="rgb(156,92,59)" stroke-width="1" opacity="0.75" />
			</g>
		</g>
		<g>
			<title> (arx29)
CurD-like protein</title>
			<polygon class=" (arx29)
CurD-like protein" points="846,40 858,10 858,70" fill="rgb(255,255,255)" fill-opacity="1.0" stroke="rgb(0,0,0)" stroke-width="2"  />
			<g>
				<title>SchA_CurD (PF04486)
"SchA/CurD like domain"</title>
				<polygon class="PF04486" points="849,40 854,28 857,28 857,52 854,52" stroke-linejoin="round" width="11" height="24" fill="rgb(162,226,64)" stroke="rgb(129,180,51)" stroke-width="1" opacity="0.75" />
			</g>
		</g>
		<g>
			<title> (arx30)
FAD-binding monooxygenase</title>
			<polygon class=" (arx30)
FAD-binding monooxygenase" points="911,25 889,25 889,10 859,40 889,70 889,55 911,55" fill="rgb(255,255,255)" fill-opacity="1.0" stroke="rgb(0,0,0)" stroke-width="2"  />
			<g>
				<title>Rng_hyd_C (PF21274)
"Aromatic-ring hydroxylase, C-terminal"</title>
				<polygon class="PF21274" points="863,40 870,33 870,47" stroke-linejoin="round" width="11" height="24" fill="rgb(153,227,106)" stroke="rgb(122,181,84)" stroke-width="1" opacity="0.75" />
			</g>
			<g>
				<title>FAD_binding_3 (PF01494)
"FAD binding domain"</title>
				<polygon class="PF01494" points="875,28 875,28 910,28 910,52 875,52 875,52" stroke-linejoin="round" width="35" height="24" fill="rgb(215,66,156)" stroke="rgb(172,52,124)" stroke-width="1" opacity="0.75" />
			</g>
		</g>
		<g>
			<title> (arx31)
LuxR family transcriptional regulator</title>
			<polygon class=" (arx31)
LuxR family transcriptional regulator" points="918,40 940,10 940,70" fill="rgb(255,255,255)" fill-opacity="1.0" stroke="rgb(0,0,0)" stroke-width="2"  />
			<g>
				<title>GerE (PF00196)
"Bacterial regulatory proteins, luxR family"</title>
				<polygon class="PF00196" points="922,40 924,37 924,43" stroke-linejoin="round" width="5" height="24" fill="rgb(225,67,110)" stroke="rgb(180,53,88)" stroke-width="1" opacity="0.75" />
			</g>
			<g>
				<title>Response_reg (PF00072)
"Response regulator receiver domain"</title>
				<polygon class="PF00072" points="929,31 931,28 940,28 940,52 931,52 929,49" stroke-linejoin="round" width="11" height="24" fill="rgb(59,131,198)" stroke="rgb(47,104,158)" stroke-width="1" opacity="0.75" />
			</g>
		</g>
		<g>
			<title> (arx32)
two-component system histidine kinase</title>
			<polygon class=" (arx32)
two-component system histidine kinase" points="980,25 971,25 971,10 941,40 971,70 971,55 980,55" fill="rgb(255,255,255)" fill-opacity="1.0" stroke="rgb(0,0,0)" stroke-width="2"  />
			<g>
				<title>HATPase_c (PF02518)
"Histidine kinase-, DNA gyrase B-, and HSP90-like ATPase"</title>
				<polygon class="PF02518" points="945,40 951,34 951,46" stroke-linejoin="round" width="9" height="24" fill="rgb(94,146,210)" stroke="rgb(75,116,168)" stroke-width="1" opacity="0.75" />
			</g>
			<g>
				<title>HisKA_3 (PF07730)
"Histidine kinase"</title>
				<polygon class="PF07730" points="955,30 957,28 961,28 961,52 957,52 955,50" stroke-linejoin="round" width="6" height="24" fill="rgb(197,134,53)" stroke="rgb(157,107,42)" stroke-width="1" opacity="0.75" />
			</g>
		</g>
		<g>
			<title> (arx33)
F420-dependent reductase</title>
			<polygon class=" (arx33)
F420-dependent reductase" points="986,10 1013,40 986,70" fill="rgb(255,255,255)" fill-opacity="1.0" stroke="rgb(0,0,0)" stroke-width="2"  />
			<g>
				<title>Bac_luciferase (PF00296)
"Luciferase-like monooxygenase"</title>
				<polygon class="PF00296" points="986,28 998,28 1009,40 998,52 986,52" stroke-linejoin="round" width="26" height="24" fill="rgb(50,200,104)" stroke="rgb(40,160,83)" stroke-width="1" opacity="0.75" />
			</g>
		</g>
		<g>
			<title> (arx34)
putative methyltransferase</title>
			<polygon class=" (arx34)
putative methyltransferase" points="1016,25 1020,25 1020,10 1050,40 1020,70 1020,55 1016,55" fill="rgb(255,255,255)" fill-opacity="1.0" stroke="rgb(0,0,0)" stroke-width="2"  />
			<g>
				<title>Dimerisation2 (PF16864)
"Dimerisation domain"</title>
				<rect class="PF16864" x="1017" y="28" stroke-linejoin="round" width="8" height="24" fill="rgb(212,101,199)" stroke="rgb(169,80,159)" stroke-width="1" opacity="0.75" />
			</g>
			<g>
				<title>Methyltransf_2 (PF00891)
"O-methyltransferase domain"</title>
				<polygon class="PF00891" points="1027,28 1034,28 1046,40 1034,52 1027,52" stroke-linejoin="round" width="20" height="24" fill="rgb(91,124,224)" stroke="rgb(72,99,179)" stroke-width="1" opacity="0.75" />
			</g>
		</g>
		<g>
			<title> (arx35)
biotin carboxyl carrier protein</title>
			<polygon class=" (arx35)
biotin carboxyl carrier protein" points="1057,10 1074,40 1057,70" fill="rgb(255,255,255)" fill-opacity="1.0" stroke="rgb(0,0,0)" stroke-width="2"  />
			<g>
				<title>Biotin_lipoyl (PF00364)
"Biotin-requiring enzyme"</title>
				<polygon class="PF00364" points="1066,32 1071,40 1066,48" stroke-linejoin="round" width="7" height="24" fill="rgb(99,229,97)" stroke="rgb(79,183,77)" stroke-width="1" opacity="0.75" />
			</g>
		</g>
	</g>
</svg>
