<svg version="1.1" baseProfile="full" xmlns="http://www.w3.org/2000/svg" width="483.43333333333334" height="80">
	<g>
		<line x1="10" y1="40.0" x2="473.43333333333334" y2="40.0" style="stroke:rgb(70,70,70); stroke-width:3 "/>
		<g>
			<title>
NarQ-like protein</title>
			<polygon class="
NarQ-like protein" points="10,40 15,10 15,70" fill="rgb(255,255,255)" fill-opacity="1.0" stroke="rgb(0,0,0)" stroke-width="2"  />
		</g>
		<g>
			<title>galR
GalR</title>
			<polygon class="galR
GalR" points="20,25 23,25 23,10 53,40 23,70 23,55 20,55" fill="rgb(255,255,255)" fill-opacity="1.0" stroke="rgb(0,0,0)" stroke-width="2"  />
			<g>
				<title>LacI (PF00356)
"Bacterial regulatory proteins, lacI family"</title>
				<rect class="PF00356" x="20" y="28" stroke-linejoin="round" width="4" height="24" fill="rgb(84,207,204)" stroke="rgb(67,165,163)" stroke-width="1" opacity="0.75" />
			</g>
			<g>
				<title>Peripla_BP_3 (PF13377)
"Periplasmic binding protein-like domain"</title>
				<polygon class="PF13377" points="37,28 37,28 49,40 37,52 37,52" stroke-linejoin="round" width="15" height="24" fill="rgb(220,188,82)" stroke="rgb(176,150,65)" stroke-width="1" opacity="0.75" />
			</g>
		</g>
		<g>
			<title>galK
GalK</title>
			<polygon class="galK
GalK" points="56,25 64,25 64,10 94,40 64,70 64,55 56,55" fill="rgb(255,255,255)" fill-opacity="1.0" stroke="rgb(0,0,0)" stroke-width="2"  />
			<g>
				<title>GalKase_gal_bdg (PF10509)
"Galactokinase galactose-binding signature"</title>
				<rect class="PF10509" x="56" y="28" stroke-linejoin="round" width="4" height="24" fill="rgb(144,86,220)" stroke="rgb(115,68,176)" stroke-width="1" opacity="0.75" />
			</g>
			<g>
				<title>GHMP_kinases_N (PF00288)
"GHMP kinases N terminal domain"</title>
				<rect class="PF00288" x="67" y="28" stroke-linejoin="round" width="6" height="24" fill="rgb(76,147,218)" stroke="rgb(60,117,174)" stroke-width="1" opacity="0.75" />
			</g>
			<g>
				<title>GHMP_kinases_C (PF08544)
"GHMP kinases C terminal"</title>
				<polygon class="PF08544" points="84,34 90,40 84,46" stroke-linejoin="round" width="8" height="24" fill="rgb(191,105,222)" stroke="rgb(152,84,177)" stroke-width="1" opacity="0.75" />
			</g>
		</g>
		<g>
			<title>galE
GalE</title>
			<polygon class="galE
GalE" points="95,25 98,25 98,10 128,40 98,70 98,55 95,55" fill="rgb(255,255,255)" fill-opacity="1.0" stroke="rgb(0,0,0)" stroke-width="2"  />
			<g>
				<title>Epimerase (PF01370)
"NAD dependent epimerase/dehydratase family"</title>
				<polygon class="PF01370" points="95,28 111,28 119,36 119,44 111,52 95,52" stroke-linejoin="round" width="24" height="24" fill="rgb(215,89,157)" stroke="rgb(172,71,125)" stroke-width="1" opacity="0.75" />
			</g>
		</g>
		<g>
			<title>galT
GalT</title>
			<polygon class="galT
GalT" points="129,25 148,25 148,10 178,40 148,70 148,55 129,55" fill="rgb(255,255,255)" fill-opacity="1.0" stroke="rgb(0,0,0)" stroke-width="2"  />
			<g>
				<title>GalP_UDP_transf (PF01087)
"Galactose-1-phosphate uridyl transferase, N-terminal domain"</title>
				<rect class="PF01087" x="130" y="28" stroke-linejoin="round" width="21" height="24" fill="rgb(142,55,204)" stroke="rgb(113,44,163)" stroke-width="1" opacity="0.75" />
			</g>
			<g>
				<title>GalP_UDP_tr_C (PF02744)
"Galactose-1-phosphate uridyl transferase, C-terminal domain"</title>
				<polygon class="PF02744" points="153,28 162,28 173,39 173,41 162,52 153,52" stroke-linejoin="round" width="20" height="24" fill="rgb(92,225,158)" stroke="rgb(73,180,126)" stroke-width="1" opacity="0.75" />
			</g>
		</g>
		<g>
			<title>modA
ModA</title>
			<polygon class="modA
ModA" points="184,10 210,40 184,70" fill="rgb(255,255,255)" fill-opacity="1.0" stroke="rgb(0,0,0)" stroke-width="2"  />
			<g>
				<title>SBP_bac_11 (PF13531)
"Bacterial extracellular solute-binding protein"</title>
				<polygon class="PF13531" points="188,28 196,28 206,40 196,52 188,52" stroke-linejoin="round" width="21" height="24" fill="rgb(120,184,78)" stroke="rgb(96,147,62)" stroke-width="1" opacity="0.75" />
			</g>
		</g>
		<g>
			<title>modB
ModB</title>
			<polygon class="modB
ModB" points="211,10 233,40 211,70" fill="rgb(255,255,255)" fill-opacity="1.0" stroke="rgb(0,0,0)" stroke-width="2"  />
			<g>
				<title>BPD_transp_1 (PF00528)
"Binding-protein-dependent transport system inner membrane component"</title>
				<polygon class="PF00528" points="213,28 220,28 229,40 220,52 213,52" stroke-linejoin="round" width="19" height="24" fill="rgb(167,188,50)" stroke="rgb(133,150,40)" stroke-width="1" opacity="0.75" />
			</g>
		</g>
		<g>
			<title>modC
ModC</title>
			<polygon class="modC
ModC" points="233,10 253,40 233,70" fill="rgb(255,255,255)" fill-opacity="1.0" stroke="rgb(0,0,0)" stroke-width="2"  />
			<g>
				<title>ABC_tran (PF00005)
"ABC transporter"</title>
				<polygon class="PF00005" points="234,28 241,28 248,38 248,42 241,52 234,52" stroke-linejoin="round" width="14" height="24" fill="rgb(46,186,108)" stroke="rgb(36,148,86)" stroke-width="1" opacity="0.75" />
			</g>
		</g>
		<g>
			<title>moeB
MoeB</title>
			<polygon class="moeB
MoeB" points="259,25 262,25 262,10 292,40 262,70 262,55 259,55" fill="rgb(255,255,255)" fill-opacity="1.0" stroke="rgb(0,0,0)" stroke-width="2"  />
			<g>
				<title>ThiF (PF00899)
"ThiF family"</title>
				<polygon class="PF00899" points="259,28 276,28 282,34 282,46 276,52 259,52" stroke-linejoin="round" width="23" height="24" fill="rgb(73,211,94)" stroke="rgb(58,168,75)" stroke-width="1" opacity="0.75" />
			</g>
		</g>
		<g>
			<title>moaB
MoaB</title>
			<polygon class="moaB
MoaB" points="293,10 310,40 293,70" fill="rgb(255,255,255)" fill-opacity="1.0" stroke="rgb(0,0,0)" stroke-width="2"  />
			<g>
				<title>MoCF_biosynth (PF00994)
"Probable molybdopterin binding domain"</title>
				<polygon class="PF00994" points="294,28 299,28 306,40 299,52 294,52" stroke-linejoin="round" width="14" height="24" fill="rgb(105,221,202)" stroke="rgb(84,176,161)" stroke-width="1" opacity="0.75" />
			</g>
		</g>
		<g>
			<title>moaC
MoaC</title>
			<polygon class="moaC
MoaC" points="316,40 332,10 332,70" fill="rgb(255,255,255)" fill-opacity="1.0" stroke="rgb(0,0,0)" stroke-width="2"  />
			<g>
				<title>MoaC (PF01967)
"MoaC family"</title>
				<polygon class="PF01967" points="319,40 325,28 330,28 330,52 325,52" stroke-linejoin="round" width="13" height="24" fill="rgb(86,86,193)" stroke="rgb(68,68,154)" stroke-width="1" opacity="0.75" />
			</g>
		</g>
		<g>
			<title>moeA
MoeA</title>
			<polygon class="moeA
MoeA" points="334,25 346,25 346,10 376,40 346,70 346,55 334,55" fill="rgb(255,255,255)" fill-opacity="1.0" stroke="rgb(0,0,0)" stroke-width="2"  />
			<g>
				<title>MoeA_N (PF03453)
"MoeA N-terminal region (domain I and II)"</title>
				<rect class="PF03453" x="334" y="28" stroke-linejoin="round" width="16" height="24" fill="rgb(64,190,49)" stroke="rgb(51,152,39)" stroke-width="1" opacity="0.75" />
			</g>
			<g>
				<title>MoCF_biosynth (PF00994)
"Probable molybdopterin binding domain"</title>
				<polygon class="PF00994" points="352,28 359,28 365,34 365,46 359,52 352,52" stroke-linejoin="round" width="13" height="24" fill="rgb(105,221,202)" stroke="rgb(84,176,161)" stroke-width="1" opacity="0.75" />
			</g>
			<g>
				<title>MoeA_C (PF03454)
"MoeA C-terminal region (domain IV)"</title>
				<polygon class="PF03454" points="367,36 371,40 367,44" stroke-linejoin="round" width="7" height="24" fill="rgb(185,127,81)" stroke="rgb(148,101,64)" stroke-width="1" opacity="0.75" />
			</g>
		</g>
		<g>
			<title>mobB
MobB</title>
			<polygon class="mobB
MobB" points="376,10 392,40 376,70" fill="rgb(255,255,255)" fill-opacity="1.0" stroke="rgb(0,0,0)" stroke-width="2"  />
			<g>
				<title>MobB (PF03205)
"Molybdopterin guanine dinucleotide synthesis protein B"</title>
				<polygon class="PF03205" points="376,28 382,28 388,39 388,41 382,52 376,52" stroke-linejoin="round" width="12" height="24" fill="rgb(105,216,143)" stroke="rgb(84,172,114)" stroke-width="1" opacity="0.75" />
			</g>
		</g>
		<g>
			<title>moaE
MoaE</title>
			<polygon class="moaE
MoaE" points="392,10 407,40 392,70" fill="rgb(255,255,255)" fill-opacity="1.0" stroke="rgb(0,0,0)" stroke-width="2"  />
			<g>
				<title>MoaE (PF02391)
"MoaE protein"</title>
				<polygon class="PF02391" points="392,28 397,28 403,39 403,41 397,52 392,52" stroke-linejoin="round" width="11" height="24" fill="rgb(229,59,190)" stroke="rgb(183,47,152)" stroke-width="1" opacity="0.75" />
			</g>
		</g>
		<g>
			<title>moaD
MoaD</title>
			<polygon class="moaD
MoaD" points="407,10 414,40 407,70" fill="rgb(255,255,255)" fill-opacity="1.0" stroke="rgb(0,0,0)" stroke-width="2"  />
			<g>
				<title>ThiS (PF02597)
"ThiS family"</title>
				<polygon class="PF02597" points="407,28 408,28 411,40 408,52 407,52" stroke-linejoin="round" width="7" height="24" fill="rgb(88,81,214)" stroke="rgb(70,64,171)" stroke-width="1" opacity="0.75" />
			</g>
		</g>
		<g>
			<title>mobA
MobA</title>
			<polygon class="mobA
MobA" points="415,10 434,40 415,70" fill="rgb(255,255,255)" fill-opacity="1.0" stroke="rgb(0,0,0)" stroke-width="2"  />
			<g>
				<title>NTP_transf_3 (PF12804)
"MobA-like NTP transferase domain"</title>
				<polygon class="PF12804" points="415,28 423,28 431,40 431,40 423,52 415,52" stroke-linejoin="round" width="16" height="24" fill="rgb(203,166,82)" stroke="rgb(162,132,65)" stroke-width="1" opacity="0.75" />
			</g>
		</g>
		<g>
			<title>moaA
MoaA</title>
			<polygon class="moaA
MoaA" points="437,25 441,25 441,10 471,40 441,70 441,55 437,55" fill="rgb(255,255,255)" fill-opacity="1.0" stroke="rgb(0,0,0)" stroke-width="2"  />
			<g>
				<title>Radical_SAM (PF04055)
"Radical SAM superfamily"</title>
				<rect class="PF04055" x="438" y="28" stroke-linejoin="round" width="16" height="24" fill="rgb(223,193,78)" stroke="rgb(178,154,62)" stroke-width="1" opacity="0.75" />
			</g>
			<g>
				<title>Mob_synth_C (PF06463)
"Molybdenum Cofactor Synthesis C"</title>
				<polygon class="PF06463" points="455,29 466,40 455,51" stroke-linejoin="round" width="12" height="24" fill="rgb(187,164,88)" stroke="rgb(149,131,70)" stroke-width="1" opacity="0.75" />
			</g>
		</g>
	</g>
</svg>
