<svg version="1.1" baseProfile="full" xmlns="http://www.w3.org/2000/svg" width="1290.8" height="80">
	<g>
		<line x1="10" y1="40.0" x2="1280.8" y2="40.0" style="stroke:rgb(70,70,70); stroke-width:3 "/>
		<g>
			<title> (RSc1804)
putative peptide synthase with thioesterase and phosphopantetheinyl transferase domains protein</title>
			<polygon class=" (RSc1804)
putative peptide synthase with thioesterase and phosphopantetheinyl transferase domains protein" points="93,25 40,25 40,10 10,40 40,70 40,55 93,55" fill="rgb(255,255,255)" fill-opacity="1.0" stroke="rgb(0,0,0)" stroke-width="2"  />
			<g>
				<title>ACPS (PF01648)
"4'-phosphopantetheinyl transferase superfamily"</title>
				<polygon class="PF01648" points="14,40 21,33 21,47" stroke-linejoin="round" width="9" height="24" fill="rgb(58,190,78)" stroke="rgb(46,152,62)" stroke-width="1" opacity="0.75" />
			</g>
			<g>
				<title>Thioesterase (PF00975)
"Thioesterase domain"</title>
				<rect class="PF00975" x="36" y="28" stroke-linejoin="round" width="22" height="24" fill="rgb(69,76,223)" stroke="rgb(55,60,178)" stroke-width="1" opacity="0.75" />
			</g>
			<g>
				<title>Methyltransf_11 (PF08241)
"Methyltransferase domain"</title>
				<rect class="PF08241" x="74" y="28" stroke-linejoin="round" width="9" height="24" fill="rgb(201,85,64)" stroke="rgb(160,68,51)" stroke-width="1" opacity="0.75" />
			</g>
		</g>
		<g>
			<title> (RSc1805)
putative siderophore-like synthase protein</title>
			<polygon class=" (RSc1805)
putative siderophore-like synthase protein" points="131,25 123,25 123,10 93,40 123,70 123,55 131,55" fill="rgb(255,255,255)" fill-opacity="1.0" stroke="rgb(0,0,0)" stroke-width="2"  />
			<g>
				<title>Irp3-like_C (PF21390)
"Thiazolinyl imine reductase Irp3-like, C-terminal"</title>
				<polygon class="PF21390" points="104,33 109,28 114,28 114,52 109,52 104,47" stroke-linejoin="round" width="10" height="24" fill="rgb(225,168,102)" stroke="rgb(180,134,81)" stroke-width="1" opacity="0.75" />
			</g>
			<g>
				<title>GFO_IDH_MocA (PF01408)
"Oxidoreductase family, NAD-binding Rossmann fold"</title>
				<rect class="PF01408" x="117" y="28" stroke-linejoin="round" width="12" height="24" fill="rgb(53,193,178)" stroke="rgb(42,154,142)" stroke-width="1" opacity="0.75" />
			</g>
		</g>
		<g>
			<title> (RSc1806)
probable polyketide synthase protein</title>
			<polygon class=" (RSc1806)
probable polyketide synthase protein" points="565,25 169,25 169,10 139,40 169,70 169,55 565,55" fill="rgb(255,255,255)" fill-opacity="1.0" stroke="rgb(0,0,0)" stroke-width="2"  />
			<g>
				<title>PP-binding (PF00550)
"Phosphopantetheine attachment site"</title>
				<polygon class="PF00550" points="143,40 149,34 149,46 143,40" stroke-linejoin="round" width="6" height="24" fill="rgb(181,58,166)" stroke="rgb(144,46,132)" stroke-width="1" opacity="0.75" />
			</g>
			<g>
				<title>Condensation (PF00668)
"Condensation domain"</title>
				<polygon class="PF00668" points="153,30 155,28 196,28 196,52 155,52 153,50" stroke-linejoin="round" width="43" height="24" fill="rgb(172,217,60)" stroke="rgb(137,173,47)" stroke-width="1" opacity="0.75" />
			</g>
			<g>
				<title>PP-binding (PF00550)
"Phosphopantetheine attachment site"</title>
				<rect class="PF00550" x="199" y="28" stroke-linejoin="round" width="6" height="24" fill="rgb(181,58,166)" stroke="rgb(144,46,132)" stroke-width="1" opacity="0.75" />
			</g>
			<g>
				<title>Methyltransf_12 (PF08242)
"Methyltransferase domain"</title>
				<rect class="PF08242" x="220" y="28" stroke-linejoin="round" width="10" height="24" fill="rgb(78,210,205)" stroke="rgb(62,168,164)" stroke-width="1" opacity="0.75" />
			</g>
			<g>
				<title>AMP-binding (PF00501)
"AMP-binding enzyme"</title>
				<rect class="PF00501" x="260" y="28" stroke-linejoin="round" width="35" height="24" fill="rgb(189,78,204)" stroke="rgb(151,62,163)" stroke-width="1" opacity="0.75" />
			</g>
			<g>
				<title>Condensation (PF00668)
"Condensation domain"</title>
				<rect class="PF00668" x="298" y="28" stroke-linejoin="round" width="45" height="24" fill="rgb(172,217,60)" stroke="rgb(137,173,47)" stroke-width="1" opacity="0.75" />
			</g>
			<g>
				<title>PP-binding (PF00550)
"Phosphopantetheine attachment site"</title>
				<rect class="PF00550" x="346" y="28" stroke-linejoin="round" width="6" height="24" fill="rgb(181,58,166)" stroke="rgb(144,46,132)" stroke-width="1" opacity="0.75" />
			</g>
			<g>
				<title>KR (PF08659)
"KR domain"</title>
				<rect class="PF08659" x="363" y="28" stroke-linejoin="round" width="18" height="24" fill="rgb(203,145,81)" stroke="rgb(162,116,64)" stroke-width="1" opacity="0.75" />
			</g>
			<g>
				<title>Acyl_transf_1 (PF00698)
"Acyl transferase domain"</title>
				<rect class="PF00698" x="408" y="28" stroke-linejoin="round" width="32" height="24" fill="rgb(132,93,193)" stroke="rgb(105,74,154)" stroke-width="1" opacity="0.75" />
			</g>
			<g>
				<title>KAsynt_C_assoc (PF16197)
"Ketoacyl-synthetase C-terminal extension"</title>
				<rect class="PF16197" x="443" y="28" stroke-linejoin="round" width="11" height="24" fill="rgb(200,86,70)" stroke="rgb(160,68,56)" stroke-width="1" opacity="0.75" />
			</g>
			<g>
				<title>Ketoacyl-synt_C (PF02801)
"Beta-ketoacyl synthase, C-terminal domain"</title>
				<rect class="PF02801" x="455" y="28" stroke-linejoin="round" width="11" height="24" fill="rgb(212,79,72)" stroke="rgb(169,63,57)" stroke-width="1" opacity="0.75" />
			</g>
			<g>
				<title>ketoacyl-synt (PF00109)
"Beta-ketoacyl synthase, N-terminal domain"</title>
				<rect class="PF00109" x="468" y="28" stroke-linejoin="round" width="24" height="24" fill="rgb(74,179,82)" stroke="rgb(59,143,65)" stroke-width="1" opacity="0.75" />
			</g>
			<g>
				<title>PP-binding (PF00550)
"Phosphopantetheine attachment site"</title>
				<rect class="PF00550" x="496" y="28" stroke-linejoin="round" width="6" height="24" fill="rgb(181,58,166)" stroke="rgb(144,46,132)" stroke-width="1" opacity="0.75" />
			</g>
			<g>
				<title>AMP-binding (PF00501)
"AMP-binding enzyme"</title>
				<rect class="PF00501" x="523" y="28" stroke-linejoin="round" width="41" height="24" fill="rgb(189,78,204)" stroke="rgb(151,62,163)" stroke-width="1" opacity="0.75" />
			</g>
		</g>
		<g>
			<title> (RSc1807)
putative siderophore receptor protein</title>
			<polygon class=" (RSc1807)
putative siderophore receptor protein" points="575,25 614,25 614,10 644,40 614,70 614,55 575,55" fill="rgb(255,255,255)" fill-opacity="1.0" stroke="rgb(0,0,0)" stroke-width="2"  />
			<g>
				<title>Plug (PF07715)
"TonB-dependent Receptor Plug Domain"</title>
				<rect class="PF07715" x="580" y="28" stroke-linejoin="round" width="10" height="24" fill="rgb(66,186,52)" stroke="rgb(52,148,41)" stroke-width="1" opacity="0.75" />
			</g>
			<g>
				<title>TonB_dep_Rec (PF00593)
"TonB dependent receptor"</title>
				<polygon class="PF00593" points="597,28 627,28 639,40 627,52 597,52" stroke-linejoin="round" width="43" height="24" fill="rgb(67,93,202)" stroke="rgb(53,74,161)" stroke-width="1" opacity="0.75" />
			</g>
		</g>
		<g>
			<title> (RSc1808)
probable composite atp-binding transmembrane abc transporter protein</title>
			<polygon class=" (RSc1808)
probable composite atp-binding transmembrane abc transporter protein" points="647,25 678,25 678,10 708,40 678,70 678,55 647,55" fill="rgb(255,255,255)" fill-opacity="1.0" stroke="rgb(0,0,0)" stroke-width="2"  />
			<g>
				<title>ABC_membrane (PF00664)
"ABC transporter transmembrane region"</title>
				<rect class="PF00664" x="651" y="28" stroke-linejoin="round" width="27" height="24" fill="rgb(62,71,183)" stroke="rgb(49,56,146)" stroke-width="1" opacity="0.75" />
			</g>
			<g>
				<title>ABC_tran (PF00005)
"ABC transporter"</title>
				<polygon class="PF00005" points="684,28 692,28 698,34 698,46 692,52 684,52" stroke-linejoin="round" width="14" height="24" fill="rgb(46,186,108)" stroke="rgb(36,148,86)" stroke-width="1" opacity="0.75" />
			</g>
		</g>
		<g>
			<title> (RSc1809)
probable composite atp-binding transmembrane abc transporter protein</title>
			<polygon class=" (RSc1809)
probable composite atp-binding transmembrane abc transporter protein" points="709,25 737,25 737,10 767,40 737,70 737,55 709,55" fill="rgb(255,255,255)" fill-opacity="1.0" stroke="rgb(0,0,0)" stroke-width="2"  />
			<g>
				<title>ABC_membrane (PF00664)
"ABC transporter transmembrane region"</title>
				<rect class="PF00664" x="712" y="28" stroke-linejoin="round" width="25" height="24" fill="rgb(62,71,183)" stroke="rgb(49,56,146)" stroke-width="1" opacity="0.75" />
			</g>
			<g>
				<title>ABC_tran (PF00005)
"ABC transporter"</title>
				<polygon class="PF00005" points="744,28 750,28 758,36 758,44 750,52 744,52" stroke-linejoin="round" width="14" height="24" fill="rgb(46,186,108)" stroke="rgb(36,148,86)" stroke-width="1" opacity="0.75" />
			</g>
		</g>
		<g>
			<title> (RSc1810)
probable polyketide synthase protein</title>
			<polygon class=" (RSc1810)
probable polyketide synthase protein" points="1015,25 807,25 807,10 777,40 807,70 807,55 1015,55" fill="rgb(255,255,255)" fill-opacity="1.0" stroke="rgb(0,0,0)" stroke-width="2"  />
			<g>
				<title>Condensation (PF00668)
"Condensation domain"</title>
				<rect class="PF00668" x="796" y="28" stroke-linejoin="round" width="25" height="24" fill="rgb(172,217,60)" stroke="rgb(137,173,47)" stroke-width="1" opacity="0.75" />
			</g>
			<g>
				<title>PP-binding (PF00550)
"Phosphopantetheine attachment site"</title>
				<rect class="PF00550" x="828" y="28" stroke-linejoin="round" width="6" height="24" fill="rgb(181,58,166)" stroke="rgb(144,46,132)" stroke-width="1" opacity="0.75" />
			</g>
			<g>
				<title>PP-binding (PF00550)
"Phosphopantetheine attachment site"</title>
				<rect class="PF00550" x="840" y="28" stroke-linejoin="round" width="6" height="24" fill="rgb(181,58,166)" stroke="rgb(144,46,132)" stroke-width="1" opacity="0.75" />
			</g>
			<g>
				<title>KR (PF08659)
"KR domain"</title>
				<rect class="PF08659" x="856" y="28" stroke-linejoin="round" width="17" height="24" fill="rgb(203,145,81)" stroke="rgb(162,116,64)" stroke-width="1" opacity="0.75" />
			</g>
			<g>
				<title>Methyltransf_12 (PF08242)
"Methyltransferase domain"</title>
				<rect class="PF08242" x="923" y="28" stroke-linejoin="round" width="10" height="24" fill="rgb(78,210,205)" stroke="rgb(62,168,164)" stroke-width="1" opacity="0.75" />
			</g>
			<g>
				<title>KAsynt_C_assoc (PF16197)
"Ketoacyl-synthetase C-terminal extension"</title>
				<rect class="PF16197" x="963" y="28" stroke-linejoin="round" width="11" height="24" fill="rgb(200,86,70)" stroke="rgb(160,68,56)" stroke-width="1" opacity="0.75" />
			</g>
			<g>
				<title>Ketoacyl-synt_C (PF02801)
"Beta-ketoacyl synthase, C-terminal domain"</title>
				<rect class="PF02801" x="975" y="28" stroke-linejoin="round" width="11" height="24" fill="rgb(212,79,72)" stroke="rgb(169,63,57)" stroke-width="1" opacity="0.75" />
			</g>
			<g>
				<title>ketoacyl-synt (PF00109)
"Beta-ketoacyl synthase, N-terminal domain"</title>
				<rect class="PF00109" x="988" y="28" stroke-linejoin="round" width="25" height="24" fill="rgb(74,179,82)" stroke="rgb(59,143,65)" stroke-width="1" opacity="0.75" />
			</g>
		</g>
		<g>
			<title> (RSc1811)
putative siderophore synthetase protein</title>
			<polygon class=" (RSc1811)
putative siderophore synthetase protein" points="1030,25 1200,25 1200,10 1230,40 1200,70 1200,55 1030,55" fill="rgb(255,255,255)" fill-opacity="1.0" stroke="rgb(0,0,0)" stroke-width="2"  />
			<g>
				<title>Condensation (PF00668)
"Condensation domain"</title>
				<rect class="PF00668" x="1054" y="28" stroke-linejoin="round" width="34" height="24" fill="rgb(172,217,60)" stroke="rgb(137,173,47)" stroke-width="1" opacity="0.75" />
			</g>
			<g>
				<title>AMP-binding (PF00501)
"AMP-binding enzyme"</title>
				<rect class="PF00501" x="1101" y="28" stroke-linejoin="round" width="35" height="24" fill="rgb(189,78,204)" stroke="rgb(151,62,163)" stroke-width="1" opacity="0.75" />
			</g>
			<g>
				<title>Methyltransf_12 (PF08242)
"Methyltransferase domain"</title>
				<rect class="PF08242" x="1167" y="28" stroke-linejoin="round" width="10" height="24" fill="rgb(78,210,205)" stroke="rgb(62,168,164)" stroke-width="1" opacity="0.75" />
			</g>
			<g>
				<title>PP-binding (PF00550)
"Phosphopantetheine attachment site"</title>
				<rect class="PF00550" x="1193" y="28" stroke-linejoin="round" width="6" height="24" fill="rgb(181,58,166)" stroke="rgb(144,46,132)" stroke-width="1" opacity="0.75" />
			</g>
			<g>
				<title>Thioesterase (PF00975)
"Thioesterase domain"</title>
				<polygon class="PF00975" points="1202,28 1214,28 1226,40 1214,52 1202,52" stroke-linejoin="round" width="25" height="24" fill="rgb(69,76,223)" stroke="rgb(55,60,178)" stroke-width="1" opacity="0.75" />
			</g>
		</g>
		<g>
			<title> (RSc1812)
conserved hypothetical protein</title>
			<polygon class=" (RSc1812)
conserved hypothetical protein" points="1234,10 1247,40 1234,70" fill="rgb(255,255,255)" fill-opacity="1.0" stroke="rgb(0,0,0)" stroke-width="2"  />
		</g>
		<g>
			<title> (RSc1813)
probable transcription regulator protein</title>
			<polygon class=" (RSc1813)
probable transcription regulator protein" points="1280,25 1280,25 1280,10 1250,40 1280,70 1280,55 1280,55" fill="rgb(255,255,255)" fill-opacity="1.0" stroke="rgb(0,0,0)" stroke-width="2"  />
			<g>
				<title>HTH_18 (PF12833)
"Helix-turn-helix domain"</title>
				<polygon class="PF12833" points="1254,40 1257,37 1257,43" stroke-linejoin="round" width="7" height="24" fill="rgb(96,195,114)" stroke="rgb(76,156,91)" stroke-width="1" opacity="0.75" />
			</g>
		</g>
	</g>
</svg>
