<svg version="1.1" baseProfile="full" xmlns="http://www.w3.org/2000/svg" width="235.36666666666667" height="80">
	<g>
		<line x1="10" y1="40.0" x2="225.36666666666667" y2="40.0" style="stroke:rgb(70,70,70); stroke-width:3 "/>
		<g>
			<title> (Ava_3855)
Amino acid adenylation</title>
			<polygon class=" (Ava_3855)
Amino acid adenylation" points="98,25 40,25 40,10 10,40 40,70 40,55 98,55" fill="rgb(255,255,255)" fill-opacity="1.0" stroke="rgb(0,0,0)" stroke-width="2"  />
			<g>
				<title>Thioesterase (PF00975)
"Thioesterase domain"</title>
				<polygon class="PF00975" points="22,32 26,28 36,28 36,52 26,52 22,48" stroke-linejoin="round" width="14" height="24" fill="rgb(69,76,223)" stroke="rgb(55,60,178)" stroke-width="1" opacity="0.75" />
			</g>
			<g>
				<title>PP-binding (PF00550)
"Phosphopantetheine attachment site"</title>
				<rect class="PF00550" x="38" y="28" stroke-linejoin="round" width="6" height="24" fill="rgb(181,58,166)" stroke="rgb(144,46,132)" stroke-width="1" opacity="0.75" />
			</g>
			<g>
				<title>AMP-binding_C (PF13193)
"AMP-binding enzyme C-terminal domain"</title>
				<rect class="PF13193" x="47" y="28" stroke-linejoin="round" width="7" height="24" fill="rgb(195,82,106)" stroke="rgb(156,65,84)" stroke-width="1" opacity="0.75" />
			</g>
			<g>
				<title>AMP-binding (PF00501)
"AMP-binding enzyme"</title>
				<rect class="PF00501" x="60" y="28" stroke-linejoin="round" width="34" height="24" fill="rgb(189,78,204)" stroke="rgb(151,62,163)" stroke-width="1" opacity="0.75" />
			</g>
		</g>
		<g>
			<title> (Ava_3856)
ATP-grasp enzyme-like protein</title>
			<polygon class=" (Ava_3856)
ATP-grasp enzyme-like protein" points="149,25 134,25 134,10 104,40 134,70 134,55 149,55" fill="rgb(255,255,255)" fill-opacity="1.0" stroke="rgb(0,0,0)" stroke-width="2"  />
			<g>
				<title>ATP-grasp_3 (PF02655)
"ATP-grasp domain"</title>
				<polygon class="PF02655" points="115,33 120,28 131,28 131,52 120,52 115,47" stroke-linejoin="round" width="16" height="24" fill="rgb(187,50,137)" stroke="rgb(149,39,109)" stroke-width="1" opacity="0.75" />
			</g>
		</g>
		<g>
			<title> (Ava_3857)
O-methyltransferase, family 3</title>
			<polygon class=" (Ava_3857)
O-methyltransferase, family 3" points="150,40 178,10 178,70" fill="rgb(255,255,255)" fill-opacity="1.0" stroke="rgb(0,0,0)" stroke-width="2"  />
			<g>
				<title>Methyltransf_3 (PF01596)
"O-methyltransferase"</title>
				<polygon class="PF01596" points="154,40 165,28 170,28 170,52 165,52" stroke-linejoin="round" width="20" height="24" fill="rgb(91,224,120)" stroke="rgb(72,179,96)" stroke-width="1" opacity="0.75" />
			</g>
		</g>
		<g>
			<title> (Ava_3858)
3-dehydroquinate synthase</title>
			<polygon class=" (Ava_3858)
3-dehydroquinate synthase" points="225,25 214,25 214,10 184,40 214,70 214,55 225,55" fill="rgb(255,255,255)" fill-opacity="1.0" stroke="rgb(0,0,0)" stroke-width="2"  />
			<g>
				<title>DHQ_synthase (PF01761)
"3-dehydroquinate synthase"</title>
				<polygon class="PF01761" points="190,38 200,28 216,28 216,52 200,52 190,42" stroke-linejoin="round" width="26" height="24" fill="rgb(71,149,225)" stroke="rgb(56,119,180)" stroke-width="1" opacity="0.75" />
			</g>
		</g>
	</g>
</svg>
