<svg version="1.1" baseProfile="full" xmlns="http://www.w3.org/2000/svg" width="1617.2" height="80">
	<g>
		<line x1="10" y1="40.0" x2="1607.2" y2="40.0" style="stroke:rgb(70,70,70); stroke-width:3 "/>
		<g>
			<title> (MCBG_00164)
membrane protein</title>
			<polygon class=" (MCBG_00164)
membrane protein" points="82,25 40,25 40,10 10,40 40,70 40,55 82,55" fill="rgb(255,255,255)" fill-opacity="1.0" stroke="rgb(0,0,0)" stroke-width="2"  />
			<g>
				<title>MMPL (PF03176)
"MMPL family"</title>
				<polygon class="PF03176" points="14,40 26,28 38,28 38,52 26,52" stroke-linejoin="round" width="28" height="24" fill="rgb(62,125,229)" stroke="rgb(49,99,183)" stroke-width="1" opacity="0.75" />
			</g>
			<g>
				<title>MMPL (PF03176)
"MMPL family"</title>
				<rect class="PF03176" x="44" y="28" stroke-linejoin="round" width="32" height="24" fill="rgb(62,125,229)" stroke="rgb(49,99,183)" stroke-width="1" opacity="0.75" />
			</g>
		</g>
		<g>
			<title> (MCBG_00165)
LigA protein</title>
			<polygon class=" (MCBG_00165)
LigA protein" points="102,25 139,25 139,10 169,40 139,70 139,55 102,55" fill="rgb(255,255,255)" fill-opacity="1.0" stroke="rgb(0,0,0)" stroke-width="2"  />
			<g>
				<title>GerE (PF00196)
"Bacterial regulatory proteins, luxR family"</title>
				<polygon class="PF00196" points="160,36 164,40 160,44" stroke-linejoin="round" width="5" height="24" fill="rgb(225,67,110)" stroke="rgb(180,53,88)" stroke-width="1" opacity="0.75" />
			</g>
		</g>
		<g>
			<title> (MCBG_00166)
LigA protein</title>
			<polygon class=" (MCBG_00166)
LigA protein" points="260,25 201,25 201,10 171,40 201,70 201,55 260,55" fill="rgb(255,255,255)" fill-opacity="1.0" stroke="rgb(0,0,0)" stroke-width="2"  />
			<g>
				<title>GerE (PF00196)
"Bacterial regulatory proteins, luxR family"</title>
				<polygon class="PF00196" points="175,40 178,37 178,43" stroke-linejoin="round" width="5" height="24" fill="rgb(225,67,110)" stroke="rgb(180,53,88)" stroke-width="1" opacity="0.75" />
			</g>
			<g>
				<title>AAA_16 (PF13191)
"AAA ATPase domain"</title>
				<rect class="PF13191" x="245" y="28" stroke-linejoin="round" width="14" height="24" fill="rgb(88,106,197)" stroke="rgb(70,84,157)" stroke-width="1" opacity="0.75" />
			</g>
		</g>
		<g>
			<title> (MCBG_00167)
polyprenyl synthetase</title>
			<polygon class=" (MCBG_00167)
polyprenyl synthetase" points="274,25 280,25 280,10 310,40 280,70 280,55 274,55" fill="rgb(255,255,255)" fill-opacity="1.0" stroke="rgb(0,0,0)" stroke-width="2"  />
			<g>
				<title>polyprenyl_synt (PF00348)
"Polyprenyl synthetase"</title>
				<polygon class="PF00348" points="277,28 294,28 304,38 304,42 294,52 277,52" stroke-linejoin="round" width="27" height="24" fill="rgb(216,200,102)" stroke="rgb(172,160,81)" stroke-width="1" opacity="0.75" />
			</g>
		</g>
		<g>
			<title> (MCBG_00168)
mevalonate kinase</title>
			<polygon class=" (MCBG_00168)
mevalonate kinase" points="311,25 315,25 315,10 345,40 315,70 315,55 311,55" fill="rgb(255,255,255)" fill-opacity="1.0" stroke="rgb(0,0,0)" stroke-width="2"  />
			<g>
				<title>GHMP_kinases_N (PF00288)
"GHMP kinases N terminal domain"</title>
				<rect class="PF00288" x="321" y="28" stroke-linejoin="round" width="6" height="24" fill="rgb(76,147,218)" stroke="rgb(60,117,174)" stroke-width="1" opacity="0.75" />
			</g>
			<g>
				<title>GHMP_kinases_C (PF08544)
"GHMP kinases C terminal"</title>
				<polygon class="PF08544" points="335,34 341,40 335,46" stroke-linejoin="round" width="8" height="24" fill="rgb(191,105,222)" stroke="rgb(152,84,177)" stroke-width="1" opacity="0.75" />
			</g>
		</g>
		<g>
			<title> (MCBG_00169)
diphosphomevalonate decarboxylase</title>
			<polygon class=" (MCBG_00169)
diphosphomevalonate decarboxylase" points="345,25 349,25 349,10 379,40 349,70 349,55 345,55" fill="rgb(255,255,255)" fill-opacity="1.0" stroke="rgb(0,0,0)" stroke-width="2"  />
			<g>
				<title>GHMP_kinases_N (PF00288)
"GHMP kinases N terminal domain"</title>
				<rect class="PF00288" x="355" y="28" stroke-linejoin="round" width="5" height="24" fill="rgb(76,147,218)" stroke="rgb(60,117,174)" stroke-width="1" opacity="0.75" />
			</g>
			<g>
				<title>MDD_C (PF18376)
"Mevalonate 5-diphosphate decarboxylase C-terminal domain"</title>
				<polygon class="PF18376" points="364,29 375,40 364,51" stroke-linejoin="round" width="13" height="24" fill="rgb(56,180,89)" stroke="rgb(44,144,71)" stroke-width="1" opacity="0.75" />
			</g>
		</g>
		<g>
			<title> (MCBG_00170)
phosphomevalonate kinase</title>
			<polygon class=" (MCBG_00170)
phosphomevalonate kinase" points="380,25 387,25 387,10 417,40 387,70 387,55 380,55" fill="rgb(255,255,255)" fill-opacity="1.0" stroke="rgb(0,0,0)" stroke-width="2"  />
			<g>
				<title>GHMP_kinases_N (PF00288)
"GHMP kinases N terminal domain"</title>
				<rect class="PF00288" x="390" y="28" stroke-linejoin="round" width="7" height="24" fill="rgb(76,147,218)" stroke="rgb(60,117,174)" stroke-width="1" opacity="0.75" />
			</g>
			<g>
				<title>GHMP_kinases_C (PF08544)
"GHMP kinases C terminal"</title>
				<polygon class="PF08544" points="406,34 412,40 406,46" stroke-linejoin="round" width="8" height="24" fill="rgb(191,105,222)" stroke="rgb(152,84,177)" stroke-width="1" opacity="0.75" />
			</g>
		</g>
		<g>
			<title> (MCBG_00171)
isopentenyl-diphosphate delta-isomerase, type 2</title>
			<polygon class=" (MCBG_00171)
isopentenyl-diphosphate delta-isomerase, type 2" points="417,25 423,25 423,10 453,40 423,70 423,55 417,55" fill="rgb(255,255,255)" fill-opacity="1.0" stroke="rgb(0,0,0)" stroke-width="2"  />
			<g>
				<title>FMN_dh (PF01070)
"FMN-dependent dehydrogenase"</title>
				<polygon class="PF01070" points="428,28 436,28 448,40 436,52 428,52" stroke-linejoin="round" width="21" height="24" fill="rgb(219,60,209)" stroke="rgb(175,47,167)" stroke-width="1" opacity="0.75" />
			</g>
		</g>
		<g>
			<title> (MCBG_00172)
hydroxymethylglutaryl-coenzyme A reductase</title>
			<polygon class=" (MCBG_00172)
hydroxymethylglutaryl-coenzyme A reductase" points="453,25 458,25 458,10 488,40 458,70 458,55 453,55" fill="rgb(255,255,255)" fill-opacity="1.0" stroke="rgb(0,0,0)" stroke-width="2"  />
			<g>
				<title>HMG-CoA_red (PF00368)
"Hydroxymethylglutaryl-coenzyme A reductase"</title>
				<polygon class="PF00368" points="453,28 471,28 483,40 471,52 453,52" stroke-linejoin="round" width="33" height="24" fill="rgb(211,175,87)" stroke="rgb(168,140,69)" stroke-width="1" opacity="0.75" />
			</g>
		</g>
		<g>
			<title> (MCBG_00173)
hydroxymethylglutaryl-CoA synthase</title>
			<polygon class=" (MCBG_00173)
hydroxymethylglutaryl-CoA synthase" points="488,25 497,25 497,10 527,40 497,70 497,55 488,55" fill="rgb(255,255,255)" fill-opacity="1.0" stroke="rgb(0,0,0)" stroke-width="2"  />
			<g>
				<title>HMG_CoA_synt_N (PF01154)
"Hydroxymethylglutaryl-coenzyme A synthase N terminal"</title>
				<rect class="PF01154" x="488" y="28" stroke-linejoin="round" width="16" height="24" fill="rgb(192,53,137)" stroke="rgb(153,42,109)" stroke-width="1" opacity="0.75" />
			</g>
			<g>
				<title>HMG_CoA_synt_C (PF08540)
"Hydroxymethylglutaryl-coenzyme A synthase C terminal"</title>
				<polygon class="PF08540" points="505,28 510,28 514,32 514,48 510,52 505,52" stroke-linejoin="round" width="9" height="24" fill="rgb(72,187,147)" stroke="rgb(57,149,117)" stroke-width="1" opacity="0.75" />
			</g>
			<g>
				<title>HMG_CoA_synt_C (PF08540)
"Hydroxymethylglutaryl-coenzyme A synthase C terminal"</title>
				<polygon class="PF08540" points="514,32 522,40 522,40 514,48" stroke-linejoin="round" width="8" height="24" fill="rgb(72,187,147)" stroke="rgb(57,149,117)" stroke-width="1" opacity="0.75" />
			</g>
		</g>
		<g>
			<title> (MCBG_00174)
hypothetical protein</title>
			<polygon class=" (MCBG_00174)
hypothetical protein" points="528,25 528,25 528,10 558,40 528,70 528,55 528,55" fill="rgb(255,255,255)" fill-opacity="1.0" stroke="rgb(0,0,0)" stroke-width="2"  />
			<g>
				<title>PTase_Orf2 (PF11468)
"Aromatic prenyltransferase Orf2"</title>
				<polygon class="PF11468" points="529,28 541,28 553,40 541,52 529,52" stroke-linejoin="round" width="28" height="24" fill="rgb(75,65,211)" stroke="rgb(59,51,168)" stroke-width="1" opacity="0.75" />
			</g>
		</g>
		<g>
			<title> (MCBG_00175)
two-component system sensor kinase</title>
			<polygon class=" (MCBG_00175)
two-component system sensor kinase" points="563,25 569,25 569,10 599,40 569,70 569,55 563,55" fill="rgb(255,255,255)" fill-opacity="1.0" stroke="rgb(0,0,0)" stroke-width="2"  />
			<g>
				<title>HisKA_3 (PF07730)
"Histidine kinase"</title>
				<polygon class="PF07730" points="579,28 583,28 585,30 585,50 583,52 579,52" stroke-linejoin="round" width="6" height="24" fill="rgb(197,134,53)" stroke="rgb(157,107,42)" stroke-width="1" opacity="0.75" />
			</g>
			<g>
				<title>HATPase_c (PF02518)
"Histidine kinase-, DNA gyrase B-, and HSP90-like ATPase"</title>
				<polygon class="PF02518" points="590,35 595,40 590,45" stroke-linejoin="round" width="9" height="24" fill="rgb(94,146,210)" stroke="rgb(75,116,168)" stroke-width="1" opacity="0.75" />
			</g>
		</g>
		<g>
			<title> (MCBG_00176)
two-component system response regulator</title>
			<polygon class=" (MCBG_00176)
two-component system response regulator" points="599,10 621,40 599,70" fill="rgb(255,255,255)" fill-opacity="1.0" stroke="rgb(0,0,0)" stroke-width="2"  />
			<g>
				<title>Response_reg (PF00072)
"Response regulator receiver domain"</title>
				<polygon class="PF00072" points="599,28 608,28 610,30 610,50 608,52 599,52" stroke-linejoin="round" width="11" height="24" fill="rgb(59,131,198)" stroke="rgb(47,104,158)" stroke-width="1" opacity="0.75" />
			</g>
			<g>
				<title>GerE (PF00196)
"Bacterial regulatory proteins, luxR family"</title>
				<polygon class="PF00196" points="614,36 617,40 614,44" stroke-linejoin="round" width="5" height="24" fill="rgb(225,67,110)" stroke="rgb(180,53,88)" stroke-width="1" opacity="0.75" />
			</g>
		</g>
		<g>
			<title> (MCBG_00177)
hypothetical protein</title>
			<polygon class=" (MCBG_00177)
hypothetical protein" points="628,10 641,40 628,70" fill="rgb(255,255,255)" fill-opacity="1.0" stroke="rgb(0,0,0)" stroke-width="2"  />
			<g>
				<title>DUF6223 (PF19733)
"Family of unknown function (DUF6223)"</title>
				<polygon class="PF19733" points="631,28 632,28 637,40 632,52 631,52" stroke-linejoin="round" width="9" height="24" fill="rgb(93,207,113)" stroke="rgb(74,165,90)" stroke-width="1" opacity="0.75" />
			</g>
		</g>
		<g>
			<title> (MCBG_00178)
hypothetical protein</title>
			<polygon class=" (MCBG_00178)
hypothetical protein" points="643,10 658,40 643,70" fill="rgb(255,255,255)" fill-opacity="1.0" stroke="rgb(0,0,0)" stroke-width="2"  />
			<g>
				<title>DUF6220 (PF19728)
"Family of unknown function (DUF6220)"</title>
				<polygon class="PF19728" points="644,28 648,28 651,33 651,47 648,52 644,52" stroke-linejoin="round" width="7" height="24" fill="rgb(70,214,123)" stroke="rgb(56,171,98)" stroke-width="1" opacity="0.75" />
			</g>
		</g>
		<g>
			<title> (MCBG_00179)
multicopper oxidase</title>
			<polygon class=" (MCBG_00179)
multicopper oxidase" points="658,25 695,25 695,10 725,40 695,70 695,55 658,55" fill="rgb(255,255,255)" fill-opacity="1.0" stroke="rgb(0,0,0)" stroke-width="2"  />
			<g>
				<title>Cu-oxidase_3 (PF07732)
"Multicopper oxidase"</title>
				<rect class="PF07732" x="684" y="28" stroke-linejoin="round" width="11" height="24" fill="rgb(174,103,224)" stroke="rgb(139,82,179)" stroke-width="1" opacity="0.75" />
			</g>
			<g>
				<title>Cu-oxidase (PF00394)
"Multicopper oxidase"</title>
				<rect class="PF00394" x="695" y="28" stroke-linejoin="round" width="10" height="24" fill="rgb(181,80,92)" stroke="rgb(144,64,73)" stroke-width="1" opacity="0.75" />
			</g>
			<g>
				<title>Cu-oxidase_2 (PF07731)
"Multicopper oxidase"</title>
				<polygon class="PF07731" points="712,31 721,40 712,49" stroke-linejoin="round" width="11" height="24" fill="rgb(188,215,88)" stroke="rgb(150,172,70)" stroke-width="1" opacity="0.75" />
			</g>
		</g>
		<g>
			<title> (MCBG_00180)
glyoxalase</title>
			<polygon class=" (MCBG_00180)
glyoxalase" points="725,10 738,40 725,70" fill="rgb(255,255,255)" fill-opacity="1.0" stroke="rgb(0,0,0)" stroke-width="2"  />
			<g>
				<title>Glyoxalase (PF00903)
"Glyoxalase/Bleomycin resistance protein/Dioxygenase superfamily"</title>
				<polygon class="PF00903" points="726,28 729,28 735,40 729,52 726,52" stroke-linejoin="round" width="11" height="24" fill="rgb(139,76,222)" stroke="rgb(111,60,177)" stroke-width="1" opacity="0.75" />
			</g>
		</g>
		<g>
			<title> (MCBG_00181)
hypothetical protein</title>
			<polygon class=" (MCBG_00181)
hypothetical protein" points="743,40 758,10 758,70" fill="rgb(255,255,255)" fill-opacity="1.0" stroke="rgb(0,0,0)" stroke-width="2"  />
			<g>
				<title>DUF6069 (PF19545)
"Family of unknown function (DUF6069)"</title>
				<polygon class="PF19545" points="746,40 752,28 756,28 756,52 752,52" stroke-linejoin="round" width="13" height="24" fill="rgb(76,57,222)" stroke="rgb(60,45,177)" stroke-width="1" opacity="0.75" />
			</g>
		</g>
		<g>
			<title> (MCBG_00182)
anthranilate synthase, phenazine specific</title>
			<polygon class=" (MCBG_00182)
anthranilate synthase, phenazine specific" points="827,25 792,25 792,10 762,40 792,70 792,55 827,55" fill="rgb(255,255,255)" fill-opacity="1.0" stroke="rgb(0,0,0)" stroke-width="2"  />
			<g>
				<title>GATase (PF00117)
"Glutamine amidotransferase class-I"</title>
				<polygon class="PF00117" points="766,40 778,28 782,28 782,52 778,52" stroke-linejoin="round" width="18" height="24" fill="rgb(54,118,198)" stroke="rgb(43,94,158)" stroke-width="1" opacity="0.75" />
			</g>
			<g>
				<title>Chorismate_bind (PF00425)
"chorismate binding enzyme"</title>
				<rect class="PF00425" x="789" y="28" stroke-linejoin="round" width="26" height="24" fill="rgb(126,181,77)" stroke="rgb(100,144,61)" stroke-width="1" opacity="0.75" />
			</g>
		</g>
		<g>
			<title> (MCBG_00183)
aspartate kinase 2</title>
			<polygon class=" (MCBG_00183)
aspartate kinase 2" points="836,25 848,25 848,10 878,40 848,70 848,55 836,55" fill="rgb(255,255,255)" fill-opacity="1.0" stroke="rgb(0,0,0)" stroke-width="2"  />
			<g>
				<title>AA_kinase (PF00696)
"Amino acid kinase family"</title>
				<rect class="PF00696" x="836" y="28" stroke-linejoin="round" width="22" height="24" fill="rgb(72,198,168)" stroke="rgb(57,158,134)" stroke-width="1" opacity="0.75" />
			</g>
			<g>
				<title>ACT_7 (PF13840)
"ACT domain"</title>
				<polygon class="PF13840" points="869,36 873,40 869,44" stroke-linejoin="round" width="6" height="24" fill="rgb(106,216,98)" stroke="rgb(84,172,78)" stroke-width="1" opacity="0.75" />
			</g>
		</g>
		<g>
			<title> (MCBG_00184)
fructose-bisphosphate aldolase</title>
			<polygon class=" (MCBG_00184)
fructose-bisphosphate aldolase" points="879,10 906,40 879,70" fill="rgb(255,255,255)" fill-opacity="1.0" stroke="rgb(0,0,0)" stroke-width="2"  />
			<g>
				<title>DeoC (PF01791)
"DeoC/LacD family aldolase"</title>
				<polygon class="PF01791" points="881,28 890,28 902,40 902,40 890,52 881,52" stroke-linejoin="round" width="21" height="24" fill="rgb(154,53,201)" stroke="rgb(123,42,160)" stroke-width="1" opacity="0.75" />
			</g>
		</g>
		<g>
			<title> (MCBG_00185)
3-dehydroquinate synthase</title>
			<polygon class=" (MCBG_00185)
3-dehydroquinate synthase" points="907,25 913,25 913,10 943,40 913,70 913,55 907,55" fill="rgb(255,255,255)" fill-opacity="1.0" stroke="rgb(0,0,0)" stroke-width="2"  />
			<g>
				<title>DHQS (PF01959)
"3-dehydroquinate synthase II"</title>
				<polygon class="PF01959" points="907,28 927,28 939,40 927,52 907,52" stroke-linejoin="round" width="36" height="24" fill="rgb(72,159,184)" stroke="rgb(57,127,147)" stroke-width="1" opacity="0.75" />
			</g>
		</g>
		<g>
			<title> (MCBG_00186)
metal-dependent hydrolase</title>
			<polygon class=" (MCBG_00186)
metal-dependent hydrolase" points="945,10 970,40 945,70" fill="rgb(255,255,255)" fill-opacity="1.0" stroke="rgb(0,0,0)" stroke-width="2"  />
			<g>
				<title>Amidohydro_2 (PF04909)
"Amidohydrolase"</title>
				<polygon class="PF04909" points="950,28 956,28 966,40 956,52 950,52" stroke-linejoin="round" width="19" height="24" fill="rgb(144,74,196)" stroke="rgb(115,59,156)" stroke-width="1" opacity="0.75" />
			</g>
		</g>
		<g>
			<title> (MCBG_00187)
hypothetical protein</title>
			<polygon class=" (MCBG_00187)
hypothetical protein" points="972,25 984,25 984,10 1014,40 984,70 984,55 972,55" fill="rgb(255,255,255)" fill-opacity="1.0" stroke="rgb(0,0,0)" stroke-width="2"  />
			<g>
				<title>AMP-binding (PF00501)
"AMP-binding enzyme"</title>
				<polygon class="PF00501" points="975,28 997,28 998,29 998,51 997,52 975,52" stroke-linejoin="round" width="23" height="24" fill="rgb(189,78,204)" stroke="rgb(151,62,163)" stroke-width="1" opacity="0.75" />
			</g>
		</g>
		<g>
			<title> (MCBG_00188)
monooxygenase</title>
			<polygon class=" (MCBG_00188)
monooxygenase" points="1014,25 1023,25 1023,10 1053,40 1023,70 1023,55 1014,55" fill="rgb(255,255,255)" fill-opacity="1.0" stroke="rgb(0,0,0)" stroke-width="2"  />
			<g>
				<title>FAD_binding_3 (PF01494)
"FAD binding domain"</title>
				<polygon class="PF01494" points="1014,28 1037,28 1048,39 1048,41 1037,52 1014,52" stroke-linejoin="round" width="34" height="24" fill="rgb(215,66,156)" stroke="rgb(172,52,124)" stroke-width="1" opacity="0.75" />
			</g>
		</g>
		<g>
			<title> (MCBG_00189)
2,3-dihydro-2,3-dihydroxybenzoate dehydrogenase</title>
			<polygon class=" (MCBG_00189)
2,3-dihydro-2,3-dihydroxybenzoate dehydrogenase" points="1054,10 1080,40 1054,70" fill="rgb(255,255,255)" fill-opacity="1.0" stroke="rgb(0,0,0)" stroke-width="2"  />
			<g>
				<title>adh_short (PF00106)
"short chain dehydrogenase"</title>
				<polygon class="PF00106" points="1054,28 1066,28 1073,37 1073,43 1066,52 1054,52" stroke-linejoin="round" width="19" height="24" fill="rgb(128,81,196)" stroke="rgb(102,64,156)" stroke-width="1" opacity="0.75" />
			</g>
		</g>
		<g>
			<title> (MCBG_00190)
isochorismatase</title>
			<polygon class=" (MCBG_00190)
isochorismatase" points="1081,10 1103,40 1081,70" fill="rgb(255,255,255)" fill-opacity="1.0" stroke="rgb(0,0,0)" stroke-width="2"  />
			<g>
				<title>Isochorismatase (PF00857)
"Isochorismatase family"</title>
				<polygon class="PF00857" points="1083,28 1091,28 1099,40 1091,52 1083,52" stroke-linejoin="round" width="17" height="24" fill="rgb(82,216,163)" stroke="rgb(65,172,130)" stroke-width="1" opacity="0.75" />
			</g>
		</g>
		<g>
			<title> (MCBG_00191)
oxidoreductase, short chain dehydrogenase/reductase family</title>
			<polygon class=" (MCBG_00191)
oxidoreductase, short chain dehydrogenase/reductase family" points="1104,10 1127,40 1104,70" fill="rgb(255,255,255)" fill-opacity="1.0" stroke="rgb(0,0,0)" stroke-width="2"  />
			<g>
				<title>adh_short_C2 (PF13561)
"Enoyl-(Acyl carrier protein) reductase"</title>
				<polygon class="PF13561" points="1105,28 1114,28 1123,40 1114,52 1105,52" stroke-linejoin="round" width="22" height="24" fill="rgb(79,221,209)" stroke="rgb(63,176,167)" stroke-width="1" opacity="0.75" />
			</g>
		</g>
		<g>
			<title> (MCBG_00192)
LigA protein</title>
			<polygon class=" (MCBG_00192)
LigA protein" points="1127,40 1151,10 1151,70" fill="rgb(255,255,255)" fill-opacity="1.0" stroke="rgb(0,0,0)" stroke-width="2"  />
			<g>
				<title>DUF6081 (PF19559)
"Family of unknown function (DUF6081)"</title>
				<polygon class="PF19559" points="1131,40 1141,28 1150,28 1150,52 1141,52" stroke-linejoin="round" width="23" height="24" fill="rgb(96,183,198)" stroke="rgb(76,146,158)" stroke-width="1" opacity="0.75" />
			</g>
		</g>
		<g>
			<title> (MCBG_00193)
integral membrane protein</title>
			<polygon class=" (MCBG_00193)
integral membrane protein" points="1159,10 1170,40 1159,70" fill="rgb(255,255,255)" fill-opacity="1.0" stroke="rgb(0,0,0)" stroke-width="2"  />
			<g>
				<title>DUF485 (PF04341)
"Protein of unknown function, DUF485"</title>
				<polygon class="PF04341" points="1160,28 1162,28 1166,40 1162,52 1160,52" stroke-linejoin="round" width="8" height="24" fill="rgb(90,216,151)" stroke="rgb(72,172,120)" stroke-width="1" opacity="0.75" />
			</g>
		</g>
		<g>
			<title> (MCBG_00194)
sodium:solute symporter</title>
			<polygon class=" (MCBG_00194)
sodium:solute symporter" points="1170,25 1196,25 1196,10 1226,40 1196,70 1196,55 1170,55" fill="rgb(255,255,255)" fill-opacity="1.0" stroke="rgb(0,0,0)" stroke-width="2"  />
			<g>
				<title>SSF (PF00474)
"Sodium:solute symporter family"</title>
				<polygon class="PF00474" points="1175,28 1209,28 1215,34 1215,46 1209,52 1175,52" stroke-linejoin="round" width="40" height="24" fill="rgb(192,57,99)" stroke="rgb(153,45,79)" stroke-width="1" opacity="0.75" />
			</g>
		</g>
		<g>
			<title> (MCBG_00195)
FAD-binding monooxygenase</title>
			<polygon class=" (MCBG_00195)
FAD-binding monooxygenase" points="1226,25 1250,25 1250,10 1280,40 1250,70 1250,55 1226,55" fill="rgb(255,255,255)" fill-opacity="1.0" stroke="rgb(0,0,0)" stroke-width="2"  />
			<g>
				<title>FAD_binding_3 (PF01494)
"FAD binding domain"</title>
				<rect class="PF01494" x="1227" y="28" stroke-linejoin="round" width="35" height="24" fill="rgb(215,66,156)" stroke="rgb(172,52,124)" stroke-width="1" opacity="0.75" />
			</g>
			<g>
				<title>Rng_hyd_C (PF21274)
"Aromatic-ring hydroxylase, C-terminal"</title>
				<polygon class="PF21274" points="1270,34 1276,40 1270,46" stroke-linejoin="round" width="9" height="24" fill="rgb(153,227,106)" stroke="rgb(122,181,84)" stroke-width="1" opacity="0.75" />
			</g>
		</g>
		<g>
			<title> (MCBG_00196)
phospho-2-dehydro-3-deoxyheptonate aldolase</title>
			<polygon class=" (MCBG_00196)
phospho-2-dehydro-3-deoxyheptonate aldolase" points="1284,25 1295,25 1295,10 1325,40 1295,70 1295,55 1284,55" fill="rgb(255,255,255)" fill-opacity="1.0" stroke="rgb(0,0,0)" stroke-width="2"  />
			<g>
				<title>DAHP_synth_2 (PF01474)
"Class-II DAHP synthetase family"</title>
				<rect class="PF01474" x="1285" y="28" stroke-linejoin="round" width="17" height="24" fill="rgb(57,77,225)" stroke="rgb(45,61,180)" stroke-width="1" opacity="0.75" />
			</g>
			<g>
				<title>DAHP_synth_2 (PF01474)
"Class-II DAHP synthetase family"</title>
				<polygon class="PF01474" points="1301,28 1309,28 1321,40 1309,52 1301,52" stroke-linejoin="round" width="22" height="24" fill="rgb(57,77,225)" stroke="rgb(45,61,180)" stroke-width="1" opacity="0.75" />
			</g>
		</g>
		<g>
			<title> (MCBG_00197)
hypothetical protein</title>
			<polygon class=" (MCBG_00197)
hypothetical protein" points="1331,25 1338,25 1338,10 1368,40 1338,70 1338,55 1331,55" fill="rgb(255,255,255)" fill-opacity="1.0" stroke="rgb(0,0,0)" stroke-width="2"  />
			<g>
				<title>ParBc (PF02195)
"ParB/Sulfiredoxin domain"</title>
				<rect class="PF02195" x="1337" y="28" stroke-linejoin="round" width="8" height="24" fill="rgb(109,68,205)" stroke="rgb(87,54,164)" stroke-width="1" opacity="0.75" />
			</g>
		</g>
		<g>
			<title> (MCBG_00198)
hypothetical protein</title>
			<polygon class=" (MCBG_00198)
hypothetical protein" points="1374,25 1393,25 1393,10 1423,40 1393,70 1393,55 1374,55" fill="rgb(255,255,255)" fill-opacity="1.0" stroke="rgb(0,0,0)" stroke-width="2"  />
			<g>
				<title>DUF6851 (PF21167)
"Domain of unknown function (DUF6851)"</title>
				<rect class="PF21167" x="1381" y="28" stroke-linejoin="round" width="13" height="24" fill="rgb(137,74,210)" stroke="rgb(109,59,168)" stroke-width="1" opacity="0.75" />
			</g>
		</g>
		<g>
			<title> (MCBG_00199)
transcriptional regulator, PadR family</title>
			<polygon class=" (MCBG_00199)
transcriptional regulator, PadR family" points="1426,10 1437,40 1426,70" fill="rgb(255,255,255)" fill-opacity="1.0" stroke="rgb(0,0,0)" stroke-width="2"  />
			<g>
				<title>PadR (PF03551)
"Transcriptional regulator PadR-like family"</title>
				<polygon class="PF03551" points="1428,28 1429,28 1434,40 1429,52 1428,52" stroke-linejoin="round" width="7" height="24" fill="rgb(101,169,228)" stroke="rgb(80,135,182)" stroke-width="1" opacity="0.75" />
			</g>
		</g>
		<g>
			<title> (MCBG_00200)
hypothetical protein</title>
			<polygon class=" (MCBG_00200)
hypothetical protein" points="1438,25 1442,25 1442,10 1472,40 1442,70 1442,55 1438,55" fill="rgb(255,255,255)" fill-opacity="1.0" stroke="rgb(0,0,0)" stroke-width="2"  />
		</g>
		<g>
			<title> (MCBG_00201)
acyl-CoA oxidase</title>
			<polygon class=" (MCBG_00201)
acyl-CoA oxidase" points="1472,40 1481,10 1481,70" fill="rgb(255,255,255)" fill-opacity="1.0" stroke="rgb(0,0,0)" stroke-width="2"  />
			<g>
				<title>ACOX (PF01756)
"Acyl-CoA oxidase"</title>
				<polygon class="PF01756" points="1475,40 1479,28 1481,28 1481,52 1479,52" stroke-linejoin="round" width="7" height="24" fill="rgb(115,220,72)" stroke="rgb(91,176,57)" stroke-width="1" opacity="0.75" />
			</g>
		</g>
		<g>
			<title> (MCBG_00202)
acyl-CoA oxidase</title>
			<polygon class=" (MCBG_00202)
acyl-CoA oxidase" points="1543,25 1517,25 1517,10 1487,40 1517,70 1517,55 1543,55" fill="rgb(255,255,255)" fill-opacity="1.0" stroke="rgb(0,0,0)" stroke-width="2"  />
			<g>
				<title>Acyl-CoA_dh_1 (PF00441)
"Acyl-CoA dehydrogenase, C-terminal domain"</title>
				<polygon class="PF00441" points="1499,32 1503,28 1515,28 1515,52 1503,52 1499,48" stroke-linejoin="round" width="16" height="24" fill="rgb(96,175,206)" stroke="rgb(76,139,164)" stroke-width="1" opacity="0.75" />
			</g>
			<g>
				<title>Acyl-CoA_dh_M (PF02770)
"Acyl-CoA dehydrogenase, middle domain"</title>
				<rect class="PF02770" x="1518" y="28" stroke-linejoin="round" width="10" height="24" fill="rgb(58,129,192)" stroke="rgb(46,103,153)" stroke-width="1" opacity="0.75" />
			</g>
			<g>
				<title>Acyl-CoA_dh_N (PF02771)
"Acyl-CoA dehydrogenase, N-terminal domain"</title>
				<rect class="PF02771" x="1529" y="28" stroke-linejoin="round" width="10" height="24" fill="rgb(104,198,213)" stroke="rgb(83,158,170)" stroke-width="1" opacity="0.75" />
			</g>
		</g>
		<g>
			<title> (MCBG_00203)
ABC transporter ATP-binding protein</title>
			<polygon class=" (MCBG_00203)
ABC transporter ATP-binding protein" points="1549,25 1576,25 1576,10 1606,40 1576,70 1576,55 1549,55" fill="rgb(255,255,255)" fill-opacity="1.0" stroke="rgb(0,0,0)" stroke-width="2"  />
			<g>
				<title>ABC_membrane (PF00664)
"ABC transporter transmembrane region"</title>
				<rect class="PF00664" x="1551" y="28" stroke-linejoin="round" width="26" height="24" fill="rgb(62,71,183)" stroke="rgb(49,56,146)" stroke-width="1" opacity="0.75" />
			</g>
			<g>
				<title>ABC_tran (PF00005)
"ABC transporter"</title>
				<polygon class="PF00005" points="1584,28 1590,28 1599,37 1599,43 1590,52 1584,52" stroke-linejoin="round" width="15" height="24" fill="rgb(46,186,108)" stroke="rgb(36,148,86)" stroke-width="1" opacity="0.75" />
			</g>
		</g>
	</g>
</svg>
