<svg version="1.1" baseProfile="full" xmlns="http://www.w3.org/2000/svg" width="327.76666666666665" height="80">
	<g>
		<line x1="10" y1="40.0" x2="317.76666666666665" y2="40.0" style="stroke:rgb(70,70,70); stroke-width:3 "/>
		<g>
			<title>crtE
GGPP synthase</title>
			<polygon class="crtE
GGPP synthase" points="28,25 36,25 36,10 66,40 36,70 36,55 28,55" fill="rgb(255,255,255)" fill-opacity="1.0" stroke="rgb(0,0,0)" stroke-width="2"  />
			<g>
				<title>polyprenyl_synt (PF00348)
"Polyprenyl synthetase"</title>
				<polygon class="PF00348" points="33,28 50,28 60,38 60,42 50,52 33,52" stroke-linejoin="round" width="27" height="24" fill="rgb(216,200,102)" stroke="rgb(172,160,81)" stroke-width="1" opacity="0.75" />
			</g>
		</g>
		<g>
			<title>
unknown</title>
			<polygon class="
unknown" points="67,25 110,25 110,10 140,40 110,70 110,55 67,55" fill="rgb(255,255,255)" fill-opacity="1.0" stroke="rgb(0,0,0)" stroke-width="2"  />
			<g>
				<title>MMPL (PF03176)
"MMPL family"</title>
				<rect class="PF03176" x="72" y="28" stroke-linejoin="round" width="32" height="24" fill="rgb(62,125,229)" stroke="rgb(49,99,183)" stroke-width="1" opacity="0.75" />
			</g>
			<g>
				<title>MMPL (PF03176)
"MMPL family"</title>
				<polygon class="PF03176" points="108,28 123,28 135,40 123,52 108,52" stroke-linejoin="round" width="31" height="24" fill="rgb(62,125,229)" stroke="rgb(49,99,183)" stroke-width="1" opacity="0.75" />
			</g>
		</g>
		<g>
			<title>crtB
phytoene synthase</title>
			<polygon class="crtB
phytoene synthase" points="140,25 140,25 140,10 170,40 140,70 140,55 140,55" fill="rgb(255,255,255)" fill-opacity="1.0" stroke="rgb(0,0,0)" stroke-width="2"  />
			<g>
				<title>SQS_PSY (PF00494)
"Squalene/phytoene synthase"</title>
				<polygon class="PF00494" points="142,28 154,28 166,40 154,52 142,52" stroke-linejoin="round" width="25" height="24" fill="rgb(149,199,81)" stroke="rgb(119,159,64)" stroke-width="1" opacity="0.75" />
			</g>
		</g>
		<g>
			<title>crtI
phytoene desaturase</title>
			<polygon class="crtI
phytoene desaturase" points="170,25 195,25 195,10 225,40 195,70 195,55 170,55" fill="rgb(255,255,255)" fill-opacity="1.0" stroke="rgb(0,0,0)" stroke-width="2"  />
			<g>
				<title>Amino_oxidase (PF01593)
"Flavin containing amine oxidoreductase"</title>
				<polygon class="PF01593" points="172,28 208,28 220,40 208,52 172,52" stroke-linejoin="round" width="49" height="24" fill="rgb(95,189,207)" stroke="rgb(76,151,165)" stroke-width="1" opacity="0.75" />
			</g>
		</g>
		<g>
			<title>crtYe
C50 carotenoid epsilon cyclase</title>
			<polygon class="crtYe
C50 carotenoid epsilon cyclase" points="225,10 240,40 225,70" fill="rgb(255,255,255)" fill-opacity="1.0" stroke="rgb(0,0,0)" stroke-width="2"  />
		</g>
		<g>
			<title>crtYf
C50 carotenoid epsilon cyclase</title>
			<polygon class="crtYf
C50 carotenoid epsilon cyclase" points="240,10 253,40 240,70" fill="rgb(255,255,255)" fill-opacity="1.0" stroke="rgb(0,0,0)" stroke-width="2"  />
		</g>
		<g>
			<title>crtEb
lycopene elongase</title>
			<polygon class="crtEb
lycopene elongase" points="253,10 281,40 253,70" fill="rgb(255,255,255)" fill-opacity="1.0" stroke="rgb(0,0,0)" stroke-width="2"  />
			<g>
				<title>UbiA (PF01040)
"UbiA prenyltransferase family"</title>
				<polygon class="PF01040" points="255,28 265,28 277,40 265,52 255,52" stroke-linejoin="round" width="25" height="24" fill="rgb(172,202,98)" stroke="rgb(137,161,78)" stroke-width="1" opacity="0.75" />
			</g>
		</g>
		<g>
			<title>
unknown</title>
			<polygon class="
unknown" points="283,40 311,10 311,70" fill="rgb(255,255,255)" fill-opacity="1.0" stroke="rgb(0,0,0)" stroke-width="2"  />
			<g>
				<title>Suc_Fer-like (PF06999)
"Sucrase/ferredoxin-like"</title>
				<polygon class="PF06999" points="291,36 299,28 310,28 310,52 299,52 291,44" stroke-linejoin="round" width="19" height="24" fill="rgb(59,170,208)" stroke="rgb(47,135,166)" stroke-width="1" opacity="0.75" />
			</g>
		</g>
	</g>
</svg>
