<svg version="1.1" baseProfile="full" xmlns="http://www.w3.org/2000/svg" width="533.3333333333334" height="80">
	<g>
		<line x1="10" y1="40.0" x2="523.3333333333334" y2="40.0" style="stroke:rgb(70,70,70); stroke-width:3 "/>
		<g>
			<title> (RUMFLAFD1_RS0111140)
hypothetical protein</title>
			<polygon class=" (RUMFLAFD1_RS0111140)
hypothetical protein" points="13,40 19,10 19,70" fill="rgb(255,255,255)" fill-opacity="1.0" stroke="rgb(0,0,0)" stroke-width="2"  />
		</g>
		<g>
			<title> (RUMFLAFD1_RS0111145)
hypothetical protein</title>
			<polygon class=" (RUMFLAFD1_RS0111145)
hypothetical protein" points="20,40 26,10 26,70" fill="rgb(255,255,255)" fill-opacity="1.0" stroke="rgb(0,0,0)" stroke-width="2"  />
		</g>
		<g>
			<title> (RUMFLAFD1_RS0111150)
hypothetical protein</title>
			<polygon class=" (RUMFLAFD1_RS0111150)
hypothetical protein" points="35,40 42,10 42,70" fill="rgb(255,255,255)" fill-opacity="1.0" stroke="rgb(0,0,0)" stroke-width="2"  />
		</g>
		<g>
			<title> (RUMFLAFD1_RS0111155)
hypothetical protein</title>
			<polygon class=" (RUMFLAFD1_RS0111155)
hypothetical protein" points="43,40 49,10 49,70" fill="rgb(255,255,255)" fill-opacity="1.0" stroke="rgb(0,0,0)" stroke-width="2"  />
		</g>
		<g>
			<title> (RUMFLAFD1_RS0111160)
hypothetical protein</title>
			<polygon class=" (RUMFLAFD1_RS0111160)
hypothetical protein" points="50,40 57,10 57,70" fill="rgb(255,255,255)" fill-opacity="1.0" stroke="rgb(0,0,0)" stroke-width="2"  />
		</g>
		<g>
			<title> (RUMFLAFD1_RS0111165)
hypothetical protein</title>
			<polygon class=" (RUMFLAFD1_RS0111165)
hypothetical protein" points="60,40 66,10 66,70" fill="rgb(255,255,255)" fill-opacity="1.0" stroke="rgb(0,0,0)" stroke-width="2"  />
		</g>
		<g>
			<title> (RUMFLAFD1_RS0111170)
hypothetical protein</title>
			<polygon class=" (RUMFLAFD1_RS0111170)
hypothetical protein" points="66,40 73,10 73,70" fill="rgb(255,255,255)" fill-opacity="1.0" stroke="rgb(0,0,0)" stroke-width="2"  />
		</g>
		<g>
			<title> (RUMFLAFD1_RS0111175)
hypothetical protein</title>
			<polygon class=" (RUMFLAFD1_RS0111175)
hypothetical protein" points="74,40 80,10 80,70" fill="rgb(255,255,255)" fill-opacity="1.0" stroke="rgb(0,0,0)" stroke-width="2"  />
		</g>
		<g>
			<title> (RUMFLAFD1_RS0111180)
hypothetical protein</title>
			<polygon class=" (RUMFLAFD1_RS0111180)
hypothetical protein" points="84,40 90,10 90,70" fill="rgb(255,255,255)" fill-opacity="1.0" stroke="rgb(0,0,0)" stroke-width="2"  />
		</g>
		<g>
			<title> (RUMFLAFD1_RS0111185)
hypothetical protein</title>
			<polygon class=" (RUMFLAFD1_RS0111185)
hypothetical protein" points="94,40 100,10 100,70" fill="rgb(255,255,255)" fill-opacity="1.0" stroke="rgb(0,0,0)" stroke-width="2"  />
		</g>
		<g>
			<title> (RUMFLAFD1_RS0111190)
hypothetical protein</title>
			<polygon class=" (RUMFLAFD1_RS0111190)
hypothetical protein" points="103,40 109,10 109,70" fill="rgb(255,255,255)" fill-opacity="1.0" stroke="rgb(0,0,0)" stroke-width="2"  />
		</g>
		<g>
			<title> (RUMFLAFD1_RS0111195)
hypothetical protein</title>
			<polygon class=" (RUMFLAFD1_RS0111195)
hypothetical protein" points="115,40 121,10 121,70" fill="rgb(255,255,255)" fill-opacity="1.0" stroke="rgb(0,0,0)" stroke-width="2"  />
		</g>
		<g>
			<title> (RUMFLAFD1_RS0111200)
peptidase C39</title>
			<polygon class=" (RUMFLAFD1_RS0111200)
peptidase C39" points="199,25 158,25 158,10 128,40 158,70 158,55 199,55" fill="rgb(255,255,255)" fill-opacity="1.0" stroke="rgb(0,0,0)" stroke-width="2"  />
			<g>
				<title>ABC_tran (PF00005)
"ABC transporter"</title>
				<polygon class="PF00005" points="135,37 144,28 149,28 149,52 144,52 135,43" stroke-linejoin="round" width="14" height="24" fill="rgb(46,186,108)" stroke="rgb(36,148,86)" stroke-width="1" opacity="0.75" />
			</g>
			<g>
				<title>ABC_membrane (PF00664)
"ABC transporter transmembrane region"</title>
				<rect class="PF00664" x="156" y="28" stroke-linejoin="round" width="27" height="24" fill="rgb(62,71,183)" stroke="rgb(49,56,146)" stroke-width="1" opacity="0.75" />
			</g>
			<g>
				<title>Peptidase_C39 (PF03412)
"Peptidase C39 family"</title>
				<rect class="PF03412" x="185" y="28" stroke-linejoin="round" width="13" height="24" fill="rgb(93,118,202)" stroke="rgb(74,94,161)" stroke-width="1" opacity="0.75" />
			</g>
		</g>
		<g>
			<title> (RUMFLAFD1_RS0111205)
Lanthionine synthetase C family protein</title>
			<polygon class=" (RUMFLAFD1_RS0111205)
Lanthionine synthetase C family protein" points="302,25 230,25 230,10 200,40 230,70 230,55 302,55" fill="rgb(255,255,255)" fill-opacity="1.0" stroke="rgb(0,0,0)" stroke-width="2"  />
			<g>
				<title>LANC_like (PF05147)
"Lanthionine synthetase C-like protein"</title>
				<polygon class="PF05147" points="204,40 216,28 235,28 235,52 216,52" stroke-linejoin="round" width="35" height="24" fill="rgb(91,189,96)" stroke="rgb(72,151,76)" stroke-width="1" opacity="0.75" />
			</g>
			<g>
				<title>DUF4135 (PF13575)
"Domain of unknown function (DUF4135)"</title>
				<rect class="PF13575" x="247" y="28" stroke-linejoin="round" width="37" height="24" fill="rgb(170,90,215)" stroke="rgb(135,72,172)" stroke-width="1" opacity="0.75" />
			</g>
		</g>
		<g>
			<title> (RUMFLAFD1_RS0111210)
lantibiotic mersacidin modifying enzyme</title>
			<polygon class=" (RUMFLAFD1_RS0111210)
lantibiotic mersacidin modifying enzyme" points="398,25 331,25 331,10 301,40 331,70 331,55 398,55" fill="rgb(255,255,255)" fill-opacity="1.0" stroke="rgb(0,0,0)" stroke-width="2"  />
			<g>
				<title>LANC_like (PF05147)
"Lanthionine synthetase C-like protein"</title>
				<polygon class="PF05147" points="305,40 317,28 337,28 337,52 317,52" stroke-linejoin="round" width="34" height="24" fill="rgb(91,189,96)" stroke="rgb(72,151,76)" stroke-width="1" opacity="0.75" />
			</g>
			<g>
				<title>DUF4135 (PF13575)
"Domain of unknown function (DUF4135)"</title>
				<rect class="PF13575" x="349" y="28" stroke-linejoin="round" width="37" height="24" fill="rgb(170,90,215)" stroke="rgb(135,72,172)" stroke-width="1" opacity="0.75" />
			</g>
		</g>
		<g>
			<title> (RUMFLAFD1_RS0111215)
hypothetical protein</title>
			<polygon class=" (RUMFLAFD1_RS0111215)
hypothetical protein" points="398,40 408,10 408,70" fill="rgb(255,255,255)" fill-opacity="1.0" stroke="rgb(0,0,0)" stroke-width="2"  />
		</g>
		<g>
			<title> (RUMFLAFD1_RS0111220)
ABC transporter permease</title>
			<polygon class=" (RUMFLAFD1_RS0111220)
ABC transporter permease" points="408,40 433,10 433,70" fill="rgb(255,255,255)" fill-opacity="1.0" stroke="rgb(0,0,0)" stroke-width="2"  />
			<g>
				<title>ABC2_membrane_4 (PF12730)
"ABC-2 family transporter protein"</title>
				<polygon class="PF12730" points="415,36 422,28 432,28 432,52 422,52 415,44" stroke-linejoin="round" width="17" height="24" fill="rgb(161,62,179)" stroke="rgb(128,49,143)" stroke-width="1" opacity="0.75" />
			</g>
		</g>
		<g>
			<title> (RUMFLAFD1_RS0111225)
hypothetical protein</title>
			<polygon class=" (RUMFLAFD1_RS0111225)
hypothetical protein" points="433,40 457,10 457,70" fill="rgb(255,255,255)" fill-opacity="1.0" stroke="rgb(0,0,0)" stroke-width="2"  />
		</g>
		<g>
			<title> (RUMFLAFD1_RS0111230)
multidrug ABC transporter</title>
			<polygon class=" (RUMFLAFD1_RS0111230)
multidrug ABC transporter" points="488,25 488,25 488,10 458,40 488,70 488,55 488,55" fill="rgb(255,255,255)" fill-opacity="1.0" stroke="rgb(0,0,0)" stroke-width="2"  />
			<g>
				<title>ABC_tran (PF00005)
"ABC transporter"</title>
				<polygon class="PF00005" points="472,30 474,28 486,28 486,52 474,52 472,50" stroke-linejoin="round" width="14" height="24" fill="rgb(46,186,108)" stroke="rgb(36,148,86)" stroke-width="1" opacity="0.75" />
			</g>
		</g>
		<g>
			<title> (RUMFLAFD1_RS22795)
metal-dependent hydrolase</title>
			<polygon class=" (RUMFLAFD1_RS22795)
metal-dependent hydrolase" points="498,40 522,10 522,70" fill="rgb(255,255,255)" fill-opacity="1.0" stroke="rgb(0,0,0)" stroke-width="2"  />
			<g>
				<title>Lactamase_B_3 (PF13483)
"Beta-lactamase superfamily domain"</title>
				<polygon class="PF13483" points="504,38 512,28 521,28 521,52 512,52 504,42" stroke-linejoin="round" width="17" height="24" fill="rgb(217,192,106)" stroke="rgb(173,153,84)" stroke-width="1" opacity="0.75" />
			</g>
		</g>
	</g>
</svg>
