<svg version="1.1" baseProfile="full" xmlns="http://www.w3.org/2000/svg" width="209.96666666666667" height="80">
	<g>
		<line x1="10" y1="40.0" x2="199.96666666666667" y2="40.0" style="stroke:rgb(70,70,70); stroke-width:3 "/>
		<g>
			<title>waaA
WaaA</title>
			<polygon class="waaA
WaaA" points="62,25 50,25 50,10 20,40 50,70 50,55 62,55" fill="rgb(255,255,255)" fill-opacity="1.0" stroke="rgb(0,0,0)" stroke-width="2"  />
			<g>
				<title>Glycos_transf_1 (PF00534)
"Glycosyl transferases group 1"</title>
				<polygon class="PF00534" points="24,40 36,28 37,28 37,52 36,52" stroke-linejoin="round" width="15" height="24" fill="rgb(66,178,218)" stroke="rgb(52,142,174)" stroke-width="1" opacity="0.75" />
			</g>
			<g>
				<title>Glycos_transf_N (PF04413)
"3-Deoxy-D-manno-octulosonic-acid transferase (kdotransferase)"</title>
				<rect class="PF04413" x="41" y="28" stroke-linejoin="round" width="17" height="24" fill="rgb(169,210,76)" stroke="rgb(135,168,60)" stroke-width="1" opacity="0.75" />
			</g>
		</g>
		<g>
			<title>wahF
WahF</title>
			<polygon class="wahF
WahF" points="100,25 92,25 92,10 62,40 92,70 92,55 100,55" fill="rgb(255,255,255)" fill-opacity="1.0" stroke="rgb(0,0,0)" stroke-width="2"  />
			<g>
				<title>Glyco_transf_9 (PF01075)
"Glycosyltransferase family 9 (heptosyltransferase)"</title>
				<polygon class="PF01075" points="66,40 78,28 91,28 91,52 78,52 66,40" stroke-linejoin="round" width="25" height="24" fill="rgb(188,85,172)" stroke="rgb(150,67,137)" stroke-width="1" opacity="0.75" />
			</g>
		</g>
		<g>
			<title>waaE
WaaE</title>
			<polygon class="waaE
WaaE" points="108,10 134,40 108,70" fill="rgb(255,255,255)" fill-opacity="1.0" stroke="rgb(0,0,0)" stroke-width="2"  />
			<g>
				<title>Glycos_transf_2 (PF00535)
"Glycosyl transferase family 2"</title>
				<polygon class="PF00535" points="108,28 120,28 122,31 122,49 120,52 108,52" stroke-linejoin="round" width="14" height="24" fill="rgb(197,62,212)" stroke="rgb(157,49,169)" stroke-width="1" opacity="0.75" />
			</g>
		</g>
		<g>
			<title>waaF
WaaF</title>
			<polygon class="waaF
WaaF" points="170,25 166,25 166,10 136,40 166,70 166,55 170,55" fill="rgb(255,255,255)" fill-opacity="1.0" stroke="rgb(0,0,0)" stroke-width="2"  />
			<g>
				<title>Glyco_transf_9 (PF01075)
"Glycosyltransferase family 9 (heptosyltransferase)"</title>
				<polygon class="PF01075" points="140,40 152,28 163,28 163,52 152,52" stroke-linejoin="round" width="25" height="24" fill="rgb(188,85,172)" stroke="rgb(150,67,137)" stroke-width="1" opacity="0.75" />
			</g>
		</g>
		<g>
			<title>coaD
CoaD</title>
			<polygon class="coaD
CoaD" points="173,10 194,40 173,70" fill="rgb(255,255,255)" fill-opacity="1.0" stroke="rgb(0,0,0)" stroke-width="2"  />
			<g>
				<title>CTP_transf_like (PF01467)
"Cytidylyltransferase-like"</title>
				<polygon class="PF01467" points="179,28 182,28 190,40 182,52 179,52" stroke-linejoin="round" width="12" height="24" fill="rgb(182,79,133)" stroke="rgb(145,63,106)" stroke-width="1" opacity="0.75" />
			</g>
		</g>
	</g>
</svg>
