<svg version="1.1" baseProfile="full" xmlns="http://www.w3.org/2000/svg" width="1594.8" height="80">
	<g>
		<line x1="10" y1="40.0" x2="1584.8" y2="40.0" style="stroke:rgb(70,70,70); stroke-width:3 "/>
		<g>
			<title> (PEXP_030460)
FAD linked oxidase, N-terminal</title>
			<polygon class=" (PEXP_030460)
FAD linked oxidase, N-terminal" points="85,25 40,25 40,10 10,40 40,70 40,55 85,55" fill="rgb(255,255,255)" fill-opacity="1.0" stroke="rgb(0,0,0)" stroke-width="2"  />
			<g>
				<title>BBE (PF08031)
"Berberine and berberine like"</title>
				<rect class="PF08031" x="48" y="28" stroke-linejoin="round" width="4" height="24" fill="rgb(56,179,213)" stroke="rgb(44,143,170)" stroke-width="1" opacity="0.75" />
			</g>
			<g>
				<title>FAD_binding_4 (PF01565)
"FAD binding domain"</title>
				<rect class="PF01565" x="68" y="28" stroke-linejoin="round" width="14" height="24" fill="rgb(194,197,94)" stroke="rgb(155,157,75)" stroke-width="1" opacity="0.75" />
			</g>
		</g>
		<g>
			<title> (PEXP_030470)
Pyridoxal phosphate-dependent decarboxylase</title>
			<polygon class=" (PEXP_030470)
Pyridoxal phosphate-dependent decarboxylase" points="123,25 138,25 138,10 168,40 138,70 138,55 123,55" fill="rgb(255,255,255)" fill-opacity="1.0" stroke="rgb(0,0,0)" stroke-width="2"  />
			<g>
				<title>Pyridoxal_deC (PF00282)
"Pyridoxal-dependent decarboxylase conserved domain"</title>
				<polygon class="PF00282" points="124,28 152,28 159,35 159,45 152,52 124,52" stroke-linejoin="round" width="35" height="24" fill="rgb(63,107,182)" stroke="rgb(50,85,145)" stroke-width="1" opacity="0.75" />
			</g>
		</g>
		<g>
			<title> (PEXP_030480)
Cytochrome P450</title>
			<polygon class=" (PEXP_030480)
Cytochrome P450" points="250,25 220,25 220,10 190,40 220,70 220,55 250,55" fill="rgb(255,255,255)" fill-opacity="1.0" stroke="rgb(0,0,0)" stroke-width="2"  />
			<g>
				<title>p450 (PF00067)
"Cytochrome P450"</title>
				<polygon class="PF00067" points="201,33 206,28 236,28 236,52 206,52 201,47" stroke-linejoin="round" width="35" height="24" fill="rgb(195,210,54)" stroke="rgb(155,168,43)" stroke-width="1" opacity="0.75" />
			</g>
		</g>
		<g>
			<title> (PEXP_030490)
Catalase, mono-functional, heme-containing</title>
			<polygon class=" (PEXP_030490)
Catalase, mono-functional, heme-containing" points="312,25 330,25 330,10 360,40 330,70 330,55 312,55" fill="rgb(255,255,255)" fill-opacity="1.0" stroke="rgb(0,0,0)" stroke-width="2"  />
			<g>
				<title>Catalase (PF00199)
"Catalase"</title>
				<polygon class="PF00199" points="312,28 344,28 348,32 348,48 344,52 312,52" stroke-linejoin="round" width="36" height="24" fill="rgb(224,57,145)" stroke="rgb(179,45,115)" stroke-width="1" opacity="0.75" />
			</g>
		</g>
		<g>
			<title> (PEXP_030500)
Methyltransferase type 11</title>
			<polygon class=" (PEXP_030500)
Methyltransferase type 11" points="384,40 411,10 411,70" fill="rgb(255,255,255)" fill-opacity="1.0" stroke="rgb(0,0,0)" stroke-width="2"  />
			<g>
				<title>Methyltransf_11 (PF08241)
"Methyltransferase domain"</title>
				<polygon class="PF08241" points="393,35 399,28 402,28 402,52 399,52 393,45" stroke-linejoin="round" width="9" height="24" fill="rgb(201,85,64)" stroke="rgb(160,68,51)" stroke-width="1" opacity="0.75" />
			</g>
		</g>
		<g>
			<title> (PEXP_030510)
Aromatic prenyltransferase, DMATS type</title>
			<polygon class=" (PEXP_030510)
Aromatic prenyltransferase, DMATS type" points="465,25 484,25 484,10 514,40 484,70 484,55 465,55" fill="rgb(255,255,255)" fill-opacity="1.0" stroke="rgb(0,0,0)" stroke-width="2"  />
			<g>
				<title>Trp_DMAT (PF11991)
"Tryptophan dimethylallyltransferase"</title>
				<polygon class="PF11991" points="467,28 498,28 502,32 502,48 498,52 467,52" stroke-linejoin="round" width="35" height="24" fill="rgb(65,157,207)" stroke="rgb(51,125,165)" stroke-width="1" opacity="0.75" />
			</g>
		</g>
		<g>
			<title> (PEXP_030520)
AMP-dependent synthetase/ligase</title>
			<polygon class=" (PEXP_030520)
AMP-dependent synthetase/ligase" points="626,25 592,25 592,10 562,40 592,70 592,55 626,55" fill="rgb(255,255,255)" fill-opacity="1.0" stroke="rgb(0,0,0)" stroke-width="2"  />
			<g>
				<title>AMP-binding_C (PF13193)
"AMP-binding enzyme C-terminal domain"</title>
				<rect class="PF13193" x="580" y="28" stroke-linejoin="round" width="8" height="24" fill="rgb(195,82,106)" stroke="rgb(156,65,84)" stroke-width="1" opacity="0.75" />
			</g>
			<g>
				<title>AMP-binding (PF00501)
"AMP-binding enzyme"</title>
				<rect class="PF00501" x="593" y="28" stroke-linejoin="round" width="20" height="24" fill="rgb(189,78,204)" stroke="rgb(151,62,163)" stroke-width="1" opacity="0.75" />
			</g>
			<g>
				<title>AMP-binding (PF00501)
"AMP-binding enzyme"</title>
				<rect class="PF00501" x="614" y="28" stroke-linejoin="round" width="9" height="24" fill="rgb(189,78,204)" stroke="rgb(151,62,163)" stroke-width="1" opacity="0.75" />
			</g>
		</g>
		<g>
			<title> (PEXP_030530)
Serine hydrolase FSH</title>
			<polygon class=" (PEXP_030530)
Serine hydrolase FSH" points="657,40 681,10 681,70" fill="rgb(255,255,255)" fill-opacity="1.0" stroke="rgb(0,0,0)" stroke-width="2"  />
			<g>
				<title>FSH1 (PF03959)
"Serine hydrolase (FSH1)"</title>
				<polygon class="PF03959" points="661,40 671,28 677,28 677,52 671,52" stroke-linejoin="round" width="19" height="24" fill="rgb(93,205,174)" stroke="rgb(74,164,139)" stroke-width="1" opacity="0.75" />
			</g>
		</g>
		<g>
			<title> (PEXP_030540)
Acyl transferase/acyl hydrolase/lysophospholipase</title>
			<polygon class=" (PEXP_030540)
Acyl transferase/acyl hydrolase/lysophospholipase" points="718,25 939,25 939,10 969,40 939,70 939,55 718,55" fill="rgb(255,255,255)" fill-opacity="1.0" stroke="rgb(0,0,0)" stroke-width="2"  />
			<g>
				<title>ketoacyl-synt (PF00109)
"Beta-ketoacyl synthase, N-terminal domain"</title>
				<rect class="PF00109" x="719" y="28" stroke-linejoin="round" width="25" height="24" fill="rgb(74,179,82)" stroke="rgb(59,143,65)" stroke-width="1" opacity="0.75" />
			</g>
			<g>
				<title>Ketoacyl-synt_C (PF02801)
"Beta-ketoacyl synthase, C-terminal domain"</title>
				<rect class="PF02801" x="745" y="28" stroke-linejoin="round" width="11" height="24" fill="rgb(212,79,72)" stroke="rgb(169,63,57)" stroke-width="1" opacity="0.75" />
			</g>
			<g>
				<title>KAsynt_C_assoc (PF16197)
"Ketoacyl-synthetase C-terminal extension"</title>
				<rect class="PF16197" x="757" y="28" stroke-linejoin="round" width="12" height="24" fill="rgb(200,86,70)" stroke="rgb(160,68,56)" stroke-width="1" opacity="0.75" />
			</g>
			<g>
				<title>Acyl_transf_1 (PF00698)
"Acyl transferase domain"</title>
				<rect class="PF00698" x="772" y="28" stroke-linejoin="round" width="33" height="24" fill="rgb(132,93,193)" stroke="rgb(105,74,154)" stroke-width="1" opacity="0.75" />
			</g>
			<g>
				<title>PKS_DH_N (PF21089)
"Polyketide synthase dehydratase domain"</title>
				<rect class="PF21089" x="811" y="28" stroke-linejoin="round" width="10" height="24" fill="rgb(67,151,200)" stroke="rgb(53,120,160)" stroke-width="1" opacity="0.75" />
			</g>
			<g>
				<title>PS-DH (PF14765)
"Polyketide synthase dehydratase N-terminal domain"</title>
				<rect class="PF14765" x="826" y="28" stroke-linejoin="round" width="14" height="24" fill="rgb(189,61,178)" stroke="rgb(151,48,142)" stroke-width="1" opacity="0.75" />
			</g>
			<g>
				<title>KR (PF08659)
"KR domain"</title>
				<rect class="PF08659" x="918" y="28" stroke-linejoin="round" width="17" height="24" fill="rgb(203,145,81)" stroke="rgb(162,116,64)" stroke-width="1" opacity="0.75" />
			</g>
			<g>
				<title>PP-binding (PF00550)
"Phosphopantetheine attachment site"</title>
				<rect class="PF00550" x="946" y="28" stroke-linejoin="round" width="6" height="24" fill="rgb(181,58,166)" stroke="rgb(144,46,132)" stroke-width="1" opacity="0.75" />
			</g>
		</g>
		<g>
			<title> (PEXP_030550)
Phytanoyl-CoA dioxygenase</title>
			<polygon class=" (PEXP_030550)
Phytanoyl-CoA dioxygenase" points="1059,25 1052,25 1052,10 1022,40 1052,70 1052,55 1059,55" fill="rgb(255,255,255)" fill-opacity="1.0" stroke="rgb(0,0,0)" stroke-width="2"  />
			<g>
				<title>PhyH (PF05721)
"Phytanoyl-CoA dioxygenase (PhyH)"</title>
				<polygon class="PF05721" points="1034,32 1038,28 1054,28 1054,52 1038,52 1034,48" stroke-linejoin="round" width="20" height="24" fill="rgb(186,53,95)" stroke="rgb(148,42,76)" stroke-width="1" opacity="0.75" />
			</g>
		</g>
		<g>
			<title> (PEXP_030560)
Transferase</title>
			<polygon class=" (PEXP_030560)
Transferase" points="1139,25 1123,25 1123,10 1093,40 1123,70 1123,55 1139,55" fill="rgb(255,255,255)" fill-opacity="1.0" stroke="rgb(0,0,0)" stroke-width="2"  />
			<g>
				<title>Transferase (PF02458)
"Transferase family"</title>
				<polygon class="PF02458" points="1097,40 1109,28 1126,28 1126,52 1109,52" stroke-linejoin="round" width="33" height="24" fill="rgb(183,146,88)" stroke="rgb(146,116,70)" stroke-width="1" opacity="0.75" />
			</g>
		</g>
		<g>
			<title> (PEXP_030570)
Major facilitator superfamily domain, general substrate transporter</title>
			<polygon class=" (PEXP_030570)
Major facilitator superfamily domain, general substrate transporter" points="1243,25 1210,25 1210,10 1180,40 1210,70 1210,55 1243,55" fill="rgb(255,255,255)" fill-opacity="1.0" stroke="rgb(0,0,0)" stroke-width="2"  />
			<g>
				<title>MFS_1 (PF07690)
"Major Facilitator Superfamily"</title>
				<rect class="PF07690" x="1202" y="28" stroke-linejoin="round" width="26" height="24" fill="rgb(228,207,98)" stroke="rgb(182,165,78)" stroke-width="1" opacity="0.75" />
			</g>
		</g>
		<g>
			<title> (PEXP_030580)
Taurine catabolism dioxygenase TauD/TfdA</title>
			<polygon class=" (PEXP_030580)
Taurine catabolism dioxygenase TauD/TfdA" points="1258,25 1275,25 1275,10 1305,40 1275,70 1275,55 1258,55" fill="rgb(255,255,255)" fill-opacity="1.0" stroke="rgb(0,0,0)" stroke-width="2"  />
			<g>
				<title>TauD (PF02668)
"Taurine catabolism dioxygenase TauD, TfdA family"</title>
				<polygon class="PF02668" points="1263,28 1289,28 1290,29 1290,51 1289,52 1263,52" stroke-linejoin="round" width="27" height="24" fill="rgb(72,206,196)" stroke="rgb(57,164,156)" stroke-width="1" opacity="0.75" />
			</g>
		</g>
		<g>
			<title> (PEXP_030590)
Aldolase-type TIM barrel</title>
			<polygon class=" (PEXP_030590)
Aldolase-type TIM barrel" points="1429,25 1337,25 1337,10 1307,40 1337,70 1337,55 1429,55" fill="rgb(255,255,255)" fill-opacity="1.0" stroke="rgb(0,0,0)" stroke-width="2"  />
			<g>
				<title>Fungal_trans (PF04082)
"Fungal specific transcription factor domain"</title>
				<rect class="PF04082" x="1352" y="28" stroke-linejoin="round" width="24" height="24" fill="rgb(214,73,227)" stroke="rgb(171,58,181)" stroke-width="1" opacity="0.75" />
			</g>
			<g>
				<title>DHDPS (PF00701)
"Dihydrodipicolinate synthetase family"</title>
				<rect class="PF00701" x="1399" y="28" stroke-linejoin="round" width="29" height="24" fill="rgb(218,109,91)" stroke="rgb(174,87,72)" stroke-width="1" opacity="0.75" />
			</g>
		</g>
		<g>
			<title> (PEXP_030600)
Major facilitator superfamily domain, general substrate transporter</title>
			<polygon class=" (PEXP_030600)
Major facilitator superfamily domain, general substrate transporter" points="1525,25 1491,25 1491,10 1461,40 1491,70 1491,55 1525,55" fill="rgb(255,255,255)" fill-opacity="1.0" stroke="rgb(0,0,0)" stroke-width="2"  />
			<g>
				<title>MFS_1 (PF07690)
"Major Facilitator Superfamily"</title>
				<rect class="PF07690" x="1480" y="28" stroke-linejoin="round" width="37" height="24" fill="rgb(228,207,98)" stroke="rgb(182,165,78)" stroke-width="1" opacity="0.75" />
			</g>
		</g>
		<g>
			<title> (PEXP_030610)
Taurine catabolism dioxygenase TauD/TfdA</title>
			<polygon class=" (PEXP_030610)
Taurine catabolism dioxygenase TauD/TfdA" points="1541,25 1554,25 1554,10 1584,40 1554,70 1554,55 1541,55" fill="rgb(255,255,255)" fill-opacity="1.0" stroke="rgb(0,0,0)" stroke-width="2"  />
			<g>
				<title>TauD (PF02668)
"Taurine catabolism dioxygenase TauD, TfdA family"</title>
				<polygon class="PF02668" points="1547,28 1567,28 1574,35 1574,45 1567,52 1547,52" stroke-linejoin="round" width="27" height="24" fill="rgb(72,206,196)" stroke="rgb(57,164,156)" stroke-width="1" opacity="0.75" />
			</g>
		</g>
	</g>
</svg>
