<svg version="1.1" baseProfile="full" xmlns="http://www.w3.org/2000/svg" width="2123.866666666667" height="240">
	<g>
		<line x1="10" y1="40.0" x2="2113.866666666667" y2="40.0" style="stroke:rgb(70,70,70); stroke-width:3 "/>
		<g>
			<title>lolC
LolC</title>
			<polygon class="lolC
LolC" points="587,25 617,25 617,10 647,40 617,70 617,55 587,55" fill="rgb(255,255,255)" fill-opacity="1.0" stroke="rgb(0,0,0)" stroke-width="2"  />
			<g>
				<title>Cys_Met_Meta_PP (PF01053)
"Cys/Met metabolism PLP-dependent enzyme"</title>
				<rect class="PF01053" x="589" y="28" stroke-linejoin="round" width="41" height="24" fill="rgb(155,84,222)" stroke="rgb(124,67,177)" stroke-width="1" opacity="0.75" />
			</g>
		</g>
		<g>
			<title>lolD
LolD</title>
			<polygon class="lolD
LolD" points="687,25 707,25 707,10 737,40 707,70 707,55 687,55" fill="rgb(255,255,255)" fill-opacity="1.0" stroke="rgb(0,0,0)" stroke-width="2"  />
			<g>
				<title>Orn_Arg_deC_N (PF02784)
"Pyridoxal-dependent decarboxylase, pyridoxal binding domain"</title>
				<rect class="PF02784" x="690" y="28" stroke-linejoin="round" width="23" height="24" fill="rgb(92,174,185)" stroke="rgb(73,139,148)" stroke-width="1" opacity="0.75" />
			</g>
		</g>
		<g>
			<title>lolO
LolO</title>
			<polygon class="lolO
LolO" points="797,25 788,25 788,10 758,40 788,70 788,55 797,55" fill="rgb(255,255,255)" fill-opacity="1.0" stroke="rgb(0,0,0)" stroke-width="2"  />
			<g>
				<title>2OG-FeII_Oxy (PF03171)
"2OG-Fe(II) oxygenase superfamily"</title>
				<polygon class="PF03171" points="766,36 774,28 777,28 777,52 774,52 766,44" stroke-linejoin="round" width="11" height="24" fill="rgb(182,163,77)" stroke="rgb(145,130,61)" stroke-width="1" opacity="0.75" />
			</g>
			<g>
				<title>DIOX_N (PF14226)
"non-haem dioxygenase in morphine synthesis N-terminal"</title>
				<rect class="PF14226" x="784" y="28" stroke-linejoin="round" width="12" height="24" fill="rgb(193,95,155)" stroke="rgb(154,76,124)" stroke-width="1" opacity="0.75" />
			</g>
		</g>
		<g>
			<title>lolA
LolA</title>
			<polygon class="lolA
LolA" points="825,10 848,40 825,70" fill="rgb(255,255,255)" fill-opacity="1.0" stroke="rgb(0,0,0)" stroke-width="2"  />
		</g>
		<g>
			<title>lolU
LolU</title>
			<polygon class="lolU
LolU" points="905,25 885,25 885,10 855,40 885,70 885,55 905,55" fill="rgb(255,255,255)" fill-opacity="1.0" stroke="rgb(0,0,0)" stroke-width="2"  />
		</g>
		<g>
			<title>lolP
LolP</title>
			<polygon class="lolP
LolP" points="939,25 968,25 968,10 998,40 968,70 968,55 939,55" fill="rgb(255,255,255)" fill-opacity="1.0" stroke="rgb(0,0,0)" stroke-width="2"  />
			<g>
				<title>p450 (PF00067)
"Cytochrome P450"</title>
				<polygon class="PF00067" points="942,28 982,28 987,33 987,47 982,52 942,52" stroke-linejoin="round" width="45" height="24" fill="rgb(195,210,54)" stroke="rgb(155,168,43)" stroke-width="1" opacity="0.75" />
			</g>
		</g>
		<g>
			<title>lolT
LolT</title>
			<polygon class="lolT
LolT" points="1064,25 1043,25 1043,10 1013,40 1043,70 1043,55 1064,55" fill="rgb(255,255,255)" fill-opacity="1.0" stroke="rgb(0,0,0)" stroke-width="2"  />
			<g>
				<title>Aminotran_5 (PF00266)
"Aminotransferase class-V"</title>
				<rect class="PF00266" x="1038" y="28" stroke-linejoin="round" width="23" height="24" fill="rgb(61,141,184)" stroke="rgb(48,112,147)" stroke-width="1" opacity="0.75" />
			</g>
		</g>
		<g>
			<title>lolE
LolE</title>
			<polygon class="lolE
LolE" points="1080,10 1108,40 1080,70" fill="rgb(255,255,255)" fill-opacity="1.0" stroke="rgb(0,0,0)" stroke-width="2"  />
			<g>
				<title>PhyH (PF05721)
"Phytanoyl-CoA dioxygenase (PhyH)"</title>
				<polygon class="PF05721" points="1081,28 1092,28 1100,36 1100,44 1092,52 1081,52" stroke-linejoin="round" width="19" height="24" fill="rgb(186,53,95)" stroke="rgb(148,42,76)" stroke-width="1" opacity="0.75" />
			</g>
		</g>
	</g>
	<g>
		<line x1="10" y1="120.0" x2="1316.8666666666666" y2="120.0" style="stroke:rgb(70,70,70); stroke-width:3 "/>
		<g>
			<title>lolF
LolF</title>
			<polygon class="lolF
LolF" points="442,105 414,105 414,90 384,120 414,150 414,135 442,135" fill="rgb(255,255,255)" fill-opacity="1.0" stroke="rgb(0,0,0)" stroke-width="2"  />
		</g>
	</g>
	<g>
		<line x1="10" y1="200.0" x2="1140.4" y2="200.0" style="stroke:rgb(70,70,70); stroke-width:3 "/>
		<g>
			<title>lolN
LolN</title>
			<polygon class="lolN
LolN" points="362,185 326,185 326,170 296,200 326,230 326,215 362,215" fill="rgb(255,255,255)" fill-opacity="1.0" stroke="rgb(0,0,0)" stroke-width="2"  />
		</g>
		<g>
			<title>lolM
LolM</title>
			<polygon class="lolM
LolM" points="392,170 420,200 392,230" fill="rgb(255,255,255)" fill-opacity="1.0" stroke="rgb(0,0,0)" stroke-width="2"  />
		</g>
	</g>
</svg>
