<svg version="1.1" baseProfile="full" xmlns="http://www.w3.org/2000/svg" width="570.6333333333333" height="80">
	<g>
		<line x1="10" y1="40.0" x2="560.6333333333333" y2="40.0" style="stroke:rgb(70,70,70); stroke-width:3 "/>
		<g>
			<title>
hypothetical protein</title>
			<polygon class="
hypothetical protein" points="10,25 15,25 15,10 45,40 15,70 15,55 10,55" fill="rgb(255,255,255)" fill-opacity="1.0" stroke="rgb(0,0,0)" stroke-width="2"  />
		</g>
		<g>
			<title>
hypothetical protein</title>
			<polygon class="
hypothetical protein" points="47,10 57,40 47,70" fill="rgb(255,255,255)" fill-opacity="1.0" stroke="rgb(0,0,0)" stroke-width="2"  />
			<g>
				<title>DUF5962 (PF19387)
"Family of unknown function (DUF5962)"</title>
				<polygon class="PF19387" points="47,28 49,28 53,40 49,52 47,52" stroke-linejoin="round" width="9" height="24" fill="rgb(214,101,60)" stroke="rgb(171,80,47)" stroke-width="1" opacity="0.75" />
			</g>
		</g>
		<g>
			<title>
hypothetical protein</title>
			<polygon class="
hypothetical protein" points="57,10 66,40 57,70" fill="rgb(255,255,255)" fill-opacity="1.0" stroke="rgb(0,0,0)" stroke-width="2"  />
			<g>
				<title>DUF5966 (PF19391)
"Family of unknown function (DUF5966)"</title>
				<polygon class="PF19391" points="57,28 59,28 63,40 59,52 57,52" stroke-linejoin="round" width="9" height="24" fill="rgb(86,187,76)" stroke="rgb(68,149,60)" stroke-width="1" opacity="0.75" />
			</g>
		</g>
		<g>
			<title>tepA
thermophilin 1277</title>
			<polygon class="tepA
thermophilin 1277" points="72,10 77,40 72,70" fill="rgb(255,255,255)" fill-opacity="1.0" stroke="rgb(0,0,0)" stroke-width="2"  />
			<g>
				<title>L_biotic_typeA (PF04604)
"Type-A lantibiotic"</title>
				<polygon class="PF04604" points="72,28 72,28 74,40 72,52 72,52" stroke-linejoin="round" width="5" height="24" fill="rgb(103,168,227)" stroke="rgb(82,134,181)" stroke-width="1" opacity="0.75" />
			</g>
		</g>
		<g>
			<title>tepM
hypothetical bacteriocin modified enzyme</title>
			<polygon class="tepM
hypothetical bacteriocin modified enzyme" points="80,25 133,25 133,10 163,40 133,70 133,55 80,55" fill="rgb(255,255,255)" fill-opacity="1.0" stroke="rgb(0,0,0)" stroke-width="2"  />
			<g>
				<title>DUF4135 (PF13575)
"Domain of unknown function (DUF4135)"</title>
				<rect class="PF13575" x="90" y="28" stroke-linejoin="round" width="36" height="24" fill="rgb(170,90,215)" stroke="rgb(135,72,172)" stroke-width="1" opacity="0.75" />
			</g>
			<g>
				<title>LANC_like (PF05147)
"Lanthionine synthetase C-like protein"</title>
				<polygon class="PF05147" points="133,28 147,28 159,40 147,52 133,52" stroke-linejoin="round" width="29" height="24" fill="rgb(91,189,96)" stroke="rgb(72,151,76)" stroke-width="1" opacity="0.75" />
			</g>
		</g>
		<g>
			<title>tepT
hypothetical bacteriocin transporter</title>
			<polygon class="tepT
hypothetical bacteriocin transporter" points="164,25 202,25 202,10 232,40 202,70 202,55 164,55" fill="rgb(255,255,255)" fill-opacity="1.0" stroke="rgb(0,0,0)" stroke-width="2"  />
			<g>
				<title>Peptidase_C39 (PF03412)
"Peptidase C39 family"</title>
				<rect class="PF03412" x="164" y="28" stroke-linejoin="round" width="12" height="24" fill="rgb(93,118,202)" stroke="rgb(74,94,161)" stroke-width="1" opacity="0.75" />
			</g>
			<g>
				<title>ABC_membrane (PF00664)
"ABC transporter transmembrane region"</title>
				<rect class="PF00664" x="180" y="28" stroke-linejoin="round" width="26" height="24" fill="rgb(62,71,183)" stroke="rgb(49,56,146)" stroke-width="1" opacity="0.75" />
			</g>
			<g>
				<title>ABC_tran (PF00005)
"ABC transporter"</title>
				<polygon class="PF00005" points="212,28 215,28 226,39 226,41 215,52 212,52" stroke-linejoin="round" width="14" height="24" fill="rgb(46,186,108)" stroke="rgb(36,148,86)" stroke-width="1" opacity="0.75" />
			</g>
		</g>
		<g>
			<title>tepF
hypothetical bacteriocin immunity protein</title>
			<polygon class="tepF
hypothetical bacteriocin immunity protein" points="232,25 232,25 232,10 262,40 232,70 232,55 232,55" fill="rgb(255,255,255)" fill-opacity="1.0" stroke="rgb(0,0,0)" stroke-width="2"  />
			<g>
				<title>ABC_tran (PF00005)
"ABC transporter"</title>
				<rect class="PF00005" x="233" y="28" stroke-linejoin="round" width="13" height="24" fill="rgb(46,186,108)" stroke="rgb(36,148,86)" stroke-width="1" opacity="0.75" />
			</g>
		</g>
		<g>
			<title>
hypothetical protein</title>
			<polygon class="
hypothetical protein" points="261,10 285,40 261,70" fill="rgb(255,255,255)" fill-opacity="1.0" stroke="rgb(0,0,0)" stroke-width="2"  />
			<g>
				<title>ABC2_membrane_4 (PF12730)
"ABC-2 family transporter protein"</title>
				<polygon class="PF12730" points="261,28 271,28 279,38 279,42 271,52 261,52" stroke-linejoin="round" width="18" height="24" fill="rgb(161,62,179)" stroke="rgb(128,49,143)" stroke-width="1" opacity="0.75" />
			</g>
		</g>
		<g>
			<title>
hypothetical protein</title>
			<polygon class="
hypothetical protein" points="286,10 309,40 286,70" fill="rgb(255,255,255)" fill-opacity="1.0" stroke="rgb(0,0,0)" stroke-width="2"  />
		</g>
		<g>
			<title>tepK
hypothetical bacteriocin immunity protein</title>
			<polygon class="tepK
hypothetical bacteriocin immunity protein" points="309,25 329,25 329,10 359,40 329,70 329,55 309,55" fill="rgb(255,255,255)" fill-opacity="1.0" stroke="rgb(0,0,0)" stroke-width="2"  />
		</g>
		<g>
			<title>tepR
hypothetical bacteriocin immunity protein</title>
			<polygon class="tepR
hypothetical bacteriocin immunity protein" points="367,10 378,40 367,70" fill="rgb(255,255,255)" fill-opacity="1.0" stroke="rgb(0,0,0)" stroke-width="2"  />
			<g>
				<title>GerE (PF00196)
"Bacterial regulatory proteins, luxR family"</title>
				<polygon class="PF00196" points="372,31 375,40 372,49" stroke-linejoin="round" width="5" height="24" fill="rgb(225,67,110)" stroke="rgb(180,53,88)" stroke-width="1" opacity="0.75" />
			</g>
		</g>
		<g>
			<title>
hypothetical protein</title>
			<polygon class="
hypothetical protein" points="381,10 386,40 381,70" fill="rgb(255,255,255)" fill-opacity="1.0" stroke="rgb(0,0,0)" stroke-width="2"  />
		</g>
		<g>
			<title>
hypothetical protein</title>
			<polygon class="
hypothetical protein" points="387,10 403,40 387,70" fill="rgb(255,255,255)" fill-opacity="1.0" stroke="rgb(0,0,0)" stroke-width="2"  />
		</g>
		<g>
			<title>
hypothetical protein</title>
			<polygon class="
hypothetical protein" points="410,10 431,40 410,70" fill="rgb(255,255,255)" fill-opacity="1.0" stroke="rgb(0,0,0)" stroke-width="2"  />
		</g>
		<g>
			<title>
hypothetical protein</title>
			<polygon class="
hypothetical protein" points="433,25 439,25 439,10 469,40 439,70 439,55 433,55" fill="rgb(255,255,255)" fill-opacity="1.0" stroke="rgb(0,0,0)" stroke-width="2"  />
		</g>
		<g>
			<title>
hypothetical protein</title>
			<polygon class="
hypothetical protein" points="471,10 478,40 471,70" fill="rgb(255,255,255)" fill-opacity="1.0" stroke="rgb(0,0,0)" stroke-width="2"  />
		</g>
		<g>
			<title>
hypothetical protein</title>
			<polygon class="
hypothetical protein" points="479,10 492,40 479,70" fill="rgb(255,255,255)" fill-opacity="1.0" stroke="rgb(0,0,0)" stroke-width="2"  />
			<g>
				<title>DUF5945 (PF19370)
"Family of unknown function (DUF5945)"</title>
				<polygon class="PF19370" points="479,28 483,28 488,40 483,52 479,52" stroke-linejoin="round" width="13" height="24" fill="rgb(91,186,72)" stroke="rgb(72,148,57)" stroke-width="1" opacity="0.75" />
			</g>
		</g>
		<g>
			<title>
hypothetical protein</title>
			<polygon class="
hypothetical protein" points="504,40 514,10 514,70" fill="rgb(255,255,255)" fill-opacity="1.0" stroke="rgb(0,0,0)" stroke-width="2"  />
			<g>
				<title>DUF5960 (PF19385)
"Family of unknown function (DUF5960)"</title>
				<polygon class="PF19385" points="507,40 511,28 512,28 512,52 511,52" stroke-linejoin="round" width="8" height="24" fill="rgb(217,69,211)" stroke="rgb(173,55,168)" stroke-width="1" opacity="0.75" />
			</g>
		</g>
		<g>
			<title>
hypothetical protein</title>
			<polygon class="
hypothetical protein" points="513,40 525,10 525,70" fill="rgb(255,255,255)" fill-opacity="1.0" stroke="rgb(0,0,0)" stroke-width="2"  />
		</g>
		<g>
			<title>
hypothetical protein</title>
			<polygon class="
hypothetical protein" points="556,25 556,25 556,10 526,40 556,70 556,55 556,55" fill="rgb(255,255,255)" fill-opacity="1.0" stroke="rgb(0,0,0)" stroke-width="2"  />
			<g>
				<title>IMS_C (PF11799)
"impB/mucB/samB family C-terminal domain"</title>
				<polygon class="PF11799" points="532,38 542,28 543,28 543,52 542,52 532,42" stroke-linejoin="round" width="11" height="24" fill="rgb(187,165,68)" stroke="rgb(149,132,54)" stroke-width="1" opacity="0.75" />
			</g>
			<g>
				<title>IMS_HHH (PF11798)
"IMS family HHH motif"</title>
				<rect class="PF11798" x="547" y="28" stroke-linejoin="round" width="3" height="24" fill="rgb(217,94,67)" stroke="rgb(173,75,53)" stroke-width="1" opacity="0.75" />
			</g>
		</g>
	</g>
</svg>
