<svg version="1.1" baseProfile="full" xmlns="http://www.w3.org/2000/svg" width="780.0" height="80">
	<g>
		<line x1="10" y1="40.0" x2="770.0" y2="40.0" style="stroke:rgb(70,70,70); stroke-width:3 "/>
		<g>
			<title>
membrane protein</title>
			<polygon class="
membrane protein" points="10,10 25,40 10,70" fill="rgb(255,255,255)" fill-opacity="1.0" stroke="rgb(0,0,0)" stroke-width="2"  />
			<g>
				<title>DoxX (PF07681)
"DoxX"</title>
				<polygon class="PF07681" points="13,28 15,28 21,38 21,42 15,52 13,52" stroke-linejoin="round" width="8" height="24" fill="rgb(220,78,194)" stroke="rgb(176,62,155)" stroke-width="1" opacity="0.75" />
			</g>
		</g>
		<g>
			<title>
hypothetical protein</title>
			<polygon class="
hypothetical protein" points="100,25 57,25 57,10 27,40 57,70 57,55 100,55" fill="rgb(255,255,255)" fill-opacity="1.0" stroke="rgb(0,0,0)" stroke-width="2"  />
			<g>
				<title>YcaO_C (PF18381)
"YcaO cyclodehydratase C-terminal domain"</title>
				<polygon class="PF18381" points="31,40 43,28 44,28 44,52 43,52" stroke-linejoin="round" width="17" height="24" fill="rgb(180,193,69)" stroke="rgb(144,154,55)" stroke-width="1" opacity="0.75" />
			</g>
			<g>
				<title>YcaO (PF02624)
"YcaO cyclodehydratase, ATP-ad Mg2+-binding"</title>
				<rect class="PF02624" x="46" y="28" stroke-linejoin="round" width="33" height="24" fill="rgb(69,185,74)" stroke="rgb(55,148,59)" stroke-width="1" opacity="0.75" />
			</g>
			<g>
				<title>OsmC (PF02566)
"OsmC-like protein"</title>
				<rect class="PF02566" x="87" y="28" stroke-linejoin="round" width="9" height="24" fill="rgb(218,168,103)" stroke="rgb(174,134,82)" stroke-width="1" opacity="0.75" />
			</g>
		</g>
		<g>
			<title>
putative dioxygenase</title>
			<polygon class="
putative dioxygenase" points="105,10 127,40 105,70" fill="rgb(255,255,255)" fill-opacity="1.0" stroke="rgb(0,0,0)" stroke-width="2"  />
			<g>
				<title>PhyH (PF05721)
"Phytanoyl-CoA dioxygenase (PhyH)"</title>
				<polygon class="PF05721" points="105,28 115,28 122,38 122,42 115,52 105,52" stroke-linejoin="round" width="17" height="24" fill="rgb(186,53,95)" stroke="rgb(148,42,76)" stroke-width="1" opacity="0.75" />
			</g>
		</g>
		<g>
			<title>
hypothetical protein</title>
			<polygon class="
hypothetical protein" points="133,40 139,10 139,70" fill="rgb(255,255,255)" fill-opacity="1.0" stroke="rgb(0,0,0)" stroke-width="2"  />
			<g>
				<title>DUF1737 (PF08410)
"Domain of unknown function (DUF1737)"</title>
				<polygon class="PF08410" points="136,40 138,31 138,49" stroke-linejoin="round" width="5" height="24" fill="rgb(124,179,75)" stroke="rgb(99,143,60)" stroke-width="1" opacity="0.75" />
			</g>
		</g>
		<g>
			<title>
hypothetical protein</title>
			<polygon class="
hypothetical protein" points="211,25 182,25 182,10 152,40 182,70 182,55 211,55" fill="rgb(255,255,255)" fill-opacity="1.0" stroke="rgb(0,0,0)" stroke-width="2"  />
			<g>
				<title>Glyco_hydro_15 (PF00723)
"Glycosyl hydrolases family 15"</title>
				<polygon class="PF00723" points="156,40 168,28 189,28 189,52 168,52" stroke-linejoin="round" width="36" height="24" fill="rgb(198,97,207)" stroke="rgb(158,77,165)" stroke-width="1" opacity="0.75" />
			</g>
			<g>
				<title>TREH_N (PF19291)
"Trehalase-like, N-terminal"</title>
				<rect class="PF19291" x="192" y="28" stroke-linejoin="round" width="19" height="24" fill="rgb(186,223,64)" stroke="rgb(148,178,51)" stroke-width="1" opacity="0.75" />
			</g>
		</g>
		<g>
			<title>ppyS
pseudopyronine synthase</title>
			<polygon class="ppyS
pseudopyronine synthase" points="220,25 225,25 225,10 255,40 225,70 225,55 220,55" fill="rgb(255,255,255)" fill-opacity="1.0" stroke="rgb(0,0,0)" stroke-width="2"  />
			<g>
				<title>ACP_syn_III_C (PF08541)
"3-Oxoacyl-[acyl-carrier-protein (ACP)] synthase III C terminal"</title>
				<polygon class="PF08541" points="246,36 250,40 246,44" stroke-linejoin="round" width="8" height="24" fill="rgb(223,111,121)" stroke="rgb(178,88,96)" stroke-width="1" opacity="0.75" />
			</g>
		</g>
		<g>
			<title>
glucose-6-phosphate 1-dehydrogenase</title>
			<polygon class="
glucose-6-phosphate 1-dehydrogenase" points="306,25 287,25 287,10 257,40 287,70 287,55 306,55" fill="rgb(255,255,255)" fill-opacity="1.0" stroke="rgb(0,0,0)" stroke-width="2"  />
			<g>
				<title>G6PD_C (PF02781)
"Glucose-6-phosphate dehydrogenase, C-terminal domain"</title>
				<polygon class="PF02781" points="261,40 273,28 286,28 286,52 273,52" stroke-linejoin="round" width="29" height="24" fill="rgb(225,141,106)" stroke="rgb(180,112,84)" stroke-width="1" opacity="0.75" />
			</g>
			<g>
				<title>G6PD_N (PF00479)
"Glucose-6-phosphate dehydrogenase, NAD binding domain"</title>
				<rect class="PF00479" x="287" y="28" stroke-linejoin="round" width="17" height="24" fill="rgb(67,211,81)" stroke="rgb(53,168,64)" stroke-width="1" opacity="0.75" />
			</g>
		</g>
		<g>
			<title>
6-phosphogluconate dehydrogenase</title>
			<polygon class="
6-phosphogluconate dehydrogenase" points="339,25 337,25 337,10 307,40 337,70 337,55 339,55" fill="rgb(255,255,255)" fill-opacity="1.0" stroke="rgb(0,0,0)" stroke-width="2"  />
			<g>
				<title>6PGD (PF00393)
"6-phosphogluconate dehydrogenase, C-terminal domain"</title>
				<polygon class="PF00393" points="311,40 320,31 320,49" stroke-linejoin="round" width="12" height="24" fill="rgb(70,217,77)" stroke="rgb(56,173,61)" stroke-width="1" opacity="0.75" />
			</g>
			<g>
				<title>NAD_binding_2 (PF03446)
"NAD binding domain of 6-phosphogluconate dehydrogenase"</title>
				<polygon class="PF03446" points="323,28 323,28 338,28 338,52 323,52 323,52" stroke-linejoin="round" width="15" height="24" fill="rgb(119,80,223)" stroke="rgb(95,64,178)" stroke-width="1" opacity="0.75" />
			</g>
		</g>
		<g>
			<title>
hypothetical protein</title>
			<polygon class="
hypothetical protein" points="346,10 351,40 346,70" fill="rgb(255,255,255)" fill-opacity="1.0" stroke="rgb(0,0,0)" stroke-width="2"  />
			<g>
				<title>DUF6026 (PF19491)
"Family of unknown function (DUF6026)"</title>
				<polygon class="PF19491" points="346,27 348,40 346,53" stroke-linejoin="round" width="5" height="24" fill="rgb(190,88,110)" stroke="rgb(152,70,88)" stroke-width="1" opacity="0.75" />
			</g>
		</g>
		<g>
			<title>glgA
glycogen synthase</title>
			<polygon class="glgA
glycogen synthase" points="368,25 390,25 390,10 420,40 390,70 390,55 368,55" fill="rgb(255,255,255)" fill-opacity="1.0" stroke="rgb(0,0,0)" stroke-width="2"  />
			<g>
				<title>Glyco_transf_5 (PF08323)
"Starch synthase catalytic domain"</title>
				<rect class="PF08323" x="372" y="28" stroke-linejoin="round" width="23" height="24" fill="rgb(108,120,218)" stroke="rgb(86,96,174)" stroke-width="1" opacity="0.75" />
			</g>
			<g>
				<title>Glycos_transf_1 (PF00534)
"Glycosyl transferases group 1"</title>
				<polygon class="PF00534" points="400,28 403,28 415,40 415,40 403,52 400,52" stroke-linejoin="round" width="15" height="24" fill="rgb(66,178,218)" stroke="rgb(52,142,174)" stroke-width="1" opacity="0.75" />
			</g>
		</g>
		<g>
			<title>
malto-oligosyltrehalose trehalohydrolase</title>
			<polygon class="
malto-oligosyltrehalose trehalohydrolase" points="421,25 449,25 449,10 479,40 449,70 449,55 421,55" fill="rgb(255,255,255)" fill-opacity="1.0" stroke="rgb(0,0,0)" stroke-width="2"  />
			<g>
				<title>Alpha-amylase (PF00128)
"Alpha amylase, catalytic domain"</title>
				<rect class="PF00128" x="432" y="28" stroke-linejoin="round" width="10" height="24" fill="rgb(58,188,66)" stroke="rgb(46,150,52)" stroke-width="1" opacity="0.75" />
			</g>
			<g>
				<title>DUF3459 (PF11941)
"Domain of unknown function (DUF3459)"</title>
				<polygon class="PF11941" points="469,35 474,40 469,45" stroke-linejoin="round" width="8" height="24" fill="rgb(90,168,222)" stroke="rgb(72,134,177)" stroke-width="1" opacity="0.75" />
			</g>
		</g>
		<g>
			<title>
4-alpha-glucanotransferase</title>
			<polygon class="
4-alpha-glucanotransferase" points="479,25 518,25 518,10 548,40 518,70 518,55 479,55" fill="rgb(255,255,255)" fill-opacity="1.0" stroke="rgb(0,0,0)" stroke-width="2"  />
			<g>
				<title>Glyco_hydro_77 (PF02446)
"4-alpha-glucanotransferase"</title>
				<polygon class="PF02446" points="494,28 531,28 543,40 531,52 494,52" stroke-linejoin="round" width="50" height="24" fill="rgb(201,225,65)" stroke="rgb(160,180,52)" stroke-width="1" opacity="0.75" />
			</g>
		</g>
		<g>
			<title>
malto-oligosyltrehalose synthase</title>
			<polygon class="
malto-oligosyltrehalose synthase" points="548,25 610,25 610,10 640,40 610,70 610,55 548,55" fill="rgb(255,255,255)" fill-opacity="1.0" stroke="rgb(0,0,0)" stroke-width="2"  />
			<g>
				<title>Alpha-amylase (PF00128)
"Alpha amylase, catalytic domain"</title>
				<rect class="PF00128" x="550" y="28" stroke-linejoin="round" width="10" height="24" fill="rgb(58,188,66)" stroke="rgb(46,150,52)" stroke-width="1" opacity="0.75" />
			</g>
		</g>
		<g>
			<title>
hypothetical protein</title>
			<polygon class="
hypothetical protein" points="641,10 649,40 641,70" fill="rgb(255,255,255)" fill-opacity="1.0" stroke="rgb(0,0,0)" stroke-width="2"  />
			<g>
				<title>DUF2934 (PF11154)
"Protein of unknown function (DUF2934)"</title>
				<polygon class="PF11154" points="641,28 642,28 644,31 644,49 642,52 641,52" stroke-linejoin="round" width="3" height="24" fill="rgb(179,149,54)" stroke="rgb(143,119,43)" stroke-width="1" opacity="0.75" />
			</g>
		</g>
		<g>
			<title>glgX
glycogen debranching enzyme</title>
			<polygon class="glgX
glycogen debranching enzyme" points="655,25 696,25 696,10 726,40 696,70 696,55 655,55" fill="rgb(255,255,255)" fill-opacity="1.0" stroke="rgb(0,0,0)" stroke-width="2"  />
			<g>
				<title>CBM_48 (PF02922)
"Carbohydrate-binding module 48 (Isoamylase N-terminal domain)"</title>
				<rect class="PF02922" x="657" y="28" stroke-linejoin="round" width="8" height="24" fill="rgb(97,219,161)" stroke="rgb(77,175,128)" stroke-width="1" opacity="0.75" />
			</g>
			<g>
				<title>Alpha-amylase (PF00128)
"Alpha amylase, catalytic domain"</title>
				<rect class="PF00128" x="674" y="28" stroke-linejoin="round" width="12" height="24" fill="rgb(58,188,66)" stroke="rgb(46,150,52)" stroke-width="1" opacity="0.75" />
			</g>
		</g>
		<g>
			<title>
hypothetical protein</title>
			<polygon class="
hypothetical protein" points="732,10 758,40 732,70" fill="rgb(255,255,255)" fill-opacity="1.0" stroke="rgb(0,0,0)" stroke-width="2"  />
			<g>
				<title>Exo_endo_phos (PF03372)
"Endonuclease/Exonuclease/phosphatase family"</title>
				<polygon class="PF03372" points="734,28 743,28 754,40 743,52 734,52" stroke-linejoin="round" width="23" height="24" fill="rgb(151,50,200)" stroke="rgb(120,40,160)" stroke-width="1" opacity="0.75" />
			</g>
		</g>
	</g>
</svg>
