<svg version="1.1" baseProfile="full" xmlns="http://www.w3.org/2000/svg" width="1189.3333333333333" height="80">
	<g>
		<line x1="10" y1="40.0" x2="1179.3333333333333" y2="40.0" style="stroke:rgb(70,70,70); stroke-width:3 "/>
		<g>
			<title>tpa1
Tpa1</title>
			<polygon class="tpa1
Tpa1" points="10,10 24,40 10,70" fill="rgb(255,255,255)" fill-opacity="1.0" stroke="rgb(0,0,0)" stroke-width="2"  />
			<g>
				<title>Ribosomal_L11_N (PF03946)
"Ribosomal protein L11, N-terminal domain"</title>
				<polygon class="PF03946" points="11,28 15,28 16,30 16,50 15,52 11,52" stroke-linejoin="round" width="5" height="24" fill="rgb(57,191,98)" stroke="rgb(45,152,78)" stroke-width="1" opacity="0.75" />
			</g>
			<g>
				<title>Ribosomal_L11 (PF00298)
"Ribosomal protein L11, RNA binding domain"</title>
				<polygon class="PF00298" points="17,32 20,40 17,48" stroke-linejoin="round" width="6" height="24" fill="rgb(89,180,123)" stroke="rgb(71,144,98)" stroke-width="1" opacity="0.75" />
			</g>
		</g>
		<g>
			<title>tpa2
Tpa2</title>
			<polygon class="tpa2
Tpa2" points="27,10 49,40 27,70" fill="rgb(255,255,255)" fill-opacity="1.0" stroke="rgb(0,0,0)" stroke-width="2"  />
			<g>
				<title>Ribosomal_L1 (PF00687)
"Ribosomal protein L1p/L10e family"</title>
				<polygon class="PF00687" points="29,28 37,28 45,40 37,52 29,52" stroke-linejoin="round" width="19" height="24" fill="rgb(85,194,176)" stroke="rgb(68,155,140)" stroke-width="1" opacity="0.75" />
			</g>
		</g>
		<g>
			<title>tpa3
Tpa3</title>
			<polygon class="tpa3
Tpa3" points="63,10 80,40 63,70" fill="rgb(255,255,255)" fill-opacity="1.0" stroke="rgb(0,0,0)" stroke-width="2"  />
			<g>
				<title>Ribosomal_L10 (PF00466)
"Ribosomal protein L10"</title>
				<polygon class="PF00466" points="63,28 70,28 72,32 72,48 70,52 63,52" stroke-linejoin="round" width="9" height="24" fill="rgb(103,221,70)" stroke="rgb(82,176,56)" stroke-width="1" opacity="0.75" />
			</g>
		</g>
		<g>
			<title>tpa4
Tpa4</title>
			<polygon class="tpa4
Tpa4" points="84,10 97,40 84,70" fill="rgb(255,255,255)" fill-opacity="1.0" stroke="rgb(0,0,0)" stroke-width="2"  />
			<g>
				<title>Ribosomal_L12_N (PF16320)
"Ribosomal protein L7/L12 dimerisation domain"</title>
				<polygon class="PF16320" points="84,28 88,28 89,30 89,50 88,52 84,52" stroke-linejoin="round" width="5" height="24" fill="rgb(208,71,65)" stroke="rgb(166,56,52)" stroke-width="1" opacity="0.75" />
			</g>
			<g>
				<title>Ribosomal_L12 (PF00542)
"Ribosomal protein L7/L12 C-terminal domain"</title>
				<polygon class="PF00542" points="90,32 93,40 90,48" stroke-linejoin="round" width="6" height="24" fill="rgb(74,193,119)" stroke="rgb(59,154,95)" stroke-width="1" opacity="0.75" />
			</g>
		</g>
		<g>
			<title>tpa5
Tpa5</title>
			<polygon class="tpa5
Tpa5" points="121,25 206,25 206,10 236,40 206,70 206,55 121,55" fill="rgb(255,255,255)" fill-opacity="1.0" stroke="rgb(0,0,0)" stroke-width="2"  />
			<g>
				<title>RNA_pol_Rpb2_2 (PF04561)
"RNA polymerase Rpb2, domain 2"</title>
				<rect class="PF04561" x="137" y="28" stroke-linejoin="round" width="19" height="24" fill="rgb(218,97,194)" stroke="rgb(174,77,155)" stroke-width="1" opacity="0.75" />
			</g>
			<g>
				<title>RNA_pol_Rpb2_3 (PF04565)
"RNA polymerase Rpb2, domain 3"</title>
				<rect class="PF04565" x="162" y="28" stroke-linejoin="round" width="6" height="24" fill="rgb(114,201,69)" stroke="rgb(91,160,55)" stroke-width="1" opacity="0.75" />
			</g>
			<g>
				<title>RNA_pol_Rpb2_45 (PF10385)
"RNA polymerase beta subunit external 1 domain"</title>
				<rect class="PF10385" x="170" y="28" stroke-linejoin="round" width="6" height="24" fill="rgb(86,219,151)" stroke="rgb(68,175,120)" stroke-width="1" opacity="0.75" />
			</g>
			<g>
				<title>RNA_pol_Rpb2_6 (PF00562)
"RNA polymerase Rpb2, domain 6"</title>
				<polygon class="PF00562" points="183,28 220,28 224,32 224,48 220,52 183,52" stroke-linejoin="round" width="41" height="24" fill="rgb(202,89,208)" stroke="rgb(161,71,166)" stroke-width="1" opacity="0.75" />
			</g>
			<g>
				<title>RNA_pol_Rpb2_7 (PF04560)
"RNA polymerase Rpb2, domain 7"</title>
				<polygon class="PF04560" points="225,33 232,40 232,40 225,47" stroke-linejoin="round" width="7" height="24" fill="rgb(92,107,209)" stroke="rgb(73,85,167)" stroke-width="1" opacity="0.75" />
			</g>
		</g>
		<g>
			<title>tpa6
Tpa6</title>
			<polygon class="tpa6
Tpa6" points="238,25 337,25 337,10 367,40 337,70 337,55 238,55" fill="rgb(255,255,255)" fill-opacity="1.0" stroke="rgb(0,0,0)" stroke-width="2"  />
			<g>
				<title>RNA_pol_Rpb1_1 (PF04997)
"RNA polymerase Rpb1, domain 1"</title>
				<rect class="PF04997" x="238" y="28" stroke-linejoin="round" width="41" height="24" fill="rgb(72,199,117)" stroke="rgb(57,159,93)" stroke-width="1" opacity="0.75" />
			</g>
			<g>
				<title>RNA_pol_Rpb1_2 (PF00623)
"RNA polymerase Rpb1, domain 2"</title>
				<rect class="PF00623" x="284" y="28" stroke-linejoin="round" width="9" height="24" fill="rgb(71,178,113)" stroke="rgb(56,142,90)" stroke-width="1" opacity="0.75" />
			</g>
			<g>
				<title>RNA_pol_Rpb1_3 (PF04983)
"RNA polymerase Rpb1, domain 3"</title>
				<rect class="PF04983" x="294" y="28" stroke-linejoin="round" width="15" height="24" fill="rgb(182,94,223)" stroke="rgb(145,75,178)" stroke-width="1" opacity="0.75" />
			</g>
			<g>
				<title>RNA_pol_Rpb1_4 (PF05000)
"RNA polymerase Rpb1, domain 4"</title>
				<rect class="PF05000" x="313" y="28" stroke-linejoin="round" width="8" height="24" fill="rgb(217,82,186)" stroke="rgb(173,65,148)" stroke-width="1" opacity="0.75" />
			</g>
			<g>
				<title>RNA_pol_Rpb1_5 (PF04998)
"RNA polymerase Rpb1, domain 5"</title>
				<polygon class="PF04998" points="321,28 351,28 357,34 357,46 351,52 321,52" stroke-linejoin="round" width="36" height="24" fill="rgb(205,75,141)" stroke="rgb(164,60,112)" stroke-width="1" opacity="0.75" />
			</g>
		</g>
		<g>
			<title>tpa7
hypothetical protein</title>
			<polygon class="tpa7
hypothetical protein" points="371,25 447,25 447,10 477,40 447,70 447,55 371,55" fill="rgb(255,255,255)" fill-opacity="1.0" stroke="rgb(0,0,0)" stroke-width="2"  />
		</g>
		<g>
			<title>tpaA
TpaA</title>
			<polygon class="tpaA
TpaA" points="490,10 494,40 490,70" fill="rgb(255,255,255)" fill-opacity="1.0" stroke="rgb(0,0,0)" stroke-width="2"  />
		</g>
		<g>
			<title>tpaB
hypothetical protein</title>
			<polygon class="tpaB
hypothetical protein" points="499,25 504,25 504,10 534,40 504,70 504,55 499,55" fill="rgb(255,255,255)" fill-opacity="1.0" stroke="rgb(0,0,0)" stroke-width="2"  />
		</g>
		<g>
			<title>tpaC
TpaC</title>
			<polygon class="tpaC
TpaC" points="536,25 550,25 550,10 580,40 550,70 550,55 536,55" fill="rgb(255,255,255)" fill-opacity="1.0" stroke="rgb(0,0,0)" stroke-width="2"  />
			<g>
				<title>YcaO (PF02624)
"YcaO cyclodehydratase, ATP-ad Mg2+-binding"</title>
				<polygon class="PF02624" points="543,28 564,28 576,40 576,40 564,52 543,52" stroke-linejoin="round" width="33" height="24" fill="rgb(69,185,74)" stroke="rgb(55,148,59)" stroke-width="1" opacity="0.75" />
			</g>
		</g>
		<g>
			<title>tpaD
TpaD</title>
			<polygon class="tpaD
TpaD" points="582,10 602,40 582,70" fill="rgb(255,255,255)" fill-opacity="1.0" stroke="rgb(0,0,0)" stroke-width="2"  />
		</g>
		<g>
			<title>tpaE
TpaE</title>
			<polygon class="tpaE
TpaE" points="603,25 627,25 627,10 657,40 627,70 627,55 603,55" fill="rgb(255,255,255)" fill-opacity="1.0" stroke="rgb(0,0,0)" stroke-width="2"  />
		</g>
		<g>
			<title>tpaF
TpaF</title>
			<polygon class="tpaF
TpaF" points="657,10 680,40 657,70" fill="rgb(255,255,255)" fill-opacity="1.0" stroke="rgb(0,0,0)" stroke-width="2"  />
		</g>
		<g>
			<title>tpaG
hypothetical protein</title>
			<polygon class="tpaG
hypothetical protein" points="683,25 713,25 713,10 743,40 713,70 713,55 683,55" fill="rgb(255,255,255)" fill-opacity="1.0" stroke="rgb(0,0,0)" stroke-width="2"  />
		</g>
		<g>
			<title>tpaH
TpaH</title>
			<polygon class="tpaH
TpaH" points="744,25 776,25 776,10 806,40 776,70 776,55 744,55" fill="rgb(255,255,255)" fill-opacity="1.0" stroke="rgb(0,0,0)" stroke-width="2"  />
			<g>
				<title>YcaO (PF02624)
"YcaO cyclodehydratase, ATP-ad Mg2+-binding"</title>
				<polygon class="PF02624" points="767,28 789,28 801,40 801,40 789,52 767,52" stroke-linejoin="round" width="34" height="24" fill="rgb(69,185,74)" stroke="rgb(55,148,59)" stroke-width="1" opacity="0.75" />
			</g>
		</g>
		<g>
			<title>tpaI
TpaI</title>
			<polygon class="tpaI
TpaI" points="810,40 837,10 837,70" fill="rgb(255,255,255)" fill-opacity="1.0" stroke="rgb(0,0,0)" stroke-width="2"  />
			<g>
				<title>SpoU_methylase (PF00588)
"SpoU rRNA Methylase family"</title>
				<polygon class="PF00588" points="814,40 825,28 825,28 825,52 825,52" stroke-linejoin="round" width="14" height="24" fill="rgb(181,85,155)" stroke="rgb(144,67,124)" stroke-width="1" opacity="0.75" />
			</g>
			<g>
				<title>TSNR_N (PF04705)
"Thiostrepton-resistance methylase, N terminus"</title>
				<polygon class="PF04705" points="825,28 825,28 836,28 836,52 825,52 825,52" stroke-linejoin="round" width="11" height="24" fill="rgb(57,197,49)" stroke="rgb(45,157,39)" stroke-width="1" opacity="0.75" />
			</g>
		</g>
		<g>
			<title>tpaJ
TpaJ</title>
			<polygon class="tpaJ
TpaJ" points="879,25 869,25 869,10 839,40 869,70 869,55 879,55" fill="rgb(255,255,255)" fill-opacity="1.0" stroke="rgb(0,0,0)" stroke-width="2"  />
			<g>
				<title>Fe-ADH (PF00465)
"Iron-containing alcohol dehydrogenase"</title>
				<polygon class="PF00465" points="843,40 855,28 875,28 875,52 855,52 843,40" stroke-linejoin="round" width="32" height="24" fill="rgb(55,192,63)" stroke="rgb(44,153,50)" stroke-width="1" opacity="0.75" />
			</g>
		</g>
		<g>
			<title>tpaX
TpaX</title>
			<polygon class="tpaX
TpaX" points="892,10 896,40 892,70" fill="rgb(255,255,255)" fill-opacity="1.0" stroke="rgb(0,0,0)" stroke-width="2"  />
		</g>
		<g>
			<title>tpaK
TpaK</title>
			<polygon class="tpaK
TpaK" points="899,25 962,25 962,10 992,40 962,70 962,55 899,55" fill="rgb(255,255,255)" fill-opacity="1.0" stroke="rgb(0,0,0)" stroke-width="2"  />
			<g>
				<title>Lant_dehydr_N (PF04738)
"Lantibiotic dehydratase, N terminus"</title>
				<polygon class="PF04738" points="916,28 975,28 982,35 982,45 975,52 916,52" stroke-linejoin="round" width="66" height="24" fill="rgb(191,60,69)" stroke="rgb(152,48,55)" stroke-width="1" opacity="0.75" />
			</g>
		</g>
		<g>
			<title>tpaL
TpaL</title>
			<polygon class="tpaL
TpaL" points="993,10 1022,40 993,70" fill="rgb(255,255,255)" fill-opacity="1.0" stroke="rgb(0,0,0)" stroke-width="2"  />
			<g>
				<title>Lant_dehydr_C (PF14028)
"Lantibiotic biosynthesis dehydratase C-term"</title>
				<polygon class="PF14028" points="993,28 1005,28 1017,40 1005,52 993,52" stroke-linejoin="round" width="28" height="24" fill="rgb(195,82,58)" stroke="rgb(156,65,46)" stroke-width="1" opacity="0.75" />
			</g>
		</g>
		<g>
			<title>tpa8
Tpa8</title>
			<polygon class="tpa8
Tpa8" points="1036,10 1048,40 1036,70" fill="rgb(255,255,255)" fill-opacity="1.0" stroke="rgb(0,0,0)" stroke-width="2"  />
			<g>
				<title>Ribosom_S12_S23 (PF00164)
"Ribosomal protein S12/S23"</title>
				<polygon class="PF00164" points="1037,28 1039,28 1045,40 1039,52 1037,52" stroke-linejoin="round" width="11" height="24" fill="rgb(85,219,139)" stroke="rgb(68,175,111)" stroke-width="1" opacity="0.75" />
			</g>
		</g>
		<g>
			<title>tpa9
Tpa9</title>
			<polygon class="tpa9
Tpa9" points="1049,10 1064,40 1049,70" fill="rgb(255,255,255)" fill-opacity="1.0" stroke="rgb(0,0,0)" stroke-width="2"  />
			<g>
				<title>Ribosomal_S7 (PF00177)
"Ribosomal protein S7p/S5e"</title>
				<polygon class="PF00177" points="1049,28 1054,28 1061,40 1054,52 1049,52" stroke-linejoin="round" width="14" height="24" fill="rgb(97,226,191)" stroke="rgb(77,180,152)" stroke-width="1" opacity="0.75" />
			</g>
		</g>
		<g>
			<title>tpa10
Tpa10</title>
			<polygon class="tpa10
Tpa10" points="1066,25 1106,25 1106,10 1136,40 1106,70 1106,55 1066,55" fill="rgb(255,255,255)" fill-opacity="1.0" stroke="rgb(0,0,0)" stroke-width="2"  />
			<g>
				<title>GTP_EFTU (PF00009)
"Elongation factor Tu GTP binding domain"</title>
				<rect class="PF00009" x="1066" y="28" stroke-linejoin="round" width="27" height="24" fill="rgb(205,198,101)" stroke="rgb(164,158,80)" stroke-width="1" opacity="0.75" />
			</g>
			<g>
				<title>GTP_EFTU_D2 (PF03144)
"Elongation factor Tu domain 2"</title>
				<rect class="PF03144" x="1098" y="28" stroke-linejoin="round" width="6" height="24" fill="rgb(199,166,57)" stroke="rgb(159,132,45)" stroke-width="1" opacity="0.75" />
			</g>
			<g>
				<title>EFG_III (PF14492)
"Elongation Factor G, domain III"</title>
				<rect class="PF14492" x="1106" y="28" stroke-linejoin="round" width="7" height="24" fill="rgb(147,101,214)" stroke="rgb(117,80,171)" stroke-width="1" opacity="0.75" />
			</g>
			<g>
				<title>EFG_IV (PF03764)
"Elongation factor G, domain IV"</title>
				<polygon class="PF03764" points="1114,28 1120,28 1126,34 1126,46 1120,52 1114,52" stroke-linejoin="round" width="12" height="24" fill="rgb(138,62,178)" stroke="rgb(110,49,142)" stroke-width="1" opacity="0.75" />
			</g>
			<g>
				<title>EFG_C (PF00679)
"Elongation factor G C-terminus"</title>
				<polygon class="PF00679" points="1126,34 1132,40 1126,46" stroke-linejoin="round" width="8" height="24" fill="rgb(184,92,170)" stroke="rgb(147,73,136)" stroke-width="1" opacity="0.75" />
			</g>
		</g>
		<g>
			<title>tpa11
Tpa11</title>
			<polygon class="tpa11
Tpa11" points="1139,25 1148,25 1148,10 1178,40 1148,70 1148,55 1139,55" fill="rgb(255,255,255)" fill-opacity="1.0" stroke="rgb(0,0,0)" stroke-width="2"  />
			<g>
				<title>GTP_EFTU (PF00009)
"Elongation factor Tu GTP binding domain"</title>
				<rect class="PF00009" x="1140" y="28" stroke-linejoin="round" width="19" height="24" fill="rgb(205,198,101)" stroke="rgb(164,158,80)" stroke-width="1" opacity="0.75" />
			</g>
			<g>
				<title>GTP_EFTU_D2 (PF03144)
"Elongation factor Tu domain 2"</title>
				<polygon class="PF03144" points="1161,28 1162,28 1168,34 1168,46 1162,52 1161,52" stroke-linejoin="round" width="7" height="24" fill="rgb(199,166,57)" stroke="rgb(159,132,45)" stroke-width="1" opacity="0.75" />
			</g>
			<g>
				<title>GTP_EFTU_D3 (PF03143)
"Elongation factor Tu C-terminal domain"</title>
				<polygon class="PF03143" points="1169,35 1174,40 1169,45" stroke-linejoin="round" width="9" height="24" fill="rgb(219,124,56)" stroke="rgb(175,99,44)" stroke-width="1" opacity="0.75" />
			</g>
		</g>
	</g>
</svg>
