<svg version="1.1" baseProfile="full" xmlns="http://www.w3.org/2000/svg" width="1050.8666666666666" height="80">
	<g>
		<line x1="10" y1="40.0" x2="1040.8666666666666" y2="40.0" style="stroke:rgb(70,70,70); stroke-width:3 "/>
		<g>
			<title>
trehalose-phosphate synthase</title>
			<polygon class="
trehalose-phosphate synthase" points="12,25 22,25 22,10 52,40 22,70 22,55 12,55" fill="rgb(255,255,255)" fill-opacity="1.0" stroke="rgb(0,0,0)" stroke-width="2"  />
			<g>
				<title>Glyco_transf_20 (PF00982)
"Glycosyltransferase family 20"</title>
				<polygon class="PF00982" points="12,28 35,28 47,40 35,52 12,52" stroke-linejoin="round" width="39" height="24" fill="rgb(191,87,76)" stroke="rgb(152,69,60)" stroke-width="1" opacity="0.75" />
			</g>
		</g>
		<g>
			<title>
thiamine biosynthesis protein</title>
			<polygon class="
thiamine biosynthesis protein" points="84,25 84,25 84,10 54,40 84,70 84,55 84,55" fill="rgb(255,255,255)" fill-opacity="1.0" stroke="rgb(0,0,0)" stroke-width="2"  />
			<g>
				<title>DJ-1_PfpI (PF01965)
"DJ-1/PfpI family"</title>
				<polygon class="PF01965" points="58,40 70,28 74,28 74,52 70,52" stroke-linejoin="round" width="20" height="24" fill="rgb(125,77,208)" stroke="rgb(99,61,166)" stroke-width="1" opacity="0.75" />
			</g>
		</g>
		<g>
			<title>
cytochrome p450</title>
			<polygon class="
cytochrome p450" points="134,25 120,25 120,10 90,40 120,70 120,55 134,55" fill="rgb(255,255,255)" fill-opacity="1.0" stroke="rgb(0,0,0)" stroke-width="2"  />
			<g>
				<title>p450 (PF00067)
"Cytochrome P450"</title>
				<polygon class="PF00067" points="94,40 106,28 111,28 111,52 106,52" stroke-linejoin="round" width="20" height="24" fill="rgb(195,210,54)" stroke="rgb(155,168,43)" stroke-width="1" opacity="0.75" />
			</g>
		</g>
		<g>
			<title>
MtcA FAD-linked oxidase</title>
			<polygon class="
MtcA FAD-linked oxidase" points="181,25 165,25 165,10 135,40 165,70 165,55 181,55" fill="rgb(255,255,255)" fill-opacity="1.0" stroke="rgb(0,0,0)" stroke-width="2"  />
			<g>
				<title>BBE (PF08031)
"Berberine and berberine like"</title>
				<polygon class="PF08031" points="139,40 139,40 139,40" stroke-linejoin="round" width="4" height="24" fill="rgb(56,179,213)" stroke="rgb(44,143,170)" stroke-width="1" opacity="0.75" />
			</g>
			<g>
				<title>FAD_binding_4 (PF01565)
"FAD binding domain"</title>
				<rect class="PF01565" x="163" y="28" stroke-linejoin="round" width="13" height="24" fill="rgb(194,197,94)" stroke="rgb(155,157,75)" stroke-width="1" opacity="0.75" />
			</g>
		</g>
		<g>
			<title>
tryptophan synthase</title>
			<polygon class="
tryptophan synthase" points="226,25 211,25 211,10 181,40 211,70 211,55 226,55" fill="rgb(255,255,255)" fill-opacity="1.0" stroke="rgb(0,0,0)" stroke-width="2"  />
			<g>
				<title>PALP (PF00291)
"Pyridoxal-phosphate dependent enzyme"</title>
				<polygon class="PF00291" points="185,40 197,28 219,28 219,52 197,52 185,40" stroke-linejoin="round" width="34" height="24" fill="rgb(73,227,169)" stroke="rgb(58,181,135)" stroke-width="1" opacity="0.75" />
			</g>
		</g>
		<g>
			<title>
MtcB Thioesterase Type II</title>
			<polygon class="
MtcB Thioesterase Type II" points="227,40 244,10 244,70" fill="rgb(255,255,255)" fill-opacity="1.0" stroke="rgb(0,0,0)" stroke-width="2"  />
			<g>
				<title>4HBT_2 (PF13279)
"Thioesterase-like superfamily"</title>
				<polygon class="PF13279" points="230,40 237,28 241,28 241,52 237,52" stroke-linejoin="round" width="12" height="24" fill="rgb(108,104,213)" stroke="rgb(86,83,170)" stroke-width="1" opacity="0.75" />
			</g>
		</g>
		<g>
			<title>
MtcC 4'-phosphopantetheinyl transferase</title>
			<polygon class="
MtcC 4'-phosphopantetheinyl transferase" points="250,10 264,40 250,70" fill="rgb(255,255,255)" fill-opacity="1.0" stroke="rgb(0,0,0)" stroke-width="2"  />
		</g>
		<g>
			<title>
MtcD ACP S-malonyltransferase</title>
			<polygon class="
MtcD ACP S-malonyltransferase" points="264,25 265,25 265,10 295,40 265,70 265,55 264,55" fill="rgb(255,255,255)" fill-opacity="1.0" stroke="rgb(0,0,0)" stroke-width="2"  />
			<g>
				<title>Acyl_transf_1 (PF00698)
"Acyl transferase domain"</title>
				<polygon class="PF00698" points="264,28 278,28 290,40 278,52 264,52" stroke-linejoin="round" width="30" height="24" fill="rgb(132,93,193)" stroke="rgb(105,74,154)" stroke-width="1" opacity="0.75" />
			</g>
		</g>
		<g>
			<title>
MtcE 3-ketoacyl-ACP reductase</title>
			<polygon class="
MtcE 3-ketoacyl-ACP reductase" points="295,10 320,40 295,70" fill="rgb(255,255,255)" fill-opacity="1.0" stroke="rgb(0,0,0)" stroke-width="2"  />
			<g>
				<title>adh_short_C2 (PF13561)
"Enoyl-(Acyl carrier protein) reductase"</title>
				<polygon class="PF13561" points="296,28 306,28 316,40 306,52 296,52" stroke-linejoin="round" width="23" height="24" fill="rgb(79,221,209)" stroke="rgb(63,176,167)" stroke-width="1" opacity="0.75" />
			</g>
		</g>
		<g>
			<title>
MtcF Acyl carrier protein</title>
			<polygon class="
MtcF Acyl carrier protein" points="320,10 329,40 320,70" fill="rgb(255,255,255)" fill-opacity="1.0" stroke="rgb(0,0,0)" stroke-width="2"  />
			<g>
				<title>PP-binding (PF00550)
"Phosphopantetheine attachment site"</title>
				<polygon class="PF00550" points="322,28 322,28 326,40 322,52 322,52" stroke-linejoin="round" width="7" height="24" fill="rgb(181,58,166)" stroke="rgb(144,46,132)" stroke-width="1" opacity="0.75" />
			</g>
		</g>
		<g>
			<title>
MtcG beta-hydroxyacyl-ACP dehydratase</title>
			<polygon class="
MtcG beta-hydroxyacyl-ACP dehydratase" points="330,10 347,40 330,70" fill="rgb(255,255,255)" fill-opacity="1.0" stroke="rgb(0,0,0)" stroke-width="2"  />
			<g>
				<title>FabA (PF07977)
"FabA-like domain"</title>
				<polygon class="PF07977" points="332,28 336,28 343,40 336,52 332,52" stroke-linejoin="round" width="13" height="24" fill="rgb(87,207,212)" stroke="rgb(69,165,169)" stroke-width="1" opacity="0.75" />
			</g>
		</g>
		<g>
			<title>
MtcH Aminomethyltransferase</title>
			<polygon class="
MtcH Aminomethyltransferase" points="347,25 348,25 348,10 378,40 348,70 348,55 347,55" fill="rgb(255,255,255)" fill-opacity="1.0" stroke="rgb(0,0,0)" stroke-width="2"  />
			<g>
				<title>GCV_T (PF01571)
"Aminomethyltransferase folate-binding domain"</title>
				<polygon class="PF01571" points="347,28 361,28 369,36 369,44 361,52 347,52" stroke-linejoin="round" width="22" height="24" fill="rgb(105,90,184)" stroke="rgb(83,72,147)" stroke-width="1" opacity="0.75" />
			</g>
			<g>
				<title>GCV_T_C (PF08669)
"Glycine cleavage T-protein C-terminal barrel domain"</title>
				<polygon class="PF08669" points="372,39 373,40 372,41" stroke-linejoin="round" width="5" height="24" fill="rgb(201,62,134)" stroke="rgb(160,49,107)" stroke-width="1" opacity="0.75" />
			</g>
		</g>
		<g>
			<title>
MtcI Ketosynthase KS:KS*</title>
			<polygon class="
MtcI Ketosynthase KS:KS*" points="381,25 431,25 431,10 461,40 431,70 431,55 381,55" fill="rgb(255,255,255)" fill-opacity="1.0" stroke="rgb(0,0,0)" stroke-width="2"  />
			<g>
				<title>ketoacyl-synt (PF00109)
"Beta-ketoacyl synthase, N-terminal domain"</title>
				<rect class="PF00109" x="381" y="28" stroke-linejoin="round" width="23" height="24" fill="rgb(74,179,82)" stroke="rgb(59,143,65)" stroke-width="1" opacity="0.75" />
			</g>
			<g>
				<title>Ketoacyl-synt_C (PF02801)
"Beta-ketoacyl synthase, C-terminal domain"</title>
				<rect class="PF02801" x="405" y="28" stroke-linejoin="round" width="11" height="24" fill="rgb(212,79,72)" stroke="rgb(169,63,57)" stroke-width="1" opacity="0.75" />
			</g>
			<g>
				<title>ketoacyl-synt (PF00109)
"Beta-ketoacyl synthase, N-terminal domain"</title>
				<rect class="PF00109" x="421" y="28" stroke-linejoin="round" width="23" height="24" fill="rgb(74,179,82)" stroke="rgb(59,143,65)" stroke-width="1" opacity="0.75" />
			</g>
			<g>
				<title>Ketoacyl-synt_C (PF02801)
"Beta-ketoacyl synthase, C-terminal domain"</title>
				<polygon class="PF02801" points="446,29 457,40 457,40 446,51" stroke-linejoin="round" width="11" height="24" fill="rgb(212,79,72)" stroke="rgb(169,63,57)" stroke-width="1" opacity="0.75" />
			</g>
		</g>
		<g>
			<title>
hypothetical protein</title>
			<polygon class="
hypothetical protein" points="462,10 475,40 462,70" fill="rgb(255,255,255)" fill-opacity="1.0" stroke="rgb(0,0,0)" stroke-width="2"  />
		</g>
		<g>
			<title>
Short chain dehydrogenase</title>
			<polygon class="
Short chain dehydrogenase" points="482,10 506,40 482,70" fill="rgb(255,255,255)" fill-opacity="1.0" stroke="rgb(0,0,0)" stroke-width="2"  />
			<g>
				<title>adh_short_C2 (PF13561)
"Enoyl-(Acyl carrier protein) reductase"</title>
				<polygon class="PF13561" points="483,28 493,28 502,40 493,52 483,52" stroke-linejoin="round" width="23" height="24" fill="rgb(79,221,209)" stroke="rgb(63,176,167)" stroke-width="1" opacity="0.75" />
			</g>
		</g>
		<g>
			<title>
Amidohydrolase</title>
			<polygon class="
Amidohydrolase" points="507,25 512,25 512,10 542,40 512,70 512,55 507,55" fill="rgb(255,255,255)" fill-opacity="1.0" stroke="rgb(0,0,0)" stroke-width="2"  />
			<g>
				<title>Amidohydro_2 (PF04909)
"Amidohydrolase"</title>
				<polygon class="PF04909" points="513,28 526,28 538,40 526,52 513,52" stroke-linejoin="round" width="26" height="24" fill="rgb(144,74,196)" stroke="rgb(115,59,156)" stroke-width="1" opacity="0.75" />
			</g>
		</g>
		<g>
			<title>
MtcJ 4'-phosphopantetheinyl transferase</title>
			<polygon class="
MtcJ 4'-phosphopantetheinyl transferase" points="542,10 554,40 542,70" fill="rgb(255,255,255)" fill-opacity="1.0" stroke="rgb(0,0,0)" stroke-width="2"  />
			<g>
				<title>FeS_assembly_P (PF01883)
"Iron-sulfur cluster assembly protein"</title>
				<polygon class="PF01883" points="542,28 546,28 549,35 549,45 546,52 542,52" stroke-linejoin="round" width="7" height="24" fill="rgb(104,137,215)" stroke="rgb(83,109,172)" stroke-width="1" opacity="0.75" />
			</g>
		</g>
		<g>
			<title>
MtcK Amidotransferase</title>
			<polygon class="
MtcK Amidotransferase" points="556,25 573,25 573,10 603,40 573,70 573,55 556,55" fill="rgb(255,255,255)" fill-opacity="1.0" stroke="rgb(0,0,0)" stroke-width="2"  />
			<g>
				<title>GATase_7 (PF13537)
"Glutamine amidotransferase domain"</title>
				<rect class="PF13537" x="560" y="28" stroke-linejoin="round" width="11" height="24" fill="rgb(102,71,204)" stroke="rgb(81,56,163)" stroke-width="1" opacity="0.75" />
			</g>
			<g>
				<title>Asn_synthase (PF00733)
"Asparagine synthase"</title>
				<polygon class="PF00733" points="579,28 586,28 598,40 598,40 586,52 579,52" stroke-linejoin="round" width="19" height="24" fill="rgb(200,91,135)" stroke="rgb(160,72,108)" stroke-width="1" opacity="0.75" />
			</g>
		</g>
		<g>
			<title>
hypothetical protein</title>
			<polygon class="
hypothetical protein" points="617,25 624,25 624,10 654,40 624,70 624,55 617,55" fill="rgb(255,255,255)" fill-opacity="1.0" stroke="rgb(0,0,0)" stroke-width="2"  />
		</g>
		<g>
			<title>
beta-carotene monooxygenase</title>
			<polygon class="
beta-carotene monooxygenase" points="659,25 676,25 676,10 706,40 676,70 676,55 659,55" fill="rgb(255,255,255)" fill-opacity="1.0" stroke="rgb(0,0,0)" stroke-width="2"  />
			<g>
				<title>RPE65 (PF03055)
"Retinal pigment epithelial membrane protein"</title>
				<polygon class="PF03055" points="659,28 689,28 701,40 689,52 659,52" stroke-linejoin="round" width="45" height="24" fill="rgb(74,215,152)" stroke="rgb(59,172,121)" stroke-width="1" opacity="0.75" />
			</g>
		</g>
		<g>
			<title>
acetyltransferase</title>
			<polygon class="
acetyltransferase" points="706,10 728,40 706,70" fill="rgb(255,255,255)" fill-opacity="1.0" stroke="rgb(0,0,0)" stroke-width="2"  />
			<g>
				<title>Hexapep (PF00132)
"Bacterial transferase hexapeptide (six repeats)"</title>
				<polygon class="PF00132" points="718,32 721,36 721,44 718,48" stroke-linejoin="round" width="3" height="24" fill="rgb(125,98,224)" stroke="rgb(100,78,179)" stroke-width="1" opacity="0.75" />
			</g>
		</g>
		<g>
			<title>
hypothetical protein</title>
			<polygon class="
hypothetical protein" points="728,10 753,40 728,70" fill="rgb(255,255,255)" fill-opacity="1.0" stroke="rgb(0,0,0)" stroke-width="2"  />
			<g>
				<title>YCII (PF03795)
"YCII-related domain"</title>
				<rect class="PF03795" x="728" y="28" stroke-linejoin="round" width="11" height="24" fill="rgb(98,117,223)" stroke="rgb(78,93,178)" stroke-width="1" opacity="0.75" />
			</g>
			<g>
				<title>Polyketide_cyc2 (PF10604)
"Polyketide cyclase / dehydrase and lipid transport"</title>
				<polygon class="PF10604" points="739,28 739,28 749,40 739,52 739,52" stroke-linejoin="round" width="13" height="24" fill="rgb(170,214,69)" stroke="rgb(136,171,55)" stroke-width="1" opacity="0.75" />
			</g>
		</g>
		<g>
			<title>
Cytochrome P450</title>
			<polygon class="
Cytochrome P450" points="753,25 763,25 763,10 793,40 763,70 763,55 753,55" fill="rgb(255,255,255)" fill-opacity="1.0" stroke="rgb(0,0,0)" stroke-width="2"  />
			<g>
				<title>p450 (PF00067)
"Cytochrome P450"</title>
				<polygon class="PF00067" points="770,28 777,28 789,40 777,52 770,52" stroke-linejoin="round" width="22" height="24" fill="rgb(195,210,54)" stroke="rgb(155,168,43)" stroke-width="1" opacity="0.75" />
			</g>
		</g>
		<g>
			<title>
Aminotransferase</title>
			<polygon class="
Aminotransferase" points="793,25 799,25 799,10 829,40 799,70 799,55 793,55" fill="rgb(255,255,255)" fill-opacity="1.0" stroke="rgb(0,0,0)" stroke-width="2"  />
			<g>
				<title>Aminotran_5 (PF00266)
"Aminotransferase class-V"</title>
				<polygon class="PF00266" points="798,28 813,28 825,40 813,52 798,52" stroke-linejoin="round" width="29" height="24" fill="rgb(61,141,184)" stroke="rgb(48,112,147)" stroke-width="1" opacity="0.75" />
			</g>
		</g>
		<g>
			<title>
hypothetical protein</title>
			<polygon class="
hypothetical protein" points="829,10 836,40 829,70" fill="rgb(255,255,255)" fill-opacity="1.0" stroke="rgb(0,0,0)" stroke-width="2"  />
			<g>
				<title>Fer4_13 (PF13370)
"4Fe-4S single cluster domain of Ferredoxin I"</title>
				<polygon class="PF13370" points="830,28 830,28 833,40 830,52 830,52" stroke-linejoin="round" width="5" height="24" fill="rgb(72,194,54)" stroke="rgb(57,155,43)" stroke-width="1" opacity="0.75" />
			</g>
		</g>
		<g>
			<title>
hypothetical protein</title>
			<polygon class="
hypothetical protein" points="839,25 844,25 844,10 874,40 844,70 844,55 839,55" fill="rgb(255,255,255)" fill-opacity="1.0" stroke="rgb(0,0,0)" stroke-width="2"  />
			<g>
				<title>Peptidase_S9 (PF00326)
"Prolyl oligopeptidase family"</title>
				<polygon class="PF00326" points="851,28 858,28 869,39 869,41 858,52 851,52" stroke-linejoin="round" width="18" height="24" fill="rgb(67,198,161)" stroke="rgb(53,158,128)" stroke-width="1" opacity="0.75" />
			</g>
		</g>
		<g>
			<title>
PadR transcriptional regulator</title>
			<polygon class="
PadR transcriptional regulator" points="888,40 906,10 906,70" fill="rgb(255,255,255)" fill-opacity="1.0" stroke="rgb(0,0,0)" stroke-width="2"  />
			<g>
				<title>Vir_act_alpha_C (PF10400)
"Virulence activator alpha C-term"</title>
				<polygon class="PF10400" points="892,40 896,33 896,47" stroke-linejoin="round" width="7" height="24" fill="rgb(57,154,200)" stroke="rgb(45,123,160)" stroke-width="1" opacity="0.75" />
			</g>
			<g>
				<title>PadR (PF03551)
"Transcriptional regulator PadR-like family"</title>
				<polygon class="PF03551" points="898,30 899,28 905,28 905,52 899,52 898,50" stroke-linejoin="round" width="7" height="24" fill="rgb(101,169,228)" stroke="rgb(80,135,182)" stroke-width="1" opacity="0.75" />
			</g>
		</g>
		<g>
			<title>
membrane protein</title>
			<polygon class="
membrane protein" points="912,10 929,40 912,70" fill="rgb(255,255,255)" fill-opacity="1.0" stroke="rgb(0,0,0)" stroke-width="2"  />
		</g>
		<g>
			<title>
membrane protein</title>
			<polygon class="
membrane protein" points="930,25 939,25 939,10 969,40 939,70 939,55 930,55" fill="rgb(255,255,255)" fill-opacity="1.0" stroke="rgb(0,0,0)" stroke-width="2"  />
			<g>
				<title>MMPL (PF03176)
"MMPL family"</title>
				<rect class="PF03176" x="930" y="28" stroke-linejoin="round" width="20" height="24" fill="rgb(62,125,229)" stroke="rgb(49,99,183)" stroke-width="1" opacity="0.75" />
			</g>
		</g>
		<g>
			<title>
membrane protein</title>
			<polygon class="
membrane protein" points="966,10 987,40 966,70" fill="rgb(255,255,255)" fill-opacity="1.0" stroke="rgb(0,0,0)" stroke-width="2"  />
		</g>
		<g>
			<title>
hypothetical protein</title>
			<polygon class="
hypothetical protein" points="1000,25 1010,25 1010,10 1040,40 1010,70 1010,55 1000,55" fill="rgb(255,255,255)" fill-opacity="1.0" stroke="rgb(0,0,0)" stroke-width="2"  />
			<g>
				<title>HTH_3 (PF01381)
"Helix-turn-helix"</title>
				<rect class="PF01381" x="1001" y="28" stroke-linejoin="round" width="5" height="24" fill="rgb(168,185,81)" stroke="rgb(134,148,64)" stroke-width="1" opacity="0.75" />
			</g>
		</g>
	</g>
</svg>
