<svg version="1.1" baseProfile="full" xmlns="http://www.w3.org/2000/svg" width="1993.8333333333333" height="80">
	<g>
		<line x1="10" y1="40.0" x2="1983.8333333333333" y2="40.0" style="stroke:rgb(70,70,70); stroke-width:3 "/>
		<g>
			<title>
hypothetical protein</title>
			<polygon class="
hypothetical protein" points="24,40 37,10 37,70" fill="rgb(255,255,255)" fill-opacity="1.0" stroke="rgb(0,0,0)" stroke-width="2"  />
			<g>
				<title>SnoaL_4 (PF13577)
"SnoaL-like domain"</title>
				<polygon class="PF13577" points="27,40 32,28 36,28 36,52 32,52" stroke-linejoin="round" width="12" height="24" fill="rgb(58,198,190)" stroke="rgb(46,158,152)" stroke-width="1" opacity="0.75" />
			</g>
		</g>
		<g>
			<title>
NADPH-quinone reductase</title>
			<polygon class="
NADPH-quinone reductase" points="71,25 67,25 67,10 37,40 67,70 67,55 71,55" fill="rgb(255,255,255)" fill-opacity="1.0" stroke="rgb(0,0,0)" stroke-width="2"  />
			<g>
				<title>ADH_zinc_N_2 (PF13602)
"Zinc-binding dehydrogenase"</title>
				<polygon class="PF13602" points="41,40 49,32 49,48" stroke-linejoin="round" width="12" height="24" fill="rgb(183,68,113)" stroke="rgb(146,54,90)" stroke-width="1" opacity="0.75" />
			</g>
			<g>
				<title>ADH_N (PF08240)
"Alcohol dehydrogenase GroES-like domain"</title>
				<rect class="PF08240" x="58" y="28" stroke-linejoin="round" width="9" height="24" fill="rgb(217,198,105)" stroke="rgb(173,158,84)" stroke-width="1" opacity="0.75" />
			</g>
		</g>
		<g>
			<title>
LysR family transcriptional regulator</title>
			<polygon class="
LysR family transcriptional regulator" points="72,25 73,25 73,10 103,40 73,70 73,55 72,55" fill="rgb(255,255,255)" fill-opacity="1.0" stroke="rgb(0,0,0)" stroke-width="2"  />
			<g>
				<title>HTH_1 (PF00126)
"Bacterial regulatory helix-turn-helix protein, lysR family"</title>
				<rect class="PF00126" x="75" y="28" stroke-linejoin="round" width="5" height="24" fill="rgb(72,163,212)" stroke="rgb(57,130,169)" stroke-width="1" opacity="0.75" />
			</g>
			<g>
				<title>LysR_substrate (PF03466)
"LysR substrate binding domain"</title>
				<polygon class="PF03466" points="83,28 87,28 99,40 87,52 83,52" stroke-linejoin="round" width="19" height="24" fill="rgb(214,62,213)" stroke="rgb(171,49,170)" stroke-width="1" opacity="0.75" />
			</g>
		</g>
		<g>
			<title>
acyl-CoA dehydrogenase</title>
			<polygon class="
acyl-CoA dehydrogenase" points="150,25 141,25 141,10 111,40 141,70 141,55 150,55" fill="rgb(255,255,255)" fill-opacity="1.0" stroke="rgb(0,0,0)" stroke-width="2"  />
			<g>
				<title>Acyl-CoA_dh_1 (PF00441)
"Acyl-CoA dehydrogenase, C-terminal domain"</title>
				<polygon class="PF00441" points="115,40 127,28 127,28 127,52 127,52" stroke-linejoin="round" width="15" height="24" fill="rgb(96,175,206)" stroke="rgb(76,139,164)" stroke-width="1" opacity="0.75" />
			</g>
			<g>
				<title>Acyl-CoA_dh_M (PF02770)
"Acyl-CoA dehydrogenase, middle domain"</title>
				<rect class="PF02770" x="129" y="28" stroke-linejoin="round" width="9" height="24" fill="rgb(58,129,192)" stroke="rgb(46,103,153)" stroke-width="1" opacity="0.75" />
			</g>
			<g>
				<title>Acyl-CoA_dh_N (PF02771)
"Acyl-CoA dehydrogenase, N-terminal domain"</title>
				<rect class="PF02771" x="138" y="28" stroke-linejoin="round" width="11" height="24" fill="rgb(104,198,213)" stroke="rgb(83,158,170)" stroke-width="1" opacity="0.75" />
			</g>
		</g>
		<g>
			<title>dutS9
NAD-dependent epimerase/dehydratase</title>
			<polygon class="dutS9
NAD-dependent epimerase/dehydratase" points="186,25 185,25 185,10 155,40 185,70 185,55 186,55" fill="rgb(255,255,255)" fill-opacity="1.0" stroke="rgb(0,0,0)" stroke-width="2"  />
			<g>
				<title>Epimerase (PF01370)
"NAD dependent epimerase/dehydratase family"</title>
				<polygon class="PF01370" points="163,36 171,28 185,28 185,52 171,52 163,44" stroke-linejoin="round" width="22" height="24" fill="rgb(215,89,157)" stroke="rgb(172,71,125)" stroke-width="1" opacity="0.75" />
			</g>
		</g>
		<g>
			<title>dutS7
dTDP-4-dehydrorhamnose 3,5-epimerase</title>
			<polygon class="dutS7
dTDP-4-dehydrorhamnose 3,5-epimerase" points="186,40 206,10 206,70" fill="rgb(255,255,255)" fill-opacity="1.0" stroke="rgb(0,0,0)" stroke-width="2"  />
			<g>
				<title>dTDP_sugar_isom (PF00908)
"dTDP-4-dehydrorhamnose 3,5-epimerase"</title>
				<polygon class="PF00908" points="190,40 198,28 205,28 205,52 198,52" stroke-linejoin="round" width="17" height="24" fill="rgb(135,62,227)" stroke="rgb(108,49,181)" stroke-width="1" opacity="0.75" />
			</g>
		</g>
		<g>
			<title>dutO4
Monooxygenase</title>
			<polygon class="dutO4
Monooxygenase" points="257,25 237,25 237,10 207,40 237,70 237,55 257,55" fill="rgb(255,255,255)" fill-opacity="1.0" stroke="rgb(0,0,0)" stroke-width="2"  />
			<g>
				<title>Rng_hyd_C (PF21274)
"Aromatic-ring hydroxylase, C-terminal"</title>
				<polygon class="PF21274" points="211,40 217,34 217,46" stroke-linejoin="round" width="9" height="24" fill="rgb(153,227,106)" stroke="rgb(122,181,84)" stroke-width="1" opacity="0.75" />
			</g>
			<g>
				<title>FAD_binding_3 (PF01494)
"FAD binding domain"</title>
				<polygon class="PF01494" points="223,28 223,28 256,28 256,52 223,52 223,52" stroke-linejoin="round" width="33" height="24" fill="rgb(215,66,156)" stroke="rgb(172,52,124)" stroke-width="1" opacity="0.75" />
			</g>
		</g>
		<g>
			<title>dutO2
Monooxygenase</title>
			<polygon class="dutO2
Monooxygenase" points="269,25 293,25 293,10 323,40 293,70 293,55 269,55" fill="rgb(255,255,255)" fill-opacity="1.0" stroke="rgb(0,0,0)" stroke-width="2"  />
			<g>
				<title>FAD_binding_3 (PF01494)
"FAD binding domain"</title>
				<rect class="PF01494" x="269" y="28" stroke-linejoin="round" width="33" height="24" fill="rgb(215,66,156)" stroke="rgb(172,52,124)" stroke-width="1" opacity="0.75" />
			</g>
		</g>
		<g>
			<title>dutJ
3-Ketoacyl-(acyl-carrier-protein) reductase</title>
			<polygon class="dutJ
3-Ketoacyl-(acyl-carrier-protein) reductase" points="323,10 348,40 323,70" fill="rgb(255,255,255)" fill-opacity="1.0" stroke="rgb(0,0,0)" stroke-width="2"  />
			<g>
				<title>adh_short_C2 (PF13561)
"Enoyl-(Acyl carrier protein) reductase"</title>
				<polygon class="PF13561" points="324,28 334,28 344,40 334,52 324,52" stroke-linejoin="round" width="23" height="24" fill="rgb(79,221,209)" stroke="rgb(63,176,167)" stroke-width="1" opacity="0.75" />
			</g>
		</g>
		<g>
			<title>dutD
Aromatase</title>
			<polygon class="dutD
Aromatase" points="351,25 352,25 352,10 382,40 352,70 352,55 351,55" fill="rgb(255,255,255)" fill-opacity="1.0" stroke="rgb(0,0,0)" stroke-width="2"  />
		</g>
		<g>
			<title>dutL
Acyl-CoA ligase</title>
			<polygon class="dutL
Acyl-CoA ligase" points="382,25 401,25 401,10 431,40 401,70 401,55 382,55" fill="rgb(255,255,255)" fill-opacity="1.0" stroke="rgb(0,0,0)" stroke-width="2"  />
			<g>
				<title>AMP-binding (PF00501)
"AMP-binding enzyme"</title>
				<polygon class="PF00501" points="383,28 415,28 417,30 417,50 415,52 383,52" stroke-linejoin="round" width="34" height="24" fill="rgb(189,78,204)" stroke="rgb(151,62,163)" stroke-width="1" opacity="0.75" />
			</g>
			<g>
				<title>AMP-binding_C (PF13193)
"AMP-binding enzyme C-terminal domain"</title>
				<polygon class="PF13193" points="422,35 427,40 422,45" stroke-linejoin="round" width="7" height="24" fill="rgb(195,82,106)" stroke="rgb(156,65,84)" stroke-width="1" opacity="0.75" />
			</g>
		</g>
		<g>
			<title>dutO3
Monooxygenase</title>
			<polygon class="dutO3
Monooxygenase" points="432,10 441,40 432,70" fill="rgb(255,255,255)" fill-opacity="1.0" stroke="rgb(0,0,0)" stroke-width="2"  />
			<g>
				<title>ABM (PF03992)
"Antibiotic biosynthesis monooxygenase"</title>
				<polygon class="PF03992" points="432,28 434,28 438,40 434,52 432,52" stroke-linejoin="round" width="7" height="24" fill="rgb(211,55,142)" stroke="rgb(168,44,113)" stroke-width="1" opacity="0.75" />
			</g>
		</g>
		<g>
			<title>dutE
Cyclase</title>
			<polygon class="dutE
Cyclase" points="444,40 459,10 459,70" fill="rgb(255,255,255)" fill-opacity="1.0" stroke="rgb(0,0,0)" stroke-width="2"  />
			<g>
				<title>SnoaL_4 (PF13577)
"SnoaL-like domain"</title>
				<polygon class="PF13577" points="447,40 453,28 457,28 457,52 453,52" stroke-linejoin="round" width="12" height="24" fill="rgb(58,198,190)" stroke="rgb(46,158,152)" stroke-width="1" opacity="0.75" />
			</g>
		</g>
		<g>
			<title>dutMT2
O-Methyltransferase</title>
			<polygon class="dutMT2
O-Methyltransferase" points="498,25 493,25 493,10 463,40 493,70 493,55 498,55" fill="rgb(255,255,255)" fill-opacity="1.0" stroke="rgb(0,0,0)" stroke-width="2"  />
			<g>
				<title>Methyltransf_2 (PF00891)
"O-methyltransferase domain"</title>
				<polygon class="PF00891" points="467,40 479,28 484,28 484,52 479,52" stroke-linejoin="round" width="20" height="24" fill="rgb(91,124,224)" stroke="rgb(72,99,179)" stroke-width="1" opacity="0.75" />
			</g>
		</g>
		<g>
			<title>dutF
Cyclase</title>
			<polygon class="dutF
Cyclase" points="498,40 524,10 524,70" fill="rgb(255,255,255)" fill-opacity="1.0" stroke="rgb(0,0,0)" stroke-width="2"  />
			<g>
				<title>Cyclase (PF04199)
"Putative cyclase"</title>
				<polygon class="PF04199" points="505,37 512,28 523,28 523,52 512,52 505,43" stroke-linejoin="round" width="18" height="24" fill="rgb(145,90,187)" stroke="rgb(115,72,149)" stroke-width="1" opacity="0.75" />
			</g>
		</g>
		<g>
			<title>dutO1
Monooxygenase</title>
			<polygon class="dutO1
Monooxygenase" points="564,25 554,25 554,10 524,40 554,70 554,55 564,55" fill="rgb(255,255,255)" fill-opacity="1.0" stroke="rgb(0,0,0)" stroke-width="2"  />
			<g>
				<title>FAD_binding_3 (PF01494)
"FAD binding domain"</title>
				<polygon class="PF01494" points="529,39 540,28 563,28 563,52 540,52 529,41" stroke-linejoin="round" width="34" height="24" fill="rgb(215,66,156)" stroke="rgb(172,52,124)" stroke-width="1" opacity="0.75" />
			</g>
		</g>
		<g>
			<title>dutI
Ketoreductase</title>
			<polygon class="dutI
Ketoreductase" points="565,40 591,10 591,70" fill="rgb(255,255,255)" fill-opacity="1.0" stroke="rgb(0,0,0)" stroke-width="2"  />
			<g>
				<title>adh_short_C2 (PF13561)
"Enoyl-(Acyl carrier protein) reductase"</title>
				<polygon class="PF13561" points="569,40 579,28 588,28 588,52 579,52" stroke-linejoin="round" width="23" height="24" fill="rgb(79,221,209)" stroke="rgb(63,176,167)" stroke-width="1" opacity="0.75" />
			</g>
		</g>
		<g>
			<title>dutMT1
Methtyltransferase</title>
			<polygon class="dutMT1
Methtyltransferase" points="601,25 604,25 604,10 634,40 604,70 604,55 601,55" fill="rgb(255,255,255)" fill-opacity="1.0" stroke="rgb(0,0,0)" stroke-width="2"  />
			<g>
				<title>Methyltransf_2 (PF00891)
"O-methyltransferase domain"</title>
				<polygon class="PF00891" points="611,28 618,28 630,40 618,52 611,52" stroke-linejoin="round" width="20" height="24" fill="rgb(91,124,224)" stroke="rgb(72,99,179)" stroke-width="1" opacity="0.75" />
			</g>
		</g>
		<g>
			<title>dutK
SARP family regulator</title>
			<polygon class="dutK
SARP family regulator" points="640,40 667,10 667,70" fill="rgb(255,255,255)" fill-opacity="1.0" stroke="rgb(0,0,0)" stroke-width="2"  />
			<g>
				<title>BTAD (PF03704)
"Bacterial transcriptional activator domain"</title>
				<polygon class="PF03704" points="644,40 655,28 656,28 656,52 655,52" stroke-linejoin="round" width="14" height="24" fill="rgb(174,224,58)" stroke="rgb(139,179,46)" stroke-width="1" opacity="0.75" />
			</g>
			<g>
				<title>Trans_reg_C (PF00486)
"Transcriptional regulatory protein, C terminal"</title>
				<rect class="PF00486" x="657" y="28" stroke-linejoin="round" width="8" height="24" fill="rgb(69,185,116)" stroke="rgb(55,148,92)" stroke-width="1" opacity="0.75" />
			</g>
		</g>
		<g>
			<title>dutS2
NDP-glucose 4,6-dehydratase</title>
			<polygon class="dutS2
NDP-glucose 4,6-dehydratase" points="706,25 704,25 704,10 674,40 704,70 704,55 706,55" fill="rgb(255,255,255)" fill-opacity="1.0" stroke="rgb(0,0,0)" stroke-width="2"  />
			<g>
				<title>GDP_Man_Dehyd (PF16363)
"GDP-mannose 4,6 dehydratase"</title>
				<polygon class="PF16363" points="678,40 690,28 705,28 705,52 690,52" stroke-linejoin="round" width="29" height="24" fill="rgb(50,144,195)" stroke="rgb(40,115,156)" stroke-width="1" opacity="0.75" />
			</g>
		</g>
		<g>
			<title>dutS1
NDP-glucose synthase</title>
			<polygon class="dutS1
NDP-glucose synthase" points="741,25 736,25 736,10 706,40 736,70 736,55 741,55" fill="rgb(255,255,255)" fill-opacity="1.0" stroke="rgb(0,0,0)" stroke-width="2"  />
			<g>
				<title>NTP_transferase (PF00483)
"Nucleotidyl transferase"</title>
				<polygon class="PF00483" points="717,33 722,28 740,28 740,52 722,52 717,47" stroke-linejoin="round" width="23" height="24" fill="rgb(211,145,90)" stroke="rgb(168,116,72)" stroke-width="1" opacity="0.75" />
			</g>
		</g>
		<g>
			<title>dutP
Biotin carboxylase</title>
			<polygon class="dutP
Biotin carboxylase" points="789,25 772,25 772,10 742,40 772,70 772,55 789,55" fill="rgb(255,255,255)" fill-opacity="1.0" stroke="rgb(0,0,0)" stroke-width="2"  />
			<g>
				<title>Biotin_carb_C (PF02785)
"Biotin carboxylase C-terminal domain"</title>
				<polygon class="PF02785" points="746,40 754,32 754,48" stroke-linejoin="round" width="10" height="24" fill="rgb(209,64,211)" stroke="rgb(167,51,168)" stroke-width="1" opacity="0.75" />
			</g>
			<g>
				<title>CPSase_L_D2 (PF02786)
"Carbamoyl-phosphate synthase L chain, ATP binding domain"</title>
				<polygon class="PF02786" points="756,30 758,28 776,28 776,52 758,52 756,50" stroke-linejoin="round" width="20" height="24" fill="rgb(215,220,78)" stroke="rgb(172,176,62)" stroke-width="1" opacity="0.75" />
			</g>
			<g>
				<title>Biotin_carb_N (PF00289)
"Biotin carboxylase, N-terminal domain"</title>
				<rect class="PF00289" x="778" y="28" stroke-linejoin="round" width="10" height="24" fill="rgb(226,88,113)" stroke="rgb(180,70,90)" stroke-width="1" opacity="0.75" />
			</g>
		</g>
		<g>
			<title>dutN
Acetyl-CoA carboxylase</title>
			<polygon class="dutN
Acetyl-CoA carboxylase" points="790,40 807,10 807,70" fill="rgb(255,255,255)" fill-opacity="1.0" stroke="rgb(0,0,0)" stroke-width="2"  />
			<g>
				<title>Biotin_lipoyl (PF00364)
"Biotin-requiring enzyme"</title>
				<polygon class="PF00364" points="793,40 797,33 797,47" stroke-linejoin="round" width="7" height="24" fill="rgb(99,229,97)" stroke="rgb(79,183,77)" stroke-width="1" opacity="0.75" />
			</g>
		</g>
		<g>
			<title>dutM
acetyl-CoA carboxylase</title>
			<polygon class="dutM
acetyl-CoA carboxylase" points="863,25 837,25 837,10 807,40 837,70 837,55 863,55" fill="rgb(255,255,255)" fill-opacity="1.0" stroke="rgb(0,0,0)" stroke-width="2"  />
			<g>
				<title>Carboxyl_trans (PF01039)
"Carboxyl transferase domain"</title>
				<polygon class="PF01039" points="813,38 823,28 859,28 859,52 823,52 813,42" stroke-linejoin="round" width="46" height="24" fill="rgb(185,80,158)" stroke="rgb(148,64,126)" stroke-width="1" opacity="0.75" />
			</g>
		</g>
		<g>
			<title>dutC
Acyl carrier protein</title>
			<polygon class="dutC
Acyl carrier protein" points="864,40 872,10 872,70" fill="rgb(255,255,255)" fill-opacity="1.0" stroke="rgb(0,0,0)" stroke-width="2"  />
			<g>
				<title>PP-binding (PF00550)
"Phosphopantetheine attachment site"</title>
				<polygon class="PF00550" points="867,40 870,28 871,28 871,52 870,52" stroke-linejoin="round" width="7" height="24" fill="rgb(181,58,166)" stroke="rgb(144,46,132)" stroke-width="1" opacity="0.75" />
			</g>
		</g>
		<g>
			<title>dutB
Chain length factor</title>
			<polygon class="dutB
Chain length factor" points="914,25 904,25 904,10 874,40 904,70 904,55 914,55" fill="rgb(255,255,255)" fill-opacity="1.0" stroke="rgb(0,0,0)" stroke-width="2"  />
			<g>
				<title>Ketoacyl-synt_C (PF02801)
"Beta-ketoacyl synthase, C-terminal domain"</title>
				<polygon class="PF02801" points="878,40 889,29 889,51 878,40" stroke-linejoin="round" width="11" height="24" fill="rgb(212,79,72)" stroke="rgb(169,63,57)" stroke-width="1" opacity="0.75" />
			</g>
			<g>
				<title>ketoacyl-synt (PF00109)
"Beta-ketoacyl synthase, N-terminal domain"</title>
				<polygon class="PF00109" points="890,28 890,28 914,28 914,52 890,52 890,52" stroke-linejoin="round" width="24" height="24" fill="rgb(74,179,82)" stroke="rgb(59,143,65)" stroke-width="1" opacity="0.75" />
			</g>
		</g>
		<g>
			<title>dutA
Ketoacyl synthase</title>
			<polygon class="dutA
Ketoacyl synthase" points="955,25 944,25 944,10 914,40 944,70 944,55 955,55" fill="rgb(255,255,255)" fill-opacity="1.0" stroke="rgb(0,0,0)" stroke-width="2"  />
			<g>
				<title>Ketoacyl-synt_C (PF02801)
"Beta-ketoacyl synthase, C-terminal domain"</title>
				<polygon class="PF02801" points="918,40 929,29 929,51 918,40" stroke-linejoin="round" width="11" height="24" fill="rgb(212,79,72)" stroke="rgb(169,63,57)" stroke-width="1" opacity="0.75" />
			</g>
			<g>
				<title>ketoacyl-synt (PF00109)
"Beta-ketoacyl synthase, N-terminal domain"</title>
				<rect class="PF00109" x="931" y="28" stroke-linejoin="round" width="24" height="24" fill="rgb(74,179,82)" stroke="rgb(59,143,65)" stroke-width="1" opacity="0.75" />
			</g>
		</g>
		<g>
			<title>dutS3
NDP-hexose 2,3-dehydratase</title>
			<polygon class="dutS3
NDP-hexose 2,3-dehydratase" points="964,25 981,25 981,10 1011,40 981,70 981,55 964,55" fill="rgb(255,255,255)" fill-opacity="1.0" stroke="rgb(0,0,0)" stroke-width="2"  />
			<g>
				<title>Hexose_dehydrat (PF03559)
"NDP-hexose 2,3-dehydratase"</title>
				<rect class="PF03559" x="967" y="28" stroke-linejoin="round" width="20" height="24" fill="rgb(56,139,184)" stroke="rgb(44,111,147)" stroke-width="1" opacity="0.75" />
			</g>
			<g>
				<title>Hexose_dehydrat (PF03559)
"NDP-hexose 2,3-dehydratase"</title>
				<polygon class="PF03559" points="990,28 995,28 1007,40 995,52 990,52" stroke-linejoin="round" width="20" height="24" fill="rgb(56,139,184)" stroke="rgb(44,111,147)" stroke-width="1" opacity="0.75" />
			</g>
		</g>
		<g>
			<title>dutS4
NDP-hexose 3-ketoreductase</title>
			<polygon class="dutS4
NDP-hexose 3-ketoreductase" points="1011,25 1014,25 1014,10 1044,40 1014,70 1014,55 1011,55" fill="rgb(255,255,255)" fill-opacity="1.0" stroke="rgb(0,0,0)" stroke-width="2"  />
			<g>
				<title>GFO_IDH_MocA (PF01408)
"Oxidoreductase family, NAD-binding Rossmann fold"</title>
				<rect class="PF01408" x="1011" y="28" stroke-linejoin="round" width="11" height="24" fill="rgb(53,193,178)" stroke="rgb(42,154,142)" stroke-width="1" opacity="0.75" />
			</g>
			<g>
				<title>GFO_IDH_MocA_C (PF02894)
"Oxidoreductase family, C-terminal alpha/beta domain"</title>
				<polygon class="PF02894" points="1024,28 1028,28 1040,40 1028,52 1024,52" stroke-linejoin="round" width="19" height="24" fill="rgb(89,185,176)" stroke="rgb(71,148,140)" stroke-width="1" opacity="0.75" />
			</g>
		</g>
		<g>
			<title>dutQ
Flavin reductase</title>
			<polygon class="dutQ
Flavin reductase" points="1044,10 1064,40 1044,70" fill="rgb(255,255,255)" fill-opacity="1.0" stroke="rgb(0,0,0)" stroke-width="2"  />
		</g>
		<g>
			<title>dutR
Acyl-CoA dehydrogenase</title>
			<polygon class="dutR
Acyl-CoA dehydrogenase" points="1062,25 1070,25 1070,10 1100,40 1070,70 1070,55 1062,55" fill="rgb(255,255,255)" fill-opacity="1.0" stroke="rgb(0,0,0)" stroke-width="2"  />
			<g>
				<title>Acyl-CoA_dh_2 (PF08028)
"Acyl-CoA dehydrogenase, C-terminal domain"</title>
				<polygon class="PF08028" points="1086,30 1096,40 1086,50" stroke-linejoin="round" width="12" height="24" fill="rgb(61,169,203)" stroke="rgb(48,135,162)" stroke-width="1" opacity="0.75" />
			</g>
		</g>
		<g>
			<title>dutS5
NDP-hexose 3,4-dehydratase</title>
			<polygon class="dutS5
NDP-hexose 3,4-dehydratase" points="1146,25 1133,25 1133,10 1103,40 1133,70 1133,55 1146,55" fill="rgb(255,255,255)" fill-opacity="1.0" stroke="rgb(0,0,0)" stroke-width="2"  />
			<g>
				<title>DegT_DnrJ_EryC1 (PF01041)
"DegT/DnrJ/EryC1/StrS aminotransferase family"</title>
				<polygon class="PF01041" points="1107,40 1119,28 1141,28 1141,52 1119,52" stroke-linejoin="round" width="38" height="24" fill="rgb(228,110,183)" stroke="rgb(182,88,146)" stroke-width="1" opacity="0.75" />
			</g>
		</g>
		<g>
			<title>dutS6
NDP-4-keto-6-deoxyhexose reductase</title>
			<polygon class="dutS6
NDP-4-keto-6-deoxyhexose reductase" points="1177,25 1176,25 1176,10 1146,40 1176,70 1176,55 1177,55" fill="rgb(255,255,255)" fill-opacity="1.0" stroke="rgb(0,0,0)" stroke-width="2"  />
			<g>
				<title>Epimerase (PF01370)
"NAD dependent epimerase/dehydratase family"</title>
				<polygon class="PF01370" points="1154,36 1162,28 1176,28 1176,52 1162,52 1154,44" stroke-linejoin="round" width="22" height="24" fill="rgb(215,89,157)" stroke="rgb(172,71,125)" stroke-width="1" opacity="0.75" />
			</g>
		</g>
		<g>
			<title>dutGT1
Glycosyltransferase</title>
			<polygon class="dutGT1
Glycosyltransferase" points="1216,25 1207,25 1207,10 1177,40 1207,70 1207,55 1216,55" fill="rgb(255,255,255)" fill-opacity="1.0" stroke="rgb(0,0,0)" stroke-width="2"  />
			<g>
				<title>EryCIII-like_C (PF06722)
"Erythromycin biosynthesis protein CIII-like, C-terminal domain"</title>
				<polygon class="PF06722" points="1181,40 1191,30 1191,50" stroke-linejoin="round" width="14" height="24" fill="rgb(48,103,191)" stroke="rgb(38,82,152)" stroke-width="1" opacity="0.75" />
			</g>
			<g>
				<title>EryCIII-like_N (PF21036)
"Erythromycin biosynthesis protein CIII-like, N-terminal domain"</title>
				<polygon class="PF21036" points="1192,29 1193,28 1213,28 1213,52 1193,52 1192,51" stroke-linejoin="round" width="21" height="24" fill="rgb(205,88,112)" stroke="rgb(164,70,89)" stroke-width="1" opacity="0.75" />
			</g>
		</g>
		<g>
			<title>dutG
Type I polyketide synthase</title>
			<polygon class="dutG
Type I polyketide synthase" points="1435,25 1248,25 1248,10 1218,40 1248,70 1248,55 1435,55" fill="rgb(255,255,255)" fill-opacity="1.0" stroke="rgb(0,0,0)" stroke-width="2"  />
			<g>
				<title>PP-binding (PF00550)
"Phosphopantetheine attachment site"</title>
				<polygon class="PF00550" points="1222,40 1225,37 1225,43" stroke-linejoin="round" width="6" height="24" fill="rgb(181,58,166)" stroke="rgb(144,46,132)" stroke-width="1" opacity="0.75" />
			</g>
			<g>
				<title>KR (PF08659)
"KR domain"</title>
				<rect class="PF08659" x="1237" y="28" stroke-linejoin="round" width="18" height="24" fill="rgb(203,145,81)" stroke="rgb(162,116,64)" stroke-width="1" opacity="0.75" />
			</g>
			<g>
				<title>ADH_zinc_N_2 (PF13602)
"Zinc-binding dehydrogenase"</title>
				<rect class="PF13602" x="1259" y="28" stroke-linejoin="round" width="14" height="24" fill="rgb(183,68,113)" stroke="rgb(146,54,90)" stroke-width="1" opacity="0.75" />
			</g>
			<g>
				<title>ADH_N (PF08240)
"Alcohol dehydrogenase GroES-like domain"</title>
				<rect class="PF08240" x="1280" y="28" stroke-linejoin="round" width="8" height="24" fill="rgb(217,198,105)" stroke="rgb(173,158,84)" stroke-width="1" opacity="0.75" />
			</g>
			<g>
				<title>Beta-ketacyl_N (PF21394)
"Beta-ketoacyl synthase-like, N-terminal"</title>
				<rect class="PF21394" x="1303" y="28" stroke-linejoin="round" width="8" height="24" fill="rgb(199,58,86)" stroke="rgb(159,46,68)" stroke-width="1" opacity="0.75" />
			</g>
			<g>
				<title>PS-DH (PF14765)
"Polyketide synthase dehydratase N-terminal domain"</title>
				<rect class="PF14765" x="1315" y="28" stroke-linejoin="round" width="15" height="24" fill="rgb(189,61,178)" stroke="rgb(151,48,142)" stroke-width="1" opacity="0.75" />
			</g>
			<g>
				<title>PKS_DH_N (PF21089)
"Polyketide synthase dehydratase domain"</title>
				<rect class="PF21089" x="1334" y="28" stroke-linejoin="round" width="10" height="24" fill="rgb(67,151,200)" stroke="rgb(53,120,160)" stroke-width="1" opacity="0.75" />
			</g>
			<g>
				<title>Acyl_transf_1 (PF00698)
"Acyl transferase domain"</title>
				<rect class="PF00698" x="1348" y="28" stroke-linejoin="round" width="31" height="24" fill="rgb(132,93,193)" stroke="rgb(105,74,154)" stroke-width="1" opacity="0.75" />
			</g>
			<g>
				<title>KAsynt_C_assoc (PF16197)
"Ketoacyl-synthetase C-terminal extension"</title>
				<rect class="PF16197" x="1384" y="28" stroke-linejoin="round" width="12" height="24" fill="rgb(200,86,70)" stroke="rgb(160,68,56)" stroke-width="1" opacity="0.75" />
			</g>
			<g>
				<title>Ketoacyl-synt_C (PF02801)
"Beta-ketoacyl synthase, C-terminal domain"</title>
				<rect class="PF02801" x="1397" y="28" stroke-linejoin="round" width="11" height="24" fill="rgb(212,79,72)" stroke="rgb(169,63,57)" stroke-width="1" opacity="0.75" />
			</g>
			<g>
				<title>ketoacyl-synt (PF00109)
"Beta-ketoacyl synthase, N-terminal domain"</title>
				<rect class="PF00109" x="1409" y="28" stroke-linejoin="round" width="24" height="24" fill="rgb(74,179,82)" stroke="rgb(59,143,65)" stroke-width="1" opacity="0.75" />
			</g>
		</g>
		<g>
			<title>dutH
ACP shuttle-type acyltransferase</title>
			<polygon class="dutH
ACP shuttle-type acyltransferase" points="1472,25 1468,25 1468,10 1438,40 1468,70 1468,55 1472,55" fill="rgb(255,255,255)" fill-opacity="1.0" stroke="rgb(0,0,0)" stroke-width="2"  />
			<g>
				<title>ACP_syn_III_C (PF08541)
"3-Oxoacyl-[acyl-carrier-protein (ACP)] synthase III C terminal"</title>
				<polygon class="PF08541" points="1442,40 1447,35 1447,45" stroke-linejoin="round" width="9" height="24" fill="rgb(223,111,121)" stroke="rgb(178,88,96)" stroke-width="1" opacity="0.75" />
			</g>
			<g>
				<title>ACP_syn_III (PF08545)
"3-Oxoacyl-[acyl-carrier-protein (ACP)] synthase III"</title>
				<polygon class="PF08545" points="1454,28 1454,28 1461,28 1461,52 1454,52 1454,52" stroke-linejoin="round" width="7" height="24" fill="rgb(93,213,73)" stroke="rgb(74,170,58)" stroke-width="1" opacity="0.75" />
			</g>
		</g>
		<g>
			<title>dutT
ABC transporter</title>
			<polygon class="dutT
ABC transporter" points="1479,25 1480,25 1480,10 1510,40 1480,70 1480,55 1479,55" fill="rgb(255,255,255)" fill-opacity="1.0" stroke="rgb(0,0,0)" stroke-width="2"  />
			<g>
				<title>ABC_tran (PF00005)
"ABC transporter"</title>
				<polygon class="PF00005" points="1481,28 1493,28 1495,30 1495,50 1493,52 1481,52" stroke-linejoin="round" width="14" height="24" fill="rgb(46,186,108)" stroke="rgb(36,148,86)" stroke-width="1" opacity="0.75" />
			</g>
			<g>
				<title>DUF4162 (PF13732)
"Domain of unknown function (DUF4162)"</title>
				<polygon class="PF13732" points="1500,35 1505,40 1500,45" stroke-linejoin="round" width="8" height="24" fill="rgb(62,115,222)" stroke="rgb(49,91,177)" stroke-width="1" opacity="0.75" />
			</g>
		</g>
		<g>
			<title>dutU
ABC transporter</title>
			<polygon class="dutU
ABC transporter" points="1510,10 1536,40 1510,70" fill="rgb(255,255,255)" fill-opacity="1.0" stroke="rgb(0,0,0)" stroke-width="2"  />
			<g>
				<title>ABC2_membrane (PF01061)
"ABC-2 type transporter"</title>
				<polygon class="PF01061" points="1512,28 1521,28 1532,40 1521,52 1512,52" stroke-linejoin="round" width="21" height="24" fill="rgb(91,137,194)" stroke="rgb(72,109,155)" stroke-width="1" opacity="0.75" />
			</g>
		</g>
		<g>
			<title>dutGT2
Glycosyltransferase</title>
			<polygon class="dutGT2
Glycosyltransferase" points="1538,25 1546,25 1546,10 1576,40 1546,70 1546,55 1538,55" fill="rgb(255,255,255)" fill-opacity="1.0" stroke="rgb(0,0,0)" stroke-width="2"  />
			<g>
				<title>EryCIII-like_N (PF21036)
"Erythromycin biosynthesis protein CIII-like, N-terminal domain"</title>
				<rect class="PF21036" x="1545" y="28" stroke-linejoin="round" width="14" height="24" fill="rgb(205,88,112)" stroke="rgb(164,70,89)" stroke-width="1" opacity="0.75" />
			</g>
			<g>
				<title>EryCIII-like_C (PF06722)
"Erythromycin biosynthesis protein CIII-like, C-terminal domain"</title>
				<polygon class="PF06722" points="1560,28 1560,28 1572,40 1560,52 1560,52" stroke-linejoin="round" width="14" height="24" fill="rgb(48,103,191)" stroke="rgb(38,82,152)" stroke-width="1" opacity="0.75" />
			</g>
		</g>
		<g>
			<title>dutV
SARP family transcriptional regulator</title>
			<polygon class="dutV
SARP family transcriptional regulator" points="1683,25 1607,25 1607,10 1577,40 1607,70 1607,55 1683,55" fill="rgb(255,255,255)" fill-opacity="1.0" stroke="rgb(0,0,0)" stroke-width="2"  />
			<g>
				<title>AAA_16 (PF13191)
"AAA ATPase domain"</title>
				<rect class="PF13191" x="1643" y="28" stroke-linejoin="round" width="13" height="24" fill="rgb(88,106,197)" stroke="rgb(70,84,157)" stroke-width="1" opacity="0.75" />
			</g>
			<g>
				<title>BTAD (PF03704)
"Bacterial transcriptional activator domain"</title>
				<rect class="PF03704" x="1659" y="28" stroke-linejoin="round" width="14" height="24" fill="rgb(174,224,58)" stroke="rgb(139,179,46)" stroke-width="1" opacity="0.75" />
			</g>
			<g>
				<title>Trans_reg_C (PF00486)
"Transcriptional regulatory protein, C terminal"</title>
				<rect class="PF00486" x="1674" y="28" stroke-linejoin="round" width="6" height="24" fill="rgb(69,185,116)" stroke="rgb(55,148,92)" stroke-width="1" opacity="0.75" />
			</g>
		</g>
		<g>
			<title>dutS8
NDP-hexose 3-C-methyltransferase</title>
			<polygon class="dutS8
NDP-hexose 3-C-methyltransferase" points="1726,25 1715,25 1715,10 1685,40 1715,70 1715,55 1726,55" fill="rgb(255,255,255)" fill-opacity="1.0" stroke="rgb(0,0,0)" stroke-width="2"  />
			<g>
				<title>Methyltransf_14 (PF08484)
"C-methyltransferase C-terminal domain"</title>
				<polygon class="PF08484" points="1689,40 1700,29 1700,51" stroke-linejoin="round" width="15" height="24" fill="rgb(131,189,66)" stroke="rgb(104,151,52)" stroke-width="1" opacity="0.75" />
			</g>
			<g>
				<title>Methyltransf_23 (PF13489)
"Methyltransferase domain"</title>
				<polygon class="PF13489" points="1701,28 1701,28 1717,28 1717,52 1701,52 1701,52" stroke-linejoin="round" width="16" height="24" fill="rgb(62,214,70)" stroke="rgb(49,171,56)" stroke-width="1" opacity="0.75" />
			</g>
			<g>
				<title>Methyltransf_13 (PF08421)
"Putative zinc binding domain"</title>
				<rect class="PF08421" x="1719" y="28" stroke-linejoin="round" width="6" height="24" fill="rgb(65,65,206)" stroke="rgb(52,52,164)" stroke-width="1" opacity="0.75" />
			</g>
		</g>
		<g>
			<title>dutW
Carbohydrate kinase</title>
			<polygon class="dutW
Carbohydrate kinase" points="1758,25 1756,25 1756,10 1726,40 1756,70 1756,55 1758,55" fill="rgb(255,255,255)" fill-opacity="1.0" stroke="rgb(0,0,0)" stroke-width="2"  />
			<g>
				<title>PfkB (PF00294)
"pfkB family carbohydrate kinase"</title>
				<polygon class="PF00294" points="1730,40 1742,28 1757,28 1757,52 1742,52" stroke-linejoin="round" width="29" height="24" fill="rgb(94,207,198)" stroke="rgb(75,165,158)" stroke-width="1" opacity="0.75" />
			</g>
		</g>
		<g>
			<title>dutX
S-Adenosylmethionine synthase</title>
			<polygon class="dutX
S-Adenosylmethionine synthase" points="1798,25 1790,25 1790,10 1760,40 1790,70 1790,55 1798,55" fill="rgb(255,255,255)" fill-opacity="1.0" stroke="rgb(0,0,0)" stroke-width="2"  />
			<g>
				<title>S-AdoMet_synt_C (PF02773)
"S-adenosylmethionine synthetase, C-terminal domain"</title>
				<polygon class="PF02773" points="1764,40 1774,30 1774,50" stroke-linejoin="round" width="13" height="24" fill="rgb(143,191,71)" stroke="rgb(114,152,56)" stroke-width="1" opacity="0.75" />
			</g>
			<g>
				<title>S-AdoMet_synt_M (PF02772)
"S-adenosylmethionine synthetase, central domain"</title>
				<polygon class="PF02772" points="1775,29 1776,28 1787,28 1787,52 1776,52 1775,51" stroke-linejoin="round" width="12" height="24" fill="rgb(215,74,54)" stroke="rgb(172,59,43)" stroke-width="1" opacity="0.75" />
			</g>
			<g>
				<title>S-AdoMet_synt_N (PF00438)
"S-adenosylmethionine synthetase, N-terminal domain"</title>
				<rect class="PF00438" x="1788" y="28" stroke-linejoin="round" width="9" height="24" fill="rgb(198,117,90)" stroke="rgb(158,93,72)" stroke-width="1" opacity="0.75" />
			</g>
		</g>
		<g>
			<title>
Copper oxidase</title>
			<polygon class="
Copper oxidase" points="1855,25 1834,25 1834,10 1804,40 1834,70 1834,55 1855,55" fill="rgb(255,255,255)" fill-opacity="1.0" stroke="rgb(0,0,0)" stroke-width="2"  />
			<g>
				<title>Cu-oxidase_2 (PF07731)
"Multicopper oxidase"</title>
				<polygon class="PF07731" points="1808,40 1816,32 1816,48" stroke-linejoin="round" width="12" height="24" fill="rgb(188,215,88)" stroke="rgb(150,172,70)" stroke-width="1" opacity="0.75" />
			</g>
			<g>
				<title>Cu-oxidase_3 (PF07732)
"Multicopper oxidase"</title>
				<rect class="PF07732" x="1835" y="28" stroke-linejoin="round" width="4" height="24" fill="rgb(174,103,224)" stroke="rgb(139,82,179)" stroke-width="1" opacity="0.75" />
			</g>
			<g>
				<title>Cu-oxidase_3 (PF07732)
"Multicopper oxidase"</title>
				<rect class="PF07732" x="1840" y="28" stroke-linejoin="round" width="8" height="24" fill="rgb(174,103,224)" stroke="rgb(139,82,179)" stroke-width="1" opacity="0.75" />
			</g>
		</g>
		<g>
			<title>
Hypothetical protein</title>
			<polygon class="
Hypothetical protein" points="1856,40 1871,10 1871,70" fill="rgb(255,255,255)" fill-opacity="1.0" stroke="rgb(0,0,0)" stroke-width="2"  />
		</g>
		<g>
			<title>
Acetyltransferase</title>
			<polygon class="
Acetyltransferase" points="1874,25 1875,25 1875,10 1905,40 1875,70 1875,55 1874,55" fill="rgb(255,255,255)" fill-opacity="1.0" stroke="rgb(0,0,0)" stroke-width="2"  />
			<g>
				<title>Abhydrolase_1 (PF00561)
"alpha/beta hydrolase fold"</title>
				<polygon class="PF00561" points="1877,28 1888,28 1896,36 1896,44 1888,52 1877,52" stroke-linejoin="round" width="19" height="24" fill="rgb(99,159,215)" stroke="rgb(79,127,172)" stroke-width="1" opacity="0.75" />
			</g>
		</g>
		<g>
			<title>
TetR family transcriptional regulator</title>
			<polygon class="
TetR family transcriptional regulator" points="1905,10 1926,40 1905,70" fill="rgb(255,255,255)" fill-opacity="1.0" stroke="rgb(0,0,0)" stroke-width="2"  />
			<g>
				<title>TetR_N (PF00440)
"Bacterial regulatory proteins, tetR family"</title>
				<rect class="PF00440" x="1907" y="28" stroke-linejoin="round" width="4" height="24" fill="rgb(148,50,185)" stroke="rgb(118,40,148)" stroke-width="1" opacity="0.75" />
			</g>
			<g>
				<title>TetR_C_1 (PF02909)
"Tetracyclin repressor-like, C-terminal domain"</title>
				<polygon class="PF02909" points="1913,28 1914,28 1923,40 1914,52 1913,52" stroke-linejoin="round" width="13" height="24" fill="rgb(95,107,214)" stroke="rgb(76,85,171)" stroke-width="1" opacity="0.75" />
			</g>
		</g>
		<g>
			<title>
Membrane protein</title>
			<polygon class="
Membrane protein" points="1929,40 1953,10 1953,70" fill="rgb(255,255,255)" fill-opacity="1.0" stroke="rgb(0,0,0)" stroke-width="2"  />
			<g>
				<title>CbtA (PF09490)
"Probable cobalt transporter subunit (CbtA)"</title>
				<polygon class="PF09490" points="1933,40 1943,28 1952,28 1952,52 1943,52" stroke-linejoin="round" width="21" height="24" fill="rgb(89,200,146)" stroke="rgb(71,160,116)" stroke-width="1" opacity="0.75" />
			</g>
		</g>
		<g>
			<title>
Cobalt transporter</title>
			<polygon class="
Cobalt transporter" points="1955,40 1962,10 1962,70" fill="rgb(255,255,255)" fill-opacity="1.0" stroke="rgb(0,0,0)" stroke-width="2"  />
			<g>
				<title>CbtB (PF09489)
"Probable cobalt transporter subunit (CbtB)"</title>
				<polygon class="PF09489" points="1958,40 1961,28 1961,28 1961,52 1961,52" stroke-linejoin="round" width="6" height="24" fill="rgb(101,201,213)" stroke="rgb(80,160,170)" stroke-width="1" opacity="0.75" />
			</g>
		</g>
	</g>
</svg>
