<svg version="1.1" baseProfile="full" xmlns="http://www.w3.org/2000/svg" width="844.0" height="80">
	<g>
		<line x1="10" y1="40.0" x2="834.0" y2="40.0" style="stroke:rgb(70,70,70); stroke-width:3 "/>
		<g>
			<title>
tRNA-synthetase class I</title>
			<polygon class="
tRNA-synthetase class I" points="10,25 20,25 20,10 50,40 20,70 20,55 10,55" fill="rgb(255,255,255)" fill-opacity="1.0" stroke="rgb(0,0,0)" stroke-width="2"  />
			<g>
				<title>tRNA-synt_1c (PF00749)
"tRNA synthetases class I (E and Q), catalytic domain"</title>
				<rect class="PF00749" x="10" y="28" stroke-linejoin="round" width="23" height="24" fill="rgb(68,225,180)" stroke="rgb(54,180,144)" stroke-width="1" opacity="0.75" />
			</g>
			<g>
				<title>Anticodon_2 (PF19269)
"Anticodon binding domain"</title>
				<polygon class="PF19269" points="34,28 34,28 46,40 34,52 34,52" stroke-linejoin="round" width="13" height="24" fill="rgb(182,138,79)" stroke="rgb(145,110,63)" stroke-width="1" opacity="0.75" />
			</g>
		</g>
		<g>
			<title>
putative pyridoxine 5-phosphate oxidase</title>
			<polygon class="
putative pyridoxine 5-phosphate oxidase" points="50,40 71,10 71,70" fill="rgb(255,255,255)" fill-opacity="1.0" stroke="rgb(0,0,0)" stroke-width="2"  />
			<g>
				<title>Putative_PNPOx (PF01243)
"Pyridoxamine 5'-phosphate oxidase"</title>
				<polygon class="PF01243" points="58,34 62,28 67,28 67,52 62,52 58,46" stroke-linejoin="round" width="9" height="24" fill="rgb(187,127,57)" stroke="rgb(149,101,45)" stroke-width="1" opacity="0.75" />
			</g>
		</g>
		<g>
			<title>
ArsR regulator</title>
			<polygon class="
ArsR regulator" points="72,40 84,10 84,70" fill="rgb(255,255,255)" fill-opacity="1.0" stroke="rgb(0,0,0)" stroke-width="2"  />
			<g>
				<title>HTH_20 (PF12840)
"Helix-turn-helix domain"</title>
				<polygon class="PF12840" points="76,38 80,28 80,28 80,52 80,52 76,42" stroke-linejoin="round" width="4" height="24" fill="rgb(149,90,225)" stroke="rgb(119,72,180)" stroke-width="1" opacity="0.75" />
			</g>
		</g>
		<g>
			<title>ovmE
putative transmembrane efflux protein from the major facilitator superfamily</title>
			<polygon class="ovmE
putative transmembrane efflux protein from the major facilitator superfamily" points="89,25 100,25 100,10 130,40 100,70 100,55 89,55" fill="rgb(255,255,255)" fill-opacity="1.0" stroke="rgb(0,0,0)" stroke-width="2"  />
			<g>
				<title>MFS_1 (PF07690)
"Major Facilitator Superfamily"</title>
				<rect class="PF07690" x="90" y="28" stroke-linejoin="round" width="21" height="24" fill="rgb(228,207,98)" stroke="rgb(182,165,78)" stroke-width="1" opacity="0.75" />
			</g>
		</g>
		<g>
			<title>ovmX
putative nucleotide-diphosphate-sugar epimerase</title>
			<polygon class="ovmX
putative nucleotide-diphosphate-sugar epimerase" points="138,10 165,40 138,70" fill="rgb(255,255,255)" fill-opacity="1.0" stroke="rgb(0,0,0)" stroke-width="2"  />
			<g>
				<title>NAD_binding_10 (PF13460)
"NAD(P)H-binding"</title>
				<polygon class="PF13460" points="138,28 150,28 155,33 155,47 150,52 138,52" stroke-linejoin="round" width="17" height="24" fill="rgb(131,53,182)" stroke="rgb(104,42,145)" stroke-width="1" opacity="0.75" />
			</g>
		</g>
		<g>
			<title>ovmY
TetR-family transcriptional repressor</title>
			<polygon class="ovmY
TetR-family transcriptional repressor" points="166,10 187,40 166,70" fill="rgb(255,255,255)" fill-opacity="1.0" stroke="rgb(0,0,0)" stroke-width="2"  />
			<g>
				<title>TetR_N (PF00440)
"Bacterial regulatory proteins, tetR family"</title>
				<rect class="PF00440" x="168" y="28" stroke-linejoin="round" width="4" height="24" fill="rgb(148,50,185)" stroke="rgb(118,40,148)" stroke-width="1" opacity="0.75" />
			</g>
			<g>
				<title>TetR_C_16 (PF17920)
"Tetracyclin repressor-like, C-terminal domain"</title>
				<polygon class="PF17920" points="174,28 175,28 183,40 175,52 174,52" stroke-linejoin="round" width="10" height="24" fill="rgb(202,95,88)" stroke="rgb(161,76,70)" stroke-width="1" opacity="0.75" />
			</g>
		</g>
		<g>
			<title>ovmZ
ovmZ protein</title>
			<polygon class="ovmZ
ovmZ protein" points="194,40 218,10 218,70" fill="rgb(255,255,255)" fill-opacity="1.0" stroke="rgb(0,0,0)" stroke-width="2"  />
		</g>
		<g>
			<title>ovmR
IclR-family regulator</title>
			<polygon class="ovmR
IclR-family regulator" points="235,10 260,40 235,70" fill="rgb(255,255,255)" fill-opacity="1.0" stroke="rgb(0,0,0)" stroke-width="2"  />
			<g>
				<title>IclR (PF01614)
"Bacterial transcriptional regulator"</title>
				<polygon class="PF01614" points="250,33 256,40 250,47" stroke-linejoin="round" width="9" height="24" fill="rgb(209,146,66)" stroke="rgb(167,116,52)" stroke-width="1" opacity="0.75" />
			</g>
		</g>
		<g>
			<title>ovmOI
oxygenase</title>
			<polygon class="ovmOI
oxygenase" points="275,25 294,25 294,10 324,40 294,70 294,55 275,55" fill="rgb(255,255,255)" fill-opacity="1.0" stroke="rgb(0,0,0)" stroke-width="2"  />
			<g>
				<title>FAD_binding_3 (PF01494)
"FAD binding domain"</title>
				<rect class="PF01494" x="275" y="28" stroke-linejoin="round" width="33" height="24" fill="rgb(215,66,156)" stroke="rgb(172,52,124)" stroke-width="1" opacity="0.75" />
			</g>
			<g>
				<title>Rng_hyd_C (PF21274)
"Aromatic-ring hydroxylase, C-terminal"</title>
				<polygon class="PF21274" points="313,33 320,40 313,47" stroke-linejoin="round" width="10" height="24" fill="rgb(153,227,106)" stroke="rgb(122,181,84)" stroke-width="1" opacity="0.75" />
			</g>
		</g>
		<g>
			<title>ovmC
cyclase</title>
			<polygon class="ovmC
cyclase" points="328,10 339,40 328,70" fill="rgb(255,255,255)" fill-opacity="1.0" stroke="rgb(0,0,0)" stroke-width="2"  />
			<g>
				<title>Cyclase_polyket (PF04673)
"Polyketide synthesis cyclase"</title>
				<polygon class="PF04673" points="328,28 331,28 335,40 331,52 328,52" stroke-linejoin="round" width="10" height="24" fill="rgb(97,206,162)" stroke="rgb(77,164,129)" stroke-width="1" opacity="0.75" />
			</g>
		</g>
		<g>
			<title>ovmP
keto-acyl synthase alpha</title>
			<polygon class="ovmP
keto-acyl synthase alpha" points="339,25 346,25 346,10 376,40 346,70 346,55 339,55" fill="rgb(255,255,255)" fill-opacity="1.0" stroke="rgb(0,0,0)" stroke-width="2"  />
			<g>
				<title>ketoacyl-synt (PF00109)
"Beta-ketoacyl synthase, N-terminal domain"</title>
				<polygon class="PF00109" points="339,28 360,28 364,32 364,48 360,52 339,52" stroke-linejoin="round" width="25" height="24" fill="rgb(74,179,82)" stroke="rgb(59,143,65)" stroke-width="1" opacity="0.75" />
			</g>
			<g>
				<title>Ketoacyl-synt_C (PF02801)
"Beta-ketoacyl synthase, C-terminal domain"</title>
				<polygon class="PF02801" points="365,33 372,40 365,47" stroke-linejoin="round" width="10" height="24" fill="rgb(212,79,72)" stroke="rgb(169,63,57)" stroke-width="1" opacity="0.75" />
			</g>
		</g>
		<g>
			<title>ovmK
keto-acyl synthase beta</title>
			<polygon class="ovmK
keto-acyl synthase beta" points="376,25 386,25 386,10 416,40 386,70 386,55 376,55" fill="rgb(255,255,255)" fill-opacity="1.0" stroke="rgb(0,0,0)" stroke-width="2"  />
			<g>
				<title>ketoacyl-synt (PF00109)
"Beta-ketoacyl synthase, N-terminal domain"</title>
				<rect class="PF00109" x="376" y="28" stroke-linejoin="round" width="24" height="24" fill="rgb(74,179,82)" stroke="rgb(59,143,65)" stroke-width="1" opacity="0.75" />
			</g>
			<g>
				<title>Ketoacyl-synt_C (PF02801)
"Beta-ketoacyl synthase, C-terminal domain"</title>
				<polygon class="PF02801" points="401,29 412,40 412,40 401,51" stroke-linejoin="round" width="11" height="24" fill="rgb(212,79,72)" stroke="rgb(169,63,57)" stroke-width="1" opacity="0.75" />
			</g>
		</g>
		<g>
			<title>ovmS
acyl carrier protein</title>
			<polygon class="ovmS
acyl carrier protein" points="420,10 429,40 420,70" fill="rgb(255,255,255)" fill-opacity="1.0" stroke="rgb(0,0,0)" stroke-width="2"  />
			<g>
				<title>PP-binding (PF00550)
"Phosphopantetheine attachment site"</title>
				<polygon class="PF00550" points="420,28 421,28 425,40 421,52 420,52" stroke-linejoin="round" width="7" height="24" fill="rgb(181,58,166)" stroke="rgb(144,46,132)" stroke-width="1" opacity="0.75" />
			</g>
		</g>
		<g>
			<title>ovmT
ketoreductase</title>
			<polygon class="ovmT
ketoreductase" points="433,10 459,40 433,70" fill="rgb(255,255,255)" fill-opacity="1.0" stroke="rgb(0,0,0)" stroke-width="2"  />
			<g>
				<title>adh_short (PF00106)
"short chain dehydrogenase"</title>
				<polygon class="PF00106" points="433,28 445,28 452,37 452,43 445,52 433,52" stroke-linejoin="round" width="19" height="24" fill="rgb(128,81,196)" stroke="rgb(102,64,156)" stroke-width="1" opacity="0.75" />
			</g>
		</g>
		<g>
			<title>ovmA
aromatase</title>
			<polygon class="ovmA
aromatase" points="460,25 461,25 461,10 491,40 461,70 461,55 460,55" fill="rgb(255,255,255)" fill-opacity="1.0" stroke="rgb(0,0,0)" stroke-width="2"  />
			<g>
				<title>Polyketide_cyc2 (PF10604)
"Polyketide cyclase / dehydrase and lipid transport"</title>
				<rect class="PF10604" x="460" y="28" stroke-linejoin="round" width="14" height="24" fill="rgb(170,214,69)" stroke="rgb(136,171,55)" stroke-width="1" opacity="0.75" />
			</g>
			<g>
				<title>Polyketide_cyc2 (PF10604)
"Polyketide cyclase / dehydrase and lipid transport"</title>
				<polygon class="PF10604" points="475,28 475,28 487,40 475,52 475,52" stroke-linejoin="round" width="15" height="24" fill="rgb(170,214,69)" stroke="rgb(136,171,55)" stroke-width="1" opacity="0.75" />
			</g>
		</g>
		<g>
			<title>ovmOII
oxygenase</title>
			<polygon class="ovmOII
oxygenase" points="491,25 510,25 510,10 540,40 510,70 510,55 491,55" fill="rgb(255,255,255)" fill-opacity="1.0" stroke="rgb(0,0,0)" stroke-width="2"  />
			<g>
				<title>FAD_binding_3 (PF01494)
"FAD binding domain"</title>
				<rect class="PF01494" x="491" y="28" stroke-linejoin="round" width="32" height="24" fill="rgb(215,66,156)" stroke="rgb(172,52,124)" stroke-width="1" opacity="0.75" />
			</g>
			<g>
				<title>Rng_hyd_C (PF21274)
"Aromatic-ring hydroxylase, C-terminal"</title>
				<polygon class="PF21274" points="529,34 535,40 529,46" stroke-linejoin="round" width="10" height="24" fill="rgb(153,227,106)" stroke="rgb(122,181,84)" stroke-width="1" opacity="0.75" />
			</g>
		</g>
		<g>
			<title>ovmOIII
oxygenase</title>
			<polygon class="ovmOIII
oxygenase" points="541,25 561,25 561,10 591,40 561,70 561,55 541,55" fill="rgb(255,255,255)" fill-opacity="1.0" stroke="rgb(0,0,0)" stroke-width="2"  />
			<g>
				<title>FAD_binding_3 (PF01494)
"FAD binding domain"</title>
				<rect class="PF01494" x="542" y="28" stroke-linejoin="round" width="33" height="24" fill="rgb(215,66,156)" stroke="rgb(172,52,124)" stroke-width="1" opacity="0.75" />
			</g>
			<g>
				<title>Rng_hyd_C (PF21274)
"Aromatic-ring hydroxylase, C-terminal"</title>
				<polygon class="PF21274" points="581,34 587,40 581,46" stroke-linejoin="round" width="8" height="24" fill="rgb(153,227,106)" stroke="rgb(122,181,84)" stroke-width="1" opacity="0.75" />
			</g>
		</g>
		<g>
			<title>ovmF
4'-phosphopantetheinyl transferase</title>
			<polygon class="ovmF
4'-phosphopantetheinyl transferase" points="594,10 623,40 594,70" fill="rgb(255,255,255)" fill-opacity="1.0" stroke="rgb(0,0,0)" stroke-width="2"  />
			<g>
				<title>ACPS (PF01648)
"4'-phosphopantetheinyl transferase superfamily"</title>
				<polygon class="PF01648" points="608,29 617,38 617,42 608,51" stroke-linejoin="round" width="9" height="24" fill="rgb(58,190,78)" stroke="rgb(46,152,62)" stroke-width="1" opacity="0.75" />
			</g>
		</g>
		<g>
			<title>ovmG
acetyl-CoA carboxylase complex, beta-chain</title>
			<polygon class="ovmG
acetyl-CoA carboxylase complex, beta-chain" points="622,25 643,25 643,10 673,40 643,70 643,55 622,55" fill="rgb(255,255,255)" fill-opacity="1.0" stroke="rgb(0,0,0)" stroke-width="2"  />
			<g>
				<title>Carboxyl_trans (PF01039)
"Carboxyl transferase domain"</title>
				<polygon class="PF01039" points="624,28 657,28 669,40 657,52 624,52" stroke-linejoin="round" width="48" height="24" fill="rgb(185,80,158)" stroke="rgb(148,64,126)" stroke-width="1" opacity="0.75" />
			</g>
		</g>
		<g>
			<title>ovmH
acetyl-CoA carboxylase complex, alpha-chain</title>
			<polygon class="ovmH
acetyl-CoA carboxylase complex, alpha-chain" points="693,25 720,25 720,10 750,40 720,70 720,55 693,55" fill="rgb(255,255,255)" fill-opacity="1.0" stroke="rgb(0,0,0)" stroke-width="2"  />
			<g>
				<title>Biotin_carb_N (PF00289)
"Biotin carboxylase, N-terminal domain"</title>
				<rect class="PF00289" x="693" y="28" stroke-linejoin="round" width="10" height="24" fill="rgb(226,88,113)" stroke="rgb(180,70,90)" stroke-width="1" opacity="0.75" />
			</g>
			<g>
				<title>CPSase_L_D2 (PF02786)
"Carbamoyl-phosphate synthase L chain, ATP binding domain"</title>
				<rect class="PF02786" x="704" y="28" stroke-linejoin="round" width="20" height="24" fill="rgb(215,220,78)" stroke="rgb(172,176,62)" stroke-width="1" opacity="0.75" />
			</g>
			<g>
				<title>Biotin_carb_C (PF02785)
"Biotin carboxylase C-terminal domain"</title>
				<polygon class="PF02785" points="726,28 734,28 736,30 736,50 734,52 726,52" stroke-linejoin="round" width="10" height="24" fill="rgb(209,64,211)" stroke="rgb(167,51,168)" stroke-width="1" opacity="0.75" />
			</g>
			<g>
				<title>Biotin_lipoyl (PF00364)
"Biotin-requiring enzyme"</title>
				<polygon class="PF00364" points="743,37 746,40 743,43" stroke-linejoin="round" width="6" height="24" fill="rgb(99,229,97)" stroke="rgb(79,183,77)" stroke-width="1" opacity="0.75" />
			</g>
		</g>
		<g>
			<title>
putative MarR-family repressor</title>
			<polygon class="
putative MarR-family repressor" points="751,40 768,10 768,70" fill="rgb(255,255,255)" fill-opacity="1.0" stroke="rgb(0,0,0)" stroke-width="2"  />
			<g>
				<title>MarR_2 (PF12802)
"MarR family"</title>
				<polygon class="PF12802" points="756,37 761,28 762,28 762,52 761,52 756,43" stroke-linejoin="round" width="6" height="24" fill="rgb(139,211,68)" stroke="rgb(111,168,54)" stroke-width="1" opacity="0.75" />
			</g>
		</g>
		<g>
			<title>
putative 3-keto-acyl carrier protein reductase</title>
			<polygon class="
putative 3-keto-acyl carrier protein reductase" points="771,10 797,40 771,70" fill="rgb(255,255,255)" fill-opacity="1.0" stroke="rgb(0,0,0)" stroke-width="2"  />
			<g>
				<title>adh_short_C2 (PF13561)
"Enoyl-(Acyl carrier protein) reductase"</title>
				<polygon class="PF13561" points="773,28 782,28 793,40 782,52 773,52" stroke-linejoin="round" width="23" height="24" fill="rgb(79,221,209)" stroke="rgb(63,176,167)" stroke-width="1" opacity="0.75" />
			</g>
		</g>
		<g>
			<title>
hypothetical protein</title>
			<polygon class="
hypothetical protein" points="806,10 823,40 806,70" fill="rgb(255,255,255)" fill-opacity="1.0" stroke="rgb(0,0,0)" stroke-width="2"  />
		</g>
		<g>
			<title>
hypothetical protein</title>
			<polygon class="
hypothetical protein" points="823,10 833,40 823,70" fill="rgb(255,255,255)" fill-opacity="1.0" stroke="rgb(0,0,0)" stroke-width="2"  />
		</g>
	</g>
</svg>
