<svg version="1.1" baseProfile="full" xmlns="http://www.w3.org/2000/svg" width="762.1333333333333" height="80">
	<g>
		<line x1="10" y1="40.0" x2="752.1333333333333" y2="40.0" style="stroke:rgb(70,70,70); stroke-width:3 "/>
		<g>
			<title> (AFUA_3G12890)
C6 transcription factor GliZ-like, putative</title>
			<polygon class=" (AFUA_3G12890)
C6 transcription factor GliZ-like, putative" points="52,25 40,25 40,10 10,40 40,70 40,55 52,55" fill="rgb(255,255,255)" fill-opacity="1.0" stroke="rgb(0,0,0)" stroke-width="2"  />
			<g>
				<title>Zn_clus (PF00172)
"Fungal Zn(2)-Cys(6) binuclear cluster domain"</title>
				<rect class="PF00172" x="46" y="28" stroke-linejoin="round" width="3" height="24" fill="rgb(58,207,82)" stroke="rgb(46,165,65)" stroke-width="1" opacity="0.75" />
			</g>
		</g>
		<g>
			<title> (AFUA_3G12900)
MFS transporter, putative</title>
			<polygon class=" (AFUA_3G12900)
MFS transporter, putative" points="96,25 115,25 115,10 145,40 115,70 115,55 96,55" fill="rgb(255,255,255)" fill-opacity="1.0" stroke="rgb(0,0,0)" stroke-width="2"  />
			<g>
				<title>MFS_1 (PF07690)
"Major Facilitator Superfamily"</title>
				<polygon class="PF07690" points="100,28 129,28 135,34 135,46 129,52 100,52" stroke-linejoin="round" width="35" height="24" fill="rgb(228,207,98)" stroke="rgb(182,165,78)" stroke-width="1" opacity="0.75" />
			</g>
		</g>
		<g>
			<title> (AFUA_3G12910)
O-methyltransferase GliM-like, putative</title>
			<polygon class=" (AFUA_3G12910)
O-methyltransferase GliM-like, putative" points="209,25 194,25 194,10 164,40 194,70 194,55 209,55" fill="rgb(255,255,255)" fill-opacity="1.0" stroke="rgb(0,0,0)" stroke-width="2"  />
			<g>
				<title>Methyltransf_2 (PF00891)
"O-methyltransferase domain"</title>
				<polygon class="PF00891" points="170,38 180,28 191,28 191,52 180,52 170,42" stroke-linejoin="round" width="21" height="24" fill="rgb(91,124,224)" stroke="rgb(72,99,179)" stroke-width="1" opacity="0.75" />
			</g>
		</g>
		<g>
			<title> (AFUA_3G12920)
nonribosomal peptide synthase GliP-like, putative</title>
			<polygon class=" (AFUA_3G12920)
nonribosomal peptide synthase GliP-like, putative" points="220,25 414,25 414,10 444,40 414,70 414,55 220,55" fill="rgb(255,255,255)" fill-opacity="1.0" stroke="rgb(0,0,0)" stroke-width="2"  />
			<g>
				<title>AMP-binding (PF00501)
"AMP-binding enzyme"</title>
				<rect class="PF00501" x="222" y="28" stroke-linejoin="round" width="34" height="24" fill="rgb(189,78,204)" stroke="rgb(151,62,163)" stroke-width="1" opacity="0.75" />
			</g>
			<g>
				<title>PP-binding (PF00550)
"Phosphopantetheine attachment site"</title>
				<rect class="PF00550" x="272" y="28" stroke-linejoin="round" width="6" height="24" fill="rgb(181,58,166)" stroke="rgb(144,46,132)" stroke-width="1" opacity="0.75" />
			</g>
			<g>
				<title>Condensation (PF00668)
"Condensation domain"</title>
				<rect class="PF00668" x="282" y="28" stroke-linejoin="round" width="43" height="24" fill="rgb(172,217,60)" stroke="rgb(137,173,47)" stroke-width="1" opacity="0.75" />
			</g>
			<g>
				<title>AMP-binding (PF00501)
"AMP-binding enzyme"</title>
				<rect class="PF00501" x="328" y="28" stroke-linejoin="round" width="33" height="24" fill="rgb(189,78,204)" stroke="rgb(151,62,163)" stroke-width="1" opacity="0.75" />
			</g>
			<g>
				<title>PP-binding (PF00550)
"Phosphopantetheine attachment site"</title>
				<rect class="PF00550" x="377" y="28" stroke-linejoin="round" width="6" height="24" fill="rgb(181,58,166)" stroke="rgb(144,46,132)" stroke-width="1" opacity="0.75" />
			</g>
			<g>
				<title>Condensation (PF00668)
"Condensation domain"</title>
				<rect class="PF00668" x="386" y="28" stroke-linejoin="round" width="39" height="24" fill="rgb(172,217,60)" stroke="rgb(137,173,47)" stroke-width="1" opacity="0.75" />
			</g>
			<g>
				<title>PP-binding (PF00550)
"Phosphopantetheine attachment site"</title>
				<polygon class="PF00550" points="433,33 439,39 439,41 433,47" stroke-linejoin="round" width="6" height="24" fill="rgb(181,58,166)" stroke="rgb(144,46,132)" stroke-width="1" opacity="0.75" />
			</g>
		</g>
		<g>
			<title> (AFUA_3G12930)
dimethylallyl tryptophan synthase SirD-like, putative</title>
			<polygon class=" (AFUA_3G12930)
dimethylallyl tryptophan synthase SirD-like, putative" points="468,25 487,25 487,10 517,40 487,70 487,55 468,55" fill="rgb(255,255,255)" fill-opacity="1.0" stroke="rgb(0,0,0)" stroke-width="2"  />
			<g>
				<title>Trp_DMAT (PF11991)
"Tryptophan dimethylallyltransferase"</title>
				<polygon class="PF11991" points="474,28 500,28 510,38 510,42 500,52 474,52" stroke-linejoin="round" width="36" height="24" fill="rgb(65,157,207)" stroke="rgb(51,125,165)" stroke-width="1" opacity="0.75" />
			</g>
		</g>
		<g>
			<title> (AFUA_3G12940)
C6 transcription factor, putative</title>
			<polygon class=" (AFUA_3G12940)
C6 transcription factor, putative" points="607,25 554,25 554,10 524,40 554,70 554,55 607,55" fill="rgb(255,255,255)" fill-opacity="1.0" stroke="rgb(0,0,0)" stroke-width="2"  />
			<g>
				<title>Fungal_trans (PF04082)
"Fungal specific transcription factor domain"</title>
				<rect class="PF04082" x="558" y="28" stroke-linejoin="round" width="25" height="24" fill="rgb(214,73,227)" stroke="rgb(171,58,181)" stroke-width="1" opacity="0.75" />
			</g>
			<g>
				<title>Zn_clus (PF00172)
"Fungal Zn(2)-Cys(6) binuclear cluster domain"</title>
				<rect class="PF00172" x="600" y="28" stroke-linejoin="round" width="3" height="24" fill="rgb(58,207,82)" stroke="rgb(46,165,65)" stroke-width="1" opacity="0.75" />
			</g>
		</g>
		<g>
			<title> (AFUA_3G12950)
FAD binding domain protein</title>
			<polygon class=" (AFUA_3G12950)
FAD binding domain protein" points="676,25 654,25 654,10 624,40 654,70 654,55 676,55" fill="rgb(255,255,255)" fill-opacity="1.0" stroke="rgb(0,0,0)" stroke-width="2"  />
			<g>
				<title>FAD_binding_4 (PF01565)
"FAD binding domain"</title>
				<rect class="PF01565" x="658" y="28" stroke-linejoin="round" width="13" height="24" fill="rgb(194,197,94)" stroke="rgb(155,157,75)" stroke-width="1" opacity="0.75" />
			</g>
		</g>
		<g>
			<title> (AFUA_3G12960)
cytochrome P450 monooxigenase GliC-like, putative</title>
			<polygon class=" (AFUA_3G12960)
cytochrome P450 monooxigenase GliC-like, putative" points="751,25 717,25 717,10 687,40 717,70 717,55 751,55" fill="rgb(255,255,255)" fill-opacity="1.0" stroke="rgb(0,0,0)" stroke-width="2"  />
			<g>
				<title>p450 (PF00067)
"Cytochrome P450"</title>
				<polygon class="PF00067" points="698,33 703,28 742,28 742,52 703,52 698,47" stroke-linejoin="round" width="44" height="24" fill="rgb(195,210,54)" stroke="rgb(155,168,43)" stroke-width="1" opacity="0.75" />
			</g>
		</g>
	</g>
</svg>
