<svg version="1.1" baseProfile="full" xmlns="http://www.w3.org/2000/svg" width="437.3" height="80">
	<g>
		<line x1="10" y1="40.0" x2="427.3" y2="40.0" style="stroke:rgb(70,70,70); stroke-width:3 "/>
		<g>
			<title>
putative resolvase</title>
			<polygon class="
putative resolvase" points="91,10 117,40 91,70" fill="rgb(255,255,255)" fill-opacity="1.0" stroke="rgb(0,0,0)" stroke-width="2"  />
			<g>
				<title>Phage_integrase (PF00589)
"Phage integrase family"</title>
				<polygon class="PF00589" points="95,28 103,28 113,40 103,52 95,52" stroke-linejoin="round" width="19" height="24" fill="rgb(66,206,122)" stroke="rgb(52,164,97)" stroke-width="1" opacity="0.75" />
			</g>
		</g>
		<g>
			<title>cmi
colicin M resistance protein</title>
			<polygon class="cmi
colicin M resistance protein" points="122,10 134,40 122,70" fill="rgb(255,255,255)" fill-opacity="1.0" stroke="rgb(0,0,0)" stroke-width="2"  />
			<g>
				<title>YebF (PF13995)
"YebF-like protein"</title>
				<polygon class="PF13995" points="125,28 126,28 131,40 126,52 125,52" stroke-linejoin="round" width="9" height="24" fill="rgb(90,222,113)" stroke="rgb(72,177,90)" stroke-width="1" opacity="0.75" />
			</g>
		</g>
		<g>
			<title>cvi
microcin V immunity protein</title>
			<polygon class="cvi
microcin V immunity protein" points="161,10 168,40 161,70" fill="rgb(255,255,255)" fill-opacity="1.0" stroke="rgb(0,0,0)" stroke-width="2"  />
		</g>
		<g>
			<title>mclI
microcin L immunity protein</title>
			<polygon class="mclI
microcin L immunity protein" points="171,10 176,40 171,70" fill="rgb(255,255,255)" fill-opacity="1.0" stroke="rgb(0,0,0)" stroke-width="2"  />
		</g>
		<g>
			<title>mclC
microcin L precursor</title>
			<polygon class="mclC
microcin L precursor" points="176,10 186,40 176,70" fill="rgb(255,255,255)" fill-opacity="1.0" stroke="rgb(0,0,0)" stroke-width="2"  />
			<g>
				<title>MccV (PF17508)
"Microcin V bacteriocin"</title>
				<polygon class="PF17508" points="176,28 178,28 183,40 178,52 176,52" stroke-linejoin="round" width="10" height="24" fill="rgb(207,214,66)" stroke="rgb(165,171,52)" stroke-width="1" opacity="0.75" />
			</g>
		</g>
		<g>
			<title>mclB
putative microcin L transport protein</title>
			<polygon class="mclB
putative microcin L transport protein" points="262,25 223,25 223,10 193,40 223,70 223,55 262,55" fill="rgb(255,255,255)" fill-opacity="1.0" stroke="rgb(0,0,0)" stroke-width="2"  />
			<g>
				<title>ABC_tran (PF00005)
"ABC transporter"</title>
				<polygon class="PF00005" points="197,40 209,28 211,28 211,52 209,52 197,40" stroke-linejoin="round" width="14" height="24" fill="rgb(46,186,108)" stroke="rgb(36,148,86)" stroke-width="1" opacity="0.75" />
			</g>
			<g>
				<title>ABC_membrane (PF00664)
"ABC transporter transmembrane region"</title>
				<rect class="PF00664" x="218" y="28" stroke-linejoin="round" width="27" height="24" fill="rgb(62,71,183)" stroke="rgb(49,56,146)" stroke-width="1" opacity="0.75" />
			</g>
			<g>
				<title>Peptidase_C39 (PF03412)
"Peptidase C39 family"</title>
				<rect class="PF03412" x="247" y="28" stroke-linejoin="round" width="13" height="24" fill="rgb(93,118,202)" stroke="rgb(74,94,161)" stroke-width="1" opacity="0.75" />
			</g>
		</g>
		<g>
			<title>mclA
putative microcin L transport protein</title>
			<polygon class="mclA
putative microcin L transport protein" points="303,25 292,25 292,10 262,40 292,70 292,55 303,55" fill="rgb(255,255,255)" fill-opacity="1.0" stroke="rgb(0,0,0)" stroke-width="2"  />
			<g>
				<title>CusB_dom_1 (PF00529)
"Cation efflux system protein CusB domain 1"</title>
				<polygon class="PF00529" points="266,40 278,28 300,28 300,52 278,52" stroke-linejoin="round" width="36" height="24" fill="rgb(129,211,69)" stroke="rgb(103,168,55)" stroke-width="1" opacity="0.75" />
			</g>
		</g>
		<g>
			<title>pemI
stable inheritance protein PemI</title>
			<polygon class="pemI
stable inheritance protein PemI" points="351,10 359,40 351,70" fill="rgb(255,255,255)" fill-opacity="1.0" stroke="rgb(0,0,0)" stroke-width="2"  />
		</g>
		<g>
			<title>pemK
stable inheritance protein PemK</title>
			<polygon class="pemK
stable inheritance protein PemK" points="357,10 370,40 357,70" fill="rgb(255,255,255)" fill-opacity="1.0" stroke="rgb(0,0,0)" stroke-width="2"  />
			<g>
				<title>PemK_toxin (PF02452)
"PemK-like, MazF-like toxin of type II toxin-antitoxin system"</title>
				<polygon class="PF02452" points="359,28 361,28 367,40 361,52 359,52" stroke-linejoin="round" width="10" height="24" fill="rgb(70,152,222)" stroke="rgb(56,121,177)" stroke-width="1" opacity="0.75" />
			</g>
		</g>
		<g>
			<title>stbB
putative plasmid stable inheritance protein</title>
			<polygon class="stbB
putative plasmid stable inheritance protein" points="374,40 387,10 387,70" fill="rgb(255,255,255)" fill-opacity="1.0" stroke="rgb(0,0,0)" stroke-width="2"  />
			<g>
				<title>Plasmid_stab_B (PF10784)
"Plasmid stability protein"</title>
				<polygon class="PF10784" points="379,35 382,28 386,28 386,52 382,52 379,45" stroke-linejoin="round" width="7" height="24" fill="rgb(109,191,66)" stroke="rgb(87,152,52)" stroke-width="1" opacity="0.75" />
			</g>
		</g>
		<g>
			<title>
putative plasmid segregation protein ParM</title>
			<polygon class="
putative plasmid segregation protein ParM" points="420,25 417,25 417,10 387,40 417,70 417,55 420,55" fill="rgb(255,255,255)" fill-opacity="1.0" stroke="rgb(0,0,0)" stroke-width="2"  />
			<g>
				<title>ParM_N (PF21523)
"Plasmid segregation protein ParM, C-terminal"</title>
				<polygon class="PF21523" points="391,40 402,29 402,51" stroke-linejoin="round" width="15" height="24" fill="rgb(223,71,200)" stroke="rgb(178,56,160)" stroke-width="1" opacity="0.75" />
			</g>
			<g>
				<title>StbA_N (PF06406)
"Plasmid segregation protein ParM, N-terminal"</title>
				<polygon class="PF06406" points="403,28 403,28 418,28 418,52 403,52 403,52" stroke-linejoin="round" width="15" height="24" fill="rgb(166,198,75)" stroke="rgb(132,158,60)" stroke-width="1" opacity="0.75" />
			</g>
		</g>
	</g>
</svg>
