<svg version="1.1" baseProfile="full" xmlns="http://www.w3.org/2000/svg" width="1170.3333333333333" height="80">
	<g>
		<line x1="10" y1="40.0" x2="1160.3333333333333" y2="40.0" style="stroke:rgb(70,70,70); stroke-width:3 "/>
		<g>
			<title>
transcriptional regulator</title>
			<polygon class="
transcriptional regulator" points="10,40 28,10 28,70" fill="rgb(255,255,255)" fill-opacity="1.0" stroke="rgb(0,0,0)" stroke-width="2"  />
			<g>
				<title>TrmB (PF01978)
"Sugar-specific transcriptional regulator TrmB"</title>
				<polygon class="PF01978" points="21,29 22,28 27,28 27,52 22,52 21,51" stroke-linejoin="round" width="6" height="24" fill="rgb(88,195,177)" stroke="rgb(70,156,141)" stroke-width="1" opacity="0.75" />
			</g>
		</g>
		<g>
			<title>
hypothetical protein</title>
			<polygon class="
hypothetical protein" points="30,40 54,10 54,70" fill="rgb(255,255,255)" fill-opacity="1.0" stroke="rgb(0,0,0)" stroke-width="2"  />
			<g>
				<title>DUF6333 (PF19859)
"Family of unknown function (DUF6333)"</title>
				<polygon class="PF19859" points="34,40 44,28 53,28 53,52 44,52" stroke-linejoin="round" width="23" height="24" fill="rgb(101,214,60)" stroke="rgb(80,171,47)" stroke-width="1" opacity="0.75" />
			</g>
		</g>
		<g>
			<title>
hypothetical protein</title>
			<polygon class="
hypothetical protein" points="53,40 80,10 80,70" fill="rgb(255,255,255)" fill-opacity="1.0" stroke="rgb(0,0,0)" stroke-width="2"  />
			<g>
				<title>MaoC_dehydrat_N (PF13452)
"N-terminal half of MaoC dehydratase"</title>
				<polygon class="PF13452" points="67,29 68,28 74,28 74,52 68,52 67,51" stroke-linejoin="round" width="7" height="24" fill="rgb(80,58,182)" stroke="rgb(64,46,145)" stroke-width="1" opacity="0.75" />
			</g>
		</g>
		<g>
			<title>
L-carnitine dehydratase</title>
			<polygon class="
L-carnitine dehydratase" points="121,25 112,25 112,10 82,40 112,70 112,55 121,55" fill="rgb(255,255,255)" fill-opacity="1.0" stroke="rgb(0,0,0)" stroke-width="2"  />
			<g>
				<title>CoA_transf_3 (PF02515)
"CoA-transferase family III"</title>
				<polygon class="PF02515" points="86,40 98,28 120,28 120,52 98,52" stroke-linejoin="round" width="36" height="24" fill="rgb(194,75,118)" stroke="rgb(155,60,94)" stroke-width="1" opacity="0.75" />
			</g>
		</g>
		<g>
			<title>
isovaleryl-CoA dehydrogenase</title>
			<polygon class="
isovaleryl-CoA dehydrogenase" points="159,25 151,25 151,10 121,40 151,70 151,55 159,55" fill="rgb(255,255,255)" fill-opacity="1.0" stroke="rgb(0,0,0)" stroke-width="2"  />
			<g>
				<title>Acyl-CoA_dh_1 (PF00441)
"Acyl-CoA dehydrogenase, C-terminal domain"</title>
				<polygon class="PF00441" points="125,40 135,30 135,50" stroke-linejoin="round" width="14" height="24" fill="rgb(96,175,206)" stroke="rgb(76,139,164)" stroke-width="1" opacity="0.75" />
			</g>
			<g>
				<title>Acyl-CoA_dh_M (PF02770)
"Acyl-CoA dehydrogenase, middle domain"</title>
				<polygon class="PF02770" points="137,28 137,28 146,28 146,52 137,52 137,52" stroke-linejoin="round" width="9" height="24" fill="rgb(58,129,192)" stroke="rgb(46,103,153)" stroke-width="1" opacity="0.75" />
			</g>
			<g>
				<title>Acyl-CoA_dh_N (PF02771)
"Acyl-CoA dehydrogenase, N-terminal domain"</title>
				<rect class="PF02771" x="147" y="28" stroke-linejoin="round" width="11" height="24" fill="rgb(104,198,213)" stroke="rgb(83,158,170)" stroke-width="1" opacity="0.75" />
			</g>
		</g>
		<g>
			<title>
unknown</title>
			<polygon class="
unknown" points="169,25 174,25 174,10 204,40 174,70 174,55 169,55" fill="rgb(255,255,255)" fill-opacity="1.0" stroke="rgb(0,0,0)" stroke-width="2"  />
			<g>
				<title>Glyco_hydro_62 (PF03664)
"Glycosyl hydrolase family 62"</title>
				<polygon class="PF03664" points="172,28 188,28 200,40 200,40 188,52 172,52" stroke-linejoin="round" width="28" height="24" fill="rgb(68,179,69)" stroke="rgb(54,143,55)" stroke-width="1" opacity="0.75" />
			</g>
		</g>
		<g>
			<title>
cellulose-binding family protein</title>
			<polygon class="
cellulose-binding family protein" points="205,25 209,25 209,10 239,40 209,70 209,55 205,55" fill="rgb(255,255,255)" fill-opacity="1.0" stroke="rgb(0,0,0)" stroke-width="2"  />
			<g>
				<title>Lipase_GDSL_2 (PF13472)
"GDSL-like Lipase/Acylhydrolase family"</title>
				<polygon class="PF13472" points="209,28 222,28 226,32 226,48 222,52 209,52" stroke-linejoin="round" width="17" height="24" fill="rgb(211,100,148)" stroke="rgb(168,80,118)" stroke-width="1" opacity="0.75" />
			</g>
			<g>
				<title>CBM_2 (PF00553)
"Cellulose binding domain"</title>
				<polygon class="PF00553" points="229,35 234,40 229,45" stroke-linejoin="round" width="9" height="24" fill="rgb(67,219,159)" stroke="rgb(53,175,127)" stroke-width="1" opacity="0.75" />
			</g>
		</g>
		<g>
			<title>
betaine aldehyde dehydrogenase</title>
			<polygon class="
betaine aldehyde dehydrogenase" points="289,25 270,25 270,10 240,40 270,70 270,55 289,55" fill="rgb(255,255,255)" fill-opacity="1.0" stroke="rgb(0,0,0)" stroke-width="2"  />
			<g>
				<title>Aldedh (PF00171)
"Aldehyde dehydrogenase family"</title>
				<polygon class="PF00171" points="244,40 256,28 286,28 286,52 256,52" stroke-linejoin="round" width="46" height="24" fill="rgb(180,140,83)" stroke="rgb(144,112,66)" stroke-width="1" opacity="0.75" />
			</g>
		</g>
		<g>
			<title>
methyltransferase</title>
			<polygon class="
methyltransferase" points="290,40 313,10 313,70" fill="rgb(255,255,255)" fill-opacity="1.0" stroke="rgb(0,0,0)" stroke-width="2"  />
			<g>
				<title>Methyltransf_25 (PF13649)
"Methyltransferase domain"</title>
				<polygon class="PF13649" points="300,32 304,28 309,28 309,52 304,52 300,48" stroke-linejoin="round" width="9" height="24" fill="rgb(224,103,106)" stroke="rgb(179,82,84)" stroke-width="1" opacity="0.75" />
			</g>
		</g>
		<g>
			<title>
AraC family transcriptional regulator</title>
			<polygon class="
AraC family transcriptional regulator" points="320,25 320,25 320,10 350,40 320,70 320,55 320,55" fill="rgb(255,255,255)" fill-opacity="1.0" stroke="rgb(0,0,0)" stroke-width="2"  />
			<g>
				<title>DJ-1_PfpI (PF01965)
"DJ-1/PfpI family"</title>
				<polygon class="PF01965" points="321,28 334,28 335,29 335,51 334,52 321,52" stroke-linejoin="round" width="14" height="24" fill="rgb(125,77,208)" stroke="rgb(99,61,166)" stroke-width="1" opacity="0.75" />
			</g>
			<g>
				<title>HTH_18 (PF12833)
"Helix-turn-helix domain"</title>
				<polygon class="PF12833" points="342,36 346,40 342,44" stroke-linejoin="round" width="7" height="24" fill="rgb(96,195,114)" stroke="rgb(76,156,91)" stroke-width="1" opacity="0.75" />
			</g>
		</g>
		<g>
			<title>
hydrolase</title>
			<polygon class="
hydrolase" points="352,25 360,25 360,10 390,40 360,70 360,55 352,55" fill="rgb(255,255,255)" fill-opacity="1.0" stroke="rgb(0,0,0)" stroke-width="2"  />
			<g>
				<title>EHN (PF06441)
"Epoxide hydrolase N terminus"</title>
				<rect class="PF06441" x="352" y="28" stroke-linejoin="round" width="10" height="24" fill="rgb(213,148,83)" stroke="rgb(170,118,66)" stroke-width="1" opacity="0.75" />
			</g>
		</g>
		<g>
			<title>
short-chain dehydrogenase/reductase SDR</title>
			<polygon class="
short-chain dehydrogenase/reductase SDR" points="402,40 417,10 417,70" fill="rgb(255,255,255)" fill-opacity="1.0" stroke="rgb(0,0,0)" stroke-width="2"  />
		</g>
		<g>
			<title>
putative N-methyltransferase</title>
			<polygon class="
putative N-methyltransferase" points="461,25 458,25 458,10 428,40 458,70 458,55 461,55" fill="rgb(255,255,255)" fill-opacity="1.0" stroke="rgb(0,0,0)" stroke-width="2"  />
			<g>
				<title>Methyltransf_2 (PF00891)
"O-methyltransferase domain"</title>
				<polygon class="PF00891" points="432,40 444,28 450,28 450,52 444,52" stroke-linejoin="round" width="20" height="24" fill="rgb(91,124,224)" stroke="rgb(72,99,179)" stroke-width="1" opacity="0.75" />
			</g>
			<g>
				<title>Dimerisation2 (PF16864)
"Dimerisation domain"</title>
				<rect class="PF16864" x="452" y="28" stroke-linejoin="round" width="8" height="24" fill="rgb(212,101,199)" stroke="rgb(169,80,159)" stroke-width="1" opacity="0.75" />
			</g>
		</g>
		<g>
			<title>
putative phenazine biosynthesis protein EsmA1</title>
			<polygon class="
putative phenazine biosynthesis protein EsmA1" points="462,40 478,10 478,70" fill="rgb(255,255,255)" fill-opacity="1.0" stroke="rgb(0,0,0)" stroke-width="2"  />
			<g>
				<title>PHZA_PHZB (PF03284)
"Phenazine biosynthesis protein A/B"</title>
				<polygon class="PF03284" points="465,40 471,28 477,28 477,52 471,52" stroke-linejoin="round" width="15" height="24" fill="rgb(97,186,70)" stroke="rgb(77,148,56)" stroke-width="1" opacity="0.75" />
			</g>
		</g>
		<g>
			<title>
putative phenazine biosynthesis protein EsmH1</title>
			<polygon class="
putative phenazine biosynthesis protein EsmH1" points="479,40 489,10 489,70" fill="rgb(255,255,255)" fill-opacity="1.0" stroke="rgb(0,0,0)" stroke-width="2"  />
		</g>
		<g>
			<title>
phenazine biosynthesis protein PhzD</title>
			<polygon class="
phenazine biosynthesis protein PhzD" points="490,40 510,10 510,70" fill="rgb(255,255,255)" fill-opacity="1.0" stroke="rgb(0,0,0)" stroke-width="2"  />
			<g>
				<title>Isochorismatase (PF00857)
"Isochorismatase family"</title>
				<polygon class="PF00857" points="494,40 502,28 507,28 507,52 502,52" stroke-linejoin="round" width="17" height="24" fill="rgb(82,216,163)" stroke="rgb(65,172,130)" stroke-width="1" opacity="0.75" />
			</g>
		</g>
		<g>
			<title>
XRE family transcriptional regulator</title>
			<polygon class="
XRE family transcriptional regulator" points="517,40 523,10 523,70" fill="rgb(255,255,255)" fill-opacity="1.0" stroke="rgb(0,0,0)" stroke-width="2"  />
			<g>
				<title>HTH_26 (PF13443)
"Cro/C1-type HTH DNA-binding domain"</title>
				<polygon class="PF13443" points="520,40 523,28 523,28 523,52 523,52" stroke-linejoin="round" width="6" height="24" fill="rgb(226,74,207)" stroke="rgb(180,59,165)" stroke-width="1" opacity="0.75" />
			</g>
		</g>
		<g>
			<title>
hypothetical protein</title>
			<polygon class="
hypothetical protein" points="524,40 540,10 540,70" fill="rgb(255,255,255)" fill-opacity="1.0" stroke="rgb(0,0,0)" stroke-width="2"  />
			<g>
				<title>DUF2975 (PF11188)
"Protein of unknown function (DUF2975)"</title>
				<polygon class="PF11188" points="527,40 533,28 536,28 536,52 533,52" stroke-linejoin="round" width="12" height="24" fill="rgb(194,91,98)" stroke="rgb(155,72,78)" stroke-width="1" opacity="0.75" />
			</g>
		</g>
		<g>
			<title>
TamA</title>
			<polygon class="
TamA" points="547,25 577,25 577,10 607,40 577,70 577,55 547,55" fill="rgb(255,255,255)" fill-opacity="1.0" stroke="rgb(0,0,0)" stroke-width="2"  />
			<g>
				<title>ABC_tran (PF00005)
"ABC transporter"</title>
				<polygon class="PF00005" points="584,28 591,28 599,36 599,44 591,52 584,52" stroke-linejoin="round" width="15" height="24" fill="rgb(46,186,108)" stroke="rgb(36,148,86)" stroke-width="1" opacity="0.75" />
			</g>
		</g>
		<g>
			<title>
30S ribosomal protein S1</title>
			<polygon class="
30S ribosomal protein S1" points="608,40 615,10 615,70" fill="rgb(255,255,255)" fill-opacity="1.0" stroke="rgb(0,0,0)" stroke-width="2"  />
		</g>
		<g>
			<title>
TamB</title>
			<polygon class="
TamB" points="617,40 645,10 645,70" fill="rgb(255,255,255)" fill-opacity="1.0" stroke="rgb(0,0,0)" stroke-width="2"  />
			<g>
				<title>Bac_luciferase (PF00296)
"Luciferase-like monooxygenase"</title>
				<polygon class="PF00296" points="621,40 633,28 645,28 645,52 633,52" stroke-linejoin="round" width="28" height="24" fill="rgb(50,200,104)" stroke="rgb(40,160,83)" stroke-width="1" opacity="0.75" />
			</g>
		</g>
		<g>
			<title>
TamC</title>
			<polygon class="
TamC" points="680,25 676,25 676,10 646,40 676,70 676,55 680,55" fill="rgb(255,255,255)" fill-opacity="1.0" stroke="rgb(0,0,0)" stroke-width="2"  />
			<g>
				<title>Aldo_ket_red (PF00248)
"Aldo/keto reductase family"</title>
				<polygon class="PF00248" points="650,40 662,28 677,28 677,52 662,52" stroke-linejoin="round" width="29" height="24" fill="rgb(96,196,138)" stroke="rgb(76,156,110)" stroke-width="1" opacity="0.75" />
			</g>
		</g>
		<g>
			<title>
TamD</title>
			<polygon class="
TamD" points="683,10 702,40 683,70" fill="rgb(255,255,255)" fill-opacity="1.0" stroke="rgb(0,0,0)" stroke-width="2"  />
			<g>
				<title>TetR_N (PF00440)
"Bacterial regulatory proteins, tetR family"</title>
				<rect class="PF00440" x="685" y="28" stroke-linejoin="round" width="4" height="24" fill="rgb(148,50,185)" stroke="rgb(118,40,148)" stroke-width="1" opacity="0.75" />
			</g>
			<g>
				<title>TetR_C_43 (PF21597)
"Transcriptional regulator SbtR-like, C-terminal domain"</title>
				<polygon class="PF21597" points="691,29 698,40 691,51" stroke-linejoin="round" width="10" height="24" fill="rgb(54,198,207)" stroke="rgb(43,158,165)" stroke-width="1" opacity="0.75" />
			</g>
		</g>
		<g>
			<title>
TamE</title>
			<polygon class="
TamE" points="705,40 725,10 725,70" fill="rgb(255,255,255)" fill-opacity="1.0" stroke="rgb(0,0,0)" stroke-width="2"  />
			<g>
				<title>NAD_binding_10 (PF13460)
"NAD(P)H-binding"</title>
				<polygon class="PF13460" points="709,40 717,28 724,28 724,52 717,52" stroke-linejoin="round" width="18" height="24" fill="rgb(131,53,182)" stroke="rgb(104,42,145)" stroke-width="1" opacity="0.75" />
			</g>
		</g>
		<g>
			<title>
TamF</title>
			<polygon class="
TamF" points="773,25 756,25 756,10 726,40 756,70 756,55 773,55" fill="rgb(255,255,255)" fill-opacity="1.0" stroke="rgb(0,0,0)" stroke-width="2"  />
			<g>
				<title>Rng_hyd_C (PF21274)
"Aromatic-ring hydroxylase, C-terminal"</title>
				<polygon class="PF21274" points="730,40 738,32 738,48" stroke-linejoin="round" width="11" height="24" fill="rgb(153,227,106)" stroke="rgb(122,181,84)" stroke-width="1" opacity="0.75" />
			</g>
			<g>
				<title>FAD_binding_3 (PF01494)
"FAD binding domain"</title>
				<polygon class="PF01494" points="742,28 742,28 772,28 772,52 742,52 742,52" stroke-linejoin="round" width="30" height="24" fill="rgb(215,66,156)" stroke="rgb(172,52,124)" stroke-width="1" opacity="0.75" />
			</g>
		</g>
		<g>
			<title>
TamG</title>
			<polygon class="
TamG" points="779,40 793,10 793,70" fill="rgb(255,255,255)" fill-opacity="1.0" stroke="rgb(0,0,0)" stroke-width="2"  />
			<g>
				<title>Polyketide_cyc2 (PF10604)
"Polyketide cyclase / dehydrase and lipid transport"</title>
				<polygon class="PF10604" points="782,40 788,28 792,28 792,52 788,52" stroke-linejoin="round" width="13" height="24" fill="rgb(170,214,69)" stroke="rgb(136,171,55)" stroke-width="1" opacity="0.75" />
			</g>
		</g>
		<g>
			<title>
TamH</title>
			<polygon class="
TamH" points="795,40 822,10 822,70" fill="rgb(255,255,255)" fill-opacity="1.0" stroke="rgb(0,0,0)" stroke-width="2"  />
			<g>
				<title>Cyclase (PF04199)
"Putative cyclase"</title>
				<polygon class="PF04199" points="802,37 810,28 821,28 821,52 810,52 802,43" stroke-linejoin="round" width="19" height="24" fill="rgb(145,90,187)" stroke="rgb(115,72,149)" stroke-width="1" opacity="0.75" />
			</g>
		</g>
		<g>
			<title>
TamI</title>
			<polygon class="
TamI" points="824,25 856,25 856,10 886,40 856,70 856,55 824,55" fill="rgb(255,255,255)" fill-opacity="1.0" stroke="rgb(0,0,0)" stroke-width="2"  />
			<g>
				<title>Trans_reg_C (PF00486)
"Transcriptional regulatory protein, C terminal"</title>
				<rect class="PF00486" x="827" y="28" stroke-linejoin="round" width="7" height="24" fill="rgb(69,185,116)" stroke="rgb(55,148,92)" stroke-width="1" opacity="0.75" />
			</g>
			<g>
				<title>BTAD (PF03704)
"Bacterial transcriptional activator domain"</title>
				<rect class="PF03704" x="836" y="28" stroke-linejoin="round" width="15" height="24" fill="rgb(174,224,58)" stroke="rgb(139,179,46)" stroke-width="1" opacity="0.75" />
			</g>
			<g>
				<title>NB-ARC (PF00931)
"NB-ARC domain"</title>
				<polygon class="PF00931" points="854,28 870,28 875,33 875,47 870,52 854,52" stroke-linejoin="round" width="21" height="24" fill="rgb(199,170,84)" stroke="rgb(159,136,67)" stroke-width="1" opacity="0.75" />
			</g>
		</g>
		<g>
			<title>
TamJ</title>
			<polygon class="
TamJ" points="888,40 902,10 902,70" fill="rgb(255,255,255)" fill-opacity="1.0" stroke="rgb(0,0,0)" stroke-width="2"  />
			<g>
				<title>Biotin_lipoyl (PF00364)
"Biotin-requiring enzyme"</title>
				<polygon class="PF00364" points="891,40 895,32 895,48" stroke-linejoin="round" width="7" height="24" fill="rgb(99,229,97)" stroke="rgb(79,183,77)" stroke-width="1" opacity="0.75" />
			</g>
		</g>
		<g>
			<title>
TamK</title>
			<polygon class="
TamK" points="903,40 910,10 910,70" fill="rgb(255,255,255)" fill-opacity="1.0" stroke="rgb(0,0,0)" stroke-width="2"  />
			<g>
				<title>PP-binding (PF00550)
"Phosphopantetheine attachment site"</title>
				<polygon class="PF00550" points="906,40 909,28 910,28 910,52 909,52" stroke-linejoin="round" width="7" height="24" fill="rgb(181,58,166)" stroke="rgb(144,46,132)" stroke-width="1" opacity="0.75" />
			</g>
		</g>
		<g>
			<title>
TamL</title>
			<polygon class="
TamL" points="950,25 940,25 940,10 910,40 940,70 940,55 950,55" fill="rgb(255,255,255)" fill-opacity="1.0" stroke="rgb(0,0,0)" stroke-width="2"  />
			<g>
				<title>Ketoacyl-synt_C (PF02801)
"Beta-ketoacyl synthase, C-terminal domain"</title>
				<polygon class="PF02801" points="914,40 925,29 925,51 914,40" stroke-linejoin="round" width="11" height="24" fill="rgb(212,79,72)" stroke="rgb(169,63,57)" stroke-width="1" opacity="0.75" />
			</g>
			<g>
				<title>ketoacyl-synt (PF00109)
"Beta-ketoacyl synthase, N-terminal domain"</title>
				<polygon class="PF00109" points="926,28 926,28 950,28 950,52 926,52 926,52" stroke-linejoin="round" width="24" height="24" fill="rgb(74,179,82)" stroke="rgb(59,143,65)" stroke-width="1" opacity="0.75" />
			</g>
		</g>
		<g>
			<title>
TamM</title>
			<polygon class="
TamM" points="992,25 981,25 981,10 951,40 981,70 981,55 992,55" fill="rgb(255,255,255)" fill-opacity="1.0" stroke="rgb(0,0,0)" stroke-width="2"  />
			<g>
				<title>Ketoacyl-synt_C (PF02801)
"Beta-ketoacyl synthase, C-terminal domain"</title>
				<polygon class="PF02801" points="955,40 966,29 966,51 955,40" stroke-linejoin="round" width="11" height="24" fill="rgb(212,79,72)" stroke="rgb(169,63,57)" stroke-width="1" opacity="0.75" />
			</g>
			<g>
				<title>ketoacyl-synt (PF00109)
"Beta-ketoacyl synthase, N-terminal domain"</title>
				<polygon class="PF00109" points="967,28 967,28 992,28 992,52 967,52 967,52" stroke-linejoin="round" width="25" height="24" fill="rgb(74,179,82)" stroke="rgb(59,143,65)" stroke-width="1" opacity="0.75" />
			</g>
		</g>
		<g>
			<title>
TamN</title>
			<polygon class="
TamN" points="993,40 1018,10 1018,70" fill="rgb(255,255,255)" fill-opacity="1.0" stroke="rgb(0,0,0)" stroke-width="2"  />
			<g>
				<title>adh_short_C2 (PF13561)
"Enoyl-(Acyl carrier protein) reductase"</title>
				<polygon class="PF13561" points="997,40 1007,28 1016,28 1016,52 1007,52" stroke-linejoin="round" width="23" height="24" fill="rgb(79,221,209)" stroke="rgb(63,176,167)" stroke-width="1" opacity="0.75" />
			</g>
		</g>
		<g>
			<title>
TamO</title>
			<polygon class="
TamO" points="1053,25 1048,25 1048,10 1018,40 1048,70 1048,55 1053,55" fill="rgb(255,255,255)" fill-opacity="1.0" stroke="rgb(0,0,0)" stroke-width="2"  />
			<g>
				<title>Methyltransf_2 (PF00891)
"O-methyltransferase domain"</title>
				<polygon class="PF00891" points="1022,40 1034,28 1041,28 1041,52 1034,52" stroke-linejoin="round" width="20" height="24" fill="rgb(91,124,224)" stroke="rgb(72,99,179)" stroke-width="1" opacity="0.75" />
			</g>
			<g>
				<title>Dimerisation2 (PF16864)
"Dimerisation domain"</title>
				<rect class="PF16864" x="1043" y="28" stroke-linejoin="round" width="8" height="24" fill="rgb(212,101,199)" stroke="rgb(169,80,159)" stroke-width="1" opacity="0.75" />
			</g>
		</g>
		<g>
			<title>
TamP</title>
			<polygon class="
TamP" points="1157,25 1085,25 1085,10 1055,40 1085,70 1085,55 1157,55" fill="rgb(255,255,255)" fill-opacity="1.0" stroke="rgb(0,0,0)" stroke-width="2"  />
			<g>
				<title>BTAD (PF03704)
"Bacterial transcriptional activator domain"</title>
				<polygon class="PF03704" points="1059,40 1068,31 1068,49" stroke-linejoin="round" width="13" height="24" fill="rgb(174,224,58)" stroke="rgb(139,179,46)" stroke-width="1" opacity="0.75" />
			</g>
			<g>
				<title>ANAPC5 (PF12862)
"Anaphase-promoting complex subunit 5"</title>
				<rect class="PF12862" x="1084" y="28" stroke-linejoin="round" width="6" height="24" fill="rgb(62,209,131)" stroke="rgb(49,167,104)" stroke-width="1" opacity="0.75" />
			</g>
			<g>
				<title>TPR_12 (PF13424)
"Tetratricopeptide repeat"</title>
				<rect class="PF13424" x="1092" y="28" stroke-linejoin="round" width="7" height="24" fill="rgb(55,182,155)" stroke="rgb(44,145,124)" stroke-width="1" opacity="0.75" />
			</g>
		</g>
	</g>
</svg>
