<svg version="1.1" baseProfile="full" xmlns="http://www.w3.org/2000/svg" width="920.7333333333333" height="80">
	<g>
		<line x1="10" y1="40.0" x2="910.7333333333333" y2="40.0" style="stroke:rgb(70,70,70); stroke-width:3 "/>
		<g>
			<title>Tri8
TRI8</title>
			<polygon class="Tri8
TRI8" points="54,25 40,25 40,10 10,40 40,70 40,55 54,55" fill="rgb(255,255,255)" fill-opacity="1.0" stroke="rgb(0,0,0)" stroke-width="2"  />
			<g>
				<title>LIP (PF03583)
"Secretory lipase"</title>
				<polygon class="PF03583" points="14,40 26,28 41,28 41,52 26,52" stroke-linejoin="round" width="28" height="24" fill="rgb(185,101,220)" stroke="rgb(148,80,176)" stroke-width="1" opacity="0.75" />
			</g>
		</g>
		<g>
			<title>Tri3
15-decalonectrin 15-O-acetyltransferase</title>
			<polygon class="Tri3
15-decalonectrin 15-O-acetyltransferase" points="152,25 180,25 180,10 210,40 180,70 180,55 152,55" fill="rgb(255,255,255)" fill-opacity="1.0" stroke="rgb(0,0,0)" stroke-width="2"  />
			<g>
				<title>Tri3 (PF07428)
"15-O-acetyltransferase Tri3"</title>
				<rect class="PF07428" x="152" y="28" stroke-linejoin="round" width="40" height="24" fill="rgb(215,156,89)" stroke="rgb(172,124,71)" stroke-width="1" opacity="0.75" />
			</g>
		</g>
		<g>
			<title>Tri4
trichodiene oxygenase</title>
			<polygon class="Tri4
trichodiene oxygenase" points="301,25 273,25 273,10 243,40 273,70 273,55 301,55" fill="rgb(255,255,255)" fill-opacity="1.0" stroke="rgb(0,0,0)" stroke-width="2"  />
			<g>
				<title>p450 (PF00067)
"Cytochrome P450"</title>
				<polygon class="PF00067" points="250,37 259,28 295,28 295,52 259,52 250,43" stroke-linejoin="round" width="45" height="24" fill="rgb(195,210,54)" stroke="rgb(155,168,43)" stroke-width="1" opacity="0.75" />
			</g>
		</g>
		<g>
			<title>Tri6
transcription factor</title>
			<polygon class="Tri6
transcription factor" points="340,10 361,40 340,70" fill="rgb(255,255,255)" fill-opacity="1.0" stroke="rgb(0,0,0)" stroke-width="2"  />
		</g>
		<g>
			<title>Tri5
trichodiene synthase</title>
			<polygon class="Tri5
trichodiene synthase" points="458,25 467,25 467,10 497,40 467,70 467,55 458,55" fill="rgb(255,255,255)" fill-opacity="1.0" stroke="rgb(0,0,0)" stroke-width="2"  />
			<g>
				<title>TRI5 (PF06330)
"Trichodiene synthase (TRI5)"</title>
				<polygon class="PF06330" points="458,28 481,28 493,40 481,52 458,52" stroke-linejoin="round" width="36" height="24" fill="rgb(150,103,216)" stroke="rgb(120,82,172)" stroke-width="1" opacity="0.75" />
			</g>
		</g>
		<g>
			<title>Tri11
isotrichodermin C-15 hydroxylase</title>
			<polygon class="Tri11
isotrichodermin C-15 hydroxylase" points="686,25 658,25 658,10 628,40 658,70 658,55 686,55" fill="rgb(255,255,255)" fill-opacity="1.0" stroke="rgb(0,0,0)" stroke-width="2"  />
			<g>
				<title>p450 (PF00067)
"Cytochrome P450"</title>
				<polygon class="PF00067" points="637,35 644,28 682,28 682,52 644,52 637,45" stroke-linejoin="round" width="45" height="24" fill="rgb(195,210,54)" stroke="rgb(155,168,43)" stroke-width="1" opacity="0.75" />
			</g>
		</g>
	</g>
</svg>
