<svg version="1.1" baseProfile="full" xmlns="http://www.w3.org/2000/svg" width="812.8" height="80">
	<g>
		<line x1="10" y1="40.0" x2="802.8" y2="40.0" style="stroke:rgb(70,70,70); stroke-width:3 "/>
		<g>
			<title> (CPUR_02671)
related to C6 transcription factor GliZ2</title>
			<polygon class=" (CPUR_02671)
related to C6 transcription factor GliZ2" points="10,25 22,25 22,10 52,40 22,70 22,55 10,55" fill="rgb(255,255,255)" fill-opacity="1.0" stroke="rgb(0,0,0)" stroke-width="2"  />
			<g>
				<title>Zn_clus (PF00172)
"Fungal Zn(2)-Cys(6) binuclear cluster domain"</title>
				<rect class="PF00172" x="12" y="28" stroke-linejoin="round" width="3" height="24" fill="rgb(58,207,82)" stroke="rgb(46,165,65)" stroke-width="1" opacity="0.75" />
			</g>
		</g>
		<g>
			<title> (CPUR_02672)
uncharacterized protein</title>
			<polygon class=" (CPUR_02672)
uncharacterized protein" points="69,25 71,25 71,10 101,40 71,70 71,55 69,55" fill="rgb(255,255,255)" fill-opacity="1.0" stroke="rgb(0,0,0)" stroke-width="2"  />
			<g>
				<title>Methyltransf_23 (PF13489)
"Methyltransferase domain"</title>
				<polygon class="PF13489" points="71,28 85,28 89,32 89,48 85,52 71,52" stroke-linejoin="round" width="18" height="24" fill="rgb(62,214,70)" stroke="rgb(49,171,56)" stroke-width="1" opacity="0.75" />
			</g>
		</g>
		<g>
			<title> (CPUR_02673)
related to microsomal dipeptidase precursor</title>
			<polygon class=" (CPUR_02673)
related to microsomal dipeptidase precursor" points="114,25 136,25 136,10 166,40 136,70 136,55 114,55" fill="rgb(255,255,255)" fill-opacity="1.0" stroke="rgb(0,0,0)" stroke-width="2"  />
			<g>
				<title>Peptidase_M19 (PF01244)
"Membrane dipeptidase (Peptidase family M19)"</title>
				<rect class="PF01244" x="118" y="28" stroke-linejoin="round" width="32" height="24" fill="rgb(81,205,84)" stroke="rgb(64,164,67)" stroke-width="1" opacity="0.75" />
			</g>
		</g>
		<g>
			<title> (CPUR_02674)
uncharacterized protein</title>
			<polygon class=" (CPUR_02674)
uncharacterized protein" points="168,40 196,10 196,70" fill="rgb(255,255,255)" fill-opacity="1.0" stroke="rgb(0,0,0)" stroke-width="2"  />
		</g>
		<g>
			<title> (CPUR_02675)
probable DHA14-like major facilitator; ABC transporter</title>
			<polygon class=" (CPUR_02675)
probable DHA14-like major facilitator; ABC transporter" points="216,25 242,25 242,10 272,40 242,70 242,55 216,55" fill="rgb(255,255,255)" fill-opacity="1.0" stroke="rgb(0,0,0)" stroke-width="2"  />
			<g>
				<title>MFS_1 (PF07690)
"Major Facilitator Superfamily"</title>
				<polygon class="PF07690" points="220,28 255,28 260,33 260,47 255,52 220,52" stroke-linejoin="round" width="40" height="24" fill="rgb(228,207,98)" stroke="rgb(182,165,78)" stroke-width="1" opacity="0.75" />
			</g>
		</g>
		<g>
			<title> (CPUR_02676)
uncharacterized protein</title>
			<polygon class=" (CPUR_02676)
uncharacterized protein" points="296,10 323,40 296,70" fill="rgb(255,255,255)" fill-opacity="1.0" stroke="rgb(0,0,0)" stroke-width="2"  />
			<g>
				<title>GST_N_2 (PF13409)
"Glutathione S-transferase, N-terminal domain"</title>
				<rect class="PF13409" x="299" y="28" stroke-linejoin="round" width="7" height="24" fill="rgb(216,61,181)" stroke="rgb(172,48,144)" stroke-width="1" opacity="0.75" />
			</g>
			<g>
				<title>GST_C (PF00043)
"Glutathione S-transferase, C-terminal domain"</title>
				<polygon class="PF00043" points="309,29 317,38 317,42 309,51" stroke-linejoin="round" width="8" height="24" fill="rgb(111,184,77)" stroke="rgb(88,147,61)" stroke-width="1" opacity="0.75" />
			</g>
		</g>
		<g>
			<title> (CPUR_02677)
uncharacterized protein</title>
			<polygon class=" (CPUR_02677)
uncharacterized protein" points="396,25 362,25 362,10 332,40 362,70 362,55 396,55" fill="rgb(255,255,255)" fill-opacity="1.0" stroke="rgb(0,0,0)" stroke-width="2"  />
			<g>
				<title>p450 (PF00067)
"Cytochrome P450"</title>
				<polygon class="PF00067" points="347,29 348,28 390,28 390,52 348,52 347,51" stroke-linejoin="round" width="43" height="24" fill="rgb(195,210,54)" stroke="rgb(155,168,43)" stroke-width="1" opacity="0.75" />
			</g>
		</g>
		<g>
			<title> (CPUR_02678)
uncharacterized protein</title>
			<polygon class=" (CPUR_02678)
uncharacterized protein" points="480,25 459,25 459,10 429,40 459,70 459,55 480,55" fill="rgb(255,255,255)" fill-opacity="1.0" stroke="rgb(0,0,0)" stroke-width="2"  />
			<g>
				<title>Trp_DMAT (PF11991)
"Tryptophan dimethylallyltransferase"</title>
				<polygon class="PF11991" points="440,33 445,28 475,28 475,52 445,52 440,47" stroke-linejoin="round" width="35" height="24" fill="rgb(65,157,207)" stroke="rgb(51,125,165)" stroke-width="1" opacity="0.75" />
			</g>
		</g>
		<g>
			<title> (CPUR_02679)
related to 1-aminocyclopropane-1-carboxylate synthase</title>
			<polygon class=" (CPUR_02679)
related to 1-aminocyclopropane-1-carboxylate synthase" points="496,25 513,25 513,10 543,40 513,70 513,55 496,55" fill="rgb(255,255,255)" fill-opacity="1.0" stroke="rgb(0,0,0)" stroke-width="2"  />
			<g>
				<title>Aminotran_1_2 (PF00155)
"Aminotransferase class I and II"</title>
				<polygon class="PF00155" points="498,28 526,28 535,37 535,43 526,52 498,52" stroke-linejoin="round" width="37" height="24" fill="rgb(207,146,55)" stroke="rgb(165,116,43)" stroke-width="1" opacity="0.75" />
			</g>
		</g>
		<g>
			<title> (CPUR_02680)
non-ribosomal peptide synthetase</title>
			<polygon class=" (CPUR_02680)
non-ribosomal peptide synthetase" points="753,25 575,25 575,10 545,40 575,70 575,55 753,55" fill="rgb(255,255,255)" fill-opacity="1.0" stroke="rgb(0,0,0)" stroke-width="2"  />
			<g>
				<title>Condensation (PF00668)
"Condensation domain"</title>
				<polygon class="PF00668" points="549,40 561,28 588,28 588,52 561,52 549,40" stroke-linejoin="round" width="39" height="24" fill="rgb(172,217,60)" stroke="rgb(137,173,47)" stroke-width="1" opacity="0.75" />
			</g>
			<g>
				<title>PP-binding (PF00550)
"Phosphopantetheine attachment site"</title>
				<rect class="PF00550" x="591" y="28" stroke-linejoin="round" width="6" height="24" fill="rgb(181,58,166)" stroke="rgb(144,46,132)" stroke-width="1" opacity="0.75" />
			</g>
			<g>
				<title>AMP-binding (PF00501)
"AMP-binding enzyme"</title>
				<rect class="PF00501" x="613" y="28" stroke-linejoin="round" width="33" height="24" fill="rgb(189,78,204)" stroke="rgb(151,62,163)" stroke-width="1" opacity="0.75" />
			</g>
			<g>
				<title>Condensation (PF00668)
"Condensation domain"</title>
				<rect class="PF00668" x="650" y="28" stroke-linejoin="round" width="43" height="24" fill="rgb(172,217,60)" stroke="rgb(137,173,47)" stroke-width="1" opacity="0.75" />
			</g>
			<g>
				<title>PP-binding (PF00550)
"Phosphopantetheine attachment site"</title>
				<rect class="PF00550" x="696" y="28" stroke-linejoin="round" width="6" height="24" fill="rgb(181,58,166)" stroke="rgb(144,46,132)" stroke-width="1" opacity="0.75" />
			</g>
			<g>
				<title>AMP-binding (PF00501)
"AMP-binding enzyme"</title>
				<rect class="PF00501" x="718" y="28" stroke-linejoin="round" width="33" height="24" fill="rgb(189,78,204)" stroke="rgb(151,62,163)" stroke-width="1" opacity="0.75" />
			</g>
		</g>
		<g>
			<title> (CPUR_02681)
uncharacterized protein</title>
			<polygon class=" (CPUR_02681)
uncharacterized protein" points="802,25 798,25 798,10 768,40 798,70 798,55 802,55" fill="rgb(255,255,255)" fill-opacity="1.0" stroke="rgb(0,0,0)" stroke-width="2"  />
			<g>
				<title>Pyr_redox_2 (PF07992)
"Pyridine nucleotide-disulphide oxidoreductase"</title>
				<polygon class="PF07992" points="772,40 784,28 801,28 801,52 784,52 772,40" stroke-linejoin="round" width="29" height="24" fill="rgb(187,87,99)" stroke="rgb(149,69,79)" stroke-width="1" opacity="0.75" />
			</g>
		</g>
	</g>
</svg>
