<svg version="1.1" baseProfile="full" xmlns="http://www.w3.org/2000/svg" width="1391.6" height="80">
	<g>
		<line x1="10" y1="40.0" x2="1381.6" y2="40.0" style="stroke:rgb(70,70,70); stroke-width:3 "/>
		<g>
			<title>
putative type I polyketide synthase</title>
			<polygon class="
putative type I polyketide synthase" points="137,25 73,25 73,10 43,40 73,70 73,55 137,55" fill="rgb(255,255,255)" fill-opacity="1.0" stroke="rgb(0,0,0)" stroke-width="2"  />
			<g>
				<title>Thioesterase (PF00975)
"Thioesterase domain"</title>
				<polygon class="PF00975" points="47,40 59,28 67,28 67,52 59,52" stroke-linejoin="round" width="23" height="24" fill="rgb(69,76,223)" stroke="rgb(55,60,178)" stroke-width="1" opacity="0.75" />
			</g>
			<g>
				<title>PP-binding (PF00550)
"Phosphopantetheine attachment site"</title>
				<rect class="PF00550" x="70" y="28" stroke-linejoin="round" width="6" height="24" fill="rgb(181,58,166)" stroke="rgb(144,46,132)" stroke-width="1" opacity="0.75" />
			</g>
			<g>
				<title>KAsynt_C_assoc (PF16197)
"Ketoacyl-synthetase C-terminal extension"</title>
				<rect class="PF16197" x="86" y="28" stroke-linejoin="round" width="11" height="24" fill="rgb(200,86,70)" stroke="rgb(160,68,56)" stroke-width="1" opacity="0.75" />
			</g>
			<g>
				<title>Ketoacyl-synt_C (PF02801)
"Beta-ketoacyl synthase, C-terminal domain"</title>
				<rect class="PF02801" x="98" y="28" stroke-linejoin="round" width="11" height="24" fill="rgb(212,79,72)" stroke="rgb(169,63,57)" stroke-width="1" opacity="0.75" />
			</g>
			<g>
				<title>ketoacyl-synt (PF00109)
"Beta-ketoacyl synthase, N-terminal domain"</title>
				<rect class="PF00109" x="111" y="28" stroke-linejoin="round" width="25" height="24" fill="rgb(74,179,82)" stroke="rgb(59,143,65)" stroke-width="1" opacity="0.75" />
			</g>
		</g>
		<g>
			<title>
putative non-ribosomal peptide synthetase</title>
			<polygon class="
putative non-ribosomal peptide synthetase" points="241,25 168,25 168,10 138,40 168,70 168,55 241,55" fill="rgb(255,255,255)" fill-opacity="1.0" stroke="rgb(0,0,0)" stroke-width="2"  />
			<g>
				<title>PP-binding (PF00550)
"Phosphopantetheine attachment site"</title>
				<polygon class="PF00550" points="142,40 146,36 146,44" stroke-linejoin="round" width="6" height="24" fill="rgb(181,58,166)" stroke="rgb(144,46,132)" stroke-width="1" opacity="0.75" />
			</g>
			<g>
				<title>AMP-binding_C (PF13193)
"AMP-binding enzyme C-terminal domain"</title>
				<polygon class="PF13193" points="150,32 154,28 157,28 157,52 154,52 150,48" stroke-linejoin="round" width="7" height="24" fill="rgb(195,82,106)" stroke="rgb(156,65,84)" stroke-width="1" opacity="0.75" />
			</g>
			<g>
				<title>AMP-binding (PF00501)
"AMP-binding enzyme"</title>
				<rect class="PF00501" x="162" y="28" stroke-linejoin="round" width="34" height="24" fill="rgb(189,78,204)" stroke="rgb(151,62,163)" stroke-width="1" opacity="0.75" />
			</g>
			<g>
				<title>Condensation (PF00668)
"Condensation domain"</title>
				<rect class="PF00668" x="199" y="28" stroke-linejoin="round" width="41" height="24" fill="rgb(172,217,60)" stroke="rgb(137,173,47)" stroke-width="1" opacity="0.75" />
			</g>
		</g>
		<g>
			<title>
putative short-chain dehydrogenase</title>
			<polygon class="
putative short-chain dehydrogenase" points="244,40 270,10 270,70" fill="rgb(255,255,255)" fill-opacity="1.0" stroke="rgb(0,0,0)" stroke-width="2"  />
			<g>
				<title>adh_short (PF00106)
"short chain dehydrogenase"</title>
				<polygon class="PF00106" points="250,38 258,28 269,28 269,52 258,52 250,42" stroke-linejoin="round" width="19" height="24" fill="rgb(128,81,196)" stroke="rgb(102,64,156)" stroke-width="1" opacity="0.75" />
			</g>
		</g>
		<g>
			<title>
putative 2-amino-3-ketobutyrate CoA ligase</title>
			<polygon class="
putative 2-amino-3-ketobutyrate CoA ligase" points="308,25 302,25 302,10 272,40 302,70 302,55 308,55" fill="rgb(255,255,255)" fill-opacity="1.0" stroke="rgb(0,0,0)" stroke-width="2"  />
			<g>
				<title>Aminotran_1_2 (PF00155)
"Aminotransferase class I and II"</title>
				<polygon class="PF00155" points="276,40 288,28 306,28 306,52 288,52" stroke-linejoin="round" width="33" height="24" fill="rgb(207,146,55)" stroke="rgb(165,116,43)" stroke-width="1" opacity="0.75" />
			</g>
		</g>
		<g>
			<title>
putative 3-oxoacyl-ACP reductase</title>
			<polygon class="
putative 3-oxoacyl-ACP reductase" points="333,10 356,40 333,70" fill="rgb(255,255,255)" fill-opacity="1.0" stroke="rgb(0,0,0)" stroke-width="2"  />
			<g>
				<title>adh_short_C2 (PF13561)
"Enoyl-(Acyl carrier protein) reductase"</title>
				<polygon class="PF13561" points="334,28 343,28 352,40 343,52 334,52" stroke-linejoin="round" width="22" height="24" fill="rgb(79,221,209)" stroke="rgb(63,176,167)" stroke-width="1" opacity="0.75" />
			</g>
		</g>
		<g>
			<title>
putative enoyl-ACP reductase</title>
			<polygon class="
putative enoyl-ACP reductase" points="357,10 384,40 357,70" fill="rgb(255,255,255)" fill-opacity="1.0" stroke="rgb(0,0,0)" stroke-width="2"  />
			<g>
				<title>adh_short_C2 (PF13561)
"Enoyl-(Acyl carrier protein) reductase"</title>
				<polygon class="PF13561" points="358,28 368,28 380,40 368,52 358,52" stroke-linejoin="round" width="24" height="24" fill="rgb(79,221,209)" stroke="rgb(63,176,167)" stroke-width="1" opacity="0.75" />
			</g>
		</g>
		<g>
			<title>
putative dehydratase</title>
			<polygon class="
putative dehydratase" points="384,10 399,40 384,70" fill="rgb(255,255,255)" fill-opacity="1.0" stroke="rgb(0,0,0)" stroke-width="2"  />
			<g>
				<title>MaoC_dehydratas (PF01575)
"MaoC like domain"</title>
				<polygon class="PF01575" points="385,28 389,28 396,40 389,52 385,52" stroke-linejoin="round" width="12" height="24" fill="rgb(86,84,223)" stroke="rgb(68,67,178)" stroke-width="1" opacity="0.75" />
			</g>
		</g>
		<g>
			<title>
putative acyl carrier protein</title>
			<polygon class="
putative acyl carrier protein" points="403,10 411,40 403,70" fill="rgb(255,255,255)" fill-opacity="1.0" stroke="rgb(0,0,0)" stroke-width="2"  />
			<g>
				<title>PP-binding (PF00550)
"Phosphopantetheine attachment site"</title>
				<polygon class="PF00550" points="404,28 404,28 408,40 404,52 404,52" stroke-linejoin="round" width="6" height="24" fill="rgb(181,58,166)" stroke="rgb(144,46,132)" stroke-width="1" opacity="0.75" />
			</g>
		</g>
		<g>
			<title>
putative hydrolase</title>
			<polygon class="
putative hydrolase" points="414,40 437,10 437,70" fill="rgb(255,255,255)" fill-opacity="1.0" stroke="rgb(0,0,0)" stroke-width="2"  />
			<g>
				<title>Abhydrolase_6 (PF12697)
"Alpha/beta hydrolase family"</title>
				<polygon class="PF12697" points="418,40 427,28 436,28 436,52 427,52" stroke-linejoin="round" width="21" height="24" fill="rgb(87,73,196)" stroke="rgb(69,58,156)" stroke-width="1" opacity="0.75" />
			</g>
		</g>
		<g>
			<title>
putative acyl-CoA ligase</title>
			<polygon class="
putative acyl-CoA ligase" points="454,25 472,25 472,10 502,40 472,70 472,55 454,55" fill="rgb(255,255,255)" fill-opacity="1.0" stroke="rgb(0,0,0)" stroke-width="2"  />
			<g>
				<title>AMP-binding (PF00501)
"AMP-binding enzyme"</title>
				<polygon class="PF00501" points="454,28 485,28 487,30 487,50 485,52 454,52" stroke-linejoin="round" width="33" height="24" fill="rgb(189,78,204)" stroke="rgb(151,62,163)" stroke-width="1" opacity="0.75" />
			</g>
		</g>
		<g>
			<title>
putative 3-oxoacyl-ACP synthase, KASII</title>
			<polygon class="
putative 3-oxoacyl-ACP synthase, KASII" points="502,25 514,25 514,10 544,40 514,70 514,55 502,55" fill="rgb(255,255,255)" fill-opacity="1.0" stroke="rgb(0,0,0)" stroke-width="2"  />
			<g>
				<title>ketoacyl-synt (PF00109)
"Beta-ketoacyl synthase, N-terminal domain"</title>
				<rect class="PF00109" x="502" y="28" stroke-linejoin="round" width="24" height="24" fill="rgb(74,179,82)" stroke="rgb(59,143,65)" stroke-width="1" opacity="0.75" />
			</g>
			<g>
				<title>Ketoacyl-synt_C (PF02801)
"Beta-ketoacyl synthase, C-terminal domain"</title>
				<polygon class="PF02801" points="528,28 528,28 539,39 539,41 528,52 528,52" stroke-linejoin="round" width="11" height="24" fill="rgb(212,79,72)" stroke="rgb(169,63,57)" stroke-width="1" opacity="0.75" />
			</g>
		</g>
		<g>
			<title>
hypothetical protein</title>
			<polygon class="
hypothetical protein" points="544,10 559,40 544,70" fill="rgb(255,255,255)" fill-opacity="1.0" stroke="rgb(0,0,0)" stroke-width="2"  />
			<g>
				<title>SET (PF00856)
"SET domain"</title>
				<polygon class="PF00856" points="545,28 549,28 553,34 553,46 549,52 545,52" stroke-linejoin="round" width="8" height="24" fill="rgb(122,95,207)" stroke="rgb(97,76,165)" stroke-width="1" opacity="0.75" />
			</g>
		</g>
		<g>
			<title>
putative acetolactate synthase</title>
			<polygon class="
putative acetolactate synthase" points="563,25 586,25 586,10 616,40 586,70 586,55 563,55" fill="rgb(255,255,255)" fill-opacity="1.0" stroke="rgb(0,0,0)" stroke-width="2"  />
			<g>
				<title>TPP_enzyme_N (PF02776)
"Thiamine pyrophosphate enzyme, N-terminal TPP binding domain"</title>
				<rect class="PF02776" x="563" y="28" stroke-linejoin="round" width="11" height="24" fill="rgb(208,64,165)" stroke="rgb(166,51,132)" stroke-width="1" opacity="0.75" />
			</g>
			<g>
				<title>TPP_enzyme_M (PF00205)
"Thiamine pyrophosphate enzyme, central domain"</title>
				<rect class="PF00205" x="582" y="28" stroke-linejoin="round" width="13" height="24" fill="rgb(70,122,184)" stroke="rgb(56,97,147)" stroke-width="1" opacity="0.75" />
			</g>
			<g>
				<title>TPP_enzyme_C (PF02775)
"Thiamine pyrophosphate enzyme, C-terminal TPP binding domain"</title>
				<polygon class="PF02775" points="600,28 600,28 612,40 600,52 600,52" stroke-linejoin="round" width="14" height="24" fill="rgb(212,69,87)" stroke="rgb(169,55,69)" stroke-width="1" opacity="0.75" />
			</g>
		</g>
		<g>
			<title>
putative glutamate dehydrogenase</title>
			<polygon class="
putative glutamate dehydrogenase" points="618,25 627,25 627,10 657,40 627,70 627,55 618,55" fill="rgb(255,255,255)" fill-opacity="1.0" stroke="rgb(0,0,0)" stroke-width="2"  />
			<g>
				<title>ELFV_dehydrog_N (PF02812)
"Glu/Leu/Phe/Val dehydrogenase, dimerisation domain"</title>
				<rect class="PF02812" x="618" y="28" stroke-linejoin="round" width="12" height="24" fill="rgb(75,155,200)" stroke="rgb(60,123,160)" stroke-width="1" opacity="0.75" />
			</g>
			<g>
				<title>ELFV_dehydrog (PF00208)
"Glutamate/Leucine/Phenylalanine/Valine dehydrogenase"</title>
				<polygon class="PF00208" points="634,28 641,28 653,40 641,52 634,52" stroke-linejoin="round" width="23" height="24" fill="rgb(57,170,205)" stroke="rgb(45,135,164)" stroke-width="1" opacity="0.75" />
			</g>
		</g>
		<g>
			<title>
putative TetR family transcriptional regulator</title>
			<polygon class="
putative TetR family transcriptional regulator" points="666,40 684,10 684,70" fill="rgb(255,255,255)" fill-opacity="1.0" stroke="rgb(0,0,0)" stroke-width="2"  />
			<g>
				<title>TetR_C_11 (PF16859)
"Tetracyclin repressor-like, C-terminal domain"</title>
				<polygon class="PF16859" points="669,40 676,28 678,28 678,52 676,52" stroke-linejoin="round" width="11" height="24" fill="rgb(170,197,93)" stroke="rgb(136,157,74)" stroke-width="1" opacity="0.75" />
			</g>
			<g>
				<title>TetR_N (PF00440)
"Bacterial regulatory proteins, tetR family"</title>
				<rect class="PF00440" x="679" y="28" stroke-linejoin="round" width="4" height="24" fill="rgb(148,50,185)" stroke="rgb(118,40,148)" stroke-width="1" opacity="0.75" />
			</g>
		</g>
		<g>
			<title>
putative MFS transporter</title>
			<polygon class="
putative MFS transporter" points="747,25 722,25 722,10 692,40 722,70 722,55 747,55" fill="rgb(255,255,255)" fill-opacity="1.0" stroke="rgb(0,0,0)" stroke-width="2"  />
			<g>
				<title>MFS_1 (PF07690)
"Major Facilitator Superfamily"</title>
				<polygon class="PF07690" points="705,31 708,28 744,28 744,52 708,52 705,49" stroke-linejoin="round" width="39" height="24" fill="rgb(228,207,98)" stroke="rgb(182,165,78)" stroke-width="1" opacity="0.75" />
			</g>
		</g>
		<g>
			<title>
putative SARP family transcriptional regulator</title>
			<polygon class="
putative SARP family transcriptional regulator" points="859,25 778,25 778,10 748,40 778,70 778,55 859,55" fill="rgb(255,255,255)" fill-opacity="1.0" stroke="rgb(0,0,0)" stroke-width="2"  />
			<g>
				<title>AAA_22 (PF13401)
"AAA domain"</title>
				<rect class="PF13401" x="814" y="28" stroke-linejoin="round" width="12" height="24" fill="rgb(217,86,82)" stroke="rgb(173,68,65)" stroke-width="1" opacity="0.75" />
			</g>
			<g>
				<title>BTAD (PF03704)
"Bacterial transcriptional activator domain"</title>
				<rect class="PF03704" x="835" y="28" stroke-linejoin="round" width="14" height="24" fill="rgb(174,224,58)" stroke="rgb(139,179,46)" stroke-width="1" opacity="0.75" />
			</g>
		</g>
		<g>
			<title>
hypothetical protein</title>
			<polygon class="
hypothetical protein" points="860,40 864,10 864,70" fill="rgb(255,255,255)" fill-opacity="1.0" stroke="rgb(0,0,0)" stroke-width="2"  />
		</g>
		<g>
			<title>
hypothetical protein</title>
			<polygon class="
hypothetical protein" points="864,10 869,40 864,70" fill="rgb(255,255,255)" fill-opacity="1.0" stroke="rgb(0,0,0)" stroke-width="2"  />
		</g>
		<g>
			<title>
putative polyketide cyclase</title>
			<polygon class="
putative polyketide cyclase" points="876,10 891,40 876,70" fill="rgb(255,255,255)" fill-opacity="1.0" stroke="rgb(0,0,0)" stroke-width="2"  />
			<g>
				<title>Polyketide_cyc2 (PF10604)
"Polyketide cyclase / dehydrase and lipid transport"</title>
				<polygon class="PF10604" points="876,28 882,28 888,40 882,52 876,52" stroke-linejoin="round" width="15" height="24" fill="rgb(170,214,69)" stroke="rgb(136,171,55)" stroke-width="1" opacity="0.75" />
			</g>
		</g>
		<g>
			<title>
putative fatty acid desaturase</title>
			<polygon class="
putative fatty acid desaturase" points="893,25 898,25 898,10 928,40 898,70 898,55 893,55" fill="rgb(255,255,255)" fill-opacity="1.0" stroke="rgb(0,0,0)" stroke-width="2"  />
			<g>
				<title>FA_desaturase (PF00487)
"Fatty acid desaturase"</title>
				<polygon class="PF00487" points="898,28 911,28 923,40 911,52 898,52" stroke-linejoin="round" width="26" height="24" fill="rgb(91,208,91)" stroke="rgb(72,166,72)" stroke-width="1" opacity="0.75" />
			</g>
		</g>
		<g>
			<title>
putative S-adenosylmethionine synthetase</title>
			<polygon class="
putative S-adenosylmethionine synthetase" points="928,25 941,25 941,10 971,40 941,70 941,55 928,55" fill="rgb(255,255,255)" fill-opacity="1.0" stroke="rgb(0,0,0)" stroke-width="2"  />
			<g>
				<title>S-AdoMet_synt_N (PF00438)
"S-adenosylmethionine synthetase, N-terminal domain"</title>
				<rect class="PF00438" x="930" y="28" stroke-linejoin="round" width="9" height="24" fill="rgb(198,117,90)" stroke="rgb(158,93,72)" stroke-width="1" opacity="0.75" />
			</g>
			<g>
				<title>S-AdoMet_synt_M (PF02772)
"S-adenosylmethionine synthetase, central domain"</title>
				<rect class="PF02772" x="943" y="28" stroke-linejoin="round" width="12" height="24" fill="rgb(215,74,54)" stroke="rgb(172,59,43)" stroke-width="1" opacity="0.75" />
			</g>
			<g>
				<title>S-AdoMet_synt_C (PF02773)
"S-adenosylmethionine synthetase, C-terminal domain"</title>
				<polygon class="PF02773" points="955,28 955,28 967,40 955,52 955,52" stroke-linejoin="round" width="13" height="24" fill="rgb(143,191,71)" stroke="rgb(114,152,56)" stroke-width="1" opacity="0.75" />
			</g>
		</g>
		<g>
			<title>
putative reductase</title>
			<polygon class="
putative reductase" points="972,25 972,25 972,10 1002,40 972,70 972,55 972,55" fill="rgb(255,255,255)" fill-opacity="1.0" stroke="rgb(0,0,0)" stroke-width="2"  />
			<g>
				<title>MTHFR (PF02219)
"Methylenetetrahydrofolate reductase"</title>
				<polygon class="PF02219" points="972,28 985,28 997,40 985,52 972,52" stroke-linejoin="round" width="28" height="24" fill="rgb(85,139,203)" stroke="rgb(68,111,162)" stroke-width="1" opacity="0.75" />
			</g>
		</g>
		<g>
			<title>
putative adenosine kinase</title>
			<polygon class="
putative adenosine kinase" points="1001,25 1006,25 1006,10 1036,40 1006,70 1006,55 1001,55" fill="rgb(255,255,255)" fill-opacity="1.0" stroke="rgb(0,0,0)" stroke-width="2"  />
			<g>
				<title>PfkB (PF00294)
"pfkB family carbohydrate kinase"</title>
				<polygon class="PF00294" points="1004,28 1020,28 1032,40 1032,40 1020,52 1004,52" stroke-linejoin="round" width="28" height="24" fill="rgb(94,207,198)" stroke="rgb(75,165,158)" stroke-width="1" opacity="0.75" />
			</g>
		</g>
		<g>
			<title>
putative alpha-amylase</title>
			<polygon class="
putative alpha-amylase" points="1042,10 1051,40 1042,70" fill="rgb(255,255,255)" fill-opacity="1.0" stroke="rgb(0,0,0)" stroke-width="2"  />
			<g>
				<title>A_amylase_inhib (PF01356)
"Alpha amylase inhibitor"</title>
				<polygon class="PF01356" points="1043,28 1044,28 1048,40 1044,52 1043,52" stroke-linejoin="round" width="6" height="24" fill="rgb(183,147,57)" stroke="rgb(146,117,45)" stroke-width="1" opacity="0.75" />
			</g>
		</g>
		<g>
			<title>
hypothetical protein</title>
			<polygon class="
hypothetical protein" points="1054,10 1074,40 1054,70" fill="rgb(255,255,255)" fill-opacity="1.0" stroke="rgb(0,0,0)" stroke-width="2"  />
			<g>
				<title>DUF402 (PF04167)
"Protein of unknown function (DUF402)"</title>
				<polygon class="PF04167" points="1061,28 1062,28 1067,35 1067,45 1062,52 1061,52" stroke-linejoin="round" width="6" height="24" fill="rgb(223,93,130)" stroke="rgb(178,74,104)" stroke-width="1" opacity="0.75" />
			</g>
		</g>
		<g>
			<title>
putative membrane protein</title>
			<polygon class="
putative membrane protein" points="1113,25 1104,25 1104,10 1074,40 1104,70 1104,55 1113,55" fill="rgb(255,255,255)" fill-opacity="1.0" stroke="rgb(0,0,0)" stroke-width="2"  />
		</g>
		<g>
			<title>
hypothetical protein</title>
			<polygon class="
hypothetical protein" points="1130,40 1135,10 1135,70" fill="rgb(255,255,255)" fill-opacity="1.0" stroke="rgb(0,0,0)" stroke-width="2"  />
		</g>
		<g>
			<title>
putative aldehyde dehydrogenase</title>
			<polygon class="
putative aldehyde dehydrogenase" points="1137,10 1161,40 1137,70" fill="rgb(255,255,255)" fill-opacity="1.0" stroke="rgb(0,0,0)" stroke-width="2"  />
			<g>
				<title>Aldedh (PF00171)
"Aldehyde dehydrogenase family"</title>
				<polygon class="PF00171" points="1137,28 1148,28 1158,40 1148,52 1137,52" stroke-linejoin="round" width="22" height="24" fill="rgb(180,140,83)" stroke="rgb(144,112,66)" stroke-width="1" opacity="0.75" />
			</g>
		</g>
		<g>
			<title>
putative integral membrane protein</title>
			<polygon class="
putative integral membrane protein" points="1162,40 1179,10 1179,70" fill="rgb(255,255,255)" fill-opacity="1.0" stroke="rgb(0,0,0)" stroke-width="2"  />
			<g>
				<title>EamA (PF00892)
"EamA-like transporter family"</title>
				<polygon class="PF00892" points="1166,38 1172,28 1178,28 1178,52 1172,52 1166,42" stroke-linejoin="round" width="12" height="24" fill="rgb(202,125,98)" stroke="rgb(161,100,78)" stroke-width="1" opacity="0.75" />
			</g>
		</g>
		<g>
			<title>
putative regulatory protein</title>
			<polygon class="
putative regulatory protein" points="1268,25 1229,25 1229,10 1199,40 1229,70 1229,55 1268,55" fill="rgb(255,255,255)" fill-opacity="1.0" stroke="rgb(0,0,0)" stroke-width="2"  />
			<g>
				<title>SpoIIE (PF07228)
"Stage II sporulation protein E (SpoIIE)"</title>
				<polygon class="PF07228" points="1203,40 1215,28 1217,28 1217,52 1215,52" stroke-linejoin="round" width="18" height="24" fill="rgb(205,53,111)" stroke="rgb(164,42,88)" stroke-width="1" opacity="0.75" />
			</g>
			<g>
				<title>GAF (PF01590)
"GAF domain"</title>
				<rect class="PF01590" x="1223" y="28" stroke-linejoin="round" width="15" height="24" fill="rgb(91,61,214)" stroke="rgb(72,48,171)" stroke-width="1" opacity="0.75" />
			</g>
			<g>
				<title>PAS_4 (PF08448)
"PAS fold"</title>
				<rect class="PF08448" x="1242" y="28" stroke-linejoin="round" width="11" height="24" fill="rgb(133,67,228)" stroke="rgb(106,53,182)" stroke-width="1" opacity="0.75" />
			</g>
			<g>
				<title>PAS (PF00989)
"PAS fold"</title>
				<rect class="PF00989" x="1255" y="28" stroke-linejoin="round" width="10" height="24" fill="rgb(188,139,74)" stroke="rgb(150,111,59)" stroke-width="1" opacity="0.75" />
			</g>
		</g>
		<g>
			<title>
putative regulatory protein</title>
			<polygon class="
putative regulatory protein" points="1353,25 1302,25 1302,10 1272,40 1302,70 1302,55 1353,55" fill="rgb(255,255,255)" fill-opacity="1.0" stroke="rgb(0,0,0)" stroke-width="2"  />
			<g>
				<title>HATPase_c_2 (PF13581)
"Histidine kinase-like ATPase domain"</title>
				<polygon class="PF13581" points="1276,40 1282,34 1282,46" stroke-linejoin="round" width="10" height="24" fill="rgb(91,200,53)" stroke="rgb(72,160,42)" stroke-width="1" opacity="0.75" />
			</g>
			<g>
				<title>SpoIIE (PF07228)
"Stage II sporulation protein E (SpoIIE)"</title>
				<polygon class="PF07228" points="1284,32 1288,28 1303,28 1303,52 1288,52 1284,48" stroke-linejoin="round" width="19" height="24" fill="rgb(205,53,111)" stroke="rgb(164,42,88)" stroke-width="1" opacity="0.75" />
			</g>
			<g>
				<title>GAF (PF01590)
"GAF domain"</title>
				<rect class="PF01590" x="1310" y="28" stroke-linejoin="round" width="15" height="24" fill="rgb(91,61,214)" stroke="rgb(72,48,171)" stroke-width="1" opacity="0.75" />
			</g>
			<g>
				<title>PAS_4 (PF08448)
"PAS fold"</title>
				<rect class="PF08448" x="1327" y="28" stroke-linejoin="round" width="11" height="24" fill="rgb(133,67,228)" stroke="rgb(106,53,182)" stroke-width="1" opacity="0.75" />
			</g>
		</g>
	</g>
</svg>
