<svg version="1.1" baseProfile="full" xmlns="http://www.w3.org/2000/svg" width="837.3666666666667" height="80">
	<g>
		<line x1="10" y1="40.0" x2="827.3666666666667" y2="40.0" style="stroke:rgb(70,70,70); stroke-width:3 "/>
		<g>
			<title>cnq720
putative transcriptional regulator</title>
			<polygon class="cnq720
putative transcriptional regulator" points="10,25 11,25 11,10 41,40 11,70 11,55 10,55" fill="rgb(255,255,255)" fill-opacity="1.0" stroke="rgb(0,0,0)" stroke-width="2"  />
			<g>
				<title>ROK (PF00480)
"ROK family"</title>
				<polygon class="PF00480" points="10,28 24,28 36,40 24,52 10,52" stroke-linejoin="round" width="30" height="24" fill="rgb(93,146,186)" stroke="rgb(74,116,148)" stroke-width="1" opacity="0.75" />
			</g>
		</g>
		<g>
			<title>cnq721
putative N-acylglucosamine-6-phosphate 2-epimerase</title>
			<polygon class="cnq721
putative N-acylglucosamine-6-phosphate 2-epimerase" points="41,10 64,40 41,70" fill="rgb(255,255,255)" fill-opacity="1.0" stroke="rgb(0,0,0)" stroke-width="2"  />
			<g>
				<title>NanE (PF04131)
"Putative N-acetylmannosamine-6-phosphate epimerase"</title>
				<polygon class="PF04131" points="45,28 51,28 60,40 51,52 45,52" stroke-linejoin="round" width="19" height="24" fill="rgb(187,135,80)" stroke="rgb(149,108,64)" stroke-width="1" opacity="0.75" />
			</g>
		</g>
		<g>
			<title>cnq722
hypothetical protein</title>
			<polygon class="cnq722
hypothetical protein" points="67,40 83,10 83,70" fill="rgb(255,255,255)" fill-opacity="1.0" stroke="rgb(0,0,0)" stroke-width="2"  />
			<g>
				<title>LTD (PF00932)
"Lamin Tail Domain"</title>
				<polygon class="PF00932" points="70,40 77,28 80,28 80,52 77,52" stroke-linejoin="round" width="12" height="24" fill="rgb(179,81,46)" stroke="rgb(143,64,36)" stroke-width="1" opacity="0.75" />
			</g>
		</g>
		<g>
			<title>cnq723
putative pyridoxamine 5'-phosphate oxidase</title>
			<polygon class="cnq723
putative pyridoxamine 5'-phosphate oxidase" points="87,40 104,10 104,70" fill="rgb(255,255,255)" fill-opacity="1.0" stroke="rgb(0,0,0)" stroke-width="2"  />
			<g>
				<title>Putative_PNPOx (PF01243)
"Pyridoxamine 5'-phosphate oxidase"</title>
				<polygon class="PF01243" points="92,37 97,28 100,28 100,52 97,52 92,43" stroke-linejoin="round" width="8" height="24" fill="rgb(187,127,57)" stroke="rgb(149,101,45)" stroke-width="1" opacity="0.75" />
			</g>
		</g>
		<g>
			<title>cnq724
putative sigma factor</title>
			<polygon class="cnq724
putative sigma factor" points="108,25 109,25 109,10 139,40 109,70 109,55 108,55" fill="rgb(255,255,255)" fill-opacity="1.0" stroke="rgb(0,0,0)" stroke-width="2"  />
			<g>
				<title>Sigma70_r2 (PF04542)
"Sigma-70 region 2"</title>
				<rect class="PF04542" x="109" y="28" stroke-linejoin="round" width="6" height="24" fill="rgb(66,209,150)" stroke="rgb(52,167,120)" stroke-width="1" opacity="0.75" />
			</g>
			<g>
				<title>Sigma70_r4_2 (PF08281)
"Sigma-70, region 4"</title>
				<polygon class="PF08281" points="119,28 122,28 124,30 124,50 122,52 119,52" stroke-linejoin="round" width="5" height="24" fill="rgb(52,208,187)" stroke="rgb(41,166,149)" stroke-width="1" opacity="0.75" />
			</g>
		</g>
		<g>
			<title>cnq725
putative methyltransferase</title>
			<polygon class="cnq725
putative methyltransferase" points="142,25 145,25 145,10 175,40 145,70 145,55 142,55" fill="rgb(255,255,255)" fill-opacity="1.0" stroke="rgb(0,0,0)" stroke-width="2"  />
			<g>
				<title>Dimerisation2 (PF16864)
"Dimerisation domain"</title>
				<rect class="PF16864" x="143" y="28" stroke-linejoin="round" width="8" height="24" fill="rgb(212,101,199)" stroke="rgb(169,80,159)" stroke-width="1" opacity="0.75" />
			</g>
			<g>
				<title>Methyltransf_2 (PF00891)
"O-methyltransferase domain"</title>
				<polygon class="PF00891" points="153,28 159,28 171,40 159,52 153,52" stroke-linejoin="round" width="20" height="24" fill="rgb(91,124,224)" stroke="rgb(72,99,179)" stroke-width="1" opacity="0.75" />
			</g>
		</g>
		<g>
			<title>cnq726
putative FMN-dependent oxidase</title>
			<polygon class="cnq726
putative FMN-dependent oxidase" points="180,40 201,10 201,70" fill="rgb(255,255,255)" fill-opacity="1.0" stroke="rgb(0,0,0)" stroke-width="2"  />
			<g>
				<title>PNP_phzG_C (PF10590)
"Pyridoxine 5'-phosphate oxidase C-terminal dimerisation region"</title>
				<polygon class="PF10590" points="184,40 184,40 184,40" stroke-linejoin="round" width="4" height="24" fill="rgb(58,189,132)" stroke="rgb(46,151,105)" stroke-width="1" opacity="0.75" />
			</g>
			<g>
				<title>Putative_PNPOx (PF01243)
"Pyridoxamine 5'-phosphate oxidase"</title>
				<polygon class="PF01243" points="189,33 193,28 197,28 197,52 193,52 189,47" stroke-linejoin="round" width="8" height="24" fill="rgb(187,127,57)" stroke="rgb(149,101,45)" stroke-width="1" opacity="0.75" />
			</g>
		</g>
		<g>
			<title>cnq727
putative trans-2,3-dihydro-3-hydroxyanthranilate isomerase</title>
			<polygon class="cnq727
putative trans-2,3-dihydro-3-hydroxyanthranilate isomerase" points="203,40 231,10 231,70" fill="rgb(255,255,255)" fill-opacity="1.0" stroke="rgb(0,0,0)" stroke-width="2"  />
			<g>
				<title>PhzC-PhzF (PF02567)
"Phenazine biosynthesis-like protein"</title>
				<polygon class="PF02567" points="207,40 218,28 229,28 229,52 218,52" stroke-linejoin="round" width="26" height="24" fill="rgb(81,190,161)" stroke="rgb(64,152,128)" stroke-width="1" opacity="0.75" />
			</g>
		</g>
		<g>
			<title>cnq728
putative 2-amino-2-desoxy-isochorismate synthase</title>
			<polygon class="cnq728
putative 2-amino-2-desoxy-isochorismate synthase" points="300,25 263,25 263,10 233,40 263,70 263,55 300,55" fill="rgb(255,255,255)" fill-opacity="1.0" stroke="rgb(0,0,0)" stroke-width="2"  />
			<g>
				<title>GATase (PF00117)
"Glutamine amidotransferase class-I"</title>
				<polygon class="PF00117" points="237,40 249,28 251,28 251,52 249,52" stroke-linejoin="round" width="18" height="24" fill="rgb(54,118,198)" stroke="rgb(43,94,158)" stroke-width="1" opacity="0.75" />
			</g>
			<g>
				<title>Chorismate_bind (PF00425)
"chorismate binding enzyme"</title>
				<rect class="PF00425" x="260" y="28" stroke-linejoin="round" width="26" height="24" fill="rgb(126,181,77)" stroke="rgb(100,144,61)" stroke-width="1" opacity="0.75" />
			</g>
		</g>
		<g>
			<title>cnq729
putative 2,3-dihydro-3-hydroxy-anthranilate (DHHA) synthase</title>
			<polygon class="cnq729
putative 2,3-dihydro-3-hydroxy-anthranilate (DHHA) synthase" points="300,40 320,10 320,70" fill="rgb(255,255,255)" fill-opacity="1.0" stroke="rgb(0,0,0)" stroke-width="2"  />
			<g>
				<title>Isochorismatase (PF00857)
"Isochorismatase family"</title>
				<polygon class="PF00857" points="304,40 312,28 317,28 317,52 312,52" stroke-linejoin="round" width="17" height="24" fill="rgb(82,216,163)" stroke="rgb(65,172,130)" stroke-width="1" opacity="0.75" />
			</g>
		</g>
		<g>
			<title>cnq730
putative 3-deoxy-D-arabino-heptulosonic acid 7-phosphate synthase</title>
			<polygon class="cnq730
putative 3-deoxy-D-arabino-heptulosonic acid 7-phosphate synthase" points="363,25 354,25 354,10 324,40 354,70 354,55 363,55" fill="rgb(255,255,255)" fill-opacity="1.0" stroke="rgb(0,0,0)" stroke-width="2"  />
			<g>
				<title>DAHP_synth_2 (PF01474)
"Class-II DAHP synthetase family"</title>
				<polygon class="PF01474" points="328,40 340,28 346,28 346,52 340,52" stroke-linejoin="round" width="22" height="24" fill="rgb(57,77,225)" stroke="rgb(45,61,180)" stroke-width="1" opacity="0.75" />
			</g>
			<g>
				<title>DAHP_synth_2 (PF01474)
"Class-II DAHP synthetase family"</title>
				<rect class="PF01474" x="345" y="28" stroke-linejoin="round" width="17" height="24" fill="rgb(57,77,225)" stroke="rgb(45,61,180)" stroke-width="1" opacity="0.75" />
			</g>
		</g>
		<g>
			<title>cnq731
putative enzyme of phenazine biosynthesis</title>
			<polygon class="cnq731
putative enzyme of phenazine biosynthesis" points="365,40 380,10 380,70" fill="rgb(255,255,255)" fill-opacity="1.0" stroke="rgb(0,0,0)" stroke-width="2"  />
			<g>
				<title>PHZA_PHZB (PF03284)
"Phenazine biosynthesis protein A/B"</title>
				<polygon class="PF03284" points="368,40 374,28 380,28 380,52 374,52" stroke-linejoin="round" width="15" height="24" fill="rgb(97,186,70)" stroke="rgb(77,148,56)" stroke-width="1" opacity="0.75" />
			</g>
		</g>
		<g>
			<title>cnq732
putative streptogrisin A</title>
			<polygon class="cnq732
putative streptogrisin A" points="406,10 435,40 406,70" fill="rgb(255,255,255)" fill-opacity="1.0" stroke="rgb(0,0,0)" stroke-width="2"  />
			<g>
				<title>Pro_Al_protease (PF02983)
"Alpha-lytic protease prodomain"</title>
				<rect class="PF02983" x="410" y="28" stroke-linejoin="round" width="5" height="24" fill="rgb(109,219,88)" stroke="rgb(87,175,70)" stroke-width="1" opacity="0.75" />
			</g>
			<g>
				<title>Trypsin (PF00089)
"Trypsin"</title>
				<polygon class="PF00089" points="417,28 419,28 431,40 419,52 417,52" stroke-linejoin="round" width="17" height="24" fill="rgb(84,205,91)" stroke="rgb(67,164,72)" stroke-width="1" opacity="0.75" />
			</g>
		</g>
		<g>
			<title>cnq733
hypothetical protein</title>
			<polygon class="cnq733
hypothetical protein" points="440,40 451,10 451,70" fill="rgb(255,255,255)" fill-opacity="1.0" stroke="rgb(0,0,0)" stroke-width="2"  />
			<g>
				<title>DUF1330 (PF07045)
"Domain of unknown function (DUF1330)"</title>
				<polygon class="PF07045" points="443,40 448,28 451,28 451,52 448,52" stroke-linejoin="round" width="9" height="24" fill="rgb(91,133,216)" stroke="rgb(72,106,172)" stroke-width="1" opacity="0.75" />
			</g>
		</g>
		<g>
			<title>cnq734
putative enzyme of phenazine biosynthesis</title>
			<polygon class="cnq734
putative enzyme of phenazine biosynthesis" points="456,40 472,10 472,70" fill="rgb(255,255,255)" fill-opacity="1.0" stroke="rgb(0,0,0)" stroke-width="2"  />
			<g>
				<title>PHZA_PHZB (PF03284)
"Phenazine biosynthesis protein A/B"</title>
				<polygon class="PF03284" points="459,40 466,28 471,28 471,52 466,52" stroke-linejoin="round" width="15" height="24" fill="rgb(97,186,70)" stroke="rgb(77,148,56)" stroke-width="1" opacity="0.75" />
			</g>
		</g>
		<g>
			<title>cnq735
putative monooxygenase</title>
			<polygon class="cnq735
putative monooxygenase" points="522,25 512,25 512,10 482,40 512,70 512,55 522,55" fill="rgb(255,255,255)" fill-opacity="1.0" stroke="rgb(0,0,0)" stroke-width="2"  />
			<g>
				<title>FAD_binding_3 (PF01494)
"FAD binding domain"</title>
				<polygon class="PF01494" points="486,40 495,31 495,49 486,40" stroke-linejoin="round" width="9" height="24" fill="rgb(215,66,156)" stroke="rgb(172,52,124)" stroke-width="1" opacity="0.75" />
			</g>
			<g>
				<title>FAD_binding_3 (PF01494)
"FAD binding domain"</title>
				<polygon class="PF01494" points="498,28 498,28 522,28 522,52 498,52 498,52" stroke-linejoin="round" width="24" height="24" fill="rgb(215,66,156)" stroke="rgb(172,52,124)" stroke-width="1" opacity="0.75" />
			</g>
		</g>
		<g>
			<title>cnq737
hypothetical protein</title>
			<polygon class="cnq737
hypothetical protein" points="523,40 527,10 527,70" fill="rgb(255,255,255)" fill-opacity="1.0" stroke="rgb(0,0,0)" stroke-width="2"  />
		</g>
		<g>
			<title>cnq738
putative prenyltransferase</title>
			<polygon class="cnq738
putative prenyltransferase" points="559,25 559,25 559,10 529,40 559,70 559,55 559,55" fill="rgb(255,255,255)" fill-opacity="1.0" stroke="rgb(0,0,0)" stroke-width="2"  />
			<g>
				<title>PTase_Orf2 (PF11468)
"Aromatic prenyltransferase Orf2"</title>
				<polygon class="PF11468" points="533,40 545,28 558,28 558,52 545,52" stroke-linejoin="round" width="29" height="24" fill="rgb(75,65,211)" stroke="rgb(59,51,168)" stroke-width="1" opacity="0.75" />
			</g>
		</g>
		<g>
			<title>cnq739
hypothetical protein</title>
			<polygon class="cnq739
hypothetical protein" points="572,40 597,10 597,70" fill="rgb(255,255,255)" fill-opacity="1.0" stroke="rgb(0,0,0)" stroke-width="2"  />
			<g>
				<title>Methyltransf_19 (PF04672)
"S-adenosyl methyltransferase"</title>
				<polygon class="PF04672" points="576,40 586,28 597,28 597,52 586,52" stroke-linejoin="round" width="25" height="24" fill="rgb(220,59,72)" stroke="rgb(176,47,57)" stroke-width="1" opacity="0.75" />
			</g>
		</g>
		<g>
			<title>cnq740
hypothetical protein</title>
			<polygon class="cnq740
hypothetical protein" points="639,25 630,25 630,10 600,40 630,70 630,55 639,55" fill="rgb(255,255,255)" fill-opacity="1.0" stroke="rgb(0,0,0)" stroke-width="2"  />
		</g>
		<g>
			<title>cnq741
hypothetical protein</title>
			<polygon class="cnq741
hypothetical protein" points="646,40 655,10 655,70" fill="rgb(255,255,255)" fill-opacity="1.0" stroke="rgb(0,0,0)" stroke-width="2"  />
		</g>
		<g>
			<title>cnq742
putative GntR family transcriptional regulator</title>
			<polygon class="cnq742
putative GntR family transcriptional regulator" points="667,40 684,10 684,70" fill="rgb(255,255,255)" fill-opacity="1.0" stroke="rgb(0,0,0)" stroke-width="2"  />
			<g>
				<title>GntR (PF00392)
"Bacterial regulatory proteins, gntR family"</title>
				<polygon class="PF00392" points="674,33 677,28 680,28 680,52 677,52 674,47" stroke-linejoin="round" width="6" height="24" fill="rgb(215,102,113)" stroke="rgb(172,81,90)" stroke-width="1" opacity="0.75" />
			</g>
		</g>
		<g>
			<title>cnq743
putative cellulose-binding protein</title>
			<polygon class="cnq743
putative cellulose-binding protein" points="689,40 711,10 711,70" fill="rgb(255,255,255)" fill-opacity="1.0" stroke="rgb(0,0,0)" stroke-width="2"  />
			<g>
				<title>LPMO_10 (PF03067)
"Lytic polysaccharide mono-oxygenase, cellulose-degrading"</title>
				<polygon class="PF03067" points="693,40 702,28 707,28 707,52 702,52" stroke-linejoin="round" width="18" height="24" fill="rgb(199,163,97)" stroke="rgb(159,130,77)" stroke-width="1" opacity="0.75" />
			</g>
		</g>
		<g>
			<title>cnq744
putative deaminase reductase</title>
			<polygon class="cnq744
putative deaminase reductase" points="717,10 736,40 717,70" fill="rgb(255,255,255)" fill-opacity="1.0" stroke="rgb(0,0,0)" stroke-width="2"  />
			<g>
				<title>RibD_C (PF01872)
"RibD C-terminal domain"</title>
				<polygon class="PF01872" points="717,28 725,28 732,40 725,52 717,52" stroke-linejoin="round" width="17" height="24" fill="rgb(228,170,103)" stroke="rgb(182,135,82)" stroke-width="1" opacity="0.75" />
			</g>
		</g>
		<g>
			<title>cnq745
putative MFS transporter</title>
			<polygon class="cnq745
putative MFS transporter" points="788,25 767,25 767,10 737,40 767,70 767,55 788,55" fill="rgb(255,255,255)" fill-opacity="1.0" stroke="rgb(0,0,0)" stroke-width="2"  />
			<g>
				<title>Sugar_tr (PF00083)
"Sugar (and other) transporter"</title>
				<polygon class="PF00083" points="741,40 753,28 783,28 783,52 753,52" stroke-linejoin="round" width="44" height="24" fill="rgb(186,204,56)" stroke="rgb(148,163,44)" stroke-width="1" opacity="0.75" />
			</g>
		</g>
		<g>
			<title>cnq746
putative phosphatase</title>
			<polygon class="cnq746
putative phosphatase" points="826,25 822,25 822,10 792,40 822,70 822,55 826,55" fill="rgb(255,255,255)" fill-opacity="1.0" stroke="rgb(0,0,0)" stroke-width="2"  />
			<g>
				<title>Ppx-GppA (PF02541)
"Ppx/GppA phosphatase family"</title>
				<polygon class="PF02541" points="796,40 808,28 825,28 825,52 808,52 796,40" stroke-linejoin="round" width="29" height="24" fill="rgb(58,190,50)" stroke="rgb(46,152,39)" stroke-width="1" opacity="0.75" />
			</g>
		</g>
	</g>
</svg>
