<svg version="1.1" baseProfile="full" xmlns="http://www.w3.org/2000/svg" width="1761.8333333333333" height="80">
	<g>
		<line x1="10" y1="40.0" x2="1751.8333333333333" y2="40.0" style="stroke:rgb(70,70,70); stroke-width:3 "/>
		<g>
			<title>xanY1
putative adenosylhomocysteinase</title>
			<polygon class="xanY1
putative adenosylhomocysteinase" points="57,25 40,25 40,10 10,40 40,70 40,55 57,55" fill="rgb(255,255,255)" fill-opacity="1.0" stroke="rgb(0,0,0)" stroke-width="2"  />
			<g>
				<title>AdoHcyase (PF05221)
"S-adenosyl-L-homocysteine hydrolase"</title>
				<polygon class="PF05221" points="14,40 26,28 56,28 56,52 26,52" stroke-linejoin="round" width="46" height="24" fill="rgb(185,78,202)" stroke="rgb(148,62,161)" stroke-width="1" opacity="0.75" />
			</g>
		</g>
		<g>
			<title>xanY2
5,10-methylenetetrahydrofolate reductase</title>
			<polygon class="xanY2
5,10-methylenetetrahydrofolate reductase" points="86,25 86,25 86,10 56,40 86,70 86,55 86,55" fill="rgb(255,255,255)" fill-opacity="1.0" stroke="rgb(0,0,0)" stroke-width="2"  />
			<g>
				<title>MTHFR (PF02219)
"Methylenetetrahydrofolate reductase"</title>
				<polygon class="PF02219" points="60,40 72,28 85,28 85,52 72,52" stroke-linejoin="round" width="28" height="24" fill="rgb(85,139,203)" stroke="rgb(68,111,162)" stroke-width="1" opacity="0.75" />
			</g>
		</g>
		<g>
			<title>xanY3
methionine synthase</title>
			<polygon class="xanY3
methionine synthase" points="202,25 116,25 116,10 86,40 116,70 116,55 202,55" fill="rgb(255,255,255)" fill-opacity="1.0" stroke="rgb(0,0,0)" stroke-width="2"  />
			<g>
				<title>Met_synt_B12 (PF02965)
"Vitamin B12 dependent methionine synthase, activation domain"</title>
				<polygon class="PF02965" points="90,40 102,28 106,28 106,52 102,52" stroke-linejoin="round" width="20" height="24" fill="rgb(107,217,214)" stroke="rgb(85,173,171)" stroke-width="1" opacity="0.75" />
			</g>
			<g>
				<title>B12-binding (PF02310)
"B12 binding domain"</title>
				<rect class="PF02310" x="118" y="28" stroke-linejoin="round" width="12" height="24" fill="rgb(64,214,216)" stroke="rgb(51,171,172)" stroke-width="1" opacity="0.75" />
			</g>
			<g>
				<title>B12-binding_2 (PF02607)
"B12 binding domain"</title>
				<rect class="PF02607" x="131" y="28" stroke-linejoin="round" width="7" height="24" fill="rgb(87,196,76)" stroke="rgb(69,156,60)" stroke-width="1" opacity="0.75" />
			</g>
			<g>
				<title>Pterin_bind (PF00809)
"Pterin binding enzyme"</title>
				<rect class="PF00809" x="144" y="28" stroke-linejoin="round" width="23" height="24" fill="rgb(68,133,191)" stroke="rgb(54,106,152)" stroke-width="1" opacity="0.75" />
			</g>
			<g>
				<title>S-methyl_trans (PF02574)
"Homocysteine S-methyltransferase"</title>
				<rect class="PF02574" x="171" y="28" stroke-linejoin="round" width="29" height="24" fill="rgb(73,136,197)" stroke="rgb(58,108,157)" stroke-width="1" opacity="0.75" />
			</g>
		</g>
		<g>
			<title>xanY4
carbohydrate kinase</title>
			<polygon class="xanY4
carbohydrate kinase" points="236,25 233,25 233,10 203,40 233,70 233,55 236,55" fill="rgb(255,255,255)" fill-opacity="1.0" stroke="rgb(0,0,0)" stroke-width="2"  />
			<g>
				<title>PfkB (PF00294)
"pfkB family carbohydrate kinase"</title>
				<polygon class="PF00294" points="207,40 219,28 235,28 235,52 219,52" stroke-linejoin="round" width="29" height="24" fill="rgb(94,207,198)" stroke="rgb(75,165,158)" stroke-width="1" opacity="0.75" />
			</g>
		</g>
		<g>
			<title>xanY5
S-adenosylmethionine synthetase</title>
			<polygon class="xanY5
S-adenosylmethionine synthetase" points="277,25 267,25 267,10 237,40 267,70 267,55 277,55" fill="rgb(255,255,255)" fill-opacity="1.0" stroke="rgb(0,0,0)" stroke-width="2"  />
			<g>
				<title>S-AdoMet_synt_C (PF02773)
"S-adenosylmethionine synthetase, C-terminal domain"</title>
				<polygon class="PF02773" points="241,40 251,30 251,50" stroke-linejoin="round" width="13" height="24" fill="rgb(143,191,71)" stroke="rgb(114,152,56)" stroke-width="1" opacity="0.75" />
			</g>
			<g>
				<title>S-AdoMet_synt_M (PF02772)
"S-adenosylmethionine synthetase, central domain"</title>
				<polygon class="PF02772" points="252,29 253,28 264,28 264,52 253,52 252,51" stroke-linejoin="round" width="12" height="24" fill="rgb(215,74,54)" stroke="rgb(172,59,43)" stroke-width="1" opacity="0.75" />
			</g>
			<g>
				<title>S-AdoMet_synt_N (PF00438)
"S-adenosylmethionine synthetase, N-terminal domain"</title>
				<rect class="PF00438" x="267" y="28" stroke-linejoin="round" width="9" height="24" fill="rgb(198,117,90)" stroke="rgb(158,93,72)" stroke-width="1" opacity="0.75" />
			</g>
		</g>
		<g>
			<title>xanO1
putative oxygenase</title>
			<polygon class="xanO1
putative oxygenase" points="281,40 295,10 295,70" fill="rgb(255,255,255)" fill-opacity="1.0" stroke="rgb(0,0,0)" stroke-width="2"  />
			<g>
				<title>SCP2 (PF02036)
"SCP-2 sterol transfer family"</title>
				<polygon class="PF02036" points="284,40 290,28 291,28 291,52 290,52" stroke-linejoin="round" width="9" height="24" fill="rgb(149,55,182)" stroke="rgb(119,44,145)" stroke-width="1" opacity="0.75" />
			</g>
		</g>
		<g>
			<title>xanS1
putative dehydrogenase</title>
			<polygon class="xanS1
putative dehydrogenase" points="335,25 325,25 325,10 295,40 325,70 325,55 335,55" fill="rgb(255,255,255)" fill-opacity="1.0" stroke="rgb(0,0,0)" stroke-width="2"  />
			<g>
				<title>NAD_binding_11 (PF14833)
"NAD-binding of NADP-dependent 3-hydroxyisobutyrate dehydrogenase"</title>
				<polygon class="PF14833" points="299,40 308,31 308,49" stroke-linejoin="round" width="12" height="24" fill="rgb(71,220,222)" stroke="rgb(56,176,177)" stroke-width="1" opacity="0.75" />
			</g>
			<g>
				<title>NAD_binding_2 (PF03446)
"NAD binding domain of 6-phosphogluconate dehydrogenase"</title>
				<polygon class="PF03446" points="308,31 311,28 323,28 323,52 311,52 308,49" stroke-linejoin="round" width="15" height="24" fill="rgb(119,80,223)" stroke="rgb(95,64,178)" stroke-width="1" opacity="0.75" />
			</g>
			<g>
				<title>ABM (PF03992)
"Antibiotic biosynthesis monooxygenase"</title>
				<rect class="PF03992" x="328" y="28" stroke-linejoin="round" width="7" height="24" fill="rgb(211,55,142)" stroke="rgb(168,44,113)" stroke-width="1" opacity="0.75" />
			</g>
		</g>
		<g>
			<title>xanJ
hypothetical protein</title>
			<polygon class="xanJ
hypothetical protein" points="338,10 362,40 338,70" fill="rgb(255,255,255)" fill-opacity="1.0" stroke="rgb(0,0,0)" stroke-width="2"  />
		</g>
		<g>
			<title>xanP
putative spore coat protein</title>
			<polygon class="xanP
putative spore coat protein" points="363,25 387,25 387,10 417,40 387,70 387,55 363,55" fill="rgb(255,255,255)" fill-opacity="1.0" stroke="rgb(0,0,0)" stroke-width="2"  />
			<g>
				<title>Cu-oxidase_3 (PF07732)
"Multicopper oxidase"</title>
				<rect class="PF07732" x="371" y="28" stroke-linejoin="round" width="7" height="24" fill="rgb(174,103,224)" stroke="rgb(139,82,179)" stroke-width="1" opacity="0.75" />
			</g>
			<g>
				<title>Cu-oxidase_3 (PF07732)
"Multicopper oxidase"</title>
				<rect class="PF07732" x="380" y="28" stroke-linejoin="round" width="5" height="24" fill="rgb(174,103,224)" stroke="rgb(139,82,179)" stroke-width="1" opacity="0.75" />
			</g>
			<g>
				<title>Cu-oxidase_2 (PF07731)
"Multicopper oxidase"</title>
				<polygon class="PF07731" points="404,32 412,40 404,48" stroke-linejoin="round" width="12" height="24" fill="rgb(188,215,88)" stroke="rgb(150,172,70)" stroke-width="1" opacity="0.75" />
			</g>
		</g>
		<g>
			<title>xanG
putative inactive gylcosyltransferase</title>
			<polygon class="xanG
putative inactive gylcosyltransferase" points="422,25 431,25 431,10 461,40 431,70 431,55 422,55" fill="rgb(255,255,255)" fill-opacity="1.0" stroke="rgb(0,0,0)" stroke-width="2"  />
			<g>
				<title>EryCIII-like_N (PF21036)
"Erythromycin biosynthesis protein CIII-like, N-terminal domain"</title>
				<rect class="PF21036" x="424" y="28" stroke-linejoin="round" width="20" height="24" fill="rgb(205,88,112)" stroke="rgb(164,70,89)" stroke-width="1" opacity="0.75" />
			</g>
			<g>
				<title>EryCIII-like_C (PF06722)
"Erythromycin biosynthesis protein CIII-like, C-terminal domain"</title>
				<polygon class="PF06722" points="446,30 456,40 446,50" stroke-linejoin="round" width="14" height="24" fill="rgb(48,103,191)" stroke="rgb(38,82,152)" stroke-width="1" opacity="0.75" />
			</g>
		</g>
		<g>
			<title>xanA
putative asparagine synthase</title>
			<polygon class="xanA
putative asparagine synthase" points="461,25 492,25 492,10 522,40 492,70 492,55 461,55" fill="rgb(255,255,255)" fill-opacity="1.0" stroke="rgb(0,0,0)" stroke-width="2"  />
			<g>
				<title>GATase_7 (PF13537)
"Glutamine amidotransferase domain"</title>
				<rect class="PF13537" x="465" y="28" stroke-linejoin="round" width="12" height="24" fill="rgb(102,71,204)" stroke="rgb(81,56,163)" stroke-width="1" opacity="0.75" />
			</g>
			<g>
				<title>Asn_synthase (PF00733)
"Asparagine synthase"</title>
				<polygon class="PF00733" points="485,28 506,28 518,40 506,52 485,52" stroke-linejoin="round" width="36" height="24" fill="rgb(200,91,135)" stroke="rgb(160,72,108)" stroke-width="1" opacity="0.75" />
			</g>
		</g>
		<g>
			<title>xanR1
putative transcriptional regulator</title>
			<polygon class="xanR1
putative transcriptional regulator" points="523,10 545,40 523,70" fill="rgb(255,255,255)" fill-opacity="1.0" stroke="rgb(0,0,0)" stroke-width="2"  />
			<g>
				<title>TENA_THI-4 (PF03070)
"TENA/THI-4/PQQC family"</title>
				<polygon class="PF03070" points="524,28 533,28 542,40 533,52 524,52" stroke-linejoin="round" width="20" height="24" fill="rgb(203,108,220)" stroke="rgb(162,86,176)" stroke-width="1" opacity="0.75" />
			</g>
		</g>
		<g>
			<title>xanO2
putative cytochrome P450 hydroxylase</title>
			<polygon class="xanO2
putative cytochrome P450 hydroxylase" points="547,25 557,25 557,10 587,40 557,70 557,55 547,55" fill="rgb(255,255,255)" fill-opacity="1.0" stroke="rgb(0,0,0)" stroke-width="2"  />
			<g>
				<title>p450 (PF00067)
"Cytochrome P450"</title>
				<polygon class="PF00067" points="548,28 570,28 573,31 573,49 570,52 548,52" stroke-linejoin="round" width="25" height="24" fill="rgb(195,210,54)" stroke="rgb(155,168,43)" stroke-width="1" opacity="0.75" />
			</g>
			<g>
				<title>p450 (PF00067)
"Cytochrome P450"</title>
				<polygon class="PF00067" points="573,31 582,40 573,49" stroke-linejoin="round" width="12" height="24" fill="rgb(195,210,54)" stroke="rgb(155,168,43)" stroke-width="1" opacity="0.75" />
			</g>
		</g>
		<g>
			<title>xanK
putative 3Fe-S ferredoxin</title>
			<polygon class="xanK
putative 3Fe-S ferredoxin" points="587,10 596,40 587,70" fill="rgb(255,255,255)" fill-opacity="1.0" stroke="rgb(0,0,0)" stroke-width="2"  />
			<g>
				<title>Fer4_13 (PF13370)
"4Fe-4S single cluster domain of Ferredoxin I"</title>
				<polygon class="PF13370" points="587,28 588,28 592,38 592,42 588,52 587,52" stroke-linejoin="round" width="5" height="24" fill="rgb(72,194,54)" stroke="rgb(57,155,43)" stroke-width="1" opacity="0.75" />
			</g>
		</g>
		<g>
			<title>xanU
putative antibiotic transporter</title>
			<polygon class="xanU
putative antibiotic transporter" points="596,25 637,25 637,10 667,40 637,70 637,55 596,55" fill="rgb(255,255,255)" fill-opacity="1.0" stroke="rgb(0,0,0)" stroke-width="2"  />
			<g>
				<title>MMPL (PF03176)
"MMPL family"</title>
				<rect class="PF03176" x="600" y="28" stroke-linejoin="round" width="31" height="24" fill="rgb(62,125,229)" stroke="rgb(49,99,183)" stroke-width="1" opacity="0.75" />
			</g>
			<g>
				<title>MMPL (PF03176)
"MMPL family"</title>
				<polygon class="PF03176" points="635,28 650,28 662,40 650,52 635,52" stroke-linejoin="round" width="29" height="24" fill="rgb(62,125,229)" stroke="rgb(49,99,183)" stroke-width="1" opacity="0.75" />
			</g>
		</g>
		<g>
			<title>xanO3
FAD-binding monooxygenase</title>
			<polygon class="xanO3
FAD-binding monooxygenase" points="673,25 682,25 682,10 712,40 682,70 682,55 673,55" fill="rgb(255,255,255)" fill-opacity="1.0" stroke="rgb(0,0,0)" stroke-width="2"  />
			<g>
				<title>FAD_binding_3 (PF01494)
"FAD binding domain"</title>
				<polygon class="PF01494" points="673,28 696,28 706,38 706,42 696,52 673,52" stroke-linejoin="round" width="33" height="24" fill="rgb(215,66,156)" stroke="rgb(172,52,124)" stroke-width="1" opacity="0.75" />
			</g>
		</g>
		<g>
			<title>xanL
putative lactoylglutathione lyase</title>
			<polygon class="xanL
putative lactoylglutathione lyase" points="714,40 732,10 732,70" fill="rgb(255,255,255)" fill-opacity="1.0" stroke="rgb(0,0,0)" stroke-width="2"  />
			<g>
				<title>Glyoxalase (PF00903)
"Glyoxalase/Bleomycin resistance protein/Dioxygenase superfamily"</title>
				<polygon class="PF00903" points="718,40 725,28 726,28 726,52 725,52" stroke-linejoin="round" width="12" height="24" fill="rgb(139,76,222)" stroke="rgb(111,60,177)" stroke-width="1" opacity="0.75" />
			</g>
		</g>
		<g>
			<title>xanH
putative non-heme halogenase</title>
			<polygon class="xanH
putative non-heme halogenase" points="745,25 762,25 762,10 792,40 762,70 762,55 745,55" fill="rgb(255,255,255)" fill-opacity="1.0" stroke="rgb(0,0,0)" stroke-width="2"  />
			<g>
				<title>Trp_halogenase (PF04820)
"Tryptophan halogenase"</title>
				<polygon class="PF04820" points="754,28 775,28 786,39 786,41 775,52 754,52" stroke-linejoin="round" width="32" height="24" fill="rgb(175,201,66)" stroke="rgb(139,160,52)" stroke-width="1" opacity="0.75" />
			</g>
		</g>
		<g>
			<title>xanQ
putative peptide transporter</title>
			<polygon class="xanQ
putative peptide transporter" points="792,25 815,25 815,10 845,40 815,70 815,55 792,55" fill="rgb(255,255,255)" fill-opacity="1.0" stroke="rgb(0,0,0)" stroke-width="2"  />
			<g>
				<title>PTR2 (PF00854)
"POT family"</title>
				<polygon class="PF00854" points="802,28 829,28 839,38 839,42 829,52 802,52" stroke-linejoin="round" width="37" height="24" fill="rgb(196,116,74)" stroke="rgb(156,92,59)" stroke-width="1" opacity="0.75" />
			</g>
		</g>
		<g>
			<title>xanM1
putative O-methyltransferase</title>
			<polygon class="xanM1
putative O-methyltransferase" points="845,25 849,25 849,10 879,40 849,70 849,55 845,55" fill="rgb(255,255,255)" fill-opacity="1.0" stroke="rgb(0,0,0)" stroke-width="2"  />
			<g>
				<title>Dimerisation2 (PF16864)
"Dimerisation domain"</title>
				<rect class="PF16864" x="846" y="28" stroke-linejoin="round" width="8" height="24" fill="rgb(212,101,199)" stroke="rgb(169,80,159)" stroke-width="1" opacity="0.75" />
			</g>
			<g>
				<title>Methyltransf_2 (PF00891)
"O-methyltransferase domain"</title>
				<polygon class="PF00891" points="856,28 862,28 874,40 862,52 856,52" stroke-linejoin="round" width="20" height="24" fill="rgb(91,124,224)" stroke="rgb(72,99,179)" stroke-width="1" opacity="0.75" />
			</g>
		</g>
		<g>
			<title>xanZ1
putative F420-dependent reductase</title>
			<polygon class="xanZ1
putative F420-dependent reductase" points="898,10 926,40 898,70" fill="rgb(255,255,255)" fill-opacity="1.0" stroke="rgb(0,0,0)" stroke-width="2"  />
			<g>
				<title>Bac_luciferase (PF00296)
"Luciferase-like monooxygenase"</title>
				<polygon class="PF00296" points="898,28 910,28 922,40 910,52 898,52" stroke-linejoin="round" width="26" height="24" fill="rgb(50,200,104)" stroke="rgb(40,160,83)" stroke-width="1" opacity="0.75" />
			</g>
		</g>
		<g>
			<title>xanN
putative integral membrane ion antiporter</title>
			<polygon class="xanN
putative integral membrane ion antiporter" points="972,25 959,25 959,10 929,40 959,70 959,55 972,55" fill="rgb(255,255,255)" fill-opacity="1.0" stroke="rgb(0,0,0)" stroke-width="2"  />
			<g>
				<title>Na_H_Exchanger (PF00999)
"Sodium/hydrogen exchanger family"</title>
				<polygon class="PF00999" points="933,40 945,28 970,28 970,52 945,52" stroke-linejoin="round" width="38" height="24" fill="rgb(95,122,202)" stroke="rgb(76,97,161)" stroke-width="1" opacity="0.75" />
			</g>
		</g>
		<g>
			<title>xanW
hypothetical protein</title>
			<polygon class="xanW
hypothetical protein" points="976,40 992,10 992,70" fill="rgb(255,255,255)" fill-opacity="1.0" stroke="rgb(0,0,0)" stroke-width="2"  />
		</g>
		<g>
			<title>xanR2
putative transcriptional regulator</title>
			<polygon class="xanR2
putative transcriptional regulator" points="996,10 1011,40 996,70" fill="rgb(255,255,255)" fill-opacity="1.0" stroke="rgb(0,0,0)" stroke-width="2"  />
			<g>
				<title>MarR_2 (PF12802)
"MarR family"</title>
				<polygon class="PF12802" points="999,28 1001,28 1004,33 1004,47 1001,52 999,52" stroke-linejoin="round" width="5" height="24" fill="rgb(139,211,68)" stroke="rgb(111,168,54)" stroke-width="1" opacity="0.75" />
			</g>
		</g>
		<g>
			<title>xanM2
putative O-methyltransferase</title>
			<polygon class="xanM2
putative O-methyltransferase" points="1046,25 1042,25 1042,10 1012,40 1042,70 1042,55 1046,55" fill="rgb(255,255,255)" fill-opacity="1.0" stroke="rgb(0,0,0)" stroke-width="2"  />
			<g>
				<title>Methyltransf_2 (PF00891)
"O-methyltransferase domain"</title>
				<polygon class="PF00891" points="1016,40 1028,28 1034,28 1034,52 1028,52" stroke-linejoin="round" width="20" height="24" fill="rgb(91,124,224)" stroke="rgb(72,99,179)" stroke-width="1" opacity="0.75" />
			</g>
			<g>
				<title>Dimerisation2 (PF16864)
"Dimerisation domain"</title>
				<rect class="PF16864" x="1036" y="28" stroke-linejoin="round" width="8" height="24" fill="rgb(212,101,199)" stroke="rgb(169,80,159)" stroke-width="1" opacity="0.75" />
			</g>
		</g>
		<g>
			<title>xanO4
putative FAD-binding monooxygenase</title>
			<polygon class="xanO4
putative FAD-binding monooxygenase" points="1101,25 1077,25 1077,10 1047,40 1077,70 1077,55 1101,55" fill="rgb(255,255,255)" fill-opacity="1.0" stroke="rgb(0,0,0)" stroke-width="2"  />
			<g>
				<title>Rng_hyd_C (PF21274)
"Aromatic-ring hydroxylase, C-terminal"</title>
				<polygon class="PF21274" points="1051,40 1058,33 1058,47" stroke-linejoin="round" width="11" height="24" fill="rgb(153,227,106)" stroke="rgb(122,181,84)" stroke-width="1" opacity="0.75" />
			</g>
			<g>
				<title>FAD_binding_3 (PF01494)
"FAD binding domain"</title>
				<rect class="PF01494" x="1064" y="28" stroke-linejoin="round" width="35" height="24" fill="rgb(215,66,156)" stroke="rgb(172,52,124)" stroke-width="1" opacity="0.75" />
			</g>
		</g>
		<g>
			<title>xanM3
putative methyltransferase</title>
			<polygon class="xanM3
putative methyltransferase" points="1112,25 1116,25 1116,10 1146,40 1116,70 1116,55 1112,55" fill="rgb(255,255,255)" fill-opacity="1.0" stroke="rgb(0,0,0)" stroke-width="2"  />
			<g>
				<title>Dimerisation2 (PF16864)
"Dimerisation domain"</title>
				<rect class="PF16864" x="1113" y="28" stroke-linejoin="round" width="8" height="24" fill="rgb(212,101,199)" stroke="rgb(169,80,159)" stroke-width="1" opacity="0.75" />
			</g>
			<g>
				<title>Methyltransf_2 (PF00891)
"O-methyltransferase domain"</title>
				<polygon class="PF00891" points="1124,28 1130,28 1142,40 1130,52 1124,52" stroke-linejoin="round" width="20" height="24" fill="rgb(91,124,224)" stroke="rgb(72,99,179)" stroke-width="1" opacity="0.75" />
			</g>
		</g>
		<g>
			<title>xanO5
putative FAD-binding monooxygenase</title>
			<polygon class="xanO5
putative FAD-binding monooxygenase" points="1150,25 1173,25 1173,10 1203,40 1173,70 1173,55 1150,55" fill="rgb(255,255,255)" fill-opacity="1.0" stroke="rgb(0,0,0)" stroke-width="2"  />
			<g>
				<title>FAD_binding_3 (PF01494)
"FAD binding domain"</title>
				<rect class="PF01494" x="1150" y="28" stroke-linejoin="round" width="36" height="24" fill="rgb(215,66,156)" stroke="rgb(172,52,124)" stroke-width="1" opacity="0.75" />
			</g>
			<g>
				<title>Rng_hyd_C (PF21274)
"Aromatic-ring hydroxylase, C-terminal"</title>
				<polygon class="PF21274" points="1191,33 1198,40 1191,47" stroke-linejoin="round" width="11" height="24" fill="rgb(153,227,106)" stroke="rgb(122,181,84)" stroke-width="1" opacity="0.75" />
			</g>
		</g>
		<g>
			<title>xanS2
putative short-chain dehydrogenase/reductase SDR</title>
			<polygon class="xanS2
putative short-chain dehydrogenase/reductase SDR" points="1205,10 1227,40 1205,70" fill="rgb(255,255,255)" fill-opacity="1.0" stroke="rgb(0,0,0)" stroke-width="2"  />
			<g>
				<title>adh_short (PF00106)
"short chain dehydrogenase"</title>
				<polygon class="PF00106" points="1205,28 1215,28 1224,40 1224,40 1215,52 1205,52" stroke-linejoin="round" width="19" height="24" fill="rgb(128,81,196)" stroke="rgb(102,64,156)" stroke-width="1" opacity="0.75" />
			</g>
		</g>
		<g>
			<title>xanZ2
putative oxidoreductase</title>
			<polygon class="xanZ2
putative oxidoreductase" points="1265,25 1265,25 1265,10 1235,40 1265,70 1265,55 1265,55" fill="rgb(255,255,255)" fill-opacity="1.0" stroke="rgb(0,0,0)" stroke-width="2"  />
			<g>
				<title>Aldo_ket_red (PF00248)
"Aldo/keto reductase family"</title>
				<polygon class="PF00248" points="1239,40 1251,28 1262,28 1262,52 1251,52" stroke-linejoin="round" width="27" height="24" fill="rgb(96,196,138)" stroke="rgb(76,156,110)" stroke-width="1" opacity="0.75" />
			</g>
		</g>
		<g>
			<title>xanR3
putative transcriptional regulator</title>
			<polygon class="xanR3
putative transcriptional regulator" points="1267,25 1270,25 1270,10 1300,40 1270,70 1270,55 1267,55" fill="rgb(255,255,255)" fill-opacity="1.0" stroke="rgb(0,0,0)" stroke-width="2"  />
			<g>
				<title>DUF5937 (PF19361)
"Family of unknown function (DUF5937)"</title>
				<polygon class="PF19361" points="1277,28 1284,28 1291,35 1291,45 1284,52 1277,52" stroke-linejoin="round" width="14" height="24" fill="rgb(61,77,225)" stroke="rgb(48,61,180)" stroke-width="1" opacity="0.75" />
			</g>
			<g>
				<title>HTH_5 (PF01022)
"Bacterial regulatory protein, arsR family"</title>
				<polygon class="PF01022" points="1294,38 1296,40 1294,42" stroke-linejoin="round" width="4" height="24" fill="rgb(147,71,180)" stroke="rgb(117,56,144)" stroke-width="1" opacity="0.75" />
			</g>
		</g>
		<g>
			<title>xanB1
biotin carboxylase</title>
			<polygon class="xanB1
biotin carboxylase" points="1348,25 1334,25 1334,10 1304,40 1334,70 1334,55 1348,55" fill="rgb(255,255,255)" fill-opacity="1.0" stroke="rgb(0,0,0)" stroke-width="2"  />
			<g>
				<title>Biotin_carb_C (PF02785)
"Biotin carboxylase C-terminal domain"</title>
				<polygon class="PF02785" points="1308,40 1314,34 1314,46" stroke-linejoin="round" width="10" height="24" fill="rgb(209,64,211)" stroke="rgb(167,51,168)" stroke-width="1" opacity="0.75" />
			</g>
			<g>
				<title>CPSase_L_D2 (PF02786)
"Carbamoyl-phosphate synthase L chain, ATP binding domain"</title>
				<polygon class="PF02786" points="1316,32 1320,28 1336,28 1336,52 1320,52 1316,48" stroke-linejoin="round" width="20" height="24" fill="rgb(215,220,78)" stroke="rgb(172,176,62)" stroke-width="1" opacity="0.75" />
			</g>
			<g>
				<title>Biotin_carb_N (PF00289)
"Biotin carboxylase, N-terminal domain"</title>
				<rect class="PF00289" x="1337" y="28" stroke-linejoin="round" width="10" height="24" fill="rgb(226,88,113)" stroke="rgb(180,70,90)" stroke-width="1" opacity="0.75" />
			</g>
		</g>
		<g>
			<title>xanB2
biotin carboxyl carrier protein</title>
			<polygon class="xanB2
biotin carboxyl carrier protein" points="1349,40 1366,10 1366,70" fill="rgb(255,255,255)" fill-opacity="1.0" stroke="rgb(0,0,0)" stroke-width="2"  />
			<g>
				<title>Biotin_lipoyl (PF00364)
"Biotin-requiring enzyme"</title>
				<polygon class="PF00364" points="1352,40 1357,31 1357,49" stroke-linejoin="round" width="7" height="24" fill="rgb(99,229,97)" stroke="rgb(79,183,77)" stroke-width="1" opacity="0.75" />
			</g>
		</g>
		<g>
			<title>xanB3
carboxyl transferase</title>
			<polygon class="xanB3
carboxyl transferase" points="1425,25 1399,25 1399,10 1369,40 1399,70 1399,55 1425,55" fill="rgb(255,255,255)" fill-opacity="1.0" stroke="rgb(0,0,0)" stroke-width="2"  />
			<g>
				<title>ACCA (PF03255)
"Acetyl co-enzyme A carboxylase carboxyltransferase alpha subunit"</title>
				<rect class="PF03255" x="1386" y="28" stroke-linejoin="round" width="10" height="24" fill="rgb(80,127,197)" stroke="rgb(64,101,157)" stroke-width="1" opacity="0.75" />
			</g>
			<g>
				<title>Carboxyl_trans (PF01039)
"Carboxyl transferase domain"</title>
				<rect class="PF01039" x="1401" y="28" stroke-linejoin="round" width="17" height="24" fill="rgb(185,80,158)" stroke="rgb(148,64,126)" stroke-width="1" opacity="0.75" />
			</g>
		</g>
		<g>
			<title>xanO6
putative monooxygenase</title>
			<polygon class="xanO6
putative monooxygenase" points="1428,40 1438,10 1438,70" fill="rgb(255,255,255)" fill-opacity="1.0" stroke="rgb(0,0,0)" stroke-width="2"  />
			<g>
				<title>ABM (PF03992)
"Antibiotic biosynthesis monooxygenase"</title>
				<polygon class="PF03992" points="1431,40 1435,28 1437,28 1437,52 1435,52" stroke-linejoin="round" width="7" height="24" fill="rgb(211,55,142)" stroke="rgb(168,44,113)" stroke-width="1" opacity="0.75" />
			</g>
		</g>
		<g>
			<title>xanO7
putative monooxygenase</title>
			<polygon class="xanO7
putative monooxygenase" points="1438,40 1449,10 1449,70" fill="rgb(255,255,255)" fill-opacity="1.0" stroke="rgb(0,0,0)" stroke-width="2"  />
			<g>
				<title>ABM (PF03992)
"Antibiotic biosynthesis monooxygenase"</title>
				<polygon class="PF03992" points="1441,40 1446,28 1447,28 1447,52 1446,52" stroke-linejoin="round" width="7" height="24" fill="rgb(211,55,142)" stroke="rgb(168,44,113)" stroke-width="1" opacity="0.75" />
			</g>
		</g>
		<g>
			<title>xanZ3
putative 3-oxoacyl-ACP reductase</title>
			<polygon class="xanZ3
putative 3-oxoacyl-ACP reductase" points="1449,40 1474,10 1474,70" fill="rgb(255,255,255)" fill-opacity="1.0" stroke="rgb(0,0,0)" stroke-width="2"  />
			<g>
				<title>adh_short_C2 (PF13561)
"Enoyl-(Acyl carrier protein) reductase"</title>
				<polygon class="PF13561" points="1453,40 1463,28 1472,28 1472,52 1463,52" stroke-linejoin="round" width="23" height="24" fill="rgb(79,221,209)" stroke="rgb(63,176,167)" stroke-width="1" opacity="0.75" />
			</g>
		</g>
		<g>
			<title>xanO8
putative monooxygenase</title>
			<polygon class="xanO8
putative monooxygenase" points="1475,40 1490,10 1490,70" fill="rgb(255,255,255)" fill-opacity="1.0" stroke="rgb(0,0,0)" stroke-width="2"  />
			<g>
				<title>Anthrone_oxy (PF08592)
"Anthrone oxygenase"</title>
				<polygon class="PF08592" points="1478,40 1484,28 1486,28 1486,52 1484,52" stroke-linejoin="round" width="10" height="24" fill="rgb(94,203,219)" stroke="rgb(75,162,175)" stroke-width="1" opacity="0.75" />
			</g>
		</g>
		<g>
			<title>xanC1
putative polyketide cyclase</title>
			<polygon class="xanC1
putative polyketide cyclase" points="1491,40 1506,10 1506,70" fill="rgb(255,255,255)" fill-opacity="1.0" stroke="rgb(0,0,0)" stroke-width="2"  />
			<g>
				<title>Polyketide_cyc2 (PF10604)
"Polyketide cyclase / dehydrase and lipid transport"</title>
				<polygon class="PF10604" points="1494,40 1500,28 1506,28 1506,52 1500,52" stroke-linejoin="round" width="14" height="24" fill="rgb(170,214,69)" stroke="rgb(136,171,55)" stroke-width="1" opacity="0.75" />
			</g>
		</g>
		<g>
			<title>xanE
putative polyketide beta-ketoacyl synthase beta</title>
			<polygon class="xanE
putative polyketide beta-ketoacyl synthase beta" points="1552,25 1540,25 1540,10 1510,40 1540,70 1540,55 1552,55" fill="rgb(255,255,255)" fill-opacity="1.0" stroke="rgb(0,0,0)" stroke-width="2"  />
			<g>
				<title>Ketoacyl-synt_C (PF02801)
"Beta-ketoacyl synthase, C-terminal domain"</title>
				<polygon class="PF02801" points="1514,40 1524,30 1524,50 1514,40" stroke-linejoin="round" width="10" height="24" fill="rgb(212,79,72)" stroke="rgb(169,63,57)" stroke-width="1" opacity="0.75" />
			</g>
			<g>
				<title>ketoacyl-synt (PF00109)
"Beta-ketoacyl synthase, N-terminal domain"</title>
				<rect class="PF00109" x="1528" y="28" stroke-linejoin="round" width="24" height="24" fill="rgb(74,179,82)" stroke="rgb(59,143,65)" stroke-width="1" opacity="0.75" />
			</g>
		</g>
		<g>
			<title>xanF
putative polyketide beta-ketoacyl synthase alpha</title>
			<polygon class="xanF
putative polyketide beta-ketoacyl synthase alpha" points="1595,25 1583,25 1583,10 1553,40 1583,70 1583,55 1595,55" fill="rgb(255,255,255)" fill-opacity="1.0" stroke="rgb(0,0,0)" stroke-width="2"  />
			<g>
				<title>Ketoacyl-synt_C (PF02801)
"Beta-ketoacyl synthase, C-terminal domain"</title>
				<polygon class="PF02801" points="1558,39 1569,28 1569,28 1569,52 1569,52 1558,41" stroke-linejoin="round" width="11" height="24" fill="rgb(212,79,72)" stroke="rgb(169,63,57)" stroke-width="1" opacity="0.75" />
			</g>
			<g>
				<title>ketoacyl-synt (PF00109)
"Beta-ketoacyl synthase, N-terminal domain"</title>
				<rect class="PF00109" x="1570" y="28" stroke-linejoin="round" width="25" height="24" fill="rgb(74,179,82)" stroke="rgb(59,143,65)" stroke-width="1" opacity="0.75" />
			</g>
		</g>
		<g>
			<title>xanC2
putative polyketide cyclase</title>
			<polygon class="xanC2
putative polyketide cyclase" points="1595,40 1609,10 1609,70" fill="rgb(255,255,255)" fill-opacity="1.0" stroke="rgb(0,0,0)" stroke-width="2"  />
			<g>
				<title>Cupin_2 (PF07883)
"Cupin domain"</title>
				<polygon class="PF07883" points="1598,40 1604,28 1604,28 1604,52 1604,52 1598,40" stroke-linejoin="round" width="6" height="24" fill="rgb(191,63,205)" stroke="rgb(152,50,164)" stroke-width="1" opacity="0.75" />
			</g>
		</g>
		<g>
			<title>xanT
CurD-like protein</title>
			<polygon class="xanT
CurD-like protein" points="1616,10 1628,40 1616,70" fill="rgb(255,255,255)" fill-opacity="1.0" stroke="rgb(0,0,0)" stroke-width="2"  />
			<g>
				<title>SchA_CurD (PF04486)
"SchA/CurD like domain"</title>
				<polygon class="PF04486" points="1616,28 1620,28 1625,40 1620,52 1616,52" stroke-linejoin="round" width="11" height="24" fill="rgb(162,226,64)" stroke="rgb(129,180,51)" stroke-width="1" opacity="0.75" />
			</g>
		</g>
		<g>
			<title>xanO9
oxidase-like protein</title>
			<polygon class="xanO9
oxidase-like protein" points="1629,25 1646,25 1646,10 1676,40 1646,70 1646,55 1629,55" fill="rgb(255,255,255)" fill-opacity="1.0" stroke="rgb(0,0,0)" stroke-width="2"  />
			<g>
				<title>Cu-oxidase_3 (PF07732)
"Multicopper oxidase"</title>
				<rect class="PF07732" x="1635" y="28" stroke-linejoin="round" width="11" height="24" fill="rgb(174,103,224)" stroke="rgb(139,82,179)" stroke-width="1" opacity="0.75" />
			</g>
			<g>
				<title>Cu-oxidase_2 (PF07731)
"Multicopper oxidase"</title>
				<polygon class="PF07731" points="1663,31 1672,40 1663,49" stroke-linejoin="round" width="13" height="24" fill="rgb(188,215,88)" stroke="rgb(150,172,70)" stroke-width="1" opacity="0.75" />
			</g>
		</g>
		<g>
			<title>xanO10
putative monooxygenase</title>
			<polygon class="xanO10
putative monooxygenase" points="1678,40 1692,10 1692,70" fill="rgb(255,255,255)" fill-opacity="1.0" stroke="rgb(0,0,0)" stroke-width="2"  />
			<g>
				<title>Anthrone_oxy (PF08592)
"Anthrone oxygenase"</title>
				<polygon class="PF08592" points="1681,40 1687,28 1688,28 1688,52 1687,52" stroke-linejoin="round" width="10" height="24" fill="rgb(94,203,219)" stroke="rgb(75,162,175)" stroke-width="1" opacity="0.75" />
			</g>
		</g>
		<g>
			<title>xanV
hypothetical protein</title>
			<polygon class="xanV
hypothetical protein" points="1694,40 1706,10 1706,70" fill="rgb(255,255,255)" fill-opacity="1.0" stroke="rgb(0,0,0)" stroke-width="2"  />
			<g>
				<title>SchA_CurD (PF04486)
"SchA/CurD like domain"</title>
				<polygon class="PF04486" points="1697,40 1702,28 1705,28 1705,52 1702,52" stroke-linejoin="round" width="11" height="24" fill="rgb(162,226,64)" stroke="rgb(129,180,51)" stroke-width="1" opacity="0.75" />
			</g>
		</g>
		<g>
			<title>xanZ4
3-oxoacyl-ACP reductase</title>
			<polygon class="xanZ4
3-oxoacyl-ACP reductase" points="1706,40 1731,10 1731,70" fill="rgb(255,255,255)" fill-opacity="1.0" stroke="rgb(0,0,0)" stroke-width="2"  />
			<g>
				<title>adh_short_C2 (PF13561)
"Enoyl-(Acyl carrier protein) reductase"</title>
				<polygon class="PF13561" points="1710,40 1720,28 1729,28 1729,52 1720,52" stroke-linejoin="round" width="23" height="24" fill="rgb(79,221,209)" stroke="rgb(63,176,167)" stroke-width="1" opacity="0.75" />
			</g>
		</g>
		<g>
			<title>xanD
acyl carrier protein</title>
			<polygon class="xanD
acyl carrier protein" points="1731,40 1739,10 1739,70" fill="rgb(255,255,255)" fill-opacity="1.0" stroke="rgb(0,0,0)" stroke-width="2"  />
			<g>
				<title>PP-binding (PF00550)
"Phosphopantetheine attachment site"</title>
				<polygon class="PF00550" points="1734,40 1737,28 1737,28 1737,52 1737,52" stroke-linejoin="round" width="6" height="24" fill="rgb(181,58,166)" stroke="rgb(144,46,132)" stroke-width="1" opacity="0.75" />
			</g>
		</g>
		<g>
			<title>xanC3
putative polyketide cyclase</title>
			<polygon class="xanC3
putative polyketide cyclase" points="1740,40 1751,10 1751,70" fill="rgb(255,255,255)" fill-opacity="1.0" stroke="rgb(0,0,0)" stroke-width="2"  />
			<g>
				<title>Cyclase_polyket (PF04673)
"Polyketide synthesis cyclase"</title>
				<polygon class="PF04673" points="1743,40 1748,28 1750,28 1750,52 1748,52" stroke-linejoin="round" width="10" height="24" fill="rgb(97,206,162)" stroke="rgb(77,164,129)" stroke-width="1" opacity="0.75" />
			</g>
		</g>
	</g>
</svg>
