<svg version="1.1" baseProfile="full" xmlns="http://www.w3.org/2000/svg" width="2782.266666666667" height="80">
	<g>
		<line x1="10" y1="40.0" x2="2772.266666666667" y2="40.0" style="stroke:rgb(70,70,70); stroke-width:3 "/>
		<g>
			<title>
hypothetical protein</title>
			<polygon class="
hypothetical protein" points="120,25 40,25 40,10 10,40 40,70 40,55 120,55" fill="rgb(255,255,255)" fill-opacity="1.0" stroke="rgb(0,0,0)" stroke-width="2"  />
			<g>
				<title>Val_tRNA-synt_C (PF10458)
"Valyl tRNA synthetase tRNA binding arm"</title>
				<rect class="PF10458" x="29" y="28" stroke-linejoin="round" width="6" height="24" fill="rgb(110,200,84)" stroke="rgb(88,160,67)" stroke-width="1" opacity="0.75" />
			</g>
			<g>
				<title>Anticodon_1 (PF08264)
"Anticodon-binding domain of tRNA ligase"</title>
				<rect class="PF08264" x="41" y="28" stroke-linejoin="round" width="15" height="24" fill="rgb(211,65,151)" stroke="rgb(168,51,120)" stroke-width="1" opacity="0.75" />
			</g>
			<g>
				<title>tRNA-synt_1 (PF00133)
"tRNA synthetases class I (I, L, M and V)"</title>
				<rect class="PF00133" x="61" y="28" stroke-linejoin="round" width="59" height="24" fill="rgb(226,154,74)" stroke="rgb(180,123,59)" stroke-width="1" opacity="0.75" />
			</g>
		</g>
		<g>
			<title>
hypothetical protein</title>
			<polygon class="
hypothetical protein" points="166,25 155,25 155,10 125,40 155,70 155,55 166,55" fill="rgb(255,255,255)" fill-opacity="1.0" stroke="rgb(0,0,0)" stroke-width="2"  />
			<g>
				<title>Response_reg (PF00072)
"Response regulator receiver domain"</title>
				<rect class="PF00072" x="157" y="28" stroke-linejoin="round" width="8" height="24" fill="rgb(59,131,198)" stroke="rgb(47,104,158)" stroke-width="1" opacity="0.75" />
			</g>
		</g>
		<g>
			<title>
hypothetical protein</title>
			<polygon class="
hypothetical protein" points="200,25 218,25 218,10 248,40 218,70 218,55 200,55" fill="rgb(255,255,255)" fill-opacity="1.0" stroke="rgb(0,0,0)" stroke-width="2"  />
			<g>
				<title>Response_reg (PF00072)
"Response regulator receiver domain"</title>
				<rect class="PF00072" x="202" y="28" stroke-linejoin="round" width="11" height="24" fill="rgb(59,131,198)" stroke="rgb(47,104,158)" stroke-width="1" opacity="0.75" />
			</g>
			<g>
				<title>GGDEF (PF00990)
"Diguanylate cyclase, GGDEF domain"</title>
				<polygon class="PF00990" points="229,28 231,28 243,40 231,52 229,52" stroke-linejoin="round" width="15" height="24" fill="rgb(219,91,210)" stroke="rgb(175,72,167)" stroke-width="1" opacity="0.75" />
			</g>
		</g>
		<g>
			<title>
hypothetical protein</title>
			<polygon class="
hypothetical protein" points="327,25 283,25 283,10 253,40 283,70 283,55 327,55" fill="rgb(255,255,255)" fill-opacity="1.0" stroke="rgb(0,0,0)" stroke-width="2"  />
		</g>
		<g>
			<title>
hypothetical protein</title>
			<polygon class="
hypothetical protein" points="415,25 391,25 391,10 361,40 391,70 391,55 415,55" fill="rgb(255,255,255)" fill-opacity="1.0" stroke="rgb(0,0,0)" stroke-width="2"  />
			<g>
				<title>Cpn60_TCP1 (PF00118)
"TCP-1/cpn60 chaperonin family"</title>
				<polygon class="PF00118" points="365,40 377,28 413,28 413,52 377,52" stroke-linejoin="round" width="50" height="24" fill="rgb(65,188,174)" stroke="rgb(52,150,139)" stroke-width="1" opacity="0.75" />
			</g>
		</g>
		<g>
			<title>
hypothetical protein</title>
			<polygon class="
hypothetical protein" points="438,25 442,25 442,10 472,40 442,70 442,55 438,55" fill="rgb(255,255,255)" fill-opacity="1.0" stroke="rgb(0,0,0)" stroke-width="2"  />
			<g>
				<title>TPR_16 (PF13432)
"Tetratricopeptide repeat"</title>
				<rect class="PF13432" x="438" y="28" stroke-linejoin="round" width="5" height="24" fill="rgb(152,213,89)" stroke="rgb(121,170,71)" stroke-width="1" opacity="0.75" />
			</g>
			<g>
				<title>TPR_19 (PF14559)
"Tetratricopeptide repeat"</title>
				<rect class="PF14559" x="450" y="28" stroke-linejoin="round" width="6" height="24" fill="rgb(200,56,196)" stroke="rgb(160,44,156)" stroke-width="1" opacity="0.75" />
			</g>
			<g>
				<title>Zincin_1 (PF06262)
"Zincin-like metallopeptidase"</title>
				<polygon class="PF06262" points="462,34 468,40 462,46" stroke-linejoin="round" width="9" height="24" fill="rgb(139,74,204)" stroke="rgb(111,59,163)" stroke-width="1" opacity="0.75" />
			</g>
		</g>
		<g>
			<title>
hypothetical protein</title>
			<polygon class="
hypothetical protein" points="504,25 501,25 501,10 471,40 501,70 501,55 504,55" fill="rgb(255,255,255)" fill-opacity="1.0" stroke="rgb(0,0,0)" stroke-width="2"  />
			<g>
				<title>Epimerase (PF01370)
"NAD dependent epimerase/dehydratase family"</title>
				<polygon class="PF01370" points="481,34 487,28 503,28 503,52 487,52 481,46" stroke-linejoin="round" width="22" height="24" fill="rgb(215,89,157)" stroke="rgb(172,71,125)" stroke-width="1" opacity="0.75" />
			</g>
		</g>
		<g>
			<title>
hypothetical protein</title>
			<polygon class="
hypothetical protein" points="508,10 529,40 508,70" fill="rgb(255,255,255)" fill-opacity="1.0" stroke="rgb(0,0,0)" stroke-width="2"  />
			<g>
				<title>TetR_N (PF00440)
"Bacterial regulatory proteins, tetR family"</title>
				<rect class="PF00440" x="509" y="28" stroke-linejoin="round" width="4" height="24" fill="rgb(148,50,185)" stroke="rgb(118,40,148)" stroke-width="1" opacity="0.75" />
			</g>
			<g>
				<title>TetR_C_33 (PF13305)
"Tetracyclin repressor-like, C-terminal domain"</title>
				<polygon class="PF13305" points="516,28 517,28 525,40 517,52 516,52" stroke-linejoin="round" width="10" height="24" fill="rgb(186,82,57)" stroke="rgb(148,65,45)" stroke-width="1" opacity="0.75" />
			</g>
		</g>
		<g>
			<title>
hypothetical protein</title>
			<polygon class="
hypothetical protein" points="538,25 545,25 545,10 575,40 545,70 545,55 538,55" fill="rgb(255,255,255)" fill-opacity="1.0" stroke="rgb(0,0,0)" stroke-width="2"  />
			<g>
				<title>Phage_integrase (PF00589)
"Phage integrase family"</title>
				<polygon class="PF00589" points="557,28 559,28 571,40 559,52 557,52" stroke-linejoin="round" width="16" height="24" fill="rgb(66,206,122)" stroke="rgb(52,164,97)" stroke-width="1" opacity="0.75" />
			</g>
		</g>
		<g>
			<title>
hypothetical protein</title>
			<polygon class="
hypothetical protein" points="714,25 666,25 666,10 636,40 666,70 666,55 714,55" fill="rgb(255,255,255)" fill-opacity="1.0" stroke="rgb(0,0,0)" stroke-width="2"  />
			<g>
				<title>VapE-like_dom (PF05272)
"Virulence-associated protein E-like domain"</title>
				<polygon class="PF05272" points="646,34 652,28 666,28 666,52 652,52 646,46" stroke-linejoin="round" width="20" height="24" fill="rgb(102,165,216)" stroke="rgb(81,131,172)" stroke-width="1" opacity="0.75" />
			</g>
			<g>
				<title>DUF3854 (PF12965)
"Domain of unknown function (DUF3854)"</title>
				<rect class="PF12965" x="685" y="28" stroke-linejoin="round" width="13" height="24" fill="rgb(56,159,215)" stroke="rgb(44,127,172)" stroke-width="1" opacity="0.75" />
			</g>
		</g>
		<g>
			<title>
hypothetical protein</title>
			<polygon class="
hypothetical protein" points="755,25 763,25 763,10 793,40 763,70 763,55 755,55" fill="rgb(255,255,255)" fill-opacity="1.0" stroke="rgb(0,0,0)" stroke-width="2"  />
			<g>
				<title>Pkinase (PF00069)
"Protein kinase domain"</title>
				<polygon class="PF00069" points="759,28 777,28 787,38 787,42 777,52 759,52" stroke-linejoin="round" width="28" height="24" fill="rgb(93,191,206)" stroke="rgb(74,152,164)" stroke-width="1" opacity="0.75" />
			</g>
		</g>
		<g>
			<title>
hypothetical protein</title>
			<polygon class="
hypothetical protein" points="829,25 863,25 863,10 893,40 863,70 863,55 829,55" fill="rgb(255,255,255)" fill-opacity="1.0" stroke="rgb(0,0,0)" stroke-width="2"  />
			<g>
				<title>Pkinase (PF00069)
"Protein kinase domain"</title>
				<rect class="PF00069" x="829" y="28" stroke-linejoin="round" width="26" height="24" fill="rgb(93,191,206)" stroke="rgb(74,152,164)" stroke-width="1" opacity="0.75" />
			</g>
		</g>
		<g>
			<title>
hypothetical protein</title>
			<polygon class="
hypothetical protein" points="896,25 896,25 896,10 926,40 896,70 896,55 896,55" fill="rgb(255,255,255)" fill-opacity="1.0" stroke="rgb(0,0,0)" stroke-width="2"  />
			<g>
				<title>DUF2381 (PF09544)
"Protein of unknown function (DUF2381)"</title>
				<polygon class="PF09544" points="897,28 910,28 922,40 910,52 897,52" stroke-linejoin="round" width="29" height="24" fill="rgb(56,146,199)" stroke="rgb(44,116,159)" stroke-width="1" opacity="0.75" />
			</g>
		</g>
		<g>
			<title>
hypothetical protein</title>
			<polygon class="
hypothetical protein" points="1005,10 1023,40 1005,70" fill="rgb(255,255,255)" fill-opacity="1.0" stroke="rgb(0,0,0)" stroke-width="2"  />
			<g>
				<title>DUF6367 (PF19894)
"Family of unknown function (DUF6367)"</title>
				<polygon class="PF19894" points="1006,28 1012,28 1019,40 1012,52 1006,52" stroke-linejoin="round" width="14" height="24" fill="rgb(74,197,123)" stroke="rgb(59,157,98)" stroke-width="1" opacity="0.75" />
			</g>
		</g>
		<g>
			<title>tubA
TubA protein</title>
			<polygon class="tubA
TubA protein" points="1050,25 1059,25 1059,10 1089,40 1059,70 1059,55 1050,55" fill="rgb(255,255,255)" fill-opacity="1.0" stroke="rgb(0,0,0)" stroke-width="2"  />
			<g>
				<title>PapA_C (PF16911)
"Phthiocerol/phthiodiolone dimycocerosyl transferase C-terminus"</title>
				<polygon class="PF16911" points="1066,28 1072,28 1084,40 1072,52 1066,52" stroke-linejoin="round" width="19" height="24" fill="rgb(64,194,72)" stroke="rgb(51,155,57)" stroke-width="1" opacity="0.75" />
			</g>
		</g>
		<g>
			<title>
hypothetical protein</title>
			<polygon class="
hypothetical protein" points="1089,40 1111,10 1111,70" fill="rgb(255,255,255)" fill-opacity="1.0" stroke="rgb(0,0,0)" stroke-width="2"  />
		</g>
		<g>
			<title>tubZ
TubZ protein</title>
			<polygon class="tubZ
TubZ protein" points="1149,25 1142,25 1142,10 1112,40 1142,70 1142,55 1149,55" fill="rgb(255,255,255)" fill-opacity="1.0" stroke="rgb(0,0,0)" stroke-width="2"  />
			<g>
				<title>OCD_Mu_crystall (PF02423)
"Ornithine cyclodeaminase/mu-crystallin family"</title>
				<polygon class="PF02423" points="1116,40 1128,28 1146,28 1146,52 1128,52" stroke-linejoin="round" width="31" height="24" fill="rgb(225,111,164)" stroke="rgb(180,88,131)" stroke-width="1" opacity="0.75" />
			</g>
		</g>
		<g>
			<title>
hypothetical protein</title>
			<polygon class="
hypothetical protein" points="1190,25 1180,25 1180,10 1150,40 1180,70 1180,55 1190,55" fill="rgb(255,255,255)" fill-opacity="1.0" stroke="rgb(0,0,0)" stroke-width="2"  />
			<g>
				<title>ArsA_HSP20 (PF17886)
"HSP20-like domain found in ArsA"</title>
				<polygon class="PF17886" points="1154,40 1156,38 1156,42" stroke-linejoin="round" width="6" height="24" fill="rgb(79,205,197)" stroke="rgb(63,164,157)" stroke-width="1" opacity="0.75" />
			</g>
			<g>
				<title>ArsA_ATPase (PF02374)
"Anion-transporting ATPase"</title>
				<polygon class="PF02374" points="1158,36 1166,28 1188,28 1188,52 1166,52 1158,44" stroke-linejoin="round" width="30" height="24" fill="rgb(193,89,126)" stroke="rgb(154,71,100)" stroke-width="1" opacity="0.75" />
			</g>
		</g>
		<g>
			<title>tubB
TubB protein</title>
			<polygon class="tubB
TubB protein" points="1194,25 1318,25 1318,10 1348,40 1318,70 1318,55 1194,55" fill="rgb(255,255,255)" fill-opacity="1.0" stroke="rgb(0,0,0)" stroke-width="2"  />
			<g>
				<title>Condensation (PF00668)
"Condensation domain"</title>
				<rect class="PF00668" x="1200" y="28" stroke-linejoin="round" width="44" height="24" fill="rgb(172,217,60)" stroke="rgb(137,173,47)" stroke-width="1" opacity="0.75" />
			</g>
			<g>
				<title>AMP-binding (PF00501)
"AMP-binding enzyme"</title>
				<rect class="PF00501" x="1247" y="28" stroke-linejoin="round" width="35" height="24" fill="rgb(189,78,204)" stroke="rgb(151,62,163)" stroke-width="1" opacity="0.75" />
			</g>
			<g>
				<title>Methyltransf_12 (PF08242)
"Methyltransferase domain"</title>
				<rect class="PF08242" x="1299" y="28" stroke-linejoin="round" width="10" height="24" fill="rgb(78,210,205)" stroke="rgb(62,168,164)" stroke-width="1" opacity="0.75" />
			</g>
			<g>
				<title>PP-binding (PF00550)
"Phosphopantetheine attachment site"</title>
				<polygon class="PF00550" points="1339,36 1343,40 1339,44" stroke-linejoin="round" width="6" height="24" fill="rgb(181,58,166)" stroke="rgb(144,46,132)" stroke-width="1" opacity="0.75" />
			</g>
		</g>
		<g>
			<title>tubC
TubC protein</title>
			<polygon class="tubC
TubC protein" points="1348,25 1580,25 1580,10 1610,40 1580,70 1580,55 1348,55" fill="rgb(255,255,255)" fill-opacity="1.0" stroke="rgb(0,0,0)" stroke-width="2"  />
			<g>
				<title>TubC_N (PF18563)
"TubC N-terminal docking domain"</title>
				<rect class="PF18563" x="1348" y="28" stroke-linejoin="round" width="5" height="24" fill="rgb(106,209,83)" stroke="rgb(84,167,66)" stroke-width="1" opacity="0.75" />
			</g>
			<g>
				<title>Condensation (PF00668)
"Condensation domain"</title>
				<rect class="PF00668" x="1355" y="28" stroke-linejoin="round" width="45" height="24" fill="rgb(172,217,60)" stroke="rgb(137,173,47)" stroke-width="1" opacity="0.75" />
			</g>
			<g>
				<title>AMP-binding (PF00501)
"AMP-binding enzyme"</title>
				<rect class="PF00501" x="1402" y="28" stroke-linejoin="round" width="34" height="24" fill="rgb(189,78,204)" stroke="rgb(151,62,163)" stroke-width="1" opacity="0.75" />
			</g>
			<g>
				<title>AMP-binding_C (PF13193)
"AMP-binding enzyme C-terminal domain"</title>
				<rect class="PF13193" x="1442" y="28" stroke-linejoin="round" width="7" height="24" fill="rgb(195,82,106)" stroke="rgb(156,65,84)" stroke-width="1" opacity="0.75" />
			</g>
			<g>
				<title>PP-binding (PF00550)
"Phosphopantetheine attachment site"</title>
				<rect class="PF00550" x="1452" y="28" stroke-linejoin="round" width="6" height="24" fill="rgb(181,58,166)" stroke="rgb(144,46,132)" stroke-width="1" opacity="0.75" />
			</g>
			<g>
				<title>Condensation (PF00668)
"Condensation domain"</title>
				<rect class="PF00668" x="1461" y="28" stroke-linejoin="round" width="44" height="24" fill="rgb(172,217,60)" stroke="rgb(137,173,47)" stroke-width="1" opacity="0.75" />
			</g>
			<g>
				<title>AMP-binding (PF00501)
"AMP-binding enzyme"</title>
				<rect class="PF00501" x="1507" y="28" stroke-linejoin="round" width="34" height="24" fill="rgb(189,78,204)" stroke="rgb(151,62,163)" stroke-width="1" opacity="0.75" />
			</g>
			<g>
				<title>AMP-binding_C (PF13193)
"AMP-binding enzyme C-terminal domain"</title>
				<rect class="PF13193" x="1548" y="28" stroke-linejoin="round" width="6" height="24" fill="rgb(195,82,106)" stroke="rgb(156,65,84)" stroke-width="1" opacity="0.75" />
			</g>
			<g>
				<title>Methyltransf_12 (PF08242)
"Methyltransferase domain"</title>
				<rect class="PF08242" x="1559" y="28" stroke-linejoin="round" width="9" height="24" fill="rgb(78,210,205)" stroke="rgb(62,168,164)" stroke-width="1" opacity="0.75" />
			</g>
			<g>
				<title>PP-binding (PF00550)
"Phosphopantetheine attachment site"</title>
				<polygon class="PF00550" points="1599,33 1605,39 1605,41 1599,47" stroke-linejoin="round" width="6" height="24" fill="rgb(181,58,166)" stroke="rgb(144,46,132)" stroke-width="1" opacity="0.75" />
			</g>
		</g>
		<g>
			<title>tubD
TubD protein</title>
			<polygon class="tubD
TubD protein" points="1610,25 1931,25 1931,10 1961,40 1931,70 1931,55 1610,55" fill="rgb(255,255,255)" fill-opacity="1.0" stroke="rgb(0,0,0)" stroke-width="2"  />
			<g>
				<title>ketoacyl-synt (PF00109)
"Beta-ketoacyl synthase, N-terminal domain"</title>
				<rect class="PF00109" x="1611" y="28" stroke-linejoin="round" width="25" height="24" fill="rgb(74,179,82)" stroke="rgb(59,143,65)" stroke-width="1" opacity="0.75" />
			</g>
			<g>
				<title>Ketoacyl-synt_C (PF02801)
"Beta-ketoacyl synthase, C-terminal domain"</title>
				<rect class="PF02801" x="1636" y="28" stroke-linejoin="round" width="11" height="24" fill="rgb(212,79,72)" stroke="rgb(169,63,57)" stroke-width="1" opacity="0.75" />
			</g>
			<g>
				<title>KAsynt_C_assoc (PF16197)
"Ketoacyl-synthetase C-terminal extension"</title>
				<rect class="PF16197" x="1649" y="28" stroke-linejoin="round" width="11" height="24" fill="rgb(200,86,70)" stroke="rgb(160,68,56)" stroke-width="1" opacity="0.75" />
			</g>
			<g>
				<title>Acyl_transf_1 (PF00698)
"Acyl transferase domain"</title>
				<rect class="PF00698" x="1663" y="28" stroke-linejoin="round" width="31" height="24" fill="rgb(132,93,193)" stroke="rgb(105,74,154)" stroke-width="1" opacity="0.75" />
			</g>
			<g>
				<title>Beta-ketacyl_N (PF21394)
"Beta-ketoacyl synthase-like, N-terminal"</title>
				<rect class="PF21394" x="1703" y="28" stroke-linejoin="round" width="17" height="24" fill="rgb(199,58,86)" stroke="rgb(159,46,68)" stroke-width="1" opacity="0.75" />
			</g>
			<g>
				<title>KR (PF08659)
"KR domain"</title>
				<rect class="PF08659" x="1725" y="28" stroke-linejoin="round" width="21" height="24" fill="rgb(203,145,81)" stroke="rgb(162,116,64)" stroke-width="1" opacity="0.75" />
			</g>
			<g>
				<title>PKS_DH_N (PF21089)
"Polyketide synthase dehydratase domain"</title>
				<rect class="PF21089" x="1749" y="28" stroke-linejoin="round" width="10" height="24" fill="rgb(67,151,200)" stroke="rgb(53,120,160)" stroke-width="1" opacity="0.75" />
			</g>
			<g>
				<title>PS-DH (PF14765)
"Polyketide synthase dehydratase N-terminal domain"</title>
				<rect class="PF14765" x="1762" y="28" stroke-linejoin="round" width="13" height="24" fill="rgb(189,61,178)" stroke="rgb(151,48,142)" stroke-width="1" opacity="0.75" />
			</g>
			<g>
				<title>ADH_N (PF08240)
"Alcohol dehydrogenase GroES-like domain"</title>
				<rect class="PF08240" x="1779" y="28" stroke-linejoin="round" width="7" height="24" fill="rgb(217,198,105)" stroke="rgb(173,158,84)" stroke-width="1" opacity="0.75" />
			</g>
			<g>
				<title>ADH_zinc_N (PF00107)
"Zinc-binding dehydrogenase"</title>
				<rect class="PF00107" x="1792" y="28" stroke-linejoin="round" width="12" height="24" fill="rgb(79,114,198)" stroke="rgb(63,91,158)" stroke-width="1" opacity="0.75" />
			</g>
			<g>
				<title>PP-binding (PF00550)
"Phosphopantetheine attachment site"</title>
				<rect class="PF00550" x="1818" y="28" stroke-linejoin="round" width="6" height="24" fill="rgb(181,58,166)" stroke="rgb(144,46,132)" stroke-width="1" opacity="0.75" />
			</g>
			<g>
				<title>Condensation (PF00668)
"Condensation domain"</title>
				<rect class="PF00668" x="1827" y="28" stroke-linejoin="round" width="44" height="24" fill="rgb(172,217,60)" stroke="rgb(137,173,47)" stroke-width="1" opacity="0.75" />
			</g>
			<g>
				<title>AMP-binding (PF00501)
"AMP-binding enzyme"</title>
				<rect class="PF00501" x="1874" y="28" stroke-linejoin="round" width="35" height="24" fill="rgb(189,78,204)" stroke="rgb(151,62,163)" stroke-width="1" opacity="0.75" />
			</g>
			<g>
				<title>AMP-binding_C (PF13193)
"AMP-binding enzyme C-terminal domain"</title>
				<rect class="PF13193" x="1915" y="28" stroke-linejoin="round" width="7" height="24" fill="rgb(195,82,106)" stroke="rgb(156,65,84)" stroke-width="1" opacity="0.75" />
			</g>
			<g>
				<title>PP-binding (PF00550)
"Phosphopantetheine attachment site"</title>
				<rect class="PF00550" x="1925" y="28" stroke-linejoin="round" width="6" height="24" fill="rgb(181,58,166)" stroke="rgb(144,46,132)" stroke-width="1" opacity="0.75" />
			</g>
			<g>
				<title>Nitroreductase (PF00881)
"Nitroreductase family"</title>
				<polygon class="PF00881" points="1938,28 1945,28 1955,38 1955,42 1945,52 1938,52" stroke-linejoin="round" width="17" height="24" fill="rgb(106,62,184)" stroke="rgb(84,49,147)" stroke-width="1" opacity="0.75" />
			</g>
		</g>
		<g>
			<title>tubE
TubE protein</title>
			<polygon class="tubE
TubE protein" points="1961,25 2049,25 2049,10 2079,40 2049,70 2049,55 1961,55" fill="rgb(255,255,255)" fill-opacity="1.0" stroke="rgb(0,0,0)" stroke-width="2"  />
			<g>
				<title>Condensation (PF00668)
"Condensation domain"</title>
				<rect class="PF00668" x="1965" y="28" stroke-linejoin="round" width="45" height="24" fill="rgb(172,217,60)" stroke="rgb(137,173,47)" stroke-width="1" opacity="0.75" />
			</g>
			<g>
				<title>AMP-binding (PF00501)
"AMP-binding enzyme"</title>
				<rect class="PF00501" x="2012" y="28" stroke-linejoin="round" width="39" height="24" fill="rgb(189,78,204)" stroke="rgb(151,62,163)" stroke-width="1" opacity="0.75" />
			</g>
			<g>
				<title>PP-binding (PF00550)
"Phosphopantetheine attachment site"</title>
				<polygon class="PF00550" points="2068,34 2074,40 2074,40 2068,46" stroke-linejoin="round" width="6" height="24" fill="rgb(181,58,166)" stroke="rgb(144,46,132)" stroke-width="1" opacity="0.75" />
			</g>
		</g>
		<g>
			<title>tubF
TubF protein</title>
			<polygon class="tubF
TubF protein" points="2080,25 2333,25 2333,10 2363,40 2333,70 2333,55 2080,55" fill="rgb(255,255,255)" fill-opacity="1.0" stroke="rgb(0,0,0)" stroke-width="2"  />
			<g>
				<title>ketoacyl-synt (PF00109)
"Beta-ketoacyl synthase, N-terminal domain"</title>
				<rect class="PF00109" x="2080" y="28" stroke-linejoin="round" width="25" height="24" fill="rgb(74,179,82)" stroke="rgb(59,143,65)" stroke-width="1" opacity="0.75" />
			</g>
			<g>
				<title>Ketoacyl-synt_C (PF02801)
"Beta-ketoacyl synthase, C-terminal domain"</title>
				<rect class="PF02801" x="2106" y="28" stroke-linejoin="round" width="11" height="24" fill="rgb(212,79,72)" stroke="rgb(169,63,57)" stroke-width="1" opacity="0.75" />
			</g>
			<g>
				<title>KAsynt_C_assoc (PF16197)
"Ketoacyl-synthetase C-terminal extension"</title>
				<rect class="PF16197" x="2118" y="28" stroke-linejoin="round" width="11" height="24" fill="rgb(200,86,70)" stroke="rgb(160,68,56)" stroke-width="1" opacity="0.75" />
			</g>
			<g>
				<title>Acyl_transf_1 (PF00698)
"Acyl transferase domain"</title>
				<rect class="PF00698" x="2133" y="28" stroke-linejoin="round" width="32" height="24" fill="rgb(132,93,193)" stroke="rgb(105,74,154)" stroke-width="1" opacity="0.75" />
			</g>
			<g>
				<title>Beta-ketacyl_N (PF21394)
"Beta-ketoacyl synthase-like, N-terminal"</title>
				<rect class="PF21394" x="2172" y="28" stroke-linejoin="round" width="16" height="24" fill="rgb(199,58,86)" stroke="rgb(159,46,68)" stroke-width="1" opacity="0.75" />
			</g>
			<g>
				<title>KR (PF08659)
"KR domain"</title>
				<rect class="PF08659" x="2193" y="28" stroke-linejoin="round" width="5" height="24" fill="rgb(203,145,81)" stroke="rgb(162,116,64)" stroke-width="1" opacity="0.75" />
			</g>
			<g>
				<title>Methyltransf_12 (PF08242)
"Methyltransferase domain"</title>
				<rect class="PF08242" x="2218" y="28" stroke-linejoin="round" width="10" height="24" fill="rgb(78,210,205)" stroke="rgb(62,168,164)" stroke-width="1" opacity="0.75" />
			</g>
			<g>
				<title>KR (PF08659)
"KR domain"</title>
				<rect class="PF08659" x="2235" y="28" stroke-linejoin="round" width="16" height="24" fill="rgb(203,145,81)" stroke="rgb(162,116,64)" stroke-width="1" opacity="0.75" />
			</g>
			<g>
				<title>PKS_DH_N (PF21089)
"Polyketide synthase dehydratase domain"</title>
				<rect class="PF21089" x="2253" y="28" stroke-linejoin="round" width="9" height="24" fill="rgb(67,151,200)" stroke="rgb(53,120,160)" stroke-width="1" opacity="0.75" />
			</g>
			<g>
				<title>PS-DH (PF14765)
"Polyketide synthase dehydratase N-terminal domain"</title>
				<rect class="PF14765" x="2267" y="28" stroke-linejoin="round" width="14" height="24" fill="rgb(189,61,178)" stroke="rgb(151,48,142)" stroke-width="1" opacity="0.75" />
			</g>
			<g>
				<title>ADH_N (PF08240)
"Alcohol dehydrogenase GroES-like domain"</title>
				<rect class="PF08240" x="2284" y="28" stroke-linejoin="round" width="8" height="24" fill="rgb(217,198,105)" stroke="rgb(173,158,84)" stroke-width="1" opacity="0.75" />
			</g>
			<g>
				<title>ADH_zinc_N_2 (PF13602)
"Zinc-binding dehydrogenase"</title>
				<rect class="PF13602" x="2300" y="28" stroke-linejoin="round" width="13" height="24" fill="rgb(183,68,113)" stroke="rgb(146,54,90)" stroke-width="1" opacity="0.75" />
			</g>
			<g>
				<title>PP-binding (PF00550)
"Phosphopantetheine attachment site"</title>
				<rect class="PF00550" x="2324" y="28" stroke-linejoin="round" width="6" height="24" fill="rgb(181,58,166)" stroke="rgb(144,46,132)" stroke-width="1" opacity="0.75" />
			</g>
			<g>
				<title>Thioesterase (PF00975)
"Thioesterase domain"</title>
				<polygon class="PF00975" points="2335,28 2347,28 2359,40 2347,52 2335,52" stroke-linejoin="round" width="27" height="24" fill="rgb(69,76,223)" stroke="rgb(55,60,178)" stroke-width="1" opacity="0.75" />
			</g>
		</g>
		<g>
			<title>
patatin-like protein</title>
			<polygon class="
patatin-like protein" points="2397,25 2392,25 2392,10 2362,40 2392,70 2392,55 2397,55" fill="rgb(255,255,255)" fill-opacity="1.0" stroke="rgb(0,0,0)" stroke-width="2"  />
			<g>
				<title>Patatin (PF01734)
"Patatin-like phospholipase"</title>
				<polygon class="PF01734" points="2376,30 2378,28 2394,28 2394,52 2378,52 2376,50" stroke-linejoin="round" width="18" height="24" fill="rgb(83,224,83)" stroke="rgb(66,179,66)" stroke-width="1" opacity="0.75" />
			</g>
		</g>
		<g>
			<title>
patatin-like protein</title>
			<polygon class="
patatin-like protein" points="2436,25 2431,25 2431,10 2401,40 2431,70 2431,55 2436,55" fill="rgb(255,255,255)" fill-opacity="1.0" stroke="rgb(0,0,0)" stroke-width="2"  />
			<g>
				<title>Patatin (PF01734)
"Patatin-like phospholipase"</title>
				<polygon class="PF01734" points="2415,30 2417,28 2433,28 2433,52 2417,52 2415,50" stroke-linejoin="round" width="18" height="24" fill="rgb(83,224,83)" stroke="rgb(66,179,66)" stroke-width="1" opacity="0.75" />
			</g>
		</g>
		<g>
			<title>
hypothetical protein</title>
			<polygon class="
hypothetical protein" points="2498,40 2521,10 2521,70" fill="rgb(255,255,255)" fill-opacity="1.0" stroke="rgb(0,0,0)" stroke-width="2"  />
		</g>
		<g>
			<title>
hypothetical protein</title>
			<polygon class="
hypothetical protein" points="2526,25 2534,25 2534,10 2564,40 2534,70 2534,55 2526,55" fill="rgb(255,255,255)" fill-opacity="1.0" stroke="rgb(0,0,0)" stroke-width="2"  />
		</g>
		<g>
			<title>tubG
TubG protein</title>
			<polygon class="tubG
TubG protein" points="2569,10 2594,40 2569,70" fill="rgb(255,255,255)" fill-opacity="1.0" stroke="rgb(0,0,0)" stroke-width="2"  />
			<g>
				<title>Acetyltransf_2 (PF00797)
"N-acetyltransferase"</title>
				<polygon class="PF00797" points="2570,28 2580,28 2590,40 2580,52 2570,52" stroke-linejoin="round" width="23" height="24" fill="rgb(83,223,184)" stroke="rgb(66,178,147)" stroke-width="1" opacity="0.75" />
			</g>
		</g>
		<g>
			<title>
hypothetical protein</title>
			<polygon class="
hypothetical protein" points="2602,25 2602,25 2602,10 2632,40 2602,70 2602,55 2602,55" fill="rgb(255,255,255)" fill-opacity="1.0" stroke="rgb(0,0,0)" stroke-width="2"  />
			<g>
				<title>LysM (PF01476)
"LysM domain"</title>
				<rect class="PF01476" x="2605" y="28" stroke-linejoin="round" width="4" height="24" fill="rgb(196,87,177)" stroke="rgb(156,69,141)" stroke-width="1" opacity="0.75" />
			</g>
		</g>
		<g>
			<title>
hypothetical protein</title>
			<polygon class="
hypothetical protein" points="2647,10 2676,40 2647,70" fill="rgb(255,255,255)" fill-opacity="1.0" stroke="rgb(0,0,0)" stroke-width="2"  />
			<g>
				<title>DDE_Tnp_IS66 (PF03050)
"Transposase IS66 family"</title>
				<polygon class="PF03050" points="2647,28 2660,28 2672,40 2660,52 2647,52" stroke-linejoin="round" width="26" height="24" fill="rgb(175,87,199)" stroke="rgb(140,69,159)" stroke-width="1" opacity="0.75" />
			</g>
		</g>
		<g>
			<title>
hypothetical protein</title>
			<polygon class="
hypothetical protein" points="2725,25 2708,25 2708,10 2678,40 2708,70 2708,55 2725,55" fill="rgb(255,255,255)" fill-opacity="1.0" stroke="rgb(0,0,0)" stroke-width="2"  />
			<g>
				<title>Beta-lactamase (PF00144)
"Beta-lactamase"</title>
				<polygon class="PF00144" points="2689,33 2694,28 2720,28 2720,52 2694,52 2689,47" stroke-linejoin="round" width="31" height="24" fill="rgb(211,218,66)" stroke="rgb(168,174,52)" stroke-width="1" opacity="0.75" />
			</g>
		</g>
		<g>
			<title>
pyrroline carboxylate reductase-like protein</title>
			<polygon class="
pyrroline carboxylate reductase-like protein" points="2769,25 2764,25 2764,10 2734,40 2764,70 2764,55 2769,55" fill="rgb(255,255,255)" fill-opacity="1.0" stroke="rgb(0,0,0)" stroke-width="2"  />
			<g>
				<title>P5CR_dimer (PF14748)
"Pyrroline-5-carboxylate reductase dimerisation"</title>
				<polygon class="PF14748" points="2738,40 2745,33 2745,47" stroke-linejoin="round" width="10" height="24" fill="rgb(186,87,110)" stroke="rgb(148,69,87)" stroke-width="1" opacity="0.75" />
			</g>
			<g>
				<title>F420_oxidored (PF03807)
"NADP oxidoreductase coenzyme F420-dependent"</title>
				<rect class="PF03807" x="2752" y="28" stroke-linejoin="round" width="9" height="24" fill="rgb(209,134,62)" stroke="rgb(167,107,49)" stroke-width="1" opacity="0.75" />
			</g>
		</g>
	</g>
</svg>
