<svg version="1.1" baseProfile="full" xmlns="http://www.w3.org/2000/svg" width="303.76666666666665" height="80">
	<g>
		<line x1="10" y1="40.0" x2="293.76666666666665" y2="40.0" style="stroke:rgb(70,70,70); stroke-width:3 "/>
		<g>
			<title> (SJA_P1-00920)
TonB-dependent receptor-like protein</title>
			<polygon class=" (SJA_P1-00920)
TonB-dependent receptor-like protein" points="10,25 65,25 65,10 95,40 65,70 65,55 10,55" fill="rgb(255,255,255)" fill-opacity="1.0" stroke="rgb(0,0,0)" stroke-width="2"  />
			<g>
				<title>STN (PF07660)
"Secretin and TonB N terminus short domain"</title>
				<rect class="PF07660" x="15" y="28" stroke-linejoin="round" width="5" height="24" fill="rgb(53,56,184)" stroke="rgb(42,44,147)" stroke-width="1" opacity="0.75" />
			</g>
			<g>
				<title>Plug (PF07715)
"TonB-dependent Receptor Plug Domain"</title>
				<rect class="PF07715" x="23" y="28" stroke-linejoin="round" width="11" height="24" fill="rgb(66,186,52)" stroke="rgb(52,148,41)" stroke-width="1" opacity="0.75" />
			</g>
			<g>
				<title>TonB_dep_Rec (PF00593)
"TonB dependent receptor"</title>
				<polygon class="PF00593" points="42,28 79,28 91,40 91,40 79,52 42,52" stroke-linejoin="round" width="49" height="24" fill="rgb(67,93,202)" stroke="rgb(53,74,161)" stroke-width="1" opacity="0.75" />
			</g>
		</g>
		<g>
			<title> (SJA_P1-00930)
putative peptidase</title>
			<polygon class=" (SJA_P1-00930)
putative peptidase" points="95,25 139,25 139,10 169,40 139,70 139,55 95,55" fill="rgb(255,255,255)" fill-opacity="1.0" stroke="rgb(0,0,0)" stroke-width="2"  />
			<g>
				<title>PD40 (PF07676)
"WD40-like Beta Propeller Repeat"</title>
				<rect class="PF07676" x="109" y="28" stroke-linejoin="round" width="2" height="24" fill="rgb(194,69,172)" stroke="rgb(155,55,137)" stroke-width="1" opacity="0.75" />
			</g>
			<g>
				<title>Peptidase_S9 (PF00326)
"Prolyl oligopeptidase family"</title>
				<polygon class="PF00326" points="142,28 153,28 162,37 162,43 153,52 142,52" stroke-linejoin="round" width="20" height="24" fill="rgb(67,198,161)" stroke="rgb(53,158,128)" stroke-width="1" opacity="0.75" />
			</g>
		</g>
		<g>
			<title> (SJA_P1-00940)
putative asparagine synthase</title>
			<polygon class=" (SJA_P1-00940)
putative asparagine synthase" points="224,25 196,25 196,10 166,40 196,70 196,55 224,55" fill="rgb(255,255,255)" fill-opacity="1.0" stroke="rgb(0,0,0)" stroke-width="2"  />
			<g>
				<title>Asn_synthase (PF00733)
"Asparagine synthase"</title>
				<polygon class="PF00733" points="170,40 177,33 177,47" stroke-linejoin="round" width="11" height="24" fill="rgb(200,91,135)" stroke="rgb(160,72,108)" stroke-width="1" opacity="0.75" />
			</g>
			<g>
				<title>Asn_synthase (PF00733)
"Asparagine synthase"</title>
				<rect class="PF00733" x="186" y="28" stroke-linejoin="round" width="16" height="24" fill="rgb(200,91,135)" stroke="rgb(160,72,108)" stroke-width="1" opacity="0.75" />
			</g>
		</g>
		<g>
			<title> (SJA_P1-00950)
hypothetical protein</title>
			<polygon class=" (SJA_P1-00950)
hypothetical protein" points="224,40 245,10 245,70" fill="rgb(255,255,255)" fill-opacity="1.0" stroke="rgb(0,0,0)" stroke-width="2"  />
			<g>
				<title>Transglut_core3 (PF13471)
"Transglutaminase-like superfamily"</title>
				<polygon class="PF13471" points="228,40 236,29 236,51" stroke-linejoin="round" width="12" height="24" fill="rgb(88,181,169)" stroke="rgb(70,144,135)" stroke-width="1" opacity="0.75" />
			</g>
		</g>
		<g>
			<title> (SJA_P1-00960)
hypothetical protein</title>
			<polygon class=" (SJA_P1-00960)
hypothetical protein" points="248,40 252,10 252,70" fill="rgb(255,255,255)" fill-opacity="1.0" stroke="rgb(0,0,0)" stroke-width="2"  />
		</g>
		<g>
			<title> (SJA_P1-00970)
GntR-family transcriptional regulator</title>
			<polygon class=" (SJA_P1-00970)
GntR-family transcriptional regulator" points="258,40 278,10 278,70" fill="rgb(255,255,255)" fill-opacity="1.0" stroke="rgb(0,0,0)" stroke-width="2"  />
			<g>
				<title>GntR (PF00392)
"Bacterial regulatory proteins, gntR family"</title>
				<rect class="PF00392" x="271" y="28" stroke-linejoin="round" width="6" height="24" fill="rgb(215,102,113)" stroke="rgb(172,81,90)" stroke-width="1" opacity="0.75" />
			</g>
		</g>
		<g>
			<title> (SJA_P1-00980)
Xre-family transcriptional regulator</title>
			<polygon class=" (SJA_P1-00980)
Xre-family transcriptional regulator" points="279,40 292,10 292,70" fill="rgb(255,255,255)" fill-opacity="1.0" stroke="rgb(0,0,0)" stroke-width="2"  />
			<g>
				<title>HTH_3 (PF01381)
"Helix-turn-helix"</title>
				<polygon class="PF01381" points="285,34 288,28 290,28 290,52 288,52 285,46" stroke-linejoin="round" width="5" height="24" fill="rgb(168,185,81)" stroke="rgb(134,148,64)" stroke-width="1" opacity="0.75" />
			</g>
		</g>
	</g>
</svg>
