<svg version="1.1" baseProfile="full" xmlns="http://www.w3.org/2000/svg" width="1923.7333333333333" height="80">
	<g>
		<line x1="10" y1="40.0" x2="1913.7333333333333" y2="40.0" style="stroke:rgb(70,70,70); stroke-width:3 "/>
		<g>
			<title>
RNA-binding S1 domain-containing protein</title>
			<polygon class="
RNA-binding S1 domain-containing protein" points="16,25 16,25 16,10 46,40 16,70 16,55 16,55" fill="rgb(255,255,255)" fill-opacity="1.0" stroke="rgb(0,0,0)" stroke-width="2"  />
			<g>
				<title>S1 (PF00575)
"S1 RNA binding domain"</title>
				<rect class="PF00575" x="19" y="28" stroke-linejoin="round" width="7" height="24" fill="rgb(220,110,95)" stroke="rgb(176,88,76)" stroke-width="1" opacity="0.75" />
			</g>
			<g>
				<title>S1 (PF00575)
"S1 RNA binding domain"</title>
				<polygon class="PF00575" points="27,28 29,28 33,32 33,48 29,52 27,52" stroke-linejoin="round" width="6" height="24" fill="rgb(220,110,95)" stroke="rgb(176,88,76)" stroke-width="1" opacity="0.75" />
			</g>
			<g>
				<title>S1 (PF00575)
"S1 RNA binding domain"</title>
				<polygon class="PF00575" points="35,34 41,40 35,46" stroke-linejoin="round" width="7" height="24" fill="rgb(220,110,95)" stroke="rgb(176,88,76)" stroke-width="1" opacity="0.75" />
			</g>
		</g>
		<g>
			<title>
oxidoreductase alpha subunit</title>
			<polygon class="
oxidoreductase alpha subunit" points="55,25 99,25 99,10 129,40 99,70 99,55 55,55" fill="rgb(255,255,255)" fill-opacity="1.0" stroke="rgb(0,0,0)" stroke-width="2"  />
			<g>
				<title>Molybdopterin (PF00384)
"Molybdopterin oxidoreductase"</title>
				<rect class="PF00384" x="66" y="28" stroke-linejoin="round" width="37" height="24" fill="rgb(209,83,222)" stroke="rgb(167,66,177)" stroke-width="1" opacity="0.75" />
			</g>
			<g>
				<title>Molydop_binding (PF01568)
"Molydopterin dinucleotide binding domain"</title>
				<polygon class="PF01568" points="119,34 125,40 119,46" stroke-linejoin="round" width="10" height="24" fill="rgb(124,199,64)" stroke="rgb(99,159,51)" stroke-width="1" opacity="0.75" />
			</g>
		</g>
		<g>
			<title>
transposase</title>
			<polygon class="
transposase" points="202,25 178,25 178,10 148,40 178,70 178,55 202,55" fill="rgb(255,255,255)" fill-opacity="1.0" stroke="rgb(0,0,0)" stroke-width="2"  />
			<g>
				<title>DDE_Tnp_1 (PF01609)
"Transposase DDE domain"</title>
				<polygon class="PF01609" points="155,37 164,28 187,28 187,52 164,52 155,43" stroke-linejoin="round" width="32" height="24" fill="rgb(71,226,221)" stroke="rgb(56,180,176)" stroke-width="1" opacity="0.75" />
			</g>
			<g>
				<title>DUF4277 (PF14104)
"Domain of unknown function (DUF4277)"</title>
				<rect class="PF14104" x="190" y="28" stroke-linejoin="round" width="10" height="24" fill="rgb(62,188,139)" stroke="rgb(49,150,111)" stroke-width="1" opacity="0.75" />
			</g>
		</g>
		<g>
			<title>
hypothetical protein</title>
			<polygon class="
hypothetical protein" points="217,10 227,40 217,70" fill="rgb(255,255,255)" fill-opacity="1.0" stroke="rgb(0,0,0)" stroke-width="2"  />
			<g>
				<title>APS_kinase (PF01583)
"Adenylylsulphate kinase"</title>
				<polygon class="PF01583" points="217,28 219,28 223,36 223,44 219,52 217,52" stroke-linejoin="round" width="6" height="24" fill="rgb(215,100,220)" stroke="rgb(171,80,176)" stroke-width="1" opacity="0.75" />
			</g>
		</g>
		<g>
			<title>cyrJ
putative sulfotransferase</title>
			<polygon class="cyrJ
putative sulfotransferase" points="248,40 274,10 274,70" fill="rgb(255,255,255)" fill-opacity="1.0" stroke="rgb(0,0,0)" stroke-width="2"  />
			<g>
				<title>Sulfotransfer_5 (PF19798)
"Sulfotransferase domain"</title>
				<polygon class="PF19798" points="252,40 262,28 272,28 272,52 262,52" stroke-linejoin="round" width="23" height="24" fill="rgb(217,197,81)" stroke="rgb(173,157,64)" stroke-width="1" opacity="0.75" />
			</g>
		</g>
		<g>
			<title>cyrH
aminohydrolase</title>
			<polygon class="cyrH
aminohydrolase" points="354,25 337,25 337,10 307,40 337,70 337,55 354,55" fill="rgb(255,255,255)" fill-opacity="1.0" stroke="rgb(0,0,0)" stroke-width="2"  />
			<g>
				<title>Amidohydro_1 (PF01979)
"Amidohydrolase family"</title>
				<polygon class="PF01979" points="312,39 323,28 348,28 348,52 323,52 312,41" stroke-linejoin="round" width="36" height="24" fill="rgb(190,76,113)" stroke="rgb(152,60,90)" stroke-width="1" opacity="0.75" />
			</g>
		</g>
		<g>
			<title>cyrK
multidrug exporter MatE</title>
			<polygon class="cyrK
multidrug exporter MatE" points="370,25 388,25 388,10 418,40 388,70 388,55 370,55" fill="rgb(255,255,255)" fill-opacity="1.0" stroke="rgb(0,0,0)" stroke-width="2"  />
			<g>
				<title>MatE (PF01554)
"MatE"</title>
				<rect class="PF01554" x="372" y="28" stroke-linejoin="round" width="16" height="24" fill="rgb(223,98,132)" stroke="rgb(178,78,105)" stroke-width="1" opacity="0.75" />
			</g>
			<g>
				<title>MatE (PF01554)
"MatE"</title>
				<polygon class="PF01554" points="394,28 401,28 409,36 409,44 401,52 394,52" stroke-linejoin="round" width="15" height="24" fill="rgb(223,98,132)" stroke="rgb(178,78,105)" stroke-width="1" opacity="0.75" />
			</g>
		</g>
		<g>
			<title>cyrI
proline dioxygenase-like protein</title>
			<polygon class="cyrI
proline dioxygenase-like protein" points="455,40 482,10 482,70" fill="rgb(255,255,255)" fill-opacity="1.0" stroke="rgb(0,0,0)" stroke-width="2"  />
			<g>
				<title>2OG-FeII_Oxy_3 (PF13640)
"2OG-Fe(II) oxygenase superfamily"</title>
				<polygon class="PF13640" points="459,40 467,31 467,49" stroke-linejoin="round" width="11" height="24" fill="rgb(196,54,68)" stroke="rgb(156,43,54)" stroke-width="1" opacity="0.75" />
			</g>
		</g>
		<g>
			<title>cyrG
putative uracil ring formation</title>
			<polygon class="cyrG
putative uracil ring formation" points="531,25 514,25 514,10 484,40 514,70 514,55 531,55" fill="rgb(255,255,255)" fill-opacity="1.0" stroke="rgb(0,0,0)" stroke-width="2"  />
			<g>
				<title>Amidohydro_1 (PF01979)
"Amidohydrolase family"</title>
				<polygon class="PF01979" points="489,39 500,28 525,28 525,52 500,52 489,41" stroke-linejoin="round" width="36" height="24" fill="rgb(190,76,113)" stroke="rgb(152,60,90)" stroke-width="1" opacity="0.75" />
			</g>
		</g>
		<g>
			<title>cyrF
polyketide synthase</title>
			<polygon class="cyrF
polyketide synthase" points="675,25 570,25 570,10 540,40 570,70 570,55 675,55" fill="rgb(255,255,255)" fill-opacity="1.0" stroke="rgb(0,0,0)" stroke-width="2"  />
			<g>
				<title>PP-binding (PF00550)
"Phosphopantetheine attachment site"</title>
				<rect class="PF00550" x="568" y="28" stroke-linejoin="round" width="6" height="24" fill="rgb(181,58,166)" stroke="rgb(144,46,132)" stroke-width="1" opacity="0.75" />
			</g>
			<g>
				<title>Acyl_transf_1 (PF00698)
"Acyl transferase domain"</title>
				<rect class="PF00698" x="588" y="28" stroke-linejoin="round" width="32" height="24" fill="rgb(132,93,193)" stroke="rgb(105,74,154)" stroke-width="1" opacity="0.75" />
			</g>
			<g>
				<title>KAsynt_C_assoc (PF16197)
"Ketoacyl-synthetase C-terminal extension"</title>
				<rect class="PF16197" x="623" y="28" stroke-linejoin="round" width="11" height="24" fill="rgb(200,86,70)" stroke="rgb(160,68,56)" stroke-width="1" opacity="0.75" />
			</g>
			<g>
				<title>Ketoacyl-synt_C (PF02801)
"Beta-ketoacyl synthase, C-terminal domain"</title>
				<rect class="PF02801" x="635" y="28" stroke-linejoin="round" width="11" height="24" fill="rgb(212,79,72)" stroke="rgb(169,63,57)" stroke-width="1" opacity="0.75" />
			</g>
			<g>
				<title>ketoacyl-synt (PF00109)
"Beta-ketoacyl synthase, N-terminal domain"</title>
				<rect class="PF00109" x="647" y="28" stroke-linejoin="round" width="24" height="24" fill="rgb(74,179,82)" stroke="rgb(59,143,65)" stroke-width="1" opacity="0.75" />
			</g>
		</g>
		<g>
			<title>cyrD
polyketide synthase</title>
			<polygon class="cyrD
polyketide synthase" points="862,25 707,25 707,10 677,40 707,70 707,55 862,55" fill="rgb(255,255,255)" fill-opacity="1.0" stroke="rgb(0,0,0)" stroke-width="2"  />
			<g>
				<title>PP-binding (PF00550)
"Phosphopantetheine attachment site"</title>
				<polygon class="PF00550" points="683,38 689,32 689,48 683,42" stroke-linejoin="round" width="6" height="24" fill="rgb(181,58,166)" stroke="rgb(144,46,132)" stroke-width="1" opacity="0.75" />
			</g>
			<g>
				<title>KR (PF08659)
"KR domain"</title>
				<rect class="PF08659" x="700" y="28" stroke-linejoin="round" width="17" height="24" fill="rgb(203,145,81)" stroke="rgb(162,116,64)" stroke-width="1" opacity="0.75" />
			</g>
			<g>
				<title>PS-DH (PF14765)
"Polyketide synthase dehydratase N-terminal domain"</title>
				<rect class="PF14765" x="740" y="28" stroke-linejoin="round" width="15" height="24" fill="rgb(189,61,178)" stroke="rgb(151,48,142)" stroke-width="1" opacity="0.75" />
			</g>
			<g>
				<title>PKS_DH_N (PF21089)
"Polyketide synthase dehydratase domain"</title>
				<rect class="PF21089" x="759" y="28" stroke-linejoin="round" width="10" height="24" fill="rgb(67,151,200)" stroke="rgb(53,120,160)" stroke-width="1" opacity="0.75" />
			</g>
			<g>
				<title>Acyl_transf_1 (PF00698)
"Acyl transferase domain"</title>
				<rect class="PF00698" x="774" y="28" stroke-linejoin="round" width="31" height="24" fill="rgb(132,93,193)" stroke="rgb(105,74,154)" stroke-width="1" opacity="0.75" />
			</g>
			<g>
				<title>KAsynt_C_assoc (PF16197)
"Ketoacyl-synthetase C-terminal extension"</title>
				<rect class="PF16197" x="809" y="28" stroke-linejoin="round" width="11" height="24" fill="rgb(200,86,70)" stroke="rgb(160,68,56)" stroke-width="1" opacity="0.75" />
			</g>
			<g>
				<title>Ketoacyl-synt_C (PF02801)
"Beta-ketoacyl synthase, C-terminal domain"</title>
				<rect class="PF02801" x="821" y="28" stroke-linejoin="round" width="11" height="24" fill="rgb(212,79,72)" stroke="rgb(169,63,57)" stroke-width="1" opacity="0.75" />
			</g>
			<g>
				<title>ketoacyl-synt (PF00109)
"Beta-ketoacyl synthase, N-terminal domain"</title>
				<rect class="PF00109" x="833" y="28" stroke-linejoin="round" width="24" height="24" fill="rgb(74,179,82)" stroke="rgb(59,143,65)" stroke-width="1" opacity="0.75" />
			</g>
		</g>
		<g>
			<title>cyrC
polyketide synthase</title>
			<polygon class="cyrC
polyketide synthase" points="1028,25 892,25 892,10 862,40 892,70 892,55 1028,55" fill="rgb(255,255,255)" fill-opacity="1.0" stroke="rgb(0,0,0)" stroke-width="2"  />
			<g>
				<title>PP-binding (PF00550)
"Phosphopantetheine attachment site"</title>
				<polygon class="PF00550" points="868,38 874,32 874,48 868,42" stroke-linejoin="round" width="6" height="24" fill="rgb(181,58,166)" stroke="rgb(144,46,132)" stroke-width="1" opacity="0.75" />
			</g>
			<g>
				<title>KR (PF08659)
"KR domain"</title>
				<rect class="PF08659" x="885" y="28" stroke-linejoin="round" width="17" height="24" fill="rgb(203,145,81)" stroke="rgb(162,116,64)" stroke-width="1" opacity="0.75" />
			</g>
			<g>
				<title>Acyl_transf_1 (PF00698)
"Acyl transferase domain"</title>
				<rect class="PF00698" x="938" y="28" stroke-linejoin="round" width="33" height="24" fill="rgb(132,93,193)" stroke="rgb(105,74,154)" stroke-width="1" opacity="0.75" />
			</g>
			<g>
				<title>KAsynt_C_assoc (PF16197)
"Ketoacyl-synthetase C-terminal extension"</title>
				<rect class="PF16197" x="976" y="28" stroke-linejoin="round" width="11" height="24" fill="rgb(200,86,70)" stroke="rgb(160,68,56)" stroke-width="1" opacity="0.75" />
			</g>
			<g>
				<title>Ketoacyl-synt_C (PF02801)
"Beta-ketoacyl synthase, C-terminal domain"</title>
				<rect class="PF02801" x="988" y="28" stroke-linejoin="round" width="11" height="24" fill="rgb(212,79,72)" stroke="rgb(169,63,57)" stroke-width="1" opacity="0.75" />
			</g>
			<g>
				<title>ketoacyl-synt (PF00109)
"Beta-ketoacyl synthase, N-terminal domain"</title>
				<rect class="PF00109" x="1000" y="28" stroke-linejoin="round" width="25" height="24" fill="rgb(74,179,82)" stroke="rgb(59,143,65)" stroke-width="1" opacity="0.75" />
			</g>
		</g>
		<g>
			<title>cyrA
amidinotransferase</title>
			<polygon class="cyrA
amidinotransferase" points="1048,25 1057,25 1057,10 1087,40 1057,70 1057,55 1048,55" fill="rgb(255,255,255)" fill-opacity="1.0" stroke="rgb(0,0,0)" stroke-width="2"  />
			<g>
				<title>ADI (PF02274)
"Arginine deiminase"</title>
				<polygon class="PF02274" points="1077,35 1082,40 1077,45" stroke-linejoin="round" width="6" height="24" fill="rgb(123,77,200)" stroke="rgb(98,61,160)" stroke-width="1" opacity="0.75" />
			</g>
		</g>
		<g>
			<title>cyrB
mixed NRPS/PKS</title>
			<polygon class="cyrB
mixed NRPS/PKS" points="1087,25 1348,25 1348,10 1378,40 1348,70 1348,55 1087,55" fill="rgb(255,255,255)" fill-opacity="1.0" stroke="rgb(0,0,0)" stroke-width="2"  />
			<g>
				<title>AMP-binding (PF00501)
"AMP-binding enzyme"</title>
				<rect class="PF00501" x="1089" y="28" stroke-linejoin="round" width="38" height="24" fill="rgb(189,78,204)" stroke="rgb(151,62,163)" stroke-width="1" opacity="0.75" />
			</g>
			<g>
				<title>AMP-binding_C (PF13193)
"AMP-binding enzyme C-terminal domain"</title>
				<rect class="PF13193" x="1134" y="28" stroke-linejoin="round" width="7" height="24" fill="rgb(195,82,106)" stroke="rgb(156,65,84)" stroke-width="1" opacity="0.75" />
			</g>
			<g>
				<title>PP-binding (PF00550)
"Phosphopantetheine attachment site"</title>
				<rect class="PF00550" x="1145" y="28" stroke-linejoin="round" width="6" height="24" fill="rgb(181,58,166)" stroke="rgb(144,46,132)" stroke-width="1" opacity="0.75" />
			</g>
			<g>
				<title>ketoacyl-synt (PF00109)
"Beta-ketoacyl synthase, N-terminal domain"</title>
				<rect class="PF00109" x="1154" y="28" stroke-linejoin="round" width="25" height="24" fill="rgb(74,179,82)" stroke="rgb(59,143,65)" stroke-width="1" opacity="0.75" />
			</g>
			<g>
				<title>Ketoacyl-synt_C (PF02801)
"Beta-ketoacyl synthase, C-terminal domain"</title>
				<rect class="PF02801" x="1180" y="28" stroke-linejoin="round" width="12" height="24" fill="rgb(212,79,72)" stroke="rgb(169,63,57)" stroke-width="1" opacity="0.75" />
			</g>
			<g>
				<title>KAsynt_C_assoc (PF16197)
"Ketoacyl-synthetase C-terminal extension"</title>
				<rect class="PF16197" x="1193" y="28" stroke-linejoin="round" width="11" height="24" fill="rgb(200,86,70)" stroke="rgb(160,68,56)" stroke-width="1" opacity="0.75" />
			</g>
			<g>
				<title>Acyl_transf_1 (PF00698)
"Acyl transferase domain"</title>
				<rect class="PF00698" x="1207" y="28" stroke-linejoin="round" width="32" height="24" fill="rgb(132,93,193)" stroke="rgb(105,74,154)" stroke-width="1" opacity="0.75" />
			</g>
			<g>
				<title>PKS_DH_N (PF21089)
"Polyketide synthase dehydratase domain"</title>
				<rect class="PF21089" x="1246" y="28" stroke-linejoin="round" width="10" height="24" fill="rgb(67,151,200)" stroke="rgb(53,120,160)" stroke-width="1" opacity="0.75" />
			</g>
			<g>
				<title>PS-DH (PF14765)
"Polyketide synthase dehydratase N-terminal domain"</title>
				<rect class="PF14765" x="1258" y="28" stroke-linejoin="round" width="17" height="24" fill="rgb(189,61,178)" stroke="rgb(151,48,142)" stroke-width="1" opacity="0.75" />
			</g>
			<g>
				<title>HTH_51 (PF18558)
"Helix-turn-helix domain"</title>
				<rect class="PF18558" x="1279" y="28" stroke-linejoin="round" width="8" height="24" fill="rgb(57,180,179)" stroke="rgb(45,144,143)" stroke-width="1" opacity="0.75" />
			</g>
			<g>
				<title>Methyltransf_12 (PF08242)
"Methyltransferase domain"</title>
				<rect class="PF08242" x="1298" y="28" stroke-linejoin="round" width="10" height="24" fill="rgb(78,210,205)" stroke="rgb(62,168,164)" stroke-width="1" opacity="0.75" />
			</g>
			<g>
				<title>Beta-ketacyl_N (PF21394)
"Beta-ketoacyl synthase-like, N-terminal"</title>
				<rect class="PF21394" x="1317" y="28" stroke-linejoin="round" width="16" height="24" fill="rgb(199,58,86)" stroke="rgb(159,46,68)" stroke-width="1" opacity="0.75" />
			</g>
			<g>
				<title>KR (PF08659)
"KR domain"</title>
				<rect class="PF08659" x="1339" y="28" stroke-linejoin="round" width="17" height="24" fill="rgb(203,145,81)" stroke="rgb(162,116,64)" stroke-width="1" opacity="0.75" />
			</g>
			<g>
				<title>PP-binding (PF00550)
"Phosphopantetheine attachment site"</title>
				<polygon class="PF00550" points="1367,33 1373,39 1373,41 1367,47" stroke-linejoin="round" width="6" height="24" fill="rgb(181,58,166)" stroke="rgb(144,46,132)" stroke-width="1" opacity="0.75" />
			</g>
		</g>
		<g>
			<title>cyrE
polyketide synthase</title>
			<polygon class="cyrE
polyketide synthase" points="1379,25 1537,25 1537,10 1567,40 1537,70 1537,55 1379,55" fill="rgb(255,255,255)" fill-opacity="1.0" stroke="rgb(0,0,0)" stroke-width="2"  />
			<g>
				<title>ketoacyl-synt (PF00109)
"Beta-ketoacyl synthase, N-terminal domain"</title>
				<rect class="PF00109" x="1382" y="28" stroke-linejoin="round" width="24" height="24" fill="rgb(74,179,82)" stroke="rgb(59,143,65)" stroke-width="1" opacity="0.75" />
			</g>
			<g>
				<title>Ketoacyl-synt_C (PF02801)
"Beta-ketoacyl synthase, C-terminal domain"</title>
				<rect class="PF02801" x="1407" y="28" stroke-linejoin="round" width="11" height="24" fill="rgb(212,79,72)" stroke="rgb(169,63,57)" stroke-width="1" opacity="0.75" />
			</g>
			<g>
				<title>KAsynt_C_assoc (PF16197)
"Ketoacyl-synthetase C-terminal extension"</title>
				<rect class="PF16197" x="1419" y="28" stroke-linejoin="round" width="11" height="24" fill="rgb(200,86,70)" stroke="rgb(160,68,56)" stroke-width="1" opacity="0.75" />
			</g>
			<g>
				<title>Acyl_transf_1 (PF00698)
"Acyl transferase domain"</title>
				<rect class="PF00698" x="1433" y="28" stroke-linejoin="round" width="32" height="24" fill="rgb(132,93,193)" stroke="rgb(105,74,154)" stroke-width="1" opacity="0.75" />
			</g>
			<g>
				<title>PKS_DH_N (PF21089)
"Polyketide synthase dehydratase domain"</title>
				<rect class="PF21089" x="1470" y="28" stroke-linejoin="round" width="11" height="24" fill="rgb(67,151,200)" stroke="rgb(53,120,160)" stroke-width="1" opacity="0.75" />
			</g>
			<g>
				<title>PS-DH (PF14765)
"Polyketide synthase dehydratase N-terminal domain"</title>
				<rect class="PF14765" x="1485" y="28" stroke-linejoin="round" width="15" height="24" fill="rgb(189,61,178)" stroke="rgb(151,48,142)" stroke-width="1" opacity="0.75" />
			</g>
			<g>
				<title>KR (PF08659)
"KR domain"</title>
				<rect class="PF08659" x="1527" y="28" stroke-linejoin="round" width="17" height="24" fill="rgb(203,145,81)" stroke="rgb(162,116,64)" stroke-width="1" opacity="0.75" />
			</g>
			<g>
				<title>PP-binding (PF00550)
"Phosphopantetheine attachment site"</title>
				<polygon class="PF00550" points="1555,32 1561,38 1561,42 1555,48" stroke-linejoin="round" width="6" height="24" fill="rgb(181,58,166)" stroke="rgb(144,46,132)" stroke-width="1" opacity="0.75" />
			</g>
		</g>
		<g>
			<title>
hypothetical protein</title>
			<polygon class="
hypothetical protein" points="1582,10 1596,40 1582,70" fill="rgb(255,255,255)" fill-opacity="1.0" stroke="rgb(0,0,0)" stroke-width="2"  />
		</g>
		<g>
			<title>
hypothetical protein</title>
			<polygon class="
hypothetical protein" points="1598,40 1611,10 1611,70" fill="rgb(255,255,255)" fill-opacity="1.0" stroke="rgb(0,0,0)" stroke-width="2"  />
		</g>
		<g>
			<title>
hypothetical protein</title>
			<polygon class="
hypothetical protein" points="1650,10 1662,40 1650,70" fill="rgb(255,255,255)" fill-opacity="1.0" stroke="rgb(0,0,0)" stroke-width="2"  />
		</g>
		<g>
			<title>
hypothetical protein</title>
			<polygon class="
hypothetical protein" points="1670,10 1682,40 1670,70" fill="rgb(255,255,255)" fill-opacity="1.0" stroke="rgb(0,0,0)" stroke-width="2"  />
		</g>
		<g>
			<title>
hypothetical protein</title>
			<polygon class="
hypothetical protein" points="1685,10 1696,40 1685,70" fill="rgb(255,255,255)" fill-opacity="1.0" stroke="rgb(0,0,0)" stroke-width="2"  />
		</g>
		<g>
			<title>
hypothetical protein</title>
			<polygon class="
hypothetical protein" points="1699,10 1712,40 1699,70" fill="rgb(255,255,255)" fill-opacity="1.0" stroke="rgb(0,0,0)" stroke-width="2"  />
			<g>
				<title>DCC1-like (PF04134)
"DCC1-like thiol-disulfide oxidoreductase"</title>
				<polygon class="PF04134" points="1699,28 1703,28 1709,40 1703,52 1699,52" stroke-linejoin="round" width="11" height="24" fill="rgb(64,219,103)" stroke="rgb(51,175,82)" stroke-width="1" opacity="0.75" />
			</g>
		</g>
		<g>
			<title>
putative nucleotidyl transferase</title>
			<polygon class="
putative nucleotidyl transferase" points="1768,25 1763,25 1763,10 1733,40 1763,70 1763,55 1768,55" fill="rgb(255,255,255)" fill-opacity="1.0" stroke="rgb(0,0,0)" stroke-width="2"  />
			<g>
				<title>NTP_transferase (PF00483)
"Nucleotidyl transferase"</title>
				<polygon class="PF00483" points="1740,37 1749,28 1767,28 1767,52 1749,52 1740,43" stroke-linejoin="round" width="27" height="24" fill="rgb(211,145,90)" stroke="rgb(168,116,72)" stroke-width="1" opacity="0.75" />
			</g>
		</g>
		<g>
			<title>
putative cell envelope-like transcriptional attenuator</title>
			<polygon class="
putative cell envelope-like transcriptional attenuator" points="1781,25 1801,25 1801,10 1831,40 1801,70 1801,55 1781,55" fill="rgb(255,255,255)" fill-opacity="1.0" stroke="rgb(0,0,0)" stroke-width="2"  />
			<g>
				<title>LytR_cpsA_psr (PF03816)
"LytR_cpsA_psr family"</title>
				<rect class="PF03816" x="1798" y="28" stroke-linejoin="round" width="14" height="24" fill="rgb(100,48,191)" stroke="rgb(79,38,152)" stroke-width="1" opacity="0.75" />
			</g>
			<g>
				<title>LytR_C (PF13399)
"LytR cell envelope-related transcriptional attenuator"</title>
				<polygon class="PF13399" points="1822,36 1826,40 1822,44" stroke-linejoin="round" width="8" height="24" fill="rgb(136,75,202)" stroke="rgb(108,60,161)" stroke-width="1" opacity="0.75" />
			</g>
		</g>
		<g>
			<title>
pentapeptide repeat-containing protein</title>
			<polygon class="
pentapeptide repeat-containing protein" points="1834,10 1850,40 1834,70" fill="rgb(255,255,255)" fill-opacity="1.0" stroke="rgb(0,0,0)" stroke-width="2"  />
			<g>
				<title>Pentapeptide_4 (PF13599)
"Pentapeptide repeats (9 copies)"</title>
				<polygon class="PF13599" points="1840,28 1840,28 1847,40 1840,52 1840,52" stroke-linejoin="round" width="8" height="24" fill="rgb(73,211,115)" stroke="rgb(58,168,92)" stroke-width="1" opacity="0.75" />
			</g>
		</g>
		<g>
			<title>
putative integral membrane protein MviN</title>
			<polygon class="
putative integral membrane protein MviN" points="1867,25 1877,25 1877,10 1907,40 1877,70 1877,55 1867,55" fill="rgb(255,255,255)" fill-opacity="1.0" stroke="rgb(0,0,0)" stroke-width="2"  />
			<g>
				<title>MurJ (PF03023)
"Lipid II flippase MurJ"</title>
				<polygon class="PF03023" points="1867,28 1890,28 1902,40 1890,52 1867,52" stroke-linejoin="round" width="36" height="24" fill="rgb(216,66,210)" stroke="rgb(172,52,168)" stroke-width="1" opacity="0.75" />
			</g>
		</g>
	</g>
</svg>
