<svg version="1.1" baseProfile="full" xmlns="http://www.w3.org/2000/svg" width="1797.5666666666666" height="80">
	<g>
		<line x1="10" y1="40.0" x2="1787.5666666666666" y2="40.0" style="stroke:rgb(70,70,70); stroke-width:3 "/>
		<g>
			<title>fum21
Fum21</title>
			<polygon class="fum21
Fum21" points="103,25 159,25 159,10 189,40 159,70 159,55 103,55" fill="rgb(255,255,255)" fill-opacity="1.0" stroke="rgb(0,0,0)" stroke-width="2"  />
			<g>
				<title>Zn_clus (PF00172)
"Fungal Zn(2)-Cys(6) binuclear cluster domain"</title>
				<rect class="PF00172" x="105" y="28" stroke-linejoin="round" width="3" height="24" fill="rgb(58,207,82)" stroke="rgb(46,165,65)" stroke-width="1" opacity="0.75" />
			</g>
			<g>
				<title>Fungal_trans (PF04082)
"Fungal specific transcription factor domain"</title>
				<rect class="PF04082" x="132" y="28" stroke-linejoin="round" width="24" height="24" fill="rgb(214,73,227)" stroke="rgb(171,58,181)" stroke-width="1" opacity="0.75" />
			</g>
		</g>
		<g>
			<title>fum1
Fum1</title>
			<polygon class="fum1
Fum1" points="257,25 498,25 498,10 528,40 498,70 498,55 257,55" fill="rgb(255,255,255)" fill-opacity="1.0" stroke="rgb(0,0,0)" stroke-width="2"  />
			<g>
				<title>ketoacyl-synt (PF00109)
"Beta-ketoacyl synthase, N-terminal domain"</title>
				<rect class="PF00109" x="260" y="28" stroke-linejoin="round" width="24" height="24" fill="rgb(74,179,82)" stroke="rgb(59,143,65)" stroke-width="1" opacity="0.75" />
			</g>
			<g>
				<title>Ketoacyl-synt_C (PF02801)
"Beta-ketoacyl synthase, C-terminal domain"</title>
				<rect class="PF02801" x="285" y="28" stroke-linejoin="round" width="11" height="24" fill="rgb(212,79,72)" stroke="rgb(169,63,57)" stroke-width="1" opacity="0.75" />
			</g>
			<g>
				<title>KAsynt_C_assoc (PF16197)
"Ketoacyl-synthetase C-terminal extension"</title>
				<rect class="PF16197" x="297" y="28" stroke-linejoin="round" width="17" height="24" fill="rgb(200,86,70)" stroke="rgb(160,68,56)" stroke-width="1" opacity="0.75" />
			</g>
			<g>
				<title>Acyl_transf_1 (PF00698)
"Acyl transferase domain"</title>
				<rect class="PF00698" x="317" y="28" stroke-linejoin="round" width="32" height="24" fill="rgb(132,93,193)" stroke="rgb(105,74,154)" stroke-width="1" opacity="0.75" />
			</g>
			<g>
				<title>PKS_DH_N (PF21089)
"Polyketide synthase dehydratase domain"</title>
				<rect class="PF21089" x="355" y="28" stroke-linejoin="round" width="10" height="24" fill="rgb(67,151,200)" stroke="rgb(53,120,160)" stroke-width="1" opacity="0.75" />
			</g>
			<g>
				<title>PS-DH (PF14765)
"Polyketide synthase dehydratase N-terminal domain"</title>
				<rect class="PF14765" x="368" y="28" stroke-linejoin="round" width="15" height="24" fill="rgb(189,61,178)" stroke="rgb(151,48,142)" stroke-width="1" opacity="0.75" />
			</g>
			<g>
				<title>Methyltransf_12 (PF08242)
"Methyltransferase domain"</title>
				<rect class="PF08242" x="403" y="28" stroke-linejoin="round" width="10" height="24" fill="rgb(78,210,205)" stroke="rgb(62,168,164)" stroke-width="1" opacity="0.75" />
			</g>
			<g>
				<title>ADH_zinc_N_2 (PF13602)
"Zinc-binding dehydrogenase"</title>
				<rect class="PF13602" x="460" y="28" stroke-linejoin="round" width="13" height="24" fill="rgb(183,68,113)" stroke="rgb(146,54,90)" stroke-width="1" opacity="0.75" />
			</g>
			<g>
				<title>KR (PF08659)
"KR domain"</title>
				<rect class="PF08659" x="476" y="28" stroke-linejoin="round" width="17" height="24" fill="rgb(203,145,81)" stroke="rgb(162,116,64)" stroke-width="1" opacity="0.75" />
			</g>
			<g>
				<title>PP-binding (PF00550)
"Phosphopantetheine attachment site"</title>
				<rect class="PF00550" x="506" y="28" stroke-linejoin="round" width="6" height="24" fill="rgb(181,58,166)" stroke="rgb(144,46,132)" stroke-width="1" opacity="0.75" />
			</g>
		</g>
		<g>
			<title>fum6
Fum6</title>
			<polygon class="fum6
Fum6" points="662,25 572,25 572,10 542,40 572,70 572,55 662,55" fill="rgb(255,255,255)" fill-opacity="1.0" stroke="rgb(0,0,0)" stroke-width="2"  />
			<g>
				<title>NAD_binding_1 (PF00175)
"Oxidoreductase NAD-binding domain"</title>
				<polygon class="PF00175" points="554,32 558,28 565,28 565,52 558,52 554,48" stroke-linejoin="round" width="11" height="24" fill="rgb(216,75,157)" stroke="rgb(172,60,125)" stroke-width="1" opacity="0.75" />
			</g>
			<g>
				<title>FAD_binding_1 (PF00667)
"FAD binding domain"</title>
				<rect class="PF00667" x="571" y="28" stroke-linejoin="round" width="21" height="24" fill="rgb(73,226,101)" stroke="rgb(58,180,80)" stroke-width="1" opacity="0.75" />
			</g>
			<g>
				<title>Flavodoxin_1 (PF00258)
"Flavodoxin"</title>
				<rect class="PF00258" x="596" y="28" stroke-linejoin="round" width="13" height="24" fill="rgb(58,208,136)" stroke="rgb(46,166,108)" stroke-width="1" opacity="0.75" />
			</g>
			<g>
				<title>p450 (PF00067)
"Cytochrome P450"</title>
				<rect class="PF00067" x="615" y="28" stroke-linejoin="round" width="44" height="24" fill="rgb(195,210,54)" stroke="rgb(155,168,43)" stroke-width="1" opacity="0.75" />
			</g>
		</g>
		<g>
			<title>fum7
Fum7</title>
			<polygon class="fum7
Fum7" points="681,25 693,25 693,10 723,40 693,70 693,55 681,55" fill="rgb(255,255,255)" fill-opacity="1.0" stroke="rgb(0,0,0)" stroke-width="2"  />
			<g>
				<title>Fe-ADH (PF00465)
"Iron-containing alcohol dehydrogenase"</title>
				<polygon class="PF00465" points="683,28 706,28 718,40 706,52 683,52" stroke-linejoin="round" width="39" height="24" fill="rgb(55,192,63)" stroke="rgb(44,153,50)" stroke-width="1" opacity="0.75" />
			</g>
		</g>
		<g>
			<title>fum8
Fum8</title>
			<polygon class="fum8
Fum8" points="825,25 760,25 760,10 730,40 760,70 760,55 825,55" fill="rgb(255,255,255)" fill-opacity="1.0" stroke="rgb(0,0,0)" stroke-width="2"  />
			<g>
				<title>Aminotran_1_2 (PF00155)
"Aminotransferase class I and II"</title>
				<rect class="PF00155" x="776" y="28" stroke-linejoin="round" width="35" height="24" fill="rgb(207,146,55)" stroke="rgb(165,116,43)" stroke-width="1" opacity="0.75" />
			</g>
		</g>
		<g>
			<title>fum3
Fum3</title>
			<polygon class="fum3
Fum3" points="887,25 887,25 887,10 857,40 887,70 887,55 887,55" fill="rgb(255,255,255)" fill-opacity="1.0" stroke="rgb(0,0,0)" stroke-width="2"  />
			<g>
				<title>PhyH (PF05721)
"Phytanoyl-CoA dioxygenase (PhyH)"</title>
				<polygon class="PF05721" points="863,38 873,28 883,28 883,52 873,52 863,42" stroke-linejoin="round" width="20" height="24" fill="rgb(186,53,95)" stroke="rgb(148,42,76)" stroke-width="1" opacity="0.75" />
			</g>
		</g>
		<g>
			<title>fum10
Fum10</title>
			<polygon class="fum10
Fum10" points="903,25 935,25 935,10 965,40 935,70 935,55 903,55" fill="rgb(255,255,255)" fill-opacity="1.0" stroke="rgb(0,0,0)" stroke-width="2"  />
			<g>
				<title>AMP-binding (PF00501)
"AMP-binding enzyme"</title>
				<rect class="PF00501" x="904" y="28" stroke-linejoin="round" width="40" height="24" fill="rgb(189,78,204)" stroke="rgb(151,62,163)" stroke-width="1" opacity="0.75" />
			</g>
			<g>
				<title>AMP-binding_C (PF13193)
"AMP-binding enzyme C-terminal domain"</title>
				<polygon class="PF13193" points="949,29 956,36 956,44 949,51" stroke-linejoin="round" width="7" height="24" fill="rgb(195,82,106)" stroke="rgb(156,65,84)" stroke-width="1" opacity="0.75" />
			</g>
		</g>
		<g>
			<title>fum11
Fum11</title>
			<polygon class="fum11
Fum11" points="1017,25 1008,25 1008,10 978,40 1008,70 1008,55 1017,55" fill="rgb(255,255,255)" fill-opacity="1.0" stroke="rgb(0,0,0)" stroke-width="2"  />
			<g>
				<title>Mito_carr (PF00153)
"Mitochondrial carrier protein"</title>
				<polygon class="PF00153" points="987,35 994,28 996,28 996,52 994,52 987,45" stroke-linejoin="round" width="9" height="24" fill="rgb(95,112,228)" stroke="rgb(76,89,182)" stroke-width="1" opacity="0.75" />
			</g>
			<g>
				<title>Mito_carr (PF00153)
"Mitochondrial carrier protein"</title>
				<rect class="PF00153" x="997" y="28" stroke-linejoin="round" width="9" height="24" fill="rgb(95,112,228)" stroke="rgb(76,89,182)" stroke-width="1" opacity="0.75" />
			</g>
			<g>
				<title>Mito_carr (PF00153)
"Mitochondrial carrier protein"</title>
				<rect class="PF00153" x="1006" y="28" stroke-linejoin="round" width="8" height="24" fill="rgb(95,112,228)" stroke="rgb(76,89,182)" stroke-width="1" opacity="0.75" />
			</g>
		</g>
		<g>
			<title>fum2
Fum2</title>
			<polygon class="fum2
Fum2" points="1034,25 1060,25 1060,10 1090,40 1060,70 1060,55 1034,55" fill="rgb(255,255,255)" fill-opacity="1.0" stroke="rgb(0,0,0)" stroke-width="2"  />
			<g>
				<title>p450 (PF00067)
"Cytochrome P450"</title>
				<polygon class="PF00067" points="1038,28 1074,28 1083,37 1083,43 1074,52 1038,52" stroke-linejoin="round" width="45" height="24" fill="rgb(195,210,54)" stroke="rgb(155,168,43)" stroke-width="1" opacity="0.75" />
			</g>
		</g>
		<g>
			<title>fum13
Fum13</title>
			<polygon class="fum13
Fum13" points="1120,25 1126,25 1126,10 1156,40 1126,70 1126,55 1120,55" fill="rgb(255,255,255)" fill-opacity="1.0" stroke="rgb(0,0,0)" stroke-width="2"  />
			<g>
				<title>Epimerase (PF01370)
"NAD dependent epimerase/dehydratase family"</title>
				<polygon class="PF01370" points="1120,28 1140,28 1147,35 1147,45 1140,52 1120,52" stroke-linejoin="round" width="27" height="24" fill="rgb(215,89,157)" stroke="rgb(172,71,125)" stroke-width="1" opacity="0.75" />
			</g>
		</g>
		<g>
			<title>fum14
Fum14</title>
			<polygon class="fum14
Fum14" points="1234,25 1199,25 1199,10 1169,40 1199,70 1199,55 1234,55" fill="rgb(255,255,255)" fill-opacity="1.0" stroke="rgb(0,0,0)" stroke-width="2"  />
			<g>
				<title>Condensation (PF00668)
"Condensation domain"</title>
				<polygon class="PF00668" points="1179,34 1185,28 1221,28 1221,52 1185,52 1179,46" stroke-linejoin="round" width="42" height="24" fill="rgb(172,217,60)" stroke="rgb(137,173,47)" stroke-width="1" opacity="0.75" />
			</g>
			<g>
				<title>PP-binding (PF00550)
"Phosphopantetheine attachment site"</title>
				<rect class="PF00550" x="1228" y="28" stroke-linejoin="round" width="5" height="24" fill="rgb(181,58,166)" stroke="rgb(144,46,132)" stroke-width="1" opacity="0.75" />
			</g>
		</g>
		<g>
			<title>fum15
Fum15</title>
			<polygon class="fum15
Fum15" points="1250,25 1282,25 1282,10 1312,40 1282,70 1282,55 1250,55" fill="rgb(255,255,255)" fill-opacity="1.0" stroke="rgb(0,0,0)" stroke-width="2"  />
			<g>
				<title>p450 (PF00067)
"Cytochrome P450"</title>
				<polygon class="PF00067" points="1260,28 1295,28 1307,40 1307,40 1295,52 1260,52" stroke-linejoin="round" width="47" height="24" fill="rgb(195,210,54)" stroke="rgb(155,168,43)" stroke-width="1" opacity="0.75" />
			</g>
		</g>
		<g>
			<title>fum16
Fum16</title>
			<polygon class="fum16
Fum16" points="1391,25 1347,25 1347,10 1317,40 1347,70 1347,55 1391,55" fill="rgb(255,255,255)" fill-opacity="1.0" stroke="rgb(0,0,0)" stroke-width="2"  />
			<g>
				<title>AMP-binding (PF00501)
"AMP-binding enzyme"</title>
				<rect class="PF00501" x="1341" y="28" stroke-linejoin="round" width="42" height="24" fill="rgb(189,78,204)" stroke="rgb(151,62,163)" stroke-width="1" opacity="0.75" />
			</g>
		</g>
		<g>
			<title>fum17
Fum17</title>
			<polygon class="fum17
Fum17" points="1407,25 1417,25 1417,10 1447,40 1417,70 1417,55 1407,55" fill="rgb(255,255,255)" fill-opacity="1.0" stroke="rgb(0,0,0)" stroke-width="2"  />
			<g>
				<title>TRAM_LAG1_CLN8 (PF03798)
"TLC domain"</title>
				<polygon class="PF03798" points="1422,28 1431,28 1442,39 1442,41 1431,52 1422,52" stroke-linejoin="round" width="20" height="24" fill="rgb(142,91,199)" stroke="rgb(113,72,159)" stroke-width="1" opacity="0.75" />
			</g>
		</g>
		<g>
			<title>fum18
Fum18</title>
			<polygon class="fum18
Fum18" points="1500,25 1481,25 1481,10 1451,40 1481,70 1481,55 1500,55" fill="rgb(255,255,255)" fill-opacity="1.0" stroke="rgb(0,0,0)" stroke-width="2"  />
			<g>
				<title>TRAM_LAG1_CLN8 (PF03798)
"TLC domain"</title>
				<rect class="PF03798" x="1469" y="28" stroke-linejoin="round" width="21" height="24" fill="rgb(142,91,199)" stroke="rgb(113,72,159)" stroke-width="1" opacity="0.75" />
			</g>
		</g>
		<g>
			<title>fum19
Fum19</title>
			<polygon class="fum19
Fum19" points="1512,25 1641,25 1641,10 1671,40 1641,70 1641,55 1512,55" fill="rgb(255,255,255)" fill-opacity="1.0" stroke="rgb(0,0,0)" stroke-width="2"  />
			<g>
				<title>ABC_membrane (PF00664)
"ABC transporter transmembrane region"</title>
				<rect class="PF00664" x="1540" y="28" stroke-linejoin="round" width="26" height="24" fill="rgb(62,71,183)" stroke="rgb(49,56,146)" stroke-width="1" opacity="0.75" />
			</g>
			<g>
				<title>ABC_tran (PF00005)
"ABC transporter"</title>
				<rect class="PF00005" x="1574" y="28" stroke-linejoin="round" width="13" height="24" fill="rgb(46,186,108)" stroke="rgb(36,148,86)" stroke-width="1" opacity="0.75" />
			</g>
			<g>
				<title>ABC_membrane (PF00664)
"ABC transporter transmembrane region"</title>
				<rect class="PF00664" x="1603" y="28" stroke-linejoin="round" width="29" height="24" fill="rgb(62,71,183)" stroke="rgb(49,56,146)" stroke-width="1" opacity="0.75" />
			</g>
			<g>
				<title>ABC_tran (PF00005)
"ABC transporter"</title>
				<rect class="PF00005" x="1637" y="28" stroke-linejoin="round" width="16" height="24" fill="rgb(46,186,108)" stroke="rgb(36,148,86)" stroke-width="1" opacity="0.75" />
			</g>
		</g>
		<g>
			<title>cpm1
Cpm1</title>
			<polygon class="cpm1
Cpm1" points="1763,25 1728,25 1728,10 1698,40 1728,70 1728,55 1763,55" fill="rgb(255,255,255)" fill-opacity="1.0" stroke="rgb(0,0,0)" stroke-width="2"  />
			<g>
				<title>p450 (PF00067)
"Cytochrome P450"</title>
				<polygon class="PF00067" points="1706,36 1714,28 1751,28 1751,52 1714,52 1706,44" stroke-linejoin="round" width="45" height="24" fill="rgb(195,210,54)" stroke="rgb(155,168,43)" stroke-width="1" opacity="0.75" />
			</g>
		</g>
	</g>
</svg>
