<svg version="1.1" baseProfile="full" xmlns="http://www.w3.org/2000/svg" width="792.5" height="80">
	<g>
		<line x1="10" y1="40.0" x2="782.5" y2="40.0" style="stroke:rgb(70,70,70); stroke-width:3 "/>
		<g>
			<title> (PROQFM164_S05g000554)</title>
			<polygon class=" (PROQFM164_S05g000554)" points="10,25 29,25 29,10 59,40 29,70 29,55 10,55" fill="rgb(255,255,255)" fill-opacity="1.0" stroke="rgb(0,0,0)" stroke-width="2"  />
			<g>
				<title>Abhydrolase_6 (PF12697)
"Alpha/beta hydrolase family"</title>
				<polygon class="PF12697" points="15,28 43,28 46,31 46,49 43,52 15,52" stroke-linejoin="round" width="31" height="24" fill="rgb(87,73,196)" stroke="rgb(69,58,156)" stroke-width="1" opacity="0.75" />
			</g>
		</g>
		<g>
			<title> (PROQFM164_S05g000555)
O-methyltransferase, caffeic acid-type</title>
			<polygon class=" (PROQFM164_S05g000555)
O-methyltransferase, caffeic acid-type" points="94,25 105,25 105,10 135,40 105,70 105,55 94,55" fill="rgb(255,255,255)" fill-opacity="1.0" stroke="rgb(0,0,0)" stroke-width="2"  />
			<g>
				<title>Methyltransf_2 (PF00891)
"O-methyltransferase domain"</title>
				<polygon class="PF00891" points="115,28 119,28 131,40 131,40 119,52 115,52" stroke-linejoin="round" width="16" height="24" fill="rgb(91,124,224)" stroke="rgb(72,99,179)" stroke-width="1" opacity="0.75" />
			</g>
		</g>
		<g>
			<title>IMH3 (PROQFM164_S05g000556)
Probable inosine-5'-monophosphate dehydrogenase</title>
			<polygon class="IMH3 (PROQFM164_S05g000556)
Probable inosine-5'-monophosphate dehydrogenase" points="155,25 181,25 181,10 211,40 181,70 181,55 155,55" fill="rgb(255,255,255)" fill-opacity="1.0" stroke="rgb(0,0,0)" stroke-width="2"  />
			<g>
				<title>IMPDH (PF00478)
"IMP dehydrogenase / GMP reductase domain"</title>
				<polygon class="PF00478" points="158,28 195,28 205,38 205,42 195,52 158,52" stroke-linejoin="round" width="47" height="24" fill="rgb(176,64,180)" stroke="rgb(140,51,144)" stroke-width="1" opacity="0.75" />
			</g>
		</g>
		<g>
			<title> (PROQFM164_S05g000557)
Cytochrome P450</title>
			<polygon class=" (PROQFM164_S05g000557)
Cytochrome P450" points="342,25 249,25 249,10 219,40 249,70 249,55 342,55" fill="rgb(255,255,255)" fill-opacity="1.0" stroke="rgb(0,0,0)" stroke-width="2"  />
			<g>
				<title>Lactamase_B (PF00753)
"Metallo-beta-lactamase superfamily"</title>
				<rect class="PF00753" x="262" y="28" stroke-linejoin="round" width="16" height="24" fill="rgb(70,201,123)" stroke="rgb(56,160,98)" stroke-width="1" opacity="0.75" />
			</g>
			<g>
				<title>p450 (PF00067)
"Cytochrome P450"</title>
				<rect class="PF00067" x="285" y="28" stroke-linejoin="round" width="46" height="24" fill="rgb(195,210,54)" stroke="rgb(155,168,43)" stroke-width="1" opacity="0.75" />
			</g>
		</g>
		<g>
			<title> (PROQFM164_S05g000558)</title>
			<polygon class=" (PROQFM164_S05g000558)" points="360,10 377,40 360,70" fill="rgb(255,255,255)" fill-opacity="1.0" stroke="rgb(0,0,0)" stroke-width="2"  />
		</g>
		<g>
			<title> (PROQFM164_S05g000559)
Beta-ketoacyl synthase</title>
			<polygon class=" (PROQFM164_S05g000559)
Beta-ketoacyl synthase" points="400,25 627,25 627,10 657,40 627,70 627,55 400,55" fill="rgb(255,255,255)" fill-opacity="1.0" stroke="rgb(0,0,0)" stroke-width="2"  />
			<g>
				<title>SAT (PF16073)
"Starter unit:ACP transacylase in aflatoxin biosynthesis"</title>
				<rect class="PF16073" x="401" y="28" stroke-linejoin="round" width="24" height="24" fill="rgb(77,185,114)" stroke="rgb(61,148,91)" stroke-width="1" opacity="0.75" />
			</g>
			<g>
				<title>ketoacyl-synt (PF00109)
"Beta-ketoacyl synthase, N-terminal domain"</title>
				<rect class="PF00109" x="440" y="28" stroke-linejoin="round" width="24" height="24" fill="rgb(74,179,82)" stroke="rgb(59,143,65)" stroke-width="1" opacity="0.75" />
			</g>
			<g>
				<title>Ketoacyl-synt_C (PF02801)
"Beta-ketoacyl synthase, C-terminal domain"</title>
				<rect class="PF02801" x="465" y="28" stroke-linejoin="round" width="11" height="24" fill="rgb(212,79,72)" stroke="rgb(169,63,57)" stroke-width="1" opacity="0.75" />
			</g>
			<g>
				<title>Acyl_transf_1 (PF00698)
"Acyl transferase domain"</title>
				<rect class="PF00698" x="493" y="28" stroke-linejoin="round" width="30" height="24" fill="rgb(132,93,193)" stroke="rgb(105,74,154)" stroke-width="1" opacity="0.75" />
			</g>
			<g>
				<title>PKS_DH_N (PF21089)
"Polyketide synthase dehydratase domain"</title>
				<rect class="PF21089" x="532" y="28" stroke-linejoin="round" width="9" height="24" fill="rgb(67,151,200)" stroke="rgb(53,120,160)" stroke-width="1" opacity="0.75" />
			</g>
			<g>
				<title>PS-DH (PF14765)
"Polyketide synthase dehydratase N-terminal domain"</title>
				<rect class="PF14765" x="545" y="28" stroke-linejoin="round" width="15" height="24" fill="rgb(189,61,178)" stroke="rgb(151,48,142)" stroke-width="1" opacity="0.75" />
			</g>
			<g>
				<title>PP-binding (PF00550)
"Phosphopantetheine attachment site"</title>
				<rect class="PF00550" x="565" y="28" stroke-linejoin="round" width="6" height="24" fill="rgb(181,58,166)" stroke="rgb(144,46,132)" stroke-width="1" opacity="0.75" />
			</g>
			<g>
				<title>HTH_51 (PF18558)
"Helix-turn-helix domain"</title>
				<rect class="PF18558" x="577" y="28" stroke-linejoin="round" width="8" height="24" fill="rgb(57,180,179)" stroke="rgb(45,144,143)" stroke-width="1" opacity="0.75" />
			</g>
			<g>
				<title>Methyltransf_12 (PF08242)
"Methyltransferase domain"</title>
				<rect class="PF08242" x="595" y="28" stroke-linejoin="round" width="10" height="24" fill="rgb(78,210,205)" stroke="rgb(62,168,164)" stroke-width="1" opacity="0.75" />
			</g>
			<g>
				<title>Abhydrolase_3 (PF07859)
"alpha/beta hydrolase fold"</title>
				<rect class="PF07859" x="618" y="28" stroke-linejoin="round" width="14" height="24" fill="rgb(216,68,121)" stroke="rgb(172,54,96)" stroke-width="1" opacity="0.75" />
			</g>
		</g>
		<g>
			<title> (PROQFM164_S05g000560)
Domain of unknown function DUF2236</title>
			<polygon class=" (PROQFM164_S05g000560)
Domain of unknown function DUF2236" points="709,25 708,25 708,10 678,40 708,70 708,55 709,55" fill="rgb(255,255,255)" fill-opacity="1.0" stroke="rgb(0,0,0)" stroke-width="2"  />
			<g>
				<title>MPAB_Lcp_cat (PF09995)
"ER-bound oxygenase mpaB/B'/Rubber oxygenase, catalytic domain"</title>
				<polygon class="PF09995" points="682,40 694,28 701,28 701,52 694,52" stroke-linejoin="round" width="21" height="24" fill="rgb(200,204,53)" stroke="rgb(160,163,42)" stroke-width="1" opacity="0.75" />
			</g>
		</g>
		<g>
			<title> (PROQFM164_S05g000561)
UbiA prenyltransferase family</title>
			<polygon class=" (PROQFM164_S05g000561)
UbiA prenyltransferase family" points="744,25 751,25 751,10 781,40 751,70 751,55 744,55" fill="rgb(255,255,255)" fill-opacity="1.0" stroke="rgb(0,0,0)" stroke-width="2"  />
			<g>
				<title>UbiA (PF01040)
"UbiA prenyltransferase family"</title>
				<polygon class="PF01040" points="747,28 765,28 774,37 774,43 765,52 747,52" stroke-linejoin="round" width="27" height="24" fill="rgb(172,202,98)" stroke="rgb(137,161,78)" stroke-width="1" opacity="0.75" />
			</g>
		</g>
	</g>
</svg>
