<svg version="1.1" baseProfile="full" xmlns="http://www.w3.org/2000/svg" width="302.3666666666667" height="80">
	<g>
		<line x1="10" y1="40.0" x2="292.3666666666667" y2="40.0" style="stroke:rgb(70,70,70); stroke-width:3 "/>
		<g>
			<title> (RZ84_RS20230)
hypothetical protein</title>
			<polygon class=" (RZ84_RS20230)
hypothetical protein" points="10,10 16,40 10,70" fill="rgb(255,255,255)" fill-opacity="1.0" stroke="rgb(0,0,0)" stroke-width="2"  />
		</g>
		<g>
			<title> (RZ84_RS20235)
ABC transporter ATPase</title>
			<polygon class=" (RZ84_RS20235)
ABC transporter ATPase" points="27,25 55,25 55,10 85,40 55,70 55,55 27,55" fill="rgb(255,255,255)" fill-opacity="1.0" stroke="rgb(0,0,0)" stroke-width="2"  />
			<g>
				<title>ABC_membrane (PF00664)
"ABC transporter transmembrane region"</title>
				<rect class="PF00664" x="29" y="28" stroke-linejoin="round" width="26" height="24" fill="rgb(62,71,183)" stroke="rgb(49,56,146)" stroke-width="1" opacity="0.75" />
			</g>
			<g>
				<title>ABC_tran (PF00005)
"ABC transporter"</title>
				<polygon class="PF00005" points="63,28 69,28 77,36 77,44 69,52 63,52" stroke-linejoin="round" width="14" height="24" fill="rgb(46,186,108)" stroke="rgb(36,148,86)" stroke-width="1" opacity="0.75" />
			</g>
		</g>
		<g>
			<title> (RZ84_RS20240)
dehydrogenase</title>
			<polygon class=" (RZ84_RS20240)
dehydrogenase" points="90,25 109,25 109,10 139,40 109,70 109,55 90,55" fill="rgb(255,255,255)" fill-opacity="1.0" stroke="rgb(0,0,0)" stroke-width="2"  />
			<g>
				<title>Amino_oxidase (PF01593)
"Flavin containing amine oxidoreductase"</title>
				<polygon class="PF01593" points="91,28 123,28 135,40 123,52 91,52" stroke-linejoin="round" width="45" height="24" fill="rgb(95,189,207)" stroke="rgb(76,151,165)" stroke-width="1" opacity="0.75" />
			</g>
		</g>
		<g>
			<title> (RZ84_RS20245)
methyltransferase</title>
			<polygon class=" (RZ84_RS20245)
methyltransferase" points="154,10 180,40 154,70" fill="rgb(255,255,255)" fill-opacity="1.0" stroke="rgb(0,0,0)" stroke-width="2"  />
			<g>
				<title>Methyltransf_25 (PF13649)
"Methyltransferase domain"</title>
				<polygon class="PF13649" points="159,28 166,28 168,31 168,49 166,52 159,52" stroke-linejoin="round" width="9" height="24" fill="rgb(224,103,106)" stroke="rgb(179,82,84)" stroke-width="1" opacity="0.75" />
			</g>
		</g>
		<g>
			<title> (RZ84_RS20250)
hypothetical protein</title>
			<polygon class=" (RZ84_RS20250)
hypothetical protein" points="201,10 212,40 201,70" fill="rgb(255,255,255)" fill-opacity="1.0" stroke="rgb(0,0,0)" stroke-width="2"  />
			<g>
				<title>Abhydrolase_1 (PF00561)
"alpha/beta hydrolase fold"</title>
				<polygon class="PF00561" points="201,28 204,28 209,40 204,52 201,52" stroke-linejoin="round" width="10" height="24" fill="rgb(99,159,215)" stroke="rgb(79,127,172)" stroke-width="1" opacity="0.75" />
			</g>
		</g>
		<g>
			<title> (RZ84_RS20255)
hypothetical protein</title>
			<polygon class=" (RZ84_RS20255)
hypothetical protein" points="230,10 237,40 230,70" fill="rgb(255,255,255)" fill-opacity="1.0" stroke="rgb(0,0,0)" stroke-width="2"  />
		</g>
		<g>
			<title> (RZ84_RS20260)
hypothetical protein</title>
			<polygon class=" (RZ84_RS20260)
hypothetical protein" points="235,10 241,40 235,70" fill="rgb(255,255,255)" fill-opacity="1.0" stroke="rgb(0,0,0)" stroke-width="2"  />
		</g>
		<g>
			<title> (RZ84_RS20265)
hypothetical protein</title>
			<polygon class=" (RZ84_RS20265)
hypothetical protein" points="254,10 260,40 254,70" fill="rgb(255,255,255)" fill-opacity="1.0" stroke="rgb(0,0,0)" stroke-width="2"  />
		</g>
		<g>
			<title> (RZ84_RS20270)
hypothetical protein</title>
			<polygon class=" (RZ84_RS20270)
hypothetical protein" points="263,10 291,40 263,70" fill="rgb(255,255,255)" fill-opacity="1.0" stroke="rgb(0,0,0)" stroke-width="2"  />
		</g>
	</g>
</svg>
