<svg version="1.1" baseProfile="full" xmlns="http://www.w3.org/2000/svg" width="931.8" height="80">
	<g>
		<line x1="10" y1="40.0" x2="921.8" y2="40.0" style="stroke:rgb(70,70,70); stroke-width:3 "/>
		<g>
			<title>
Ccr1</title>
			<polygon class="
Ccr1" points="10,25 14,25 14,10 44,40 14,70 14,55 10,55" fill="rgb(255,255,255)" fill-opacity="1.0" stroke="rgb(0,0,0)" stroke-width="2"  />
			<g>
				<title>RrnaAD (PF00398)
"Ribosomal RNA adenine dimethylase"</title>
				<polygon class="PF00398" points="15,28 27,28 39,40 27,52 15,52" stroke-linejoin="round" width="25" height="24" fill="rgb(219,85,173)" stroke="rgb(175,68,138)" stroke-width="1" opacity="0.75" />
			</g>
		</g>
		<g>
			<title>
CcbIH</title>
			<polygon class="
CcbIH" points="109,25 91,25 91,10 61,40 91,70 91,55 109,55" fill="rgb(255,255,255)" fill-opacity="1.0" stroke="rgb(0,0,0)" stroke-width="2"  />
			<g>
				<title>PmbA_TldD_3rd (PF19289)
"PmbA/TldA metallopeptidase C-terminal domain"</title>
				<polygon class="PF19289" points="65,40 77,28 85,28 85,52 77,52" stroke-linejoin="round" width="24" height="24" fill="rgb(192,83,50)" stroke="rgb(153,66,40)" stroke-width="1" opacity="0.75" />
			</g>
			<g>
				<title>PmbA_TldD_2nd (PF19290)
"PmbA/TldA metallopeptidase central domain"</title>
				<rect class="PF19290" x="86" y="28" stroke-linejoin="round" width="11" height="24" fill="rgb(192,59,83)" stroke="rgb(153,47,66)" stroke-width="1" opacity="0.75" />
			</g>
		</g>
		<g>
			<title>
CcbJ</title>
			<polygon class="
CcbJ" points="110,40 135,10 135,70" fill="rgb(255,255,255)" fill-opacity="1.0" stroke="rgb(0,0,0)" stroke-width="2"  />
			<g>
				<title>Methyltransf_25 (PF13649)
"Methyltransferase domain"</title>
				<polygon class="PF13649" points="121,32 124,28 130,28 130,52 124,52 121,48" stroke-linejoin="round" width="9" height="24" fill="rgb(224,103,106)" stroke="rgb(179,82,84)" stroke-width="1" opacity="0.75" />
			</g>
		</g>
		<g>
			<title>
Ccb1</title>
			<polygon class="
Ccb1" points="182,25 169,25 169,10 139,40 169,70 169,55 182,55" fill="rgb(255,255,255)" fill-opacity="1.0" stroke="rgb(0,0,0)" stroke-width="2"  />
			<g>
				<title>WS_DGAT_cat (PF03007)
"Wax ester synthase/diacylglycerol acyltransferase catalytic domain"</title>
				<polygon class="PF03007" points="155,28 155,28 180,28 180,52 155,52 155,52" stroke-linejoin="round" width="25" height="24" fill="rgb(63,186,190)" stroke="rgb(50,148,152)" stroke-width="1" opacity="0.75" />
			</g>
		</g>
		<g>
			<title>
CcbK</title>
			<polygon class="
CcbK" points="184,10 202,40 184,70" fill="rgb(255,255,255)" fill-opacity="1.0" stroke="rgb(0,0,0)" stroke-width="2"  />
			<g>
				<title>Hydrolase (PF00702)
"haloacid dehalogenase-like hydrolase"</title>
				<polygon class="PF00702" points="186,28 191,28 197,37 197,43 191,52 186,52" stroke-linejoin="round" width="11" height="24" fill="rgb(133,222,86)" stroke="rgb(106,177,68)" stroke-width="1" opacity="0.75" />
			</g>
		</g>
		<g>
			<title>
CcbL</title>
			<polygon class="
CcbL" points="246,25 233,25 233,10 203,40 233,70 233,55 246,55" fill="rgb(255,255,255)" fill-opacity="1.0" stroke="rgb(0,0,0)" stroke-width="2"  />
			<g>
				<title>UDPG_MGDP_dh_C (PF03720)
"UDP-glucose/GDP-mannose dehydrogenase family, UDP binding domain"</title>
				<polygon class="PF03720" points="207,40 214,33 214,47" stroke-linejoin="round" width="9" height="24" fill="rgb(78,165,180)" stroke="rgb(62,132,144)" stroke-width="1" opacity="0.75" />
			</g>
			<g>
				<title>UDPG_MGDP_dh (PF00984)
"UDP-glucose/GDP-mannose dehydrogenase family, central domain"</title>
				<polygon class="PF00984" points="216,31 219,28 225,28 225,52 219,52 216,49" stroke-linejoin="round" width="9" height="24" fill="rgb(171,213,56)" stroke="rgb(136,170,44)" stroke-width="1" opacity="0.75" />
			</g>
			<g>
				<title>UDPG_MGDP_dh_N (PF03721)
"UDP-glucose/GDP-mannose dehydrogenase family, NAD binding domain"</title>
				<rect class="PF03721" x="227" y="28" stroke-linejoin="round" width="17" height="24" fill="rgb(63,215,56)" stroke="rgb(50,172,44)" stroke-width="1" opacity="0.75" />
			</g>
		</g>
		<g>
			<title>
CcbM</title>
			<polygon class="
CcbM" points="278,25 276,25 276,10 246,40 276,70 276,55 278,55" fill="rgb(255,255,255)" fill-opacity="1.0" stroke="rgb(0,0,0)" stroke-width="2"  />
			<g>
				<title>Epimerase (PF01370)
"NAD dependent epimerase/dehydratase family"</title>
				<polygon class="PF01370" points="254,36 262,28 278,28 278,52 262,52 254,44" stroke-linejoin="round" width="24" height="24" fill="rgb(215,89,157)" stroke="rgb(172,71,125)" stroke-width="1" opacity="0.75" />
			</g>
		</g>
		<g>
			<title>
CcbN</title>
			<polygon class="
CcbN" points="279,40 299,10 299,70" fill="rgb(255,255,255)" fill-opacity="1.0" stroke="rgb(0,0,0)" stroke-width="2"  />
			<g>
				<title>SIS_2 (PF13580)
"SIS domain"</title>
				<polygon class="PF13580" points="284,39 291,28 298,28 298,52 291,52 284,41" stroke-linejoin="round" width="14" height="24" fill="rgb(64,88,196)" stroke="rgb(51,70,156)" stroke-width="1" opacity="0.75" />
			</g>
		</g>
		<g>
			<title>
CcbZ</title>
			<polygon class="
CcbZ" points="342,25 330,25 330,10 300,40 330,70 330,55 342,55" fill="rgb(255,255,255)" fill-opacity="1.0" stroke="rgb(0,0,0)" stroke-width="2"  />
			<g>
				<title>GFO_IDH_MocA_C (PF02894)
"Oxidoreductase family, C-terminal alpha/beta domain"</title>
				<polygon class="PF02894" points="309,35 316,28 328,28 328,52 316,52 309,45" stroke-linejoin="round" width="19" height="24" fill="rgb(89,185,176)" stroke="rgb(71,148,140)" stroke-width="1" opacity="0.75" />
			</g>
			<g>
				<title>GFO_IDH_MocA (PF01408)
"Oxidoreductase family, NAD-binding Rossmann fold"</title>
				<rect class="PF01408" x="330" y="28" stroke-linejoin="round" width="11" height="24" fill="rgb(53,193,178)" stroke="rgb(42,154,142)" stroke-width="1" opacity="0.75" />
			</g>
		</g>
		<g>
			<title>
CcbF</title>
			<polygon class="
CcbF" points="385,25 374,25 374,10 344,40 374,70 374,55 385,55" fill="rgb(255,255,255)" fill-opacity="1.0" stroke="rgb(0,0,0)" stroke-width="2"  />
			<g>
				<title>Aminotran_1_2 (PF00155)
"Aminotransferase class I and II"</title>
				<polygon class="PF00155" points="348,40 360,28 380,28 380,52 360,52" stroke-linejoin="round" width="35" height="24" fill="rgb(207,146,55)" stroke="rgb(165,116,43)" stroke-width="1" opacity="0.75" />
			</g>
		</g>
		<g>
			<title>
CcbE</title>
			<polygon class="
CcbE" points="389,10 416,40 389,70" fill="rgb(255,255,255)" fill-opacity="1.0" stroke="rgb(0,0,0)" stroke-width="2"  />
			<g>
				<title>PIG-L (PF02585)
"GlcNAc-PI de-N-acetylase"</title>
				<polygon class="PF02585" points="389,28 400,28 403,30 403,50 400,52 389,52" stroke-linejoin="round" width="14" height="24" fill="rgb(208,183,97)" stroke="rgb(166,146,77)" stroke-width="1" opacity="0.75" />
			</g>
		</g>
		<g>
			<title>
CcbD</title>
			<polygon class="
CcbD" points="452,25 447,25 447,10 417,40 447,70 447,55 452,55" fill="rgb(255,255,255)" fill-opacity="1.0" stroke="rgb(0,0,0)" stroke-width="2"  />
		</g>
		<g>
			<title>
CcbC</title>
			<polygon class="
CcbC" points="453,25 473,25 473,10 503,40 473,70 473,55 453,55" fill="rgb(255,255,255)" fill-opacity="1.0" stroke="rgb(0,0,0)" stroke-width="2"  />
			<g>
				<title>AMP-binding (PF00501)
"AMP-binding enzyme"</title>
				<polygon class="PF00501" points="454,28 487,28 488,29 488,51 487,52 454,52" stroke-linejoin="round" width="34" height="24" fill="rgb(189,78,204)" stroke="rgb(151,62,163)" stroke-width="1" opacity="0.75" />
			</g>
			<g>
				<title>AMP-binding_C (PF13193)
"AMP-binding enzyme C-terminal domain"</title>
				<polygon class="PF13193" points="494,35 499,40 494,45" stroke-linejoin="round" width="7" height="24" fill="rgb(195,82,106)" stroke="rgb(156,65,84)" stroke-width="1" opacity="0.75" />
			</g>
		</g>
		<g>
			<title>
CcbP</title>
			<polygon class="
CcbP" points="535,25 533,25 533,10 503,40 533,70 533,55 535,55" fill="rgb(255,255,255)" fill-opacity="1.0" stroke="rgb(0,0,0)" stroke-width="2"  />
			<g>
				<title>GHMP_kinases_C (PF08544)
"GHMP kinases C terminal"</title>
				<polygon class="PF08544" points="507,40 512,35 512,45" stroke-linejoin="round" width="8" height="24" fill="rgb(191,105,222)" stroke="rgb(152,84,177)" stroke-width="1" opacity="0.75" />
			</g>
			<g>
				<title>GHMP_kinases_N (PF00288)
"GHMP kinases N terminal domain"</title>
				<rect class="PF00288" x="520" y="28" stroke-linejoin="round" width="6" height="24" fill="rgb(76,147,218)" stroke="rgb(60,117,174)" stroke-width="1" opacity="0.75" />
			</g>
		</g>
		<g>
			<title>
CcbO</title>
			<polygon class="
CcbO" points="536,40 559,10 559,70" fill="rgb(255,255,255)" fill-opacity="1.0" stroke="rgb(0,0,0)" stroke-width="2"  />
			<g>
				<title>NTP_transf_3 (PF12804)
"MobA-like NTP transferase domain"</title>
				<polygon class="PF12804" points="542,37 549,28 558,28 558,52 549,52 542,43" stroke-linejoin="round" width="16" height="24" fill="rgb(203,166,82)" stroke="rgb(162,132,65)" stroke-width="1" opacity="0.75" />
			</g>
		</g>
		<g>
			<title>
CcbS</title>
			<polygon class="
CcbS" points="597,25 589,25 589,10 559,40 589,70 589,55 597,55" fill="rgb(255,255,255)" fill-opacity="1.0" stroke="rgb(0,0,0)" stroke-width="2"  />
			<g>
				<title>DegT_DnrJ_EryC1 (PF01041)
"DegT/DnrJ/EryC1/StrS aminotransferase family"</title>
				<polygon class="PF01041" points="563,40 575,28 595,28 595,52 575,52" stroke-linejoin="round" width="36" height="24" fill="rgb(228,110,183)" stroke="rgb(182,88,146)" stroke-width="1" opacity="0.75" />
			</g>
		</g>
		<g>
			<title>
CcbR</title>
			<polygon class="
CcbR" points="598,40 620,10 620,70" fill="rgb(255,255,255)" fill-opacity="1.0" stroke="rgb(0,0,0)" stroke-width="2"  />
			<g>
				<title>TAL_FSA (PF00923)
"Transaldolase/Fructose-6-phosphate aldolase"</title>
				<polygon class="PF00923" points="602,40 611,28 619,28 619,52 611,52" stroke-linejoin="round" width="21" height="24" fill="rgb(93,197,162)" stroke="rgb(74,157,129)" stroke-width="1" opacity="0.75" />
			</g>
		</g>
		<g>
			<title>
CcbQ</title>
			<polygon class="
CcbQ" points="660,25 652,25 652,10 622,40 652,70 652,55 660,55" fill="rgb(255,255,255)" fill-opacity="1.0" stroke="rgb(0,0,0)" stroke-width="2"  />
			<g>
				<title>PmbA_TldD_3rd (PF19289)
"PmbA/TldA metallopeptidase C-terminal domain"</title>
				<polygon class="PF19289" points="626,40 638,28 643,28 643,52 638,52" stroke-linejoin="round" width="21" height="24" fill="rgb(192,83,50)" stroke="rgb(153,66,40)" stroke-width="1" opacity="0.75" />
			</g>
		</g>
		<g>
			<title>
CcbT</title>
			<polygon class="
CcbT" points="705,25 692,25 692,10 662,40 692,70 692,55 705,55" fill="rgb(255,255,255)" fill-opacity="1.0" stroke="rgb(0,0,0)" stroke-width="2"  />
			<g>
				<title>Glycos_transf_1 (PF00534)
"Glycosyl transferases group 1"</title>
				<polygon class="PF00534" points="666,40 678,28 680,28 680,52 678,52" stroke-linejoin="round" width="16" height="24" fill="rgb(66,178,218)" stroke="rgb(52,142,174)" stroke-width="1" opacity="0.75" />
			</g>
		</g>
		<g>
			<title>
CcbV</title>
			<polygon class="
CcbV" points="706,40 729,10 729,70" fill="rgb(255,255,255)" fill-opacity="1.0" stroke="rgb(0,0,0)" stroke-width="2"  />
			<g>
				<title>MDMPI_N (PF11716)
"Mycothiol maleylpyruvate isomerase N-terminal domain"</title>
				<polygon class="PF11716" points="714,35 720,28 727,28 727,52 720,52 714,45" stroke-linejoin="round" width="13" height="24" fill="rgb(220,88,208)" stroke="rgb(176,70,166)" stroke-width="1" opacity="0.75" />
			</g>
		</g>
		<g>
			<title>
Ccb2</title>
			<polygon class="
Ccb2" points="745,25 769,25 769,10 799,40 769,70 769,55 745,55" fill="rgb(255,255,255)" fill-opacity="1.0" stroke="rgb(0,0,0)" stroke-width="2"  />
			<g>
				<title>AMP-binding (PF00501)
"AMP-binding enzyme"</title>
				<polygon class="PF00501" points="747,28 783,28 785,30 785,50 783,52 747,52" stroke-linejoin="round" width="38" height="24" fill="rgb(189,78,204)" stroke="rgb(151,62,163)" stroke-width="1" opacity="0.75" />
			</g>
			<g>
				<title>AMP-binding_C (PF13193)
"AMP-binding enzyme C-terminal domain"</title>
				<polygon class="PF13193" points="790,35 795,40 790,45" stroke-linejoin="round" width="7" height="24" fill="rgb(195,82,106)" stroke="rgb(156,65,84)" stroke-width="1" opacity="0.75" />
			</g>
		</g>
		<g>
			<title>
Ccb3</title>
			<polygon class="
Ccb3" points="800,25 815,25 815,10 845,40 815,70 815,55 800,55" fill="rgb(255,255,255)" fill-opacity="1.0" stroke="rgb(0,0,0)" stroke-width="2"  />
			<g>
				<title>Chorismate_bind (PF00425)
"chorismate binding enzyme"</title>
				<polygon class="PF00425" points="818,28 829,28 841,40 829,52 818,52" stroke-linejoin="round" width="25" height="24" fill="rgb(126,181,77)" stroke="rgb(100,144,61)" stroke-width="1" opacity="0.75" />
			</g>
		</g>
		<g>
			<title>
Ccb4</title>
			<polygon class="
Ccb4" points="848,25 855,25 855,10 885,40 855,70 855,55 848,55" fill="rgb(255,255,255)" fill-opacity="1.0" stroke="rgb(0,0,0)" stroke-width="2"  />
			<g>
				<title>Methyltransf_2 (PF00891)
"O-methyltransferase domain"</title>
				<polygon class="PF00891" points="861,28 868,28 880,40 868,52 861,52" stroke-linejoin="round" width="21" height="24" fill="rgb(91,124,224)" stroke="rgb(72,99,179)" stroke-width="1" opacity="0.75" />
			</g>
		</g>
		<g>
			<title>
Ccb5</title>
			<polygon class="
Ccb5" points="886,25 891,25 891,10 921,40 891,70 891,55 886,55" fill="rgb(255,255,255)" fill-opacity="1.0" stroke="rgb(0,0,0)" stroke-width="2"  />
			<g>
				<title>ADH_N (PF08240)
"Alcohol dehydrogenase GroES-like domain"</title>
				<rect class="PF08240" x="888" y="28" stroke-linejoin="round" width="11" height="24" fill="rgb(217,198,105)" stroke="rgb(173,158,84)" stroke-width="1" opacity="0.75" />
			</g>
			<g>
				<title>ADH_zinc_N (PF00107)
"Zinc-binding dehydrogenase"</title>
				<polygon class="PF00107" points="904,28 904,28 916,40 916,40 904,52 904,52" stroke-linejoin="round" width="12" height="24" fill="rgb(79,114,198)" stroke="rgb(63,91,158)" stroke-width="1" opacity="0.75" />
			</g>
		</g>
	</g>
</svg>
