<svg version="1.1" baseProfile="full" xmlns="http://www.w3.org/2000/svg" width="664.7333333333333" height="80">
	<g>
		<line x1="10" y1="40.0" x2="654.7333333333333" y2="40.0" style="stroke:rgb(70,70,70); stroke-width:3 "/>
		<g>
			<title>mmyF
putative oxidoreductase, MmyF</title>
			<polygon class="mmyF
putative oxidoreductase, MmyF" points="10,40 27,10 27,70" fill="rgb(255,255,255)" fill-opacity="1.0" stroke="rgb(0,0,0)" stroke-width="2"  />
			<g>
				<title>Flavin_Reduct (PF01613)
"Flavin reductase like domain"</title>
				<polygon class="PF01613" points="13,40 20,28 24,28 24,52 20,52" stroke-linejoin="round" width="14" height="24" fill="rgb(223,100,227)" stroke="rgb(178,80,181)" stroke-width="1" opacity="0.75" />
			</g>
		</g>
		<g>
			<title>mmyY
hypothetical protein, MmyY</title>
			<polygon class="mmyY
hypothetical protein, MmyY" points="28,40 43,10 43,70" fill="rgb(255,255,255)" fill-opacity="1.0" stroke="rgb(0,0,0)" stroke-width="2"  />
			<g>
				<title>SnoaL_4 (PF13577)
"SnoaL-like domain"</title>
				<polygon class="PF13577" points="31,40 37,28 42,28 42,52 37,52" stroke-linejoin="round" width="12" height="24" fill="rgb(58,198,190)" stroke="rgb(46,158,152)" stroke-width="1" opacity="0.75" />
			</g>
		</g>
		<g>
			<title>mmyB
putative DNA-binding protein, MmyB</title>
			<polygon class="mmyB
putative DNA-binding protein, MmyB" points="51,25 52,25 52,10 82,40 52,70 52,55 51,55" fill="rgb(255,255,255)" fill-opacity="1.0" stroke="rgb(0,0,0)" stroke-width="2"  />
			<g>
				<title>HTH_31 (PF13560)
"Helix-turn-helix domain"</title>
				<rect class="PF13560" x="53" y="28" stroke-linejoin="round" width="7" height="24" fill="rgb(109,58,189)" stroke="rgb(87,46,151)" stroke-width="1" opacity="0.75" />
			</g>
			<g>
				<title>MLTR_LBD (PF17765)
"MmyB-like transcription regulator ligand binding domain"</title>
				<polygon class="PF17765" points="63,28 66,28 78,40 66,52 63,52" stroke-linejoin="round" width="16" height="24" fill="rgb(84,159,179)" stroke="rgb(67,127,143)" stroke-width="1" opacity="0.75" />
			</g>
		</g>
		<g>
			<title>mmyQ
hypothetical protein, MmyQ</title>
			<polygon class="mmyQ
hypothetical protein, MmyQ" points="85,10 106,40 85,70" fill="rgb(255,255,255)" fill-opacity="1.0" stroke="rgb(0,0,0)" stroke-width="2"  />
			<g>
				<title>F420_oxidored (PF03807)
"NADP oxidoreductase coenzyme F420-dependent"</title>
				<rect class="PF03807" x="85" y="28" stroke-linejoin="round" width="9" height="24" fill="rgb(209,134,62)" stroke="rgb(167,107,49)" stroke-width="1" opacity="0.75" />
			</g>
		</g>
		<g>
			<title>mmyE
putative enoyl reductase, MmyE</title>
			<polygon class="mmyE
putative enoyl reductase, MmyE" points="109,25 117,25 117,10 147,40 117,70 117,55 109,55" fill="rgb(255,255,255)" fill-opacity="1.0" stroke="rgb(0,0,0)" stroke-width="2"  />
			<g>
				<title>Oxidored_FMN (PF00724)
"NADH:flavin oxidoreductase / NADH oxidase family"</title>
				<polygon class="PF00724" points="110,28 131,28 143,40 131,52 110,52" stroke-linejoin="round" width="35" height="24" fill="rgb(77,132,194)" stroke="rgb(61,105,155)" stroke-width="1" opacity="0.75" />
			</g>
		</g>
		<g>
			<title>mmyD
hypothetical protein, MmyD</title>
			<polygon class="mmyD
hypothetical protein, MmyD" points="167,25 171,25 171,10 201,40 171,70 171,55 167,55" fill="rgb(255,255,255)" fill-opacity="1.0" stroke="rgb(0,0,0)" stroke-width="2"  />
			<g>
				<title>AvrD (PF05655)
"Pseudomonas avirulence D protein (AvrD)"</title>
				<polygon class="PF05655" points="168,28 184,28 196,40 184,52 168,52" stroke-linejoin="round" width="32" height="24" fill="rgb(94,199,156)" stroke="rgb(75,159,124)" stroke-width="1" opacity="0.75" />
			</g>
		</g>
		<g>
			<title>mmyX
putative ATP/GTP-binding protein, MmyX</title>
			<polygon class="mmyX
putative ATP/GTP-binding protein, MmyX" points="205,10 228,40 205,70" fill="rgb(255,255,255)" fill-opacity="1.0" stroke="rgb(0,0,0)" stroke-width="2"  />
			<g>
				<title>AAA_28 (PF13521)
"AAA domain"</title>
				<polygon class="PF13521" points="205,28 215,28 223,38 223,42 215,52 205,52" stroke-linejoin="round" width="18" height="24" fill="rgb(56,206,130)" stroke="rgb(44,164,104)" stroke-width="1" opacity="0.75" />
			</g>
		</g>
		<g>
			<title>mmyC
putative acyl carrier protein synthase, MmyC</title>
			<polygon class="mmyC
putative acyl carrier protein synthase, MmyC" points="228,25 231,25 231,10 261,40 231,70 231,55 228,55" fill="rgb(255,255,255)" fill-opacity="1.0" stroke="rgb(0,0,0)" stroke-width="2"  />
			<g>
				<title>ACP_syn_III (PF08545)
"3-Oxoacyl-[acyl-carrier-protein (ACP)] synthase III"</title>
				<polygon class="PF08545" points="238,28 245,28 246,29 246,51 245,52 238,52" stroke-linejoin="round" width="8" height="24" fill="rgb(93,213,73)" stroke="rgb(74,170,58)" stroke-width="1" opacity="0.75" />
			</g>
			<g>
				<title>ACP_syn_III_C (PF08541)
"3-Oxoacyl-[acyl-carrier-protein (ACP)] synthase III C terminal"</title>
				<polygon class="PF08541" points="251,34 257,40 251,46" stroke-linejoin="round" width="8" height="24" fill="rgb(223,111,121)" stroke="rgb(178,88,96)" stroke-width="1" opacity="0.75" />
			</g>
		</g>
		<g>
			<title>mmyA
putative acyl carrier protein, MmyA</title>
			<polygon class="mmyA
putative acyl carrier protein, MmyA" points="264,10 272,40 264,70" fill="rgb(255,255,255)" fill-opacity="1.0" stroke="rgb(0,0,0)" stroke-width="2"  />
			<g>
				<title>PP-binding (PF00550)
"Phosphopantetheine attachment site"</title>
				<polygon class="PF00550" points="264,28 265,28 269,40 265,52 264,52" stroke-linejoin="round" width="6" height="24" fill="rgb(181,58,166)" stroke="rgb(144,46,132)" stroke-width="1" opacity="0.75" />
			</g>
		</g>
		<g>
			<title>mmyP
hypothetical protein, MmyP</title>
			<polygon class="mmyP
hypothetical protein, MmyP" points="276,10 299,40 276,70" fill="rgb(255,255,255)" fill-opacity="1.0" stroke="rgb(0,0,0)" stroke-width="2"  />
			<g>
				<title>HAD (PF12710)
"haloacid dehalogenase-like hydrolase"</title>
				<polygon class="PF12710" points="276,28 286,28 294,39 294,41 286,52 276,52" stroke-linejoin="round" width="18" height="24" fill="rgb(138,82,202)" stroke="rgb(110,65,161)" stroke-width="1" opacity="0.75" />
			</g>
		</g>
		<g>
			<title>mmyK
putative ATP/GTP-binding protein, MmyK</title>
			<polygon class="mmyK
putative ATP/GTP-binding protein, MmyK" points="299,10 319,40 299,70" fill="rgb(255,255,255)" fill-opacity="1.0" stroke="rgb(0,0,0)" stroke-width="2"  />
			<g>
				<title>AAA_28 (PF13521)
"AAA domain"</title>
				<polygon class="PF13521" points="299,28 307,28 316,40 307,52 299,52" stroke-linejoin="round" width="18" height="24" fill="rgb(56,206,130)" stroke="rgb(44,164,104)" stroke-width="1" opacity="0.75" />
			</g>
		</g>
		<g>
			<title>mmr
methylenomycin A resistance protein, Mmr</title>
			<polygon class="mmr
methylenomycin A resistance protein, Mmr" points="369,25 352,25 352,10 322,40 352,70 352,55 369,55" fill="rgb(255,255,255)" fill-opacity="1.0" stroke="rgb(0,0,0)" stroke-width="2"  />
			<g>
				<title>MFS_1 (PF07690)
"Major Facilitator Superfamily"</title>
				<polygon class="PF07690" points="327,39 338,28 366,28 366,52 338,52 327,41" stroke-linejoin="round" width="39" height="24" fill="rgb(228,207,98)" stroke="rgb(182,165,78)" stroke-width="1" opacity="0.75" />
			</g>
		</g>
		<g>
			<title>mmyJ
hypothetical protein, MmyJ</title>
			<polygon class="mmyJ
hypothetical protein, MmyJ" points="377,10 388,40 377,70" fill="rgb(255,255,255)" fill-opacity="1.0" stroke="rgb(0,0,0)" stroke-width="2"  />
		</g>
		<g>
			<title>mmyG
putative oxidoreductase, MmyG</title>
			<polygon class="mmyG
putative oxidoreductase, MmyG" points="426,25 417,25 417,10 387,40 417,70 417,55 426,55" fill="rgb(255,255,255)" fill-opacity="1.0" stroke="rgb(0,0,0)" stroke-width="2"  />
			<g>
				<title>GFO_IDH_MocA_C (PF02894)
"Oxidoreductase family, C-terminal alpha/beta domain"</title>
				<polygon class="PF02894" points="391,40 403,28 412,28 412,52 403,52" stroke-linejoin="round" width="23" height="24" fill="rgb(89,185,176)" stroke="rgb(71,148,140)" stroke-width="1" opacity="0.75" />
			</g>
			<g>
				<title>GFO_IDH_MocA (PF01408)
"Oxidoreductase family, NAD-binding Rossmann fold"</title>
				<rect class="PF01408" x="413" y="28" stroke-linejoin="round" width="12" height="24" fill="rgb(53,193,178)" stroke="rgb(42,154,142)" stroke-width="1" opacity="0.75" />
			</g>
		</g>
		<g>
			<title>mmyO
putative monooxygenase, mmyO</title>
			<polygon class="mmyO
putative monooxygenase, mmyO" points="466,25 459,25 459,10 429,40 459,70 459,55 466,55" fill="rgb(255,255,255)" fill-opacity="1.0" stroke="rgb(0,0,0)" stroke-width="2"  />
			<g>
				<title>Bac_luciferase (PF00296)
"Luciferase-like monooxygenase"</title>
				<polygon class="PF00296" points="434,39 445,28 464,28 464,52 445,52 434,41" stroke-linejoin="round" width="30" height="24" fill="rgb(50,200,104)" stroke="rgb(40,160,83)" stroke-width="1" opacity="0.75" />
			</g>
		</g>
		<g>
			<title>mmyT
putative thioesterase, MmyT</title>
			<polygon class="mmyT
putative thioesterase, MmyT" points="467,40 494,10 494,70" fill="rgb(255,255,255)" fill-opacity="1.0" stroke="rgb(0,0,0)" stroke-width="2"  />
			<g>
				<title>Thioesterase (PF00975)
"Thioesterase domain"</title>
				<polygon class="PF00975" points="471,40 482,28 493,28 493,52 482,52" stroke-linejoin="round" width="24" height="24" fill="rgb(69,76,223)" stroke="rgb(55,60,178)" stroke-width="1" opacity="0.75" />
			</g>
		</g>
		<g>
			<title>mmfR
putative 2-Alkyl-4-hydroxymethylfuran-3-carboxylic acid-dependent transcriptional regulator (TetR-family), MmfR</title>
			<polygon class="mmfR
putative 2-Alkyl-4-hydroxymethylfuran-3-carboxylic acid-dependent transcriptional regulator (TetR-family), MmfR" points="499,40 520,10 520,70" fill="rgb(255,255,255)" fill-opacity="1.0" stroke="rgb(0,0,0)" stroke-width="2"  />
			<g>
				<title>TetR_N (PF00440)
"Bacterial regulatory proteins, tetR family"</title>
				<polygon class="PF00440" points="512,27 512,28 516,28 516,52 512,52 512,53" stroke-linejoin="round" width="4" height="24" fill="rgb(148,50,185)" stroke="rgb(118,40,148)" stroke-width="1" opacity="0.75" />
			</g>
		</g>
		<g>
			<title>mmfL
2-Alkyl-4-hydroxymethylfuran-3-carboxylic acid biosynthesis protein, MmfL</title>
			<polygon class="mmfL
2-Alkyl-4-hydroxymethylfuran-3-carboxylic acid biosynthesis protein, MmfL" points="527,25 532,25 532,10 562,40 532,70 532,55 527,55" fill="rgb(255,255,255)" fill-opacity="1.0" stroke="rgb(0,0,0)" stroke-width="2"  />
			<g>
				<title>AfsA (PF03756)
"A-factor biosynthesis hotdog domain"</title>
				<rect class="PF03756" x="530" y="28" stroke-linejoin="round" width="13" height="24" fill="rgb(125,65,225)" stroke="rgb(100,52,180)" stroke-width="1" opacity="0.75" />
			</g>
			<g>
				<title>AfsA (PF03756)
"A-factor biosynthesis hotdog domain"</title>
				<polygon class="PF03756" points="547,29 558,40 547,51" stroke-linejoin="round" width="12" height="24" fill="rgb(125,65,225)" stroke="rgb(100,52,180)" stroke-width="1" opacity="0.75" />
			</g>
		</g>
		<g>
			<title>mmfH
putative oxidoreductase involved in 2-Alkyl-4-hydroxymethylfuran-3-carboxylic acid biosynthesis, MmfH</title>
			<polygon class="mmfH
putative oxidoreductase involved in 2-Alkyl-4-hydroxymethylfuran-3-carboxylic acid biosynthesis, MmfH" points="562,25 572,25 572,10 602,40 572,70 572,55 562,55" fill="rgb(255,255,255)" fill-opacity="1.0" stroke="rgb(0,0,0)" stroke-width="2"  />
			<g>
				<title>Acyl-CoA_dh_2 (PF08028)
"Acyl-CoA dehydrogenase, C-terminal domain"</title>
				<polygon class="PF08028" points="585,28 585,28 597,40 597,40 585,52 585,52" stroke-linejoin="round" width="12" height="24" fill="rgb(61,169,203)" stroke="rgb(48,135,162)" stroke-width="1" opacity="0.75" />
			</g>
		</g>
		<g>
			<title>mmfP
putative phosphatase involved in 2-Alkyl-4-hydroxymethylfuran-3-carboxylic acid biosynthesis, MmfP</title>
			<polygon class="mmfP
putative phosphatase involved in 2-Alkyl-4-hydroxymethylfuran-3-carboxylic acid biosynthesis, MmfP" points="602,10 628,40 602,70" fill="rgb(255,255,255)" fill-opacity="1.0" stroke="rgb(0,0,0)" stroke-width="2"  />
			<g>
				<title>HAD (PF12710)
"haloacid dehalogenase-like hydrolase"</title>
				<polygon class="PF12710" points="604,28 613,28 623,39 623,41 613,52 604,52" stroke-linejoin="round" width="19" height="24" fill="rgb(138,82,202)" stroke="rgb(110,65,161)" stroke-width="1" opacity="0.75" />
			</g>
		</g>
		<g>
			<title>mmyR
putative 2-Alkyl-4-hydroxymethylfuran-3-carboxylic acid-dependent transcriptional regulator (TetR-family), MmyR</title>
			<polygon class="mmyR
putative 2-Alkyl-4-hydroxymethylfuran-3-carboxylic acid-dependent transcriptional regulator (TetR-family), MmyR" points="634,10 654,40 634,70" fill="rgb(255,255,255)" fill-opacity="1.0" stroke="rgb(0,0,0)" stroke-width="2"  />
			<g>
				<title>TetR_N (PF00440)
"Bacterial regulatory proteins, tetR family"</title>
				<rect class="PF00440" x="635" y="28" stroke-linejoin="round" width="4" height="24" fill="rgb(148,50,185)" stroke="rgb(118,40,148)" stroke-width="1" opacity="0.75" />
			</g>
		</g>
	</g>
</svg>
