<svg version="1.1" baseProfile="full" xmlns="http://www.w3.org/2000/svg" width="258.06666666666666" height="80">
	<g>
		<line x1="10" y1="40.0" x2="248.06666666666666" y2="40.0" style="stroke:rgb(70,70,70); stroke-width:3 "/>
		<g>
			<title>tfxA
trifolitoxin</title>
			<polygon class="tfxA
trifolitoxin" points="29,10 33,40 29,70" fill="rgb(255,255,255)" fill-opacity="1.0" stroke="rgb(0,0,0)" stroke-width="2"  />
		</g>
		<g>
			<title>tfxB</title>
			<polygon class="tfxB" points="36,25 43,25 43,10 73,40 43,70 43,55 36,55" fill="rgb(255,255,255)" fill-opacity="1.0" stroke="rgb(0,0,0)" stroke-width="2"  />
			<g>
				<title>Nitroreductase (PF00881)
"Nitroreductase family"</title>
				<polygon class="PF00881" points="54,28 57,28 69,40 57,52 54,52" stroke-linejoin="round" width="17" height="24" fill="rgb(106,62,184)" stroke="rgb(84,49,147)" stroke-width="1" opacity="0.75" />
			</g>
		</g>
		<g>
			<title>tfxC</title>
			<polygon class="tfxC" points="73,25 78,25 78,10 108,40 78,70 78,55 73,55" fill="rgb(255,255,255)" fill-opacity="1.0" stroke="rgb(0,0,0)" stroke-width="2"  />
		</g>
		<g>
			<title>tfxD</title>
			<polygon class="tfxD" points="109,25 120,25 120,10 150,40 120,70 120,55 109,55" fill="rgb(255,255,255)" fill-opacity="1.0" stroke="rgb(0,0,0)" stroke-width="2"  />
		</g>
		<g>
			<title>tfxE</title>
			<polygon class="tfxE" points="150,10 175,40 150,70" fill="rgb(255,255,255)" fill-opacity="1.0" stroke="rgb(0,0,0)" stroke-width="2"  />
			<g>
				<title>YcaO (PF02624)
"YcaO cyclodehydratase, ATP-ad Mg2+-binding"</title>
				<polygon class="PF02624" points="155,28 161,28 171,40 161,52 155,52" stroke-linejoin="round" width="19" height="24" fill="rgb(69,185,74)" stroke="rgb(55,148,59)" stroke-width="1" opacity="0.75" />
			</g>
		</g>
		<g>
			<title>tfxF</title>
			<polygon class="tfxF" points="175,10 200,40 175,70" fill="rgb(255,255,255)" fill-opacity="1.0" stroke="rgb(0,0,0)" stroke-width="2"  />
		</g>
		<g>
			<title>tfxG</title>
			<polygon class="tfxG" points="209,10 235,40 209,70" fill="rgb(255,255,255)" fill-opacity="1.0" stroke="rgb(0,0,0)" stroke-width="2"  />
		</g>
	</g>
</svg>
