<svg version="1.1" baseProfile="full" xmlns="http://www.w3.org/2000/svg" width="2442.5333333333333" height="80">
	<g>
		<line x1="10" y1="40.0" x2="2432.5333333333333" y2="40.0" style="stroke:rgb(70,70,70); stroke-width:3 "/>
		<g>
			<title> (WQO_33745)
hypothetical protein</title>
			<polygon class=" (WQO_33745)
hypothetical protein" points="10,25 24,25 24,10 54,40 24,70 24,55 10,55" fill="rgb(255,255,255)" fill-opacity="1.0" stroke="rgb(0,0,0)" stroke-width="2"  />
			<g>
				<title>SBP_bac_8 (PF13416)
"Bacterial extracellular solute-binding protein"</title>
				<polygon class="PF13416" points="12,28 37,28 45,36 45,44 37,52 12,52" stroke-linejoin="round" width="33" height="24" fill="rgb(78,192,95)" stroke="rgb(62,153,75)" stroke-width="1" opacity="0.75" />
			</g>
		</g>
		<g>
			<title> (WQO_33750)
daunorubicin resistance protein DrrC</title>
			<polygon class=" (WQO_33750)
daunorubicin resistance protein DrrC" points="134,25 87,25 87,10 57,40 87,70 87,55 134,55" fill="rgb(255,255,255)" fill-opacity="1.0" stroke="rgb(0,0,0)" stroke-width="2"  />
			<g>
				<title>ABC_tran (PF00005)
"ABC transporter"</title>
				<polygon class="PF00005" points="65,36 73,28 85,28 85,52 73,52 65,44" stroke-linejoin="round" width="20" height="24" fill="rgb(46,186,108)" stroke="rgb(36,148,86)" stroke-width="1" opacity="0.75" />
			</g>
		</g>
		<g>
			<title> (WQO_33755)
sodium:proton exchanger</title>
			<polygon class=" (WQO_33755)
sodium:proton exchanger" points="183,25 167,25 167,10 137,40 167,70 167,55 183,55" fill="rgb(255,255,255)" fill-opacity="1.0" stroke="rgb(0,0,0)" stroke-width="2"  />
			<g>
				<title>Na_H_Exchanger (PF00999)
"Sodium/hydrogen exchanger family"</title>
				<polygon class="PF00999" points="141,40 153,28 180,28 180,52 153,52 141,40" stroke-linejoin="round" width="39" height="24" fill="rgb(95,122,202)" stroke="rgb(76,97,161)" stroke-width="1" opacity="0.75" />
			</g>
		</g>
		<g>
			<title> (WQO_33760)
tryptophan halogenase</title>
			<polygon class=" (WQO_33760)
tryptophan halogenase" points="232,25 213,25 213,10 183,40 213,70 213,55 232,55" fill="rgb(255,255,255)" fill-opacity="1.0" stroke="rgb(0,0,0)" stroke-width="2"  />
			<g>
				<title>Trp_halogenase (PF04820)
"Tryptophan halogenase"</title>
				<polygon class="PF04820" points="189,38 199,28 222,28 222,52 199,52 189,42" stroke-linejoin="round" width="33" height="24" fill="rgb(175,201,66)" stroke="rgb(139,160,52)" stroke-width="1" opacity="0.75" />
			</g>
			<g>
				<title>Trp_halogenase (PF04820)
"Tryptophan halogenase"</title>
				<rect class="PF04820" x="222" y="28" stroke-linejoin="round" width="9" height="24" fill="rgb(175,201,66)" stroke="rgb(139,160,52)" stroke-width="1" opacity="0.75" />
			</g>
		</g>
		<g>
			<title> (WQO_33765)
glucose-1-phosphate thymidylyltransferase</title>
			<polygon class=" (WQO_33765)
glucose-1-phosphate thymidylyltransferase" points="238,25 243,25 243,10 273,40 243,70 243,55 238,55" fill="rgb(255,255,255)" fill-opacity="1.0" stroke="rgb(0,0,0)" stroke-width="2"  />
			<g>
				<title>NTP_transferase (PF00483)
"Nucleotidyl transferase"</title>
				<polygon class="PF00483" points="238,28 257,28 261,32 261,48 257,52 238,52" stroke-linejoin="round" width="23" height="24" fill="rgb(211,145,90)" stroke="rgb(168,116,72)" stroke-width="1" opacity="0.75" />
			</g>
		</g>
		<g>
			<title> (WQO_33770)
hypothetical protein</title>
			<polygon class=" (WQO_33770)
hypothetical protein" points="278,40 290,10 290,70" fill="rgb(255,255,255)" fill-opacity="1.0" stroke="rgb(0,0,0)" stroke-width="2"  />
			<g>
				<title>Neocarzinostat (PF00960)
"Neocarzinostatin family"</title>
				<polygon class="PF00960" points="281,40 286,28 288,28 288,52 286,52" stroke-linejoin="round" width="10" height="24" fill="rgb(78,205,62)" stroke="rgb(62,164,49)" stroke-width="1" opacity="0.75" />
			</g>
		</g>
		<g>
			<title> (WQO_33775)
dTDP-4-dehydro-6-deoxyglucose aminotransferase</title>
			<polygon class=" (WQO_33775)
dTDP-4-dehydro-6-deoxyglucose aminotransferase" points="335,25 324,25 324,10 294,40 324,70 324,55 335,55" fill="rgb(255,255,255)" fill-opacity="1.0" stroke="rgb(0,0,0)" stroke-width="2"  />
			<g>
				<title>DegT_DnrJ_EryC1 (PF01041)
"DegT/DnrJ/EryC1/StrS aminotransferase family"</title>
				<polygon class="PF01041" points="298,40 310,28 331,28 331,52 310,52" stroke-linejoin="round" width="35" height="24" fill="rgb(228,110,183)" stroke="rgb(182,88,146)" stroke-width="1" opacity="0.75" />
			</g>
		</g>
		<g>
			<title> (WQO_33780)
SAM-dependent methyltransferase</title>
			<polygon class=" (WQO_33780)
SAM-dependent methyltransferase" points="335,40 359,10 359,70" fill="rgb(255,255,255)" fill-opacity="1.0" stroke="rgb(0,0,0)" stroke-width="2"  />
			<g>
				<title>Methyltransf_25 (PF13649)
"Methyltransferase domain"</title>
				<polygon class="PF13649" points="346,31 349,28 355,28 355,52 349,52 346,49" stroke-linejoin="round" width="9" height="24" fill="rgb(224,103,106)" stroke="rgb(179,82,84)" stroke-width="1" opacity="0.75" />
			</g>
		</g>
		<g>
			<title> (WQO_33785)
SAM-dependent methyltransferase</title>
			<polygon class=" (WQO_33785)
SAM-dependent methyltransferase" points="402,25 390,25 390,10 360,40 390,70 390,55 402,55" fill="rgb(255,255,255)" fill-opacity="1.0" stroke="rgb(0,0,0)" stroke-width="2"  />
			<g>
				<title>Methyltransf_14 (PF08484)
"C-methyltransferase C-terminal domain"</title>
				<polygon class="PF08484" points="364,40 376,28 376,28 376,52 376,52" stroke-linejoin="round" width="15" height="24" fill="rgb(131,189,66)" stroke="rgb(104,151,52)" stroke-width="1" opacity="0.75" />
			</g>
			<g>
				<title>Methyltransf_23 (PF13489)
"Methyltransferase domain"</title>
				<rect class="PF13489" x="377" y="28" stroke-linejoin="round" width="16" height="24" fill="rgb(62,214,70)" stroke="rgb(49,171,56)" stroke-width="1" opacity="0.75" />
			</g>
			<g>
				<title>Methyltransf_13 (PF08421)
"Putative zinc binding domain"</title>
				<rect class="PF08421" x="395" y="28" stroke-linejoin="round" width="6" height="24" fill="rgb(65,65,206)" stroke="rgb(52,52,164)" stroke-width="1" opacity="0.75" />
			</g>
		</g>
		<g>
			<title> (WQO_33790)
epoxide hydrolase</title>
			<polygon class=" (WQO_33790)
epoxide hydrolase" points="444,25 436,25 436,10 406,40 436,70 436,55 444,55" fill="rgb(255,255,255)" fill-opacity="1.0" stroke="rgb(0,0,0)" stroke-width="2"  />
			<g>
				<title>EHN (PF06441)
"Epoxide hydrolase N terminus"</title>
				<rect class="PF06441" x="434" y="28" stroke-linejoin="round" width="10" height="24" fill="rgb(213,148,83)" stroke="rgb(170,118,66)" stroke-width="1" opacity="0.75" />
			</g>
		</g>
		<g>
			<title> (WQO_33795)
anthranilate synthase subunit II</title>
			<polygon class=" (WQO_33795)
anthranilate synthase subunit II" points="447,40 465,10 465,70" fill="rgb(255,255,255)" fill-opacity="1.0" stroke="rgb(0,0,0)" stroke-width="2"  />
			<g>
				<title>GATase (PF00117)
"Glutamine amidotransferase class-I"</title>
				<polygon class="PF00117" points="451,40 458,28 464,28 464,52 458,52" stroke-linejoin="round" width="16" height="24" fill="rgb(54,118,198)" stroke="rgb(43,94,158)" stroke-width="1" opacity="0.75" />
			</g>
		</g>
		<g>
			<title> (WQO_33800)
aminodeoxychorismate synthase component I</title>
			<polygon class=" (WQO_33800)
aminodeoxychorismate synthase component I" points="518,25 499,25 499,10 469,40 499,70 499,55 518,55" fill="rgb(255,255,255)" fill-opacity="1.0" stroke="rgb(0,0,0)" stroke-width="2"  />
			<g>
				<title>Chorismate_bind (PF00425)
"chorismate binding enzyme"</title>
				<polygon class="PF00425" points="473,40 485,28 495,28 495,52 485,52" stroke-linejoin="round" width="25" height="24" fill="rgb(126,181,77)" stroke="rgb(100,144,61)" stroke-width="1" opacity="0.75" />
			</g>
			<g>
				<title>Anth_synt_I_N (PF04715)
"Anthranilate synthase component I, N terminal region"</title>
				<rect class="PF04715" x="500" y="28" stroke-linejoin="round" width="15" height="24" fill="rgb(224,152,88)" stroke="rgb(179,121,70)" stroke-width="1" opacity="0.75" />
			</g>
		</g>
		<g>
			<title> (WQO_33805)
CoF synthetase</title>
			<polygon class=" (WQO_33805)
CoF synthetase" points="566,25 549,25 549,10 519,40 549,70 549,55 566,55" fill="rgb(255,255,255)" fill-opacity="1.0" stroke="rgb(0,0,0)" stroke-width="2"  />
		</g>
		<g>
			<title> (WQO_33810)
NADPH-dependent FMN reductase</title>
			<polygon class=" (WQO_33810)
NADPH-dependent FMN reductase" points="567,40 589,10 589,70" fill="rgb(255,255,255)" fill-opacity="1.0" stroke="rgb(0,0,0)" stroke-width="2"  />
			<g>
				<title>FMN_red (PF03358)
"NADPH-dependent FMN reductase"</title>
				<polygon class="PF03358" points="573,37 580,28 588,28 588,52 580,52 573,43" stroke-linejoin="round" width="15" height="24" fill="rgb(161,216,66)" stroke="rgb(128,172,52)" stroke-width="1" opacity="0.75" />
			</g>
		</g>
		<g>
			<title> (WQO_33815)
hypothetical protein</title>
			<polygon class=" (WQO_33815)
hypothetical protein" points="631,25 620,25 620,10 590,40 620,70 620,55 631,55" fill="rgb(255,255,255)" fill-opacity="1.0" stroke="rgb(0,0,0)" stroke-width="2"  />
			<g>
				<title>Acyl_transf_3 (PF01757)
"Acyltransferase family"</title>
				<polygon class="PF01757" points="594,40 606,28 630,28 630,52 606,52 594,40" stroke-linejoin="round" width="36" height="24" fill="rgb(131,179,78)" stroke="rgb(104,143,62)" stroke-width="1" opacity="0.75" />
			</g>
		</g>
		<g>
			<title> (WQO_33820)
dTDP-4-dehydrorhamnose 3,5-epimerase</title>
			<polygon class=" (WQO_33820)
dTDP-4-dehydrorhamnose 3,5-epimerase" points="637,40 656,10 656,70" fill="rgb(255,255,255)" fill-opacity="1.0" stroke="rgb(0,0,0)" stroke-width="2"  />
			<g>
				<title>dTDP_sugar_isom (PF00908)
"dTDP-4-dehydrorhamnose 3,5-epimerase"</title>
				<polygon class="PF00908" points="641,40 649,28 655,28 655,52 649,52" stroke-linejoin="round" width="17" height="24" fill="rgb(135,62,227)" stroke="rgb(108,49,181)" stroke-width="1" opacity="0.75" />
			</g>
		</g>
		<g>
			<title> (WQO_33825)
FAD-binding monooxygenase</title>
			<polygon class=" (WQO_33825)
FAD-binding monooxygenase" points="665,25 680,25 680,10 710,40 680,70 680,55 665,55" fill="rgb(255,255,255)" fill-opacity="1.0" stroke="rgb(0,0,0)" stroke-width="2"  />
			<g>
				<title>NAD_binding_8 (PF13450)
"NAD(P)-binding Rossmann-like domain"</title>
				<rect class="PF13450" x="666" y="28" stroke-linejoin="round" width="6" height="24" fill="rgb(218,105,93)" stroke="rgb(174,84,74)" stroke-width="1" opacity="0.75" />
			</g>
		</g>
		<g>
			<title> (WQO_33830)
hypothetical protein</title>
			<polygon class=" (WQO_33830)
hypothetical protein" points="712,25 728,25 728,10 758,40 728,70 728,55 712,55" fill="rgb(255,255,255)" fill-opacity="1.0" stroke="rgb(0,0,0)" stroke-width="2"  />
			<g>
				<title>EryCIII-like_N (PF21036)
"Erythromycin biosynthesis protein CIII-like, N-terminal domain"</title>
				<rect class="PF21036" x="714" y="28" stroke-linejoin="round" width="24" height="24" fill="rgb(205,88,112)" stroke="rgb(164,70,89)" stroke-width="1" opacity="0.75" />
			</g>
			<g>
				<title>EryCIII-like_C (PF06722)
"Erythromycin biosynthesis protein CIII-like, C-terminal domain"</title>
				<polygon class="PF06722" points="740,28 741,28 748,35 748,45 741,52 740,52" stroke-linejoin="round" width="8" height="24" fill="rgb(48,103,191)" stroke="rgb(38,82,152)" stroke-width="1" opacity="0.75" />
			</g>
			<g>
				<title>EryCIII-like_C (PF06722)
"Erythromycin biosynthesis protein CIII-like, C-terminal domain"</title>
				<polygon class="PF06722" points="749,36 753,40 749,44" stroke-linejoin="round" width="7" height="24" fill="rgb(48,103,191)" stroke="rgb(38,82,152)" stroke-width="1" opacity="0.75" />
			</g>
		</g>
		<g>
			<title> (WQO_33835)
dTDP-glucose 4,6-dehydratase</title>
			<polygon class=" (WQO_33835)
dTDP-glucose 4,6-dehydratase" points="757,25 760,25 760,10 790,40 760,70 760,55 757,55" fill="rgb(255,255,255)" fill-opacity="1.0" stroke="rgb(0,0,0)" stroke-width="2"  />
			<g>
				<title>GDP_Man_Dehyd (PF16363)
"GDP-mannose 4,6 dehydratase"</title>
				<polygon class="PF16363" points="757,28 774,28 786,40 774,52 757,52" stroke-linejoin="round" width="30" height="24" fill="rgb(50,144,195)" stroke="rgb(40,115,156)" stroke-width="1" opacity="0.75" />
			</g>
		</g>
		<g>
			<title> (WQO_33840)
MFS transporter</title>
			<polygon class=" (WQO_33840)
MFS transporter" points="792,25 814,25 814,10 844,40 814,70 814,55 792,55" fill="rgb(255,255,255)" fill-opacity="1.0" stroke="rgb(0,0,0)" stroke-width="2"  />
			<g>
				<title>MFS_1 (PF07690)
"Major Facilitator Superfamily"</title>
				<polygon class="PF07690" points="794,28 827,28 833,34 833,46 827,52 794,52" stroke-linejoin="round" width="39" height="24" fill="rgb(228,207,98)" stroke="rgb(182,165,78)" stroke-width="1" opacity="0.75" />
			</g>
		</g>
		<g>
			<title> (WQO_33845)
phenylacetate--CoA ligase</title>
			<polygon class=" (WQO_33845)
phenylacetate--CoA ligase" points="847,25 860,25 860,10 890,40 860,70 860,55 847,55" fill="rgb(255,255,255)" fill-opacity="1.0" stroke="rgb(0,0,0)" stroke-width="2"  />
			<g>
				<title>AMP-binding (PF00501)
"AMP-binding enzyme"</title>
				<polygon class="PF00501" points="855,28 874,28 875,29 875,51 874,52 855,52" stroke-linejoin="round" width="20" height="24" fill="rgb(189,78,204)" stroke="rgb(151,62,163)" stroke-width="1" opacity="0.75" />
			</g>
			<g>
				<title>AMP-binding_C_2 (PF14535)
"AMP-binding enzyme C-terminal domain"</title>
				<polygon class="PF14535" points="880,34 886,40 880,46" stroke-linejoin="round" width="9" height="24" fill="rgb(93,52,205)" stroke="rgb(74,41,164)" stroke-width="1" opacity="0.75" />
			</g>
		</g>
		<g>
			<title> (WQO_33850)
hypothetical protein</title>
			<polygon class=" (WQO_33850)
hypothetical protein" points="890,10 897,40 890,70" fill="rgb(255,255,255)" fill-opacity="1.0" stroke="rgb(0,0,0)" stroke-width="2"  />
		</g>
		<g>
			<title> (WQO_33855)
Pyoverdin chromophore biosynthetic protein pvcC</title>
			<polygon class=" (WQO_33855)
Pyoverdin chromophore biosynthetic protein pvcC" points="900,25 920,25 920,10 950,40 920,70 920,55 900,55" fill="rgb(255,255,255)" fill-opacity="1.0" stroke="rgb(0,0,0)" stroke-width="2"  />
			<g>
				<title>HpaB_N (PF11794)
"4-hydroxyphenylacetate 3-hydroxylase N terminal"</title>
				<rect class="PF11794" x="900" y="28" stroke-linejoin="round" width="26" height="24" fill="rgb(88,90,188)" stroke="rgb(70,71,150)" stroke-width="1" opacity="0.75" />
			</g>
			<g>
				<title>HpaB (PF03241)
"4-hydroxyphenylacetate 3-hydroxylase C terminal"</title>
				<polygon class="PF03241" points="927,28 934,28 946,40 934,52 927,52" stroke-linejoin="round" width="20" height="24" fill="rgb(127,206,101)" stroke="rgb(101,164,80)" stroke-width="1" opacity="0.75" />
			</g>
		</g>
		<g>
			<title> (WQO_33860)
hydrolase</title>
			<polygon class=" (WQO_33860)
hydrolase" points="953,40 980,10 980,70" fill="rgb(255,255,255)" fill-opacity="1.0" stroke="rgb(0,0,0)" stroke-width="2"  />
			<g>
				<title>Abhydrolase_6 (PF12697)
"Alpha/beta hydrolase family"</title>
				<polygon class="PF12697" points="957,40 968,28 976,28 976,52 968,52" stroke-linejoin="round" width="23" height="24" fill="rgb(87,73,196)" stroke="rgb(69,58,156)" stroke-width="1" opacity="0.75" />
			</g>
		</g>
		<g>
			<title> (WQO_33865)
DUF4440 domain-containing protein</title>
			<polygon class=" (WQO_33865)
DUF4440 domain-containing protein" points="989,40 1003,10 1003,70" fill="rgb(255,255,255)" fill-opacity="1.0" stroke="rgb(0,0,0)" stroke-width="2"  />
			<g>
				<title>DUF4440 (PF14534)
"Domain of unknown function (DUF4440)"</title>
				<polygon class="PF14534" points="992,40 998,28 1001,28 1001,52 998,52" stroke-linejoin="round" width="11" height="24" fill="rgb(114,76,182)" stroke="rgb(91,60,145)" stroke-width="1" opacity="0.75" />
			</g>
		</g>
		<g>
			<title> (WQO_33870)
cinnamoyl-CoA reductase</title>
			<polygon class=" (WQO_33870)
cinnamoyl-CoA reductase" points="1012,25 1024,25 1024,10 1054,40 1024,70 1024,55 1012,55" fill="rgb(255,255,255)" fill-opacity="1.0" stroke="rgb(0,0,0)" stroke-width="2"  />
			<g>
				<title>MFS_1 (PF07690)
"Major Facilitator Superfamily"</title>
				<rect class="PF07690" x="1012" y="28" stroke-linejoin="round" width="25" height="24" fill="rgb(228,207,98)" stroke="rgb(182,165,78)" stroke-width="1" opacity="0.75" />
			</g>
		</g>
		<g>
			<title> (WQO_33875)
hypothetical protein</title>
			<polygon class=" (WQO_33875)
hypothetical protein" points="1057,25 1073,25 1073,10 1103,40 1073,70 1073,55 1057,55" fill="rgb(255,255,255)" fill-opacity="1.0" stroke="rgb(0,0,0)" stroke-width="2"  />
			<g>
				<title>Condensation (PF00668)
"Condensation domain"</title>
				<polygon class="PF00668" points="1060,28 1086,28 1098,40 1086,52 1060,52" stroke-linejoin="round" width="42" height="24" fill="rgb(172,217,60)" stroke="rgb(137,173,47)" stroke-width="1" opacity="0.75" />
			</g>
		</g>
		<g>
			<title> (WQO_33880)
phosphopantetheine-binding protein</title>
			<polygon class=" (WQO_33880)
phosphopantetheine-binding protein" points="1104,10 1113,40 1104,70" fill="rgb(255,255,255)" fill-opacity="1.0" stroke="rgb(0,0,0)" stroke-width="2"  />
			<g>
				<title>PP-binding (PF00550)
"Phosphopantetheine attachment site"</title>
				<polygon class="PF00550" points="1105,28 1106,28 1110,40 1106,52 1105,52" stroke-linejoin="round" width="6" height="24" fill="rgb(181,58,166)" stroke="rgb(144,46,132)" stroke-width="1" opacity="0.75" />
			</g>
		</g>
		<g>
			<title> (WQO_33885)
tyrosine 2,3-aminomutase</title>
			<polygon class=" (WQO_33885)
tyrosine 2,3-aminomutase" points="1170,25 1147,25 1147,10 1117,40 1147,70 1147,55 1170,55" fill="rgb(255,255,255)" fill-opacity="1.0" stroke="rgb(0,0,0)" stroke-width="2"  />
			<g>
				<title>Lyase_aromatic (PF00221)
"Aromatic amino acid lyase"</title>
				<polygon class="PF00221" points="1121,40 1133,28 1168,28 1168,52 1133,52 1121,40" stroke-linejoin="round" width="47" height="24" fill="rgb(198,213,89)" stroke="rgb(158,170,71)" stroke-width="1" opacity="0.75" />
			</g>
		</g>
		<g>
			<title> (WQO_33890)
hypothetical protein</title>
			<polygon class=" (WQO_33890)
hypothetical protein" points="1260,25 1203,25 1203,10 1173,40 1203,70 1203,55 1260,55" fill="rgb(255,255,255)" fill-opacity="1.0" stroke="rgb(0,0,0)" stroke-width="2"  />
			<g>
				<title>AMP-binding_C (PF13193)
"AMP-binding enzyme C-terminal domain"</title>
				<polygon class="PF13193" points="1177,40 1181,36 1181,44" stroke-linejoin="round" width="8" height="24" fill="rgb(195,82,106)" stroke="rgb(156,65,84)" stroke-width="1" opacity="0.75" />
			</g>
			<g>
				<title>AMP-binding (PF00501)
"AMP-binding enzyme"</title>
				<polygon class="PF00501" points="1188,29 1189,28 1223,28 1223,52 1189,52 1188,51" stroke-linejoin="round" width="35" height="24" fill="rgb(189,78,204)" stroke="rgb(151,62,163)" stroke-width="1" opacity="0.75" />
			</g>
		</g>
		<g>
			<title> (WQO_33895)
hypothetical protein</title>
			<polygon class=" (WQO_33895)
hypothetical protein" points="1268,25 1308,25 1308,10 1338,40 1308,70 1308,55 1268,55" fill="rgb(255,255,255)" fill-opacity="1.0" stroke="rgb(0,0,0)" stroke-width="2"  />
			<g>
				<title>MMPL (PF03176)
"MMPL family"</title>
				<rect class="PF03176" x="1272" y="28" stroke-linejoin="round" width="32" height="24" fill="rgb(62,125,229)" stroke="rgb(49,99,183)" stroke-width="1" opacity="0.75" />
			</g>
			<g>
				<title>MMPL (PF03176)
"MMPL family"</title>
				<polygon class="PF03176" points="1308,28 1322,28 1334,40 1322,52 1308,52" stroke-linejoin="round" width="29" height="24" fill="rgb(62,125,229)" stroke="rgb(49,99,183)" stroke-width="1" opacity="0.75" />
			</g>
		</g>
		<g>
			<title> (WQO_33900)
methyltransferase</title>
			<polygon class=" (WQO_33900)
methyltransferase" points="1344,25 1347,25 1347,10 1377,40 1347,70 1347,55 1344,55" fill="rgb(255,255,255)" fill-opacity="1.0" stroke="rgb(0,0,0)" stroke-width="2"  />
			<g>
				<title>Methyltransf_2 (PF00891)
"O-methyltransferase domain"</title>
				<polygon class="PF00891" points="1355,28 1361,28 1373,40 1361,52 1355,52" stroke-linejoin="round" width="20" height="24" fill="rgb(91,124,224)" stroke="rgb(72,99,179)" stroke-width="1" opacity="0.75" />
			</g>
		</g>
		<g>
			<title> (WQO_33905)
cytochrome</title>
			<polygon class=" (WQO_33905)
cytochrome" points="1379,25 1390,25 1390,10 1420,40 1390,70 1390,55 1379,55" fill="rgb(255,255,255)" fill-opacity="1.0" stroke="rgb(0,0,0)" stroke-width="2"  />
			<g>
				<title>p450 (PF00067)
"Cytochrome P450"</title>
				<polygon class="PF00067" points="1397,28 1404,28 1416,40 1404,52 1397,52" stroke-linejoin="round" width="21" height="24" fill="rgb(195,210,54)" stroke="rgb(155,168,43)" stroke-width="1" opacity="0.75" />
			</g>
		</g>
		<g>
			<title> (WQO_33910)
acyl-CoA dehydrogenase</title>
			<polygon class=" (WQO_33910)
acyl-CoA dehydrogenase" points="1461,25 1452,25 1452,10 1422,40 1452,70 1452,55 1461,55" fill="rgb(255,255,255)" fill-opacity="1.0" stroke="rgb(0,0,0)" stroke-width="2"  />
			<g>
				<title>Acyl-CoA_dh_2 (PF08028)
"Acyl-CoA dehydrogenase, C-terminal domain"</title>
				<polygon class="PF08028" points="1426,40 1437,29 1437,51" stroke-linejoin="round" width="13" height="24" fill="rgb(61,169,203)" stroke="rgb(48,135,162)" stroke-width="1" opacity="0.75" />
			</g>
			<g>
				<title>Acyl-CoA_dh_N (PF02771)
"Acyl-CoA dehydrogenase, N-terminal domain"</title>
				<rect class="PF02771" x="1451" y="28" stroke-linejoin="round" width="8" height="24" fill="rgb(104,198,213)" stroke="rgb(83,158,170)" stroke-width="1" opacity="0.75" />
			</g>
		</g>
		<g>
			<title> (WQO_33915)
hypothetical protein</title>
			<polygon class=" (WQO_33915)
hypothetical protein" points="1472,10 1483,40 1472,70" fill="rgb(255,255,255)" fill-opacity="1.0" stroke="rgb(0,0,0)" stroke-width="2"  />
		</g>
		<g>
			<title> (WQO_33920)
alkylhydroperoxidase</title>
			<polygon class=" (WQO_33920)
alkylhydroperoxidase" points="1483,25 1487,25 1487,10 1517,40 1487,70 1487,55 1483,55" fill="rgb(255,255,255)" fill-opacity="1.0" stroke="rgb(0,0,0)" stroke-width="2"  />
		</g>
		<g>
			<title> (WQO_33925)
short-chain dehydrogenase</title>
			<polygon class=" (WQO_33925)
short-chain dehydrogenase" points="1549,25 1549,25 1549,10 1519,40 1549,70 1549,55 1549,55" fill="rgb(255,255,255)" fill-opacity="1.0" stroke="rgb(0,0,0)" stroke-width="2"  />
			<g>
				<title>adh_short (PF00106)
"short chain dehydrogenase"</title>
				<polygon class="PF00106" points="1527,36 1535,28 1547,28 1547,52 1535,52 1527,44" stroke-linejoin="round" width="20" height="24" fill="rgb(128,81,196)" stroke="rgb(102,64,156)" stroke-width="1" opacity="0.75" />
			</g>
		</g>
		<g>
			<title> (WQO_33930)
alkylhydroperoxidase</title>
			<polygon class=" (WQO_33930)
alkylhydroperoxidase" points="1550,40 1568,10 1568,70" fill="rgb(255,255,255)" fill-opacity="1.0" stroke="rgb(0,0,0)" stroke-width="2"  />
			<g>
				<title>CMD (PF02627)
"Carboxymuconolactone decarboxylase family"</title>
				<polygon class="PF02627" points="1559,32 1561,28 1566,28 1566,52 1561,52 1559,48" stroke-linejoin="round" width="7" height="24" fill="rgb(218,62,137)" stroke="rgb(174,49,109)" stroke-width="1" opacity="0.75" />
			</g>
		</g>
		<g>
			<title> (WQO_33935)
hypothetical protein</title>
			<polygon class=" (WQO_33935)
hypothetical protein" points="1580,40 1601,10 1601,70" fill="rgb(255,255,255)" fill-opacity="1.0" stroke="rgb(0,0,0)" stroke-width="2"  />
			<g>
				<title>PP-binding (PF00550)
"Phosphopantetheine attachment site"</title>
				<polygon class="PF00550" points="1584,40 1588,34 1588,46" stroke-linejoin="round" width="6" height="24" fill="rgb(181,58,166)" stroke="rgb(144,46,132)" stroke-width="1" opacity="0.75" />
			</g>
			<g>
				<title>PP-binding (PF00550)
"Phosphopantetheine attachment site"</title>
				<polygon class="PF00550" points="1590,32 1593,28 1596,28 1596,52 1593,52 1590,48" stroke-linejoin="round" width="6" height="24" fill="rgb(181,58,166)" stroke="rgb(144,46,132)" stroke-width="1" opacity="0.75" />
			</g>
		</g>
		<g>
			<title> (WQO_33940)
DNA-binding protein</title>
			<polygon class=" (WQO_33940)
DNA-binding protein" points="1609,25 1620,25 1620,10 1650,40 1620,70 1620,55 1609,55" fill="rgb(255,255,255)" fill-opacity="1.0" stroke="rgb(0,0,0)" stroke-width="2"  />
			<g>
				<title>HTH_31 (PF13560)
"Helix-turn-helix domain"</title>
				<rect class="PF13560" x="1609" y="28" stroke-linejoin="round" width="5" height="24" fill="rgb(109,58,189)" stroke="rgb(87,46,151)" stroke-width="1" opacity="0.75" />
			</g>
		</g>
		<g>
			<title> (WQO_33945)
hypothetical protein</title>
			<polygon class=" (WQO_33945)
hypothetical protein" points="1668,25 1670,25 1670,10 1700,40 1670,70 1670,55 1668,55" fill="rgb(255,255,255)" fill-opacity="1.0" stroke="rgb(0,0,0)" stroke-width="2"  />
		</g>
		<g>
			<title> (WQO_33950)
wyosine base formation domain-containing protein</title>
			<polygon class=" (WQO_33950)
wyosine base formation domain-containing protein" points="1702,40 1728,10 1728,70" fill="rgb(255,255,255)" fill-opacity="1.0" stroke="rgb(0,0,0)" stroke-width="2"  />
			<g>
				<title>Wyosine_form (PF08608)
"Wyosine base formation"</title>
				<polygon class="PF08608" points="1706,40 1710,36 1710,44" stroke-linejoin="round" width="5" height="24" fill="rgb(170,212,78)" stroke="rgb(135,169,62)" stroke-width="1" opacity="0.75" />
			</g>
			<g>
				<title>MDMPI_N (PF11716)
"Mycothiol maleylpyruvate isomerase N-terminal domain"</title>
				<polygon class="PF11716" points="1714,31 1717,28 1727,28 1727,52 1717,52 1714,49" stroke-linejoin="round" width="13" height="24" fill="rgb(220,88,208)" stroke="rgb(176,70,166)" stroke-width="1" opacity="0.75" />
			</g>
		</g>
		<g>
			<title> (WQO_33955)
4-hydroxybenzoyl-CoA thioesterase</title>
			<polygon class=" (WQO_33955)
4-hydroxybenzoyl-CoA thioesterase" points="1732,40 1747,10 1747,70" fill="rgb(255,255,255)" fill-opacity="1.0" stroke="rgb(0,0,0)" stroke-width="2"  />
			<g>
				<title>4HBT_2 (PF13279)
"Thioesterase-like superfamily"</title>
				<polygon class="PF13279" points="1735,40 1741,28 1745,28 1745,52 1741,52" stroke-linejoin="round" width="12" height="24" fill="rgb(108,104,213)" stroke="rgb(86,83,170)" stroke-width="1" opacity="0.75" />
			</g>
		</g>
		<g>
			<title> (WQO_33960)
glucose-methanol-choline oxidoreductase</title>
			<polygon class=" (WQO_33960)
glucose-methanol-choline oxidoreductase" points="1808,25 1783,25 1783,10 1753,40 1783,70 1783,55 1808,55" fill="rgb(255,255,255)" fill-opacity="1.0" stroke="rgb(0,0,0)" stroke-width="2"  />
			<g>
				<title>GMC_oxred_C (PF05199)
"GMC oxidoreductase"</title>
				<polygon class="PF05199" points="1757,40 1768,29 1768,51 1757,40" stroke-linejoin="round" width="11" height="24" fill="rgb(206,67,222)" stroke="rgb(164,53,177)" stroke-width="1" opacity="0.75" />
			</g>
			<g>
				<title>GMC_oxred_N (PF00732)
"GMC oxidoreductase"</title>
				<rect class="PF00732" x="1780" y="28" stroke-linejoin="round" width="26" height="24" fill="rgb(102,94,198)" stroke="rgb(81,75,158)" stroke-width="1" opacity="0.75" />
			</g>
		</g>
		<g>
			<title> (WQO_33965)
regulator</title>
			<polygon class=" (WQO_33965)
regulator" points="1808,40 1827,10 1827,70" fill="rgb(255,255,255)" fill-opacity="1.0" stroke="rgb(0,0,0)" stroke-width="2"  />
			<g>
				<title>DUF5987 (PF19449)
"Family of unknown function (DUF5987)"</title>
				<polygon class="PF19449" points="1812,40 1820,28 1825,28 1825,52 1820,52" stroke-linejoin="round" width="17" height="24" fill="rgb(171,187,51)" stroke="rgb(136,149,40)" stroke-width="1" opacity="0.75" />
			</g>
		</g>
		<g>
			<title> (WQO_33970)
transcriptional regulator</title>
			<polygon class=" (WQO_33970)
transcriptional regulator" points="1837,25 1842,25 1842,10 1872,40 1842,70 1842,55 1837,55" fill="rgb(255,255,255)" fill-opacity="1.0" stroke="rgb(0,0,0)" stroke-width="2"  />
		</g>
		<g>
			<title> (WQO_33975)
hypothetical protein</title>
			<polygon class=" (WQO_33975)
hypothetical protein" points="1873,10 1901,40 1873,70" fill="rgb(255,255,255)" fill-opacity="1.0" stroke="rgb(0,0,0)" stroke-width="2"  />
		</g>
		<g>
			<title> (WQO_33980)
cytochrome P450</title>
			<polygon class=" (WQO_33980)
cytochrome P450" points="1943,25 1928,25 1928,10 1898,40 1928,70 1928,55 1943,55" fill="rgb(255,255,255)" fill-opacity="1.0" stroke="rgb(0,0,0)" stroke-width="2"  />
			<g>
				<title>p450 (PF00067)
"Cytochrome P450"</title>
				<polygon class="PF00067" points="1902,40 1914,28 1941,28 1941,52 1914,52" stroke-linejoin="round" width="42" height="24" fill="rgb(195,210,54)" stroke="rgb(155,168,43)" stroke-width="1" opacity="0.75" />
			</g>
		</g>
		<g>
			<title> (WQO_33985)
flavin reductase</title>
			<polygon class=" (WQO_33985)
flavin reductase" points="1942,40 1960,10 1960,70" fill="rgb(255,255,255)" fill-opacity="1.0" stroke="rgb(0,0,0)" stroke-width="2"  />
			<g>
				<title>Flavin_Reduct (PF01613)
"Flavin reductase like domain"</title>
				<polygon class="PF01613" points="1946,40 1953,28 1957,28 1957,52 1953,52" stroke-linejoin="round" width="14" height="24" fill="rgb(223,100,227)" stroke="rgb(178,80,181)" stroke-width="1" opacity="0.75" />
			</g>
		</g>
		<g>
			<title> (WQO_33990)
erythronolide synthase</title>
			<polygon class=" (WQO_33990)
erythronolide synthase" points="2159,25 1995,25 1995,10 1965,40 1995,70 1995,55 2159,55" fill="rgb(255,255,255)" fill-opacity="1.0" stroke="rgb(0,0,0)" stroke-width="2"  />
			<g>
				<title>PS-DH (PF14765)
"Polyketide synthase dehydratase N-terminal domain"</title>
				<rect class="PF14765" x="1986" y="28" stroke-linejoin="round" width="15" height="24" fill="rgb(189,61,178)" stroke="rgb(151,48,142)" stroke-width="1" opacity="0.75" />
			</g>
			<g>
				<title>PKS_DH_N (PF21089)
"Polyketide synthase dehydratase domain"</title>
				<rect class="PF21089" x="2003" y="28" stroke-linejoin="round" width="9" height="24" fill="rgb(67,151,200)" stroke="rgb(53,120,160)" stroke-width="1" opacity="0.75" />
			</g>
			<g>
				<title>KR (PF08659)
"KR domain"</title>
				<rect class="PF08659" x="2020" y="28" stroke-linejoin="round" width="18" height="24" fill="rgb(203,145,81)" stroke="rgb(162,116,64)" stroke-width="1" opacity="0.75" />
			</g>
			<g>
				<title>Acyl_transf_1 (PF00698)
"Acyl transferase domain"</title>
				<rect class="PF00698" x="2070" y="28" stroke-linejoin="round" width="29" height="24" fill="rgb(132,93,193)" stroke="rgb(105,74,154)" stroke-width="1" opacity="0.75" />
			</g>
			<g>
				<title>KAsynt_C_assoc (PF16197)
"Ketoacyl-synthetase C-terminal extension"</title>
				<rect class="PF16197" x="2105" y="28" stroke-linejoin="round" width="11" height="24" fill="rgb(200,86,70)" stroke="rgb(160,68,56)" stroke-width="1" opacity="0.75" />
			</g>
			<g>
				<title>Ketoacyl-synt_C (PF02801)
"Beta-ketoacyl synthase, C-terminal domain"</title>
				<rect class="PF02801" x="2117" y="28" stroke-linejoin="round" width="11" height="24" fill="rgb(212,79,72)" stroke="rgb(169,63,57)" stroke-width="1" opacity="0.75" />
			</g>
			<g>
				<title>ketoacyl-synt (PF00109)
"Beta-ketoacyl synthase, N-terminal domain"</title>
				<rect class="PF00109" x="2130" y="28" stroke-linejoin="round" width="28" height="24" fill="rgb(74,179,82)" stroke="rgb(59,143,65)" stroke-width="1" opacity="0.75" />
			</g>
		</g>
		<g>
			<title> (WQO_33995)
enediyne biosynthesis protein</title>
			<polygon class=" (WQO_33995)
enediyne biosynthesis protein" points="2196,25 2189,25 2189,10 2159,40 2189,70 2189,55 2196,55" fill="rgb(255,255,255)" fill-opacity="1.0" stroke="rgb(0,0,0)" stroke-width="2"  />
		</g>
		<g>
			<title> (WQO_34000)
RNA-binding protein</title>
			<polygon class=" (WQO_34000)
RNA-binding protein" points="2258,25 2226,25 2226,10 2196,40 2226,70 2226,55 2258,55" fill="rgb(255,255,255)" fill-opacity="1.0" stroke="rgb(0,0,0)" stroke-width="2"  />
			<g>
				<title>UnbV_ASPIC (PF07593)
"ASPIC and UnbV"</title>
				<polygon class="PF07593" points="2200,40 2203,37 2203,43" stroke-linejoin="round" width="6" height="24" fill="rgb(208,157,76)" stroke="rgb(166,125,60)" stroke-width="1" opacity="0.75" />
			</g>
			<g>
				<title>FG-GAP_3 (PF13517)
"FG-GAP-like repeat"</title>
				<rect class="PF13517" x="2223" y="28" stroke-linejoin="round" width="7" height="24" fill="rgb(193,139,80)" stroke="rgb(154,111,64)" stroke-width="1" opacity="0.75" />
			</g>
		</g>
		<g>
			<title> (WQO_34005)
enediyne biosynthesis protein</title>
			<polygon class=" (WQO_34005)
enediyne biosynthesis protein" points="2290,25 2290,25 2290,10 2260,40 2290,70 2290,55 2290,55" fill="rgb(255,255,255)" fill-opacity="1.0" stroke="rgb(0,0,0)" stroke-width="2"  />
			<g>
				<title>DUF1702 (PF08012)
"Protein of unknown function (DUF1702)"</title>
				<polygon class="PF08012" points="2264,40 2276,28 2289,28 2289,52 2276,52" stroke-linejoin="round" width="28" height="24" fill="rgb(115,74,184)" stroke="rgb(92,59,147)" stroke-width="1" opacity="0.75" />
			</g>
		</g>
		<g>
			<title> (WQO_34010)
enediyne biosynthesis protein</title>
			<polygon class=" (WQO_34010)
enediyne biosynthesis protein" points="2331,25 2327,25 2327,10 2297,40 2327,70 2327,55 2331,55" fill="rgb(255,255,255)" fill-opacity="1.0" stroke="rgb(0,0,0)" stroke-width="2"  />
			<g>
				<title>DUF1702 (PF08012)
"Protein of unknown function (DUF1702)"</title>
				<polygon class="PF08012" points="2301,40 2313,28 2328,28 2328,52 2313,52" stroke-linejoin="round" width="31" height="24" fill="rgb(115,74,184)" stroke="rgb(92,59,147)" stroke-width="1" opacity="0.75" />
			</g>
		</g>
		<g>
			<title> (WQO_34015)
HxlR family transcriptional regulator</title>
			<polygon class=" (WQO_34015)
HxlR family transcriptional regulator" points="2335,40 2349,10 2349,70" fill="rgb(255,255,255)" fill-opacity="1.0" stroke="rgb(0,0,0)" stroke-width="2"  />
			<g>
				<title>HxlR (PF01638)
"HxlR-like helix-turn-helix"</title>
				<polygon class="PF01638" points="2339,38 2344,28 2347,28 2347,52 2344,52 2339,42" stroke-linejoin="round" width="8" height="24" fill="rgb(211,96,80)" stroke="rgb(168,76,64)" stroke-width="1" opacity="0.75" />
			</g>
		</g>
		<g>
			<title> (WQO_34020)
hypothetical protein</title>
			<polygon class=" (WQO_34020)
hypothetical protein" points="2355,10 2373,40 2355,70" fill="rgb(255,255,255)" fill-opacity="1.0" stroke="rgb(0,0,0)" stroke-width="2"  />
		</g>
		<g>
			<title> (WQO_34025)
hypothetical protein</title>
			<polygon class=" (WQO_34025)
hypothetical protein" points="2374,10 2389,40 2374,70" fill="rgb(255,255,255)" fill-opacity="1.0" stroke="rgb(0,0,0)" stroke-width="2"  />
		</g>
		<g>
			<title> (WQO_34030)
hypothetical protein</title>
			<polygon class=" (WQO_34030)
hypothetical protein" points="2431,25 2422,25 2422,10 2392,40 2422,70 2422,55 2431,55" fill="rgb(255,255,255)" fill-opacity="1.0" stroke="rgb(0,0,0)" stroke-width="2"  />
			<g>
				<title>DDE_5 (PF13546)
"DDE superfamily endonuclease"</title>
				<polygon class="PF13546" points="2405,31 2408,28 2429,28 2429,52 2408,52 2405,49" stroke-linejoin="round" width="24" height="24" fill="rgb(114,214,85)" stroke="rgb(91,171,68)" stroke-width="1" opacity="0.75" />
			</g>
		</g>
	</g>
</svg>
