<svg version="1.1" baseProfile="full" xmlns="http://www.w3.org/2000/svg" width="652.5666666666667" height="80">
	<g>
		<line x1="10" y1="40.0" x2="642.5666666666667" y2="40.0" style="stroke:rgb(70,70,70); stroke-width:3 "/>
		<g>
			<title>mtmD
dTDP-glucose synthase</title>
			<polygon class="mtmD
dTDP-glucose synthase" points="14,25 19,25 19,10 49,40 19,70 19,55 14,55" fill="rgb(255,255,255)" fill-opacity="1.0" stroke="rgb(0,0,0)" stroke-width="2"  />
			<g>
				<title>NTP_transferase (PF00483)
"Nucleotidyl transferase"</title>
				<polygon class="PF00483" points="14,28 33,28 37,32 37,48 33,52 14,52" stroke-linejoin="round" width="23" height="24" fill="rgb(211,145,90)" stroke="rgb(168,116,72)" stroke-width="1" opacity="0.75" />
			</g>
		</g>
		<g>
			<title>mtmE
dTDP-glucose 4,6-dehydratase</title>
			<polygon class="mtmE
dTDP-glucose 4,6-dehydratase" points="49,25 52,25 52,10 82,40 52,70 52,55 49,55" fill="rgb(255,255,255)" fill-opacity="1.0" stroke="rgb(0,0,0)" stroke-width="2"  />
			<g>
				<title>GDP_Man_Dehyd (PF16363)
"GDP-mannose 4,6 dehydratase"</title>
				<polygon class="PF16363" points="49,28 65,28 77,40 65,52 49,52" stroke-linejoin="round" width="30" height="24" fill="rgb(50,144,195)" stroke="rgb(40,115,156)" stroke-width="1" opacity="0.75" />
			</g>
		</g>
		<g>
			<title>mtmTII
ketoreductase</title>
			<polygon class="mtmTII
ketoreductase" points="96,40 121,10 121,70" fill="rgb(255,255,255)" fill-opacity="1.0" stroke="rgb(0,0,0)" stroke-width="2"  />
			<g>
				<title>adh_short_C2 (PF13561)
"Enoyl-(Acyl carrier protein) reductase"</title>
				<polygon class="PF13561" points="100,40 110,28 119,28 119,52 110,52" stroke-linejoin="round" width="23" height="24" fill="rgb(79,221,209)" stroke="rgb(63,176,167)" stroke-width="1" opacity="0.75" />
			</g>
		</g>
		<g>
			<title>mtmOII
oxygenase</title>
			<polygon class="mtmOII
oxygenase" points="175,25 152,25 152,10 122,40 152,70 152,55 175,55" fill="rgb(255,255,255)" fill-opacity="1.0" stroke="rgb(0,0,0)" stroke-width="2"  />
			<g>
				<title>FAD_binding_3 (PF01494)
"FAD binding domain"</title>
				<rect class="PF01494" x="140" y="28" stroke-linejoin="round" width="33" height="24" fill="rgb(215,66,156)" stroke="rgb(172,52,124)" stroke-width="1" opacity="0.75" />
			</g>
		</g>
		<g>
			<title>mtmOIII
oxygenase</title>
			<polygon class="mtmOIII
oxygenase" points="175,40 185,10 185,70" fill="rgb(255,255,255)" fill-opacity="1.0" stroke="rgb(0,0,0)" stroke-width="2"  />
			<g>
				<title>ABM (PF03992)
"Antibiotic biosynthesis monooxygenase"</title>
				<polygon class="PF03992" points="178,40 182,28 184,28 184,52 182,52" stroke-linejoin="round" width="7" height="24" fill="rgb(211,55,142)" stroke="rgb(168,44,113)" stroke-width="1" opacity="0.75" />
			</g>
		</g>
		<g>
			<title>mtmL
acyl CoA ligase</title>
			<polygon class="mtmL
acyl CoA ligase" points="238,25 217,25 217,10 187,40 217,70 217,55 238,55" fill="rgb(255,255,255)" fill-opacity="1.0" stroke="rgb(0,0,0)" stroke-width="2"  />
			<g>
				<title>AMP-binding_C (PF13193)
"AMP-binding enzyme C-terminal domain"</title>
				<polygon class="PF13193" points="191,40 195,36 195,44" stroke-linejoin="round" width="7" height="24" fill="rgb(195,82,106)" stroke="rgb(156,65,84)" stroke-width="1" opacity="0.75" />
			</g>
			<g>
				<title>AMP-binding (PF00501)
"AMP-binding enzyme"</title>
				<polygon class="PF00501" points="200,31 203,28 236,28 236,52 203,52 200,49" stroke-linejoin="round" width="36" height="24" fill="rgb(189,78,204)" stroke="rgb(151,62,163)" stroke-width="1" opacity="0.75" />
			</g>
		</g>
		<g>
			<title>mtmQ
aromatase</title>
			<polygon class="mtmQ
aromatase" points="269,25 268,25 268,10 238,40 268,70 268,55 269,55" fill="rgb(255,255,255)" fill-opacity="1.0" stroke="rgb(0,0,0)" stroke-width="2"  />
			<g>
				<title>Polyketide_cyc (PF03364)
"Polyketide cyclase / dehydrase and lipid transport"</title>
				<rect class="PF03364" x="255" y="28" stroke-linejoin="round" width="12" height="24" fill="rgb(87,54,192)" stroke="rgb(69,43,153)" stroke-width="1" opacity="0.75" />
			</g>
		</g>
		<g>
			<title>mtmX
cyclase</title>
			<polygon class="mtmX
cyclase" points="276,10 291,40 276,70" fill="rgb(255,255,255)" fill-opacity="1.0" stroke="rgb(0,0,0)" stroke-width="2"  />
			<g>
				<title>SnoaL_4 (PF13577)
"SnoaL-like domain"</title>
				<polygon class="PF13577" points="277,28 281,28 287,40 281,52 277,52" stroke-linejoin="round" width="12" height="24" fill="rgb(58,198,190)" stroke="rgb(46,158,152)" stroke-width="1" opacity="0.75" />
			</g>
		</g>
		<g>
			<title>mtmP
ketoacyl synthase</title>
			<polygon class="mtmP
ketoacyl synthase" points="298,25 310,25 310,10 340,40 310,70 310,55 298,55" fill="rgb(255,255,255)" fill-opacity="1.0" stroke="rgb(0,0,0)" stroke-width="2"  />
			<g>
				<title>ketoacyl-synt (PF00109)
"Beta-ketoacyl synthase, N-terminal domain"</title>
				<rect class="PF00109" x="298" y="28" stroke-linejoin="round" width="24" height="24" fill="rgb(74,179,82)" stroke="rgb(59,143,65)" stroke-width="1" opacity="0.75" />
			</g>
			<g>
				<title>Ketoacyl-synt_C (PF02801)
"Beta-ketoacyl synthase, C-terminal domain"</title>
				<polygon class="PF02801" points="323,28 324,28 334,38 334,42 324,52 323,52" stroke-linejoin="round" width="11" height="24" fill="rgb(212,79,72)" stroke="rgb(169,63,57)" stroke-width="1" opacity="0.75" />
			</g>
		</g>
		<g>
			<title>mtmK
mtmK protein</title>
			<polygon class="mtmK
mtmK protein" points="340,25 350,25 350,10 380,40 350,70 350,55 340,55" fill="rgb(255,255,255)" fill-opacity="1.0" stroke="rgb(0,0,0)" stroke-width="2"  />
			<g>
				<title>ketoacyl-synt (PF00109)
"Beta-ketoacyl synthase, N-terminal domain"</title>
				<rect class="PF00109" x="340" y="28" stroke-linejoin="round" width="24" height="24" fill="rgb(74,179,82)" stroke="rgb(59,143,65)" stroke-width="1" opacity="0.75" />
			</g>
			<g>
				<title>Ketoacyl-synt_C (PF02801)
"Beta-ketoacyl synthase, C-terminal domain"</title>
				<polygon class="PF02801" points="365,29 376,40 376,40 365,51" stroke-linejoin="round" width="11" height="24" fill="rgb(212,79,72)" stroke="rgb(169,63,57)" stroke-width="1" opacity="0.75" />
			</g>
		</g>
		<g>
			<title>mtmS
acyl carrier protein</title>
			<polygon class="mtmS
acyl carrier protein" points="383,10 391,40 383,70" fill="rgb(255,255,255)" fill-opacity="1.0" stroke="rgb(0,0,0)" stroke-width="2"  />
			<g>
				<title>PP-binding (PF00550)
"Phosphopantetheine attachment site"</title>
				<polygon class="PF00550" points="383,28 384,28 388,40 384,52 383,52" stroke-linejoin="round" width="6" height="24" fill="rgb(181,58,166)" stroke="rgb(144,46,132)" stroke-width="1" opacity="0.75" />
			</g>
		</g>
		<g>
			<title>mtmTI
ketoreductase</title>
			<polygon class="mtmTI
ketoreductase" points="392,10 417,40 392,70" fill="rgb(255,255,255)" fill-opacity="1.0" stroke="rgb(0,0,0)" stroke-width="2"  />
			<g>
				<title>adh_short_C2 (PF13561)
"Enoyl-(Acyl carrier protein) reductase"</title>
				<polygon class="PF13561" points="394,28 403,28 413,40 403,52 394,52" stroke-linejoin="round" width="23" height="24" fill="rgb(79,221,209)" stroke="rgb(63,176,167)" stroke-width="1" opacity="0.75" />
			</g>
		</g>
		<g>
			<title>mtmOI
oxygenase</title>
			<polygon class="mtmOI
oxygenase" points="418,25 431,25 431,10 461,40 431,70 431,55 418,55" fill="rgb(255,255,255)" fill-opacity="1.0" stroke="rgb(0,0,0)" stroke-width="2"  />
			<g>
				<title>FAD_binding_3 (PF01494)
"FAD binding domain"</title>
				<polygon class="PF01494" points="420,28 445,28 454,37 454,43 445,52 420,52" stroke-linejoin="round" width="34" height="24" fill="rgb(215,66,156)" stroke="rgb(172,52,124)" stroke-width="1" opacity="0.75" />
			</g>
		</g>
		<g>
			<title>mtmY
cyclase</title>
			<polygon class="mtmY
cyclase" points="462,10 487,40 462,70" fill="rgb(255,255,255)" fill-opacity="1.0" stroke="rgb(0,0,0)" stroke-width="2"  />
			<g>
				<title>Cyclase (PF04199)
"Putative cyclase"</title>
				<polygon class="PF04199" points="462,28 473,28 480,36 480,44 473,52 462,52" stroke-linejoin="round" width="18" height="24" fill="rgb(145,90,187)" stroke="rgb(115,72,149)" stroke-width="1" opacity="0.75" />
			</g>
		</g>
		<g>
			<title>mtmTIII
ketoreductase</title>
			<polygon class="mtmTIII
ketoreductase" points="490,40 514,10 514,70" fill="rgb(255,255,255)" fill-opacity="1.0" stroke="rgb(0,0,0)" stroke-width="2"  />
			<g>
				<title>adh_short_C2 (PF13561)
"Enoyl-(Acyl carrier protein) reductase"</title>
				<polygon class="PF13561" points="494,40 504,28 513,28 513,52 504,52" stroke-linejoin="round" width="23" height="24" fill="rgb(79,221,209)" stroke="rgb(63,176,167)" stroke-width="1" opacity="0.75" />
			</g>
		</g>
		<g>
			<title>mtmC
D-mycarose 3-C-methyltransferase</title>
			<polygon class="mtmC
D-mycarose 3-C-methyltransferase" points="557,25 545,25 545,10 515,40 545,70 545,55 557,55" fill="rgb(255,255,255)" fill-opacity="1.0" stroke="rgb(0,0,0)" stroke-width="2"  />
			<g>
				<title>Methyltransf_14 (PF08484)
"C-methyltransferase C-terminal domain"</title>
				<polygon class="PF08484" points="519,40 531,28 531,28 531,52 531,52" stroke-linejoin="round" width="15" height="24" fill="rgb(131,189,66)" stroke="rgb(104,151,52)" stroke-width="1" opacity="0.75" />
			</g>
			<g>
				<title>Methyltransf_23 (PF13489)
"Methyltransferase domain"</title>
				<rect class="PF13489" x="532" y="28" stroke-linejoin="round" width="16" height="24" fill="rgb(62,214,70)" stroke="rgb(49,171,56)" stroke-width="1" opacity="0.75" />
			</g>
			<g>
				<title>Methyltransf_13 (PF08421)
"Putative zinc binding domain"</title>
				<rect class="PF08421" x="549" y="28" stroke-linejoin="round" width="6" height="24" fill="rgb(65,65,206)" stroke="rgb(52,52,164)" stroke-width="1" opacity="0.75" />
			</g>
		</g>
		<g>
			<title>mtmU
D-oliose 4-ketoreductase</title>
			<polygon class="mtmU
D-oliose 4-ketoreductase" points="590,25 588,25 588,10 558,40 588,70 588,55 590,55" fill="rgb(255,255,255)" fill-opacity="1.0" stroke="rgb(0,0,0)" stroke-width="2"  />
			<g>
				<title>GFO_IDH_MocA (PF01408)
"Oxidoreductase family, NAD-binding Rossmann fold"</title>
				<rect class="PF01408" x="578" y="28" stroke-linejoin="round" width="11" height="24" fill="rgb(53,193,178)" stroke="rgb(42,154,142)" stroke-width="1" opacity="0.75" />
			</g>
		</g>
		<g>
			<title>mtmV
D-olivose, D-oliose and D-mycarose 2,3-dehydratase</title>
			<polygon class="mtmV
D-olivose, D-oliose and D-mycarose 2,3-dehydratase" points="639,25 621,25 621,10 591,40 621,70 621,55 639,55" fill="rgb(255,255,255)" fill-opacity="1.0" stroke="rgb(0,0,0)" stroke-width="2"  />
			<g>
				<title>Hexose_dehydrat (PF03559)
"NDP-hexose 2,3-dehydratase"</title>
				<polygon class="PF03559" points="595,40 607,28 611,28 611,52 607,52" stroke-linejoin="round" width="20" height="24" fill="rgb(56,139,184)" stroke="rgb(44,111,147)" stroke-width="1" opacity="0.75" />
			</g>
			<g>
				<title>Hexose_dehydrat (PF03559)
"NDP-hexose 2,3-dehydratase"</title>
				<rect class="PF03559" x="615" y="28" stroke-linejoin="round" width="20" height="24" fill="rgb(56,139,184)" stroke="rgb(44,111,147)" stroke-width="1" opacity="0.75" />
			</g>
		</g>
	</g>
</svg>
