<svg version="1.1" baseProfile="full" xmlns="http://www.w3.org/2000/svg" width="646.2666666666667" height="80">
	<g>
		<line x1="10" y1="40.0" x2="636.2666666666667" y2="40.0" style="stroke:rgb(70,70,70); stroke-width:3 "/>
		<g>
			<title>qbsN
QbsN</title>
			<polygon class="qbsN
QbsN" points="64,25 50,25 50,10 20,40 50,70 50,55 64,55" fill="rgb(255,255,255)" fill-opacity="1.0" stroke="rgb(0,0,0)" stroke-width="2"  />
			<g>
				<title>MFS_1 (PF07690)
"Major Facilitator Superfamily"</title>
				<polygon class="PF07690" points="24,40 36,28 61,28 61,52 36,52 24,40" stroke-linejoin="round" width="37" height="24" fill="rgb(228,207,98)" stroke="rgb(182,165,78)" stroke-width="1" opacity="0.75" />
			</g>
		</g>
		<g>
			<title>qbsM
QbsM</title>
			<polygon class="qbsM
QbsM" points="106,25 95,25 95,10 65,40 95,70 95,55 106,55" fill="rgb(255,255,255)" fill-opacity="1.0" stroke="rgb(0,0,0)" stroke-width="2"  />
			<g>
				<title>MFS_1 (PF07690)
"Major Facilitator Superfamily"</title>
				<polygon class="PF07690" points="69,40 81,28 102,28 102,52 81,52 69,40" stroke-linejoin="round" width="33" height="24" fill="rgb(228,207,98)" stroke="rgb(182,165,78)" stroke-width="1" opacity="0.75" />
			</g>
		</g>
		<g>
			<title>qbsL
QbsL</title>
			<polygon class="qbsL
QbsL" points="198,25 138,25 138,10 108,40 138,70 138,55 198,55" fill="rgb(255,255,255)" fill-opacity="1.0" stroke="rgb(0,0,0)" stroke-width="2"  />
			<g>
				<title>Methyltransf_2 (PF00891)
"O-methyltransferase domain"</title>
				<polygon class="PF00891" points="112,40 124,28 131,28 131,52 124,52" stroke-linejoin="round" width="21" height="24" fill="rgb(91,124,224)" stroke="rgb(72,99,179)" stroke-width="1" opacity="0.75" />
			</g>
			<g>
				<title>Dimerisation2 (PF16864)
"Dimerisation domain"</title>
				<rect class="PF16864" x="132" y="28" stroke-linejoin="round" width="8" height="24" fill="rgb(212,101,199)" stroke="rgb(169,80,159)" stroke-width="1" opacity="0.75" />
			</g>
			<g>
				<title>AMP-binding_C (PF13193)
"AMP-binding enzyme C-terminal domain"</title>
				<rect class="PF13193" x="144" y="28" stroke-linejoin="round" width="7" height="24" fill="rgb(195,82,106)" stroke="rgb(156,65,84)" stroke-width="1" opacity="0.75" />
			</g>
			<g>
				<title>AMP-binding (PF00501)
"AMP-binding enzyme"</title>
				<rect class="PF00501" x="156" y="28" stroke-linejoin="round" width="37" height="24" fill="rgb(189,78,204)" stroke="rgb(151,62,163)" stroke-width="1" opacity="0.75" />
			</g>
		</g>
		<g>
			<title>qbsK
QbsK</title>
			<polygon class="qbsK
QbsK" points="258,25 228,25 228,10 198,40 228,70 228,55 258,55" fill="rgb(255,255,255)" fill-opacity="1.0" stroke="rgb(0,0,0)" stroke-width="2"  />
			<g>
				<title>CoA_transf_3 (PF02515)
"CoA-transferase family III"</title>
				<polygon class="PF02515" points="203,39 214,28 228,28 228,52 214,52 203,41" stroke-linejoin="round" width="25" height="24" fill="rgb(194,75,118)" stroke="rgb(155,60,94)" stroke-width="1" opacity="0.75" />
			</g>
			<g>
				<title>CoA_transf_3 (PF02515)
"CoA-transferase family III"</title>
				<rect class="PF02515" x="231" y="28" stroke-linejoin="round" width="20" height="24" fill="rgb(194,75,118)" stroke="rgb(155,60,94)" stroke-width="1" opacity="0.75" />
			</g>
		</g>
		<g>
			<title>qbsJ
QbsJ</title>
			<polygon class="qbsJ
QbsJ" points="292,25 288,25 288,10 258,40 288,70 288,55 292,55" fill="rgb(255,255,255)" fill-opacity="1.0" stroke="rgb(0,0,0)" stroke-width="2"  />
			<g>
				<title>Methyltransf_2 (PF00891)
"O-methyltransferase domain"</title>
				<polygon class="PF00891" points="262,40 274,28 281,28 281,52 274,52" stroke-linejoin="round" width="21" height="24" fill="rgb(91,124,224)" stroke="rgb(72,99,179)" stroke-width="1" opacity="0.75" />
			</g>
		</g>
		<g>
			<title>qbsI
QbsI</title>
			<polygon class="qbsI
QbsI" points="361,25 324,25 324,10 294,40 324,70 324,55 361,55" fill="rgb(255,255,255)" fill-opacity="1.0" stroke="rgb(0,0,0)" stroke-width="2"  />
			<g>
				<title>TonB_dep_Rec (PF00593)
"TonB dependent receptor"</title>
				<polygon class="PF00593" points="298,40 310,28 343,28 343,52 310,52" stroke-linejoin="round" width="46" height="24" fill="rgb(67,93,202)" stroke="rgb(53,74,161)" stroke-width="1" opacity="0.75" />
			</g>
			<g>
				<title>Plug (PF07715)
"TonB-dependent Receptor Plug Domain"</title>
				<rect class="PF07715" x="345" y="28" stroke-linejoin="round" width="10" height="24" fill="rgb(66,186,52)" stroke="rgb(52,148,41)" stroke-width="1" opacity="0.75" />
			</g>
		</g>
		<g>
			<title>qbsA
QbsA</title>
			<polygon class="qbsA
QbsA" points="372,10 398,40 372,70" fill="rgb(255,255,255)" fill-opacity="1.0" stroke="rgb(0,0,0)" stroke-width="2"  />
			<g>
				<title>HTH_18 (PF12833)
"Helix-turn-helix domain"</title>
				<polygon class="PF12833" points="390,35 394,40 390,45" stroke-linejoin="round" width="7" height="24" fill="rgb(96,195,114)" stroke="rgb(76,156,91)" stroke-width="1" opacity="0.75" />
			</g>
		</g>
		<g>
			<title>qbsB
QbsB</title>
			<polygon class="qbsB
QbsB" points="400,25 406,25 406,10 436,40 406,70 406,55 400,55" fill="rgb(255,255,255)" fill-opacity="1.0" stroke="rgb(0,0,0)" stroke-width="2"  />
			<g>
				<title>Aminotran_1_2 (PF00155)
"Aminotransferase class I and II"</title>
				<polygon class="PF00155" points="402,28 420,28 432,40 420,52 402,52" stroke-linejoin="round" width="31" height="24" fill="rgb(207,146,55)" stroke="rgb(165,116,43)" stroke-width="1" opacity="0.75" />
			</g>
		</g>
		<g>
			<title>qbsC
QbsC</title>
			<polygon class="qbsC
QbsC" points="440,25 448,25 448,10 478,40 448,70 448,55 440,55" fill="rgb(255,255,255)" fill-opacity="1.0" stroke="rgb(0,0,0)" stroke-width="2"  />
			<g>
				<title>ThiF (PF00899)
"ThiF family"</title>
				<polygon class="PF00899" points="442,28 462,28 465,31 465,49 462,52 442,52" stroke-linejoin="round" width="23" height="24" fill="rgb(73,211,94)" stroke="rgb(58,168,75)" stroke-width="1" opacity="0.75" />
			</g>
			<g>
				<title>Rhodanese (PF00581)
"Rhodanese-like domain"</title>
				<polygon class="PF00581" points="468,34 474,40 468,46" stroke-linejoin="round" width="9" height="24" fill="rgb(154,191,86)" stroke="rgb(123,152,68)" stroke-width="1" opacity="0.75" />
			</g>
		</g>
		<g>
			<title>qbsD
QbsD</title>
			<polygon class="qbsD
QbsD" points="479,10 492,40 479,70" fill="rgb(255,255,255)" fill-opacity="1.0" stroke="rgb(0,0,0)" stroke-width="2"  />
			<g>
				<title>Prok-JAB (PF14464)
"Prokaryotic homologs of the JAB domain"</title>
				<polygon class="PF14464" points="479,28 483,28 489,40 483,52 479,52" stroke-linejoin="round" width="11" height="24" fill="rgb(71,227,114)" stroke="rgb(56,181,91)" stroke-width="1" opacity="0.75" />
			</g>
		</g>
		<g>
			<title>qbsE
QbsE</title>
			<polygon class="qbsE
QbsE" points="493,10 502,40 493,70" fill="rgb(255,255,255)" fill-opacity="1.0" stroke="rgb(0,0,0)" stroke-width="2"  />
			<g>
				<title>ThiS (PF02597)
"ThiS family"</title>
				<polygon class="PF02597" points="493,28 494,28 498,40 494,52 493,52" stroke-linejoin="round" width="8" height="24" fill="rgb(88,81,214)" stroke="rgb(70,64,171)" stroke-width="1" opacity="0.75" />
			</g>
		</g>
		<g>
			<title>qbsF
QbsF</title>
			<polygon class="qbsF
QbsF" points="503,10 531,40 503,70" fill="rgb(255,255,255)" fill-opacity="1.0" stroke="rgb(0,0,0)" stroke-width="2"  />
			<g>
				<title>Trp_dioxygenase (PF03301)
"Tryptophan 2,3-dioxygenase"</title>
				<polygon class="PF03301" points="504,28 515,28 521,34 521,46 515,52 504,52" stroke-linejoin="round" width="17" height="24" fill="rgb(92,205,88)" stroke="rgb(73,164,70)" stroke-width="1" opacity="0.75" />
			</g>
			<g>
				<title>Trp_dioxygenase (PF03301)
"Tryptophan 2,3-dioxygenase"</title>
				<polygon class="PF03301" points="522,35 527,40 522,45" stroke-linejoin="round" width="8" height="24" fill="rgb(92,205,88)" stroke="rgb(73,164,70)" stroke-width="1" opacity="0.75" />
			</g>
		</g>
		<g>
			<title>qbsG
QbsG</title>
			<polygon class="qbsG
QbsG" points="533,25 549,25 549,10 579,40 549,70 549,55 533,55" fill="rgb(255,255,255)" fill-opacity="1.0" stroke="rgb(0,0,0)" stroke-width="2"  />
			<g>
				<title>FAD_binding_3 (PF01494)
"FAD binding domain"</title>
				<polygon class="PF01494" points="533,28 562,28 568,34 568,46 562,52 533,52" stroke-linejoin="round" width="35" height="24" fill="rgb(215,66,156)" stroke="rgb(172,52,124)" stroke-width="1" opacity="0.75" />
			</g>
		</g>
		<g>
			<title>qbsH
QbsH</title>
			<polygon class="qbsH
QbsH" points="579,10 600,40 579,70" fill="rgb(255,255,255)" fill-opacity="1.0" stroke="rgb(0,0,0)" stroke-width="2"  />
			<g>
				<title>Cyclase (PF04199)
"Putative cyclase"</title>
				<polygon class="PF04199" points="579,28 588,28 593,35 593,45 588,52 579,52" stroke-linejoin="round" width="14" height="24" fill="rgb(145,90,187)" stroke="rgb(115,72,149)" stroke-width="1" opacity="0.75" />
			</g>
		</g>
		<g>
			<title>
unknown</title>
			<polygon class="
unknown" points="603,40 620,10 620,70" fill="rgb(255,255,255)" fill-opacity="1.0" stroke="rgb(0,0,0)" stroke-width="2"  />
			<g>
				<title>Isochorismatase (PF00857)
"Isochorismatase family"</title>
				<polygon class="PF00857" points="606,40 613,28 619,28 619,52 613,52" stroke-linejoin="round" width="16" height="24" fill="rgb(82,216,163)" stroke="rgb(65,172,130)" stroke-width="1" opacity="0.75" />
			</g>
		</g>
	</g>
</svg>
