<svg version="1.1" baseProfile="full" xmlns="http://www.w3.org/2000/svg" width="987.7666666666667" height="80">
	<g>
		<line x1="10" y1="40.0" x2="977.7666666666667" y2="40.0" style="stroke:rgb(70,70,70); stroke-width:3 "/>
		<g>
			<title>orf1
hypothetical protein</title>
			<polygon class="orf1
hypothetical protein" points="10,40 27,10 27,70" fill="rgb(255,255,255)" fill-opacity="1.0" stroke="rgb(0,0,0)" stroke-width="2"  />
			<g>
				<title>DUF6022 (PF19486)
"Family of unknown function (DUF6022)"</title>
				<polygon class="PF19486" points="13,40 20,28 24,28 24,52 20,52" stroke-linejoin="round" width="14" height="24" fill="rgb(48,186,74)" stroke="rgb(38,148,59)" stroke-width="1" opacity="0.75" />
			</g>
		</g>
		<g>
			<title>btrR1
possible transcriptional regulator</title>
			<polygon class="btrR1
possible transcriptional regulator" points="39,10 60,40 39,70" fill="rgb(255,255,255)" fill-opacity="1.0" stroke="rgb(0,0,0)" stroke-width="2"  />
			<g>
				<title>TetR_N (PF00440)
"Bacterial regulatory proteins, tetR family"</title>
				<rect class="PF00440" x="41" y="28" stroke-linejoin="round" width="4" height="24" fill="rgb(148,50,185)" stroke="rgb(118,40,148)" stroke-width="1" opacity="0.75" />
			</g>
		</g>
		<g>
			<title>btrU
possible oxidoreductase</title>
			<polygon class="btrU
possible oxidoreductase" points="63,10 82,40 63,70" fill="rgb(255,255,255)" fill-opacity="1.0" stroke="rgb(0,0,0)" stroke-width="2"  />
			<g>
				<title>Flavodoxin_2 (PF02525)
"Flavodoxin-like fold"</title>
				<polygon class="PF02525" points="63,28 71,28 78,40 71,52 63,52" stroke-linejoin="round" width="16" height="24" fill="rgb(50,138,185)" stroke="rgb(40,110,148)" stroke-width="1" opacity="0.75" />
			</g>
		</g>
		<g>
			<title>btrR2
possible transcriptional regulator</title>
			<polygon class="btrR2
possible transcriptional regulator" points="84,25 92,25 92,10 122,40 92,70 92,55 84,55" fill="rgb(255,255,255)" fill-opacity="1.0" stroke="rgb(0,0,0)" stroke-width="2"  />
			<g>
				<title>SUFU (PF05076)
"Suppressor of fused protein (SUFU)"</title>
				<polygon class="PF05076" points="90,28 105,28 106,29 106,51 105,52 90,52" stroke-linejoin="round" width="16" height="24" fill="rgb(70,179,189)" stroke="rgb(56,143,151)" stroke-width="1" opacity="0.75" />
			</g>
		</g>
		<g>
			<title>btrT
BtrT</title>
			<polygon class="btrT
BtrT" points="131,10 138,40 131,70" fill="rgb(255,255,255)" fill-opacity="1.0" stroke="rgb(0,0,0)" stroke-width="2"  />
		</g>
		<g>
			<title>btrS
L-Glutamine:2-deoxy-scyllo-inosose aminotransferase</title>
			<polygon class="btrS
L-Glutamine:2-deoxy-scyllo-inosose aminotransferase" points="147,25 158,25 158,10 188,40 158,70 158,55 147,55" fill="rgb(255,255,255)" fill-opacity="1.0" stroke="rgb(0,0,0)" stroke-width="2"  />
			<g>
				<title>DegT_DnrJ_EryC1 (PF01041)
"DegT/DnrJ/EryC1/StrS aminotransferase family"</title>
				<polygon class="PF01041" points="148,28 172,28 184,40 172,52 148,52" stroke-linejoin="round" width="37" height="24" fill="rgb(228,110,183)" stroke="rgb(182,88,146)" stroke-width="1" opacity="0.75" />
			</g>
		</g>
		<g>
			<title>btrN
BtrN</title>
			<polygon class="btrN
BtrN" points="190,10 215,40 190,70" fill="rgb(255,255,255)" fill-opacity="1.0" stroke="rgb(0,0,0)" stroke-width="2"  />
			<g>
				<title>Radical_SAM (PF04055)
"Radical SAM superfamily"</title>
				<polygon class="PF04055" points="191,28 201,28 203,31 203,49 201,52 191,52" stroke-linejoin="round" width="12" height="24" fill="rgb(223,193,78)" stroke="rgb(178,154,62)" stroke-width="1" opacity="0.75" />
			</g>
			<g>
				<title>SPASM (PF13186)
"Iron-sulfur cluster-binding domain"</title>
				<polygon class="PF13186" points="206,34 211,40 206,46" stroke-linejoin="round" width="6" height="24" fill="rgb(70,195,165)" stroke="rgb(56,156,132)" stroke-width="1" opacity="0.75" />
			</g>
		</g>
		<g>
			<title>btrM
glycosyltransferase</title>
			<polygon class="btrM
glycosyltransferase" points="218,25 227,25 227,10 257,40 227,70 227,55 218,55" fill="rgb(255,255,255)" fill-opacity="1.0" stroke="rgb(0,0,0)" stroke-width="2"  />
			<g>
				<title>Glyco_transf_4 (PF13439)
"Glycosyltransferase Family 4"</title>
				<rect class="PF13439" x="218" y="28" stroke-linejoin="round" width="18" height="24" fill="rgb(67,194,123)" stroke="rgb(53,155,98)" stroke-width="1" opacity="0.75" />
			</g>
			<g>
				<title>Glycos_transf_1 (PF00534)
"Glycosyl transferases group 1"</title>
				<polygon class="PF00534" points="237,28 240,28 252,40 240,52 237,52" stroke-linejoin="round" width="16" height="24" fill="rgb(66,178,218)" stroke="rgb(52,142,174)" stroke-width="1" opacity="0.75" />
			</g>
		</g>
		<g>
			<title>btrL
BtrL</title>
			<polygon class="btrL
BtrL" points="257,25 287,25 287,10 317,40 287,70 287,55 257,55" fill="rgb(255,255,255)" fill-opacity="1.0" stroke="rgb(0,0,0)" stroke-width="2"  />
		</g>
		<g>
			<title>btrA
BtrA</title>
			<polygon class="btrA
BtrA" points="319,25 411,25 411,10 441,40 411,70 411,55 319,55" fill="rgb(255,255,255)" fill-opacity="1.0" stroke="rgb(0,0,0)" stroke-width="2"  />
		</g>
		<g>
			<title>btrB
possible aminotransferase</title>
			<polygon class="btrB
possible aminotransferase" points="442,25 455,25 455,10 485,40 455,70 455,55 442,55" fill="rgb(255,255,255)" fill-opacity="1.0" stroke="rgb(0,0,0)" stroke-width="2"  />
			<g>
				<title>Aminotran_3 (PF00202)
"Aminotransferase class-III"</title>
				<rect class="PF00202" x="444" y="28" stroke-linejoin="round" width="11" height="24" fill="rgb(182,63,213)" stroke="rgb(145,50,170)" stroke-width="1" opacity="0.75" />
			</g>
			<g>
				<title>Aminotran_3 (PF00202)
"Aminotransferase class-III"</title>
				<polygon class="PF00202" points="457,28 469,28 479,38 479,42 469,52 457,52" stroke-linejoin="round" width="22" height="24" fill="rgb(182,63,213)" stroke="rgb(145,50,170)" stroke-width="1" opacity="0.75" />
			</g>
		</g>
		<g>
			<title>btrC
2-deoxy-scyllo-inosose synthase</title>
			<polygon class="btrC
2-deoxy-scyllo-inosose synthase" points="486,25 492,25 492,10 522,40 492,70 492,55 486,55" fill="rgb(255,255,255)" fill-opacity="1.0" stroke="rgb(0,0,0)" stroke-width="2"  />
			<g>
				<title>DHQ_synthase (PF01761)
"3-dehydroquinate synthase"</title>
				<polygon class="PF01761" points="492,28 506,28 517,39 517,41 506,52 492,52" stroke-linejoin="round" width="25" height="24" fill="rgb(71,149,225)" stroke="rgb(56,119,180)" stroke-width="1" opacity="0.75" />
			</g>
		</g>
		<g>
			<title>btrD
BtrD</title>
			<polygon class="btrD
BtrD" points="523,10 550,40 523,70" fill="rgb(255,255,255)" fill-opacity="1.0" stroke="rgb(0,0,0)" stroke-width="2"  />
			<g>
				<title>PIG-L (PF02585)
"GlcNAc-PI de-N-acetylase"</title>
				<polygon class="PF02585" points="523,28 535,28 539,32 539,48 535,52 523,52" stroke-linejoin="round" width="16" height="24" fill="rgb(208,183,97)" stroke="rgb(166,146,77)" stroke-width="1" opacity="0.75" />
			</g>
		</g>
		<g>
			<title>btrE
possible oxidoreductase</title>
			<polygon class="btrE
possible oxidoreductase" points="551,25 556,25 556,10 586,40 556,70 556,55 551,55" fill="rgb(255,255,255)" fill-opacity="1.0" stroke="rgb(0,0,0)" stroke-width="2"  />
			<g>
				<title>ADH_zinc_N (PF00107)
"Zinc-binding dehydrogenase"</title>
				<polygon class="PF00107" points="568,28 569,28 580,39 580,41 569,52 568,52" stroke-linejoin="round" width="12" height="24" fill="rgb(79,114,198)" stroke="rgb(63,91,158)" stroke-width="1" opacity="0.75" />
			</g>
		</g>
		<g>
			<title>btrF
possible dehydrogenase</title>
			<polygon class="btrF
possible dehydrogenase" points="587,10 610,40 587,70" fill="rgb(255,255,255)" fill-opacity="1.0" stroke="rgb(0,0,0)" stroke-width="2"  />
			<g>
				<title>adh_short (PF00106)
"short chain dehydrogenase"</title>
				<polygon class="PF00106" points="587,28 597,28 606,40 606,40 597,52 587,52" stroke-linejoin="round" width="19" height="24" fill="rgb(128,81,196)" stroke="rgb(102,64,156)" stroke-width="1" opacity="0.75" />
			</g>
		</g>
		<g>
			<title>btrG
BtrG</title>
			<polygon class="btrG
BtrG" points="610,10 625,40 610,70" fill="rgb(255,255,255)" fill-opacity="1.0" stroke="rgb(0,0,0)" stroke-width="2"  />
			<g>
				<title>GGACT (PF06094)
"Gamma-glutamyl cyclotransferase, AIG2-like"</title>
				<polygon class="PF06094" points="612,28 615,28 622,40 615,52 612,52" stroke-linejoin="round" width="11" height="24" fill="rgb(65,58,181)" stroke="rgb(51,46,144)" stroke-width="1" opacity="0.75" />
			</g>
		</g>
		<g>
			<title>btrH
BtrH</title>
			<polygon class="btrH
BtrH" points="625,25 625,25 625,10 655,40 625,70 625,55 625,55" fill="rgb(255,255,255)" fill-opacity="1.0" stroke="rgb(0,0,0)" stroke-width="2"  />
			<g>
				<title>BtrH_N (PF14399)
"Butirosin biosynthesis protein H, N-terminal"</title>
				<rect class="PF14399" x="628" y="28" stroke-linejoin="round" width="10" height="24" fill="rgb(197,87,89)" stroke="rgb(157,69,71)" stroke-width="1" opacity="0.75" />
			</g>
		</g>
		<g>
			<title>btrI
possible carrier protein</title>
			<polygon class="btrI
possible carrier protein" points="658,10 666,40 658,70" fill="rgb(255,255,255)" fill-opacity="1.0" stroke="rgb(0,0,0)" stroke-width="2"  />
			<g>
				<title>PP-binding (PF00550)
"Phosphopantetheine attachment site"</title>
				<polygon class="PF00550" points="659,28 659,28 663,40 659,52 659,52" stroke-linejoin="round" width="6" height="24" fill="rgb(181,58,166)" stroke="rgb(144,46,132)" stroke-width="1" opacity="0.75" />
			</g>
		</g>
		<g>
			<title>btrJ
BtrJ</title>
			<polygon class="btrJ
BtrJ" points="667,25 679,25 679,10 709,40 679,70 679,55 667,55" fill="rgb(255,255,255)" fill-opacity="1.0" stroke="rgb(0,0,0)" stroke-width="2"  />
			<g>
				<title>ATP-grasp_3 (PF02655)
"ATP-grasp domain"</title>
				<polygon class="PF02655" points="680,28 692,28 698,34 698,46 692,52 680,52" stroke-linejoin="round" width="18" height="24" fill="rgb(187,50,137)" stroke="rgb(149,39,109)" stroke-width="1" opacity="0.75" />
			</g>
		</g>
		<g>
			<title>btrK
BtrK</title>
			<polygon class="btrK
BtrK" points="709,25 721,25 721,10 751,40 721,70 721,55 709,55" fill="rgb(255,255,255)" fill-opacity="1.0" stroke="rgb(0,0,0)" stroke-width="2"  />
			<g>
				<title>Orn_Arg_deC_N (PF02784)
"Pyridoxal-dependent decarboxylase, pyridoxal binding domain"</title>
				<polygon class="PF02784" points="711,28 735,28 736,29 736,51 735,52 711,52" stroke-linejoin="round" width="25" height="24" fill="rgb(92,174,185)" stroke="rgb(73,139,148)" stroke-width="1" opacity="0.75" />
			</g>
		</g>
		<g>
			<title>btrO
BtrO</title>
			<polygon class="btrO
BtrO" points="753,25 757,25 757,10 787,40 757,70 757,55 753,55" fill="rgb(255,255,255)" fill-opacity="1.0" stroke="rgb(0,0,0)" stroke-width="2"  />
			<g>
				<title>Bac_luciferase (PF00296)
"Luciferase-like monooxygenase"</title>
				<polygon class="PF00296" points="754,28 770,28 782,40 770,52 754,52" stroke-linejoin="round" width="30" height="24" fill="rgb(50,200,104)" stroke="rgb(40,160,83)" stroke-width="1" opacity="0.75" />
			</g>
		</g>
		<g>
			<title>btrP
BtrP</title>
			<polygon class="btrP
BtrP" points="789,10 810,40 789,70" fill="rgb(255,255,255)" fill-opacity="1.0" stroke="rgb(0,0,0)" stroke-width="2"  />
			<g>
				<title>His_Phos_1 (PF00300)
"Histidine phosphatase superfamily (branch 1)"</title>
				<polygon class="PF00300" points="789,28 798,28 806,40 798,52 789,52" stroke-linejoin="round" width="20" height="24" fill="rgb(221,146,58)" stroke="rgb(176,116,46)" stroke-width="1" opacity="0.75" />
			</g>
		</g>
		<g>
			<title>btrV
BtrV</title>
			<polygon class="btrV
BtrV" points="811,10 819,40 811,70" fill="rgb(255,255,255)" fill-opacity="1.0" stroke="rgb(0,0,0)" stroke-width="2"  />
			<g>
				<title>DUF6137 (PF19634)
"Family of unknown function (DUF6137)"</title>
				<polygon class="PF19634" points="811,28 812,28 816,40 812,52 811,52" stroke-linejoin="round" width="7" height="24" fill="rgb(209,100,123)" stroke="rgb(167,80,98)" stroke-width="1" opacity="0.75" />
			</g>
		</g>
		<g>
			<title>btrQ
possible dehydrogenase</title>
			<polygon class="btrQ
possible dehydrogenase" points="825,25 840,25 840,10 870,40 840,70 840,55 825,55" fill="rgb(255,255,255)" fill-opacity="1.0" stroke="rgb(0,0,0)" stroke-width="2"  />
			<g>
				<title>GMC_oxred_N (PF00732)
"GMC oxidoreductase"</title>
				<rect class="PF00732" x="826" y="28" stroke-linejoin="round" width="23" height="24" fill="rgb(102,94,198)" stroke="rgb(81,75,158)" stroke-width="1" opacity="0.75" />
			</g>
			<g>
				<title>GMC_oxred_C (PF05199)
"GMC oxidoreductase"</title>
				<polygon class="PF05199" points="857,31 866,40 857,49" stroke-linejoin="round" width="12" height="24" fill="rgb(206,67,222)" stroke="rgb(164,53,177)" stroke-width="1" opacity="0.75" />
			</g>
		</g>
		<g>
			<title>btrW
possible ABC transporter</title>
			<polygon class="btrW
possible ABC transporter" points="872,25 900,25 900,10 930,40 900,70 900,55 872,55" fill="rgb(255,255,255)" fill-opacity="1.0" stroke="rgb(0,0,0)" stroke-width="2"  />
			<g>
				<title>ABC_membrane (PF00664)
"ABC transporter transmembrane region"</title>
				<rect class="PF00664" x="874" y="28" stroke-linejoin="round" width="27" height="24" fill="rgb(62,71,183)" stroke="rgb(49,56,146)" stroke-width="1" opacity="0.75" />
			</g>
			<g>
				<title>ABC_tran (PF00005)
"ABC transporter"</title>
				<polygon class="PF00005" points="907,28 914,28 921,35 921,45 914,52 907,52" stroke-linejoin="round" width="14" height="24" fill="rgb(46,186,108)" stroke="rgb(36,148,86)" stroke-width="1" opacity="0.75" />
			</g>
		</g>
		<g>
			<title>btrX
possible ABC transporter</title>
			<polygon class="btrX
possible ABC transporter" points="931,25 946,25 946,10 976,40 946,70 946,55 931,55" fill="rgb(255,255,255)" fill-opacity="1.0" stroke="rgb(0,0,0)" stroke-width="2"  />
			<g>
				<title>ABC_membrane (PF00664)
"ABC transporter transmembrane region"</title>
				<polygon class="PF00664" points="942,28 960,28 968,36 968,44 960,52 942,52" stroke-linejoin="round" width="26" height="24" fill="rgb(62,71,183)" stroke="rgb(49,56,146)" stroke-width="1" opacity="0.75" />
			</g>
		</g>
	</g>
</svg>
