<svg version="1.1" baseProfile="full" xmlns="http://www.w3.org/2000/svg" width="1232.0666666666666" height="80">
	<g>
		<line x1="10" y1="40.0" x2="1222.0666666666666" y2="40.0" style="stroke:rgb(70,70,70); stroke-width:3 "/>
		<g>
			<title>h16_B1676 (H16_B1676)
hypothetical membrane spanning protein</title>
			<polygon class="h16_B1676 (H16_B1676)
hypothetical membrane spanning protein" points="10,40 21,10 21,70" fill="rgb(255,255,255)" fill-opacity="1.0" stroke="rgb(0,0,0)" stroke-width="2"  />
			<g>
				<title>DUF3325 (PF11804)
"Protein of unknown function (DUF3325)"</title>
				<polygon class="PF11804" points="13,40 18,28 20,28 20,52 18,52" stroke-linejoin="round" width="10" height="24" fill="rgb(193,57,156)" stroke="rgb(154,45,124)" stroke-width="1" opacity="0.75" />
			</g>
		</g>
		<g>
			<title>h16_B1677 (H16_B1677)
iron regulated protein</title>
			<polygon class="h16_B1677 (H16_B1677)
iron regulated protein" points="74,25 50,25 50,10 20,40 50,70 50,55 74,55" fill="rgb(255,255,255)" fill-opacity="1.0" stroke="rgb(0,0,0)" stroke-width="2"  />
			<g>
				<title>PepSY_TM (PF03929)
"PepSY-associated TM region"</title>
				<polygon class="PF03929" points="36,28 36,28 71,28 71,52 36,52 36,52" stroke-linejoin="round" width="35" height="24" fill="rgb(63,204,143)" stroke="rgb(50,163,114)" stroke-width="1" opacity="0.75" />
			</g>
		</g>
		<g>
			<title>h16_B1678 (H16_B1678)
Hypothetical protein</title>
			<polygon class="h16_B1678 (H16_B1678)
Hypothetical protein" points="75,40 87,10 87,70" fill="rgb(255,255,255)" fill-opacity="1.0" stroke="rgb(0,0,0)" stroke-width="2"  />
		</g>
		<g>
			<title>fhuE (H16_B1679)
outer membrane receptor, TonB dependent</title>
			<polygon class="fhuE (H16_B1679)
outer membrane receptor, TonB dependent" points="164,25 118,25 118,10 88,40 118,70 118,55 164,55" fill="rgb(255,255,255)" fill-opacity="1.0" stroke="rgb(0,0,0)" stroke-width="2"  />
			<g>
				<title>TonB_dep_Rec (PF00593)
"TonB dependent receptor"</title>
				<polygon class="PF00593" points="92,40 104,28 134,28 134,52 104,52" stroke-linejoin="round" width="43" height="24" fill="rgb(67,93,202)" stroke="rgb(53,74,161)" stroke-width="1" opacity="0.75" />
			</g>
			<g>
				<title>Plug (PF07715)
"TonB-dependent Receptor Plug Domain"</title>
				<rect class="PF07715" x="144" y="28" stroke-linejoin="round" width="10" height="24" fill="rgb(66,186,52)" stroke="rgb(52,148,41)" stroke-width="1" opacity="0.75" />
			</g>
		</g>
		<g>
			<title>pvdA (H16_B1680)
Lysine/ornithine N-monooxygenase</title>
			<polygon class="pvdA (H16_B1680)
Lysine/ornithine N-monooxygenase" points="213,25 197,25 197,10 167,40 197,70 197,55 213,55" fill="rgb(255,255,255)" fill-opacity="1.0" stroke="rgb(0,0,0)" stroke-width="2"  />
			<g>
				<title>Lys_Orn_oxgnase (PF13434)
"L-lysine 6-monooxygenase/L-ornithine 5-monooxygenase"</title>
				<polygon class="PF13434" points="176,35 183,28 210,28 210,52 183,52 176,45" stroke-linejoin="round" width="34" height="24" fill="rgb(99,202,176)" stroke="rgb(79,161,140)" stroke-width="1" opacity="0.75" />
			</g>
		</g>
		<g>
			<title>h16_B1681 (H16_B1681)
siderophore biosynthesis related protein/Acetyltransferase or N-acetylase of ribosomal proteins (CO</title>
			<polygon class="h16_B1681 (H16_B1681)
siderophore biosynthesis related protein/Acetyltransferase or N-acetylase of ribosomal proteins (CO" points="251,25 245,25 245,10 215,40 245,70 245,55 251,55" fill="rgb(255,255,255)" fill-opacity="1.0" stroke="rgb(0,0,0)" stroke-width="2"  />
			<g>
				<title>Acetyltransf_8 (PF13523)
"Acetyltransferase (GNAT) domain"</title>
				<polygon class="PF13523" points="219,40 231,28 233,28 233,52 231,52 219,40" stroke-linejoin="round" width="14" height="24" fill="rgb(73,197,73)" stroke="rgb(58,157,58)" stroke-width="1" opacity="0.75" />
			</g>
		</g>
		<g>
			<title>h16_B1682 (H16_B1682)
ABC-type transporter, ATPase and permease components: Pep3E family</title>
			<polygon class="h16_B1682 (H16_B1682)
ABC-type transporter, ATPase and permease components: Pep3E family" points="309,25 283,25 283,10 253,40 283,70 283,55 309,55" fill="rgb(255,255,255)" fill-opacity="1.0" stroke="rgb(0,0,0)" stroke-width="2"  />
			<g>
				<title>ABC_tran (PF00005)
"ABC transporter"</title>
				<polygon class="PF00005" points="260,37 269,28 273,28 273,52 269,52 260,43" stroke-linejoin="round" width="13" height="24" fill="rgb(46,186,108)" stroke="rgb(36,148,86)" stroke-width="1" opacity="0.75" />
			</g>
			<g>
				<title>ABC_membrane (PF00664)
"ABC transporter transmembrane region"</title>
				<rect class="PF00664" x="281" y="28" stroke-linejoin="round" width="26" height="24" fill="rgb(62,71,183)" stroke="rgb(49,56,146)" stroke-width="1" opacity="0.75" />
			</g>
		</g>
		<g>
			<title>h16_B1683 (H16_B1683)
Non-ribosomal peptide synthetase modules and related proteins</title>
			<polygon class="h16_B1683 (H16_B1683)
Non-ribosomal peptide synthetase modules and related proteins" points="416,25 339,25 339,10 309,40 339,70 339,55 416,55" fill="rgb(255,255,255)" fill-opacity="1.0" stroke="rgb(0,0,0)" stroke-width="2"  />
			<g>
				<title>PP-binding (PF00550)
"Phosphopantetheine attachment site"</title>
				<polygon class="PF00550" points="313,40 317,36 317,44" stroke-linejoin="round" width="6" height="24" fill="rgb(181,58,166)" stroke="rgb(144,46,132)" stroke-width="1" opacity="0.75" />
			</g>
			<g>
				<title>AMP-binding_C (PF13193)
"AMP-binding enzyme C-terminal domain"</title>
				<polygon class="PF13193" points="320,33 325,28 327,28 327,52 325,52 320,47" stroke-linejoin="round" width="7" height="24" fill="rgb(195,82,106)" stroke="rgb(156,65,84)" stroke-width="1" opacity="0.75" />
			</g>
			<g>
				<title>AMP-binding (PF00501)
"AMP-binding enzyme"</title>
				<rect class="PF00501" x="334" y="28" stroke-linejoin="round" width="34" height="24" fill="rgb(189,78,204)" stroke="rgb(151,62,163)" stroke-width="1" opacity="0.75" />
			</g>
			<g>
				<title>Condensation (PF00668)
"Condensation domain"</title>
				<rect class="PF00668" x="370" y="28" stroke-linejoin="round" width="44" height="24" fill="rgb(172,217,60)" stroke="rgb(137,173,47)" stroke-width="1" opacity="0.75" />
			</g>
		</g>
		<g>
			<title>fhuF (H16_B1684)
putative iron transport-related membrane protein</title>
			<polygon class="fhuF (H16_B1684)
putative iron transport-related membrane protein" points="424,10 449,40 424,70" fill="rgb(255,255,255)" fill-opacity="1.0" stroke="rgb(0,0,0)" stroke-width="2"  />
			<g>
				<title>FhuF (PF06276)
"Ferric iron reductase FhuF-like transporter"</title>
				<polygon class="PF06276" points="430,28 435,28 445,40 445,40 435,52 430,52" stroke-linejoin="round" width="15" height="24" fill="rgb(88,189,147)" stroke="rgb(70,151,117)" stroke-width="1" opacity="0.75" />
			</g>
			<g>
				<title>FhuF_C (PF11575)
"FhuF 2Fe-2S C-terminal domain"</title>
				<polygon class="PF11575" points="446,40 445,40 446,40" stroke-linejoin="round" width="2" height="24" fill="rgb(183,71,188)" stroke="rgb(146,56,150)" stroke-width="1" opacity="0.75" />
			</g>
		</g>
		<g>
			<title>nrpC (H16_B1685)
Non-ribosomal peptide synthetase</title>
			<polygon class="nrpC (H16_B1685)
Non-ribosomal peptide synthetase" points="650,25 480,25 480,10 450,40 480,70 480,55 650,55" fill="rgb(255,255,255)" fill-opacity="1.0" stroke="rgb(0,0,0)" stroke-width="2"  />
			<g>
				<title>Condensation (PF00668)
"Condensation domain"</title>
				<polygon class="PF00668" points="454,40 466,28 494,28 494,52 466,52" stroke-linejoin="round" width="43" height="24" fill="rgb(172,217,60)" stroke="rgb(137,173,47)" stroke-width="1" opacity="0.75" />
			</g>
			<g>
				<title>Condensation (PF00668)
"Condensation domain"</title>
				<rect class="PF00668" x="496" y="28" stroke-linejoin="round" width="44" height="24" fill="rgb(172,217,60)" stroke="rgb(137,173,47)" stroke-width="1" opacity="0.75" />
			</g>
			<g>
				<title>PP-binding (PF00550)
"Phosphopantetheine attachment site"</title>
				<rect class="PF00550" x="542" y="28" stroke-linejoin="round" width="6" height="24" fill="rgb(181,58,166)" stroke="rgb(144,46,132)" stroke-width="1" opacity="0.75" />
			</g>
			<g>
				<title>AMP-binding_C (PF13193)
"AMP-binding enzyme C-terminal domain"</title>
				<rect class="PF13193" x="551" y="28" stroke-linejoin="round" width="7" height="24" fill="rgb(195,82,106)" stroke="rgb(156,65,84)" stroke-width="1" opacity="0.75" />
			</g>
			<g>
				<title>AMP-binding (PF00501)
"AMP-binding enzyme"</title>
				<rect class="PF00501" x="564" y="28" stroke-linejoin="round" width="35" height="24" fill="rgb(189,78,204)" stroke="rgb(151,62,163)" stroke-width="1" opacity="0.75" />
			</g>
			<g>
				<title>Condensation (PF00668)
"Condensation domain"</title>
				<rect class="PF00668" x="601" y="28" stroke-linejoin="round" width="44" height="24" fill="rgb(172,217,60)" stroke="rgb(137,173,47)" stroke-width="1" opacity="0.75" />
			</g>
		</g>
		<g>
			<title>nrpB (H16_B1686)
Non-ribosomal peptide synthetase</title>
			<polygon class="nrpB (H16_B1686)
Non-ribosomal peptide synthetase" points="755,25 682,25 682,10 652,40 682,70 682,55 755,55" fill="rgb(255,255,255)" fill-opacity="1.0" stroke="rgb(0,0,0)" stroke-width="2"  />
			<g>
				<title>PP-binding (PF00550)
"Phosphopantetheine attachment site"</title>
				<polygon class="PF00550" points="656,40 660,36 660,44" stroke-linejoin="round" width="6" height="24" fill="rgb(181,58,166)" stroke="rgb(144,46,132)" stroke-width="1" opacity="0.75" />
			</g>
			<g>
				<title>AMP-binding_C (PF13193)
"AMP-binding enzyme C-terminal domain"</title>
				<polygon class="PF13193" points="664,32 668,28 671,28 671,52 668,52 664,48" stroke-linejoin="round" width="7" height="24" fill="rgb(195,82,106)" stroke="rgb(156,65,84)" stroke-width="1" opacity="0.75" />
			</g>
			<g>
				<title>AMP-binding (PF00501)
"AMP-binding enzyme"</title>
				<rect class="PF00501" x="677" y="28" stroke-linejoin="round" width="34" height="24" fill="rgb(189,78,204)" stroke="rgb(151,62,163)" stroke-width="1" opacity="0.75" />
			</g>
			<g>
				<title>Condensation (PF00668)
"Condensation domain"</title>
				<rect class="PF00668" x="724" y="28" stroke-linejoin="round" width="15" height="24" fill="rgb(172,217,60)" stroke="rgb(137,173,47)" stroke-width="1" opacity="0.75" />
			</g>
		</g>
		<g>
			<title>nrpA (H16_B1687)
Non-ribosomal peptide synthetase</title>
			<polygon class="nrpA (H16_B1687)
Non-ribosomal peptide synthetase" points="1064,25 785,25 785,10 755,40 785,70 785,55 1064,55" fill="rgb(255,255,255)" fill-opacity="1.0" stroke="rgb(0,0,0)" stroke-width="2"  />
			<g>
				<title>TauD (PF02668)
"Taurine catabolism dioxygenase TauD, TfdA family"</title>
				<polygon class="PF02668" points="759,40 771,28 787,28 787,52 771,52" stroke-linejoin="round" width="30" height="24" fill="rgb(72,206,196)" stroke="rgb(57,164,156)" stroke-width="1" opacity="0.75" />
			</g>
			<g>
				<title>Condensation (PF00668)
"Condensation domain"</title>
				<rect class="PF00668" x="793" y="28" stroke-linejoin="round" width="44" height="24" fill="rgb(172,217,60)" stroke="rgb(137,173,47)" stroke-width="1" opacity="0.75" />
			</g>
			<g>
				<title>PP-binding (PF00550)
"Phosphopantetheine attachment site"</title>
				<rect class="PF00550" x="840" y="28" stroke-linejoin="round" width="6" height="24" fill="rgb(181,58,166)" stroke="rgb(144,46,132)" stroke-width="1" opacity="0.75" />
			</g>
			<g>
				<title>AMP-binding_C (PF13193)
"AMP-binding enzyme C-terminal domain"</title>
				<rect class="PF13193" x="849" y="28" stroke-linejoin="round" width="7" height="24" fill="rgb(195,82,106)" stroke="rgb(156,65,84)" stroke-width="1" opacity="0.75" />
			</g>
			<g>
				<title>AMP-binding (PF00501)
"AMP-binding enzyme"</title>
				<rect class="PF00501" x="862" y="28" stroke-linejoin="round" width="35" height="24" fill="rgb(189,78,204)" stroke="rgb(151,62,163)" stroke-width="1" opacity="0.75" />
			</g>
			<g>
				<title>Condensation (PF00668)
"Condensation domain"</title>
				<rect class="PF00668" x="900" y="28" stroke-linejoin="round" width="44" height="24" fill="rgb(172,217,60)" stroke="rgb(137,173,47)" stroke-width="1" opacity="0.75" />
			</g>
			<g>
				<title>PP-binding (PF00550)
"Phosphopantetheine attachment site"</title>
				<rect class="PF00550" x="948" y="28" stroke-linejoin="round" width="6" height="24" fill="rgb(181,58,166)" stroke="rgb(144,46,132)" stroke-width="1" opacity="0.75" />
			</g>
			<g>
				<title>PP-binding (PF00550)
"Phosphopantetheine attachment site"</title>
				<rect class="PF00550" x="956" y="28" stroke-linejoin="round" width="6" height="24" fill="rgb(181,58,166)" stroke="rgb(144,46,132)" stroke-width="1" opacity="0.75" />
			</g>
			<g>
				<title>AMP-binding_C (PF13193)
"AMP-binding enzyme C-terminal domain"</title>
				<rect class="PF13193" x="965" y="28" stroke-linejoin="round" width="7" height="24" fill="rgb(195,82,106)" stroke="rgb(156,65,84)" stroke-width="1" opacity="0.75" />
			</g>
			<g>
				<title>AMP-binding (PF00501)
"AMP-binding enzyme"</title>
				<rect class="PF00501" x="978" y="28" stroke-linejoin="round" width="34" height="24" fill="rgb(189,78,204)" stroke="rgb(151,62,163)" stroke-width="1" opacity="0.75" />
			</g>
			<g>
				<title>Condensation (PF00668)
"Condensation domain"</title>
				<rect class="PF00668" x="1015" y="28" stroke-linejoin="round" width="43" height="24" fill="rgb(172,217,60)" stroke="rgb(137,173,47)" stroke-width="1" opacity="0.75" />
			</g>
		</g>
		<g>
			<title>h16_B1688 (H16_B1688)
pyoverdine biosynthesis regulatory gene</title>
			<polygon class="h16_B1688 (H16_B1688)
pyoverdine biosynthesis regulatory gene" points="1103,25 1098,25 1098,10 1068,40 1098,70 1098,55 1103,55" fill="rgb(255,255,255)" fill-opacity="1.0" stroke="rgb(0,0,0)" stroke-width="2"  />
			<g>
				<title>TauD (PF02668)
"Taurine catabolism dioxygenase TauD, TfdA family"</title>
				<polygon class="PF02668" points="1072,40 1084,28 1097,28 1097,52 1084,52" stroke-linejoin="round" width="28" height="24" fill="rgb(72,206,196)" stroke="rgb(57,164,156)" stroke-width="1" opacity="0.75" />
			</g>
		</g>
		<g>
			<title>mbtH (H16_B1689)
Antibiotic/siderophore biosynthesis protein</title>
			<polygon class="mbtH (H16_B1689)
Antibiotic/siderophore biosynthesis protein" points="1113,10 1119,40 1113,70" fill="rgb(255,255,255)" fill-opacity="1.0" stroke="rgb(0,0,0)" stroke-width="2"  />
			<g>
				<title>MbtH (PF03621)
"MbtH-like protein"</title>
				<polygon class="PF03621" points="1113,28 1113,28 1116,40 1113,52 1113,52" stroke-linejoin="round" width="4" height="24" fill="rgb(102,212,116)" stroke="rgb(81,169,92)" stroke-width="1" opacity="0.75" />
			</g>
		</g>
		<g>
			<title>h16_B1690 (H16_B1690)
Thioesterase</title>
			<polygon class="h16_B1690 (H16_B1690)
Thioesterase" points="1120,10 1147,40 1120,70" fill="rgb(255,255,255)" fill-opacity="1.0" stroke="rgb(0,0,0)" stroke-width="2"  />
			<g>
				<title>Thioesterase (PF00975)
"Thioesterase domain"</title>
				<polygon class="PF00975" points="1122,28 1131,28 1143,40 1131,52 1122,52" stroke-linejoin="round" width="22" height="24" fill="rgb(69,76,223)" stroke="rgb(55,60,178)" stroke-width="1" opacity="0.75" />
			</g>
		</g>
		<g>
			<title>h16_B1691 (H16_B1691)
phosphopantetheinyltransferase family protein</title>
			<polygon class="h16_B1691 (H16_B1691)
phosphopantetheinyltransferase family protein" points="1146,10 1173,40 1146,70" fill="rgb(255,255,255)" fill-opacity="1.0" stroke="rgb(0,0,0)" stroke-width="2"  />
			<g>
				<title>ACPS (PF01648)
"4'-phosphopantetheinyl transferase superfamily"</title>
				<polygon class="PF01648" points="1157,28 1158,28 1168,39 1168,41 1158,52 1157,52" stroke-linejoin="round" width="11" height="24" fill="rgb(58,190,78)" stroke="rgb(46,152,62)" stroke-width="1" opacity="0.75" />
			</g>
		</g>
		<g>
			<title>h16_B1692 (H16_B1692)
putative aminotransferase</title>
			<polygon class="h16_B1692 (H16_B1692)
putative aminotransferase" points="1174,25 1191,25 1191,10 1221,40 1191,70 1191,55 1174,55" fill="rgb(255,255,255)" fill-opacity="1.0" stroke="rgb(0,0,0)" stroke-width="2"  />
			<g>
				<title>Aminotran_3 (PF00202)
"Aminotransferase class-III"</title>
				<polygon class="PF00202" points="1178,28 1205,28 1217,40 1205,52 1178,52" stroke-linejoin="round" width="42" height="24" fill="rgb(182,63,213)" stroke="rgb(145,50,170)" stroke-width="1" opacity="0.75" />
			</g>
		</g>
	</g>
</svg>
