<svg version="1.1" baseProfile="full" xmlns="http://www.w3.org/2000/svg" width="291.23333333333335" height="80">
	<g>
		<line x1="10" y1="40.0" x2="281.23333333333335" y2="40.0" style="stroke:rgb(70,70,70); stroke-width:3 "/>
		<g>
			<title>phlH
PhlH</title>
			<polygon class="phlH
PhlH" points="10,40 32,10 32,70" fill="rgb(255,255,255)" fill-opacity="1.0" stroke="rgb(0,0,0)" stroke-width="2"  />
			<g>
				<title>CecR_C (PF09209)
"HTH-type transcriptional dual regulator CecR, C-terminal domain"</title>
				<polygon class="PF09209" points="14,40 22,29 22,51" stroke-linejoin="round" width="11" height="24" fill="rgb(211,70,191)" stroke="rgb(168,56,152)" stroke-width="1" opacity="0.75" />
			</g>
			<g>
				<title>TetR_N (PF00440)
"Bacterial regulatory proteins, tetR family"</title>
				<rect class="PF00440" x="25" y="28" stroke-linejoin="round" width="4" height="24" fill="rgb(148,50,185)" stroke="rgb(118,40,148)" stroke-width="1" opacity="0.75" />
			</g>
		</g>
		<g>
			<title>phlG
PhlG</title>
			<polygon class="phlG
PhlG" points="36,25 36,25 36,10 66,40 36,70 36,55 36,55" fill="rgb(255,255,255)" fill-opacity="1.0" stroke="rgb(0,0,0)" stroke-width="2"  />
			<g>
				<title>DAPG_hydrolase (PF18089)
"DAPG hydrolase PhiG domain"</title>
				<polygon class="PF18089" points="43,28 50,28 62,40 50,52 43,52" stroke-linejoin="round" width="22" height="24" fill="rgb(157,220,107)" stroke="rgb(125,176,85)" stroke-width="1" opacity="0.75" />
			</g>
		</g>
		<g>
			<title>phlF
PhlF</title>
			<polygon class="phlF
PhlF" points="67,40 87,10 87,70" fill="rgb(255,255,255)" fill-opacity="1.0" stroke="rgb(0,0,0)" stroke-width="2"  />
			<g>
				<title>TetR_C_11 (PF16859)
"Tetracyclin repressor-like, C-terminal domain"</title>
				<polygon class="PF16859" points="71,40 79,28 79,28 79,52 79,52" stroke-linejoin="round" width="10" height="24" fill="rgb(170,197,93)" stroke="rgb(136,157,74)" stroke-width="1" opacity="0.75" />
			</g>
			<g>
				<title>TetR_N (PF00440)
"Bacterial regulatory proteins, tetR family"</title>
				<rect class="PF00440" x="81" y="28" stroke-linejoin="round" width="4" height="24" fill="rgb(148,50,185)" stroke="rgb(118,40,148)" stroke-width="1" opacity="0.75" />
			</g>
		</g>
		<g>
			<title>phlA
PhlA</title>
			<polygon class="phlA
PhlA" points="102,25 108,25 108,10 138,40 108,70 108,55 102,55" fill="rgb(255,255,255)" fill-opacity="1.0" stroke="rgb(0,0,0)" stroke-width="2"  />
			<g>
				<title>ACP_syn_III (PF08545)
"3-Oxoacyl-[acyl-carrier-protein (ACP)] synthase III"</title>
				<rect class="PF08545" x="112" y="28" stroke-linejoin="round" width="7" height="24" fill="rgb(93,213,73)" stroke="rgb(74,170,58)" stroke-width="1" opacity="0.75" />
			</g>
		</g>
		<g>
			<title>phlC
PhlC</title>
			<polygon class="phlC
PhlC" points="139,25 148,25 148,10 178,40 148,70 148,55 139,55" fill="rgb(255,255,255)" fill-opacity="1.0" stroke="rgb(0,0,0)" stroke-width="2"  />
			<g>
				<title>Thiolase_N (PF00108)
"Thiolase, N-terminal domain"</title>
				<rect class="PF00108" x="139" y="28" stroke-linejoin="round" width="17" height="24" fill="rgb(208,68,98)" stroke="rgb(166,54,78)" stroke-width="1" opacity="0.75" />
			</g>
		</g>
		<g>
			<title>phlB
PhlB</title>
			<polygon class="phlB
PhlB" points="179,10 193,40 179,70" fill="rgb(255,255,255)" fill-opacity="1.0" stroke="rgb(0,0,0)" stroke-width="2"  />
			<g>
				<title>DUF35_N (PF12172)
"Rubredoxin-like zinc ribbon domain (DUF35_N)"</title>
				<rect class="PF12172" x="181" y="28" stroke-linejoin="round" width="3" height="24" fill="rgb(161,46,181)" stroke="rgb(128,36,144)" stroke-width="1" opacity="0.75" />
			</g>
			<g>
				<title>OB_aCoA_assoc (PF01796)
"DUF35 OB-fold domain, acyl-CoA-associated"</title>
				<polygon class="PF01796" points="185,30 190,40 185,50" stroke-linejoin="round" width="6" height="24" fill="rgb(82,212,228)" stroke="rgb(65,169,182)" stroke-width="1" opacity="0.75" />
			</g>
		</g>
		<g>
			<title>phlD
PhlD</title>
			<polygon class="phlD
PhlD" points="198,25 204,25 204,10 234,40 204,70 204,55 198,55" fill="rgb(255,255,255)" fill-opacity="1.0" stroke="rgb(0,0,0)" stroke-width="2"  />
			<g>
				<title>Chal_sti_synt_N (PF00195)
"Chalcone and stilbene synthases, N-terminal domain"</title>
				<polygon class="PF00195" points="199,28 218,28 219,29 219,51 218,52 199,52" stroke-linejoin="round" width="20" height="24" fill="rgb(102,206,179)" stroke="rgb(81,164,143)" stroke-width="1" opacity="0.75" />
			</g>
			<g>
				<title>Chal_sti_synt_C (PF02797)
"Chalcone and stilbene synthases, C-terminal domain"</title>
				<polygon class="PF02797" points="220,30 230,40 220,50" stroke-linejoin="round" width="14" height="24" fill="rgb(210,123,55)" stroke="rgb(168,98,44)" stroke-width="1" opacity="0.75" />
			</g>
		</g>
		<g>
			<title>phlE
PhlE</title>
			<polygon class="phlE
PhlE" points="238,25 250,25 250,10 280,40 250,70 250,55 238,55" fill="rgb(255,255,255)" fill-opacity="1.0" stroke="rgb(0,0,0)" stroke-width="2"  />
			<g>
				<title>MFS_1 (PF07690)
"Major Facilitator Superfamily"</title>
				<polygon class="PF07690" points="240,28 264,28 273,37 273,43 264,52 240,52" stroke-linejoin="round" width="33" height="24" fill="rgb(228,207,98)" stroke="rgb(182,165,78)" stroke-width="1" opacity="0.75" />
			</g>
		</g>
	</g>
</svg>
