<svg version="1.1" baseProfile="full" xmlns="http://www.w3.org/2000/svg" width="946.0333333333333" height="160">
	<g>
		<line x1="10" y1="40.0" x2="936.0333333333333" y2="40.0" style="stroke:rgb(70,70,70); stroke-width:3 "/>
		<g>
			<title> (IE98_RS0115465)
halogenase</title>
			<polygon class=" (IE98_RS0115465)
halogenase" points="10,25 29,25 29,10 59,40 29,70 29,55 10,55" fill="rgb(255,255,255)" fill-opacity="1.0" stroke="rgb(0,0,0)" stroke-width="2"  />
			<g>
				<title>Trp_halogenase (PF04820)
"Tryptophan halogenase"</title>
				<polygon class="PF04820" points="19,28 43,28 49,34 49,46 43,52 19,52" stroke-linejoin="round" width="30" height="24" fill="rgb(175,201,66)" stroke="rgb(139,160,52)" stroke-width="1" opacity="0.75" />
			</g>
		</g>
		<g>
			<title> (IE98_RS0115470)
sodium:proton exchanger</title>
			<polygon class=" (IE98_RS0115470)
sodium:proton exchanger" points="70,25 81,25 81,10 111,40 81,70 81,55 70,55" fill="rgb(255,255,255)" fill-opacity="1.0" stroke="rgb(0,0,0)" stroke-width="2"  />
			<g>
				<title>Na_H_Exchanger (PF00999)
"Sodium/hydrogen exchanger family"</title>
				<polygon class="PF00999" points="71,28 95,28 107,40 95,52 71,52" stroke-linejoin="round" width="37" height="24" fill="rgb(95,122,202)" stroke="rgb(76,97,161)" stroke-width="1" opacity="0.75" />
			</g>
		</g>
		<g>
			<title> (IE98_RS0115475)
hypothetical protein</title>
			<polygon class=" (IE98_RS0115475)
hypothetical protein" points="114,40 138,10 138,70" fill="rgb(255,255,255)" fill-opacity="1.0" stroke="rgb(0,0,0)" stroke-width="2"  />
			<g>
				<title>TetR_C_1 (PF02909)
"Tetracyclin repressor-like, C-terminal domain"</title>
				<polygon class="PF02909" points="118,40 128,28 129,28 129,52 128,52" stroke-linejoin="round" width="15" height="24" fill="rgb(95,107,214)" stroke="rgb(76,85,171)" stroke-width="1" opacity="0.75" />
			</g>
			<g>
				<title>TetR_N (PF00440)
"Bacterial regulatory proteins, tetR family"</title>
				<rect class="PF00440" x="130" y="28" stroke-linejoin="round" width="4" height="24" fill="rgb(148,50,185)" stroke="rgb(118,40,148)" stroke-width="1" opacity="0.75" />
			</g>
		</g>
		<g>
			<title> (IE98_RS0115480)
hypothetical protein</title>
			<polygon class=" (IE98_RS0115480)
hypothetical protein" points="144,25 166,25 166,10 196,40 166,70 166,55 144,55" fill="rgb(255,255,255)" fill-opacity="1.0" stroke="rgb(0,0,0)" stroke-width="2"  />
			<g>
				<title>MFS_1 (PF07690)
"Major Facilitator Superfamily"</title>
				<polygon class="PF07690" points="145,28 180,28 184,32 184,48 180,52 145,52" stroke-linejoin="round" width="39" height="24" fill="rgb(228,207,98)" stroke="rgb(182,165,78)" stroke-width="1" opacity="0.75" />
			</g>
		</g>
		<g>
			<title> (IE98_RS42480)
hypothetical protein</title>
			<polygon class=" (IE98_RS42480)
hypothetical protein" points="208,25 220,25 220,10 250,40 220,70 220,55 208,55" fill="rgb(255,255,255)" fill-opacity="1.0" stroke="rgb(0,0,0)" stroke-width="2"  />
			<g>
				<title>Transferase (PF02458)
"Transferase family"</title>
				<polygon class="PF02458" points="208,28 234,28 244,38 244,42 234,52 208,52" stroke-linejoin="round" width="36" height="24" fill="rgb(183,146,88)" stroke="rgb(146,116,70)" stroke-width="1" opacity="0.75" />
			</g>
		</g>
		<g>
			<title> (IE98_RS0115490)
polyketide-8 synthase ACP</title>
			<polygon class=" (IE98_RS0115490)
polyketide-8 synthase ACP" points="255,10 263,40 255,70" fill="rgb(255,255,255)" fill-opacity="1.0" stroke="rgb(0,0,0)" stroke-width="2"  />
			<g>
				<title>PP-binding (PF00550)
"Phosphopantetheine attachment site"</title>
				<polygon class="PF00550" points="256,28 256,28 260,40 256,52 256,52" stroke-linejoin="round" width="6" height="24" fill="rgb(181,58,166)" stroke="rgb(144,46,132)" stroke-width="1" opacity="0.75" />
			</g>
		</g>
		<g>
			<title> (IE98_RS0115495)
hypothetical protein</title>
			<polygon class=" (IE98_RS0115495)
hypothetical protein" points="263,25 269,25 269,10 299,40 269,70 269,55 263,55" fill="rgb(255,255,255)" fill-opacity="1.0" stroke="rgb(0,0,0)" stroke-width="2"  />
			<g>
				<title>ketoacyl-synt (PF00109)
"Beta-ketoacyl synthase, N-terminal domain"</title>
				<polygon class="PF00109" points="264,28 282,28 286,32 286,48 282,52 264,52" stroke-linejoin="round" width="22" height="24" fill="rgb(74,179,82)" stroke="rgb(59,143,65)" stroke-width="1" opacity="0.75" />
			</g>
		</g>
		<g>
			<title> (IE98_RS0115500)
3-oxoacyl-ACP synthase</title>
			<polygon class=" (IE98_RS0115500)
3-oxoacyl-ACP synthase" points="303,25 314,25 314,10 344,40 314,70 314,55 303,55" fill="rgb(255,255,255)" fill-opacity="1.0" stroke="rgb(0,0,0)" stroke-width="2"  />
			<g>
				<title>ketoacyl-synt (PF00109)
"Beta-ketoacyl synthase, N-terminal domain"</title>
				<rect class="PF00109" x="304" y="28" stroke-linejoin="round" width="23" height="24" fill="rgb(74,179,82)" stroke="rgb(59,143,65)" stroke-width="1" opacity="0.75" />
			</g>
			<g>
				<title>Ketoacyl-synt_C (PF02801)
"Beta-ketoacyl synthase, C-terminal domain"</title>
				<polygon class="PF02801" points="328,28 328,28 339,39 339,41 328,52 328,52" stroke-linejoin="round" width="11" height="24" fill="rgb(212,79,72)" stroke="rgb(169,63,57)" stroke-width="1" opacity="0.75" />
			</g>
		</g>
		<g>
			<title> (IE98_RS0115505)
aldo/keto reductase</title>
			<polygon class=" (IE98_RS0115505)
aldo/keto reductase" points="346,25 350,25 350,10 380,40 350,70 350,55 346,55" fill="rgb(255,255,255)" fill-opacity="1.0" stroke="rgb(0,0,0)" stroke-width="2"  />
			<g>
				<title>Aldo_ket_red (PF00248)
"Aldo/keto reductase family"</title>
				<polygon class="PF00248" points="347,28 364,28 376,40 376,40 364,52 347,52" stroke-linejoin="round" width="29" height="24" fill="rgb(96,196,138)" stroke="rgb(76,156,110)" stroke-width="1" opacity="0.75" />
			</g>
		</g>
		<g>
			<title> (IE98_RS0115510)
hypothetical protein</title>
			<polygon class=" (IE98_RS0115510)
hypothetical protein" points="383,25 391,25 391,10 421,40 391,70 391,55 383,55" fill="rgb(255,255,255)" fill-opacity="1.0" stroke="rgb(0,0,0)" stroke-width="2"  />
			<g>
				<title>EryCIII-like_N (PF21036)
"Erythromycin biosynthesis protein CIII-like, N-terminal domain"</title>
				<rect class="PF21036" x="385" y="28" stroke-linejoin="round" width="19" height="24" fill="rgb(205,88,112)" stroke="rgb(164,70,89)" stroke-width="1" opacity="0.75" />
			</g>
			<g>
				<title>EryCIII-like_C (PF06722)
"Erythromycin biosynthesis protein CIII-like, C-terminal domain"</title>
				<polygon class="PF06722" points="407,30 417,40 407,50" stroke-linejoin="round" width="14" height="24" fill="rgb(48,103,191)" stroke="rgb(38,82,152)" stroke-width="1" opacity="0.75" />
			</g>
		</g>
		<g>
			<title> (IE98_RS0115515)
NDP-hexose 4-ketoreductase</title>
			<polygon class=" (IE98_RS0115515)
NDP-hexose 4-ketoreductase" points="422,10 447,40 422,70" fill="rgb(255,255,255)" fill-opacity="1.0" stroke="rgb(0,0,0)" stroke-width="2"  />
			<g>
				<title>Epimerase (PF01370)
"NAD dependent epimerase/dehydratase family"</title>
				<polygon class="PF01370" points="423,28 433,28 439,35 439,45 433,52 423,52" stroke-linejoin="round" width="16" height="24" fill="rgb(215,89,157)" stroke="rgb(172,71,125)" stroke-width="1" opacity="0.75" />
			</g>
		</g>
		<g>
			<title> (IE98_RS0115520)
oxidoreductase</title>
			<polygon class=" (IE98_RS0115520)
oxidoreductase" points="448,25 449,25 449,10 479,40 449,70 449,55 448,55" fill="rgb(255,255,255)" fill-opacity="1.0" stroke="rgb(0,0,0)" stroke-width="2"  />
			<g>
				<title>GFO_IDH_MocA (PF01408)
"Oxidoreductase family, NAD-binding Rossmann fold"</title>
				<rect class="PF01408" x="448" y="28" stroke-linejoin="round" width="11" height="24" fill="rgb(53,193,178)" stroke="rgb(42,154,142)" stroke-width="1" opacity="0.75" />
			</g>
		</g>
		<g>
			<title> (IE98_RS0115525)
hypothetical protein</title>
			<polygon class=" (IE98_RS0115525)
hypothetical protein" points="479,25 480,25 480,10 510,40 480,70 480,55 479,55" fill="rgb(255,255,255)" fill-opacity="1.0" stroke="rgb(0,0,0)" stroke-width="2"  />
			<g>
				<title>ACP_syn_III_C (PF08541)
"3-Oxoacyl-[acyl-carrier-protein (ACP)] synthase III C terminal"</title>
				<polygon class="PF08541" points="500,34 506,40 500,46" stroke-linejoin="round" width="8" height="24" fill="rgb(223,111,121)" stroke="rgb(178,88,96)" stroke-width="1" opacity="0.75" />
			</g>
		</g>
		<g>
			<title> (IE98_RS0115530)
hypothetical protein</title>
			<polygon class=" (IE98_RS0115530)
hypothetical protein" points="512,10 538,40 512,70" fill="rgb(255,255,255)" fill-opacity="1.0" stroke="rgb(0,0,0)" stroke-width="2"  />
		</g>
		<g>
			<title> (IE98_RS0115535)
hypothetical protein</title>
			<polygon class=" (IE98_RS0115535)
hypothetical protein" points="538,10 553,40 538,70" fill="rgb(255,255,255)" fill-opacity="1.0" stroke="rgb(0,0,0)" stroke-width="2"  />
		</g>
		<g>
			<title> (IE98_RS0115540)
hypothetical protein</title>
			<polygon class=" (IE98_RS0115540)
hypothetical protein" points="554,10 581,40 554,70" fill="rgb(255,255,255)" fill-opacity="1.0" stroke="rgb(0,0,0)" stroke-width="2"  />
			<g>
				<title>NAD_binding_10 (PF13460)
"NAD(P)H-binding"</title>
				<polygon class="PF13460" points="554,28 566,28 571,33 571,47 566,52 554,52" stroke-linejoin="round" width="17" height="24" fill="rgb(131,53,182)" stroke="rgb(104,42,145)" stroke-width="1" opacity="0.75" />
			</g>
		</g>
		<g>
			<title> (IE98_RS0115545)
monooxygenase</title>
			<polygon class=" (IE98_RS0115545)
monooxygenase" points="591,25 610,25 610,10 640,40 610,70 610,55 591,55" fill="rgb(255,255,255)" fill-opacity="1.0" stroke="rgb(0,0,0)" stroke-width="2"  />
			<g>
				<title>FAD_binding_3 (PF01494)
"FAD binding domain"</title>
				<polygon class="PF01494" points="591,28 623,28 624,29 624,51 623,52 591,52" stroke-linejoin="round" width="33" height="24" fill="rgb(215,66,156)" stroke="rgb(172,52,124)" stroke-width="1" opacity="0.75" />
			</g>
			<g>
				<title>Rng_hyd_C (PF21274)
"Aromatic-ring hydroxylase, C-terminal"</title>
				<polygon class="PF21274" points="629,34 635,40 629,46" stroke-linejoin="round" width="10" height="24" fill="rgb(153,227,106)" stroke="rgb(122,181,84)" stroke-width="1" opacity="0.75" />
			</g>
		</g>
		<g>
			<title> (IE98_RS0115550)
polyketide synthase</title>
			<polygon class=" (IE98_RS0115550)
polyketide synthase" points="642,10 652,40 642,70" fill="rgb(255,255,255)" fill-opacity="1.0" stroke="rgb(0,0,0)" stroke-width="2"  />
			<g>
				<title>Cyclase_polyket (PF04673)
"Polyketide synthesis cyclase"</title>
				<polygon class="PF04673" points="642,28 645,28 649,40 645,52 642,52" stroke-linejoin="round" width="10" height="24" fill="rgb(97,206,162)" stroke="rgb(77,164,129)" stroke-width="1" opacity="0.75" />
			</g>
		</g>
		<g>
			<title> (IE98_RS0115555)
beta-ACP synthase</title>
			<polygon class=" (IE98_RS0115555)
beta-ACP synthase" points="654,25 665,25 665,10 695,40 665,70 665,55 654,55" fill="rgb(255,255,255)" fill-opacity="1.0" stroke="rgb(0,0,0)" stroke-width="2"  />
			<g>
				<title>ketoacyl-synt (PF00109)
"Beta-ketoacyl synthase, N-terminal domain"</title>
				<rect class="PF00109" x="654" y="28" stroke-linejoin="round" width="23" height="24" fill="rgb(74,179,82)" stroke="rgb(59,143,65)" stroke-width="1" opacity="0.75" />
			</g>
			<g>
				<title>Ketoacyl-synt_C (PF02801)
"Beta-ketoacyl synthase, C-terminal domain"</title>
				<polygon class="PF02801" points="678,28 678,28 689,39 689,41 678,52 678,52" stroke-linejoin="round" width="11" height="24" fill="rgb(212,79,72)" stroke="rgb(169,63,57)" stroke-width="1" opacity="0.75" />
			</g>
		</g>
		<g>
			<title> (IE98_RS0115560)
beta-ketoacyl synthase</title>
			<polygon class=" (IE98_RS0115560)
beta-ketoacyl synthase" points="695,25 705,25 705,10 735,40 705,70 705,55 695,55" fill="rgb(255,255,255)" fill-opacity="1.0" stroke="rgb(0,0,0)" stroke-width="2"  />
			<g>
				<title>ketoacyl-synt (PF00109)
"Beta-ketoacyl synthase, N-terminal domain"</title>
				<rect class="PF00109" x="695" y="28" stroke-linejoin="round" width="24" height="24" fill="rgb(74,179,82)" stroke="rgb(59,143,65)" stroke-width="1" opacity="0.75" />
			</g>
			<g>
				<title>Ketoacyl-synt_C (PF02801)
"Beta-ketoacyl synthase, C-terminal domain"</title>
				<polygon class="PF02801" points="720,29 731,40 731,40 720,51" stroke-linejoin="round" width="11" height="24" fill="rgb(212,79,72)" stroke="rgb(169,63,57)" stroke-width="1" opacity="0.75" />
			</g>
		</g>
		<g>
			<title> (IE98_RS0115565)
actinorhodin polyketide synthase</title>
			<polygon class=" (IE98_RS0115565)
actinorhodin polyketide synthase" points="737,10 746,40 737,70" fill="rgb(255,255,255)" fill-opacity="1.0" stroke="rgb(0,0,0)" stroke-width="2"  />
			<g>
				<title>PP-binding (PF00550)
"Phosphopantetheine attachment site"</title>
				<polygon class="PF00550" points="737,28 738,28 742,40 738,52 737,52" stroke-linejoin="round" width="7" height="24" fill="rgb(181,58,166)" stroke="rgb(144,46,132)" stroke-width="1" opacity="0.75" />
			</g>
		</g>
		<g>
			<title> (IE98_RS0115570)
ketoacyl reductase</title>
			<polygon class=" (IE98_RS0115570)
ketoacyl reductase" points="746,10 772,40 746,70" fill="rgb(255,255,255)" fill-opacity="1.0" stroke="rgb(0,0,0)" stroke-width="2"  />
			<g>
				<title>adh_short (PF00106)
"short chain dehydrogenase"</title>
				<polygon class="PF00106" points="746,28 758,28 765,37 765,43 758,52 746,52" stroke-linejoin="round" width="19" height="24" fill="rgb(128,81,196)" stroke="rgb(102,64,156)" stroke-width="1" opacity="0.75" />
			</g>
		</g>
		<g>
			<title> (IE98_RS0115575)
cyclase</title>
			<polygon class=" (IE98_RS0115575)
cyclase" points="773,25 774,25 774,10 804,40 774,70 774,55 773,55" fill="rgb(255,255,255)" fill-opacity="1.0" stroke="rgb(0,0,0)" stroke-width="2"  />
			<g>
				<title>Polyketide_cyc2 (PF10604)
"Polyketide cyclase / dehydrase and lipid transport"</title>
				<rect class="PF10604" x="773" y="28" stroke-linejoin="round" width="14" height="24" fill="rgb(170,214,69)" stroke="rgb(136,171,55)" stroke-width="1" opacity="0.75" />
			</g>
			<g>
				<title>Polyketide_cyc2 (PF10604)
"Polyketide cyclase / dehydrase and lipid transport"</title>
				<polygon class="PF10604" points="789,29 800,40 789,51" stroke-linejoin="round" width="14" height="24" fill="rgb(170,214,69)" stroke="rgb(136,171,55)" stroke-width="1" opacity="0.75" />
			</g>
		</g>
		<g>
			<title> (IE98_RS0115580)
oxidoreductase</title>
			<polygon class=" (IE98_RS0115580)
oxidoreductase" points="805,25 824,25 824,10 854,40 824,70 824,55 805,55" fill="rgb(255,255,255)" fill-opacity="1.0" stroke="rgb(0,0,0)" stroke-width="2"  />
			<g>
				<title>FAD_binding_3 (PF01494)
"FAD binding domain"</title>
				<rect class="PF01494" x="805" y="28" stroke-linejoin="round" width="33" height="24" fill="rgb(215,66,156)" stroke="rgb(172,52,124)" stroke-width="1" opacity="0.75" />
			</g>
			<g>
				<title>Rng_hyd_C (PF21274)
"Aromatic-ring hydroxylase, C-terminal"</title>
				<polygon class="PF21274" points="843,33 850,40 843,47" stroke-linejoin="round" width="10" height="24" fill="rgb(153,227,106)" stroke="rgb(122,181,84)" stroke-width="1" opacity="0.75" />
			</g>
		</g>
		<g>
			<title> (IE98_RS0115585)
short-chain dehydrogenase</title>
			<polygon class=" (IE98_RS0115585)
short-chain dehydrogenase" points="857,10 882,40 857,70" fill="rgb(255,255,255)" fill-opacity="1.0" stroke="rgb(0,0,0)" stroke-width="2"  />
			<g>
				<title>adh_short_C2 (PF13561)
"Enoyl-(Acyl carrier protein) reductase"</title>
				<polygon class="PF13561" points="858,28 868,28 878,40 868,52 858,52" stroke-linejoin="round" width="23" height="24" fill="rgb(79,221,209)" stroke="rgb(63,176,167)" stroke-width="1" opacity="0.75" />
			</g>
		</g>
		<g>
			<title> (IE98_RS0115590)
FMN reductase</title>
			<polygon class=" (IE98_RS0115590)
FMN reductase" points="887,10 906,40 887,70" fill="rgb(255,255,255)" fill-opacity="1.0" stroke="rgb(0,0,0)" stroke-width="2"  />
			<g>
				<title>FMN_red (PF03358)
"NADPH-dependent FMN reductase"</title>
				<polygon class="PF03358" points="887,28 894,28 901,38 901,42 894,52 887,52" stroke-linejoin="round" width="14" height="24" fill="rgb(161,216,66)" stroke="rgb(128,172,52)" stroke-width="1" opacity="0.75" />
			</g>
		</g>
		<g>
			<title> (IE98_RS0115595)
hypothetical protein</title>
			<polygon class=" (IE98_RS0115595)
hypothetical protein" points="909,10 930,40 909,70" fill="rgb(255,255,255)" fill-opacity="1.0" stroke="rgb(0,0,0)" stroke-width="2"  />
			<g>
				<title>ACPS (PF01648)
"4'-phosphopantetheinyl transferase superfamily"</title>
				<polygon class="PF01648" points="918,28 918,28 925,38 925,42 918,52 918,52" stroke-linejoin="round" width="7" height="24" fill="rgb(58,190,78)" stroke="rgb(46,152,62)" stroke-width="1" opacity="0.75" />
			</g>
		</g>
	</g>
	<g>
		<line x1="10" y1="120.0" x2="569.8666666666667" y2="120.0" style="stroke:rgb(70,70,70); stroke-width:3 "/>
		<g>
			<title> (IE98_RS0109405)
hypothetical protein</title>
			<polygon class=" (IE98_RS0109405)
hypothetical protein" points="13,90 20,120 13,150" fill="rgb(255,255,255)" fill-opacity="1.0" stroke="rgb(0,0,0)" stroke-width="2"  />
		</g>
		<g>
			<title> (IE98_RS0109410)
hypothetical protein</title>
			<polygon class=" (IE98_RS0109410)
hypothetical protein" points="25,90 48,120 25,150" fill="rgb(255,255,255)" fill-opacity="1.0" stroke="rgb(0,0,0)" stroke-width="2"  />
		</g>
		<g>
			<title> (IE98_RS0109415)
carotenoid oxygenase</title>
			<polygon class=" (IE98_RS0109415)
carotenoid oxygenase" points="48,105 63,105 63,90 93,120 63,150 63,135 48,135" fill="rgb(255,255,255)" fill-opacity="1.0" stroke="rgb(0,0,0)" stroke-width="2"  />
		</g>
		<g>
			<title> (IE98_RS0109420)
aldehyde dehydrogenase</title>
			<polygon class=" (IE98_RS0109420)
aldehyde dehydrogenase" points="94,105 108,105 108,90 138,120 108,150 108,135 94,135" fill="rgb(255,255,255)" fill-opacity="1.0" stroke="rgb(0,0,0)" stroke-width="2"  />
		</g>
		<g>
			<title> (IE98_RS0109425)
metallophosphoesterase</title>
			<polygon class=" (IE98_RS0109425)
metallophosphoesterase" points="146,105 146,105 146,90 176,120 146,150 146,135 146,135" fill="rgb(255,255,255)" fill-opacity="1.0" stroke="rgb(0,0,0)" stroke-width="2"  />
		</g>
		<g>
			<title> (IE98_RS0109430)
4'-phosphopantetheinyl transferase</title>
			<polygon class=" (IE98_RS0109430)
4'-phosphopantetheinyl transferase" points="176,90 198,120 176,150" fill="rgb(255,255,255)" fill-opacity="1.0" stroke="rgb(0,0,0)" stroke-width="2"  />
		</g>
		<g>
			<title> (IE98_RS0109435)
SDR family oxidoreductase</title>
			<polygon class=" (IE98_RS0109435)
SDR family oxidoreductase" points="206,90 226,120 206,150" fill="rgb(255,255,255)" fill-opacity="1.0" stroke="rgb(0,0,0)" stroke-width="2"  />
		</g>
		<g>
			<title> (IE98_RS0109440)
hypothetical protein</title>
			<polygon class=" (IE98_RS0109440)
hypothetical protein" points="227,105 249,105 249,90 279,120 249,150 249,135 227,135" fill="rgb(255,255,255)" fill-opacity="1.0" stroke="rgb(0,0,0)" stroke-width="2"  />
		</g>
		<g>
			<title> (IE98_RS0109445)
non-ribosomal peptide synthetase</title>
			<polygon class=" (IE98_RS0109445)
non-ribosomal peptide synthetase" points="280,105 350,105 350,90 380,120 350,150 350,135 280,135" fill="rgb(255,255,255)" fill-opacity="1.0" stroke="rgb(0,0,0)" stroke-width="2"  />
		</g>
		<g>
			<title> (IE98_RS0109450)
cytochrome P450</title>
			<polygon class=" (IE98_RS0109450)
cytochrome P450" points="380,105 391,105 391,90 421,120 391,150 391,135 380,135" fill="rgb(255,255,255)" fill-opacity="1.0" stroke="rgb(0,0,0)" stroke-width="2"  />
		</g>
		<g>
			<title> (IE98_RS0109455)
hypothetical protein</title>
			<polygon class=" (IE98_RS0109455)
hypothetical protein" points="423,90 429,120 423,150" fill="rgb(255,255,255)" fill-opacity="1.0" stroke="rgb(0,0,0)" stroke-width="2"  />
		</g>
		<g>
			<title> (IE98_RS0109460)
3-oxoacyl-ACP reductase</title>
			<polygon class=" (IE98_RS0109460)
3-oxoacyl-ACP reductase" points="434,90 459,120 434,150" fill="rgb(255,255,255)" fill-opacity="1.0" stroke="rgb(0,0,0)" stroke-width="2"  />
		</g>
		<g>
			<title> (IE98_RS0109465)
DNA-binding response regulator</title>
			<polygon class=" (IE98_RS0109465)
DNA-binding response regulator" points="465,90 488,120 465,150" fill="rgb(255,255,255)" fill-opacity="1.0" stroke="rgb(0,0,0)" stroke-width="2"  />
		</g>
		<g>
			<title> (IE98_RS0109470)
3-oxoacyl-ACP reductase</title>
			<polygon class=" (IE98_RS0109470)
3-oxoacyl-ACP reductase" points="496,90 520,120 496,150" fill="rgb(255,255,255)" fill-opacity="1.0" stroke="rgb(0,0,0)" stroke-width="2"  />
		</g>
		<g>
			<title> (IE98_RS0109475)
NDP-hexose 2,3-dehydratase</title>
			<polygon class=" (IE98_RS0109475)
NDP-hexose 2,3-dehydratase" points="523,105 539,105 539,90 569,120 539,150 539,135 523,135" fill="rgb(255,255,255)" fill-opacity="1.0" stroke="rgb(0,0,0)" stroke-width="2"  />
		</g>
	</g>
</svg>
