<svg version="1.1" baseProfile="full" xmlns="http://www.w3.org/2000/svg" width="186.83333333333334" height="80">
	<g>
		<line x1="10" y1="40.0" x2="176.83333333333334" y2="40.0" style="stroke:rgb(70,70,70); stroke-width:3 "/>
		<g>
			<title> (SSGG_RS0132785)
asparagine synthetase</title>
			<polygon class=" (SSGG_RS0132785)
asparagine synthetase" points="17,25 17,25 17,10 47,40 17,70 17,55 17,55" fill="rgb(255,255,255)" fill-opacity="1.0" stroke="rgb(0,0,0)" stroke-width="2"  />
			<g>
				<title>Asn_synthase (PF00733)
"Asparagine synthase"</title>
				<polygon class="PF00733" points="40,37 43,40 40,43" stroke-linejoin="round" width="7" height="24" fill="rgb(200,91,135)" stroke="rgb(160,72,108)" stroke-width="1" opacity="0.75" />
			</g>
		</g>
		<g>
			<title> (SSGG_RS13910)
asparagine synthetase</title>
			<polygon class=" (SSGG_RS13910)
asparagine synthetase" points="57,25 61,25 61,10 91,40 61,70 61,55 57,55" fill="rgb(255,255,255)" fill-opacity="1.0" stroke="rgb(0,0,0)" stroke-width="2"  />
			<g>
				<title>Asn_synthase (PF00733)
"Asparagine synthase"</title>
				<polygon class="PF00733" points="57,28 74,28 86,40 74,52 57,52" stroke-linejoin="round" width="31" height="24" fill="rgb(200,91,135)" stroke="rgb(160,72,108)" stroke-width="1" opacity="0.75" />
			</g>
		</g>
		<g>
			<title> (SSGG_RS13905)
hypothetical protein</title>
			<polygon class=" (SSGG_RS13905)
hypothetical protein" points="91,10 99,40 91,70" fill="rgb(255,255,255)" fill-opacity="1.0" stroke="rgb(0,0,0)" stroke-width="2"  />
			<g>
				<title>PqqD (PF05402)
"Coenzyme PQQ synthesis protein D (PqqD)"</title>
				<polygon class="PF05402" points="92,28 92,28 96,40 92,52 92,52" stroke-linejoin="round" width="6" height="24" fill="rgb(205,87,187)" stroke="rgb(164,69,149)" stroke-width="1" opacity="0.75" />
			</g>
		</g>
		<g>
			<title> (SSGG_RS13900)
polyketide beta-ketoacyl synthase</title>
			<polygon class=" (SSGG_RS13900)
polyketide beta-ketoacyl synthase" points="99,10 115,40 99,70" fill="rgb(255,255,255)" fill-opacity="1.0" stroke="rgb(0,0,0)" stroke-width="2"  />
		</g>
		<g>
			<title> (SSGG_RS13895)
ABC transporter ATP-binding protein</title>
			<polygon class=" (SSGG_RS13895)
ABC transporter ATP-binding protein" points="114,25 146,25 146,10 176,40 146,70 146,55 114,55" fill="rgb(255,255,255)" fill-opacity="1.0" stroke="rgb(0,0,0)" stroke-width="2"  />
			<g>
				<title>ABC_membrane (PF00664)
"ABC transporter transmembrane region"</title>
				<rect class="PF00664" x="120" y="28" stroke-linejoin="round" width="26" height="24" fill="rgb(62,71,183)" stroke="rgb(49,56,146)" stroke-width="1" opacity="0.75" />
			</g>
			<g>
				<title>ABC_tran (PF00005)
"ABC transporter"</title>
				<polygon class="PF00005" points="154,28 160,28 168,36 168,44 160,52 154,52" stroke-linejoin="round" width="14" height="24" fill="rgb(46,186,108)" stroke="rgb(36,148,86)" stroke-width="1" opacity="0.75" />
			</g>
		</g>
	</g>
</svg>
