<svg version="1.1" baseProfile="full" xmlns="http://www.w3.org/2000/svg" width="394.96666666666664" height="80">
	<g>
		<line x1="10" y1="40.0" x2="384.96666666666664" y2="40.0" style="stroke:rgb(70,70,70); stroke-width:3 "/>
		<g>
			<title>bhtR
BhtR</title>
			<polygon class="bhtR
BhtR" points="17,10 45,40 17,70" fill="rgb(255,255,255)" fill-opacity="1.0" stroke="rgb(0,0,0)" stroke-width="2"  />
			<g>
				<title>HTH_3 (PF01381)
"Helix-turn-helix"</title>
				<rect class="PF01381" x="18" y="28" stroke-linejoin="round" width="5" height="24" fill="rgb(168,185,81)" stroke="rgb(134,148,64)" stroke-width="1" opacity="0.75" />
			</g>
			<g>
				<title>Rgg_C (PF21259)
"HTH-type transcriptional regulator Rgg, C-terminal domain"</title>
				<polygon class="PF21259" points="26,28 29,28 41,40 29,52 26,52" stroke-linejoin="round" width="17" height="24" fill="rgb(64,66,181)" stroke="rgb(51,52,144)" stroke-width="1" opacity="0.75" />
			</g>
		</g>
		<g>
			<title>bhtM1
BhtM1</title>
			<polygon class="bhtM1
BhtM1" points="57,25 120,25 120,10 150,40 120,70 120,55 57,55" fill="rgb(255,255,255)" fill-opacity="1.0" stroke="rgb(0,0,0)" stroke-width="2"  />
			<g>
				<title>DUF4135 (PF13575)
"Domain of unknown function (DUF4135)"</title>
				<rect class="PF13575" x="68" y="28" stroke-linejoin="round" width="34" height="24" fill="rgb(170,90,215)" stroke="rgb(135,72,172)" stroke-width="1" opacity="0.75" />
			</g>
			<g>
				<title>LANC_like (PF05147)
"Lanthionine synthetase C-like protein"</title>
				<polygon class="PF05147" points="114,28 134,28 146,40 134,52 114,52" stroke-linejoin="round" width="35" height="24" fill="rgb(91,189,96)" stroke="rgb(72,151,76)" stroke-width="1" opacity="0.75" />
			</g>
		</g>
		<g>
			<title>bhtF
BhtF</title>
			<polygon class="bhtF
BhtF" points="151,10 178,40 151,70" fill="rgb(255,255,255)" fill-opacity="1.0" stroke="rgb(0,0,0)" stroke-width="2"  />
			<g>
				<title>ABC_tran (PF00005)
"ABC transporter"</title>
				<polygon class="PF00005" points="152,28 162,28 164,29 164,51 162,52 152,52" stroke-linejoin="round" width="12" height="24" fill="rgb(46,186,108)" stroke="rgb(36,148,86)" stroke-width="1" opacity="0.75" />
			</g>
		</g>
		<g>
			<title>bhtE
BhtE</title>
			<polygon class="bhtE
BhtE" points="178,10 201,40 178,70" fill="rgb(255,255,255)" fill-opacity="1.0" stroke="rgb(0,0,0)" stroke-width="2"  />
		</g>
		<g>
			<title>bhtM2
BhtM2</title>
			<polygon class="bhtM2
BhtM2" points="201,25 258,25 258,10 288,40 258,70 258,55 201,55" fill="rgb(255,255,255)" fill-opacity="1.0" stroke="rgb(0,0,0)" stroke-width="2"  />
			<g>
				<title>DUF4135 (PF13575)
"Domain of unknown function (DUF4135)"</title>
				<rect class="PF13575" x="212" y="28" stroke-linejoin="round" width="35" height="24" fill="rgb(170,90,215)" stroke="rgb(135,72,172)" stroke-width="1" opacity="0.75" />
			</g>
			<g>
				<title>LANC_like (PF05147)
"Lanthionine synthetase C-like protein"</title>
				<polygon class="PF05147" points="257,28 272,28 284,40 272,52 257,52" stroke-linejoin="round" width="30" height="24" fill="rgb(91,189,96)" stroke="rgb(72,151,76)" stroke-width="1" opacity="0.75" />
			</g>
		</g>
		<g>
			<title>bhtT
BhtT</title>
			<polygon class="bhtT
BhtT" points="290,25 329,25 329,10 359,40 329,70 329,55 290,55" fill="rgb(255,255,255)" fill-opacity="1.0" stroke="rgb(0,0,0)" stroke-width="2"  />
			<g>
				<title>Peptidase_C39 (PF03412)
"Peptidase C39 family"</title>
				<rect class="PF03412" x="290" y="28" stroke-linejoin="round" width="12" height="24" fill="rgb(93,118,202)" stroke="rgb(74,94,161)" stroke-width="1" opacity="0.75" />
			</g>
			<g>
				<title>ABC_membrane (PF00664)
"ABC transporter transmembrane region"</title>
				<rect class="PF00664" x="305" y="28" stroke-linejoin="round" width="27" height="24" fill="rgb(62,71,183)" stroke="rgb(49,56,146)" stroke-width="1" opacity="0.75" />
			</g>
			<g>
				<title>ABC_tran (PF00005)
"ABC transporter"</title>
				<polygon class="PF00005" points="338,28 343,28 352,37 352,43 343,52 338,52" stroke-linejoin="round" width="14" height="24" fill="rgb(46,186,108)" stroke="rgb(36,148,86)" stroke-width="1" opacity="0.75" />
			</g>
		</g>
		<g>
			<title>bhtA_beta
BhtA2</title>
			<polygon class="bhtA_beta
BhtA2" points="363,10 369,40 363,70" fill="rgb(255,255,255)" fill-opacity="1.0" stroke="rgb(0,0,0)" stroke-width="2"  />
		</g>
		<g>
			<title>bhtA_alpha
BhtA1</title>
			<polygon class="bhtA_alpha
BhtA1" points="370,10 376,40 370,70" fill="rgb(255,255,255)" fill-opacity="1.0" stroke="rgb(0,0,0)" stroke-width="2"  />
			<g>
				<title>Lantibiotic_a (PF14867)
"Lantibiotic alpha"</title>
				<polygon class="PF14867" points="373,40 373,40 373,40" stroke-linejoin="round" width="3" height="24" fill="rgb(211,214,86)" stroke="rgb(168,171,68)" stroke-width="1" opacity="0.75" />
			</g>
		</g>
	</g>
</svg>
