<svg version="1.1" baseProfile="full" xmlns="http://www.w3.org/2000/svg" width="728.6333333333333" height="80">
	<g>
		<line x1="10" y1="40.0" x2="718.6333333333333" y2="40.0" style="stroke:rgb(70,70,70); stroke-width:3 "/>
		<g>
			<title>xiaA
XiaA protein</title>
			<polygon class="xiaA
XiaA protein" points="10,25 13,25 13,10 43,40 13,70 13,55 10,55" fill="rgb(255,255,255)" fill-opacity="1.0" stroke="rgb(0,0,0)" stroke-width="2"  />
			<g>
				<title>LYTB (PF02401)
"LytB protein"</title>
				<polygon class="PF02401" points="11,28 27,28 38,39 38,41 27,52 11,52" stroke-linejoin="round" width="27" height="24" fill="rgb(72,198,172)" stroke="rgb(57,158,137)" stroke-width="1" opacity="0.75" />
			</g>
		</g>
		<g>
			<title>xiaB
XiaB protein</title>
			<polygon class="xiaB
XiaB protein" points="43,25 73,25 73,10 103,40 73,70 73,55 43,55" fill="rgb(255,255,255)" fill-opacity="1.0" stroke="rgb(0,0,0)" stroke-width="2"  />
			<g>
				<title>DXP_synthase_N (PF13292)
"1-deoxy-D-xylulose-5-phosphate synthase"</title>
				<rect class="PF13292" x="43" y="28" stroke-linejoin="round" width="19" height="24" fill="rgb(91,140,186)" stroke="rgb(72,112,148)" stroke-width="1" opacity="0.75" />
			</g>
			<g>
				<title>DXP_synthase_N (PF13292)
"1-deoxy-D-xylulose-5-phosphate synthase"</title>
				<rect class="PF13292" x="62" y="28" stroke-linejoin="round" width="4" height="24" fill="rgb(91,140,186)" stroke="rgb(72,112,148)" stroke-width="1" opacity="0.75" />
			</g>
			<g>
				<title>Transket_pyr (PF02779)
"Transketolase, pyrimidine binding domain"</title>
				<rect class="PF02779" x="70" y="28" stroke-linejoin="round" width="16" height="24" fill="rgb(60,183,85)" stroke="rgb(48,146,67)" stroke-width="1" opacity="0.75" />
			</g>
			<g>
				<title>Transketolase_C (PF02780)
"Transketolase, C-terminal domain"</title>
				<polygon class="PF02780" points="89,30 99,40 89,50" stroke-linejoin="round" width="11" height="24" fill="rgb(212,91,198)" stroke="rgb(169,72,158)" stroke-width="1" opacity="0.75" />
			</g>
		</g>
		<g>
			<title>xiaC
XiaC protein</title>
			<polygon class="xiaC
XiaC protein" points="104,25 112,25 112,10 142,40 112,70 112,55 104,55" fill="rgb(255,255,255)" fill-opacity="1.0" stroke="rgb(0,0,0)" stroke-width="2"  />
			<g>
				<title>GcpE (PF04551)
"GcpE protein"</title>
				<polygon class="PF04551" points="106,28 126,28 138,40 126,52 106,52" stroke-linejoin="round" width="34" height="24" fill="rgb(196,196,83)" stroke="rgb(156,156,66)" stroke-width="1" opacity="0.75" />
			</g>
		</g>
		<g>
			<title>xiaD
XiaD protein</title>
			<polygon class="xiaD
XiaD protein" points="157,10 181,40 157,70" fill="rgb(255,255,255)" fill-opacity="1.0" stroke="rgb(0,0,0)" stroke-width="2"  />
			<g>
				<title>GerE (PF00196)
"Bacterial regulatory proteins, luxR family"</title>
				<polygon class="PF00196" points="174,36 177,40 174,44" stroke-linejoin="round" width="5" height="24" fill="rgb(225,67,110)" stroke="rgb(180,53,88)" stroke-width="1" opacity="0.75" />
			</g>
		</g>
		<g>
			<title>xiaE
XiaE protein</title>
			<polygon class="xiaE
XiaE protein" points="180,40 205,10 205,70" fill="rgb(255,255,255)" fill-opacity="1.0" stroke="rgb(0,0,0)" stroke-width="2"  />
		</g>
		<g>
			<title>xiaF
XiaF protein</title>
			<polygon class="xiaF
XiaF protein" points="248,25 238,25 238,10 208,40 238,70 238,55 248,55" fill="rgb(255,255,255)" fill-opacity="1.0" stroke="rgb(0,0,0)" stroke-width="2"  />
			<g>
				<title>Acyl-CoA_dh_2 (PF08028)
"Acyl-CoA dehydrogenase, C-terminal domain"</title>
				<polygon class="PF08028" points="212,40 223,29 223,51" stroke-linejoin="round" width="13" height="24" fill="rgb(61,169,203)" stroke="rgb(48,135,162)" stroke-width="1" opacity="0.75" />
			</g>
		</g>
		<g>
			<title>xiaG
XiaG protein</title>
			<polygon class="xiaG
XiaG protein" points="248,40 261,10 261,70" fill="rgb(255,255,255)" fill-opacity="1.0" stroke="rgb(0,0,0)" stroke-width="2"  />
			<g>
				<title>LEH (PF07858)
"Limonene-1,2-epoxide hydrolase catalytic domain"</title>
				<polygon class="PF07858" points="251,40 256,28 260,28 260,52 256,52" stroke-linejoin="round" width="12" height="24" fill="rgb(201,184,78)" stroke="rgb(160,147,62)" stroke-width="1" opacity="0.75" />
			</g>
		</g>
		<g>
			<title>xiaH
XiaH protein</title>
			<polygon class="xiaH
XiaH protein" points="320,25 291,25 291,10 261,40 291,70 291,55 320,55" fill="rgb(255,255,255)" fill-opacity="1.0" stroke="rgb(0,0,0)" stroke-width="2"  />
			<g>
				<title>Rng_hyd_C (PF21274)
"Aromatic-ring hydroxylase, C-terminal"</title>
				<polygon class="PF21274" points="265,40 273,32 273,48" stroke-linejoin="round" width="12" height="24" fill="rgb(153,227,106)" stroke="rgb(122,181,84)" stroke-width="1" opacity="0.75" />
			</g>
			<g>
				<title>FAD_binding_3 (PF01494)
"FAD binding domain"</title>
				<rect class="PF01494" x="283" y="28" stroke-linejoin="round" width="36" height="24" fill="rgb(215,66,156)" stroke="rgb(172,52,124)" stroke-width="1" opacity="0.75" />
			</g>
		</g>
		<g>
			<title>xiaI
XiaI protein</title>
			<polygon class="xiaI
XiaI protein" points="320,40 327,10 327,70" fill="rgb(255,255,255)" fill-opacity="1.0" stroke="rgb(0,0,0)" stroke-width="2"  />
			<g>
				<title>Fer4_13 (PF13370)
"4Fe-4S single cluster domain of Ferredoxin I"</title>
				<polygon class="PF13370" points="323,40 326,28 326,28 326,52 326,52" stroke-linejoin="round" width="5" height="24" fill="rgb(72,194,54)" stroke="rgb(57,155,43)" stroke-width="1" opacity="0.75" />
			</g>
		</g>
		<g>
			<title>xiaJ
XiaJ protein</title>
			<polygon class="xiaJ
XiaJ protein" points="368,25 359,25 359,10 329,40 359,70 359,55 368,55" fill="rgb(255,255,255)" fill-opacity="1.0" stroke="rgb(0,0,0)" stroke-width="2"  />
			<g>
				<title>p450 (PF00067)
"Cytochrome P450"</title>
				<polygon class="PF00067" points="333,40 336,37 336,43" stroke-linejoin="round" width="6" height="24" fill="rgb(195,210,54)" stroke="rgb(155,168,43)" stroke-width="1" opacity="0.75" />
			</g>
			<g>
				<title>p450 (PF00067)
"Cytochrome P450"</title>
				<polygon class="PF00067" points="336,37 345,28 351,28 351,52 345,52 336,43" stroke-linejoin="round" width="15" height="24" fill="rgb(195,210,54)" stroke="rgb(155,168,43)" stroke-width="1" opacity="0.75" />
			</g>
		</g>
		<g>
			<title>xiaK
XiaK protein</title>
			<polygon class="xiaK
XiaK protein" points="410,25 403,25 403,10 373,40 403,70 403,55 410,55" fill="rgb(255,255,255)" fill-opacity="1.0" stroke="rgb(0,0,0)" stroke-width="2"  />
			<g>
				<title>polyprenyl_synt (PF00348)
"Polyprenyl synthetase"</title>
				<polygon class="PF00348" points="378,39 389,28 401,28 401,52 389,52 378,41" stroke-linejoin="round" width="23" height="24" fill="rgb(216,200,102)" stroke="rgb(172,160,81)" stroke-width="1" opacity="0.75" />
			</g>
		</g>
		<g>
			<title>xiaL
XiaL protein</title>
			<polygon class="xiaL
XiaL protein" points="483,25 441,25 441,10 411,40 441,70 441,55 483,55" fill="rgb(255,255,255)" fill-opacity="1.0" stroke="rgb(0,0,0)" stroke-width="2"  />
			<g>
				<title>FAD_binding_3 (PF01494)
"FAD binding domain"</title>
				<polygon class="PF01494" points="419,36 427,28 455,28 455,52 427,52 419,44" stroke-linejoin="round" width="36" height="24" fill="rgb(215,66,156)" stroke="rgb(172,52,124)" stroke-width="1" opacity="0.75" />
			</g>
			<g>
				<title>Trp_dioxygenase (PF03301)
"Tryptophan 2,3-dioxygenase"</title>
				<rect class="PF03301" x="470" y="28" stroke-linejoin="round" width="12" height="24" fill="rgb(92,205,88)" stroke="rgb(73,164,70)" stroke-width="1" opacity="0.75" />
			</g>
		</g>
		<g>
			<title>xiaM
XiaM protein</title>
			<polygon class="xiaM
XiaM protein" points="518,25 515,25 515,10 485,40 515,70 515,55 518,55" fill="rgb(255,255,255)" fill-opacity="1.0" stroke="rgb(0,0,0)" stroke-width="2"  />
			<g>
				<title>polyprenyl_synt (PF00348)
"Polyprenyl synthetase"</title>
				<polygon class="PF00348" points="489,40 501,28 514,28 514,52 501,52 489,40" stroke-linejoin="round" width="25" height="24" fill="rgb(216,200,102)" stroke="rgb(172,160,81)" stroke-width="1" opacity="0.75" />
			</g>
		</g>
		<g>
			<title>xiaN
XiaN protein</title>
			<polygon class="xiaN
XiaN protein" points="619,25 551,25 551,10 521,40 551,70 551,55 619,55" fill="rgb(255,255,255)" fill-opacity="1.0" stroke="rgb(0,0,0)" stroke-width="2"  />
			<g>
				<title>GerE (PF00196)
"Bacterial regulatory proteins, luxR family"</title>
				<polygon class="PF00196" points="525,40 527,38 527,42" stroke-linejoin="round" width="5" height="24" fill="rgb(225,67,110)" stroke="rgb(180,53,88)" stroke-width="1" opacity="0.75" />
			</g>
			<g>
				<title>AAA_16 (PF13191)
"AAA ATPase domain"</title>
				<rect class="PF13191" x="603" y="28" stroke-linejoin="round" width="15" height="24" fill="rgb(88,106,197)" stroke="rgb(70,84,157)" stroke-width="1" opacity="0.75" />
			</g>
		</g>
		<g>
			<title>xiaO
XiaO protein</title>
			<polygon class="xiaO
XiaO protein" points="626,25 688,25 688,10 718,40 688,70 688,55 626,55" fill="rgb(255,255,255)" fill-opacity="1.0" stroke="rgb(0,0,0)" stroke-width="2"  />
			<g>
				<title>AAA_16 (PF13191)
"AAA ATPase domain"</title>
				<rect class="PF13191" x="627" y="28" stroke-linejoin="round" width="15" height="24" fill="rgb(88,106,197)" stroke="rgb(70,84,157)" stroke-width="1" opacity="0.75" />
			</g>
			<g>
				<title>GerE (PF00196)
"Bacterial regulatory proteins, luxR family"</title>
				<polygon class="PF00196" points="712,38 714,40 712,42" stroke-linejoin="round" width="5" height="24" fill="rgb(225,67,110)" stroke="rgb(180,53,88)" stroke-width="1" opacity="0.75" />
			</g>
		</g>
	</g>
</svg>
