<svg version="1.1" baseProfile="full" xmlns="http://www.w3.org/2000/svg" width="380.06666666666666" height="80">
	<g>
		<line x1="10" y1="40.0" x2="370.06666666666666" y2="40.0" style="stroke:rgb(70,70,70); stroke-width:3 "/>
		<g>
			<title> (BCSJ1_09293)
AraC family transcriptional regulator</title>
			<polygon class=" (BCSJ1_09293)
AraC family transcriptional regulator" points="10,10 25,40 10,70" fill="rgb(255,255,255)" fill-opacity="1.0" stroke="rgb(0,0,0)" stroke-width="2"  />
		</g>
		<g>
			<title> (BCSJ1_09298)
cytolysin immunity CylI domain protein</title>
			<polygon class=" (BCSJ1_09298)
cytolysin immunity CylI domain protein" points="67,25 62,25 62,10 32,40 62,70 62,55 67,55" fill="rgb(255,255,255)" fill-opacity="1.0" stroke="rgb(0,0,0)" stroke-width="2"  />
			<g>
				<title>Peptidase_M50 (PF02163)
"Peptidase family M50"</title>
				<polygon class="PF02163" points="36,40 48,28 64,28 64,52 48,52 36,40" stroke-linejoin="round" width="28" height="24" fill="rgb(178,66,65)" stroke="rgb(142,52,52)" stroke-width="1" opacity="0.75" />
			</g>
		</g>
		<g>
			<title> (BCSJ1_09303)
NADPH-dependent FMN reductase</title>
			<polygon class=" (BCSJ1_09303)
NADPH-dependent FMN reductase" points="71,40 96,10 96,70" fill="rgb(255,255,255)" fill-opacity="1.0" stroke="rgb(0,0,0)" stroke-width="2"  />
			<g>
				<title>FMN_red (PF03358)
"NADPH-dependent FMN reductase"</title>
				<polygon class="PF03358" points="79,35 85,28 95,28 95,52 85,52 79,45" stroke-linejoin="round" width="16" height="24" fill="rgb(161,216,66)" stroke="rgb(128,172,52)" stroke-width="1" opacity="0.75" />
			</g>
		</g>
		<g>
			<title> (BCSJ1_09308)
lantibiotic modifying enzyme</title>
			<polygon class=" (BCSJ1_09308)
lantibiotic modifying enzyme" points="101,40 129,10 129,70" fill="rgb(255,255,255)" fill-opacity="1.0" stroke="rgb(0,0,0)" stroke-width="2"  />
			<g>
				<title>LANC_like (PF05147)
"Lanthionine synthetase C-like protein"</title>
				<polygon class="PF05147" points="105,40 116,28 129,28 129,52 116,52" stroke-linejoin="round" width="28" height="24" fill="rgb(91,189,96)" stroke="rgb(72,151,76)" stroke-width="1" opacity="0.75" />
			</g>
		</g>
		<g>
			<title> (BCSJ1_09313)
lantibiotic modifying enzyme</title>
			<polygon class=" (BCSJ1_09313)
lantibiotic modifying enzyme" points="128,40 137,10 137,70" fill="rgb(255,255,255)" fill-opacity="1.0" stroke="rgb(0,0,0)" stroke-width="2"  />
		</g>
		<g>
			<title> (BCSJ1_09318)
lantibiotic modifying enzyme</title>
			<polygon class=" (BCSJ1_09318)
lantibiotic modifying enzyme" points="202,25 167,25 167,10 137,40 167,70 167,55 202,55" fill="rgb(255,255,255)" fill-opacity="1.0" stroke="rgb(0,0,0)" stroke-width="2"  />
			<g>
				<title>DUF4135 (PF13575)
"Domain of unknown function (DUF4135)"</title>
				<polygon class="PF13575" points="144,37 153,28 181,28 181,52 153,52 144,43" stroke-linejoin="round" width="37" height="24" fill="rgb(170,90,215)" stroke="rgb(135,72,172)" stroke-width="1" opacity="0.75" />
			</g>
		</g>
		<g>
			<title> (BCSJ1_09323)
hypothetical protein</title>
			<polygon class=" (BCSJ1_09323)
hypothetical protein" points="210,40 218,10 218,70" fill="rgb(255,255,255)" fill-opacity="1.0" stroke="rgb(0,0,0)" stroke-width="2"  />
		</g>
		<g>
			<title> (BCSJ1_09328)
hypothetical protein</title>
			<polygon class=" (BCSJ1_09328)
hypothetical protein" points="219,40 227,10 227,70" fill="rgb(255,255,255)" fill-opacity="1.0" stroke="rgb(0,0,0)" stroke-width="2"  />
		</g>
		<g>
			<title> (BCSJ1_09333)
hypothetical protein</title>
			<polygon class=" (BCSJ1_09333)
hypothetical protein" points="232,40 240,10 240,70" fill="rgb(255,255,255)" fill-opacity="1.0" stroke="rgb(0,0,0)" stroke-width="2"  />
		</g>
		<g>
			<title> (BCSJ1_09338)
lantibiotic transport protein</title>
			<polygon class=" (BCSJ1_09338)
lantibiotic transport protein" points="317,25 277,25 277,10 247,40 277,70 277,55 317,55" fill="rgb(255,255,255)" fill-opacity="1.0" stroke="rgb(0,0,0)" stroke-width="2"  />
			<g>
				<title>ABC_tran (PF00005)
"ABC transporter"</title>
				<polygon class="PF00005" points="254,37 263,28 268,28 268,52 263,52 254,43" stroke-linejoin="round" width="14" height="24" fill="rgb(46,186,108)" stroke="rgb(36,148,86)" stroke-width="1" opacity="0.75" />
			</g>
			<g>
				<title>ABC_membrane (PF00664)
"ABC transporter transmembrane region"</title>
				<rect class="PF00664" x="275" y="28" stroke-linejoin="round" width="27" height="24" fill="rgb(62,71,183)" stroke="rgb(49,56,146)" stroke-width="1" opacity="0.75" />
			</g>
			<g>
				<title>Peptidase_C39 (PF03412)
"Peptidase C39 family"</title>
				<rect class="PF03412" x="304" y="28" stroke-linejoin="round" width="13" height="24" fill="rgb(93,118,202)" stroke="rgb(74,94,161)" stroke-width="1" opacity="0.75" />
			</g>
		</g>
		<g>
			<title> (BCSJ1_09343)
MutP</title>
			<polygon class=" (BCSJ1_09343)
MutP" points="369,25 353,25 353,10 323,40 353,70 353,55 369,55" fill="rgb(255,255,255)" fill-opacity="1.0" stroke="rgb(0,0,0)" stroke-width="2"  />
			<g>
				<title>Peptidase_S8 (PF00082)
"Subtilase family"</title>
				<polygon class="PF00082" points="327,40 339,28 355,28 355,52 339,52" stroke-linejoin="round" width="31" height="24" fill="rgb(179,95,73)" stroke="rgb(143,76,58)" stroke-width="1" opacity="0.75" />
			</g>
		</g>
	</g>
</svg>
