<svg version="1.1" baseProfile="full" xmlns="http://www.w3.org/2000/svg" width="2310.3333333333335" height="80">
	<g>
		<line x1="10" y1="40.0" x2="2300.3333333333335" y2="40.0" style="stroke:rgb(70,70,70); stroke-width:3 "/>
		<g>
			<title>aroG4 (AJAP_31985)
Phospho-2-dehydro-3-deoxyheptonate aldolase, Phe-sensitive</title>
			<polygon class="aroG4 (AJAP_31985)
Phospho-2-dehydro-3-deoxyheptonate aldolase, Phe-sensitive" points="45,25 40,25 40,10 10,40 40,70 40,55 45,55" fill="rgb(255,255,255)" fill-opacity="1.0" stroke="rgb(0,0,0)" stroke-width="2"  />
			<g>
				<title>DAHP_synth_1 (PF00793)
"DAHP synthetase I family"</title>
				<polygon class="PF00793" points="14,40 26,28 42,28 42,52 26,52" stroke-linejoin="round" width="31" height="24" fill="rgb(66,201,123)" stroke="rgb(52,160,98)" stroke-width="1" opacity="0.75" />
			</g>
		</g>
		<g>
			<title> (AJAP_31990)
Hypothetical protein</title>
			<polygon class=" (AJAP_31990)
Hypothetical protein" points="51,40 77,10 77,70" fill="rgb(255,255,255)" fill-opacity="1.0" stroke="rgb(0,0,0)" stroke-width="2"  />
			<g>
				<title>ECH_1 (PF00378)
"Enoyl-CoA hydratase/isomerase"</title>
				<polygon class="PF00378" points="55,40 66,28 76,28 76,52 66,52" stroke-linejoin="round" width="25" height="24" fill="rgb(201,73,190)" stroke="rgb(160,58,152)" stroke-width="1" opacity="0.75" />
			</g>
		</g>
		<g>
			<title> (AJAP_31995)
Hypothetical protein</title>
			<polygon class=" (AJAP_31995)
Hypothetical protein" points="117,25 107,25 107,10 77,40 107,70 107,55 117,55" fill="rgb(255,255,255)" fill-opacity="1.0" stroke="rgb(0,0,0)" stroke-width="2"  />
			<g>
				<title>ECH_1 (PF00378)
"Enoyl-CoA hydratase/isomerase"</title>
				<polygon class="PF00378" points="81,40 93,28 102,28 102,52 93,52" stroke-linejoin="round" width="22" height="24" fill="rgb(201,73,190)" stroke="rgb(160,58,152)" stroke-width="1" opacity="0.75" />
			</g>
		</g>
		<g>
			<title> (AJAP_32000)
Hypothetical protein</title>
			<polygon class=" (AJAP_32000)
Hypothetical protein" points="118,40 140,10 140,70" fill="rgb(255,255,255)" fill-opacity="1.0" stroke="rgb(0,0,0)" stroke-width="2"  />
			<g>
				<title>ECH_1 (PF00378)
"Enoyl-CoA hydratase/isomerase"</title>
				<polygon class="PF00378" points="122,40 131,28 132,28 132,52 131,52" stroke-linejoin="round" width="13" height="24" fill="rgb(201,73,190)" stroke="rgb(160,58,152)" stroke-width="1" opacity="0.75" />
			</g>
		</g>
		<g>
			<title> (AJAP_32005)
chalcone and stilbene synthases-like protein</title>
			<polygon class=" (AJAP_32005)
chalcone and stilbene synthases-like protein" points="176,25 170,25 170,10 140,40 170,70 170,55 176,55" fill="rgb(255,255,255)" fill-opacity="1.0" stroke="rgb(0,0,0)" stroke-width="2"  />
			<g>
				<title>Chal_sti_synt_C (PF02797)
"Chalcone and stilbene synthases, C-terminal domain"</title>
				<polygon class="PF02797" points="144,40 152,32 152,48" stroke-linejoin="round" width="12" height="24" fill="rgb(210,123,55)" stroke="rgb(168,98,44)" stroke-width="1" opacity="0.75" />
			</g>
			<g>
				<title>Chal_sti_synt_N (PF00195)
"Chalcone and stilbene synthases, N-terminal domain"</title>
				<polygon class="PF00195" points="155,29 156,28 169,28 169,52 156,52 155,51" stroke-linejoin="round" width="14" height="24" fill="rgb(102,206,179)" stroke="rgb(81,164,143)" stroke-width="1" opacity="0.75" />
			</g>
		</g>
		<g>
			<title> (AJAP_32010)
Putative membrane protein</title>
			<polygon class=" (AJAP_32010)
Putative membrane protein" points="240,25 213,25 213,10 183,40 213,70 213,55 240,55" fill="rgb(255,255,255)" fill-opacity="1.0" stroke="rgb(0,0,0)" stroke-width="2"  />
			<g>
				<title>PMT (PF02366)
"Dolichyl-phosphate-mannose-protein mannosyltransferase"</title>
				<rect class="PF02366" x="212" y="28" stroke-linejoin="round" width="24" height="24" fill="rgb(52,121,200)" stroke="rgb(41,96,160)" stroke-width="1" opacity="0.75" />
			</g>
		</g>
		<g>
			<title>staE (AJAP_32015)
Staurosporine biosynthesis 3,5-epimerase StaE</title>
			<polygon class="staE (AJAP_32015)
Staurosporine biosynthesis 3,5-epimerase StaE" points="246,40 266,10 266,70" fill="rgb(255,255,255)" fill-opacity="1.0" stroke="rgb(0,0,0)" stroke-width="2"  />
			<g>
				<title>dTDP_sugar_isom (PF00908)
"dTDP-4-dehydrorhamnose 3,5-epimerase"</title>
				<polygon class="PF00908" points="250,40 258,28 265,28 265,52 258,52" stroke-linejoin="round" width="17" height="24" fill="rgb(135,62,227)" stroke="rgb(108,49,181)" stroke-width="1" opacity="0.75" />
			</g>
		</g>
		<g>
			<title>dnrJ (AJAP_32020)
Daunorubicin biosynthesis sensory transduction protein DnrJ</title>
			<polygon class="dnrJ (AJAP_32020)
Daunorubicin biosynthesis sensory transduction protein DnrJ" points="304,25 297,25 297,10 267,40 297,70 297,55 304,55" fill="rgb(255,255,255)" fill-opacity="1.0" stroke="rgb(0,0,0)" stroke-width="2"  />
			<g>
				<title>DegT_DnrJ_EryC1 (PF01041)
"DegT/DnrJ/EryC1/StrS aminotransferase family"</title>
				<polygon class="PF01041" points="271,40 283,28 302,28 302,52 283,52" stroke-linejoin="round" width="35" height="24" fill="rgb(228,110,183)" stroke="rgb(182,88,146)" stroke-width="1" opacity="0.75" />
			</g>
		</g>
		<g>
			<title> (AJAP_32025)
Hypothetical protein</title>
			<polygon class=" (AJAP_32025)
Hypothetical protein" points="336,25 334,25 334,10 304,40 334,70 334,55 336,55" fill="rgb(255,255,255)" fill-opacity="1.0" stroke="rgb(0,0,0)" stroke-width="2"  />
			<g>
				<title>Epimerase (PF01370)
"NAD dependent epimerase/dehydratase family"</title>
				<polygon class="PF01370" points="312,36 320,28 335,28 335,52 320,52 312,44" stroke-linejoin="round" width="23" height="24" fill="rgb(215,89,157)" stroke="rgb(172,71,125)" stroke-width="1" opacity="0.75" />
			</g>
		</g>
		<g>
			<title> (AJAP_32030)
Hypothetical protein</title>
			<polygon class=" (AJAP_32030)
Hypothetical protein" points="384,25 367,25 367,10 337,40 367,70 367,55 384,55" fill="rgb(255,255,255)" fill-opacity="1.0" stroke="rgb(0,0,0)" stroke-width="2"  />
			<g>
				<title>Hexose_dehydrat (PF03559)
"NDP-hexose 2,3-dehydratase"</title>
				<polygon class="PF03559" points="341,40 353,28 358,28 358,52 353,52" stroke-linejoin="round" width="20" height="24" fill="rgb(56,139,184)" stroke="rgb(44,111,147)" stroke-width="1" opacity="0.75" />
			</g>
			<g>
				<title>Hexose_dehydrat (PF03559)
"NDP-hexose 2,3-dehydratase"</title>
				<rect class="PF03559" x="359" y="28" stroke-linejoin="round" width="20" height="24" fill="rgb(56,139,184)" stroke="rgb(44,111,147)" stroke-width="1" opacity="0.75" />
			</g>
		</g>
		<g>
			<title> (AJAP_32035)
Hypothetical protein</title>
			<polygon class=" (AJAP_32035)
Hypothetical protein" points="419,25 414,25 414,10 384,40 414,70 414,55 419,55" fill="rgb(255,255,255)" fill-opacity="1.0" stroke="rgb(0,0,0)" stroke-width="2"  />
			<g>
				<title>FMN_dh (PF01070)
"FMN-dependent dehydrogenase"</title>
				<polygon class="PF01070" points="388,40 400,28 418,28 418,52 400,52" stroke-linejoin="round" width="34" height="24" fill="rgb(219,60,209)" stroke="rgb(175,47,167)" stroke-width="1" opacity="0.75" />
			</g>
		</g>
		<g>
			<title> (AJAP_32040)
4-hydroxymandelate synthase</title>
			<polygon class=" (AJAP_32040)
4-hydroxymandelate synthase" points="454,25 449,25 449,10 419,40 449,70 449,55 454,55" fill="rgb(255,255,255)" fill-opacity="1.0" stroke="rgb(0,0,0)" stroke-width="2"  />
			<g>
				<title>Glyoxalase (PF00903)
"Glyoxalase/Bleomycin resistance protein/Dioxygenase superfamily"</title>
				<polygon class="PF00903" points="424,39 435,28 438,28 438,52 435,52 424,41" stroke-linejoin="round" width="14" height="24" fill="rgb(139,76,222)" stroke="rgb(111,60,177)" stroke-width="1" opacity="0.75" />
			</g>
			<g>
				<title>Glyoxalase_5 (PF14696)
"Hydroxyphenylpyruvate dioxygenase, HPPD, N-terminal"</title>
				<rect class="PF14696" x="439" y="28" stroke-linejoin="round" width="13" height="24" fill="rgb(217,87,177)" stroke="rgb(173,69,141)" stroke-width="1" opacity="0.75" />
			</g>
		</g>
		<g>
			<title> (AJAP_32045)
Hypothetical protein</title>
			<polygon class=" (AJAP_32045)
Hypothetical protein" points="497,25 488,25 488,10 458,40 488,70 488,55 497,55" fill="rgb(255,255,255)" fill-opacity="1.0" stroke="rgb(0,0,0)" stroke-width="2"  />
			<g>
				<title>p450 (PF00067)
"Cytochrome P450"</title>
				<polygon class="PF00067" points="462,40 470,32 470,48" stroke-linejoin="round" width="9" height="24" fill="rgb(195,210,54)" stroke="rgb(155,168,43)" stroke-width="1" opacity="0.75" />
			</g>
		</g>
		<g>
			<title> (AJAP_32050)
Hypothetical protein</title>
			<polygon class=" (AJAP_32050)
Hypothetical protein" points="555,25 528,25 528,10 498,40 528,70 528,55 555,55" fill="rgb(255,255,255)" fill-opacity="1.0" stroke="rgb(0,0,0)" stroke-width="2"  />
			<g>
				<title>PP-binding (PF00550)
"Phosphopantetheine attachment site"</title>
				<polygon class="PF00550" points="502,40 504,38 504,42" stroke-linejoin="round" width="6" height="24" fill="rgb(181,58,166)" stroke="rgb(144,46,132)" stroke-width="1" opacity="0.75" />
			</g>
			<g>
				<title>AMP-binding_C (PF13193)
"AMP-binding enzyme C-terminal domain"</title>
				<polygon class="PF13193" points="507,35 514,28 514,28 514,52 514,52 507,45" stroke-linejoin="round" width="7" height="24" fill="rgb(195,82,106)" stroke="rgb(156,65,84)" stroke-width="1" opacity="0.75" />
			</g>
			<g>
				<title>AMP-binding (PF00501)
"AMP-binding enzyme"</title>
				<rect class="PF00501" x="520" y="28" stroke-linejoin="round" width="33" height="24" fill="rgb(189,78,204)" stroke="rgb(151,62,163)" stroke-width="1" opacity="0.75" />
			</g>
		</g>
		<g>
			<title> (AJAP_32055)
LipE</title>
			<polygon class=" (AJAP_32055)
LipE" points="556,40 583,10 583,70" fill="rgb(255,255,255)" fill-opacity="1.0" stroke="rgb(0,0,0)" stroke-width="2"  />
			<g>
				<title>Abhydrolase_6 (PF12697)
"Alpha/beta hydrolase family"</title>
				<polygon class="PF12697" points="560,40 571,28 580,28 580,52 571,52" stroke-linejoin="round" width="23" height="24" fill="rgb(87,73,196)" stroke="rgb(69,58,156)" stroke-width="1" opacity="0.75" />
			</g>
		</g>
		<g>
			<title> (AJAP_32060)
Hypothetical protein</title>
			<polygon class=" (AJAP_32060)
Hypothetical protein" points="587,25 602,25 602,10 632,40 602,70 602,55 587,55" fill="rgb(255,255,255)" fill-opacity="1.0" stroke="rgb(0,0,0)" stroke-width="2"  />
			<g>
				<title>Aminotran_1_2 (PF00155)
"Aminotransferase class I and II"</title>
				<polygon class="PF00155" points="594,28 616,28 628,40 616,52 594,52" stroke-linejoin="round" width="37" height="24" fill="rgb(207,146,55)" stroke="rgb(165,116,43)" stroke-width="1" opacity="0.75" />
			</g>
		</g>
		<g>
			<title> (AJAP_32065)
Hypothetical protein</title>
			<polygon class=" (AJAP_32065)
Hypothetical protein" points="677,25 673,25 673,10 643,40 673,70 673,55 677,55" fill="rgb(255,255,255)" fill-opacity="1.0" stroke="rgb(0,0,0)" stroke-width="2"  />
			<g>
				<title>Methyltransf_2 (PF00891)
"O-methyltransferase domain"</title>
				<polygon class="PF00891" points="647,40 659,28 666,28 666,52 659,52" stroke-linejoin="round" width="21" height="24" fill="rgb(91,124,224)" stroke="rgb(72,99,179)" stroke-width="1" opacity="0.75" />
			</g>
			<g>
				<title>Dimerisation2 (PF16864)
"Dimerisation domain"</title>
				<rect class="PF16864" x="668" y="28" stroke-linejoin="round" width="8" height="24" fill="rgb(212,101,199)" stroke="rgb(169,80,159)" stroke-width="1" opacity="0.75" />
			</g>
		</g>
		<g>
			<title>tcp (AJAP_32070)
Mannossyltransferase</title>
			<polygon class="tcp (AJAP_32070)
Mannossyltransferase" points="740,25 710,25 710,10 680,40 710,70 710,55 740,55" fill="rgb(255,255,255)" fill-opacity="1.0" stroke="rgb(0,0,0)" stroke-width="2"  />
			<g>
				<title>PMT_2 (PF13231)
"Dolichyl-phosphate-mannose-protein mannosyltransferase"</title>
				<rect class="PF13231" x="715" y="28" stroke-linejoin="round" width="15" height="24" fill="rgb(110,225,63)" stroke="rgb(88,180,50)" stroke-width="1" opacity="0.75" />
			</g>
		</g>
		<g>
			<title> (AJAP_32075)
Hypothetical protein</title>
			<polygon class=" (AJAP_32075)
Hypothetical protein" points="741,40 769,10 769,70" fill="rgb(255,255,255)" fill-opacity="1.0" stroke="rgb(0,0,0)" stroke-width="2"  />
			<g>
				<title>PIG-L (PF02585)
"GlcNAc-PI de-N-acetylase"</title>
				<polygon class="PF02585" points="751,34 756,28 767,28 767,52 756,52 751,46" stroke-linejoin="round" width="16" height="24" fill="rgb(208,183,97)" stroke="rgb(166,146,77)" stroke-width="1" opacity="0.75" />
			</g>
		</g>
		<g>
			<title> (AJAP_32080)
Hypothetical protein</title>
			<polygon class=" (AJAP_32080)
Hypothetical protein" points="806,25 799,25 799,10 769,40 799,70 799,55 806,55" fill="rgb(255,255,255)" fill-opacity="1.0" stroke="rgb(0,0,0)" stroke-width="2"  />
			<g>
				<title>EryCIII-like_C (PF06722)
"Erythromycin biosynthesis protein CIII-like, C-terminal domain"</title>
				<polygon class="PF06722" points="773,40 782,31 782,49" stroke-linejoin="round" width="12" height="24" fill="rgb(48,103,191)" stroke="rgb(38,82,152)" stroke-width="1" opacity="0.75" />
			</g>
			<g>
				<title>Glyco_transf_28 (PF03033)
"Glycosyltransferase family 28 N-terminal domain"</title>
				<rect class="PF03033" x="793" y="28" stroke-linejoin="round" width="12" height="24" fill="rgb(77,78,223)" stroke="rgb(61,62,178)" stroke-width="1" opacity="0.75" />
			</g>
		</g>
		<g>
			<title> (AJAP_32085)
Hypothetical protein</title>
			<polygon class=" (AJAP_32085)
Hypothetical protein" points="807,40 834,10 834,70" fill="rgb(255,255,255)" fill-opacity="1.0" stroke="rgb(0,0,0)" stroke-width="2"  />
			<g>
				<title>Methyltransf_11 (PF08241)
"Methyltransferase domain"</title>
				<polygon class="PF08241" points="820,30 822,28 828,28 828,52 822,52 820,50" stroke-linejoin="round" width="8" height="24" fill="rgb(201,85,64)" stroke="rgb(160,68,51)" stroke-width="1" opacity="0.75" />
			</g>
		</g>
		<g>
			<title> (AJAP_32090)
glycosyl transferase family protein</title>
			<polygon class=" (AJAP_32090)
glycosyl transferase family protein" points="875,25 865,25 865,10 835,40 865,70 865,55 875,55" fill="rgb(255,255,255)" fill-opacity="1.0" stroke="rgb(0,0,0)" stroke-width="2"  />
			<g>
				<title>EryCIII-like_C (PF06722)
"Erythromycin biosynthesis protein CIII-like, C-terminal domain"</title>
				<polygon class="PF06722" points="839,40 847,32 847,48" stroke-linejoin="round" width="11" height="24" fill="rgb(48,103,191)" stroke="rgb(38,82,152)" stroke-width="1" opacity="0.75" />
			</g>
			<g>
				<title>Glyco_transf_28 (PF03033)
"Glycosyltransferase family 28 N-terminal domain"</title>
				<rect class="PF03033" x="862" y="28" stroke-linejoin="round" width="12" height="24" fill="rgb(77,78,223)" stroke="rgb(61,62,178)" stroke-width="1" opacity="0.75" />
			</g>
		</g>
		<g>
			<title> (AJAP_32095)
glycosyl transferase family protein</title>
			<polygon class=" (AJAP_32095)
glycosyl transferase family protein" points="916,25 906,25 906,10 876,40 906,70 906,55 916,55" fill="rgb(255,255,255)" fill-opacity="1.0" stroke="rgb(0,0,0)" stroke-width="2"  />
			<g>
				<title>EryCIII-like_C (PF06722)
"Erythromycin biosynthesis protein CIII-like, C-terminal domain"</title>
				<polygon class="PF06722" points="880,40 886,34 886,46" stroke-linejoin="round" width="9" height="24" fill="rgb(48,103,191)" stroke="rgb(38,82,152)" stroke-width="1" opacity="0.75" />
			</g>
			<g>
				<title>Glyco_transf_28 (PF03033)
"Glycosyltransferase family 28 N-terminal domain"</title>
				<rect class="PF03033" x="903" y="28" stroke-linejoin="round" width="12" height="24" fill="rgb(77,78,223)" stroke="rgb(61,62,178)" stroke-width="1" opacity="0.75" />
			</g>
		</g>
		<g>
			<title> (AJAP_32100)
glycosyl transferase family protein</title>
			<polygon class=" (AJAP_32100)
glycosyl transferase family protein" points="956,25 948,25 948,10 918,40 948,70 948,55 956,55" fill="rgb(255,255,255)" fill-opacity="1.0" stroke="rgb(0,0,0)" stroke-width="2"  />
			<g>
				<title>EryCIII-like_C (PF06722)
"Erythromycin biosynthesis protein CIII-like, C-terminal domain"</title>
				<polygon class="PF06722" points="922,40 931,31 931,49" stroke-linejoin="round" width="12" height="24" fill="rgb(48,103,191)" stroke="rgb(38,82,152)" stroke-width="1" opacity="0.75" />
			</g>
			<g>
				<title>Glyco_transf_28 (PF03033)
"Glycosyltransferase family 28 N-terminal domain"</title>
				<rect class="PF03033" x="944" y="28" stroke-linejoin="round" width="12" height="24" fill="rgb(77,78,223)" stroke="rgb(61,62,178)" stroke-width="1" opacity="0.75" />
			</g>
		</g>
		<g>
			<title> (AJAP_32105)
Cytochrome P450</title>
			<polygon class=" (AJAP_32105)
Cytochrome P450" points="998,25 987,25 987,10 957,40 987,70 987,55 998,55" fill="rgb(255,255,255)" fill-opacity="1.0" stroke="rgb(0,0,0)" stroke-width="2"  />
			<g>
				<title>p450 (PF00067)
"Cytochrome P450"</title>
				<polygon class="PF00067" points="961,40 973,28 979,28 979,52 973,52" stroke-linejoin="round" width="21" height="24" fill="rgb(195,210,54)" stroke="rgb(155,168,43)" stroke-width="1" opacity="0.75" />
			</g>
		</g>
		<g>
			<title> (AJAP_32110)
Cytochrome P450</title>
			<polygon class=" (AJAP_32110)
Cytochrome P450" points="1041,25 1032,25 1032,10 1002,40 1032,70 1032,55 1041,55" fill="rgb(255,255,255)" fill-opacity="1.0" stroke="rgb(0,0,0)" stroke-width="2"  />
			<g>
				<title>p450 (PF00067)
"Cytochrome P450"</title>
				<polygon class="PF00067" points="1006,40 1018,28 1024,28 1024,52 1018,52" stroke-linejoin="round" width="22" height="24" fill="rgb(195,210,54)" stroke="rgb(155,168,43)" stroke-width="1" opacity="0.75" />
			</g>
		</g>
		<g>
			<title> (AJAP_32115)
Cytochrome P450</title>
			<polygon class=" (AJAP_32115)
Cytochrome P450" points="1079,25 1071,25 1071,10 1041,40 1071,70 1071,55 1079,55" fill="rgb(255,255,255)" fill-opacity="1.0" stroke="rgb(0,0,0)" stroke-width="2"  />
			<g>
				<title>p450 (PF00067)
"Cytochrome P450"</title>
				<polygon class="PF00067" points="1045,40 1057,28 1063,28 1063,52 1057,52" stroke-linejoin="round" width="20" height="24" fill="rgb(195,210,54)" stroke="rgb(155,168,43)" stroke-width="1" opacity="0.75" />
			</g>
		</g>
		<g>
			<title> (AJAP_32120)
Cytochrome P450</title>
			<polygon class=" (AJAP_32120)
Cytochrome P450" points="1120,25 1111,25 1111,10 1081,40 1111,70 1111,55 1120,55" fill="rgb(255,255,255)" fill-opacity="1.0" stroke="rgb(0,0,0)" stroke-width="2"  />
			<g>
				<title>p450 (PF00067)
"Cytochrome P450"</title>
				<polygon class="PF00067" points="1085,40 1093,32 1093,48" stroke-linejoin="round" width="11" height="24" fill="rgb(195,210,54)" stroke="rgb(155,168,43)" stroke-width="1" opacity="0.75" />
			</g>
		</g>
		<g>
			<title> (AJAP_32125)
Hypothetical protein</title>
			<polygon class=" (AJAP_32125)
Hypothetical protein" points="1127,40 1134,10 1134,70" fill="rgb(255,255,255)" fill-opacity="1.0" stroke="rgb(0,0,0)" stroke-width="2"  />
			<g>
				<title>MbtH (PF03621)
"MbtH-like protein"</title>
				<polygon class="PF03621" points="1130,40 1133,28 1133,28 1133,52 1133,52" stroke-linejoin="round" width="5" height="24" fill="rgb(102,212,116)" stroke="rgb(81,169,92)" stroke-width="1" opacity="0.75" />
			</g>
		</g>
		<g>
			<title> (AJAP_32130)
Hypothetical protein</title>
			<polygon class=" (AJAP_32130)
Hypothetical protein" points="1320,25 1165,25 1165,10 1135,40 1165,70 1165,55 1320,55" fill="rgb(255,255,255)" fill-opacity="1.0" stroke="rgb(0,0,0)" stroke-width="2"  />
			<g>
				<title>Thioesterase (PF00975)
"Thioesterase domain"</title>
				<polygon class="PF00975" points="1139,40 1151,28 1158,28 1158,52 1151,52" stroke-linejoin="round" width="23" height="24" fill="rgb(69,76,223)" stroke="rgb(55,60,178)" stroke-width="1" opacity="0.75" />
			</g>
			<g>
				<title>Condensation (PF00668)
"Condensation domain"</title>
				<rect class="PF00668" x="1170" y="28" stroke-linejoin="round" width="45" height="24" fill="rgb(172,217,60)" stroke="rgb(137,173,47)" stroke-width="1" opacity="0.75" />
			</g>
			<g>
				<title>PP-binding (PF00550)
"Phosphopantetheine attachment site"</title>
				<rect class="PF00550" x="1216" y="28" stroke-linejoin="round" width="6" height="24" fill="rgb(181,58,166)" stroke="rgb(144,46,132)" stroke-width="1" opacity="0.75" />
			</g>
			<g>
				<title>AMP-binding_C (PF13193)
"AMP-binding enzyme C-terminal domain"</title>
				<rect class="PF13193" x="1225" y="28" stroke-linejoin="round" width="7" height="24" fill="rgb(195,82,106)" stroke="rgb(156,65,84)" stroke-width="1" opacity="0.75" />
			</g>
			<g>
				<title>AMP-binding (PF00501)
"AMP-binding enzyme"</title>
				<rect class="PF00501" x="1238" y="28" stroke-linejoin="round" width="34" height="24" fill="rgb(189,78,204)" stroke="rgb(151,62,163)" stroke-width="1" opacity="0.75" />
			</g>
			<g>
				<title>Condensation (PF00668)
"Condensation domain"</title>
				<rect class="PF00668" x="1275" y="28" stroke-linejoin="round" width="43" height="24" fill="rgb(172,217,60)" stroke="rgb(137,173,47)" stroke-width="1" opacity="0.75" />
			</g>
		</g>
		<g>
			<title> (AJAP_32135)
Hypothetical protein</title>
			<polygon class=" (AJAP_32135)
Hypothetical protein" points="1724,25 1355,25 1355,10 1325,40 1355,70 1355,55 1724,55" fill="rgb(255,255,255)" fill-opacity="1.0" stroke="rgb(0,0,0)" stroke-width="2"  />
			<g>
				<title>PP-binding (PF00550)
"Phosphopantetheine attachment site"</title>
				<polygon class="PF00550" points="1329,40 1334,35 1334,45" stroke-linejoin="round" width="6" height="24" fill="rgb(181,58,166)" stroke="rgb(144,46,132)" stroke-width="1" opacity="0.75" />
			</g>
			<g>
				<title>AMP-binding_C (PF13193)
"AMP-binding enzyme C-terminal domain"</title>
				<polygon class="PF13193" points="1337,32 1341,28 1344,28 1344,52 1341,52 1337,48" stroke-linejoin="round" width="7" height="24" fill="rgb(195,82,106)" stroke="rgb(156,65,84)" stroke-width="1" opacity="0.75" />
			</g>
			<g>
				<title>AMP-binding (PF00501)
"AMP-binding enzyme"</title>
				<rect class="PF00501" x="1350" y="28" stroke-linejoin="round" width="33" height="24" fill="rgb(189,78,204)" stroke="rgb(151,62,163)" stroke-width="1" opacity="0.75" />
			</g>
			<g>
				<title>Condensation (PF00668)
"Condensation domain"</title>
				<rect class="PF00668" x="1386" y="28" stroke-linejoin="round" width="43" height="24" fill="rgb(172,217,60)" stroke="rgb(137,173,47)" stroke-width="1" opacity="0.75" />
			</g>
			<g>
				<title>Condensation (PF00668)
"Condensation domain"</title>
				<rect class="PF00668" x="1432" y="28" stroke-linejoin="round" width="40" height="24" fill="rgb(172,217,60)" stroke="rgb(137,173,47)" stroke-width="1" opacity="0.75" />
			</g>
			<g>
				<title>PP-binding (PF00550)
"Phosphopantetheine attachment site"</title>
				<rect class="PF00550" x="1477" y="28" stroke-linejoin="round" width="6" height="24" fill="rgb(181,58,166)" stroke="rgb(144,46,132)" stroke-width="1" opacity="0.75" />
			</g>
			<g>
				<title>AMP-binding_C (PF13193)
"AMP-binding enzyme C-terminal domain"</title>
				<rect class="PF13193" x="1486" y="28" stroke-linejoin="round" width="7" height="24" fill="rgb(195,82,106)" stroke="rgb(156,65,84)" stroke-width="1" opacity="0.75" />
			</g>
			<g>
				<title>AMP-binding (PF00501)
"AMP-binding enzyme"</title>
				<rect class="PF00501" x="1499" y="28" stroke-linejoin="round" width="33" height="24" fill="rgb(189,78,204)" stroke="rgb(151,62,163)" stroke-width="1" opacity="0.75" />
			</g>
			<g>
				<title>Condensation (PF00668)
"Condensation domain"</title>
				<rect class="PF00668" x="1534" y="28" stroke-linejoin="round" width="43" height="24" fill="rgb(172,217,60)" stroke="rgb(137,173,47)" stroke-width="1" opacity="0.75" />
			</g>
			<g>
				<title>Condensation (PF00668)
"Condensation domain"</title>
				<rect class="PF00668" x="1586" y="28" stroke-linejoin="round" width="34" height="24" fill="rgb(172,217,60)" stroke="rgb(137,173,47)" stroke-width="1" opacity="0.75" />
			</g>
			<g>
				<title>PP-binding (PF00550)
"Phosphopantetheine attachment site"</title>
				<rect class="PF00550" x="1623" y="28" stroke-linejoin="round" width="6" height="24" fill="rgb(181,58,166)" stroke="rgb(144,46,132)" stroke-width="1" opacity="0.75" />
			</g>
			<g>
				<title>AMP-binding_C (PF13193)
"AMP-binding enzyme C-terminal domain"</title>
				<rect class="PF13193" x="1632" y="28" stroke-linejoin="round" width="7" height="24" fill="rgb(195,82,106)" stroke="rgb(156,65,84)" stroke-width="1" opacity="0.75" />
			</g>
			<g>
				<title>AMP-binding (PF00501)
"AMP-binding enzyme"</title>
				<rect class="PF00501" x="1644" y="28" stroke-linejoin="round" width="34" height="24" fill="rgb(189,78,204)" stroke="rgb(151,62,163)" stroke-width="1" opacity="0.75" />
			</g>
			<g>
				<title>Condensation (PF00668)
"Condensation domain"</title>
				<rect class="PF00668" x="1681" y="28" stroke-linejoin="round" width="42" height="24" fill="rgb(172,217,60)" stroke="rgb(137,173,47)" stroke-width="1" opacity="0.75" />
			</g>
		</g>
		<g>
			<title> (AJAP_32140)
Hypothetical protein</title>
			<polygon class=" (AJAP_32140)
Hypothetical protein" points="1841,25 1766,25 1766,10 1736,40 1766,70 1766,55 1841,55" fill="rgb(255,255,255)" fill-opacity="1.0" stroke="rgb(0,0,0)" stroke-width="2"  />
			<g>
				<title>PP-binding (PF00550)
"Phosphopantetheine attachment site"</title>
				<polygon class="PF00550" points="1740,40 1746,34 1746,46 1740,40" stroke-linejoin="round" width="6" height="24" fill="rgb(181,58,166)" stroke="rgb(144,46,132)" stroke-width="1" opacity="0.75" />
			</g>
			<g>
				<title>AMP-binding_C (PF13193)
"AMP-binding enzyme C-terminal domain"</title>
				<polygon class="PF13193" points="1748,32 1752,28 1754,28 1754,52 1752,52 1748,48" stroke-linejoin="round" width="6" height="24" fill="rgb(195,82,106)" stroke="rgb(156,65,84)" stroke-width="1" opacity="0.75" />
			</g>
			<g>
				<title>AMP-binding (PF00501)
"AMP-binding enzyme"</title>
				<rect class="PF00501" x="1761" y="28" stroke-linejoin="round" width="33" height="24" fill="rgb(189,78,204)" stroke="rgb(151,62,163)" stroke-width="1" opacity="0.75" />
			</g>
			<g>
				<title>Condensation (PF00668)
"Condensation domain"</title>
				<rect class="PF00668" x="1796" y="28" stroke-linejoin="round" width="43" height="24" fill="rgb(172,217,60)" stroke="rgb(137,173,47)" stroke-width="1" opacity="0.75" />
			</g>
		</g>
		<g>
			<title> (AJAP_32145)
Hypothetical protein</title>
			<polygon class=" (AJAP_32145)
Hypothetical protein" points="2047,25 1871,25 1871,10 1841,40 1871,70 1871,55 2047,55" fill="rgb(255,255,255)" fill-opacity="1.0" stroke="rgb(0,0,0)" stroke-width="2"  />
			<g>
				<title>Condensation (PF00668)
"Condensation domain"</title>
				<polygon class="PF00668" points="1845,40 1857,28 1885,28 1885,52 1857,52" stroke-linejoin="round" width="42" height="24" fill="rgb(172,217,60)" stroke="rgb(137,173,47)" stroke-width="1" opacity="0.75" />
			</g>
			<g>
				<title>PP-binding (PF00550)
"Phosphopantetheine attachment site"</title>
				<rect class="PF00550" x="1889" y="28" stroke-linejoin="round" width="6" height="24" fill="rgb(181,58,166)" stroke="rgb(144,46,132)" stroke-width="1" opacity="0.75" />
			</g>
			<g>
				<title>AMP-binding_C (PF13193)
"AMP-binding enzyme C-terminal domain"</title>
				<rect class="PF13193" x="1898" y="28" stroke-linejoin="round" width="6" height="24" fill="rgb(195,82,106)" stroke="rgb(156,65,84)" stroke-width="1" opacity="0.75" />
			</g>
			<g>
				<title>AMP-binding (PF00501)
"AMP-binding enzyme"</title>
				<rect class="PF00501" x="1910" y="28" stroke-linejoin="round" width="33" height="24" fill="rgb(189,78,204)" stroke="rgb(151,62,163)" stroke-width="1" opacity="0.75" />
			</g>
			<g>
				<title>Condensation (PF00668)
"Condensation domain"</title>
				<rect class="PF00668" x="1946" y="28" stroke-linejoin="round" width="41" height="24" fill="rgb(172,217,60)" stroke="rgb(137,173,47)" stroke-width="1" opacity="0.75" />
			</g>
			<g>
				<title>PP-binding (PF00550)
"Phosphopantetheine attachment site"</title>
				<rect class="PF00550" x="1990" y="28" stroke-linejoin="round" width="6" height="24" fill="rgb(181,58,166)" stroke="rgb(144,46,132)" stroke-width="1" opacity="0.75" />
			</g>
			<g>
				<title>AMP-binding_C (PF13193)
"AMP-binding enzyme C-terminal domain"</title>
				<rect class="PF13193" x="1999" y="28" stroke-linejoin="round" width="6" height="24" fill="rgb(195,82,106)" stroke="rgb(156,65,84)" stroke-width="1" opacity="0.75" />
			</g>
			<g>
				<title>AMP-binding (PF00501)
"AMP-binding enzyme"</title>
				<rect class="PF00501" x="2012" y="28" stroke-linejoin="round" width="33" height="24" fill="rgb(189,78,204)" stroke="rgb(151,62,163)" stroke-width="1" opacity="0.75" />
			</g>
		</g>
		<g>
			<title> (AJAP_32150)
Conserved putative membrane protein</title>
			<polygon class=" (AJAP_32150)
Conserved putative membrane protein" points="2112,25 2077,25 2077,10 2047,40 2077,70 2077,55 2112,55" fill="rgb(255,255,255)" fill-opacity="1.0" stroke="rgb(0,0,0)" stroke-width="2"  />
			<g>
				<title>ABC_tran (PF00005)
"ABC transporter"</title>
				<polygon class="PF00005" points="2057,34 2063,28 2071,28 2071,52 2063,52 2057,46" stroke-linejoin="round" width="14" height="24" fill="rgb(46,186,108)" stroke="rgb(36,148,86)" stroke-width="1" opacity="0.75" />
			</g>
			<g>
				<title>ABC_membrane (PF00664)
"ABC transporter transmembrane region"</title>
				<rect class="PF00664" x="2080" y="28" stroke-linejoin="round" width="27" height="24" fill="rgb(62,71,183)" stroke="rgb(49,56,146)" stroke-width="1" opacity="0.75" />
			</g>
		</g>
		<g>
			<title> (AJAP_32155)
Hypothetical protein</title>
			<polygon class=" (AJAP_32155)
Hypothetical protein" points="2118,40 2145,10 2145,70" fill="rgb(255,255,255)" fill-opacity="1.0" stroke="rgb(0,0,0)" stroke-width="2"  />
			<g>
				<title>PDH_C (PF20463)
"Prephenate dehydrogenase, dimerization domain"</title>
				<polygon class="PF20463" points="2122,40 2128,34 2128,46" stroke-linejoin="round" width="9" height="24" fill="rgb(83,223,141)" stroke="rgb(66,178,112)" stroke-width="1" opacity="0.75" />
			</g>
			<g>
				<title>PDH_N (PF02153)
"Prephenate dehydrogenase, nucleotide-binding domain"</title>
				<polygon class="PF02153" points="2129,32 2133,28 2143,28 2143,52 2133,52 2129,48" stroke-linejoin="round" width="14" height="24" fill="rgb(204,207,87)" stroke="rgb(163,165,69)" stroke-width="1" opacity="0.75" />
			</g>
		</g>
		<g>
			<title> (AJAP_32160)
Putative transcriptionalregulator</title>
			<polygon class=" (AJAP_32160)
Putative transcriptionalregulator" points="2150,40 2176,10 2176,70" fill="rgb(255,255,255)" fill-opacity="1.0" stroke="rgb(0,0,0)" stroke-width="2"  />
			<g>
				<title>HTH_23 (PF13384)
"Homeodomain-like domain"</title>
				<polygon class="PF13384" points="2160,33 2164,29 2164,51 2160,47" stroke-linejoin="round" width="4" height="24" fill="rgb(98,193,64)" stroke="rgb(78,154,51)" stroke-width="1" opacity="0.75" />
			</g>
		</g>
		<g>
			<title>vanX (AJAP_32165)
D-alanyl-D-alanine dipeptidase</title>
			<polygon class="vanX (AJAP_32165)
D-alanyl-D-alanine dipeptidase" points="2215,40 2235,10 2235,70" fill="rgb(255,255,255)" fill-opacity="1.0" stroke="rgb(0,0,0)" stroke-width="2"  />
			<g>
				<title>Peptidase_M15 (PF01427)
"D-ala-D-ala dipeptidase"</title>
				<polygon class="PF01427" points="2219,40 2227,28 2235,28 2235,52 2227,52" stroke-linejoin="round" width="20" height="24" fill="rgb(171,201,58)" stroke="rgb(136,160,46)" stroke-width="1" opacity="0.75" />
			</g>
		</g>
		<g>
			<title> (AJAP_32170)
Putative D-alanine-D-lactate ligase</title>
			<polygon class=" (AJAP_32170)
Putative D-alanine-D-lactate ligase" points="2269,25 2265,25 2265,10 2235,40 2265,70 2265,55 2269,55" fill="rgb(255,255,255)" fill-opacity="1.0" stroke="rgb(0,0,0)" stroke-width="2"  />
			<g>
				<title>Dala_Dala_lig_C (PF07478)
"D-ala D-ala ligase C-terminus"</title>
				<polygon class="PF07478" points="2239,40 2251,28 2255,28 2255,52 2251,52" stroke-linejoin="round" width="19" height="24" fill="rgb(192,177,91)" stroke="rgb(153,141,72)" stroke-width="1" opacity="0.75" />
			</g>
			<g>
				<title>Dala_Dala_lig_N (PF01820)
"D-ala D-ala ligase N-terminus"</title>
				<rect class="PF01820" x="2257" y="28" stroke-linejoin="round" width="11" height="24" fill="rgb(194,194,52)" stroke="rgb(155,155,41)" stroke-width="1" opacity="0.75" />
			</g>
		</g>
		<g>
			<title>vanH (AJAP_32175)
D-specific alpha-keto acid dehydrogenase</title>
			<polygon class="vanH (AJAP_32175)
D-specific alpha-keto acid dehydrogenase" points="2270,40 2299,10 2299,70" fill="rgb(255,255,255)" fill-opacity="1.0" stroke="rgb(0,0,0)" stroke-width="2"  />
			<g>
				<title>2-Hacid_dh_C (PF02826)
"D-isomer specific 2-hydroxyacid dehydrogenase, NAD binding domain"</title>
				<polygon class="PF02826" points="2274,40 2286,28 2290,28 2290,52 2286,52" stroke-linejoin="round" width="18" height="24" fill="rgb(93,92,222)" stroke="rgb(74,73,177)" stroke-width="1" opacity="0.75" />
			</g>
		</g>
	</g>
</svg>
