<svg version="1.1" baseProfile="full" xmlns="http://www.w3.org/2000/svg" width="268.0" height="80">
	<g>
		<line x1="10" y1="40.0" x2="258.0" y2="40.0" style="stroke:rgb(70,70,70); stroke-width:3 "/>
		<g>
			<title> (SSGG_RS0133190)
serine/threonine protein kinase</title>
			<polygon class=" (SSGG_RS0133190)
serine/threonine protein kinase" points="12,25 31,25 31,10 61,40 31,70 31,55 12,55" fill="rgb(255,255,255)" fill-opacity="1.0" stroke="rgb(0,0,0)" stroke-width="2"  />
			<g>
				<title>Pkinase (PF00069)
"Protein kinase domain"</title>
				<polygon class="PF00069" points="35,28 44,28 56,40 44,52 35,52" stroke-linejoin="round" width="24" height="24" fill="rgb(93,191,206)" stroke="rgb(74,152,164)" stroke-width="1" opacity="0.75" />
			</g>
		</g>
		<g>
			<title> (SSGG_RS09930)
hypothetical protein</title>
			<polygon class=" (SSGG_RS09930)
hypothetical protein" points="99,10 105,40 99,70" fill="rgb(255,255,255)" fill-opacity="1.0" stroke="rgb(0,0,0)" stroke-width="2"  />
		</g>
		<g>
			<title> (SSGG_RS09925)
AmfS protein</title>
			<polygon class=" (SSGG_RS09925)
AmfS protein" points="106,10 110,40 106,70" fill="rgb(255,255,255)" fill-opacity="1.0" stroke="rgb(0,0,0)" stroke-width="2"  />
			<g>
				<title>RamS (PF19402)
"Lanthionine-containing peptide SapB precursor RamS"</title>
				<polygon class="PF19402" points="106,31 107,40 106,49" stroke-linejoin="round" width="4" height="24" fill="rgb(102,208,156)" stroke="rgb(81,166,124)" stroke-width="1" opacity="0.75" />
			</g>
		</g>
		<g>
			<title> (SSGG_RS0133195)
ABC transporter ATP-binding protein</title>
			<polygon class=" (SSGG_RS0133195)
ABC transporter ATP-binding protein" points="114,25 119,25 119,10 149,40 119,70 119,55 114,55" fill="rgb(255,255,255)" fill-opacity="1.0" stroke="rgb(0,0,0)" stroke-width="2"  />
			<g>
				<title>ABC_membrane (PF00664)
"ABC transporter transmembrane region"</title>
				<polygon class="PF00664" points="116,28 133,28 142,37 142,43 133,52 116,52" stroke-linejoin="round" width="26" height="24" fill="rgb(62,71,183)" stroke="rgb(49,56,146)" stroke-width="1" opacity="0.75" />
			</g>
		</g>
		<g>
			<title> (SSGG_RS0133200)
ABC transporter ATP-binding protein</title>
			<polygon class=" (SSGG_RS0133200)
ABC transporter ATP-binding protein" points="159,10 170,40 159,70" fill="rgb(255,255,255)" fill-opacity="1.0" stroke="rgb(0,0,0)" stroke-width="2"  />
			<g>
				<title>ABC_tran (PF00005)
"ABC transporter"</title>
				<polygon class="PF00005" points="159,28 162,28 164,32 164,48 162,52 159,52" stroke-linejoin="round" width="5" height="24" fill="rgb(46,186,108)" stroke="rgb(36,148,86)" stroke-width="1" opacity="0.75" />
			</g>
		</g>
		<g>
			<title> (SSGG_RS09915)
transcriptional regulator</title>
			<polygon class=" (SSGG_RS09915)
transcriptional regulator" points="237,40 257,10 257,70" fill="rgb(255,255,255)" fill-opacity="1.0" stroke="rgb(0,0,0)" stroke-width="2"  />
			<g>
				<title>GerE (PF00196)
"Bacterial regulatory proteins, luxR family"</title>
				<polygon class="PF00196" points="241,40 242,39 242,41" stroke-linejoin="round" width="5" height="24" fill="rgb(225,67,110)" stroke="rgb(180,53,88)" stroke-width="1" opacity="0.75" />
			</g>
			<g>
				<title>Response_reg (PF00072)
"Response regulator receiver domain"</title>
				<polygon class="PF00072" points="245,34 249,28 256,28 256,52 249,52 245,46" stroke-linejoin="round" width="11" height="24" fill="rgb(59,131,198)" stroke="rgb(47,104,158)" stroke-width="1" opacity="0.75" />
			</g>
		</g>
	</g>
</svg>
