<svg version="1.1" baseProfile="full" xmlns="http://www.w3.org/2000/svg" width="1006.8666666666667" height="80">
	<g>
		<line x1="10" y1="40.0" x2="996.8666666666667" y2="40.0" style="stroke:rgb(70,70,70); stroke-width:3 "/>
		<g>
			<title>insA
InsA</title>
			<polygon class="insA
InsA" points="24,25 33,25 33,10 63,40 33,70 33,55 24,55" fill="rgb(255,255,255)" fill-opacity="1.0" stroke="rgb(0,0,0)" stroke-width="2"  />
			<g>
				<title>DDE_5 (PF13546)
"DDE superfamily endonuclease"</title>
				<polygon class="PF13546" points="26,28 46,28 53,35 53,45 46,52 26,52" stroke-linejoin="round" width="27" height="24" fill="rgb(114,214,85)" stroke="rgb(91,171,68)" stroke-width="1" opacity="0.75" />
			</g>
		</g>
		<g>
			<title>
streptomycin-6-phosphate phosphatase</title>
			<polygon class="
streptomycin-6-phosphate phosphatase" points="99,40 124,10 124,70" fill="rgb(255,255,255)" fill-opacity="1.0" stroke="rgb(0,0,0)" stroke-width="2"  />
			<g>
				<title>Alk_phosphatase (PF00245)
"Alkaline phosphatase"</title>
				<polygon class="PF00245" points="103,40 113,28 118,28 118,52 113,52 103,40" stroke-linejoin="round" width="15" height="24" fill="rgb(95,217,201)" stroke="rgb(76,173,160)" stroke-width="1" opacity="0.75" />
			</g>
		</g>
		<g>
			<title>aph_6_
APH(6)</title>
			<polygon class="aph_6_
APH(6)" points="130,25 130,25 130,10 160,40 130,70 130,55 130,55" fill="rgb(255,255,255)" fill-opacity="1.0" stroke="rgb(0,0,0)" stroke-width="2"  />
			<g>
				<title>APH_6_hur (PF04655)
"Aminoglycoside/hydroxyurea antibiotic resistance kinase"</title>
				<polygon class="PF04655" points="134,28 144,28 156,40 144,52 134,52" stroke-linejoin="round" width="24" height="24" fill="rgb(138,193,51)" stroke="rgb(110,154,40)" stroke-width="1" opacity="0.75" />
			</g>
		</g>
		<g>
			<title>
Orf2</title>
			<polygon class="
Orf2" points="174,10 184,40 174,70" fill="rgb(255,255,255)" fill-opacity="1.0" stroke="rgb(0,0,0)" stroke-width="2"  />
		</g>
		<g>
			<title>
orf3</title>
			<polygon class="
orf3" points="180,40 189,10 189,70" fill="rgb(255,255,255)" fill-opacity="1.0" stroke="rgb(0,0,0)" stroke-width="2"  />
		</g>
		<g>
			<title>spcR
SpcR</title>
			<polygon class="spcR
SpcR" points="220,25 223,25 223,10 253,40 223,70 223,55 220,55" fill="rgb(255,255,255)" fill-opacity="1.0" stroke="rgb(0,0,0)" stroke-width="2"  />
			<g>
				<title>ParBc (PF02195)
"ParB/Sulfiredoxin domain"</title>
				<rect class="PF02195" x="220" y="28" stroke-linejoin="round" width="8" height="24" fill="rgb(109,68,205)" stroke="rgb(87,54,164)" stroke-width="1" opacity="0.75" />
			</g>
			<g>
				<title>HTH_23 (PF13384)
"Homeodomain-like domain"</title>
				<polygon class="PF13384" points="236,28 236,28 240,32 240,48 236,52 236,52" stroke-linejoin="round" width="4" height="24" fill="rgb(98,193,64)" stroke="rgb(78,154,51)" stroke-width="1" opacity="0.75" />
			</g>
		</g>
		<g>
			<title>spcN
SpcN</title>
			<polygon class="spcN
SpcN" points="293,25 290,25 290,10 260,40 290,70 290,55 293,55" fill="rgb(255,255,255)" fill-opacity="1.0" stroke="rgb(0,0,0)" stroke-width="2"  />
			<g>
				<title>APH (PF01636)
"Phosphotransferase enzyme family"</title>
				<polygon class="PF01636" points="264,40 276,28 289,28 289,52 276,52 264,40" stroke-linejoin="round" width="25" height="24" fill="rgb(113,205,78)" stroke="rgb(90,164,62)" stroke-width="1" opacity="0.75" />
			</g>
		</g>
		<g>
			<title>spcT
SpcT</title>
			<polygon class="spcT
SpcT" points="337,25 324,25 324,10 294,40 324,70 324,55 337,55" fill="rgb(255,255,255)" fill-opacity="1.0" stroke="rgb(0,0,0)" stroke-width="2"  />
			<g>
				<title>MFS_1 (PF07690)
"Major Facilitator Superfamily"</title>
				<polygon class="PF07690" points="299,39 310,28 333,28 333,52 310,52 299,41" stroke-linejoin="round" width="34" height="24" fill="rgb(228,207,98)" stroke="rgb(182,165,78)" stroke-width="1" opacity="0.75" />
			</g>
		</g>
		<g>
			<title>spcA
SpcA</title>
			<polygon class="spcA
SpcA" points="339,40 365,10 365,70" fill="rgb(255,255,255)" fill-opacity="1.0" stroke="rgb(0,0,0)" stroke-width="2"  />
			<g>
				<title>Inositol_P (PF00459)
"Inositol monophosphatase family"</title>
				<polygon class="PF00459" points="343,40 354,28 364,28 364,52 354,52" stroke-linejoin="round" width="25" height="24" fill="rgb(213,222,107)" stroke="rgb(170,177,85)" stroke-width="1" opacity="0.75" />
			</g>
		</g>
		<g>
			<title>spcB
SpcB</title>
			<polygon class="spcB
SpcB" points="370,25 379,25 379,10 409,40 379,70 379,55 370,55" fill="rgb(255,255,255)" fill-opacity="1.0" stroke="rgb(0,0,0)" stroke-width="2"  />
			<g>
				<title>GFO_IDH_MocA (PF01408)
"Oxidoreductase family, NAD-binding Rossmann fold"</title>
				<rect class="PF01408" x="372" y="28" stroke-linejoin="round" width="12" height="24" fill="rgb(53,193,178)" stroke="rgb(42,154,142)" stroke-width="1" opacity="0.75" />
			</g>
		</g>
		<g>
			<title>spcC
SpcC</title>
			<polygon class="spcC
SpcC" points="410,25 424,25 424,10 454,40 424,70 424,55 410,55" fill="rgb(255,255,255)" fill-opacity="1.0" stroke="rgb(0,0,0)" stroke-width="2"  />
			<g>
				<title>Aminotran_3 (PF00202)
"Aminotransferase class-III"</title>
				<polygon class="PF00202" points="412,28 437,28 449,40 437,52 412,52" stroke-linejoin="round" width="40" height="24" fill="rgb(182,63,213)" stroke="rgb(145,50,170)" stroke-width="1" opacity="0.75" />
			</g>
		</g>
		<g>
			<title>spcD
SpcD</title>
			<polygon class="spcD
SpcD" points="455,10 481,40 455,70" fill="rgb(255,255,255)" fill-opacity="1.0" stroke="rgb(0,0,0)" stroke-width="2"  />
			<g>
				<title>AP_endonuc_2 (PF01261)
"Xylose isomerase-like TIM barrel"</title>
				<polygon class="PF01261" points="456,28 467,28 477,40 467,52 456,52" stroke-linejoin="round" width="23" height="24" fill="rgb(208,156,85)" stroke="rgb(166,124,68)" stroke-width="1" opacity="0.75" />
			</g>
		</g>
		<g>
			<title>spcX
SpcX</title>
			<polygon class="spcX
SpcX" points="485,25 494,25 494,10 524,40 494,70 494,55 485,55" fill="rgb(255,255,255)" fill-opacity="1.0" stroke="rgb(0,0,0)" stroke-width="2"  />
			<g>
				<title>SBP_bac_1 (PF01547)
"Bacterial extracellular solute-binding protein"</title>
				<polygon class="PF01547" points="485,28 508,28 514,34 514,46 508,52 485,52" stroke-linejoin="round" width="29" height="24" fill="rgb(207,102,197)" stroke="rgb(165,81,157)" stroke-width="1" opacity="0.75" />
			</g>
		</g>
		<g>
			<title>spcE
SpcE</title>
			<polygon class="spcE
SpcE" points="526,25 538,25 538,10 568,40 538,70 538,55 526,55" fill="rgb(255,255,255)" fill-opacity="1.0" stroke="rgb(0,0,0)" stroke-width="2"  />
			<g>
				<title>DegT_DnrJ_EryC1 (PF01041)
"DegT/DnrJ/EryC1/StrS aminotransferase family"</title>
				<polygon class="PF01041" points="528,28 552,28 562,38 562,42 552,52 528,52" stroke-linejoin="round" width="34" height="24" fill="rgb(228,110,183)" stroke="rgb(182,88,146)" stroke-width="1" opacity="0.75" />
			</g>
		</g>
		<g>
			<title>spcY
SpcY</title>
			<polygon class="spcY
SpcY" points="570,25 570,25 570,10 600,40 570,70 570,55 570,55" fill="rgb(255,255,255)" fill-opacity="1.0" stroke="rgb(0,0,0)" stroke-width="2"  />
			<g>
				<title>Radical_SAM (PF04055)
"Radical SAM superfamily"</title>
				<rect class="PF04055" x="571" y="28" stroke-linejoin="round" width="13" height="24" fill="rgb(223,193,78)" stroke="rgb(178,154,62)" stroke-width="1" opacity="0.75" />
			</g>
		</g>
		<g>
			<title>spcF
SpcF</title>
			<polygon class="spcF
SpcF" points="600,10 627,40 600,70" fill="rgb(255,255,255)" fill-opacity="1.0" stroke="rgb(0,0,0)" stroke-width="2"  />
			<g>
				<title>Glycos_transf_2 (PF00535)
"Glycosyl transferase family 2"</title>
				<polygon class="PF00535" points="601,28 611,28 618,35 618,45 611,52 601,52" stroke-linejoin="round" width="17" height="24" fill="rgb(197,62,212)" stroke="rgb(157,49,169)" stroke-width="1" opacity="0.75" />
			</g>
		</g>
		<g>
			<title>spcG
SpcG</title>
			<polygon class="spcG
SpcG" points="628,10 655,40 628,70" fill="rgb(255,255,255)" fill-opacity="1.0" stroke="rgb(0,0,0)" stroke-width="2"  />
		</g>
		<g>
			<title>spcH
SpcH</title>
			<polygon class="spcH
SpcH" points="692,25 688,25 688,10 658,40 688,70 688,55 692,55" fill="rgb(255,255,255)" fill-opacity="1.0" stroke="rgb(0,0,0)" stroke-width="2"  />
			<g>
				<title>GFO_IDH_MocA_C (PF02894)
"Oxidoreductase family, C-terminal alpha/beta domain"</title>
				<polygon class="PF02894" points="662,40 674,28 679,28 679,52 674,52" stroke-linejoin="round" width="20" height="24" fill="rgb(89,185,176)" stroke="rgb(71,148,140)" stroke-width="1" opacity="0.75" />
			</g>
			<g>
				<title>GFO_IDH_MocA (PF01408)
"Oxidoreductase family, NAD-binding Rossmann fold"</title>
				<rect class="PF01408" x="680" y="28" stroke-linejoin="round" width="12" height="24" fill="rgb(53,193,178)" stroke="rgb(42,154,142)" stroke-width="1" opacity="0.75" />
			</g>
		</g>
		<g>
			<title>spcI
SpcI</title>
			<polygon class="spcI
SpcI" points="699,25 700,25 700,10 730,40 700,70 700,55 699,55" fill="rgb(255,255,255)" fill-opacity="1.0" stroke="rgb(0,0,0)" stroke-width="2"  />
			<g>
				<title>Epimerase (PF01370)
"NAD dependent epimerase/dehydratase family"</title>
				<polygon class="PF01370" points="700,28 714,28 721,35 721,45 714,52 700,52" stroke-linejoin="round" width="21" height="24" fill="rgb(215,89,157)" stroke="rgb(172,71,125)" stroke-width="1" opacity="0.75" />
			</g>
		</g>
		<g>
			<title>spcJ
SpcJ</title>
			<polygon class="spcJ
SpcJ" points="765,25 763,25 763,10 733,40 763,70 763,55 765,55" fill="rgb(255,255,255)" fill-opacity="1.0" stroke="rgb(0,0,0)" stroke-width="2"  />
			<g>
				<title>GDP_Man_Dehyd (PF16363)
"GDP-mannose 4,6 dehydratase"</title>
				<polygon class="PF16363" points="737,40 749,28 765,28 765,52 749,52" stroke-linejoin="round" width="30" height="24" fill="rgb(50,144,195)" stroke="rgb(40,115,156)" stroke-width="1" opacity="0.75" />
			</g>
		</g>
		<g>
			<title>spcK
SpcK</title>
			<polygon class="spcK
SpcK" points="771,25 771,25 771,10 801,40 771,70 771,55 771,55" fill="rgb(255,255,255)" fill-opacity="1.0" stroke="rgb(0,0,0)" stroke-width="2"  />
			<g>
				<title>NTP_transferase (PF00483)
"Nucleotidyl transferase"</title>
				<polygon class="PF00483" points="771,28 785,28 794,37 794,43 785,52 771,52" stroke-linejoin="round" width="23" height="24" fill="rgb(211,145,90)" stroke="rgb(168,116,72)" stroke-width="1" opacity="0.75" />
			</g>
		</g>
		<g>
			<title>
Orf4</title>
			<polygon class="
Orf4" points="915,25 877,25 877,10 847,40 877,70 877,55 915,55" fill="rgb(255,255,255)" fill-opacity="1.0" stroke="rgb(0,0,0)" stroke-width="2"  />
			<g>
				<title>Mu-transpos_C (PF09299)
"Mu transposase, C-terminal"</title>
				<polygon class="PF09299" points="860,31 863,28 866,28 866,52 863,52 860,49" stroke-linejoin="round" width="6" height="24" fill="rgb(74,148,221)" stroke="rgb(59,118,176)" stroke-width="1" opacity="0.75" />
			</g>
		</g>
	</g>
</svg>
