<svg version="1.1" baseProfile="full" xmlns="http://www.w3.org/2000/svg" width="984.2333333333333" height="80">
	<g>
		<line x1="10" y1="40.0" x2="974.2333333333333" y2="40.0" style="stroke:rgb(70,70,70); stroke-width:3 "/>
		<g>
			<title>pgm1
peptide ligase</title>
			<polygon class="pgm1
peptide ligase" points="56,25 42,25 42,10 12,40 42,70 42,55 56,55" fill="rgb(255,255,255)" fill-opacity="1.0" stroke="rgb(0,0,0)" stroke-width="2"  />
			<g>
				<title>PGM1_C (PF18105)
"PGM1 C-terminal domain"</title>
				<polygon class="PF18105" points="16,40 18,38 18,42" stroke-linejoin="round" width="5" height="24" fill="rgb(204,203,100)" stroke="rgb(163,162,80)" stroke-width="1" opacity="0.75" />
			</g>
			<g>
				<title>PreAtp-grasp (PF18604)
"Pre ATP-grasp domain"</title>
				<rect class="PF18604" x="43" y="28" stroke-linejoin="round" width="9" height="24" fill="rgb(181,96,71)" stroke="rgb(144,76,56)" stroke-width="1" opacity="0.75" />
			</g>
		</g>
		<g>
			<title>pgm2
hypothetical protein</title>
			<polygon class="pgm2
hypothetical protein" points="64,10 67,40 64,70" fill="rgb(255,255,255)" fill-opacity="1.0" stroke="rgb(0,0,0)" stroke-width="2"  />
		</g>
		<g>
			<title>pgm3
radical SAM domain containing protein</title>
			<polygon class="pgm3
radical SAM domain containing protein" points="72,25 107,25 107,10 137,40 107,70 107,55 72,55" fill="rgb(255,255,255)" fill-opacity="1.0" stroke="rgb(0,0,0)" stroke-width="2"  />
			<g>
				<title>Radical_SAM (PF04055)
"Radical SAM superfamily"</title>
				<rect class="PF04055" x="101" y="28" stroke-linejoin="round" width="16" height="24" fill="rgb(223,193,78)" stroke="rgb(178,154,62)" stroke-width="1" opacity="0.75" />
			</g>
		</g>
		<g>
			<title>pgm4
C-methyltransferase</title>
			<polygon class="pgm4
C-methyltransferase" points="140,25 148,25 148,10 178,40 148,70 148,55 140,55" fill="rgb(255,255,255)" fill-opacity="1.0" stroke="rgb(0,0,0)" stroke-width="2"  />
			<g>
				<title>Dimerisation2 (PF16864)
"Dimerisation domain"</title>
				<rect class="PF16864" x="145" y="28" stroke-linejoin="round" width="8" height="24" fill="rgb(212,101,199)" stroke="rgb(169,80,159)" stroke-width="1" opacity="0.75" />
			</g>
			<g>
				<title>Methyltransf_2 (PF00891)
"O-methyltransferase domain"</title>
				<polygon class="PF00891" points="155,28 162,28 174,40 162,52 155,52" stroke-linejoin="round" width="21" height="24" fill="rgb(91,124,224)" stroke="rgb(72,99,179)" stroke-width="1" opacity="0.75" />
			</g>
		</g>
		<g>
			<title>pgm5
ABC transporter</title>
			<polygon class="pgm5
ABC transporter" points="178,25 206,25 206,10 236,40 206,70 206,55 178,55" fill="rgb(255,255,255)" fill-opacity="1.0" stroke="rgb(0,0,0)" stroke-width="2"  />
			<g>
				<title>ABC_membrane (PF00664)
"ABC transporter transmembrane region"</title>
				<rect class="PF00664" x="182" y="28" stroke-linejoin="round" width="26" height="24" fill="rgb(62,71,183)" stroke="rgb(49,56,146)" stroke-width="1" opacity="0.75" />
			</g>
			<g>
				<title>ABC_tran (PF00005)
"ABC transporter"</title>
				<polygon class="PF00005" points="216,28 220,28 229,37 229,43 220,52 216,52" stroke-linejoin="round" width="13" height="24" fill="rgb(46,186,108)" stroke="rgb(36,148,86)" stroke-width="1" opacity="0.75" />
			</g>
		</g>
		<g>
			<title>pgm6
ABC transporter</title>
			<polygon class="pgm6
ABC transporter" points="237,25 267,25 267,10 297,40 267,70 267,55 237,55" fill="rgb(255,255,255)" fill-opacity="1.0" stroke="rgb(0,0,0)" stroke-width="2"  />
			<g>
				<title>ABC_membrane (PF00664)
"ABC transporter transmembrane region"</title>
				<rect class="PF00664" x="240" y="28" stroke-linejoin="round" width="26" height="24" fill="rgb(62,71,183)" stroke="rgb(49,56,146)" stroke-width="1" opacity="0.75" />
			</g>
			<g>
				<title>ABC_tran (PF00005)
"ABC transporter"</title>
				<polygon class="PF00005" points="275,28 281,28 289,36 289,44 281,52 275,52" stroke-linejoin="round" width="14" height="24" fill="rgb(46,186,108)" stroke="rgb(36,148,86)" stroke-width="1" opacity="0.75" />
			</g>
		</g>
		<g>
			<title>pgm7
cytochrome P450</title>
			<polygon class="pgm7
cytochrome P450" points="342,25 328,25 328,10 298,40 328,70 328,55 342,55" fill="rgb(255,255,255)" fill-opacity="1.0" stroke="rgb(0,0,0)" stroke-width="2"  />
			<g>
				<title>p450 (PF00067)
"Cytochrome P450"</title>
				<polygon class="PF00067" points="302,40 310,32 310,48" stroke-linejoin="round" width="10" height="24" fill="rgb(195,210,54)" stroke="rgb(155,168,43)" stroke-width="1" opacity="0.75" />
			</g>
		</g>
		<g>
			<title>pgm8
aminotransferase</title>
			<polygon class="pgm8
aminotransferase" points="385,25 372,25 372,10 342,40 372,70 372,55 385,55" fill="rgb(255,255,255)" fill-opacity="1.0" stroke="rgb(0,0,0)" stroke-width="2"  />
			<g>
				<title>Aminotran_1_2 (PF00155)
"Aminotransferase class I and II"</title>
				<polygon class="PF00155" points="346,40 358,28 380,28 380,52 358,52" stroke-linejoin="round" width="37" height="24" fill="rgb(207,146,55)" stroke="rgb(165,116,43)" stroke-width="1" opacity="0.75" />
			</g>
		</g>
		<g>
			<title>pgm9
enoyl-CoA hydratase like protein</title>
			<polygon class="pgm9
enoyl-CoA hydratase like protein" points="430,25 416,25 416,10 386,40 416,70 416,55 430,55" fill="rgb(255,255,255)" fill-opacity="1.0" stroke="rgb(0,0,0)" stroke-width="2"  />
			<g>
				<title>ECH_1 (PF00378)
"Enoyl-CoA hydratase/isomerase"</title>
				<polygon class="PF00378" points="390,40 401,29 401,51" stroke-linejoin="round" width="12" height="24" fill="rgb(201,73,190)" stroke="rgb(160,58,152)" stroke-width="1" opacity="0.75" />
			</g>
		</g>
		<g>
			<title>pgm10
enoyl-CoA hydratase like protein</title>
			<polygon class="pgm10
enoyl-CoA hydratase like protein" points="430,40 457,10 457,70" fill="rgb(255,255,255)" fill-opacity="1.0" stroke="rgb(0,0,0)" stroke-width="2"  />
			<g>
				<title>ECH_1 (PF00378)
"Enoyl-CoA hydratase/isomerase"</title>
				<polygon class="PF00378" points="434,40 445,28 450,28 450,52 445,52 434,40" stroke-linejoin="round" width="16" height="24" fill="rgb(201,73,190)" stroke="rgb(160,58,152)" stroke-width="1" opacity="0.75" />
			</g>
		</g>
		<g>
			<title>pgm11
chalcone and stilbene synthase like protein</title>
			<polygon class="pgm11
chalcone and stilbene synthase like protein" points="494,25 489,25 489,10 459,40 489,70 489,55 494,55" fill="rgb(255,255,255)" fill-opacity="1.0" stroke="rgb(0,0,0)" stroke-width="2"  />
			<g>
				<title>Chal_sti_synt_C (PF02797)
"Chalcone and stilbene synthases, C-terminal domain"</title>
				<polygon class="PF02797" points="463,40 473,30 473,50" stroke-linejoin="round" width="14" height="24" fill="rgb(210,123,55)" stroke="rgb(168,98,44)" stroke-width="1" opacity="0.75" />
			</g>
			<g>
				<title>Chal_sti_synt_N (PF00195)
"Chalcone and stilbene synthases, N-terminal domain"</title>
				<polygon class="PF00195" points="474,29 475,28 488,28 488,52 475,52 474,51" stroke-linejoin="round" width="14" height="24" fill="rgb(102,206,179)" stroke="rgb(81,164,143)" stroke-width="1" opacity="0.75" />
			</g>
		</g>
		<g>
			<title>pgm12
amidinotransferase</title>
			<polygon class="pgm12
amidinotransferase" points="537,25 525,25 525,10 495,40 525,70 525,55 537,55" fill="rgb(255,255,255)" fill-opacity="1.0" stroke="rgb(0,0,0)" stroke-width="2"  />
		</g>
		<g>
			<title>pgm13
hypothetical protein</title>
			<polygon class="pgm13
hypothetical protein" points="618,25 574,25 574,10 544,40 574,70 574,55 618,55" fill="rgb(255,255,255)" fill-opacity="1.0" stroke="rgb(0,0,0)" stroke-width="2"  />
			<g>
				<title>FUSC_2 (PF13515)
"Fusaric acid resistance protein-like"</title>
				<rect class="PF13515" x="564" y="28" stroke-linejoin="round" width="13" height="24" fill="rgb(185,58,94)" stroke="rgb(148,46,75)" stroke-width="1" opacity="0.75" />
			</g>
		</g>
		<g>
			<title>pgm14
peptidase</title>
			<polygon class="pgm14
peptidase" points="740,25 654,25 654,10 624,40 654,70 654,55 740,55" fill="rgb(255,255,255)" fill-opacity="1.0" stroke="rgb(0,0,0)" stroke-width="2"  />
			<g>
				<title>Peptidase_M28 (PF04389)
"Peptidase family M28"</title>
				<rect class="PF04389" x="650" y="28" stroke-linejoin="round" width="20" height="24" fill="rgb(181,83,196)" stroke="rgb(144,66,156)" stroke-width="1" opacity="0.75" />
			</g>
			<g>
				<title>Peptidase_M4_C (PF02868)
"Thermolysin metallopeptidase, alpha-helical domain"</title>
				<rect class="PF02868" x="689" y="28" stroke-linejoin="round" width="16" height="24" fill="rgb(218,72,228)" stroke="rgb(174,57,182)" stroke-width="1" opacity="0.75" />
			</g>
			<g>
				<title>Peptidase_M4 (PF01447)
"Thermolysin metallopeptidase, catalytic domain"</title>
				<rect class="PF01447" x="707" y="28" stroke-linejoin="round" width="13" height="24" fill="rgb(73,208,125)" stroke="rgb(58,166,100)" stroke-width="1" opacity="0.75" />
			</g>
		</g>
		<g>
			<title>pgm15
transcriptional regulator</title>
			<polygon class="pgm15
transcriptional regulator" points="746,25 748,25 748,10 778,40 748,70 748,55 746,55" fill="rgb(255,255,255)" fill-opacity="1.0" stroke="rgb(0,0,0)" stroke-width="2"  />
			<g>
				<title>HTH_1 (PF00126)
"Bacterial regulatory helix-turn-helix protein, lysR family"</title>
				<rect class="PF00126" x="746" y="28" stroke-linejoin="round" width="5" height="24" fill="rgb(72,163,212)" stroke="rgb(57,130,169)" stroke-width="1" opacity="0.75" />
			</g>
			<g>
				<title>LysR_substrate (PF03466)
"LysR substrate binding domain"</title>
				<polygon class="PF03466" points="754,28 761,28 773,40 761,52 754,52" stroke-linejoin="round" width="20" height="24" fill="rgb(214,62,213)" stroke="rgb(171,49,170)" stroke-width="1" opacity="0.75" />
			</g>
		</g>
		<g>
			<title>pgm16
hypothetical protein</title>
			<polygon class="pgm16
hypothetical protein" points="779,40 791,10 791,70" fill="rgb(255,255,255)" fill-opacity="1.0" stroke="rgb(0,0,0)" stroke-width="2"  />
		</g>
		<g>
			<title>pgm17
hypothetical protein</title>
			<polygon class="pgm17
hypothetical protein" points="796,40 807,10 807,70" fill="rgb(255,255,255)" fill-opacity="1.0" stroke="rgb(0,0,0)" stroke-width="2"  />
			<g>
				<title>YjdM (PF03831)
"PhnA domain"</title>
				<polygon class="PF03831" points="799,40 802,32 802,48" stroke-linejoin="round" width="6" height="24" fill="rgb(224,101,219)" stroke="rgb(179,80,175)" stroke-width="1" opacity="0.75" />
			</g>
			<g>
				<title>YjdM_Zn_Ribbon (PF08274)
"PhnA Zinc-Ribbon"</title>
				<polygon class="PF08274" points="804,27 804,28 806,28 806,52 804,52 804,53" stroke-linejoin="round" width="2" height="24" fill="rgb(221,101,163)" stroke="rgb(176,80,130)" stroke-width="1" opacity="0.75" />
			</g>
		</g>
		<g>
			<title>pgm18
permease</title>
			<polygon class="pgm18
permease" points="853,25 841,25 841,10 811,40 841,70 841,55 853,55" fill="rgb(255,255,255)" fill-opacity="1.0" stroke="rgb(0,0,0)" stroke-width="2"  />
			<g>
				<title>MFS_3 (PF05977)
"Transmembrane secretion effector"</title>
				<polygon class="PF05977" points="815,40 827,28 853,28 853,52 827,52" stroke-linejoin="round" width="39" height="24" fill="rgb(75,61,221)" stroke="rgb(60,48,176)" stroke-width="1" opacity="0.75" />
			</g>
		</g>
		<g>
			<title>pgm19
non-ribosomal peptide synthetase C-domain containing protein</title>
			<polygon class="pgm19
non-ribosomal peptide synthetase C-domain containing protein" points="898,25 884,25 884,10 854,40 884,70 884,55 898,55" fill="rgb(255,255,255)" fill-opacity="1.0" stroke="rgb(0,0,0)" stroke-width="2"  />
			<g>
				<title>Condensation (PF00668)
"Condensation domain"</title>
				<polygon class="PF00668" points="858,40 870,28 896,28 896,52 870,52" stroke-linejoin="round" width="42" height="24" fill="rgb(172,217,60)" stroke="rgb(137,173,47)" stroke-width="1" opacity="0.75" />
			</g>
		</g>
		<g>
			<title>pgm20
non-ribosomal peptide synthetase T-domain containing protein</title>
			<polygon class="pgm20
non-ribosomal peptide synthetase T-domain containing protein" points="899,40 907,10 907,70" fill="rgb(255,255,255)" fill-opacity="1.0" stroke="rgb(0,0,0)" stroke-width="2"  />
			<g>
				<title>PP-binding (PF00550)
"Phosphopantetheine attachment site"</title>
				<polygon class="PF00550" points="902,40 905,28 906,28 906,52 905,52" stroke-linejoin="round" width="6" height="24" fill="rgb(181,58,166)" stroke="rgb(144,46,132)" stroke-width="1" opacity="0.75" />
			</g>
		</g>
		<g>
			<title>pgm21
non-ribosomal peptide synthetase A-domain containing protein</title>
			<polygon class="pgm21
non-ribosomal peptide synthetase A-domain containing protein" points="972,25 937,25 937,10 907,40 937,70 937,55 972,55" fill="rgb(255,255,255)" fill-opacity="1.0" stroke="rgb(0,0,0)" stroke-width="2"  />
			<g>
				<title>AMP-binding_C (PF13193)
"AMP-binding enzyme C-terminal domain"</title>
				<polygon class="PF13193" points="911,40 915,36 915,44" stroke-linejoin="round" width="7" height="24" fill="rgb(195,82,106)" stroke="rgb(156,65,84)" stroke-width="1" opacity="0.75" />
			</g>
			<g>
				<title>AMP-binding (PF00501)
"AMP-binding enzyme"</title>
				<polygon class="PF00501" points="921,30 923,28 954,28 954,52 923,52 921,50" stroke-linejoin="round" width="33" height="24" fill="rgb(189,78,204)" stroke="rgb(151,62,163)" stroke-width="1" opacity="0.75" />
			</g>
		</g>
	</g>
</svg>
