<svg version="1.1" baseProfile="full" xmlns="http://www.w3.org/2000/svg" width="886.7" height="80">
	<g>
		<line x1="10" y1="40.0" x2="876.7" y2="40.0" style="stroke:rgb(70,70,70); stroke-width:3 "/>
		<g>
			<title>CBR4
quinone reductase</title>
			<polygon class="CBR4
quinone reductase" points="26,10 54,40 26,70" fill="rgb(255,255,255)" fill-opacity="1.0" stroke="rgb(0,0,0)" stroke-width="2"  />
			<g>
				<title>adh_short (PF00106)
"short chain dehydrogenase"</title>
				<rect class="PF00106" x="26" y="28" stroke-linejoin="round" width="6" height="24" fill="rgb(128,81,196)" stroke="rgb(102,64,156)" stroke-width="1" opacity="0.75" />
			</g>
			<g>
				<title>adh_short_C2 (PF13561)
"Enoyl-(Acyl carrier protein) reductase"</title>
				<polygon class="PF13561" points="37,28 38,28 50,40 38,52 37,52" stroke-linejoin="round" width="17" height="24" fill="rgb(79,221,209)" stroke="rgb(63,176,167)" stroke-width="1" opacity="0.75" />
			</g>
		</g>
		<g>
			<title>uba2
ubiquitin-activating enzyme E1-like protein</title>
			<polygon class="uba2
ubiquitin-activating enzyme E1-like protein" points="133,25 94,25 94,10 64,40 94,70 94,55 133,55" fill="rgb(255,255,255)" fill-opacity="1.0" stroke="rgb(0,0,0)" stroke-width="2"  />
			<g>
				<title>UAE_UbL (PF14732)
"Ubiquitin/SUMO-activating enzyme ubiquitin-like domain"</title>
				<rect class="PF14732" x="81" y="28" stroke-linejoin="round" width="8" height="24" fill="rgb(210,93,152)" stroke="rgb(168,74,121)" stroke-width="1" opacity="0.75" />
			</g>
			<g>
				<title>ThiF (PF00899)
"ThiF family"</title>
				<rect class="PF00899" x="90" y="28" stroke-linejoin="round" width="43" height="24" fill="rgb(73,211,94)" stroke="rgb(58,168,75)" stroke-width="1" opacity="0.75" />
			</g>
		</g>
		<g>
			<title> (SLF14_114)
hypothetical protein</title>
			<polygon class=" (SLF14_114)
hypothetical protein" points="147,25 156,25 156,10 186,40 156,70 156,55 147,55" fill="rgb(255,255,255)" fill-opacity="1.0" stroke="rgb(0,0,0)" stroke-width="2"  />
			<g>
				<title>Q_salvage (PF10343)
"Queuosine salvage protein"</title>
				<polygon class="PF10343" points="154,28 170,28 182,40 182,40 170,52 154,52" stroke-linejoin="round" width="28" height="24" fill="rgb(188,76,103)" stroke="rgb(150,60,82)" stroke-width="1" opacity="0.75" />
			</g>
		</g>
		<g>
			<title>yvdP
FAD-linked oxidoreductase YvdP-like protein</title>
			<polygon class="yvdP
FAD-linked oxidoreductase YvdP-like protein" points="218,25 239,25 239,10 269,40 239,70 239,55 218,55" fill="rgb(255,255,255)" fill-opacity="1.0" stroke="rgb(0,0,0)" stroke-width="2"  />
			<g>
				<title>FAD_binding_4 (PF01565)
"FAD binding domain"</title>
				<rect class="PF01565" x="222" y="28" stroke-linejoin="round" width="13" height="24" fill="rgb(194,197,94)" stroke="rgb(155,157,75)" stroke-width="1" opacity="0.75" />
			</g>
			<g>
				<title>BBE (PF08031)
"Berberine and berberine like"</title>
				<polygon class="PF08031" points="260,36 264,40 264,40 260,44" stroke-linejoin="round" width="4" height="24" fill="rgb(56,179,213)" stroke="rgb(44,143,170)" stroke-width="1" opacity="0.75" />
			</g>
		</g>
		<g>
			<title> (SLF14_116)
hypothetical protein</title>
			<polygon class=" (SLF14_116)
hypothetical protein" points="291,10 298,40 291,70" fill="rgb(255,255,255)" fill-opacity="1.0" stroke="rgb(0,0,0)" stroke-width="2"  />
		</g>
		<g>
			<title> (SLF14_117)
dimeric alpha-beta barrel</title>
			<polygon class=" (SLF14_117)
dimeric alpha-beta barrel" points="315,10 336,40 315,70" fill="rgb(255,255,255)" fill-opacity="1.0" stroke="rgb(0,0,0)" stroke-width="2"  />
		</g>
		<g>
			<title>cyp450
putative cytochrome P450</title>
			<polygon class="cyp450
putative cytochrome P450" points="351,25 379,25 379,10 409,40 379,70 379,55 351,55" fill="rgb(255,255,255)" fill-opacity="1.0" stroke="rgb(0,0,0)" stroke-width="2"  />
			<g>
				<title>p450 (PF00067)
"Cytochrome P450"</title>
				<polygon class="PF00067" points="355,28 393,28 402,37 402,43 393,52 355,52" stroke-linejoin="round" width="47" height="24" fill="rgb(195,210,54)" stroke="rgb(155,168,43)" stroke-width="1" opacity="0.75" />
			</g>
		</g>
		<g>
			<title> (SLF14_119)
hypothetical protein</title>
			<polygon class=" (SLF14_119)
hypothetical protein" points="422,25 437,25 437,10 467,40 437,70 437,55 422,55" fill="rgb(255,255,255)" fill-opacity="1.0" stroke="rgb(0,0,0)" stroke-width="2"  />
		</g>
		<g>
			<title> (SLF14_120)
long-chain-fatty-acid--CoA ligase</title>
			<polygon class=" (SLF14_120)
long-chain-fatty-acid--CoA ligase" points="489,25 500,25 500,10 530,40 500,70 500,55 489,55" fill="rgb(255,255,255)" fill-opacity="1.0" stroke="rgb(0,0,0)" stroke-width="2"  />
		</g>
		<g>
			<title> (SLF14_121)
acyl-CoA N-acyltransferase</title>
			<polygon class=" (SLF14_121)
acyl-CoA N-acyltransferase" points="576,25 570,25 570,10 540,40 570,70 570,55 576,55" fill="rgb(255,255,255)" fill-opacity="1.0" stroke="rgb(0,0,0)" stroke-width="2"  />
			<g>
				<title>Acetyltransf_7 (PF13508)
"Acetyltransferase (GNAT) domain"</title>
				<polygon class="PF13508" points="553,31 556,28 559,28 559,52 556,52 553,49" stroke-linejoin="round" width="6" height="24" fill="rgb(224,67,82)" stroke="rgb(179,53,65)" stroke-width="1" opacity="0.75" />
			</g>
		</g>
		<g>
			<title> (SLF14_122)
ferrous iron transporter</title>
			<polygon class=" (SLF14_122)
ferrous iron transporter" points="613,25 608,25 608,10 578,40 608,70 608,55 613,55" fill="rgb(255,255,255)" fill-opacity="1.0" stroke="rgb(0,0,0)" stroke-width="2"  />
		</g>
		<g>
			<title> (SLF14_123)
hypothetical protein</title>
			<polygon class=" (SLF14_123)
hypothetical protein" points="662,25 729,25 729,10 759,40 729,70 729,55 662,55" fill="rgb(255,255,255)" fill-opacity="1.0" stroke="rgb(0,0,0)" stroke-width="2"  />
		</g>
		<g>
			<title> (SLF14_124)
fungal specific transcription factor domain containing protein</title>
			<polygon class=" (SLF14_124)
fungal specific transcription factor domain containing protein" points="871,25 832,25 832,10 802,40 832,70 832,55 871,55" fill="rgb(255,255,255)" fill-opacity="1.0" stroke="rgb(0,0,0)" stroke-width="2"  />
			<g>
				<title>Fungal_trans (PF04082)
"Fungal specific transcription factor domain"</title>
				<rect class="PF04082" x="823" y="28" stroke-linejoin="round" width="24" height="24" fill="rgb(214,73,227)" stroke="rgb(171,58,181)" stroke-width="1" opacity="0.75" />
			</g>
		</g>
	</g>
</svg>
