<svg version="1.1" baseProfile="full" xmlns="http://www.w3.org/2000/svg" width="2309.4333333333334" height="80">
	<g>
		<line x1="10" y1="40.0" x2="2299.4333333333334" y2="40.0" style="stroke:rgb(70,70,70); stroke-width:3 "/>
		<g>
			<title>HDX1
HDX1</title>
			<polygon class="HDX1
HDX1" points="77,25 59,25 59,10 29,40 59,70 59,55 77,55" fill="rgb(255,255,255)" fill-opacity="1.0" stroke="rgb(0,0,0)" stroke-width="2"  />
			<g>
				<title>FAD_binding_3 (PF01494)
"FAD binding domain"</title>
				<polygon class="PF01494" points="40,33 45,28 53,28 53,52 45,52 40,47" stroke-linejoin="round" width="13" height="24" fill="rgb(215,66,156)" stroke="rgb(172,52,124)" stroke-width="1" opacity="0.75" />
			</g>
			<g>
				<title>FAD_binding_3 (PF01494)
"FAD binding domain"</title>
				<rect class="PF01494" x="57" y="28" stroke-linejoin="round" width="19" height="24" fill="rgb(215,66,156)" stroke="rgb(172,52,124)" stroke-width="1" opacity="0.75" />
			</g>
		</g>
		<g>
			<title>PKS1
PKS1</title>
			<polygon class="PKS1
PKS1" points="91,25 270,25 270,10 300,40 270,70 270,55 91,55" fill="rgb(255,255,255)" fill-opacity="1.0" stroke="rgb(0,0,0)" stroke-width="2"  />
			<g>
				<title>SAT (PF16073)
"Starter unit:ACP transacylase in aflatoxin biosynthesis"</title>
				<rect class="PF16073" x="91" y="28" stroke-linejoin="round" width="22" height="24" fill="rgb(77,185,114)" stroke="rgb(61,148,91)" stroke-width="1" opacity="0.75" />
			</g>
			<g>
				<title>ketoacyl-synt (PF00109)
"Beta-ketoacyl synthase, N-terminal domain"</title>
				<rect class="PF00109" x="125" y="28" stroke-linejoin="round" width="25" height="24" fill="rgb(74,179,82)" stroke="rgb(59,143,65)" stroke-width="1" opacity="0.75" />
			</g>
			<g>
				<title>Ketoacyl-synt_C (PF02801)
"Beta-ketoacyl synthase, C-terminal domain"</title>
				<rect class="PF02801" x="151" y="28" stroke-linejoin="round" width="12" height="24" fill="rgb(212,79,72)" stroke="rgb(169,63,57)" stroke-width="1" opacity="0.75" />
			</g>
			<g>
				<title>Acyl_transf_1 (PF00698)
"Acyl transferase domain"</title>
				<rect class="PF00698" x="178" y="28" stroke-linejoin="round" width="31" height="24" fill="rgb(132,93,193)" stroke="rgb(105,74,154)" stroke-width="1" opacity="0.75" />
			</g>
			<g>
				<title>PS-DH (PF14765)
"Polyketide synthase dehydratase N-terminal domain"</title>
				<rect class="PF14765" x="236" y="28" stroke-linejoin="round" width="15" height="24" fill="rgb(189,61,178)" stroke="rgb(151,48,142)" stroke-width="1" opacity="0.75" />
			</g>
			<g>
				<title>PP-binding (PF00550)
"Phosphopantetheine attachment site"</title>
				<rect class="PF00550" x="259" y="28" stroke-linejoin="round" width="6" height="24" fill="rgb(181,58,166)" stroke="rgb(144,46,132)" stroke-width="1" opacity="0.75" />
			</g>
			<g>
				<title>Thioesterase (PF00975)
"Thioesterase domain"</title>
				<polygon class="PF00975" points="271,28 284,28 293,37 293,43 284,52 271,52" stroke-linejoin="round" width="22" height="24" fill="rgb(69,76,223)" stroke="rgb(55,60,178)" stroke-width="1" opacity="0.75" />
			</g>
		</g>
		<g>
			<title>UVI-1h
UVI-1h</title>
			<polygon class="UVI-1h
UVI-1h" points="355,10 378,40 355,70" fill="rgb(255,255,255)" fill-opacity="1.0" stroke="rgb(0,0,0)" stroke-width="2"  />
			<g>
				<title>C166 (PF17615)
"Family of unknown function"</title>
				<polygon class="PF17615" points="355,28 365,28 370,34 370,46 365,52 355,52" stroke-linejoin="round" width="15" height="24" fill="rgb(215,217,60)" stroke="rgb(172,173,47)" stroke-width="1" opacity="0.75" />
			</g>
		</g>
		<g>
			<title>sirH
SirH</title>
			<polygon class="sirH
SirH" points="516,25 502,25 502,10 472,40 502,70 502,55 516,55" fill="rgb(255,255,255)" fill-opacity="1.0" stroke="rgb(0,0,0)" stroke-width="2"  />
			<g>
				<title>MBOAT_2 (PF13813)
"Membrane bound O-acyl transferase family"</title>
				<polygon class="PF13813" points="483,33 488,28 491,28 491,52 488,52 483,47" stroke-linejoin="round" width="8" height="24" fill="rgb(107,68,186)" stroke="rgb(85,54,148)" stroke-width="1" opacity="0.75" />
			</g>
		</g>
		<g>
			<title>sirQ
SirQ</title>
			<polygon class="sirQ
SirQ" points="596,25 581,25 581,10 551,40 581,70 581,55 596,55" fill="rgb(255,255,255)" fill-opacity="1.0" stroke="rgb(0,0,0)" stroke-width="2"  />
		</g>
		<g>
			<title>sirI
SirI</title>
			<polygon class="sirI
SirI" points="605,25 620,25 620,10 650,40 620,70 620,55 605,55" fill="rgb(255,255,255)" fill-opacity="1.0" stroke="rgb(0,0,0)" stroke-width="2"  />
			<g>
				<title>Aminotran_1_2 (PF00155)
"Aminotransferase class I and II"</title>
				<polygon class="PF00155" points="607,28 634,28 644,38 644,42 634,52 607,52" stroke-linejoin="round" width="37" height="24" fill="rgb(207,146,55)" stroke="rgb(165,116,43)" stroke-width="1" opacity="0.75" />
			</g>
		</g>
		<g>
			<title>sirJ
SirJ</title>
			<polygon class="sirJ
SirJ" points="659,25 678,25 678,10 708,40 678,70 678,55 659,55" fill="rgb(255,255,255)" fill-opacity="1.0" stroke="rgb(0,0,0)" stroke-width="2"  />
			<g>
				<title>Peptidase_M19 (PF01244)
"Membrane dipeptidase (Peptidase family M19)"</title>
				<polygon class="PF01244" points="660,28 692,28 693,29 693,51 692,52 660,52" stroke-linejoin="round" width="33" height="24" fill="rgb(81,205,84)" stroke="rgb(64,164,67)" stroke-width="1" opacity="0.75" />
			</g>
		</g>
		<g>
			<title>sirR
SirR</title>
			<polygon class="sirR
SirR" points="751,25 768,25 768,10 798,40 768,70 768,55 751,55" fill="rgb(255,255,255)" fill-opacity="1.0" stroke="rgb(0,0,0)" stroke-width="2"  />
		</g>
		<g>
			<title>sirB
SirB</title>
			<polygon class="sirB
SirB" points="901,25 865,25 865,10 835,40 865,70 865,55 901,55" fill="rgb(255,255,255)" fill-opacity="1.0" stroke="rgb(0,0,0)" stroke-width="2"  />
			<g>
				<title>p450 (PF00067)
"Cytochrome P450"</title>
				<polygon class="PF00067" points="850,29 851,28 890,28 890,52 851,52 850,51" stroke-linejoin="round" width="40" height="24" fill="rgb(195,210,54)" stroke="rgb(155,168,43)" stroke-width="1" opacity="0.75" />
			</g>
		</g>
		<g>
			<title>sirP
SirP</title>
			<polygon class="sirP
SirP" points="925,25 1122,25 1122,10 1152,40 1122,70 1122,55 925,55" fill="rgb(255,255,255)" fill-opacity="1.0" stroke="rgb(0,0,0)" stroke-width="2"  />
			<g>
				<title>AMP-binding (PF00501)
"AMP-binding enzyme"</title>
				<rect class="PF00501" x="930" y="28" stroke-linejoin="round" width="33" height="24" fill="rgb(189,78,204)" stroke="rgb(151,62,163)" stroke-width="1" opacity="0.75" />
			</g>
			<g>
				<title>PP-binding (PF00550)
"Phosphopantetheine attachment site"</title>
				<rect class="PF00550" x="979" y="28" stroke-linejoin="round" width="6" height="24" fill="rgb(181,58,166)" stroke="rgb(144,46,132)" stroke-width="1" opacity="0.75" />
			</g>
			<g>
				<title>Condensation (PF00668)
"Condensation domain"</title>
				<rect class="PF00668" x="988" y="28" stroke-linejoin="round" width="43" height="24" fill="rgb(172,217,60)" stroke="rgb(137,173,47)" stroke-width="1" opacity="0.75" />
			</g>
			<g>
				<title>AMP-binding (PF00501)
"AMP-binding enzyme"</title>
				<rect class="PF00501" x="1034" y="28" stroke-linejoin="round" width="33" height="24" fill="rgb(189,78,204)" stroke="rgb(151,62,163)" stroke-width="1" opacity="0.75" />
			</g>
			<g>
				<title>PP-binding (PF00550)
"Phosphopantetheine attachment site"</title>
				<rect class="PF00550" x="1082" y="28" stroke-linejoin="round" width="6" height="24" fill="rgb(181,58,166)" stroke="rgb(144,46,132)" stroke-width="1" opacity="0.75" />
			</g>
			<g>
				<title>Condensation (PF00668)
"Condensation domain"</title>
				<rect class="PF00668" x="1090" y="28" stroke-linejoin="round" width="42" height="24" fill="rgb(172,217,60)" stroke="rgb(137,173,47)" stroke-width="1" opacity="0.75" />
			</g>
		</g>
		<g>
			<title>sirG
SirG</title>
			<polygon class="sirG
SirG" points="1160,10 1189,40 1160,70" fill="rgb(255,255,255)" fill-opacity="1.0" stroke="rgb(0,0,0)" stroke-width="2"  />
			<g>
				<title>GST_N_2 (PF13409)
"Glutathione S-transferase, N-terminal domain"</title>
				<rect class="PF13409" x="1162" y="28" stroke-linejoin="round" width="6" height="24" fill="rgb(216,61,181)" stroke="rgb(172,48,144)" stroke-width="1" opacity="0.75" />
			</g>
			<g>
				<title>GST_C (PF00043)
"Glutathione S-transferase, C-terminal domain"</title>
				<polygon class="PF00043" points="1172,28 1172,28 1180,35 1180,45 1172,52 1172,52" stroke-linejoin="round" width="8" height="24" fill="rgb(111,184,77)" stroke="rgb(88,147,61)" stroke-width="1" opacity="0.75" />
			</g>
		</g>
		<g>
			<title>sirC
SirC</title>
			<polygon class="sirC
SirC" points="1270,25 1238,25 1238,10 1208,40 1238,70 1238,55 1270,55" fill="rgb(255,255,255)" fill-opacity="1.0" stroke="rgb(0,0,0)" stroke-width="2"  />
			<g>
				<title>p450 (PF00067)
"Cytochrome P450"</title>
				<rect class="PF00067" x="1225" y="28" stroke-linejoin="round" width="5" height="24" fill="rgb(195,210,54)" stroke="rgb(155,168,43)" stroke-width="1" opacity="0.75" />
			</g>
			<g>
				<title>p450 (PF00067)
"Cytochrome P450"</title>
				<rect class="PF00067" x="1230" y="28" stroke-linejoin="round" width="32" height="24" fill="rgb(195,210,54)" stroke="rgb(155,168,43)" stroke-width="1" opacity="0.75" />
			</g>
		</g>
		<g>
			<title>sirM
SirM</title>
			<polygon class="sirM
SirM" points="1285,25 1298,25 1298,10 1328,40 1298,70 1298,55 1285,55" fill="rgb(255,255,255)" fill-opacity="1.0" stroke="rgb(0,0,0)" stroke-width="2"  />
			<g>
				<title>Dimerisation2 (PF16864)
"Dimerisation domain"</title>
				<rect class="PF16864" x="1292" y="28" stroke-linejoin="round" width="8" height="24" fill="rgb(212,101,199)" stroke="rgb(169,80,159)" stroke-width="1" opacity="0.75" />
			</g>
			<g>
				<title>Methyltransf_2 (PF00891)
"O-methyltransferase domain"</title>
				<polygon class="PF00891" points="1305,28 1312,28 1324,40 1324,40 1312,52 1305,52" stroke-linejoin="round" width="19" height="24" fill="rgb(91,124,224)" stroke="rgb(72,99,179)" stroke-width="1" opacity="0.75" />
			</g>
		</g>
		<g>
			<title>sirE
SirE</title>
			<polygon class="sirE
SirE" points="1426,25 1407,25 1407,10 1377,40 1407,70 1407,55 1426,55" fill="rgb(255,255,255)" fill-opacity="1.0" stroke="rgb(0,0,0)" stroke-width="2"  />
			<g>
				<title>p450 (PF00067)
"Cytochrome P450"</title>
				<polygon class="PF00067" points="1386,35 1393,28 1396,28 1396,52 1393,52 1386,45" stroke-linejoin="round" width="10" height="24" fill="rgb(195,210,54)" stroke="rgb(155,168,43)" stroke-width="1" opacity="0.75" />
			</g>
			<g>
				<title>p450 (PF00067)
"Cytochrome P450"</title>
				<rect class="PF00067" x="1397" y="28" stroke-linejoin="round" width="28" height="24" fill="rgb(195,210,54)" stroke="rgb(155,168,43)" stroke-width="1" opacity="0.75" />
			</g>
		</g>
		<g>
			<title>sirS
SirS</title>
			<polygon class="sirS
SirS" points="1471,25 1491,25 1491,10 1521,40 1491,70 1491,55 1471,55" fill="rgb(255,255,255)" fill-opacity="1.0" stroke="rgb(0,0,0)" stroke-width="2"  />
		</g>
		<g>
			<title>sirZ
SirZ</title>
			<polygon class="sirZ
SirZ" points="1585,25 1559,25 1559,10 1529,40 1559,70 1559,55 1585,55" fill="rgb(255,255,255)" fill-opacity="1.0" stroke="rgb(0,0,0)" stroke-width="2"  />
			<g>
				<title>Zn_clus (PF00172)
"Fungal Zn(2)-Cys(6) binuclear cluster domain"</title>
				<rect class="PF00172" x="1579" y="28" stroke-linejoin="round" width="3" height="24" fill="rgb(58,207,82)" stroke="rgb(46,165,65)" stroke-width="1" opacity="0.75" />
			</g>
		</g>
		<g>
			<title>sirA
SirA</title>
			<polygon class="sirA
SirA" points="1696,25 1811,25 1811,10 1841,40 1811,70 1811,55 1696,55" fill="rgb(255,255,255)" fill-opacity="1.0" stroke="rgb(0,0,0)" stroke-width="2"  />
			<g>
				<title>ABC_membrane (PF00664)
"ABC transporter transmembrane region"</title>
				<rect class="PF00664" x="1701" y="28" stroke-linejoin="round" width="27" height="24" fill="rgb(62,71,183)" stroke="rgb(49,56,146)" stroke-width="1" opacity="0.75" />
			</g>
			<g>
				<title>ABC_tran (PF00005)
"ABC transporter"</title>
				<rect class="PF00005" x="1735" y="28" stroke-linejoin="round" width="15" height="24" fill="rgb(46,186,108)" stroke="rgb(36,148,86)" stroke-width="1" opacity="0.75" />
			</g>
			<g>
				<title>ABC_membrane (PF00664)
"ABC transporter transmembrane region"</title>
				<rect class="PF00664" x="1765" y="28" stroke-linejoin="round" width="27" height="24" fill="rgb(62,71,183)" stroke="rgb(49,56,146)" stroke-width="1" opacity="0.75" />
			</g>
			<g>
				<title>ABC_tran (PF00005)
"ABC transporter"</title>
				<rect class="PF00005" x="1799" y="28" stroke-linejoin="round" width="15" height="24" fill="rgb(46,186,108)" stroke="rgb(36,148,86)" stroke-width="1" opacity="0.75" />
			</g>
		</g>
		<g>
			<title>sirN
SirN</title>
			<polygon class="sirN
SirN" points="1888,25 1884,25 1884,10 1854,40 1884,70 1884,55 1888,55" fill="rgb(255,255,255)" fill-opacity="1.0" stroke="rgb(0,0,0)" stroke-width="2"  />
		</g>
		<g>
			<title>sirO
SirO</title>
			<polygon class="sirO
SirO" points="1911,25 1922,25 1922,10 1952,40 1922,70 1922,55 1911,55" fill="rgb(255,255,255)" fill-opacity="1.0" stroke="rgb(0,0,0)" stroke-width="2"  />
			<g>
				<title>Aldo_ket_red (PF00248)
"Aldo/keto reductase family"</title>
				<polygon class="PF00248" points="1912,28 1935,28 1942,35 1942,45 1935,52 1912,52" stroke-linejoin="round" width="30" height="24" fill="rgb(96,196,138)" stroke="rgb(76,156,110)" stroke-width="1" opacity="0.75" />
			</g>
		</g>
		<g>
			<title>sirD
SirD</title>
			<polygon class="sirD
SirD" points="2013,25 1997,25 1997,10 1967,40 1997,70 1997,55 2013,55" fill="rgb(255,255,255)" fill-opacity="1.0" stroke="rgb(0,0,0)" stroke-width="2"  />
			<g>
				<title>Trp_DMAT (PF11991)
"Tryptophan dimethylallyltransferase"</title>
				<polygon class="PF11991" points="1973,38 1983,28 2008,28 2008,52 1983,52 1973,42" stroke-linejoin="round" width="35" height="24" fill="rgb(65,157,207)" stroke="rgb(51,125,165)" stroke-width="1" opacity="0.75" />
			</g>
		</g>
		<g>
			<title>sirT
SirT</title>
			<polygon class="sirT
SirT" points="2040,25 2044,25 2044,10 2074,40 2044,70 2044,55 2040,55" fill="rgb(255,255,255)" fill-opacity="1.0" stroke="rgb(0,0,0)" stroke-width="2"  />
			<g>
				<title>Pyr_redox_2 (PF07992)
"Pyridine nucleotide-disulphide oxidoreductase"</title>
				<polygon class="PF07992" points="2040,28 2058,28 2059,29 2059,51 2058,52 2040,52" stroke-linejoin="round" width="19" height="24" fill="rgb(187,87,99)" stroke="rgb(149,69,79)" stroke-width="1" opacity="0.75" />
			</g>
			<g>
				<title>Pyr_redox_2 (PF07992)
"Pyridine nucleotide-disulphide oxidoreductase"</title>
				<polygon class="PF07992" points="2060,30 2070,40 2070,40 2060,50" stroke-linejoin="round" width="10" height="24" fill="rgb(187,87,99)" stroke="rgb(149,69,79)" stroke-width="1" opacity="0.75" />
			</g>
		</g>
		<g>
			<title>MP1
MP1</title>
			<polygon class="MP1
MP1" points="2181,25 2150,25 2150,10 2120,40 2150,70 2150,55 2181,55" fill="rgb(255,255,255)" fill-opacity="1.0" stroke="rgb(0,0,0)" stroke-width="2"  />
			<g>
				<title>Sugar_tr (PF00083)
"Sugar (and other) transporter"</title>
				<polygon class="PF00083" points="2130,34 2136,28 2175,28 2175,52 2136,52 2130,46" stroke-linejoin="round" width="45" height="24" fill="rgb(186,204,56)" stroke="rgb(148,163,44)" stroke-width="1" opacity="0.75" />
			</g>
		</g>
		<g>
			<title>ZnF3
ZnF3</title>
			<polygon class="ZnF3
ZnF3" points="2241,25 2257,25 2257,10 2287,40 2257,70 2257,55 2241,55" fill="rgb(255,255,255)" fill-opacity="1.0" stroke="rgb(0,0,0)" stroke-width="2"  />
			<g>
				<title>Fungal_trans (PF04082)
"Fungal specific transcription factor domain"</title>
				<rect class="PF04082" x="2241" y="28" stroke-linejoin="round" width="23" height="24" fill="rgb(214,73,227)" stroke="rgb(171,58,181)" stroke-width="1" opacity="0.75" />
			</g>
		</g>
	</g>
</svg>
