<svg version="1.1" baseProfile="full" xmlns="http://www.w3.org/2000/svg" width="1364.7666666666667" height="80">
	<g>
		<line x1="10" y1="40.0" x2="1354.7666666666667" y2="40.0" style="stroke:rgb(70,70,70); stroke-width:3 "/>
		<g>
			<title>scatZ2 (SMCF_976)
alpha-amylase ScatZ2</title>
			<polygon class="scatZ2 (SMCF_976)
alpha-amylase ScatZ2" points="172,25 40,25 40,10 10,40 40,70 40,55 172,55" fill="rgb(255,255,255)" fill-opacity="1.0" stroke="rgb(0,0,0)" stroke-width="2"  />
			<g>
				<title>CBM_48 (PF02922)
"Carbohydrate-binding module 48 (Isoamylase N-terminal domain)"</title>
				<rect class="PF02922" x="58" y="28" stroke-linejoin="round" width="8" height="24" fill="rgb(97,219,161)" stroke="rgb(77,175,128)" stroke-width="1" opacity="0.75" />
			</g>
			<g>
				<title>Pullulanase_N2 (PF17967)
"Pullulanase N2 domain"</title>
				<rect class="PF17967" x="67" y="28" stroke-linejoin="round" width="11" height="24" fill="rgb(51,204,158)" stroke="rgb(40,163,126)" stroke-width="1" opacity="0.75" />
			</g>
			<g>
				<title>PUD (PF03714)
"Bacterial pullanase-associated domain"</title>
				<rect class="PF03714" x="80" y="28" stroke-linejoin="round" width="9" height="24" fill="rgb(207,64,183)" stroke="rgb(165,51,146)" stroke-width="1" opacity="0.75" />
			</g>
			<g>
				<title>PUD (PF03714)
"Bacterial pullanase-associated domain"</title>
				<rect class="PF03714" x="91" y="28" stroke-linejoin="round" width="8" height="24" fill="rgb(207,64,183)" stroke="rgb(165,51,146)" stroke-width="1" opacity="0.75" />
			</g>
			<g>
				<title>Alpha-amylase_C (PF02806)
"Alpha amylase, C-terminal all-beta domain"</title>
				<rect class="PF02806" x="111" y="28" stroke-linejoin="round" width="7" height="24" fill="rgb(143,179,56)" stroke="rgb(114,143,44)" stroke-width="1" opacity="0.75" />
			</g>
			<g>
				<title>Alpha-amylase (PF00128)
"Alpha amylase, catalytic domain"</title>
				<rect class="PF00128" x="124" y="28" stroke-linejoin="round" width="36" height="24" fill="rgb(58,188,66)" stroke="rgb(46,150,52)" stroke-width="1" opacity="0.75" />
			</g>
		</g>
		<g>
			<title>scatZ1 (SMCF_977)
alpha-amylase ScatZ1</title>
			<polygon class="scatZ1 (SMCF_977)
alpha-amylase ScatZ1" points="275,25 201,25 201,10 171,40 201,70 201,55 275,55" fill="rgb(255,255,255)" fill-opacity="1.0" stroke="rgb(0,0,0)" stroke-width="2"  />
			<g>
				<title>Pullulanase_N2 (PF17967)
"Pullulanase N2 domain"</title>
				<polygon class="PF17967" points="175,40 182,33 182,47" stroke-linejoin="round" width="10" height="24" fill="rgb(51,204,158)" stroke="rgb(40,163,126)" stroke-width="1" opacity="0.75" />
			</g>
			<g>
				<title>PUD (PF03714)
"Bacterial pullanase-associated domain"</title>
				<polygon class="PF03714" points="184,31 187,28 193,28 193,52 187,52 184,49" stroke-linejoin="round" width="9" height="24" fill="rgb(207,64,183)" stroke="rgb(165,51,146)" stroke-width="1" opacity="0.75" />
			</g>
			<g>
				<title>PUD (PF03714)
"Bacterial pullanase-associated domain"</title>
				<rect class="PF03714" x="195" y="28" stroke-linejoin="round" width="8" height="24" fill="rgb(207,64,183)" stroke="rgb(165,51,146)" stroke-width="1" opacity="0.75" />
			</g>
			<g>
				<title>Alpha-amylase_C (PF02806)
"Alpha amylase, C-terminal all-beta domain"</title>
				<rect class="PF02806" x="215" y="28" stroke-linejoin="round" width="7" height="24" fill="rgb(143,179,56)" stroke="rgb(114,143,44)" stroke-width="1" opacity="0.75" />
			</g>
			<g>
				<title>Alpha-amylase (PF00128)
"Alpha amylase, catalytic domain"</title>
				<rect class="PF00128" x="229" y="28" stroke-linejoin="round" width="36" height="24" fill="rgb(58,188,66)" stroke="rgb(46,150,52)" stroke-width="1" opacity="0.75" />
			</g>
		</g>
		<g>
			<title>scatE2 (SMCF_978)
alpha-amylase ScatE2</title>
			<polygon class="scatE2 (SMCF_978)
alpha-amylase ScatE2" points="335,25 309,25 309,10 279,40 309,70 309,55 335,55" fill="rgb(255,255,255)" fill-opacity="1.0" stroke="rgb(0,0,0)" stroke-width="2"  />
			<g>
				<title>CBM_20 (PF00686)
"Starch binding domain"</title>
				<polygon class="PF00686" points="283,40 288,35 288,45" stroke-linejoin="round" width="9" height="24" fill="rgb(196,55,125)" stroke="rgb(156,44,100)" stroke-width="1" opacity="0.75" />
			</g>
			<g>
				<title>Alpha-amylase_C (PF02806)
"Alpha amylase, C-terminal all-beta domain"</title>
				<polygon class="PF02806" points="290,33 295,28 297,28 297,52 295,52 290,47" stroke-linejoin="round" width="7" height="24" fill="rgb(143,179,56)" stroke="rgb(114,143,44)" stroke-width="1" opacity="0.75" />
			</g>
			<g>
				<title>Alpha-amylase (PF00128)
"Alpha amylase, catalytic domain"</title>
				<rect class="PF00128" x="302" y="28" stroke-linejoin="round" width="25" height="24" fill="rgb(58,188,66)" stroke="rgb(46,150,52)" stroke-width="1" opacity="0.75" />
			</g>
		</g>
		<g>
			<title>scarC2 (SMCF_979)
lacI/galR-like protein ScarC2</title>
			<polygon class="scarC2 (SMCF_979)
lacI/galR-like protein ScarC2" points="382,25 377,25 377,10 347,40 377,70 377,55 382,55" fill="rgb(255,255,255)" fill-opacity="1.0" stroke="rgb(0,0,0)" stroke-width="2"  />
			<g>
				<title>Peripla_BP_3 (PF13377)
"Periplasmic binding protein-like domain"</title>
				<polygon class="PF13377" points="351,40 363,28 364,28 364,52 363,52" stroke-linejoin="round" width="16" height="24" fill="rgb(220,188,82)" stroke="rgb(176,150,65)" stroke-width="1" opacity="0.75" />
			</g>
			<g>
				<title>LacI (PF00356)
"Bacterial regulatory proteins, lacI family"</title>
				<rect class="PF00356" x="376" y="28" stroke-linejoin="round" width="4" height="24" fill="rgb(84,207,204)" stroke="rgb(67,165,163)" stroke-width="1" opacity="0.75" />
			</g>
		</g>
		<g>
			<title>scatE1 (SMCF_980)
alpha-glucosidase ScatE1</title>
			<polygon class="scatE1 (SMCF_980)
alpha-glucosidase ScatE1" points="437,25 412,25 412,10 382,40 412,70 412,55 437,55" fill="rgb(255,255,255)" fill-opacity="1.0" stroke="rgb(0,0,0)" stroke-width="2"  />
			<g>
				<title>DUF3459 (PF11941)
"Domain of unknown function (DUF3459)"</title>
				<polygon class="PF11941" points="386,40 390,36 390,44" stroke-linejoin="round" width="8" height="24" fill="rgb(90,168,222)" stroke="rgb(72,134,177)" stroke-width="1" opacity="0.75" />
			</g>
			<g>
				<title>Alpha-amylase (PF00128)
"Alpha amylase, catalytic domain"</title>
				<polygon class="PF00128" points="397,29 398,28 432,28 432,52 398,52 397,51" stroke-linejoin="round" width="35" height="24" fill="rgb(58,188,66)" stroke="rgb(46,150,52)" stroke-width="1" opacity="0.75" />
			</g>
		</g>
		<g>
			<title>scatG (SMCF_981)
ABC transporter membrane protein ScatG</title>
			<polygon class="scatG (SMCF_981)
ABC transporter membrane protein ScatG" points="469,25 469,25 469,10 439,40 469,70 469,55 469,55" fill="rgb(255,255,255)" fill-opacity="1.0" stroke="rgb(0,0,0)" stroke-width="2"  />
			<g>
				<title>BPD_transp_1 (PF00528)
"Binding-protein-dependent transport system inner membrane component"</title>
				<polygon class="PF00528" points="443,40 455,28 458,28 458,52 455,52" stroke-linejoin="round" width="19" height="24" fill="rgb(167,188,50)" stroke="rgb(133,150,40)" stroke-width="1" opacity="0.75" />
			</g>
		</g>
		<g>
			<title>scatF (SMCF_982)
ABC transporter membrane protein ScatF</title>
			<polygon class="scatF (SMCF_982)
ABC transporter membrane protein ScatF" points="503,25 500,25 500,10 470,40 500,70 500,55 503,55" fill="rgb(255,255,255)" fill-opacity="1.0" stroke="rgb(0,0,0)" stroke-width="2"  />
			<g>
				<title>BPD_transp_1 (PF00528)
"Binding-protein-dependent transport system inner membrane component"</title>
				<polygon class="PF00528" points="474,40 486,28 490,28 490,52 486,52" stroke-linejoin="round" width="20" height="24" fill="rgb(167,188,50)" stroke="rgb(133,150,40)" stroke-width="1" opacity="0.75" />
			</g>
		</g>
		<g>
			<title>scatH (SMCF_983)
acarbose/maltose-binding protein ScatH</title>
			<polygon class="scatH (SMCF_983)
acarbose/maltose-binding protein ScatH" points="550,25 538,25 538,10 508,40 538,70 538,55 550,55" fill="rgb(255,255,255)" fill-opacity="1.0" stroke="rgb(0,0,0)" stroke-width="2"  />
			<g>
				<title>SBP_bac_1 (PF01547)
"Bacterial extracellular solute-binding protein"</title>
				<polygon class="PF01547" points="516,36 524,28 545,28 545,52 524,52 516,44" stroke-linejoin="round" width="29" height="24" fill="rgb(207,102,197)" stroke="rgb(165,81,157)" stroke-width="1" opacity="0.75" />
			</g>
		</g>
		<g>
			<title>scarC1 (SMCF_984)
HTH-type malR-like transcriptional regulator ScarC1</title>
			<polygon class="scarC1 (SMCF_984)
HTH-type malR-like transcriptional regulator ScarC1" points="564,25 568,25 568,10 598,40 568,70 568,55 564,55" fill="rgb(255,255,255)" fill-opacity="1.0" stroke="rgb(0,0,0)" stroke-width="2"  />
			<g>
				<title>LacI (PF00356)
"Bacterial regulatory proteins, lacI family"</title>
				<rect class="PF00356" x="564" y="28" stroke-linejoin="round" width="4" height="24" fill="rgb(84,207,204)" stroke="rgb(67,165,163)" stroke-width="1" opacity="0.75" />
			</g>
			<g>
				<title>Peripla_BP_3 (PF13377)
"Periplasmic binding protein-like domain"</title>
				<polygon class="PF13377" points="581,28 582,28 594,40 582,52 581,52" stroke-linejoin="round" width="16" height="24" fill="rgb(220,188,82)" stroke="rgb(176,150,65)" stroke-width="1" opacity="0.75" />
			</g>
		</g>
		<g>
			<title>scatB (SMCF_985)
dTDP-glucose 4,6-dehydratase ScatB</title>
			<polygon class="scatB (SMCF_985)
dTDP-glucose 4,6-dehydratase ScatB" points="631,25 629,25 629,10 599,40 629,70 629,55 631,55" fill="rgb(255,255,255)" fill-opacity="1.0" stroke="rgb(0,0,0)" stroke-width="2"  />
			<g>
				<title>GDP_Man_Dehyd (PF16363)
"GDP-mannose 4,6 dehydratase"</title>
				<polygon class="PF16363" points="603,40 615,28 630,28 630,52 615,52" stroke-linejoin="round" width="30" height="24" fill="rgb(50,144,195)" stroke="rgb(40,115,156)" stroke-width="1" opacity="0.75" />
			</g>
		</g>
		<g>
			<title>scatA (SMCF_986)
dTDP-glucose synthase ScatA</title>
			<polygon class="scatA (SMCF_986)
dTDP-glucose synthase ScatA" points="669,25 664,25 664,10 634,40 664,70 664,55 669,55" fill="rgb(255,255,255)" fill-opacity="1.0" stroke="rgb(0,0,0)" stroke-width="2"  />
			<g>
				<title>NTP_transferase (PF00483)
"Nucleotidyl transferase"</title>
				<polygon class="PF00483" points="645,33 650,28 668,28 668,52 650,52 645,47" stroke-linejoin="round" width="23" height="24" fill="rgb(211,145,90)" stroke="rgb(168,116,72)" stroke-width="1" opacity="0.75" />
			</g>
		</g>
		<g>
			<title>scatV (SMCF_987)
dTDP-4-keto-6-deoxy-glucose 4-aminotransferase ScatV</title>
			<polygon class="scatV (SMCF_987)
dTDP-4-keto-6-deoxy-glucose 4-aminotransferase ScatV" points="677,25 690,25 690,10 720,40 690,70 690,55 677,55" fill="rgb(255,255,255)" fill-opacity="1.0" stroke="rgb(0,0,0)" stroke-width="2"  />
			<g>
				<title>Aminotran_3 (PF00202)
"Aminotransferase class-III"</title>
				<polygon class="PF00202" points="679,28 704,28 716,40 704,52 679,52" stroke-linejoin="round" width="40" height="24" fill="rgb(182,63,213)" stroke="rgb(145,50,170)" stroke-width="1" opacity="0.75" />
			</g>
		</g>
		<g>
			<title>scatW (SMCF_988)
ABC transporter ATP-binding protein ScatW</title>
			<polygon class="scatW (SMCF_988)
ABC transporter ATP-binding protein ScatW" points="720,25 724,25 724,10 754,40 724,70 724,55 720,55" fill="rgb(255,255,255)" fill-opacity="1.0" stroke="rgb(0,0,0)" stroke-width="2"  />
			<g>
				<title>ABC_tran (PF00005)
"ABC transporter"</title>
				<rect class="PF00005" x="723" y="28" stroke-linejoin="round" width="14" height="24" fill="rgb(46,186,108)" stroke="rgb(36,148,86)" stroke-width="1" opacity="0.75" />
			</g>
		</g>
		<g>
			<title>scatX (SMCF_989)
ABC transporter permease protein ScatX</title>
			<polygon class="scatX (SMCF_989)
ABC transporter permease protein ScatX" points="755,10 782,40 755,70" fill="rgb(255,255,255)" fill-opacity="1.0" stroke="rgb(0,0,0)" stroke-width="2"  />
			<g>
				<title>ABC2_membrane_6 (PF06182)
"ABC-2 family transporter protein"</title>
				<polygon class="PF06182" points="758,28 766,28 778,40 766,52 758,52" stroke-linejoin="round" width="23" height="24" fill="rgb(65,220,189)" stroke="rgb(52,176,151)" stroke-width="1" opacity="0.75" />
			</g>
		</g>
		<g>
			<title>scatY (SMCF_990)
ABC transporter permease protein ScatY</title>
			<polygon class="scatY (SMCF_990)
ABC transporter permease protein ScatY" points="782,10 808,40 782,70" fill="rgb(255,255,255)" fill-opacity="1.0" stroke="rgb(0,0,0)" stroke-width="2"  />
			<g>
				<title>ABC2_membrane_6 (PF06182)
"ABC-2 family transporter protein"</title>
				<polygon class="PF06182" points="786,28 793,28 804,40 793,52 786,52" stroke-linejoin="round" width="22" height="24" fill="rgb(65,220,189)" stroke="rgb(52,176,151)" stroke-width="1" opacity="0.75" />
			</g>
		</g>
		<g>
			<title>scatU (SMCF_991)
putative kinase (1-epi-valienol-7-phosphate-1-kinase) ScatU</title>
			<polygon class="scatU (SMCF_991)
putative kinase (1-epi-valienol-7-phosphate-1-kinase) ScatU" points="809,25 827,25 827,10 857,40 827,70 827,55 809,55" fill="rgb(255,255,255)" fill-opacity="1.0" stroke="rgb(0,0,0)" stroke-width="2"  />
		</g>
		<g>
			<title>scatS (SMCF_992)
glycosyltransferase ScatS</title>
			<polygon class="scatS (SMCF_992)
glycosyltransferase ScatS" points="858,25 897,25 897,10 927,40 897,70 897,55 858,55" fill="rgb(255,255,255)" fill-opacity="1.0" stroke="rgb(0,0,0)" stroke-width="2"  />
			<g>
				<title>Glyco_transf_5 (PF08323)
"Starch synthase catalytic domain"</title>
				<rect class="PF08323" x="858" y="28" stroke-linejoin="round" width="18" height="24" fill="rgb(108,120,218)" stroke="rgb(86,96,174)" stroke-width="1" opacity="0.75" />
			</g>
		</g>
		<g>
			<title>scatR (SMCF_993)
putative 1-epi-valienol-1,7-bisphosphate-1-adenylyltransferase ScatR</title>
			<polygon class="scatR (SMCF_993)
putative 1-epi-valienol-1,7-bisphosphate-1-adenylyltransferase ScatR" points="929,25 934,25 934,10 964,40 934,70 934,55 929,55" fill="rgb(255,255,255)" fill-opacity="1.0" stroke="rgb(0,0,0)" stroke-width="2"  />
			<g>
				<title>NTP_transferase (PF00483)
"Nucleotidyl transferase"</title>
				<polygon class="PF00483" points="929,28 948,28 954,34 954,46 948,52 929,52" stroke-linejoin="round" width="25" height="24" fill="rgb(211,145,90)" stroke="rgb(168,116,72)" stroke-width="1" opacity="0.75" />
			</g>
		</g>
		<g>
			<title>scatK (SMCF_994)
acarbose-7-kinase ScatK</title>
			<polygon class="scatK (SMCF_994)
acarbose-7-kinase ScatK" points="965,25 965,25 965,10 995,40 965,70 965,55 965,55" fill="rgb(255,255,255)" fill-opacity="1.0" stroke="rgb(0,0,0)" stroke-width="2"  />
			<g>
				<title>PfkB (PF00294)
"pfkB family carbohydrate kinase"</title>
				<rect class="PF00294" x="965" y="28" stroke-linejoin="round" width="14" height="24" fill="rgb(94,207,198)" stroke="rgb(75,165,158)" stroke-width="1" opacity="0.75" />
			</g>
			<g>
				<title>PfkB (PF00294)
"pfkB family carbohydrate kinase"</title>
				<polygon class="PF00294" points="982,31 991,40 982,49" stroke-linejoin="round" width="11" height="24" fill="rgb(94,207,198)" stroke="rgb(75,165,158)" stroke-width="1" opacity="0.75" />
			</g>
		</g>
		<g>
			<title>scatI (SMCF_995)
putative glycosyltransferase ScatI</title>
			<polygon class="scatI (SMCF_995)
putative glycosyltransferase ScatI" points="996,25 1068,25 1068,10 1098,40 1068,70 1068,55 996,55" fill="rgb(255,255,255)" fill-opacity="1.0" stroke="rgb(0,0,0)" stroke-width="2"  />
			<g>
				<title>Glyco_transf_5 (PF08323)
"Starch synthase catalytic domain"</title>
				<rect class="PF08323" x="996" y="28" stroke-linejoin="round" width="16" height="24" fill="rgb(108,120,218)" stroke="rgb(86,96,174)" stroke-width="1" opacity="0.75" />
			</g>
			<g>
				<title>Glyco_trans_1_4 (PF13692)
"Glycosyl transferases group 1"</title>
				<rect class="PF13692" x="1029" y="28" stroke-linejoin="round" width="15" height="24" fill="rgb(154,183,67)" stroke="rgb(123,146,53)" stroke-width="1" opacity="0.75" />
			</g>
			<g>
				<title>Hydrolase_3 (PF08282)
"haloacid dehalogenase-like hydrolase"</title>
				<polygon class="PF08282" points="1071,28 1082,28 1094,40 1082,52 1071,52" stroke-linejoin="round" width="25" height="24" fill="rgb(87,121,191)" stroke="rgb(69,96,152)" stroke-width="1" opacity="0.75" />
			</g>
		</g>
		<g>
			<title>scatQ (SMCF_996)
putative acarbose 4-alpha-glucanotransferase ScatQ</title>
			<polygon class="scatQ (SMCF_996)
putative acarbose 4-alpha-glucanotransferase ScatQ" points="1099,25 1139,25 1139,10 1169,40 1139,70 1139,55 1099,55" fill="rgb(255,255,255)" fill-opacity="1.0" stroke="rgb(0,0,0)" stroke-width="2"  />
			<g>
				<title>Glyco_hydro_77 (PF02446)
"4-alpha-glucanotransferase"</title>
				<polygon class="PF02446" points="1114,28 1153,28 1165,40 1165,40 1153,52 1114,52" stroke-linejoin="round" width="51" height="24" fill="rgb(201,225,65)" stroke="rgb(160,180,52)" stroke-width="1" opacity="0.75" />
			</g>
		</g>
		<g>
			<title>scatC (SMCF_997)
2-epi-5-epi-valiolone synthase ScatC</title>
			<polygon class="scatC (SMCF_997)
2-epi-5-epi-valiolone synthase ScatC" points="1169,25 1178,25 1178,10 1208,40 1178,70 1178,55 1169,55" fill="rgb(255,255,255)" fill-opacity="1.0" stroke="rgb(0,0,0)" stroke-width="2"  />
			<g>
				<title>DHQ_synthase (PF01761)
"3-dehydroquinate synthase"</title>
				<polygon class="PF01761" points="1177,28 1192,28 1202,38 1202,42 1192,52 1177,52" stroke-linejoin="round" width="25" height="24" fill="rgb(71,149,225)" stroke="rgb(56,119,180)" stroke-width="1" opacity="0.75" />
			</g>
		</g>
		<g>
			<title>scatJ (SMCF_998)
ScatJ protein</title>
			<polygon class="scatJ (SMCF_998)
ScatJ protein" points="1209,10 1222,40 1209,70" fill="rgb(255,255,255)" fill-opacity="1.0" stroke="rgb(0,0,0)" stroke-width="2"  />
			<g>
				<title>Cupin_2 (PF07883)
"Cupin domain"</title>
				<polygon class="PF07883" points="1213,28 1213,28 1219,40 1213,52 1213,52" stroke-linejoin="round" width="7" height="24" fill="rgb(191,63,205)" stroke="rgb(152,50,164)" stroke-width="1" opacity="0.75" />
			</g>
		</g>
		<g>
			<title>scatM (SMCF_999)
C7-cyclitol-7-kinase ScatM</title>
			<polygon class="scatM (SMCF_999)
C7-cyclitol-7-kinase ScatM" points="1222,25 1227,25 1227,10 1257,40 1227,70 1227,55 1222,55" fill="rgb(255,255,255)" fill-opacity="1.0" stroke="rgb(0,0,0)" stroke-width="2"  />
			<g>
				<title>ROK (PF00480)
"ROK family"</title>
				<polygon class="PF00480" points="1223,28 1240,28 1252,40 1240,52 1223,52" stroke-linejoin="round" width="32" height="24" fill="rgb(93,146,186)" stroke="rgb(74,116,148)" stroke-width="1" opacity="0.75" />
			</g>
		</g>
		<g>
			<title>scatO (SMCF_1000)
putative 2-epi-5-epi-valiolone dehydratase/epimerase ScatO</title>
			<polygon class="scatO (SMCF_1000)
putative 2-epi-5-epi-valiolone dehydratase/epimerase ScatO" points="1257,25 1259,25 1259,10 1289,40 1259,70 1259,55 1257,55" fill="rgb(255,255,255)" fill-opacity="1.0" stroke="rgb(0,0,0)" stroke-width="2"  />
			<g>
				<title>RmlD_sub_bind (PF04321)
"RmlD substrate binding domain"</title>
				<polygon class="PF04321" points="1257,28 1273,28 1285,40 1285,40 1273,52 1257,52" stroke-linejoin="round" width="28" height="24" fill="rgb(71,77,207)" stroke="rgb(56,61,165)" stroke-width="1" opacity="0.75" />
			</g>
		</g>
		<g>
			<title>scatT (SMCF_1001)
beta-lactamase ScatT</title>
			<polygon class="scatT (SMCF_1001)
beta-lactamase ScatT" points="1334,25 1318,25 1318,10 1288,40 1318,70 1318,55 1334,55" fill="rgb(255,255,255)" fill-opacity="1.0" stroke="rgb(0,0,0)" stroke-width="2"  />
			<g>
				<title>Beta-lactamase (PF00144)
"Beta-lactamase"</title>
				<polygon class="PF00144" points="1300,32 1304,28 1331,28 1331,52 1304,52 1300,48" stroke-linejoin="round" width="31" height="24" fill="rgb(211,218,66)" stroke="rgb(168,174,52)" stroke-width="1" opacity="0.75" />
			</g>
		</g>
		<g>
			<title>scaim (SMCF_1002)
alpha-amylase inhibitor Scaim</title>
			<polygon class="scaim (SMCF_1002)
alpha-amylase inhibitor Scaim" points="1343,10 1354,40 1343,70" fill="rgb(255,255,255)" fill-opacity="1.0" stroke="rgb(0,0,0)" stroke-width="2"  />
			<g>
				<title>A_amylase_inhib (PF01356)
"Alpha amylase inhibitor"</title>
				<polygon class="PF01356" points="1346,28 1346,28 1351,40 1346,52 1346,52" stroke-linejoin="round" width="6" height="24" fill="rgb(183,147,57)" stroke="rgb(146,117,45)" stroke-width="1" opacity="0.75" />
			</g>
		</g>
	</g>
</svg>
