<svg version="1.1" baseProfile="full" xmlns="http://www.w3.org/2000/svg" width="877.0333333333333" height="80">
	<g>
		<line x1="10" y1="40.0" x2="867.0333333333333" y2="40.0" style="stroke:rgb(70,70,70); stroke-width:3 "/>
		<g>
			<title> (AFUA_4G14450)
mannitol dehydrogenase, putative</title>
			<polygon class=" (AFUA_4G14450)
mannitol dehydrogenase, putative" points="10,25 30,25 30,10 60,40 30,70 30,55 10,55" fill="rgb(255,255,255)" fill-opacity="1.0" stroke="rgb(0,0,0)" stroke-width="2"  />
			<g>
				<title>Mannitol_dh (PF01232)
"Mannitol dehydrogenase Rossmann domain"</title>
				<rect class="PF01232" x="13" y="28" stroke-linejoin="round" width="16" height="24" fill="rgb(224,203,101)" stroke="rgb(179,162,80)" stroke-width="1" opacity="0.75" />
			</g>
			<g>
				<title>Mannitol_dh_C (PF08125)
"Mannitol dehydrogenase C-terminal domain"</title>
				<polygon class="PF08125" points="32,28 44,28 56,40 56,40 44,52 32,52" stroke-linejoin="round" width="24" height="24" fill="rgb(161,222,101)" stroke="rgb(128,177,80)" stroke-width="1" opacity="0.75" />
			</g>
		</g>
		<g>
			<title> (AFUA_4G14460)
conserved hypothetical protein</title>
			<polygon class=" (AFUA_4G14460)
conserved hypothetical protein" points="105,25 103,25 103,10 73,40 103,70 103,55 105,55" fill="rgb(255,255,255)" fill-opacity="1.0" stroke="rgb(0,0,0)" stroke-width="2"  />
			<g>
				<title>Methyltransf_11 (PF08241)
"Methyltransferase domain"</title>
				<polygon class="PF08241" points="89,28 89,28 98,28 98,52 89,52 89,52" stroke-linejoin="round" width="9" height="24" fill="rgb(201,85,64)" stroke="rgb(160,68,51)" stroke-width="1" opacity="0.75" />
			</g>
		</g>
		<g>
			<title> (AFUA_4G14480)
conserved hypothetical protein</title>
			<polygon class=" (AFUA_4G14480)
conserved hypothetical protein" points="117,40 134,10 134,70" fill="rgb(255,255,255)" fill-opacity="1.0" stroke="rgb(0,0,0)" stroke-width="2"  />
			<g>
				<title>Anthrone_oxy (PF08592)
"Anthrone oxygenase"</title>
				<polygon class="PF08592" points="120,40 127,28 129,28 129,52 127,52" stroke-linejoin="round" width="10" height="24" fill="rgb(94,203,219)" stroke="rgb(75,162,175)" stroke-width="1" opacity="0.75" />
			</g>
		</g>
		<g>
			<title> (AFUA_4G14470)
hypothetical protein</title>
			<polygon class=" (AFUA_4G14470)
hypothetical protein" points="144,10 161,40 144,70" fill="rgb(255,255,255)" fill-opacity="1.0" stroke="rgb(0,0,0)" stroke-width="2"  />
			<g>
				<title>EthD (PF07110)
"EthD domain"</title>
				<polygon class="PF07110" points="146,28 151,28 155,35 155,45 151,52 146,52" stroke-linejoin="round" width="9" height="24" fill="rgb(72,84,203)" stroke="rgb(57,67,162)" stroke-width="1" opacity="0.75" />
			</g>
		</g>
		<g>
			<title> (AFUA_4G14490)
extracellular dihydrogeodin oxidase/laccase, putative</title>
			<polygon class=" (AFUA_4G14490)
extracellular dihydrogeodin oxidase/laccase, putative" points="170,25 210,25 210,10 240,40 210,70 210,55 170,55" fill="rgb(255,255,255)" fill-opacity="1.0" stroke="rgb(0,0,0)" stroke-width="2"  />
			<g>
				<title>Cu-oxidase_3 (PF07732)
"Multicopper oxidase"</title>
				<rect class="PF07732" x="176" y="28" stroke-linejoin="round" width="12" height="24" fill="rgb(174,103,224)" stroke="rgb(139,82,179)" stroke-width="1" opacity="0.75" />
			</g>
			<g>
				<title>Cu-oxidase (PF00394)
"Multicopper oxidase"</title>
				<rect class="PF00394" x="189" y="28" stroke-linejoin="round" width="15" height="24" fill="rgb(181,80,92)" stroke="rgb(144,64,73)" stroke-width="1" opacity="0.75" />
			</g>
			<g>
				<title>Cu-oxidase_2 (PF07731)
"Multicopper oxidase"</title>
				<polygon class="PF07731" points="212,28 224,28 226,30 226,50 224,52 212,52" stroke-linejoin="round" width="14" height="24" fill="rgb(188,215,88)" stroke="rgb(150,172,70)" stroke-width="1" opacity="0.75" />
			</g>
		</g>
		<g>
			<title> (AFUA_4G14500)
conserved hypothetical protein</title>
			<polygon class=" (AFUA_4G14500)
conserved hypothetical protein" points="257,25 271,25 271,10 301,40 271,70 271,55 257,55" fill="rgb(255,255,255)" fill-opacity="1.0" stroke="rgb(0,0,0)" stroke-width="2"  />
			<g>
				<title>Questin_oxidase (PF14027)
"Questin oxidase-like"</title>
				<polygon class="PF14027" points="262,28 285,28 295,38 295,42 285,52 262,52" stroke-linejoin="round" width="33" height="24" fill="rgb(195,73,96)" stroke="rgb(156,58,76)" stroke-width="1" opacity="0.75" />
			</g>
		</g>
		<g>
			<title> (AFUA_4G14510)
hypothetical protein</title>
			<polygon class=" (AFUA_4G14510)
hypothetical protein" points="341,25 337,25 337,10 307,40 337,70 337,55 341,55" fill="rgb(255,255,255)" fill-opacity="1.0" stroke="rgb(0,0,0)" stroke-width="2"  />
			<g>
				<title>Methyltransf_25 (PF13649)
"Methyltransferase domain"</title>
				<rect class="PF13649" x="326" y="28" stroke-linejoin="round" width="10" height="24" fill="rgb(224,103,106)" stroke="rgb(179,82,84)" stroke-width="1" opacity="0.75" />
			</g>
		</g>
		<g>
			<title> (AFUA_4G14520)
toxin biosynthesis protein, putative</title>
			<polygon class=" (AFUA_4G14520)
toxin biosynthesis protein, putative" points="360,10 386,40 360,70" fill="rgb(255,255,255)" fill-opacity="1.0" stroke="rgb(0,0,0)" stroke-width="2"  />
			<g>
				<title>NAD_binding_10 (PF13460)
"NAD(P)H-binding"</title>
				<polygon class="PF13460" points="360,28 372,28 380,38 380,42 372,52 360,52" stroke-linejoin="round" width="20" height="24" fill="rgb(131,53,182)" stroke="rgb(104,42,145)" stroke-width="1" opacity="0.75" />
			</g>
		</g>
		<g>
			<title> (AFUA_4G14530)
glutathione S-transferase Ure2-like, putative</title>
			<polygon class=" (AFUA_4G14530)
glutathione S-transferase Ure2-like, putative" points="401,10 423,40 401,70" fill="rgb(255,255,255)" fill-opacity="1.0" stroke="rgb(0,0,0)" stroke-width="2"  />
			<g>
				<title>GST_N_2 (PF13409)
"Glutathione S-transferase, N-terminal domain"</title>
				<rect class="PF13409" x="402" y="28" stroke-linejoin="round" width="6" height="24" fill="rgb(216,61,181)" stroke="rgb(172,48,144)" stroke-width="1" opacity="0.75" />
			</g>
			<g>
				<title>GST_C (PF00043)
"Glutathione S-transferase, C-terminal domain"</title>
				<polygon class="PF00043" points="410,28 411,28 419,40 411,52 410,52" stroke-linejoin="round" width="11" height="24" fill="rgb(111,184,77)" stroke="rgb(88,147,61)" stroke-width="1" opacity="0.75" />
			</g>
		</g>
		<g>
			<title> (AFUA_4G14540)
C6 transcription factor (AflR), putative</title>
			<polygon class=" (AFUA_4G14540)
C6 transcription factor (AflR), putative" points="465,25 456,25 456,10 426,40 456,70 456,55 465,55" fill="rgb(255,255,255)" fill-opacity="1.0" stroke="rgb(0,0,0)" stroke-width="2"  />
			<g>
				<title>AflR (PF08493)
"Aflatoxin regulatory protein"</title>
				<polygon class="PF08493" points="434,36 442,28 443,28 443,52 442,52 434,44" stroke-linejoin="round" width="9" height="24" fill="rgb(82,57,195)" stroke="rgb(65,45,156)" stroke-width="1" opacity="0.75" />
			</g>
			<g>
				<title>Zn_clus (PF00172)
"Fungal Zn(2)-Cys(6) binuclear cluster domain"</title>
				<rect class="PF00172" x="460" y="28" stroke-linejoin="round" width="3" height="24" fill="rgb(58,207,82)" stroke="rgb(46,165,65)" stroke-width="1" opacity="0.75" />
			</g>
		</g>
		<g>
			<title> (AFUA_4G14550)
toxin biosynthesis regulatory protein AflJ, putative</title>
			<polygon class=" (AFUA_4G14550)
toxin biosynthesis regulatory protein AflJ, putative" points="557,25 542,25 542,10 512,40 542,70 542,55 557,55" fill="rgb(255,255,255)" fill-opacity="1.0" stroke="rgb(0,0,0)" stroke-width="2"  />
		</g>
		<g>
			<title> (AFUA_4G14560)
polyketide synthase, putative</title>
			<polygon class=" (AFUA_4G14560)
polyketide synthase, putative" points="751,25 597,25 597,10 567,40 597,70 597,55 751,55" fill="rgb(255,255,255)" fill-opacity="1.0" stroke="rgb(0,0,0)" stroke-width="2"  />
			<g>
				<title>PP-binding (PF00550)
"Phosphopantetheine attachment site"</title>
				<polygon class="PF00550" points="573,38 579,32 579,48 573,42" stroke-linejoin="round" width="6" height="24" fill="rgb(181,58,166)" stroke="rgb(144,46,132)" stroke-width="1" opacity="0.75" />
			</g>
			<g>
				<title>PS-DH (PF14765)
"Polyketide synthase dehydratase N-terminal domain"</title>
				<rect class="PF14765" x="587" y="28" stroke-linejoin="round" width="15" height="24" fill="rgb(189,61,178)" stroke="rgb(151,48,142)" stroke-width="1" opacity="0.75" />
			</g>
			<g>
				<title>Acyl_transf_1 (PF00698)
"Acyl transferase domain"</title>
				<rect class="PF00698" x="624" y="28" stroke-linejoin="round" width="32" height="24" fill="rgb(132,93,193)" stroke="rgb(105,74,154)" stroke-width="1" opacity="0.75" />
			</g>
			<g>
				<title>Ketoacyl-synt_C (PF02801)
"Beta-ketoacyl synthase, C-terminal domain"</title>
				<rect class="PF02801" x="672" y="28" stroke-linejoin="round" width="12" height="24" fill="rgb(212,79,72)" stroke="rgb(169,63,57)" stroke-width="1" opacity="0.75" />
			</g>
			<g>
				<title>ketoacyl-synt (PF00109)
"Beta-ketoacyl synthase, N-terminal domain"</title>
				<rect class="PF00109" x="685" y="28" stroke-linejoin="round" width="25" height="24" fill="rgb(74,179,82)" stroke="rgb(59,143,65)" stroke-width="1" opacity="0.75" />
			</g>
			<g>
				<title>SAT (PF16073)
"Starter unit:ACP transacylase in aflatoxin biosynthesis"</title>
				<rect class="PF16073" x="724" y="28" stroke-linejoin="round" width="23" height="24" fill="rgb(77,185,114)" stroke="rgb(61,148,91)" stroke-width="1" opacity="0.75" />
			</g>
		</g>
		<g>
			<title> (AFUA_4G14570)
metallo-beta-lactamase domain protein, putative</title>
			<polygon class=" (AFUA_4G14570)
metallo-beta-lactamase domain protein, putative" points="756,25 768,25 768,10 798,40 768,70 768,55 756,55" fill="rgb(255,255,255)" fill-opacity="1.0" stroke="rgb(0,0,0)" stroke-width="2"  />
			<g>
				<title>Lactamase_B (PF00753)
"Metallo-beta-lactamase superfamily"</title>
				<polygon class="PF00753" points="771,28 781,28 787,34 787,46 781,52 771,52" stroke-linejoin="round" width="16" height="24" fill="rgb(70,201,123)" stroke="rgb(56,160,98)" stroke-width="1" opacity="0.75" />
			</g>
		</g>
		<g>
			<title> (AFUA_4G14580)
O-methyltransferase, putative</title>
			<polygon class=" (AFUA_4G14580)
O-methyltransferase, putative" points="812,25 836,25 836,10 866,40 836,70 836,55 812,55" fill="rgb(255,255,255)" fill-opacity="1.0" stroke="rgb(0,0,0)" stroke-width="2"  />
			<g>
				<title>Methyltransf_2 (PF00891)
"O-methyltransferase domain"</title>
				<polygon class="PF00891" points="840,28 850,28 857,35 857,45 850,52 840,52" stroke-linejoin="round" width="17" height="24" fill="rgb(91,124,224)" stroke="rgb(72,99,179)" stroke-width="1" opacity="0.75" />
			</g>
		</g>
	</g>
</svg>
