<svg version="1.1" baseProfile="full" xmlns="http://www.w3.org/2000/svg" width="1079.9666666666667" height="80">
	<g>
		<line x1="10" y1="40.0" x2="1069.9666666666667" y2="40.0" style="stroke:rgb(70,70,70); stroke-width:3 "/>
		<g>
			<title>
putative membrane protein</title>
			<polygon class="
putative membrane protein" points="13,25 25,25 25,10 55,40 25,70 25,55 13,55" fill="rgb(255,255,255)" fill-opacity="1.0" stroke="rgb(0,0,0)" stroke-width="2"  />
			<g>
				<title>MFS_1 (PF07690)
"Major Facilitator Superfamily"</title>
				<polygon class="PF07690" points="15,28 39,28 50,39 50,41 39,52 15,52" stroke-linejoin="round" width="35" height="24" fill="rgb(228,207,98)" stroke="rgb(182,165,78)" stroke-width="1" opacity="0.75" />
			</g>
		</g>
		<g>
			<title>bioH
pimeloyl-CoA synthesis protein-like protein</title>
			<polygon class="bioH
pimeloyl-CoA synthesis protein-like protein" points="59,10 85,40 59,70" fill="rgb(255,255,255)" fill-opacity="1.0" stroke="rgb(0,0,0)" stroke-width="2"  />
			<g>
				<title>Abhydrolase_1 (PF00561)
"alpha/beta hydrolase fold"</title>
				<polygon class="PF00561" points="60,28 71,28 81,40 71,52 60,52" stroke-linejoin="round" width="22" height="24" fill="rgb(99,159,215)" stroke="rgb(79,127,172)" stroke-width="1" opacity="0.75" />
			</g>
		</g>
		<g>
			<title>
hypothetical protein</title>
			<polygon class="
hypothetical protein" points="86,10 102,40 86,70" fill="rgb(255,255,255)" fill-opacity="1.0" stroke="rgb(0,0,0)" stroke-width="2"  />
			<g>
				<title>CYTH (PF01928)
"CYTH domain"</title>
				<polygon class="PF01928" points="86,28 92,28 99,40 99,40 92,52 86,52" stroke-linejoin="round" width="13" height="24" fill="rgb(159,51,182)" stroke="rgb(127,40,145)" stroke-width="1" opacity="0.75" />
			</g>
		</g>
		<g>
			<title>fomR
transcriptional regulator</title>
			<polygon class="fomR
transcriptional regulator" points="118,10 145,40 118,70" fill="rgb(255,255,255)" fill-opacity="1.0" stroke="rgb(0,0,0)" stroke-width="2"  />
		</g>
		<g>
			<title>
hypothetical protein</title>
			<polygon class="
hypothetical protein" points="190,25 178,25 178,10 148,40 178,70 178,55 190,55" fill="rgb(255,255,255)" fill-opacity="1.0" stroke="rgb(0,0,0)" stroke-width="2"  />
			<g>
				<title>TauD (PF02668)
"Taurine catabolism dioxygenase TauD, TfdA family"</title>
				<polygon class="PF02668" points="152,40 164,28 171,28 171,52 164,52" stroke-linejoin="round" width="23" height="24" fill="rgb(72,206,196)" stroke="rgb(57,164,156)" stroke-width="1" opacity="0.75" />
			</g>
		</g>
		<g>
			<title>
mandelate racemase-like protein</title>
			<polygon class="
mandelate racemase-like protein" points="225,25 219,25 219,10 189,40 219,70 219,55 225,55" fill="rgb(255,255,255)" fill-opacity="1.0" stroke="rgb(0,0,0)" stroke-width="2"  />
			<g>
				<title>MR_MLE_C (PF13378)
"Enolase C-terminal domain-like"</title>
				<polygon class="PF13378" points="193,40 205,28 210,28 210,52 205,52" stroke-linejoin="round" width="21" height="24" fill="rgb(152,69,199)" stroke="rgb(121,55,159)" stroke-width="1" opacity="0.75" />
			</g>
			<g>
				<title>MR_MLE_N (PF02746)
"Mandelate racemase / muconate lactonizing enzyme, N-terminal domain"</title>
				<rect class="PF02746" x="212" y="28" stroke-linejoin="round" width="12" height="24" fill="rgb(205,69,88)" stroke="rgb(164,55,70)" stroke-width="1" opacity="0.75" />
			</g>
		</g>
		<g>
			<title>
demethylmenaquinone methyltransferase-like protein</title>
			<polygon class="
demethylmenaquinone methyltransferase-like protein" points="228,40 250,10 250,70" fill="rgb(255,255,255)" fill-opacity="1.0" stroke="rgb(0,0,0)" stroke-width="2"  />
			<g>
				<title>RraA-like (PF03737)
"Aldolase/RraA"</title>
				<polygon class="PF03737" points="233,39 241,28 248,28 248,52 241,52 233,41" stroke-linejoin="round" width="15" height="24" fill="rgb(194,132,49)" stroke="rgb(155,105,39)" stroke-width="1" opacity="0.75" />
			</g>
		</g>
		<g>
			<title>
hypothetical protein</title>
			<polygon class="
hypothetical protein" points="295,25 280,25 280,10 250,40 280,70 280,55 295,55" fill="rgb(255,255,255)" fill-opacity="1.0" stroke="rgb(0,0,0)" stroke-width="2"  />
		</g>
		<g>
			<title>
branched-chain amino acid aminotransferase-like protein</title>
			<polygon class="
branched-chain amino acid aminotransferase-like protein" points="325,25 324,25 324,10 294,40 324,70 324,55 325,55" fill="rgb(255,255,255)" fill-opacity="1.0" stroke="rgb(0,0,0)" stroke-width="2"  />
			<g>
				<title>Aminotran_4 (PF01063)
"Amino-transferase class IV"</title>
				<polygon class="PF01063" points="298,40 310,28 321,28 321,52 310,52 298,40" stroke-linejoin="round" width="23" height="24" fill="rgb(181,68,119)" stroke="rgb(144,54,95)" stroke-width="1" opacity="0.75" />
			</g>
		</g>
		<g>
			<title>
putative coenzyme PQQ synthesis protein c</title>
			<polygon class="
putative coenzyme PQQ synthesis protein c" points="325,40 350,10 350,70" fill="rgb(255,255,255)" fill-opacity="1.0" stroke="rgb(0,0,0)" stroke-width="2"  />
			<g>
				<title>Haem_oxygenas_2 (PF14518)
"Iron-containing redox enzyme"</title>
				<polygon class="PF14518" points="329,40 339,28 346,28 346,52 339,52" stroke-linejoin="round" width="19" height="24" fill="rgb(222,104,114)" stroke="rgb(177,83,91)" stroke-width="1" opacity="0.75" />
			</g>
		</g>
		<g>
			<title>
HMG-CoA lyase-like protein</title>
			<polygon class="
HMG-CoA lyase-like protein" points="384,25 381,25 381,10 351,40 381,70 381,55 384,55" fill="rgb(255,255,255)" fill-opacity="1.0" stroke="rgb(0,0,0)" stroke-width="2"  />
			<g>
				<title>HMGL-like (PF00682)
"HMGL-like"</title>
				<polygon class="PF00682" points="358,37 367,28 382,28 382,52 367,52 358,43" stroke-linejoin="round" width="24" height="24" fill="rgb(214,84,149)" stroke="rgb(171,67,119)" stroke-width="1" opacity="0.75" />
			</g>
		</g>
		<g>
			<title>
succinyl-diaminopimelate desuccinylase-like protein</title>
			<polygon class="
succinyl-diaminopimelate desuccinylase-like protein" points="395,40 420,10 420,70" fill="rgb(255,255,255)" fill-opacity="1.0" stroke="rgb(0,0,0)" stroke-width="2"  />
			<g>
				<title>Peptidase_M20 (PF01546)
"Peptidase family M20/M25/M40"</title>
				<polygon class="PF01546" points="399,40 409,28 412,28 412,52 409,52" stroke-linejoin="round" width="16" height="24" fill="rgb(82,115,209)" stroke="rgb(65,91,167)" stroke-width="1" opacity="0.75" />
			</g>
		</g>
		<g>
			<title>
unknown</title>
			<polygon class="
unknown" points="465,25 451,25 451,10 421,40 451,70 451,55 465,55" fill="rgb(255,255,255)" fill-opacity="1.0" stroke="rgb(0,0,0)" stroke-width="2"  />
		</g>
		<g>
			<title>
putative antibiotic transport protein</title>
			<polygon class="
putative antibiotic transport protein" points="510,25 496,25 496,10 466,40 496,70 496,55 510,55" fill="rgb(255,255,255)" fill-opacity="1.0" stroke="rgb(0,0,0)" stroke-width="2"  />
			<g>
				<title>MFS_1 (PF07690)
"Major Facilitator Superfamily"</title>
				<polygon class="PF07690" points="473,37 482,28 507,28 507,52 482,52 473,43" stroke-linejoin="round" width="34" height="24" fill="rgb(228,207,98)" stroke="rgb(182,165,78)" stroke-width="1" opacity="0.75" />
			</g>
		</g>
		<g>
			<title>fomF
FomF</title>
			<polygon class="fomF
FomF" points="557,25 540,25 540,10 510,40 540,70 540,55 557,55" fill="rgb(255,255,255)" fill-opacity="1.0" stroke="rgb(0,0,0)" stroke-width="2"  />
			<g>
				<title>DUF6025 (PF19490)
"Family of unknown function (DUF6025)"</title>
				<polygon class="PF19490" points="514,40 526,28 555,28 555,52 526,52" stroke-linejoin="round" width="45" height="24" fill="rgb(221,67,205)" stroke="rgb(176,53,163)" stroke-width="1" opacity="0.75" />
			</g>
		</g>
		<g>
			<title>fomE
FomE</title>
			<polygon class="fomE
FomE" points="556,40 578,10 578,70" fill="rgb(255,255,255)" fill-opacity="1.0" stroke="rgb(0,0,0)" stroke-width="2"  />
			<g>
				<title>Asp_Glu_race (PF01177)
"Asp/Glu/Hydantoin racemase"</title>
				<polygon class="PF01177" points="560,40 569,28 577,28 577,52 569,52" stroke-linejoin="round" width="21" height="24" fill="rgb(89,209,78)" stroke="rgb(71,167,62)" stroke-width="1" opacity="0.75" />
			</g>
		</g>
		<g>
			<title>fom3
SAM-dependent methyltransferase</title>
			<polygon class="fom3
SAM-dependent methyltransferase" points="592,25 615,25 615,10 645,40 615,70 615,55 592,55" fill="rgb(255,255,255)" fill-opacity="1.0" stroke="rgb(0,0,0)" stroke-width="2"  />
			<g>
				<title>B12-binding (PF02310)
"B12 binding domain"</title>
				<rect class="PF02310" x="596" y="28" stroke-linejoin="round" width="13" height="24" fill="rgb(64,214,216)" stroke="rgb(51,171,172)" stroke-width="1" opacity="0.75" />
			</g>
			<g>
				<title>Radical_SAM (PF04055)
"Radical SAM superfamily"</title>
				<polygon class="PF04055" points="619,28 629,28 635,34 635,46 629,52 619,52" stroke-linejoin="round" width="16" height="24" fill="rgb(223,193,78)" stroke="rgb(178,154,62)" stroke-width="1" opacity="0.75" />
			</g>
		</g>
		<g>
			<title>fom4
epoxidase</title>
			<polygon class="fom4
epoxidase" points="646,10 665,40 646,70" fill="rgb(255,255,255)" fill-opacity="1.0" stroke="rgb(0,0,0)" stroke-width="2"  />
			<g>
				<title>HTH_3 (PF01381)
"Helix-turn-helix"</title>
				<rect class="PF01381" x="647" y="28" stroke-linejoin="round" width="5" height="24" fill="rgb(168,185,81)" stroke="rgb(134,148,64)" stroke-width="1" opacity="0.75" />
			</g>
			<g>
				<title>Cupin_2 (PF07883)
"Cupin domain"</title>
				<polygon class="PF07883" points="658,34 662,40 658,46" stroke-linejoin="round" width="7" height="24" fill="rgb(191,63,205)" stroke="rgb(152,50,164)" stroke-width="1" opacity="0.75" />
			</g>
		</g>
		<g>
			<title>fomD
FomD</title>
			<polygon class="fomD
FomD" points="669,10 689,40 669,70" fill="rgb(255,255,255)" fill-opacity="1.0" stroke="rgb(0,0,0)" stroke-width="2"  />
			<g>
				<title>DUF402 (PF04167)
"Protein of unknown function (DUF402)"</title>
				<polygon class="PF04167" points="676,28 677,28 682,35 682,45 677,52 676,52" stroke-linejoin="round" width="6" height="24" fill="rgb(223,93,130)" stroke="rgb(178,74,104)" stroke-width="1" opacity="0.75" />
			</g>
		</g>
		<g>
			<title>fomA
kinase</title>
			<polygon class="fomA
kinase" points="690,10 716,40 690,70" fill="rgb(255,255,255)" fill-opacity="1.0" stroke="rgb(0,0,0)" stroke-width="2"  />
			<g>
				<title>AA_kinase (PF00696)
"Amino acid kinase family"</title>
				<polygon class="PF00696" points="690,28 701,28 712,40 701,52 690,52" stroke-linejoin="round" width="23" height="24" fill="rgb(72,198,168)" stroke="rgb(57,158,134)" stroke-width="1" opacity="0.75" />
			</g>
		</g>
		<g>
			<title>fomB
FomB</title>
			<polygon class="fomB
FomB" points="717,25 720,25 720,10 750,40 720,70 720,55 717,55" fill="rgb(255,255,255)" fill-opacity="1.0" stroke="rgb(0,0,0)" stroke-width="2"  />
		</g>
		<g>
			<title>fom1
phosphoenolpyruvate phosphomutase</title>
			<polygon class="fom1
phosphoenolpyruvate phosphomutase" points="751,25 764,25 764,10 794,40 764,70 764,55 751,55" fill="rgb(255,255,255)" fill-opacity="1.0" stroke="rgb(0,0,0)" stroke-width="2"  />
			<g>
				<title>CTP_transf_like (PF01467)
"Cytidylyltransferase-like"</title>
				<rect class="PF01467" x="751" y="28" stroke-linejoin="round" width="12" height="24" fill="rgb(182,79,133)" stroke="rgb(145,63,106)" stroke-width="1" opacity="0.75" />
			</g>
			<g>
				<title>PEP_mutase (PF13714)
"Phosphoenolpyruvate phosphomutase"</title>
				<polygon class="PF13714" points="766,28 778,28 790,40 778,52 766,52" stroke-linejoin="round" width="25" height="24" fill="rgb(75,181,147)" stroke="rgb(59,144,117)" stroke-width="1" opacity="0.75" />
			</g>
		</g>
		<g>
			<title>fom2
phosphonopyruvate decarboxylase</title>
			<polygon class="fom2
phosphonopyruvate decarboxylase" points="795,25 803,25 803,10 833,40 803,70 803,55 795,55" fill="rgb(255,255,255)" fill-opacity="1.0" stroke="rgb(0,0,0)" stroke-width="2"  />
			<g>
				<title>TPP_enzyme_N (PF02776)
"Thiamine pyrophosphate enzyme, N-terminal TPP binding domain"</title>
				<rect class="PF02776" x="795" y="28" stroke-linejoin="round" width="12" height="24" fill="rgb(208,64,165)" stroke="rgb(166,51,132)" stroke-width="1" opacity="0.75" />
			</g>
			<g>
				<title>TPP_enzyme_C (PF02775)
"Thiamine pyrophosphate enzyme, C-terminal TPP binding domain"</title>
				<polygon class="PF02775" points="816,28 817,28 829,40 829,40 817,52 816,52" stroke-linejoin="round" width="13" height="24" fill="rgb(212,69,87)" stroke="rgb(169,55,69)" stroke-width="1" opacity="0.75" />
			</g>
		</g>
		<g>
			<title>fomC
group III metal-dependent alcohol dehydrogenase</title>
			<polygon class="fomC
group III metal-dependent alcohol dehydrogenase" points="833,25 841,25 841,10 871,40 841,70 841,55 833,55" fill="rgb(255,255,255)" fill-opacity="1.0" stroke="rgb(0,0,0)" stroke-width="2"  />
			<g>
				<title>Fe-ADH (PF00465)
"Iron-containing alcohol dehydrogenase"</title>
				<polygon class="PF00465" points="833,28 855,28 867,40 855,52 833,52" stroke-linejoin="round" width="36" height="24" fill="rgb(55,192,63)" stroke="rgb(44,153,50)" stroke-width="1" opacity="0.75" />
			</g>
		</g>
		<g>
			<title>
putative dienelactone hydrolase</title>
			<polygon class="
putative dienelactone hydrolase" points="901,25 901,25 901,10 871,40 901,70 901,55 901,55" fill="rgb(255,255,255)" fill-opacity="1.0" stroke="rgb(0,0,0)" stroke-width="2"  />
		</g>
		<g>
			<title>
putative transcriptional regulator</title>
			<polygon class="
putative transcriptional regulator" points="906,10 930,40 906,70" fill="rgb(255,255,255)" fill-opacity="1.0" stroke="rgb(0,0,0)" stroke-width="2"  />
			<g>
				<title>HTH_20 (PF12840)
"Helix-turn-helix domain"</title>
				<polygon class="PF12840" points="923,36 926,40 923,44" stroke-linejoin="round" width="4" height="24" fill="rgb(149,90,225)" stroke="rgb(119,72,180)" stroke-width="1" opacity="0.75" />
			</g>
		</g>
		<g>
			<title>phnD
phosphonate-binding periplasmic protein</title>
			<polygon class="phnD
phosphonate-binding periplasmic protein" points="934,25 936,25 936,10 966,40 936,70 936,55 934,55" fill="rgb(255,255,255)" fill-opacity="1.0" stroke="rgb(0,0,0)" stroke-width="2"  />
			<g>
				<title>Phosphonate-bd (PF12974)
"ABC transporter, phosphonate, periplasmic substrate-binding protein"</title>
				<polygon class="PF12974" points="939,28 950,28 962,40 950,52 939,52" stroke-linejoin="round" width="25" height="24" fill="rgb(115,78,213)" stroke="rgb(91,62,170)" stroke-width="1" opacity="0.75" />
			</g>
		</g>
		<g>
			<title>phnC
ATP-binding phosphonate ABC transporter PhnC</title>
			<polygon class="phnC
ATP-binding phosphonate ABC transporter PhnC" points="968,10 994,40 968,70" fill="rgb(255,255,255)" fill-opacity="1.0" stroke="rgb(0,0,0)" stroke-width="2"  />
			<g>
				<title>ABC_tran (PF00005)
"ABC transporter"</title>
				<polygon class="PF00005" points="970,28 979,28 985,34 985,46 979,52 970,52" stroke-linejoin="round" width="15" height="24" fill="rgb(46,186,108)" stroke="rgb(36,148,86)" stroke-width="1" opacity="0.75" />
			</g>
		</g>
		<g>
			<title>phnE
ABC-type phosphonate permease</title>
			<polygon class="phnE
ABC-type phosphonate permease" points="994,25 1021,25 1021,10 1051,40 1021,70 1021,55 994,55" fill="rgb(255,255,255)" fill-opacity="1.0" stroke="rgb(0,0,0)" stroke-width="2"  />
			<g>
				<title>BPD_transp_1 (PF00528)
"Binding-protein-dependent transport system inner membrane component"</title>
				<rect class="PF00528" x="1004" y="28" stroke-linejoin="round" width="17" height="24" fill="rgb(167,188,50)" stroke="rgb(133,150,40)" stroke-width="1" opacity="0.75" />
			</g>
			<g>
				<title>BPD_transp_1 (PF00528)
"Binding-protein-dependent transport system inner membrane component"</title>
				<polygon class="PF00528" points="1034,28 1035,28 1047,40 1035,52 1034,52" stroke-linejoin="round" width="17" height="24" fill="rgb(167,188,50)" stroke="rgb(133,150,40)" stroke-width="1" opacity="0.75" />
			</g>
		</g>
	</g>
</svg>
