<svg version="1.1" baseProfile="full" xmlns="http://www.w3.org/2000/svg" width="1849.8333333333333" height="80">
	<g>
		<line x1="10" y1="40.0" x2="1839.8333333333333" y2="40.0" style="stroke:rgb(70,70,70); stroke-width:3 "/>
		<g>
			<title> (SSGG_00659)
transmembrane-transport protein</title>
			<polygon class=" (SSGG_00659)
transmembrane-transport protein" points="61,25 40,25 40,10 10,40 40,70 40,55 61,55" fill="rgb(255,255,255)" fill-opacity="1.0" stroke="rgb(0,0,0)" stroke-width="2"  />
			<g>
				<title>MFS_1 (PF07690)
"Major Facilitator Superfamily"</title>
				<polygon class="PF07690" points="19,35 26,28 58,28 58,52 26,52 19,45" stroke-linejoin="round" width="39" height="24" fill="rgb(228,207,98)" stroke="rgb(182,165,78)" stroke-width="1" opacity="0.75" />
			</g>
		</g>
		<g>
			<title> (SSGG_00660)
TetR-family transcriptional regulator</title>
			<polygon class=" (SSGG_00660)
TetR-family transcriptional regulator" points="61,40 80,10 80,70" fill="rgb(255,255,255)" fill-opacity="1.0" stroke="rgb(0,0,0)" stroke-width="2"  />
			<g>
				<title>TetR_N (PF00440)
"Bacterial regulatory proteins, tetR family"</title>
				<rect class="PF00440" x="74" y="28" stroke-linejoin="round" width="4" height="24" fill="rgb(148,50,185)" stroke="rgb(118,40,148)" stroke-width="1" opacity="0.75" />
			</g>
		</g>
		<g>
			<title> (SSGG_00661)
conserved hypothetical protein</title>
			<polygon class=" (SSGG_00661)
conserved hypothetical protein" points="88,25 130,25 130,10 160,40 130,70 130,55 88,55" fill="rgb(255,255,255)" fill-opacity="1.0" stroke="rgb(0,0,0)" stroke-width="2"  />
		</g>
		<g>
			<title> (SSGG_00662)
oxidoreductase</title>
			<polygon class=" (SSGG_00662)
oxidoreductase" points="195,25 191,25 191,10 161,40 191,70 191,55 195,55" fill="rgb(255,255,255)" fill-opacity="1.0" stroke="rgb(0,0,0)" stroke-width="2"  />
			<g>
				<title>Aldo_ket_red (PF00248)
"Aldo/keto reductase family"</title>
				<polygon class="PF00248" points="165,40 177,28 191,28 191,52 177,52" stroke-linejoin="round" width="29" height="24" fill="rgb(96,196,138)" stroke="rgb(76,156,110)" stroke-width="1" opacity="0.75" />
			</g>
		</g>
		<g>
			<title> (SSGG_00663)
argininosuccinate lyase ArgH</title>
			<polygon class=" (SSGG_00663)
argininosuccinate lyase ArgH" points="245,25 228,25 228,10 198,40 228,70 228,55 245,55" fill="rgb(255,255,255)" fill-opacity="1.0" stroke="rgb(0,0,0)" stroke-width="2"  />
			<g>
				<title>ASL_C2 (PF14698)
"Argininosuccinate lyase C-terminal"</title>
				<polygon class="PF14698" points="202,40 207,35 207,45" stroke-linejoin="round" width="6" height="24" fill="rgb(104,224,135)" stroke="rgb(83,179,108)" stroke-width="1" opacity="0.75" />
			</g>
			<g>
				<title>Lyase_1 (PF00206)
"Lyase"</title>
				<polygon class="PF00206" points="214,28 214,28 243,28 243,52 214,52 214,52" stroke-linejoin="round" width="29" height="24" fill="rgb(125,214,85)" stroke="rgb(99,171,68)" stroke-width="1" opacity="0.75" />
			</g>
		</g>
		<g>
			<title> (SSGG_00664)
argininosuccinate synthase ArgG</title>
			<polygon class=" (SSGG_00664)
argininosuccinate synthase ArgG" points="288,25 279,25 279,10 249,40 279,70 279,55 288,55" fill="rgb(255,255,255)" fill-opacity="1.0" stroke="rgb(0,0,0)" stroke-width="2"  />
			<g>
				<title>Arginosuc_syn_C (PF20979)
"Arginosuccinate synthase C-terminal domain"</title>
				<polygon class="PF20979" points="253,40 265,28 270,28 270,52 265,52" stroke-linejoin="round" width="21" height="24" fill="rgb(81,217,156)" stroke="rgb(64,173,124)" stroke-width="1" opacity="0.75" />
			</g>
			<g>
				<title>Arginosuc_synth (PF00764)
"Arginosuccinate synthase N-terminal HUP domain"</title>
				<rect class="PF00764" x="272" y="28" stroke-linejoin="round" width="16" height="24" fill="rgb(170,216,95)" stroke="rgb(136,172,76)" stroke-width="1" opacity="0.75" />
			</g>
		</g>
		<g>
			<title> (SSGG_00665)
predicted protein</title>
			<polygon class=" (SSGG_00665)
predicted protein" points="292,25 308,25 308,10 338,40 308,70 308,55 292,55" fill="rgb(255,255,255)" fill-opacity="1.0" stroke="rgb(0,0,0)" stroke-width="2"  />
			<g>
				<title>HEAT_2 (PF13646)
"HEAT repeats"</title>
				<polygon class="PF13646" points="325,31 333,39 333,41 325,49" stroke-linejoin="round" width="8" height="24" fill="rgb(158,190,58)" stroke="rgb(126,152,46)" stroke-width="1" opacity="0.75" />
			</g>
		</g>
		<g>
			<title> (SSGG_00666)
secreted protein</title>
			<polygon class=" (SSGG_00666)
secreted protein" points="341,10 364,40 341,70" fill="rgb(255,255,255)" fill-opacity="1.0" stroke="rgb(0,0,0)" stroke-width="2"  />
			<g>
				<title>YkuD (PF03734)
"L,D-transpeptidase catalytic domain"</title>
				<polygon class="PF03734" points="346,28 351,28 360,40 351,52 346,52" stroke-linejoin="round" width="17" height="24" fill="rgb(184,73,48)" stroke="rgb(147,58,38)" stroke-width="1" opacity="0.75" />
			</g>
		</g>
		<g>
			<title> (SSGG_00667)
arginine repressor</title>
			<polygon class=" (SSGG_00667)
arginine repressor" points="365,40 382,10 382,70" fill="rgb(255,255,255)" fill-opacity="1.0" stroke="rgb(0,0,0)" stroke-width="2"  />
			<g>
				<title>Arg_repressor_C (PF02863)
"Arginine repressor, C-terminal domain"</title>
				<polygon class="PF02863" points="368,40 371,35 371,45" stroke-linejoin="round" width="6" height="24" fill="rgb(203,85,184)" stroke="rgb(162,68,147)" stroke-width="1" opacity="0.75" />
			</g>
			<g>
				<title>Arg_repressor (PF01316)
"Arginine repressor, DNA binding domain"</title>
				<polygon class="PF01316" points="374,30 375,28 380,28 380,52 375,52 374,50" stroke-linejoin="round" width="6" height="24" fill="rgb(186,50,112)" stroke="rgb(148,39,89)" stroke-width="1" opacity="0.75" />
			</g>
		</g>
		<g>
			<title> (SSGG_00668)
N2-acetyl-L-ornithine:2-oxoglutarate aminotransferase ArgD</title>
			<polygon class=" (SSGG_00668)
N2-acetyl-L-ornithine:2-oxoglutarate aminotransferase ArgD" points="424,25 414,25 414,10 384,40 414,70 414,55 424,55" fill="rgb(255,255,255)" fill-opacity="1.0" stroke="rgb(0,0,0)" stroke-width="2"  />
			<g>
				<title>Aminotran_3 (PF00202)
"Aminotransferase class-III"</title>
				<polygon class="PF00202" points="388,40 400,28 422,28 422,52 400,52" stroke-linejoin="round" width="37" height="24" fill="rgb(182,63,213)" stroke="rgb(145,50,170)" stroke-width="1" opacity="0.75" />
			</g>
		</g>
		<g>
			<title> (SSGG_00669)
N-acetylglutamate kinase ArgB</title>
			<polygon class=" (SSGG_00669)
N-acetylglutamate kinase ArgB" points="455,25 454,25 454,10 424,40 454,70 454,55 455,55" fill="rgb(255,255,255)" fill-opacity="1.0" stroke="rgb(0,0,0)" stroke-width="2"  />
			<g>
				<title>AA_kinase (PF00696)
"Amino acid kinase family"</title>
				<polygon class="PF00696" points="428,40 440,28 452,28 452,52 440,52 428,40" stroke-linejoin="round" width="24" height="24" fill="rgb(72,198,168)" stroke="rgb(57,158,134)" stroke-width="1" opacity="0.75" />
			</g>
		</g>
		<g>
			<title> (SSGG_00670)
N2-acetyl-L-ornithine:L-glutamate N-acetyltransferase ArgJ</title>
			<polygon class=" (SSGG_00670)
N2-acetyl-L-ornithine:L-glutamate N-acetyltransferase ArgJ" points="493,25 485,25 485,10 455,40 485,70 485,55 493,55" fill="rgb(255,255,255)" fill-opacity="1.0" stroke="rgb(0,0,0)" stroke-width="2"  />
			<g>
				<title>ArgJ (PF01960)
"ArgJ family"</title>
				<polygon class="PF01960" points="459,40 471,28 492,28 492,52 471,52" stroke-linejoin="round" width="37" height="24" fill="rgb(61,150,195)" stroke="rgb(48,120,156)" stroke-width="1" opacity="0.75" />
			</g>
		</g>
		<g>
			<title> (SSGG_00671)
N-acetyl-gamma-glutamylphosphate reductase</title>
			<polygon class=" (SSGG_00671)
N-acetyl-gamma-glutamylphosphate reductase" points="528,25 524,25 524,10 494,40 524,70 524,55 528,55" fill="rgb(255,255,255)" fill-opacity="1.0" stroke="rgb(0,0,0)" stroke-width="2"  />
			<g>
				<title>Semialdhyde_dhC (PF02774)
"Semialdehyde dehydrogenase, dimerisation domain"</title>
				<polygon class="PF02774" points="498,40 510,28 512,28 512,52 510,52" stroke-linejoin="round" width="15" height="24" fill="rgb(193,88,215)" stroke="rgb(154,70,172)" stroke-width="1" opacity="0.75" />
			</g>
			<g>
				<title>Semialdhyde_dh (PF01118)
"Semialdehyde dehydrogenase, NAD binding domain"</title>
				<rect class="PF01118" x="514" y="28" stroke-linejoin="round" width="13" height="24" fill="rgb(206,69,95)" stroke="rgb(164,55,76)" stroke-width="1" opacity="0.75" />
			</g>
		</g>
		<g>
			<title> (SSGG_00672)
cysteine synthase</title>
			<polygon class=" (SSGG_00672)
cysteine synthase" points="565,25 562,25 562,10 532,40 562,70 562,55 565,55" fill="rgb(255,255,255)" fill-opacity="1.0" stroke="rgb(0,0,0)" stroke-width="2"  />
			<g>
				<title>PALP (PF00291)
"Pyridoxal-phosphate dependent enzyme"</title>
				<polygon class="PF00291" points="536,40 548,28 563,28 563,52 548,52 536,40" stroke-linejoin="round" width="27" height="24" fill="rgb(73,227,169)" stroke="rgb(58,181,135)" stroke-width="1" opacity="0.75" />
			</g>
		</g>
		<g>
			<title> (SSGG_00673)
ornithine cyclodeaminase</title>
			<polygon class=" (SSGG_00673)
ornithine cyclodeaminase" points="601,25 596,25 596,10 566,40 596,70 596,55 601,55" fill="rgb(255,255,255)" fill-opacity="1.0" stroke="rgb(0,0,0)" stroke-width="2"  />
			<g>
				<title>OCD_Mu_crystall (PF02423)
"Ornithine cyclodeaminase/mu-crystallin family"</title>
				<polygon class="PF02423" points="570,40 582,28 599,28 599,52 582,52" stroke-linejoin="round" width="31" height="24" fill="rgb(225,111,164)" stroke="rgb(180,88,131)" stroke-width="1" opacity="0.75" />
			</g>
		</g>
		<g>
			<title> (SSGG_00674)
non-ribosomal peptide synthetase</title>
			<polygon class=" (SSGG_00674)
non-ribosomal peptide synthetase" points="722,25 634,25 634,10 604,40 634,70 634,55 722,55" fill="rgb(255,255,255)" fill-opacity="1.0" stroke="rgb(0,0,0)" stroke-width="2"  />
			<g>
				<title>TauD (PF02668)
"Taurine catabolism dioxygenase TauD, TfdA family"</title>
				<polygon class="PF02668" points="608,40 620,28 635,28 635,52 620,52" stroke-linejoin="round" width="30" height="24" fill="rgb(72,206,196)" stroke="rgb(57,164,156)" stroke-width="1" opacity="0.75" />
			</g>
			<g>
				<title>PP-binding (PF00550)
"Phosphopantetheine attachment site"</title>
				<rect class="PF00550" x="643" y="28" stroke-linejoin="round" width="6" height="24" fill="rgb(181,58,166)" stroke="rgb(144,46,132)" stroke-width="1" opacity="0.75" />
			</g>
			<g>
				<title>AMP-binding_C (PF13193)
"AMP-binding enzyme C-terminal domain"</title>
				<rect class="PF13193" x="652" y="28" stroke-linejoin="round" width="7" height="24" fill="rgb(195,82,106)" stroke="rgb(156,65,84)" stroke-width="1" opacity="0.75" />
			</g>
			<g>
				<title>AMP-binding (PF00501)
"AMP-binding enzyme"</title>
				<rect class="PF00501" x="665" y="28" stroke-linejoin="round" width="35" height="24" fill="rgb(189,78,204)" stroke="rgb(151,62,163)" stroke-width="1" opacity="0.75" />
			</g>
		</g>
		<g>
			<title> (SSGG_00675)
conserved hypothetical protein</title>
			<polygon class=" (SSGG_00675)
conserved hypothetical protein" points="744,10 771,40 744,70" fill="rgb(255,255,255)" fill-opacity="1.0" stroke="rgb(0,0,0)" stroke-width="2"  />
			<g>
				<title>Thioesterase (PF00975)
"Thioesterase domain"</title>
				<polygon class="PF00975" points="747,28 755,28 767,40 755,52 747,52" stroke-linejoin="round" width="23" height="24" fill="rgb(69,76,223)" stroke="rgb(55,60,178)" stroke-width="1" opacity="0.75" />
			</g>
		</g>
		<g>
			<title> (SSGG_00676)
conserved hypothetical protein</title>
			<polygon class=" (SSGG_00676)
conserved hypothetical protein" points="780,10 787,40 780,70" fill="rgb(255,255,255)" fill-opacity="1.0" stroke="rgb(0,0,0)" stroke-width="2"  />
			<g>
				<title>MbtH (PF03621)
"MbtH-like protein"</title>
				<polygon class="PF03621" points="780,28 781,28 784,40 781,52 780,52" stroke-linejoin="round" width="5" height="24" fill="rgb(102,212,116)" stroke="rgb(81,169,92)" stroke-width="1" opacity="0.75" />
			</g>
		</g>
		<g>
			<title> (SSGG_00677)
predicted protein</title>
			<polygon class=" (SSGG_00677)
predicted protein" points="788,10 793,40 788,70" fill="rgb(255,255,255)" fill-opacity="1.0" stroke="rgb(0,0,0)" stroke-width="2"  />
		</g>
		<g>
			<title> (SSGG_00678)
nonribosomal peptide synthetase</title>
			<polygon class=" (SSGG_00678)
nonribosomal peptide synthetase" points="798,25 1376,25 1376,10 1406,40 1376,70 1376,55 798,55" fill="rgb(255,255,255)" fill-opacity="1.0" stroke="rgb(0,0,0)" stroke-width="2"  />
			<g>
				<title>Condensation (PF00668)
"Condensation domain"</title>
				<rect class="PF00668" x="798" y="28" stroke-linejoin="round" width="40" height="24" fill="rgb(172,217,60)" stroke="rgb(137,173,47)" stroke-width="1" opacity="0.75" />
			</g>
			<g>
				<title>AMP-binding (PF00501)
"AMP-binding enzyme"</title>
				<rect class="PF00501" x="840" y="28" stroke-linejoin="round" width="35" height="24" fill="rgb(189,78,204)" stroke="rgb(151,62,163)" stroke-width="1" opacity="0.75" />
			</g>
			<g>
				<title>AMP-binding_C (PF13193)
"AMP-binding enzyme C-terminal domain"</title>
				<rect class="PF13193" x="881" y="28" stroke-linejoin="round" width="7" height="24" fill="rgb(195,82,106)" stroke="rgb(156,65,84)" stroke-width="1" opacity="0.75" />
			</g>
			<g>
				<title>PP-binding (PF00550)
"Phosphopantetheine attachment site"</title>
				<rect class="PF00550" x="892" y="28" stroke-linejoin="round" width="6" height="24" fill="rgb(181,58,166)" stroke="rgb(144,46,132)" stroke-width="1" opacity="0.75" />
			</g>
			<g>
				<title>Condensation (PF00668)
"Condensation domain"</title>
				<rect class="PF00668" x="903" y="28" stroke-linejoin="round" width="39" height="24" fill="rgb(172,217,60)" stroke="rgb(137,173,47)" stroke-width="1" opacity="0.75" />
			</g>
			<g>
				<title>AMP-binding (PF00501)
"AMP-binding enzyme"</title>
				<rect class="PF00501" x="949" y="28" stroke-linejoin="round" width="36" height="24" fill="rgb(189,78,204)" stroke="rgb(151,62,163)" stroke-width="1" opacity="0.75" />
			</g>
			<g>
				<title>AMP-binding_C (PF13193)
"AMP-binding enzyme C-terminal domain"</title>
				<rect class="PF13193" x="991" y="28" stroke-linejoin="round" width="7" height="24" fill="rgb(195,82,106)" stroke="rgb(156,65,84)" stroke-width="1" opacity="0.75" />
			</g>
			<g>
				<title>PP-binding (PF00550)
"Phosphopantetheine attachment site"</title>
				<rect class="PF00550" x="1001" y="28" stroke-linejoin="round" width="6" height="24" fill="rgb(181,58,166)" stroke="rgb(144,46,132)" stroke-width="1" opacity="0.75" />
			</g>
			<g>
				<title>Condensation (PF00668)
"Condensation domain"</title>
				<rect class="PF00668" x="1012" y="28" stroke-linejoin="round" width="39" height="24" fill="rgb(172,217,60)" stroke="rgb(137,173,47)" stroke-width="1" opacity="0.75" />
			</g>
			<g>
				<title>AMP-binding (PF00501)
"AMP-binding enzyme"</title>
				<rect class="PF00501" x="1058" y="28" stroke-linejoin="round" width="35" height="24" fill="rgb(189,78,204)" stroke="rgb(151,62,163)" stroke-width="1" opacity="0.75" />
			</g>
			<g>
				<title>AMP-binding_C (PF13193)
"AMP-binding enzyme C-terminal domain"</title>
				<rect class="PF13193" x="1099" y="28" stroke-linejoin="round" width="7" height="24" fill="rgb(195,82,106)" stroke="rgb(156,65,84)" stroke-width="1" opacity="0.75" />
			</g>
			<g>
				<title>PP-binding (PF00550)
"Phosphopantetheine attachment site"</title>
				<rect class="PF00550" x="1109" y="28" stroke-linejoin="round" width="6" height="24" fill="rgb(181,58,166)" stroke="rgb(144,46,132)" stroke-width="1" opacity="0.75" />
			</g>
			<g>
				<title>Condensation (PF00668)
"Condensation domain"</title>
				<rect class="PF00668" x="1117" y="28" stroke-linejoin="round" width="45" height="24" fill="rgb(172,217,60)" stroke="rgb(137,173,47)" stroke-width="1" opacity="0.75" />
			</g>
			<g>
				<title>PP-binding (PF00550)
"Phosphopantetheine attachment site"</title>
				<rect class="PF00550" x="1176" y="28" stroke-linejoin="round" width="6" height="24" fill="rgb(181,58,166)" stroke="rgb(144,46,132)" stroke-width="1" opacity="0.75" />
			</g>
			<g>
				<title>Condensation (PF00668)
"Condensation domain"</title>
				<rect class="PF00668" x="1187" y="28" stroke-linejoin="round" width="42" height="24" fill="rgb(172,217,60)" stroke="rgb(137,173,47)" stroke-width="1" opacity="0.75" />
			</g>
			<g>
				<title>AMP-binding (PF00501)
"AMP-binding enzyme"</title>
				<rect class="PF00501" x="1234" y="28" stroke-linejoin="round" width="36" height="24" fill="rgb(189,78,204)" stroke="rgb(151,62,163)" stroke-width="1" opacity="0.75" />
			</g>
			<g>
				<title>AMP-binding_C (PF13193)
"AMP-binding enzyme C-terminal domain"</title>
				<rect class="PF13193" x="1276" y="28" stroke-linejoin="round" width="7" height="24" fill="rgb(195,82,106)" stroke="rgb(156,65,84)" stroke-width="1" opacity="0.75" />
			</g>
			<g>
				<title>PP-binding (PF00550)
"Phosphopantetheine attachment site"</title>
				<rect class="PF00550" x="1286" y="28" stroke-linejoin="round" width="6" height="24" fill="rgb(181,58,166)" stroke="rgb(144,46,132)" stroke-width="1" opacity="0.75" />
			</g>
			<g>
				<title>Condensation (PF00668)
"Condensation domain"</title>
				<rect class="PF00668" x="1297" y="28" stroke-linejoin="round" width="44" height="24" fill="rgb(172,217,60)" stroke="rgb(137,173,47)" stroke-width="1" opacity="0.75" />
			</g>
			<g>
				<title>AMP-binding (PF00501)
"AMP-binding enzyme"</title>
				<rect class="PF00501" x="1343" y="28" stroke-linejoin="round" width="36" height="24" fill="rgb(189,78,204)" stroke="rgb(151,62,163)" stroke-width="1" opacity="0.75" />
			</g>
			<g>
				<title>AMP-binding_C (PF13193)
"AMP-binding enzyme C-terminal domain"</title>
				<polygon class="PF13193" points="1386,28 1390,28 1394,32 1394,48 1390,52 1386,52" stroke-linejoin="round" width="8" height="24" fill="rgb(195,82,106)" stroke="rgb(156,65,84)" stroke-width="1" opacity="0.75" />
			</g>
			<g>
				<title>PP-binding (PF00550)
"Phosphopantetheine attachment site"</title>
				<polygon class="PF00550" points="1397,35 1402,40 1397,45" stroke-linejoin="round" width="6" height="24" fill="rgb(181,58,166)" stroke="rgb(144,46,132)" stroke-width="1" opacity="0.75" />
			</g>
		</g>
		<g>
			<title> (SSGG_00679)
nonribosomal peptide synthetase</title>
			<polygon class=" (SSGG_00679)
nonribosomal peptide synthetase" points="1406,25 1764,25 1764,10 1794,40 1764,70 1764,55 1406,55" fill="rgb(255,255,255)" fill-opacity="1.0" stroke="rgb(0,0,0)" stroke-width="2"  />
			<g>
				<title>Condensation (PF00668)
"Condensation domain"</title>
				<rect class="PF00668" x="1406" y="28" stroke-linejoin="round" width="45" height="24" fill="rgb(172,217,60)" stroke="rgb(137,173,47)" stroke-width="1" opacity="0.75" />
			</g>
			<g>
				<title>AMP-binding (PF00501)
"AMP-binding enzyme"</title>
				<rect class="PF00501" x="1453" y="28" stroke-linejoin="round" width="35" height="24" fill="rgb(189,78,204)" stroke="rgb(151,62,163)" stroke-width="1" opacity="0.75" />
			</g>
			<g>
				<title>AMP-binding_C (PF13193)
"AMP-binding enzyme C-terminal domain"</title>
				<rect class="PF13193" x="1494" y="28" stroke-linejoin="round" width="7" height="24" fill="rgb(195,82,106)" stroke="rgb(156,65,84)" stroke-width="1" opacity="0.75" />
			</g>
			<g>
				<title>PP-binding (PF00550)
"Phosphopantetheine attachment site"</title>
				<rect class="PF00550" x="1504" y="28" stroke-linejoin="round" width="6" height="24" fill="rgb(181,58,166)" stroke="rgb(144,46,132)" stroke-width="1" opacity="0.75" />
			</g>
			<g>
				<title>Condensation (PF00668)
"Condensation domain"</title>
				<rect class="PF00668" x="1515" y="28" stroke-linejoin="round" width="39" height="24" fill="rgb(172,217,60)" stroke="rgb(137,173,47)" stroke-width="1" opacity="0.75" />
			</g>
			<g>
				<title>AMP-binding (PF00501)
"AMP-binding enzyme"</title>
				<rect class="PF00501" x="1561" y="28" stroke-linejoin="round" width="34" height="24" fill="rgb(189,78,204)" stroke="rgb(151,62,163)" stroke-width="1" opacity="0.75" />
			</g>
			<g>
				<title>AMP-binding_C (PF13193)
"AMP-binding enzyme C-terminal domain"</title>
				<rect class="PF13193" x="1601" y="28" stroke-linejoin="round" width="7" height="24" fill="rgb(195,82,106)" stroke="rgb(156,65,84)" stroke-width="1" opacity="0.75" />
			</g>
			<g>
				<title>PP-binding (PF00550)
"Phosphopantetheine attachment site"</title>
				<rect class="PF00550" x="1612" y="28" stroke-linejoin="round" width="6" height="24" fill="rgb(181,58,166)" stroke="rgb(144,46,132)" stroke-width="1" opacity="0.75" />
			</g>
			<g>
				<title>Condensation (PF00668)
"Condensation domain"</title>
				<rect class="PF00668" x="1620" y="28" stroke-linejoin="round" width="45" height="24" fill="rgb(172,217,60)" stroke="rgb(137,173,47)" stroke-width="1" opacity="0.75" />
			</g>
			<g>
				<title>AMP-binding (PF00501)
"AMP-binding enzyme"</title>
				<rect class="PF00501" x="1667" y="28" stroke-linejoin="round" width="36" height="24" fill="rgb(189,78,204)" stroke="rgb(151,62,163)" stroke-width="1" opacity="0.75" />
			</g>
			<g>
				<title>Methyltransf_12 (PF08242)
"Methyltransferase domain"</title>
				<rect class="PF08242" x="1720" y="28" stroke-linejoin="round" width="10" height="24" fill="rgb(78,210,205)" stroke="rgb(62,168,164)" stroke-width="1" opacity="0.75" />
			</g>
			<g>
				<title>PP-binding (PF00550)
"Phosphopantetheine attachment site"</title>
				<rect class="PF00550" x="1762" y="28" stroke-linejoin="round" width="6" height="24" fill="rgb(181,58,166)" stroke="rgb(144,46,132)" stroke-width="1" opacity="0.75" />
			</g>
			<g>
				<title>Thioesterase (PF00975)
"Thioesterase domain"</title>
				<polygon class="PF00975" points="1771,28 1778,28 1790,40 1778,52 1771,52" stroke-linejoin="round" width="22" height="24" fill="rgb(69,76,223)" stroke="rgb(55,60,178)" stroke-width="1" opacity="0.75" />
			</g>
		</g>
		<g>
			<title> (SSGG_00680)
pyridoxal-5'-phosphate-dependent enzyme</title>
			<polygon class=" (SSGG_00680)
pyridoxal-5'-phosphate-dependent enzyme" points="1796,25 1809,25 1809,10 1839,40 1809,70 1809,55 1796,55" fill="rgb(255,255,255)" fill-opacity="1.0" stroke="rgb(0,0,0)" stroke-width="2"  />
			<g>
				<title>PALP (PF00291)
"Pyridoxal-phosphate dependent enzyme"</title>
				<polygon class="PF00291" points="1802,28 1822,28 1834,40 1834,40 1822,52 1802,52" stroke-linejoin="round" width="32" height="24" fill="rgb(73,227,169)" stroke="rgb(58,181,135)" stroke-width="1" opacity="0.75" />
			</g>
		</g>
	</g>
</svg>
