<svg version="1.1" baseProfile="full" xmlns="http://www.w3.org/2000/svg" width="644.6333333333333" height="80">
	<g>
		<line x1="10" y1="40.0" x2="634.6333333333333" y2="40.0" style="stroke:rgb(70,70,70); stroke-width:3 "/>
		<g>
			<title>echD
EchD</title>
			<polygon class="echD
EchD" points="16,10 41,40 16,70" fill="rgb(255,255,255)" fill-opacity="1.0" stroke="rgb(0,0,0)" stroke-width="2"  />
			<g>
				<title>Methyltransf_25 (PF13649)
"Methyltransferase domain"</title>
				<polygon class="PF13649" points="20,28 28,28 29,30 29,50 28,52 20,52" stroke-linejoin="round" width="9" height="24" fill="rgb(224,103,106)" stroke="rgb(179,82,84)" stroke-width="1" opacity="0.75" />
			</g>
		</g>
		<g>
			<title>
ABC transporter</title>
			<polygon class="
ABC transporter" points="50,40 75,10 75,70" fill="rgb(255,255,255)" fill-opacity="1.0" stroke="rgb(0,0,0)" stroke-width="2"  />
			<g>
				<title>ABC_tran (PF00005)
"ABC transporter"</title>
				<polygon class="PF00005" points="57,36 64,28 72,28 72,52 64,52 57,44" stroke-linejoin="round" width="15" height="24" fill="rgb(46,186,108)" stroke="rgb(36,148,86)" stroke-width="1" opacity="0.75" />
			</g>
		</g>
		<g>
			<title>
ABC transporter permease</title>
			<polygon class="
ABC transporter permease" points="106,25 105,25 105,10 75,40 105,70 105,55 106,55" fill="rgb(255,255,255)" fill-opacity="1.0" stroke="rgb(0,0,0)" stroke-width="2"  />
			<g>
				<title>BPD_transp_1 (PF00528)
"Binding-protein-dependent transport system inner membrane component"</title>
				<polygon class="PF00528" points="79,40 91,28 97,28 97,52 91,52" stroke-linejoin="round" width="19" height="24" fill="rgb(167,188,50)" stroke="rgb(133,150,40)" stroke-width="1" opacity="0.75" />
			</g>
		</g>
		<g>
			<title>
ABC transporter substrate-binding protein</title>
			<polygon class="
ABC transporter substrate-binding protein" points="139,25 138,25 138,10 108,40 138,70 138,55 139,55" fill="rgb(255,255,255)" fill-opacity="1.0" stroke="rgb(0,0,0)" stroke-width="2"  />
			<g>
				<title>SBP_bac_3 (PF00497)
"Bacterial extracellular solute-binding proteins, family 3"</title>
				<polygon class="PF00497" points="112,40 124,28 132,28 132,52 124,52" stroke-linejoin="round" width="23" height="24" fill="rgb(142,223,107)" stroke="rgb(113,178,85)" stroke-width="1" opacity="0.75" />
			</g>
		</g>
		<g>
			<title>
malate dehydrogenase</title>
			<polygon class="
malate dehydrogenase" points="157,25 168,25 168,10 198,40 168,70 168,55 157,55" fill="rgb(255,255,255)" fill-opacity="1.0" stroke="rgb(0,0,0)" stroke-width="2"  />
			<g>
				<title>malic (PF00390)
"Malic enzyme, N-terminal domain"</title>
				<rect class="PF00390" x="160" y="28" stroke-linejoin="round" width="13" height="24" fill="rgb(184,103,79)" stroke="rgb(147,82,63)" stroke-width="1" opacity="0.75" />
			</g>
			<g>
				<title>Malic_M (PF03949)
"Malic enzyme, NAD binding domain"</title>
				<polygon class="PF03949" points="175,28 181,28 193,40 181,52 175,52" stroke-linejoin="round" width="22" height="24" fill="rgb(179,55,165)" stroke="rgb(143,44,131)" stroke-width="1" opacity="0.75" />
			</g>
		</g>
		<g>
			<title>
alcohol dehydrogenase</title>
			<polygon class="
alcohol dehydrogenase" points="198,25 204,25 204,10 234,40 204,70 204,55 198,55" fill="rgb(255,255,255)" fill-opacity="1.0" stroke="rgb(0,0,0)" stroke-width="2"  />
			<g>
				<title>ADH_zinc_N (PF00107)
"Zinc-binding dehydrogenase"</title>
				<polygon class="PF00107" points="218,28 218,28 229,39 229,41 218,52 218,52" stroke-linejoin="round" width="11" height="24" fill="rgb(79,114,198)" stroke="rgb(63,91,158)" stroke-width="1" opacity="0.75" />
			</g>
		</g>
		<g>
			<title>
antibiotic biosynthesis monooxygenase</title>
			<polygon class="
antibiotic biosynthesis monooxygenase" points="240,40 265,10 265,70" fill="rgb(255,255,255)" fill-opacity="1.0" stroke="rgb(0,0,0)" stroke-width="2"  />
		</g>
		<g>
			<title>
PadR family transcriptional regulator</title>
			<polygon class="
PadR family transcriptional regulator" points="308,25 302,25 302,10 272,40 302,70 302,55 308,55" fill="rgb(255,255,255)" fill-opacity="1.0" stroke="rgb(0,0,0)" stroke-width="2"  />
			<g>
				<title>PadR (PF03551)
"Transcriptional regulator PadR-like family"</title>
				<rect class="PF03551" x="300" y="28" stroke-linejoin="round" width="6" height="24" fill="rgb(101,169,228)" stroke="rgb(80,135,182)" stroke-width="1" opacity="0.75" />
			</g>
		</g>
		<g>
			<title>
hypothetical protein</title>
			<polygon class="
hypothetical protein" points="309,40 337,10 337,70" fill="rgb(255,255,255)" fill-opacity="1.0" stroke="rgb(0,0,0)" stroke-width="2"  />
			<g>
				<title>DUF4097 (PF13349)
"Putative adhesin"</title>
				<polygon class="PF13349" points="313,40 324,28 332,28 332,52 324,52" stroke-linejoin="round" width="21" height="24" fill="rgb(205,228,84)" stroke="rgb(163,182,67)" stroke-width="1" opacity="0.75" />
			</g>
		</g>
		<g>
			<title>echA
EchA</title>
			<polygon class="echA
EchA" points="350,25 416,25 416,10 446,40 416,70 416,55 350,55" fill="rgb(255,255,255)" fill-opacity="1.0" stroke="rgb(0,0,0)" stroke-width="2"  />
			<g>
				<title>AMP-binding (PF00501)
"AMP-binding enzyme"</title>
				<rect class="PF00501" x="354" y="28" stroke-linejoin="round" width="38" height="24" fill="rgb(189,78,204)" stroke="rgb(151,62,163)" stroke-width="1" opacity="0.75" />
			</g>
			<g>
				<title>PP-binding (PF00550)
"Phosphopantetheine attachment site"</title>
				<rect class="PF00550" x="410" y="28" stroke-linejoin="round" width="6" height="24" fill="rgb(181,58,166)" stroke="rgb(144,46,132)" stroke-width="1" opacity="0.75" />
			</g>
			<g>
				<title>Thioesterase (PF00975)
"Thioesterase domain"</title>
				<polygon class="PF00975" points="419,28 430,28 442,40 430,52 419,52" stroke-linejoin="round" width="25" height="24" fill="rgb(69,76,223)" stroke="rgb(55,60,178)" stroke-width="1" opacity="0.75" />
			</g>
		</g>
		<g>
			<title>echB
EchB</title>
			<polygon class="echB
EchB" points="450,25 450,25 450,10 480,40 450,70 450,55 450,55" fill="rgb(255,255,255)" fill-opacity="1.0" stroke="rgb(0,0,0)" stroke-width="2"  />
			<g>
				<title>Epimerase (PF01370)
"NAD dependent epimerase/dehydratase family"</title>
				<polygon class="PF01370" points="450,28 464,28 473,37 473,43 464,52 450,52" stroke-linejoin="round" width="23" height="24" fill="rgb(215,89,157)" stroke="rgb(172,71,125)" stroke-width="1" opacity="0.75" />
			</g>
		</g>
		<g>
			<title>echC
EchC</title>
			<polygon class="echC
EchC" points="482,10 495,40 482,70" fill="rgb(255,255,255)" fill-opacity="1.0" stroke="rgb(0,0,0)" stroke-width="2"  />
			<g>
				<title>SnoaL_2 (PF12680)
"SnoaL-like domain"</title>
				<polygon class="PF12680" points="483,28 486,28 492,40 486,52 483,52" stroke-linejoin="round" width="10" height="24" fill="rgb(180,149,73)" stroke="rgb(144,119,58)" stroke-width="1" opacity="0.75" />
			</g>
		</g>
		<g>
			<title>
nitroreductase</title>
			<polygon class="
nitroreductase" points="498,40 518,10 518,70" fill="rgb(255,255,255)" fill-opacity="1.0" stroke="rgb(0,0,0)" stroke-width="2"  />
			<g>
				<title>Nitroreductase (PF00881)
"Nitroreductase family"</title>
				<polygon class="PF00881" points="502,40 510,28 515,28 515,52 510,52" stroke-linejoin="round" width="15" height="24" fill="rgb(106,62,184)" stroke="rgb(84,49,147)" stroke-width="1" opacity="0.75" />
			</g>
		</g>
		<g>
			<title>
TetR family transcriptional regulator</title>
			<polygon class="
TetR family transcriptional regulator" points="523,10 545,40 523,70" fill="rgb(255,255,255)" fill-opacity="1.0" stroke="rgb(0,0,0)" stroke-width="2"  />
			<g>
				<title>TetR_N (PF00440)
"Bacterial regulatory proteins, tetR family"</title>
				<rect class="PF00440" x="525" y="28" stroke-linejoin="round" width="4" height="24" fill="rgb(148,50,185)" stroke="rgb(118,40,148)" stroke-width="1" opacity="0.75" />
			</g>
			<g>
				<title>TetR_C_7 (PF14246)
"AefR-like transcriptional repressor, C-terminal domain"</title>
				<polygon class="PF14246" points="534,30 542,40 534,50" stroke-linejoin="round" width="11" height="24" fill="rgb(205,192,93)" stroke="rgb(164,153,74)" stroke-width="1" opacity="0.75" />
			</g>
		</g>
		<g>
			<title>
SARP family transcriptional regulator</title>
			<polygon class="
SARP family transcriptional regulator" points="547,10 574,40 547,70" fill="rgb(255,255,255)" fill-opacity="1.0" stroke="rgb(0,0,0)" stroke-width="2"  />
			<g>
				<title>Trans_reg_C (PF00486)
"Transcriptional regulatory protein, C terminal"</title>
				<rect class="PF00486" x="548" y="28" stroke-linejoin="round" width="9" height="24" fill="rgb(69,185,116)" stroke="rgb(55,148,92)" stroke-width="1" opacity="0.75" />
			</g>
			<g>
				<title>BTAD (PF03704)
"Bacterial transcriptional activator domain"</title>
				<polygon class="PF03704" points="557,28 558,28 570,40 558,52 557,52" stroke-linejoin="round" width="14" height="24" fill="rgb(174,224,58)" stroke="rgb(139,179,46)" stroke-width="1" opacity="0.75" />
			</g>
		</g>
		<g>
			<title>
short-chain dehydrogenase/reductase SDR</title>
			<polygon class="
short-chain dehydrogenase/reductase SDR" points="588,10 612,40 588,70" fill="rgb(255,255,255)" fill-opacity="1.0" stroke="rgb(0,0,0)" stroke-width="2"  />
			<g>
				<title>adh_short_C2 (PF13561)
"Enoyl-(Acyl carrier protein) reductase"</title>
				<polygon class="PF13561" points="588,28 599,28 608,40 599,52 588,52" stroke-linejoin="round" width="23" height="24" fill="rgb(79,221,209)" stroke="rgb(63,176,167)" stroke-width="1" opacity="0.75" />
			</g>
		</g>
		<g>
			<title>
MerR family transcriptional regulator</title>
			<polygon class="
MerR family transcriptional regulator" points="615,10 627,40 615,70" fill="rgb(255,255,255)" fill-opacity="1.0" stroke="rgb(0,0,0)" stroke-width="2"  />
			<g>
				<title>MerR_1 (PF13411)
"MerR HTH family regulatory protein"</title>
				<polygon class="PF13411" points="615,28 619,28 621,32 621,48 619,52 615,52" stroke-linejoin="round" width="6" height="24" fill="rgb(186,92,57)" stroke="rgb(148,73,45)" stroke-width="1" opacity="0.75" />
			</g>
		</g>
	</g>
</svg>
