<svg version="1.1" baseProfile="full" xmlns="http://www.w3.org/2000/svg" width="580.8" height="160">
	<g>
		<line x1="10" y1="40.0" x2="529.7" y2="40.0" style="stroke:rgb(70,70,70); stroke-width:3 "/>
		<g>
			<title> (AFLA_101690)
alcohol dehydrogenase, putative</title>
			<polygon class=" (AFLA_101690)
alcohol dehydrogenase, putative" points="63,25 56,25 56,10 26,40 56,70 56,55 63,55" fill="rgb(255,255,255)" fill-opacity="1.0" stroke="rgb(0,0,0)" stroke-width="2"  />
			<g>
				<title>ADH_zinc_N (PF00107)
"Zinc-binding dehydrogenase"</title>
				<polygon class="PF00107" points="30,40 42,28 44,28 44,52 42,52 30,40" stroke-linejoin="round" width="14" height="24" fill="rgb(79,114,198)" stroke="rgb(63,91,158)" stroke-width="1" opacity="0.75" />
			</g>
			<g>
				<title>ADH_N_2 (PF16884)
"N-terminal domain of oxidoreductase"</title>
				<rect class="PF16884" x="50" y="28" stroke-linejoin="round" width="9" height="24" fill="rgb(225,66,194)" stroke="rgb(180,52,155)" stroke-width="1" opacity="0.75" />
			</g>
		</g>
		<g>
			<title> (AFLA_101700)
NRPS-like enzyme, putative</title>
			<polygon class=" (AFLA_101700)
NRPS-like enzyme, putative" points="213,25 139,25 139,10 109,40 139,70 139,55 213,55" fill="rgb(255,255,255)" fill-opacity="1.0" stroke="rgb(0,0,0)" stroke-width="2"  />
			<g>
				<title>NAD_binding_4 (PF07993)
"Male sterility protein"</title>
				<polygon class="PF07993" points="123,30 125,28 147,28 147,52 125,52 123,50" stroke-linejoin="round" width="24" height="24" fill="rgb(210,94,130)" stroke="rgb(168,75,103)" stroke-width="1" opacity="0.75" />
			</g>
			<g>
				<title>PP-binding (PF00550)
"Phosphopantetheine attachment site"</title>
				<rect class="PF00550" x="152" y="28" stroke-linejoin="round" width="6" height="24" fill="rgb(181,58,166)" stroke="rgb(144,46,132)" stroke-width="1" opacity="0.75" />
			</g>
			<g>
				<title>AMP-binding (PF00501)
"AMP-binding enzyme"</title>
				<rect class="PF00501" x="175" y="28" stroke-linejoin="round" width="34" height="24" fill="rgb(189,78,204)" stroke="rgb(151,62,163)" stroke-width="1" opacity="0.75" />
			</g>
		</g>
		<g>
			<title> (AFLA_101710)
NmrA-like family protein</title>
			<polygon class=" (AFLA_101710)
NmrA-like family protein" points="236,25 243,25 243,10 273,40 243,70 243,55 236,55" fill="rgb(255,255,255)" fill-opacity="1.0" stroke="rgb(0,0,0)" stroke-width="2"  />
			<g>
				<title>NmrA (PF05368)
"NmrA-like family"</title>
				<polygon class="PF05368" points="236,28 257,28 260,31 260,49 257,52 236,52" stroke-linejoin="round" width="24" height="24" fill="rgb(102,214,88)" stroke="rgb(81,171,70)" stroke-width="1" opacity="0.75" />
			</g>
		</g>
		<g>
			<title> (AFLA_101720)
cytochrome P450, putative</title>
			<polygon class=" (AFLA_101720)
cytochrome P450, putative" points="382,25 354,25 354,10 324,40 354,70 354,55 382,55" fill="rgb(255,255,255)" fill-opacity="1.0" stroke="rgb(0,0,0)" stroke-width="2"  />
			<g>
				<title>p450 (PF00067)
"Cytochrome P450"</title>
				<polygon class="PF00067" points="330,38 340,28 373,28 373,52 340,52 330,42" stroke-linejoin="round" width="43" height="24" fill="rgb(195,210,54)" stroke="rgb(155,168,43)" stroke-width="1" opacity="0.75" />
			</g>
		</g>
		<g>
			<title> (AFLA_101730)
ferulate-5-hydroxylase, putative</title>
			<polygon class=" (AFLA_101730)
ferulate-5-hydroxylase, putative" points="406,25 434,25 434,10 464,40 434,70 434,55 406,55" fill="rgb(255,255,255)" fill-opacity="1.0" stroke="rgb(0,0,0)" stroke-width="2"  />
			<g>
				<title>p450 (PF00067)
"Cytochrome P450"</title>
				<polygon class="PF00067" points="418,28 447,28 456,37 456,43 447,52 418,52" stroke-linejoin="round" width="38" height="24" fill="rgb(195,210,54)" stroke="rgb(155,168,43)" stroke-width="1" opacity="0.75" />
			</g>
		</g>
		<g>
			<title> (AFLA_101740)
glycerophosphoinositol/ glycerophosphocholine transporter, putative</title>
			<polygon class=" (AFLA_101740)
glycerophosphoinositol/ glycerophosphocholine transporter, putative" points="529,25 506,25 506,10 476,40 506,70 506,55 529,55" fill="rgb(255,255,255)" fill-opacity="1.0" stroke="rgb(0,0,0)" stroke-width="2"  />
			<g>
				<title>Sugar_tr (PF00083)
"Sugar (and other) transporter"</title>
				<polygon class="PF00083" points="481,39 492,28 502,28 502,52 492,52 481,41" stroke-linejoin="round" width="21" height="24" fill="rgb(186,204,56)" stroke="rgb(148,163,44)" stroke-width="1" opacity="0.75" />
			</g>
			<g>
				<title>Sugar_tr (PF00083)
"Sugar (and other) transporter"</title>
				<rect class="PF00083" x="501" y="28" stroke-linejoin="round" width="21" height="24" fill="rgb(186,204,56)" stroke="rgb(148,163,44)" stroke-width="1" opacity="0.75" />
			</g>
		</g>
	</g>
	<g>
		<line x1="10" y1="120.0" x2="570.8" y2="120.0" style="stroke:rgb(70,70,70); stroke-width:3 "/>
		<g>
			<title> (AFLA_121470)
hscarg dehydrogenase, putative</title>
			<polygon class=" (AFLA_121470)
hscarg dehydrogenase, putative" points="10,105 20,105 20,90 50,120 20,150 20,135 10,135" fill="rgb(255,255,255)" fill-opacity="1.0" stroke="rgb(0,0,0)" stroke-width="2"  />
		</g>
		<g>
			<title> (AFLA_121480)
phytanoyl-CoA dioxygenase family protein</title>
			<polygon class=" (AFLA_121480)
phytanoyl-CoA dioxygenase family protein" points="62,105 64,105 64,90 94,120 64,150 64,135 62,135" fill="rgb(255,255,255)" fill-opacity="1.0" stroke="rgb(0,0,0)" stroke-width="2"  />
		</g>
		<g>
			<title> (AFLA_121490)
NmrA-like family protein</title>
			<polygon class=" (AFLA_121490)
NmrA-like family protein" points="141,105 132,105 132,90 102,120 132,150 132,135 141,135" fill="rgb(255,255,255)" fill-opacity="1.0" stroke="rgb(0,0,0)" stroke-width="2"  />
		</g>
		<g>
			<title> (AFLA_121500)
cytochrome P450, putative</title>
			<polygon class=" (AFLA_121500)
cytochrome P450, putative" points="156,105 183,105 183,90 213,120 183,150 183,135 156,135" fill="rgb(255,255,255)" fill-opacity="1.0" stroke="rgb(0,0,0)" stroke-width="2"  />
		</g>
		<g>
			<title> (AFLA_121510)
hypothetical protein</title>
			<polygon class=" (AFLA_121510)
hypothetical protein" points="260,105 260,105 260,90 230,120 260,150 260,135 260,135" fill="rgb(255,255,255)" fill-opacity="1.0" stroke="rgb(0,0,0)" stroke-width="2"  />
		</g>
		<g>
			<title> (AFLA_121520)
NRPS-like enzyme, putative</title>
			<polygon class=" (AFLA_121520)
NRPS-like enzyme, putative" points="415,105 342,105 342,90 312,120 342,150 342,135 415,135" fill="rgb(255,255,255)" fill-opacity="1.0" stroke="rgb(0,0,0)" stroke-width="2"  />
		</g>
		<g>
			<title> (AFLA_121530)
NADH-dependent flavin oxidoreductase, putative</title>
			<polygon class=" (AFLA_121530)
NADH-dependent flavin oxidoreductase, putative" points="439,105 446,105 446,90 476,120 446,150 446,135 439,135" fill="rgb(255,255,255)" fill-opacity="1.0" stroke="rgb(0,0,0)" stroke-width="2"  />
		</g>
		<g>
			<title> (AFLA_121540)
MFS multidrug transporter, putative</title>
			<polygon class=" (AFLA_121540)
MFS multidrug transporter, putative" points="520,105 540,105 540,90 570,120 540,150 540,135 520,135" fill="rgb(255,255,255)" fill-opacity="1.0" stroke="rgb(0,0,0)" stroke-width="2"  />
		</g>
	</g>
</svg>
