<svg version="1.1" baseProfile="full" xmlns="http://www.w3.org/2000/svg" width="522.5333333333333" height="80">
	<g>
		<line x1="10" y1="40.0" x2="512.5333333333333" y2="40.0" style="stroke:rgb(70,70,70); stroke-width:3 "/>
		<g>
			<title>frbA
FrbA</title>
			<polygon class="frbA
FrbA" points="101,25 43,25 43,10 13,40 43,70 43,55 101,55" fill="rgb(255,255,255)" fill-opacity="1.0" stroke="rgb(0,0,0)" stroke-width="2"  />
			<g>
				<title>Aconitase_C (PF00694)
"Aconitase C-terminal domain"</title>
				<polygon class="PF00694" points="20,37 29,28 33,28 33,52 29,52 20,43" stroke-linejoin="round" width="13" height="24" fill="rgb(93,206,89)" stroke="rgb(74,164,71)" stroke-width="1" opacity="0.75" />
			</g>
			<g>
				<title>Aconitase (PF00330)
"Aconitase family (aconitate hydratase)"</title>
				<rect class="PF00330" x="46" y="28" stroke-linejoin="round" width="49" height="24" fill="rgb(59,203,146)" stroke="rgb(47,162,116)" stroke-width="1" opacity="0.75" />
			</g>
		</g>
		<g>
			<title>frbB
FrbB</title>
			<polygon class="frbB
FrbB" points="104,25 109,25 109,10 139,40 109,70 109,55 104,55" fill="rgb(255,255,255)" fill-opacity="1.0" stroke="rgb(0,0,0)" stroke-width="2"  />
			<g>
				<title>Iso_dh (PF00180)
"Isocitrate/isopropylmalate dehydrogenase"</title>
				<polygon class="PF00180" points="114,28 123,28 135,40 123,52 114,52" stroke-linejoin="round" width="23" height="24" fill="rgb(208,112,63)" stroke="rgb(166,89,50)" stroke-width="1" opacity="0.75" />
			</g>
		</g>
		<g>
			<title>frbC
FrbC</title>
			<polygon class="frbC
FrbC" points="177,25 170,25 170,10 140,40 170,70 170,55 177,55" fill="rgb(255,255,255)" fill-opacity="1.0" stroke="rgb(0,0,0)" stroke-width="2"  />
			<g>
				<title>HMGL-like (PF00682)
"HMGL-like"</title>
				<polygon class="PF00682" points="151,33 156,28 176,28 176,52 156,52 151,47" stroke-linejoin="round" width="25" height="24" fill="rgb(214,84,149)" stroke="rgb(171,67,119)" stroke-width="1" opacity="0.75" />
			</g>
		</g>
		<g>
			<title>frbD
FrbD</title>
			<polygon class="frbD
FrbD" points="185,10 212,40 185,70" fill="rgb(255,255,255)" fill-opacity="1.0" stroke="rgb(0,0,0)" stroke-width="2"  />
			<g>
				<title>PEP_mutase (PF13714)
"Phosphoenolpyruvate phosphomutase"</title>
				<polygon class="PF13714" points="185,28 197,28 208,40 197,52 185,52" stroke-linejoin="round" width="24" height="24" fill="rgb(75,181,147)" stroke="rgb(59,144,117)" stroke-width="1" opacity="0.75" />
			</g>
		</g>
		<g>
			<title>frbE
FrbE</title>
			<polygon class="frbE
FrbE" points="216,25 222,25 222,10 252,40 222,70 222,55 216,55" fill="rgb(255,255,255)" fill-opacity="1.0" stroke="rgb(0,0,0)" stroke-width="2"  />
			<g>
				<title>Iso_dh (PF00180)
"Isocitrate/isopropylmalate dehydrogenase"</title>
				<polygon class="PF00180" points="216,28 236,28 248,40 236,52 216,52" stroke-linejoin="round" width="35" height="24" fill="rgb(208,112,63)" stroke="rgb(166,89,50)" stroke-width="1" opacity="0.75" />
			</g>
		</g>
		<g>
			<title>frbF
FrbF</title>
			<polygon class="frbF
FrbF" points="252,10 280,40 252,70" fill="rgb(255,255,255)" fill-opacity="1.0" stroke="rgb(0,0,0)" stroke-width="2"  />
			<g>
				<title>Antibiotic_NAT (PF02522)
"Aminoglycoside 3-N-acetyltransferase"</title>
				<polygon class="PF02522" points="256,28 264,28 276,40 264,52 256,52" stroke-linejoin="round" width="23" height="24" fill="rgb(53,181,89)" stroke="rgb(42,144,71)" stroke-width="1" opacity="0.75" />
			</g>
		</g>
		<g>
			<title>frbG
FrbG</title>
			<polygon class="frbG
FrbG" points="281,25 294,25 294,10 324,40 294,70 294,55 281,55" fill="rgb(255,255,255)" fill-opacity="1.0" stroke="rgb(0,0,0)" stroke-width="2"  />
		</g>
		<g>
			<title>frbH
FrbH</title>
			<polygon class="frbH
FrbH" points="325,25 357,25 357,10 387,40 357,70 357,55 325,55" fill="rgb(255,255,255)" fill-opacity="1.0" stroke="rgb(0,0,0)" stroke-width="2"  />
			<g>
				<title>NTP_transf_3 (PF12804)
"MobA-like NTP transferase domain"</title>
				<rect class="PF12804" x="326" y="28" stroke-linejoin="round" width="20" height="24" fill="rgb(203,166,82)" stroke="rgb(162,132,65)" stroke-width="1" opacity="0.75" />
			</g>
			<g>
				<title>Aminotran_1_2 (PF00155)
"Aminotransferase class I and II"</title>
				<polygon class="PF00155" points="354,28 371,28 383,40 371,52 354,52" stroke-linejoin="round" width="31" height="24" fill="rgb(207,146,55)" stroke="rgb(165,116,43)" stroke-width="1" opacity="0.75" />
			</g>
		</g>
		<g>
			<title>frbI
FrbI</title>
			<polygon class="frbI
FrbI" points="388,10 408,40 388,70" fill="rgb(255,255,255)" fill-opacity="1.0" stroke="rgb(0,0,0)" stroke-width="2"  />
			<g>
				<title>NUDIX (PF00293)
"NUDIX domain"</title>
				<polygon class="PF00293" points="391,28 396,28 403,38 403,42 396,52 391,52" stroke-linejoin="round" width="12" height="24" fill="rgb(185,54,57)" stroke="rgb(148,43,45)" stroke-width="1" opacity="0.75" />
			</g>
		</g>
		<g>
			<title>frbJ
FrbJ</title>
			<polygon class="frbJ
FrbJ" points="408,25 412,25 412,10 442,40 412,70 412,55 408,55" fill="rgb(255,255,255)" fill-opacity="1.0" stroke="rgb(0,0,0)" stroke-width="2"  />
			<g>
				<title>TauD (PF02668)
"Taurine catabolism dioxygenase TauD, TfdA family"</title>
				<polygon class="PF02668" points="413,28 425,28 437,40 425,52 413,52" stroke-linejoin="round" width="26" height="24" fill="rgb(72,206,196)" stroke="rgb(57,164,156)" stroke-width="1" opacity="0.75" />
			</g>
		</g>
		<g>
			<title>dxrB
dxrB</title>
			<polygon class="dxrB
dxrB" points="446,25 457,25 457,10 487,40 457,70 457,55 446,55" fill="rgb(255,255,255)" fill-opacity="1.0" stroke="rgb(0,0,0)" stroke-width="2"  />
			<g>
				<title>DXP_reductoisom (PF02670)
"1-deoxy-D-xylulose 5-phosphate reductoisomerase"</title>
				<rect class="PF02670" x="448" y="28" stroke-linejoin="round" width="13" height="24" fill="rgb(145,50,182)" stroke="rgb(116,39,145)" stroke-width="1" opacity="0.75" />
			</g>
			<g>
				<title>DXP_redisom_C (PF08436)
"1-deoxy-D-xylulose 5-phosphate reductoisomerase C-terminal domain"</title>
				<rect class="PF08436" x="463" y="28" stroke-linejoin="round" width="8" height="24" fill="rgb(81,210,170)" stroke="rgb(64,168,135)" stroke-width="1" opacity="0.75" />
			</g>
			<g>
				<title>DXPR_C (PF13288)
"DXP reductoisomerase C-terminal domain"</title>
				<polygon class="PF13288" points="474,31 483,40 474,49" stroke-linejoin="round" width="11" height="24" fill="rgb(182,79,163)" stroke="rgb(145,63,130)" stroke-width="1" opacity="0.75" />
			</g>
		</g>
	</g>
</svg>
