<svg version="1.1" baseProfile="full" xmlns="http://www.w3.org/2000/svg" width="180.1" height="80">
	<g>
		<line x1="10" y1="40.0" x2="170.1" y2="40.0" style="stroke:rgb(70,70,70); stroke-width:3 "/>
		<g>
			<title>mcjA
microcin J25 precursor</title>
			<polygon class="mcjA
microcin J25 precursor" points="12,40 17,10 17,70" fill="rgb(255,255,255)" fill-opacity="1.0" stroke="rgb(0,0,0)" stroke-width="2"  />
		</g>
		<g>
			<title>mcjB
McjB</title>
			<polygon class="mcjB
McjB" points="29,10 49,40 29,70" fill="rgb(255,255,255)" fill-opacity="1.0" stroke="rgb(0,0,0)" stroke-width="2"  />
			<g>
				<title>Transglut_core3 (PF13471)
"Transglutaminase-like superfamily"</title>
				<polygon class="PF13471" points="38,28 38,28 46,40 38,52 38,52" stroke-linejoin="round" width="11" height="24" fill="rgb(88,181,169)" stroke="rgb(70,144,135)" stroke-width="1" opacity="0.75" />
			</g>
		</g>
		<g>
			<title>mcjC
McjC</title>
			<polygon class="mcjC
McjC" points="50,25 64,25 64,10 94,40 64,70 64,55 50,55" fill="rgb(255,255,255)" fill-opacity="1.0" stroke="rgb(0,0,0)" stroke-width="2"  />
			<g>
				<title>Asn_synthase (PF00733)
"Asparagine synthase"</title>
				<rect class="PF00733" x="68" y="28" stroke-linejoin="round" width="8" height="24" fill="rgb(200,91,135)" stroke="rgb(160,72,108)" stroke-width="1" opacity="0.75" />
			</g>
		</g>
		<g>
			<title>mcjD
McjD</title>
			<polygon class="mcjD
McjD" points="101,25 129,25 129,10 159,40 129,70 129,55 101,55" fill="rgb(255,255,255)" fill-opacity="1.0" stroke="rgb(0,0,0)" stroke-width="2"  />
			<g>
				<title>ABC_membrane (PF00664)
"ABC transporter transmembrane region"</title>
				<rect class="PF00664" x="103" y="28" stroke-linejoin="round" width="27" height="24" fill="rgb(62,71,183)" stroke="rgb(49,56,146)" stroke-width="1" opacity="0.75" />
			</g>
			<g>
				<title>ABC_tran (PF00005)
"ABC transporter"</title>
				<polygon class="PF00005" points="137,28 142,28 151,37 151,43 142,52 137,52" stroke-linejoin="round" width="14" height="24" fill="rgb(46,186,108)" stroke="rgb(36,148,86)" stroke-width="1" opacity="0.75" />
			</g>
		</g>
	</g>
</svg>
