<svg version="1.1" baseProfile="full" xmlns="http://www.w3.org/2000/svg" width="2343.3333333333335" height="80">
	<g>
		<line x1="10" y1="40.0" x2="2333.3333333333335" y2="40.0" style="stroke:rgb(70,70,70); stroke-width:3 "/>
		<g>
			<title>mfL3
transcription factor</title>
			<polygon class="mfL3
transcription factor" points="145,25 41,25 41,10 11,40 41,70 41,55 145,55" fill="rgb(255,255,255)" fill-opacity="1.0" stroke="rgb(0,0,0)" stroke-width="2"  />
			<g>
				<title>Fungal_trans (PF04082)
"Fungal specific transcription factor domain"</title>
				<rect class="PF04082" x="28" y="28" stroke-linejoin="round" width="28" height="24" fill="rgb(214,73,227)" stroke="rgb(171,58,181)" stroke-width="1" opacity="0.75" />
			</g>
			<g>
				<title>Zn_clus (PF00172)
"Fungal Zn(2)-Cys(6) binuclear cluster domain"</title>
				<rect class="PF00172" x="65" y="28" stroke-linejoin="round" width="3" height="24" fill="rgb(58,207,82)" stroke="rgb(46,165,65)" stroke-width="1" opacity="0.75" />
			</g>
		</g>
		<g>
			<title>mfL2
MFS transporter</title>
			<polygon class="mfL2
MFS transporter" points="179,25 210,25 210,10 240,40 210,70 210,55 179,55" fill="rgb(255,255,255)" fill-opacity="1.0" stroke="rgb(0,0,0)" stroke-width="2"  />
			<g>
				<title>MFS_1 (PF07690)
"Major Facilitator Superfamily"</title>
				<polygon class="PF07690" points="187,28 224,28 227,31 227,49 224,52 187,52" stroke-linejoin="round" width="40" height="24" fill="rgb(228,207,98)" stroke="rgb(182,165,78)" stroke-width="1" opacity="0.75" />
			</g>
		</g>
		<g>
			<title>mfL1
hypothetical protein</title>
			<polygon class="mfL1
hypothetical protein" points="300,25 407,25 407,10 437,40 407,70 407,55 300,55" fill="rgb(255,255,255)" fill-opacity="1.0" stroke="rgb(0,0,0)" stroke-width="2"  />
			<g>
				<title>Rax2_2 (PF20842)
"Rax2 second domain"</title>
				<rect class="PF20842" x="322" y="28" stroke-linejoin="round" width="15" height="24" fill="rgb(74,79,181)" stroke="rgb(59,63,144)" stroke-width="1" opacity="0.75" />
			</g>
			<g>
				<title>Rax2_3 (PF20843)
"Rax2 third domain"</title>
				<rect class="PF20843" x="338" y="28" stroke-linejoin="round" width="15" height="24" fill="rgb(116,213,53)" stroke="rgb(92,170,42)" stroke-width="1" opacity="0.75" />
			</g>
			<g>
				<title>Rax2 (PF12768)
"Rax2 C-terminal beta propeller domain"</title>
				<rect class="PF12768" x="390" y="28" stroke-linejoin="round" width="25" height="24" fill="rgb(77,190,190)" stroke="rgb(61,152,152)" stroke-width="1" opacity="0.75" />
			</g>
		</g>
		<g>
			<title>mfpks1
tetraketide synthase MF-SQTKS</title>
			<polygon class="mfpks1
tetraketide synthase MF-SQTKS" points="789,25 542,25 542,10 512,40 542,70 542,55 789,55" fill="rgb(255,255,255)" fill-opacity="1.0" stroke="rgb(0,0,0)" stroke-width="2"  />
			<g>
				<title>PP-binding (PF00550)
"Phosphopantetheine attachment site"</title>
				<rect class="PF00550" x="530" y="28" stroke-linejoin="round" width="6" height="24" fill="rgb(181,58,166)" stroke="rgb(144,46,132)" stroke-width="1" opacity="0.75" />
			</g>
			<g>
				<title>KR (PF08659)
"KR domain"</title>
				<rect class="PF08659" x="548" y="28" stroke-linejoin="round" width="17" height="24" fill="rgb(203,145,81)" stroke="rgb(162,116,64)" stroke-width="1" opacity="0.75" />
			</g>
			<g>
				<title>ADH_zinc_N_2 (PF13602)
"Zinc-binding dehydrogenase"</title>
				<rect class="PF13602" x="568" y="28" stroke-linejoin="round" width="13" height="24" fill="rgb(183,68,113)" stroke="rgb(146,54,90)" stroke-width="1" opacity="0.75" />
			</g>
			<g>
				<title>Methyltransf_12 (PF08242)
"Methyltransferase domain"</title>
				<rect class="PF08242" x="628" y="28" stroke-linejoin="round" width="10" height="24" fill="rgb(78,210,205)" stroke="rgb(62,168,164)" stroke-width="1" opacity="0.75" />
			</g>
			<g>
				<title>PS-DH (PF14765)
"Polyketide synthase dehydratase N-terminal domain"</title>
				<rect class="PF14765" x="657" y="28" stroke-linejoin="round" width="17" height="24" fill="rgb(189,61,178)" stroke="rgb(151,48,142)" stroke-width="1" opacity="0.75" />
			</g>
			<g>
				<title>PKS_DH_N (PF21089)
"Polyketide synthase dehydratase domain"</title>
				<rect class="PF21089" x="677" y="28" stroke-linejoin="round" width="11" height="24" fill="rgb(67,151,200)" stroke="rgb(53,120,160)" stroke-width="1" opacity="0.75" />
			</g>
			<g>
				<title>Acyl_transf_1 (PF00698)
"Acyl transferase domain"</title>
				<rect class="PF00698" x="696" y="28" stroke-linejoin="round" width="31" height="24" fill="rgb(132,93,193)" stroke="rgb(105,74,154)" stroke-width="1" opacity="0.75" />
			</g>
			<g>
				<title>Ketoacyl-synt_C (PF02801)
"Beta-ketoacyl synthase, C-terminal domain"</title>
				<rect class="PF02801" x="748" y="28" stroke-linejoin="round" width="11" height="24" fill="rgb(212,79,72)" stroke="rgb(169,63,57)" stroke-width="1" opacity="0.75" />
			</g>
			<g>
				<title>ketoacyl-synt (PF00109)
"Beta-ketoacyl synthase, N-terminal domain"</title>
				<rect class="PF00109" x="761" y="28" stroke-linejoin="round" width="25" height="24" fill="rgb(74,179,82)" stroke="rgb(59,143,65)" stroke-width="1" opacity="0.75" />
			</g>
		</g>
		<g>
			<title>mfM1
copper dependent oxygenase</title>
			<polygon class="mfM1
copper dependent oxygenase" points="806,25 816,25 816,10 846,40 816,70 816,55 806,55" fill="rgb(255,255,255)" fill-opacity="1.0" stroke="rgb(0,0,0)" stroke-width="2"  />
		</g>
		<g>
			<title>mfM2
MFS transporter</title>
			<polygon class="mfM2
MFS transporter" points="874,25 903,25 903,10 933,40 903,70 903,55 874,55" fill="rgb(255,255,255)" fill-opacity="1.0" stroke="rgb(0,0,0)" stroke-width="2"  />
			<g>
				<title>MFS_1 (PF07690)
"Major Facilitator Superfamily"</title>
				<rect class="PF07690" x="876" y="28" stroke-linejoin="round" width="40" height="24" fill="rgb(228,207,98)" stroke="rgb(182,165,78)" stroke-width="1" opacity="0.75" />
			</g>
		</g>
		<g>
			<title>mfM3
NADP dependent dehydrogenase</title>
			<polygon class="mfM3
NADP dependent dehydrogenase" points="986,25 981,25 981,10 951,40 981,70 981,55 986,55" fill="rgb(255,255,255)" fill-opacity="1.0" stroke="rgb(0,0,0)" stroke-width="2"  />
			<g>
				<title>adh_short (PF00106)
"short chain dehydrogenase"</title>
				<polygon class="PF00106" points="961,34 967,28 982,28 982,52 967,52 961,46" stroke-linejoin="round" width="21" height="24" fill="rgb(128,81,196)" stroke="rgb(102,64,156)" stroke-width="1" opacity="0.75" />
			</g>
		</g>
		<g>
			<title>mfM4
acyltransferase AT1</title>
			<polygon class="mfM4
acyltransferase AT1" points="1014,25 1033,25 1033,10 1063,40 1033,70 1033,55 1014,55" fill="rgb(255,255,255)" fill-opacity="1.0" stroke="rgb(0,0,0)" stroke-width="2"  />
			<g>
				<title>Transferase (PF02458)
"Transferase family"</title>
				<polygon class="PF02458" points="1014,28 1047,28 1059,40 1047,52 1014,52" stroke-linejoin="round" width="47" height="24" fill="rgb(183,146,88)" stroke="rgb(146,116,70)" stroke-width="1" opacity="0.75" />
			</g>
		</g>
		<g>
			<title>mfM5
mfM5 protein</title>
			<polygon class="mfM5
mfM5 protein" points="1158,40 1170,10 1170,70" fill="rgb(255,255,255)" fill-opacity="1.0" stroke="rgb(0,0,0)" stroke-width="2"  />
		</g>
		<g>
			<title>mfM6
MFS transporter</title>
			<polygon class="mfM6
MFS transporter" points="1248,25 1282,25 1282,10 1312,40 1282,70 1282,55 1248,55" fill="rgb(255,255,255)" fill-opacity="1.0" stroke="rgb(0,0,0)" stroke-width="2"  />
			<g>
				<title>MFS_1 (PF07690)
"Major Facilitator Superfamily"</title>
				<polygon class="PF07690" points="1256,28 1295,28 1296,29 1296,51 1295,52 1256,52" stroke-linejoin="round" width="40" height="24" fill="rgb(228,207,98)" stroke="rgb(182,165,78)" stroke-width="1" opacity="0.75" />
			</g>
		</g>
		<g>
			<title>mfM7
phenylalanine ammonia-lyase</title>
			<polygon class="mfM7
phenylalanine ammonia-lyase" points="1345,25 1391,25 1391,10 1421,40 1391,70 1391,55 1345,55" fill="rgb(255,255,255)" fill-opacity="1.0" stroke="rgb(0,0,0)" stroke-width="2"  />
			<g>
				<title>Lyase_aromatic (PF00221)
"Aromatic amino acid lyase"</title>
				<rect class="PF00221" x="1348" y="28" stroke-linejoin="round" width="50" height="24" fill="rgb(198,213,89)" stroke="rgb(158,170,71)" stroke-width="1" opacity="0.75" />
			</g>
		</g>
		<g>
			<title>mfM8
esterase/lipase</title>
			<polygon class="mfM8
esterase/lipase" points="1462,25 1457,25 1457,10 1427,40 1457,70 1457,55 1462,55" fill="rgb(255,255,255)" fill-opacity="1.0" stroke="rgb(0,0,0)" stroke-width="2"  />
			<g>
				<title>Abhydrolase_3 (PF07859)
"alpha/beta hydrolase fold"</title>
				<polygon class="PF07859" points="1435,36 1443,28 1457,28 1457,52 1443,52 1435,44" stroke-linejoin="round" width="22" height="24" fill="rgb(216,68,121)" stroke="rgb(172,54,96)" stroke-width="1" opacity="0.75" />
			</g>
		</g>
		<g>
			<title>mfM9
acyl-CoA synthetase/ligase</title>
			<polygon class="mfM9
acyl-CoA synthetase/ligase" points="1535,25 1508,25 1508,10 1478,40 1508,70 1508,55 1535,55" fill="rgb(255,255,255)" fill-opacity="1.0" stroke="rgb(0,0,0)" stroke-width="2"  />
			<g>
				<title>AMP-binding_C (PF13193)
"AMP-binding enzyme C-terminal domain"</title>
				<polygon class="PF13193" points="1484,38 1491,31 1491,49 1484,42" stroke-linejoin="round" width="7" height="24" fill="rgb(195,82,106)" stroke="rgb(156,65,84)" stroke-width="1" opacity="0.75" />
			</g>
			<g>
				<title>AMP-binding (PF00501)
"AMP-binding enzyme"</title>
				<rect class="PF00501" x="1496" y="28" stroke-linejoin="round" width="37" height="24" fill="rgb(189,78,204)" stroke="rgb(151,62,163)" stroke-width="1" opacity="0.75" />
			</g>
		</g>
		<g>
			<title>mfM10
hydrolase</title>
			<polygon class="mfM10
hydrolase" points="1549,25 1584,25 1584,10 1614,40 1584,70 1584,55 1549,55" fill="rgb(255,255,255)" fill-opacity="1.0" stroke="rgb(0,0,0)" stroke-width="2"  />
			<g>
				<title>Beta-lactamase (PF00144)
"Beta-lactamase"</title>
				<rect class="PF00144" x="1555" y="28" stroke-linejoin="round" width="34" height="24" fill="rgb(211,218,66)" stroke="rgb(168,174,52)" stroke-width="1" opacity="0.75" />
			</g>
		</g>
		<g>
			<title>mfpks2
hexaketide synthase MF-SQHKS</title>
			<polygon class="mfpks2
hexaketide synthase MF-SQHKS" points="1636,25 1878,25 1878,10 1908,40 1878,70 1878,55 1636,55" fill="rgb(255,255,255)" fill-opacity="1.0" stroke="rgb(0,0,0)" stroke-width="2"  />
			<g>
				<title>ketoacyl-synt (PF00109)
"Beta-ketoacyl synthase, N-terminal domain"</title>
				<rect class="PF00109" x="1644" y="28" stroke-linejoin="round" width="24" height="24" fill="rgb(74,179,82)" stroke="rgb(59,143,65)" stroke-width="1" opacity="0.75" />
			</g>
			<g>
				<title>Ketoacyl-synt_C (PF02801)
"Beta-ketoacyl synthase, C-terminal domain"</title>
				<rect class="PF02801" x="1669" y="28" stroke-linejoin="round" width="11" height="24" fill="rgb(212,79,72)" stroke="rgb(169,63,57)" stroke-width="1" opacity="0.75" />
			</g>
			<g>
				<title>KAsynt_C_assoc (PF16197)
"Ketoacyl-synthetase C-terminal extension"</title>
				<rect class="PF16197" x="1681" y="28" stroke-linejoin="round" width="12" height="24" fill="rgb(200,86,70)" stroke="rgb(160,68,56)" stroke-width="1" opacity="0.75" />
			</g>
			<g>
				<title>Acyl_transf_1 (PF00698)
"Acyl transferase domain"</title>
				<rect class="PF00698" x="1696" y="28" stroke-linejoin="round" width="32" height="24" fill="rgb(132,93,193)" stroke="rgb(105,74,154)" stroke-width="1" opacity="0.75" />
			</g>
			<g>
				<title>PKS_DH_N (PF21089)
"Polyketide synthase dehydratase domain"</title>
				<rect class="PF21089" x="1733" y="28" stroke-linejoin="round" width="10" height="24" fill="rgb(67,151,200)" stroke="rgb(53,120,160)" stroke-width="1" opacity="0.75" />
			</g>
			<g>
				<title>PS-DH (PF14765)
"Polyketide synthase dehydratase N-terminal domain"</title>
				<rect class="PF14765" x="1746" y="28" stroke-linejoin="round" width="15" height="24" fill="rgb(189,61,178)" stroke="rgb(151,48,142)" stroke-width="1" opacity="0.75" />
			</g>
			<g>
				<title>Methyltransf_12 (PF08242)
"Methyltransferase domain"</title>
				<rect class="PF08242" x="1779" y="28" stroke-linejoin="round" width="10" height="24" fill="rgb(78,210,205)" stroke="rgb(62,168,164)" stroke-width="1" opacity="0.75" />
			</g>
			<g>
				<title>ADH_N (PF08240)
"Alcohol dehydrogenase GroES-like domain"</title>
				<rect class="PF08240" x="1820" y="28" stroke-linejoin="round" width="7" height="24" fill="rgb(217,198,105)" stroke="rgb(173,158,84)" stroke-width="1" opacity="0.75" />
			</g>
			<g>
				<title>ADH_zinc_N_2 (PF13602)
"Zinc-binding dehydrogenase"</title>
				<rect class="PF13602" x="1836" y="28" stroke-linejoin="round" width="13" height="24" fill="rgb(183,68,113)" stroke="rgb(146,54,90)" stroke-width="1" opacity="0.75" />
			</g>
			<g>
				<title>KR (PF08659)
"KR domain"</title>
				<rect class="PF08659" x="1853" y="28" stroke-linejoin="round" width="17" height="24" fill="rgb(203,145,81)" stroke="rgb(162,116,64)" stroke-width="1" opacity="0.75" />
			</g>
		</g>
		<g>
			<title>mfR1
putative non-heme iron dependent</title>
			<polygon class="mfR1
putative non-heme iron dependent" points="1966,25 1959,25 1959,10 1929,40 1959,70 1959,55 1966,55" fill="rgb(255,255,255)" fill-opacity="1.0" stroke="rgb(0,0,0)" stroke-width="2"  />
		</g>
		<g>
			<title>mfR2
putative non-heme iron dependent</title>
			<polygon class="mfR2
putative non-heme iron dependent" points="1980,10 2009,40 1980,70" fill="rgb(255,255,255)" fill-opacity="1.0" stroke="rgb(0,0,0)" stroke-width="2"  />
		</g>
		<g>
			<title>mfR3
citrate synthase</title>
			<polygon class="mfR3
citrate synthase" points="2072,25 2049,25 2049,10 2019,40 2049,70 2049,55 2072,55" fill="rgb(255,255,255)" fill-opacity="1.0" stroke="rgb(0,0,0)" stroke-width="2"  />
			<g>
				<title>Citrate_synt (PF00285)
"Citrate synthase, C-terminal domain"</title>
				<polygon class="PF00285" points="2026,37 2035,28 2062,28 2062,52 2035,52 2026,43" stroke-linejoin="round" width="36" height="24" fill="rgb(222,104,189)" stroke="rgb(177,83,151)" stroke-width="1" opacity="0.75" />
			</g>
		</g>
		<g>
			<title>mfR4
acyltransferase-3 superfamily AT2</title>
			<polygon class="mfR4
acyltransferase-3 superfamily AT2" points="2093,25 2109,25 2109,10 2139,40 2109,70 2109,55 2093,55" fill="rgb(255,255,255)" fill-opacity="1.0" stroke="rgb(0,0,0)" stroke-width="2"  />
			<g>
				<title>Acyl_transf_3 (PF01757)
"Acyltransferase family"</title>
				<polygon class="PF01757" points="2094,28 2123,28 2135,40 2123,52 2094,52" stroke-linejoin="round" width="43" height="24" fill="rgb(131,179,78)" stroke="rgb(104,143,62)" stroke-width="1" opacity="0.75" />
			</g>
		</g>
		<g>
			<title>mfR5
MFS transporter</title>
			<polygon class="mfR5
MFS transporter" points="2209,25 2181,25 2181,10 2151,40 2181,70 2181,55 2209,55" fill="rgb(255,255,255)" fill-opacity="1.0" stroke="rgb(0,0,0)" stroke-width="2"  />
			<g>
				<title>MFS_1 (PF07690)
"Major Facilitator Superfamily"</title>
				<polygon class="PF07690" points="2163,32 2167,28 2202,28 2202,52 2167,52 2163,48" stroke-linejoin="round" width="39" height="24" fill="rgb(228,207,98)" stroke="rgb(182,165,78)" stroke-width="1" opacity="0.75" />
			</g>
		</g>
		<g>
			<title>mfR6
squalene synthase</title>
			<polygon class="mfR6
squalene synthase" points="2224,25 2237,25 2237,10 2267,40 2237,70 2237,55 2224,55" fill="rgb(255,255,255)" fill-opacity="1.0" stroke="rgb(0,0,0)" stroke-width="2"  />
			<g>
				<title>SQS_PSY (PF00494)
"Squalene/phytoene synthase"</title>
				<polygon class="PF00494" points="2228,28 2251,28 2256,33 2256,47 2251,52 2228,52" stroke-linejoin="round" width="28" height="24" fill="rgb(149,199,81)" stroke="rgb(119,159,64)" stroke-width="1" opacity="0.75" />
			</g>
		</g>
		<g>
			<title>mfR7
ab hydrolase</title>
			<polygon class="mfR7
ab hydrolase" points="2295,25 2298,25 2298,10 2328,40 2298,70 2298,55 2295,55" fill="rgb(255,255,255)" fill-opacity="1.0" stroke="rgb(0,0,0)" stroke-width="2"  />
			<g>
				<title>Abhydrolase_6 (PF12697)
"Alpha/beta hydrolase family"</title>
				<polygon class="PF12697" points="2295,28 2312,28 2318,34 2318,46 2312,52 2295,52" stroke-linejoin="round" width="23" height="24" fill="rgb(87,73,196)" stroke="rgb(69,58,156)" stroke-width="1" opacity="0.75" />
			</g>
		</g>
	</g>
</svg>
