<svg version="1.1" baseProfile="full" xmlns="http://www.w3.org/2000/svg" width="1273.5333333333333" height="80">
	<g>
		<line x1="10" y1="40.0" x2="1263.5333333333333" y2="40.0" style="stroke:rgb(70,70,70); stroke-width:3 "/>
		<g>
			<title>
alr5035-like protein</title>
			<polygon class="
alr5035-like protein" points="10,25 24,25 24,10 54,40 24,70 24,55 10,55" fill="rgb(255,255,255)" fill-opacity="1.0" stroke="rgb(0,0,0)" stroke-width="2"  />
			<g>
				<title>DUF58 (PF01882)
"Protein of unknown function DUF58"</title>
				<rect class="PF01882" x="29" y="28" stroke-linejoin="round" width="8" height="24" fill="rgb(57,224,115)" stroke="rgb(45,179,91)" stroke-width="1" opacity="0.75" />
			</g>
		</g>
		<g>
			<title>sxtD
sterole desaturase</title>
			<polygon class="sxtD
sterole desaturase" points="64,10 89,40 64,70" fill="rgb(255,255,255)" fill-opacity="1.0" stroke="rgb(0,0,0)" stroke-width="2"  />
			<g>
				<title>FA_hydroxylase (PF04116)
"Fatty acid hydroxylase"</title>
				<polygon class="PF04116" points="73,28 75,28 85,40 75,52 73,52" stroke-linejoin="round" width="13" height="24" fill="rgb(54,190,140)" stroke="rgb(43,152,112)" stroke-width="1" opacity="0.75" />
			</g>
		</g>
		<g>
			<title>
InsB-like protein</title>
			<polygon class="
InsB-like protein" points="97,40 110,10 110,70" fill="rgb(255,255,255)" fill-opacity="1.0" stroke="rgb(0,0,0)" stroke-width="2"  />
			<g>
				<title>DDE_Tnp_IS1 (PF03400)
"IS1 transposase"</title>
				<polygon class="PF03400" points="100,40 105,28 109,28 109,52 105,52" stroke-linejoin="round" width="12" height="24" fill="rgb(196,113,63)" stroke="rgb(156,90,50)" stroke-width="1" opacity="0.75" />
			</g>
		</g>
		<g>
			<title>
InsA-like protein</title>
			<polygon class="
InsA-like protein" points="108,40 120,10 120,70" fill="rgb(255,255,255)" fill-opacity="1.0" stroke="rgb(0,0,0)" stroke-width="2"  />
		</g>
		<g>
			<title>sxtC
SxtC</title>
			<polygon class="sxtC
SxtC" points="131,40 142,10 142,70" fill="rgb(255,255,255)" fill-opacity="1.0" stroke="rgb(0,0,0)" stroke-width="2"  />
		</g>
		<g>
			<title>sxtB
cytidine deaminase</title>
			<polygon class="sxtB
cytidine deaminase" points="175,25 174,25 174,10 144,40 174,70 174,55 175,55" fill="rgb(255,255,255)" fill-opacity="1.0" stroke="rgb(0,0,0)" stroke-width="2"  />
			<g>
				<title>dCMP_cyt_deam_2 (PF08211)
"Cytidine and deoxycytidylate deaminase zinc-binding region"</title>
				<polygon class="PF08211" points="148,40 158,30 158,50" stroke-linejoin="round" width="12" height="24" fill="rgb(53,103,192)" stroke="rgb(42,82,153)" stroke-width="1" opacity="0.75" />
			</g>
			<g>
				<title>dCMP_cyt_deam_1 (PF00383)
"Cytidine and deoxycytidylate deaminase zinc-binding region"</title>
				<polygon class="PF00383" points="160,28 160,28 170,28 170,52 160,52 160,52" stroke-linejoin="round" width="10" height="24" fill="rgb(181,147,83)" stroke="rgb(144,117,66)" stroke-width="1" opacity="0.75" />
			</g>
		</g>
		<g>
			<title>sxtA
polyketide synthase-related protein</title>
			<polygon class="sxtA
polyketide synthase-related protein" points="302,25 208,25 208,10 178,40 208,70 208,55 302,55" fill="rgb(255,255,255)" fill-opacity="1.0" stroke="rgb(0,0,0)" stroke-width="2"  />
			<g>
				<title>Aminotran_1_2 (PF00155)
"Aminotransferase class I and II"</title>
				<polygon class="PF00155" points="182,40 194,28 215,28 215,52 194,52" stroke-linejoin="round" width="35" height="24" fill="rgb(207,146,55)" stroke="rgb(165,116,43)" stroke-width="1" opacity="0.75" />
			</g>
			<g>
				<title>PP-binding (PF00550)
"Phosphopantetheine attachment site"</title>
				<rect class="PF00550" x="221" y="28" stroke-linejoin="round" width="6" height="24" fill="rgb(181,58,166)" stroke="rgb(144,46,132)" stroke-width="1" opacity="0.75" />
			</g>
		</g>
		<g>
			<title>sxtE
SxtE</title>
			<polygon class="sxtE
SxtE" points="314,10 326,40 314,70" fill="rgb(255,255,255)" fill-opacity="1.0" stroke="rgb(0,0,0)" stroke-width="2"  />
			<g>
				<title>DUF5992 (PF19454)
"Family of unknown function (DUF5992)"</title>
				<polygon class="PF19454" points="315,28 318,28 323,40 318,52 315,52" stroke-linejoin="round" width="10" height="24" fill="rgb(228,128,107)" stroke="rgb(182,102,85)" stroke-width="1" opacity="0.75" />
			</g>
		</g>
		<g>
			<title>sxtF
sodium-driven multidrug and toxic compound extrusion protein</title>
			<polygon class="sxtF
sodium-driven multidrug and toxic compound extrusion protein" points="332,25 349,25 349,10 379,40 349,70 349,55 332,55" fill="rgb(255,255,255)" fill-opacity="1.0" stroke="rgb(0,0,0)" stroke-width="2"  />
			<g>
				<title>MatE (PF01554)
"MatE"</title>
				<rect class="PF01554" x="334" y="28" stroke-linejoin="round" width="15" height="24" fill="rgb(223,98,132)" stroke="rgb(178,78,105)" stroke-width="1" opacity="0.75" />
			</g>
			<g>
				<title>MatE (PF01554)
"MatE"</title>
				<polygon class="PF01554" points="357,28 362,28 373,39 373,41 362,52 357,52" stroke-linejoin="round" width="16" height="24" fill="rgb(223,98,132)" stroke="rgb(178,78,105)" stroke-width="1" opacity="0.75" />
			</g>
		</g>
		<g>
			<title>sxtG
amidinotransferase</title>
			<polygon class="sxtG
amidinotransferase" points="380,25 387,25 387,10 417,40 387,70 387,55 380,55" fill="rgb(255,255,255)" fill-opacity="1.0" stroke="rgb(0,0,0)" stroke-width="2"  />
		</g>
		<g>
			<title>sxtH
phenylpropionate dioxygenase</title>
			<polygon class="sxtH
phenylpropionate dioxygenase" points="420,25 423,25 423,10 453,40 423,70 423,55 420,55" fill="rgb(255,255,255)" fill-opacity="1.0" stroke="rgb(0,0,0)" stroke-width="2"  />
			<g>
				<title>Rieske (PF00355)
"Rieske [2Fe-2S] domain"</title>
				<rect class="PF00355" x="421" y="28" stroke-linejoin="round" width="9" height="24" fill="rgb(60,75,194)" stroke="rgb(48,60,155)" stroke-width="1" opacity="0.75" />
			</g>
			<g>
				<title>VanA_C (PF19112)
"Vanillate O-demethylase oxygenase C-terminal domain"</title>
				<polygon class="PF19112" points="434,28 437,28 449,40 437,52 434,52" stroke-linejoin="round" width="18" height="24" fill="rgb(82,202,147)" stroke="rgb(65,161,117)" stroke-width="1" opacity="0.75" />
			</g>
		</g>
		<g>
			<title>sxtI
NodU/CmcH-related carbamoyltransferase</title>
			<polygon class="sxtI
NodU/CmcH-related carbamoyltransferase" points="459,25 490,25 490,10 520,40 490,70 490,55 459,55" fill="rgb(255,255,255)" fill-opacity="1.0" stroke="rgb(0,0,0)" stroke-width="2"  />
			<g>
				<title>Carbam_trans_N (PF02543)
"Carbamoyltransferase N-terminus"</title>
				<rect class="PF02543" x="459" y="28" stroke-linejoin="round" width="34" height="24" fill="rgb(97,95,191)" stroke="rgb(77,76,152)" stroke-width="1" opacity="0.75" />
			</g>
			<g>
				<title>Carbam_trans_C (PF16861)
"Carbamoyltransferase C-terminus"</title>
				<polygon class="PF16861" points="499,28 504,28 516,40 504,52 499,52" stroke-linejoin="round" width="18" height="24" fill="rgb(158,73,206)" stroke="rgb(126,58,164)" stroke-width="1" opacity="0.75" />
			</g>
		</g>
		<g>
			<title>sxtJ
SxtJ</title>
			<polygon class="sxtJ
SxtJ" points="520,10 534,40 520,70" fill="rgb(255,255,255)" fill-opacity="1.0" stroke="rgb(0,0,0)" stroke-width="2"  />
			<g>
				<title>SxtJ (PF19588)
"Saxitoxin biosynthesis operon protein SxtJ"</title>
				<polygon class="PF19588" points="522,28 525,28 531,40 531,40 525,52 522,52" stroke-linejoin="round" width="9" height="24" fill="rgb(103,220,101)" stroke="rgb(82,176,80)" stroke-width="1" opacity="0.75" />
			</g>
		</g>
		<g>
			<title>sxtK
SxtK</title>
			<polygon class="sxtK
SxtK" points="535,10 540,40 535,70" fill="rgb(255,255,255)" fill-opacity="1.0" stroke="rgb(0,0,0)" stroke-width="2"  />
			<g>
				<title>DUF5989 (PF19451)
"Family of unknown function (DUF5989)"</title>
				<polygon class="PF19451" points="535,27 537,40 535,53" stroke-linejoin="round" width="4" height="24" fill="rgb(88,227,127)" stroke="rgb(70,181,101)" stroke-width="1" opacity="0.75" />
			</g>
		</g>
		<g>
			<title>sxtL
GDSL-lipase</title>
			<polygon class="sxtL
GDSL-lipase" points="541,25 554,25 554,10 584,40 554,70 554,55 541,55" fill="rgb(255,255,255)" fill-opacity="1.0" stroke="rgb(0,0,0)" stroke-width="2"  />
		</g>
		<g>
			<title>sxtM
sodium-driven multidrug and toxic compound extrusion protein</title>
			<polygon class="sxtM
sodium-driven multidrug and toxic compound extrusion protein" points="587,25 605,25 605,10 635,40 605,70 605,55 587,55" fill="rgb(255,255,255)" fill-opacity="1.0" stroke="rgb(0,0,0)" stroke-width="2"  />
			<g>
				<title>MatE (PF01554)
"MatE"</title>
				<rect class="PF01554" x="590" y="28" stroke-linejoin="round" width="15" height="24" fill="rgb(223,98,132)" stroke="rgb(178,78,105)" stroke-width="1" opacity="0.75" />
			</g>
			<g>
				<title>MatE (PF01554)
"MatE"</title>
				<polygon class="PF01554" points="612,28 619,28 628,37 628,43 619,52 612,52" stroke-linejoin="round" width="16" height="24" fill="rgb(223,98,132)" stroke="rgb(178,78,105)" stroke-width="1" opacity="0.75" />
			</g>
		</g>
		<g>
			<title>sxtN
sulfotransferase</title>
			<polygon class="sxtN
sulfotransferase" points="647,10 674,40 647,70" fill="rgb(255,255,255)" fill-opacity="1.0" stroke="rgb(0,0,0)" stroke-width="2"  />
			<g>
				<title>Sulfotransfer_5 (PF19798)
"Sulfotransferase domain"</title>
				<polygon class="PF19798" points="647,28 659,28 669,39 669,41 659,52 647,52" stroke-linejoin="round" width="22" height="24" fill="rgb(217,197,81)" stroke="rgb(173,157,64)" stroke-width="1" opacity="0.75" />
			</g>
		</g>
		<g>
			<title>sxtX
cephalosporin hydroxylase</title>
			<polygon class="sxtX
cephalosporin hydroxylase" points="684,40 709,10 709,70" fill="rgb(255,255,255)" fill-opacity="1.0" stroke="rgb(0,0,0)" stroke-width="2"  />
			<g>
				<title>RMNT_CmcI (PF04989)
"Rhamnosyl O-methyltransferase/CmcI"</title>
				<polygon class="PF04989" points="688,40 698,28 704,28 704,52 698,52" stroke-linejoin="round" width="20" height="24" fill="rgb(83,195,150)" stroke="rgb(66,156,120)" stroke-width="1" opacity="0.75" />
			</g>
		</g>
		<g>
			<title>sxtW
ferredoxin</title>
			<polygon class="sxtW
ferredoxin" points="715,40 725,10 725,70" fill="rgb(255,255,255)" fill-opacity="1.0" stroke="rgb(0,0,0)" stroke-width="2"  />
			<g>
				<title>Fer4_7 (PF12838)
"4Fe-4S dicluster domain"</title>
				<polygon class="PF12838" points="720,34 722,28 724,28 724,52 722,52 720,46" stroke-linejoin="round" width="4" height="24" fill="rgb(91,195,126)" stroke="rgb(72,156,100)" stroke-width="1" opacity="0.75" />
			</g>
		</g>
		<g>
			<title>sxtV
FAD-dependent succinate dehydrogenase/fumarate reductase</title>
			<polygon class="sxtV
FAD-dependent succinate dehydrogenase/fumarate reductase" points="783,25 758,25 758,10 728,40 758,70 758,55 783,55" fill="rgb(255,255,255)" fill-opacity="1.0" stroke="rgb(0,0,0)" stroke-width="2"  />
			<g>
				<title>Succ_DH_flav_C (PF02910)
"Fumarate reductase flavoprotein C-term"</title>
				<polygon class="PF02910" points="732,40 738,34 738,46" stroke-linejoin="round" width="9" height="24" fill="rgb(96,183,69)" stroke="rgb(76,146,55)" stroke-width="1" opacity="0.75" />
			</g>
			<g>
				<title>FAD_binding_2 (PF00890)
"FAD binding domain"</title>
				<rect class="PF00890" x="759" y="28" stroke-linejoin="round" width="20" height="24" fill="rgb(187,164,92)" stroke="rgb(149,131,73)" stroke-width="1" opacity="0.75" />
			</g>
		</g>
		<g>
			<title>sxtU
short-chain alcohol dehydrogenase</title>
			<polygon class="sxtU
short-chain alcohol dehydrogenase" points="783,40 808,10 808,70" fill="rgb(255,255,255)" fill-opacity="1.0" stroke="rgb(0,0,0)" stroke-width="2"  />
			<g>
				<title>adh_short (PF00106)
"short chain dehydrogenase"</title>
				<polygon class="PF00106" points="787,40 797,28 806,28 806,52 797,52 787,40" stroke-linejoin="round" width="19" height="24" fill="rgb(128,81,196)" stroke="rgb(102,64,156)" stroke-width="1" opacity="0.75" />
			</g>
		</g>
		<g>
			<title>sxtT
phenylpropionate dioxygenase</title>
			<polygon class="sxtT
phenylpropionate dioxygenase" points="846,25 843,25 843,10 813,40 843,70 843,55 846,55" fill="rgb(255,255,255)" fill-opacity="1.0" stroke="rgb(0,0,0)" stroke-width="2"  />
			<g>
				<title>VanA_C (PF19112)
"Vanillate O-demethylase oxygenase C-terminal domain"</title>
				<polygon class="PF19112" points="817,40 829,28 831,28 831,52 829,52" stroke-linejoin="round" width="18" height="24" fill="rgb(82,202,147)" stroke="rgb(65,161,117)" stroke-width="1" opacity="0.75" />
			</g>
			<g>
				<title>Rieske (PF00355)
"Rieske [2Fe-2S] domain"</title>
				<rect class="PF00355" x="835" y="28" stroke-linejoin="round" width="9" height="24" fill="rgb(60,75,194)" stroke="rgb(48,60,155)" stroke-width="1" opacity="0.75" />
			</g>
		</g>
		<g>
			<title>sxtS
phytanoyl-CoA dioxygenase</title>
			<polygon class="sxtS
phytanoyl-CoA dioxygenase" points="849,40 873,10 873,70" fill="rgb(255,255,255)" fill-opacity="1.0" stroke="rgb(0,0,0)" stroke-width="2"  />
			<g>
				<title>PhyH (PF05721)
"Phytanoyl-CoA dioxygenase (PhyH)"</title>
				<polygon class="PF05721" points="853,40 863,28 871,28 871,52 863,52" stroke-linejoin="round" width="20" height="24" fill="rgb(186,53,95)" stroke="rgb(148,42,76)" stroke-width="1" opacity="0.75" />
			</g>
		</g>
		<g>
			<title>
cyanophage S-PM2 protein CAF34141-like protein</title>
			<polygon class="
cyanophage S-PM2 protein CAF34141-like protein" points="875,40 894,10 894,70" fill="rgb(255,255,255)" fill-opacity="1.0" stroke="rgb(0,0,0)" stroke-width="2"  />
		</g>
		<g>
			<title>sxtR
acyl-CoA N-acyltransferase</title>
			<polygon class="sxtR
acyl-CoA N-acyltransferase" points="896,40 921,10 921,70" fill="rgb(255,255,255)" fill-opacity="1.0" stroke="rgb(0,0,0)" stroke-width="2"  />
		</g>
		<g>
			<title>sxtQ
SxtQ</title>
			<polygon class="sxtQ
SxtQ" points="923,40 948,10 948,70" fill="rgb(255,255,255)" fill-opacity="1.0" stroke="rgb(0,0,0)" stroke-width="2"  />
			<g>
				<title>YqcI_YcgG (PF08892)
"YqcI/YcgG family"</title>
				<polygon class="PF08892" points="927,40 937,28 944,28 944,52 937,52" stroke-linejoin="round" width="19" height="24" fill="rgb(189,223,61)" stroke="rgb(151,178,48)" stroke-width="1" opacity="0.75" />
			</g>
		</g>
		<g>
			<title>sxtP
putative saxitoxin-binding protein</title>
			<polygon class="sxtP
putative saxitoxin-binding protein" points="992,25 982,25 982,10 952,40 982,70 982,55 992,55" fill="rgb(255,255,255)" fill-opacity="1.0" stroke="rgb(0,0,0)" stroke-width="2"  />
			<g>
				<title>FG-GAP_3 (PF13517)
"FG-GAP-like repeat"</title>
				<polygon class="PF13517" points="956,40 960,36 960,44" stroke-linejoin="round" width="6" height="24" fill="rgb(193,139,80)" stroke="rgb(154,111,64)" stroke-width="1" opacity="0.75" />
			</g>
			<g>
				<title>FG-GAP_3 (PF13517)
"FG-GAP-like repeat"</title>
				<rect class="PF13517" x="974" y="28" stroke-linejoin="round" width="6" height="24" fill="rgb(193,139,80)" stroke="rgb(154,111,64)" stroke-width="1" opacity="0.75" />
			</g>
		</g>
		<g>
			<title>sxtO
adenylylsulfate kinase</title>
			<polygon class="sxtO
adenylylsulfate kinase" points="998,40 1018,10 1018,70" fill="rgb(255,255,255)" fill-opacity="1.0" stroke="rgb(0,0,0)" stroke-width="2"  />
			<g>
				<title>APS_kinase (PF01583)
"Adenylylsulphate kinase"</title>
				<polygon class="PF01583" points="1002,40 1010,28 1015,28 1015,52 1010,52" stroke-linejoin="round" width="15" height="24" fill="rgb(215,100,220)" stroke="rgb(171,80,176)" stroke-width="1" opacity="0.75" />
			</g>
		</g>
		<g>
			<title>
transposase</title>
			<polygon class="
transposase" points="1075,25 1060,25 1060,10 1030,40 1060,70 1060,55 1075,55" fill="rgb(255,255,255)" fill-opacity="1.0" stroke="rgb(0,0,0)" stroke-width="2"  />
			<g>
				<title>DDE_Tnp_1_4 (PF13701)
"Transposase DDE domain group 1"</title>
				<polygon class="PF13701" points="1034,40 1046,28 1073,28 1073,52 1046,52" stroke-linejoin="round" width="43" height="24" fill="rgb(70,131,180)" stroke="rgb(56,104,144)" stroke-width="1" opacity="0.75" />
			</g>
		</g>
		<g>
			<title>sxtY
phosphate uptake regulator</title>
			<polygon class="sxtY
phosphate uptake regulator" points="1097,40 1119,10 1119,70" fill="rgb(255,255,255)" fill-opacity="1.0" stroke="rgb(0,0,0)" stroke-width="2"  />
			<g>
				<title>PhoU (PF01895)
"PhoU domain"</title>
				<polygon class="PF01895" points="1101,40 1105,35 1105,45" stroke-linejoin="round" width="8" height="24" fill="rgb(197,103,51)" stroke="rgb(157,82,40)" stroke-width="1" opacity="0.75" />
			</g>
			<g>
				<title>PhoU (PF01895)
"PhoU domain"</title>
				<polygon class="PF01895" points="1107,32 1110,28 1115,28 1115,52 1110,52 1107,48" stroke-linejoin="round" width="8" height="24" fill="rgb(197,103,51)" stroke="rgb(157,82,40)" stroke-width="1" opacity="0.75" />
			</g>
		</g>
		<g>
			<title>sxtZ
histidine kinase</title>
			<polygon class="sxtZ
histidine kinase" points="1165,25 1150,25 1150,10 1120,40 1150,70 1150,55 1165,55" fill="rgb(255,255,255)" fill-opacity="1.0" stroke="rgb(0,0,0)" stroke-width="2"  />
			<g>
				<title>HATPase_c (PF02518)
"Histidine kinase-, DNA gyrase B-, and HSP90-like ATPase"</title>
				<polygon class="PF02518" points="1124,40 1134,30 1134,50" stroke-linejoin="round" width="14" height="24" fill="rgb(94,146,210)" stroke="rgb(75,116,168)" stroke-width="1" opacity="0.75" />
			</g>
			<g>
				<title>HisKA (PF00512)
"His Kinase A (phospho-acceptor) domain"</title>
				<rect class="PF00512" x="1139" y="28" stroke-linejoin="round" width="6" height="24" fill="rgb(57,81,199)" stroke="rgb(45,64,159)" stroke-width="1" opacity="0.75" />
			</g>
		</g>
		<g>
			<title>
transcriptional regulator OmpR family</title>
			<polygon class="
transcriptional regulator OmpR family" points="1177,40 1204,10 1204,70" fill="rgb(255,255,255)" fill-opacity="1.0" stroke="rgb(0,0,0)" stroke-width="2"  />
			<g>
				<title>Trans_reg_C (PF00486)
"Transcriptional regulatory protein, C terminal"</title>
				<polygon class="PF00486" points="1181,40 1184,37 1184,43" stroke-linejoin="round" width="7" height="24" fill="rgb(69,185,116)" stroke="rgb(55,148,92)" stroke-width="1" opacity="0.75" />
			</g>
			<g>
				<title>Response_reg (PF00072)
"Response regulator receiver domain"</title>
				<polygon class="PF00072" points="1188,32 1192,28 1199,28 1199,52 1192,52 1188,48" stroke-linejoin="round" width="11" height="24" fill="rgb(59,131,198)" stroke="rgb(47,104,158)" stroke-width="1" opacity="0.75" />
			</g>
		</g>
		<g>
			<title>
HisA-related protein</title>
			<polygon class="
HisA-related protein" points="1209,40 1234,10 1234,70" fill="rgb(255,255,255)" fill-opacity="1.0" stroke="rgb(0,0,0)" stroke-width="2"  />
			<g>
				<title>His_biosynth (PF00977)
"Histidine biosynthesis protein"</title>
				<polygon class="PF00977" points="1213,40 1223,28 1233,28 1233,52 1223,52" stroke-linejoin="round" width="22" height="24" fill="rgb(161,58,197)" stroke="rgb(128,46,157)" stroke-width="1" opacity="0.75" />
			</g>
		</g>
		<g>
			<title>
unknown</title>
			<polygon class="
unknown" points="1245,10 1258,40 1245,70" fill="rgb(255,255,255)" fill-opacity="1.0" stroke="rgb(0,0,0)" stroke-width="2"  />
			<g>
				<title>DUF2499 (PF10693)
"Protein of unknown function (DUF2499)"</title>
				<polygon class="PF10693" points="1247,28 1249,28 1254,40 1249,52 1247,52" stroke-linejoin="round" width="8" height="24" fill="rgb(88,130,180)" stroke="rgb(70,104,144)" stroke-width="1" opacity="0.75" />
			</g>
		</g>
	</g>
</svg>
