<svg version="1.1" baseProfile="full" xmlns="http://www.w3.org/2000/svg" width="516.8666666666667" height="80">
	<g>
		<line x1="10" y1="40.0" x2="506.8666666666667" y2="40.0" style="stroke:rgb(70,70,70); stroke-width:3 "/>
		<g>
			<title>griT (SGR_4238)
putative LuxR-family transcriptional regulator</title>
			<polygon class="griT (SGR_4238)
putative LuxR-family transcriptional regulator" points="50,25 40,25 40,10 10,40 40,70 40,55 50,55" fill="rgb(255,255,255)" fill-opacity="1.0" stroke="rgb(0,0,0)" stroke-width="2"  />
			<g>
				<title>GerE (PF00196)
"Bacterial regulatory proteins, luxR family"</title>
				<polygon class="PF00196" points="14,40 19,35 19,45 14,40" stroke-linejoin="round" width="5" height="24" fill="rgb(225,67,110)" stroke="rgb(180,53,88)" stroke-width="1" opacity="0.75" />
			</g>
		</g>
		<g>
			<title>griS (SGR_4239)
GriS protein</title>
			<polygon class="griS (SGR_4239)
GriS protein" points="54,10 74,40 54,70" fill="rgb(255,255,255)" fill-opacity="1.0" stroke="rgb(0,0,0)" stroke-width="2"  />
			<g>
				<title>F420_oxidored (PF03807)
"NADP oxidoreductase coenzyme F420-dependent"</title>
				<polygon class="PF03807" points="54,28 62,28 63,29 63,51 62,52 54,52" stroke-linejoin="round" width="9" height="24" fill="rgb(209,134,62)" stroke="rgb(167,107,49)" stroke-width="1" opacity="0.75" />
			</g>
		</g>
		<g>
			<title>griR (SGR_4240)
transcriptional regulator</title>
			<polygon class="griR (SGR_4240)
transcriptional regulator" points="77,25 77,25 77,10 107,40 77,70 77,55 77,55" fill="rgb(255,255,255)" fill-opacity="1.0" stroke="rgb(0,0,0)" stroke-width="2"  />
			<g>
				<title>Trans_reg_C (PF00486)
"Transcriptional regulatory protein, C terminal"</title>
				<rect class="PF00486" x="79" y="28" stroke-linejoin="round" width="7" height="24" fill="rgb(69,185,116)" stroke="rgb(55,148,92)" stroke-width="1" opacity="0.75" />
			</g>
			<g>
				<title>BTAD (PF03704)
"Bacterial transcriptional activator domain"</title>
				<polygon class="PF03704" points="87,28 91,28 101,38 101,42 91,52 87,52" stroke-linejoin="round" width="14" height="24" fill="rgb(174,224,58)" stroke="rgb(139,179,46)" stroke-width="1" opacity="0.75" />
			</g>
		</g>
		<g>
			<title>griA (SGR_4241)
putative FAD-dependent oxygenase</title>
			<polygon class="griA (SGR_4241)
putative FAD-dependent oxygenase" points="115,25 131,25 131,10 161,40 131,70 131,55 115,55" fill="rgb(255,255,255)" fill-opacity="1.0" stroke="rgb(0,0,0)" stroke-width="2"  />
			<g>
				<title>FAD_binding_4 (PF01565)
"FAD binding domain"</title>
				<rect class="PF01565" x="120" y="28" stroke-linejoin="round" width="13" height="24" fill="rgb(194,197,94)" stroke="rgb(155,157,75)" stroke-width="1" opacity="0.75" />
			</g>
			<g>
				<title>BBE (PF08031)
"Berberine and berberine like"</title>
				<polygon class="PF08031" points="156,40 156,40 156,40" stroke-linejoin="round" width="4" height="24" fill="rgb(56,179,213)" stroke="rgb(44,143,170)" stroke-width="1" opacity="0.75" />
			</g>
		</g>
		<g>
			<title>griB (SGR_4242)
putative grixazone transporter</title>
			<polygon class="griB (SGR_4242)
putative grixazone transporter" points="165,25 180,25 180,10 210,40 180,70 180,55 165,55" fill="rgb(255,255,255)" fill-opacity="1.0" stroke="rgb(0,0,0)" stroke-width="2"  />
			<g>
				<title>MFS_1 (PF07690)
"Major Facilitator Superfamily"</title>
				<polygon class="PF07690" points="167,28 193,28 202,37 202,43 193,52 167,52" stroke-linejoin="round" width="35" height="24" fill="rgb(228,207,98)" stroke="rgb(182,165,78)" stroke-width="1" opacity="0.75" />
			</g>
		</g>
		<g>
			<title>griC (SGR_4243)
arylcarboxylate reductase component</title>
			<polygon class="griC (SGR_4243)
arylcarboxylate reductase component" points="216,25 221,25 221,10 251,40 221,70 221,55 216,55" fill="rgb(255,255,255)" fill-opacity="1.0" stroke="rgb(0,0,0)" stroke-width="2"  />
		</g>
		<g>
			<title>griD (SGR_4244)
arylcarboxylate reductase component</title>
			<polygon class="griD (SGR_4244)
arylcarboxylate reductase component" points="251,25 266,25 266,10 296,40 266,70 266,55 251,55" fill="rgb(255,255,255)" fill-opacity="1.0" stroke="rgb(0,0,0)" stroke-width="2"  />
			<g>
				<title>Aldedh (PF00171)
"Aldehyde dehydrogenase family"</title>
				<polygon class="PF00171" points="257,28 280,28 289,37 289,43 280,52 257,52" stroke-linejoin="round" width="32" height="24" fill="rgb(180,140,83)" stroke="rgb(144,112,66)" stroke-width="1" opacity="0.75" />
			</g>
		</g>
		<g>
			<title>griE (SGR_4245)
copper chaperon</title>
			<polygon class="griE (SGR_4245)
copper chaperon" points="298,10 311,40 298,70" fill="rgb(255,255,255)" fill-opacity="1.0" stroke="rgb(0,0,0)" stroke-width="2"  />
			<g>
				<title>MelC1 (PF06236)
"Tyrosinase co-factor MelC1"</title>
				<polygon class="PF06236" points="299,28 302,28 307,40 302,52 299,52" stroke-linejoin="round" width="11" height="24" fill="rgb(213,63,121)" stroke="rgb(170,50,96)" stroke-width="1" opacity="0.75" />
			</g>
		</g>
		<g>
			<title>griF (SGR_4246)
ortho-aminophenol oxidase</title>
			<polygon class="griF (SGR_4246)
ortho-aminophenol oxidase" points="313,25 313,25 313,10 343,40 313,70 313,55 313,55" fill="rgb(255,255,255)" fill-opacity="1.0" stroke="rgb(0,0,0)" stroke-width="2"  />
			<g>
				<title>Tyrosinase (PF00264)
"Common central domain of tyrosinase"</title>
				<polygon class="PF00264" points="315,28 327,28 338,39 338,41 327,52 315,52" stroke-linejoin="round" width="23" height="24" fill="rgb(95,226,202)" stroke="rgb(76,180,161)" stroke-width="1" opacity="0.75" />
			</g>
		</g>
		<g>
			<title>griG (SGR_4247)
putative 3,4-AHBA transporter</title>
			<polygon class="griG (SGR_4247)
putative 3,4-AHBA transporter" points="348,25 363,25 363,10 393,40 363,70 363,55 348,55" fill="rgb(255,255,255)" fill-opacity="1.0" stroke="rgb(0,0,0)" stroke-width="2"  />
			<g>
				<title>MFS_1 (PF07690)
"Major Facilitator Superfamily"</title>
				<rect class="PF07690" x="348" y="28" stroke-linejoin="round" width="28" height="24" fill="rgb(228,207,98)" stroke="rgb(182,165,78)" stroke-width="1" opacity="0.75" />
			</g>
		</g>
		<g>
			<title>griH (SGR_4248)
3,4-AHBA synthase</title>
			<polygon class="griH (SGR_4248)
3,4-AHBA synthase" points="431,25 422,25 422,10 392,40 422,70 422,55 431,55" fill="rgb(255,255,255)" fill-opacity="1.0" stroke="rgb(0,0,0)" stroke-width="2"  />
			<g>
				<title>DHQS (PF01959)
"3-dehydroquinate synthase II"</title>
				<polygon class="PF01959" points="396,40 408,28 428,28 428,52 408,52" stroke-linejoin="round" width="36" height="24" fill="rgb(72,159,184)" stroke="rgb(57,127,147)" stroke-width="1" opacity="0.75" />
			</g>
		</g>
		<g>
			<title>griI (SGR_4249)
aldolase</title>
			<polygon class="griI (SGR_4249)
aldolase" points="434,40 461,10 461,70" fill="rgb(255,255,255)" fill-opacity="1.0" stroke="rgb(0,0,0)" stroke-width="2"  />
			<g>
				<title>DeoC (PF01791)
"DeoC/LacD family aldolase"</title>
				<polygon class="PF01791" points="438,40 449,28 458,28 458,52 449,52" stroke-linejoin="round" width="21" height="24" fill="rgb(154,53,201)" stroke="rgb(123,42,160)" stroke-width="1" opacity="0.75" />
			</g>
		</g>
		<g>
			<title>griJ (SGR_4250)
putative aspartokinase homologue</title>
			<polygon class="griJ (SGR_4250)
putative aspartokinase homologue" points="506,25 494,25 494,10 464,40 494,70 494,55 506,55" fill="rgb(255,255,255)" fill-opacity="1.0" stroke="rgb(0,0,0)" stroke-width="2"  />
			<g>
				<title>AA_kinase (PF00696)
"Amino acid kinase family"</title>
				<rect class="PF00696" x="483" y="28" stroke-linejoin="round" width="22" height="24" fill="rgb(72,198,168)" stroke="rgb(57,158,134)" stroke-width="1" opacity="0.75" />
			</g>
		</g>
	</g>
</svg>
