<svg version="1.1" baseProfile="full" xmlns="http://www.w3.org/2000/svg" width="213.7" height="80">
	<g>
		<line x1="10" y1="40.0" x2="203.7" y2="40.0" style="stroke:rgb(70,70,70); stroke-width:3 "/>
		<g>
			<title>
discrete thioesterase</title>
			<polygon class="
discrete thioesterase" points="17,10 45,40 17,70" fill="rgb(255,255,255)" fill-opacity="1.0" stroke="rgb(0,0,0)" stroke-width="2"  />
			<g>
				<title>Thioesterase (PF00975)
"Thioesterase domain"</title>
				<polygon class="PF00975" points="22,28 29,28 41,40 29,52 22,52" stroke-linejoin="round" width="22" height="24" fill="rgb(69,76,223)" stroke="rgb(55,60,178)" stroke-width="1" opacity="0.75" />
			</g>
		</g>
		<g>
			<title>
similar to AmphRI regulatory protein</title>
			<polygon class="
similar to AmphRI regulatory protein" points="59,25 118,25 118,10 148,40 118,70 118,55 59,55" fill="rgb(255,255,255)" fill-opacity="1.0" stroke="rgb(0,0,0)" stroke-width="2"  />
			<g>
				<title>AAA_16 (PF13191)
"AAA ATPase domain"</title>
				<rect class="PF13191" x="59" y="28" stroke-linejoin="round" width="16" height="24" fill="rgb(88,106,197)" stroke="rgb(70,84,157)" stroke-width="1" opacity="0.75" />
			</g>
		</g>
		<g>
			<title>
amino acid permease</title>
			<polygon class="
amino acid permease" points="200,25 181,25 181,10 151,40 181,70 181,55 200,55" fill="rgb(255,255,255)" fill-opacity="1.0" stroke="rgb(0,0,0)" stroke-width="2"  />
			<g>
				<title>AA_permease (PF00324)
"Amino acid permease"</title>
				<polygon class="PF00324" points="155,40 167,28 196,28 196,52 167,52" stroke-linejoin="round" width="44" height="24" fill="rgb(108,63,226)" stroke="rgb(86,50,180)" stroke-width="1" opacity="0.75" />
			</g>
		</g>
	</g>
</svg>
