<svg version="1.1" baseProfile="full" xmlns="http://www.w3.org/2000/svg" width="1537.2333333333333" height="80">
	<g>
		<line x1="10" y1="40.0" x2="1527.2333333333333" y2="40.0" style="stroke:rgb(70,70,70); stroke-width:3 "/>
		<g>
			<title> (CF54_07265)
hypothetical protein</title>
			<polygon class=" (CF54_07265)
hypothetical protein" points="10,40 24,10 24,70" fill="rgb(255,255,255)" fill-opacity="1.0" stroke="rgb(0,0,0)" stroke-width="2"  />
		</g>
		<g>
			<title> (CF54_07270)
hypothetical protein</title>
			<polygon class=" (CF54_07270)
hypothetical protein" points="26,40 33,10 33,70" fill="rgb(255,255,255)" fill-opacity="1.0" stroke="rgb(0,0,0)" stroke-width="2"  />
		</g>
		<g>
			<title> (CF54_07280)
regulatory protein</title>
			<polygon class=" (CF54_07280)
regulatory protein" points="88,25 91,25 91,10 121,40 91,70 91,55 88,55" fill="rgb(255,255,255)" fill-opacity="1.0" stroke="rgb(0,0,0)" stroke-width="2"  />
			<g>
				<title>Trans_reg_C (PF00486)
"Transcriptional regulatory protein, C terminal"</title>
				<rect class="PF00486" x="89" y="28" stroke-linejoin="round" width="7" height="24" fill="rgb(69,185,116)" stroke="rgb(55,148,92)" stroke-width="1" opacity="0.75" />
			</g>
			<g>
				<title>BTAD (PF03704)
"Bacterial transcriptional activator domain"</title>
				<polygon class="PF03704" points="98,28 105,28 110,33 110,47 105,52 98,52" stroke-linejoin="round" width="12" height="24" fill="rgb(174,224,58)" stroke="rgb(139,179,46)" stroke-width="1" opacity="0.75" />
			</g>
		</g>
		<g>
			<title> (CF54_07285)
hypothetical protein</title>
			<polygon class=" (CF54_07285)
hypothetical protein" points="125,10 138,40 125,70" fill="rgb(255,255,255)" fill-opacity="1.0" stroke="rgb(0,0,0)" stroke-width="2"  />
			<g>
				<title>Polyketide_cyc (PF03364)
"Polyketide cyclase / dehydrase and lipid transport"</title>
				<polygon class="PF03364" points="125,28 129,28 135,40 129,52 125,52" stroke-linejoin="round" width="12" height="24" fill="rgb(87,54,192)" stroke="rgb(69,43,153)" stroke-width="1" opacity="0.75" />
			</g>
		</g>
		<g>
			<title> (CF54_07290)
ornithine aminotransferase</title>
			<polygon class=" (CF54_07290)
ornithine aminotransferase" points="140,25 151,25 151,10 181,40 151,70 151,55 140,55" fill="rgb(255,255,255)" fill-opacity="1.0" stroke="rgb(0,0,0)" stroke-width="2"  />
			<g>
				<title>Aminotran_3 (PF00202)
"Aminotransferase class-III"</title>
				<polygon class="PF00202" points="143,28 165,28 177,40 165,52 143,52" stroke-linejoin="round" width="37" height="24" fill="rgb(182,63,213)" stroke="rgb(145,50,170)" stroke-width="1" opacity="0.75" />
			</g>
		</g>
		<g>
			<title> (CF54_07295)
hypothetical protein</title>
			<polygon class=" (CF54_07295)
hypothetical protein" points="183,25 191,25 191,10 221,40 191,70 191,55 183,55" fill="rgb(255,255,255)" fill-opacity="1.0" stroke="rgb(0,0,0)" stroke-width="2"  />
			<g>
				<title>NAD_binding_4 (PF07993)
"Male sterility protein"</title>
				<polygon class="PF07993" points="186,28 205,28 209,32 209,48 205,52 186,52" stroke-linejoin="round" width="23" height="24" fill="rgb(210,94,130)" stroke="rgb(168,75,103)" stroke-width="1" opacity="0.75" />
			</g>
		</g>
		<g>
			<title> (CF54_07305)
hypothetical protein</title>
			<polygon class=" (CF54_07305)
hypothetical protein" points="312,25 271,25 271,10 241,40 271,70 271,55 312,55" fill="rgb(255,255,255)" fill-opacity="1.0" stroke="rgb(0,0,0)" stroke-width="2"  />
		</g>
		<g>
			<title> (CF54_07310)
ABC transporter</title>
			<polygon class=" (CF54_07310)
ABC transporter" points="389,25 361,25 361,10 331,40 361,70 361,55 389,55" fill="rgb(255,255,255)" fill-opacity="1.0" stroke="rgb(0,0,0)" stroke-width="2"  />
			<g>
				<title>ABC_tran (PF00005)
"ABC transporter"</title>
				<polygon class="PF00005" points="339,36 347,28 353,28 353,52 347,52 339,44" stroke-linejoin="round" width="14" height="24" fill="rgb(46,186,108)" stroke="rgb(36,148,86)" stroke-width="1" opacity="0.75" />
			</g>
			<g>
				<title>ABC_membrane (PF00664)
"ABC transporter transmembrane region"</title>
				<rect class="PF00664" x="360" y="28" stroke-linejoin="round" width="26" height="24" fill="rgb(62,71,183)" stroke="rgb(49,56,146)" stroke-width="1" opacity="0.75" />
			</g>
		</g>
		<g>
			<title> (CF54_07315)
ABC transporter ATP-binding protein</title>
			<polygon class=" (CF54_07315)
ABC transporter ATP-binding protein" points="448,25 418,25 418,10 388,40 418,70 418,55 448,55" fill="rgb(255,255,255)" fill-opacity="1.0" stroke="rgb(0,0,0)" stroke-width="2"  />
			<g>
				<title>ABC_tran (PF00005)
"ABC transporter"</title>
				<polygon class="PF00005" points="398,34 404,28 412,28 412,52 404,52 398,46" stroke-linejoin="round" width="14" height="24" fill="rgb(46,186,108)" stroke="rgb(36,148,86)" stroke-width="1" opacity="0.75" />
			</g>
			<g>
				<title>ABC_membrane (PF00664)
"ABC transporter transmembrane region"</title>
				<rect class="PF00664" x="419" y="28" stroke-linejoin="round" width="27" height="24" fill="rgb(62,71,183)" stroke="rgb(49,56,146)" stroke-width="1" opacity="0.75" />
			</g>
		</g>
		<g>
			<title> (CF54_07325)
TetR family transcriptional regulator</title>
			<polygon class=" (CF54_07325)
TetR family transcriptional regulator" points="536,10 555,40 536,70" fill="rgb(255,255,255)" fill-opacity="1.0" stroke="rgb(0,0,0)" stroke-width="2"  />
			<g>
				<title>TetR_N (PF00440)
"Bacterial regulatory proteins, tetR family"</title>
				<rect class="PF00440" x="537" y="28" stroke-linejoin="round" width="4" height="24" fill="rgb(148,50,185)" stroke="rgb(118,40,148)" stroke-width="1" opacity="0.75" />
			</g>
			<g>
				<title>TetR_C_33 (PF13305)
"Tetracyclin repressor-like, C-terminal domain"</title>
				<polygon class="PF13305" points="544,29 551,40 544,51" stroke-linejoin="round" width="10" height="24" fill="rgb(186,82,57)" stroke="rgb(148,65,45)" stroke-width="1" opacity="0.75" />
			</g>
		</g>
		<g>
			<title> (CF54_07330)
4-phosphopantetheinyl transferase</title>
			<polygon class=" (CF54_07330)
4-phosphopantetheinyl transferase" points="565,40 588,10 588,70" fill="rgb(255,255,255)" fill-opacity="1.0" stroke="rgb(0,0,0)" stroke-width="2"  />
			<g>
				<title>ACPS (PF01648)
"4'-phosphopantetheinyl transferase superfamily"</title>
				<polygon class="PF01648" points="569,40 577,30 577,50" stroke-linejoin="round" width="10" height="24" fill="rgb(58,190,78)" stroke="rgb(46,152,62)" stroke-width="1" opacity="0.75" />
			</g>
			<g>
				<title>4PPT_N (PF17837)
"4'-phosphopantetheinyl transferase N-terminal domain"</title>
				<polygon class="PF17837" points="578,29 578,28 585,28 585,52 578,52 578,51" stroke-linejoin="round" width="7" height="24" fill="rgb(223,103,142)" stroke="rgb(178,82,113)" stroke-width="1" opacity="0.75" />
			</g>
		</g>
		<g>
			<title> (CF54_07335)
phospho-2-dehydro-3-deoxyheptonate aldolase</title>
			<polygon class=" (CF54_07335)
phospho-2-dehydro-3-deoxyheptonate aldolase" points="635,25 619,25 619,10 589,40 619,70 619,55 635,55" fill="rgb(255,255,255)" fill-opacity="1.0" stroke="rgb(0,0,0)" stroke-width="2"  />
			<g>
				<title>DAHP_synth_2 (PF01474)
"Class-II DAHP synthetase family"</title>
				<polygon class="PF01474" points="593,40 605,28 633,28 633,52 605,52" stroke-linejoin="round" width="43" height="24" fill="rgb(57,77,225)" stroke="rgb(45,61,180)" stroke-width="1" opacity="0.75" />
			</g>
		</g>
		<g>
			<title> (CF54_07345)
anthranilate synthase</title>
			<polygon class=" (CF54_07345)
anthranilate synthase" points="711,25 702,25 702,10 672,40 702,70 702,55 711,55" fill="rgb(255,255,255)" fill-opacity="1.0" stroke="rgb(0,0,0)" stroke-width="2"  />
			<g>
				<title>Chorismate_bind (PF00425)
"chorismate binding enzyme"</title>
				<polygon class="PF00425" points="676,40 688,28 698,28 698,52 688,52" stroke-linejoin="round" width="25" height="24" fill="rgb(126,181,77)" stroke="rgb(100,144,61)" stroke-width="1" opacity="0.75" />
			</g>
		</g>
		<g>
			<title> (CF54_07350)
isochorismatase</title>
			<polygon class=" (CF54_07350)
isochorismatase" points="711,40 734,10 734,70" fill="rgb(255,255,255)" fill-opacity="1.0" stroke="rgb(0,0,0)" stroke-width="2"  />
			<g>
				<title>Isochorismatase (PF00857)
"Isochorismatase family"</title>
				<polygon class="PF00857" points="715,40 724,28 730,28 730,52 724,52" stroke-linejoin="round" width="17" height="24" fill="rgb(82,216,163)" stroke="rgb(65,172,130)" stroke-width="1" opacity="0.75" />
			</g>
		</g>
		<g>
			<title> (CF54_07355)
2,3-dihydroxybenzoate-2,3-dehydrogenase</title>
			<polygon class=" (CF54_07355)
2,3-dihydroxybenzoate-2,3-dehydrogenase" points="746,40 773,10 773,70" fill="rgb(255,255,255)" fill-opacity="1.0" stroke="rgb(0,0,0)" stroke-width="2"  />
			<g>
				<title>adh_short (PF00106)
"short chain dehydrogenase"</title>
				<polygon class="PF00106" points="751,39 761,28 770,28 770,52 761,52 751,41" stroke-linejoin="round" width="19" height="24" fill="rgb(128,81,196)" stroke="rgb(102,64,156)" stroke-width="1" opacity="0.75" />
			</g>
		</g>
		<g>
			<title> (CF54_07360)
amidohydrolase</title>
			<polygon class=" (CF54_07360)
amidohydrolase" points="823,25 804,25 804,10 774,40 804,70 804,55 823,55" fill="rgb(255,255,255)" fill-opacity="1.0" stroke="rgb(0,0,0)" stroke-width="2"  />
			<g>
				<title>Amidohydro_1 (PF01979)
"Amidohydrolase family"</title>
				<polygon class="PF01979" points="778,40 790,28 816,28 816,52 790,52 778,40" stroke-linejoin="round" width="38" height="24" fill="rgb(190,76,113)" stroke="rgb(152,60,90)" stroke-width="1" opacity="0.75" />
			</g>
		</g>
		<g>
			<title> (CF54_07365)
phosphopantetheine-binding protein</title>
			<polygon class=" (CF54_07365)
phosphopantetheine-binding protein" points="823,40 832,10 832,70" fill="rgb(255,255,255)" fill-opacity="1.0" stroke="rgb(0,0,0)" stroke-width="2"  />
			<g>
				<title>PP-binding (PF00550)
"Phosphopantetheine attachment site"</title>
				<polygon class="PF00550" points="826,40 830,28 830,28 830,52 830,52" stroke-linejoin="round" width="6" height="24" fill="rgb(181,58,166)" stroke="rgb(144,46,132)" stroke-width="1" opacity="0.75" />
			</g>
		</g>
		<g>
			<title> (CF54_07370)
Triostin synthetase I</title>
			<polygon class=" (CF54_07370)
Triostin synthetase I" points="886,25 862,25 862,10 832,40 862,70 862,55 886,55" fill="rgb(255,255,255)" fill-opacity="1.0" stroke="rgb(0,0,0)" stroke-width="2"  />
			<g>
				<title>AMP-binding_C (PF13193)
"AMP-binding enzyme C-terminal domain"</title>
				<polygon class="PF13193" points="836,40 840,36 840,44" stroke-linejoin="round" width="7" height="24" fill="rgb(195,82,106)" stroke="rgb(156,65,84)" stroke-width="1" opacity="0.75" />
			</g>
			<g>
				<title>AMP-binding (PF00501)
"AMP-binding enzyme"</title>
				<polygon class="PF00501" points="846,30 848,28 882,28 882,52 848,52 846,50" stroke-linejoin="round" width="36" height="24" fill="rgb(189,78,204)" stroke="rgb(151,62,163)" stroke-width="1" opacity="0.75" />
			</g>
		</g>
		<g>
			<title> (CF54_07375)
3-oxoacyl-ACP synthase</title>
			<polygon class=" (CF54_07375)
3-oxoacyl-ACP synthase" points="921,25 916,25 916,10 886,40 916,70 916,55 921,55" fill="rgb(255,255,255)" fill-opacity="1.0" stroke="rgb(0,0,0)" stroke-width="2"  />
			<g>
				<title>ACP_syn_III_C (PF08541)
"3-Oxoacyl-[acyl-carrier-protein (ACP)] synthase III C terminal"</title>
				<polygon class="PF08541" points="890,40 896,34 896,46" stroke-linejoin="round" width="9" height="24" fill="rgb(223,111,121)" stroke="rgb(178,88,96)" stroke-width="1" opacity="0.75" />
			</g>
			<g>
				<title>ACP_syn_III (PF08545)
"3-Oxoacyl-[acyl-carrier-protein (ACP)] synthase III"</title>
				<polygon class="PF08545" points="902,28 902,28 910,28 910,52 902,52 902,52" stroke-linejoin="round" width="8" height="24" fill="rgb(93,213,73)" stroke="rgb(74,170,58)" stroke-width="1" opacity="0.75" />
			</g>
		</g>
		<g>
			<title> (CF54_07380)
coenzyme F390 synthetase</title>
			<polygon class=" (CF54_07380)
coenzyme F390 synthetase" points="941,25 954,25 954,10 984,40 954,70 954,55 941,55" fill="rgb(255,255,255)" fill-opacity="1.0" stroke="rgb(0,0,0)" stroke-width="2"  />
			<g>
				<title>AMP-binding (PF00501)
"AMP-binding enzyme"</title>
				<rect class="PF00501" x="945" y="28" stroke-linejoin="round" width="22" height="24" fill="rgb(189,78,204)" stroke="rgb(151,62,163)" stroke-width="1" opacity="0.75" />
			</g>
		</g>
		<g>
			<title> (CF54_07385)
beta-ketoacyl synthase</title>
			<polygon class=" (CF54_07385)
beta-ketoacyl synthase" points="1007,25 1144,25 1144,10 1174,40 1144,70 1144,55 1007,55" fill="rgb(255,255,255)" fill-opacity="1.0" stroke="rgb(0,0,0)" stroke-width="2"  />
			<g>
				<title>ketoacyl-synt (PF00109)
"Beta-ketoacyl synthase, N-terminal domain"</title>
				<rect class="PF00109" x="1007" y="28" stroke-linejoin="round" width="22" height="24" fill="rgb(74,179,82)" stroke="rgb(59,143,65)" stroke-width="1" opacity="0.75" />
			</g>
			<g>
				<title>Ketoacyl-synt_C (PF02801)
"Beta-ketoacyl synthase, C-terminal domain"</title>
				<rect class="PF02801" x="1030" y="28" stroke-linejoin="round" width="11" height="24" fill="rgb(212,79,72)" stroke="rgb(169,63,57)" stroke-width="1" opacity="0.75" />
			</g>
			<g>
				<title>KAsynt_C_assoc (PF16197)
"Ketoacyl-synthetase C-terminal extension"</title>
				<rect class="PF16197" x="1042" y="28" stroke-linejoin="round" width="11" height="24" fill="rgb(200,86,70)" stroke="rgb(160,68,56)" stroke-width="1" opacity="0.75" />
			</g>
			<g>
				<title>Acyl_transf_1 (PF00698)
"Acyl transferase domain"</title>
				<rect class="PF00698" x="1057" y="28" stroke-linejoin="round" width="31" height="24" fill="rgb(132,93,193)" stroke="rgb(105,74,154)" stroke-width="1" opacity="0.75" />
			</g>
			<g>
				<title>PKS_DH_N (PF21089)
"Polyketide synthase dehydratase domain"</title>
				<rect class="PF21089" x="1092" y="28" stroke-linejoin="round" width="9" height="24" fill="rgb(67,151,200)" stroke="rgb(53,120,160)" stroke-width="1" opacity="0.75" />
			</g>
			<g>
				<title>KR (PF08659)
"KR domain"</title>
				<rect class="PF08659" x="1138" y="28" stroke-linejoin="round" width="18" height="24" fill="rgb(203,145,81)" stroke="rgb(162,116,64)" stroke-width="1" opacity="0.75" />
			</g>
			<g>
				<title>PP-binding (PF00550)
"Phosphopantetheine attachment site"</title>
				<polygon class="PF00550" points="1166,36 1170,40 1166,44" stroke-linejoin="round" width="6" height="24" fill="rgb(181,58,166)" stroke="rgb(144,46,132)" stroke-width="1" opacity="0.75" />
			</g>
		</g>
		<g>
			<title> (CF54_07390)
TetR family transcriptional regulator</title>
			<polygon class=" (CF54_07390)
TetR family transcriptional regulator" points="1190,40 1213,10 1213,70" fill="rgb(255,255,255)" fill-opacity="1.0" stroke="rgb(0,0,0)" stroke-width="2"  />
			<g>
				<title>TetR_N (PF00440)
"Bacterial regulatory proteins, tetR family"</title>
				<rect class="PF00440" x="1206" y="28" stroke-linejoin="round" width="4" height="24" fill="rgb(148,50,185)" stroke="rgb(118,40,148)" stroke-width="1" opacity="0.75" />
			</g>
		</g>
		<g>
			<title> (CF54_07395)
multidrug MFS transporter</title>
			<polygon class=" (CF54_07395)
multidrug MFS transporter" points="1224,25 1245,25 1245,10 1275,40 1245,70 1245,55 1224,55" fill="rgb(255,255,255)" fill-opacity="1.0" stroke="rgb(0,0,0)" stroke-width="2"  />
			<g>
				<title>MFS_1 (PF07690)
"Major Facilitator Superfamily"</title>
				<polygon class="PF07690" points="1225,28 1259,28 1264,33 1264,47 1259,52 1225,52" stroke-linejoin="round" width="39" height="24" fill="rgb(228,207,98)" stroke="rgb(182,165,78)" stroke-width="1" opacity="0.75" />
			</g>
		</g>
		<g>
			<title> (CF54_07400)
hypothetical protein</title>
			<polygon class=" (CF54_07400)
hypothetical protein" points="1288,10 1316,40 1288,70" fill="rgb(255,255,255)" fill-opacity="1.0" stroke="rgb(0,0,0)" stroke-width="2"  />
			<g>
				<title>Trans_reg_C (PF00486)
"Transcriptional regulatory protein, C terminal"</title>
				<rect class="PF00486" x="1293" y="28" stroke-linejoin="round" width="7" height="24" fill="rgb(69,185,116)" stroke="rgb(55,148,92)" stroke-width="1" opacity="0.75" />
			</g>
			<g>
				<title>BTAD (PF03704)
"Bacterial transcriptional activator domain"</title>
				<polygon class="PF03704" points="1301,28 1312,40 1301,52" stroke-linejoin="round" width="14" height="24" fill="rgb(174,224,58)" stroke="rgb(139,179,46)" stroke-width="1" opacity="0.75" />
			</g>
		</g>
		<g>
			<title> (CF54_07405)
SARP family transcriptional regulator</title>
			<polygon class=" (CF54_07405)
SARP family transcriptional regulator" points="1330,25 1332,25 1332,10 1362,40 1332,70 1332,55 1330,55" fill="rgb(255,255,255)" fill-opacity="1.0" stroke="rgb(0,0,0)" stroke-width="2"  />
		</g>
		<g>
			<title> (CF54_07410)
polyketide synthase</title>
			<polygon class=" (CF54_07410)
polyketide synthase" points="1373,10 1381,40 1373,70" fill="rgb(255,255,255)" fill-opacity="1.0" stroke="rgb(0,0,0)" stroke-width="2"  />
			<g>
				<title>PP-binding (PF00550)
"Phosphopantetheine attachment site"</title>
				<polygon class="PF00550" points="1374,28 1374,28 1378,40 1374,52 1374,52" stroke-linejoin="round" width="6" height="24" fill="rgb(181,58,166)" stroke="rgb(144,46,132)" stroke-width="1" opacity="0.75" />
			</g>
		</g>
		<g>
			<title> (CF54_07415)
hypothetical protein</title>
			<polygon class=" (CF54_07415)
hypothetical protein" points="1431,25 1496,25 1496,10 1526,40 1496,70 1496,55 1431,55" fill="rgb(255,255,255)" fill-opacity="1.0" stroke="rgb(0,0,0)" stroke-width="2"  />
			<g>
				<title>ketoacyl-synt (PF00109)
"Beta-ketoacyl synthase, N-terminal domain"</title>
				<rect class="PF00109" x="1432" y="28" stroke-linejoin="round" width="27" height="24" fill="rgb(74,179,82)" stroke="rgb(59,143,65)" stroke-width="1" opacity="0.75" />
			</g>
			<g>
				<title>Ketoacyl-synt_C (PF02801)
"Beta-ketoacyl synthase, C-terminal domain"</title>
				<rect class="PF02801" x="1461" y="28" stroke-linejoin="round" width="11" height="24" fill="rgb(212,79,72)" stroke="rgb(169,63,57)" stroke-width="1" opacity="0.75" />
			</g>
			<g>
				<title>KAsynt_C_assoc (PF16197)
"Ketoacyl-synthetase C-terminal extension"</title>
				<rect class="PF16197" x="1473" y="28" stroke-linejoin="round" width="7" height="24" fill="rgb(200,86,70)" stroke="rgb(160,68,56)" stroke-width="1" opacity="0.75" />
			</g>
			<g>
				<title>Acyl_transf_1 (PF00698)
"Acyl transferase domain"</title>
				<polygon class="PF00698" points="1488,28 1510,28 1520,38 1520,42 1510,52 1488,52" stroke-linejoin="round" width="32" height="24" fill="rgb(132,93,193)" stroke="rgb(105,74,154)" stroke-width="1" opacity="0.75" />
			</g>
		</g>
	</g>
</svg>
