<svg version="1.1" baseProfile="full" xmlns="http://www.w3.org/2000/svg" width="1451.4666666666667" height="80">
	<g>
		<line x1="10" y1="40.0" x2="1441.4666666666667" y2="40.0" style="stroke:rgb(70,70,70); stroke-width:3 "/>
		<g>
			<title> (IF43_RS42015)
hypothetical protein</title>
			<polygon class=" (IF43_RS42015)
hypothetical protein" points="18,40 23,10 23,70" fill="rgb(255,255,255)" fill-opacity="1.0" stroke="rgb(0,0,0)" stroke-width="2"  />
		</g>
		<g>
			<title> (IF43_RS0103380)
hypothetical protein</title>
			<polygon class=" (IF43_RS0103380)
hypothetical protein" points="39,40 48,10 48,70" fill="rgb(255,255,255)" fill-opacity="1.0" stroke="rgb(0,0,0)" stroke-width="2"  />
		</g>
		<g>
			<title>tadA (IF43_RS0103390)
tRNA adenosine(34) deaminase TadA</title>
			<polygon class="tadA (IF43_RS0103390)
tRNA adenosine(34) deaminase TadA" points="58,40 72,10 72,70" fill="rgb(255,255,255)" fill-opacity="1.0" stroke="rgb(0,0,0)" stroke-width="2"  />
			<g>
				<title>MafB19-deam (PF14437)
"MafB19-like deaminase"</title>
				<polygon class="PF14437" points="61,40 67,28 72,28 72,52 67,52" stroke-linejoin="round" width="14" height="24" fill="rgb(136,215,92)" stroke="rgb(108,172,73)" stroke-width="1" opacity="0.75" />
			</g>
		</g>
		<g>
			<title> (IF43_RS0103395)
hypothetical protein</title>
			<polygon class=" (IF43_RS0103395)
hypothetical protein" points="75,40 93,10 93,70" fill="rgb(255,255,255)" fill-opacity="1.0" stroke="rgb(0,0,0)" stroke-width="2"  />
		</g>
		<g>
			<title> (IF43_RS0103400)
hypothetical protein</title>
			<polygon class=" (IF43_RS0103400)
hypothetical protein" points="108,40 114,10 114,70" fill="rgb(255,255,255)" fill-opacity="1.0" stroke="rgb(0,0,0)" stroke-width="2"  />
		</g>
		<g>
			<title>upp (IF43_RS0103405)
uracil phosphoribosyltransferase</title>
			<polygon class="upp (IF43_RS0103405)
uracil phosphoribosyltransferase" points="119,10 140,40 119,70" fill="rgb(255,255,255)" fill-opacity="1.0" stroke="rgb(0,0,0)" stroke-width="2"  />
			<g>
				<title>UPRTase (PF14681)
"Uracil phosphoribosyltransferase"</title>
				<polygon class="PF14681" points="119,28 128,28 136,40 128,52 119,52" stroke-linejoin="round" width="20" height="24" fill="rgb(93,147,196)" stroke="rgb(74,117,156)" stroke-width="1" opacity="0.75" />
			</g>
		</g>
		<g>
			<title> (IF43_RS0103410)
LytR C-terminal domain-containing protein</title>
			<polygon class=" (IF43_RS0103410)
LytR C-terminal domain-containing protein" points="140,40 161,10 161,70" fill="rgb(255,255,255)" fill-opacity="1.0" stroke="rgb(0,0,0)" stroke-width="2"  />
			<g>
				<title>LytR_C (PF13399)
"LytR cell envelope-related transcriptional attenuator"</title>
				<polygon class="PF13399" points="144,40 151,30 151,50" stroke-linejoin="round" width="9" height="24" fill="rgb(209,62,55)" stroke="rgb(167,49,44)" stroke-width="1" opacity="0.75" />
			</g>
		</g>
		<g>
			<title> (IF43_RS0103415)
type II toxin-antitoxin system VapB family antitoxin</title>
			<polygon class=" (IF43_RS0103415)
type II toxin-antitoxin system VapB family antitoxin" points="165,40 174,10 174,70" fill="rgb(255,255,255)" fill-opacity="1.0" stroke="rgb(0,0,0)" stroke-width="2"  />
		</g>
		<g>
			<title> (IF43_RS0103420)
DUF853 family protein</title>
			<polygon class=" (IF43_RS0103420)
DUF853 family protein" points="178,25 202,25 202,10 232,40 202,70 202,55 178,55" fill="rgb(255,255,255)" fill-opacity="1.0" stroke="rgb(0,0,0)" stroke-width="2"  />
			<g>
				<title>HerA_C (PF05872)
"Helicase HerA-like C-terminal"</title>
				<polygon class="PF05872" points="182,28 216,28 228,40 216,52 182,52" stroke-linejoin="round" width="50" height="24" fill="rgb(60,116,199)" stroke="rgb(48,92,159)" stroke-width="1" opacity="0.75" />
			</g>
		</g>
		<g>
			<title>opcA (IF43_RS0103425)
glucose-6-phosphate dehydrogenase assembly protein OpcA</title>
			<polygon class="opcA (IF43_RS0103425)
glucose-6-phosphate dehydrogenase assembly protein OpcA" points="263,25 263,25 263,10 233,40 263,70 263,55 263,55" fill="rgb(255,255,255)" fill-opacity="1.0" stroke="rgb(0,0,0)" stroke-width="2"  />
			<g>
				<title>OpcA_G6PD_C (PF20171)
"Glucose-6-phosphate dehydrogenase subunit C-terminal domain"</title>
				<polygon class="PF20171" points="237,40 245,32 245,48" stroke-linejoin="round" width="12" height="24" fill="rgb(110,89,216)" stroke="rgb(87,71,172)" stroke-width="1" opacity="0.75" />
			</g>
			<g>
				<title>OpcA_G6PD_assem (PF10128)
"Glucose-6-phosphate dehydrogenase subunit N-terminal domain"</title>
				<polygon class="PF10128" points="247,30 249,28 258,28 258,52 249,52 247,50" stroke-linejoin="round" width="11" height="24" fill="rgb(210,56,80)" stroke="rgb(168,44,63)" stroke-width="1" opacity="0.75" />
			</g>
		</g>
		<g>
			<title> (IF43_RS0103430)
Fe-S cluster assembly protein HesB</title>
			<polygon class=" (IF43_RS0103430)
Fe-S cluster assembly protein HesB" points="270,40 289,10 289,70" fill="rgb(255,255,255)" fill-opacity="1.0" stroke="rgb(0,0,0)" stroke-width="2"  />
		</g>
		<g>
			<title> (IF43_RS0103435)
VOC family protein</title>
			<polygon class=" (IF43_RS0103435)
VOC family protein" points="293,10 319,40 293,70" fill="rgb(255,255,255)" fill-opacity="1.0" stroke="rgb(0,0,0)" stroke-width="2"  />
			<g>
				<title>Glyoxalase (PF00903)
"Glyoxalase/Bleomycin resistance protein/Dioxygenase superfamily"</title>
				<rect class="PF00903" x="294" y="28" stroke-linejoin="round" width="10" height="24" fill="rgb(61,121,217)" stroke="rgb(48,96,173)" stroke-width="1" opacity="0.75" />
			</g>
		</g>
		<g>
			<title> (IF43_RS38895)
helix-turn-helix domain-containing protein</title>
			<polygon class=" (IF43_RS38895)
helix-turn-helix domain-containing protein" points="324,40 332,10 332,70" fill="rgb(255,255,255)" fill-opacity="1.0" stroke="rgb(0,0,0)" stroke-width="2"  />
		</g>
		<g>
			<title> (IF43_RS0103445)
PIN domain nuclease</title>
			<polygon class=" (IF43_RS0103445)
PIN domain nuclease" points="340,40 354,10 354,70" fill="rgb(255,255,255)" fill-opacity="1.0" stroke="rgb(0,0,0)" stroke-width="2"  />
			<g>
				<title>PIN (PF01850)
"PIN domain"</title>
				<polygon class="PF01850" points="343,40 349,28 353,28 353,52 349,52" stroke-linejoin="round" width="12" height="24" fill="rgb(193,89,179)" stroke="rgb(154,71,143)" stroke-width="1" opacity="0.75" />
			</g>
		</g>
		<g>
			<title> (IF43_RS0103450)
type II toxin-antitoxin system VapB family antitoxin</title>
			<polygon class=" (IF43_RS0103450)
type II toxin-antitoxin system VapB family antitoxin" points="354,40 361,10 361,70" fill="rgb(255,255,255)" fill-opacity="1.0" stroke="rgb(0,0,0)" stroke-width="2"  />
			<g>
				<title>VapB_antitoxin (PF09957)
"Bacterial antitoxin of type II TA system, VapB"</title>
				<polygon class="PF09957" points="357,40 360,28 360,28 360,52 360,52" stroke-linejoin="round" width="4" height="24" fill="rgb(212,56,145)" stroke="rgb(169,44,115)" stroke-width="1" opacity="0.75" />
			</g>
		</g>
		<g>
			<title> (IF43_RS0103455)
helicase-associated domain-containing protein</title>
			<polygon class=" (IF43_RS0103455)
helicase-associated domain-containing protein" points="444,25 394,25 394,10 364,40 394,70 394,55 444,55" fill="rgb(255,255,255)" fill-opacity="1.0" stroke="rgb(0,0,0)" stroke-width="2"  />
			<g>
				<title>WYL (PF13280)
"WYL domain"</title>
				<polygon class="PF13280" points="368,40 370,38 370,42" stroke-linejoin="round" width="6" height="24" fill="rgb(81,200,62)" stroke="rgb(64,160,49)" stroke-width="1" opacity="0.75" />
			</g>
			<g>
				<title>Helicase_C_3 (PF13625)
"Helicase conserved C-terminal domain"</title>
				<rect class="PF13625" x="382" y="28" stroke-linejoin="round" width="12" height="24" fill="rgb(162,80,178)" stroke="rgb(129,64,142)" stroke-width="1" opacity="0.75" />
			</g>
		</g>
		<g>
			<title> (IF43_RS0103460)
hypothetical protein</title>
			<polygon class=" (IF43_RS0103460)
hypothetical protein" points="456,40 483,10 483,70" fill="rgb(255,255,255)" fill-opacity="1.0" stroke="rgb(0,0,0)" stroke-width="2"  />
		</g>
		<g>
			<title> (IF43_RS0103465)
C1 family peptidase</title>
			<polygon class=" (IF43_RS0103465)
C1 family peptidase" points="489,40 512,10 512,70" fill="rgb(255,255,255)" fill-opacity="1.0" stroke="rgb(0,0,0)" stroke-width="2"  />
			<g>
				<title>Peptidase_C1 (PF00112)
"Papain family cysteine protease"</title>
				<polygon class="PF00112" points="493,40 502,28 512,28 512,52 502,52" stroke-linejoin="round" width="21" height="24" fill="rgb(189,77,88)" stroke="rgb(151,61,70)" stroke-width="1" opacity="0.75" />
			</g>
		</g>
		<g>
			<title> (IF43_RS0103470)
phytanoyl-CoA dioxygenase family protein</title>
			<polygon class=" (IF43_RS0103470)
phytanoyl-CoA dioxygenase family protein" points="516,40 545,10 545,70" fill="rgb(255,255,255)" fill-opacity="1.0" stroke="rgb(0,0,0)" stroke-width="2"  />
			<g>
				<title>PhyH (PF05721)
"Phytanoyl-CoA dioxygenase (PhyH)"</title>
				<polygon class="PF05721" points="524,36 532,28 543,28 543,52 532,52 524,44" stroke-linejoin="round" width="19" height="24" fill="rgb(205,136,84)" stroke="rgb(164,108,67)" stroke-width="1" opacity="0.75" />
			</g>
		</g>
		<g>
			<title> (IF43_RS0103475)
TfuA-like protein</title>
			<polygon class=" (IF43_RS0103475)
TfuA-like protein" points="545,40 568,10 568,70" fill="rgb(255,255,255)" fill-opacity="1.0" stroke="rgb(0,0,0)" stroke-width="2"  />
			<g>
				<title>TfuA (PF07812)
"TfuA-like protein"</title>
				<polygon class="PF07812" points="551,37 558,28 562,28 562,52 558,52 551,43" stroke-linejoin="round" width="11" height="24" fill="rgb(62,202,88)" stroke="rgb(49,161,70)" stroke-width="1" opacity="0.75" />
			</g>
		</g>
		<g>
			<title> (IF43_RS0103480)
YcaO-like family protein</title>
			<polygon class=" (IF43_RS0103480)
YcaO-like family protein" points="614,25 599,25 599,10 569,40 599,70 599,55 614,55" fill="rgb(255,255,255)" fill-opacity="1.0" stroke="rgb(0,0,0)" stroke-width="2"  />
			<g>
				<title>YcaO (PF02624)
"YcaO cyclodehydratase, ATP-ad Mg2+-binding"</title>
				<polygon class="PF02624" points="573,40 585,28 606,28 606,52 585,52" stroke-linejoin="round" width="34" height="24" fill="rgb(203,66,101)" stroke="rgb(162,52,80)" stroke-width="1" opacity="0.75" />
			</g>
		</g>
		<g>
			<title> (IF43_RS0103485)
50S ribosomal protein L11 methyltransferase</title>
			<polygon class=" (IF43_RS0103485)
50S ribosomal protein L11 methyltransferase" points="655,25 645,25 645,10 615,40 645,70 645,55 655,55" fill="rgb(255,255,255)" fill-opacity="1.0" stroke="rgb(0,0,0)" stroke-width="2"  />
			<g>
				<title>PrmA (PF06325)
"Ribosomal protein L11 methyltransferase (PrmA)"</title>
				<polygon class="PF06325" points="631,28 631,28 642,28 642,52 631,52 631,52" stroke-linejoin="round" width="11" height="24" fill="rgb(198,208,67)" stroke="rgb(158,166,53)" stroke-width="1" opacity="0.75" />
			</g>
		</g>
		<g>
			<title> (IF43_RS40350)
hypothetical protein</title>
			<polygon class=" (IF43_RS40350)
hypothetical protein" points="656,40 676,10 676,70" fill="rgb(255,255,255)" fill-opacity="1.0" stroke="rgb(0,0,0)" stroke-width="2"  />
			<g>
				<title>Flavoprotein (PF02441)
"Flavoprotein"</title>
				<polygon class="PF02441" points="660,40 668,28 673,28 673,52 668,52" stroke-linejoin="round" width="17" height="24" fill="rgb(78,183,128)" stroke="rgb(62,146,102)" stroke-width="1" opacity="0.75" />
			</g>
		</g>
		<g>
			<title> (IF43_RS40355)
phosphotransferase</title>
			<polygon class=" (IF43_RS40355)
phosphotransferase" points="707,25 706,25 706,10 676,40 706,70 706,55 707,55" fill="rgb(255,255,255)" fill-opacity="1.0" stroke="rgb(0,0,0)" stroke-width="2"  />
			<g>
				<title>APH (PF01636)
"Phosphotransferase enzyme family"</title>
				<polygon class="PF01636" points="682,38 692,28 705,28 705,52 692,52 682,42" stroke-linejoin="round" width="23" height="24" fill="rgb(148,65,211)" stroke="rgb(118,51,168)" stroke-width="1" opacity="0.75" />
			</g>
		</g>
		<g>
			<title> (IF43_RS0103500)
T3SS effector HopA1 family protein</title>
			<polygon class=" (IF43_RS0103500)
T3SS effector HopA1 family protein" points="741,25 738,25 738,10 708,40 738,70 738,55 741,55" fill="rgb(255,255,255)" fill-opacity="1.0" stroke="rgb(0,0,0)" stroke-width="2"  />
			<g>
				<title>HopA1 (PF17914)
"HopA1 effector protein family"</title>
				<polygon class="PF17914" points="712,40 724,28 725,28 725,52 724,52" stroke-linejoin="round" width="17" height="24" fill="rgb(80,208,205)" stroke="rgb(64,166,164)" stroke-width="1" opacity="0.75" />
			</g>
		</g>
		<g>
			<title> (IF43_RS0103505)
phosphotransferase</title>
			<polygon class=" (IF43_RS0103505)
phosphotransferase" points="774,25 771,25 771,10 741,40 771,70 771,55 774,55" fill="rgb(255,255,255)" fill-opacity="1.0" stroke="rgb(0,0,0)" stroke-width="2"  />
			<g>
				<title>APH (PF01636)
"Phosphotransferase enzyme family"</title>
				<polygon class="PF01636" points="749,36 757,28 773,28 773,52 757,52 749,44" stroke-linejoin="round" width="24" height="24" fill="rgb(148,65,211)" stroke="rgb(118,51,168)" stroke-width="1" opacity="0.75" />
			</g>
		</g>
		<g>
			<title>tvaA (IF43_RS0103510)
thioviridamide family RiPP peptide</title>
			<polygon class="tvaA (IF43_RS0103510)
thioviridamide family RiPP peptide" points="780,40 788,10 788,70" fill="rgb(255,255,255)" fill-opacity="1.0" stroke="rgb(0,0,0)" stroke-width="2"  />
		</g>
		<g>
			<title> (IF43_RS0103520)
DNA polymerase III subunit gamma and tau</title>
			<polygon class=" (IF43_RS0103520)
DNA polymerase III subunit gamma and tau" points="832,25 877,25 877,10 907,40 877,70 877,55 832,55" fill="rgb(255,255,255)" fill-opacity="1.0" stroke="rgb(0,0,0)" stroke-width="2"  />
			<g>
				<title>DNA_pol3_delta2 (PF13177)
"DNA polymerase III, delta subunit"</title>
				<rect class="PF13177" x="834" y="28" stroke-linejoin="round" width="16" height="24" fill="rgb(68,92,216)" stroke="rgb(54,73,172)" stroke-width="1" opacity="0.75" />
			</g>
			<g>
				<title>DNA_pol3_gamma3 (PF12169)
"DNA polymerase III subunits gamma and tau domain III"</title>
				<rect class="PF12169" x="855" y="28" stroke-linejoin="round" width="14" height="24" fill="rgb(82,129,198)" stroke="rgb(65,103,158)" stroke-width="1" opacity="0.75" />
			</g>
		</g>
		<g>
			<title>purD (IF43_RS0103525)
phosphoribosylamine--glycine ligase</title>
			<polygon class="purD (IF43_RS0103525)
phosphoribosylamine--glycine ligase" points="910,25 921,25 921,10 951,40 921,70 921,55 910,55" fill="rgb(255,255,255)" fill-opacity="1.0" stroke="rgb(0,0,0)" stroke-width="2"  />
			<g>
				<title>GARS_N (PF02844)
"Phosphoribosylglycinamide synthetase, N domain"</title>
				<rect class="PF02844" x="910" y="28" stroke-linejoin="round" width="9" height="24" fill="rgb(167,99,202)" stroke="rgb(133,79,161)" stroke-width="1" opacity="0.75" />
			</g>
			<g>
				<title>GARS_A (PF01071)
"Phosphoribosylglycinamide synthetase, ATP-grasp (A) domain"</title>
				<polygon class="PF01071" points="920,28 935,28 938,31 938,49 935,52 920,52" stroke-linejoin="round" width="18" height="24" fill="rgb(206,138,64)" stroke="rgb(164,110,51)" stroke-width="1" opacity="0.75" />
			</g>
			<g>
				<title>GARS_C (PF02843)
"Phosphoribosylglycinamide synthetase, C domain"</title>
				<polygon class="PF02843" points="941,34 947,40 941,46" stroke-linejoin="round" width="9" height="24" fill="rgb(52,201,119)" stroke="rgb(41,160,95)" stroke-width="1" opacity="0.75" />
			</g>
		</g>
		<g>
			<title> (IF43_RS0103530)
membrane protein</title>
			<polygon class=" (IF43_RS0103530)
membrane protein" points="962,25 990,25 990,10 1020,40 990,70 990,55 962,55" fill="rgb(255,255,255)" fill-opacity="1.0" stroke="rgb(0,0,0)" stroke-width="2"  />
		</g>
		<g>
			<title> (IF43_RS0103535)
phosphoribosylamine--glycine ligase</title>
			<polygon class=" (IF43_RS0103535)
phosphoribosylamine--glycine ligase" points="1027,25 1049,25 1049,10 1079,40 1049,70 1049,55 1027,55" fill="rgb(255,255,255)" fill-opacity="1.0" stroke="rgb(0,0,0)" stroke-width="2"  />
			<g>
				<title>DMFA2_C (PF20254)
"N,N-dimethylformamidase beta subunit-like, C-terminal"</title>
				<polygon class="PF20254" points="1040,28 1062,28 1074,40 1062,52 1040,52" stroke-linejoin="round" width="37" height="24" fill="rgb(190,74,130)" stroke="rgb(152,59,103)" stroke-width="1" opacity="0.75" />
			</g>
		</g>
		<g>
			<title> (IF43_RS0103540)
phosphoribosylaminoimidazolesuccinocarboxamide synthase</title>
			<polygon class=" (IF43_RS0103540)
phosphoribosylaminoimidazolesuccinocarboxamide synthase" points="1082,25 1082,25 1082,10 1112,40 1082,70 1082,55 1082,55" fill="rgb(255,255,255)" fill-opacity="1.0" stroke="rgb(0,0,0)" stroke-width="2"  />
			<g>
				<title>SAICAR_synt (PF01259)
"SAICAR synthetase"</title>
				<polygon class="PF01259" points="1083,28 1095,28 1107,40 1095,52 1083,52" stroke-linejoin="round" width="25" height="24" fill="rgb(199,186,94)" stroke="rgb(159,148,75)" stroke-width="1" opacity="0.75" />
			</g>
		</g>
		<g>
			<title> (IF43_RS0103550)
response regulator transcription factor</title>
			<polygon class=" (IF43_RS0103550)
response regulator transcription factor" points="1121,40 1142,10 1142,70" fill="rgb(255,255,255)" fill-opacity="1.0" stroke="rgb(0,0,0)" stroke-width="2"  />
			<g>
				<title>GerE (PF00196)
"Bacterial regulatory proteins, luxR family"</title>
				<polygon class="PF00196" points="1125,40 1126,39 1126,41" stroke-linejoin="round" width="5" height="24" fill="rgb(92,157,199)" stroke="rgb(73,125,159)" stroke-width="1" opacity="0.75" />
			</g>
			<g>
				<title>Response_reg (PF00072)
"Response regulator receiver domain"</title>
				<polygon class="PF00072" points="1129,34 1134,28 1140,28 1140,52 1134,52 1129,46" stroke-linejoin="round" width="11" height="24" fill="rgb(66,217,80)" stroke="rgb(52,173,64)" stroke-width="1" opacity="0.75" />
			</g>
		</g>
		<g>
			<title> (IF43_RS0103555)
histidine kinase</title>
			<polygon class=" (IF43_RS0103555)
histidine kinase" points="1186,25 1174,25 1174,10 1144,40 1174,70 1174,55 1186,55" fill="rgb(255,255,255)" fill-opacity="1.0" stroke="rgb(0,0,0)" stroke-width="2"  />
			<g>
				<title>HisKA_3 (PF07730)
"Histidine kinase"</title>
				<polygon class="PF07730" points="1158,30 1160,28 1164,28 1164,52 1160,52 1158,50" stroke-linejoin="round" width="6" height="24" fill="rgb(63,182,136)" stroke="rgb(50,145,108)" stroke-width="1" opacity="0.75" />
			</g>
		</g>
		<g>
			<title> (IF43_RS0103560)
ABC transporter permease</title>
			<polygon class=" (IF43_RS0103560)
ABC transporter permease" points="1187,40 1213,10 1213,70" fill="rgb(255,255,255)" fill-opacity="1.0" stroke="rgb(0,0,0)" stroke-width="2"  />
			<g>
				<title>ABC2_membrane (PF01061)
"ABC-2 type transporter"</title>
				<polygon class="PF01061" points="1191,40 1202,28 1211,28 1211,52 1202,52" stroke-linejoin="round" width="21" height="24" fill="rgb(79,142,184)" stroke="rgb(63,113,147)" stroke-width="1" opacity="0.75" />
			</g>
		</g>
		<g>
			<title> (IF43_RS0103565)
ABC transporter ATP-binding protein</title>
			<polygon class=" (IF43_RS0103565)
ABC transporter ATP-binding protein" points="1246,25 1244,25 1244,10 1214,40 1244,70 1244,55 1246,55" fill="rgb(255,255,255)" fill-opacity="1.0" stroke="rgb(0,0,0)" stroke-width="2"  />
			<g>
				<title>ABC_tran (PF00005)
"ABC transporter"</title>
				<polygon class="PF00005" points="1228,30 1230,28 1242,28 1242,52 1230,52 1228,50" stroke-linejoin="round" width="14" height="24" fill="rgb(212,56,157)" stroke="rgb(169,44,125)" stroke-width="1" opacity="0.75" />
			</g>
		</g>
		<g>
			<title> (IF43_RS0103580)
Lsr2 family protein</title>
			<polygon class=" (IF43_RS0103580)
Lsr2 family protein" points="1263,40 1273,10 1273,70" fill="rgb(255,255,255)" fill-opacity="1.0" stroke="rgb(0,0,0)" stroke-width="2"  />
			<g>
				<title>Lsr2 (PF11774)
"Lsr2"</title>
				<polygon class="PF11774" points="1266,40 1270,28 1273,28 1273,52 1270,52" stroke-linejoin="round" width="10" height="24" fill="rgb(207,198,98)" stroke="rgb(165,158,78)" stroke-width="1" opacity="0.75" />
			</g>
		</g>
		<g>
			<title>purS (IF43_RS0103585)
phosphoribosylformylglycinamidine synthase subunit PurS</title>
			<polygon class="purS (IF43_RS0103585)
phosphoribosylformylglycinamidine synthase subunit PurS" points="1285,10 1293,40 1285,70" fill="rgb(255,255,255)" fill-opacity="1.0" stroke="rgb(0,0,0)" stroke-width="2"  />
			<g>
				<title>PurS (PF02700)
"Phosphoribosylformylglycinamidine (FGAM) synthase"</title>
				<polygon class="PF02700" points="1285,28 1286,28 1290,40 1286,52 1285,52" stroke-linejoin="round" width="7" height="24" fill="rgb(154,181,88)" stroke="rgb(123,144,70)" stroke-width="1" opacity="0.75" />
			</g>
		</g>
		<g>
			<title>purQ (IF43_RS0103590)
phosphoribosylformylglycinamidine synthase subunit PurQ</title>
			<polygon class="purQ (IF43_RS0103590)
phosphoribosylformylglycinamidine synthase subunit PurQ" points="1293,10 1315,40 1293,70" fill="rgb(255,255,255)" fill-opacity="1.0" stroke="rgb(0,0,0)" stroke-width="2"  />
			<g>
				<title>GATase_5 (PF13507)
"CobB/CobQ-like glutamine amidotransferase domain"</title>
				<polygon class="PF13507" points="1293,28 1303,28 1311,40 1303,52 1293,52" stroke-linejoin="round" width="20" height="24" fill="rgb(100,67,205)" stroke="rgb(79,53,164)" stroke-width="1" opacity="0.75" />
			</g>
		</g>
		<g>
			<title>purL (IF43_RS0103595)
phosphoribosylformylglycinamidine synthase subunit PurL</title>
			<polygon class="purL (IF43_RS0103595)
phosphoribosylformylglycinamidine synthase subunit PurL" points="1315,25 1360,25 1360,10 1390,40 1360,70 1360,55 1315,55" fill="rgb(255,255,255)" fill-opacity="1.0" stroke="rgb(0,0,0)" stroke-width="2"  />
			<g>
				<title>FGAR-AT_linker (PF18072)
"Formylglycinamide ribonucleotide amidotransferase linker domain"</title>
				<rect class="PF18072" x="1316" y="28" stroke-linejoin="round" width="4" height="24" fill="rgb(50,181,76)" stroke="rgb(40,144,60)" stroke-width="1" opacity="0.75" />
			</g>
			<g>
				<title>AIRS (PF00586)
"AIR synthase related protein, N-terminal domain"</title>
				<rect class="PF00586" x="1323" y="28" stroke-linejoin="round" width="11" height="24" fill="rgb(96,85,180)" stroke="rgb(76,68,144)" stroke-width="1" opacity="0.75" />
			</g>
			<g>
				<title>AIRS_C (PF02769)
"AIR synthase related protein, C-terminal domain"</title>
				<rect class="PF02769" x="1336" y="28" stroke-linejoin="round" width="15" height="24" fill="rgb(214,68,74)" stroke="rgb(171,54,59)" stroke-width="1" opacity="0.75" />
			</g>
			<g>
				<title>AIRS (PF00586)
"AIR synthase related protein, N-terminal domain"</title>
				<rect class="PF00586" x="1360" y="28" stroke-linejoin="round" width="12" height="24" fill="rgb(96,85,180)" stroke="rgb(76,68,144)" stroke-width="1" opacity="0.75" />
			</g>
			<g>
				<title>AIRS_C (PF02769)
"AIR synthase related protein, C-terminal domain"</title>
				<polygon class="PF02769" points="1373,28 1373,28 1385,40 1373,52 1373,52" stroke-linejoin="round" width="14" height="24" fill="rgb(214,68,74)" stroke="rgb(171,54,59)" stroke-width="1" opacity="0.75" />
			</g>
		</g>
		<g>
			<title> (IF43_RS0103600)
maleylpyruvate isomerase family mycothiol-dependent enzyme</title>
			<polygon class=" (IF43_RS0103600)
maleylpyruvate isomerase family mycothiol-dependent enzyme" points="1393,10 1419,40 1393,70" fill="rgb(255,255,255)" fill-opacity="1.0" stroke="rgb(0,0,0)" stroke-width="2"  />
			<g>
				<title>MDMPI_N (PF11716)
"Mycothiol maleylpyruvate isomerase N-terminal domain"</title>
				<polygon class="PF11716" points="1395,28 1405,28 1408,32 1408,48 1405,52 1395,52" stroke-linejoin="round" width="13" height="24" fill="rgb(201,166,98)" stroke="rgb(160,132,78)" stroke-width="1" opacity="0.75" />
			</g>
			<g>
				<title>SCP_3 (PF17844)
"Bacterial SCP ortholog"</title>
				<polygon class="PF17844" points="1409,33 1415,40 1409,47" stroke-linejoin="round" width="9" height="24" fill="rgb(139,180,76)" stroke="rgb(111,144,60)" stroke-width="1" opacity="0.75" />
			</g>
		</g>
		<g>
			<title> (IF43_RS0103605)
META domain-containing protein</title>
			<polygon class=" (IF43_RS0103605)
META domain-containing protein" points="1421,10 1437,40 1421,70" fill="rgb(255,255,255)" fill-opacity="1.0" stroke="rgb(0,0,0)" stroke-width="2"  />
			<g>
				<title>META (PF03724)
"META domain"</title>
				<polygon class="PF03724" points="1425,28 1427,28 1433,40 1427,52 1425,52" stroke-linejoin="round" width="11" height="24" fill="rgb(197,132,87)" stroke="rgb(157,105,69)" stroke-width="1" opacity="0.75" />
			</g>
		</g>
	</g>
</svg>
