<svg version="1.1" baseProfile="full" xmlns="http://www.w3.org/2000/svg" width="857.3666666666667" height="80">
	<g>
		<line x1="10" y1="40.0" x2="847.3666666666667" y2="40.0" style="stroke:rgb(70,70,70); stroke-width:3 "/>
		<g>
			<title>SCO7681
putative AMP-binding ligase</title>
			<polygon class="SCO7681
putative AMP-binding ligase" points="65,25 40,25 40,10 10,40 40,70 40,55 65,55" fill="rgb(255,255,255)" fill-opacity="1.0" stroke="rgb(0,0,0)" stroke-width="2"  />
			<g>
				<title>AMP-binding_C (PF13193)
"AMP-binding enzyme C-terminal domain"</title>
				<polygon class="PF13193" points="14,40 18,36 18,44" stroke-linejoin="round" width="7" height="24" fill="rgb(132,90,189)" stroke="rgb(105,72,151)" stroke-width="1" opacity="0.75" />
			</g>
			<g>
				<title>AMP-binding (PF00501)
"AMP-binding enzyme"</title>
				<polygon class="PF00501" points="24,30 26,28 62,28 62,52 26,52 24,50" stroke-linejoin="round" width="38" height="24" fill="rgb(55,217,101)" stroke="rgb(44,173,80)" stroke-width="1" opacity="0.75" />
			</g>
		</g>
		<g>
			<title>SCO7682
putative non-ribosomal peptide synthase</title>
			<polygon class="SCO7682
putative non-ribosomal peptide synthase" points="70,25 263,25 263,10 293,40 263,70 263,55 70,55" fill="rgb(255,255,255)" fill-opacity="1.0" stroke="rgb(0,0,0)" stroke-width="2"  />
			<g>
				<title>PP-binding (PF00550)
"Phosphopantetheine attachment site"</title>
				<rect class="PF00550" x="71" y="28" stroke-linejoin="round" width="6" height="24" fill="rgb(204,86,134)" stroke="rgb(163,68,107)" stroke-width="1" opacity="0.75" />
			</g>
			<g>
				<title>Condensation (PF00668)
"Condensation domain"</title>
				<rect class="PF00668" x="80" y="28" stroke-linejoin="round" width="43" height="24" fill="rgb(110,84,180)" stroke="rgb(87,67,144)" stroke-width="1" opacity="0.75" />
			</g>
			<g>
				<title>AMP-binding (PF00501)
"AMP-binding enzyme"</title>
				<rect class="PF00501" x="127" y="28" stroke-linejoin="round" width="34" height="24" fill="rgb(55,217,101)" stroke="rgb(44,173,80)" stroke-width="1" opacity="0.75" />
			</g>
			<g>
				<title>AMP-binding_C (PF13193)
"AMP-binding enzyme C-terminal domain"</title>
				<rect class="PF13193" x="167" y="28" stroke-linejoin="round" width="7" height="24" fill="rgb(132,90,189)" stroke="rgb(105,72,151)" stroke-width="1" opacity="0.75" />
			</g>
			<g>
				<title>PP-binding (PF00550)
"Phosphopantetheine attachment site"</title>
				<rect class="PF00550" x="177" y="28" stroke-linejoin="round" width="6" height="24" fill="rgb(204,86,134)" stroke="rgb(163,68,107)" stroke-width="1" opacity="0.75" />
			</g>
			<g>
				<title>Condensation (PF00668)
"Condensation domain"</title>
				<rect class="PF00668" x="189" y="28" stroke-linejoin="round" width="39" height="24" fill="rgb(110,84,180)" stroke="rgb(87,67,144)" stroke-width="1" opacity="0.75" />
			</g>
			<g>
				<title>AMP-binding (PF00501)
"AMP-binding enzyme"</title>
				<rect class="PF00501" x="233" y="28" stroke-linejoin="round" width="35" height="24" fill="rgb(55,217,101)" stroke="rgb(44,173,80)" stroke-width="1" opacity="0.75" />
			</g>
			<g>
				<title>AMP-binding_C (PF13193)
"AMP-binding enzyme C-terminal domain"</title>
				<polygon class="PF13193" points="273,28 276,28 281,33 281,47 276,52 273,52" stroke-linejoin="round" width="8" height="24" fill="rgb(132,90,189)" stroke="rgb(105,72,151)" stroke-width="1" opacity="0.75" />
			</g>
			<g>
				<title>PP-binding (PF00550)
"Phosphopantetheine attachment site"</title>
				<polygon class="PF00550" points="285,37 288,40 285,43" stroke-linejoin="round" width="6" height="24" fill="rgb(204,86,134)" stroke="rgb(163,68,107)" stroke-width="1" opacity="0.75" />
			</g>
		</g>
		<g>
			<title>SCO7683
putative non-ribosomal peptide synthase</title>
			<polygon class="SCO7683
putative non-ribosomal peptide synthase" points="293,25 447,25 447,10 477,40 447,70 447,55 293,55" fill="rgb(255,255,255)" fill-opacity="1.0" stroke="rgb(0,0,0)" stroke-width="2"  />
			<g>
				<title>TubC_N (PF18563)
"TubC N-terminal docking domain"</title>
				<rect class="PF18563" x="293" y="28" stroke-linejoin="round" width="5" height="24" fill="rgb(154,181,57)" stroke="rgb(123,144,45)" stroke-width="1" opacity="0.75" />
			</g>
			<g>
				<title>Condensation (PF00668)
"Condensation domain"</title>
				<rect class="PF00668" x="300" y="28" stroke-linejoin="round" width="42" height="24" fill="rgb(110,84,180)" stroke="rgb(87,67,144)" stroke-width="1" opacity="0.75" />
			</g>
			<g>
				<title>AMP-binding (PF00501)
"AMP-binding enzyme"</title>
				<rect class="PF00501" x="347" y="28" stroke-linejoin="round" width="35" height="24" fill="rgb(55,217,101)" stroke="rgb(44,173,80)" stroke-width="1" opacity="0.75" />
			</g>
			<g>
				<title>Methyltransf_12 (PF08242)
"Methyltransferase domain"</title>
				<rect class="PF08242" x="412" y="28" stroke-linejoin="round" width="10" height="24" fill="rgb(197,69,109)" stroke="rgb(157,55,87)" stroke-width="1" opacity="0.75" />
			</g>
			<g>
				<title>PP-binding (PF00550)
"Phosphopantetheine attachment site"</title>
				<rect class="PF00550" x="437" y="28" stroke-linejoin="round" width="7" height="24" fill="rgb(204,86,134)" stroke="rgb(163,68,107)" stroke-width="1" opacity="0.75" />
			</g>
			<g>
				<title>Thioesterase (PF00975)
"Thioesterase domain"</title>
				<rect class="PF00975" x="447" y="28" stroke-linejoin="round" width="12" height="24" fill="rgb(213,93,173)" stroke="rgb(170,74,138)" stroke-width="1" opacity="0.75" />
			</g>
		</g>
		<g>
			<title>SCO7684
conserved hypothetical protein</title>
			<polygon class="SCO7684
conserved hypothetical protein" points="477,25 485,25 485,10 515,40 485,70 485,55 477,55" fill="rgb(255,255,255)" fill-opacity="1.0" stroke="rgb(0,0,0)" stroke-width="2"  />
			<g>
				<title>Sacchrp_dh_NADP (PF03435)
"Saccharopine dehydrogenase NADP binding domain"</title>
				<rect class="PF03435" x="477" y="28" stroke-linejoin="round" width="12" height="24" fill="rgb(208,218,55)" stroke="rgb(166,174,44)" stroke-width="1" opacity="0.75" />
			</g>
		</g>
		<g>
			<title>SCO7685
conserved hypothetical protein</title>
			<polygon class="SCO7685
conserved hypothetical protein" points="516,25 553,25 553,10 583,40 553,70 553,55 516,55" fill="rgb(255,255,255)" fill-opacity="1.0" stroke="rgb(0,0,0)" stroke-width="2"  />
			<g>
				<title>GFO_IDH_MocA (PF01408)
"Oxidoreductase family, NAD-binding Rossmann fold"</title>
				<rect class="PF01408" x="516" y="28" stroke-linejoin="round" width="11" height="24" fill="rgb(184,60,129)" stroke="rgb(147,48,103)" stroke-width="1" opacity="0.75" />
			</g>
			<g>
				<title>Irp3-like_C (PF21390)
"Thiazolinyl imine reductase Irp3-like, C-terminal"</title>
				<rect class="PF21390" x="530" y="28" stroke-linejoin="round" width="10" height="24" fill="rgb(188,97,202)" stroke="rgb(150,77,161)" stroke-width="1" opacity="0.75" />
			</g>
			<g>
				<title>Methyltransf_12 (PF08242)
"Methyltransferase domain"</title>
				<polygon class="PF08242" points="561,28 567,28 570,31 570,49 567,52 561,52" stroke-linejoin="round" width="9" height="24" fill="rgb(197,69,109)" stroke="rgb(157,55,87)" stroke-width="1" opacity="0.75" />
			</g>
		</g>
		<g>
			<title>SCO7686
putative cytochrome P450</title>
			<polygon class="SCO7686
putative cytochrome P450" points="584,25 595,25 595,10 625,40 595,70 595,55 584,55" fill="rgb(255,255,255)" fill-opacity="1.0" stroke="rgb(0,0,0)" stroke-width="2"  />
			<g>
				<title>p450 (PF00067)
"Cytochrome P450"</title>
				<polygon class="PF00067" points="601,28 608,28 620,40 608,52 601,52" stroke-linejoin="round" width="20" height="24" fill="rgb(181,156,64)" stroke="rgb(144,124,51)" stroke-width="1" opacity="0.75" />
			</g>
		</g>
		<g>
			<title>SCO7687
putative thioesterase</title>
			<polygon class="SCO7687
putative thioesterase" points="625,10 652,40 625,70" fill="rgb(255,255,255)" fill-opacity="1.0" stroke="rgb(0,0,0)" stroke-width="2"  />
			<g>
				<title>Thioesterase (PF00975)
"Thioesterase domain"</title>
				<polygon class="PF00975" points="628,28 637,28 648,40 637,52 628,52" stroke-linejoin="round" width="22" height="24" fill="rgb(213,93,173)" stroke="rgb(170,74,138)" stroke-width="1" opacity="0.75" />
			</g>
		</g>
		<g>
			<title>SCO7688
conserved hypothetical protein</title>
			<polygon class="SCO7688
conserved hypothetical protein" points="653,10 677,40 653,70" fill="rgb(255,255,255)" fill-opacity="1.0" stroke="rgb(0,0,0)" stroke-width="2"  />
			<g>
				<title>Methyltransf_25 (PF13649)
"Methyltransferase domain"</title>
				<polygon class="PF13649" points="657,28 664,28 666,31 666,49 664,52 657,52" stroke-linejoin="round" width="9" height="24" fill="rgb(86,212,127)" stroke="rgb(68,169,101)" stroke-width="1" opacity="0.75" />
			</g>
		</g>
		<g>
			<title>SCO7689
putative ABC transporter ATP-binding protein</title>
			<polygon class="SCO7689
putative ABC transporter ATP-binding protein" points="678,25 708,25 708,10 738,40 708,70 708,55 678,55" fill="rgb(255,255,255)" fill-opacity="1.0" stroke="rgb(0,0,0)" stroke-width="2"  />
			<g>
				<title>ABC_membrane (PF00664)
"ABC transporter transmembrane region"</title>
				<rect class="PF00664" x="682" y="28" stroke-linejoin="round" width="27" height="24" fill="rgb(191,107,84)" stroke="rgb(152,85,67)" stroke-width="1" opacity="0.75" />
			</g>
			<g>
				<title>ABC_tran (PF00005)
"ABC transporter"</title>
				<polygon class="PF00005" points="715,28 722,28 729,35 729,45 722,52 715,52" stroke-linejoin="round" width="14" height="24" fill="rgb(212,56,157)" stroke="rgb(169,44,125)" stroke-width="1" opacity="0.75" />
			</g>
		</g>
		<g>
			<title>SCO7690
putative ABC transporter ATP-binding protein</title>
			<polygon class="SCO7690
putative ABC transporter ATP-binding protein" points="739,25 767,25 767,10 797,40 767,70 767,55 739,55" fill="rgb(255,255,255)" fill-opacity="1.0" stroke="rgb(0,0,0)" stroke-width="2"  />
			<g>
				<title>ABC_membrane (PF00664)
"ABC transporter transmembrane region"</title>
				<rect class="PF00664" x="740" y="28" stroke-linejoin="round" width="26" height="24" fill="rgb(191,107,84)" stroke="rgb(152,85,67)" stroke-width="1" opacity="0.75" />
			</g>
			<g>
				<title>ABC_tran (PF00005)
"ABC transporter"</title>
				<polygon class="PF00005" points="774,28 781,28 788,35 788,45 781,52 774,52" stroke-linejoin="round" width="14" height="24" fill="rgb(212,56,157)" stroke="rgb(169,44,125)" stroke-width="1" opacity="0.75" />
			</g>
		</g>
		<g>
			<title>SCO7691
putative lyase</title>
			<polygon class="SCO7691
putative lyase" points="800,25 817,25 817,10 847,40 817,70 817,55 800,55" fill="rgb(255,255,255)" fill-opacity="1.0" stroke="rgb(0,0,0)" stroke-width="2"  />
			<g>
				<title>Chorismate_bind (PF00425)
"chorismate binding enzyme"</title>
				<polygon class="PF00425" points="820,28 830,28 842,40 830,52 820,52" stroke-linejoin="round" width="25" height="24" fill="rgb(73,124,199)" stroke="rgb(58,99,159)" stroke-width="1" opacity="0.75" />
			</g>
		</g>
	</g>
</svg>
