<svg version="1.1" baseProfile="full" xmlns="http://www.w3.org/2000/svg" width="3246.5" height="80">
	<g>
		<line x1="10" y1="40.0" x2="3236.5" y2="40.0" style="stroke:rgb(70,70,70); stroke-width:3 "/>
		<g>
			<title>
methyltransferase</title>
			<polygon class="
methyltransferase" points="62,25 43,25 43,10 13,40 43,70 43,55 62,55" fill="rgb(255,255,255)" fill-opacity="1.0" stroke="rgb(0,0,0)" stroke-width="2"  />
			<g>
				<title>Methyltransf_12 (PF08242)
"Methyltransferase domain"</title>
				<polygon class="PF08242" points="22,35 29,28 32,28 32,52 29,52 22,45" stroke-linejoin="round" width="10" height="24" fill="rgb(116,77,193)" stroke="rgb(92,61,154)" stroke-width="1" opacity="0.75" />
			</g>
			<g>
				<title>Hen1_L (PF12623)
"RNA repair, ligase-Pnkp-associating, region of Hen1"</title>
				<rect class="PF12623" x="37" y="28" stroke-linejoin="round" width="24" height="24" fill="rgb(88,91,193)" stroke="rgb(70,72,154)" stroke-width="1" opacity="0.75" />
			</g>
		</g>
		<g>
			<title>
homocysteine S-methyltransferase</title>
			<polygon class="
homocysteine S-methyltransferase" points="96,25 96,25 96,10 66,40 96,70 96,55 96,55" fill="rgb(255,255,255)" fill-opacity="1.0" stroke="rgb(0,0,0)" stroke-width="2"  />
			<g>
				<title>S-methyl_trans (PF02574)
"Homocysteine S-methyltransferase"</title>
				<polygon class="PF02574" points="70,40 82,28 94,28 94,52 82,52" stroke-linejoin="round" width="28" height="24" fill="rgb(71,214,127)" stroke="rgb(56,171,101)" stroke-width="1" opacity="0.75" />
			</g>
		</g>
		<g>
			<title>
monooxygenase</title>
			<polygon class="
monooxygenase" points="128,25 128,25 128,10 98,40 128,70 128,55 128,55" fill="rgb(255,255,255)" fill-opacity="1.0" stroke="rgb(0,0,0)" stroke-width="2"  />
			<g>
				<title>Bac_luciferase (PF00296)
"Luciferase-like monooxygenase"</title>
				<polygon class="PF00296" points="103,39 114,28 128,28 128,52 114,52 103,41" stroke-linejoin="round" width="25" height="24" fill="rgb(193,195,67)" stroke="rgb(154,156,53)" stroke-width="1" opacity="0.75" />
			</g>
		</g>
		<g>
			<title>
hypothetical protein</title>
			<polygon class="
hypothetical protein" points="137,10 143,40 137,70" fill="rgb(255,255,255)" fill-opacity="1.0" stroke="rgb(0,0,0)" stroke-width="2"  />
		</g>
		<g>
			<title>
hypotheticl protein</title>
			<polygon class="
hypotheticl protein" points="144,40 159,10 159,70" fill="rgb(255,255,255)" fill-opacity="1.0" stroke="rgb(0,0,0)" stroke-width="2"  />
			<g>
				<title>DUF6099 (PF19594)
"Family of unknown function (DUF6099)"</title>
				<polygon class="PF19594" points="147,40 153,28 159,28 159,52 153,52" stroke-linejoin="round" width="14" height="24" fill="rgb(220,62,90)" stroke="rgb(176,49,72)" stroke-width="1" opacity="0.75" />
			</g>
		</g>
		<g>
			<title>
hypothetical protein</title>
			<polygon class="
hypothetical protein" points="166,40 180,10 180,70" fill="rgb(255,255,255)" fill-opacity="1.0" stroke="rgb(0,0,0)" stroke-width="2"  />
			<g>
				<title>MazG-like (PF12643)
"MazG-like family"</title>
				<polygon class="PF12643" points="169,40 174,29 174,51" stroke-linejoin="round" width="8" height="24" fill="rgb(211,103,128)" stroke="rgb(168,82,102)" stroke-width="1" opacity="0.75" />
			</g>
		</g>
		<g>
			<title>
bldA-regulated nucleotide binding protein</title>
			<polygon class="
bldA-regulated nucleotide binding protein" points="219,25 209,25 209,10 179,40 209,70 209,55 219,55" fill="rgb(255,255,255)" fill-opacity="1.0" stroke="rgb(0,0,0)" stroke-width="2"  />
		</g>
		<g>
			<title>
hypothetical protein</title>
			<polygon class="
hypothetical protein" points="221,40 234,10 234,70" fill="rgb(255,255,255)" fill-opacity="1.0" stroke="rgb(0,0,0)" stroke-width="2"  />
			<g>
				<title>SepF (PF04472)
"Cell division protein SepF"</title>
				<polygon class="PF04472" points="224,40 229,28 229,28 229,52 229,52" stroke-linejoin="round" width="7" height="24" fill="rgb(195,74,121)" stroke="rgb(156,59,96)" stroke-width="1" opacity="0.75" />
			</g>
		</g>
		<g>
			<title>
TetR-family transcriptional regulator</title>
			<polygon class="
TetR-family transcriptional regulator" points="239,40 259,10 259,70" fill="rgb(255,255,255)" fill-opacity="1.0" stroke="rgb(0,0,0)" stroke-width="2"  />
			<g>
				<title>TetR_C_11 (PF16859)
"Tetracyclin repressor-like, C-terminal domain"</title>
				<polygon class="PF16859" points="243,40 251,28 251,28 251,52 251,52" stroke-linejoin="round" width="11" height="24" fill="rgb(181,139,70)" stroke="rgb(144,111,56)" stroke-width="1" opacity="0.75" />
			</g>
			<g>
				<title>TetR_N (PF00440)
"Bacterial regulatory proteins, tetR family"</title>
				<rect class="PF00440" x="252" y="28" stroke-linejoin="round" width="4" height="24" fill="rgb(176,186,75)" stroke="rgb(140,148,60)" stroke-width="1" opacity="0.75" />
			</g>
		</g>
		<g>
			<title>
hypothetical protein</title>
			<polygon class="
hypothetical protein" points="263,10 269,40 263,70" fill="rgb(255,255,255)" fill-opacity="1.0" stroke="rgb(0,0,0)" stroke-width="2"  />
			<g>
				<title>DUF6243 (PF19756)
"Family of unknown function (DUF6243)"</title>
				<polygon class="PF19756" points="263,28 263,28 266,40 263,52 263,52" stroke-linejoin="round" width="6" height="24" fill="rgb(207,55,108)" stroke="rgb(165,43,86)" stroke-width="1" opacity="0.75" />
			</g>
		</g>
		<g>
			<title>macR
23S rRNA methyltransferase</title>
			<polygon class="macR
23S rRNA methyltransferase" points="303,25 302,25 302,10 272,40 302,70 302,55 303,55" fill="rgb(255,255,255)" fill-opacity="1.0" stroke="rgb(0,0,0)" stroke-width="2"  />
			<g>
				<title>RrnaAD (PF00398)
"Ribosomal RNA adenine dimethylase"</title>
				<polygon class="PF00398" points="276,40 288,28 299,28 299,52 288,52" stroke-linejoin="round" width="25" height="24" fill="rgb(91,71,191)" stroke="rgb(72,56,152)" stroke-width="1" opacity="0.75" />
			</g>
		</g>
		<g>
			<title>lcmN
ABC transporter ATP-binding protein</title>
			<polygon class="lcmN
ABC transporter ATP-binding protein" points="320,25 345,25 345,10 375,40 345,70 345,55 320,55" fill="rgb(255,255,255)" fill-opacity="1.0" stroke="rgb(0,0,0)" stroke-width="2"  />
			<g>
				<title>ABC_tran (PF00005)
"ABC transporter"</title>
				<rect class="PF00005" x="322" y="28" stroke-linejoin="round" width="17" height="24" fill="rgb(207,100,105)" stroke="rgb(165,80,84)" stroke-width="1" opacity="0.75" />
			</g>
			<g>
				<title>ABC_tran (PF00005)
"ABC transporter"</title>
				<polygon class="PF00005" points="357,28 358,28 369,39 369,41 358,52 357,52" stroke-linejoin="round" width="12" height="24" fill="rgb(207,100,105)" stroke="rgb(165,80,84)" stroke-width="1" opacity="0.75" />
			</g>
		</g>
		<g>
			<title>lcmK
3-O-acetyltransferase</title>
			<polygon class="lcmK
3-O-acetyltransferase" points="382,25 391,25 391,10 421,40 391,70 391,55 382,55" fill="rgb(255,255,255)" fill-opacity="1.0" stroke="rgb(0,0,0)" stroke-width="2"  />
			<g>
				<title>Acyl_transf_3 (PF01757)
"Acyltransferase family"</title>
				<polygon class="PF01757" points="382,28 405,28 416,39 416,41 405,52 382,52" stroke-linejoin="round" width="34" height="24" fill="rgb(83,196,144)" stroke="rgb(66,156,115)" stroke-width="1" opacity="0.75" />
			</g>
		</g>
		<g>
			<title>lcmH
O-methyltransferase</title>
			<polygon class="lcmH
O-methyltransferase" points="423,10 445,40 423,70" fill="rgb(255,255,255)" fill-opacity="1.0" stroke="rgb(0,0,0)" stroke-width="2"  />
			<g>
				<title>Methyltransf_3 (PF01596)
"O-methyltransferase"</title>
				<polygon class="PF01596" points="424,28 432,28 441,40 432,52 424,52" stroke-linejoin="round" width="20" height="24" fill="rgb(131,91,206)" stroke="rgb(104,72,164)" stroke-width="1" opacity="0.75" />
			</g>
		</g>
		<g>
			<title>lcmBIII
mycaminosyl transferase</title>
			<polygon class="lcmBIII
mycaminosyl transferase" points="489,25 477,25 477,10 447,40 477,70 477,55 489,55" fill="rgb(255,255,255)" fill-opacity="1.0" stroke="rgb(0,0,0)" stroke-width="2"  />
			<g>
				<title>EryCIII-like_C (PF06722)
"Erythromycin biosynthesis protein CIII-like, C-terminal domain"</title>
				<polygon class="PF06722" points="451,40 462,29 462,51" stroke-linejoin="round" width="14" height="24" fill="rgb(56,179,145)" stroke="rgb(44,143,116)" stroke-width="1" opacity="0.75" />
			</g>
			<g>
				<title>EryCIII-like_N (PF21036)
"Erythromycin biosynthesis protein CIII-like, N-terminal domain"</title>
				<rect class="PF21036" x="464" y="28" stroke-linejoin="round" width="23" height="24" fill="rgb(65,201,78)" stroke="rgb(52,160,62)" stroke-width="1" opacity="0.75" />
			</g>
		</g>
		<g>
			<title>lcmBII
NDP-hexose-3,4-isomerase</title>
			<polygon class="lcmBII
NDP-hexose-3,4-isomerase" points="538,25 527,25 527,10 497,40 527,70 527,55 538,55" fill="rgb(255,255,255)" fill-opacity="1.0" stroke="rgb(0,0,0)" stroke-width="2"  />
		</g>
		<g>
			<title>lcmBI
NDP-aminohexose N-dimethyltransferase</title>
			<polygon class="lcmBI
NDP-aminohexose N-dimethyltransferase" points="544,40 567,10 567,70" fill="rgb(255,255,255)" fill-opacity="1.0" stroke="rgb(0,0,0)" stroke-width="2"  />
			<g>
				<title>Methyltransf_25 (PF13649)
"Methyltransferase domain"</title>
				<polygon class="PF13649" points="554,32 558,28 563,28 563,52 558,52 554,48" stroke-linejoin="round" width="9" height="24" fill="rgb(75,70,186)" stroke="rgb(59,56,148)" stroke-width="1" opacity="0.75" />
			</g>
		</g>
		<g>
			<title>lcmA5
modular polyketide synthase</title>
			<polygon class="lcmA5
modular polyketide synthase" points="752,25 597,25 597,10 567,40 597,70 597,55 752,55" fill="rgb(255,255,255)" fill-opacity="1.0" stroke="rgb(0,0,0)" stroke-width="2"  />
			<g>
				<title>Thioesterase (PF00975)
"Thioesterase domain"</title>
				<polygon class="PF00975" points="571,40 583,28 589,28 589,52 583,52" stroke-linejoin="round" width="21" height="24" fill="rgb(119,180,88)" stroke="rgb(95,144,70)" stroke-width="1" opacity="0.75" />
			</g>
			<g>
				<title>PP-binding (PF00550)
"Phosphopantetheine attachment site"</title>
				<rect class="PF00550" x="597" y="28" stroke-linejoin="round" width="6" height="24" fill="rgb(213,213,91)" stroke="rgb(170,170,72)" stroke-width="1" opacity="0.75" />
			</g>
			<g>
				<title>KR (PF08659)
"KR domain"</title>
				<rect class="PF08659" x="614" y="28" stroke-linejoin="round" width="17" height="24" fill="rgb(76,225,159)" stroke="rgb(60,180,127)" stroke-width="1" opacity="0.75" />
			</g>
			<g>
				<title>PKS_DE (PF18369)
"Polyketide synthase dimerisation element domain"</title>
				<rect class="PF18369" x="654" y="28" stroke-linejoin="round" width="4" height="24" fill="rgb(217,225,94)" stroke="rgb(173,180,75)" stroke-width="1" opacity="0.75" />
			</g>
			<g>
				<title>Acyl_transf_1 (PF00698)
"Acyl transferase domain"</title>
				<rect class="PF00698" x="664" y="28" stroke-linejoin="round" width="32" height="24" fill="rgb(179,70,174)" stroke="rgb(143,56,139)" stroke-width="1" opacity="0.75" />
			</g>
			<g>
				<title>KAsynt_C_assoc (PF16197)
"Ketoacyl-synthetase C-terminal extension"</title>
				<rect class="PF16197" x="700" y="28" stroke-linejoin="round" width="11" height="24" fill="rgb(140,82,208)" stroke="rgb(112,65,166)" stroke-width="1" opacity="0.75" />
			</g>
			<g>
				<title>Ketoacyl-synt_C (PF02801)
"Beta-ketoacyl synthase, C-terminal domain"</title>
				<rect class="PF02801" x="711" y="28" stroke-linejoin="round" width="11" height="24" fill="rgb(57,195,62)" stroke="rgb(45,156,49)" stroke-width="1" opacity="0.75" />
			</g>
			<g>
				<title>ketoacyl-synt (PF00109)
"Beta-ketoacyl synthase, N-terminal domain"</title>
				<rect class="PF00109" x="724" y="28" stroke-linejoin="round" width="25" height="24" fill="rgb(199,122,97)" stroke="rgb(159,97,77)" stroke-width="1" opacity="0.75" />
			</g>
			<g>
				<title>Docking (PF08990)
"Erythronolide synthase docking domain"</title>
				<rect class="PF08990" x="749" y="28" stroke-linejoin="round" width="2" height="24" fill="rgb(69,59,185)" stroke="rgb(55,47,148)" stroke-width="1" opacity="0.75" />
			</g>
		</g>
		<g>
			<title>lcmA4
modular polyketide synthase</title>
			<polygon class="lcmA4
modular polyketide synthase" points="910,25 785,25 785,10 755,40 785,70 785,55 910,55" fill="rgb(255,255,255)" fill-opacity="1.0" stroke="rgb(0,0,0)" stroke-width="2"  />
			<g>
				<title>PP-binding (PF00550)
"Phosphopantetheine attachment site"</title>
				<polygon class="PF00550" points="760,39 766,33 766,47 760,41" stroke-linejoin="round" width="6" height="24" fill="rgb(213,213,91)" stroke="rgb(170,170,72)" stroke-width="1" opacity="0.75" />
			</g>
			<g>
				<title>KR (PF08659)
"KR domain"</title>
				<rect class="PF08659" x="777" y="28" stroke-linejoin="round" width="17" height="24" fill="rgb(76,225,159)" stroke="rgb(60,180,127)" stroke-width="1" opacity="0.75" />
			</g>
			<g>
				<title>Acyl_transf_1 (PF00698)
"Acyl transferase domain"</title>
				<rect class="PF00698" x="821" y="28" stroke-linejoin="round" width="32" height="24" fill="rgb(179,70,174)" stroke="rgb(143,56,139)" stroke-width="1" opacity="0.75" />
			</g>
			<g>
				<title>KAsynt_C_assoc (PF16197)
"Ketoacyl-synthetase C-terminal extension"</title>
				<rect class="PF16197" x="857" y="28" stroke-linejoin="round" width="11" height="24" fill="rgb(140,82,208)" stroke="rgb(112,65,166)" stroke-width="1" opacity="0.75" />
			</g>
			<g>
				<title>Ketoacyl-synt_C (PF02801)
"Beta-ketoacyl synthase, C-terminal domain"</title>
				<rect class="PF02801" x="869" y="28" stroke-linejoin="round" width="11" height="24" fill="rgb(57,195,62)" stroke="rgb(45,156,49)" stroke-width="1" opacity="0.75" />
			</g>
			<g>
				<title>ketoacyl-synt (PF00109)
"Beta-ketoacyl synthase, N-terminal domain"</title>
				<rect class="PF00109" x="881" y="28" stroke-linejoin="round" width="25" height="24" fill="rgb(199,122,97)" stroke="rgb(159,97,77)" stroke-width="1" opacity="0.75" />
			</g>
			<g>
				<title>Docking (PF08990)
"Erythronolide synthase docking domain"</title>
				<rect class="PF08990" x="907" y="28" stroke-linejoin="round" width="2" height="24" fill="rgb(69,59,185)" stroke="rgb(55,47,148)" stroke-width="1" opacity="0.75" />
			</g>
		</g>
		<g>
			<title>lcmA3
modular polyketide synthase</title>
			<polygon class="lcmA3
modular polyketide synthase" points="1318,25 943,25 943,10 913,40 943,70 943,55 1318,55" fill="rgb(255,255,255)" fill-opacity="1.0" stroke="rgb(0,0,0)" stroke-width="2"  />
			<g>
				<title>PP-binding (PF00550)
"Phosphopantetheine attachment site"</title>
				<polygon class="PF00550" points="924,33 929,28 930,28 930,52 929,52 924,47" stroke-linejoin="round" width="6" height="24" fill="rgb(213,213,91)" stroke="rgb(170,170,72)" stroke-width="1" opacity="0.75" />
			</g>
			<g>
				<title>KR (PF08659)
"KR domain"</title>
				<rect class="PF08659" x="941" y="28" stroke-linejoin="round" width="17" height="24" fill="rgb(76,225,159)" stroke="rgb(60,180,127)" stroke-width="1" opacity="0.75" />
			</g>
			<g>
				<title>ADH_zinc_N_2 (PF13602)
"Zinc-binding dehydrogenase"</title>
				<rect class="PF13602" x="960" y="28" stroke-linejoin="round" width="13" height="24" fill="rgb(144,56,208)" stroke="rgb(115,44,166)" stroke-width="1" opacity="0.75" />
			</g>
			<g>
				<title>ADH_N (PF08240)
"Alcohol dehydrogenase GroES-like domain"</title>
				<rect class="PF08240" x="981" y="28" stroke-linejoin="round" width="7" height="24" fill="rgb(97,195,221)" stroke="rgb(77,155,176)" stroke-width="1" opacity="0.75" />
			</g>
			<g>
				<title>PS-DH (PF14765)
"Polyketide synthase dehydratase N-terminal domain"</title>
				<rect class="PF14765" x="1033" y="28" stroke-linejoin="round" width="15" height="24" fill="rgb(171,65,191)" stroke="rgb(136,52,152)" stroke-width="1" opacity="0.75" />
			</g>
			<g>
				<title>PKS_DH_N (PF21089)
"Polyketide synthase dehydratase domain"</title>
				<rect class="PF21089" x="1051" y="28" stroke-linejoin="round" width="10" height="24" fill="rgb(87,180,154)" stroke="rgb(69,144,123)" stroke-width="1" opacity="0.75" />
			</g>
			<g>
				<title>Acyl_transf_1 (PF00698)
"Acyl transferase domain"</title>
				<rect class="PF00698" x="1066" y="28" stroke-linejoin="round" width="32" height="24" fill="rgb(179,70,174)" stroke="rgb(143,56,139)" stroke-width="1" opacity="0.75" />
			</g>
			<g>
				<title>KAsynt_C_assoc (PF16197)
"Ketoacyl-synthetase C-terminal extension"</title>
				<rect class="PF16197" x="1101" y="28" stroke-linejoin="round" width="13" height="24" fill="rgb(140,82,208)" stroke="rgb(112,65,166)" stroke-width="1" opacity="0.75" />
			</g>
			<g>
				<title>Ketoacyl-synt_C (PF02801)
"Beta-ketoacyl synthase, C-terminal domain"</title>
				<rect class="PF02801" x="1114" y="28" stroke-linejoin="round" width="11" height="24" fill="rgb(57,195,62)" stroke="rgb(45,156,49)" stroke-width="1" opacity="0.75" />
			</g>
			<g>
				<title>ketoacyl-synt (PF00109)
"Beta-ketoacyl synthase, N-terminal domain"</title>
				<rect class="PF00109" x="1127" y="28" stroke-linejoin="round" width="25" height="24" fill="rgb(199,122,97)" stroke="rgb(159,97,77)" stroke-width="1" opacity="0.75" />
			</g>
			<g>
				<title>PP-binding (PF00550)
"Phosphopantetheine attachment site"</title>
				<rect class="PF00550" x="1154" y="28" stroke-linejoin="round" width="6" height="24" fill="rgb(213,213,91)" stroke="rgb(170,170,72)" stroke-width="1" opacity="0.75" />
			</g>
			<g>
				<title>KR (PF08659)
"KR domain"</title>
				<rect class="PF08659" x="1172" y="28" stroke-linejoin="round" width="5" height="24" fill="rgb(76,225,159)" stroke="rgb(60,180,127)" stroke-width="1" opacity="0.75" />
			</g>
			<g>
				<title>KR (PF08659)
"KR domain"</title>
				<rect class="PF08659" x="1186" y="28" stroke-linejoin="round" width="12" height="24" fill="rgb(76,225,159)" stroke="rgb(60,180,127)" stroke-width="1" opacity="0.75" />
			</g>
			<g>
				<title>Acyl_transf_1 (PF00698)
"Acyl transferase domain"</title>
				<rect class="PF00698" x="1227" y="28" stroke-linejoin="round" width="33" height="24" fill="rgb(179,70,174)" stroke="rgb(143,56,139)" stroke-width="1" opacity="0.75" />
			</g>
			<g>
				<title>KAsynt_C_assoc (PF16197)
"Ketoacyl-synthetase C-terminal extension"</title>
				<rect class="PF16197" x="1264" y="28" stroke-linejoin="round" width="12" height="24" fill="rgb(140,82,208)" stroke="rgb(112,65,166)" stroke-width="1" opacity="0.75" />
			</g>
			<g>
				<title>Ketoacyl-synt_C (PF02801)
"Beta-ketoacyl synthase, C-terminal domain"</title>
				<rect class="PF02801" x="1277" y="28" stroke-linejoin="round" width="11" height="24" fill="rgb(57,195,62)" stroke="rgb(45,156,49)" stroke-width="1" opacity="0.75" />
			</g>
			<g>
				<title>ketoacyl-synt (PF00109)
"Beta-ketoacyl synthase, N-terminal domain"</title>
				<rect class="PF00109" x="1289" y="28" stroke-linejoin="round" width="25" height="24" fill="rgb(199,122,97)" stroke="rgb(159,97,77)" stroke-width="1" opacity="0.75" />
			</g>
			<g>
				<title>Docking (PF08990)
"Erythronolide synthase docking domain"</title>
				<rect class="PF08990" x="1315" y="28" stroke-linejoin="round" width="2" height="24" fill="rgb(69,59,185)" stroke="rgb(55,47,148)" stroke-width="1" opacity="0.75" />
			</g>
		</g>
		<g>
			<title>lcmA2
modular polyketide synthase</title>
			<polygon class="lcmA2
modular polyketide synthase" points="1516,25 1351,25 1351,10 1321,40 1351,70 1351,55 1516,55" fill="rgb(255,255,255)" fill-opacity="1.0" stroke="rgb(0,0,0)" stroke-width="2"  />
			<g>
				<title>PP-binding (PF00550)
"Phosphopantetheine attachment site"</title>
				<polygon class="PF00550" points="1330,35 1336,29 1336,51 1330,45" stroke-linejoin="round" width="6" height="24" fill="rgb(213,213,91)" stroke="rgb(170,170,72)" stroke-width="1" opacity="0.75" />
			</g>
			<g>
				<title>KR (PF08659)
"KR domain"</title>
				<rect class="PF08659" x="1349" y="28" stroke-linejoin="round" width="18" height="24" fill="rgb(76,225,159)" stroke="rgb(60,180,127)" stroke-width="1" opacity="0.75" />
			</g>
			<g>
				<title>PS-DH (PF14765)
"Polyketide synthase dehydratase N-terminal domain"</title>
				<rect class="PF14765" x="1394" y="28" stroke-linejoin="round" width="15" height="24" fill="rgb(171,65,191)" stroke="rgb(136,52,152)" stroke-width="1" opacity="0.75" />
			</g>
			<g>
				<title>PKS_DH_N (PF21089)
"Polyketide synthase dehydratase domain"</title>
				<rect class="PF21089" x="1413" y="28" stroke-linejoin="round" width="10" height="24" fill="rgb(87,180,154)" stroke="rgb(69,144,123)" stroke-width="1" opacity="0.75" />
			</g>
			<g>
				<title>Acyl_transf_1 (PF00698)
"Acyl transferase domain"</title>
				<rect class="PF00698" x="1428" y="28" stroke-linejoin="round" width="31" height="24" fill="rgb(179,70,174)" stroke="rgb(143,56,139)" stroke-width="1" opacity="0.75" />
			</g>
			<g>
				<title>KAsynt_C_assoc (PF16197)
"Ketoacyl-synthetase C-terminal extension"</title>
				<rect class="PF16197" x="1463" y="28" stroke-linejoin="round" width="11" height="24" fill="rgb(140,82,208)" stroke="rgb(112,65,166)" stroke-width="1" opacity="0.75" />
			</g>
			<g>
				<title>Ketoacyl-synt_C (PF02801)
"Beta-ketoacyl synthase, C-terminal domain"</title>
				<rect class="PF02801" x="1475" y="28" stroke-linejoin="round" width="11" height="24" fill="rgb(57,195,62)" stroke="rgb(45,156,49)" stroke-width="1" opacity="0.75" />
			</g>
			<g>
				<title>ketoacyl-synt (PF00109)
"Beta-ketoacyl synthase, N-terminal domain"</title>
				<rect class="PF00109" x="1488" y="28" stroke-linejoin="round" width="25" height="24" fill="rgb(199,122,97)" stroke="rgb(159,97,77)" stroke-width="1" opacity="0.75" />
			</g>
			<g>
				<title>Docking (PF08990)
"Erythronolide synthase docking domain"</title>
				<rect class="PF08990" x="1513" y="28" stroke-linejoin="round" width="2" height="24" fill="rgb(69,59,185)" stroke="rgb(55,47,148)" stroke-width="1" opacity="0.75" />
			</g>
		</g>
		<g>
			<title>lcmA1
modular polyketide synthase</title>
			<polygon class="lcmA1
modular polyketide synthase" points="1957,25 1550,25 1550,10 1520,40 1550,70 1550,55 1957,55" fill="rgb(255,255,255)" fill-opacity="1.0" stroke="rgb(0,0,0)" stroke-width="2"  />
			<g>
				<title>PP-binding (PF00550)
"Phosphopantetheine attachment site"</title>
				<polygon class="PF00550" points="1529,35 1535,29 1535,51 1529,45" stroke-linejoin="round" width="6" height="24" fill="rgb(213,213,91)" stroke="rgb(170,170,72)" stroke-width="1" opacity="0.75" />
			</g>
			<g>
				<title>KR (PF08659)
"KR domain"</title>
				<rect class="PF08659" x="1548" y="28" stroke-linejoin="round" width="17" height="24" fill="rgb(76,225,159)" stroke="rgb(60,180,127)" stroke-width="1" opacity="0.75" />
			</g>
			<g>
				<title>PS-DH (PF14765)
"Polyketide synthase dehydratase N-terminal domain"</title>
				<rect class="PF14765" x="1588" y="28" stroke-linejoin="round" width="15" height="24" fill="rgb(171,65,191)" stroke="rgb(136,52,152)" stroke-width="1" opacity="0.75" />
			</g>
			<g>
				<title>PKS_DH_N (PF21089)
"Polyketide synthase dehydratase domain"</title>
				<rect class="PF21089" x="1606" y="28" stroke-linejoin="round" width="10" height="24" fill="rgb(87,180,154)" stroke="rgb(69,144,123)" stroke-width="1" opacity="0.75" />
			</g>
			<g>
				<title>Acyl_transf_1 (PF00698)
"Acyl transferase domain"</title>
				<rect class="PF00698" x="1621" y="28" stroke-linejoin="round" width="31" height="24" fill="rgb(179,70,174)" stroke="rgb(143,56,139)" stroke-width="1" opacity="0.75" />
			</g>
			<g>
				<title>KAsynt_C_assoc (PF16197)
"Ketoacyl-synthetase C-terminal extension"</title>
				<rect class="PF16197" x="1656" y="28" stroke-linejoin="round" width="11" height="24" fill="rgb(140,82,208)" stroke="rgb(112,65,166)" stroke-width="1" opacity="0.75" />
			</g>
			<g>
				<title>Ketoacyl-synt_C (PF02801)
"Beta-ketoacyl synthase, C-terminal domain"</title>
				<rect class="PF02801" x="1668" y="28" stroke-linejoin="round" width="11" height="24" fill="rgb(57,195,62)" stroke="rgb(45,156,49)" stroke-width="1" opacity="0.75" />
			</g>
			<g>
				<title>ketoacyl-synt (PF00109)
"Beta-ketoacyl synthase, N-terminal domain"</title>
				<rect class="PF00109" x="1681" y="28" stroke-linejoin="round" width="25" height="24" fill="rgb(199,122,97)" stroke="rgb(159,97,77)" stroke-width="1" opacity="0.75" />
			</g>
			<g>
				<title>PP-binding (PF00550)
"Phosphopantetheine attachment site"</title>
				<rect class="PF00550" x="1709" y="28" stroke-linejoin="round" width="6" height="24" fill="rgb(213,213,91)" stroke="rgb(170,170,72)" stroke-width="1" opacity="0.75" />
			</g>
			<g>
				<title>KR (PF08659)
"KR domain"</title>
				<rect class="PF08659" x="1726" y="28" stroke-linejoin="round" width="17" height="24" fill="rgb(76,225,159)" stroke="rgb(60,180,127)" stroke-width="1" opacity="0.75" />
			</g>
			<g>
				<title>Acyl_transf_1 (PF00698)
"Acyl transferase domain"</title>
				<rect class="PF00698" x="1770" y="28" stroke-linejoin="round" width="31" height="24" fill="rgb(179,70,174)" stroke="rgb(143,56,139)" stroke-width="1" opacity="0.75" />
			</g>
			<g>
				<title>KAsynt_C_assoc (PF16197)
"Ketoacyl-synthetase C-terminal extension"</title>
				<rect class="PF16197" x="1805" y="28" stroke-linejoin="round" width="11" height="24" fill="rgb(140,82,208)" stroke="rgb(112,65,166)" stroke-width="1" opacity="0.75" />
			</g>
			<g>
				<title>Ketoacyl-synt_C (PF02801)
"Beta-ketoacyl synthase, C-terminal domain"</title>
				<rect class="PF02801" x="1817" y="28" stroke-linejoin="round" width="11" height="24" fill="rgb(57,195,62)" stroke="rgb(45,156,49)" stroke-width="1" opacity="0.75" />
			</g>
			<g>
				<title>ketoacyl-synt (PF00109)
"Beta-ketoacyl synthase, N-terminal domain"</title>
				<rect class="PF00109" x="1830" y="28" stroke-linejoin="round" width="25" height="24" fill="rgb(199,122,97)" stroke="rgb(159,97,77)" stroke-width="1" opacity="0.75" />
			</g>
			<g>
				<title>PP-binding (PF00550)
"Phosphopantetheine attachment site"</title>
				<rect class="PF00550" x="1858" y="28" stroke-linejoin="round" width="6" height="24" fill="rgb(213,213,91)" stroke="rgb(170,170,72)" stroke-width="1" opacity="0.75" />
			</g>
			<g>
				<title>Acyl_transf_1 (PF00698)
"Acyl transferase domain"</title>
				<rect class="PF00698" x="1872" y="28" stroke-linejoin="round" width="31" height="24" fill="rgb(179,70,174)" stroke="rgb(143,56,139)" stroke-width="1" opacity="0.75" />
			</g>
			<g>
				<title>KAsynt_C_assoc (PF16197)
"Ketoacyl-synthetase C-terminal extension"</title>
				<rect class="PF16197" x="1907" y="28" stroke-linejoin="round" width="11" height="24" fill="rgb(140,82,208)" stroke="rgb(112,65,166)" stroke-width="1" opacity="0.75" />
			</g>
			<g>
				<title>Ketoacyl-synt_C (PF02801)
"Beta-ketoacyl synthase, C-terminal domain"</title>
				<rect class="PF02801" x="1919" y="28" stroke-linejoin="round" width="11" height="24" fill="rgb(57,195,62)" stroke="rgb(45,156,49)" stroke-width="1" opacity="0.75" />
			</g>
			<g>
				<title>ketoacyl-synt (PF00109)
"Beta-ketoacyl synthase, N-terminal domain"</title>
				<rect class="PF00109" x="1931" y="28" stroke-linejoin="round" width="22" height="24" fill="rgb(199,122,97)" stroke="rgb(159,97,77)" stroke-width="1" opacity="0.75" />
			</g>
		</g>
		<g>
			<title>lcmJ
ketoreductase</title>
			<polygon class="lcmJ
ketoreductase" points="1998,25 1993,25 1993,10 1963,40 1993,70 1993,55 1998,55" fill="rgb(255,255,255)" fill-opacity="1.0" stroke="rgb(0,0,0)" stroke-width="2"  />
			<g>
				<title>Epimerase (PF01370)
"NAD dependent epimerase/dehydratase family"</title>
				<rect class="PF01370" x="1988" y="28" stroke-linejoin="round" width="10" height="24" fill="rgb(165,182,49)" stroke="rgb(132,145,39)" stroke-width="1" opacity="0.75" />
			</g>
		</g>
		<g>
			<title>lcmI
cytochrome P450 hydroxylase</title>
			<polygon class="lcmI
cytochrome P450 hydroxylase" points="2013,25 2023,25 2023,10 2053,40 2023,70 2023,55 2013,55" fill="rgb(255,255,255)" fill-opacity="1.0" stroke="rgb(0,0,0)" stroke-width="2"  />
			<g>
				<title>p450 (PF00067)
"Cytochrome P450"</title>
				<polygon class="PF00067" points="2017,28 2037,28 2049,40 2037,52 2017,52" stroke-linejoin="round" width="34" height="24" fill="rgb(71,179,98)" stroke="rgb(56,143,78)" stroke-width="1" opacity="0.75" />
			</g>
		</g>
		<g>
			<title>lcmCI
NDP-hexose isomerase</title>
			<polygon class="lcmCI
NDP-hexose isomerase" points="2053,10 2071,40 2053,70" fill="rgb(255,255,255)" fill-opacity="1.0" stroke="rgb(0,0,0)" stroke-width="2"  />
			<g>
				<title>FdtA (PF05523)
"WxcM-like, C-terminal"</title>
				<polygon class="PF05523" points="2058,28 2060,28 2068,40 2060,52 2058,52" stroke-linejoin="round" width="13" height="24" fill="rgb(152,198,66)" stroke="rgb(121,158,52)" stroke-width="1" opacity="0.75" />
			</g>
		</g>
		<g>
			<title>lcmCII
NDP-hexose aminotransferase</title>
			<polygon class="lcmCII
NDP-hexose aminotransferase" points="2071,25 2079,25 2079,10 2109,40 2079,70 2079,55 2071,55" fill="rgb(255,255,255)" fill-opacity="1.0" stroke="rgb(0,0,0)" stroke-width="2"  />
			<g>
				<title>DegT_DnrJ_EryC1 (PF01041)
"DegT/DnrJ/EryC1/StrS aminotransferase family"</title>
				<polygon class="PF01041" points="2072,28 2093,28 2105,40 2093,52 2072,52" stroke-linejoin="round" width="35" height="24" fill="rgb(130,64,203)" stroke="rgb(103,51,162)" stroke-width="1" opacity="0.75" />
			</g>
		</g>
		<g>
			<title>lcmCIII
glucose-1-phosphate thymidyltransferase</title>
			<polygon class="lcmCIII
glucose-1-phosphate thymidyltransferase" points="2110,25 2110,25 2110,10 2140,40 2110,70 2110,55 2110,55" fill="rgb(255,255,255)" fill-opacity="1.0" stroke="rgb(0,0,0)" stroke-width="2"  />
			<g>
				<title>NTP_transferase (PF00483)
"Nucleotidyl transferase"</title>
				<polygon class="PF00483" points="2111,28 2124,28 2134,38 2134,42 2124,52 2111,52" stroke-linejoin="round" width="23" height="24" fill="rgb(118,182,51)" stroke="rgb(94,145,40)" stroke-width="1" opacity="0.75" />
			</g>
		</g>
		<g>
			<title>lcmCIV
dTDP-glucose 4,6-dehydratase</title>
			<polygon class="lcmCIV
dTDP-glucose 4,6-dehydratase" points="2140,25 2143,25 2143,10 2173,40 2143,70 2143,55 2140,55" fill="rgb(255,255,255)" fill-opacity="1.0" stroke="rgb(0,0,0)" stroke-width="2"  />
			<g>
				<title>GDP_Man_Dehyd (PF16363)
"GDP-mannose 4,6 dehydratase"</title>
				<polygon class="PF16363" points="2141,28 2157,28 2169,40 2157,52 2141,52" stroke-linejoin="round" width="30" height="24" fill="rgb(89,94,198)" stroke="rgb(71,75,158)" stroke-width="1" opacity="0.75" />
			</g>
		</g>
		<g>
			<title>lcmCV
NDP-hexose 2,3-dehydratase</title>
			<polygon class="lcmCV
NDP-hexose 2,3-dehydratase" points="2176,25 2193,25 2193,10 2223,40 2193,70 2193,55 2176,55" fill="rgb(255,255,255)" fill-opacity="1.0" stroke="rgb(0,0,0)" stroke-width="2"  />
			<g>
				<title>Hexose_dehydrat (PF03559)
"NDP-hexose 2,3-dehydratase"</title>
				<rect class="PF03559" x="2179" y="28" stroke-linejoin="round" width="20" height="24" fill="rgb(204,73,90)" stroke="rgb(163,58,72)" stroke-width="1" opacity="0.75" />
			</g>
			<g>
				<title>Hexose_dehydrat (PF03559)
"NDP-hexose 2,3-dehydratase"</title>
				<polygon class="PF03559" points="2203,28 2207,28 2219,40 2207,52 2203,52" stroke-linejoin="round" width="20" height="24" fill="rgb(204,73,90)" stroke="rgb(163,58,72)" stroke-width="1" opacity="0.75" />
			</g>
		</g>
		<g>
			<title>lcmL
4''-O-acyltransferase</title>
			<polygon class="lcmL
4''-O-acyltransferase" points="2269,25 2262,25 2262,10 2232,40 2262,70 2262,55 2269,55" fill="rgb(255,255,255)" fill-opacity="1.0" stroke="rgb(0,0,0)" stroke-width="2"  />
			<g>
				<title>Acyl_transf_3 (PF01757)
"Acyltransferase family"</title>
				<polygon class="PF01757" points="2236,40 2248,28 2268,28 2268,52 2248,52" stroke-linejoin="round" width="33" height="24" fill="rgb(83,196,144)" stroke="rgb(66,156,115)" stroke-width="1" opacity="0.75" />
			</g>
		</g>
		<g>
			<title>lcmRI
regulator for expression of lcm cluster</title>
			<polygon class="lcmRI
regulator for expression of lcm cluster" points="2283,25 2291,25 2291,10 2321,40 2291,70 2291,55 2283,55" fill="rgb(255,255,255)" fill-opacity="1.0" stroke="rgb(0,0,0)" stroke-width="2"  />
			<g>
				<title>DDE_5 (PF13546)
"DDE superfamily endonuclease"</title>
				<polygon class="PF13546" points="2286,28 2305,28 2310,33 2310,47 2305,52 2286,52" stroke-linejoin="round" width="24" height="24" fill="rgb(58,170,183)" stroke="rgb(46,135,146)" stroke-width="1" opacity="0.75" />
			</g>
		</g>
		<g>
			<title>lcmRII
CdaR-family transcriptional regulator</title>
			<polygon class="lcmRII
CdaR-family transcriptional regulator" points="2388,25 2353,25 2353,10 2323,40 2353,70 2353,55 2388,55" fill="rgb(255,255,255)" fill-opacity="1.0" stroke="rgb(0,0,0)" stroke-width="2"  />
			<g>
				<title>HTH_30 (PF13556)
"PucR C-terminal helix-turn-helix domain"</title>
				<polygon class="PF13556" points="2327,40 2329,38 2329,42" stroke-linejoin="round" width="5" height="24" fill="rgb(140,190,92)" stroke="rgb(112,152,73)" stroke-width="1" opacity="0.75" />
			</g>
			<g>
				<title>GGDEF_2 (PF17853)
"GGDEF-like domain"</title>
				<polygon class="PF17853" points="2335,32 2339,28 2346,28 2346,52 2339,52 2335,48" stroke-linejoin="round" width="11" height="24" fill="rgb(197,81,204)" stroke="rgb(157,64,163)" stroke-width="1" opacity="0.75" />
			</g>
			<g>
				<title>GAF (PF01590)
"GAF domain"</title>
				<rect class="PF01590" x="2364" y="28" stroke-linejoin="round" width="13" height="24" fill="rgb(101,91,219)" stroke="rgb(80,72,175)" stroke-width="1" opacity="0.75" />
			</g>
		</g>
		<g>
			<title>lcmCVI
transaldolase</title>
			<polygon class="lcmCVI
transaldolase" points="2431,25 2425,25 2425,10 2395,40 2425,70 2425,55 2431,55" fill="rgb(255,255,255)" fill-opacity="1.0" stroke="rgb(0,0,0)" stroke-width="2"  />
			<g>
				<title>TAL_FSA (PF00923)
"Transaldolase/Fructose-6-phosphate aldolase"</title>
				<polygon class="PF00923" points="2399,40 2411,28 2427,28 2427,52 2411,52" stroke-linejoin="round" width="32" height="24" fill="rgb(138,196,74)" stroke="rgb(110,156,59)" stroke-width="1" opacity="0.75" />
			</g>
		</g>
		<g>
			<title>lcmCVII
NDP-hexose 3,5-epimerase</title>
			<polygon class="lcmCVII
NDP-hexose 3,5-epimerase" points="2432,40 2452,10 2452,70" fill="rgb(255,255,255)" fill-opacity="1.0" stroke="rgb(0,0,0)" stroke-width="2"  />
			<g>
				<title>dTDP_sugar_isom (PF00908)
"dTDP-4-dehydrorhamnose 3,5-epimerase"</title>
				<polygon class="PF00908" points="2436,40 2444,28 2451,28 2451,52 2444,52" stroke-linejoin="round" width="17" height="24" fill="rgb(93,206,153)" stroke="rgb(74,164,122)" stroke-width="1" opacity="0.75" />
			</g>
		</g>
		<g>
			<title>lcmCVIII
mycarosyl transferase</title>
			<polygon class="lcmCVIII
mycarosyl transferase" points="2500,25 2490,25 2490,10 2460,40 2490,70 2490,55 2500,55" fill="rgb(255,255,255)" fill-opacity="1.0" stroke="rgb(0,0,0)" stroke-width="2"  />
			<g>
				<title>EryCIII-like_C (PF06722)
"Erythromycin biosynthesis protein CIII-like, C-terminal domain"</title>
				<polygon class="PF06722" points="2464,40 2473,31 2473,49" stroke-linejoin="round" width="13" height="24" fill="rgb(56,179,145)" stroke="rgb(44,143,116)" stroke-width="1" opacity="0.75" />
			</g>
		</g>
		<g>
			<title>lcmD
3-hydroxyacyl-CoA dehydrogenase</title>
			<polygon class="lcmD
3-hydroxyacyl-CoA dehydrogenase" points="2511,10 2540,40 2511,70" fill="rgb(255,255,255)" fill-opacity="1.0" stroke="rgb(0,0,0)" stroke-width="2"  />
			<g>
				<title>3HCDH_N (PF02737)
"3-hydroxyacyl-CoA dehydrogenase, NAD binding domain"</title>
				<polygon class="PF02737" points="2512,28 2524,28 2529,33 2529,47 2524,52 2512,52" stroke-linejoin="round" width="17" height="24" fill="rgb(189,178,79)" stroke="rgb(151,142,63)" stroke-width="1" opacity="0.75" />
			</g>
			<g>
				<title>3HCDH (PF00725)
"3-hydroxyacyl-CoA dehydrogenase, C-terminal domain"</title>
				<polygon class="PF00725" points="2530,34 2536,40 2530,46" stroke-linejoin="round" width="9" height="24" fill="rgb(92,214,144)" stroke="rgb(73,171,115)" stroke-width="1" opacity="0.75" />
			</g>
		</g>
		<g>
			<title>lcmE
acyl carrier protein</title>
			<polygon class="lcmE
acyl carrier protein" points="2541,10 2551,40 2541,70" fill="rgb(255,255,255)" fill-opacity="1.0" stroke="rgb(0,0,0)" stroke-width="2"  />
			<g>
				<title>PP-binding (PF00550)
"Phosphopantetheine attachment site"</title>
				<polygon class="PF00550" points="2543,28 2543,28 2548,40 2543,52 2543,52" stroke-linejoin="round" width="6" height="24" fill="rgb(213,213,91)" stroke="rgb(170,170,72)" stroke-width="1" opacity="0.75" />
			</g>
		</g>
		<g>
			<title>lcmF
acyl-CoA dehydrogenase</title>
			<polygon class="lcmF
acyl-CoA dehydrogenase" points="2551,25 2558,25 2558,10 2588,40 2558,70 2558,55 2551,55" fill="rgb(255,255,255)" fill-opacity="1.0" stroke="rgb(0,0,0)" stroke-width="2"  />
			<g>
				<title>Acyl-CoA_dh_N (PF02771)
"Acyl-CoA dehydrogenase, N-terminal domain"</title>
				<rect class="PF02771" x="2552" y="28" stroke-linejoin="round" width="10" height="24" fill="rgb(120,66,184)" stroke="rgb(95,52,147)" stroke-width="1" opacity="0.75" />
			</g>
			<g>
				<title>Acyl-CoA_dh_M (PF02770)
"Acyl-CoA dehydrogenase, middle domain"</title>
				<rect class="PF02770" x="2562" y="28" stroke-linejoin="round" width="9" height="24" fill="rgb(129,100,201)" stroke="rgb(103,80,160)" stroke-width="1" opacity="0.75" />
			</g>
			<g>
				<title>Acyl-CoA_dh_1 (PF00441)
"Acyl-CoA dehydrogenase, C-terminal domain"</title>
				<polygon class="PF00441" points="2573,29 2584,40 2573,51" stroke-linejoin="round" width="14" height="24" fill="rgb(194,88,161)" stroke="rgb(155,70,128)" stroke-width="1" opacity="0.75" />
			</g>
		</g>
		<g>
			<title>lcmG
hydrolase</title>
			<polygon class="lcmG
hydrolase" points="2590,25 2596,25 2596,10 2626,40 2596,70 2596,55 2590,55" fill="rgb(255,255,255)" fill-opacity="1.0" stroke="rgb(0,0,0)" stroke-width="2"  />
			<g>
				<title>Hydrolase (PF00702)
"haloacid dehalogenase-like hydrolase"</title>
				<rect class="PF00702" x="2592" y="28" stroke-linejoin="round" width="9" height="24" fill="rgb(196,50,106)" stroke="rgb(156,40,84)" stroke-width="1" opacity="0.75" />
			</g>
		</g>
		<g>
			<title>lcmCIX
NDP-hexose 3-C-methyltransferase</title>
			<polygon class="lcmCIX
NDP-hexose 3-C-methyltransferase" points="2627,25 2638,25 2638,10 2668,40 2638,70 2638,55 2627,55" fill="rgb(255,255,255)" fill-opacity="1.0" stroke="rgb(0,0,0)" stroke-width="2"  />
			<g>
				<title>Methyltransf_13 (PF08421)
"Putative zinc binding domain"</title>
				<rect class="PF08421" x="2627" y="28" stroke-linejoin="round" width="6" height="24" fill="rgb(151,55,218)" stroke="rgb(120,44,174)" stroke-width="1" opacity="0.75" />
			</g>
			<g>
				<title>Methyltransf_23 (PF13489)
"Methyltransferase domain"</title>
				<rect class="PF13489" x="2635" y="28" stroke-linejoin="round" width="16" height="24" fill="rgb(93,177,195)" stroke="rgb(74,141,156)" stroke-width="1" opacity="0.75" />
			</g>
			<g>
				<title>Methyltransf_14 (PF08484)
"C-methyltransferase C-terminal domain"</title>
				<polygon class="PF08484" points="2651,28 2651,28 2663,40 2651,52 2651,52" stroke-linejoin="round" width="15" height="24" fill="rgb(171,88,205)" stroke="rgb(136,70,164)" stroke-width="1" opacity="0.75" />
			</g>
		</g>
		<g>
			<title>lcmCX
dTDP-4-keto-6-deoxy-L-hexose 2,3-reductase</title>
			<polygon class="lcmCX
dTDP-4-keto-6-deoxy-L-hexose 2,3-reductase" points="2705,25 2702,25 2702,10 2672,40 2702,70 2702,55 2705,55" fill="rgb(255,255,255)" fill-opacity="1.0" stroke="rgb(0,0,0)" stroke-width="2"  />
			<g>
				<title>Aldo_ket_red (PF00248)
"Aldo/keto reductase family"</title>
				<polygon class="PF00248" points="2676,40 2688,28 2702,28 2702,52 2688,52" stroke-linejoin="round" width="29" height="24" fill="rgb(74,186,65)" stroke="rgb(59,148,52)" stroke-width="1" opacity="0.75" />
			</g>
		</g>
		<g>
			<title>lcmCXI
dTDP-4-keto-6-deoxy-L-hexose 4-reductase</title>
			<polygon class="lcmCXI
dTDP-4-keto-6-deoxy-L-hexose 4-reductase" points="2738,25 2735,25 2735,10 2705,40 2735,70 2735,55 2738,55" fill="rgb(255,255,255)" fill-opacity="1.0" stroke="rgb(0,0,0)" stroke-width="2"  />
			<g>
				<title>Epimerase (PF01370)
"NAD dependent epimerase/dehydratase family"</title>
				<polygon class="PF01370" points="2713,36 2721,28 2735,28 2735,52 2721,52 2713,44" stroke-linejoin="round" width="22" height="24" fill="rgb(165,182,49)" stroke="rgb(132,145,39)" stroke-width="1" opacity="0.75" />
			</g>
		</g>
		<g>
			<title>
isomerase</title>
			<polygon class="
isomerase" points="2751,10 2763,40 2751,70" fill="rgb(255,255,255)" fill-opacity="1.0" stroke="rgb(0,0,0)" stroke-width="2"  />
			<g>
				<title>SnoaL_2 (PF12680)
"SnoaL-like domain"</title>
				<polygon class="PF12680" points="2751,28 2754,28 2760,40 2754,52 2751,52" stroke-linejoin="round" width="10" height="24" fill="rgb(88,217,191)" stroke="rgb(70,173,152)" stroke-width="1" opacity="0.75" />
			</g>
		</g>
		<g>
			<title>
DNA-binding protein</title>
			<polygon class="
DNA-binding protein" points="2797,25 2793,25 2793,10 2763,40 2793,70 2793,55 2797,55" fill="rgb(255,255,255)" fill-opacity="1.0" stroke="rgb(0,0,0)" stroke-width="2"  />
			<g>
				<title>MLTR_LBD (PF17765)
"MmyB-like transcription regulator ligand binding domain"</title>
				<polygon class="PF17765" points="2767,40 2779,28 2780,28 2780,52 2779,52" stroke-linejoin="round" width="17" height="24" fill="rgb(76,84,184)" stroke="rgb(60,67,147)" stroke-width="1" opacity="0.75" />
			</g>
			<g>
				<title>HTH_3 (PF01381)
"Helix-turn-helix"</title>
				<rect class="PF01381" x="2783" y="28" stroke-linejoin="round" width="5" height="24" fill="rgb(154,197,83)" stroke="rgb(123,157,66)" stroke-width="1" opacity="0.75" />
			</g>
		</g>
		<g>
			<title>
hypothetical protein</title>
			<polygon class="
hypothetical protein" points="2886,25 2830,25 2830,10 2800,40 2830,70 2830,55 2886,55" fill="rgb(255,255,255)" fill-opacity="1.0" stroke="rgb(0,0,0)" stroke-width="2"  />
			<g>
				<title>NAD_binding_9 (PF13454)
"FAD-NAD(P)-binding"</title>
				<rect class="PF13454" x="2872" y="28" stroke-linejoin="round" width="14" height="24" fill="rgb(157,64,188)" stroke="rgb(125,51,150)" stroke-width="1" opacity="0.75" />
			</g>
		</g>
		<g>
			<title>
transcriptional regulator</title>
			<polygon class="
transcriptional regulator" points="2894,10 2909,40 2894,70" fill="rgb(255,255,255)" fill-opacity="1.0" stroke="rgb(0,0,0)" stroke-width="2"  />
			<g>
				<title>Rrf2 (PF02082)
"Iron-dependent Transcriptional regulator"</title>
				<polygon class="PF02082" points="2894,28 2899,28 2906,40 2899,52 2894,52" stroke-linejoin="round" width="13" height="24" fill="rgb(87,96,213)" stroke="rgb(69,76,170)" stroke-width="1" opacity="0.75" />
			</g>
		</g>
		<g>
			<title>
sulfate adenylyltransferase, large subunit</title>
			<polygon class="
sulfate adenylyltransferase, large subunit" points="2976,25 2943,25 2943,10 2913,40 2943,70 2943,55 2976,55" fill="rgb(255,255,255)" fill-opacity="1.0" stroke="rgb(0,0,0)" stroke-width="2"  />
			<g>
				<title>APS_kinase (PF01583)
"Adenylylsulphate kinase"</title>
				<polygon class="PF01583" points="2917,40 2929,28 2929,28 2929,52 2929,52" stroke-linejoin="round" width="15" height="24" fill="rgb(164,207,67)" stroke="rgb(131,165,53)" stroke-width="1" opacity="0.75" />
			</g>
			<g>
				<title>GTP_EFTU (PF00009)
"Elongation factor Tu GTP binding domain"</title>
				<rect class="PF00009" x="2952" y="28" stroke-linejoin="round" width="21" height="24" fill="rgb(213,102,165)" stroke="rgb(170,81,132)" stroke-width="1" opacity="0.75" />
			</g>
		</g>
		<g>
			<title>
sulfate adenylyltransferase, small subunit</title>
			<polygon class="
sulfate adenylyltransferase, small subunit" points="3007,25 3006,25 3006,10 2976,40 3006,70 3006,55 3007,55" fill="rgb(255,255,255)" fill-opacity="1.0" stroke="rgb(0,0,0)" stroke-width="2"  />
			<g>
				<title>PAPS_reduct (PF01507)
"Phosphoadenosine phosphosulfate reductase family"</title>
				<polygon class="PF01507" points="2980,40 2992,28 3002,28 3002,52 2992,52 2980,40" stroke-linejoin="round" width="22" height="24" fill="rgb(77,202,169)" stroke="rgb(61,161,135)" stroke-width="1" opacity="0.75" />
			</g>
		</g>
		<g>
			<title>
inositol monophosphatase</title>
			<polygon class="
inositol monophosphatase" points="3007,40 3035,10 3035,70" fill="rgb(255,255,255)" fill-opacity="1.0" stroke="rgb(0,0,0)" stroke-width="2"  />
			<g>
				<title>Inositol_P (PF00459)
"Inositol monophosphatase family"</title>
				<polygon class="PF00459" points="3011,40 3022,28 3031,28 3031,52 3022,52" stroke-linejoin="round" width="23" height="24" fill="rgb(110,49,179)" stroke="rgb(88,39,143)" stroke-width="1" opacity="0.75" />
			</g>
		</g>
		<g>
			<title>
thioesterase</title>
			<polygon class="
thioesterase" points="3045,10 3071,40 3045,70" fill="rgb(255,255,255)" fill-opacity="1.0" stroke="rgb(0,0,0)" stroke-width="2"  />
			<g>
				<title>Thioesterase (PF00975)
"Thioesterase domain"</title>
				<polygon class="PF00975" points="3047,28 3057,28 3067,40 3057,52 3047,52" stroke-linejoin="round" width="22" height="24" fill="rgb(119,180,88)" stroke="rgb(95,144,70)" stroke-width="1" opacity="0.75" />
			</g>
		</g>
		<g>
			<title>
hypothetical protein</title>
			<polygon class="
hypothetical protein" points="3072,25 3076,25 3076,10 3106,40 3076,70 3076,55 3072,55" fill="rgb(255,255,255)" fill-opacity="1.0" stroke="rgb(0,0,0)" stroke-width="2"  />
			<g>
				<title>Sulfotransfer_1 (PF00685)
"Sulfotransferase domain"</title>
				<polygon class="PF00685" points="3088,28 3090,28 3102,40 3090,52 3088,52" stroke-linejoin="round" width="17" height="24" fill="rgb(190,136,57)" stroke="rgb(152,108,45)" stroke-width="1" opacity="0.75" />
			</g>
		</g>
	</g>
</svg>
