<svg version="1.1" baseProfile="full" xmlns="http://www.w3.org/2000/svg" width="758.8666666666667" height="80">
	<g>
		<line x1="10" y1="40.0" x2="748.8666666666667" y2="40.0" style="stroke:rgb(70,70,70); stroke-width:3 "/>
		<g>
			<title> (ctg1_720)</title>
			<polygon class=" (ctg1_720)" points="10,40 37,10 37,70" fill="rgb(255,255,255)" fill-opacity="1.0" stroke="rgb(0,0,0)" stroke-width="2"  />
			<g>
				<title>Cu-oxidase_4 (PF02578)
"Multi-copper polyphenol oxidoreductase laccase"</title>
				<polygon class="PF02578" points="14,40 25,28 33,28 33,52 25,52" stroke-linejoin="round" width="23" height="24" fill="rgb(138,62,186)" stroke="rgb(110,49,148)" stroke-width="1" opacity="0.75" />
			</g>
		</g>
		<g>
			<title> (ctg1_721)</title>
			<polygon class=" (ctg1_721)" points="87,25 71,25 71,10 41,40 71,70 71,55 87,55" fill="rgb(255,255,255)" fill-opacity="1.0" stroke="rgb(0,0,0)" stroke-width="2"  />
			<g>
				<title>tRNA_U5-meth_tr (PF05958)
"tRNA (Uracil-5-)-methyltransferase"</title>
				<polygon class="PF05958" points="45,40 57,28 65,28 65,52 57,52" stroke-linejoin="round" width="23" height="24" fill="rgb(102,196,216)" stroke="rgb(81,156,172)" stroke-width="1" opacity="0.75" />
			</g>
			<g>
				<title>TRAM (PF01938)
"TRAM domain"</title>
				<rect class="PF01938" x="81" y="28" stroke-linejoin="round" width="5" height="24" fill="rgb(52,54,205)" stroke="rgb(41,43,164)" stroke-width="1" opacity="0.75" />
			</g>
		</g>
		<g>
			<title> (ctg1_722)</title>
			<polygon class=" (ctg1_722)" points="92,40 121,10 121,70" fill="rgb(255,255,255)" fill-opacity="1.0" stroke="rgb(0,0,0)" stroke-width="2"  />
			<g>
				<title>Radical_SAM (PF04055)
"Radical SAM superfamily"</title>
				<polygon class="PF04055" points="102,34 108,28 119,28 119,52 108,52 102,46" stroke-linejoin="round" width="17" height="24" fill="rgb(158,71,222)" stroke="rgb(126,56,177)" stroke-width="1" opacity="0.75" />
			</g>
		</g>
		<g>
			<title> (ctg1_723)</title>
			<polygon class=" (ctg1_723)" points="127,25 138,25 138,10 168,40 138,70 138,55 127,55" fill="rgb(255,255,255)" fill-opacity="1.0" stroke="rgb(0,0,0)" stroke-width="2"  />
			<g>
				<title>IMS (PF00817)
"impB/mucB/samB family"</title>
				<rect class="PF00817" x="127" y="28" stroke-linejoin="round" width="14" height="24" fill="rgb(200,145,77)" stroke="rgb(160,116,61)" stroke-width="1" opacity="0.75" />
			</g>
			<g>
				<title>IMS_C (PF11799)
"impB/mucB/samB family C-terminal domain"</title>
				<polygon class="PF11799" points="151,28 152,28 162,38 162,42 152,52 151,52" stroke-linejoin="round" width="11" height="24" fill="rgb(183,107,62)" stroke="rgb(146,85,49)" stroke-width="1" opacity="0.75" />
			</g>
		</g>
		<g>
			<title> (ctg1_724)</title>
			<polygon class=" (ctg1_724)" points="171,25 175,25 175,10 205,40 175,70 175,55 171,55" fill="rgb(255,255,255)" fill-opacity="1.0" stroke="rgb(0,0,0)" stroke-width="2"  />
			<g>
				<title>PHO4 (PF01384)
"Phosphate transporter family"</title>
				<polygon class="PF01384" points="174,28 189,28 201,40 189,52 174,52" stroke-linejoin="round" width="30" height="24" fill="rgb(55,188,189)" stroke="rgb(44,150,151)" stroke-width="1" opacity="0.75" />
			</g>
		</g>
		<g>
			<title> (ctg1_725)</title>
			<polygon class=" (ctg1_725)" points="209,25 234,25 234,10 264,40 234,70 234,55 209,55" fill="rgb(255,255,255)" fill-opacity="1.0" stroke="rgb(0,0,0)" stroke-width="2"  />
			<g>
				<title>ILVD_EDD (PF00920)
"Dehydratase family"</title>
				<polygon class="PF00920" points="212,28 248,28 260,40 248,52 212,52" stroke-linejoin="round" width="51" height="24" fill="rgb(202,92,173)" stroke="rgb(161,73,138)" stroke-width="1" opacity="0.75" />
			</g>
		</g>
		<g>
			<title> (ctg1_726)</title>
			<polygon class=" (ctg1_726)" points="268,10 277,40 268,70" fill="rgb(255,255,255)" fill-opacity="1.0" stroke="rgb(0,0,0)" stroke-width="2"  />
			<g>
				<title>DUF1294 (PF06961)
"Protein of unknown function (DUF1294)"</title>
				<polygon class="PF06961" points="269,28 270,28 274,39 274,41 270,52 269,52" stroke-linejoin="round" width="5" height="24" fill="rgb(65,207,130)" stroke="rgb(51,165,104)" stroke-width="1" opacity="0.75" />
			</g>
		</g>
		<g>
			<title> (ctg1_727)</title>
			<polygon class=" (ctg1_727)" points="282,10 303,40 282,70" fill="rgb(255,255,255)" fill-opacity="1.0" stroke="rgb(0,0,0)" stroke-width="2"  />
			<g>
				<title>SSB (PF00436)
"Single-strand binding protein family"</title>
				<polygon class="PF00436" points="292,30 299,40 292,50" stroke-linejoin="round" width="9" height="24" fill="rgb(62,165,194)" stroke="rgb(49,132,155)" stroke-width="1" opacity="0.75" />
			</g>
		</g>
		<g>
			<title> (ctg1_728)</title>
			<polygon class=" (ctg1_728)" points="306,40 325,10 325,70" fill="rgb(255,255,255)" fill-opacity="1.0" stroke="rgb(0,0,0)" stroke-width="2"  />
			<g>
				<title>Rnf-Nqr (PF02508)
"Rnf-Nqr subunit, membrane protein"</title>
				<polygon class="PF02508" points="310,40 318,28 324,28 324,52 318,52" stroke-linejoin="round" width="18" height="24" fill="rgb(205,113,69)" stroke="rgb(164,90,55)" stroke-width="1" opacity="0.75" />
			</g>
		</g>
		<g>
			<title> (ctg1_729)</title>
			<polygon class=" (ctg1_729)" points="381,25 356,25 356,10 326,40 356,70 356,55 381,55" fill="rgb(255,255,255)" fill-opacity="1.0" stroke="rgb(0,0,0)" stroke-width="2"  />
			<g>
				<title>FMN_bind (PF04205)
"FMN-binding domain"</title>
				<polygon class="PF04205" points="330,40 335,35 335,45" stroke-linejoin="round" width="8" height="24" fill="rgb(190,90,173)" stroke="rgb(152,72,138)" stroke-width="1" opacity="0.75" />
			</g>
			<g>
				<title>NQR2_RnfD_RnfE (PF03116)
"NQR2, RnfD, RnfE family"</title>
				<rect class="PF03116" x="349" y="28" stroke-linejoin="round" width="31" height="24" fill="rgb(138,62,211)" stroke="rgb(110,49,168)" stroke-width="1" opacity="0.75" />
			</g>
		</g>
		<g>
			<title> (ctg1_730)</title>
			<polygon class=" (ctg1_730)" points="426,25 412,25 412,10 382,40 412,70 412,55 426,55" fill="rgb(255,255,255)" fill-opacity="1.0" stroke="rgb(0,0,0)" stroke-width="2"  />
			<g>
				<title>Fer4_10 (PF13237)
"4Fe-4S dicluster domain"</title>
				<polygon class="PF13237" points="386,40 389,37 389,43" stroke-linejoin="round" width="5" height="24" fill="rgb(214,185,66)" stroke="rgb(171,147,52)" stroke-width="1" opacity="0.75" />
			</g>
			<g>
				<title>SLBB (PF10531)
"SLBB domain"</title>
				<polygon class="PF10531" points="392,34 396,30 396,50 392,46" stroke-linejoin="round" width="4" height="24" fill="rgb(96,161,201)" stroke="rgb(76,128,160)" stroke-width="1" opacity="0.75" />
			</g>
			<g>
				<title>Complex1_51K (PF01512)
"Respiratory-chain NADH dehydrogenase 51 Kd subunit"</title>
				<polygon class="PF01512" points="398,28 398,28 412,28 412,52 398,52 398,52" stroke-linejoin="round" width="14" height="24" fill="rgb(60,178,91)" stroke="rgb(48,142,72)" stroke-width="1" opacity="0.75" />
			</g>
			<g>
				<title>RnfC_N (PF13375)
"RnfC Barrel sandwich hybrid domain"</title>
				<rect class="PF13375" x="415" y="28" stroke-linejoin="round" width="10" height="24" fill="rgb(148,92,193)" stroke="rgb(118,73,154)" stroke-width="1" opacity="0.75" />
			</g>
		</g>
		<g>
			<title> (ctg1_731)</title>
			<polygon class=" (ctg1_731)" points="433,10 445,40 433,70" fill="rgb(255,255,255)" fill-opacity="1.0" stroke="rgb(0,0,0)" stroke-width="2"  />
		</g>
		<g>
			<title> (ctg1_732)</title>
			<polygon class=" (ctg1_732)" points="447,40 474,10 474,70" fill="rgb(255,255,255)" fill-opacity="1.0" stroke="rgb(0,0,0)" stroke-width="2"  />
			<g>
				<title>Hydrolase_3 (PF08282)
"haloacid dehalogenase-like hydrolase"</title>
				<polygon class="PF08282" points="451,40 462,28 473,28 473,52 462,52" stroke-linejoin="round" width="26" height="24" fill="rgb(185,99,47)" stroke="rgb(148,79,37)" stroke-width="1" opacity="0.75" />
			</g>
		</g>
		<g>
			<title> (ctg1_733)</title>
			<polygon class=" (ctg1_733)" points="528,25 505,25 505,10 475,40 505,70 505,55 528,55" fill="rgb(255,255,255)" fill-opacity="1.0" stroke="rgb(0,0,0)" stroke-width="2"  />
			<g>
				<title>RF3_C (PF16658)
"Class II release factor RF3, C-terminal domain"</title>
				<polygon class="PF16658" points="479,40 489,30 489,50" stroke-linejoin="round" width="13" height="24" fill="rgb(217,59,133)" stroke="rgb(173,47,106)" stroke-width="1" opacity="0.75" />
			</g>
			<g>
				<title>GTP_EFTU_D2 (PF03144)
"Elongation factor Tu domain 2"</title>
				<polygon class="PF03144" points="490,29 491,28 496,28 496,52 491,52 490,51" stroke-linejoin="round" width="6" height="24" fill="rgb(185,154,79)" stroke="rgb(148,123,63)" stroke-width="1" opacity="0.75" />
			</g>
			<g>
				<title>GTP_EFTU (PF00009)
"Elongation factor Tu GTP binding domain"</title>
				<rect class="PF00009" x="501" y="28" stroke-linejoin="round" width="26" height="24" fill="rgb(115,206,57)" stroke="rgb(92,164,45)" stroke-width="1" opacity="0.75" />
			</g>
		</g>
		<g>
			<title> (ctg1_734)</title>
			<polygon class=" (ctg1_734)" points="536,25 542,25 542,10 572,40 542,70 542,55 536,55" fill="rgb(255,255,255)" fill-opacity="1.0" stroke="rgb(0,0,0)" stroke-width="2"  />
			<g>
				<title>tRNA_Me_trans (PF03054)
"tRNA methyl transferase HUP domain"</title>
				<rect class="PF03054" x="536" y="28" stroke-linejoin="round" width="20" height="24" fill="rgb(81,189,130)" stroke="rgb(64,151,104)" stroke-width="1" opacity="0.75" />
			</g>
			<g>
				<title>tRNA_Me_trans_M (PF20259)
"tRNA methyl transferase PRC-barrel domain"</title>
				<polygon class="PF20259" points="556,28 556,28 562,34 562,46 556,52 556,52" stroke-linejoin="round" width="6" height="24" fill="rgb(194,90,206)" stroke="rgb(155,72,164)" stroke-width="1" opacity="0.75" />
			</g>
			<g>
				<title>tRNA_Me_trans_C (PF20258)
"Aminomethyltransferase beta-barrel domain"</title>
				<polygon class="PF20258" points="564,36 568,40 564,44" stroke-linejoin="round" width="7" height="24" fill="rgb(136,94,197)" stroke="rgb(108,75,157)" stroke-width="1" opacity="0.75" />
			</g>
		</g>
		<g>
			<title> (ctg1_735)</title>
			<polygon class=" (ctg1_735)" points="572,10 582,40 572,70" fill="rgb(255,255,255)" fill-opacity="1.0" stroke="rgb(0,0,0)" stroke-width="2"  />
		</g>
		<g>
			<title> (ctg1_736)</title>
			<polygon class=" (ctg1_736)" points="584,10 611,40 584,70" fill="rgb(255,255,255)" fill-opacity="1.0" stroke="rgb(0,0,0)" stroke-width="2"  />
		</g>
		<g>
			<title> (ctg1_737)</title>
			<polygon class=" (ctg1_737)" points="613,25 648,25 648,10 678,40 648,70 648,55 613,55" fill="rgb(255,255,255)" fill-opacity="1.0" stroke="rgb(0,0,0)" stroke-width="2"  />
			<g>
				<title>tRNA-synt_1g (PF09334)
"tRNA synthetases class I (M)"</title>
				<rect class="PF09334" x="613" y="28" stroke-linejoin="round" width="15" height="24" fill="rgb(157,51,184)" stroke="rgb(125,40,147)" stroke-width="1" opacity="0.75" />
			</g>
			<g>
				<title>tRNA-synt_1g (PF09334)
"tRNA synthetases class I (M)"</title>
				<rect class="PF09334" x="628" y="28" stroke-linejoin="round" width="21" height="24" fill="rgb(157,51,184)" stroke="rgb(125,40,147)" stroke-width="1" opacity="0.75" />
			</g>
			<g>
				<title>Anticodon_3 (PF19303)
"Anticodon binding domain of methionyl tRNA ligase"</title>
				<polygon class="PF19303" points="650,28 662,28 665,31 665,49 662,52 650,52" stroke-linejoin="round" width="15" height="24" fill="rgb(89,216,66)" stroke="rgb(71,172,52)" stroke-width="1" opacity="0.75" />
			</g>
			<g>
				<title>tRNA_bind (PF01588)
"Putative tRNA binding domain"</title>
				<polygon class="PF01588" points="668,34 674,40 668,46" stroke-linejoin="round" width="9" height="24" fill="rgb(177,73,202)" stroke="rgb(141,58,161)" stroke-width="1" opacity="0.75" />
			</g>
		</g>
		<g>
			<title> (ctg1_738)</title>
			<polygon class=" (ctg1_738)" points="679,40 700,10 700,70" fill="rgb(255,255,255)" fill-opacity="1.0" stroke="rgb(0,0,0)" stroke-width="2"  />
			<g>
				<title>Transposase_mut (PF00872)
"Transposase, Mutator family"</title>
				<polygon class="PF00872" points="689,32 692,28 700,28 700,52 692,52 689,48" stroke-linejoin="round" width="11" height="24" fill="rgb(179,45,71)" stroke="rgb(143,36,56)" stroke-width="1" opacity="0.75" />
			</g>
		</g>
		<g>
			<title> (ctg1_739)</title>
			<polygon class=" (ctg1_739)" points="702,40 728,10 728,70" fill="rgb(255,255,255)" fill-opacity="1.0" stroke="rgb(0,0,0)" stroke-width="2"  />
			<g>
				<title>Abhydrolase_6 (PF12697)
"Alpha/beta hydrolase family"</title>
				<polygon class="PF12697" points="706,40 717,28 726,28 726,52 717,52" stroke-linejoin="round" width="23" height="24" fill="rgb(70,167,206)" stroke="rgb(56,133,164)" stroke-width="1" opacity="0.75" />
			</g>
		</g>
		<g>
			<title> (ctg1_740)</title>
			<polygon class=" (ctg1_740)" points="734,40 748,10 748,70" fill="rgb(255,255,255)" fill-opacity="1.0" stroke="rgb(0,0,0)" stroke-width="2"  />
			<g>
				<title>Zn_ribbon_2 (PF12674)
"Putative zinc ribbon domain"</title>
				<polygon class="PF12674" points="737,40 741,32 741,48" stroke-linejoin="round" width="7" height="24" fill="rgb(65,95,206)" stroke="rgb(52,76,164)" stroke-width="1" opacity="0.75" />
			</g>
			<g>
				<title>HTH_3 (PF01381)
"Helix-turn-helix"</title>
				<polygon class="PF01381" points="742,30 743,28 747,28 747,52 743,52 742,50" stroke-linejoin="round" width="5" height="24" fill="rgb(69,227,101)" stroke="rgb(55,181,80)" stroke-width="1" opacity="0.75" />
			</g>
		</g>
	</g>
</svg>
