<svg version="1.1" baseProfile="full" xmlns="http://www.w3.org/2000/svg" width="535.0666666666667" height="80">
	<g>
		<line x1="10" y1="40.0" x2="525.0666666666667" y2="40.0" style="stroke:rgb(70,70,70); stroke-width:3 "/>
		<g>
			<title> (BIU87_04115)
dihydrodipicolinate synthase family protein</title>
			<polygon class=" (BIU87_04115)
dihydrodipicolinate synthase family protein" points="40,10 69,40 40,70" fill="rgb(255,255,255)" fill-opacity="1.0" stroke="rgb(0,0,0)" stroke-width="2"  />
			<g>
				<title>DHDPS (PF00701)
"Dihydrodipicolinate synthetase family"</title>
				<polygon class="PF00701" points="40,28 53,28 65,40 53,52 40,52" stroke-linejoin="round" width="28" height="24" fill="rgb(68,214,67)" stroke="rgb(54,171,53)" stroke-width="1" opacity="0.75" />
			</g>
		</g>
		<g>
			<title> (BIU87_04120)
proline racemase</title>
			<polygon class=" (BIU87_04120)
proline racemase" points="70,25 73,25 73,10 103,40 73,70 73,55 70,55" fill="rgb(255,255,255)" fill-opacity="1.0" stroke="rgb(0,0,0)" stroke-width="2"  />
			<g>
				<title>Pro_racemase (PF05544)
"Proline racemase"</title>
				<polygon class="PF05544" points="70,28 87,28 99,40 87,52 70,52" stroke-linejoin="round" width="32" height="24" fill="rgb(64,170,222)" stroke="rgb(51,136,177)" stroke-width="1" opacity="0.75" />
			</g>
		</g>
		<g>
			<title> (BIU87_04125)
GntR family transcriptional regulator</title>
			<polygon class=" (BIU87_04125)
GntR family transcriptional regulator" points="104,10 126,40 104,70" fill="rgb(255,255,255)" fill-opacity="1.0" stroke="rgb(0,0,0)" stroke-width="2"  />
			<g>
				<title>GntR (PF00392)
"Bacterial regulatory proteins, gntR family"</title>
				<rect class="PF00392" x="105" y="28" stroke-linejoin="round" width="6" height="24" fill="rgb(118,87,179)" stroke="rgb(94,69,143)" stroke-width="1" opacity="0.75" />
			</g>
			<g>
				<title>FCD (PF07729)
"FCD domain"</title>
				<polygon class="PF07729" points="113,28 113,28 122,40 113,52 113,52" stroke-linejoin="round" width="12" height="24" fill="rgb(58,166,180)" stroke="rgb(46,132,144)" stroke-width="1" opacity="0.75" />
			</g>
		</g>
		<g>
			<title> (BIU87_04130)
LacI family transcriptional regulator</title>
			<polygon class=" (BIU87_04130)
LacI family transcriptional regulator" points="128,25 130,25 130,10 160,40 130,70 130,55 128,55" fill="rgb(255,255,255)" fill-opacity="1.0" stroke="rgb(0,0,0)" stroke-width="2"  />
			<g>
				<title>LacI (PF00356)
"Bacterial regulatory proteins, lacI family"</title>
				<rect class="PF00356" x="128" y="28" stroke-linejoin="round" width="4" height="24" fill="rgb(180,67,132)" stroke="rgb(144,53,105)" stroke-width="1" opacity="0.75" />
			</g>
			<g>
				<title>Peripla_BP_3 (PF13377)
"Periplasmic binding protein-like domain"</title>
				<polygon class="PF13377" points="144,28 144,28 156,40 144,52 144,52" stroke-linejoin="round" width="15" height="24" fill="rgb(206,55,221)" stroke="rgb(164,44,176)" stroke-width="1" opacity="0.75" />
			</g>
		</g>
		<g>
			<title> (BIU87_04135)
sugar ABC transporter substrate-binding protein</title>
			<polygon class=" (BIU87_04135)
sugar ABC transporter substrate-binding protein" points="166,25 180,25 180,10 210,40 180,70 180,55 166,55" fill="rgb(255,255,255)" fill-opacity="1.0" stroke="rgb(0,0,0)" stroke-width="2"  />
			<g>
				<title>SBP_bac_1 (PF01547)
"Bacterial extracellular solute-binding protein"</title>
				<polygon class="PF01547" points="170,28 194,28 201,35 201,45 194,52 170,52" stroke-linejoin="round" width="31" height="24" fill="rgb(211,180,75)" stroke="rgb(168,144,60)" stroke-width="1" opacity="0.75" />
			</g>
		</g>
		<g>
			<title> (BIU87_04140)
ABC transporter permease</title>
			<polygon class=" (BIU87_04140)
ABC transporter permease" points="211,25 212,25 212,10 242,40 212,70 212,55 211,55" fill="rgb(255,255,255)" fill-opacity="1.0" stroke="rgb(0,0,0)" stroke-width="2"  />
			<g>
				<title>BPD_transp_1 (PF00528)
"Binding-protein-dependent transport system inner membrane component"</title>
				<polygon class="PF00528" points="221,28 226,28 238,40 226,52 221,52" stroke-linejoin="round" width="20" height="24" fill="rgb(85,202,53)" stroke="rgb(67,161,42)" stroke-width="1" opacity="0.75" />
			</g>
		</g>
		<g>
			<title> (BIU87_04145)
ABC transporter permease</title>
			<polygon class=" (BIU87_04145)
ABC transporter permease" points="242,10 270,40 242,70" fill="rgb(255,255,255)" fill-opacity="1.0" stroke="rgb(0,0,0)" stroke-width="2"  />
			<g>
				<title>BPD_transp_1 (PF00528)
"Binding-protein-dependent transport system inner membrane component"</title>
				<polygon class="PF00528" points="252,28 254,28 266,40 254,52 252,52" stroke-linejoin="round" width="18" height="24" fill="rgb(85,202,53)" stroke="rgb(67,161,42)" stroke-width="1" opacity="0.75" />
			</g>
		</g>
		<g>
			<title> (BIU87_04150)
alpha-glucosidase</title>
			<polygon class=" (BIU87_04150)
alpha-glucosidase" points="272,25 294,25 294,10 324,40 294,70 294,55 272,55" fill="rgb(255,255,255)" fill-opacity="1.0" stroke="rgb(0,0,0)" stroke-width="2"  />
			<g>
				<title>Alpha-amylase (PF00128)
"Alpha amylase, catalytic domain"</title>
				<polygon class="PF00128" points="275,28 308,28 309,29 309,51 308,52 275,52" stroke-linejoin="round" width="34" height="24" fill="rgb(100,221,182)" stroke="rgb(80,176,145)" stroke-width="1" opacity="0.75" />
			</g>
			<g>
				<title>DUF3459 (PF11941)
"Domain of unknown function (DUF3459)"</title>
				<polygon class="PF11941" points="316,36 320,40 316,44" stroke-linejoin="round" width="7" height="24" fill="rgb(83,196,68)" stroke="rgb(66,156,54)" stroke-width="1" opacity="0.75" />
			</g>
		</g>
		<g>
			<title> (BIU87_04155)
sulfate ABC transporter permease</title>
			<polygon class=" (BIU87_04155)
sulfate ABC transporter permease" points="365,25 365,25 365,10 335,40 365,70 365,55 365,55" fill="rgb(255,255,255)" fill-opacity="1.0" stroke="rgb(0,0,0)" stroke-width="2"  />
			<g>
				<title>BPD_transp_1 (PF00528)
"Binding-protein-dependent transport system inner membrane component"</title>
				<polygon class="PF00528" points="339,40 351,28 353,28 353,52 351,52" stroke-linejoin="round" width="17" height="24" fill="rgb(85,202,53)" stroke="rgb(67,161,42)" stroke-width="1" opacity="0.75" />
			</g>
		</g>
		<g>
			<title> (BIU87_04160)
sulfate ABC transporter ATP-binding protein</title>
			<polygon class=" (BIU87_04160)
sulfate ABC transporter ATP-binding protein" points="365,40 391,10 391,70" fill="rgb(255,255,255)" fill-opacity="1.0" stroke="rgb(0,0,0)" stroke-width="2"  />
			<g>
				<title>ABC_tran (PF00005)
"ABC transporter"</title>
				<polygon class="PF00005" points="374,34 380,28 387,28 387,52 380,52 374,46" stroke-linejoin="round" width="13" height="24" fill="rgb(104,148,219)" stroke="rgb(83,118,175)" stroke-width="1" opacity="0.75" />
			</g>
		</g>
		<g>
			<title> (BIU87_04165)
sulfate ABC transporter substrate-binding protein</title>
			<polygon class=" (BIU87_04165)
sulfate ABC transporter substrate-binding protein" points="428,25 422,25 422,10 392,40 422,70 422,55 428,55" fill="rgb(255,255,255)" fill-opacity="1.0" stroke="rgb(0,0,0)" stroke-width="2"  />
			<g>
				<title>NMT1_2 (PF13379)
"NMT1-like family"</title>
				<polygon class="PF13379" points="399,37 408,28 423,28 423,52 408,52 399,43" stroke-linejoin="round" width="24" height="24" fill="rgb(179,133,79)" stroke="rgb(143,106,63)" stroke-width="1" opacity="0.75" />
			</g>
		</g>
		<g>
			<title> (BIU87_04170)
Rrf2 family transcriptional regulator</title>
			<polygon class=" (BIU87_04170)
Rrf2 family transcriptional regulator" points="443,40 458,10 458,70" fill="rgb(255,255,255)" fill-opacity="1.0" stroke="rgb(0,0,0)" stroke-width="2"  />
			<g>
				<title>Rrf2 (PF02082)
"Iron-dependent Transcriptional regulator"</title>
				<polygon class="PF02082" points="446,40 452,28 458,28 458,52 452,52" stroke-linejoin="round" width="13" height="24" fill="rgb(215,54,84)" stroke="rgb(172,43,67)" stroke-width="1" opacity="0.75" />
			</g>
		</g>
		<g>
			<title> (BIU87_04175)
hypothetical protein</title>
			<polygon class=" (BIU87_04175)
hypothetical protein" points="461,40 471,10 471,70" fill="rgb(255,255,255)" fill-opacity="1.0" stroke="rgb(0,0,0)" stroke-width="2"  />
			<g>
				<title>TauE (PF01925)
"Sulfite exporter TauE/SafE"</title>
				<polygon class="PF01925" points="464,40 468,28 470,28 470,52 468,52" stroke-linejoin="round" width="9" height="24" fill="rgb(100,71,203)" stroke="rgb(80,56,162)" stroke-width="1" opacity="0.75" />
			</g>
		</g>
		<g>
			<title> (BIU87_04180)
transcriptional regulator</title>
			<polygon class=" (BIU87_04180)
transcriptional regulator" points="471,40 490,10 490,70" fill="rgb(255,255,255)" fill-opacity="1.0" stroke="rgb(0,0,0)" stroke-width="2"  />
			<g>
				<title>Trans_reg_C (PF00486)
"Transcriptional regulatory protein, C terminal"</title>
				<polygon class="PF00486" points="475,40 479,34 479,46" stroke-linejoin="round" width="7" height="24" fill="rgb(83,172,198)" stroke="rgb(66,137,158)" stroke-width="1" opacity="0.75" />
			</g>
		</g>
	</g>
</svg>
