<svg version="1.1" baseProfile="full" xmlns="http://www.w3.org/2000/svg" width="383.1333333333333" height="80">
	<g>
		<line x1="10" y1="40.0" x2="373.1333333333333" y2="40.0" style="stroke:rgb(70,70,70); stroke-width:3 "/>
		<g>
			<title> (J8C03_RS09540)
TlpA family protein disulfide reductase</title>
			<polygon class=" (J8C03_RS09540)
TlpA family protein disulfide reductase" points="22,40 45,10 45,70" fill="rgb(255,255,255)" fill-opacity="1.0" stroke="rgb(0,0,0)" stroke-width="2"  />
			<g>
				<title>AhpC-TSA (PF00578)
"AhpC/TSA family"</title>
				<polygon class="PF00578" points="30,35 35,28 40,28 40,52 35,52 30,45" stroke-linejoin="round" width="10" height="24" fill="rgb(104,223,102)" stroke="rgb(83,178,81)" stroke-width="1" opacity="0.75" />
			</g>
		</g>
		<g>
			<title>lon (J8C03_RS09545)
endopeptidase La</title>
			<polygon class="lon (J8C03_RS09545)
endopeptidase La" points="126,25 75,25 75,10 45,40 75,70 75,55 126,55" fill="rgb(255,255,255)" fill-opacity="1.0" stroke="rgb(0,0,0)" stroke-width="2"  />
			<g>
				<title>Lon_C (PF05362)
"Lon protease (S16) C-terminal proteolytic domain"</title>
				<polygon class="PF05362" points="49,40 61,28 66,28 66,52 61,52" stroke-linejoin="round" width="20" height="24" fill="rgb(95,143,208)" stroke="rgb(76,114,166)" stroke-width="1" opacity="0.75" />
			</g>
			<g>
				<title>AAA (PF00004)
"ATPase family associated with various cellular activities (AAA)"</title>
				<rect class="PF00004" x="74" y="28" stroke-linejoin="round" width="14" height="24" fill="rgb(216,69,143)" stroke="rgb(172,55,114)" stroke-width="1" opacity="0.75" />
			</g>
			<g>
				<title>LON_substr_bdg (PF02190)
"ATP-dependent protease La (LON) substrate-binding domain"</title>
				<rect class="PF02190" x="103" y="28" stroke-linejoin="round" width="19" height="24" fill="rgb(144,89,208)" stroke="rgb(115,71,166)" stroke-width="1" opacity="0.75" />
			</g>
		</g>
		<g>
			<title> (J8C03_RS09550)
TIGR04222 domain-containing membrane protein</title>
			<polygon class=" (J8C03_RS09550)
TIGR04222 domain-containing membrane protein" points="138,25 143,25 143,10 173,40 143,70 143,55 138,55" fill="rgb(255,255,255)" fill-opacity="1.0" stroke="rgb(0,0,0)" stroke-width="2"  />
		</g>
		<g>
			<title> (J8C03_RS09555)
DUF692 family protein</title>
			<polygon class=" (J8C03_RS09555)
DUF692 family protein" points="176,10 205,40 176,70" fill="rgb(255,255,255)" fill-opacity="1.0" stroke="rgb(0,0,0)" stroke-width="2"  />
			<g>
				<title>DUF692 (PF05114)
"Protein of unknown function (DUF692)"</title>
				<polygon class="PF05114" points="176,28 189,28 201,40 189,52 176,52" stroke-linejoin="round" width="26" height="24" fill="rgb(55,183,109)" stroke="rgb(44,146,87)" stroke-width="1" opacity="0.75" />
			</g>
		</g>
		<g>
			<title> (J8C03_RS09560)
Os1348 family NHLP clan protein</title>
			<polygon class=" (J8C03_RS09560)
Os1348 family NHLP clan protein" points="205,10 215,40 205,70" fill="rgb(255,255,255)" fill-opacity="1.0" stroke="rgb(0,0,0)" stroke-width="2"  />
		</g>
		<g>
			<title> (J8C03_RS09565)
AarF/ABC1/UbiB kinase family protein</title>
			<polygon class=" (J8C03_RS09565)
AarF/ABC1/UbiB kinase family protein" points="264,25 245,25 245,10 215,40 245,70 245,55 264,55" fill="rgb(255,255,255)" fill-opacity="1.0" stroke="rgb(0,0,0)" stroke-width="2"  />
			<g>
				<title>ABC1 (PF03109)
"ABC1 atypical kinase-like domain"</title>
				<polygon class="PF03109" points="228,31 231,28 252,28 252,52 231,52 228,49" stroke-linejoin="round" width="24" height="24" fill="rgb(223,110,86)" stroke="rgb(178,88,68)" stroke-width="1" opacity="0.75" />
			</g>
		</g>
		<g>
			<title> (J8C03_RS09570)
DUF4440 domain-containing protein</title>
			<polygon class=" (J8C03_RS09570)
DUF4440 domain-containing protein" points="270,40 284,10 284,70" fill="rgb(255,255,255)" fill-opacity="1.0" stroke="rgb(0,0,0)" stroke-width="2"  />
			<g>
				<title>DUF4440 (PF14534)
"Domain of unknown function (DUF4440)"</title>
				<polygon class="PF14534" points="273,40 279,28 280,28 280,52 279,52" stroke-linejoin="round" width="10" height="24" fill="rgb(68,228,135)" stroke="rgb(54,182,108)" stroke-width="1" opacity="0.75" />
			</g>
		</g>
		<g>
			<title> (J8C03_RS09575)
hypothetical protein</title>
			<polygon class=" (J8C03_RS09575)
hypothetical protein" points="325,25 315,25 315,10 285,40 315,70 315,55 325,55" fill="rgb(255,255,255)" fill-opacity="1.0" stroke="rgb(0,0,0)" stroke-width="2"  />
		</g>
		<g>
			<title>dcd (J8C03_RS09580)
dCTP deaminase</title>
			<polygon class="dcd (J8C03_RS09580)
dCTP deaminase" points="329,10 347,40 329,70" fill="rgb(255,255,255)" fill-opacity="1.0" stroke="rgb(0,0,0)" stroke-width="2"  />
			<g>
				<title>dUTPase (PF00692)
"dUTPase"</title>
				<polygon class="PF00692" points="336,28 336,28 344,40 336,52 336,52" stroke-linejoin="round" width="10" height="24" fill="rgb(73,153,218)" stroke="rgb(58,122,174)" stroke-width="1" opacity="0.75" />
			</g>
		</g>
	</g>
</svg>
